<?xml version="1.0" encoding="utf-8"?>
<svg xmlns="http://www.w3.org/2000/svg" xmlns:xlink="http://www.w3.org/1999/xlink" width="2600" height="2000" viewBox="0 0 10400 8000">
<defs>
  <clipPath id="clip510">
    <rect x="0" y="0" width="10400" height="8000"/>
  </clipPath>
</defs>
<path clip-path="url(#clip510)" d="
M0 8000 L10400 8000 L10400 0 L0 0  Z
  " fill="#ffffff" fill-rule="evenodd" fill-opacity="1"/>
<defs>
  <clipPath id="clip511">
    <rect x="2080" y="0" width="7281" height="7281"/>
  </clipPath>
</defs>
<path clip-path="url(#clip510)" d="
M517.251 7607.78 L10352.8 7607.78 L10352.8 47.2441 L517.251 47.2441  Z
  " fill="#ffffff" fill-rule="evenodd" fill-opacity="1"/>
<defs>
  <clipPath id="clip512">
    <rect x="517" y="47" width="9837" height="7562"/>
  </clipPath>
</defs>
<polyline clip-path="url(#clip512)" style="stroke:#000000; stroke-width:2; stroke-opacity:0.1; fill:none" points="
  590.282,7607.78 590.282,47.2441 
  "/>
<polyline clip-path="url(#clip512)" style="stroke:#000000; stroke-width:2; stroke-opacity:0.1; fill:none" points="
  2206.27,7607.78 2206.27,47.2441 
  "/>
<polyline clip-path="url(#clip512)" style="stroke:#000000; stroke-width:2; stroke-opacity:0.1; fill:none" points="
  3822.25,7607.78 3822.25,47.2441 
  "/>
<polyline clip-path="url(#clip512)" style="stroke:#000000; stroke-width:2; stroke-opacity:0.1; fill:none" points="
  5438.24,7607.78 5438.24,47.2441 
  "/>
<polyline clip-path="url(#clip512)" style="stroke:#000000; stroke-width:2; stroke-opacity:0.1; fill:none" points="
  7054.22,7607.78 7054.22,47.2441 
  "/>
<polyline clip-path="url(#clip512)" style="stroke:#000000; stroke-width:2; stroke-opacity:0.1; fill:none" points="
  8670.2,7607.78 8670.2,47.2441 
  "/>
<polyline clip-path="url(#clip512)" style="stroke:#000000; stroke-width:2; stroke-opacity:0.1; fill:none" points="
  10286.2,7607.78 10286.2,47.2441 
  "/>
<polyline clip-path="url(#clip510)" style="stroke:#000000; stroke-width:4; stroke-opacity:1; fill:none" points="
  517.251,7607.78 10352.8,7607.78 
  "/>
<polyline clip-path="url(#clip510)" style="stroke:#000000; stroke-width:4; stroke-opacity:1; fill:none" points="
  590.282,7607.78 590.282,7517.05 
  "/>
<polyline clip-path="url(#clip510)" style="stroke:#000000; stroke-width:4; stroke-opacity:1; fill:none" points="
  2206.27,7607.78 2206.27,7517.05 
  "/>
<polyline clip-path="url(#clip510)" style="stroke:#000000; stroke-width:4; stroke-opacity:1; fill:none" points="
  3822.25,7607.78 3822.25,7517.05 
  "/>
<polyline clip-path="url(#clip510)" style="stroke:#000000; stroke-width:4; stroke-opacity:1; fill:none" points="
  5438.24,7607.78 5438.24,7517.05 
  "/>
<polyline clip-path="url(#clip510)" style="stroke:#000000; stroke-width:4; stroke-opacity:1; fill:none" points="
  7054.22,7607.78 7054.22,7517.05 
  "/>
<polyline clip-path="url(#clip510)" style="stroke:#000000; stroke-width:4; stroke-opacity:1; fill:none" points="
  8670.2,7607.78 8670.2,7517.05 
  "/>
<polyline clip-path="url(#clip510)" style="stroke:#000000; stroke-width:4; stroke-opacity:1; fill:none" points="
  10286.2,7607.78 10286.2,7517.05 
  "/>
<path clip-path="url(#clip510)" d="M 0 0 M415.153 7845 L600.626 7845 L600.626 7869.59 L415.153 7869.59 L415.153 7845 Z" fill="#000000" fill-rule="evenodd" fill-opacity="1" /><path clip-path="url(#clip510)" d="M 0 0 M720.851 7833.71 Q741.829 7838.2 753.548 7852.38 Q765.411 7866.55 765.411 7887.39 Q765.411 7919.36 743.42 7936.87 Q721.43 7954.37 680.921 7954.37 Q667.321 7954.37 652.854 7951.62 Q638.531 7949.02 623.195 7943.67 L623.195 7915.46 Q635.348 7922.54 649.816 7926.16 Q664.283 7929.78 680.053 7929.78 Q707.541 7929.78 721.864 7918.93 Q736.331 7908.08 736.331 7887.39 Q736.331 7868.29 722.877 7857.59 Q709.566 7846.73 685.695 7846.73 L660.522 7846.73 L660.522 7822.72 L686.852 7822.72 Q708.409 7822.72 719.838 7814.18 Q731.268 7805.5 731.268 7789.3 Q731.268 7772.66 719.404 7763.84 Q707.686 7754.87 685.695 7754.87 Q673.687 7754.87 659.943 7757.47 Q646.199 7760.07 629.706 7765.57 L629.706 7739.53 Q646.343 7734.9 660.811 7732.59 Q675.423 7730.27 688.299 7730.27 Q721.574 7730.27 740.961 7745.46 Q760.347 7760.51 760.347 7786.26 Q760.347 7804.2 750.075 7816.64 Q739.804 7828.94 720.851 7833.71 Z" fill="#000000" fill-rule="evenodd" fill-opacity="1" /><path clip-path="url(#clip510)" d="M 0 0 M2034.1 7845 L2219.58 7845 L2219.58 7869.59 L2034.1 7869.59 L2034.1 7845 Z" fill="#000000" fill-rule="evenodd" fill-opacity="1" /><path clip-path="url(#clip510)" d="M 0 0 M2276.43 7925.58 L2378.43 7925.58 L2378.43 7950.18 L2241.28 7950.18 L2241.28 7925.58 Q2257.92 7908.37 2286.56 7879.43 Q2315.35 7850.35 2322.73 7841.96 Q2336.76 7826.19 2342.26 7815.34 Q2347.9 7804.34 2347.9 7793.78 Q2347.9 7776.57 2335.75 7765.72 Q2323.74 7754.87 2304.36 7754.87 Q2290.61 7754.87 2275.28 7759.64 Q2260.09 7764.41 2242.72 7774.11 L2242.72 7744.59 Q2260.37 7737.5 2275.71 7733.89 Q2291.05 7730.27 2303.78 7730.27 Q2337.34 7730.27 2357.31 7747.05 Q2377.27 7763.84 2377.27 7791.9 Q2377.27 7805.21 2372.21 7817.22 Q2367.29 7829.08 2354.12 7845.29 Q2350.51 7849.48 2331.12 7869.59 Q2311.73 7889.56 2276.43 7925.58 Z" fill="#000000" fill-rule="evenodd" fill-opacity="1" /><path clip-path="url(#clip510)" d="M 0 0 M3648.93 7845 L3834.4 7845 L3834.4 7869.59 L3648.93 7869.59 L3648.93 7845 Z" fill="#000000" fill-rule="evenodd" fill-opacity="1" /><path clip-path="url(#clip510)" d="M 0 0 M3871.15 7925.58 L3918.89 7925.58 L3918.89 7760.8 L3866.96 7771.21 L3866.96 7744.59 L3918.6 7734.18 L3947.83 7734.18 L3947.83 7925.58 L3995.57 7925.58 L3995.57 7950.18 L3871.15 7950.18 L3871.15 7925.58 Z" fill="#000000" fill-rule="evenodd" fill-opacity="1" /><path clip-path="url(#clip510)" d="M 0 0 M5438.24 7753.42 Q5415.67 7753.42 5404.24 7775.7 Q5392.95 7797.83 5392.95 7842.39 Q5392.95 7886.81 5404.24 7909.09 Q5415.67 7931.22 5438.24 7931.22 Q5460.95 7931.22 5472.23 7909.09 Q5483.66 7886.81 5483.66 7842.39 Q5483.66 7797.83 5472.23 7775.7 Q5460.95 7753.42 5438.24 7753.42 M5438.24 7730.27 Q5474.55 7730.27 5493.65 7759.06 Q5512.89 7787.71 5512.89 7842.39 Q5512.89 7896.94 5493.65 7925.73 Q5474.55 7954.37 5438.24 7954.37 Q5401.92 7954.37 5382.68 7925.73 Q5363.58 7896.94 5363.58 7842.39 Q5363.58 7787.71 5382.68 7759.06 Q5401.92 7730.27 5438.24 7730.27 Z" fill="#000000" fill-rule="evenodd" fill-opacity="1" /><path clip-path="url(#clip510)" d="M 0 0 M6994.11 7925.58 L7041.85 7925.58 L7041.85 7760.8 L6989.91 7771.21 L6989.91 7744.59 L7041.56 7734.18 L7070.79 7734.18 L7070.79 7925.58 L7118.53 7925.58 L7118.53 7950.18 L6994.11 7950.18 L6994.11 7925.58 Z" fill="#000000" fill-rule="evenodd" fill-opacity="1" /><path clip-path="url(#clip510)" d="M 0 0 M8636.78 7925.58 L8738.78 7925.58 L8738.78 7950.18 L8601.63 7950.18 L8601.63 7925.58 Q8618.27 7908.37 8646.91 7879.43 Q8675.7 7850.35 8683.08 7841.96 Q8697.11 7826.19 8702.61 7815.34 Q8708.25 7804.34 8708.25 7793.78 Q8708.25 7776.57 8696.1 7765.72 Q8684.09 7754.87 8664.71 7754.87 Q8650.96 7754.87 8635.63 7759.64 Q8620.44 7764.41 8603.08 7774.11 L8603.08 7744.59 Q8620.73 7737.5 8636.06 7733.89 Q8651.4 7730.27 8664.13 7730.27 Q8697.69 7730.27 8717.66 7747.05 Q8737.62 7763.84 8737.62 7791.9 Q8737.62 7805.21 8732.56 7817.22 Q8727.64 7829.08 8714.48 7845.29 Q8710.86 7849.48 8691.47 7869.59 Q8672.09 7889.56 8636.78 7925.58 Z" fill="#000000" fill-rule="evenodd" fill-opacity="1" /><path clip-path="url(#clip510)" d="M 0 0 M10312.7 7833.71 Q10333.7 7838.2 10345.4 7852.38 Q10357.3 7866.55 10357.3 7887.39 Q10357.3 7919.36 10335.3 7936.87 Q10313.3 7954.37 10272.8 7954.37 Q10259.2 7954.37 10244.7 7951.62 Q10230.4 7949.02 10215.1 7943.67 L10215.1 7915.46 Q10227.2 7922.54 10241.7 7926.16 Q10256.2 7929.78 10271.9 7929.78 Q10299.4 7929.78 10313.7 7918.93 Q10328.2 7908.08 10328.2 7887.39 Q10328.2 7868.29 10314.8 7857.59 Q10301.5 7846.73 10277.6 7846.73 L10252.4 7846.73 L10252.4 7822.72 L10278.7 7822.72 Q10300.3 7822.72 10311.7 7814.18 Q10323.2 7805.5 10323.2 7789.3 Q10323.2 7772.66 10311.3 7763.84 Q10299.6 7754.87 10277.6 7754.87 Q10265.6 7754.87 10251.8 7757.47 Q10238.1 7760.07 10221.6 7765.57 L10221.6 7739.53 Q10238.2 7734.9 10252.7 7732.59 Q10267.3 7730.27 10280.2 7730.27 Q10313.5 7730.27 10332.8 7745.46 Q10352.2 7760.51 10352.2 7786.26 Q10352.2 7804.2 10342 7816.64 Q10331.7 7828.94 10312.7 7833.71 Z" fill="#000000" fill-rule="evenodd" fill-opacity="1" /><polyline clip-path="url(#clip512)" style="stroke:#000000; stroke-width:2; stroke-opacity:0.1; fill:none" points="
  517.251,7394.16 10352.8,7394.16 
  "/>
<polyline clip-path="url(#clip512)" style="stroke:#000000; stroke-width:2; stroke-opacity:0.1; fill:none" points="
  517.251,6019.83 10352.8,6019.83 
  "/>
<polyline clip-path="url(#clip512)" style="stroke:#000000; stroke-width:2; stroke-opacity:0.1; fill:none" points="
  517.251,4645.49 10352.8,4645.49 
  "/>
<polyline clip-path="url(#clip512)" style="stroke:#000000; stroke-width:2; stroke-opacity:0.1; fill:none" points="
  517.251,3271.16 10352.8,3271.16 
  "/>
<polyline clip-path="url(#clip512)" style="stroke:#000000; stroke-width:2; stroke-opacity:0.1; fill:none" points="
  517.251,1896.82 10352.8,1896.82 
  "/>
<polyline clip-path="url(#clip512)" style="stroke:#000000; stroke-width:2; stroke-opacity:0.1; fill:none" points="
  517.251,522.485 10352.8,522.485 
  "/>
<polyline clip-path="url(#clip510)" style="stroke:#000000; stroke-width:4; stroke-opacity:1; fill:none" points="
  517.251,7607.78 517.251,47.2441 
  "/>
<polyline clip-path="url(#clip510)" style="stroke:#000000; stroke-width:4; stroke-opacity:1; fill:none" points="
  517.251,7394.16 635.277,7394.16 
  "/>
<polyline clip-path="url(#clip510)" style="stroke:#000000; stroke-width:4; stroke-opacity:1; fill:none" points="
  517.251,6019.83 635.277,6019.83 
  "/>
<polyline clip-path="url(#clip510)" style="stroke:#000000; stroke-width:4; stroke-opacity:1; fill:none" points="
  517.251,4645.49 635.277,4645.49 
  "/>
<polyline clip-path="url(#clip510)" style="stroke:#000000; stroke-width:4; stroke-opacity:1; fill:none" points="
  517.251,3271.16 635.277,3271.16 
  "/>
<polyline clip-path="url(#clip510)" style="stroke:#000000; stroke-width:4; stroke-opacity:1; fill:none" points="
  517.251,1896.82 635.277,1896.82 
  "/>
<polyline clip-path="url(#clip510)" style="stroke:#000000; stroke-width:4; stroke-opacity:1; fill:none" points="
  517.251,522.485 635.277,522.485 
  "/>
<path clip-path="url(#clip510)" d="M 0 0 M10.9921 7396.99 L196.466 7396.99 L196.466 7421.58 L10.9921 7421.58 L10.9921 7396.99 Z" fill="#000000" fill-rule="evenodd" fill-opacity="1" /><path clip-path="url(#clip510)" d="M 0 0 M316.691 7385.7 Q337.669 7390.19 349.387 7404.36 Q361.251 7418.54 361.251 7439.38 Q361.251 7471.35 339.26 7488.85 Q317.269 7506.36 276.76 7506.36 Q263.161 7506.36 248.693 7503.61 Q234.371 7501.01 219.035 7495.65 L219.035 7467.44 Q231.188 7474.53 245.655 7478.15 Q260.123 7481.76 275.892 7481.76 Q303.381 7481.76 317.703 7470.91 Q332.171 7460.06 332.171 7439.38 Q332.171 7420.28 318.716 7409.57 Q305.406 7398.72 281.535 7398.72 L256.361 7398.72 L256.361 7374.71 L282.692 7374.71 Q304.249 7374.71 315.678 7366.17 Q327.107 7357.49 327.107 7341.29 Q327.107 7324.65 315.244 7315.82 Q303.525 7306.85 281.535 7306.85 Q269.527 7306.85 255.782 7309.46 Q242.038 7312.06 225.545 7317.56 L225.545 7291.52 Q242.183 7286.89 256.651 7284.57 Q271.263 7282.26 284.139 7282.26 Q317.414 7282.26 336.801 7297.45 Q356.187 7312.49 356.187 7338.25 Q356.187 7356.19 345.915 7368.63 Q335.643 7380.93 316.691 7385.7 Z" fill="#000000" fill-rule="evenodd" fill-opacity="1" /><path clip-path="url(#clip510)" d="M 0 0 M16.9238 6022.65 L202.397 6022.65 L202.397 6047.24 L16.9238 6047.24 L16.9238 6022.65 Z" fill="#000000" fill-rule="evenodd" fill-opacity="1" /><path clip-path="url(#clip510)" d="M 0 0 M259.255 6103.23 L361.251 6103.23 L361.251 6127.83 L224.099 6127.83 L224.099 6103.23 Q240.736 6086.02 269.382 6057.08 Q298.172 6028 305.551 6019.61 Q319.584 6003.84 325.082 5992.99 Q330.724 5982 330.724 5971.43 Q330.724 5954.22 318.571 5943.37 Q306.563 5932.52 287.177 5932.52 Q273.433 5932.52 258.097 5937.29 Q242.906 5942.07 225.545 5951.76 L225.545 5922.24 Q243.196 5915.16 258.531 5911.54 Q273.867 5907.92 286.598 5907.92 Q320.163 5907.92 340.128 5924.7 Q360.093 5941.49 360.093 5969.55 Q360.093 5982.86 355.03 5994.87 Q350.111 6006.74 336.945 6022.94 Q333.328 6027.13 313.942 6047.24 Q294.555 6067.21 259.255 6103.23 Z" fill="#000000" fill-rule="evenodd" fill-opacity="1" /><path clip-path="url(#clip510)" d="M 0 0 M14.609 4648.31 L200.083 4648.31 L200.083 4672.91 L14.609 4672.91 L14.609 4648.31 Z" fill="#000000" fill-rule="evenodd" fill-opacity="1" /><path clip-path="url(#clip510)" d="M 0 0 M236.83 4728.9 L284.573 4728.9 L284.573 4564.11 L232.634 4574.53 L232.634 4547.91 L284.283 4537.49 L313.508 4537.49 L313.508 4728.9 L361.251 4728.9 L361.251 4753.49 L236.83 4753.49 L236.83 4728.9 Z" fill="#000000" fill-rule="evenodd" fill-opacity="1" /><path clip-path="url(#clip510)" d="M 0 0 M286.598 3182.4 Q264.029 3182.4 252.6 3204.68 Q241.315 3226.81 241.315 3271.37 Q241.315 3315.79 252.6 3338.07 Q264.029 3360.2 286.598 3360.2 Q309.312 3360.2 320.597 3338.07 Q332.026 3315.79 332.026 3271.37 Q332.026 3226.81 320.597 3204.68 Q309.312 3182.4 286.598 3182.4 M286.598 3159.25 Q322.912 3159.25 342.009 3188.04 Q361.251 3216.69 361.251 3271.37 Q361.251 3325.92 342.009 3354.71 Q322.912 3383.35 286.598 3383.35 Q250.285 3383.35 231.043 3354.71 Q211.946 3325.92 211.946 3271.37 Q211.946 3216.69 231.043 3188.04 Q250.285 3159.25 286.598 3159.25 Z" fill="#000000" fill-rule="evenodd" fill-opacity="1" /><path clip-path="url(#clip510)" d="M 0 0 M236.83 1980.23 L284.573 1980.23 L284.573 1815.44 L232.634 1825.86 L232.634 1799.24 L284.283 1788.82 L313.508 1788.82 L313.508 1980.23 L361.251 1980.23 L361.251 2004.82 L236.83 2004.82 L236.83 1980.23 Z" fill="#000000" fill-rule="evenodd" fill-opacity="1" /><path clip-path="url(#clip510)" d="M 0 0 M259.255 605.89 L361.251 605.89 L361.251 630.485 L224.099 630.485 L224.099 605.89 Q240.736 588.674 269.382 559.739 Q298.172 530.659 305.551 522.268 Q319.584 506.498 325.082 495.648 Q330.724 484.653 330.724 474.091 Q330.724 456.875 318.571 446.024 Q306.563 435.174 287.177 435.174 Q273.433 435.174 258.097 439.948 Q242.906 444.722 225.545 454.415 L225.545 424.902 Q243.196 417.813 258.531 414.196 Q273.867 410.579 286.598 410.579 Q320.163 410.579 340.128 427.361 Q360.093 444.143 360.093 472.21 Q360.093 485.521 355.03 497.529 Q350.111 509.392 336.945 525.596 Q333.328 529.791 313.942 549.901 Q294.555 569.866 259.255 605.89 Z" fill="#000000" fill-rule="evenodd" fill-opacity="1" /><polyline clip-path="url(#clip512)" style="stroke:#009af9; stroke-width:20; stroke-opacity:1; fill:none" points="
  4938.02,1734.6 4943.96,1730.25 4961.78,1717.27 4991.44,1695.92 5032.89,1666.62 5086.03,1629.93 5150.73,1586.56 5226.81,1537.37 5314.04,1483.32 5412.1,1425.46 
  5520.61,1364.94 5639.12,1302.94 5767.08,1240.7 5903.84,1179.43 6048.7,1120.37 6200.84,1064.67 6359.37,1013.47 6523.36,967.797 6691.78,928.586 6863.6,896.663 
  7037.74,872.727 7213.11,857.344 7388.63,850.943 7563.23,853.814 7735.9,866.111 7905.65,887.857 8071.59,918.951 8232.87,959.181 8388.75,1008.24 8538.56,1065.71 
  8681.75,1131.15 8817.82,1204.02 8946.42,1283.75 9067.23,1369.75 9180.06,1461.43 9284.76,1558.16 9381.29,1659.35 9469.62,1764.44 9549.82,1872.86 9621.95,1984.08 
  9686.15,2097.64 9742.55,2213.07 9791.32,2329.96 9832.62,2447.93 9866.63,2566.65 9893.52,2685.8 9913.47,2805.1 9926.67,2924.3 9933.27,3043.17 9933.45,3161.52 
  9927.38,3279.15 9915.21,3395.91 9897.12,3511.63 9873.28,3626.19 9843.84,3739.46 9808.99,3851.34 9768.9,3961.74 9723.75,4070.59 9673.73,4177.81 9619,4283.38 
  9559.78,4387.25 9496.22,4489.42 9428.52,4589.9 9356.85,4688.71 9281.37,4785.88 9202.23,4881.48 9119.55,4975.57 9033.46,5068.25 8944.03,5159.6 8851.33,5249.73 
  8755.37,5338.75 8656.16,5426.76 8553.64,5513.88 8447.75,5600.19 8338.37,5685.78 8225.33,5770.72 8108.44,5855.02 7987.49,5938.71 7862.22,6021.74 7732.34,6104.04 
  7597.56,6185.49 7457.55,6265.9 7312,6345.04 7160.58,6422.61 7003,6498.25 6838.97,6571.54 6668.25,6641.97 6490.64,6709.01 6306,6772.02 6114.26,6830.35 
  5915.44,6883.26 5709.64,6929.98 5497.08,6969.7 5278.09,7001.6 5053.12,7024.81 4822.76,7038.49 4587.72,7041.8 4348.86,7033.91 4107.19,7014.04 3863.86,6981.47 
  3620.15,6935.55 3377.48,6875.7 3137.4,6801.46 2901.57,6712.48 2671.77,6608.54 2449.87,6489.59 2237.8,6355.71 2037.55,6207.16 1851.14,6044.39 1680.62,5868.02 
  1527.98,5678.88 1395.21,5477.97 1284.19,5266.52 1196.73,5045.91 1134.49,4817.72 1098.97,4583.73 1091.47,4345.83 1113.08,4106.1 1164.64,3866.73 1246.68,3630 
  1359.47,3398.28 1502.92,3173.96 1676.62,2959.46 1879.76,2757.19 2111.15,2569.47 2369.2,2398.54 2651.93,2246.45 2956.98,2115.09 3281.58,2006.08 3622.6,1920.74 
  3976.54,1860.07 4339.6,1824.66 4707.69,1814.66 5076.51,1829.74 5441.65,1869.05 5798.65,1931.21 6143.12,2014.3 6470.9,2115.86 6778.12,2232.95 7061.39,2362.17 
  7317.84,2499.79 7545.18,2641.74 7741.86,2783.87 7907.23,2922.11 8041.11,3052.4 8143.88,3170.89 8216.36,3274.09 8259.73,3358.92 8275.3,3422.82 8264.33,3463.74 
  8227.95,3480.12 8167,3470.88 8082.09,3435.43 7973.6,3373.67 7841.8,3286 7686.99,3173.36 7509.6,3037.26 7310.33,2879.78 7090.23,2703.57 6850.76,2511.76 
  6593.4,2307.67 6320.11,2095.01 6033.1,1877.76 5734.84,1660.03 5428,1445.97 5115.44,1239.71 4800.17,1045.26 4485.29,866.377 4173.94,706.463 3869.28,568.486 
  3574.38,454.869 3292.23,367.42 3025.64,307.266 2777.17,274.805 2549.1,269.671 2343.31,290.705 2161.18,335.945 2003.28,402.701 1869.59,487.661 1759.3,587 
  1670.9,696.53 1602.15,811.878 1550.24,928.668 1511.87,1042.71 1483.5,1150.2 1461.57,1247.82 1442.72,1332.91 1424.04,1403.53 1403.27,1458.5 1378.94,1497.38 
  1350.47,1520.47 1318.2,1528.76 1283.28,1523.8 1247.62,1507.59 1213.69,1482.51 1184.36,1451.15 1162.66,1416.19 1151.62,1380.27 1154.1,1345.91 1172.62,1315.34 
  1209.33,1290.48 1265.84,1272.87 1343.3,1263.59 1442.3,1263.29 1562.95,1272.21 1704.92,1290.16 1867.41,1316.59 2049.25,1350.65 2248.89,1391.24 2464.4,1437.07 
  2693.63,1486.7 2934.24,1538.61 3183.62,1591.29 3439,1643.24 3697.45,1693.05 3955.93,1739.42 4211.32,1781.2 4460.44,1817.43 4700.14,1847.34 4927.34,1870.4 
  5139.05,1886.3 5332.47,1894.99 5505,1896.65 5654.33,1891.75 5778.45,1881 5875.72,1865.41 5944.9,1846.2 5985.29,1824.86 5996.47,1803.12 5978.43,1782.89 
  5931.77,1766.28 5857.63,1755.46 5757.65,1752.65 5633.87,1760.06 5488.8,1779.77 5325.27,1813.71 5146.49,1863.57 4955.93,1930.72 4757.3,2016.18 4554.44,2120.56 
  4351.24,2244.06 4151.57,2386.46 3959.14,2547.11 3777.41,2725.02 3609.56,2918.87 3458.4,3127.16 3326.34,3348.19 3215.39,3580.28 3127.43,3821.26 3063.99,4068.83 
  3026.12,4320.72 3014.52,4574.66 3029.58,4828.35 3071.35,5079.54 3139.58,5326.01 3233.75,5565.62 3353.07,5796.32 3496.53,6016.14 3662.87,6223.21 3850.64,6415.81 
  4058.21,6592.32 4283.76,6751.27 4525.34,6891.32 4780.84,7011.29 5048.05,7110.17 5324.65,7187.08 5608.2,7241.33 5896.21,7272.37 6186.11,7279.85 6475.29,7263.58 
  6761.1,7223.57 7040.87,7159.99 7311.94,7073.22 7571.65,6963.8 7817.39,6832.48 8046.58,6680.19 8256.72,6508.04 8445.4,6317.32 8610.3,6109.53 8749.26,5886.32 
  8860.23,5649.51 8941.36,5401.11 8990.97,5143.25 9007.62,4878.26 8990.1,4608.54 8937.47,4336.72 8849.09,4065.43 8724.58,3797.38 8563.93,3535.38 8367.54,3282.34 
  8136.23,3041.17 7871.27,2814.76 7574.38,2605.97 7247.78,2417.51 6894.2,2251.97 6516.91,2111.75 6119.74,1998.98 5707.11,1915.44 5284.01,1862.51 4855.98,1841.06 
  4429.01,1851.31 4009.46,1892.77 3603.8,1964.16 3218.46,2063.29 2859.5,2187.12 2532.32,2331.7 2241.37,2492.35 1989.91,2663.72 1779.84,2839.99 1611.6,3015.13 
  1483.92,3183.38 1394.47,3339.32 1340.29,3478.13 1318.23,3595.77 1325.54,3689.03 1360.39,3755.44 1422.13,3793.22 1511.27,3801.15 1629.25,3778.54 1777.96,3725.24 
  1959.18,3641.71 2174.09,3529.07 2423.08,3389 2705.49,3223.75 3019.55,3036.18 3362.48,2829.69 3730.68,2608.12 4119.91,2375.71 4525.51,2137.03 4942.57,1896.87 
  5366.14,1660.17 5791.26,1431.97 6213.03,1217.3 6626.62,1021.1 7027.24,848.174 7410.22,702.989 7770.99,589.536 8105.06,511.234 8408.04,470.753 8675.79,469.841 
  8904.49,509.167 9090.83,588.173 9232.28,704.962 9327.3,856.231 9375.68,1037.27 9378.83,1242.08 9339.98,1463.52 9264.36,1693.66 9159.14,1924.11 9033.34,2146.42 
  8897.23,2352.77 8761.82,2536.12 8638.23,2690.48 8536.71,2811.22 8465.79,2895.22 8431.57,2940.73 8437.26,2947.3 8482.99,2915.56 8565.84,2847.22 8680.08,2745.06 
  8817.7,2612.94 8968.98,2455.83 9123.38,2279.69 9270.33,2091.22 9400,1897.44 9503.77,1705.41 9574.56,1521.92 9607.03,1353.12 9597.57,1204.27 9544.2,1079.57 
  9446.36,982.054 9304.68,913.585 9120.74,874.872 8896.81,865.588 8635.71,884.508 8340.68,929.666 8015.28,998.514 7663.4,1088.05 7289,1194.93 6896.26,1315.62 
  6489.57,1446.51 6073.51,1584 5652.88,1724.57 5232.6,1864.84 4817.76,2001.63 4413.49,2131.94 4024.9,2253.06 3656.92,2362.51 3314.15,2458.07 3000.66,2537.83 
  2719.85,2600.16 2474.35,2643.71 2266.02,2667.47 2095.71,2670.88 1963.8,2653.73 1870.33,2616.28 1815.14,2559.39 1798.08,2484.6 1819.26,2394.19 1879.02,2291.19 
  1977.84,2179.37 2116.08,2063.16 2293.62,1947.48 2509.57,1837.53 2761.97,1738.54 3047.67,1655.46 3362.47,1592.69 3701.56,1553.92 4059.35,1542.03 4429.8,1559.02 
  4806.74,1605.97 5184.05,1683.17 5555.89,1790.15 5916.84,1925.79 6261.94,2088.42 6586.82,2275.95 6887.68,2485.94 7161.39,2715.74 7405.38,2962.54 7617.6,3223.38 
  7796.54,3495.29 7941.2,3775.28 8051.01,4060.42 8125.8,4347.81 8165.8,4634.66 8171.56,4918.28 8143.95,5196.09 8084.08,5465.66 7993.35,5724.67 7873.37,5970.97 
  7725.93,6202.56 7553.03,6417.59 7356.81,6614.39 7139.55,6791.44 6903.67,6947.41 6651.67,7081.13 6386.17,7191.59 6109.85,7278 5825.45,7339.72 5535.78,7376.3 
  5243.64,7387.47 4951.89,7373.15 4663.36,7333.45 4380.89,7268.65 4107.3,7179.22 3845.33,7065.83 3597.71,6929.3 3367.08,6770.67 3155.98,6591.13 2966.86,6392.06 
  2802.06,6175 2663.76,5941.68 2553.99,5693.98 2474.62,5433.96 2427.3,5163.8 2413.47,4885.87 2434.32,4602.65 2490.78,4316.75 2583.48,4030.93 2712.7,3748.02 
  2878.38,3470.97 3080.04,3202.78 3316.77,2946.49 3587.17,2705.17 3889.32,2481.84 4220.73,2279.47 4578.31,2100.88 4958.32,1948.68 5356.39,1825.21 5767.47,1732.4 
  6185.92,1671.7 6605.56,1643.9 7019.79,1649.08 7421.75,1686.45 7804.6,1754.23 8161.85,1849.64 8487.62,1968.88 8777.09,2107.18 9026.76,2259.01 9234.72,2418.31 
  9400.65,2578.78 9525.66,2734.31 9611.85,2879.2 9661.8,3008.49 9677.92,3118.09 9661.99,3205 9614.81,3267.15 9535.66,3303.04 9423.09,3311.97 9275.19,3293.85 
  9090.15,3249.11 8866.77,3178.66 8604.9,3083.86 8305.62,2966.52 7971.3,2828.84 7605.41,2673.42 7212.34,2503.17 6797.08,2321.33 6365.05,2131.41 5921.85,1937.2 
  5473.08,1742.72 5024.21,1552.18 4580.59,1369.91 4147.35,1200.36 3729.44,1047.97 3331.64,917.096 2958.61,811.888 2614.89,736.164 2304.86,693.245 2032.77,685.785 
  1802.61,715.591 1617.97,783.44 1481.87,888.901 1396.45,1030.18 1362.7,1204.07 1380.13,1405.85 1446.4,1629.42 1557.03,1867.46 1705.25,2111.77 1882.02,2353.72 
  2076.33,2584.68 2275.62,2796.52 2466.56,2982 2635.94,3135.08 2771.67,3251.04 2863.9,3326.57 2906.06,3359.82 2895.77,3350.48 2833.51,3298.39 2723.73,3204.54 
  2574.49,3071.26 2396.55,2902.21 2202.51,2702.46 2005.76,2478.48 1819.51,2237.98 1655.88,1989.52 1525.22,1741.99 1435.68,1504.13 1393.06,1284.04 1400.88,1088.85 
  1460.64,924.33 1572.09,794.797 1733.6,703.08 1942.5,650.548 2195.41,637.234 2488.4,661.988 2817.27,722.662 3177.61,816.291 3564.87,939.278 3974.39,1087.56 
  4401.41,1256.78 4841.04,1442.38 5288.17,1639.74 5737.63,1844.28 6184,2051.5 6621.7,2257.03 7045.14,2456.71 7448.81,2646.64 7827.54,2823.18 8176.66,2983.02 
  8492.3,3123.21 8771.62,3241.16 9013.01,3334.7 9216.18,3402.11 9382.04,3442.15 9512.42,3454.11 9609.66,3437.89 9675.76,3393.83 9711.91,3322.81 9718.16,3226.51 
  9693.28,3107.4 9634.92,2968.86 9540.11,2815.2 9405.91,2651.59 9230.08,2483.91 9011.63,2318.44 8751.18,2161.54 8450.96,2019.26 8114.77,1896.99 7747.79,1799.33 
  7356.1,1729.91 6946.33,1691.34 6525.37,1685.23 6100.08,1712.24 5677.03,1772.17 5262.3,1864.13 4861.4,1986.65 4479.24,2137.74 4120.12,2315.09 3787.69,2516.05 
  3485,2737.77 3214.46,2977.29 2977.81,3231.67 2776.37,3497.92 2611.08,3772.94 2482.35,4053.76 2390.24,4337.45 2334.41,4621.2 2314.21,4902.26 2328.71,5178.03 
  2376.69,5446.03 2456.7,5703.93 2567.05,5949.53 2705.9,6180.78 2871.19,6395.83 3060.73,6592.94 3272.18,6770.59 3503.09,6927.41 3750.91,7062.21 4013.01,7173.97 
  4286.67,7261.88 4569.14,7325.29 4857.62,7363.75 5149.29,7376.96 5441.34,7364.86 5730.94,7327.52 6015.29,7265.24 6291.63,7178.46 6557.26,7067.84 6809.52,6934.19 
  7045.86,6778.5 7263.81,6601.96 7460.99,6405.89 7635.2,6191.82 7784.32,5961.41 7906.45,5716.51 7999.84,5459.1 8062.96,5191.32 8094.49,4915.47 8093.4,4634.01 
  8058.9,4349.45 7990.5,4064.39 7888.08,3781.59 7751.87,3503.91 7582.58,3234.26 7381.31,2975.54 7149.67,2730.63 6889.75,2502.34 6604.16,2293.34 6296.1,2106.12 
  5969.29,1942.92 5628.07,1805.65 5277.26,1695.75 4922.18,1614.16 4568.46,1561.15 4221.93,1536.27 3888.41,1538.26 3573.47,1565.09 3282.27,1613.92 3019.36,1681.21 
  2788.5,1762.88 2592.71,1854.41 2434.03,1951.13 2313.67,2048.45 2232.36,2142.01 2190.35,2227.94 2187.6,2302.97 2223.97,2364.47 2299.29,2410.5 2413.35,2439.74 
  2565.8,2451.39 2755.96,2445.17 2982.61,2421.21 3243.79,2380.09 3536.65,2322.79 3858.02,2250.5 4204.12,2164.69 4570.68,2067.16 4953.09,1959.95 5346.57,1845.37 
  5746.26,1726 6147.32,1604.61 6545.04,1484.19 6934.85,1367.85 7312.37,1258.83 7673.4,1160.39 8013.94,1075.76 8330.2,1008.04 8618.64,960.044 8875.98,934.248 
  9099.24,932.616 9285.87,956.476 9433.8,1006.39 9541.68,1082.03 9608.99,1182.1 9636.24,1304.27 9625.15,1445.15 9578.82,1600.39 9501.84,1764.75 9400.27,1932.37 
  9281.5,2096.98 9153.94,2252.27 9026.61,2392.11 8908.64,2510.77 8808.31,2603.53 8732.75,2666.36 8687.27,2696.07 8674.74,2690.63 8695.28,2649.18 8746.26,2572.13 
  8822.51,2461.12 8916.82,2319.06 9020.52,2150.06 9124.12,1959.4 9217.92,1753.4 9292.68,1539.33 9340.19,1325.26 9353.93,1119.7 9329.16,929.825 9262.8,762.344 
  9153.46,623.101 9001.22,516.764 8807.43,446.705 8574.42,414.978 8305.28,422.346 8003.62,468.376 7673.4,551.559 7318.82,669.454 6944.22,818.845 6554.05,995.887 
  6152.82,1196.24 5745.05,1415.22 5335.37,1647.89 4928.43,1889.21 4528.9,2134.08 4141.36,2377.49 3770.27,2614.57 3419.82,2840.69 3093.75,3051.53 2795.23,3243.18 
  2526.64,3412.2 2289.47,3555.71 2084.26,3671.45 1910.64,3757.8 1767.6,3813.77 1653.73,3838.98 1567.69,3833.62 1508.6,3798.4 1476.38,3734.6 1471.92,3644.09 
  1497.05,3529.39 1554.31,3393.71 1646.56,3240.95 1776.49,3075.71 1946.12,2903.15 2156.33,2728.82 2406.54,2558.47 2694.94,2397.64 3018.43,2251.5 3372.75,2124.66 
  3752.75,2021.02 4152.69,1943.68 4566.51,1894.91 4988.06,1876.17 5411.29,1888.14 5830.43,1930.84 6240.1,2003.65 6635.39,2105.42 7011.9,2234.59 7365.76,2389.21 
  7693.62,2567.06 7992.68,2765.66 8260.66,2982.42 8495.74,3214.58 8696.61,3459.35 8862.37,3713.89 8992.53,3975.37 9086.99,4240.99 9146,4508.01 9170.14,4773.77 
  9160.28,5035.71 9117.57,5291.39 9043.4,5538.52 8939.38,5774.92 8807.33,5998.61 8649.21,6207.76 8467.18,6400.69 8263.49,6575.93 8040.49,6732.2 7800.65,6868.39 
  7546.48,6983.58 7280.52,7077.05 7005.37,7148.26 6723.6,7196.88 6437.79,7222.74 6150.48,7225.87 5864.18,7206.46 5581.32,7164.89 5304.26,7101.71 5035.28,7017.63 
  4776.53,6913.51 4530.06,6790.36 4297.77,6649.33 4081.43,6491.72 3882.64,6318.95 3702.81,6132.56 3543.19,5934.18 3404.8,5725.56 3288.44,5508.51 3194.69,5284.94 
  3123.89,5056.77 3076.1,4826.01 3051.12,4594.64 3048.46,4364.67 3067.37,4138.07 3106.77,3916.77 3165.29,3702.61 3241.28,3497.31 3332.8,3302.46 3437.67,3119.47 
  3553.44,2949.53 3677.48,2793.62 3807,2652.43 3939.07,2526.42 4070.7,2415.74 4198.91,2320.23 4320.76,2239.48 4433.46,2172.77 4534.35,2119.18 4621.05,2077.52 
  4691.45,2046.45 4743.8,2024.51 4776.66,2010.12 4789.02,2001.68 4780.2,1997.62 4749.96,1996.38 4698.43,1996.5 4626.09,1996.65 4533.8,1995.62 4422.76,1992.37 
  4294.42,1986.04 4150.48,1975.97 3992.88,1961.68 3823.74,1942.89 3645.32,1919.51 3459.91,1891.66 3269.88,1859.62 3077.57,1823.84 2885.34,1784.93 2695.48,1743.61 
  2510.19,1700.7 2331.55,1657.09 2161.48,1613.69 2001.73,1571.44 1853.78,1531.2 1718.93,1493.79 1598.15,1459.89 1492.18,1430.02 1401.43,1404.52 1326.03,1383.52 
  1265.78,1366.86 1220.22,1354.13 1188.57,1344.62 1169.73,1337.36 1162.3,1331.29 1164.75,1325.07 1175.5,1317.26 1192.93,1306.35 1215.54,1290.82 1242.03,1269.3 
  1271.41,1240.55 1303.06,1203.62 1336.83,1157.9 1373.03,1103.19 1412.46,1039.72 1456.37,968.237 1506.34,889.99 1564.24,806.706 1632.07,720.56 1711.85,634.092 
  1805.47,550.121 1914.57,471.67 2040.42,401.808 2183.91,343.522 2345.45,299.608 2524.97,272.563 2721.93,264.484 2935.32,276.985 3163.71,311.132 3405.34,367.407 
  3658.16,445.691 3919.93,545.285 4188.28,664.934 4460.78,802.879 4734.97,956.918 5008.41,1124.46 5278.68,1302.57 5543.37,1488.04 5800.07,1677.38 6046.52,1867.01 
  6281.01,2053.6 6501.79,2233.79 6707.35,2404.36 6896.37,2562.33 7067.75,2705.04 7220.57,2830.16 7354.07,2935.77 7467.63,3020.36 7560.65,3082.9 7632.58,3122.79 
  7682.8,3139.92 7710.63,3134.61 7715.27,3107.65 7695.87,3060.31 7651.54,2994.26 7581.36,2911.58 7484.61,2814.76 7360.78,2706.66 7209.69,2590.4 7031.57,2469.33 
  6827.11,2346.91 6597.51,2226.64 6344.47,2111.98 6070.23,2006.21 5777.45,1912.4 5469.2,1833.3 5148.84,1771.31 4819.96,1728.39 4486.24,1706.08 4151.36,1705.46 
  3818.96,1727.18 3492.6,1771.47 3175.73,1838.15 2871.53,1926.67 2582.9,2036.12 2312.46,2165.33 2062.51,2312.83 1834.99,2476.96 1631.51,2655.89 1453.33,2847.65 
  1301.36,3050.19 1176.16,3261.41 1077.97,3479.2 1006.74,3701.47 962.113,3926.19 943.473,4151.42 949.968,4375.3 980.54,4596.12 1033.95,4812.31 1108.8,5022.45 
  1203.6,5225.29 1316.74,5419.75 1446.57,5604.94 1591.39,5780.11 1749.53,5944.71 1919.3,6098.33 2099.06,6240.72 2287.26,6371.77 2482.39,6491.51 2683.06,6600.06 
  2887.95,6697.64 3095.88,6784.59 3305.77,6861.27 3516.67,6928.11 3727.73,6985.59 3938.22,7034.19 4147.54,7074.41 4355.16,7106.76 4560.67,7131.71 4763.75,7149.74 
  4964.15,7161.27 5161.69,7166.72 5356.25,7166.44 5547.76,7160.75 5736.17,7149.95 5921.48,7134.27 6103.71,7113.91 6282.89,7089.02 6459.03,7059.74 6632.17,7026.15 
  6802.34,6988.32 6969.53,6946.29 7133.76,6900.07 7295,6849.67 7453.22,6795.08 7608.37,6736.28 7760.38,6673.25 7909.15,6605.96 8054.6,6534.4 8196.6,6458.54 
  8335.02,6378.37 8469.72,6293.89 8600.54,6205.1 8727.32,6112 8849.89,6014.63 8968.07,5913 9081.66,5807.16 9190.48,5697.16 9294.31,5583.04 9392.94,5464.89 
  9486.15,5342.77 9573.68,5216.78 9655.29,5087.01 9730.7,4953.59 9799.61,4816.64 9861.72,4676.31 9916.67,4532.78 9964.11,4386.24 10003.7,4236.92 10034.9,4085.09 
  10057.4,3931.06 10070.7,3775.17 10074.4,3617.82 10068,3459.47 10051,3300.64 10023,3141.88 9983.62,2983.83 9932.43,2827.18 9869.11,2672.69 9793.4,2521.14 
  9705.13,2373.39 9604.19,2230.33 9490.62,2092.86 9364.55,1961.91 9226.26,1838.4 9076.17,1723.22 8914.82,1617.24 8742.94,1521.26 8561.37,1436 8371.12,1362.08 
  8173.32,1300 7969.24,1250.13 7760.25,1212.67 7547.83,1187.67 7333.51,1174.99 7118.89,1174.29 6905.58,1185.06 6695.19,1206.59 6489.3,1238 6289.45,1278.21 
  6097.08,1326.02 5913.54,1380.06 5740.05,1438.88 5577.68,1500.93 5427.37,1564.62 5289.88,1628.32 5165.86,1690.42 5055.75,1749.37 4959.9,1803.69 4878.5,1851.98 
  4811.65,1892.99 4759.35,1925.64 4721.49,1949.02 4697.91,1962.41 4688.37,1965.33 4692.63,1957.5 4710.47,1938.8 4741.62,1909.35 4785.8,1869.49 4842.68,1819.79 
  4911.92,1760.97 4993.14,1693.97 5085.94,1619.86 5189.83,1539.86 5304.29,1455.29 5428.72,1367.56 5562.44,1278.15 5704.7,1188.54 5854.65,1100.23 6011.38,1014.66 
  6173.89,933.209 6341.15,857.162 6512.07,787.672 6685.52,725.752 6860.4,672.251 7035.56,627.854 7209.88,593.063 7382.28,568.195 7551.74,553.387 7717.34,548.601 
  7878.2,553.641 8033.59,568.166 8182.87,591.713 8325.5,623.714 8461.07,663.525 8589.29,710.444 8709.96,763.741 8822.97,822.677 8928.31,886.521 9026.02,954.573 
  9116.21,1026.18 9199.01,1100.72 9274.59,1177.68 9343.14,1256.56 9404.81,1336.95 9459.79,1418.5 9508.21,1500.91 9550.22,1583.93 9585.92,1667.38 9615.42,1751.07 
  9638.81,1834.88 9656.17,1918.68 9667.57,2002.37 9673.11,2085.84 9672.89,2169.01 9667.02,2251.77 9655.66,2334.03 9639,2415.7 9617.23,2496.67 9590.63,2576.86 
  9559.47,2656.19 9524.08,2734.57 9484.83,2811.96 9442.1,2888.31 9396.34,2963.61 9347.96,3037.89 9297.41,3111.19 9245.15,3183.6 9191.62,3255.23 9137.25,3326.27 
  9082.45,3396.9 9027.58,3467.37 8972.98,3537.96 8918.91,3608.98 8865.58,3680.77 8813.14,3753.69 8761.64,3828.11 8711.06,3904.42 8661.3,3983.01 8612.15,4064.24 
  8563.34,4148.47 8514.48,4236.02 8465.1,4327.18 8414.66,4422.18 8362.53,4521.18 8308.01,4624.28 8250.34,4731.47 8188.73,4842.7 8122.35,4957.82 8050.36,5076.56 
  7971.91,5198.58 7886.16,5323.43 7792.3,5450.55 7689.59,5579.29 7577.31,5708.91 7454.85,5838.57 7321.67,5967.38 7177.35,6094.33 7021.58,6218.38 6854.19,6338.43 
  6675.12,6453.32 6484.5,6561.9 6282.56,6662.96 6069.74,6755.31 5846.61,6837.77 5613.92,6909.17 5372.57,6968.39 5123.64,7014.38 4868.35,7046.13 4608.08,7062.72 
  4344.37,7063.35 4078.88,7047.3 3813.42,7014 3549.93,6962.99 3290.4,6894.01 3036.95,6806.9 2791.74,6701.73 2557,6578.7 2334.98,6438.23 2127.93,6280.91 
  1938.11,6107.54 1767.72,5919.13 1618.89,5716.87 1493.67,5502.16 1393.96,5276.59 1321.53,5041.93 1277.96,4800.12 1264.62,4553.25 1282.63,4303.59 1332.88,4053.47 
  1415.95,3805.37 1532.11,3561.83 1681.28,3325.43 1863.04,3098.78 2076.57,2884.47 2320.64,2685.05 2593.6,2502.94 2893.36,2340.48 3217.35,2199.76 3562.56,2082.67 
  3925.55,1990.77 4302.55,1925.25 4689.41,1886.9 5081.56,1876.05 5474.21,1892.49 5862.35,1935.45 6240.93,2003.54 6604.98,2094.75 6949.72,2206.44 7270.75,2335.38 
  7564.21,2477.78 7826.92,2629.43 8056.54,2785.78 8251.63,2942.11 8411.68,3093.74 8537.07,3236.16 8628.83,3365.17 8688.43,3476.98 8717.62,3568.32 8718.03,3636.45 
  8691.06,3679.17 8637.76,3694.86 8558.75,3682.44 8454.3,3641.39 8324.41,3571.72 8168.95,3473.98 7987.9,3349.26 7781.49,3199.24 7550.38,3026.21 7295.87,2833.15 
  7019.83,2623.61 6724.24,2401.28 6411.64,2170.34 6084.93,1935.22 5747.26,1700.51 5401.99,1470.9 5052.63,1250.98 4702.79,1045.26 4356.12,857.94 4016.3,692.885 
  3686.99,553.478 3371.8,442.524 3074.22,362.139 2797.55,313.642 2544.78,297.477 2318.52,313.153 2120.81,359.205 1953.04,433.191 1815.75,531.751 1708.55,650.695 
  1630.02,785.152 1577.71,929.764 1548.15,1078.91 1537.02,1226.96 1539.33,1368.52 1549.74,1498.69 1562.9,1613.28 1573.82,1708.99 1578.27,1783.4 1573.02,1835.13 
  1556.15,1863.75 1527.11,1869.8 1486.78,1854.69 1437.34,1820.62 1382.05,1770.43 1324.99,1707.47 1270.76,1635.43 1224.11,1558.15 1189.68,1479.45 1171.76,1403.01 
  1174.06,1332.23 1199.55,1270.1 1250.5,1218.95 1328.42,1180.53 1434.05,1156 1567.48,1145.88 1728.17,1150.11 1915.04,1168.12 2126.53,1198.86 2360.71,1240.94 
  2615.27,1292.64 2887.61,1352.05 3174.88,1417.1 3473.99,1485.71 3781.62,1555.76 4094.28,1625.22 4408.37,1692.17 4720.14,1754.83 5025.83,1811.62 5321.64,1861.18 
  5603.85,1902.37 5868.83,1934.31 6113.17,1956.4 6333.69,1968.31 6527.57,1969.99 6692.36,1961.73 6826,1944.1 6926.87,1918.04 6993.79,1884.83 7026.05,1846.1 
  7023.44,1803.82 6986.21,1760.29 6915.01,1718.12 6811.08,1680.08 6676.19,1649.11 6512.65,1628.15 6323.3,1620.03 6111.47,1627.4 5880.95,1652.55 5635.89,1697.38 
  5380.71,1763.3 5119.96,1851.21 4858.23,1961.46 4599.98,2093.93 4349.45,2248 4110.61,2422.62 3887.14,2616.37 3682.29,2827.47 3498.91,3053.93 3339.39,3293.52 
  3205.71,3543.9 3099.39,3802.61 3021.56,4067.15 2972.95,4335 2953.91,4603.66 2964.46,4870.65 3004.28,5133.59 3072.77,5390.15 3169.04,5638.13 3291.97,5875.44 
  3440.21,6100.11 3612.19,6310.28 3806.17,6504.26 4020.24,6680.48 4252.34,6837.54 4500.25,6974.18 4761.68,7089.33 5034.2,7182.07 5315.3,7251.63 5602.4,7297.43 
  5892.87,7319.09 6184.01,7316.36 6473.12,7289.2 6757.47,7237.76 7034.32,7162.35 7300.98,7063.49 7554.75,6941.86 7793.03,6798.34 8013.23,6634.01 8212.9,6450.09 
  8389.64,6248.02 8541.22,6029.4 8665.52,5796 8760.6,5549.75 8824.68,5292.75 8856.21,5027.25 8853.85,4755.64 8816.53,4480.43 8743.45,4204.26 8634.11,3929.88 
  8488.35,3660.09 8306.39,3397.8 8088.82,3145.93 7836.69,2907.42 7551.51,2685.2 7235.3,2482.13 6890.59,2300.97 6520.52,2144.3 6128.82,2014.5 5719.78,1913.61 
  5298.26,1843.27 4869.78,1804.68 4440.37,1798.39 4016.4,1824.29 3604.51,1881.42 3211.29,1967.98 2843.15,2081.2 2505.94,2217.4 2204.62,2371.97 1942.96,2539.57 
  1723.23,2714.3 1546.04,2889.99 1410.4,3060.57 1313.98,3220.36 1253.63,3364.31 1226.1,3488.09 1228.49,3588.27 1258.92,3662.18 1316.73,3707.93 1402.53,3724.3 
  1517.89,3710.65 1664.89,3666.88 1845.62,3593.38 2061.67,3491.09 2313.68,3361.51 2600.98,3206.81 2921.35,3029.95 3272.01,2834.01 3649.14,2622.61 4048.23,2399.78 
  4464.33,2169.86 4892.27,1937.44 5326.82,1707.3 5762.77,1484.36 6195.02,1273.55 6618.56,1079.81 7028.53,907.923 7420.16,762.457 7788.76,647.591 8129.77,566.988 
  8438.69,523.635 8711.21,519.659 8943.33,556.15 9131.52,633.004 9272.93,748.781 9365.7,900.604 9409.23,1084.12 9404.55,1293.58 9354.58,1521.95 9264.36,1761.23 
  9141.07,2002.84 8993.91,2238.04 8833.8,2458.36 8672.62,2656.23 8522.5,2825.23 8395.04,2960.18 8300.24,3057.39 8245.63,3114.62 8235.71,3130.95 8271.54,3106.59 
  8350.84,3042.77 8468.09,2941.79 8615.06,2807.05 8781.44,2643.2 8955.69,2456.06 9125.99,2252.52 9281.18,2039.98 9411.32,1826.11 9508.16,1618.53 9565.33,1424.3 
  9578.47,1249.67 9545.04,1099.78 9464.18,978.554 9336.35,888.578 9163.14,831.186 8946.9,806.526 8690.63,813.717 8397.79,851.002 8072.14,915.904 7717.64,1005.35 
  7338.42,1115.9 6938.83,1243.81 6523.36,1385.22 6096.71,1536.22 5663.74,1692.96 5229.54,1851.68 4799.33,2008.79 4378.46,2160.93 3972.26,2304.95 3585.95,2437.97 
  3224.4,2557.36 2892,2660.79 2592.54,2746.18 2328.66,2811.85 2102.13,2856.45 1913.87,2878.9 1763.97,2878.56 1651.91,2855.26 1576.92,2809.43 1538.39,2742.1 
  1536.2,2655.03 1570.82,2550.77 1643.21,2432.68 1754.52,2304.98 1905.67,2172.62 2096.86,2041.04 2327.32,1915.93 2595.27,1802.82 2897.64,1706.93 3230,1632.87 
  3587.09,1584.4 3962.9,1564.38 4351.06,1574.71 4745.12,1616.34 5138.77,1689.4 5526.05,1793.26 5901.42,1926.63 6259.88,2087.72 6597.01,2274.28 6908.99,2483.71 
  7192.68,2713.21 7445.64,2959.92 7666.07,3221.01 7852.39,3493.33 8003.63,3773.84 8119.3,4059.58 8199.3,4347.62 8243.9,4635.15 8253.7,4919.45 8229.61,5197.94 
  8172.83,5468.16 8084.76,5727.79 7967.05,5974.67 7821.56,6206.78 7650.29,6422.28 7455.43,6619.47 7239.28,6796.85 7004.3,6953.07 6753,7086.96 6488.04,7197.52 
  6212.11,7283.95 5927.97,7345.61 5638.44,7382.06 5346.34,7393.02 5054.53,7378.44 4765.86,7338.4 4483.17,7273.2 4209.26,7183.31 3946.9,7069.4 3698.81,6932.3 
  3467.61,6773.03 3255.85,6592.8 3065.97,6392.98 2900.3,6175.11 2761,5940.93 2650.1,5692.3 2569.45,5431.27 2520.69,5160.05 2505.25,4880.97 2524.3,4596.53 
  2578.74,4309.34 2669.2,4022.14 2795.92,3737.79 2958.81,3459.22 3157.36,3189.44 3390.63,2931.5 3657.16,2688.46 3954.99,2463.34 4281.58,2259.09 4633.77,2078.53 
  5007.78,1924.23 5399.15,1798.5 5802.82,1703.21 6213.1,1639.73 6623.82,1608.76 7028.45,1610.26 7420.24,1643.3 7792.54,1706 8138.93,1795.44 8453.82,1907.72 
  8732.93,2038.09 8972.98,2181.06 9172.1,2330.65 9329.9,2480.72 9447.33,2625.38 9526.18,2759.28 9568.56,2877.85 9576.28,2977.37 9550.38,3055.05 9490.95,3108.89 
  9397.17,3137.67 9267.68,3140.87 9101.05,3118.62 8896.37,3071.6 8653.49,3000.94 8373.03,2907.98 8056.17,2794.13 7706.35,2661.83 7327.71,2513.68 6924.93,2352.5 
  6503.2,2181.4 6067.97,2003.76 5624.78,1823.21 5179.17,1643.62 4736.5,1469.04 4301.94,1303.64 3880.44,1151.67 3476.76,1017.31 3095.5,904.676 2741.14,817.612 
  2418.04,759.642 2130.41,733.812 1882.23,742.44 1677.07,786.872 1518.05,867.477 1407.66,983.382 1347.4,1132.36 1337.46,1310.78 1376.43,1513.65 1461.04,1734.69 
  1585.86,1966.59 1743.33,2201.29 1923.73,2430.37 2115.6,2645.56 2306.28,2839.2 2482.8,3004.58 2632.88,3136.35 2746.13,3230.69 2814.65,3284.92 2833.36,3297.21 
  2801.07,3266.94 2720.32,3194.52 2597.22,3081.49 2441,2930.69 2263.13,2746.43 2076.43,2534.49 1894.01,2301.95 1728.32,2056.89 1590.43,1807.93 1489.52,1563.89 
  1432.54,1333.51 1423.96,1124.99 1466.21,944.631 1559.81,797.648 1703.74,687.784 1895.78,617.286 2132.8,586.984 2411.06,596.412 2726.45,643.982 3074.58,727.158 
  3450.92,842.646 3850.83,986.571 4269.58,1154.64 4702.31,1342.28 5144.06,1544.77 5589.73,1757.35 6034.01,1975.25 6471.45,2193.84 6896.56,2408.64 7303.92,2615.39 
  7688.35,2810.11 8045.08,2989.12 8370.05,3149.1 8660.12,3287.11 8913.34,3400.67 9129.05,3487.78 9307.88,3546.97 9451.48,3577.35 9562.18,3578.6 9642.17,3550.84 
  9693.11,3494.73 9715.57,3411.59 9708.77,3303.5 9670.69,3173.32 9598.36,3024.82 9488.52,2862.67 9338.28,2692.32 9145.74,2519.83 8910.46,2351.52 8633.59,2193.65 
  8317.93,2052.01 7967.84,1931.74 7589.02,1837.05 7187.65,1771.28 6770.44,1736.7 6344.26,1734.64 5915.81,1765.52 5491.45,1828.98 5077.07,1924.02 4677.96,2049.04 
  4298.82,2202.05 3943.73,2380.66 3616.13,2582.25 3318.79,2804.04 3053.97,3043.13 2823.4,3296.53 2628.29,3561.24 2469.42,3834.27 2347.12,4112.66 2261.35,4393.53 
  2211.73,4674.1 2197.55,4951.67 2217.82,5223.66 2271.28,5487.62 2356.44,5741.25 2471.58,5982.4 2614.83,6209.05 2784.09,6419.36 2977.17,6611.66 3191.7,6784.45 
  3425.24,6936.41 3675.22,7066.37 3939,7173.39 4213.89,7256.67 4497.14,7315.61 4785.99,7349.81 5077.63,7359.02 5369.28,7343.21 5658.17,7302.51 5941.54,7237.23 
  6216.7,7147.89 6481,7035.15 6731.86,6899.86 6966.81,6743.06 7183.45,6565.94 7379.53,6369.86 7552.92,6156.36 7701.63,5927.1 7823.87,5684 7918.03,5429.02 
  7982.7,5164.22 8016.71,4891.85 8019.14,4614.33 7989.37,4334.19 7927.11,4054.04 7832.43,3776.6 7705.74,3504.58 7547.89,3240.74 7360.12,2987.82 7144.15,2748.51 
  6902.19,2525.4 6636.96,2320.97 6351.71,2137.45 6050.24,1976.84 5736.81,1840.71 5416.15,1730.21 5093.31,1645.93 4773.58,1587.84 4462.3,1555.24 4164.73,1546.71 
  3885.87,1560.19 3630.33,1592.97 3402.2,1641.8 3205,1703.04 3041.53,1772.76 2913.77,1846.99 2823.23,1921.88 2770.87,1993.84 2757.17,2059.68 2782.23,2116.71 
  2845.86,2162.77 2947.58,2196.25 3086.65,2215.99 3261.93,2221.32 3471.86,2211.95 3714.33,2187.99 3986.54,2149.92 4285,2098.59 4606.16,2035.04 4946.04,1960.63 
  5300.41,1876.99 5664.83,1785.99 6034.85,1689.78 6406.03,1590.7 6774,1491.28 7134.55,1394.22 7483.64,1302.3 7817.43,1218.35 8132.28,1145.17 8424.77,1085.43 
  8691.74,1041.59 8930.32,1015.82 9138.01,1009.83 9312.76,1024.78 9453,1061.2 9557.82,1118.85 9627.09,1196.66 9661.6,1292.71 9663.2,1404.19 9634.84,1527.49 
  9580.67,1658.25 9505.93,1791.58 9416.88,1922.18 9320.48,2044.64 9224.03,2153.66 9134.71,2244.32 9059,2312.34 9002.15,2354.26 8967.93,2367.23 8958.05,2349.54 
  8972.1,2300.47 9007.48,2220.46 9059.62,2111.16 9122.31,1975.47 9188.19,1817.55 9249.37,1642.61 9297.96,1456.74 9326.6,1266.63 9328.87,1079.26 9299.57,901.593 
  9234.94,740.366 9132.91,601.871 8992.72,491.238 8814.72,412.407 8600.38,368.277 8352.04,360.555 8072.69,389.779 7765.77,455.386 7435.07,555.82 7084.57,688.65 
  6718.38,850.699 6340.69,1038.19 5955.74,1246.85 5567.79,1472.08 5181.12,1709.03 4799.96,1952.69 4428.52,2198.07 4070.81,2440.23 3730.65,2674.39 3411.51,2896.04 
  3116.39,3101.02 2847.69,3285.62 2607.1,3446.63 2395.56,3581.47 2213.28,3688.16 2059.91,3765.33 1934.73,3812.24 1836.94,3828.72 1765.95,3815.17 1721.61,3772.65 
  1704.38,3702.85 1715.77,3607.74 1757.79,3490.03 1832.78,3353.1 1943.09,3200.97 2090.63,3038.2 2276.57,2869.8 2501.04,2701.02 2762.96,2537.18 3060.05,2383.43 
  3388.94,2244.53 3745.35,2124.68 4124.35,2027.44 4520.52,1955.61 4928.14,1911.31 5341.48,1895.87 5754.92,1909.95 6163.08,1953.57 6560.96,2026.16 6943.96,2126.68 
  7307.96,2253.65 7649.31,2405.24 7964.84,2579.33 8251.9,2773.56 8508.32,2985.42 8732.42,3212.28 8922.94,3451.43 9079.03,3700.1 9200.27,3955.52 9286.59,4214.98 
  9338.29,4475.78 9355.97,4735.35 9340.53,4991.18 9293.15,5240.9 9215.24,5482.28 9108.43,5713.25 8974.54,5931.87 8815.54,6136.43 8633.58,6325.34 8430.87,6497.25 
  8209.76,6650.98 7972.65,6785.52 7721.96,6900.11 7460.18,6994.13 7189.77,7067.18 6913.18,7119.05 6632.84,7149.7 6351.12,7159.28 6070.3,7148.09 5792.61,7116.63 
  5520.15,7065.52 5254.92,6995.55 4998.79,6907.65 4753.49,6802.86 4520.59,6682.36 4301.5,6547.41 4097.48,6399.4 3909.56,6239.79 3738.63,6070.09 3585.33,5891.9 
  3450.13,5706.85 3333.26,5516.58 3234.76,5322.77 3154.41,5127.08 3091.81,4931.15 3046.32,4736.56 3017.07,4544.86 3003.01,4357.48 3002.87,4175.79 3015.21,4000.99 
  3038.43,3834.18 3070.79,3676.28 3110.41,3528.06 3155.38,3390.09 3203.69,3262.76 3253.36,3146.26 3302.4,3040.6 3348.89,2945.58 3391.03,2860.87 3427.11,2785.93 
  3455.63,2720.11 3475.27,2662.61 3484.94,2612.53 3483.79,2568.91 3471.17,2530.75 3446.71,2497.04 3410.29,2466.75 3362.01,2438.9 3302.24,2412.55 3231.55,2386.85 
  3150.7,2361 3060.63,2334.35 2962.44,2306.31 2857.36,2276.45 2746.71,2244.44 2631.87,2210.06 2514.29,2173.24 2395.42,2133.98 2276.7,2092.4 2159.55,2048.73 
  2045.32,2003.25 1935.3,1956.3 1830.66,1908.26 1732.47,1859.53 1641.65,1810.5 1558.98,1761.56 1485.08,1713.02 1420.41,1665.14 1365.24,1618.12 1319.69,1572.02 
  1283.71,1526.83 1257.11,1482.41 1239.55,1438.54 1230.61,1394.86 1229.78,1350.97 1236.51,1306.39 1250.29,1260.59 1270.61,1213.07 1297.09,1163.35 1329.46,1111.03 
  1367.59,1055.85 1411.55,997.692 1461.57,936.667 1518.07,873.069 1581.67,807.449 1653.09,740.611 1733.13,673.61 1822.64,607.729 1922.45,544.451 2033.3,485.417 
  2155.81,432.368 2290.41,387.092 2437.3,351.351 2596.42,326.814 2767.47,314.991 2949.84,317.168 3142.68,334.352 3344.89,367.226 3555.16,416.117 3772,480.978 
  3993.78,561.38 4218.78,656.519 4445.19,765.218 4671.18,885.945 4894.93,1016.88 5114.67,1155.93 5328.69,1300.81 5535.37,1449.09 5733.22,1598.22 5920.82,1745.64 
  6096.94,1888.8 6260.44,2025.26 6410.32,2152.71 6545.73,2269.03 6665.88,2372.35 6770.09,2461.08 6857.73,2533.91 6928.2,2589.89 6980.94,2628.39 7015.36,2649.18 
  7030.89,2652.37 7026.9,2638.41 7002.77,2608.1 6957.93,2562.63 6891.88,2503.51 6804.24,2432.55 6694.77,2351.81 6563.47,2263.62 6410.57,2170.45 6236.64,2074.91 
  6042.53,1979.69 5829.49,1887.47 5599.06,1800.87 5353.13,1722.39 5093.86,1654.34 4823.65,1598.81 4545.08,1557.58 4260.86,1532.17 3973.76,1523.75 3686.59,1533.21 
  3402.17,1561.06 3123.23,1607.49 2852.36,1672.39 2591.99,1755.35 2344.35,1855.68 2111.45,1972.48 1895.04,2104.62 1696.61,2250.82 1517.39,2409.65 1358.33,2579.57 
  1220.09,2758.98 1103.09,2946.26 1007.47,3139.77 933.16,3337.88 879.844,3539.04 847.022,3741.76 834.018,3944.62 840.004,4146.34 864.03,4345.73 905.049,4541.74 
  961.942,4733.43 1033.54,4920.01 1118.67,5100.81 1216.12,5275.28 1324.74,5442.99 1443.37,5603.63 1570.94,5756.97 1706.42,5902.87 1848.84,6041.28 1997.31,6172.19 
  2151.04,6295.65 2309.3,6411.77 2471.44,6520.66 2636.89,6622.46 2805.14,6717.33 2975.78,6805.41 3148.42,6886.87 3322.75,6961.83 3498.5,7030.44 3675.44,7092.81 
  3853.37,7149.04 4032.12,7199.21 4211.53,7243.39 4391.47,7281.64 4571.81,7314 4752.43,7340.49 4933.21,7361.12 5114.04,7375.92 5294.8,7384.89 5475.37,7388.02 
  5655.62,7385.31 5835.44,7376.76 6014.7,7362.38 6193.27,7342.15 6371.01,7316.07 6547.8,7284.15 6723.49,7246.38 6897.96,7202.76 7071.05,7153.27 7242.63,7097.92 
  7412.54,7036.68 7580.6,6969.54 7746.66,6896.46 7910.5,6817.41 8071.91,6732.35 8230.66,6641.21 8386.45,6543.95 8538.97,6440.49 8687.86,6330.77 8832.7,6214.73 
  8973.04,6092.31 9108.34,5963.48 9238,5828.22 9361.38,5686.54 9477.76,5538.49 9586.34,5384.18 9686.29,5223.77 9776.7,5057.49 9856.64,4885.65 9925.12,4708.66 
  9981.15,4527.01 10023.7,4341.32 10051.9,4152.29 10064.6,3960.74 10061,3767.61 10040.3,3573.94 10001.8,3380.88 9944.81,3189.68 9868.96,3001.66 9773.95,2818.22 
  9659.71,2640.78 9526.35,2470.8 9374.23,2309.74 9203.93,2159.02 9016.26,2020.01 8812.31,1894 8593.37,1782.14 8360.99,1685.43 8116.95,1604.71 7863.21,1540.59 
  7601.94,1493.45 7335.43,1463.39 7066.1,1450.26 6796.44,1453.61 6528.96,1472.68 6266.15,1506.43 6010.44,1553.54 5764.15,1612.41 5529.43,1681.2 5308.27,1757.88 
  5102.41,1840.22 4913.31,1925.9 4742.15,2012.54 4589.86,2097.71 4457.07,2179.06 4344.15,2254.32 4251.2,2321.37 4178.16,2378.3 4124.78,2423.42 4090.68,2455.3 
  4075.41,2472.81 4078.48,2475.11 4099.39,2461.68 4137.59,2432.32 4192.57,2387.16 4263.79,2326.65 4350.72,2251.57 4452.78,2162.99 4569.36,2062.24 4699.84,1950.9 
  4843.47,1830.76 4999.35,1703.89 5166.52,1572.42 5343.92,1438.56 5530.41,1304.57 5724.74,1172.67 5925.51,1045.06 6131.26,923.806 6340.42,810.84 6551.36,707.866 
  6762.45,616.342 6972.05,537.434 7178.59,471.998 7380.57,420.562 7576.63,383.328 7765.54,360.186 7946.26,350.728 8117.88,354.28 8279.72,369.932 8431.24,396.569 
  8572.05,432.901 8701.91,477.497 8821.04,528.903 8929.85,585.701 9028.77,646.512 9118.32,710.053 9199.08,775.177 9271.64,840.9 9336.57,906.418 9394.34,971.118 
  9445.38,1034.57 9489.97,1096.52 9528.27,1156.88 9560.32,1215.67 9586.06,1273.03 9605.31,1329.19 9617.83,1384.4 9623.35,1438.95 9621.55,1493.11 9612.15,1547.14 
  9594.89,1601.22 9569.59,1655.49 9536.13,1710.02 9494.52,1764.79 9444.89,1819.74 9387.46,1874.72 9322.62,1929.54 9250.87,1983.97 9172.82,2037.75 9089.24,2090.6 
  9000.95,2142.26 8908.92,2192.47 8814.16,2241.02 8717.77,2287.74 8620.87,2332.54 8524.62,2375.39 8430.19,2416.34 8338.72,2455.55 8251.32,2493.26 8169.04,2529.81 
  8092.82,2565.63 8023.51,2601.27 7961.86,2637.32 7908.42,2674.48 7863.62,2713.5 7827.68,2755.18 7800.66,2800.36 7782.39,2849.89 7772.51,2904.61 7770.46,2965.34 
  7775.46,3032.85 7786.56,3107.82 7802.64,3190.89 7822.4,3282.53 7844.42,3383.14 7867.19,3492.93 7889.07,3611.99 7908.41,3740.24 7923.52,3877.42 7932.72,4023.14 
  7934.39,4176.81 7926.95,4337.7 7908.93,4504.93 7878.98,4677.49 7835.88,4854.23 7778.58,5033.91 7706.18,5215.19 7617.99,5396.65 7513.48,5576.8 7392.34,5754.14 
  7254.45,5927.12 7099.92,6094.17 6929.01,6253.77 6742.24,6404.39 6540.27,6544.54 6323.99,6672.8 6094.45,6787.82 5852.89,6888.29 5600.73,6973.04 5339.51,7040.98 
  5070.96,7091.14 4796.94,7122.66 4519.44,7134.85 4240.52,7127.14 3962.4,7099.15 3687.33,7050.64 3417.65,6981.54 3155.76,6891.97 2904.07,6782.25 2665.01,6652.86 
  2441,6504.49 2234.41,6338.03 2047.58,6154.57 1882.76,5955.37 1742.1,5741.9 1627.61,5515.83 1541.16,5278.97 1484.44,5033.34 1458.92,4781.09 1465.84,4524.54 
  1506.2,4266.11 1580.69,4008.35 1689.7,3753.89 1833.28,3505.41 2011.04,3265.71 2222.34,3037.44 2466.12,2823.28 2740.82,2625.86 3044.4,2447.74 3374.35,2291.28 
  3727.68,2158.62 4100.95,2051.62 4490.26,1971.81 4891.28,1920.32 5299.28,1897.8 5709.15,1904.41 6115.48,1939.67 6512.68,2002.46 6895.14,2090.95 7257.42,2202.56 
  7594.45,2334.02 7901.79,2481.38 8175.83,2640.15 8413.98,2805.45 8614.74,2972.16 8777.76,3135.15 8903.64,3289.39 8993.81,3430.21 9050.36,3553.49 9075.49,3655.63 
  9071.24,3733.68 9039.24,3785.3 8980.49,3808.77 8895.34,3802.92 8783.55,3767.12 8644.51,3701.24 8477.51,3605.71 8282.1,3481.57 8058.31,3330.58 7806.98,3155.23 
  7529.37,2958.42 7227.46,2743.62 6903.83,2514.78 6561.59,2276.25 6204.22,2032.69 5835.51,1788.93 5459.4,1549.93 5079.95,1320.63 4701.28,1105.87 4327.51,910.28 
  3962.77,738.176 3611.18,593.438 3276.78,479.38 2963.47,398.606 2675.02,352.913 2414.89,343.158 2186.15,369.161 1991.3,429.629 1832.08,522.123 1709.28,643.079 
  1622.57,787.88 1570.36,951 1549.7,1126.21 1556.26,1306.83 1584.5,1486.09 1627.87,1657.41 1679.19,1814.74 1731.13,1952.77 1776.7,2067.26 1809.81,2155.06 
  1825.66,2214.12 1821.2,2243.61 1795.33,2243.88 1748.97,2216.34 1684.9,2163.36 1607.5,2088.16 1522.34,1994.62 1435.78,1887.17 1354.48,1770.64 1285,1650.08 
  1233.36,1530.64 1204.71,1416.98 1203.28,1313.24 1232.2,1222.94 1293.57,1148.9 1388.5,1093.11 1517.19,1056.74 1679.04,1040.21 1872.82,1043.17 2096.72,1064.66 
  2348.53,1103.17 2625.62,1156.76 2925.09,1223.17 3243.7,1299.93 3577.98,1384.41 3924.27,1473.95 4278.73,1565.91 4637.32,1657.73 4995.85,1747.01 5350.05,1831.49 
  5695.6,1909.16 6028.22,1978.21 6343.73,2037.12 6638.15,2084.61 6907.82,2119.68 7149.43,2141.63 7360.12,2150.07 7537.55,2144.94 7679.87,2126.55 7785.73,2095.61 
  7854.17,2053.26 7884.61,2001.08 7876.87,1941.17 7831.07,1876.1 7747.78,1808.86 7627.98,1742.84 7473.18,1681.64 7285.5,1628.99 7067.72,1588.56 6823.26,1563.78 
  6556.13,1557.74 6270.85,1572.99 5972.29,1611.51 5665.52,1674.65 5355.77,1763.05 5048.17,1876.74 4747.55,2015.2 4458.45,2177.37 4185.04,2361.76 3931.02,2566.47 
  3699.59,2789.35 3493.46,3028 3314.87,3279.88 3165.53,3542.34 3046.73,3812.68 2959.33,4088.17 2903.75,4366.11 2880.06,4643.86 2887.98,4918.89 2926.9,5188.73 
  2995.97,5451 3094.03,5703.46 3219.71,5944.01 3371.43,6170.68 3547.41,6381.64 3745.69,6575.22 3964.18,6749.9 4200.63,6904.35 4452.7,7037.37 4717.9,7147.94 
  4993.71,7235.22 5277.47,7298.54 5566.53,7337.4 5858.13,7351.5 6149.54,7340.7 6437.96,7305.04 6720.63,7244.77 6994.78,7160.3 7257.68,7052.24 7506.64,6921.37 
  7739.03,6768.67 7952.32,6595.28 8144.05,6402.54 8311.87,6191.96 8453.58,5965.21 8567.13,5724.14 8650.63,5470.76 8702.38,5207.24 8720.91,4935.89 8704.97,4659.15 
  8653.58,4379.61 8566.06,4099.95 8442.03,3822.97 8281.46,3551.55 8084.74,3288.62 7852.62,3037.17 7586.36,2800.19 7287.73,2580.66 6958.91,2381.42 6602.72,2205.25 
  6222.63,2054.74 5822.71,1932.22 5407.67,1839.69 4982.77,1778.66 4553.84,1750.12 4127.18,1754.39 3709.46,1791.02 3307.49,1858.68 2928.02,1955.09 2577.36,2076.95 
  2261.02,2220.01 1983.31,2379.12 1747.1,2548.53 1553.58,2722.05 1402.35,2893.41 1291.58,3056.57 1218.31,3206.11 1179.29,3337.33 1171.53,3446.38 1192.86,3530.37 
  1242.36,3587.26 1320.43,3615.7 1428.66,3614.91 1569.28,3584.66 1744.64,3525.2 1956.5,3437.38 2205.44,3322.75 2490.85,3183.34 2811.09,3021.53 3163.2,2840.26 
  3543.26,2642.89 3946.62,2433.16 4368.15,2215.11 4802.5,1993.06 5244.23,1771.55 5687.96,1555.27 6128.41,1349.01 6560.47,1157.6 6979.18,985.795 7379.68,838.206 
  7757.25,719.15 8107.25,632.52 8425.13,581.623 8706.5,569.001 8947.23,596.254 9143.56,663.856 9292.35,770.991 9391.32,915.422 9439.38,1093.42 9436.98,1299.78 
  9386.45,1527.91 9292.21,1770.1 9160.98,2017.76 9001.7,2262.01 8825.22,2494.12 8643.82,2705.94 8470.46,2890.33 8317.76,3041.56 8197.05,3155.35 8117.41,3228.88 
  8084.98,3260.6 8102.4,3250.06 8168.64,3197.87 8279.05,3105.71 8425.7,2976.46 8598.19,2814.27 8784.64,2624.4 8972.48,2413.32 9149.25,2188.65 9303.69,1958.46 
  9426.22,1731 9509.27,1514.17 9547.45,1315.21 9537.44,1140.29 9477.8,994.298 9368.66,880.755 9211.39,801.784 9008.32,758.203 8762.49,749.665 8477.54,774.808 
  8157.32,831.354 7805.9,916.347 7427.58,1026.33 7026.76,1157.47 6608.04,1305.72 6176.14,1466.93 5736.01,1636.95 5292.76,1811.68 4851.7,1987.17 4418.29,2159.65 
  3998.03,2325.57 3596.34,2481.64 3218.39,2624.83 2868.94,2752.35 2551.96,2861.78 2270.45,2951.05 2026.46,3018.38 1820.92,3062.32 1653.69,3081.89 1523.84,3076.54 
  1430.05,3046.27 1371.12,2991.64 1346.4,2913.85 1356.06,2814.88 1401.16,2697.57 1483.3,2565.66 1604.28,2423.81 1765.47,2277.43 1967.49,2132.34 2210.07,1994.44 
  2491.2,1869.62 2807.44,1763.29 3154.16,1680.09 3525.75,1623.79 3915.92,1597.16 4318.06,1601.99 4725.52,1639.09 5131.82,1708.45 5530.87,1809.28 5917.04,1940.16 
  6285.33,2099.15 6631.45,2283.95 6951.75,2491.98 7243.08,2720.4 7502.98,2966.26 7729.54,3226.52 7921.37,3498.13 8077.58,3778.03 8197.71,4063.25 8281.7,4350.86 
  8329.88,4638.02 8342.87,4922.02 8321.63,5200.26 8267.36,5470.26 8181.5,5729.72 8065.74,5976.44 7921.94,6208.43 7752.14,6423.83 7558.53,6620.93 7343.44,6798.22 
  7109.34,6954.36 6858.77,7088.17 6594.38,7198.65 6318.88,7284.99 6035.05,7346.56 5745.69,7382.92 5453.65,7393.8 5161.77,7379.12 4872.91,7338.98 4589.91,7273.69 
  4315.56,7183.7 4052.62,7069.69 3803.79,6932.48 3571.69,6773.1 3358.86,6592.74 3167.72,6392.78 3000.57,6174.75 2859.57,5940.37 2746.74,5691.51 2663.88,5430.22 
  2612.62,5158.67 2594.37,4879.21 2610.28,4594.32 2661.22,4306.6 2747.76,4018.8 2870.15,3733.75 3028.24,3454.38 3221.48,3183.68 3448.87,2924.69 3708.93,2680.43 
  3999.62,2453.92 4318.36,2248.06 4661.93,2065.62 5026.5,1909.12 5407.62,1780.77 5800.21,1682.34 6198.65,1615.07 6596.84,1579.57 6988.35,1575.63 7366.67,1602.21 
  7725.37,1657.3 8058.47,1737.93 8360.69,1840.2 8627.79,1959.38 8856.74,2090.13 9045.84,2226.73 9194.62,2363.42 9303.59,2494.68 9373.83,2615.49 9406.64,2721.57 
  9403.18,2809.57 9364.15,2877.1 9289.23,2922.33 9177.73,2944.28 9028.78,2942.63 8841.65,2917.58 8616.16,2869.78 8352.98,2800.3 8053.77,2710.6 7721.24,2602.48 
  7359.05,2478.06 6971.54,2339.75 6563.64,2190.25 6140.57,2032.53 5707.75,1869.82 5270.55,1705.59 4834.27,1543.51 4404.01,1387.42 3984.73,1241.26 3581.15,1109.03 
  3197.85,994.682 2839.2,902.02 2509.42,834.578 2212.57,795.474 1952.47,787.257 1732.66,811.738 1556.25,869.826 1425.77,961.367 1342.91,1085 1308.27,1238.07 
  1321.07,1416.62 1378.87,1615.38 1477.35,1827.97 1610.14,2047.12 1768.87,2265.05 1943.44,2473.88 2122.47,2666.1 2293.98,2834.85 2446.18,2974.26 2568.33,3079.53 
  2651.6,3146.98 2689.96,3174.13 2680.86,3159.75 2625.89,3104.25 2529.55,3008.65 2399.07,2874.83 2244.5,2706.39 2077.58,2508.4 1910.71,2287.32 1756.08,2050.76 
  1624.83,1807.17 1526.45,1565.36 1468.39,1334 1455.88,1121.19 1492,934.012 1577.91,778.301 1713.13,658.48 1895.83,577.49 2123.21,536.821 2391.77,536.612 
  2697.5,575.797 3036.12,652.273 3403.15,763.078 3793.99,904.568 4203.96,1072.58 4628.28,1262.58 5062.07,1469.8 5500.32,1689.35 5937.9,1916.32 6369.55,2145.84 
  6789.98,2373.18 7193.93,2593.79 7576.35,2803.36 7932.57,2997.9 8258.57,3173.77 8551.22,3327.76 8808.49,3457.16 9029.6,3559.81 9214.94,3634.09 9365.92,3678.93 
  9484.54,3693.8 9572.94,3678.66 9632.83,3634.1 9665.09,3561.42 9669.48,3462.69 9643.98,3340.25 9585.77,3197.5 9491.56,3038.71 9358.22,2868.97 9183.37,2694 
  8965.94,2519.89 8706.44,2352.84 8407.04,2198.79 8071.45,2063.15 7704.61,1950.55 7312.31,1864.72 6901.01,1808.45 6477.42,1783.58 6048.22,1791.05 5619.85,1830.97 
  5198.36,1902.74 4789.24,2005.19 4397.44,2136.63 4027.3,2294.97 3682.55,2477.83 3366.36,2682.59 3081.29,2906.44 2829.35,3146.52 2611.99,3399.91 2430.27,3663.66 
  2284.81,3934.82 2175.81,4210.48 2103.1,4487.82 2066.19,4764.1 2064.28,5036.67 2096.26,5303.03 2160.82,5560.77 2256.38,5807.66 2381.18,6041.6 2533.26,6260.64 
  2710.51,6463.03 2910.68,6647.15 3131.39,6811.57 3370.15,6955.06 3624.4,7076.54 3891.51,7175.13 4168.78,7250.12 4453.5,7301.02 4742.92,7327.48 5034.31,7329.36 
  5324.93,7306.7 5612.08,7259.72 5893.08,7188.82 6165.35,7094.57 6426.33,6977.72 6673.59,6839.2 6904.76,6680.08 7117.62,6501.61 7310.05,6305.21 7480.11,6092.44 
  7626,5865.02 7746.12,5624.79 7839.05,5373.75 7903.63,5114.03 7938.93,4847.86 7944.29,4577.61 7919.33,4305.66 7864.01,4034.53 7778.66,3766.78 7663.95,3505.02 
  7520.99,3251.81 7351.3,3009.69 7156.82,2781.08 6939.95,2568.29 6703.56,2373.4 6450.95,2198.26 6185.84,2044.41 5912.34,1913 5634.89,1804.71 5358.14,1719.76 
  5086.85,1657.77 4825.77,1617.82 4579.51,1598.43 4352.37,1597.59 4148.27,1612.83 3970.78,1641.35 3822.81,1680.09 3706.74,1725.87 3624.47,1775.54 3577.3,1826.08 
  3565.99,1874.71 3590.82,1918.97 3651.58,1956.77 3747.65,1986.42 3878.01,2006.59 4041.22,2016.33 4235.42,2015.07 4458.3,2002.54 4707.05,1978.83 4978.35,1944.36 
  5268.6,1899.81 5574.27,1846.12 5891.48,1784.49 6216.31,1716.38 6544.79,1643.47 6873,1567.66 7197.12,1490.99 7513.46,1415.65 7818.51,1343.9 8108.93,1278.04 
  8381.65,1220.29 8633.81,1172.79 8862.86,1137.47 9066.55,1115.96 9243.05,1109.52 9390.99,1118.94 9509.5,1144.47 9598.36,1185.74 9658.03,1241.7 9689.75,1310.63 
  9695.62,1390.13 9678.57,1477.2 9642.36,1568.3 9591.44,1659.49 9530.83,1746.6 9465.8,1825.38 9401.65,1891.68 9343.25,1941.67 9294.77,1972.06 9259.19,1980.26 
  9238.13,1964.57 9231.76,1923.88 9238.64,1858.17 9255.82,1768.49 9279.04,1656.91 9303.07,1526.6 9322.14,1381.63 9330.26,1226.93 9321.73,1068.05 9291.42,910.878 
  9235.08,761.434 9149.49,625.533 9032.58,508.563 8883.4,415.282 8702.15,349.649 8489.87,314.61 8248.39,312.101 7980.19,343.039 7688.22,407.342 7375.81,503.986 
  7046.47,631.094 6703.93,786.038 6351.95,965.547 5994.35,1165.83 5634.96,1382.68 5277.55,1611.61 4925.85,1847.93 4583.47,2086.87 4253.89,2323.69 3940.3,2553.77 
  3645.62,2772.69 3372.36,2976.41 3122.53,3161.25 2897.62,3324.03 2698.62,3462.13 2525.95,3573.49 2379.66,3656.7 2259.55,3710.92 2165.38,3735.91 2097.09,3731.99 
  2055.01,3699.99 2039.94,3641.3 2053.16,3557.87 2096.26,3452.26 2171.07,3327.61 2279.44,3187.5 2422.8,3036.07 2601.97,2877.86 2816.92,2717.64 3066.69,2560.29 
  3349.32,2410.56 3661.93,2272.95 4000.85,2151.54 4361.73,2049.88 4739.75,1970.92 5129.84,1916.95 5526.77,1889.61 5925.35,1889.9 6320.55,1918.21 6707.6,1974.36 
  7082.05,2057.69 7439.84,2167.08 7777.32,2301.04 8091.3,2457.75 8379.04,2635.14 8638.24,2830.93 8867.06,3042.67 9064.07,3267.82 9228.28,3503.74 9359.09,3747.79 
  9456.28,3997.31 9520,4249.7 9550.71,4502.45 9549.17,4753.09 9516.43,4999.3 9453.77,5238.88 9362.72,5469.77 9244.98,5690.11 9102.43,5898.19 8937.08,6092.5 
  8751.06,6271.71 8546.58,6434.69 8325.9,6580.51 8091.33,6708.46 7845.19,6817.98 7589.77,6908.74 7327.35,6980.58 7060.14,7033.51 6790.28,7067.75 6519.83,7083.62 
  6250.74,7081.65 5984.84,7062.48 5723.84,7026.86 5469.28,6975.69 5222.6,6909.95 4985.03,6830.71 4757.67,6739.13 4541.45,6636.4 4337.11,6523.77 4145.24,6402.53 
  3966.24,6273.97 3800.34,6139.4 3647.62,6000.1 3507.98,5857.33 3381.17,5712.31 3266.81,5566.21 3164.36,5420.13 3073.17,5275.11 2992.47,5132.08 2921.41,4991.89 
  2859.03,4855.3 2804.35,4722.92 2756.32,4595.29 2713.87,4472.8 2675.93,4355.75 2641.46,4244.29 2609.42,4138.49 2578.85,4038.32 2548.84,3943.65 2518.56,3854.24 
  2487.29,3769.79 2454.39,3689.94 2419.35,3614.26 2381.78,3542.29 2341.38,3473.54 2297.99,3407.5 2251.58,3343.66 2202.2,3281.52 2150.04,3220.6 2095.34,3160.45 
  2038.47,3100.66 1979.86,3040.85 1920.01,2980.71 1859.45,2919.94 1798.78,2858.35 1738.6,2795.75 1679.53,2732.04 1622.2,2667.15 1567.21,2601.05 1515.16,2533.76 
  1466.6,2465.34 1422.04,2395.85 1381.94,2325.4 1346.72,2254.1 1316.73,2182.05 1292.26,2109.37 1273.55,2036.16 1260.79,1962.51 1254.09,1888.5 1253.55,1814.2 
  1259.22,1739.67 1271.14,1664.93 1289.31,1590.04 1313.75,1515.03 1344.5,1439.96 1381.59,1364.91 1425.1,1290.01 1475.14,1215.42 1531.85,1141.39 1595.41,1068.21 
  1666.04,996.275 1743.98,926.061 1829.46,858.134 1922.71,793.148 2023.96,731.834 2133.36,674.994 2251,623.48 2376.89,578.173 2510.95,539.958 2652.96,509.699 
  2802.58,488.204 2959.33,476.195 3122.6,474.284 3291.65,482.937 3465.6,502.455 3643.48,532.953 3824.21,574.343 4006.64,626.326 4189.58,688.389 4371.78,759.796 
  4551.98,839.609 4728.97,926.701 4901.52,1019.78 5068.49,1117.41 5228.77,1218.04 5381.34,1320.04 5525.26,1421.73 5659.66,1521.43 5783.78,1617.48 5896.92,1708.3 
  5998.47,1792.39 6087.87,1868.39 6164.64,1935.11 6228.33,1991.51 6278.52,2036.8 6314.82,2070.37 6336.85,2091.86 6344.27,2101.15 6336.74,2098.39 6313.96,2083.94 
  6275.61,2058.4 6221.48,2022.62 6151.39,1977.65 6065.3,1924.75 5963.25,1865.36 5845.43,1801.06 5712.2,1733.54 5564.06,1664.58 5401.73,1595.99 5226.1,1529.6 
  5038.24,1467.2 4839.44,1410.53 4631.11,1361.19 4414.84,1320.68 4192.3,1290.31 3965.29,1271.21 3735.62,1264.31 3505.14,1270.32 3275.69,1289.75 3049.11,1322.88 
  2827.16,1369.79 2611.49,1430.33 2403.65,1504.19 2205.05,1590.88 2016.95,1689.75 1840.43,1800.03 1676.42,1920.85 1525.66,2051.24 1388.73,2190.18 1266.01,2336.62 
  1157.75,2489.49 1064.02,2647.7 984.761,2810.23 919.792,2976.06 868.816,3144.22 831.445,3313.83 807.218,3484.03 795.614,3654.08 796.069,3823.27 807.992,3991 
  830.777,4156.72 863.821,4319.96 906.526,4480.3 958.316,4637.4 1018.64,4790.96 1086.96,4940.74 1162.81,5086.51 1245.71,5228.12 1335.25,5365.42 1431.04,5498.29 
  1532.73,5626.63 1639.98,5750.35 1752.5,5869.39 1870.01,5983.69 1992.26,6093.19 2119.01,6197.84 2250.05,6297.61 2385.16,6392.45 2524.14,6482.36 2666.82,6567.29 
  2813.02,6647.23 2962.55,6722.17 3115.27,6792.11 3271.03,6857.03 3429.67,6916.96 3591.07,6971.89 3755.1,7021.85 3921.67,7066.84 4090.66,7106.88 4261.99,7141.98 
  4435.6,7172.15 4611.42,7197.37 4789.41,7217.65 4969.53,7232.94 5151.74,7243.19 5336.03,7248.34 5522.34,7248.27 5710.66,7242.88 5900.93,7231.99 6093.07,7215.41 
  6286.99,7192.91 6482.54,7164.23 6679.53,7129.07 6877.71,7087.1 7076.77,7037.99 7276.34,6981.35 7475.94,6916.8 7675.01,6843.96 7872.89,6762.44 8068.83,6671.88 
  8261.95,6571.94 8451.27,6462.33 8635.73,6342.82 8814.13,6213.24 8985.19,6073.52 9147.56,5923.69 9299.78,5763.9 9440.38,5594.42 9567.8,5415.67 9680.51,5228.2 
  9776.94,5032.75 9855.58,4830.18 9914.97,4621.56 9953.73,4408.07 9970.6,4191.08 9964.46,3972.11 9934.39,3752.8 9879.64,3534.92 9799.69,3320.28 9694.27,3110.8 
  9563.39,2908.46 9407.37,2715.24 9226.87,2533.11 9022.83,2363.99 8796.57,2209.69 8549.68,2071.86 8284.11,1952 8002.08,1851.37 7706.11,1771.01 7399,1711.63 
  7083.77,1673.63 6763.62,1657.06 6441.94,1661.56 6122.18,1686.39 5807.8,1730.37 5502.23,1791.94 5208.75,1869.09 4930.41,1959.51 4669.96,2060.51 4429.81,2169.18 
  4211.91,2282.39 4017.78,2396.94 3848.48,2509.56 3704.59,2617.07 3586.4,2716.36 3493.78,2804.55 3426.24,2879.08 3383.17,2937.67 3363.86,2978.4 3367.51,2999.74 
  3393.34,3000.6 3440.58,2980.34 3508.51,2938.76 3596.5,2876.08 3703.92,2792.95 3830.18,2690.43 3974.64,2569.95 4136.63,2433.33 4315.3,2282.74 4509.64,2120.69 
  4718.39,1950.03 4939.92,1773.92 5172.55,1595.59 5414.69,1418.08 5664.42,1244.57 5919.68,1078.16 6178.3,921.759 6438.06,778.036 6696.67,649.349 6951.81,537.678 
  7201.23,444.569 7442.76,371.086 7674.37,317.781 7894.23,284.679 8100.78,271.282 8292.74,276.587 8469.21,299.129 8629.66,337.033 8773.93,388.086 8902.31,449.82 
  9015.48,519.623 9114.48,594.86 9200.63,672.951 9275.41,751.476 9340.42,828.268 9397.24,901.488 9447.36,969.682 9492.02,1031.8 9532.21,1087.23 9568.55,1135.74 
  9601.31,1177.48 9630.37,1212.94 9655.26,1242.85 9675.21,1268.19 9689.24,1290.05 9696.19,1309.61 9694.84,1328.04 9683.98,1346.46 9662.45,1365.85 9629.25,1387.06 
  9583.56,1410.73 9524.79,1437.32 9452.59,1467.07 9366.9,1499.99 9267.93,1535.93 9156.15,1574.56 9032.3,1615.4 8897.36,1657.84 8752.54,1701.19 8599.24,1744.72 
  8439.04,1787.68 8273.64,1829.31 8104.91,1868.92 7934.81,1905.91 7765.39,1939.75 7598.8,1970.09 7437.21,1996.67 7282.61,2019.39 7137.03,2038.33 7002.37,2053.72 
  6880.42,2065.98 6772.81,2075.72 6680.92,2083.67 6605.92,2090.78 6548.7,2098.09 6509.83,2106.8 6489.58,2118.19 6487.86,2133.64 6504.24,2154.55 6537.94,2182.34 
  6587.83,2218.4 6652.44,2264.05 6730.01,2320.49 6818.51,2388.8 6915.66,2469.85 7019.01,2564.3 7125.96,2672.6 7233.85,2794.92 7339.98,2931.19 7441.69,3081.08 
  7536.39,3244.01 7621.6,3419.15 7695.02,3605.44 7754.54,3801.65 7798.29,4006.35 7824.61,4217.97 7832.14,4434.81 7819.75,4655.12 7786.62,4877.05 7732.17,5098.71 
  7656.09,5318.22 7558.35,5533.67 7439.14,5743.19 7298.91,5944.93 7138.34,6137.09 6958.35,6317.95 6760.02,6485.9 6544.67,6639.43 6313.76,6777.12 6068.95,6897.65 
  5812.03,6999.86 5544.95,7082.7 5269.77,7145.27 4988.68,7186.82 4703.96,7206.78 4417.98,7204.71 4133.17,7180.36 3852.03,7133.66 3577.09,7064.71 3310.9,6973.8 
  3056,6861.41 2814.94,6728.2 2590.21,6575.04 2384.25,6402.97 2199.43,6213.23 2038.02,6007.26 1902.16,5786.66 1793.86,5553.22 1714.95,5308.91 1667.07,5055.83 
  1651.64,4796.27 1669.85,4532.61 1722.61,4267.39 1810.54,4003.24 1933.95,3742.88 2092.77,3489.07 2286.6,3244.64 2514.6,3012.39 2775.51,2795.1 3067.63,2595.5 
  3388.75,2416.19 3736.18,2259.61 4106.7,2127.99 4496.57,2023.28 4901.52,1947.07 5316.78,1900.54 5737.13,1884.34 6156.97,1898.55 6570.41,1942.57 6971.42,2015.07 
  7354.02,2113.92 7712.5,2236.22 8041.67,2378.25 8337.16,2535.6 8595.61,2703.28 8814.89,2875.88 8994.2,3047.83 9134.01,3213.63 9235.92,3368.06 9302.31,3506.47 
  9335.91,3624.84 9339.3,3719.8 9314.49,3788.73 9262.63,3829.58 9183.96,3840.91 9077.92,3821.86 8943.46,3772.11 8779.38,3691.93 8584.67,3582.17 8358.85,3444.26 
  8102.12,3280.23 7815.57,3092.74 7501.33,2885.14 7162.62,2661.5 6802.72,2425.93 6425.5,2182.95 6035.21,1937.4 5636.27,1694.27 5233.21,1458.64 4830.57,1235.55 
  4432.86,1029.94 4044.57,846.511 3670.13,689.64 3313.92,563.222 2980.24,470.55 2673.24,414.158 2396.85,395.687 2154.7,415.74 1949.91,473.759 1784.93,567.941 
  1661.24,695.199 1579.19,851.187 1537.74,1030.4 1534.25,1226.32 1564.45,1431.73 1622.4,1638.98 1700.67,1840.43 1790.74,2028.78 1883.48,2197.52 1969.77,2341.18 
  2041.15,2455.39 2090.52,2537.13 2112.66,2584.66 2104.7,2597.45 2066.34,2576.24 1999.8,2522.87 1909.61,2440.22 1802.14,2332.09 1685.11,2203.12 1566.93,2058.6 
  1456.15,1904.38 1360.87,1746.68 1288.25,1591.46 1244.23,1444.32 1233.44,1310.31 1259.1,1193.66 1323.11,1097.7 1426.21,1024.76 1568.08,976.19 1747.57,952.382 
  1962.85,952.869 2211.58,976.432 2490.97,1021.23 2797.9,1084.95 3128.91,1164.89 3480.37,1258.1 3848.42,1361.49 4228.98,1471.91 4617.78,1586.23 5010.36,1701.45 
  5402.14,1814.68 5788.41,1923.24 6164.42,2024.67 6525.5,2116.74 6867.1,2197.48 7184.98,2265.21 7475.31,2318.49 7734.78,2356.22 7960.65,2377.57 8150.75,2382.05 
  8303.82,2369.63 8418.86,2340.64 8495.19,2295.88 8532.43,2236.71 8530.4,2165.09 8489.14,2083.66 8408.84,1995.63 8289.94,1904.74 8133.3,1815.15 7940.33,1731.27 
  7713.12,1657.56 7454.55,1598.31 7168.36,1557.47 6859.15,1538.43 6532.47,1543.8 6193.96,1575.45 5848.94,1634.58 5503.06,1721.6 5161.79,1836.22 4830.26,1977.53 
  4513.18,2144.09 4214.75,2334.05 3938.66,2545.2 3688.04,2775.05 3465.48,3020.94 3273.04,3280.1 3112.24,3549.69 2984.17,3826.86 2889.46,4108.75 2828.33,4392.58 
  2800.66,4675.62 2805.96,4955.25 2843.45,5228.97 2912.07,5494.37 3010.5,5749.21 3137.22,5991.37 3290.48,6218.88 3468.37,6429.95 3668.81,6622.91 3889.56,6796.29 
  4128.28,6948.75 4382.51,7079.16 4649.69,7186.53 4927.19,7270.08 5212.3,7329.18 5502.29,7363.39 5794.35,7372.44 6085.69,7356.27 6373.49,7314.98 6654.94,7248.86 
  6927.27,7158.39 7187.73,7044.23 7433.63,6907.22 7662.34,6748.39 7871.33,6568.95 8058.16,6370.27 8220.52,6153.91 8356.23,5921.6 8463.27,5675.24 8539.8,5416.86 
  8584.16,5148.68 8594.93,4873.06 8570.95,4592.49 8511.27,4309.57 8415.29,4027.01 8282.71,3747.67 8113.62,3474.47 7908.51,3210.39 7668.27,2958.46 7394.3,2721.69 
  7088.48,2503.07 6753.25,2305.51 6391.63,2131.78 6007.28,1984.46 5604.51,1865.85 5188.26,1777.86 4764.13,1721.95 4338.23,1698.94 3917.15,1708.93 3507.71,1751.2 
  3116.75,1824.08 2750.85,1924.89 2416.02,2049.96 2117.36,2194.65 1858.88,2353.39 1642.52,2520.19 1468.51,2688.9 1335.96,2853.21 1242.77,3007.17 1185.98,3145.59 
  1162.51,3264.21 1169.89,3359.77 1206.74,3429.93 1273.08,3473.06 1370.13,3488.19 1499.98,3474.85 1664.97,3433.15 1867.07,3363.69 2107.3,3267.67 2385.37,3146.89 
  2699.51,3003.67 3046.79,2840.72 3423.63,2660.92 3825.41,2467.63 4246.99,2264.57 4682.91,2055.7 5127.63,1845.25 5575.62,1637.63 6021.51,1437.4 6460.06,1249.22 
  6886.23,1077.74 7295.14,927.535 7682.01,802.976 8042.17,708.109 8371.08,646.523 8664.35,621.195 8917.72,634.206 9127.38,686.666 9289.92,778.49 9402.64,908.217 
  9463.95,1072.92 9473.64,1268.18 9433.26,1488.16 9346.36,1725.76 9218.75,1972.86 9058.52,2220.72 8875.99,2460.43 8683.21,2683.4 8493.38,2881.87 8319.89,3049.29 
  8175.22,3180.62 8069.71,3272.53 8010.71,3323.15 8003.04,3331.02 8047.38,3296.1 8140.56,3219.38 8275.85,3102.91 8443.59,2950.02 8631.95,2765.37 8827.97,2555.06 
  9018.5,2326.34 9191.22,2087.35 9335.28,1846.55 9441.83,1612.35 9504.19,1392.71 9518.01,1194.98 9481.24,1025.46 9393.31,888.352 9255.23,786.732 9069.14,722.259 
  8838.01,695.266 8565.4,704.902 8255.25,749.312 7911.74,825.812 7539.24,931.074 7142.23,1061.29 6725.34,1212.34 6293.33,1379.91 5851.14,1559.6 5403.89,1747.04 
  4956.89,1937.96 4515.57,2128.22 4085.5,2313.9 3672.27,2491.29 3281.25,2656.91 2917.43,2807.64 2585.1,2940.62 2287.68,3053.38 2027.45,3143.81 1805.52,3210.18 
  1621.83,3251.15 1475.39,3265.81 1364.62,3253.7 1287.83,3214.92 1243.66,3150.28 1231.26,3061.62 1251.4,2951.15 1305.96,2821.87 1397.24,2677.92 1527.62,2524.32 
  1698.98,2366.73 1912.15,2211.25 2166.55,2064.09 2460,1931.2 2788.8,1818 3147.93,1729.09 3531.48,1668.11 3933.04,1637.65 4345.79,1639.37 4762.94,1673.92 
  5177.95,1741.13 5584.74,1840.1 5977.77,1969.32 6352.12,2126.79 6703.54,2310.15 7028.4,2516.77 7323.69,2743.8 7587,2988.26 7816.47,3247.09 8010.79,3517.23 
  8169.14,3795.68 8291.14,4079.48 8376.75,4365.68 8426.3,4651.45 8440.47,4934.07 8420.23,5210.95 8366.82,5479.63 8281.69,5737.79 8166.54,5983.25 8023.26,6214 
  7853.9,6428.18 7660.67,6624.11 7445.91,6800.26 7212.08,6955.3 6961.75,7088.06 6697.56,7197.54 6422.24,7282.93 6138.54,7343.62 5849.29,7379.16 5557.31,7389.3 
  5265.44,7373.95 4976.54,7333.24 4693.4,7267.46 4418.82,7177.09 4155.54,7062.78 3906.22,6925.38 3673.47,6765.92 3459.78,6585.57 3267.56,6385.72 3099.07,6167.9 
  2956.42,5933.82 2841.6,5685.34 2756.37,5424.5 2702.32,5153.47 2680.8,4874.57 2692.92,4590.28 2739.49,4303.19 2821.04,4016.01 2937.73,3731.55 3089.3,3452.78 
  3275.15,3182.62 3494.3,2923.96 3745.21,2679.8 4025.72,2453.11 4333.12,2246.76 4664.14,2063.41 5014.9,1905.45 5381.01,1774.9 5757.5,1673.37 6138.89,1601.9 
  6519.3,1560.91 6892.53,1550.06 7252.31,1568.17 7592.53,1613.14 7907.5,1681.96 8192.28,1770.78 8442.9,1875.02 8656.5,1989.62 8831.38,2109.27 8966.93,2228.74 
  9063.24,2343.09 9120.6,2447.81 9139.64,2539.13 9120.76,2614.04 9064.09,2670.3 8969.5,2706.46 8836.76,2721.71 8665.74,2715.82 8456.7,2689.06 8210.46,2642.09 
  7928.62,2575.9 7613.63,2491.85 7269.02,2391.7 6899.23,2277.59 6508.61,2151.69 6102.08,2016.56 5684.8,1875.01 5261.93,1730.09 4838.59,1585.07 4419.78,1443.42 
  4010.3,1308.73 3614.76,1184.68 3237.6,1074.94 2883.05,983.098 2555.16,912.542 2257.78,866.343 1994.54,847.094 1768.71,856.784 1583.2,896.632 1440.41,966.923 
  1341.97,1066.88 1288.55,1194.6 1279.62,1346.95 1313.21,1519.65 1385.71,1707.31 1491.74,1903.63 1624.13,2101.66 1774.09,2294.13 1931.55,2473.84 2085.74,2634.07 
  2225.99,2768.88 2342.52,2873.42 2426.99,2943.64 2473.53,2976.8 2479.05,2971.13 2443.59,2925.95 2370.47,2841.8 2265.98,2720.57 2138.82,2565.53 1999.37,2381.33 
  1858.82,2173.91 1728.32,1950.24 1618.34,1718.11 1538.08,1485.86 1494.94,1262.19 1494.11,1055.61 1538.88,872.871 1630.68,719.963 1769.33,601.593 1953.31,521.057 
  2180.09,480.239 2446.34,479.676 2748.26,518.677 3081.69,595.466 3442.24,707.355 3825.42,850.907 4226.63,1022.1 4641.18,1216.49 5064.33,1429.31 5491.24,1655.63 
  5916.96,1890.42 6336.46,2128.67 6744.72,2365.45 7136.8,2596.01 7508,2815.86 7854,3020.78 8171.11,3206.94 8456.42,3370.97 8708.08,3509.99 8925.31,3621.72 
  9108.46,3704.48 9258.8,3757.23 9378.13,3779.49 9468.34,3771.35 9530.88,3733.46 9566.29,3666.96 9573.99,3573.65 9552.24,3456.02 9498.37,3317.33 9409.25,3161.62 
  9281.83,2993.71 9113.74,2819 8903.75,2643.35 8652.15,2472.75 8361,2313.08 8033.56,2169.71 7674.31,2047.34 7288.76,1949.9 6883.03,1880.42 6463.54,1841.02 
  6036.76,1832.96 5609.01,1856.69 5186.28,1911.95 4774.12,1997.86 4377.55,2113.01 4000.97,2255.56 3648.24,2423.38 3322.67,2614.01 3027,2824.83 2763.4,3053.09 
  2533.59,3295.92 2338.76,3550.44 2179.71,3813.75 2056.79,4082.97 1970,4355.27 1918.99,4627.91 1903.09,4898.21 1921.33,5163.62 1972.49,5421.71 2055.1,5670.2 
  2167.5,5906.94 2307.81,6129.94 2474,6337.38 2663.88,6527.59 2875.13,6699.12 3105.35,6850.66 3352.02,6981.09 3612.56,7089.5 3884.36,7175.14 4164.75,7237.45 
  4451.05,7276.07 4740.59,7290.82 5030.72,7281.69 5318.79,7248.85 5602.23,7192.68 5878.53,7113.69 6145.23,7012.6 6399.98,6890.26 6640.53,6747.71 6864.77,6586.11 
  7070.7,6406.81 7256.47,6211.28 7420.42,6001.15 7561.05,5778.16 7677.07,5544.2 7767.43,5301.24 7831.3,5051.36 7868.12,4796.73 7877.59,4539.6 7859.73,4282.25 
  7814.89,4027.02 7743.74,3776.23 7647.33,3532.21 7527.06,3297.21 7384.76,3073.39 7222.59,2862.77 7043.13,2667.19 6849.28,2488.24 6644.28,2327.23 6431.67,2185.14 
  6215.2,2062.61 5998.8,1959.85 5786.51,1876.68 5582.29,1812.46 5390.03,1766.13 5213.43,1736.27 5055.9,1721.11 4920.51,1718.62 4809.86,1726.54 4726.12,1742.52 
  4670.94,1764.19 4645.51,1789.22 4650.49,1815.41 4686.09,1840.73 4752.03,1863.39 4847.55,1881.83 4971.44,1894.76 5122.07,1901.17 5297.46,1900.35 5495.35,1891.83 
  5713.03,1875.45 5947.55,1851.3 6195.84,1819.72 6454.77,1781.31 6721.08,1736.89 6991.48,1687.49 7262.69,1634.35 7531.46,1578.86 7794.64,1522.55 8049.26,1467.03 
  8292.53,1413.94 8521.92,1364.92 8735.14,1321.54 8930.21,1285.26 9105.45,1257.33 9259.5,1238.79 9391.34,1230.32 9500.32,1232.22 9586.25,1244.28 9649.59,1265.86 
  9691.51,1295.93 9713.61,1332.94 9718.03,1374.91 9707.39,1419.47 9684.72,1463.93 9653.32,1505.42 9616.57,1541.01 9577.74,1567.83 9539.76,1583.19 9505,1584.77 
  9475.1,1570.7 9450.79,1539.69 9431.8,1491.15 9416.88,1425.26 9403.85,1343.01 9389.76,1246.22 9371.06,1137.43 9343.9,1019.93 9304.36,897.625 9248.72,774.854 
  9173.68,656.212 9076.57,546.358 8955.43,449.808 8809.1,370.747 8637.23,312.855 8440.24,279.176 8219.25,272.008 7975.94,292.847 7712.53,342.359 7431.59,420.386 
  7135.97,525.984 6828.75,657.469 6513.12,812.496 6192.33,988.169 5869.62,1181.1 5548.21,1387.54 5231.24,1603.44 4921.75,1824.6 4622.63,2046.73 4336.55,2265.57 
  4065.98,2476.97 3813.07,2677.03 3579.63,2862.13 3367.14,3029.06 3176.69,3175.04 3009.08,3297.79 2864.81,3395.58 2744.24,3467.18 2647.62,3511.95 2575.23,3529.84 
  2527.49,3521.34 2505.2,3487.31 2509.42,3429.18 2541.34,3348.93 2602.3,3249.09 2693.59,3132.63 2816.3,3002.97 2971.17,2863.89 3158.35,2719.44 3377.32,2573.87 
  3626.78,2431.46 3904.68,2296.43 4208.24,2172.74 4534.04,2064 4878.2,1973.36 5236.51,1903.44 5604.6,1856.31 5978.02,1833.55 6352.09,1836.16 6722.36,1864.6 
  7084.58,1918.83 7434.75,1998.34 7769.21,2102.22 8084.63,2229.18 8378.08,2377.62 8647.05,2545.68 8889.39,2731.31 9103.39,2932.27 9287.73,3146.2 9441.5,3370.67 
  9564.13,3603.23 9655.46,3841.41 9715.63,4082.79 9745.13,4325.03 9744.71,4565.87 9715.38,4803.15 9658.42,5034.88 9575.29,5259.2 9467.61,5474.43 9337.19,5679.08 
  9185.91,5871.84 9015.77,6051.6 8828.81,6217.43 8627.11,6368.62 8412.75,6504.62 8187.79,6625.1 7954.25,6729.89 7714.08,6818.97 7469.17,6892.51 7221.28,6950.81 
  6972.09,6994.3 6723.13,7023.51 6475.81,7039.09 6231.42,7041.78 5991.06,7032.37 5755.73,7011.72 5526.25,6980.7 5303.33,6940.25 5087.5,6891.27 4879.19,6834.68 
  4678.68,6771.4 4486.14,6702.28 4301.62,6628.18 4125.1,6549.86 3956.43,6468.08 3795.41,6383.5 3641.78,6296.74 3495.21,6208.34 3355.35,6118.77 3221.81,6028.44 
  3094.18,5937.68 2972.07,5846.75 2855.07,5755.87 2742.79,5665.16 2634.86,5574.73 2530.95,5484.6 2430.75,5394.76 2333.99,5305.18 2240.46,5215.77 2149.97,5126.44 
  2062.38,5037.05 1977.61,4947.48 1895.59,4857.57 1816.33,4767.19 1739.86,4676.19 1666.24,4584.43 1595.57,4491.8 1527.98,4398.16 1463.61,4303.44 1402.63,4207.55 
  1345.24,4110.42 1291.61,4012.03 1241.96,3912.33 1196.49,3811.34 1155.39,3709.07 1118.88,3605.56 1087.15,3500.85 1060.38,3395.01 1038.76,3288.13 1022.46,3180.29 
  1011.66,3071.62 1006.52,2962.24 1007.18,2852.28 1013.8,2741.89 1026.54,2631.26 1045.53,2520.56 1070.94,2410 1102.9,2299.82 1141.58,2190.27 1187.11,2081.63 
  1239.66,1974.22 1299.37,1868.39 1366.37,1764.53 1440.8,1663.06 1522.75,1564.43 1612.29,1469.13 1709.48,1377.7 1814.3,1290.69 1926.7,1208.65 2046.54,1132.18 
  2173.64,1061.85 2307.72,998.226 2448.43,941.863 2595.3,893.259 2747.8,852.86 2905.32,821.043 3067.15,798.1 3232.48,784.223 3400.45,779.492 3570.14,783.863 
  3740.56,797.162 3910.7,819.08 4079.54,849.171 4246.03,886.853 4409.16,931.415 4567.93,982.024 4721.37,1037.74 4868.59,1097.52 5008.74,1160.26 5141.04,1224.79 
  5264.8,1289.91 5379.39,1354.39 5484.28,1417.04 5578.99,1476.67 5663.14,1532.19 5736.41,1582.56 5798.54,1626.87 5849.34,1664.31 5888.66,1694.23 5916.34,1716.07 
  5932.25,1729.47 5936.34,1734.22 5928.53,1730.27 5908.78,1717.75 5877.08,1696.97 5833.46,1668.37 5777.96,1632.58 5710.67,1590.34 5631.77,1542.55 5541.46,1490.21 
  5440.05,1434.39 5327.9,1376.28 5205.49,1317.08 5073.37,1258.03 4932.21,1200.39 4782.75,1145.37 4625.84,1094.16 4462.41,1047.88 4293.45,1007.57 4120.02,974.155 
  3943.22,948.439 3764.18,931.11 3584.03,922.717 3403.92,923.666 3224.95,934.228 3048.21,954.532 2874.7,984.579 2705.39,1024.24 2541.15,1073.29 2382.76,1131.38 
  2230.93,1198.09 2086.25,1272.93 1949.22,1355.34 1820.23,1444.74 1699.6,1540.5 1587.55,1642 1484.23,1748.59 1389.7,1859.66 1303.96,1974.59 1226.96,2092.81 
  1158.6,2213.76 1098.74,2336.93 1047.23,2461.84 1003.88,2588.05 968.502,2715.14 940.884,2842.76 920.825,2970.58 908.117,3098.27 902.557,3225.59 903.945,3352.27 
  912.088,3478.11 926.794,3602.9 947.878,3726.46 975.158,3848.62 1008.45,3969.25 1047.58,4088.21 1092.37,4205.39 1142.64,4320.69 1198.21,4434.03 1258.9,4545.33 
  1324.54,4654.54 1394.95,4761.62 1469.96,4866.54 1549.4,4969.29 1633.12,5069.87 1720.97,5168.32 1812.8,5264.66 1908.51,5358.93 2007.99,5451.2 2111.16,5541.53 
  2217.97,5629.98 2328.39,5716.64 2442.42,5801.56 2560.1,5884.82 2681.48,5966.47 2806.66,6046.56 2935.76,6125.11 3068.95,6202.11 3206.39,6277.54 3348.3,6351.31 
  3494.9,6423.32 3646.41,6493.39 3803.07,6561.31 3965.11,6626.79 4132.76,6689.53 4306.21,6749.14 4485.63,6805.19 4671.14,6857.18 4862.82,6904.54 5060.65,6946.68 
  5264.57,6982.93 5474.41,7012.59 5689.9,7034.93 5910.66,7049.19 6136.2,7054.61 6365.9,7050.4 6599.01,7035.82 6834.65,7010.12 7071.78,6972.62 7309.25,6922.66 
  7545.76,6859.7 7779.9,6783.24 8010.12,6692.93 8234.76,6588.5 8452.07,6469.84 8660.22,6336.97 8857.32,6190.1 9041.42,6029.56 9210.56,5855.91 9362.77,5669.88 
  9496.14,5472.38 9608.79,5264.52 9698.95,5047.59 9764.95,4823.06 9805.28,4592.6 9818.6,4358.01 9803.78,4121.27 9759.92,3884.47 9686.42,3649.81 9582.93,3419.59 
  9449.45,3196.14 9286.3,2981.83 9094.18,2779 8874.13,2589.94 8627.6,2416.84 8356.42,2261.76 8062.78,2126.56 7749.27,2012.89 7418.86,1922.1 7074.82,1855.24 
  6720.79,1812.96 6360.64,1795.53 5998.48,1802.72 5638.58,1833.83 5285.29,1887.63 4942.93,1962.37 4615.48,2055.8 4306.78,2165.18 4020.24,2287.34 3758.8,2418.74 
  3524.85,2555.57 3320.09,2693.83 3145.59,2829.5 3001.75,2958.63 2888.38,3077.44 2804.84,3182.49 2750.15,3270.67 2723.18,3339.29 2722.78,3386.15 2747.89,3409.48 
  2797.6,3408.06 2871.17,3381.18 2967.94,3328.71 3087.51,3250.92 3229.52,3148.57 3393.5,3023 3578.81,2876.05 3784.58,2710.06 4009.69,2527.8 4252.69,2332.46 
  4511.86,2127.57 4785.17,1916.89 5070.37,1704.39 5364.96,1494.07 5666.3,1289.95 5971.59,1095.91 6277.91,915.655 6582.29,752.564 6881.73,609.617 7173.24,489.311 
  7453.92,393.575 7720.99,323.698 7971.91,280.274 8204.39,263.168 8416.56,271.495 8606.99,303.632 8774.82,357.264 8919.82,429.455 9042.43,516.758 9143.8,615.352 
  9225.69,721.197 9290.47,830.204 9340.95,938.405 9380.24,1042.12 9411.51,1138.1 9437.86,1223.66 9462.03,1296.79 9486.23,1356.22 9512.01,1401.3 9540.18,1432.05 
  9570.73,1449.17 9602.88,1453.91 9635.18,1447.96 9665.61,1433.4 9691.74,1412.51 9710.96,1387.7 9720.55,1361.38 9717.93,1335.84 9700.75,1313.17 9666.99,1295.16 
  9615.04,1283.25 9543.73,1278.49 9452.38,1281.56 9340.78,1292.74 9209.19,1311.97 9058.22,1338.77 8888.91,1372.42 8702.62,1411.93 8501.03,1456.14 8286.11,1503.75 
  8060.07,1553.39 7825.31,1603.66 7584.46,1653.2 7340.24,1700.7 7095.54,1744.96 6853.31,1784.94 6616.54,1819.74 6388.21,1848.68 6171.28,1871.28 5968.58,1887.28 
  5782.82,1896.67 5616.52,1899.67 5471.93,1896.77 5350.93,1888.68 5255.14,1876.39 5185.81,1861.09 5143.79,1844.25 5129.45,1827.5 5142.73,1812.67 5183.05,1801.73 
  5249.4,1796.73 5340.28,1799.75 5453.78,1812.84 5587.53,1837.96 5738.83,1876.89 5904.61,1931.19 6081.55,2002.13 6266.1,2090.62 6454.58,2197.22 6643.25,2322.05 
  6828.52,2464.94 7006.92,2625.33 7175.15,2802.34 7330.17,2994.77 7469.2,3201.15 7589.79,3419.79 7689.85,3648.82 7767.61,3886.22 7821.66,4129.89 7850.96,4377.65 
  7854.78,4627.27 7832.73,4876.53 7784.73,5123.22 7710.99,5365.18 7612.01,5600.29 7488.53,5826.53 7341.53,6042 7172.21,6244.88 6981.99,6433.44 6772.45,6606.08 
  6545.36,6761.35 6302.65,6897.93 6046.36,7014.65 5778.69,7110.48 5501.92,7184.56 5218.45,7236.19 4930.74,7264.84 4641.33,7270.15 4352.81,7251.94 4067.79,7210.19 
  3788.93,7145.1 3518.87,7057.01 3260.24,6946.49 3015.65,6814.26 2787.64,6661.26 2578.72,6488.59 2391.27,6297.55 2227.6,6089.61 2089.86,5866.43 1980.09,5629.84 
  1900.13,5381.84 1851.63,5124.56 1836.04,4860.31 1854.55,4591.52 1908.1,4320.73 1997.33,4050.62 2122.56,3783.94 2283.76,3523.5 2480.53,3272.16 2712.04,3032.81 
  2977.06,2808.3 3273.86,2601.45 3600.21,2414.98 3953.38,2251.45 4330.04,2113.23 4726.34,2002.42 5137.85,1920.77 5559.59,1869.59 5986.08,1849.68 6411.4,1861.22 
  6829.36,1903.68 7233.57,1975.74 7617.7,2075.25 7975.75,2199.13 8302.34,2343.5 8593.03,2503.67 8844.53,2674.33 9055,2849.75 9224.06,3024.04 9352.72,3191.41 
  9443.18,3346.48 9498.35,3484.51 9521.39,3601.56 9514.91,3694.34 9480.74,3760.36 9419.58,3797.78 9331.01,3805.37 9213.78,3782.43 9066.2,3728.84 8886.64,3645.06 
  8673.93,3532.14 8427.7,3391.72 8148.49,3226.01 7837.88,3037.78 7498.55,2830.43 7134.39,2608.05 6749.46,2374.85 6348.17,2135.33 5935.3,1894.29 5515.75,1656.68 
  5094.4,1427.56 4676.11,1211.98 4265.66,1014.87 3867.73,840.998 3486.96,694.782 3127.89,580.201 2794.98,500.634 2492.57,458.696 2224.72,456.085 1995.21,493.423 
  1807.28,570.108 1663.42,684.199 1565.1,832.374 1512.49,1009.95 1504.16,1210.96 1536.91,1428.37 1605.62,1654.34 1703.26,1880.59 1821.07,2098.84 1949,2301.24 
  2076.26,2480.82 2192.21,2631.8 2287.13,2749.85 2352.76,2831.78 2383.27,2875.84 2375.55,2881.53 2329.57,2849.51 2248.29,2781.61 2137.43,2680.8 2004.87,2551.08 
  1859.99,2397.44 1712.88,2225.7 1573.67,2042.3 1451.87,1854.14 1355.84,1668.33 1292.36,1491.44 1266.51,1329.34 1281.76,1187.07 1340,1068.64 1441.76,976.904 
  1586.42,913.565 1772.43,879.239 1997.54,873.537 2258.97,895.199 2553.54,942.236 2877.74,1012.09 3227.84,1101.76 3599.85,1207.98 3989.62,1327.26 4392.84,1456.05 
  4804.94,1590.84 5221.18,1728.16 5636.68,1864.72 6046.41,1997.4 6445.32,2123.31 6828.38,2239.81 7190.76,2344.5 7527.95,2435.26 7835.95,2510.25 8111.43,2567.92 
  8351.8,2607.05 8555.29,2626.74 8720.8,2626.46 8847.98,2606.16 8936.74,2566.24 8987.09,2507.68 8999.04,2432.12 8972.42,2341.93 8906.97,2240.25 8802.38,2130.92 
  8658.54,2018.37 8475.87,1907.48 8255.51,1803.33 7999.59,1710.99 7711.36,1635.23 7395.28,1580.25 7056.36,1549.52 6700.13,1545.73 6332.57,1570.67 5959.77,1625.3 
  5587.72,1709.75 5222.13,1823.44 4868.29,1965.19 4530.98,2133.28 4214.45,2325.58 3922.34,2539.62 3657.67,2772.76 3422.91,3022.17 3219.99,3284.94 3050.31,3558.1 
  2914.81,3838.69 2813.99,4123.8 2747.93,4410.58 2716.36,4696.27 2718.68,4978.2 2753.99,5253.84 2821.11,5520.79 2918.62,5776.78 3044.9,6019.69 3198.12,6247.55 
  3376.27,6458.57 3577.18,6651.1 3798.57,6823.66 4038.02,6974.96 4292.99,7103.86 4560.88,7209.41 4839.01,7290.83 5124.63,7347.53 5414.96,7379.09 5707.16,7385.28 
  5998.42,7366.06 6285.9,7321.55 6566.77,7252.1 6838.25,7158.19 7097.58,7040.52 7342.08,6899.96 7569.12,6737.56 7776.17,6554.56 7960.82,6352.35 8120.77,6132.52 
  8253.86,5896.81 8358.09,5647.15 8431.64,5385.6 8472.9,5114.38 8480.48,4835.87 8453.22,4552.58 8390.26,4267.13 8291.03,3982.3 8155.31,3700.92 7983.24,3425.96 
  7775.35,3160.4 7532.66,2907.3 7256.63,2669.7 6949.28,2450.6 6613.2,2252.93 6251.56,2079.48 5868.2,1932.8 5467.6,1815.15 5054.87,1728.37 4635.73,1673.79 
  4216.42,1652.11 3803.57,1663.26 3404.03,1706.27 3024.57,1779.23 2671.61,1879.21 2350.87,2002.25 2066.99,2143.48 1823.24,2297.28 1621.31,2457.56 1461.29,2618.06 
  1341.91,2772.71 1260.96,2915.93 1215.85,3042.87 1204.22,3149.6 1224.38,3233.21 1275.68,3291.76 1358.91,3323.8 1475.62,3328.71 1627.68,3306.45 1816.87,3257.5 
  2044.25,3182.82 2309.87,3083.81 2612.49,2962.35 2949.67,2820.7 3317.82,2661.54 3712.52,2487.84 4128.74,2302.91 4561.07,2110.34 5003.95,1913.98 5451.81,1717.92 
  5899.2,1526.4 6340.83,1343.83 6771.61,1174.67 7186.6,1023.38 7581.06,894.295 7950.35,791.558 8289.96,718.923 8595.51,679.63 8862.8,676.218 9087.89,710.351 
  9267.25,782.635 9397.98,892.435 9478.08,1037.75 9506.75,1215.13 9484.71,1419.67 9414.57,1645.04 9301.12,1883.78 9151.39,2127.6 8974.67,2367.85 8782.15,2595.95 
  8586.43,2803.88 8400.78,2984.56 8238.2,3132.12 8110.4,3242.06 8026.73,3311.24 7993.12,3338.07 8011.38,3322.39 8080.54,3264.11 8195.59,3164.52 8348.09,3026.18 
  8527.03,2853 8719.77,2650.3 8913,2424.77 9093.77,2184.26 9250.31,1937.37 9372.7,1692.94 9453.22,1459.58 9486.46,1245.17 9469.28,1056.59 9400.47,899.294 
  9280.5,777.332 9111.14,693.244 8895.16,648.144 8636.01,641.845 8337.63,673.015 8004.22,739.357 7640.2,837.802 7250.09,964.676 6838.54,1115.88 6410.33,1287.03 
  5970.34,1473.58 5523.67,1670.95 5075.53,1874.58 4631.33,2080.02 4196.64,2282.98 3777.03,2479.36 3377.93,2665.34 3004.43,2837.36 2661.07,2992.22 2351.55,3127.04 
  2078.53,3239.34 1843.42,3327.04 1646.37,3388.53 1486.36,3422.67 1361.56,3428.84 1269.7,3407.08 1208.99,3357.81 1178.5,3282.06 1178.41,3181.67 1210.13,3059.28 
  1276.1,2918.48 1379.22,2763.73 1522.24,2600.34 1707.07,2434.27 1934.33,2271.81 2203.01,2119.23 2510.54,1982.43 2852.81,1866.64 3224.45,1776.21 3619.28,1714.56 
  4030.62,1684.08 4451.59,1686.16 4875.4,1721.26 5295.61,1789.04 5706.27,1888.48 6102.01,2017.98 6478.08,2175.5 6830.33,2358.64 7155.25,2564.73 7449.92,2790.88 
  7712.05,3034.11 7939.99,3291.45 8132.6,3559.98 8289.02,3836.58 8408.91,4118.3 8492.29,4402.23 8539.58,4685.58 8551.49,4965.64 8529.02,5239.84 8473.43,5505.74 
  8386.23,5761.02 8269.12,6003.54 8124.03,6231.3 7953.01,6442.46 7758.29,6635.35 7542.23,6808.47 7307.3,6960.49 7056.07,7090.28 6791.18,7196.85 6515.36,7279.44 
  6231.36,7337.42 5941.98,7370.4 5650.04,7378.13 5358.35,7360.56 5069.74,7317.82 4786.98,7250.25 4512.83,7158.32 4249.98,7042.73 4001.05,6904.32 3768.6,6744.13 
  3555.06,6563.37 3362.78,6363.42 3193.95,6145.81 3050.63,5912.25 2934.7,5664.62 2847.88,5404.93 2791.65,5135.35 2767.27,4858.2 2775.75,4575.93 2817.78,4291.15 
  2893.8,4006.47 3003.88,3724.63 3147.71,3448.5 3324.52,3180.98 3533.09,2924.99 3771.74,2683.43 4038.27,2459.07 4329.94,2254.56 4643.47,2072.35 4975.02,1914.63 
  5320.17,1783.22 5673.99,1679.48 6031.11,1604.24 6385.83,1557.65 6732.28,1539.11 7064.64,1547.23 7377.36,1579.82 7665.35,1633.88 7924.22,1705.75 8150.34,1791.23 
  8340.88,1885.71 8493.98,1984.49 8608.56,2082.96 8684.04,2176.8 8720.26,2262.19 8717.32,2335.94 8675.37,2395.52 8594.58,2439.1 8475.17,2465.42 8317.49,2473.8 
  8122.25,2464.02 7890.71,2436.3 7624.86,2391.29 7327.64,2330.05 7002.28,2253.82 6652.6,2164.17 6282.93,2062.95 5897.92,1952.28 5502.36,1834.56 5101.15,1712.41 
  4699.1,1588.69 4300.93,1466.42 3911.2,1348.79 3534.29,1239.09 3174.38,1140.6 2835.45,1056.58 2521.3,990.121 2235.44,944.028 1981.13,920.734 1761.34,922.142 
  1578.6,949.491 1434.89,1003.23 1331.52,1082.89 1268.9,1187.03 1246.4,1313.14 1262.14,1457.64 1312.81,1616.01 1393.62,1782.86 1498.32,1952.19 1619.31,2117.64 
  1748.01,2272.86 1875.28,2411.69 1992.03,2528.51 2090,2618.67 2162.19,2678.17 2203.54,2703.99 2211.52,2694.26 2186.37,2648.33 2131.08,2566.79 2051.13,2451.45 
  1953.96,2305.35 1848.46,2132.78 1744.24,1939.19 1651.03,1731.11 1578.06,1516.05 1533.36,1302.29 1523.18,1098.01 1552.13,910.278 1623.06,745.831 1737.17,610.366 
  1894.18,508.378 2092.62,443.057 2330.03,416.266 2603.25,428.588 2908.62,479.422 3242.13,567.108 3599.57,689.083 3976.57,842.026 4368.68,1022.01 4771.39,1224.64 
  5180.16,1445.18 5590.35,1678.7 5997.29,1920.13 6396.31,2164.39 6782.82,2406.51 7152.36,2641.65 7500.78,2865.24 7824.35,3073.01 8119.99,3261.13 8385.4,3426.24 
  8619.18,3565.55 8820.92,3676.89 8991.04,3758.73 9130.62,3810.15 9241.12,3830.86 9323.81,3821.11 9379.5,3781.69 9408.16,3713.95 9408.81,3619.87 9379.5,3502.07 
  9317.63,3363.83 9220.31,3209.17 9084.93,3042.77 8909.61,2869.89 8693.72,2696.15 8438,2527.28 8144.41,2368.76 7816.25,2225.72 7457.96,2102.68 7074.79,2003.4 
  6672.55,1930.87 6257.35,1887.22 5835.33,1873.78 5412.53,1891.14 4994.68,1939.18 4587.09,2017.19 4194.58,2123.96 3821.5,2257.84 3471.63,2416.82 3148.24,2598.63 
  2854.04,2800.78 2591.24,3020.63 2361.58,3255.43 2166.29,3502.35 2006.22,3758.57 1881.78,4021.25 1793.01,4287.61 1739.61,4554.92 1720.96,4820.52 1736.15,5081.89 
  1783.97,5336.61 1863.01,5582.4 1971.62,5817.13 2107.98,6038.82 2270.06,6245.66 2455.73,6436.03 2662.7,6608.47 2888.6,6761.72 3130.97,6894.71 3387.29,7006.53 
  3655,7096.5 3931.52,7164.11 4214.26,7209.02 4500.64,7231.11 4788.13,7230.42 5074.22,7207.17 5356.48,7161.75 5632.55,7094.74 5900.16,7006.85 6157.17,6898.96 
  6401.53,6772.1 6631.33,6627.44 6844.82,6466.3 7040.4,6290.1 7216.65,6100.41 7372.36,5898.87 7506.5,5687.25 7618.27,5467.38 7707.11,5241.17 7772.7,5010.58 
  7814.97,4777.61 7834.16,4544.29 7830.75,4312.64 7805.56,4084.64 7759.68,3862.24 7694.51,3647.3 7611.74,3441.55 7513.36,3246.59 7401.61,3063.83 7278.97,2894.47 
  7148.16,2739.48 7012.02,2599.54 6873.55,2475.09 6735.81,2366.26 6601.84,2272.86 6474.64,2194.41 6357.09,2130.19 6251.86,2079.18 6161.4,2040.17 6087.85,2011.75 
  6032.99,1992.39 5998.27,1980.48 5984.74,1974.38 5993.05,1972.44 6023.45,1973.1 6075.8,1974.86 6149.57,1976.37 6243.88,1976.42 6357.5,1973.95 6488.95,1968.13 
  6636.48,1958.3 6798.09,1943.99 6971.57,1924.94 7154.63,1901.11 7344.93,1872.64 7540.05,1839.86 7737.57,1803.25 7935.07,1763.47 8130.19,1721.27 8320.68,1677.54 
  8504.37,1633.2 8679.31,1589.23 8843.7,1546.59 8995.99,1506.22 9134.88,1468.94 9259.33,1435.48 9368.6,1406.4 9462.24,1382.05 9540.11,1362.57 9602.37,1347.8 
  9649.51,1337.29 9682.27,1330.28 9701.86,1325.79 9709.71,1322.69 9707.42,1319.57 9696.67,1314.92 9679.14,1307.13 9656.45,1294.63 9629.99,1275.93 9600.83,1249.72 
  9569.68,1214.98 9536.73,1171.03 9501.71,1117.61 9463.83,1054.93 9421.83,983.718 9374.07,905.226 9318.62,821.207 9253.39,733.872 9176.27,645.815 9085.27,559.941 
  8978.67,479.359 8855.09,407.223 8713.56,346.613 8553.61,300.421 8375.24,271.231 8178.99,261.221 7965.85,272.071 7737.23,304.896 7494.93,360.216 7240.98,437.939 
  6977.65,537.376 6707.33,657.276 6432.48,795.876 6155.59,950.953 5879.15,1119.88 5605.66,1299.69 5337.61,1487.07 5077.54,1678.45 4827.52,1870.35 4589.42,2059.31 
  4365.02,2241.91 4155.91,2414.9 3963.42,2575.24 3788.7,2720.22 3632.68,2847.46 3496.15,2955 3379.73,3041.32 3284,3105.35 3209.53,3146.48 3156.93,3164.56 
  3126.87,3159.93 3120.16,3133.37 3137.65,3086.14 3180.26,3019.93 3248.94,2936.82 3344.44,2839.33 3467.32,2730.34 3617.77,2613.02 3795.61,2490.74 4000.16,2367.03 
  4230.25,2245.41 4484.14,2129.4 4759.6,2022.33 5053.93,1927.31 5364.02,1847.13 5686.46,1784.22 6017.61,1740.57 6353.75,1717.72 6691.14,1716.77 7026.11,1738.37 
  7355.01,1782.75 7674.36,1849.74 7980.96,1938.74 8271.83,2048.88 8544.35,2178.92 8796.19,2327.4 9025.36,2492.63 9230.24,2672.77 9409.56,2865.82 9562.4,3069.7 
  9688.17,3282.3 9786.62,3501.48 9857.81,3725.13 9902.09,3951.18 9920.08,4177.67 9912.62,4402.73 9880.78,4624.62 9825.81,4841.73 9749.11,5052.64 9652.21,5256.06 
  9536.71,5450.91 9404.3,5636.24 9256.67,5811.32 9095.56,5975.56 8922.66,6128.56 8739.64,6270.03 8548.1,6399.88 8349.57,6518.12 8145.48,6624.86 7937.18,6720.35 
  7725.89,6804.91 7512.71,6878.92 7298.66,6942.84 7084.58,6997.13 6871.25,7042.32 6659.31,7078.93 6449.29,7107.49 6241.62,7128.49 6036.66,7142.45 5834.66,7149.82 
  5635.81,7151.04 
  "/>
<path clip-path="url(#clip510)" d="
M8613.21 1055.26 L10024.9 1055.26 L10024.9 299.262 L8613.21 299.262  Z
  " fill="#ffffff" fill-rule="evenodd" fill-opacity="1"/>
<polyline clip-path="url(#clip510)" style="stroke:#000000; stroke-width:4; stroke-opacity:1; fill:none" points="
  8613.21,1055.26 10024.9,1055.26 10024.9,299.262 8613.21,299.262 8613.21,1055.26 
  "/>
<polyline clip-path="url(#clip510)" style="stroke:#009af9; stroke-width:25; stroke-opacity:1; fill:none" points="
  8722.49,677.262 9378.19,677.262 
  "/>
<path clip-path="url(#clip510)" d="M 0 0 M9573.99 800.308 Q9562.71 829.243 9552 838.068 Q9541.29 846.893 9523.35 846.893 L9502.09 846.893 L9502.09 824.614 L9517.71 824.614 Q9528.71 824.614 9534.78 819.405 Q9540.86 814.197 9548.24 794.81 L9553.01 782.658 L9487.47 623.226 L9515.69 623.226 L9566.32 749.961 L9616.96 623.226 L9645.17 623.226 L9573.99 800.308 Z" fill="#000000" fill-rule="evenodd" fill-opacity="1" /><path clip-path="url(#clip510)" d="M 0 0 M9681.92 760.667 L9729.66 760.667 L9729.66 595.882 L9677.72 606.299 L9677.72 579.678 L9729.37 569.262 L9758.6 569.262 L9758.6 760.667 L9806.34 760.667 L9806.34 785.262 L9681.92 785.262 L9681.92 760.667 Z" fill="#000000" fill-rule="evenodd" fill-opacity="1" /></svg>
