<?xml version="1.0" encoding="utf-8"?>
<svg xmlns="http://www.w3.org/2000/svg" xmlns:xlink="http://www.w3.org/1999/xlink" width="2800" height="2000" viewBox="0 0 11200 8000">
<defs>
  <clipPath id="clip230">
    <rect x="0" y="0" width="11200" height="8000"/>
  </clipPath>
</defs>
<path clip-path="url(#clip230)" d="
M0 8000 L11200 8000 L11200 0 L0 0  Z
  " fill="#ffffff" fill-rule="evenodd" fill-opacity="1"/>
<defs>
  <clipPath id="clip231">
    <rect x="2240" y="0" width="7841" height="7841"/>
  </clipPath>
</defs>
<path clip-path="url(#clip230)" d="
M1010.56 7378.4 L11152.8 7378.4 L11152.8 294.421 L1010.56 294.421  Z
  " fill="#ffffff" fill-rule="evenodd" fill-opacity="1"/>
<defs>
  <clipPath id="clip232">
    <rect x="1010" y="294" width="10143" height="7085"/>
  </clipPath>
</defs>
<polyline clip-path="url(#clip232)" style="stroke:#000000; stroke-width:2; stroke-opacity:0.1; fill:none" points="
  2102.11,7378.4 2102.11,294.421 
  "/>
<polyline clip-path="url(#clip232)" style="stroke:#000000; stroke-width:2; stroke-opacity:0.1; fill:none" points="
  4115.03,7378.4 4115.03,294.421 
  "/>
<polyline clip-path="url(#clip232)" style="stroke:#000000; stroke-width:2; stroke-opacity:0.1; fill:none" points="
  6127.96,7378.4 6127.96,294.421 
  "/>
<polyline clip-path="url(#clip232)" style="stroke:#000000; stroke-width:2; stroke-opacity:0.1; fill:none" points="
  8140.88,7378.4 8140.88,294.421 
  "/>
<polyline clip-path="url(#clip232)" style="stroke:#000000; stroke-width:2; stroke-opacity:0.1; fill:none" points="
  10153.8,7378.4 10153.8,294.421 
  "/>
<polyline clip-path="url(#clip230)" style="stroke:#000000; stroke-width:4; stroke-opacity:1; fill:none" points="
  1010.56,7378.4 11152.8,7378.4 
  "/>
<polyline clip-path="url(#clip230)" style="stroke:#000000; stroke-width:4; stroke-opacity:1; fill:none" points="
  2102.11,7378.4 2102.11,7293.39 
  "/>
<polyline clip-path="url(#clip230)" style="stroke:#000000; stroke-width:4; stroke-opacity:1; fill:none" points="
  4115.03,7378.4 4115.03,7293.39 
  "/>
<polyline clip-path="url(#clip230)" style="stroke:#000000; stroke-width:4; stroke-opacity:1; fill:none" points="
  6127.96,7378.4 6127.96,7293.39 
  "/>
<polyline clip-path="url(#clip230)" style="stroke:#000000; stroke-width:4; stroke-opacity:1; fill:none" points="
  8140.88,7378.4 8140.88,7293.39 
  "/>
<polyline clip-path="url(#clip230)" style="stroke:#000000; stroke-width:4; stroke-opacity:1; fill:none" points="
  10153.8,7378.4 10153.8,7293.39 
  "/>
<path clip-path="url(#clip230)" d="M 0 0 M1807.91 7622.02 L1993.39 7622.02 L1993.39 7646.62 L1807.91 7646.62 L1807.91 7622.02 Z" fill="#000000" fill-rule="evenodd" fill-opacity="1" /><path clip-path="url(#clip230)" d="M 0 0 M2087.57 7530.44 Q2065 7530.44 2053.57 7552.72 Q2042.29 7574.86 2042.29 7619.42 Q2042.29 7663.83 2053.57 7686.11 Q2065 7708.25 2087.57 7708.25 Q2110.28 7708.25 2121.57 7686.11 Q2133 7663.83 2133 7619.42 Q2133 7574.86 2121.57 7552.72 Q2110.28 7530.44 2087.57 7530.44 M2087.57 7507.3 Q2123.88 7507.3 2142.98 7536.09 Q2162.22 7564.73 2162.22 7619.42 Q2162.22 7673.96 2142.98 7702.75 Q2123.88 7731.4 2087.57 7731.4 Q2051.26 7731.4 2032.02 7702.75 Q2012.92 7673.96 2012.92 7619.42 Q2012.92 7564.73 2032.02 7536.09 Q2051.26 7507.3 2087.57 7507.3 Z" fill="#000000" fill-rule="evenodd" fill-opacity="1" /><path clip-path="url(#clip230)" d="M 0 0 M2193.91 7690.46 L2224.43 7690.46 L2224.43 7727.2 L2193.91 7727.2 L2193.91 7690.46 Z" fill="#000000" fill-rule="evenodd" fill-opacity="1" /><path clip-path="url(#clip230)" d="M 0 0 M2336.41 7536.67 L2262.63 7651.97 L2336.41 7651.97 L2336.41 7536.67 M2328.74 7511.2 L2365.49 7511.2 L2365.49 7651.97 L2396.31 7651.97 L2396.31 7676.28 L2365.49 7676.28 L2365.49 7727.2 L2336.41 7727.2 L2336.41 7676.28 L2238.9 7676.28 L2238.9 7648.07 L2328.74 7511.2 Z" fill="#000000" fill-rule="evenodd" fill-opacity="1" /><path clip-path="url(#clip230)" d="M 0 0 M3827.35 7622.02 L4012.82 7622.02 L4012.82 7646.62 L3827.35 7646.62 L3827.35 7622.02 Z" fill="#000000" fill-rule="evenodd" fill-opacity="1" /><path clip-path="url(#clip230)" d="M 0 0 M4107 7530.44 Q4084.44 7530.44 4073.01 7552.72 Q4061.72 7574.86 4061.72 7619.42 Q4061.72 7663.83 4073.01 7686.11 Q4084.44 7708.25 4107 7708.25 Q4129.72 7708.25 4141 7686.11 Q4152.43 7663.83 4152.43 7619.42 Q4152.43 7574.86 4141 7552.72 Q4129.72 7530.44 4107 7530.44 M4107 7507.3 Q4143.32 7507.3 4162.42 7536.09 Q4181.66 7564.73 4181.66 7619.42 Q4181.66 7673.96 4162.42 7702.75 Q4143.32 7731.4 4107 7731.4 Q4070.69 7731.4 4051.45 7702.75 Q4032.35 7673.96 4032.35 7619.42 Q4032.35 7564.73 4051.45 7536.09 Q4070.69 7507.3 4107 7507.3 Z" fill="#000000" fill-rule="evenodd" fill-opacity="1" /><path clip-path="url(#clip230)" d="M 0 0 M4213.34 7690.46 L4243.87 7690.46 L4243.87 7727.2 L4213.34 7727.2 L4213.34 7690.46 Z" fill="#000000" fill-rule="evenodd" fill-opacity="1" /><path clip-path="url(#clip230)" d="M 0 0 M4300.73 7702.61 L4402.72 7702.61 L4402.72 7727.2 L4265.57 7727.2 L4265.57 7702.61 Q4282.21 7685.39 4310.85 7656.46 Q4339.64 7627.38 4347.02 7618.99 Q4361.05 7603.22 4366.55 7592.37 Q4372.19 7581.37 4372.19 7570.81 Q4372.19 7553.59 4360.04 7542.74 Q4348.03 7531.89 4328.65 7531.89 Q4314.9 7531.89 4299.57 7536.67 Q4284.38 7541.44 4267.02 7551.13 L4267.02 7521.62 Q4284.67 7514.53 4300 7510.91 Q4315.34 7507.3 4328.07 7507.3 Q4361.63 7507.3 4381.6 7524.08 Q4401.56 7540.86 4401.56 7568.93 Q4401.56 7582.24 4396.5 7594.25 Q4391.58 7606.11 4378.42 7622.31 Q4374.8 7626.51 4355.41 7646.62 Q4336.03 7666.58 4300.73 7702.61 Z" fill="#000000" fill-rule="evenodd" fill-opacity="1" /><path clip-path="url(#clip230)" d="M 0 0 M6012.44 7530.44 Q5989.87 7530.44 5978.44 7552.72 Q5967.15 7574.86 5967.15 7619.42 Q5967.15 7663.83 5978.44 7686.11 Q5989.87 7708.25 6012.44 7708.25 Q6035.15 7708.25 6046.43 7686.11 Q6057.86 7663.83 6057.86 7619.42 Q6057.86 7574.86 6046.43 7552.72 Q6035.15 7530.44 6012.44 7530.44 M6012.44 7507.3 Q6048.75 7507.3 6067.85 7536.09 Q6087.09 7564.73 6087.09 7619.42 Q6087.09 7673.96 6067.85 7702.75 Q6048.75 7731.4 6012.44 7731.4 Q5976.12 7731.4 5956.88 7702.75 Q5937.78 7673.96 5937.78 7619.42 Q5937.78 7564.73 5956.88 7536.09 Q5976.12 7507.3 6012.44 7507.3 Z" fill="#000000" fill-rule="evenodd" fill-opacity="1" /><path clip-path="url(#clip230)" d="M 0 0 M6118.77 7690.46 L6149.3 7690.46 L6149.3 7727.2 L6118.77 7727.2 L6118.77 7690.46 Z" fill="#000000" fill-rule="evenodd" fill-opacity="1" /><path clip-path="url(#clip230)" d="M 0 0 M6243.48 7530.44 Q6220.91 7530.44 6209.48 7552.72 Q6198.2 7574.86 6198.2 7619.42 Q6198.2 7663.83 6209.48 7686.11 Q6220.91 7708.25 6243.48 7708.25 Q6266.2 7708.25 6277.48 7686.11 Q6288.91 7663.83 6288.91 7619.42 Q6288.91 7574.86 6277.48 7552.72 Q6266.2 7530.44 6243.48 7530.44 M6243.48 7507.3 Q6279.79 7507.3 6298.89 7536.09 Q6318.13 7564.73 6318.13 7619.42 Q6318.13 7673.96 6298.89 7702.75 Q6279.79 7731.4 6243.48 7731.4 Q6207.17 7731.4 6187.93 7702.75 Q6168.83 7673.96 6168.83 7619.42 Q6168.83 7564.73 6187.93 7536.09 Q6207.17 7507.3 6243.48 7507.3 Z" fill="#000000" fill-rule="evenodd" fill-opacity="1" /><path clip-path="url(#clip230)" d="M 0 0 M8030.35 7530.44 Q8007.78 7530.44 7996.35 7552.72 Q7985.07 7574.86 7985.07 7619.42 Q7985.07 7663.83 7996.35 7686.11 Q8007.78 7708.25 8030.35 7708.25 Q8053.06 7708.25 8064.35 7686.11 Q8075.78 7663.83 8075.78 7619.42 Q8075.78 7574.86 8064.35 7552.72 Q8053.06 7530.44 8030.35 7530.44 M8030.35 7507.3 Q8066.66 7507.3 8085.76 7536.09 Q8105 7564.73 8105 7619.42 Q8105 7673.96 8085.76 7702.75 Q8066.66 7731.4 8030.35 7731.4 Q7994.04 7731.4 7974.79 7702.75 Q7955.7 7673.96 7955.7 7619.42 Q7955.7 7564.73 7974.79 7536.09 Q7994.04 7507.3 8030.35 7507.3 Z" fill="#000000" fill-rule="evenodd" fill-opacity="1" /><path clip-path="url(#clip230)" d="M 0 0 M8136.69 7690.46 L8167.21 7690.46 L8167.21 7727.2 L8136.69 7727.2 L8136.69 7690.46 Z" fill="#000000" fill-rule="evenodd" fill-opacity="1" /><path clip-path="url(#clip230)" d="M 0 0 M8224.07 7702.61 L8326.07 7702.61 L8326.07 7727.2 L8188.91 7727.2 L8188.91 7702.61 Q8205.55 7685.39 8234.2 7656.46 Q8262.99 7627.38 8270.37 7618.99 Q8284.4 7603.22 8289.9 7592.37 Q8295.54 7581.37 8295.54 7570.81 Q8295.54 7553.59 8283.39 7542.74 Q8271.38 7531.89 8251.99 7531.89 Q8238.25 7531.89 8222.91 7536.67 Q8207.72 7541.44 8190.36 7551.13 L8190.36 7521.62 Q8208.01 7514.53 8223.35 7510.91 Q8238.68 7507.3 8251.41 7507.3 Q8284.98 7507.3 8304.94 7524.08 Q8324.91 7540.86 8324.91 7568.93 Q8324.91 7582.24 8319.85 7594.25 Q8314.93 7606.11 8301.76 7622.31 Q8298.14 7626.51 8278.76 7646.62 Q8259.37 7666.58 8224.07 7702.61 Z" fill="#000000" fill-rule="evenodd" fill-opacity="1" /><path clip-path="url(#clip230)" d="M 0 0 M10036.8 7530.44 Q10014.2 7530.44 10002.8 7552.72 Q9991.48 7574.86 9991.48 7619.42 Q9991.48 7663.83 10002.8 7686.11 Q10014.2 7708.25 10036.8 7708.25 Q10059.5 7708.25 10070.8 7686.11 Q10082.2 7663.83 10082.2 7619.42 Q10082.2 7574.86 10070.8 7552.72 Q10059.5 7530.44 10036.8 7530.44 M10036.8 7507.3 Q10073.1 7507.3 10092.2 7536.09 Q10111.4 7564.73 10111.4 7619.42 Q10111.4 7673.96 10092.2 7702.75 Q10073.1 7731.4 10036.8 7731.4 Q10000.5 7731.4 9981.21 7702.75 Q9962.11 7673.96 9962.11 7619.42 Q9962.11 7564.73 9981.21 7536.09 Q10000.5 7507.3 10036.8 7507.3 Z" fill="#000000" fill-rule="evenodd" fill-opacity="1" /><path clip-path="url(#clip230)" d="M 0 0 M10143.1 7690.46 L10173.6 7690.46 L10173.6 7727.2 L10143.1 7727.2 L10143.1 7690.46 Z" fill="#000000" fill-rule="evenodd" fill-opacity="1" /><path clip-path="url(#clip230)" d="M 0 0 M10285.6 7536.67 L10211.8 7651.97 L10285.6 7651.97 L10285.6 7536.67 M10277.9 7511.2 L10314.7 7511.2 L10314.7 7651.97 L10345.5 7651.97 L10345.5 7676.28 L10314.7 7676.28 L10314.7 7727.2 L10285.6 7727.2 L10285.6 7676.28 L10188.1 7676.28 L10188.1 7648.07 L10277.9 7511.2 Z" fill="#000000" fill-rule="evenodd" fill-opacity="1" /><path clip-path="url(#clip230)" d="M 0 0 M6157.18 7911.57 L6098.59 7990.41 L6160.22 8073.6 L6128.82 8073.6 L6081.66 8009.95 L6034.5 8073.6 L6003.1 8073.6 L6066.03 7988.82 L6008.45 7911.57 L6039.85 7911.57 L6082.82 7969.29 L6125.79 7911.57 L6157.18 7911.57 Z" fill="#000000" fill-rule="evenodd" fill-opacity="1" /><polyline clip-path="url(#clip232)" style="stroke:#000000; stroke-width:2; stroke-opacity:0.1; fill:none" points="
  1010.56,7150.22 11152.8,7150.22 
  "/>
<polyline clip-path="url(#clip232)" style="stroke:#000000; stroke-width:2; stroke-opacity:0.1; fill:none" points="
  1010.56,5641.91 11152.8,5641.91 
  "/>
<polyline clip-path="url(#clip232)" style="stroke:#000000; stroke-width:2; stroke-opacity:0.1; fill:none" points="
  1010.56,4133.59 11152.8,4133.59 
  "/>
<polyline clip-path="url(#clip232)" style="stroke:#000000; stroke-width:2; stroke-opacity:0.1; fill:none" points="
  1010.56,2625.28 11152.8,2625.28 
  "/>
<polyline clip-path="url(#clip232)" style="stroke:#000000; stroke-width:2; stroke-opacity:0.1; fill:none" points="
  1010.56,1116.97 11152.8,1116.97 
  "/>
<polyline clip-path="url(#clip230)" style="stroke:#000000; stroke-width:4; stroke-opacity:1; fill:none" points="
  1010.56,7378.4 1010.56,294.421 
  "/>
<polyline clip-path="url(#clip230)" style="stroke:#000000; stroke-width:4; stroke-opacity:1; fill:none" points="
  1010.56,7150.22 1132.27,7150.22 
  "/>
<polyline clip-path="url(#clip230)" style="stroke:#000000; stroke-width:4; stroke-opacity:1; fill:none" points="
  1010.56,5641.91 1132.27,5641.91 
  "/>
<polyline clip-path="url(#clip230)" style="stroke:#000000; stroke-width:4; stroke-opacity:1; fill:none" points="
  1010.56,4133.59 1132.27,4133.59 
  "/>
<polyline clip-path="url(#clip230)" style="stroke:#000000; stroke-width:4; stroke-opacity:1; fill:none" points="
  1010.56,2625.28 1132.27,2625.28 
  "/>
<polyline clip-path="url(#clip230)" style="stroke:#000000; stroke-width:4; stroke-opacity:1; fill:none" points="
  1010.56,1116.97 1132.27,1116.97 
  "/>
<path clip-path="url(#clip230)" d="M 0 0 M254.169 7153.04 L439.642 7153.04 L439.642 7177.64 L254.169 7177.64 L254.169 7153.04 Z" fill="#000000" fill-rule="evenodd" fill-opacity="1" /><path clip-path="url(#clip230)" d="M 0 0 M533.826 7061.46 Q511.256 7061.46 499.827 7083.74 Q488.542 7105.88 488.542 7150.44 Q488.542 7194.85 499.827 7217.13 Q511.256 7239.27 533.826 7239.27 Q556.54 7239.27 567.824 7217.13 Q579.254 7194.85 579.254 7150.44 Q579.254 7105.88 567.824 7083.74 Q556.54 7061.46 533.826 7061.46 M533.826 7038.32 Q570.139 7038.32 589.236 7067.11 Q608.478 7095.75 608.478 7150.44 Q608.478 7204.98 589.236 7233.77 Q570.139 7262.42 533.826 7262.42 Q497.512 7262.42 478.271 7233.77 Q459.173 7204.98 459.173 7150.44 Q459.173 7095.75 478.271 7067.11 Q497.512 7038.32 533.826 7038.32 Z" fill="#000000" fill-rule="evenodd" fill-opacity="1" /><path clip-path="url(#clip230)" d="M 0 0 M640.162 7221.47 L670.688 7221.47 L670.688 7258.22 L640.162 7258.22 L640.162 7221.47 Z" fill="#000000" fill-rule="evenodd" fill-opacity="1" /><path clip-path="url(#clip230)" d="M 0 0 M782.667 7067.69 L708.883 7182.99 L782.667 7182.99 L782.667 7067.69 M774.999 7042.22 L811.747 7042.22 L811.747 7182.99 L842.563 7182.99 L842.563 7207.3 L811.747 7207.3 L811.747 7258.22 L782.667 7258.22 L782.667 7207.3 L685.156 7207.3 L685.156 7179.09 L774.999 7042.22 Z" fill="#000000" fill-rule="evenodd" fill-opacity="1" /><path clip-path="url(#clip230)" d="M 0 0 M267.189 5644.73 L452.663 5644.73 L452.663 5669.32 L267.189 5669.32 L267.189 5644.73 Z" fill="#000000" fill-rule="evenodd" fill-opacity="1" /><path clip-path="url(#clip230)" d="M 0 0 M546.847 5553.15 Q524.277 5553.15 512.848 5575.43 Q501.563 5597.57 501.563 5642.13 Q501.563 5686.54 512.848 5708.82 Q524.277 5730.96 546.847 5730.96 Q569.561 5730.96 580.845 5708.82 Q592.275 5686.54 592.275 5642.13 Q592.275 5597.57 580.845 5575.43 Q569.561 5553.15 546.847 5553.15 M546.847 5530 Q583.16 5530 602.257 5558.79 Q621.499 5587.44 621.499 5642.13 Q621.499 5696.67 602.257 5725.46 Q583.16 5754.1 546.847 5754.1 Q510.533 5754.1 491.291 5725.46 Q472.194 5696.67 472.194 5642.13 Q472.194 5587.44 491.291 5558.79 Q510.533 5530 546.847 5530 Z" fill="#000000" fill-rule="evenodd" fill-opacity="1" /><path clip-path="url(#clip230)" d="M 0 0 M653.183 5713.16 L683.709 5713.16 L683.709 5749.91 L653.183 5749.91 L653.183 5713.16 Z" fill="#000000" fill-rule="evenodd" fill-opacity="1" /><path clip-path="url(#clip230)" d="M 0 0 M740.567 5725.31 L842.563 5725.31 L842.563 5749.91 L705.411 5749.91 L705.411 5725.31 Q722.048 5708.1 750.694 5679.16 Q779.484 5650.08 786.863 5641.69 Q800.896 5625.92 806.394 5615.07 Q812.036 5604.08 812.036 5593.51 Q812.036 5576.3 799.883 5565.45 Q787.875 5554.6 768.489 5554.6 Q754.745 5554.6 739.409 5559.37 Q724.218 5564.15 706.857 5573.84 L706.857 5544.33 Q724.508 5537.24 739.843 5533.62 Q755.179 5530 767.91 5530 Q801.475 5530 821.44 5546.78 Q841.405 5563.57 841.405 5591.63 Q841.405 5604.94 836.342 5616.95 Q831.423 5628.82 818.257 5645.02 Q814.64 5649.21 795.254 5669.32 Q775.867 5689.29 740.567 5725.31 Z" fill="#000000" fill-rule="evenodd" fill-opacity="1" /><path clip-path="url(#clip230)" d="M 0 0 M536.864 4044.84 Q514.295 4044.84 502.865 4067.12 Q491.581 4089.25 491.581 4133.81 Q491.581 4178.23 502.865 4200.51 Q514.295 4222.64 536.864 4222.64 Q559.578 4222.64 570.863 4200.51 Q582.292 4178.23 582.292 4133.81 Q582.292 4089.25 570.863 4067.12 Q559.578 4044.84 536.864 4044.84 M536.864 4021.69 Q573.177 4021.69 592.275 4050.48 Q611.516 4079.12 611.516 4133.81 Q611.516 4188.35 592.275 4217.14 Q573.177 4245.79 536.864 4245.79 Q500.551 4245.79 481.309 4217.14 Q462.212 4188.35 462.212 4133.81 Q462.212 4079.12 481.309 4050.48 Q500.551 4021.69 536.864 4021.69 Z" fill="#000000" fill-rule="evenodd" fill-opacity="1" /><path clip-path="url(#clip230)" d="M 0 0 M643.2 4204.85 L673.727 4204.85 L673.727 4241.59 L643.2 4241.59 L643.2 4204.85 Z" fill="#000000" fill-rule="evenodd" fill-opacity="1" /><path clip-path="url(#clip230)" d="M 0 0 M767.91 4044.84 Q745.341 4044.84 733.912 4067.12 Q722.627 4089.25 722.627 4133.81 Q722.627 4178.23 733.912 4200.51 Q745.341 4222.64 767.91 4222.64 Q790.624 4222.64 801.909 4200.51 Q813.338 4178.23 813.338 4133.81 Q813.338 4089.25 801.909 4067.12 Q790.624 4044.84 767.91 4044.84 M767.91 4021.69 Q804.224 4021.69 823.321 4050.48 Q842.563 4079.12 842.563 4133.81 Q842.563 4188.35 823.321 4217.14 Q804.224 4245.79 767.91 4245.79 Q731.597 4245.79 712.355 4217.14 Q693.258 4188.35 693.258 4133.81 Q693.258 4079.12 712.355 4050.48 Q731.597 4021.69 767.91 4021.69 Z" fill="#000000" fill-rule="evenodd" fill-opacity="1" /><path clip-path="url(#clip230)" d="M 0 0 M546.847 2536.52 Q524.277 2536.52 512.848 2558.8 Q501.563 2580.94 501.563 2625.5 Q501.563 2669.91 512.848 2692.19 Q524.277 2714.33 546.847 2714.33 Q569.561 2714.33 580.845 2692.19 Q592.275 2669.91 592.275 2625.5 Q592.275 2580.94 580.845 2558.8 Q569.561 2536.52 546.847 2536.52 M546.847 2513.37 Q583.16 2513.37 602.257 2542.16 Q621.499 2570.81 621.499 2625.5 Q621.499 2680.04 602.257 2708.83 Q583.16 2737.48 546.847 2737.48 Q510.533 2737.48 491.291 2708.83 Q472.194 2680.04 472.194 2625.5 Q472.194 2570.81 491.291 2542.16 Q510.533 2513.37 546.847 2513.37 Z" fill="#000000" fill-rule="evenodd" fill-opacity="1" /><path clip-path="url(#clip230)" d="M 0 0 M653.183 2696.53 L683.709 2696.53 L683.709 2733.28 L653.183 2733.28 L653.183 2696.53 Z" fill="#000000" fill-rule="evenodd" fill-opacity="1" /><path clip-path="url(#clip230)" d="M 0 0 M740.567 2708.69 L842.563 2708.69 L842.563 2733.28 L705.411 2733.28 L705.411 2708.69 Q722.048 2691.47 750.694 2662.53 Q779.484 2633.46 786.863 2625.06 Q800.896 2609.29 806.394 2598.44 Q812.036 2587.45 812.036 2576.89 Q812.036 2559.67 799.883 2548.82 Q787.875 2537.97 768.489 2537.97 Q754.745 2537.97 739.409 2542.74 Q724.218 2547.52 706.857 2557.21 L706.857 2527.7 Q724.508 2520.61 739.843 2516.99 Q755.179 2513.37 767.91 2513.37 Q801.475 2513.37 821.44 2530.16 Q841.405 2546.94 841.405 2575.01 Q841.405 2588.32 836.342 2600.32 Q831.423 2612.19 818.257 2628.39 Q814.64 2632.59 795.254 2652.7 Q775.867 2672.66 740.567 2708.69 Z" fill="#000000" fill-rule="evenodd" fill-opacity="1" /><path clip-path="url(#clip230)" d="M 0 0 M533.826 1028.21 Q511.256 1028.21 499.827 1050.49 Q488.542 1072.62 488.542 1117.18 Q488.542 1161.6 499.827 1183.88 Q511.256 1206.01 533.826 1206.01 Q556.54 1206.01 567.824 1183.88 Q579.254 1161.6 579.254 1117.18 Q579.254 1072.62 567.824 1050.49 Q556.54 1028.21 533.826 1028.21 M533.826 1005.06 Q570.139 1005.06 589.236 1033.85 Q608.478 1062.5 608.478 1117.18 Q608.478 1171.73 589.236 1200.52 Q570.139 1229.16 533.826 1229.16 Q497.512 1229.16 478.271 1200.52 Q459.173 1171.73 459.173 1117.18 Q459.173 1062.5 478.271 1033.85 Q497.512 1005.06 533.826 1005.06 Z" fill="#000000" fill-rule="evenodd" fill-opacity="1" /><path clip-path="url(#clip230)" d="M 0 0 M640.162 1188.22 L670.688 1188.22 L670.688 1224.97 L640.162 1224.97 L640.162 1188.22 Z" fill="#000000" fill-rule="evenodd" fill-opacity="1" /><path clip-path="url(#clip230)" d="M 0 0 M782.667 1034.43 L708.883 1149.74 L782.667 1149.74 L782.667 1034.43 M774.999 1008.97 L811.747 1008.97 L811.747 1149.74 L842.563 1149.74 L842.563 1174.04 L811.747 1174.04 L811.747 1224.97 L782.667 1224.97 L782.667 1174.04 L685.156 1174.04 L685.156 1145.83 L774.999 1008.97 Z" fill="#000000" fill-rule="evenodd" fill-opacity="1" /><path clip-path="url(#clip230)" d="M 0 0 M148.415 3828.74 Q177.35 3840.03 186.175 3850.73 Q195 3861.44 195 3879.38 L195 3900.65 L172.72 3900.65 L172.72 3885.02 Q172.72 3874.03 167.512 3867.95 Q162.304 3861.87 142.917 3854.5 L130.765 3849.72 L-28.6674 3915.26 L-28.6674 3887.05 L98.068 3836.41 L-28.6674 3785.78 L-28.6674 3757.56 L148.415 3828.74 Z" fill="#000000" fill-rule="evenodd" fill-opacity="1" /><path clip-path="url(#clip230)" d="M 0 0 M3859.09 63.0205 Q3827.26 63.0205 3808.45 86.7472 Q3789.79 110.474 3789.79 151.417 Q3789.79 192.215 3808.45 215.942 Q3827.26 239.669 3859.09 239.669 Q3890.92 239.669 3909.43 215.942 Q3928.1 192.215 3928.1 151.417 Q3928.1 110.474 3909.43 86.7472 Q3890.92 63.0205 3859.09 63.0205 M3859.09 39.2938 Q3904.52 39.2938 3931.71 69.8202 Q3958.91 100.202 3958.91 151.417 Q3958.91 202.487 3931.71 233.014 Q3904.52 263.396 3859.09 263.396 Q3813.51 263.396 3786.17 233.014 Q3758.97 202.632 3758.97 151.417 Q3758.97 100.202 3786.17 69.8202 Q3813.51 39.2938 3859.09 39.2938 M3867.04 -15.5381 L3893.81 -15.5381 L3860.82 22.6561 L3838.69 22.6561 L3867.04 -15.5381 Z" fill="#000000" fill-rule="evenodd" fill-opacity="1" /><path clip-path="url(#clip230)" d="M 0 0 M4080.73 122.048 Q4076.24 119.444 4070.89 118.286 Q4065.68 116.984 4059.32 116.984 Q4036.75 116.984 4024.6 131.741 Q4012.59 146.353 4012.59 173.842 L4012.59 259.2 L3985.82 259.2 L3985.82 97.1638 L4012.59 97.1638 L4012.59 122.337 Q4020.98 107.58 4034.43 100.491 Q4047.89 93.2576 4067.13 93.2576 Q4069.88 93.2576 4073.21 93.6916 Q4076.53 93.981 4080.58 94.7044 L4080.73 122.048 Z" fill="#000000" fill-rule="evenodd" fill-opacity="1" /><path clip-path="url(#clip230)" d="M 0 0 M4224.97 178.327 Q4224.97 148.958 4212.82 132.32 Q4200.81 115.538 4179.69 115.538 Q4158.56 115.538 4146.41 132.32 Q4134.4 148.958 4134.4 178.327 Q4134.4 207.696 4146.41 224.478 Q4158.56 241.116 4179.69 241.116 Q4200.81 241.116 4212.82 224.478 Q4224.97 207.696 4224.97 178.327 M4134.4 121.759 Q4142.8 107.291 4155.53 100.347 Q4168.4 93.2576 4186.2 93.2576 Q4215.71 93.2576 4234.09 116.695 Q4252.6 140.132 4252.6 178.327 Q4252.6 216.521 4234.09 239.958 Q4215.71 263.396 4186.2 263.396 Q4168.4 263.396 4155.53 256.451 Q4142.8 249.362 4134.4 234.895 L4134.4 259.2 L4107.64 259.2 L4107.64 34.0855 L4134.4 34.0855 L4134.4 121.759 Z" fill="#000000" fill-rule="evenodd" fill-opacity="1" /><path clip-path="url(#clip230)" d="M 0 0 M4280.53 97.1638 L4307.15 97.1638 L4307.15 259.2 L4280.53 259.2 L4280.53 97.1638 M4280.53 34.0855 L4307.15 34.0855 L4307.15 67.7948 L4280.53 67.7948 L4280.53 34.0855 Z" fill="#000000" fill-rule="evenodd" fill-opacity="1" /><path clip-path="url(#clip230)" d="M 0 0 M4361.4 51.1571 L4361.4 97.1638 L4416.23 97.1638 L4416.23 117.852 L4361.4 117.852 L4361.4 205.815 Q4361.4 225.635 4366.75 231.278 Q4372.25 236.92 4388.89 236.92 L4416.23 236.92 L4416.23 259.2 L4388.89 259.2 Q4358.07 259.2 4346.35 247.771 Q4334.63 236.197 4334.63 205.815 L4334.63 117.852 L4315.1 117.852 L4315.1 97.1638 L4334.63 97.1638 L4334.63 51.1571 L4361.4 51.1571 Z" fill="#000000" fill-rule="evenodd" fill-opacity="1" /><path clip-path="url(#clip230)" d="M 0 0 M4517.79 177.748 Q4485.53 177.748 4473.09 185.126 Q4460.65 192.505 4460.65 210.3 Q4460.65 224.478 4469.91 232.869 Q4479.31 241.116 4495.37 241.116 Q4517.5 241.116 4530.81 225.491 Q4544.27 209.721 4544.27 183.68 L4544.27 177.748 L4517.79 177.748 M4570.89 166.753 L4570.89 259.2 L4544.27 259.2 L4544.27 234.605 Q4535.15 249.362 4521.55 256.451 Q4507.96 263.396 4488.28 263.396 Q4463.4 263.396 4448.64 249.507 Q4434.03 235.473 4434.03 212.036 Q4434.03 184.692 4452.26 170.803 Q4470.63 156.915 4506.94 156.915 L4544.27 156.915 L4544.27 154.311 Q4544.27 135.937 4532.12 125.954 Q4520.11 115.827 4498.26 115.827 Q4484.37 115.827 4471.21 119.154 Q4458.04 122.482 4445.89 129.137 L4445.89 104.542 Q4460.5 98.8999 4474.25 96.1511 Q4487.99 93.2576 4501.01 93.2576 Q4536.17 93.2576 4553.53 111.487 Q4570.89 129.716 4570.89 166.753 Z" fill="#000000" fill-rule="evenodd" fill-opacity="1" /><path clip-path="url(#clip230)" d="M 0 0 M4799.62 121.759 L4799.62 34.0855 L4826.24 34.0855 L4826.24 259.2 L4799.62 259.2 L4799.62 234.895 Q4791.23 249.362 4778.35 256.451 Q4765.62 263.396 4747.68 263.396 Q4718.31 263.396 4699.79 239.958 Q4681.42 216.521 4681.42 178.327 Q4681.42 140.132 4699.79 116.695 Q4718.31 93.2576 4747.68 93.2576 Q4765.62 93.2576 4778.35 100.347 Q4791.23 107.291 4799.62 121.759 M4708.91 178.327 Q4708.91 207.696 4720.92 224.478 Q4733.07 241.116 4754.19 241.116 Q4775.31 241.116 4787.47 224.478 Q4799.62 207.696 4799.62 178.327 Q4799.62 148.958 4787.47 132.32 Q4775.31 115.538 4754.19 115.538 Q4733.07 115.538 4720.92 132.32 Q4708.91 148.958 4708.91 178.327 Z" fill="#000000" fill-rule="evenodd" fill-opacity="1" /><path clip-path="url(#clip230)" d="M 0 0 M4992.76 171.527 L4992.76 184.548 L4870.37 184.548 Q4872.1 212.036 4886.86 226.503 Q4901.76 240.826 4928.24 240.826 Q4943.57 240.826 4957.9 237.065 Q4972.36 233.303 4986.54 225.78 L4986.54 250.954 Q4972.22 257.03 4957.17 260.213 Q4942.13 263.396 4926.65 263.396 Q4887.87 263.396 4865.16 240.826 Q4842.59 218.257 4842.59 179.773 Q4842.59 139.988 4864 116.695 Q4885.56 93.2576 4922.02 93.2576 Q4954.71 93.2576 4973.66 114.38 Q4992.76 135.358 4992.76 171.527 M4966.14 163.714 Q4965.85 141.868 4953.84 128.848 Q4941.98 115.827 4922.3 115.827 Q4900.02 115.827 4886.57 128.414 Q4873.26 141 4871.23 163.859 L4966.14 163.714 Z" fill="#000000" fill-rule="evenodd" fill-opacity="1" /><path clip-path="url(#clip230)" d="M 0 0 M5020.68 34.0855 L5047.3 34.0855 L5047.3 259.2 L5020.68 259.2 L5020.68 34.0855 Z" fill="#000000" fill-rule="evenodd" fill-opacity="1" /><path clip-path="url(#clip230)" d="M 0 0 M5272.71 101.938 L5272.71 127.112 Q5261.42 121.325 5249.27 118.431 Q5237.12 115.538 5224.1 115.538 Q5204.28 115.538 5194.29 121.614 Q5184.46 127.69 5184.46 139.843 Q5184.46 149.102 5191.55 154.455 Q5198.63 159.663 5220.05 164.438 L5229.16 166.463 Q5257.52 172.54 5269.38 183.68 Q5281.39 194.675 5281.39 214.495 Q5281.39 237.065 5263.45 250.23 Q5245.65 263.396 5214.4 263.396 Q5201.38 263.396 5187.21 260.791 Q5173.17 258.332 5157.55 253.268 L5157.55 225.78 Q5172.3 233.448 5186.63 237.354 Q5200.95 241.116 5214.98 241.116 Q5233.79 241.116 5243.92 234.75 Q5254.05 228.24 5254.05 216.521 Q5254.05 205.67 5246.67 199.883 Q5239.43 194.096 5214.69 188.743 L5205.43 186.573 Q5180.69 181.365 5169.7 170.659 Q5158.7 159.808 5158.7 141 Q5158.7 118.142 5174.91 105.7 Q5191.11 93.2576 5220.91 93.2576 Q5235.67 93.2576 5248.69 95.4277 Q5261.71 97.5979 5272.71 101.938 Z" fill="#000000" fill-rule="evenodd" fill-opacity="1" /><path clip-path="url(#clip230)" d="M 0 0 M5309.31 97.1638 L5335.93 97.1638 L5335.93 259.2 L5309.31 259.2 L5309.31 97.1638 M5309.31 34.0855 L5335.93 34.0855 L5335.93 67.7948 L5309.31 67.7948 L5309.31 34.0855 Z" fill="#000000" fill-rule="evenodd" fill-opacity="1" /><path clip-path="url(#clip230)" d="M 0 0 M5467.15 101.938 L5467.15 127.112 Q5455.87 121.325 5443.71 118.431 Q5431.56 115.538 5418.54 115.538 Q5398.72 115.538 5388.74 121.614 Q5378.9 127.69 5378.9 139.843 Q5378.9 149.102 5385.99 154.455 Q5393.08 159.663 5414.49 164.438 L5423.6 166.463 Q5451.96 172.54 5463.82 183.68 Q5475.83 194.675 5475.83 214.495 Q5475.83 237.065 5457.89 250.23 Q5440.1 263.396 5408.85 263.396 Q5395.83 263.396 5381.65 260.791 Q5367.62 258.332 5351.99 253.268 L5351.99 225.78 Q5366.75 233.448 5381.07 237.354 Q5395.39 241.116 5409.43 241.116 Q5428.23 241.116 5438.36 234.75 Q5448.49 228.24 5448.49 216.521 Q5448.49 205.67 5441.11 199.883 Q5433.88 194.096 5409.14 188.743 L5399.88 186.573 Q5375.14 181.365 5364.14 170.659 Q5353.15 159.808 5353.15 141 Q5353.15 118.142 5369.35 105.7 Q5385.55 93.2576 5415.36 93.2576 Q5430.11 93.2576 5443.14 95.4277 Q5456.16 97.5979 5467.15 101.938 Z" fill="#000000" fill-rule="evenodd" fill-opacity="1" /><path clip-path="url(#clip230)" d="M 0 0 M5530.09 51.1571 L5530.09 97.1638 L5584.92 97.1638 L5584.92 117.852 L5530.09 117.852 L5530.09 205.815 Q5530.09 225.635 5535.44 231.278 Q5540.94 236.92 5557.57 236.92 L5584.92 236.92 L5584.92 259.2 L5557.57 259.2 Q5526.76 259.2 5515.04 247.771 Q5503.32 236.197 5503.32 205.815 L5503.32 117.852 L5483.79 117.852 L5483.79 97.1638 L5503.32 97.1638 L5503.32 51.1571 L5530.09 51.1571 Z" fill="#000000" fill-rule="evenodd" fill-opacity="1" /><path clip-path="url(#clip230)" d="M 0 0 M5751.44 171.527 L5751.44 184.548 L5629.04 184.548 Q5630.78 212.036 5645.54 226.503 Q5660.44 240.826 5686.91 240.826 Q5702.25 240.826 5716.57 237.065 Q5731.04 233.303 5745.22 225.78 L5745.22 250.954 Q5730.89 257.03 5715.85 260.213 Q5700.8 263.396 5685.32 263.396 Q5646.55 263.396 5623.83 240.826 Q5601.27 218.257 5601.27 179.773 Q5601.27 139.988 5622.68 116.695 Q5644.23 93.2576 5680.69 93.2576 Q5713.39 93.2576 5732.34 114.38 Q5751.44 135.358 5751.44 171.527 M5724.82 163.714 Q5724.53 141.868 5712.52 128.848 Q5700.66 115.827 5680.98 115.827 Q5658.7 115.827 5645.25 128.414 Q5631.94 141 5629.91 163.859 L5724.82 163.714 Z" fill="#000000" fill-rule="evenodd" fill-opacity="1" /><path clip-path="url(#clip230)" d="M 0 0 M5905.52 128.269 Q5915.5 110.329 5929.39 101.793 Q5943.28 93.2576 5962.09 93.2576 Q5987.4 93.2576 6001.15 111.053 Q6014.89 128.703 6014.89 161.4 L6014.89 259.2 L5988.13 259.2 L5988.13 162.268 Q5988.13 138.975 5979.88 127.69 Q5971.63 116.406 5954.71 116.406 Q5934.02 116.406 5922.01 130.15 Q5910 143.894 5910 167.621 L5910 259.2 L5883.24 259.2 L5883.24 162.268 Q5883.24 138.83 5874.99 127.69 Q5866.74 116.406 5849.53 116.406 Q5829.13 116.406 5817.12 130.294 Q5805.11 144.039 5805.11 167.621 L5805.11 259.2 L5778.35 259.2 L5778.35 97.1638 L5805.11 97.1638 L5805.11 122.337 Q5814.23 107.436 5826.96 100.347 Q5839.69 93.2576 5857.2 93.2576 Q5874.85 93.2576 5887.14 102.227 Q5899.59 111.197 5905.52 128.269 Z" fill="#000000" fill-rule="evenodd" fill-opacity="1" /><path clip-path="url(#clip230)" d="M 0 0 M6116.45 177.748 Q6084.19 177.748 6071.75 185.126 Q6059.31 192.505 6059.31 210.3 Q6059.31 224.478 6068.57 232.869 Q6077.97 241.116 6094.03 241.116 Q6116.16 241.116 6129.47 225.491 Q6142.93 209.721 6142.93 183.68 L6142.93 177.748 L6116.45 177.748 M6169.55 166.753 L6169.55 259.2 L6142.93 259.2 L6142.93 234.605 Q6133.81 249.362 6120.22 256.451 Q6106.62 263.396 6086.94 263.396 Q6062.06 263.396 6047.3 249.507 Q6032.69 235.473 6032.69 212.036 Q6032.69 184.692 6050.92 170.803 Q6069.29 156.915 6105.6 156.915 L6142.93 156.915 L6142.93 154.311 Q6142.93 135.937 6130.78 125.954 Q6118.77 115.827 6096.92 115.827 Q6083.03 115.827 6069.87 119.154 Q6056.7 122.482 6044.55 129.137 L6044.55 104.542 Q6059.16 98.8999 6072.91 96.1511 Q6086.65 93.2576 6099.67 93.2576 Q6134.83 93.2576 6152.19 111.487 Q6169.55 129.716 6169.55 166.753 Z" fill="#000000" fill-rule="evenodd" fill-opacity="1" /><path clip-path="url(#clip230)" d="M 0 0 M6398.28 121.759 L6398.28 34.0855 L6424.9 34.0855 L6424.9 259.2 L6398.28 259.2 L6398.28 234.895 Q6389.89 249.362 6377.01 256.451 Q6364.28 263.396 6346.34 263.396 Q6316.97 263.396 6298.45 239.958 Q6280.08 216.521 6280.08 178.327 Q6280.08 140.132 6298.45 116.695 Q6316.97 93.2576 6346.34 93.2576 Q6364.28 93.2576 6377.01 100.347 Q6389.89 107.291 6398.28 121.759 M6307.57 178.327 Q6307.57 207.696 6319.58 224.478 Q6331.73 241.116 6352.85 241.116 Q6373.98 241.116 6386.13 224.478 Q6398.28 207.696 6398.28 178.327 Q6398.28 148.958 6386.13 132.32 Q6373.98 115.538 6352.85 115.538 Q6331.73 115.538 6319.58 132.32 Q6307.57 148.958 6307.57 178.327 Z" fill="#000000" fill-rule="evenodd" fill-opacity="1" /><path clip-path="url(#clip230)" d="M 0 0 M6591.42 171.527 L6591.42 184.548 L6469.03 184.548 Q6470.76 212.036 6485.52 226.503 Q6500.42 240.826 6526.9 240.826 Q6542.23 240.826 6556.56 237.065 Q6571.02 233.303 6585.2 225.78 L6585.2 250.954 Q6570.88 257.03 6555.83 260.213 Q6540.79 263.396 6525.31 263.396 Q6486.53 263.396 6463.82 240.826 Q6441.25 218.257 6441.25 179.773 Q6441.25 139.988 6462.66 116.695 Q6484.22 93.2576 6520.68 93.2576 Q6553.37 93.2576 6572.33 114.38 Q6591.42 135.358 6591.42 171.527 M6564.8 163.714 Q6564.51 141.868 6552.5 128.848 Q6540.64 115.827 6520.97 115.827 Q6498.69 115.827 6485.23 128.414 Q6471.92 141 6469.9 163.859 L6564.8 163.714 Z" fill="#000000" fill-rule="evenodd" fill-opacity="1" /><path clip-path="url(#clip230)" d="M 0 0 M6714.69 43.2 L6743.91 43.2 L6743.91 131.741 L6850.1 131.741 L6850.1 43.2 L6879.33 43.2 L6879.33 259.2 L6850.1 259.2 L6850.1 156.336 L6743.91 156.336 L6743.91 259.2 L6714.69 259.2 L6714.69 43.2 Z" fill="#000000" fill-rule="evenodd" fill-opacity="1" /><path clip-path="url(#clip230)" d="M 0 0 M7045.85 171.527 L7045.85 184.548 L6923.45 184.548 Q6925.19 212.036 6939.94 226.503 Q6954.85 240.826 6981.32 240.826 Q6996.66 240.826 7010.98 237.065 Q7025.45 233.303 7039.63 225.78 L7039.63 250.954 Q7025.3 257.03 7010.26 260.213 Q6995.21 263.396 6979.73 263.396 Q6940.96 263.396 6918.24 240.826 Q6895.67 218.257 6895.67 179.773 Q6895.67 139.988 6917.09 116.695 Q6938.64 93.2576 6975.1 93.2576 Q7007.8 93.2576 7026.75 114.38 Q7045.85 135.358 7045.85 171.527 M7019.23 163.714 Q7018.94 141.868 7006.93 128.848 Q6995.07 115.827 6975.39 115.827 Q6953.11 115.827 6939.66 128.414 Q6926.35 141 6924.32 163.859 L7019.23 163.714 M6993.62 22.2221 L7022.41 22.2221 L6975.25 76.62 L6953.11 76.62 L6993.62 22.2221 Z" fill="#000000" fill-rule="evenodd" fill-opacity="1" /><path clip-path="url(#clip230)" d="M 0 0 M7208.46 161.4 L7208.46 259.2 L7181.84 259.2 L7181.84 162.268 Q7181.84 139.264 7172.87 127.835 Q7163.9 116.406 7145.96 116.406 Q7124.41 116.406 7111.96 130.15 Q7099.52 143.894 7099.52 167.621 L7099.52 259.2 L7072.76 259.2 L7072.76 97.1638 L7099.52 97.1638 L7099.52 122.337 Q7109.07 107.725 7121.95 100.491 Q7134.97 93.2576 7151.89 93.2576 Q7179.82 93.2576 7194.14 110.619 Q7208.46 127.835 7208.46 161.4 Z" fill="#000000" fill-rule="evenodd" fill-opacity="1" /><path clip-path="url(#clip230)" d="M 0 0 M7299.17 115.827 Q7277.76 115.827 7265.32 132.609 Q7252.88 149.247 7252.88 178.327 Q7252.88 207.406 7265.17 224.189 Q7277.62 240.826 7299.17 240.826 Q7320.44 240.826 7332.88 224.044 Q7345.32 207.262 7345.32 178.327 Q7345.32 149.536 7332.88 132.754 Q7320.44 115.827 7299.17 115.827 M7299.17 93.2576 Q7333.9 93.2576 7353.72 115.827 Q7373.54 138.396 7373.54 178.327 Q7373.54 218.112 7353.72 240.826 Q7333.9 263.396 7299.17 263.396 Q7264.31 263.396 7244.49 240.826 Q7224.81 218.112 7224.81 178.327 Q7224.81 138.396 7244.49 115.827 Q7264.31 93.2576 7299.17 93.2576 Z" fill="#000000" fill-rule="evenodd" fill-opacity="1" /><path clip-path="url(#clip230)" d="M 0 0 M7536.15 161.4 L7536.15 259.2 L7509.53 259.2 L7509.53 162.268 Q7509.53 139.264 7500.56 127.835 Q7491.59 116.406 7473.65 116.406 Q7452.09 116.406 7439.65 130.15 Q7427.21 143.894 7427.21 167.621 L7427.21 259.2 L7400.45 259.2 L7400.45 97.1638 L7427.21 97.1638 L7427.21 122.337 Q7436.76 107.725 7449.64 100.491 Q7462.66 93.2576 7479.58 93.2576 Q7507.51 93.2576 7521.83 110.619 Q7536.15 127.835 7536.15 161.4 Z" fill="#000000" fill-rule="evenodd" fill-opacity="1" /><path clip-path="url(#clip230)" d="M 0 0 M7550.62 166.174 L7628.6 166.174 L7628.6 189.901 L7550.62 189.901 L7550.62 166.174 Z" fill="#000000" fill-rule="evenodd" fill-opacity="1" /><path clip-path="url(#clip230)" d="M 0 0 M7657.68 43.2 L7686.9 43.2 L7686.9 131.741 L7793.09 131.741 L7793.09 43.2 L7822.32 43.2 L7822.32 259.2 L7793.09 259.2 L7793.09 156.336 L7686.9 156.336 L7686.9 259.2 L7657.68 259.2 L7657.68 43.2 Z" fill="#000000" fill-rule="evenodd" fill-opacity="1" /><path clip-path="url(#clip230)" d="M 0 0 M7988.84 171.527 L7988.84 184.548 L7866.44 184.548 Q7868.18 212.036 7882.94 226.503 Q7897.84 240.826 7924.31 240.826 Q7939.65 240.826 7953.97 237.065 Q7968.44 233.303 7982.62 225.78 L7982.62 250.954 Q7968.3 257.03 7953.25 260.213 Q7938.2 263.396 7922.72 263.396 Q7883.95 263.396 7861.24 240.826 Q7838.67 218.257 7838.67 179.773 Q7838.67 139.988 7860.08 116.695 Q7881.64 93.2576 7918.09 93.2576 Q7950.79 93.2576 7969.74 114.38 Q7988.84 135.358 7988.84 171.527 M7962.22 163.714 Q7961.93 141.868 7949.92 128.848 Q7938.06 115.827 7918.38 115.827 Q7896.1 115.827 7882.65 128.414 Q7869.34 141 7867.31 163.859 L7962.22 163.714 Z" fill="#000000" fill-rule="evenodd" fill-opacity="1" /><path clip-path="url(#clip230)" d="M 0 0 M8016.76 97.1638 L8043.38 97.1638 L8043.38 259.2 L8016.76 259.2 L8016.76 97.1638 M8016.76 34.0855 L8043.38 34.0855 L8043.38 67.7948 L8016.76 67.7948 L8016.76 34.0855 Z" fill="#000000" fill-rule="evenodd" fill-opacity="1" /><path clip-path="url(#clip230)" d="M 0 0 M8071.3 34.0855 L8097.92 34.0855 L8097.92 259.2 L8071.3 259.2 L8071.3 34.0855 Z" fill="#000000" fill-rule="evenodd" fill-opacity="1" /><path clip-path="url(#clip230)" d="M 0 0 M8264.45 171.527 L8264.45 184.548 L8142.05 184.548 Q8143.79 212.036 8158.54 226.503 Q8173.44 240.826 8199.92 240.826 Q8215.26 240.826 8229.58 237.065 Q8244.05 233.303 8258.22 225.78 L8258.22 250.954 Q8243.9 257.03 8228.86 260.213 Q8213.81 263.396 8198.33 263.396 Q8159.56 263.396 8136.84 240.826 Q8114.27 218.257 8114.27 179.773 Q8114.27 139.988 8135.68 116.695 Q8157.24 93.2576 8193.7 93.2576 Q8226.4 93.2576 8245.35 114.38 Q8264.45 135.358 8264.45 171.527 M8237.83 163.714 Q8237.54 141.868 8225.53 128.848 Q8213.66 115.827 8193.99 115.827 Q8171.71 115.827 8158.25 128.414 Q8144.94 141 8142.92 163.859 L8237.83 163.714 Z" fill="#000000" fill-rule="evenodd" fill-opacity="1" /><path clip-path="url(#clip230)" d="M 0 0 M8395.67 101.938 L8395.67 127.112 Q8384.38 121.325 8372.23 118.431 Q8360.08 115.538 8347.06 115.538 Q8327.23 115.538 8317.25 121.614 Q8307.41 127.69 8307.41 139.843 Q8307.41 149.102 8314.5 154.455 Q8321.59 159.663 8343 164.438 L8352.12 166.463 Q8380.48 172.54 8392.34 183.68 Q8404.35 194.675 8404.35 214.495 Q8404.35 237.065 8386.41 250.23 Q8368.61 263.396 8337.36 263.396 Q8324.34 263.396 8310.16 260.791 Q8296.13 258.332 8280.5 253.268 L8280.5 225.78 Q8295.26 233.448 8309.58 237.354 Q8323.91 241.116 8337.94 241.116 Q8356.75 241.116 8366.88 234.75 Q8377 228.24 8377 216.521 Q8377 205.67 8369.62 199.883 Q8362.39 194.096 8337.65 188.743 L8328.39 186.573 Q8303.65 181.365 8292.66 170.659 Q8281.66 159.808 8281.66 141 Q8281.66 118.142 8297.87 105.7 Q8314.07 93.2576 8343.87 93.2576 Q8358.63 93.2576 8371.65 95.4277 Q8384.67 97.5979 8395.67 101.938 Z" fill="#000000" fill-rule="evenodd" fill-opacity="1" /><polyline clip-path="url(#clip232)" style="stroke:#009af9; stroke-width:4; stroke-opacity:1; fill:none" points="
  6127.96,3379.44 6630.68,3382.85 7127.38,3393.25 7612.11,3411.11 8079.14,3437.18 8523.05,3472.44 8938.79,3518.03 9321.82,3575.17 9668.15,3645.1 9974.48,3728.94 
  10238.2,3827.63 10457.5,3941.84 10631.2,4071.86 10759.1,4217.59 10841.7,4378.43 10880.3,4553.26 10876.5,4740.45 10832.8,4937.86 10752.1,5142.83 10637.5,5352.24 
  10492.3,5562.62 10319.9,5770.16 10123.8,5970.84 9907.1,6160.54 9672.87,6335.13 9423.82,6490.62 9162.37,6623.24 8890.55,6729.59 8610.09,6806.71 8322.36,6852.2 
  8028.48,6864.28 7729.33,6841.85 7425.65,6784.51 7118.12,6692.58 6807.4,6567.1 6494.29,6409.76 6179.74,6222.87 5864.99,6009.3 5551.59,5772.33 5241.5,5515.65 
  4937.07,5243.18 4641.09,4959.02 4356.79,4667.33 4087.75,4372.24 3837.87,4077.78 3611.29,3787.76 3412.24,3505.75 3244.91,3234.97 3113.33,2978.29 3021.16,2738.16 
  2971.59,2516.58 2967.15,2315.13 3009.58,2134.93 3099.74,1976.66 3237.51,1840.64 3421.77,1726.81 3650.37,1634.85 3920.16,1564.2 4227.09,1514.16 4566.23,1483.93 
  4931.97,1472.76 5318.11,1479.92 5718.06,1504.81 6124.98,1547 6531.95,1606.24 6932.19,1682.45 7319.16,1775.74 7686.79,1886.32 8029.54,2014.53 8342.6,2160.7 
  8621.94,2325.12 8864.37,2507.93 9067.63,2709.08 9230.39,2928.23 9352.2,3164.67 9433.46,3417.29 9475.37,3684.52 9479.79,3964.29 9449.15,4254.06 9386.33,4550.8 
  9294.48,4851.02 9176.94,5150.81 9037.08,5445.95 8878.21,5731.94 8703.44,6004.17 8515.63,6257.97 8317.35,6488.75 8110.81,6692.17 7897.85,6864.23 7679.97,7001.4 
  7458.34,7100.77 7233.85,7160.1 7007.16,7177.91 6778.77,7153.55 6549.07,7087.19 6318.47,6979.85 6087.41,6833.31 5856.48,6650.1 5626.48,6433.35 5398.47,6186.75 
  5173.81,5914.4 4954.23,5620.69 4741.8,5310.17 4538.96,4987.45 4348.45,4657.07 4173.32,4323.43 4016.8,3990.66 3882.23,3662.59 3772.97,3342.68 3692.23,3033.96 
  3642.98,2739.03 3627.8,2460.07 3648.73,2198.78 3707.18,1956.46 3803.83,1733.99 3938.51,1531.93 4110.2,1350.49 4316.95,1189.67 4555.95,1049.28 4823.51,928.984 
  5115.2,828.427 5425.88,747.245 5749.88,685.134 6081.12,641.893 6413.25,617.452 6739.88,611.89 7054.66,625.429 7351.55,658.419 7624.92,711.307 7869.75,784.597 
  8081.69,878.801 8257.23,994.381 8393.74,1131.69 8489.56,1290.92 8543.97,1472.04 8557.14,1674.73 8530.18,1898.41 8464.92,2142.12 8363.94,2404.56 8230.31,2684.06 
  8067.53,2978.55 7879.38,3285.61 7669.73,3602.48 7442.45,3926.05 7201.25,4252.9 6949.6,4579.39 6690.67,4901.64 6427.21,5215.64 6161.57,5517.33 5895.69,5802.6 
  5631.08,6067.49 5368.86,6308.25 5109.83,6521.39 4854.54,6703.86 4603.29,6853.05 4356.3,6966.94 4113.72,7044.17 3875.76,7084.08 3642.73,7086.71 3415.11,7052.82 
  3193.66,6983.91 2979.41,6882.11 2773.75,6750.18 2578.4,6591.36 2395.47,6409.31 2227.39,6207.98 2076.92,5991.5 1947.05,5764.07 1840.97,5529.78 1761.94,5292.61 
  1713.19,5056.22 1697.83,4823.96 1718.7,4598.75 1778.26,4383.06 1878.49,4178.86 2020.72,3987.64 2205.64,3810.4 2433.15,3647.7 2702.4,3499.71 3011.67,3366.28 
  3358.46,3246.98 3739.45,3141.23 4150.62,3048.38 4587.26,2967.76 5044.07,2898.79 5515.26,2841.07 5994.67,2794.38 6475.88,2758.76 6952.34,2734.52 7417.48,2722.23 
  7864.88,2722.69 8288.41,2736.9 8682.31,2766 9041.39,2811.19 9361.12,2873.62 9637.7,2954.34 9868.2,3054.19 10050.5,3173.73 10183.7,3313.1 10267.4,3472.03 
  10302.4,3649.75 10290.3,3844.95 10233.3,4055.82 10134.4,4279.99 9996.95,4514.6 9824.65,4756.34 9621.44,5001.48 9391.28,5246.02 9138.04,5485.7 8865.44,5716.16 
  8576.89,5933.04 8275.48,6132.07 7963.93,6309.24 7644.56,6460.88 7319.35,6583.76 6989.93,6675.22 6657.68,6733.26 6323.78,6756.53 5989.27,6744.48 5655.19,6697.29 
  5322.65,6615.9 4992.88,6501.99 4667.37,6357.91 4347.89,6186.6 4036.56,5991.52 3735.9,5776.52 3448.8,5545.76 3178.51,5303.55 2928.63,5054.29 2702.99,4802.3 
  2505.56,4551.74 2340.4,4306.51 2211.43,4070.18 2122.36,3845.89 2076.44,3636.3 2076.42,3443.57 2124.34,3269.31 2221.51,3114.64 2368.32,2980.15 2564.26,2865.96 
  2807.82,2771.78 3096.59,2696.98 3427.23,2640.67 3795.58,2601.8 4196.75,2579.21 4625.2,2571.78 5074.92,2578.46 5539.52,2598.35 6012.41,2630.77 6486.93,2675.28 
  6956.48,2731.69 7414.66,2800.07 7855.44,2880.7 8273.21,2974.03 8662.93,3080.63 9020.23,3201.09 9341.43,3335.97 9623.68,3485.69 9864.95,3650.44 10064.1,3830.1 
  10220.6,4024.2 10335,4231.84 10408.4,4451.65 10442.6,4681.77 10439.9,4919.83 10403,5163.04 10335,5408.12 10239.1,5651.45 10118.5,5889.11 9976.59,6116.94 
  9816.37,6330.73 9640.7,6526.25 9452.13,6699.41 9252.9,6846.39 9044.85,6963.73 8829.47,7048.48 8607.93,7098.23 8381.05,7111.24 8149.4,7086.48 7913.35,7023.66 
  7673.12,6923.22 7428.86,6786.33 7180.74,6614.82 6929.03,6411.14 6674.16,6178.26 6416.81,5919.59 6157.97,5638.87 5898.98,5340.07 5641.58,5027.28 5387.94,4704.65 
  5140.62,4376.27 4902.58,4046.08 4677.14,3717.86 4467.85,3395.12 4278.45,3081.09 4112.76,2778.65 3974.49,2490.35 3867.18,2218.36 3793.99,1964.46 3757.58,1730.08 
  3760,1516.27 3802.54,1323.73 3885.66,1152.88 4008.94,1003.82 4171.01,876.438 4369.55,770.447 4601.34,685.428 4862.36,620.9 5147.83,576.374 5452.34,551.403 
  5770.03,545.627 6094.7,558.806 6420.02,590.837 6739.69,641.763 7047.59,711.766 7337.95,801.139 7605.51,910.245 7845.67,1039.47 8054.57,1189.17 8229.17,1359.61 
  8367.3,1550.9 8467.69,1762.92 8529.97,1995.29 8554.6,2247.28 8542.81,2517.8 8496.51,2805.36 8418.14,3108.03 8310.61,3423.46 8177.11,3748.85 8020.98,4081 
  7845.61,4416.32 7654.3,4750.88 7450.19,5080.46 7236.12,5400.67 7014.65,5706.95 6787.97,5994.78 6557.91,6259.72 6325.95,6497.54 6093.23,6704.31 5860.59,6876.57 
  5628.67,7011.43 5397.93,7106.69 5168.73,7160.89 4941.43,7173.35 4716.46,7144.19 4494.34,7074.36 4275.85,6965.61 4062.01,6820.46 3854.15,6642.03 3653.95,6434.01 
  3463.44,6200.48 3285.02,5945.89 3121.43,5674.8 2975.66,5391.86 2850.96,5101.59 2750.66,4808.37 2678.14,4516.27 2636.66,4228.97 2629.24,3949.77 2658.55,3681.44 
  2726.73,3426.32 2835.33,3186.2 2985.14,2962.44 3176.15,2755.92 3407.47,2567.17 3677.3,2396.35 3982.92,2243.39 4320.74,2108.05 4686.33,1989.99 5074.53,1888.85 
  5479.53,1804.36 5895,1736.32 6314.28,1684.72 6730.49,1649.73 7136.69,1631.71 7526.1,1631.23 7892.23,1648.97 8229.08,1685.73 8531.28,1742.34 8794.21,1819.62 
  9014.1,1918.26 9188.16,2038.77 9314.6,2181.39 9392.68,2346.06 9422.62,2532.31 9405.6,2739.25 9343.65,2965.56 9239.55,3209.44 9096.67,3468.63 8918.82,3740.43 
  8710.1,4021.75 8474.73,4309.12 8216.94,4598.78 7940.77,4886.73 7650.04,5168.83 7348.21,5440.87 7038.36,5698.67 6723.13,5938.18 6404.77,6155.56 6085.08,6347.34 
  5765.55,6510.45 5447.34,6642.4 5131.4,6741.25 4818.54,6805.74 4509.5,6835.3 4205.07,6830.1 3906.14,6791.04 3613.81,6719.71 3329.42,6618.35 3054.62,6489.77 
  2791.4,6337.28 2542.11,6164.59 2309.42,5975.67 2096.32,5774.68 1906.05,5565.77 1742.03,5353.07 1607.74,5140.51 1506.63,4931.72 1442.01,4729.98 1416.87,4538.13 
  1433.83,4358.52 1494.96,4192.99 1601.74,4042.82 1754.89,3908.8 1954.41,3791.19 2199.48,3689.81 2488.48,3604.11 2819,3533.2 3187.91,3475.99 3591.36,3431.24 
  4024.91,3397.67 4483.61,3374.07 4962.09,3359.35 5454.62,3352.62 5955.29,3353.27 6458.05,3360.98 6956.82,3375.75 7445.64,3397.88 7918.7,3427.99 8370.5,3466.91 
  8795.89,3515.68 9190.21,3575.45 9549.36,3647.38 9869.88,3732.59 10149,3832.02 10384.6,3946.39 10575.6,4076.08 10721.3,4221.07 10822.2,4380.86 10879.1,4554.49 
  10893.8,4740.46 10868.5,4936.77 10805.8,5140.9 10708.8,5349.88 10580.7,5560.33 10424.9,5768.55 10244.7,5970.6 10043.3,6162.4 9823.74,6339.84 9588.81,6498.92 
  9340.92,6635.82 9082.17,6747.07 8814.31,6829.61 8538.75,6880.92 8256.62,6899.05 7968.78,6882.76 7675.94,6831.47 7378.68,6745.32 7077.57,6625.16 6773.25,6472.51 
  6466.49,6289.51 6158.31,6078.86 5850.01,5843.73 5543.26,5587.65 5240.15,5314.47 4943.19,5028.19 4655.31,4732.94 4379.88,4432.81 4120.58,4131.82 3881.4,3833.84 
  3666.53,3542.48 3480.21,3261.08 3326.55,2992.61 3209.42,2739.66 3132.29,2504.42 3098.08,2288.63 3109.02,2093.62 3166.51,1920.29 3271.01,1769.14 3421.99,1640.32 
  3617.93,1533.66 3856.27,1448.75 4133.52,1385.01 4445.24,1341.74 4786.26,1318.2 5150.71,1313.69 5532.26,1327.6 5924.2,1359.44 6319.68,1408.9 6711.87,1475.83 
  7094.11,1560.28 7460.12,1662.42 7804.09,1782.54 8120.86,1920.96 8406,2078 8655.94,2253.89 8868,2448.66 9040.41,2662.12 9172.33,2893.74 9263.79,3142.62 
  9315.62,3407.42 9329.41,3686.34 9307.36,3977.08 9252.17,4276.86 9166.87,4582.41 9054.76,4890.07 8919.21,5195.75 8763.55,5495.07 8591,5783.46 8404.54,6056.23 
  8206.87,6308.71 8000.36,6536.35 7787.02,6734.89 7568.49,6900.47 7346.09,7029.76 7120.84,7120.06 6893.5,7169.38 6664.66,7176.55 6434.78,7141.21 6204.28,7063.85 
  5973.62,6945.79 5743.36,6789.12 5514.27,6596.63 5287.33,6371.73 5063.85,6118.3 4845.44,5840.62 4634.1,5543.2 4432.16,5230.68 4242.28,4907.7 4067.44,4578.81 
  3910.82,4248.33 3775.75,3920.33 3665.58,3598.5 3583.56,3286.14 3532.74,2986.1 3515.79,2700.8 3534.92,2432.18 3591.69,2181.75 3686.95,1950.58 3820.77,1739.36 
  3992.3,1548.47 4199.83,1377.98 4440.72,1227.78 4711.49,1097.6 5007.81,987.083 5324.67,895.882 5656.45,823.685 5997.08,770.274 6340.18,735.559 6679.24,719.597 
  7007.8,722.596 7319.6,744.897 7608.79,786.958 7870.03,849.312 8098.67,932.509 8290.85,1037.06 8443.65,1163.37 8555.05,1311.71 8624.02,1482.11 8650.46,1674.36 
  8635.2,1887.94 8579.93,2121.98 8487.04,2375.25 8359.52,2646.15 8200.86,2932.7 8014.82,3232.54 7805.36,3542.96 7576.45,3860.91 7331.95,4183.03 7075.53,4505.72 
  6810.52,4825.16 6539.88,5137.37 6266.19,5438.31 5991.54,5723.94 5717.65,5990.3 5445.82,6233.66 5177.01,6450.53 4911.85,6637.75 4650.77,6792.67 4394.04,6913.2 
  4141.87,6997.9 3894.5,7046.01 3652.25,7057.47 3415.59,7032.91 3185.22,6973.65 2962.15,6881.7 2747.71,6759.71 2543.6,6610.83 2351.84,6438.59 2174.8,6246.84 
  2015.21,6039.65 1876.01,5821.14 1760.36,5595.42 1671.5,5366.43 1612.69,5137.84 1587.06,4913.03 1597.49,4694.95 1646.52,4486.1 1736.2,4288.48 1868.03,4103.63 
  2042.82,3932.58 2260.66,3775.9 2520.86,3633.77 2821.92,3506 3161.57,3392.13 3536.71,3291.51 3943.57,3203.4 4377.66,3127.02 4833.93,3061.69 5306.82,3006.83 
  5790.38,2962.09 6278.35,2927.38 6764.34,2902.87 7241.87,2888.99 7704.57,2886.48 8146.28,2896.26 8561.16,2919.46 8943.86,2957.28 9289.61,3010.96 9594.3,3081.66 
  9854.64,3170.37 10068.2,3277.84 10233.4,3404.44 10349.5,3550.19 10416.9,3714.58 10436.6,3896.61 10410.5,4094.74 10341,4306.9 10231.3,4530.49 10084.9,4762.41 
  9905.43,4999.16 9696.79,5236.86 9462.85,5471.38 9207.32,5698.4 8933.72,5913.58 8645.25,6112.61 8344.76,6291.35 8034.74,6445.98 7717.3,6573.09 7394.21,6669.78 
  7066.95,6733.76 6736.75,6763.43 6404.71,6757.9 6071.82,6717.04 5739.11,6641.49 5407.73,6532.63 5078.99,6392.52 4754.5,6223.87 4436.17,6029.91 4126.3,5814.33 
  3827.58,5581.17 3543.09,5334.68 3276.28,5079.22 3030.9,4819.15 2810.92,4558.73 2620.42,4301.99 2463.49,4052.67 2344.04,3814.14 2265.66,3589.3 2231.52,3380.61 
  2244.16,3189.99 2305.39,3018.86 2416.18,2868.11 2576.56,2738.16 2785.61,2628.97 3041.42,2540.16 3341.17,2471.04 3681.08,2420.69 4056.59,2388.06 4462.41,2372.08 
  4892.67,2371.7 5341.08,2386 5801.01,2414.24 6265.71,2455.88 6728.42,2510.63 7182.55,2578.42 7621.8,2659.44 8040.27,2754 8432.62,2862.6 8794.15,2985.75 
  9120.9,3123.94 9409.71,3277.56 9658.25,3446.79 9865.04,3631.55 10029.5,3831.38 10151.7,4045.44 10232.8,4272.41 10274.3,4510.5 10278.4,4757.4 10247.8,5010.35 
  10185.6,5266.12 10095,5521.09 9979.2,5771.33 9841.58,6012.64 9685.28,6240.73 9513.22,6451.26 9328.06,6640 9132.12,6802.93 8927.37,6936.41 8715.38,7037.27 
  8497.4,7102.88 8274.34,7131.28 8046.87,7121.19 7815.39,7072.12 7580.17,6984.32 7341.39,6858.79 7099.25,6697.25 6854.01,6502.03 6606.08,6276.06 6356.11,6022.73 
  6105.03,5745.79 5854.11,5449.25 5605.01,5137.29 5359.78,4814.13 5120.9,4483.97 4891.2,4150.88 4673.86,3818.73 4472.31,3491.15 4290.15,3171.47 4131.09,2862.69 
  3998.78,2567.44 3896.68,2287.99 3827.85,2026.2 3794.89,1783.53 3799.8,1561.1 3843.88,1359.67 3927.63,1179.68 4050.64,1021.3 4211.56,884.428 4408.14,768.815 
  4637.25,674.076 4894.95,599.756 5176.53,545.391 5476.67,510.556 5789.58,494.911 6109.14,498.231 6429.07,520.43 6743.11,561.568 7045.17,621.836 7329.52,701.541 
  7590.93,801.065 7824.8,920.819 8027.25,1061.19 8195.23,1222.49 8326.57,1404.86 8420.02,1608.28 8475.18,1832.41 8492.55,2076.65 8473.35,2340.01 8419.52,2621.14 
  8333.56,2918.27 8218.4,3229.21 8077.28,3551.35 7913.62,3881.68 7730.87,4216.8 7532.39,4552.96 7321.38,4886.15 7100.78,5212.08 6873.18,5526.37 6640.85,5824.54 
  6405.65,6102.18 6169.09,6355.03 5932.33,6579.09 5696.24,6770.78 5461.44,6926.99 5228.36,7045.25 4997.34,7123.74 4768.66,7161.4 4542.67,7157.98 4319.85,7114.03 
  4100.84,7030.92 3886.56,6910.75 3678.24,6756.32 3477.41,6570.97 3286,6358.57 3106.3,6123.35 2940.93,5869.75 2792.8,5602.33 2665.09,5325.61 2561.11,5043.99 
  2484.24,4761.6 2437.79,4482.28 2424.87,4209.41 2448.26,3945.97 2510.31,3694.42 2612.78,3456.74 2756.73,3234.41 2942.44,3028.46 3169.35,2839.49 3436,2667.78 
  3740.04,2513.29 4078.21,2375.79 4446.44,2254.93 4839.85,2150.31 5252.91,2061.59 5679.52,1988.52 6113.15,1930.98 6547.01,1889.09 6974.18,1863.15 7387.78,1853.65 
  7781.17,1861.28 8148.07,1886.86 8482.73,1931.29 8780.06,1995.49 9035.81,2080.27 9246.63,2186.32 9410.16,2314.06 9525.02,2463.65 9590.85,2634.83 9608.25,2826.96 
  9578.76,3038.91 9504.73,3269.08 9389.15,3515.38 9235.57,3775.26 9047.91,4045.74 8830.31,4323.42 8587,4604.57 8322.1,4885.2 8039.58,5161.14 7743.09,5428.1 
  7435.94,5681.83 7121.03,5918.14 6800.85,6133.11 6477.46,6323.1 6152.58,6484.93 5827.59,6615.91 5503.61,6713.95 5181.6,6777.63 4862.42,6806.25 4546.94,6799.86 
  4236.11,6759.23 3931.07,6685.86 3633.16,6581.92 3344.04,6450.15 3065.71,6293.86 2800.52,6116.76 2551.16,5922.83 2320.65,5716.26 2112.3,5501.32 1929.6,5282.2 
  1776.16,5062.96 1655.57,4847.35 1571.28,4638.8 1526.5,4440.29 1524.04,4254.34 1566.18,4082.93 1654.58,3927.5 1790.19,3788.96 1973.17,3667.72 2202.85,3563.7 
  2477.73,3476.42 2795.5,3405.07 3153.06,3348.59 3546.57,3305.75 3971.58,3275.27 4423.08,3255.89 4895.61,3246.47 5383.38,3246.04 5880.35,3253.9 6380.38,3269.61 
  6877.32,3293.06 7365.09,3324.44 7837.82,3364.22 8289.96,3413.12 8716.33,3472.05 9112.27,3542.02 9473.67,3624.1 9797.07,3719.27 10079.7,3828.4 10319.7,3952.08 
  10515.6,4090.61 10667.2,4243.89 10774.7,4411.38 10839,4592.05 10862,4784.36 10845.8,4986.26 10793,5195.22 10706.6,5408.25 10589.9,5621.96 10446.1,5832.65 
  10278.6,6036.37 10090.4,6229.07 9884.52,6406.66 9663.69,6565.17 9430.25,6700.81 9186.22,6810.13 8933.27,6890.13 8672.74,6938.33 8405.64,6952.87 8132.78,6932.53 
  7854.72,6876.79 7571.95,6785.85 7284.9,6660.59 6994.02,6502.58 6699.94,6313.99 6403.46,6097.51 6105.69,5856.32 5808.08,5593.94 5512.46,5314.19 5221.12,5021.05 
  4936.76,4718.59 4662.52,4410.85 4401.91,4101.83 4158.76,3795.33 3937.12,3494.93 3741.14,3203.94 3574.93,2925.32 3442.44,2661.69 3347.33,2415.28 3292.75,2187.91 
  3281.22,1980.99 3314.43,1795.49 3393.22,1632.03 3517.49,1490.86 3686.16,1371.96 3897.16,1275.04 4147.4,1199.61 4432.84,1145.06 4748.65,1110.73 5089.31,1095.97 
  5448.73,1100.2 5820.42,1122.96 6197.63,1163.93 6573.61,1222.96 6941.7,1300.05 7295.55,1395.37 7629.26,1509.19 7937.51,1641.84 8215.71,1793.64 8460.09,1964.85 
  8667.75,2155.58 8836.68,2365.72 8965.82,2594.87 9054.98,2842.27 9104.84,3106.74 9116.79,3386.67 9092.92,3679.96 9035.79,3984.05 8948.39,4295.88 8833.96,4611.94 
  8695.85,4928.35 8537.43,5240.84 8361.93,5544.94 8172.41,5835.98 7971.62,6109.22 7762,6360.03 7545.65,6583.95 7324.3,6776.89 7099.34,6935.18 6871.85,7055.72 
  6642.68,7136.12 6412.44,7174.71 6181.64,7170.68 5950.74,7124.04 5720.21,7035.64 5490.64,6907.16 5262.78,6741.03 5037.62,6540.34 4816.44,6308.77 4600.85,6050.43 
  4392.81,5769.75 4194.65,5471.37 4009.01,5160 3838.84,4840.28 3687.32,4516.7 3557.77,4193.5 3453.54,3874.58 3377.94,3563.47 3334.03,3263.25 3324.56,2976.53 
  3351.75,2705.45 3417.23,2451.68 3521.91,2216.45 3665.9,2000.59 3848.46,1804.55 4067.89,1628.5 4321.59,1472.36 4606.1,1335.91 4917.11,1218.81 5249.58,1120.73 
  5597.84,1041.36 5955.74,980.491 6316.79,938.044 6674.35,914.088 7021.77,908.856 7352.61,922.725 7660.77,956.195 7940.69,1009.84 8187.47,1084.28 8396.99,1180.07 
  
  "/>
</svg>
