<?xml version="1.0" encoding="utf-8"?>
<svg xmlns="http://www.w3.org/2000/svg" xmlns:xlink="http://www.w3.org/1999/xlink" width="600" height="400" viewBox="0 0 2400 1600">
<defs>
  <clipPath id="clip930">
    <rect x="0" y="0" width="2400" height="1600"/>
  </clipPath>
</defs>
<path clip-path="url(#clip930)" d="
M0 1600 L2400 1600 L2400 0 L0 0  Z
  " fill="#ffffff" fill-rule="evenodd" fill-opacity="1"/>
<defs>
  <clipPath id="clip931">
    <rect x="480" y="0" width="1681" height="1600"/>
  </clipPath>
</defs>
<path clip-path="url(#clip930)" d="
M185.846 1482.13 L2352.76 1482.13 L2352.76 149.392 L185.846 149.392  Z
  " fill="#ffffff" fill-rule="evenodd" fill-opacity="1"/>
<defs>
  <clipPath id="clip932">
    <rect x="185" y="149" width="2168" height="1334"/>
  </clipPath>
</defs>
<polyline clip-path="url(#clip932)" style="stroke:#000000; stroke-width:2; stroke-opacity:0.1; fill:none" points="
  677.543,1482.13 677.543,149.392 
  "/>
<polyline clip-path="url(#clip932)" style="stroke:#000000; stroke-width:2; stroke-opacity:0.1; fill:none" points="
  1215.5,1482.13 1215.5,149.392 
  "/>
<polyline clip-path="url(#clip932)" style="stroke:#000000; stroke-width:2; stroke-opacity:0.1; fill:none" points="
  1753.47,1482.13 1753.47,149.392 
  "/>
<polyline clip-path="url(#clip932)" style="stroke:#000000; stroke-width:2; stroke-opacity:0.1; fill:none" points="
  2291.43,1482.13 2291.43,149.392 
  "/>
<polyline clip-path="url(#clip930)" style="stroke:#000000; stroke-width:4; stroke-opacity:1; fill:none" points="
  185.846,1482.13 2352.76,1482.13 
  "/>
<polyline clip-path="url(#clip930)" style="stroke:#000000; stroke-width:4; stroke-opacity:1; fill:none" points="
  677.543,1482.13 677.543,1466.14 
  "/>
<polyline clip-path="url(#clip930)" style="stroke:#000000; stroke-width:4; stroke-opacity:1; fill:none" points="
  1215.5,1482.13 1215.5,1466.14 
  "/>
<polyline clip-path="url(#clip930)" style="stroke:#000000; stroke-width:4; stroke-opacity:1; fill:none" points="
  1753.47,1482.13 1753.47,1466.14 
  "/>
<polyline clip-path="url(#clip930)" style="stroke:#000000; stroke-width:4; stroke-opacity:1; fill:none" points="
  2291.43,1482.13 2291.43,1466.14 
  "/>
<path clip-path="url(#clip930)" d="M 0 0 M666.605 1509.1 L687.256 1509.1 L687.256 1513.53 L671.423 1513.53 L671.423 1523.06 Q672.569 1522.67 673.715 1522.49 Q674.861 1522.28 676.006 1522.28 Q682.517 1522.28 686.319 1525.85 Q690.121 1529.42 690.121 1535.51 Q690.121 1541.79 686.215 1545.28 Q682.308 1548.74 675.199 1548.74 Q672.751 1548.74 670.199 1548.32 Q667.673 1547.91 664.965 1547.07 L664.965 1541.79 Q667.309 1543.06 669.809 1543.69 Q672.309 1544.31 675.095 1544.31 Q679.6 1544.31 682.23 1541.94 Q684.861 1539.57 684.861 1535.51 Q684.861 1531.45 682.23 1529.08 Q679.6 1526.71 675.095 1526.71 Q672.986 1526.71 670.876 1527.18 Q668.793 1527.65 666.605 1528.64 L666.605 1509.1 Z" fill="#bebebe" fill-rule="evenodd" fill-opacity="1" /><path clip-path="url(#clip930)" d="M 0 0 M1189.49 1543.56 L1198.08 1543.56 L1198.08 1513.9 L1188.73 1515.77 L1188.73 1510.98 L1198.03 1509.1 L1203.29 1509.1 L1203.29 1543.56 L1211.88 1543.56 L1211.88 1547.98 L1189.49 1547.98 L1189.49 1543.56 Z" fill="#bebebe" fill-rule="evenodd" fill-opacity="1" /><path clip-path="url(#clip930)" d="M 0 0 M1228.84 1512.57 Q1224.78 1512.57 1222.72 1516.58 Q1220.69 1520.56 1220.69 1528.58 Q1220.69 1536.58 1222.72 1540.59 Q1224.78 1544.57 1228.84 1544.57 Q1232.93 1544.57 1234.96 1540.59 Q1237.01 1536.58 1237.01 1528.58 Q1237.01 1520.56 1234.96 1516.58 Q1232.93 1512.57 1228.84 1512.57 M1228.84 1508.4 Q1235.37 1508.4 1238.81 1513.58 Q1242.28 1518.74 1242.28 1528.58 Q1242.28 1538.4 1238.81 1543.58 Q1235.37 1548.74 1228.84 1548.74 Q1222.3 1548.74 1218.84 1543.58 Q1215.4 1538.4 1215.4 1528.58 Q1215.4 1518.74 1218.84 1513.58 Q1222.3 1508.4 1228.84 1508.4 Z" fill="#bebebe" fill-rule="evenodd" fill-opacity="1" /><path clip-path="url(#clip930)" d="M 0 0 M1728.01 1543.56 L1736.6 1543.56 L1736.6 1513.9 L1727.26 1515.77 L1727.26 1510.98 L1736.55 1509.1 L1741.81 1509.1 L1741.81 1543.56 L1750.41 1543.56 L1750.41 1547.98 L1728.01 1547.98 L1728.01 1543.56 Z" fill="#bebebe" fill-rule="evenodd" fill-opacity="1" /><path clip-path="url(#clip930)" d="M 0 0 M1756.16 1509.1 L1776.81 1509.1 L1776.81 1513.53 L1760.98 1513.53 L1760.98 1523.06 Q1762.13 1522.67 1763.27 1522.49 Q1764.42 1522.28 1765.56 1522.28 Q1772.07 1522.28 1775.88 1525.85 Q1779.68 1529.42 1779.68 1535.51 Q1779.68 1541.79 1775.77 1545.28 Q1771.86 1548.74 1764.76 1548.74 Q1762.31 1548.74 1759.76 1548.32 Q1757.23 1547.91 1754.52 1547.07 L1754.52 1541.79 Q1756.86 1543.06 1759.36 1543.69 Q1761.86 1544.31 1764.65 1544.31 Q1769.16 1544.31 1771.79 1541.94 Q1774.42 1539.57 1774.42 1535.51 Q1774.42 1531.45 1771.79 1529.08 Q1769.16 1526.71 1764.65 1526.71 Q1762.54 1526.71 1760.43 1527.18 Q1758.35 1527.65 1756.16 1528.64 L1756.16 1509.1 Z" fill="#bebebe" fill-rule="evenodd" fill-opacity="1" /><path clip-path="url(#clip930)" d="M 0 0 M2270.22 1543.56 L2288.58 1543.56 L2288.58 1547.98 L2263.89 1547.98 L2263.89 1543.56 Q2266.88 1540.46 2272.04 1535.25 Q2277.22 1530.02 2278.55 1528.5 Q2281.08 1525.67 2282.07 1523.71 Q2283.08 1521.73 2283.08 1519.83 Q2283.08 1516.73 2280.89 1514.78 Q2278.73 1512.83 2275.24 1512.83 Q2272.77 1512.83 2270.01 1513.69 Q2267.27 1514.55 2264.15 1516.29 L2264.15 1510.98 Q2267.33 1509.7 2270.09 1509.05 Q2272.85 1508.4 2275.14 1508.4 Q2281.18 1508.4 2284.77 1511.42 Q2288.37 1514.44 2288.37 1519.49 Q2288.37 1521.89 2287.46 1524.05 Q2286.57 1526.19 2284.2 1529.1 Q2283.55 1529.86 2280.06 1533.48 Q2276.57 1537.07 2270.22 1543.56 Z" fill="#bebebe" fill-rule="evenodd" fill-opacity="1" /><path clip-path="url(#clip930)" d="M 0 0 M2305.53 1512.57 Q2301.47 1512.57 2299.41 1516.58 Q2297.38 1520.56 2297.38 1528.58 Q2297.38 1536.58 2299.41 1540.59 Q2301.47 1544.57 2305.53 1544.57 Q2309.62 1544.57 2311.65 1540.59 Q2313.71 1536.58 2313.71 1528.58 Q2313.71 1520.56 2311.65 1516.58 Q2309.62 1512.57 2305.53 1512.57 M2305.53 1508.4 Q2312.07 1508.4 2315.5 1513.58 Q2318.97 1518.74 2318.97 1528.58 Q2318.97 1538.4 2315.5 1543.58 Q2312.07 1548.74 2305.53 1548.74 Q2298.99 1548.74 2295.53 1543.58 Q2292.09 1538.4 2292.09 1528.58 Q2292.09 1518.74 2295.53 1513.58 Q2298.99 1508.4 2305.53 1508.4 Z" fill="#bebebe" fill-rule="evenodd" fill-opacity="1" /><polyline clip-path="url(#clip932)" style="stroke:#000000; stroke-width:2; stroke-opacity:0.1; fill:none" points="
  185.846,1449.82 2352.76,1449.82 
  "/>
<polyline clip-path="url(#clip932)" style="stroke:#000000; stroke-width:2; stroke-opacity:0.1; fill:none" points="
  185.846,1130.77 2352.76,1130.77 
  "/>
<polyline clip-path="url(#clip932)" style="stroke:#000000; stroke-width:2; stroke-opacity:0.1; fill:none" points="
  185.846,811.715 2352.76,811.715 
  "/>
<polyline clip-path="url(#clip932)" style="stroke:#000000; stroke-width:2; stroke-opacity:0.1; fill:none" points="
  185.846,492.664 2352.76,492.664 
  "/>
<polyline clip-path="url(#clip932)" style="stroke:#000000; stroke-width:2; stroke-opacity:0.1; fill:none" points="
  185.846,173.613 2352.76,173.613 
  "/>
<polyline clip-path="url(#clip930)" style="stroke:#000000; stroke-width:4; stroke-opacity:1; fill:none" points="
  185.846,1482.13 185.846,149.392 
  "/>
<polyline clip-path="url(#clip930)" style="stroke:#000000; stroke-width:4; stroke-opacity:1; fill:none" points="
  185.846,1449.82 211.849,1449.82 
  "/>
<polyline clip-path="url(#clip930)" style="stroke:#000000; stroke-width:4; stroke-opacity:1; fill:none" points="
  185.846,1130.77 211.849,1130.77 
  "/>
<polyline clip-path="url(#clip930)" style="stroke:#000000; stroke-width:4; stroke-opacity:1; fill:none" points="
  185.846,811.715 211.849,811.715 
  "/>
<polyline clip-path="url(#clip930)" style="stroke:#000000; stroke-width:4; stroke-opacity:1; fill:none" points="
  185.846,492.664 211.849,492.664 
  "/>
<polyline clip-path="url(#clip930)" style="stroke:#000000; stroke-width:4; stroke-opacity:1; fill:none" points="
  185.846,173.613 211.849,173.613 
  "/>
<path clip-path="url(#clip930)" d="M 0 0 M64.4296 1433.84 Q60.3671 1433.84 58.3098 1437.85 Q56.2786 1441.84 56.2786 1449.86 Q56.2786 1457.85 58.3098 1461.86 Q60.3671 1465.85 64.4296 1465.85 Q68.5181 1465.85 70.5493 1461.86 Q72.6066 1457.85 72.6066 1449.86 Q72.6066 1441.84 70.5493 1437.85 Q68.5181 1433.84 64.4296 1433.84 M64.4296 1429.68 Q70.966 1429.68 74.4035 1434.86 Q77.867 1440.01 77.867 1449.86 Q77.867 1459.67 74.4035 1464.86 Q70.966 1470.01 64.4296 1470.01 Q57.8931 1470.01 54.4296 1464.86 Q50.9921 1459.67 50.9921 1449.86 Q50.9921 1440.01 54.4296 1434.86 Q57.8931 1429.68 64.4296 1429.68 Z" fill="#bebebe" fill-rule="evenodd" fill-opacity="1" /><path clip-path="url(#clip930)" d="M 0 0 M83.5701 1462.64 L89.0648 1462.64 L89.0648 1469.26 L83.5701 1469.26 L83.5701 1462.64 Z" fill="#bebebe" fill-rule="evenodd" fill-opacity="1" /><path clip-path="url(#clip930)" d="M 0 0 M106.018 1433.84 Q101.955 1433.84 99.8981 1437.85 Q97.8669 1441.84 97.8669 1449.86 Q97.8669 1457.85 99.8981 1461.86 Q101.955 1465.85 106.018 1465.85 Q110.106 1465.85 112.138 1461.86 Q114.195 1457.85 114.195 1449.86 Q114.195 1441.84 112.138 1437.85 Q110.106 1433.84 106.018 1433.84 M106.018 1429.68 Q112.554 1429.68 115.992 1434.86 Q119.455 1440.01 119.455 1449.86 Q119.455 1459.67 115.992 1464.86 Q112.554 1470.01 106.018 1470.01 Q99.4814 1470.01 96.0179 1464.86 Q92.5804 1459.67 92.5804 1449.86 Q92.5804 1440.01 96.0179 1434.86 Q99.4814 1429.68 106.018 1429.68 Z" fill="#bebebe" fill-rule="evenodd" fill-opacity="1" /><path clip-path="url(#clip930)" d="M 0 0 M136.408 1433.84 Q132.346 1433.84 130.289 1437.85 Q128.257 1441.84 128.257 1449.86 Q128.257 1457.85 130.289 1461.86 Q132.346 1465.85 136.408 1465.85 Q140.497 1465.85 142.528 1461.86 Q144.585 1457.85 144.585 1449.86 Q144.585 1441.84 142.528 1437.85 Q140.497 1433.84 136.408 1433.84 M136.408 1429.68 Q142.945 1429.68 146.382 1434.86 Q149.846 1440.01 149.846 1449.86 Q149.846 1459.67 146.382 1464.86 Q142.945 1470.01 136.408 1470.01 Q129.872 1470.01 126.408 1464.86 Q122.971 1459.67 122.971 1449.86 Q122.971 1440.01 126.408 1434.86 Q129.872 1429.68 136.408 1429.68 Z" fill="#bebebe" fill-rule="evenodd" fill-opacity="1" /><path clip-path="url(#clip930)" d="M 0 0 M67.3462 1114.79 Q63.2837 1114.79 61.2264 1118.8 Q59.1952 1122.79 59.1952 1130.81 Q59.1952 1138.8 61.2264 1142.81 Q63.2837 1146.8 67.3462 1146.8 Q71.4347 1146.8 73.466 1142.81 Q75.5232 1138.8 75.5232 1130.81 Q75.5232 1122.79 73.466 1118.8 Q71.4347 1114.79 67.3462 1114.79 M67.3462 1110.62 Q73.8826 1110.62 77.3201 1115.81 Q80.7836 1120.96 80.7836 1130.81 Q80.7836 1140.62 77.3201 1145.81 Q73.8826 1150.96 67.3462 1150.96 Q60.8098 1150.96 57.3463 1145.81 Q53.9088 1140.62 53.9088 1130.81 Q53.9088 1120.96 57.3463 1115.81 Q60.8098 1110.62 67.3462 1110.62 Z" fill="#bebebe" fill-rule="evenodd" fill-opacity="1" /><path clip-path="url(#clip930)" d="M 0 0 M86.4867 1143.59 L91.9815 1143.59 L91.9815 1150.21 L86.4867 1150.21 L86.4867 1143.59 Z" fill="#bebebe" fill-rule="evenodd" fill-opacity="1" /><path clip-path="url(#clip930)" d="M 0 0 M102.216 1145.78 L120.575 1145.78 L120.575 1150.21 L95.8877 1150.21 L95.8877 1145.78 Q98.8825 1142.68 104.039 1137.47 Q109.221 1132.24 110.549 1130.73 Q113.075 1127.89 114.065 1125.94 Q115.08 1123.96 115.08 1122.06 Q115.08 1118.96 112.893 1117 Q110.731 1115.05 107.242 1115.05 Q104.768 1115.05 102.007 1115.91 Q99.2731 1116.77 96.1481 1118.51 L96.1481 1113.2 Q99.3252 1111.93 102.086 1111.27 Q104.846 1110.62 107.138 1110.62 Q113.179 1110.62 116.773 1113.64 Q120.367 1116.67 120.367 1121.72 Q120.367 1124.11 119.455 1126.27 Q118.57 1128.41 116.2 1131.33 Q115.549 1132.08 112.06 1135.7 Q108.57 1139.3 102.216 1145.78 Z" fill="#bebebe" fill-rule="evenodd" fill-opacity="1" /><path clip-path="url(#clip930)" d="M 0 0 M126.33 1111.33 L146.981 1111.33 L146.981 1115.75 L131.148 1115.75 L131.148 1125.29 Q132.294 1124.89 133.44 1124.71 Q134.585 1124.5 135.731 1124.5 Q142.242 1124.5 146.044 1128.07 Q149.846 1131.64 149.846 1137.73 Q149.846 1144.01 145.94 1147.5 Q142.033 1150.96 134.924 1150.96 Q132.476 1150.96 129.924 1150.55 Q127.398 1150.13 124.69 1149.3 L124.69 1144.01 Q127.033 1145.28 129.533 1145.91 Q132.033 1146.53 134.82 1146.53 Q139.325 1146.53 141.955 1144.17 Q144.585 1141.8 144.585 1137.73 Q144.585 1133.67 141.955 1131.3 Q139.325 1128.93 134.82 1128.93 Q132.71 1128.93 130.601 1129.4 Q128.518 1129.87 126.33 1130.86 L126.33 1111.33 Z" fill="#bebebe" fill-rule="evenodd" fill-opacity="1" /><path clip-path="url(#clip930)" d="M 0 0 M65.5493 795.739 Q61.4869 795.739 59.4296 799.749 Q57.3983 803.734 57.3983 811.755 Q57.3983 819.749 59.4296 823.76 Q61.4869 827.744 65.5493 827.744 Q69.6379 827.744 71.6691 823.76 Q73.7264 819.749 73.7264 811.755 Q73.7264 803.734 71.6691 799.749 Q69.6379 795.739 65.5493 795.739 M65.5493 791.572 Q72.0858 791.572 75.5232 796.755 Q78.9868 801.911 78.9868 811.755 Q78.9868 821.572 75.5232 826.754 Q72.0858 831.911 65.5493 831.911 Q59.0129 831.911 55.5494 826.754 Q52.1119 821.572 52.1119 811.755 Q52.1119 801.911 55.5494 796.755 Q59.0129 791.572 65.5493 791.572 Z" fill="#bebebe" fill-rule="evenodd" fill-opacity="1" /><path clip-path="url(#clip930)" d="M 0 0 M84.6899 824.541 L90.1846 824.541 L90.1846 831.155 L84.6899 831.155 L84.6899 824.541 Z" fill="#bebebe" fill-rule="evenodd" fill-opacity="1" /><path clip-path="url(#clip930)" d="M 0 0 M95.9398 792.275 L116.591 792.275 L116.591 796.703 L100.757 796.703 L100.757 806.234 Q101.903 805.843 103.049 805.661 Q104.195 805.453 105.341 805.453 Q111.851 805.453 115.653 809.02 Q119.455 812.588 119.455 818.682 Q119.455 824.958 115.549 828.447 Q111.643 831.911 104.534 831.911 Q102.086 831.911 99.5335 831.494 Q97.0075 831.077 94.2992 830.244 L94.2992 824.958 Q96.6429 826.234 99.1429 826.859 Q101.643 827.484 104.429 827.484 Q108.935 827.484 111.565 825.114 Q114.195 822.744 114.195 818.682 Q114.195 814.619 111.565 812.249 Q108.935 809.88 104.429 809.88 Q102.32 809.88 100.211 810.348 Q98.1273 810.817 95.9398 811.807 L95.9398 792.275 Z" fill="#bebebe" fill-rule="evenodd" fill-opacity="1" /><path clip-path="url(#clip930)" d="M 0 0 M136.408 795.739 Q132.346 795.739 130.289 799.749 Q128.257 803.734 128.257 811.755 Q128.257 819.749 130.289 823.76 Q132.346 827.744 136.408 827.744 Q140.497 827.744 142.528 823.76 Q144.585 819.749 144.585 811.755 Q144.585 803.734 142.528 799.749 Q140.497 795.739 136.408 795.739 M136.408 791.572 Q142.945 791.572 146.382 796.755 Q149.846 801.911 149.846 811.755 Q149.846 821.572 146.382 826.754 Q142.945 831.911 136.408 831.911 Q129.872 831.911 126.408 826.754 Q122.971 821.572 122.971 811.755 Q122.971 801.911 126.408 796.755 Q129.872 791.572 136.408 791.572 Z" fill="#bebebe" fill-rule="evenodd" fill-opacity="1" /><path clip-path="url(#clip930)" d="M 0 0 M66.565 476.688 Q62.5025 476.688 60.4452 480.698 Q58.414 484.682 58.414 492.703 Q58.414 500.698 60.4452 504.708 Q62.5025 508.693 66.565 508.693 Q70.6535 508.693 72.6847 504.708 Q74.742 500.698 74.742 492.703 Q74.742 484.682 72.6847 480.698 Q70.6535 476.688 66.565 476.688 M66.565 472.521 Q73.1014 472.521 76.5389 477.703 Q80.0024 482.86 80.0024 492.703 Q80.0024 502.521 76.5389 507.703 Q73.1014 512.859 66.565 512.859 Q60.0285 512.859 56.565 507.703 Q53.1275 502.521 53.1275 492.703 Q53.1275 482.86 56.565 477.703 Q60.0285 472.521 66.565 472.521 Z" fill="#bebebe" fill-rule="evenodd" fill-opacity="1" /><path clip-path="url(#clip930)" d="M 0 0 M85.7055 505.49 L91.2002 505.49 L91.2002 512.104 L85.7055 512.104 L85.7055 505.49 Z" fill="#bebebe" fill-rule="evenodd" fill-opacity="1" /><path clip-path="url(#clip930)" d="M 0 0 M95.5752 473.224 L120.575 473.224 L120.575 475.464 L106.461 512.104 L100.966 512.104 L114.247 477.651 L95.5752 477.651 L95.5752 473.224 Z" fill="#bebebe" fill-rule="evenodd" fill-opacity="1" /><path clip-path="url(#clip930)" d="M 0 0 M126.33 473.224 L146.981 473.224 L146.981 477.651 L131.148 477.651 L131.148 487.182 Q132.294 486.792 133.44 486.609 Q134.585 486.401 135.731 486.401 Q142.242 486.401 146.044 489.969 Q149.846 493.537 149.846 499.63 Q149.846 505.906 145.94 509.396 Q142.033 512.859 134.924 512.859 Q132.476 512.859 129.924 512.443 Q127.398 512.026 124.69 511.193 L124.69 505.906 Q127.033 507.182 129.533 507.807 Q132.033 508.432 134.82 508.432 Q139.325 508.432 141.955 506.063 Q144.585 503.693 144.585 499.63 Q144.585 495.568 141.955 493.198 Q139.325 490.828 134.82 490.828 Q132.71 490.828 130.601 491.297 Q128.518 491.766 126.33 492.755 L126.33 473.224 Z" fill="#bebebe" fill-rule="evenodd" fill-opacity="1" /><path clip-path="url(#clip930)" d="M 0 0 M55.4713 188.626 L64.065 188.626 L64.065 158.964 L54.7161 160.839 L54.7161 156.048 L64.0129 154.173 L69.2733 154.173 L69.2733 188.626 L77.867 188.626 L77.867 193.053 L55.4713 193.053 L55.4713 188.626 Z" fill="#bebebe" fill-rule="evenodd" fill-opacity="1" /><path clip-path="url(#clip930)" d="M 0 0 M83.5701 186.438 L89.0648 186.438 L89.0648 193.053 L83.5701 193.053 L83.5701 186.438 Z" fill="#bebebe" fill-rule="evenodd" fill-opacity="1" /><path clip-path="url(#clip930)" d="M 0 0 M106.018 157.636 Q101.955 157.636 99.8981 161.647 Q97.8669 165.631 97.8669 173.652 Q97.8669 181.647 99.8981 185.657 Q101.955 189.641 106.018 189.641 Q110.106 189.641 112.138 185.657 Q114.195 181.647 114.195 173.652 Q114.195 165.631 112.138 161.647 Q110.106 157.636 106.018 157.636 M106.018 153.47 Q112.554 153.47 115.992 158.652 Q119.455 163.808 119.455 173.652 Q119.455 183.47 115.992 188.652 Q112.554 193.808 106.018 193.808 Q99.4814 193.808 96.0179 188.652 Q92.5804 183.47 92.5804 173.652 Q92.5804 163.808 96.0179 158.652 Q99.4814 153.47 106.018 153.47 Z" fill="#bebebe" fill-rule="evenodd" fill-opacity="1" /><path clip-path="url(#clip930)" d="M 0 0 M136.408 157.636 Q132.346 157.636 130.289 161.647 Q128.257 165.631 128.257 173.652 Q128.257 181.647 130.289 185.657 Q132.346 189.641 136.408 189.641 Q140.497 189.641 142.528 185.657 Q144.585 181.647 144.585 173.652 Q144.585 165.631 142.528 161.647 Q140.497 157.636 136.408 157.636 M136.408 153.47 Q142.945 153.47 146.382 158.652 Q149.846 163.808 149.846 173.652 Q149.846 183.47 146.382 188.652 Q142.945 193.808 136.408 193.808 Q129.872 193.808 126.408 188.652 Q122.971 183.47 122.971 173.652 Q122.971 163.808 126.408 158.652 Q129.872 153.47 136.408 153.47 Z" fill="#bebebe" fill-rule="evenodd" fill-opacity="1" /><path clip-path="url(#clip930)" d="M 0 0 M963.429 20.1156 L963.429 31.516 Q956.774 28.3332 950.871 26.7707 Q944.968 25.2082 939.47 25.2082 Q929.922 25.2082 924.714 28.9119 Q919.563 32.6156 919.563 39.4442 Q919.563 45.1734 922.977 48.1247 Q926.45 51.0182 936.056 52.8122 L943.116 54.259 Q956.195 56.7474 962.387 63.0552 Q968.637 69.3052 968.637 79.8375 Q968.637 92.3953 960.188 98.8768 Q951.797 105.358 935.535 105.358 Q929.401 105.358 922.457 103.969 Q915.57 102.58 908.163 99.8606 L908.163 87.8236 Q915.281 91.8166 922.109 93.8421 Q928.938 95.8675 935.535 95.8675 Q945.547 95.8675 950.987 91.9324 Q956.426 87.9972 956.426 80.7056 Q956.426 74.3399 952.491 70.7519 Q948.614 67.164 939.702 65.37 L932.584 63.9811 Q919.505 61.377 913.66 55.8215 Q907.816 50.2659 907.816 40.3702 Q907.816 28.9119 915.859 22.3147 Q923.961 15.7175 938.139 15.7175 Q944.216 15.7175 950.524 16.817 Q956.831 17.9166 963.429 20.1156 Z" fill="#bebebe" fill-rule="evenodd" fill-opacity="1" /><path clip-path="url(#clip930)" d="M 0 0 M1035.25 68.6107 L1035.25 73.819 L986.287 73.819 Q986.982 84.8144 992.884 90.6014 Q998.845 96.3305 1009.44 96.3305 Q1015.57 96.3305 1021.3 94.8259 Q1027.09 93.3213 1032.76 90.312 L1032.76 100.381 Q1027.03 102.812 1021.01 104.085 Q1014.99 105.358 1008.8 105.358 Q993.29 105.358 984.204 96.3305 Q975.176 87.3028 975.176 71.9093 Q975.176 55.9951 983.741 46.678 Q992.364 37.303 1006.95 37.303 Q1020.03 37.303 1027.61 45.7521 Q1035.25 54.1432 1035.25 68.6107 M1024.6 65.4858 Q1024.48 56.7474 1019.68 51.5391 Q1014.93 46.3308 1007.06 46.3308 Q998.151 46.3308 992.769 51.3655 Q987.445 56.4002 986.635 65.5436 L1024.6 65.4858 Z" fill="#bebebe" fill-rule="evenodd" fill-opacity="1" /><path clip-path="url(#clip930)" d="M 0 0 M1083.97 48.8192 Q1082.18 47.7775 1080.04 47.3146 Q1077.95 46.7937 1075.41 46.7937 Q1066.38 46.7937 1061.52 52.6965 Q1056.72 58.5414 1056.72 69.5367 L1056.72 103.68 L1046.01 103.68 L1046.01 38.8655 L1056.72 38.8655 L1056.72 48.9349 Q1060.07 43.0322 1065.45 40.1965 Q1070.84 37.303 1078.53 37.303 Q1079.63 37.303 1080.96 37.4767 Q1082.29 37.5924 1083.91 37.8817 L1083.97 48.8192 Z" fill="#bebebe" fill-rule="evenodd" fill-opacity="1" /><path clip-path="url(#clip930)" d="M 0 0 M1095.14 38.8655 L1105.79 38.8655 L1105.79 103.68 L1095.14 103.68 L1095.14 38.8655 M1095.14 13.6342 L1105.79 13.6342 L1105.79 27.1179 L1095.14 27.1179 L1095.14 13.6342 Z" fill="#bebebe" fill-rule="evenodd" fill-opacity="1" /><path clip-path="url(#clip930)" d="M 0 0 M1172.4 68.6107 L1172.4 73.819 L1123.44 73.819 Q1124.13 84.8144 1130.04 90.6014 Q1136 96.3305 1146.59 96.3305 Q1152.72 96.3305 1158.45 94.8259 Q1164.24 93.3213 1169.91 90.312 L1169.91 100.381 Q1164.18 102.812 1158.16 104.085 Q1152.14 105.358 1145.95 105.358 Q1130.44 105.358 1121.36 96.3305 Q1112.33 87.3028 1112.33 71.9093 Q1112.33 55.9951 1120.89 46.678 Q1129.52 37.303 1144.1 37.303 Q1157.18 37.303 1164.76 45.7521 Q1172.4 54.1432 1172.4 68.6107 M1161.75 65.4858 Q1161.63 56.7474 1156.83 51.5391 Q1152.09 46.3308 1144.21 46.3308 Q1135.3 46.3308 1129.92 51.3655 Q1124.6 56.4002 1123.79 65.5436 L1161.75 65.4858 Z" fill="#bebebe" fill-rule="evenodd" fill-opacity="1" /><path clip-path="url(#clip930)" d="M 0 0 M1231.31 17.28 L1231.31 49.3979 L1221.47 49.3979 L1221.47 17.28 L1231.31 17.28 Z" fill="#bebebe" fill-rule="evenodd" fill-opacity="1" /><path clip-path="url(#clip930)" d="M 0 0 M1283.8 40.7752 L1283.8 50.8446 Q1279.28 48.5298 1274.42 47.3724 Q1269.56 46.215 1264.35 46.215 Q1256.42 46.215 1252.43 48.6456 Q1248.5 51.0761 1248.5 55.9372 Q1248.5 59.6409 1251.33 61.7821 Q1254.17 63.8654 1262.73 65.7751 L1266.38 66.5853 Q1277.72 69.0158 1282.47 73.4718 Q1287.27 77.87 1287.27 85.7982 Q1287.27 94.8259 1280.09 100.092 Q1272.98 105.358 1260.48 105.358 Q1255.27 105.358 1249.6 104.317 Q1243.98 103.333 1237.73 101.307 L1237.73 90.312 Q1243.64 93.3791 1249.36 94.9416 Q1255.09 96.4462 1260.71 96.4462 Q1268.23 96.4462 1272.28 93.9 Q1276.33 91.2958 1276.33 86.6083 Q1276.33 82.2681 1273.38 79.9533 Q1270.49 77.6385 1260.59 75.4973 L1256.89 74.6292 Q1246.99 72.5459 1242.59 68.2635 Q1238.2 63.9233 1238.2 56.4002 Q1238.2 47.2567 1244.68 42.2799 Q1251.16 37.303 1263.08 37.303 Q1268.98 37.303 1274.19 38.1711 Q1279.4 39.0391 1283.8 40.7752 Z" fill="#bebebe" fill-rule="evenodd" fill-opacity="1" /><path clip-path="url(#clip930)" d="M 0 0 M1345.08 41.3539 L1345.08 51.3076 Q1340.57 48.8192 1336 47.6039 Q1331.48 46.3308 1326.85 46.3308 Q1316.49 46.3308 1310.76 52.928 Q1305.04 59.4673 1305.04 71.3306 Q1305.04 83.194 1310.76 89.7912 Q1316.49 96.3305 1326.85 96.3305 Q1331.48 96.3305 1336 95.1152 Q1340.57 93.8421 1345.08 91.3537 L1345.08 101.192 Q1340.63 103.275 1335.82 104.317 Q1331.08 105.358 1325.7 105.358 Q1311.05 105.358 1302.43 96.1569 Q1293.81 86.9556 1293.81 71.3306 Q1293.81 55.4742 1302.49 46.3886 Q1311.23 37.303 1326.39 37.303 Q1331.31 37.303 1336 38.3447 Q1340.68 39.3285 1345.08 41.3539 Z" fill="#bebebe" fill-rule="evenodd" fill-opacity="1" /><path clip-path="url(#clip930)" d="M 0 0 M1385.71 71.0992 Q1372.8 71.0992 1367.82 74.0505 Q1362.85 77.0019 1362.85 84.1199 Q1362.85 89.7912 1366.55 93.1476 Q1370.31 96.4462 1376.74 96.4462 Q1385.59 96.4462 1390.91 90.1963 Q1396.3 83.8884 1396.3 73.4718 L1396.3 71.0992 L1385.71 71.0992 M1406.94 66.701 L1406.94 103.68 L1396.3 103.68 L1396.3 93.8421 Q1392.65 99.7448 1387.21 102.58 Q1381.77 105.358 1373.9 105.358 Q1363.95 105.358 1358.04 99.8027 Q1352.2 94.1893 1352.2 84.8144 Q1352.2 73.8769 1359.49 68.3214 Q1366.84 62.7659 1381.37 62.7659 L1396.3 62.7659 L1396.3 61.7242 Q1396.3 54.3747 1391.44 50.3817 Q1386.63 46.3308 1377.89 46.3308 Q1372.34 46.3308 1367.07 47.6618 Q1361.81 48.9928 1356.95 51.6548 L1356.95 41.8169 Q1362.79 39.56 1368.29 38.4604 Q1373.79 37.303 1378.99 37.303 Q1393.06 37.303 1400 44.5947 Q1406.94 51.8863 1406.94 66.701 Z" fill="#bebebe" fill-rule="evenodd" fill-opacity="1" /><path clip-path="url(#clip930)" d="M 0 0 M1428.65 20.4629 L1428.65 38.8655 L1450.58 38.8655 L1450.58 47.141 L1428.65 47.141 L1428.65 82.3259 Q1428.65 90.2541 1430.79 92.5111 Q1432.99 94.768 1439.64 94.768 L1450.58 94.768 L1450.58 103.68 L1439.64 103.68 Q1427.32 103.68 1422.63 99.1083 Q1417.94 94.4787 1417.94 82.3259 L1417.94 47.141 L1410.13 47.141 L1410.13 38.8655 L1417.94 38.8655 L1417.94 20.4629 L1428.65 20.4629 Z" fill="#bebebe" fill-rule="evenodd" fill-opacity="1" /><path clip-path="url(#clip930)" d="M 0 0 M1472.28 20.4629 L1472.28 38.8655 L1494.21 38.8655 L1494.21 47.141 L1472.28 47.141 L1472.28 82.3259 Q1472.28 90.2541 1474.42 92.5111 Q1476.62 94.768 1483.28 94.768 L1494.21 94.768 L1494.21 103.68 L1483.28 103.68 Q1470.95 103.68 1466.26 99.1083 Q1461.57 94.4787 1461.57 82.3259 L1461.57 47.141 L1453.76 47.141 L1453.76 38.8655 L1461.57 38.8655 L1461.57 20.4629 L1472.28 20.4629 Z" fill="#bebebe" fill-rule="evenodd" fill-opacity="1" /><path clip-path="url(#clip930)" d="M 0 0 M1560.82 68.6107 L1560.82 73.819 L1511.86 73.819 Q1512.56 84.8144 1518.46 90.6014 Q1524.42 96.3305 1535.01 96.3305 Q1541.15 96.3305 1546.87 94.8259 Q1552.66 93.3213 1558.33 90.312 L1558.33 100.381 Q1552.6 102.812 1546.59 104.085 Q1540.57 105.358 1534.37 105.358 Q1518.87 105.358 1509.78 96.3305 Q1500.75 87.3028 1500.75 71.9093 Q1500.75 55.9951 1509.32 46.678 Q1517.94 37.303 1532.52 37.303 Q1545.6 37.303 1553.18 45.7521 Q1560.82 54.1432 1560.82 68.6107 M1550.17 65.4858 Q1550.06 56.7474 1545.25 51.5391 Q1540.51 46.3308 1532.64 46.3308 Q1523.73 46.3308 1518.34 51.3655 Q1513.02 56.4002 1512.21 65.5436 L1550.17 65.4858 Z" fill="#bebebe" fill-rule="evenodd" fill-opacity="1" /><path clip-path="url(#clip930)" d="M 0 0 M1609.55 48.8192 Q1607.75 47.7775 1605.61 47.3146 Q1603.53 46.7937 1600.98 46.7937 Q1591.96 46.7937 1587.09 52.6965 Q1582.29 58.5414 1582.29 69.5367 L1582.29 103.68 L1571.59 103.68 L1571.59 38.8655 L1582.29 38.8655 L1582.29 48.9349 Q1585.65 43.0322 1591.03 40.1965 Q1596.41 37.303 1604.11 37.303 Q1605.21 37.303 1606.54 37.4767 Q1607.87 37.5924 1609.49 37.8817 L1609.55 48.8192 Z" fill="#bebebe" fill-rule="evenodd" fill-opacity="1" /><path clip-path="url(#clip930)" d="M 0 0 M1630.79 17.28 L1630.79 49.3979 L1620.95 49.3979 L1620.95 17.28 L1630.79 17.28 Z" fill="#bebebe" fill-rule="evenodd" fill-opacity="1" /><path clip-path="url(#clip932)" d="M247.173 555.941 L244.353 564.053 L235.761 564.233 L242.613 569.429 L240.117 577.649 L247.173 572.741 L254.229 577.649 L251.733 569.429 L258.585 564.233 L249.993 564.053 L247.173 555.941 Z" fill="#ffa500" fill-rule="evenodd" fill-opacity="0.5" stroke="#ff0000" stroke-opacity="0.5" stroke-width="3.2"/>
<path clip-path="url(#clip932)" d="M354.766 857.442 L351.946 865.554 L343.354 865.734 L350.206 870.93 L347.71 879.15 L354.766 874.242 L361.822 879.15 L359.326 870.93 L366.178 865.734 L357.586 865.554 L354.766 857.442 Z" fill="#ffa500" fill-rule="evenodd" fill-opacity="0.5" stroke="#ff0000" stroke-opacity="0.5" stroke-width="3.2"/>
<path clip-path="url(#clip932)" d="M462.358 371.741 L459.538 379.853 L450.946 380.033 L457.798 385.229 L455.302 393.449 L462.358 388.541 L469.414 393.449 L466.918 385.229 L473.77 380.033 L465.178 379.853 L462.358 371.741 Z" fill="#ffa500" fill-rule="evenodd" fill-opacity="0.5" stroke="#ff0000" stroke-opacity="0.5" stroke-width="3.2"/>
<path clip-path="url(#clip932)" d="M569.95 586.575 L567.13 594.687 L558.538 594.867 L565.39 600.063 L562.894 608.283 L569.95 603.375 L577.006 608.283 L574.51 600.063 L581.362 594.867 L572.77 594.687 L569.95 586.575 Z" fill="#ffa500" fill-rule="evenodd" fill-opacity="0.5" stroke="#ff0000" stroke-opacity="0.5" stroke-width="3.2"/>
<path clip-path="url(#clip932)" d="M677.543 495.154 L674.723 503.266 L666.131 503.446 L672.983 508.642 L670.487 516.862 L677.543 511.954 L684.599 516.862 L682.103 508.642 L688.955 503.446 L680.363 503.266 L677.543 495.154 Z" fill="#ffa500" fill-rule="evenodd" fill-opacity="0.5" stroke="#ff0000" stroke-opacity="0.5" stroke-width="3.2"/>
<path clip-path="url(#clip932)" d="M785.135 1266.9 L782.315 1275.01 L773.723 1275.19 L780.575 1280.38 L778.079 1288.6 L785.135 1283.7 L792.191 1288.6 L789.695 1280.38 L796.547 1275.19 L787.955 1275.01 L785.135 1266.9 Z" fill="#ffa500" fill-rule="evenodd" fill-opacity="0.5" stroke="#ff0000" stroke-opacity="0.5" stroke-width="3.2"/>
<path clip-path="url(#clip932)" d="M892.728 500.233 L889.908 508.345 L881.316 508.525 L888.168 513.721 L885.672 521.941 L892.728 517.033 L899.784 521.941 L897.288 513.721 L904.14 508.525 L895.548 508.345 L892.728 500.233 Z" fill="#ffa500" fill-rule="evenodd" fill-opacity="0.5" stroke="#ff0000" stroke-opacity="0.5" stroke-width="3.2"/>
<path clip-path="url(#clip932)" d="M1000.32 981.202 L997.5 989.314 L988.908 989.494 L995.76 994.69 L993.264 1002.91 L1000.32 998.002 L1007.38 1002.91 L1004.88 994.69 L1011.73 989.494 L1003.14 989.314 L1000.32 981.202 Z" fill="#ffa500" fill-rule="evenodd" fill-opacity="0.5" stroke="#ff0000" stroke-opacity="0.5" stroke-width="3.2"/>
<path clip-path="url(#clip932)" d="M1107.91 328.258 L1105.09 336.37 L1096.5 336.55 L1103.35 341.746 L1100.86 349.966 L1107.91 345.058 L1114.97 349.966 L1112.47 341.746 L1119.32 336.55 L1110.73 336.37 L1107.91 328.258 Z" fill="#ffa500" fill-rule="evenodd" fill-opacity="0.5" stroke="#ff0000" stroke-opacity="0.5" stroke-width="3.2"/>
<path clip-path="url(#clip932)" d="M1215.5 1215.39 L1212.68 1223.5 L1204.09 1223.68 L1210.94 1228.88 L1208.45 1237.1 L1215.5 1232.19 L1222.56 1237.1 L1220.06 1228.88 L1226.92 1223.68 L1218.32 1223.5 L1215.5 1215.39 Z" fill="#ffa500" fill-rule="evenodd" fill-opacity="0.5" stroke="#ff0000" stroke-opacity="0.5" stroke-width="3.2"/>
<path clip-path="url(#clip932)" d="M1323.1 263.345 L1320.28 271.457 L1311.69 271.637 L1318.54 276.833 L1316.04 285.053 L1323.1 280.145 L1330.15 285.053 L1327.66 276.833 L1334.51 271.637 L1325.92 271.457 L1323.1 263.345 Z" fill="#ffa500" fill-rule="evenodd" fill-opacity="0.5" stroke="#ff0000" stroke-opacity="0.5" stroke-width="3.2"/>
<path clip-path="url(#clip932)" d="M1430.69 540.282 L1427.87 548.394 L1419.28 548.574 L1426.13 553.77 L1423.63 561.99 L1430.69 557.082 L1437.75 561.99 L1435.25 553.77 L1442.1 548.574 L1433.51 548.394 L1430.69 540.282 Z" fill="#ffa500" fill-rule="evenodd" fill-opacity="0.5" stroke="#ff0000" stroke-opacity="0.5" stroke-width="3.2"/>
<path clip-path="url(#clip932)" d="M1538.28 1021.69 L1535.46 1029.81 L1526.87 1029.99 L1533.72 1035.18 L1531.23 1043.4 L1538.28 1038.49 L1545.34 1043.4 L1542.84 1035.18 L1549.69 1029.99 L1541.1 1029.81 L1538.28 1021.69 Z" fill="#ffa500" fill-rule="evenodd" fill-opacity="0.5" stroke="#ff0000" stroke-opacity="0.5" stroke-width="3.2"/>
<path clip-path="url(#clip932)" d="M1645.87 596.714 L1643.05 604.826 L1634.46 605.006 L1641.31 610.202 L1638.82 618.422 L1645.87 613.514 L1652.93 618.422 L1650.43 610.202 L1657.29 605.006 L1648.69 604.826 L1645.87 596.714 Z" fill="#ffa500" fill-rule="evenodd" fill-opacity="0.5" stroke="#ff0000" stroke-opacity="0.5" stroke-width="3.2"/>
<path clip-path="url(#clip932)" d="M1753.47 175.111 L1750.65 183.223 L1742.05 183.403 L1748.91 188.599 L1746.41 196.819 L1753.47 191.911 L1760.52 196.819 L1758.03 188.599 L1764.88 183.403 L1756.29 183.223 L1753.47 175.111 Z" fill="#ffa500" fill-rule="evenodd" fill-opacity="0.5" stroke="#ff0000" stroke-opacity="0.5" stroke-width="3.2"/>
<path clip-path="url(#clip932)" d="M1861.06 1068.46 L1858.24 1076.57 L1849.65 1076.75 L1856.5 1081.95 L1854 1090.17 L1861.06 1085.26 L1868.11 1090.17 L1865.62 1081.95 L1872.47 1076.75 L1863.88 1076.57 L1861.06 1068.46 Z" fill="#ffa500" fill-rule="evenodd" fill-opacity="0.5" stroke="#ff0000" stroke-opacity="0.5" stroke-width="3.2"/>
<path clip-path="url(#clip932)" d="M1968.65 195.726 L1965.83 203.838 L1957.24 204.018 L1964.09 209.214 L1961.6 217.434 L1968.65 212.526 L1975.71 217.434 L1973.21 209.214 L1980.06 204.018 L1971.47 203.838 L1968.65 195.726 Z" fill="#ffa500" fill-rule="evenodd" fill-opacity="0.5" stroke="#ff0000" stroke-opacity="0.5" stroke-width="3.2"/>
<path clip-path="url(#clip932)" d="M2076.24 915.918 L2073.42 924.03 L2064.83 924.21 L2071.68 929.406 L2069.19 937.626 L2076.24 932.718 L2083.3 937.626 L2080.8 929.406 L2087.66 924.21 L2079.06 924.03 L2076.24 915.918 Z" fill="#ffa500" fill-rule="evenodd" fill-opacity="0.5" stroke="#ff0000" stroke-opacity="0.5" stroke-width="3.2"/>
<path clip-path="url(#clip932)" d="M2183.84 396.984 L2181.02 405.096 L2172.42 405.276 L2179.28 410.472 L2176.78 418.692 L2183.84 413.784 L2190.89 418.692 L2188.4 410.472 L2195.25 405.276 L2186.66 405.096 L2183.84 396.984 Z" fill="#ffa500" fill-rule="evenodd" fill-opacity="0.5" stroke="#ff0000" stroke-opacity="0.5" stroke-width="3.2"/>
<path clip-path="url(#clip932)" d="M2291.43 759.202 L2288.61 767.314 L2280.02 767.494 L2286.87 772.69 L2284.37 780.91 L2291.43 776.002 L2298.48 780.91 L2295.99 772.69 L2302.84 767.494 L2294.25 767.314 L2291.43 759.202 Z" fill="#ffa500" fill-rule="evenodd" fill-opacity="0.5" stroke="#ff0000" stroke-opacity="0.5" stroke-width="3.2"/>
<path clip-path="url(#clip932)" d="M247.173 364.217 L219.173 392.217 L247.173 420.217 L275.173 392.217 L247.173 364.217 Z" fill="#008000" fill-rule="evenodd" fill-opacity="1" stroke="#ff0000" stroke-opacity="1" stroke-width="3.2"/>
<path clip-path="url(#clip932)" d="M354.766 314.515 L326.766 342.515 L354.766 370.515 L382.766 342.515 L354.766 314.515 Z" fill="#008000" fill-rule="evenodd" fill-opacity="1" stroke="#ff0000" stroke-opacity="1" stroke-width="3.2"/>
<path clip-path="url(#clip932)" d="M462.358 937.087 L434.358 965.087 L462.358 993.087 L490.358 965.087 L462.358 937.087 Z" fill="#008000" fill-rule="evenodd" fill-opacity="1" stroke="#ff0000" stroke-opacity="1" stroke-width="3.2"/>
<path clip-path="url(#clip932)" d="M569.95 213.741 L541.95 241.741 L569.95 269.741 L597.95 241.741 L569.95 213.741 Z" fill="#008000" fill-rule="evenodd" fill-opacity="1" stroke="#ff0000" stroke-opacity="1" stroke-width="3.2"/>
<path clip-path="url(#clip932)" d="M677.543 925.999 L649.543 953.999 L677.543 981.999 L705.543 953.999 L677.543 925.999 Z" fill="#008000" fill-rule="evenodd" fill-opacity="1" stroke="#ff0000" stroke-opacity="1" stroke-width="3.2"/>
<path clip-path="url(#clip932)" d="M785.135 368.435 L757.135 396.435 L785.135 424.435 L813.135 396.435 L785.135 368.435 Z" fill="#008000" fill-rule="evenodd" fill-opacity="1" stroke="#ff0000" stroke-opacity="1" stroke-width="3.2"/>
<path clip-path="url(#clip932)" d="M892.728 827.65 L864.728 855.65 L892.728 883.65 L920.728 855.65 L892.728 827.65 Z" fill="#008000" fill-rule="evenodd" fill-opacity="1" stroke="#ff0000" stroke-opacity="1" stroke-width="3.2"/>
<path clip-path="url(#clip932)" d="M1000.32 799.22 L972.32 827.22 L1000.32 855.22 L1028.32 827.22 L1000.32 799.22 Z" fill="#008000" fill-rule="evenodd" fill-opacity="1" stroke="#ff0000" stroke-opacity="1" stroke-width="3.2"/>
<path clip-path="url(#clip932)" d="M1107.91 1216.93 L1079.91 1244.93 L1107.91 1272.93 L1135.91 1244.93 L1107.91 1216.93 Z" fill="#008000" fill-rule="evenodd" fill-opacity="1" stroke="#ff0000" stroke-opacity="1" stroke-width="3.2"/>
<path clip-path="url(#clip932)" d="M1215.5 544.373 L1187.5 572.373 L1215.5 600.373 L1243.5 572.373 L1215.5 544.373 Z" fill="#008000" fill-rule="evenodd" fill-opacity="1" stroke="#ff0000" stroke-opacity="1" stroke-width="3.2"/>
<path clip-path="url(#clip932)" d="M1323.1 311.269 L1295.1 339.269 L1323.1 367.269 L1351.1 339.269 L1323.1 311.269 Z" fill="#008000" fill-rule="evenodd" fill-opacity="1" stroke="#ff0000" stroke-opacity="1" stroke-width="3.2"/>
<path clip-path="url(#clip932)" d="M1430.69 1066.59 L1402.69 1094.59 L1430.69 1122.59 L1458.69 1094.59 L1430.69 1066.59 Z" fill="#008000" fill-rule="evenodd" fill-opacity="1" stroke="#ff0000" stroke-opacity="1" stroke-width="3.2"/>
<path clip-path="url(#clip932)" d="M1538.28 1386.43 L1510.28 1414.43 L1538.28 1442.43 L1566.28 1414.43 L1538.28 1386.43 Z" fill="#008000" fill-rule="evenodd" fill-opacity="1" stroke="#ff0000" stroke-opacity="1" stroke-width="3.2"/>
<path clip-path="url(#clip932)" d="M1645.87 159.323 L1617.87 187.323 L1645.87 215.323 L1673.87 187.323 L1645.87 159.323 Z" fill="#008000" fill-rule="evenodd" fill-opacity="1" stroke="#ff0000" stroke-opacity="1" stroke-width="3.2"/>
<path clip-path="url(#clip932)" d="M1753.47 188.27 L1725.47 216.27 L1753.47 244.27 L1781.47 216.27 L1753.47 188.27 Z" fill="#008000" fill-rule="evenodd" fill-opacity="1" stroke="#ff0000" stroke-opacity="1" stroke-width="3.2"/>
<path clip-path="url(#clip932)" d="M1861.06 1333.96 L1833.06 1361.96 L1861.06 1389.96 L1889.06 1361.96 L1861.06 1333.96 Z" fill="#008000" fill-rule="evenodd" fill-opacity="1" stroke="#ff0000" stroke-opacity="1" stroke-width="3.2"/>
<path clip-path="url(#clip932)" d="M1968.65 877.483 L1940.65 905.483 L1968.65 933.483 L1996.65 905.483 L1968.65 877.483 Z" fill="#008000" fill-rule="evenodd" fill-opacity="1" stroke="#ff0000" stroke-opacity="1" stroke-width="3.2"/>
<path clip-path="url(#clip932)" d="M2076.24 440.416 L2048.24 468.416 L2076.24 496.416 L2104.24 468.416 L2076.24 440.416 Z" fill="#008000" fill-rule="evenodd" fill-opacity="1" stroke="#ff0000" stroke-opacity="1" stroke-width="3.2"/>
<path clip-path="url(#clip932)" d="M2183.84 1024.46 L2155.84 1052.46 L2183.84 1080.46 L2211.84 1052.46 L2183.84 1024.46 Z" fill="#008000" fill-rule="evenodd" fill-opacity="1" stroke="#ff0000" stroke-opacity="1" stroke-width="3.2"/>
<path clip-path="url(#clip932)" d="M2291.43 206.801 L2263.43 234.801 L2291.43 262.801 L2319.43 234.801 L2291.43 206.801 Z" fill="#008000" fill-rule="evenodd" fill-opacity="1" stroke="#ff0000" stroke-opacity="1" stroke-width="3.2"/>
<path clip-path="url(#clip932)" d="M208.773 1138.08 L266.373 1171.68 L266.373 1104.48 L208.773 1138.08 Z" fill="#00008b" fill-rule="evenodd" fill-opacity="0.2" stroke="#ff0000" stroke-opacity="0.2" stroke-width="3.2"/>
<path clip-path="url(#clip932)" d="M316.366 1169.49 L373.966 1203.09 L373.966 1135.89 L316.366 1169.49 Z" fill="#00008b" fill-rule="evenodd" fill-opacity="0.2" stroke="#ff0000" stroke-opacity="0.2" stroke-width="3.2"/>
<path clip-path="url(#clip932)" d="M423.958 1025.32 L481.558 1058.92 L481.558 991.72 L423.958 1025.32 Z" fill="#00008b" fill-rule="evenodd" fill-opacity="0.2" stroke="#ff0000" stroke-opacity="0.2" stroke-width="3.2"/>
<path clip-path="url(#clip932)" d="M531.55 728.955 L589.15 762.555 L589.15 695.355 L531.55 728.955 Z" fill="#00008b" fill-rule="evenodd" fill-opacity="0.2" stroke="#ff0000" stroke-opacity="0.2" stroke-width="3.2"/>
<path clip-path="url(#clip932)" d="M639.143 658.029 L696.743 691.629 L696.743 624.429 L639.143 658.029 Z" fill="#00008b" fill-rule="evenodd" fill-opacity="0.2" stroke="#ff0000" stroke-opacity="0.2" stroke-width="3.2"/>
<path clip-path="url(#clip932)" d="M746.735 709.036 L804.335 742.636 L804.335 675.436 L746.735 709.036 Z" fill="#00008b" fill-rule="evenodd" fill-opacity="0.2" stroke="#ff0000" stroke-opacity="0.2" stroke-width="3.2"/>
<path clip-path="url(#clip932)" d="M854.328 1040.9 L911.928 1074.5 L911.928 1007.3 L854.328 1040.9 Z" fill="#00008b" fill-rule="evenodd" fill-opacity="0.2" stroke="#ff0000" stroke-opacity="0.2" stroke-width="3.2"/>
<path clip-path="url(#clip932)" d="M961.92 562.337 L1019.52 595.937 L1019.52 528.737 L961.92 562.337 Z" fill="#00008b" fill-rule="evenodd" fill-opacity="0.2" stroke="#ff0000" stroke-opacity="0.2" stroke-width="3.2"/>
<path clip-path="url(#clip932)" d="M1069.51 793.769 L1127.11 827.369 L1127.11 760.169 L1069.51 793.769 Z" fill="#00008b" fill-rule="evenodd" fill-opacity="0.2" stroke="#ff0000" stroke-opacity="0.2" stroke-width="3.2"/>
<path clip-path="url(#clip932)" d="M1177.1 1152.9 L1234.7 1186.5 L1234.7 1119.3 L1177.1 1152.9 Z" fill="#00008b" fill-rule="evenodd" fill-opacity="0.2" stroke="#ff0000" stroke-opacity="0.2" stroke-width="3.2"/>
<path clip-path="url(#clip932)" d="M1284.7 1046.89 L1342.3 1080.49 L1342.3 1013.29 L1284.7 1046.89 Z" fill="#00008b" fill-rule="evenodd" fill-opacity="0.2" stroke="#ff0000" stroke-opacity="0.2" stroke-width="3.2"/>
<path clip-path="url(#clip932)" d="M1392.29 966.296 L1449.89 999.896 L1449.89 932.696 L1392.29 966.296 Z" fill="#00008b" fill-rule="evenodd" fill-opacity="0.2" stroke="#ff0000" stroke-opacity="0.2" stroke-width="3.2"/>
<path clip-path="url(#clip932)" d="M1499.88 291.817 L1557.48 325.417 L1557.48 258.217 L1499.88 291.817 Z" fill="#00008b" fill-rule="evenodd" fill-opacity="0.2" stroke="#ff0000" stroke-opacity="0.2" stroke-width="3.2"/>
<path clip-path="url(#clip932)" d="M1607.47 1444.41 L1665.07 1478.01 L1665.07 1410.81 L1607.47 1444.41 Z" fill="#00008b" fill-rule="evenodd" fill-opacity="0.2" stroke="#ff0000" stroke-opacity="0.2" stroke-width="3.2"/>
<path clip-path="url(#clip932)" d="M1715.07 283.157 L1772.67 316.757 L1772.67 249.557 L1715.07 283.157 Z" fill="#00008b" fill-rule="evenodd" fill-opacity="0.2" stroke="#ff0000" stroke-opacity="0.2" stroke-width="3.2"/>
<path clip-path="url(#clip932)" d="M1822.66 1134.8 L1880.26 1168.4 L1880.26 1101.2 L1822.66 1134.8 Z" fill="#00008b" fill-rule="evenodd" fill-opacity="0.2" stroke="#ff0000" stroke-opacity="0.2" stroke-width="3.2"/>
<path clip-path="url(#clip932)" d="M1930.25 270.255 L1987.85 303.855 L1987.85 236.655 L1930.25 270.255 Z" fill="#00008b" fill-rule="evenodd" fill-opacity="0.2" stroke="#ff0000" stroke-opacity="0.2" stroke-width="3.2"/>
<path clip-path="url(#clip932)" d="M2037.84 856.717 L2095.44 890.317 L2095.44 823.117 L2037.84 856.717 Z" fill="#00008b" fill-rule="evenodd" fill-opacity="0.2" stroke="#ff0000" stroke-opacity="0.2" stroke-width="3.2"/>
<path clip-path="url(#clip932)" d="M2145.44 507.105 L2203.04 540.705 L2203.04 473.505 L2145.44 507.105 Z" fill="#00008b" fill-rule="evenodd" fill-opacity="0.2" stroke="#ff0000" stroke-opacity="0.2" stroke-width="3.2"/>
<path clip-path="url(#clip932)" d="M2253.03 1187.06 L2310.63 1220.66 L2310.63 1153.46 L2253.03 1187.06 Z" fill="#00008b" fill-rule="evenodd" fill-opacity="0.2" stroke="#ff0000" stroke-opacity="0.2" stroke-width="3.2"/>
<path clip-path="url(#clip930)" d="
M1988.16 435.737 L2280.53 435.737 L2280.53 193.817 L1988.16 193.817  Z
  " fill="#ffffff" fill-rule="evenodd" fill-opacity="1"/>
<polyline clip-path="url(#clip930)" style="stroke:#000000; stroke-width:4; stroke-opacity:1; fill:none" points="
  1988.16,435.737 2280.53,435.737 2280.53,193.817 1988.16,193.817 1988.16,435.737 
  "/>
<path clip-path="url(#clip930)" d="M2084.47 228.697 L2078.45 246.002 L2060.12 246.386 L2074.74 257.471 L2069.42 275.007 L2084.47 264.537 L2099.52 275.007 L2094.2 257.471 L2108.81 246.386 L2090.48 246.002 L2084.47 228.697 Z" fill="#ffa500" fill-rule="evenodd" fill-opacity="0.5" stroke="#ff0000" stroke-opacity="0.5" stroke-width="6.82667"/>
<path clip-path="url(#clip930)" d="M 0 0 M2194.62 273.984 Q2192.81 278.614 2191.1 280.026 Q2189.39 281.438 2186.52 281.438 L2183.11 281.438 L2183.11 277.873 L2185.61 277.873 Q2187.37 277.873 2188.34 277.04 Q2189.32 276.206 2190.5 273.104 L2191.26 271.16 L2180.78 245.651 L2185.29 245.651 L2193.39 265.929 L2201.49 245.651 L2206.01 245.651 L2194.62 273.984 Z" fill="#bebebe" fill-rule="evenodd" fill-opacity="1" /><path clip-path="url(#clip930)" d="M 0 0 M2211.89 267.641 L2219.52 267.641 L2219.52 241.276 L2211.21 242.943 L2211.21 238.683 L2219.48 237.017 L2224.15 237.017 L2224.15 267.641 L2231.79 267.641 L2231.79 271.577 L2211.89 271.577 L2211.89 267.641 Z" fill="#bebebe" fill-rule="evenodd" fill-opacity="1" /><path clip-path="url(#clip930)" d="M2084.47 289.177 L2058.87 314.777 L2084.47 340.377 L2110.07 314.777 L2084.47 289.177 Z" fill="#008000" fill-rule="evenodd" fill-opacity="1" stroke="#ff0000" stroke-opacity="1" stroke-width="2.92571"/>
<path clip-path="url(#clip930)" d="M 0 0 M2194.62 334.464 Q2192.81 339.094 2191.1 340.506 Q2189.39 341.918 2186.52 341.918 L2183.11 341.918 L2183.11 338.353 L2185.61 338.353 Q2187.37 338.353 2188.34 337.52 Q2189.32 336.686 2190.5 333.584 L2191.26 331.64 L2180.78 306.131 L2185.29 306.131 L2193.39 326.409 L2201.49 306.131 L2206.01 306.131 L2194.62 334.464 Z" fill="#bebebe" fill-rule="evenodd" fill-opacity="1" /><path clip-path="url(#clip930)" d="M 0 0 M2215.1 328.121 L2231.42 328.121 L2231.42 332.057 L2209.48 332.057 L2209.48 328.121 Q2212.14 325.367 2216.72 320.737 Q2221.33 316.085 2222.51 314.742 Q2224.76 312.219 2225.64 310.483 Q2226.54 308.723 2226.54 307.034 Q2226.54 304.279 2224.59 302.543 Q2222.67 300.807 2219.57 300.807 Q2217.37 300.807 2214.92 301.571 Q2212.49 302.335 2209.71 303.886 L2209.71 299.163 Q2212.53 298.029 2214.99 297.45 Q2217.44 296.872 2219.48 296.872 Q2224.85 296.872 2228.04 299.557 Q2231.24 302.242 2231.24 306.733 Q2231.24 308.862 2230.43 310.784 Q2229.64 312.682 2227.53 315.274 Q2226.96 315.946 2223.85 319.163 Q2220.75 322.358 2215.1 328.121 Z" fill="#bebebe" fill-rule="evenodd" fill-opacity="1" /><path clip-path="url(#clip930)" d="M2063.99 375.257 L2094.71 393.177 L2094.71 357.337 L2063.99 375.257 Z" fill="#00008b" fill-rule="evenodd" fill-opacity="0.2" stroke="#ff0000" stroke-opacity="0.2" stroke-width="1.70667"/>
<path clip-path="url(#clip930)" d="M 0 0 M2194.62 394.944 Q2192.81 399.574 2191.1 400.986 Q2189.39 402.398 2186.52 402.398 L2183.11 402.398 L2183.11 398.833 L2185.61 398.833 Q2187.37 398.833 2188.34 398 Q2189.32 397.166 2190.5 394.064 L2191.26 392.12 L2180.78 366.611 L2185.29 366.611 L2193.39 386.889 L2201.49 366.611 L2206.01 366.611 L2194.62 394.944 Z" fill="#bebebe" fill-rule="evenodd" fill-opacity="1" /><path clip-path="url(#clip930)" d="M 0 0 M2225.24 373.902 Q2228.6 374.62 2230.47 376.889 Q2232.37 379.157 2232.37 382.49 Q2232.37 387.606 2228.85 390.407 Q2225.34 393.208 2218.85 393.208 Q2216.68 393.208 2214.36 392.768 Q2212.07 392.351 2209.62 391.495 L2209.62 386.981 Q2211.56 388.115 2213.88 388.694 Q2216.19 389.273 2218.71 389.273 Q2223.11 389.273 2225.4 387.537 Q2227.72 385.801 2227.72 382.49 Q2227.72 379.435 2225.57 377.722 Q2223.44 375.986 2219.62 375.986 L2215.59 375.986 L2215.59 372.143 L2219.8 372.143 Q2223.25 372.143 2225.08 370.778 Q2226.91 369.389 2226.91 366.796 Q2226.91 364.134 2225.01 362.722 Q2223.14 361.287 2219.62 361.287 Q2217.7 361.287 2215.5 361.703 Q2213.3 362.12 2210.66 363 L2210.66 358.833 Q2213.32 358.092 2215.64 357.722 Q2217.97 357.352 2220.03 357.352 Q2225.36 357.352 2228.46 359.782 Q2231.56 362.19 2231.56 366.31 Q2231.56 369.18 2229.92 371.171 Q2228.27 373.139 2225.24 373.902 Z" fill="#bebebe" fill-rule="evenodd" fill-opacity="1" /></svg>
