<?xml version="1.0" encoding="utf-8"?>
<svg xmlns="http://www.w3.org/2000/svg" xmlns:xlink="http://www.w3.org/1999/xlink" width="600" height="400" viewBox="0 0 2400 1600">
<defs>
  <clipPath id="clip120">
    <rect x="0" y="0" width="2400" height="1600"/>
  </clipPath>
</defs>
<path clip-path="url(#clip120)" d="
M0 1600 L2400 1600 L2400 0 L0 0  Z
  " fill="#ffffff" fill-rule="evenodd" fill-opacity="1"/>
<defs>
  <clipPath id="clip121">
    <rect x="480" y="0" width="1681" height="1600"/>
  </clipPath>
</defs>
<path clip-path="url(#clip120)" d="
M185.846 1482.13 L2352.76 1482.13 L2352.76 149.392 L185.846 149.392  Z
  " fill="#ffffff" fill-rule="evenodd" fill-opacity="1"/>
<defs>
  <clipPath id="clip122">
    <rect x="185" y="149" width="2168" height="1334"/>
  </clipPath>
</defs>
<polyline clip-path="url(#clip122)" style="stroke:#000000; stroke-width:2; stroke-opacity:0.1; fill:none" points="
  677.543,1482.13 677.543,149.392 
  "/>
<polyline clip-path="url(#clip122)" style="stroke:#000000; stroke-width:2; stroke-opacity:0.1; fill:none" points="
  1215.5,1482.13 1215.5,149.392 
  "/>
<polyline clip-path="url(#clip122)" style="stroke:#000000; stroke-width:2; stroke-opacity:0.1; fill:none" points="
  1753.47,1482.13 1753.47,149.392 
  "/>
<polyline clip-path="url(#clip122)" style="stroke:#000000; stroke-width:2; stroke-opacity:0.1; fill:none" points="
  2291.43,1482.13 2291.43,149.392 
  "/>
<polyline clip-path="url(#clip120)" style="stroke:#000000; stroke-width:4; stroke-opacity:1; fill:none" points="
  185.846,1482.13 2352.76,1482.13 
  "/>
<polyline clip-path="url(#clip120)" style="stroke:#000000; stroke-width:4; stroke-opacity:1; fill:none" points="
  677.543,1482.13 677.543,1466.14 
  "/>
<polyline clip-path="url(#clip120)" style="stroke:#000000; stroke-width:4; stroke-opacity:1; fill:none" points="
  1215.5,1482.13 1215.5,1466.14 
  "/>
<polyline clip-path="url(#clip120)" style="stroke:#000000; stroke-width:4; stroke-opacity:1; fill:none" points="
  1753.47,1482.13 1753.47,1466.14 
  "/>
<polyline clip-path="url(#clip120)" style="stroke:#000000; stroke-width:4; stroke-opacity:1; fill:none" points="
  2291.43,1482.13 2291.43,1466.14 
  "/>
<path clip-path="url(#clip120)" d="M 0 0 M666.605 1509.1 L687.256 1509.1 L687.256 1513.53 L671.423 1513.53 L671.423 1523.06 Q672.569 1522.67 673.715 1522.49 Q674.861 1522.28 676.006 1522.28 Q682.517 1522.28 686.319 1525.85 Q690.121 1529.42 690.121 1535.51 Q690.121 1541.79 686.215 1545.28 Q682.308 1548.74 675.199 1548.74 Q672.751 1548.74 670.199 1548.32 Q667.673 1547.91 664.965 1547.07 L664.965 1541.79 Q667.309 1543.06 669.809 1543.69 Q672.309 1544.31 675.095 1544.31 Q679.6 1544.31 682.23 1541.94 Q684.861 1539.57 684.861 1535.51 Q684.861 1531.45 682.23 1529.08 Q679.6 1526.71 675.095 1526.71 Q672.986 1526.71 670.876 1527.18 Q668.793 1527.65 666.605 1528.64 L666.605 1509.1 Z" fill="#bebebe" fill-rule="evenodd" fill-opacity="1" /><path clip-path="url(#clip120)" d="M 0 0 M1189.49 1543.56 L1198.08 1543.56 L1198.08 1513.9 L1188.73 1515.77 L1188.73 1510.98 L1198.03 1509.1 L1203.29 1509.1 L1203.29 1543.56 L1211.88 1543.56 L1211.88 1547.98 L1189.49 1547.98 L1189.49 1543.56 Z" fill="#bebebe" fill-rule="evenodd" fill-opacity="1" /><path clip-path="url(#clip120)" d="M 0 0 M1228.84 1512.57 Q1224.78 1512.57 1222.72 1516.58 Q1220.69 1520.56 1220.69 1528.58 Q1220.69 1536.58 1222.72 1540.59 Q1224.78 1544.57 1228.84 1544.57 Q1232.93 1544.57 1234.96 1540.59 Q1237.01 1536.58 1237.01 1528.58 Q1237.01 1520.56 1234.96 1516.58 Q1232.93 1512.57 1228.84 1512.57 M1228.84 1508.4 Q1235.37 1508.4 1238.81 1513.58 Q1242.28 1518.74 1242.28 1528.58 Q1242.28 1538.4 1238.81 1543.58 Q1235.37 1548.74 1228.84 1548.74 Q1222.3 1548.74 1218.84 1543.58 Q1215.4 1538.4 1215.4 1528.58 Q1215.4 1518.74 1218.84 1513.58 Q1222.3 1508.4 1228.84 1508.4 Z" fill="#bebebe" fill-rule="evenodd" fill-opacity="1" /><path clip-path="url(#clip120)" d="M 0 0 M1728.01 1543.56 L1736.6 1543.56 L1736.6 1513.9 L1727.26 1515.77 L1727.26 1510.98 L1736.55 1509.1 L1741.81 1509.1 L1741.81 1543.56 L1750.41 1543.56 L1750.41 1547.98 L1728.01 1547.98 L1728.01 1543.56 Z" fill="#bebebe" fill-rule="evenodd" fill-opacity="1" /><path clip-path="url(#clip120)" d="M 0 0 M1756.16 1509.1 L1776.81 1509.1 L1776.81 1513.53 L1760.98 1513.53 L1760.98 1523.06 Q1762.13 1522.67 1763.27 1522.49 Q1764.42 1522.28 1765.56 1522.28 Q1772.07 1522.28 1775.88 1525.85 Q1779.68 1529.42 1779.68 1535.51 Q1779.68 1541.79 1775.77 1545.28 Q1771.86 1548.74 1764.76 1548.74 Q1762.31 1548.74 1759.76 1548.32 Q1757.23 1547.91 1754.52 1547.07 L1754.52 1541.79 Q1756.86 1543.06 1759.36 1543.69 Q1761.86 1544.31 1764.65 1544.31 Q1769.16 1544.31 1771.79 1541.94 Q1774.42 1539.57 1774.42 1535.51 Q1774.42 1531.45 1771.79 1529.08 Q1769.16 1526.71 1764.65 1526.71 Q1762.54 1526.71 1760.43 1527.18 Q1758.35 1527.65 1756.16 1528.64 L1756.16 1509.1 Z" fill="#bebebe" fill-rule="evenodd" fill-opacity="1" /><path clip-path="url(#clip120)" d="M 0 0 M2270.22 1543.56 L2288.58 1543.56 L2288.58 1547.98 L2263.89 1547.98 L2263.89 1543.56 Q2266.88 1540.46 2272.04 1535.25 Q2277.22 1530.02 2278.55 1528.5 Q2281.08 1525.67 2282.07 1523.71 Q2283.08 1521.73 2283.08 1519.83 Q2283.08 1516.73 2280.89 1514.78 Q2278.73 1512.83 2275.24 1512.83 Q2272.77 1512.83 2270.01 1513.69 Q2267.27 1514.55 2264.15 1516.29 L2264.15 1510.98 Q2267.33 1509.7 2270.09 1509.05 Q2272.85 1508.4 2275.14 1508.4 Q2281.18 1508.4 2284.77 1511.42 Q2288.37 1514.44 2288.37 1519.49 Q2288.37 1521.89 2287.46 1524.05 Q2286.57 1526.19 2284.2 1529.1 Q2283.55 1529.86 2280.06 1533.48 Q2276.57 1537.07 2270.22 1543.56 Z" fill="#bebebe" fill-rule="evenodd" fill-opacity="1" /><path clip-path="url(#clip120)" d="M 0 0 M2305.53 1512.57 Q2301.47 1512.57 2299.41 1516.58 Q2297.38 1520.56 2297.38 1528.58 Q2297.38 1536.58 2299.41 1540.59 Q2301.47 1544.57 2305.53 1544.57 Q2309.62 1544.57 2311.65 1540.59 Q2313.71 1536.58 2313.71 1528.58 Q2313.71 1520.56 2311.65 1516.58 Q2309.62 1512.57 2305.53 1512.57 M2305.53 1508.4 Q2312.07 1508.4 2315.5 1513.58 Q2318.97 1518.74 2318.97 1528.58 Q2318.97 1538.4 2315.5 1543.58 Q2312.07 1548.74 2305.53 1548.74 Q2298.99 1548.74 2295.53 1543.58 Q2292.09 1538.4 2292.09 1528.58 Q2292.09 1518.74 2295.53 1513.58 Q2298.99 1508.4 2305.53 1508.4 Z" fill="#bebebe" fill-rule="evenodd" fill-opacity="1" /><polyline clip-path="url(#clip122)" style="stroke:#000000; stroke-width:2; stroke-opacity:0.1; fill:none" points="
  185.846,1451.13 2352.76,1451.13 
  "/>
<polyline clip-path="url(#clip122)" style="stroke:#000000; stroke-width:2; stroke-opacity:0.1; fill:none" points="
  185.846,1133.93 2352.76,1133.93 
  "/>
<polyline clip-path="url(#clip122)" style="stroke:#000000; stroke-width:2; stroke-opacity:0.1; fill:none" points="
  185.846,816.725 2352.76,816.725 
  "/>
<polyline clip-path="url(#clip122)" style="stroke:#000000; stroke-width:2; stroke-opacity:0.1; fill:none" points="
  185.846,499.524 2352.76,499.524 
  "/>
<polyline clip-path="url(#clip122)" style="stroke:#000000; stroke-width:2; stroke-opacity:0.1; fill:none" points="
  185.846,182.323 2352.76,182.323 
  "/>
<polyline clip-path="url(#clip120)" style="stroke:#000000; stroke-width:4; stroke-opacity:1; fill:none" points="
  185.846,1482.13 185.846,149.392 
  "/>
<polyline clip-path="url(#clip120)" style="stroke:#000000; stroke-width:4; stroke-opacity:1; fill:none" points="
  185.846,1451.13 211.849,1451.13 
  "/>
<polyline clip-path="url(#clip120)" style="stroke:#000000; stroke-width:4; stroke-opacity:1; fill:none" points="
  185.846,1133.93 211.849,1133.93 
  "/>
<polyline clip-path="url(#clip120)" style="stroke:#000000; stroke-width:4; stroke-opacity:1; fill:none" points="
  185.846,816.725 211.849,816.725 
  "/>
<polyline clip-path="url(#clip120)" style="stroke:#000000; stroke-width:4; stroke-opacity:1; fill:none" points="
  185.846,499.524 211.849,499.524 
  "/>
<polyline clip-path="url(#clip120)" style="stroke:#000000; stroke-width:4; stroke-opacity:1; fill:none" points="
  185.846,182.323 211.849,182.323 
  "/>
<path clip-path="url(#clip120)" d="M 0 0 M64.4296 1435.15 Q60.3671 1435.15 58.3098 1439.16 Q56.2786 1443.15 56.2786 1451.17 Q56.2786 1459.16 58.3098 1463.17 Q60.3671 1467.16 64.4296 1467.16 Q68.5181 1467.16 70.5493 1463.17 Q72.6066 1459.16 72.6066 1451.17 Q72.6066 1443.15 70.5493 1439.16 Q68.5181 1435.15 64.4296 1435.15 M64.4296 1430.98 Q70.966 1430.98 74.4035 1436.17 Q77.867 1441.32 77.867 1451.17 Q77.867 1460.98 74.4035 1466.17 Q70.966 1471.32 64.4296 1471.32 Q57.8931 1471.32 54.4296 1466.17 Q50.9921 1460.98 50.9921 1451.17 Q50.9921 1441.32 54.4296 1436.17 Q57.8931 1430.98 64.4296 1430.98 Z" fill="#bebebe" fill-rule="evenodd" fill-opacity="1" /><path clip-path="url(#clip120)" d="M 0 0 M83.5701 1463.95 L89.0648 1463.95 L89.0648 1470.57 L83.5701 1470.57 L83.5701 1463.95 Z" fill="#bebebe" fill-rule="evenodd" fill-opacity="1" /><path clip-path="url(#clip120)" d="M 0 0 M106.018 1435.15 Q101.955 1435.15 99.8981 1439.16 Q97.8669 1443.15 97.8669 1451.17 Q97.8669 1459.16 99.8981 1463.17 Q101.955 1467.16 106.018 1467.16 Q110.106 1467.16 112.138 1463.17 Q114.195 1459.16 114.195 1451.17 Q114.195 1443.15 112.138 1439.16 Q110.106 1435.15 106.018 1435.15 M106.018 1430.98 Q112.554 1430.98 115.992 1436.17 Q119.455 1441.32 119.455 1451.17 Q119.455 1460.98 115.992 1466.17 Q112.554 1471.32 106.018 1471.32 Q99.4814 1471.32 96.0179 1466.17 Q92.5804 1460.98 92.5804 1451.17 Q92.5804 1441.32 96.0179 1436.17 Q99.4814 1430.98 106.018 1430.98 Z" fill="#bebebe" fill-rule="evenodd" fill-opacity="1" /><path clip-path="url(#clip120)" d="M 0 0 M136.408 1435.15 Q132.346 1435.15 130.289 1439.16 Q128.257 1443.15 128.257 1451.17 Q128.257 1459.16 130.289 1463.17 Q132.346 1467.16 136.408 1467.16 Q140.497 1467.16 142.528 1463.17 Q144.585 1459.16 144.585 1451.17 Q144.585 1443.15 142.528 1439.16 Q140.497 1435.15 136.408 1435.15 M136.408 1430.98 Q142.945 1430.98 146.382 1436.17 Q149.846 1441.32 149.846 1451.17 Q149.846 1460.98 146.382 1466.17 Q142.945 1471.32 136.408 1471.32 Q129.872 1471.32 126.408 1466.17 Q122.971 1460.98 122.971 1451.17 Q122.971 1441.32 126.408 1436.17 Q129.872 1430.98 136.408 1430.98 Z" fill="#bebebe" fill-rule="evenodd" fill-opacity="1" /><path clip-path="url(#clip120)" d="M 0 0 M67.3462 1117.95 Q63.2837 1117.95 61.2264 1121.96 Q59.1952 1125.94 59.1952 1133.97 Q59.1952 1141.96 61.2264 1145.97 Q63.2837 1149.96 67.3462 1149.96 Q71.4347 1149.96 73.466 1145.97 Q75.5232 1141.96 75.5232 1133.97 Q75.5232 1125.94 73.466 1121.96 Q71.4347 1117.95 67.3462 1117.95 M67.3462 1113.78 Q73.8826 1113.78 77.3201 1118.97 Q80.7836 1124.12 80.7836 1133.97 Q80.7836 1143.78 77.3201 1148.97 Q73.8826 1154.12 67.3462 1154.12 Q60.8098 1154.12 57.3463 1148.97 Q53.9088 1143.78 53.9088 1133.97 Q53.9088 1124.12 57.3463 1118.97 Q60.8098 1113.78 67.3462 1113.78 Z" fill="#bebebe" fill-rule="evenodd" fill-opacity="1" /><path clip-path="url(#clip120)" d="M 0 0 M86.4867 1146.75 L91.9815 1146.75 L91.9815 1153.37 L86.4867 1153.37 L86.4867 1146.75 Z" fill="#bebebe" fill-rule="evenodd" fill-opacity="1" /><path clip-path="url(#clip120)" d="M 0 0 M102.216 1148.94 L120.575 1148.94 L120.575 1153.37 L95.8877 1153.37 L95.8877 1148.94 Q98.8825 1145.84 104.039 1140.63 Q109.221 1135.4 110.549 1133.89 Q113.075 1131.05 114.065 1129.1 Q115.08 1127.12 115.08 1125.22 Q115.08 1122.12 112.893 1120.16 Q110.731 1118.21 107.242 1118.21 Q104.768 1118.21 102.007 1119.07 Q99.2731 1119.93 96.1481 1121.67 L96.1481 1116.36 Q99.3252 1115.09 102.086 1114.43 Q104.846 1113.78 107.138 1113.78 Q113.179 1113.78 116.773 1116.8 Q120.367 1119.83 120.367 1124.88 Q120.367 1127.27 119.455 1129.43 Q118.57 1131.57 116.2 1134.49 Q115.549 1135.24 112.06 1138.86 Q108.57 1142.46 102.216 1148.94 Z" fill="#bebebe" fill-rule="evenodd" fill-opacity="1" /><path clip-path="url(#clip120)" d="M 0 0 M126.33 1114.49 L146.981 1114.49 L146.981 1118.91 L131.148 1118.91 L131.148 1128.44 Q132.294 1128.05 133.44 1127.87 Q134.585 1127.66 135.731 1127.66 Q142.242 1127.66 146.044 1131.23 Q149.846 1134.8 149.846 1140.89 Q149.846 1147.17 145.94 1150.66 Q142.033 1154.12 134.924 1154.12 Q132.476 1154.12 129.924 1153.71 Q127.398 1153.29 124.69 1152.46 L124.69 1147.17 Q127.033 1148.44 129.533 1149.07 Q132.033 1149.69 134.82 1149.69 Q139.325 1149.69 141.955 1147.33 Q144.585 1144.96 144.585 1140.89 Q144.585 1136.83 141.955 1134.46 Q139.325 1132.09 134.82 1132.09 Q132.71 1132.09 130.601 1132.56 Q128.518 1133.03 126.33 1134.02 L126.33 1114.49 Z" fill="#bebebe" fill-rule="evenodd" fill-opacity="1" /><path clip-path="url(#clip120)" d="M 0 0 M65.5493 800.749 Q61.4869 800.749 59.4296 804.759 Q57.3983 808.744 57.3983 816.764 Q57.3983 824.759 59.4296 828.77 Q61.4869 832.754 65.5493 832.754 Q69.6379 832.754 71.6691 828.77 Q73.7264 824.759 73.7264 816.764 Q73.7264 808.744 71.6691 804.759 Q69.6379 800.749 65.5493 800.749 M65.5493 796.582 Q72.0858 796.582 75.5232 801.764 Q78.9868 806.921 78.9868 816.764 Q78.9868 826.582 75.5232 831.764 Q72.0858 836.921 65.5493 836.921 Q59.0129 836.921 55.5494 831.764 Q52.1119 826.582 52.1119 816.764 Q52.1119 806.921 55.5494 801.764 Q59.0129 796.582 65.5493 796.582 Z" fill="#bebebe" fill-rule="evenodd" fill-opacity="1" /><path clip-path="url(#clip120)" d="M 0 0 M84.6899 829.551 L90.1846 829.551 L90.1846 836.165 L84.6899 836.165 L84.6899 829.551 Z" fill="#bebebe" fill-rule="evenodd" fill-opacity="1" /><path clip-path="url(#clip120)" d="M 0 0 M95.9398 797.285 L116.591 797.285 L116.591 801.712 L100.757 801.712 L100.757 811.244 Q101.903 810.853 103.049 810.671 Q104.195 810.462 105.341 810.462 Q111.851 810.462 115.653 814.03 Q119.455 817.598 119.455 823.691 Q119.455 829.967 115.549 833.457 Q111.643 836.921 104.534 836.921 Q102.086 836.921 99.5335 836.504 Q97.0075 836.087 94.2992 835.254 L94.2992 829.967 Q96.6429 831.243 99.1429 831.868 Q101.643 832.493 104.429 832.493 Q108.935 832.493 111.565 830.124 Q114.195 827.754 114.195 823.691 Q114.195 819.629 111.565 817.259 Q108.935 814.889 104.429 814.889 Q102.32 814.889 100.211 815.358 Q98.1273 815.827 95.9398 816.816 L95.9398 797.285 Z" fill="#bebebe" fill-rule="evenodd" fill-opacity="1" /><path clip-path="url(#clip120)" d="M 0 0 M136.408 800.749 Q132.346 800.749 130.289 804.759 Q128.257 808.744 128.257 816.764 Q128.257 824.759 130.289 828.77 Q132.346 832.754 136.408 832.754 Q140.497 832.754 142.528 828.77 Q144.585 824.759 144.585 816.764 Q144.585 808.744 142.528 804.759 Q140.497 800.749 136.408 800.749 M136.408 796.582 Q142.945 796.582 146.382 801.764 Q149.846 806.921 149.846 816.764 Q149.846 826.582 146.382 831.764 Q142.945 836.921 136.408 836.921 Q129.872 836.921 126.408 831.764 Q122.971 826.582 122.971 816.764 Q122.971 806.921 126.408 801.764 Q129.872 796.582 136.408 796.582 Z" fill="#bebebe" fill-rule="evenodd" fill-opacity="1" /><path clip-path="url(#clip120)" d="M 0 0 M66.565 483.547 Q62.5025 483.547 60.4452 487.558 Q58.414 491.542 58.414 499.563 Q58.414 507.558 60.4452 511.568 Q62.5025 515.553 66.565 515.553 Q70.6535 515.553 72.6847 511.568 Q74.742 507.558 74.742 499.563 Q74.742 491.542 72.6847 487.558 Q70.6535 483.547 66.565 483.547 M66.565 479.381 Q73.1014 479.381 76.5389 484.563 Q80.0024 489.719 80.0024 499.563 Q80.0024 509.381 76.5389 514.563 Q73.1014 519.719 66.565 519.719 Q60.0285 519.719 56.565 514.563 Q53.1275 509.381 53.1275 499.563 Q53.1275 489.719 56.565 484.563 Q60.0285 479.381 66.565 479.381 Z" fill="#bebebe" fill-rule="evenodd" fill-opacity="1" /><path clip-path="url(#clip120)" d="M 0 0 M85.7055 512.349 L91.2002 512.349 L91.2002 518.964 L85.7055 518.964 L85.7055 512.349 Z" fill="#bebebe" fill-rule="evenodd" fill-opacity="1" /><path clip-path="url(#clip120)" d="M 0 0 M95.5752 480.084 L120.575 480.084 L120.575 482.324 L106.461 518.964 L100.966 518.964 L114.247 484.511 L95.5752 484.511 L95.5752 480.084 Z" fill="#bebebe" fill-rule="evenodd" fill-opacity="1" /><path clip-path="url(#clip120)" d="M 0 0 M126.33 480.084 L146.981 480.084 L146.981 484.511 L131.148 484.511 L131.148 494.042 Q132.294 493.652 133.44 493.469 Q134.585 493.261 135.731 493.261 Q142.242 493.261 146.044 496.829 Q149.846 500.396 149.846 506.49 Q149.846 512.766 145.94 516.256 Q142.033 519.719 134.924 519.719 Q132.476 519.719 129.924 519.303 Q127.398 518.886 124.69 518.053 L124.69 512.766 Q127.033 514.042 129.533 514.667 Q132.033 515.292 134.82 515.292 Q139.325 515.292 141.955 512.922 Q144.585 510.553 144.585 506.49 Q144.585 502.428 141.955 500.058 Q139.325 497.688 134.82 497.688 Q132.71 497.688 130.601 498.157 Q128.518 498.626 126.33 499.615 L126.33 480.084 Z" fill="#bebebe" fill-rule="evenodd" fill-opacity="1" /><path clip-path="url(#clip120)" d="M 0 0 M55.4713 197.336 L64.065 197.336 L64.065 167.674 L54.7161 169.549 L54.7161 164.758 L64.0129 162.883 L69.2733 162.883 L69.2733 197.336 L77.867 197.336 L77.867 201.763 L55.4713 201.763 L55.4713 197.336 Z" fill="#bebebe" fill-rule="evenodd" fill-opacity="1" /><path clip-path="url(#clip120)" d="M 0 0 M83.5701 195.148 L89.0648 195.148 L89.0648 201.763 L83.5701 201.763 L83.5701 195.148 Z" fill="#bebebe" fill-rule="evenodd" fill-opacity="1" /><path clip-path="url(#clip120)" d="M 0 0 M106.018 166.346 Q101.955 166.346 99.8981 170.357 Q97.8669 174.341 97.8669 182.362 Q97.8669 190.356 99.8981 194.367 Q101.955 198.351 106.018 198.351 Q110.106 198.351 112.138 194.367 Q114.195 190.356 114.195 182.362 Q114.195 174.341 112.138 170.357 Q110.106 166.346 106.018 166.346 M106.018 162.179 Q112.554 162.179 115.992 167.362 Q119.455 172.518 119.455 182.362 Q119.455 192.179 115.992 197.362 Q112.554 202.518 106.018 202.518 Q99.4814 202.518 96.0179 197.362 Q92.5804 192.179 92.5804 182.362 Q92.5804 172.518 96.0179 167.362 Q99.4814 162.179 106.018 162.179 Z" fill="#bebebe" fill-rule="evenodd" fill-opacity="1" /><path clip-path="url(#clip120)" d="M 0 0 M136.408 166.346 Q132.346 166.346 130.289 170.357 Q128.257 174.341 128.257 182.362 Q128.257 190.356 130.289 194.367 Q132.346 198.351 136.408 198.351 Q140.497 198.351 142.528 194.367 Q144.585 190.356 144.585 182.362 Q144.585 174.341 142.528 170.357 Q140.497 166.346 136.408 166.346 M136.408 162.179 Q142.945 162.179 146.382 167.362 Q149.846 172.518 149.846 182.362 Q149.846 192.179 146.382 197.362 Q142.945 202.518 136.408 202.518 Q129.872 202.518 126.408 197.362 Q122.971 192.179 122.971 182.362 Q122.971 172.518 126.408 167.362 Q129.872 162.179 136.408 162.179 Z" fill="#bebebe" fill-rule="evenodd" fill-opacity="1" /><path clip-path="url(#clip120)" d="M 0 0 M963.429 20.1156 L963.429 31.516 Q956.774 28.3332 950.871 26.7707 Q944.968 25.2082 939.47 25.2082 Q929.922 25.2082 924.714 28.9119 Q919.563 32.6156 919.563 39.4442 Q919.563 45.1734 922.977 48.1247 Q926.45 51.0182 936.056 52.8122 L943.116 54.259 Q956.195 56.7474 962.387 63.0552 Q968.637 69.3052 968.637 79.8375 Q968.637 92.3953 960.188 98.8768 Q951.797 105.358 935.535 105.358 Q929.401 105.358 922.457 103.969 Q915.57 102.58 908.163 99.8606 L908.163 87.8236 Q915.281 91.8166 922.109 93.8421 Q928.938 95.8675 935.535 95.8675 Q945.547 95.8675 950.987 91.9324 Q956.426 87.9972 956.426 80.7056 Q956.426 74.3399 952.491 70.7519 Q948.614 67.164 939.702 65.37 L932.584 63.9811 Q919.505 61.377 913.66 55.8215 Q907.816 50.2659 907.816 40.3702 Q907.816 28.9119 915.859 22.3147 Q923.961 15.7175 938.139 15.7175 Q944.216 15.7175 950.524 16.817 Q956.831 17.9166 963.429 20.1156 Z" fill="#bebebe" fill-rule="evenodd" fill-opacity="1" /><path clip-path="url(#clip120)" d="M 0 0 M1035.25 68.6107 L1035.25 73.819 L986.287 73.819 Q986.982 84.8144 992.884 90.6014 Q998.845 96.3305 1009.44 96.3305 Q1015.57 96.3305 1021.3 94.8259 Q1027.09 93.3213 1032.76 90.312 L1032.76 100.381 Q1027.03 102.812 1021.01 104.085 Q1014.99 105.358 1008.8 105.358 Q993.29 105.358 984.204 96.3305 Q975.176 87.3028 975.176 71.9093 Q975.176 55.9951 983.741 46.678 Q992.364 37.303 1006.95 37.303 Q1020.03 37.303 1027.61 45.7521 Q1035.25 54.1432 1035.25 68.6107 M1024.6 65.4858 Q1024.48 56.7474 1019.68 51.5391 Q1014.93 46.3308 1007.06 46.3308 Q998.151 46.3308 992.769 51.3655 Q987.445 56.4002 986.635 65.5436 L1024.6 65.4858 Z" fill="#bebebe" fill-rule="evenodd" fill-opacity="1" /><path clip-path="url(#clip120)" d="M 0 0 M1083.97 48.8192 Q1082.18 47.7775 1080.04 47.3146 Q1077.95 46.7937 1075.41 46.7937 Q1066.38 46.7937 1061.52 52.6965 Q1056.72 58.5414 1056.72 69.5367 L1056.72 103.68 L1046.01 103.68 L1046.01 38.8655 L1056.72 38.8655 L1056.72 48.9349 Q1060.07 43.0322 1065.45 40.1965 Q1070.84 37.303 1078.53 37.303 Q1079.63 37.303 1080.96 37.4767 Q1082.29 37.5924 1083.91 37.8817 L1083.97 48.8192 Z" fill="#bebebe" fill-rule="evenodd" fill-opacity="1" /><path clip-path="url(#clip120)" d="M 0 0 M1095.14 38.8655 L1105.79 38.8655 L1105.79 103.68 L1095.14 103.68 L1095.14 38.8655 M1095.14 13.6342 L1105.79 13.6342 L1105.79 27.1179 L1095.14 27.1179 L1095.14 13.6342 Z" fill="#bebebe" fill-rule="evenodd" fill-opacity="1" /><path clip-path="url(#clip120)" d="M 0 0 M1172.4 68.6107 L1172.4 73.819 L1123.44 73.819 Q1124.13 84.8144 1130.04 90.6014 Q1136 96.3305 1146.59 96.3305 Q1152.72 96.3305 1158.45 94.8259 Q1164.24 93.3213 1169.91 90.312 L1169.91 100.381 Q1164.18 102.812 1158.16 104.085 Q1152.14 105.358 1145.95 105.358 Q1130.44 105.358 1121.36 96.3305 Q1112.33 87.3028 1112.33 71.9093 Q1112.33 55.9951 1120.89 46.678 Q1129.52 37.303 1144.1 37.303 Q1157.18 37.303 1164.76 45.7521 Q1172.4 54.1432 1172.4 68.6107 M1161.75 65.4858 Q1161.63 56.7474 1156.83 51.5391 Q1152.09 46.3308 1144.21 46.3308 Q1135.3 46.3308 1129.92 51.3655 Q1124.6 56.4002 1123.79 65.5436 L1161.75 65.4858 Z" fill="#bebebe" fill-rule="evenodd" fill-opacity="1" /><path clip-path="url(#clip120)" d="M 0 0 M1231.31 17.28 L1231.31 49.3979 L1221.47 49.3979 L1221.47 17.28 L1231.31 17.28 Z" fill="#bebebe" fill-rule="evenodd" fill-opacity="1" /><path clip-path="url(#clip120)" d="M 0 0 M1283.8 40.7752 L1283.8 50.8446 Q1279.28 48.5298 1274.42 47.3724 Q1269.56 46.215 1264.35 46.215 Q1256.42 46.215 1252.43 48.6456 Q1248.5 51.0761 1248.5 55.9372 Q1248.5 59.6409 1251.33 61.7821 Q1254.17 63.8654 1262.73 65.7751 L1266.38 66.5853 Q1277.72 69.0158 1282.47 73.4718 Q1287.27 77.87 1287.27 85.7982 Q1287.27 94.8259 1280.09 100.092 Q1272.98 105.358 1260.48 105.358 Q1255.27 105.358 1249.6 104.317 Q1243.98 103.333 1237.73 101.307 L1237.73 90.312 Q1243.64 93.3791 1249.36 94.9416 Q1255.09 96.4462 1260.71 96.4462 Q1268.23 96.4462 1272.28 93.9 Q1276.33 91.2958 1276.33 86.6083 Q1276.33 82.2681 1273.38 79.9533 Q1270.49 77.6385 1260.59 75.4973 L1256.89 74.6292 Q1246.99 72.5459 1242.59 68.2635 Q1238.2 63.9233 1238.2 56.4002 Q1238.2 47.2567 1244.68 42.2799 Q1251.16 37.303 1263.08 37.303 Q1268.98 37.303 1274.19 38.1711 Q1279.4 39.0391 1283.8 40.7752 Z" fill="#bebebe" fill-rule="evenodd" fill-opacity="1" /><path clip-path="url(#clip120)" d="M 0 0 M1345.08 41.3539 L1345.08 51.3076 Q1340.57 48.8192 1336 47.6039 Q1331.48 46.3308 1326.85 46.3308 Q1316.49 46.3308 1310.76 52.928 Q1305.04 59.4673 1305.04 71.3306 Q1305.04 83.194 1310.76 89.7912 Q1316.49 96.3305 1326.85 96.3305 Q1331.48 96.3305 1336 95.1152 Q1340.57 93.8421 1345.08 91.3537 L1345.08 101.192 Q1340.63 103.275 1335.82 104.317 Q1331.08 105.358 1325.7 105.358 Q1311.05 105.358 1302.43 96.1569 Q1293.81 86.9556 1293.81 71.3306 Q1293.81 55.4742 1302.49 46.3886 Q1311.23 37.303 1326.39 37.303 Q1331.31 37.303 1336 38.3447 Q1340.68 39.3285 1345.08 41.3539 Z" fill="#bebebe" fill-rule="evenodd" fill-opacity="1" /><path clip-path="url(#clip120)" d="M 0 0 M1385.71 71.0992 Q1372.8 71.0992 1367.82 74.0505 Q1362.85 77.0019 1362.85 84.1199 Q1362.85 89.7912 1366.55 93.1476 Q1370.31 96.4462 1376.74 96.4462 Q1385.59 96.4462 1390.91 90.1963 Q1396.3 83.8884 1396.3 73.4718 L1396.3 71.0992 L1385.71 71.0992 M1406.94 66.701 L1406.94 103.68 L1396.3 103.68 L1396.3 93.8421 Q1392.65 99.7448 1387.21 102.58 Q1381.77 105.358 1373.9 105.358 Q1363.95 105.358 1358.04 99.8027 Q1352.2 94.1893 1352.2 84.8144 Q1352.2 73.8769 1359.49 68.3214 Q1366.84 62.7659 1381.37 62.7659 L1396.3 62.7659 L1396.3 61.7242 Q1396.3 54.3747 1391.44 50.3817 Q1386.63 46.3308 1377.89 46.3308 Q1372.34 46.3308 1367.07 47.6618 Q1361.81 48.9928 1356.95 51.6548 L1356.95 41.8169 Q1362.79 39.56 1368.29 38.4604 Q1373.79 37.303 1378.99 37.303 Q1393.06 37.303 1400 44.5947 Q1406.94 51.8863 1406.94 66.701 Z" fill="#bebebe" fill-rule="evenodd" fill-opacity="1" /><path clip-path="url(#clip120)" d="M 0 0 M1428.65 20.4629 L1428.65 38.8655 L1450.58 38.8655 L1450.58 47.141 L1428.65 47.141 L1428.65 82.3259 Q1428.65 90.2541 1430.79 92.5111 Q1432.99 94.768 1439.64 94.768 L1450.58 94.768 L1450.58 103.68 L1439.64 103.68 Q1427.32 103.68 1422.63 99.1083 Q1417.94 94.4787 1417.94 82.3259 L1417.94 47.141 L1410.13 47.141 L1410.13 38.8655 L1417.94 38.8655 L1417.94 20.4629 L1428.65 20.4629 Z" fill="#bebebe" fill-rule="evenodd" fill-opacity="1" /><path clip-path="url(#clip120)" d="M 0 0 M1472.28 20.4629 L1472.28 38.8655 L1494.21 38.8655 L1494.21 47.141 L1472.28 47.141 L1472.28 82.3259 Q1472.28 90.2541 1474.42 92.5111 Q1476.62 94.768 1483.28 94.768 L1494.21 94.768 L1494.21 103.68 L1483.28 103.68 Q1470.95 103.68 1466.26 99.1083 Q1461.57 94.4787 1461.57 82.3259 L1461.57 47.141 L1453.76 47.141 L1453.76 38.8655 L1461.57 38.8655 L1461.57 20.4629 L1472.28 20.4629 Z" fill="#bebebe" fill-rule="evenodd" fill-opacity="1" /><path clip-path="url(#clip120)" d="M 0 0 M1560.82 68.6107 L1560.82 73.819 L1511.86 73.819 Q1512.56 84.8144 1518.46 90.6014 Q1524.42 96.3305 1535.01 96.3305 Q1541.15 96.3305 1546.87 94.8259 Q1552.66 93.3213 1558.33 90.312 L1558.33 100.381 Q1552.6 102.812 1546.59 104.085 Q1540.57 105.358 1534.37 105.358 Q1518.87 105.358 1509.78 96.3305 Q1500.75 87.3028 1500.75 71.9093 Q1500.75 55.9951 1509.32 46.678 Q1517.94 37.303 1532.52 37.303 Q1545.6 37.303 1553.18 45.7521 Q1560.82 54.1432 1560.82 68.6107 M1550.17 65.4858 Q1550.06 56.7474 1545.25 51.5391 Q1540.51 46.3308 1532.64 46.3308 Q1523.73 46.3308 1518.34 51.3655 Q1513.02 56.4002 1512.21 65.5436 L1550.17 65.4858 Z" fill="#bebebe" fill-rule="evenodd" fill-opacity="1" /><path clip-path="url(#clip120)" d="M 0 0 M1609.55 48.8192 Q1607.75 47.7775 1605.61 47.3146 Q1603.53 46.7937 1600.98 46.7937 Q1591.96 46.7937 1587.09 52.6965 Q1582.29 58.5414 1582.29 69.5367 L1582.29 103.68 L1571.59 103.68 L1571.59 38.8655 L1582.29 38.8655 L1582.29 48.9349 Q1585.65 43.0322 1591.03 40.1965 Q1596.41 37.303 1604.11 37.303 Q1605.21 37.303 1606.54 37.4767 Q1607.87 37.5924 1609.49 37.8817 L1609.55 48.8192 Z" fill="#bebebe" fill-rule="evenodd" fill-opacity="1" /><path clip-path="url(#clip120)" d="M 0 0 M1630.79 17.28 L1630.79 49.3979 L1620.95 49.3979 L1620.95 17.28 L1630.79 17.28 Z" fill="#bebebe" fill-rule="evenodd" fill-opacity="1" /><path clip-path="url(#clip122)" d="M247.173 276.821 L244.353 284.933 L235.761 285.113 L242.613 290.309 L240.117 298.529 L247.173 293.621 L254.229 298.529 L251.733 290.309 L258.585 285.113 L249.993 284.933 L247.173 276.821 Z" fill="#ffa500" fill-rule="evenodd" fill-opacity="0.5" stroke="#ff0000" stroke-opacity="0.5" stroke-width="3.2"/>
<path clip-path="url(#clip122)" d="M354.766 252.188 L351.946 260.3 L343.354 260.48 L350.206 265.676 L347.71 273.896 L354.766 268.988 L361.822 273.896 L359.326 265.676 L366.178 260.48 L357.586 260.3 L354.766 252.188 Z" fill="#ffa500" fill-rule="evenodd" fill-opacity="0.5" stroke="#ff0000" stroke-opacity="0.5" stroke-width="3.2"/>
<path clip-path="url(#clip122)" d="M462.358 1106.19 L459.538 1114.31 L450.946 1114.49 L457.798 1119.68 L455.302 1127.9 L462.358 1122.99 L469.414 1127.9 L466.918 1119.68 L473.77 1114.49 L465.178 1114.31 L462.358 1106.19 Z" fill="#ffa500" fill-rule="evenodd" fill-opacity="0.5" stroke="#ff0000" stroke-opacity="0.5" stroke-width="3.2"/>
<path clip-path="url(#clip122)" d="M569.95 795.446 L567.13 803.558 L558.538 803.738 L565.39 808.934 L562.894 817.154 L569.95 812.246 L577.006 817.154 L574.51 808.934 L581.362 803.738 L572.77 803.558 L569.95 795.446 Z" fill="#ffa500" fill-rule="evenodd" fill-opacity="0.5" stroke="#ff0000" stroke-opacity="0.5" stroke-width="3.2"/>
<path clip-path="url(#clip122)" d="M677.543 494.802 L674.723 502.914 L666.131 503.094 L672.983 508.29 L670.487 516.51 L677.543 511.602 L684.599 516.51 L682.103 508.29 L688.955 503.094 L680.363 502.914 L677.543 494.802 Z" fill="#ffa500" fill-rule="evenodd" fill-opacity="0.5" stroke="#ff0000" stroke-opacity="0.5" stroke-width="3.2"/>
<path clip-path="url(#clip122)" d="M785.135 401.071 L782.315 409.183 L773.723 409.363 L780.575 414.559 L778.079 422.779 L785.135 417.871 L792.191 422.779 L789.695 414.559 L796.547 409.363 L787.955 409.183 L785.135 401.071 Z" fill="#ffa500" fill-rule="evenodd" fill-opacity="0.5" stroke="#ff0000" stroke-opacity="0.5" stroke-width="3.2"/>
<path clip-path="url(#clip122)" d="M892.728 1034.35 L889.908 1042.46 L881.316 1042.64 L888.168 1047.84 L885.672 1056.06 L892.728 1051.15 L899.784 1056.06 L897.288 1047.84 L904.14 1042.64 L895.548 1042.46 L892.728 1034.35 Z" fill="#ffa500" fill-rule="evenodd" fill-opacity="0.5" stroke="#ff0000" stroke-opacity="0.5" stroke-width="3.2"/>
<path clip-path="url(#clip122)" d="M1000.32 223.188 L997.5 231.3 L988.908 231.48 L995.76 236.676 L993.264 244.896 L1000.32 239.988 L1007.38 244.896 L1004.88 236.676 L1011.73 231.48 L1003.14 231.3 L1000.32 223.188 Z" fill="#ffa500" fill-rule="evenodd" fill-opacity="0.5" stroke="#ff0000" stroke-opacity="0.5" stroke-width="3.2"/>
<path clip-path="url(#clip122)" d="M1107.91 1027.42 L1105.09 1035.53 L1096.5 1035.71 L1103.35 1040.91 L1100.86 1049.13 L1107.91 1044.22 L1114.97 1049.13 L1112.47 1040.91 L1119.32 1035.71 L1110.73 1035.53 L1107.91 1027.42 Z" fill="#ffa500" fill-rule="evenodd" fill-opacity="0.5" stroke="#ff0000" stroke-opacity="0.5" stroke-width="3.2"/>
<path clip-path="url(#clip122)" d="M1215.5 932.238 L1212.68 940.35 L1204.09 940.53 L1210.94 945.726 L1208.45 953.946 L1215.5 949.038 L1222.56 953.946 L1220.06 945.726 L1226.92 940.53 L1218.32 940.35 L1215.5 932.238 Z" fill="#ffa500" fill-rule="evenodd" fill-opacity="0.5" stroke="#ff0000" stroke-opacity="0.5" stroke-width="3.2"/>
<path clip-path="url(#clip122)" d="M1323.1 1333.99 L1320.28 1342.1 L1311.69 1342.28 L1318.54 1347.48 L1316.04 1355.7 L1323.1 1350.79 L1330.15 1355.7 L1327.66 1347.48 L1334.51 1342.28 L1325.92 1342.1 L1323.1 1333.99 Z" fill="#ffa500" fill-rule="evenodd" fill-opacity="0.5" stroke="#ff0000" stroke-opacity="0.5" stroke-width="3.2"/>
<path clip-path="url(#clip122)" d="M1430.69 1012.71 L1427.87 1020.83 L1419.28 1021.01 L1426.13 1026.2 L1423.63 1034.42 L1430.69 1029.51 L1437.75 1034.42 L1435.25 1026.2 L1442.1 1021.01 L1433.51 1020.83 L1430.69 1012.71 Z" fill="#ffa500" fill-rule="evenodd" fill-opacity="0.5" stroke="#ff0000" stroke-opacity="0.5" stroke-width="3.2"/>
<path clip-path="url(#clip122)" d="M1538.28 1296.64 L1535.46 1304.75 L1526.87 1304.93 L1533.72 1310.13 L1531.23 1318.35 L1538.28 1313.44 L1545.34 1318.35 L1542.84 1310.13 L1549.69 1304.93 L1541.1 1304.75 L1538.28 1296.64 Z" fill="#ffa500" fill-rule="evenodd" fill-opacity="0.5" stroke="#ff0000" stroke-opacity="0.5" stroke-width="3.2"/>
<path clip-path="url(#clip122)" d="M1645.87 223.297 L1643.05 231.409 L1634.46 231.589 L1641.31 236.785 L1638.82 245.005 L1645.87 240.097 L1652.93 245.005 L1650.43 236.785 L1657.29 231.589 L1648.69 231.409 L1645.87 223.297 Z" fill="#ffa500" fill-rule="evenodd" fill-opacity="0.5" stroke="#ff0000" stroke-opacity="0.5" stroke-width="3.2"/>
<path clip-path="url(#clip122)" d="M1753.47 463.531 L1750.65 471.643 L1742.05 471.823 L1748.91 477.019 L1746.41 485.239 L1753.47 480.331 L1760.52 485.239 L1758.03 477.019 L1764.88 471.823 L1756.29 471.643 L1753.47 463.531 Z" fill="#ffa500" fill-rule="evenodd" fill-opacity="0.5" stroke="#ff0000" stroke-opacity="0.5" stroke-width="3.2"/>
<path clip-path="url(#clip122)" d="M1861.06 175.111 L1858.24 183.223 L1849.65 183.403 L1856.5 188.599 L1854 196.819 L1861.06 191.911 L1868.11 196.819 L1865.62 188.599 L1872.47 183.403 L1863.88 183.223 L1861.06 175.111 Z" fill="#ffa500" fill-rule="evenodd" fill-opacity="0.5" stroke="#ff0000" stroke-opacity="0.5" stroke-width="3.2"/>
<path clip-path="url(#clip122)" d="M1968.65 552.329 L1965.83 560.441 L1957.24 560.621 L1964.09 565.817 L1961.6 574.037 L1968.65 569.129 L1975.71 574.037 L1973.21 565.817 L1980.06 560.621 L1971.47 560.441 L1968.65 552.329 Z" fill="#ffa500" fill-rule="evenodd" fill-opacity="0.5" stroke="#ff0000" stroke-opacity="0.5" stroke-width="3.2"/>
<path clip-path="url(#clip122)" d="M2076.24 467.849 L2073.42 475.961 L2064.83 476.141 L2071.68 481.337 L2069.19 489.557 L2076.24 484.649 L2083.3 489.557 L2080.8 481.337 L2087.66 476.141 L2079.06 475.961 L2076.24 467.849 Z" fill="#ffa500" fill-rule="evenodd" fill-opacity="0.5" stroke="#ff0000" stroke-opacity="0.5" stroke-width="3.2"/>
<path clip-path="url(#clip122)" d="M2183.84 1101.35 L2181.02 1109.46 L2172.42 1109.64 L2179.28 1114.84 L2176.78 1123.06 L2183.84 1118.15 L2190.89 1123.06 L2188.4 1114.84 L2195.25 1109.64 L2186.66 1109.46 L2183.84 1101.35 Z" fill="#ffa500" fill-rule="evenodd" fill-opacity="0.5" stroke="#ff0000" stroke-opacity="0.5" stroke-width="3.2"/>
<path clip-path="url(#clip122)" d="M2291.43 1201.66 L2288.61 1209.77 L2280.02 1209.95 L2286.87 1215.15 L2284.37 1223.37 L2291.43 1218.46 L2298.48 1223.37 L2295.99 1215.15 L2302.84 1209.95 L2294.25 1209.77 L2291.43 1201.66 Z" fill="#ffa500" fill-rule="evenodd" fill-opacity="0.5" stroke="#ff0000" stroke-opacity="0.5" stroke-width="3.2"/>
<path clip-path="url(#clip122)" d="M247.173 1074.44 L219.173 1102.44 L247.173 1130.44 L275.173 1102.44 L247.173 1074.44 Z" fill="#008000" fill-rule="evenodd" fill-opacity="1" stroke="#ff0000" stroke-opacity="1" stroke-width="3.2"/>
<path clip-path="url(#clip122)" d="M354.766 589.924 L326.766 617.924 L354.766 645.924 L382.766 617.924 L354.766 589.924 Z" fill="#008000" fill-rule="evenodd" fill-opacity="1" stroke="#ff0000" stroke-opacity="1" stroke-width="3.2"/>
<path clip-path="url(#clip122)" d="M462.358 475.636 L434.358 503.636 L462.358 531.636 L490.358 503.636 L462.358 475.636 Z" fill="#008000" fill-rule="evenodd" fill-opacity="1" stroke="#ff0000" stroke-opacity="1" stroke-width="3.2"/>
<path clip-path="url(#clip122)" d="M569.95 1317.79 L541.95 1345.79 L569.95 1373.79 L597.95 1345.79 L569.95 1317.79 Z" fill="#008000" fill-rule="evenodd" fill-opacity="1" stroke="#ff0000" stroke-opacity="1" stroke-width="3.2"/>
<path clip-path="url(#clip122)" d="M677.543 256.475 L649.543 284.475 L677.543 312.475 L705.543 284.475 L677.543 256.475 Z" fill="#008000" fill-rule="evenodd" fill-opacity="1" stroke="#ff0000" stroke-opacity="1" stroke-width="3.2"/>
<path clip-path="url(#clip122)" d="M785.135 1059.43 L757.135 1087.43 L785.135 1115.43 L813.135 1087.43 L785.135 1059.43 Z" fill="#008000" fill-rule="evenodd" fill-opacity="1" stroke="#ff0000" stroke-opacity="1" stroke-width="3.2"/>
<path clip-path="url(#clip122)" d="M892.728 540.494 L864.728 568.494 L892.728 596.494 L920.728 568.494 L892.728 540.494 Z" fill="#008000" fill-rule="evenodd" fill-opacity="1" stroke="#ff0000" stroke-opacity="1" stroke-width="3.2"/>
<path clip-path="url(#clip122)" d="M1000.32 1187.23 L972.32 1215.23 L1000.32 1243.23 L1028.32 1215.23 L1000.32 1187.23 Z" fill="#008000" fill-rule="evenodd" fill-opacity="1" stroke="#ff0000" stroke-opacity="1" stroke-width="3.2"/>
<path clip-path="url(#clip122)" d="M1107.91 912.008 L1079.91 940.008 L1107.91 968.008 L1135.91 940.008 L1107.91 912.008 Z" fill="#008000" fill-rule="evenodd" fill-opacity="1" stroke="#ff0000" stroke-opacity="1" stroke-width="3.2"/>
<path clip-path="url(#clip122)" d="M1215.5 1045.78 L1187.5 1073.78 L1215.5 1101.78 L1243.5 1073.78 L1215.5 1045.78 Z" fill="#008000" fill-rule="evenodd" fill-opacity="1" stroke="#ff0000" stroke-opacity="1" stroke-width="3.2"/>
<path clip-path="url(#clip122)" d="M1323.1 515.065 L1295.1 543.065 L1323.1 571.065 L1351.1 543.065 L1323.1 515.065 Z" fill="#008000" fill-rule="evenodd" fill-opacity="1" stroke="#ff0000" stroke-opacity="1" stroke-width="3.2"/>
<path clip-path="url(#clip122)" d="M1430.69 700.691 L1402.69 728.691 L1430.69 756.691 L1458.69 728.691 L1430.69 700.691 Z" fill="#008000" fill-rule="evenodd" fill-opacity="1" stroke="#ff0000" stroke-opacity="1" stroke-width="3.2"/>
<path clip-path="url(#clip122)" d="M1538.28 171.251 L1510.28 199.251 L1538.28 227.251 L1566.28 199.251 L1538.28 171.251 Z" fill="#008000" fill-rule="evenodd" fill-opacity="1" stroke="#ff0000" stroke-opacity="1" stroke-width="3.2"/>
<path clip-path="url(#clip122)" d="M1645.87 1160.08 L1617.87 1188.08 L1645.87 1216.08 L1673.87 1188.08 L1645.87 1160.08 Z" fill="#008000" fill-rule="evenodd" fill-opacity="1" stroke="#ff0000" stroke-opacity="1" stroke-width="3.2"/>
<path clip-path="url(#clip122)" d="M1753.47 359.396 L1725.47 387.396 L1753.47 415.396 L1781.47 387.396 L1753.47 359.396 Z" fill="#008000" fill-rule="evenodd" fill-opacity="1" stroke="#ff0000" stroke-opacity="1" stroke-width="3.2"/>
<path clip-path="url(#clip122)" d="M1861.06 487.57 L1833.06 515.57 L1861.06 543.57 L1889.06 515.57 L1861.06 487.57 Z" fill="#008000" fill-rule="evenodd" fill-opacity="1" stroke="#ff0000" stroke-opacity="1" stroke-width="3.2"/>
<path clip-path="url(#clip122)" d="M1968.65 1416.41 L1940.65 1444.41 L1968.65 1472.41 L1996.65 1444.41 L1968.65 1416.41 Z" fill="#008000" fill-rule="evenodd" fill-opacity="1" stroke="#ff0000" stroke-opacity="1" stroke-width="3.2"/>
<path clip-path="url(#clip122)" d="M2076.24 782.235 L2048.24 810.235 L2076.24 838.235 L2104.24 810.235 L2076.24 782.235 Z" fill="#008000" fill-rule="evenodd" fill-opacity="1" stroke="#ff0000" stroke-opacity="1" stroke-width="3.2"/>
<path clip-path="url(#clip122)" d="M2183.84 1236.37 L2155.84 1264.37 L2183.84 1292.37 L2211.84 1264.37 L2183.84 1236.37 Z" fill="#008000" fill-rule="evenodd" fill-opacity="1" stroke="#ff0000" stroke-opacity="1" stroke-width="3.2"/>
<path clip-path="url(#clip122)" d="M2291.43 665.207 L2263.43 693.207 L2291.43 721.207 L2319.43 693.207 L2291.43 665.207 Z" fill="#008000" fill-rule="evenodd" fill-opacity="1" stroke="#ff0000" stroke-opacity="1" stroke-width="3.2"/>
<path clip-path="url(#clip122)" d="M208.773 1055 L266.373 1088.6 L266.373 1021.4 L208.773 1055 Z" fill="#00008b" fill-rule="evenodd" fill-opacity="0.2" stroke="#ff0000" stroke-opacity="0.2" stroke-width="3.2"/>
<path clip-path="url(#clip122)" d="M316.366 648.294 L373.966 681.894 L373.966 614.694 L316.366 648.294 Z" fill="#00008b" fill-rule="evenodd" fill-opacity="0.2" stroke="#ff0000" stroke-opacity="0.2" stroke-width="3.2"/>
<path clip-path="url(#clip122)" d="M423.958 836.245 L481.558 869.845 L481.558 802.645 L423.958 836.245 Z" fill="#00008b" fill-rule="evenodd" fill-opacity="0.2" stroke="#ff0000" stroke-opacity="0.2" stroke-width="3.2"/>
<path clip-path="url(#clip122)" d="M531.55 327.078 L589.15 360.678 L589.15 293.478 L531.55 327.078 Z" fill="#00008b" fill-rule="evenodd" fill-opacity="0.2" stroke="#ff0000" stroke-opacity="0.2" stroke-width="3.2"/>
<path clip-path="url(#clip122)" d="M639.143 521.798 L696.743 555.398 L696.743 488.198 L639.143 521.798 Z" fill="#00008b" fill-rule="evenodd" fill-opacity="0.2" stroke="#ff0000" stroke-opacity="0.2" stroke-width="3.2"/>
<path clip-path="url(#clip122)" d="M746.735 444.208 L804.335 477.808 L804.335 410.608 L746.735 444.208 Z" fill="#00008b" fill-rule="evenodd" fill-opacity="0.2" stroke="#ff0000" stroke-opacity="0.2" stroke-width="3.2"/>
<path clip-path="url(#clip122)" d="M854.328 399.124 L911.928 432.724 L911.928 365.524 L854.328 399.124 Z" fill="#00008b" fill-rule="evenodd" fill-opacity="0.2" stroke="#ff0000" stroke-opacity="0.2" stroke-width="3.2"/>
<path clip-path="url(#clip122)" d="M961.92 647.199 L1019.52 680.799 L1019.52 613.599 L961.92 647.199 Z" fill="#00008b" fill-rule="evenodd" fill-opacity="0.2" stroke="#ff0000" stroke-opacity="0.2" stroke-width="3.2"/>
<path clip-path="url(#clip122)" d="M1069.51 571.703 L1127.11 605.303 L1127.11 538.103 L1069.51 571.703 Z" fill="#00008b" fill-rule="evenodd" fill-opacity="0.2" stroke="#ff0000" stroke-opacity="0.2" stroke-width="3.2"/>
<path clip-path="url(#clip122)" d="M1177.1 552.418 L1234.7 586.018 L1234.7 518.818 L1177.1 552.418 Z" fill="#00008b" fill-rule="evenodd" fill-opacity="0.2" stroke="#ff0000" stroke-opacity="0.2" stroke-width="3.2"/>
<path clip-path="url(#clip122)" d="M1284.7 864.55 L1342.3 898.15 L1342.3 830.95 L1284.7 864.55 Z" fill="#00008b" fill-rule="evenodd" fill-opacity="0.2" stroke="#ff0000" stroke-opacity="0.2" stroke-width="3.2"/>
<path clip-path="url(#clip122)" d="M1392.29 1234.17 L1449.89 1267.77 L1449.89 1200.57 L1392.29 1234.17 Z" fill="#00008b" fill-rule="evenodd" fill-opacity="0.2" stroke="#ff0000" stroke-opacity="0.2" stroke-width="3.2"/>
<path clip-path="url(#clip122)" d="M1499.88 272.463 L1557.48 306.063 L1557.48 238.863 L1499.88 272.463 Z" fill="#00008b" fill-rule="evenodd" fill-opacity="0.2" stroke="#ff0000" stroke-opacity="0.2" stroke-width="3.2"/>
<path clip-path="url(#clip122)" d="M1607.47 1375.32 L1665.07 1408.92 L1665.07 1341.72 L1607.47 1375.32 Z" fill="#00008b" fill-rule="evenodd" fill-opacity="0.2" stroke="#ff0000" stroke-opacity="0.2" stroke-width="3.2"/>
<path clip-path="url(#clip122)" d="M1715.07 622.016 L1772.67 655.616 L1772.67 588.416 L1715.07 622.016 Z" fill="#00008b" fill-rule="evenodd" fill-opacity="0.2" stroke="#ff0000" stroke-opacity="0.2" stroke-width="3.2"/>
<path clip-path="url(#clip122)" d="M1822.66 195.739 L1880.26 229.339 L1880.26 162.139 L1822.66 195.739 Z" fill="#00008b" fill-rule="evenodd" fill-opacity="0.2" stroke="#ff0000" stroke-opacity="0.2" stroke-width="3.2"/>
<path clip-path="url(#clip122)" d="M1930.25 489.255 L1987.85 522.855 L1987.85 455.655 L1930.25 489.255 Z" fill="#00008b" fill-rule="evenodd" fill-opacity="0.2" stroke="#ff0000" stroke-opacity="0.2" stroke-width="3.2"/>
<path clip-path="url(#clip122)" d="M2037.84 1020.25 L2095.44 1053.85 L2095.44 986.651 L2037.84 1020.25 Z" fill="#00008b" fill-rule="evenodd" fill-opacity="0.2" stroke="#ff0000" stroke-opacity="0.2" stroke-width="3.2"/>
<path clip-path="url(#clip122)" d="M2145.44 1206.3 L2203.04 1239.9 L2203.04 1172.7 L2145.44 1206.3 Z" fill="#00008b" fill-rule="evenodd" fill-opacity="0.2" stroke="#ff0000" stroke-opacity="0.2" stroke-width="3.2"/>
<path clip-path="url(#clip122)" d="M2253.03 1046.94 L2310.63 1080.54 L2310.63 1013.34 L2253.03 1046.94 Z" fill="#00008b" fill-rule="evenodd" fill-opacity="0.2" stroke="#ff0000" stroke-opacity="0.2" stroke-width="3.2"/>
<path clip-path="url(#clip120)" d="
M1988.16 435.737 L2280.53 435.737 L2280.53 193.817 L1988.16 193.817  Z
  " fill="#ffffff" fill-rule="evenodd" fill-opacity="1"/>
<polyline clip-path="url(#clip120)" style="stroke:#000000; stroke-width:4; stroke-opacity:1; fill:none" points="
  1988.16,435.737 2280.53,435.737 2280.53,193.817 1988.16,193.817 1988.16,435.737 
  "/>
<path clip-path="url(#clip120)" d="M2084.47 228.697 L2078.45 246.002 L2060.12 246.386 L2074.74 257.471 L2069.42 275.007 L2084.47 264.537 L2099.52 275.007 L2094.2 257.471 L2108.81 246.386 L2090.48 246.002 L2084.47 228.697 Z" fill="#ffa500" fill-rule="evenodd" fill-opacity="0.5" stroke="#ff0000" stroke-opacity="0.5" stroke-width="6.82667"/>
<path clip-path="url(#clip120)" d="M 0 0 M2194.62 273.984 Q2192.81 278.614 2191.1 280.026 Q2189.39 281.438 2186.52 281.438 L2183.11 281.438 L2183.11 277.873 L2185.61 277.873 Q2187.37 277.873 2188.34 277.04 Q2189.32 276.206 2190.5 273.104 L2191.26 271.16 L2180.78 245.651 L2185.29 245.651 L2193.39 265.929 L2201.49 245.651 L2206.01 245.651 L2194.62 273.984 Z" fill="#bebebe" fill-rule="evenodd" fill-opacity="1" /><path clip-path="url(#clip120)" d="M 0 0 M2211.89 267.641 L2219.52 267.641 L2219.52 241.276 L2211.21 242.943 L2211.21 238.683 L2219.48 237.017 L2224.15 237.017 L2224.15 267.641 L2231.79 267.641 L2231.79 271.577 L2211.89 271.577 L2211.89 267.641 Z" fill="#bebebe" fill-rule="evenodd" fill-opacity="1" /><path clip-path="url(#clip120)" d="M2084.47 289.177 L2058.87 314.777 L2084.47 340.377 L2110.07 314.777 L2084.47 289.177 Z" fill="#008000" fill-rule="evenodd" fill-opacity="1" stroke="#ff0000" stroke-opacity="1" stroke-width="2.92571"/>
<path clip-path="url(#clip120)" d="M 0 0 M2194.62 334.464 Q2192.81 339.094 2191.1 340.506 Q2189.39 341.918 2186.52 341.918 L2183.11 341.918 L2183.11 338.353 L2185.61 338.353 Q2187.37 338.353 2188.34 337.52 Q2189.32 336.686 2190.5 333.584 L2191.26 331.64 L2180.78 306.131 L2185.29 306.131 L2193.39 326.409 L2201.49 306.131 L2206.01 306.131 L2194.62 334.464 Z" fill="#bebebe" fill-rule="evenodd" fill-opacity="1" /><path clip-path="url(#clip120)" d="M 0 0 M2215.1 328.121 L2231.42 328.121 L2231.42 332.057 L2209.48 332.057 L2209.48 328.121 Q2212.14 325.367 2216.72 320.737 Q2221.33 316.085 2222.51 314.742 Q2224.76 312.219 2225.64 310.483 Q2226.54 308.723 2226.54 307.034 Q2226.54 304.279 2224.59 302.543 Q2222.67 300.807 2219.57 300.807 Q2217.37 300.807 2214.92 301.571 Q2212.49 302.335 2209.71 303.886 L2209.71 299.163 Q2212.53 298.029 2214.99 297.45 Q2217.44 296.872 2219.48 296.872 Q2224.85 296.872 2228.04 299.557 Q2231.24 302.242 2231.24 306.733 Q2231.24 308.862 2230.43 310.784 Q2229.64 312.682 2227.53 315.274 Q2226.96 315.946 2223.85 319.163 Q2220.75 322.358 2215.1 328.121 Z" fill="#bebebe" fill-rule="evenodd" fill-opacity="1" /><path clip-path="url(#clip120)" d="M2063.99 375.257 L2094.71 393.177 L2094.71 357.337 L2063.99 375.257 Z" fill="#00008b" fill-rule="evenodd" fill-opacity="0.2" stroke="#ff0000" stroke-opacity="0.2" stroke-width="1.70667"/>
<path clip-path="url(#clip120)" d="M 0 0 M2194.62 394.944 Q2192.81 399.574 2191.1 400.986 Q2189.39 402.398 2186.52 402.398 L2183.11 402.398 L2183.11 398.833 L2185.61 398.833 Q2187.37 398.833 2188.34 398 Q2189.32 397.166 2190.5 394.064 L2191.26 392.12 L2180.78 366.611 L2185.29 366.611 L2193.39 386.889 L2201.49 366.611 L2206.01 366.611 L2194.62 394.944 Z" fill="#bebebe" fill-rule="evenodd" fill-opacity="1" /><path clip-path="url(#clip120)" d="M 0 0 M2225.24 373.902 Q2228.6 374.62 2230.47 376.889 Q2232.37 379.157 2232.37 382.49 Q2232.37 387.606 2228.85 390.407 Q2225.34 393.208 2218.85 393.208 Q2216.68 393.208 2214.36 392.768 Q2212.07 392.351 2209.62 391.495 L2209.62 386.981 Q2211.56 388.115 2213.88 388.694 Q2216.19 389.273 2218.71 389.273 Q2223.11 389.273 2225.4 387.537 Q2227.72 385.801 2227.72 382.49 Q2227.72 379.435 2225.57 377.722 Q2223.44 375.986 2219.62 375.986 L2215.59 375.986 L2215.59 372.143 L2219.8 372.143 Q2223.25 372.143 2225.08 370.778 Q2226.91 369.389 2226.91 366.796 Q2226.91 364.134 2225.01 362.722 Q2223.14 361.287 2219.62 361.287 Q2217.7 361.287 2215.5 361.703 Q2213.3 362.12 2210.66 363 L2210.66 358.833 Q2213.32 358.092 2215.64 357.722 Q2217.97 357.352 2220.03 357.352 Q2225.36 357.352 2228.46 359.782 Q2231.56 362.19 2231.56 366.31 Q2231.56 369.18 2229.92 371.171 Q2228.27 373.139 2225.24 373.902 Z" fill="#bebebe" fill-rule="evenodd" fill-opacity="1" /></svg>
