<?xml version="1.0" encoding="utf-8"?>
<svg xmlns="http://www.w3.org/2000/svg" xmlns:xlink="http://www.w3.org/1999/xlink" width="600" height="400" viewBox="0 0 2400 1600">
<defs>
  <clipPath id="clip870">
    <rect x="0" y="0" width="2400" height="1600"/>
  </clipPath>
</defs>
<path clip-path="url(#clip870)" d="
M0 1600 L2400 1600 L2400 0 L0 0  Z
  " fill="#ffffff" fill-rule="evenodd" fill-opacity="1"/>
<defs>
  <clipPath id="clip871">
    <rect x="480" y="0" width="1681" height="1600"/>
  </clipPath>
</defs>
<path clip-path="url(#clip870)" d="
M156.002 1482.13 L2352.76 1482.13 L2352.76 149.392 L156.002 149.392  Z
  " fill="#ffffff" fill-rule="evenodd" fill-opacity="1"/>
<defs>
  <clipPath id="clip872">
    <rect x="156" y="149" width="2198" height="1334"/>
  </clipPath>
</defs>
<polyline clip-path="url(#clip872)" style="stroke:#000000; stroke-width:2; stroke-opacity:0.1; fill:none" points="
  654.471,1482.13 654.471,149.392 
  "/>
<polyline clip-path="url(#clip872)" style="stroke:#000000; stroke-width:2; stroke-opacity:0.1; fill:none" points="
  1199.84,1482.13 1199.84,149.392 
  "/>
<polyline clip-path="url(#clip872)" style="stroke:#000000; stroke-width:2; stroke-opacity:0.1; fill:none" points="
  1745.21,1482.13 1745.21,149.392 
  "/>
<polyline clip-path="url(#clip872)" style="stroke:#000000; stroke-width:2; stroke-opacity:0.1; fill:none" points="
  2290.58,1482.13 2290.58,149.392 
  "/>
<polyline clip-path="url(#clip870)" style="stroke:#000000; stroke-width:4; stroke-opacity:1; fill:none" points="
  156.002,1482.13 2352.76,1482.13 
  "/>
<polyline clip-path="url(#clip870)" style="stroke:#000000; stroke-width:4; stroke-opacity:1; fill:none" points="
  654.471,1482.13 654.471,1466.14 
  "/>
<polyline clip-path="url(#clip870)" style="stroke:#000000; stroke-width:4; stroke-opacity:1; fill:none" points="
  1199.84,1482.13 1199.84,1466.14 
  "/>
<polyline clip-path="url(#clip870)" style="stroke:#000000; stroke-width:4; stroke-opacity:1; fill:none" points="
  1745.21,1482.13 1745.21,1466.14 
  "/>
<polyline clip-path="url(#clip870)" style="stroke:#000000; stroke-width:4; stroke-opacity:1; fill:none" points="
  2290.58,1482.13 2290.58,1466.14 
  "/>
<path clip-path="url(#clip870)" d="M 0 0 M643.534 1509.1 L664.185 1509.1 L664.185 1513.53 L648.351 1513.53 L648.351 1523.06 Q649.497 1522.67 650.643 1522.49 Q651.789 1522.28 652.935 1522.28 Q659.445 1522.28 663.247 1525.85 Q667.049 1529.42 667.049 1535.51 Q667.049 1541.79 663.143 1545.28 Q659.237 1548.74 652.127 1548.74 Q649.679 1548.74 647.127 1548.32 Q644.601 1547.91 641.893 1547.07 L641.893 1541.79 Q644.237 1543.06 646.737 1543.69 Q649.237 1544.31 652.023 1544.31 Q656.528 1544.31 659.159 1541.94 Q661.789 1539.57 661.789 1535.51 Q661.789 1531.45 659.159 1529.08 Q656.528 1526.71 652.023 1526.71 Q649.914 1526.71 647.804 1527.18 Q645.721 1527.65 643.534 1528.64 L643.534 1509.1 Z" fill="#bebebe" fill-rule="evenodd" fill-opacity="1" /><path clip-path="url(#clip870)" d="M 0 0 M1173.83 1543.56 L1182.42 1543.56 L1182.42 1513.9 L1173.07 1515.77 L1173.07 1510.98 L1182.37 1509.1 L1187.63 1509.1 L1187.63 1543.56 L1196.22 1543.56 L1196.22 1547.98 L1173.83 1547.98 L1173.83 1543.56 Z" fill="#bebebe" fill-rule="evenodd" fill-opacity="1" /><path clip-path="url(#clip870)" d="M 0 0 M1213.18 1512.57 Q1209.11 1512.57 1207.06 1516.58 Q1205.02 1520.56 1205.02 1528.58 Q1205.02 1536.58 1207.06 1540.59 Q1209.11 1544.57 1213.18 1544.57 Q1217.26 1544.57 1219.29 1540.59 Q1221.35 1536.58 1221.35 1528.58 Q1221.35 1520.56 1219.29 1516.58 Q1217.26 1512.57 1213.18 1512.57 M1213.18 1508.4 Q1219.71 1508.4 1223.15 1513.58 Q1226.61 1518.74 1226.61 1528.58 Q1226.61 1538.4 1223.15 1543.58 Q1219.71 1548.74 1213.18 1548.74 Q1206.64 1548.74 1203.18 1543.58 Q1199.74 1538.4 1199.74 1528.58 Q1199.74 1518.74 1203.18 1513.58 Q1206.64 1508.4 1213.18 1508.4 Z" fill="#bebebe" fill-rule="evenodd" fill-opacity="1" /><path clip-path="url(#clip870)" d="M 0 0 M1719.76 1543.56 L1728.35 1543.56 L1728.35 1513.9 L1719 1515.77 L1719 1510.98 L1728.3 1509.1 L1733.56 1509.1 L1733.56 1543.56 L1742.15 1543.56 L1742.15 1547.98 L1719.76 1547.98 L1719.76 1543.56 Z" fill="#bebebe" fill-rule="evenodd" fill-opacity="1" /><path clip-path="url(#clip870)" d="M 0 0 M1747.91 1509.1 L1768.56 1509.1 L1768.56 1513.53 L1752.73 1513.53 L1752.73 1523.06 Q1753.87 1522.67 1755.02 1522.49 Q1756.16 1522.28 1757.31 1522.28 Q1763.82 1522.28 1767.62 1525.85 Q1771.42 1529.42 1771.42 1535.51 Q1771.42 1541.79 1767.52 1545.28 Q1763.61 1548.74 1756.5 1548.74 Q1754.05 1548.74 1751.5 1548.32 Q1748.98 1547.91 1746.27 1547.07 L1746.27 1541.79 Q1748.61 1543.06 1751.11 1543.69 Q1753.61 1544.31 1756.4 1544.31 Q1760.9 1544.31 1763.53 1541.94 Q1766.16 1539.57 1766.16 1535.51 Q1766.16 1531.45 1763.53 1529.08 Q1760.9 1526.71 1756.4 1526.71 Q1754.29 1526.71 1752.18 1527.18 Q1750.1 1527.65 1747.91 1528.64 L1747.91 1509.1 Z" fill="#bebebe" fill-rule="evenodd" fill-opacity="1" /><path clip-path="url(#clip870)" d="M 0 0 M2269.37 1543.56 L2287.73 1543.56 L2287.73 1547.98 L2263.04 1547.98 L2263.04 1543.56 Q2266.04 1540.46 2271.2 1535.25 Q2276.38 1530.02 2277.71 1528.5 Q2280.23 1525.67 2281.22 1523.71 Q2282.24 1521.73 2282.24 1519.83 Q2282.24 1516.73 2280.05 1514.78 Q2277.89 1512.83 2274.4 1512.83 Q2271.92 1512.83 2269.16 1513.69 Q2266.43 1514.55 2263.31 1516.29 L2263.31 1510.98 Q2266.48 1509.7 2269.24 1509.05 Q2272 1508.4 2274.29 1508.4 Q2280.34 1508.4 2283.93 1511.42 Q2287.52 1514.44 2287.52 1519.49 Q2287.52 1521.89 2286.61 1524.05 Q2285.73 1526.19 2283.36 1529.1 Q2282.71 1529.86 2279.22 1533.48 Q2275.73 1537.07 2269.37 1543.56 Z" fill="#bebebe" fill-rule="evenodd" fill-opacity="1" /><path clip-path="url(#clip870)" d="M 0 0 M2304.69 1512.57 Q2300.62 1512.57 2298.57 1516.58 Q2296.53 1520.56 2296.53 1528.58 Q2296.53 1536.58 2298.57 1540.59 Q2300.62 1544.57 2304.69 1544.57 Q2308.77 1544.57 2310.8 1540.59 Q2312.86 1536.58 2312.86 1528.58 Q2312.86 1520.56 2310.8 1516.58 Q2308.77 1512.57 2304.69 1512.57 M2304.69 1508.4 Q2311.22 1508.4 2314.66 1513.58 Q2318.12 1518.74 2318.12 1528.58 Q2318.12 1538.4 2314.66 1543.58 Q2311.22 1548.74 2304.69 1548.74 Q2298.15 1548.74 2294.69 1543.58 Q2291.25 1538.4 2291.25 1528.58 Q2291.25 1518.74 2294.69 1513.58 Q2298.15 1508.4 2304.69 1508.4 Z" fill="#bebebe" fill-rule="evenodd" fill-opacity="1" /><polyline clip-path="url(#clip872)" style="stroke:#000000; stroke-width:2; stroke-opacity:0.1; fill:none" points="
  156.002,1225.34 2352.76,1225.34 
  "/>
<polyline clip-path="url(#clip872)" style="stroke:#000000; stroke-width:2; stroke-opacity:0.1; fill:none" points="
  156.002,961.988 2352.76,961.988 
  "/>
<polyline clip-path="url(#clip872)" style="stroke:#000000; stroke-width:2; stroke-opacity:0.1; fill:none" points="
  156.002,698.639 2352.76,698.639 
  "/>
<polyline clip-path="url(#clip872)" style="stroke:#000000; stroke-width:2; stroke-opacity:0.1; fill:none" points="
  156.002,435.291 2352.76,435.291 
  "/>
<polyline clip-path="url(#clip872)" style="stroke:#000000; stroke-width:2; stroke-opacity:0.1; fill:none" points="
  156.002,171.943 2352.76,171.943 
  "/>
<polyline clip-path="url(#clip870)" style="stroke:#000000; stroke-width:4; stroke-opacity:1; fill:none" points="
  156.002,1482.13 156.002,149.392 
  "/>
<polyline clip-path="url(#clip870)" style="stroke:#000000; stroke-width:4; stroke-opacity:1; fill:none" points="
  156.002,1225.34 182.363,1225.34 
  "/>
<polyline clip-path="url(#clip870)" style="stroke:#000000; stroke-width:4; stroke-opacity:1; fill:none" points="
  156.002,961.988 182.363,961.988 
  "/>
<polyline clip-path="url(#clip870)" style="stroke:#000000; stroke-width:4; stroke-opacity:1; fill:none" points="
  156.002,698.639 182.363,698.639 
  "/>
<polyline clip-path="url(#clip870)" style="stroke:#000000; stroke-width:4; stroke-opacity:1; fill:none" points="
  156.002,435.291 182.363,435.291 
  "/>
<polyline clip-path="url(#clip870)" style="stroke:#000000; stroke-width:4; stroke-opacity:1; fill:none" points="
  156.002,171.943 182.363,171.943 
  "/>
<path clip-path="url(#clip870)" d="M 0 0 M66.7733 1209.36 Q62.7108 1209.36 60.6535 1213.37 Q58.6223 1217.35 58.6223 1225.38 Q58.6223 1233.37 60.6535 1237.38 Q62.7108 1241.36 66.7733 1241.36 Q70.8618 1241.36 72.8931 1237.38 Q74.9503 1233.37 74.9503 1225.38 Q74.9503 1217.35 72.8931 1213.37 Q70.8618 1209.36 66.7733 1209.36 M66.7733 1205.19 Q73.3097 1205.19 76.7472 1210.38 Q80.2107 1215.53 80.2107 1225.38 Q80.2107 1235.19 76.7472 1240.38 Q73.3097 1245.53 66.7733 1245.53 Q60.2369 1245.53 56.7733 1240.38 Q53.3359 1235.19 53.3359 1225.38 Q53.3359 1215.53 56.7733 1210.38 Q60.2369 1205.19 66.7733 1205.19 Z" fill="#bebebe" fill-rule="evenodd" fill-opacity="1" /><path clip-path="url(#clip870)" d="M 0 0 M85.9138 1238.16 L91.4086 1238.16 L91.4086 1244.78 L85.9138 1244.78 L85.9138 1238.16 Z" fill="#bebebe" fill-rule="evenodd" fill-opacity="1" /><path clip-path="url(#clip870)" d="M 0 0 M101.643 1240.35 L120.002 1240.35 L120.002 1244.78 L95.3148 1244.78 L95.3148 1240.35 Q98.3096 1237.25 103.466 1232.04 Q108.648 1226.81 109.976 1225.3 Q112.502 1222.46 113.492 1220.51 Q114.507 1218.53 114.507 1216.63 Q114.507 1213.53 112.32 1211.57 Q110.158 1209.62 106.669 1209.62 Q104.195 1209.62 101.435 1210.48 Q98.7002 1211.34 95.5752 1213.08 L95.5752 1207.77 Q98.7523 1206.5 101.513 1205.84 Q104.273 1205.19 106.565 1205.19 Q112.606 1205.19 116.2 1208.21 Q119.794 1211.23 119.794 1216.29 Q119.794 1218.68 118.882 1220.84 Q117.997 1222.98 115.627 1225.9 Q114.976 1226.65 111.487 1230.27 Q107.997 1233.86 101.643 1240.35 Z" fill="#bebebe" fill-rule="evenodd" fill-opacity="1" /><path clip-path="url(#clip870)" d="M 0 0 M64.4296 946.011 Q60.3671 946.011 58.3098 950.022 Q56.2786 954.006 56.2786 962.027 Q56.2786 970.022 58.3098 974.032 Q60.3671 978.016 64.4296 978.016 Q68.5181 978.016 70.5493 974.032 Q72.6066 970.022 72.6066 962.027 Q72.6066 954.006 70.5493 950.022 Q68.5181 946.011 64.4296 946.011 M64.4296 941.845 Q70.966 941.845 74.4035 947.027 Q77.867 952.183 77.867 962.027 Q77.867 971.845 74.4035 977.027 Q70.966 982.183 64.4296 982.183 Q57.8931 982.183 54.4296 977.027 Q50.9921 971.845 50.9921 962.027 Q50.9921 952.183 54.4296 947.027 Q57.8931 941.845 64.4296 941.845 Z" fill="#bebebe" fill-rule="evenodd" fill-opacity="1" /><path clip-path="url(#clip870)" d="M 0 0 M83.5701 974.813 L89.0648 974.813 L89.0648 981.428 L83.5701 981.428 L83.5701 974.813 Z" fill="#bebebe" fill-rule="evenodd" fill-opacity="1" /><path clip-path="url(#clip870)" d="M 0 0 M109.221 947.131 L95.9398 967.886 L109.221 967.886 L109.221 947.131 M107.841 942.548 L114.455 942.548 L114.455 967.886 L120.002 967.886 L120.002 972.261 L114.455 972.261 L114.455 981.428 L109.221 981.428 L109.221 972.261 L91.669 972.261 L91.669 967.183 L107.841 942.548 Z" fill="#bebebe" fill-rule="evenodd" fill-opacity="1" /><path clip-path="url(#clip870)" d="M 0 0 M64.7941 682.663 Q60.7317 682.663 58.6744 686.673 Q56.6431 690.658 56.6431 698.678 Q56.6431 706.673 58.6744 710.684 Q60.7317 714.668 64.7941 714.668 Q68.8827 714.668 70.9139 710.684 Q72.9712 706.673 72.9712 698.678 Q72.9712 690.658 70.9139 686.673 Q68.8827 682.663 64.7941 682.663 M64.7941 678.496 Q71.3306 678.496 74.768 683.679 Q78.2316 688.835 78.2316 698.678 Q78.2316 708.496 74.768 713.678 Q71.3306 718.835 64.7941 718.835 Q58.2577 718.835 54.7942 713.678 Q51.3567 708.496 51.3567 698.678 Q51.3567 688.835 54.7942 683.679 Q58.2577 678.496 64.7941 678.496 Z" fill="#bebebe" fill-rule="evenodd" fill-opacity="1" /><path clip-path="url(#clip870)" d="M 0 0 M83.9347 711.465 L89.4294 711.465 L89.4294 718.079 L83.9347 718.079 L83.9347 711.465 Z" fill="#bebebe" fill-rule="evenodd" fill-opacity="1" /><path clip-path="url(#clip870)" d="M 0 0 M107.033 696.543 Q103.492 696.543 101.409 698.965 Q99.3512 701.387 99.3512 705.606 Q99.3512 709.798 101.409 712.246 Q103.492 714.668 107.033 714.668 Q110.575 714.668 112.632 712.246 Q114.716 709.798 114.716 705.606 Q114.716 701.387 112.632 698.965 Q110.575 696.543 107.033 696.543 M117.476 680.059 L117.476 684.85 Q115.497 683.913 113.466 683.418 Q111.461 682.923 109.481 682.923 Q104.273 682.923 101.513 686.439 Q98.7783 689.955 98.3877 697.064 Q99.9242 694.798 102.242 693.6 Q104.56 692.376 107.346 692.376 Q113.205 692.376 116.591 695.944 Q120.002 699.486 120.002 705.606 Q120.002 711.595 116.461 715.215 Q112.919 718.835 107.033 718.835 Q100.289 718.835 96.721 713.678 Q93.1534 708.496 93.1534 698.678 Q93.1534 689.46 97.5283 683.991 Q101.903 678.496 109.273 678.496 Q111.252 678.496 113.257 678.887 Q115.289 679.278 117.476 680.059 Z" fill="#bebebe" fill-rule="evenodd" fill-opacity="1" /><path clip-path="url(#clip870)" d="M 0 0 M65.0806 419.315 Q61.0181 419.315 58.9608 423.325 Q56.9296 427.309 56.9296 435.33 Q56.9296 443.325 58.9608 447.335 Q61.0181 451.32 65.0806 451.32 Q69.1691 451.32 71.2004 447.335 Q73.2576 443.325 73.2576 435.33 Q73.2576 427.309 71.2004 423.325 Q69.1691 419.315 65.0806 419.315 M65.0806 415.148 Q71.617 415.148 75.0545 420.33 Q78.518 425.486 78.518 435.33 Q78.518 445.148 75.0545 450.33 Q71.617 455.486 65.0806 455.486 Q58.5442 455.486 55.0806 450.33 Q51.6432 445.148 51.6432 435.33 Q51.6432 425.486 55.0806 420.33 Q58.5442 415.148 65.0806 415.148 Z" fill="#bebebe" fill-rule="evenodd" fill-opacity="1" /><path clip-path="url(#clip870)" d="M 0 0 M84.2211 448.116 L89.7159 448.116 L89.7159 454.731 L84.2211 454.731 L84.2211 448.116 Z" fill="#bebebe" fill-rule="evenodd" fill-opacity="1" /><path clip-path="url(#clip870)" d="M 0 0 M106.669 436.268 Q102.919 436.268 100.757 438.273 Q98.6221 440.278 98.6221 443.794 Q98.6221 447.309 100.757 449.314 Q102.919 451.32 106.669 451.32 Q110.419 451.32 112.58 449.314 Q114.742 447.283 114.742 443.794 Q114.742 440.278 112.58 438.273 Q110.445 436.268 106.669 436.268 M101.409 434.028 Q98.0231 433.195 96.1221 430.877 Q94.2471 428.559 94.2471 425.226 Q94.2471 420.565 97.5544 417.856 Q100.888 415.148 106.669 415.148 Q112.476 415.148 115.783 417.856 Q119.091 420.565 119.091 425.226 Q119.091 428.559 117.19 430.877 Q115.315 433.195 111.955 434.028 Q115.757 434.913 117.867 437.491 Q120.002 440.07 120.002 443.794 Q120.002 449.445 116.539 452.465 Q113.101 455.486 106.669 455.486 Q100.237 455.486 96.7731 452.465 Q93.3356 449.445 93.3356 443.794 Q93.3356 440.07 95.4711 437.491 Q97.6065 434.913 101.409 434.028 M99.4814 425.721 Q99.4814 428.742 101.356 430.434 Q103.257 432.127 106.669 432.127 Q110.054 432.127 111.955 430.434 Q113.882 428.742 113.882 425.721 Q113.882 422.7 111.955 421.007 Q110.054 419.315 106.669 419.315 Q103.257 419.315 101.356 421.007 Q99.4814 422.7 99.4814 425.721 Z" fill="#bebebe" fill-rule="evenodd" fill-opacity="1" /><path clip-path="url(#clip870)" d="M 0 0 M56.0181 186.956 L64.6118 186.956 L64.6118 157.294 L55.2629 159.169 L55.2629 154.378 L64.5598 152.503 L69.8202 152.503 L69.8202 186.956 L78.4139 186.956 L78.4139 191.383 L56.0181 191.383 L56.0181 186.956 Z" fill="#bebebe" fill-rule="evenodd" fill-opacity="1" /><path clip-path="url(#clip870)" d="M 0 0 M84.1169 184.768 L89.6117 184.768 L89.6117 191.383 L84.1169 191.383 L84.1169 184.768 Z" fill="#bebebe" fill-rule="evenodd" fill-opacity="1" /><path clip-path="url(#clip870)" d="M 0 0 M106.565 155.966 Q102.502 155.966 100.445 159.976 Q98.4137 163.961 98.4137 171.982 Q98.4137 179.976 100.445 183.987 Q102.502 187.971 106.565 187.971 Q110.653 187.971 112.685 183.987 Q114.742 179.976 114.742 171.982 Q114.742 163.961 112.685 159.976 Q110.653 155.966 106.565 155.966 M106.565 151.799 Q113.101 151.799 116.539 156.982 Q120.002 162.138 120.002 171.982 Q120.002 181.799 116.539 186.982 Q113.101 192.138 106.565 192.138 Q100.028 192.138 96.5648 186.982 Q93.1273 181.799 93.1273 171.982 Q93.1273 162.138 96.5648 156.982 Q100.028 151.799 106.565 151.799 Z" fill="#bebebe" fill-rule="evenodd" fill-opacity="1" /><path clip-path="url(#clip870)" d="M 0 0 M948.507 20.1156 L948.507 31.516 Q941.852 28.3332 935.949 26.7707 Q930.046 25.2082 924.549 25.2082 Q915 25.2082 909.792 28.9119 Q904.641 32.6156 904.641 39.4442 Q904.641 45.1734 908.056 48.1247 Q911.528 51.0182 921.134 52.8122 L928.194 54.259 Q941.273 56.7474 947.465 63.0552 Q953.715 69.3052 953.715 79.8375 Q953.715 92.3953 945.266 98.8768 Q936.875 105.358 920.613 105.358 Q914.479 105.358 907.535 103.969 Q900.648 102.58 893.241 99.8606 L893.241 87.8236 Q900.359 91.8166 907.188 93.8421 Q914.016 95.8675 920.613 95.8675 Q930.625 95.8675 936.065 91.9324 Q941.505 87.9972 941.505 80.7056 Q941.505 74.3399 937.569 70.7519 Q933.692 67.164 924.78 65.37 L917.662 63.9811 Q904.583 61.377 898.739 55.8215 Q892.894 50.2659 892.894 40.3702 Q892.894 28.9119 900.938 22.3147 Q909.039 15.7175 923.218 15.7175 Q929.294 15.7175 935.602 16.817 Q941.91 17.9166 948.507 20.1156 Z" fill="#bebebe" fill-rule="evenodd" fill-opacity="1" /><path clip-path="url(#clip870)" d="M 0 0 M1020.32 68.6107 L1020.32 73.819 L971.366 73.819 Q972.06 84.8144 977.963 90.6014 Q983.923 96.3305 994.514 96.3305 Q1000.65 96.3305 1006.38 94.8259 Q1012.16 93.3213 1017.84 90.312 L1017.84 100.381 Q1012.11 102.812 1006.09 104.085 Q1000.07 105.358 993.877 105.358 Q978.368 105.358 969.282 96.3305 Q960.254 87.3028 960.254 71.9093 Q960.254 55.9951 968.819 46.678 Q977.442 37.303 992.025 37.303 Q1005.1 37.303 1012.68 45.7521 Q1020.32 54.1432 1020.32 68.6107 M1009.68 65.4858 Q1009.56 56.7474 1004.76 51.5391 Q1000.01 46.3308 992.141 46.3308 Q983.229 46.3308 977.847 51.3655 Q972.523 56.4002 971.713 65.5436 L1009.68 65.4858 Z" fill="#bebebe" fill-rule="evenodd" fill-opacity="1" /><path clip-path="url(#clip870)" d="M 0 0 M1069.05 48.8192 Q1067.26 47.7775 1065.12 47.3146 Q1063.03 46.7937 1060.49 46.7937 Q1051.46 46.7937 1046.6 52.6965 Q1041.79 58.5414 1041.79 69.5367 L1041.79 103.68 L1031.09 103.68 L1031.09 38.8655 L1041.79 38.8655 L1041.79 48.9349 Q1045.15 43.0322 1050.53 40.1965 Q1055.91 37.303 1063.61 37.303 Q1064.71 37.303 1066.04 37.4767 Q1067.37 37.5924 1068.99 37.8817 L1069.05 48.8192 Z" fill="#bebebe" fill-rule="evenodd" fill-opacity="1" /><path clip-path="url(#clip870)" d="M 0 0 M1080.22 38.8655 L1090.87 38.8655 L1090.87 103.68 L1080.22 103.68 L1080.22 38.8655 M1080.22 13.6342 L1090.87 13.6342 L1090.87 27.1179 L1080.22 27.1179 L1080.22 13.6342 Z" fill="#bebebe" fill-rule="evenodd" fill-opacity="1" /><path clip-path="url(#clip870)" d="M 0 0 M1157.48 68.6107 L1157.48 73.819 L1108.52 73.819 Q1109.21 84.8144 1115.11 90.6014 Q1121.08 96.3305 1131.67 96.3305 Q1137.8 96.3305 1143.53 94.8259 Q1149.32 93.3213 1154.99 90.312 L1154.99 100.381 Q1149.26 102.812 1143.24 104.085 Q1137.22 105.358 1131.03 105.358 Q1115.52 105.358 1106.43 96.3305 Q1097.41 87.3028 1097.41 71.9093 Q1097.41 55.9951 1105.97 46.678 Q1114.59 37.303 1129.18 37.303 Q1142.26 37.303 1149.84 45.7521 Q1157.48 54.1432 1157.48 68.6107 M1146.83 65.4858 Q1146.71 56.7474 1141.91 51.5391 Q1137.16 46.3308 1129.29 46.3308 Q1120.38 46.3308 1115 51.3655 Q1109.67 56.4002 1108.86 65.5436 L1146.83 65.4858 Z" fill="#bebebe" fill-rule="evenodd" fill-opacity="1" /><path clip-path="url(#clip870)" d="M 0 0 M1216.39 17.28 L1216.39 49.3979 L1206.55 49.3979 L1206.55 17.28 L1216.39 17.28 Z" fill="#bebebe" fill-rule="evenodd" fill-opacity="1" /><path clip-path="url(#clip870)" d="M 0 0 M1268.88 40.7752 L1268.88 50.8446 Q1264.36 48.5298 1259.5 47.3724 Q1254.64 46.215 1249.43 46.215 Q1241.5 46.215 1237.51 48.6456 Q1233.57 51.0761 1233.57 55.9372 Q1233.57 59.6409 1236.41 61.7821 Q1239.25 63.8654 1247.81 65.7751 L1251.46 66.5853 Q1262.8 69.0158 1267.54 73.4718 Q1272.35 77.87 1272.35 85.7982 Q1272.35 94.8259 1265.17 100.092 Q1258.05 105.358 1245.55 105.358 Q1240.35 105.358 1234.67 104.317 Q1229.06 103.333 1222.81 101.307 L1222.81 90.312 Q1228.71 93.3791 1234.44 94.9416 Q1240.17 96.4462 1245.79 96.4462 Q1253.31 96.4462 1257.36 93.9 Q1261.41 91.2958 1261.41 86.6083 Q1261.41 82.2681 1258.46 79.9533 Q1255.57 77.6385 1245.67 75.4973 L1241.97 74.6292 Q1232.07 72.5459 1227.67 68.2635 Q1223.27 63.9233 1223.27 56.4002 Q1223.27 47.2567 1229.76 42.2799 Q1236.24 37.303 1248.16 37.303 Q1254.06 37.303 1259.27 38.1711 Q1264.48 39.0391 1268.88 40.7752 Z" fill="#bebebe" fill-rule="evenodd" fill-opacity="1" /><path clip-path="url(#clip870)" d="M 0 0 M1330.16 41.3539 L1330.16 51.3076 Q1325.65 48.8192 1321.07 47.6039 Q1316.56 46.3308 1311.93 46.3308 Q1301.57 46.3308 1295.84 52.928 Q1290.11 59.4673 1290.11 71.3306 Q1290.11 83.194 1295.84 89.7912 Q1301.57 96.3305 1311.93 96.3305 Q1316.56 96.3305 1321.07 95.1152 Q1325.65 93.8421 1330.16 91.3537 L1330.16 101.192 Q1325.7 103.275 1320.9 104.317 Q1316.16 105.358 1310.77 105.358 Q1296.13 105.358 1287.51 96.1569 Q1278.89 86.9556 1278.89 71.3306 Q1278.89 55.4742 1287.57 46.3886 Q1296.31 37.303 1311.47 37.303 Q1316.39 37.303 1321.07 38.3447 Q1325.76 39.3285 1330.16 41.3539 Z" fill="#bebebe" fill-rule="evenodd" fill-opacity="1" /><path clip-path="url(#clip870)" d="M 0 0 M1370.78 71.0992 Q1357.88 71.0992 1352.9 74.0505 Q1347.93 77.0019 1347.93 84.1199 Q1347.93 89.7912 1351.63 93.1476 Q1355.39 96.4462 1361.81 96.4462 Q1370.67 96.4462 1375.99 90.1963 Q1381.37 83.8884 1381.37 73.4718 L1381.37 71.0992 L1370.78 71.0992 M1392.02 66.701 L1392.02 103.68 L1381.37 103.68 L1381.37 93.8421 Q1377.73 99.7448 1372.29 102.58 Q1366.85 105.358 1358.98 105.358 Q1349.03 105.358 1343.12 99.8027 Q1337.28 94.1893 1337.28 84.8144 Q1337.28 73.8769 1344.57 68.3214 Q1351.92 62.7659 1366.44 62.7659 L1381.37 62.7659 L1381.37 61.7242 Q1381.37 54.3747 1376.51 50.3817 Q1371.71 46.3308 1362.97 46.3308 Q1357.42 46.3308 1352.15 47.6618 Q1346.88 48.9928 1342.02 51.6548 L1342.02 41.8169 Q1347.87 39.56 1353.37 38.4604 Q1358.86 37.303 1364.07 37.303 Q1378.13 37.303 1385.08 44.5947 Q1392.02 51.8863 1392.02 66.701 Z" fill="#bebebe" fill-rule="evenodd" fill-opacity="1" /><path clip-path="url(#clip870)" d="M 0 0 M1413.72 20.4629 L1413.72 38.8655 L1435.66 38.8655 L1435.66 47.141 L1413.72 47.141 L1413.72 82.3259 Q1413.72 90.2541 1415.87 92.5111 Q1418.06 94.768 1424.72 94.768 L1435.66 94.768 L1435.66 103.68 L1424.72 103.68 Q1412.39 103.68 1407.71 99.1083 Q1403.02 94.4787 1403.02 82.3259 L1403.02 47.141 L1395.21 47.141 L1395.21 38.8655 L1403.02 38.8655 L1403.02 20.4629 L1413.72 20.4629 Z" fill="#bebebe" fill-rule="evenodd" fill-opacity="1" /><path clip-path="url(#clip870)" d="M 0 0 M1457.36 20.4629 L1457.36 38.8655 L1479.29 38.8655 L1479.29 47.141 L1457.36 47.141 L1457.36 82.3259 Q1457.36 90.2541 1459.5 92.5111 Q1461.7 94.768 1468.35 94.768 L1479.29 94.768 L1479.29 103.68 L1468.35 103.68 Q1456.03 103.68 1451.34 99.1083 Q1446.65 94.4787 1446.65 82.3259 L1446.65 47.141 L1438.84 47.141 L1438.84 38.8655 L1446.65 38.8655 L1446.65 20.4629 L1457.36 20.4629 Z" fill="#bebebe" fill-rule="evenodd" fill-opacity="1" /><path clip-path="url(#clip870)" d="M 0 0 M1545.9 68.6107 L1545.9 73.819 L1496.94 73.819 Q1497.64 84.8144 1503.54 90.6014 Q1509.5 96.3305 1520.09 96.3305 Q1526.22 96.3305 1531.95 94.8259 Q1537.74 93.3213 1543.41 90.312 L1543.41 100.381 Q1537.68 102.812 1531.66 104.085 Q1525.64 105.358 1519.45 105.358 Q1503.94 105.358 1494.86 96.3305 Q1485.83 87.3028 1485.83 71.9093 Q1485.83 55.9951 1494.4 46.678 Q1503.02 37.303 1517.6 37.303 Q1530.68 37.303 1538.26 45.7521 Q1545.9 54.1432 1545.9 68.6107 M1535.25 65.4858 Q1535.14 56.7474 1530.33 51.5391 Q1525.59 46.3308 1517.72 46.3308 Q1508.8 46.3308 1503.42 51.3655 Q1498.1 56.4002 1497.29 65.5436 L1535.25 65.4858 Z" fill="#bebebe" fill-rule="evenodd" fill-opacity="1" /><path clip-path="url(#clip870)" d="M 0 0 M1594.63 48.8192 Q1592.83 47.7775 1590.69 47.3146 Q1588.61 46.7937 1586.06 46.7937 Q1577.03 46.7937 1572.17 52.6965 Q1567.37 58.5414 1567.37 69.5367 L1567.37 103.68 L1556.66 103.68 L1556.66 38.8655 L1567.37 38.8655 L1567.37 48.9349 Q1570.73 43.0322 1576.11 40.1965 Q1581.49 37.303 1589.19 37.303 Q1590.29 37.303 1591.62 37.4767 Q1592.95 37.5924 1594.57 37.8817 L1594.63 48.8192 Z" fill="#bebebe" fill-rule="evenodd" fill-opacity="1" /><path clip-path="url(#clip870)" d="M 0 0 M1615.86 17.28 L1615.86 49.3979 L1606.03 49.3979 L1606.03 17.28 L1615.86 17.28 Z" fill="#bebebe" fill-rule="evenodd" fill-opacity="1" /><path clip-path="url(#clip872)" d="M218.174 353.185 L215.354 361.297 L206.762 361.477 L213.614 366.673 L211.118 374.893 L218.174 369.985 L225.23 374.893 L222.734 366.673 L229.586 361.477 L220.994 361.297 L218.174 353.185 Z" fill="#ffa500" fill-rule="evenodd" fill-opacity="0.5" stroke="#ff0000" stroke-opacity="0.5" stroke-width="3.2"/>
<path clip-path="url(#clip872)" d="M327.249 207.956 L324.429 216.068 L315.837 216.248 L322.689 221.444 L320.193 229.664 L327.249 224.756 L334.305 229.664 L331.809 221.444 L338.661 216.248 L330.069 216.068 L327.249 207.956 Z" fill="#ffa500" fill-rule="evenodd" fill-opacity="0.5" stroke="#ff0000" stroke-opacity="0.5" stroke-width="3.2"/>
<path clip-path="url(#clip872)" d="M436.323 1058.83 L433.503 1066.94 L424.911 1067.12 L431.763 1072.32 L429.267 1080.54 L436.323 1075.63 L443.379 1080.54 L440.883 1072.32 L447.735 1067.12 L439.143 1066.94 L436.323 1058.83 Z" fill="#ffa500" fill-rule="evenodd" fill-opacity="0.5" stroke="#ff0000" stroke-opacity="0.5" stroke-width="3.2"/>
<path clip-path="url(#clip872)" d="M545.397 980.476 L542.577 988.588 L533.985 988.768 L540.837 993.964 L538.341 1002.18 L545.397 997.276 L552.453 1002.18 L549.957 993.964 L556.809 988.768 L548.217 988.588 L545.397 980.476 Z" fill="#ffa500" fill-rule="evenodd" fill-opacity="0.5" stroke="#ff0000" stroke-opacity="0.5" stroke-width="3.2"/>
<path clip-path="url(#clip872)" d="M654.471 231.371 L651.651 239.483 L643.059 239.663 L649.911 244.859 L647.415 253.079 L654.471 248.171 L661.527 253.079 L659.031 244.859 L665.883 239.663 L657.291 239.483 L654.471 231.371 Z" fill="#ffa500" fill-rule="evenodd" fill-opacity="0.5" stroke="#ff0000" stroke-opacity="0.5" stroke-width="3.2"/>
<path clip-path="url(#clip872)" d="M763.545 596.914 L760.725 605.026 L752.133 605.206 L758.985 610.402 L756.489 618.622 L763.545 613.714 L770.601 618.622 L768.105 610.402 L774.957 605.206 L766.365 605.026 L763.545 596.914 Z" fill="#ffa500" fill-rule="evenodd" fill-opacity="0.5" stroke="#ff0000" stroke-opacity="0.5" stroke-width="3.2"/>
<path clip-path="url(#clip872)" d="M872.619 1193.74 L869.799 1201.86 L861.207 1202.04 L868.059 1207.23 L865.563 1215.45 L872.619 1210.54 L879.675 1215.45 L877.179 1207.23 L884.031 1202.04 L875.439 1201.86 L872.619 1193.74 Z" fill="#ffa500" fill-rule="evenodd" fill-opacity="0.5" stroke="#ff0000" stroke-opacity="0.5" stroke-width="3.2"/>
<path clip-path="url(#clip872)" d="M981.694 202.351 L978.874 210.463 L970.282 210.643 L977.134 215.839 L974.638 224.059 L981.694 219.151 L988.75 224.059 L986.254 215.839 L993.106 210.643 L984.514 210.463 L981.694 202.351 Z" fill="#ffa500" fill-rule="evenodd" fill-opacity="0.5" stroke="#ff0000" stroke-opacity="0.5" stroke-width="3.2"/>
<path clip-path="url(#clip872)" d="M1090.77 257.057 L1087.95 265.169 L1079.36 265.349 L1086.21 270.545 L1083.71 278.765 L1090.77 273.857 L1097.82 278.765 L1095.33 270.545 L1102.18 265.349 L1093.59 265.169 L1090.77 257.057 Z" fill="#ffa500" fill-rule="evenodd" fill-opacity="0.5" stroke="#ff0000" stroke-opacity="0.5" stroke-width="3.2"/>
<path clip-path="url(#clip872)" d="M1199.84 1130.57 L1197.02 1138.68 L1188.43 1138.86 L1195.28 1144.05 L1192.79 1152.27 L1199.84 1147.37 L1206.9 1152.27 L1204.4 1144.05 L1211.25 1138.86 L1202.66 1138.68 L1199.84 1130.57 Z" fill="#ffa500" fill-rule="evenodd" fill-opacity="0.5" stroke="#ff0000" stroke-opacity="0.5" stroke-width="3.2"/>
<path clip-path="url(#clip872)" d="M1308.92 1349.15 L1306.1 1357.26 L1297.5 1357.44 L1304.36 1362.64 L1301.86 1370.86 L1308.92 1365.95 L1315.97 1370.86 L1313.48 1362.64 L1320.33 1357.44 L1311.74 1357.26 L1308.92 1349.15 Z" fill="#ffa500" fill-rule="evenodd" fill-opacity="0.5" stroke="#ff0000" stroke-opacity="0.5" stroke-width="3.2"/>
<path clip-path="url(#clip872)" d="M1417.99 299.882 L1415.17 307.994 L1406.58 308.174 L1413.43 313.37 L1410.93 321.59 L1417.99 316.682 L1425.05 321.59 L1422.55 313.37 L1429.4 308.174 L1420.81 307.994 L1417.99 299.882 Z" fill="#ffa500" fill-rule="evenodd" fill-opacity="0.5" stroke="#ff0000" stroke-opacity="0.5" stroke-width="3.2"/>
<path clip-path="url(#clip872)" d="M1527.06 1226.3 L1524.24 1234.41 L1515.65 1234.59 L1522.5 1239.79 L1520.01 1248.01 L1527.06 1243.1 L1534.12 1248.01 L1531.62 1239.79 L1538.48 1234.59 L1529.88 1234.41 L1527.06 1226.3 Z" fill="#ffa500" fill-rule="evenodd" fill-opacity="0.5" stroke="#ff0000" stroke-opacity="0.5" stroke-width="3.2"/>
<path clip-path="url(#clip872)" d="M1636.14 199.397 L1633.32 207.509 L1624.73 207.689 L1631.58 212.885 L1629.08 221.105 L1636.14 216.197 L1643.19 221.105 L1640.7 212.885 L1647.55 207.689 L1638.96 207.509 L1636.14 199.397 Z" fill="#ffa500" fill-rule="evenodd" fill-opacity="0.5" stroke="#ff0000" stroke-opacity="0.5" stroke-width="3.2"/>
<path clip-path="url(#clip872)" d="M1745.21 1363.85 L1742.39 1371.96 L1733.8 1372.14 L1740.65 1377.34 L1738.16 1385.56 L1745.21 1380.65 L1752.27 1385.56 L1749.77 1377.34 L1756.62 1372.14 L1748.03 1371.96 L1745.21 1363.85 Z" fill="#ffa500" fill-rule="evenodd" fill-opacity="0.5" stroke="#ff0000" stroke-opacity="0.5" stroke-width="3.2"/>
<path clip-path="url(#clip872)" d="M1854.29 1358.55 L1851.47 1366.67 L1842.87 1366.85 L1849.73 1372.04 L1847.23 1380.26 L1854.29 1375.35 L1861.34 1380.26 L1858.85 1372.04 L1865.7 1366.85 L1857.11 1366.67 L1854.29 1358.55 Z" fill="#ffa500" fill-rule="evenodd" fill-opacity="0.5" stroke="#ff0000" stroke-opacity="0.5" stroke-width="3.2"/>
<path clip-path="url(#clip872)" d="M1963.36 210.968 L1960.54 219.08 L1951.95 219.26 L1958.8 224.456 L1956.31 232.676 L1963.36 227.768 L1970.42 232.676 L1967.92 224.456 L1974.77 219.26 L1966.18 219.08 L1963.36 210.968 Z" fill="#ffa500" fill-rule="evenodd" fill-opacity="0.5" stroke="#ff0000" stroke-opacity="0.5" stroke-width="3.2"/>
<path clip-path="url(#clip872)" d="M2072.44 1052.41 L2069.62 1060.52 L2061.02 1060.7 L2067.88 1065.9 L2065.38 1074.12 L2072.44 1069.21 L2079.49 1074.12 L2077 1065.9 L2083.85 1060.7 L2075.26 1060.52 L2072.44 1052.41 Z" fill="#ffa500" fill-rule="evenodd" fill-opacity="0.5" stroke="#ff0000" stroke-opacity="0.5" stroke-width="3.2"/>
<path clip-path="url(#clip872)" d="M2181.51 716.748 L2178.69 724.86 L2170.1 725.04 L2176.95 730.236 L2174.45 738.456 L2181.51 733.548 L2188.57 738.456 L2186.07 730.236 L2192.92 725.04 L2184.33 724.86 L2181.51 716.748 Z" fill="#ffa500" fill-rule="evenodd" fill-opacity="0.5" stroke="#ff0000" stroke-opacity="0.5" stroke-width="3.2"/>
<path clip-path="url(#clip872)" d="M2290.58 1107.72 L2287.76 1115.83 L2279.17 1116.01 L2286.02 1121.2 L2283.53 1129.42 L2290.58 1124.52 L2297.64 1129.42 L2295.14 1121.2 L2302 1116.01 L2293.4 1115.83 L2290.58 1107.72 Z" fill="#ffa500" fill-rule="evenodd" fill-opacity="0.5" stroke="#ff0000" stroke-opacity="0.5" stroke-width="3.2"/>
<path clip-path="url(#clip872)" d="M218.174 754.017 L190.174 782.017 L218.174 810.017 L246.174 782.017 L218.174 754.017 Z" fill="#008000" fill-rule="evenodd" fill-opacity="1" stroke="#ff0000" stroke-opacity="1" stroke-width="3.2"/>
<path clip-path="url(#clip872)" d="M327.249 252.295 L299.249 280.295 L327.249 308.295 L355.249 280.295 L327.249 252.295 Z" fill="#008000" fill-rule="evenodd" fill-opacity="1" stroke="#ff0000" stroke-opacity="1" stroke-width="3.2"/>
<path clip-path="url(#clip872)" d="M436.323 919.407 L408.323 947.407 L436.323 975.407 L464.323 947.407 L436.323 919.407 Z" fill="#008000" fill-rule="evenodd" fill-opacity="1" stroke="#ff0000" stroke-opacity="1" stroke-width="3.2"/>
<path clip-path="url(#clip872)" d="M545.397 258.826 L517.397 286.826 L545.397 314.826 L573.397 286.826 L545.397 258.826 Z" fill="#008000" fill-rule="evenodd" fill-opacity="1" stroke="#ff0000" stroke-opacity="1" stroke-width="3.2"/>
<path clip-path="url(#clip872)" d="M654.471 238.278 L626.471 266.278 L654.471 294.278 L682.471 266.278 L654.471 238.278 Z" fill="#008000" fill-rule="evenodd" fill-opacity="1" stroke="#ff0000" stroke-opacity="1" stroke-width="3.2"/>
<path clip-path="url(#clip872)" d="M763.545 970.322 L735.545 998.322 L763.545 1026.32 L791.545 998.322 L763.545 970.322 Z" fill="#008000" fill-rule="evenodd" fill-opacity="1" stroke="#ff0000" stroke-opacity="1" stroke-width="3.2"/>
<path clip-path="url(#clip872)" d="M872.619 1209.7 L844.619 1237.7 L872.619 1265.7 L900.619 1237.7 L872.619 1209.7 Z" fill="#008000" fill-rule="evenodd" fill-opacity="1" stroke="#ff0000" stroke-opacity="1" stroke-width="3.2"/>
<path clip-path="url(#clip872)" d="M981.694 1031.52 L953.694 1059.52 L981.694 1087.52 L1009.69 1059.52 L981.694 1031.52 Z" fill="#008000" fill-rule="evenodd" fill-opacity="1" stroke="#ff0000" stroke-opacity="1" stroke-width="3.2"/>
<path clip-path="url(#clip872)" d="M1090.77 740.011 L1062.77 768.011 L1090.77 796.011 L1118.77 768.011 L1090.77 740.011 Z" fill="#008000" fill-rule="evenodd" fill-opacity="1" stroke="#ff0000" stroke-opacity="1" stroke-width="3.2"/>
<path clip-path="url(#clip872)" d="M1199.84 775.285 L1171.84 803.285 L1199.84 831.285 L1227.84 803.285 L1199.84 775.285 Z" fill="#008000" fill-rule="evenodd" fill-opacity="1" stroke="#ff0000" stroke-opacity="1" stroke-width="3.2"/>
<path clip-path="url(#clip872)" d="M1308.92 304.097 L1280.92 332.097 L1308.92 360.097 L1336.92 332.097 L1308.92 304.097 Z" fill="#008000" fill-rule="evenodd" fill-opacity="1" stroke="#ff0000" stroke-opacity="1" stroke-width="3.2"/>
<path clip-path="url(#clip872)" d="M1417.99 1416.41 L1389.99 1444.41 L1417.99 1472.41 L1445.99 1444.41 L1417.99 1416.41 Z" fill="#008000" fill-rule="evenodd" fill-opacity="1" stroke="#ff0000" stroke-opacity="1" stroke-width="3.2"/>
<path clip-path="url(#clip872)" d="M1527.06 1202.47 L1499.06 1230.47 L1527.06 1258.47 L1555.06 1230.47 L1527.06 1202.47 Z" fill="#008000" fill-rule="evenodd" fill-opacity="1" stroke="#ff0000" stroke-opacity="1" stroke-width="3.2"/>
<path clip-path="url(#clip872)" d="M1636.14 378.118 L1608.14 406.118 L1636.14 434.118 L1664.14 406.118 L1636.14 378.118 Z" fill="#008000" fill-rule="evenodd" fill-opacity="1" stroke="#ff0000" stroke-opacity="1" stroke-width="3.2"/>
<path clip-path="url(#clip872)" d="M1745.21 1385.2 L1717.21 1413.2 L1745.21 1441.2 L1773.21 1413.2 L1745.21 1385.2 Z" fill="#008000" fill-rule="evenodd" fill-opacity="1" stroke="#ff0000" stroke-opacity="1" stroke-width="3.2"/>
<path clip-path="url(#clip872)" d="M1854.29 1151.82 L1826.29 1179.82 L1854.29 1207.82 L1882.29 1179.82 L1854.29 1151.82 Z" fill="#008000" fill-rule="evenodd" fill-opacity="1" stroke="#ff0000" stroke-opacity="1" stroke-width="3.2"/>
<path clip-path="url(#clip872)" d="M1963.36 944.171 L1935.36 972.171 L1963.36 1000.17 L1991.36 972.171 L1963.36 944.171 Z" fill="#008000" fill-rule="evenodd" fill-opacity="1" stroke="#ff0000" stroke-opacity="1" stroke-width="3.2"/>
<path clip-path="url(#clip872)" d="M2072.44 1102.09 L2044.44 1130.09 L2072.44 1158.09 L2100.44 1130.09 L2072.44 1102.09 Z" fill="#008000" fill-rule="evenodd" fill-opacity="1" stroke="#ff0000" stroke-opacity="1" stroke-width="3.2"/>
<path clip-path="url(#clip872)" d="M2181.51 554.281 L2153.51 582.281 L2181.51 610.281 L2209.51 582.281 L2181.51 554.281 Z" fill="#008000" fill-rule="evenodd" fill-opacity="1" stroke="#ff0000" stroke-opacity="1" stroke-width="3.2"/>
<path clip-path="url(#clip872)" d="M2290.58 1207.03 L2262.58 1235.03 L2290.58 1263.03 L2318.58 1235.03 L2290.58 1207.03 Z" fill="#008000" fill-rule="evenodd" fill-opacity="1" stroke="#ff0000" stroke-opacity="1" stroke-width="3.2"/>
<path clip-path="url(#clip872)" d="M179.774 776.676 L237.374 810.276 L237.374 743.076 L179.774 776.676 Z" fill="#00008b" fill-rule="evenodd" fill-opacity="0.2" stroke="#ff0000" stroke-opacity="0.2" stroke-width="3.2"/>
<path clip-path="url(#clip872)" d="M288.849 334.91 L346.449 368.51 L346.449 301.31 L288.849 334.91 Z" fill="#00008b" fill-rule="evenodd" fill-opacity="0.2" stroke="#ff0000" stroke-opacity="0.2" stroke-width="3.2"/>
<path clip-path="url(#clip872)" d="M397.923 187.111 L455.523 220.711 L455.523 153.511 L397.923 187.111 Z" fill="#00008b" fill-rule="evenodd" fill-opacity="0.2" stroke="#ff0000" stroke-opacity="0.2" stroke-width="3.2"/>
<path clip-path="url(#clip872)" d="M506.997 429.814 L564.597 463.414 L564.597 396.214 L506.997 429.814 Z" fill="#00008b" fill-rule="evenodd" fill-opacity="0.2" stroke="#ff0000" stroke-opacity="0.2" stroke-width="3.2"/>
<path clip-path="url(#clip872)" d="M616.071 1242.09 L673.671 1275.69 L673.671 1208.49 L616.071 1242.09 Z" fill="#00008b" fill-rule="evenodd" fill-opacity="0.2" stroke="#ff0000" stroke-opacity="0.2" stroke-width="3.2"/>
<path clip-path="url(#clip872)" d="M725.145 1352.33 L782.745 1385.93 L782.745 1318.73 L725.145 1352.33 Z" fill="#00008b" fill-rule="evenodd" fill-opacity="0.2" stroke="#ff0000" stroke-opacity="0.2" stroke-width="3.2"/>
<path clip-path="url(#clip872)" d="M834.219 1394.56 L891.819 1428.16 L891.819 1360.96 L834.219 1394.56 Z" fill="#00008b" fill-rule="evenodd" fill-opacity="0.2" stroke="#ff0000" stroke-opacity="0.2" stroke-width="3.2"/>
<path clip-path="url(#clip872)" d="M943.294 1257.07 L1000.89 1290.67 L1000.89 1223.47 L943.294 1257.07 Z" fill="#00008b" fill-rule="evenodd" fill-opacity="0.2" stroke="#ff0000" stroke-opacity="0.2" stroke-width="3.2"/>
<path clip-path="url(#clip872)" d="M1052.37 994.138 L1109.97 1027.74 L1109.97 960.538 L1052.37 994.138 Z" fill="#00008b" fill-rule="evenodd" fill-opacity="0.2" stroke="#ff0000" stroke-opacity="0.2" stroke-width="3.2"/>
<path clip-path="url(#clip872)" d="M1161.44 340.502 L1219.04 374.102 L1219.04 306.902 L1161.44 340.502 Z" fill="#00008b" fill-rule="evenodd" fill-opacity="0.2" stroke="#ff0000" stroke-opacity="0.2" stroke-width="3.2"/>
<path clip-path="url(#clip872)" d="M1270.52 228.705 L1328.12 262.305 L1328.12 195.105 L1270.52 228.705 Z" fill="#00008b" fill-rule="evenodd" fill-opacity="0.2" stroke="#ff0000" stroke-opacity="0.2" stroke-width="3.2"/>
<path clip-path="url(#clip872)" d="M1379.59 1120.71 L1437.19 1154.31 L1437.19 1087.11 L1379.59 1120.71 Z" fill="#00008b" fill-rule="evenodd" fill-opacity="0.2" stroke="#ff0000" stroke-opacity="0.2" stroke-width="3.2"/>
<path clip-path="url(#clip872)" d="M1488.66 311.141 L1546.26 344.741 L1546.26 277.541 L1488.66 311.141 Z" fill="#00008b" fill-rule="evenodd" fill-opacity="0.2" stroke="#ff0000" stroke-opacity="0.2" stroke-width="3.2"/>
<path clip-path="url(#clip872)" d="M1597.74 1329.27 L1655.34 1362.87 L1655.34 1295.67 L1597.74 1329.27 Z" fill="#00008b" fill-rule="evenodd" fill-opacity="0.2" stroke="#ff0000" stroke-opacity="0.2" stroke-width="3.2"/>
<path clip-path="url(#clip872)" d="M1706.81 707.436 L1764.41 741.036 L1764.41 673.836 L1706.81 707.436 Z" fill="#00008b" fill-rule="evenodd" fill-opacity="0.2" stroke="#ff0000" stroke-opacity="0.2" stroke-width="3.2"/>
<path clip-path="url(#clip872)" d="M1815.89 354.653 L1873.49 388.253 L1873.49 321.053 L1815.89 354.653 Z" fill="#00008b" fill-rule="evenodd" fill-opacity="0.2" stroke="#ff0000" stroke-opacity="0.2" stroke-width="3.2"/>
<path clip-path="url(#clip872)" d="M1924.96 1140.11 L1982.56 1173.71 L1982.56 1106.51 L1924.96 1140.11 Z" fill="#00008b" fill-rule="evenodd" fill-opacity="0.2" stroke="#ff0000" stroke-opacity="0.2" stroke-width="3.2"/>
<path clip-path="url(#clip872)" d="M2034.04 388.601 L2091.64 422.201 L2091.64 355.001 L2034.04 388.601 Z" fill="#00008b" fill-rule="evenodd" fill-opacity="0.2" stroke="#ff0000" stroke-opacity="0.2" stroke-width="3.2"/>
<path clip-path="url(#clip872)" d="M2143.11 648.02 L2200.71 681.62 L2200.71 614.42 L2143.11 648.02 Z" fill="#00008b" fill-rule="evenodd" fill-opacity="0.2" stroke="#ff0000" stroke-opacity="0.2" stroke-width="3.2"/>
<path clip-path="url(#clip872)" d="M2252.18 262.969 L2309.78 296.569 L2309.78 229.369 L2252.18 262.969 Z" fill="#00008b" fill-rule="evenodd" fill-opacity="0.2" stroke="#ff0000" stroke-opacity="0.2" stroke-width="3.2"/>
<path clip-path="url(#clip870)" d="
M1983.85 435.737 L2279.53 435.737 L2279.53 193.817 L1983.85 193.817  Z
  " fill="#ffffff" fill-rule="evenodd" fill-opacity="1"/>
<polyline clip-path="url(#clip870)" style="stroke:#000000; stroke-width:4; stroke-opacity:1; fill:none" points="
  1983.85,435.737 2279.53,435.737 2279.53,193.817 1983.85,193.817 1983.85,435.737 
  "/>
<path clip-path="url(#clip870)" d="M2081.48 228.697 L2075.47 246.002 L2057.14 246.386 L2071.76 257.471 L2066.43 275.007 L2081.48 264.537 L2096.54 275.007 L2091.21 257.471 L2105.83 246.386 L2087.5 246.002 L2081.48 228.697 Z" fill="#ffa500" fill-rule="evenodd" fill-opacity="0.5" stroke="#ff0000" stroke-opacity="0.5" stroke-width="6.82667"/>
<path clip-path="url(#clip870)" d="M 0 0 M2192.96 273.984 Q2191.15 278.614 2189.44 280.026 Q2187.73 281.438 2184.86 281.438 L2181.46 281.438 L2181.46 277.873 L2183.96 277.873 Q2185.71 277.873 2186.69 277.04 Q2187.66 276.206 2188.84 273.104 L2189.6 271.16 L2179.12 245.651 L2183.63 245.651 L2191.73 265.929 L2199.83 245.651 L2204.35 245.651 L2192.96 273.984 Z" fill="#bebebe" fill-rule="evenodd" fill-opacity="1" /><path clip-path="url(#clip870)" d="M 0 0 M2210.23 267.641 L2217.87 267.641 L2217.87 241.276 L2209.56 242.943 L2209.56 238.683 L2217.82 237.017 L2222.5 237.017 L2222.5 267.641 L2230.14 267.641 L2230.14 271.577 L2210.23 271.577 L2210.23 267.641 Z" fill="#bebebe" fill-rule="evenodd" fill-opacity="1" /><path clip-path="url(#clip870)" d="M2081.48 289.177 L2055.88 314.777 L2081.48 340.377 L2107.08 314.777 L2081.48 289.177 Z" fill="#008000" fill-rule="evenodd" fill-opacity="1" stroke="#ff0000" stroke-opacity="1" stroke-width="2.92571"/>
<path clip-path="url(#clip870)" d="M 0 0 M2192.96 334.464 Q2191.15 339.094 2189.44 340.506 Q2187.73 341.918 2184.86 341.918 L2181.46 341.918 L2181.46 338.353 L2183.96 338.353 Q2185.71 338.353 2186.69 337.52 Q2187.66 336.686 2188.84 333.584 L2189.6 331.64 L2179.12 306.131 L2183.63 306.131 L2191.73 326.409 L2199.83 306.131 L2204.35 306.131 L2192.96 334.464 Z" fill="#bebebe" fill-rule="evenodd" fill-opacity="1" /><path clip-path="url(#clip870)" d="M 0 0 M2213.45 328.121 L2229.76 328.121 L2229.76 332.057 L2207.82 332.057 L2207.82 328.121 Q2210.48 325.367 2215.07 320.737 Q2219.67 316.085 2220.85 314.742 Q2223.1 312.219 2223.98 310.483 Q2224.88 308.723 2224.88 307.034 Q2224.88 304.279 2222.94 302.543 Q2221.02 300.807 2217.91 300.807 Q2215.71 300.807 2213.26 301.571 Q2210.83 302.335 2208.05 303.886 L2208.05 299.163 Q2210.88 298.029 2213.33 297.45 Q2215.78 296.872 2217.82 296.872 Q2223.19 296.872 2226.39 299.557 Q2229.58 302.242 2229.58 306.733 Q2229.58 308.862 2228.77 310.784 Q2227.98 312.682 2225.88 315.274 Q2225.3 315.946 2222.2 319.163 Q2219.09 322.358 2213.45 328.121 Z" fill="#bebebe" fill-rule="evenodd" fill-opacity="1" /><path clip-path="url(#clip870)" d="M2061 375.257 L2091.72 393.177 L2091.72 357.337 L2061 375.257 Z" fill="#00008b" fill-rule="evenodd" fill-opacity="0.2" stroke="#ff0000" stroke-opacity="0.2" stroke-width="1.70667"/>
<path clip-path="url(#clip870)" d="M 0 0 M2192.96 394.944 Q2191.15 399.574 2189.44 400.986 Q2187.73 402.398 2184.86 402.398 L2181.46 402.398 L2181.46 398.833 L2183.96 398.833 Q2185.71 398.833 2186.69 398 Q2187.66 397.166 2188.84 394.064 L2189.6 392.12 L2179.12 366.611 L2183.63 366.611 L2191.73 386.889 L2199.83 366.611 L2204.35 366.611 L2192.96 394.944 Z" fill="#bebebe" fill-rule="evenodd" fill-opacity="1" /><path clip-path="url(#clip870)" d="M 0 0 M2223.58 373.902 Q2226.94 374.62 2228.82 376.889 Q2230.71 379.157 2230.71 382.49 Q2230.71 387.606 2227.2 390.407 Q2223.68 393.208 2217.2 393.208 Q2215.02 393.208 2212.7 392.768 Q2210.41 392.351 2207.96 391.495 L2207.96 386.981 Q2209.9 388.115 2212.22 388.694 Q2214.53 389.273 2217.06 389.273 Q2221.45 389.273 2223.75 387.537 Q2226.06 385.801 2226.06 382.49 Q2226.06 379.435 2223.91 377.722 Q2221.78 375.986 2217.96 375.986 L2213.93 375.986 L2213.93 372.143 L2218.14 372.143 Q2221.59 372.143 2223.42 370.778 Q2225.25 369.389 2225.25 366.796 Q2225.25 364.134 2223.35 362.722 Q2221.48 361.287 2217.96 361.287 Q2216.04 361.287 2213.84 361.703 Q2211.64 362.12 2209 363 L2209 358.833 Q2211.66 358.092 2213.98 357.722 Q2216.32 357.352 2218.38 357.352 Q2223.7 357.352 2226.8 359.782 Q2229.9 362.19 2229.9 366.31 Q2229.9 369.18 2228.26 371.171 Q2226.62 373.139 2223.58 373.902 Z" fill="#bebebe" fill-rule="evenodd" fill-opacity="1" /></svg>
