<?xml version="1.0" encoding="utf-8"?>
<svg xmlns="http://www.w3.org/2000/svg" xmlns:xlink="http://www.w3.org/1999/xlink" width="600" height="400" viewBox="0 0 2400 1600">
<defs>
  <clipPath id="clip040">
    <rect x="0" y="0" width="2400" height="1600"/>
  </clipPath>
</defs>
<path clip-path="url(#clip040)" d="
M0 1600 L2400 1600 L2400 0 L0 0  Z
  " fill="#ffffff" fill-rule="evenodd" fill-opacity="1"/>
<defs>
  <clipPath id="clip041">
    <rect x="480" y="0" width="1681" height="1600"/>
  </clipPath>
</defs>
<path clip-path="url(#clip040)" d="
M142.07 1482.13 L2352.76 1482.13 L2352.76 149.392 L142.07 149.392  Z
  " fill="#ffffff" fill-rule="evenodd" fill-opacity="1"/>
<defs>
  <clipPath id="clip042">
    <rect x="142" y="149" width="2212" height="1334"/>
  </clipPath>
</defs>
<polyline clip-path="url(#clip042)" style="stroke:#000000; stroke-width:2; stroke-opacity:0.1; fill:none" points="
  263.662,1482.13 263.662,149.392 
  "/>
<polyline clip-path="url(#clip042)" style="stroke:#000000; stroke-width:2; stroke-opacity:0.1; fill:none" points="
  919.496,1482.13 919.496,149.392 
  "/>
<polyline clip-path="url(#clip042)" style="stroke:#000000; stroke-width:2; stroke-opacity:0.1; fill:none" points="
  1575.33,1482.13 1575.33,149.392 
  "/>
<polyline clip-path="url(#clip042)" style="stroke:#000000; stroke-width:2; stroke-opacity:0.1; fill:none" points="
  2231.16,1482.13 2231.16,149.392 
  "/>
<polyline clip-path="url(#clip040)" style="stroke:#000000; stroke-width:4; stroke-opacity:1; fill:none" points="
  142.07,1482.13 2352.76,1482.13 
  "/>
<polyline clip-path="url(#clip040)" style="stroke:#000000; stroke-width:4; stroke-opacity:1; fill:none" points="
  263.662,1482.13 263.662,1466.14 
  "/>
<polyline clip-path="url(#clip040)" style="stroke:#000000; stroke-width:4; stroke-opacity:1; fill:none" points="
  919.496,1482.13 919.496,1466.14 
  "/>
<polyline clip-path="url(#clip040)" style="stroke:#000000; stroke-width:4; stroke-opacity:1; fill:none" points="
  1575.33,1482.13 1575.33,1466.14 
  "/>
<polyline clip-path="url(#clip040)" style="stroke:#000000; stroke-width:4; stroke-opacity:1; fill:none" points="
  2231.16,1482.13 2231.16,1466.14 
  "/>
<path clip-path="url(#clip040)" d="M 0 0 M263.662 1512.57 Q259.599 1512.57 257.542 1516.58 Q255.511 1520.56 255.511 1528.58 Q255.511 1536.58 257.542 1540.59 Q259.599 1544.57 263.662 1544.57 Q267.75 1544.57 269.781 1540.59 Q271.839 1536.58 271.839 1528.58 Q271.839 1520.56 269.781 1516.58 Q267.75 1512.57 263.662 1512.57 M263.662 1508.4 Q270.198 1508.4 273.636 1513.58 Q277.099 1518.74 277.099 1528.58 Q277.099 1538.4 273.636 1543.58 Q270.198 1548.74 263.662 1548.74 Q257.125 1548.74 253.662 1543.58 Q250.224 1538.4 250.224 1528.58 Q250.224 1518.74 253.662 1513.58 Q257.125 1508.4 263.662 1508.4 Z" fill="#bebebe" fill-rule="evenodd" fill-opacity="1" /><path clip-path="url(#clip040)" d="M 0 0 M893.48 1543.56 L902.074 1543.56 L902.074 1513.9 L892.725 1515.77 L892.725 1510.98 L902.022 1509.1 L907.282 1509.1 L907.282 1543.56 L915.876 1543.56 L915.876 1547.98 L893.48 1547.98 L893.48 1543.56 Z" fill="#bebebe" fill-rule="evenodd" fill-opacity="1" /><path clip-path="url(#clip040)" d="M 0 0 M932.829 1512.57 Q928.767 1512.57 926.709 1516.58 Q924.678 1520.56 924.678 1528.58 Q924.678 1536.58 926.709 1540.59 Q928.767 1544.57 932.829 1544.57 Q936.918 1544.57 938.949 1540.59 Q941.006 1536.58 941.006 1528.58 Q941.006 1520.56 938.949 1516.58 Q936.918 1512.57 932.829 1512.57 M932.829 1508.4 Q939.366 1508.4 942.803 1513.58 Q946.267 1518.74 946.267 1528.58 Q946.267 1538.4 942.803 1543.58 Q939.366 1548.74 932.829 1548.74 Q926.293 1548.74 922.829 1543.58 Q919.392 1538.4 919.392 1528.58 Q919.392 1518.74 922.829 1513.58 Q926.293 1508.4 932.829 1508.4 Z" fill="#bebebe" fill-rule="evenodd" fill-opacity="1" /><path clip-path="url(#clip040)" d="M 0 0 M1554.12 1543.56 L1572.48 1543.56 L1572.48 1547.98 L1547.79 1547.98 L1547.79 1543.56 Q1550.79 1540.46 1555.94 1535.25 Q1561.12 1530.02 1562.45 1528.5 Q1564.98 1525.67 1565.97 1523.71 Q1566.98 1521.73 1566.98 1519.83 Q1566.98 1516.73 1564.8 1514.78 Q1562.63 1512.83 1559.15 1512.83 Q1556.67 1512.83 1553.91 1513.69 Q1551.18 1514.55 1548.05 1516.29 L1548.05 1510.98 Q1551.23 1509.7 1553.99 1509.05 Q1556.75 1508.4 1559.04 1508.4 Q1565.08 1508.4 1568.68 1511.42 Q1572.27 1514.44 1572.27 1519.49 Q1572.27 1521.89 1571.36 1524.05 Q1570.47 1526.19 1568.1 1529.1 Q1567.45 1529.86 1563.96 1533.48 Q1560.47 1537.07 1554.12 1543.56 Z" fill="#bebebe" fill-rule="evenodd" fill-opacity="1" /><path clip-path="url(#clip040)" d="M 0 0 M1589.43 1512.57 Q1585.37 1512.57 1583.31 1516.58 Q1581.28 1520.56 1581.28 1528.58 Q1581.28 1536.58 1583.31 1540.59 Q1585.37 1544.57 1589.43 1544.57 Q1593.52 1544.57 1595.55 1540.59 Q1597.61 1536.58 1597.61 1528.58 Q1597.61 1520.56 1595.55 1516.58 Q1593.52 1512.57 1589.43 1512.57 M1589.43 1508.4 Q1595.97 1508.4 1599.41 1513.58 Q1602.87 1518.74 1602.87 1528.58 Q1602.87 1538.4 1599.41 1543.58 Q1595.97 1548.74 1589.43 1548.74 Q1582.9 1548.74 1579.43 1543.58 Q1575.99 1538.4 1575.99 1528.58 Q1575.99 1518.74 1579.43 1513.58 Q1582.9 1508.4 1589.43 1508.4 Z" fill="#bebebe" fill-rule="evenodd" fill-opacity="1" /><path clip-path="url(#clip040)" d="M 0 0 M2220.75 1527.02 Q2224.52 1527.83 2226.63 1530.38 Q2228.77 1532.93 2228.77 1536.68 Q2228.77 1542.44 2224.81 1545.59 Q2220.85 1548.74 2213.56 1548.74 Q2211.11 1548.74 2208.51 1548.24 Q2205.93 1547.78 2203.17 1546.81 L2203.17 1541.73 Q2205.36 1543.01 2207.96 1543.66 Q2210.57 1544.31 2213.4 1544.31 Q2218.35 1544.31 2220.93 1542.36 Q2223.53 1540.41 2223.53 1536.68 Q2223.53 1533.24 2221.11 1531.32 Q2218.72 1529.36 2214.42 1529.36 L2209.89 1529.36 L2209.89 1525.04 L2214.63 1525.04 Q2218.51 1525.04 2220.57 1523.5 Q2222.62 1521.94 2222.62 1519.03 Q2222.62 1516.03 2220.49 1514.44 Q2218.38 1512.83 2214.42 1512.83 Q2212.26 1512.83 2209.78 1513.3 Q2207.31 1513.77 2204.34 1514.75 L2204.34 1510.07 Q2207.34 1509.23 2209.94 1508.82 Q2212.57 1508.4 2214.89 1508.4 Q2220.88 1508.4 2224.37 1511.14 Q2227.86 1513.84 2227.86 1518.48 Q2227.86 1521.71 2226.01 1523.95 Q2224.16 1526.16 2220.75 1527.02 Z" fill="#bebebe" fill-rule="evenodd" fill-opacity="1" /><path clip-path="url(#clip040)" d="M 0 0 M2245.72 1512.57 Q2241.66 1512.57 2239.6 1516.58 Q2237.57 1520.56 2237.57 1528.58 Q2237.57 1536.58 2239.6 1540.59 Q2241.66 1544.57 2245.72 1544.57 Q2249.81 1544.57 2251.84 1540.59 Q2253.9 1536.58 2253.9 1528.58 Q2253.9 1520.56 2251.84 1516.58 Q2249.81 1512.57 2245.72 1512.57 M2245.72 1508.4 Q2252.26 1508.4 2255.7 1513.58 Q2259.16 1518.74 2259.16 1528.58 Q2259.16 1538.4 2255.7 1543.58 Q2252.26 1548.74 2245.72 1548.74 Q2239.19 1548.74 2235.72 1543.58 Q2232.28 1538.4 2232.28 1528.58 Q2232.28 1518.74 2235.72 1513.58 Q2239.19 1508.4 2245.72 1508.4 Z" fill="#bebebe" fill-rule="evenodd" fill-opacity="1" /><polyline clip-path="url(#clip042)" style="stroke:#000000; stroke-width:2; stroke-opacity:0.1; fill:none" points="
  142.07,1444.41 2352.76,1444.41 
  "/>
<polyline clip-path="url(#clip042)" style="stroke:#000000; stroke-width:2; stroke-opacity:0.1; fill:none" points="
  142.07,1211.58 2352.76,1211.58 
  "/>
<polyline clip-path="url(#clip042)" style="stroke:#000000; stroke-width:2; stroke-opacity:0.1; fill:none" points="
  142.07,978.743 2352.76,978.743 
  "/>
<polyline clip-path="url(#clip042)" style="stroke:#000000; stroke-width:2; stroke-opacity:0.1; fill:none" points="
  142.07,745.91 2352.76,745.91 
  "/>
<polyline clip-path="url(#clip042)" style="stroke:#000000; stroke-width:2; stroke-opacity:0.1; fill:none" points="
  142.07,513.077 2352.76,513.077 
  "/>
<polyline clip-path="url(#clip042)" style="stroke:#000000; stroke-width:2; stroke-opacity:0.1; fill:none" points="
  142.07,280.244 2352.76,280.244 
  "/>
<polyline clip-path="url(#clip040)" style="stroke:#000000; stroke-width:4; stroke-opacity:1; fill:none" points="
  142.07,1482.13 142.07,149.392 
  "/>
<polyline clip-path="url(#clip040)" style="stroke:#000000; stroke-width:4; stroke-opacity:1; fill:none" points="
  142.07,1444.41 168.598,1444.41 
  "/>
<polyline clip-path="url(#clip040)" style="stroke:#000000; stroke-width:4; stroke-opacity:1; fill:none" points="
  142.07,1211.58 168.598,1211.58 
  "/>
<polyline clip-path="url(#clip040)" style="stroke:#000000; stroke-width:4; stroke-opacity:1; fill:none" points="
  142.07,978.743 168.598,978.743 
  "/>
<polyline clip-path="url(#clip040)" style="stroke:#000000; stroke-width:4; stroke-opacity:1; fill:none" points="
  142.07,745.91 168.598,745.91 
  "/>
<polyline clip-path="url(#clip040)" style="stroke:#000000; stroke-width:4; stroke-opacity:1; fill:none" points="
  142.07,513.077 168.598,513.077 
  "/>
<polyline clip-path="url(#clip040)" style="stroke:#000000; stroke-width:4; stroke-opacity:1; fill:none" points="
  142.07,280.244 168.598,280.244 
  "/>
<path clip-path="url(#clip040)" d="M 0 0 M92.6325 1428.43 Q88.57 1428.43 86.5128 1432.44 Q84.4815 1436.43 84.4815 1444.45 Q84.4815 1452.44 86.5128 1456.45 Q88.57 1460.44 92.6325 1460.44 Q96.721 1460.44 98.7523 1456.45 Q100.81 1452.44 100.81 1444.45 Q100.81 1436.43 98.7523 1432.44 Q96.721 1428.43 92.6325 1428.43 M92.6325 1424.27 Q99.169 1424.27 102.606 1429.45 Q106.07 1434.6 106.07 1444.45 Q106.07 1454.27 102.606 1459.45 Q99.169 1464.6 92.6325 1464.6 Q86.0961 1464.6 82.6326 1459.45 Q79.1951 1454.27 79.1951 1444.45 Q79.1951 1434.6 82.6326 1429.45 Q86.0961 1424.27 92.6325 1424.27 Z" fill="#bebebe" fill-rule="evenodd" fill-opacity="1" /><path clip-path="url(#clip040)" d="M 0 0 M82.5545 1192.14 L103.205 1192.14 L103.205 1196.56 L87.3721 1196.56 L87.3721 1206.09 Q88.518 1205.7 89.6638 1205.52 Q90.8096 1205.31 91.9554 1205.31 Q98.4658 1205.31 102.268 1208.88 Q106.07 1212.45 106.07 1218.54 Q106.07 1224.82 102.164 1228.31 Q98.2575 1231.77 91.1482 1231.77 Q88.7003 1231.77 86.1482 1231.35 Q83.6222 1230.94 80.9138 1230.1 L80.9138 1224.82 Q83.2576 1226.09 85.7576 1226.72 Q88.2576 1227.34 91.044 1227.34 Q95.5492 1227.34 98.1794 1224.97 Q100.81 1222.6 100.81 1218.54 Q100.81 1214.48 98.1794 1212.11 Q95.5492 1209.74 91.044 1209.74 Q88.9346 1209.74 86.8253 1210.21 Q84.7419 1210.68 82.5545 1211.67 L82.5545 1192.14 Z" fill="#bebebe" fill-rule="evenodd" fill-opacity="1" /><path clip-path="url(#clip040)" d="M 0 0 M53.2838 993.756 L61.8775 993.756 L61.8775 964.095 L52.5286 965.97 L52.5286 961.178 L61.8254 959.303 L67.0858 959.303 L67.0858 993.756 L75.6795 993.756 L75.6795 998.183 L53.2838 998.183 L53.2838 993.756 Z" fill="#bebebe" fill-rule="evenodd" fill-opacity="1" /><path clip-path="url(#clip040)" d="M 0 0 M92.6325 962.767 Q88.57 962.767 86.5128 966.777 Q84.4815 970.761 84.4815 978.782 Q84.4815 986.777 86.5128 990.787 Q88.57 994.772 92.6325 994.772 Q96.721 994.772 98.7523 990.787 Q100.81 986.777 100.81 978.782 Q100.81 970.761 98.7523 966.777 Q96.721 962.767 92.6325 962.767 M92.6325 958.6 Q99.169 958.6 102.606 963.782 Q106.07 968.938 106.07 978.782 Q106.07 988.6 102.606 993.782 Q99.169 998.938 92.6325 998.938 Q86.0961 998.938 82.6326 993.782 Q79.1951 988.6 79.1951 978.782 Q79.1951 968.938 82.6326 963.782 Q86.0961 958.6 92.6325 958.6 Z" fill="#bebebe" fill-rule="evenodd" fill-opacity="1" /><path clip-path="url(#clip040)" d="M 0 0 M54.4036 760.923 L62.9973 760.923 L62.9973 731.262 L53.6484 733.137 L53.6484 728.345 L62.9452 726.47 L68.2056 726.47 L68.2056 760.923 L76.7993 760.923 L76.7993 765.35 L54.4036 765.35 L54.4036 760.923 Z" fill="#bebebe" fill-rule="evenodd" fill-opacity="1" /><path clip-path="url(#clip040)" d="M 0 0 M82.5545 726.47 L103.205 726.47 L103.205 730.897 L87.3721 730.897 L87.3721 740.428 Q88.518 740.038 89.6638 739.855 Q90.8096 739.647 91.9554 739.647 Q98.4658 739.647 102.268 743.215 Q106.07 746.783 106.07 752.876 Q106.07 759.152 102.164 762.642 Q98.2575 766.105 91.1482 766.105 Q88.7003 766.105 86.1482 765.689 Q83.6222 765.272 80.9138 764.439 L80.9138 759.152 Q83.2576 760.428 85.7576 761.053 Q88.2576 761.678 91.044 761.678 Q95.5492 761.678 98.1794 759.308 Q100.81 756.939 100.81 752.876 Q100.81 748.814 98.1794 746.444 Q95.5492 744.074 91.044 744.074 Q88.9346 744.074 86.8253 744.543 Q84.7419 745.012 82.5545 746.001 L82.5545 726.47 Z" fill="#bebebe" fill-rule="evenodd" fill-opacity="1" /><path clip-path="url(#clip040)" d="M 0 0 M57.3202 528.09 L75.6795 528.09 L75.6795 532.517 L50.9921 532.517 L50.9921 528.09 Q53.9869 524.991 59.1431 519.783 Q64.3254 514.549 65.6535 513.038 Q68.1795 510.2 69.1691 508.246 Q70.1847 506.267 70.1847 504.366 Q70.1847 501.267 67.9972 499.314 Q65.8358 497.361 62.3462 497.361 Q59.8723 497.361 57.1119 498.22 Q54.3775 499.08 51.2525 500.825 L51.2525 495.512 Q54.4296 494.236 57.19 493.585 Q59.9504 492.934 62.2421 492.934 Q68.2837 492.934 71.8774 495.955 Q75.4712 498.976 75.4712 504.028 Q75.4712 506.424 74.5597 508.585 Q73.6743 510.72 71.3045 513.637 Q70.6535 514.392 67.1639 518.012 Q63.6743 521.606 57.3202 528.09 Z" fill="#bebebe" fill-rule="evenodd" fill-opacity="1" /><path clip-path="url(#clip040)" d="M 0 0 M92.6325 497.101 Q88.57 497.101 86.5128 501.111 Q84.4815 505.095 84.4815 513.116 Q84.4815 521.111 86.5128 525.121 Q88.57 529.106 92.6325 529.106 Q96.721 529.106 98.7523 525.121 Q100.81 521.111 100.81 513.116 Q100.81 505.095 98.7523 501.111 Q96.721 497.101 92.6325 497.101 M92.6325 492.934 Q99.169 492.934 102.606 498.116 Q106.07 503.273 106.07 513.116 Q106.07 522.934 102.606 528.116 Q99.169 533.272 92.6325 533.272 Q86.0961 533.272 82.6326 528.116 Q79.1951 522.934 79.1951 513.116 Q79.1951 503.273 82.6326 498.116 Q86.0961 492.934 92.6325 492.934 Z" fill="#bebebe" fill-rule="evenodd" fill-opacity="1" /><path clip-path="url(#clip040)" d="M 0 0 M58.44 295.257 L76.7993 295.257 L76.7993 299.684 L52.1119 299.684 L52.1119 295.257 Q55.1067 292.158 60.2629 286.95 Q65.4452 281.716 66.7733 280.205 Q69.2993 277.367 70.2889 275.414 Q71.3045 273.434 71.3045 271.533 Q71.3045 268.434 69.117 266.481 Q66.9556 264.528 63.466 264.528 Q60.9921 264.528 58.2317 265.388 Q55.4973 266.247 52.3723 267.992 L52.3723 262.679 Q55.5494 261.403 58.3098 260.752 Q61.0702 260.101 63.3619 260.101 Q69.4035 260.101 72.9972 263.122 Q76.5909 266.143 76.5909 271.195 Q76.5909 273.591 75.6795 275.752 Q74.7941 277.887 72.4243 280.804 Q71.7733 281.559 68.2837 285.179 Q64.7941 288.773 58.44 295.257 Z" fill="#bebebe" fill-rule="evenodd" fill-opacity="1" /><path clip-path="url(#clip040)" d="M 0 0 M82.5545 260.804 L103.205 260.804 L103.205 265.231 L87.3721 265.231 L87.3721 274.762 Q88.518 274.372 89.6638 274.19 Q90.8096 273.981 91.9554 273.981 Q98.4658 273.981 102.268 277.549 Q106.07 281.117 106.07 287.21 Q106.07 293.486 102.164 296.976 Q98.2575 300.439 91.1482 300.439 Q88.7003 300.439 86.1482 300.023 Q83.6222 299.606 80.9138 298.773 L80.9138 293.486 Q83.2576 294.762 85.7576 295.387 Q88.2576 296.012 91.044 296.012 Q95.5492 296.012 98.1794 293.643 Q100.81 291.273 100.81 287.21 Q100.81 283.148 98.1794 280.778 Q95.5492 278.408 91.044 278.408 Q88.9346 278.408 86.8253 278.877 Q84.7419 279.346 82.5545 280.335 L82.5545 260.804 Z" fill="#bebebe" fill-rule="evenodd" fill-opacity="1" /><path clip-path="url(#clip040)" d="M 0 0 M864.197 20.1156 L864.197 31.516 Q857.542 28.3332 851.64 26.7707 Q845.737 25.2082 840.239 25.2082 Q830.691 25.2082 825.482 28.9119 Q820.332 32.6156 820.332 39.4442 Q820.332 45.1734 823.746 48.1247 Q827.218 51.0182 836.825 52.8122 L843.885 54.259 Q856.964 56.7474 863.156 63.0552 Q869.406 69.3052 869.406 79.8375 Q869.406 92.3953 860.957 98.8768 Q852.566 105.358 836.304 105.358 Q830.17 105.358 823.225 103.969 Q816.339 102.58 808.931 99.8606 L808.931 87.8236 Q816.05 91.8166 822.878 93.8421 Q829.707 95.8675 836.304 95.8675 Q846.316 95.8675 851.755 91.9324 Q857.195 87.9972 857.195 80.7056 Q857.195 74.3399 853.26 70.7519 Q849.383 67.164 840.471 65.37 L833.353 63.9811 Q820.274 61.377 814.429 55.8215 Q808.584 50.2659 808.584 40.3702 Q808.584 28.9119 816.628 22.3147 Q824.73 15.7175 838.908 15.7175 Q844.985 15.7175 851.292 16.817 Q857.6 17.9166 864.197 20.1156 Z" fill="#bebebe" fill-rule="evenodd" fill-opacity="1" /><path clip-path="url(#clip040)" d="M 0 0 M936.014 68.6107 L936.014 73.819 L887.056 73.819 Q887.751 84.8144 893.653 90.6014 Q899.614 96.3305 910.204 96.3305 Q916.338 96.3305 922.067 94.8259 Q927.854 93.3213 933.526 90.312 L933.526 100.381 Q927.797 102.812 921.778 104.085 Q915.76 105.358 909.568 105.358 Q894.058 105.358 884.973 96.3305 Q875.945 87.3028 875.945 71.9093 Q875.945 55.9951 884.51 46.678 Q893.132 37.303 907.716 37.303 Q920.794 37.303 928.375 45.7521 Q936.014 54.1432 936.014 68.6107 M925.366 65.4858 Q925.25 56.7474 920.447 51.5391 Q915.702 46.3308 907.831 46.3308 Q898.919 46.3308 893.538 51.3655 Q888.213 56.4002 887.403 65.5436 L925.366 65.4858 Z" fill="#bebebe" fill-rule="evenodd" fill-opacity="1" /><path clip-path="url(#clip040)" d="M 0 0 M984.741 48.8192 Q982.947 47.7775 980.806 47.3146 Q978.722 46.7937 976.176 46.7937 Q967.148 46.7937 962.287 52.6965 Q957.484 58.5414 957.484 69.5367 L957.484 103.68 L946.778 103.68 L946.778 38.8655 L957.484 38.8655 L957.484 48.9349 Q960.84 43.0322 966.222 40.1965 Q971.604 37.303 979.301 37.303 Q980.4 37.303 981.731 37.4767 Q983.062 37.5924 984.683 37.8817 L984.741 48.8192 Z" fill="#bebebe" fill-rule="evenodd" fill-opacity="1" /><path clip-path="url(#clip040)" d="M 0 0 M995.91 38.8655 L1006.56 38.8655 L1006.56 103.68 L995.91 103.68 L995.91 38.8655 M995.91 13.6342 L1006.56 13.6342 L1006.56 27.1179 L995.91 27.1179 L995.91 13.6342 Z" fill="#bebebe" fill-rule="evenodd" fill-opacity="1" /><path clip-path="url(#clip040)" d="M 0 0 M1073.17 68.6107 L1073.17 73.819 L1024.21 73.819 Q1024.9 84.8144 1030.81 90.6014 Q1036.77 96.3305 1047.36 96.3305 Q1053.49 96.3305 1059.22 94.8259 Q1065.01 93.3213 1070.68 90.312 L1070.68 100.381 Q1064.95 102.812 1058.93 104.085 Q1052.91 105.358 1046.72 105.358 Q1031.21 105.358 1022.12 96.3305 Q1013.1 87.3028 1013.1 71.9093 Q1013.1 55.9951 1021.66 46.678 Q1030.28 37.303 1044.87 37.303 Q1057.95 37.303 1065.53 45.7521 Q1073.17 54.1432 1073.17 68.6107 M1062.52 65.4858 Q1062.4 56.7474 1057.6 51.5391 Q1052.85 46.3308 1044.98 46.3308 Q1036.07 46.3308 1030.69 51.3655 Q1025.37 56.4002 1024.56 65.5436 L1062.52 65.4858 Z" fill="#bebebe" fill-rule="evenodd" fill-opacity="1" /><path clip-path="url(#clip040)" d="M 0 0 M1132.08 17.28 L1132.08 49.3979 L1122.24 49.3979 L1122.24 17.28 L1132.08 17.28 Z" fill="#bebebe" fill-rule="evenodd" fill-opacity="1" /><path clip-path="url(#clip040)" d="M 0 0 M1197.12 64.5598 L1197.12 103.68 L1186.48 103.68 L1186.48 64.9071 Q1186.48 55.7057 1182.89 51.134 Q1179.3 46.5623 1172.12 46.5623 Q1163.5 46.5623 1158.52 52.0599 Q1153.55 57.5576 1153.55 67.0483 L1153.55 103.68 L1142.84 103.68 L1142.84 13.6342 L1153.55 13.6342 L1153.55 48.9349 Q1157.37 43.09 1162.52 40.1965 Q1167.73 37.303 1174.5 37.303 Q1185.67 37.303 1191.39 44.2474 Q1197.12 51.134 1197.12 64.5598 Z" fill="#bebebe" fill-rule="evenodd" fill-opacity="1" /><path clip-path="url(#clip040)" d="M 0 0 M1208.29 38.8655 L1218.94 38.8655 L1218.94 103.68 L1208.29 103.68 L1208.29 38.8655 M1208.29 13.6342 L1218.94 13.6342 L1218.94 27.1179 L1208.29 27.1179 L1208.29 13.6342 Z" fill="#bebebe" fill-rule="evenodd" fill-opacity="1" /><path clip-path="url(#clip040)" d="M 0 0 M1271.43 40.7752 L1271.43 50.8446 Q1266.92 48.5298 1262.05 47.3724 Q1257.19 46.215 1251.98 46.215 Q1244.06 46.215 1240.06 48.6456 Q1236.13 51.0761 1236.13 55.9372 Q1236.13 59.6409 1238.96 61.7821 Q1241.8 63.8654 1250.36 65.7751 L1254.01 66.5853 Q1265.35 69.0158 1270.1 73.4718 Q1274.9 77.87 1274.9 85.7982 Q1274.9 94.8259 1267.73 100.092 Q1260.61 105.358 1248.11 105.358 Q1242.9 105.358 1237.23 104.317 Q1231.61 103.333 1225.36 101.307 L1225.36 90.312 Q1231.27 93.3791 1237 94.9416 Q1242.73 96.4462 1248.34 96.4462 Q1255.86 96.4462 1259.91 93.9 Q1263.96 91.2958 1263.96 86.6083 Q1263.96 82.2681 1261.01 79.9533 Q1258.12 77.6385 1248.22 75.4973 L1244.52 74.6292 Q1234.62 72.5459 1230.23 68.2635 Q1225.83 63.9233 1225.83 56.4002 Q1225.83 47.2567 1232.31 42.2799 Q1238.79 37.303 1250.71 37.303 Q1256.61 37.303 1261.82 38.1711 Q1267.03 39.0391 1271.43 40.7752 Z" fill="#bebebe" fill-rule="evenodd" fill-opacity="1" /><path clip-path="url(#clip040)" d="M 0 0 M1296.6 20.4629 L1296.6 38.8655 L1318.54 38.8655 L1318.54 47.141 L1296.6 47.141 L1296.6 82.3259 Q1296.6 90.2541 1298.74 92.5111 Q1300.94 94.768 1307.6 94.768 L1318.54 94.768 L1318.54 103.68 L1307.6 103.68 Q1295.27 103.68 1290.58 99.1083 Q1285.9 94.4787 1285.9 82.3259 L1285.9 47.141 L1278.08 47.141 L1278.08 38.8655 L1285.9 38.8655 L1285.9 20.4629 L1296.6 20.4629 Z" fill="#bebebe" fill-rule="evenodd" fill-opacity="1" /><path clip-path="url(#clip040)" d="M 0 0 M1354.82 46.3308 Q1346.25 46.3308 1341.28 53.0437 Q1336.3 59.6988 1336.3 71.3306 Q1336.3 82.9625 1341.22 89.6754 Q1346.2 96.3305 1354.82 96.3305 Q1363.33 96.3305 1368.3 89.6176 Q1373.28 82.9046 1373.28 71.3306 Q1373.28 59.8145 1368.3 53.1016 Q1363.33 46.3308 1354.82 46.3308 M1354.82 37.303 Q1368.71 37.303 1376.64 46.3308 Q1384.56 55.3585 1384.56 71.3306 Q1384.56 87.2449 1376.64 96.3305 Q1368.71 105.358 1354.82 105.358 Q1340.87 105.358 1332.94 96.3305 Q1325.07 87.2449 1325.07 71.3306 Q1325.07 55.3585 1332.94 46.3308 Q1340.87 37.303 1354.82 37.303 Z" fill="#bebebe" fill-rule="evenodd" fill-opacity="1" /><path clip-path="url(#clip040)" d="M 0 0 M1438.38 70.5205 Q1438.38 58.9464 1433.58 52.5807 Q1428.84 46.215 1420.21 46.215 Q1411.65 46.215 1406.84 52.5807 Q1402.1 58.9464 1402.1 70.5205 Q1402.1 82.0366 1406.84 88.4023 Q1411.65 94.768 1420.21 94.768 Q1428.84 94.768 1433.58 88.4023 Q1438.38 82.0366 1438.38 70.5205 M1449.03 95.6361 Q1449.03 112.187 1441.68 120.231 Q1434.33 128.333 1419.17 128.333 Q1413.56 128.333 1408.58 127.465 Q1403.6 126.654 1398.92 124.918 L1398.92 114.56 Q1403.6 117.106 1408.18 118.321 Q1412.75 119.536 1417.49 119.536 Q1427.97 119.536 1433.18 114.039 Q1438.38 108.599 1438.38 97.5458 L1438.38 92.2796 Q1435.09 98.0087 1429.94 100.844 Q1424.78 103.68 1417.61 103.68 Q1405.69 103.68 1398.4 94.5944 Q1391.1 85.5088 1391.1 70.5205 Q1391.1 55.4742 1398.4 46.3886 Q1405.69 37.303 1417.61 37.303 Q1424.78 37.303 1429.94 40.1387 Q1435.09 42.9743 1438.38 48.7034 L1438.38 38.8655 L1449.03 38.8655 L1449.03 95.6361 Z" fill="#bebebe" fill-rule="evenodd" fill-opacity="1" /><path clip-path="url(#clip040)" d="M 0 0 M1497.76 48.8192 Q1495.96 47.7775 1493.82 47.3146 Q1491.74 46.7937 1489.19 46.7937 Q1480.17 46.7937 1475.31 52.6965 Q1470.5 58.5414 1470.5 69.5367 L1470.5 103.68 L1459.8 103.68 L1459.8 38.8655 L1470.5 38.8655 L1470.5 48.9349 Q1473.86 43.0322 1479.24 40.1965 Q1484.62 37.303 1492.32 37.303 Q1493.42 37.303 1494.75 37.4767 Q1496.08 37.5924 1497.7 37.8817 L1497.76 48.8192 Z" fill="#bebebe" fill-rule="evenodd" fill-opacity="1" /><path clip-path="url(#clip040)" d="M 0 0 M1538.38 71.0992 Q1525.48 71.0992 1520.5 74.0505 Q1515.52 77.0019 1515.52 84.1199 Q1515.52 89.7912 1519.23 93.1476 Q1522.99 96.4462 1529.41 96.4462 Q1538.27 96.4462 1543.59 90.1963 Q1548.97 83.8884 1548.97 73.4718 L1548.97 71.0992 L1538.38 71.0992 M1559.62 66.701 L1559.62 103.68 L1548.97 103.68 L1548.97 93.8421 Q1545.33 99.7448 1539.89 102.58 Q1534.45 105.358 1526.58 105.358 Q1516.62 105.358 1510.72 99.8027 Q1504.88 94.1893 1504.88 84.8144 Q1504.88 73.8769 1512.17 68.3214 Q1519.52 62.7659 1534.04 62.7659 L1548.97 62.7659 L1548.97 61.7242 Q1548.97 54.3747 1544.11 50.3817 Q1539.31 46.3308 1530.57 46.3308 Q1525.02 46.3308 1519.75 47.6618 Q1514.48 48.9928 1509.62 51.6548 L1509.62 41.8169 Q1515.47 39.56 1520.96 38.4604 Q1526.46 37.303 1531.67 37.303 Q1545.73 37.303 1552.68 44.5947 Q1559.62 51.8863 1559.62 66.701 Z" fill="#bebebe" fill-rule="evenodd" fill-opacity="1" /><path clip-path="url(#clip040)" d="M 0 0 M1621.25 51.3076 Q1625.25 44.1317 1630.8 40.7174 Q1636.36 37.303 1643.88 37.303 Q1654.01 37.303 1659.51 44.4211 Q1665 51.4812 1665 64.5598 L1665 103.68 L1654.3 103.68 L1654.3 64.9071 Q1654.3 55.59 1651 51.0761 Q1647.7 46.5623 1640.93 46.5623 Q1632.65 46.5623 1627.85 52.0599 Q1623.05 57.5576 1623.05 67.0483 L1623.05 103.68 L1612.34 103.68 L1612.34 64.9071 Q1612.34 55.5321 1609.04 51.0761 Q1605.74 46.5623 1598.86 46.5623 Q1590.7 46.5623 1585.89 52.1178 Q1581.09 57.6154 1581.09 67.0483 L1581.09 103.68 L1570.39 103.68 L1570.39 38.8655 L1581.09 38.8655 L1581.09 48.9349 Q1584.74 42.9743 1589.83 40.1387 Q1594.92 37.303 1601.92 37.303 Q1608.99 37.303 1613.9 40.891 Q1618.88 44.4789 1621.25 51.3076 Z" fill="#bebebe" fill-rule="evenodd" fill-opacity="1" /><path clip-path="url(#clip040)" d="M 0 0 M1686.24 17.28 L1686.24 49.3979 L1676.4 49.3979 L1676.4 17.28 L1686.24 17.28 Z" fill="#bebebe" fill-rule="evenodd" fill-opacity="1" /><path clip-path="url(#clip042)" d="
M263.662 187.111 L263.662 1444.41 L919.496 1444.41 L919.496 187.111 L263.662 187.111 L263.662 187.111  Z
  " fill="#e69f00" fill-rule="evenodd" fill-opacity="1"/>
<polyline clip-path="url(#clip042)" style="stroke:#000000; stroke-width:4; stroke-opacity:1; fill:none" points="
  263.662,187.111 263.662,1444.41 919.496,1444.41 919.496,187.111 263.662,187.111 
  "/>
<path clip-path="url(#clip042)" d="
M919.496 466.511 L919.496 1444.41 L1575.33 1444.41 L1575.33 466.511 L919.496 466.511 L919.496 466.511  Z
  " fill="#e69f00" fill-rule="evenodd" fill-opacity="1"/>
<polyline clip-path="url(#clip042)" style="stroke:#000000; stroke-width:4; stroke-opacity:1; fill:none" points="
  919.496,466.511 919.496,1444.41 1575.33,1444.41 1575.33,466.511 919.496,466.511 
  "/>
<path clip-path="url(#clip042)" d="
M1575.33 1351.28 L1575.33 1444.41 L2231.16 1444.41 L2231.16 1351.28 L1575.33 1351.28 L1575.33 1351.28  Z
  " fill="#e69f00" fill-rule="evenodd" fill-opacity="1"/>
<polyline clip-path="url(#clip042)" style="stroke:#000000; stroke-width:4; stroke-opacity:1; fill:none" points="
  1575.33,1351.28 1575.33,1444.41 2231.16,1444.41 2231.16,1351.28 1575.33,1351.28 
  "/>
<path clip-path="url(#clip040)" d="
M1982.42 314.777 L2279.07 314.777 L2279.07 193.817 L1982.42 193.817  Z
  " fill="#ffffff" fill-rule="evenodd" fill-opacity="1"/>
<polyline clip-path="url(#clip040)" style="stroke:#000000; stroke-width:4; stroke-opacity:1; fill:none" points="
  1982.42,314.777 2279.07,314.777 2279.07,193.817 1982.42,193.817 1982.42,314.777 
  "/>
<path clip-path="url(#clip040)" d="
M2006.98 278.489 L2154.36 278.489 L2154.36 230.105 L2006.98 230.105 L2006.98 278.489  Z
  " fill="#e69f00" fill-rule="evenodd" fill-opacity="1"/>
<polyline clip-path="url(#clip040)" style="stroke:#000000; stroke-width:4; stroke-opacity:1; fill:none" points="
  2006.98,278.489 2154.36,278.489 2154.36,230.105 2006.98,230.105 2006.98,278.489 
  "/>
<path clip-path="url(#clip040)" d="M 0 0 M2192.76 273.984 Q2190.96 278.614 2189.25 280.026 Q2187.53 281.438 2184.66 281.438 L2181.26 281.438 L2181.26 277.873 L2183.76 277.873 Q2185.52 277.873 2186.49 277.04 Q2187.46 276.206 2188.64 273.104 L2189.41 271.16 L2178.92 245.651 L2183.44 245.651 L2191.54 265.929 L2199.64 245.651 L2204.15 245.651 L2192.76 273.984 Z" fill="#bebebe" fill-rule="evenodd" fill-opacity="1" /><path clip-path="url(#clip040)" d="M 0 0 M2210.03 267.641 L2217.67 267.641 L2217.67 241.276 L2209.36 242.943 L2209.36 238.683 L2217.63 237.017 L2222.3 237.017 L2222.3 267.641 L2229.94 267.641 L2229.94 271.577 L2210.03 271.577 L2210.03 267.641 Z" fill="#bebebe" fill-rule="evenodd" fill-opacity="1" /></svg>
