<?xml version="1.0" encoding="utf-8"?>
<svg xmlns="http://www.w3.org/2000/svg" xmlns:xlink="http://www.w3.org/1999/xlink" width="600" height="400" viewBox="0 0 2400 1600">
<defs>
  <clipPath id="clip400">
    <rect x="0" y="0" width="2400" height="1600"/>
  </clipPath>
</defs>
<path clip-path="url(#clip400)" d="
M0 1600 L2400 1600 L2400 0 L0 0  Z
  " fill="#ffffff" fill-rule="evenodd" fill-opacity="1"/>
<defs>
  <clipPath id="clip401">
    <rect x="480" y="0" width="1681" height="1600"/>
  </clipPath>
</defs>
<path clip-path="url(#clip400)" d="
M185.846 1482.13 L2352.76 1482.13 L2352.76 149.392 L185.846 149.392  Z
  " fill="#ffffff" fill-rule="evenodd" fill-opacity="1"/>
<defs>
  <clipPath id="clip402">
    <rect x="185" y="149" width="2168" height="1334"/>
  </clipPath>
</defs>
<polyline clip-path="url(#clip402)" style="stroke:#000000; stroke-width:2; stroke-opacity:0.1; fill:none" points="
  677.543,1482.13 677.543,149.392 
  "/>
<polyline clip-path="url(#clip402)" style="stroke:#000000; stroke-width:2; stroke-opacity:0.1; fill:none" points="
  1215.5,1482.13 1215.5,149.392 
  "/>
<polyline clip-path="url(#clip402)" style="stroke:#000000; stroke-width:2; stroke-opacity:0.1; fill:none" points="
  1753.47,1482.13 1753.47,149.392 
  "/>
<polyline clip-path="url(#clip402)" style="stroke:#000000; stroke-width:2; stroke-opacity:0.1; fill:none" points="
  2291.43,1482.13 2291.43,149.392 
  "/>
<polyline clip-path="url(#clip400)" style="stroke:#000000; stroke-width:4; stroke-opacity:1; fill:none" points="
  185.846,1482.13 2352.76,1482.13 
  "/>
<polyline clip-path="url(#clip400)" style="stroke:#000000; stroke-width:4; stroke-opacity:1; fill:none" points="
  677.543,1482.13 677.543,1466.14 
  "/>
<polyline clip-path="url(#clip400)" style="stroke:#000000; stroke-width:4; stroke-opacity:1; fill:none" points="
  1215.5,1482.13 1215.5,1466.14 
  "/>
<polyline clip-path="url(#clip400)" style="stroke:#000000; stroke-width:4; stroke-opacity:1; fill:none" points="
  1753.47,1482.13 1753.47,1466.14 
  "/>
<polyline clip-path="url(#clip400)" style="stroke:#000000; stroke-width:4; stroke-opacity:1; fill:none" points="
  2291.43,1482.13 2291.43,1466.14 
  "/>
<path clip-path="url(#clip400)" d="M 0 0 M666.605 1509.1 L687.256 1509.1 L687.256 1513.53 L671.423 1513.53 L671.423 1523.06 Q672.569 1522.67 673.715 1522.49 Q674.861 1522.28 676.006 1522.28 Q682.517 1522.28 686.319 1525.85 Q690.121 1529.42 690.121 1535.51 Q690.121 1541.79 686.215 1545.28 Q682.308 1548.74 675.199 1548.74 Q672.751 1548.74 670.199 1548.32 Q667.673 1547.91 664.965 1547.07 L664.965 1541.79 Q667.309 1543.06 669.809 1543.69 Q672.309 1544.31 675.095 1544.31 Q679.6 1544.31 682.23 1541.94 Q684.861 1539.57 684.861 1535.51 Q684.861 1531.45 682.23 1529.08 Q679.6 1526.71 675.095 1526.71 Q672.986 1526.71 670.876 1527.18 Q668.793 1527.65 666.605 1528.64 L666.605 1509.1 Z" fill="#bebebe" fill-rule="evenodd" fill-opacity="1" /><path clip-path="url(#clip400)" d="M 0 0 M1189.49 1543.56 L1198.08 1543.56 L1198.08 1513.9 L1188.73 1515.77 L1188.73 1510.98 L1198.03 1509.1 L1203.29 1509.1 L1203.29 1543.56 L1211.88 1543.56 L1211.88 1547.98 L1189.49 1547.98 L1189.49 1543.56 Z" fill="#bebebe" fill-rule="evenodd" fill-opacity="1" /><path clip-path="url(#clip400)" d="M 0 0 M1228.84 1512.57 Q1224.78 1512.57 1222.72 1516.58 Q1220.69 1520.56 1220.69 1528.58 Q1220.69 1536.58 1222.72 1540.59 Q1224.78 1544.57 1228.84 1544.57 Q1232.93 1544.57 1234.96 1540.59 Q1237.01 1536.58 1237.01 1528.58 Q1237.01 1520.56 1234.96 1516.58 Q1232.93 1512.57 1228.84 1512.57 M1228.84 1508.4 Q1235.37 1508.4 1238.81 1513.58 Q1242.28 1518.74 1242.28 1528.58 Q1242.28 1538.4 1238.81 1543.58 Q1235.37 1548.74 1228.84 1548.74 Q1222.3 1548.74 1218.84 1543.58 Q1215.4 1538.4 1215.4 1528.58 Q1215.4 1518.74 1218.84 1513.58 Q1222.3 1508.4 1228.84 1508.4 Z" fill="#bebebe" fill-rule="evenodd" fill-opacity="1" /><path clip-path="url(#clip400)" d="M 0 0 M1728.01 1543.56 L1736.6 1543.56 L1736.6 1513.9 L1727.26 1515.77 L1727.26 1510.98 L1736.55 1509.1 L1741.81 1509.1 L1741.81 1543.56 L1750.41 1543.56 L1750.41 1547.98 L1728.01 1547.98 L1728.01 1543.56 Z" fill="#bebebe" fill-rule="evenodd" fill-opacity="1" /><path clip-path="url(#clip400)" d="M 0 0 M1756.16 1509.1 L1776.81 1509.1 L1776.81 1513.53 L1760.98 1513.53 L1760.98 1523.06 Q1762.13 1522.67 1763.27 1522.49 Q1764.42 1522.28 1765.56 1522.28 Q1772.07 1522.28 1775.88 1525.85 Q1779.68 1529.42 1779.68 1535.51 Q1779.68 1541.79 1775.77 1545.28 Q1771.86 1548.74 1764.76 1548.74 Q1762.31 1548.74 1759.76 1548.32 Q1757.23 1547.91 1754.52 1547.07 L1754.52 1541.79 Q1756.86 1543.06 1759.36 1543.69 Q1761.86 1544.31 1764.65 1544.31 Q1769.16 1544.31 1771.79 1541.94 Q1774.42 1539.57 1774.42 1535.51 Q1774.42 1531.45 1771.79 1529.08 Q1769.16 1526.71 1764.65 1526.71 Q1762.54 1526.71 1760.43 1527.18 Q1758.35 1527.65 1756.16 1528.64 L1756.16 1509.1 Z" fill="#bebebe" fill-rule="evenodd" fill-opacity="1" /><path clip-path="url(#clip400)" d="M 0 0 M2270.22 1543.56 L2288.58 1543.56 L2288.58 1547.98 L2263.89 1547.98 L2263.89 1543.56 Q2266.88 1540.46 2272.04 1535.25 Q2277.22 1530.02 2278.55 1528.5 Q2281.08 1525.67 2282.07 1523.71 Q2283.08 1521.73 2283.08 1519.83 Q2283.08 1516.73 2280.89 1514.78 Q2278.73 1512.83 2275.24 1512.83 Q2272.77 1512.83 2270.01 1513.69 Q2267.27 1514.55 2264.15 1516.29 L2264.15 1510.98 Q2267.33 1509.7 2270.09 1509.05 Q2272.85 1508.4 2275.14 1508.4 Q2281.18 1508.4 2284.77 1511.42 Q2288.37 1514.44 2288.37 1519.49 Q2288.37 1521.89 2287.46 1524.05 Q2286.57 1526.19 2284.2 1529.1 Q2283.55 1529.86 2280.06 1533.48 Q2276.57 1537.07 2270.22 1543.56 Z" fill="#bebebe" fill-rule="evenodd" fill-opacity="1" /><path clip-path="url(#clip400)" d="M 0 0 M2305.53 1512.57 Q2301.47 1512.57 2299.41 1516.58 Q2297.38 1520.56 2297.38 1528.58 Q2297.38 1536.58 2299.41 1540.59 Q2301.47 1544.57 2305.53 1544.57 Q2309.62 1544.57 2311.65 1540.59 Q2313.71 1536.58 2313.71 1528.58 Q2313.71 1520.56 2311.65 1516.58 Q2309.62 1512.57 2305.53 1512.57 M2305.53 1508.4 Q2312.07 1508.4 2315.5 1513.58 Q2318.97 1518.74 2318.97 1528.58 Q2318.97 1538.4 2315.5 1543.58 Q2312.07 1548.74 2305.53 1548.74 Q2298.99 1548.74 2295.53 1543.58 Q2292.09 1538.4 2292.09 1528.58 Q2292.09 1518.74 2295.53 1513.58 Q2298.99 1508.4 2305.53 1508.4 Z" fill="#bebebe" fill-rule="evenodd" fill-opacity="1" /><polyline clip-path="url(#clip402)" style="stroke:#000000; stroke-width:2; stroke-opacity:0.1; fill:none" points="
  185.846,1451.22 2352.76,1451.22 
  "/>
<polyline clip-path="url(#clip402)" style="stroke:#000000; stroke-width:2; stroke-opacity:0.1; fill:none" points="
  185.846,1127.04 2352.76,1127.04 
  "/>
<polyline clip-path="url(#clip402)" style="stroke:#000000; stroke-width:2; stroke-opacity:0.1; fill:none" points="
  185.846,802.863 2352.76,802.863 
  "/>
<polyline clip-path="url(#clip402)" style="stroke:#000000; stroke-width:2; stroke-opacity:0.1; fill:none" points="
  185.846,478.683 2352.76,478.683 
  "/>
<polyline clip-path="url(#clip402)" style="stroke:#000000; stroke-width:2; stroke-opacity:0.1; fill:none" points="
  185.846,154.503 2352.76,154.503 
  "/>
<polyline clip-path="url(#clip400)" style="stroke:#000000; stroke-width:4; stroke-opacity:1; fill:none" points="
  185.846,1482.13 185.846,149.392 
  "/>
<polyline clip-path="url(#clip400)" style="stroke:#000000; stroke-width:4; stroke-opacity:1; fill:none" points="
  185.846,1451.22 211.849,1451.22 
  "/>
<polyline clip-path="url(#clip400)" style="stroke:#000000; stroke-width:4; stroke-opacity:1; fill:none" points="
  185.846,1127.04 211.849,1127.04 
  "/>
<polyline clip-path="url(#clip400)" style="stroke:#000000; stroke-width:4; stroke-opacity:1; fill:none" points="
  185.846,802.863 211.849,802.863 
  "/>
<polyline clip-path="url(#clip400)" style="stroke:#000000; stroke-width:4; stroke-opacity:1; fill:none" points="
  185.846,478.683 211.849,478.683 
  "/>
<polyline clip-path="url(#clip400)" style="stroke:#000000; stroke-width:4; stroke-opacity:1; fill:none" points="
  185.846,154.503 211.849,154.503 
  "/>
<path clip-path="url(#clip400)" d="M 0 0 M64.4296 1435.25 Q60.3671 1435.25 58.3098 1439.26 Q56.2786 1443.24 56.2786 1451.26 Q56.2786 1459.26 58.3098 1463.27 Q60.3671 1467.25 64.4296 1467.25 Q68.5181 1467.25 70.5493 1463.27 Q72.6066 1459.26 72.6066 1451.26 Q72.6066 1443.24 70.5493 1439.26 Q68.5181 1435.25 64.4296 1435.25 M64.4296 1431.08 Q70.966 1431.08 74.4035 1436.26 Q77.867 1441.42 77.867 1451.26 Q77.867 1461.08 74.4035 1466.26 Q70.966 1471.42 64.4296 1471.42 Q57.8931 1471.42 54.4296 1466.26 Q50.9921 1461.08 50.9921 1451.26 Q50.9921 1441.42 54.4296 1436.26 Q57.8931 1431.08 64.4296 1431.08 Z" fill="#bebebe" fill-rule="evenodd" fill-opacity="1" /><path clip-path="url(#clip400)" d="M 0 0 M83.5701 1464.05 L89.0648 1464.05 L89.0648 1470.66 L83.5701 1470.66 L83.5701 1464.05 Z" fill="#bebebe" fill-rule="evenodd" fill-opacity="1" /><path clip-path="url(#clip400)" d="M 0 0 M106.018 1435.25 Q101.955 1435.25 99.8981 1439.26 Q97.8669 1443.24 97.8669 1451.26 Q97.8669 1459.26 99.8981 1463.27 Q101.955 1467.25 106.018 1467.25 Q110.106 1467.25 112.138 1463.27 Q114.195 1459.26 114.195 1451.26 Q114.195 1443.24 112.138 1439.26 Q110.106 1435.25 106.018 1435.25 M106.018 1431.08 Q112.554 1431.08 115.992 1436.26 Q119.455 1441.42 119.455 1451.26 Q119.455 1461.08 115.992 1466.26 Q112.554 1471.42 106.018 1471.42 Q99.4814 1471.42 96.0179 1466.26 Q92.5804 1461.08 92.5804 1451.26 Q92.5804 1441.42 96.0179 1436.26 Q99.4814 1431.08 106.018 1431.08 Z" fill="#bebebe" fill-rule="evenodd" fill-opacity="1" /><path clip-path="url(#clip400)" d="M 0 0 M136.408 1435.25 Q132.346 1435.25 130.289 1439.26 Q128.257 1443.24 128.257 1451.26 Q128.257 1459.26 130.289 1463.27 Q132.346 1467.25 136.408 1467.25 Q140.497 1467.25 142.528 1463.27 Q144.585 1459.26 144.585 1451.26 Q144.585 1443.24 142.528 1439.26 Q140.497 1435.25 136.408 1435.25 M136.408 1431.08 Q142.945 1431.08 146.382 1436.26 Q149.846 1441.42 149.846 1451.26 Q149.846 1461.08 146.382 1466.26 Q142.945 1471.42 136.408 1471.42 Q129.872 1471.42 126.408 1466.26 Q122.971 1461.08 122.971 1451.26 Q122.971 1441.42 126.408 1436.26 Q129.872 1431.08 136.408 1431.08 Z" fill="#bebebe" fill-rule="evenodd" fill-opacity="1" /><path clip-path="url(#clip400)" d="M 0 0 M67.3462 1111.07 Q63.2837 1111.07 61.2264 1115.08 Q59.1952 1119.06 59.1952 1127.08 Q59.1952 1135.08 61.2264 1139.09 Q63.2837 1143.07 67.3462 1143.07 Q71.4347 1143.07 73.466 1139.09 Q75.5232 1135.08 75.5232 1127.08 Q75.5232 1119.06 73.466 1115.08 Q71.4347 1111.07 67.3462 1111.07 M67.3462 1106.9 Q73.8826 1106.9 77.3201 1112.08 Q80.7836 1117.24 80.7836 1127.08 Q80.7836 1136.9 77.3201 1142.08 Q73.8826 1147.24 67.3462 1147.24 Q60.8098 1147.24 57.3463 1142.08 Q53.9088 1136.9 53.9088 1127.08 Q53.9088 1117.24 57.3463 1112.08 Q60.8098 1106.9 67.3462 1106.9 Z" fill="#bebebe" fill-rule="evenodd" fill-opacity="1" /><path clip-path="url(#clip400)" d="M 0 0 M86.4867 1139.87 L91.9815 1139.87 L91.9815 1146.48 L86.4867 1146.48 L86.4867 1139.87 Z" fill="#bebebe" fill-rule="evenodd" fill-opacity="1" /><path clip-path="url(#clip400)" d="M 0 0 M102.216 1142.06 L120.575 1142.06 L120.575 1146.48 L95.8877 1146.48 L95.8877 1142.06 Q98.8825 1138.96 104.039 1133.75 Q109.221 1128.51 110.549 1127 Q113.075 1124.17 114.065 1122.21 Q115.08 1120.23 115.08 1118.33 Q115.08 1115.23 112.893 1113.28 Q110.731 1111.33 107.242 1111.33 Q104.768 1111.33 102.007 1112.19 Q99.2731 1113.05 96.1481 1114.79 L96.1481 1109.48 Q99.3252 1108.2 102.086 1107.55 Q104.846 1106.9 107.138 1106.9 Q113.179 1106.9 116.773 1109.92 Q120.367 1112.94 120.367 1117.99 Q120.367 1120.39 119.455 1122.55 Q118.57 1124.69 116.2 1127.6 Q115.549 1128.36 112.06 1131.98 Q108.57 1135.57 102.216 1142.06 Z" fill="#bebebe" fill-rule="evenodd" fill-opacity="1" /><path clip-path="url(#clip400)" d="M 0 0 M126.33 1107.6 L146.981 1107.6 L146.981 1112.03 L131.148 1112.03 L131.148 1121.56 Q132.294 1121.17 133.44 1120.99 Q134.585 1120.78 135.731 1120.78 Q142.242 1120.78 146.044 1124.35 Q149.846 1127.92 149.846 1134.01 Q149.846 1140.29 145.94 1143.77 Q142.033 1147.24 134.924 1147.24 Q132.476 1147.24 129.924 1146.82 Q127.398 1146.4 124.69 1145.57 L124.69 1140.29 Q127.033 1141.56 129.533 1142.19 Q132.033 1142.81 134.82 1142.81 Q139.325 1142.81 141.955 1140.44 Q144.585 1138.07 144.585 1134.01 Q144.585 1129.95 141.955 1127.58 Q139.325 1125.21 134.82 1125.21 Q132.71 1125.21 130.601 1125.68 Q128.518 1126.14 126.33 1127.13 L126.33 1107.6 Z" fill="#bebebe" fill-rule="evenodd" fill-opacity="1" /><path clip-path="url(#clip400)" d="M 0 0 M65.5493 786.887 Q61.4869 786.887 59.4296 790.897 Q57.3983 794.881 57.3983 802.902 Q57.3983 810.897 59.4296 814.907 Q61.4869 818.892 65.5493 818.892 Q69.6379 818.892 71.6691 814.907 Q73.7264 810.897 73.7264 802.902 Q73.7264 794.881 71.6691 790.897 Q69.6379 786.887 65.5493 786.887 M65.5493 782.72 Q72.0858 782.72 75.5232 787.902 Q78.9868 793.058 78.9868 802.902 Q78.9868 812.72 75.5232 817.902 Q72.0858 823.058 65.5493 823.058 Q59.0129 823.058 55.5494 817.902 Q52.1119 812.72 52.1119 802.902 Q52.1119 793.058 55.5494 787.902 Q59.0129 782.72 65.5493 782.72 Z" fill="#bebebe" fill-rule="evenodd" fill-opacity="1" /><path clip-path="url(#clip400)" d="M 0 0 M84.6899 815.689 L90.1846 815.689 L90.1846 822.303 L84.6899 822.303 L84.6899 815.689 Z" fill="#bebebe" fill-rule="evenodd" fill-opacity="1" /><path clip-path="url(#clip400)" d="M 0 0 M95.9398 783.423 L116.591 783.423 L116.591 787.85 L100.757 787.85 L100.757 797.381 Q101.903 796.991 103.049 796.808 Q104.195 796.6 105.341 796.6 Q111.851 796.6 115.653 800.168 Q119.455 803.735 119.455 809.829 Q119.455 816.105 115.549 819.595 Q111.643 823.058 104.534 823.058 Q102.086 823.058 99.5335 822.642 Q97.0075 822.225 94.2992 821.392 L94.2992 816.105 Q96.6429 817.381 99.1429 818.006 Q101.643 818.631 104.429 818.631 Q108.935 818.631 111.565 816.261 Q114.195 813.892 114.195 809.829 Q114.195 805.767 111.565 803.397 Q108.935 801.027 104.429 801.027 Q102.32 801.027 100.211 801.496 Q98.1273 801.965 95.9398 802.954 L95.9398 783.423 Z" fill="#bebebe" fill-rule="evenodd" fill-opacity="1" /><path clip-path="url(#clip400)" d="M 0 0 M136.408 786.887 Q132.346 786.887 130.289 790.897 Q128.257 794.881 128.257 802.902 Q128.257 810.897 130.289 814.907 Q132.346 818.892 136.408 818.892 Q140.497 818.892 142.528 814.907 Q144.585 810.897 144.585 802.902 Q144.585 794.881 142.528 790.897 Q140.497 786.887 136.408 786.887 M136.408 782.72 Q142.945 782.72 146.382 787.902 Q149.846 793.058 149.846 802.902 Q149.846 812.72 146.382 817.902 Q142.945 823.058 136.408 823.058 Q129.872 823.058 126.408 817.902 Q122.971 812.72 122.971 802.902 Q122.971 793.058 126.408 787.902 Q129.872 782.72 136.408 782.72 Z" fill="#bebebe" fill-rule="evenodd" fill-opacity="1" /><path clip-path="url(#clip400)" d="M 0 0 M66.565 462.707 Q62.5025 462.707 60.4452 466.717 Q58.414 470.701 58.414 478.722 Q58.414 486.717 60.4452 490.727 Q62.5025 494.712 66.565 494.712 Q70.6535 494.712 72.6847 490.727 Q74.742 486.717 74.742 478.722 Q74.742 470.701 72.6847 466.717 Q70.6535 462.707 66.565 462.707 M66.565 458.54 Q73.1014 458.54 76.5389 463.722 Q80.0024 468.879 80.0024 478.722 Q80.0024 488.54 76.5389 493.722 Q73.1014 498.878 66.565 498.878 Q60.0285 498.878 56.565 493.722 Q53.1275 488.54 53.1275 478.722 Q53.1275 468.879 56.565 463.722 Q60.0285 458.54 66.565 458.54 Z" fill="#bebebe" fill-rule="evenodd" fill-opacity="1" /><path clip-path="url(#clip400)" d="M 0 0 M85.7055 491.509 L91.2002 491.509 L91.2002 498.123 L85.7055 498.123 L85.7055 491.509 Z" fill="#bebebe" fill-rule="evenodd" fill-opacity="1" /><path clip-path="url(#clip400)" d="M 0 0 M95.5752 459.243 L120.575 459.243 L120.575 461.483 L106.461 498.123 L100.966 498.123 L114.247 463.67 L95.5752 463.67 L95.5752 459.243 Z" fill="#bebebe" fill-rule="evenodd" fill-opacity="1" /><path clip-path="url(#clip400)" d="M 0 0 M126.33 459.243 L146.981 459.243 L146.981 463.67 L131.148 463.67 L131.148 473.201 Q132.294 472.811 133.44 472.629 Q134.585 472.42 135.731 472.42 Q142.242 472.42 146.044 475.988 Q149.846 479.556 149.846 485.649 Q149.846 491.925 145.94 495.415 Q142.033 498.878 134.924 498.878 Q132.476 498.878 129.924 498.462 Q127.398 498.045 124.69 497.212 L124.69 491.925 Q127.033 493.201 129.533 493.826 Q132.033 494.451 134.82 494.451 Q139.325 494.451 141.955 492.082 Q144.585 489.712 144.585 485.649 Q144.585 481.587 141.955 479.217 Q139.325 476.847 134.82 476.847 Q132.71 476.847 130.601 477.316 Q128.518 477.785 126.33 478.774 L126.33 459.243 Z" fill="#bebebe" fill-rule="evenodd" fill-opacity="1" /><path clip-path="url(#clip400)" d="M 0 0 M55.4713 169.516 L64.065 169.516 L64.065 139.855 L54.7161 141.73 L54.7161 136.938 L64.0129 135.063 L69.2733 135.063 L69.2733 169.516 L77.867 169.516 L77.867 173.943 L55.4713 173.943 L55.4713 169.516 Z" fill="#bebebe" fill-rule="evenodd" fill-opacity="1" /><path clip-path="url(#clip400)" d="M 0 0 M83.5701 167.329 L89.0648 167.329 L89.0648 173.943 L83.5701 173.943 L83.5701 167.329 Z" fill="#bebebe" fill-rule="evenodd" fill-opacity="1" /><path clip-path="url(#clip400)" d="M 0 0 M106.018 138.527 Q101.955 138.527 99.8981 142.537 Q97.8669 146.522 97.8669 154.542 Q97.8669 162.537 99.8981 166.548 Q101.955 170.532 106.018 170.532 Q110.106 170.532 112.138 166.548 Q114.195 162.537 114.195 154.542 Q114.195 146.522 112.138 142.537 Q110.106 138.527 106.018 138.527 M106.018 134.36 Q112.554 134.36 115.992 139.542 Q119.455 144.699 119.455 154.542 Q119.455 164.36 115.992 169.542 Q112.554 174.699 106.018 174.699 Q99.4814 174.699 96.0179 169.542 Q92.5804 164.36 92.5804 154.542 Q92.5804 144.699 96.0179 139.542 Q99.4814 134.36 106.018 134.36 Z" fill="#bebebe" fill-rule="evenodd" fill-opacity="1" /><path clip-path="url(#clip400)" d="M 0 0 M136.408 138.527 Q132.346 138.527 130.289 142.537 Q128.257 146.522 128.257 154.542 Q128.257 162.537 130.289 166.548 Q132.346 170.532 136.408 170.532 Q140.497 170.532 142.528 166.548 Q144.585 162.537 144.585 154.542 Q144.585 146.522 142.528 142.537 Q140.497 138.527 136.408 138.527 M136.408 134.36 Q142.945 134.36 146.382 139.542 Q149.846 144.699 149.846 154.542 Q149.846 164.36 146.382 169.542 Q142.945 174.699 136.408 174.699 Q129.872 174.699 126.408 169.542 Q122.971 164.36 122.971 154.542 Q122.971 144.699 126.408 139.542 Q129.872 134.36 136.408 134.36 Z" fill="#bebebe" fill-rule="evenodd" fill-opacity="1" /><path clip-path="url(#clip400)" d="M 0 0 M963.429 20.1156 L963.429 31.516 Q956.774 28.3332 950.871 26.7707 Q944.968 25.2082 939.47 25.2082 Q929.922 25.2082 924.714 28.9119 Q919.563 32.6156 919.563 39.4442 Q919.563 45.1734 922.977 48.1247 Q926.45 51.0182 936.056 52.8122 L943.116 54.259 Q956.195 56.7474 962.387 63.0552 Q968.637 69.3052 968.637 79.8375 Q968.637 92.3953 960.188 98.8768 Q951.797 105.358 935.535 105.358 Q929.401 105.358 922.457 103.969 Q915.57 102.58 908.163 99.8606 L908.163 87.8236 Q915.281 91.8166 922.109 93.8421 Q928.938 95.8675 935.535 95.8675 Q945.547 95.8675 950.987 91.9324 Q956.426 87.9972 956.426 80.7056 Q956.426 74.3399 952.491 70.7519 Q948.614 67.164 939.702 65.37 L932.584 63.9811 Q919.505 61.377 913.66 55.8215 Q907.816 50.2659 907.816 40.3702 Q907.816 28.9119 915.859 22.3147 Q923.961 15.7175 938.139 15.7175 Q944.216 15.7175 950.524 16.817 Q956.831 17.9166 963.429 20.1156 Z" fill="#bebebe" fill-rule="evenodd" fill-opacity="1" /><path clip-path="url(#clip400)" d="M 0 0 M1035.25 68.6107 L1035.25 73.819 L986.287 73.819 Q986.982 84.8144 992.884 90.6014 Q998.845 96.3305 1009.44 96.3305 Q1015.57 96.3305 1021.3 94.8259 Q1027.09 93.3213 1032.76 90.312 L1032.76 100.381 Q1027.03 102.812 1021.01 104.085 Q1014.99 105.358 1008.8 105.358 Q993.29 105.358 984.204 96.3305 Q975.176 87.3028 975.176 71.9093 Q975.176 55.9951 983.741 46.678 Q992.364 37.303 1006.95 37.303 Q1020.03 37.303 1027.61 45.7521 Q1035.25 54.1432 1035.25 68.6107 M1024.6 65.4858 Q1024.48 56.7474 1019.68 51.5391 Q1014.93 46.3308 1007.06 46.3308 Q998.151 46.3308 992.769 51.3655 Q987.445 56.4002 986.635 65.5436 L1024.6 65.4858 Z" fill="#bebebe" fill-rule="evenodd" fill-opacity="1" /><path clip-path="url(#clip400)" d="M 0 0 M1083.97 48.8192 Q1082.18 47.7775 1080.04 47.3146 Q1077.95 46.7937 1075.41 46.7937 Q1066.38 46.7937 1061.52 52.6965 Q1056.72 58.5414 1056.72 69.5367 L1056.72 103.68 L1046.01 103.68 L1046.01 38.8655 L1056.72 38.8655 L1056.72 48.9349 Q1060.07 43.0322 1065.45 40.1965 Q1070.84 37.303 1078.53 37.303 Q1079.63 37.303 1080.96 37.4767 Q1082.29 37.5924 1083.91 37.8817 L1083.97 48.8192 Z" fill="#bebebe" fill-rule="evenodd" fill-opacity="1" /><path clip-path="url(#clip400)" d="M 0 0 M1095.14 38.8655 L1105.79 38.8655 L1105.79 103.68 L1095.14 103.68 L1095.14 38.8655 M1095.14 13.6342 L1105.79 13.6342 L1105.79 27.1179 L1095.14 27.1179 L1095.14 13.6342 Z" fill="#bebebe" fill-rule="evenodd" fill-opacity="1" /><path clip-path="url(#clip400)" d="M 0 0 M1172.4 68.6107 L1172.4 73.819 L1123.44 73.819 Q1124.13 84.8144 1130.04 90.6014 Q1136 96.3305 1146.59 96.3305 Q1152.72 96.3305 1158.45 94.8259 Q1164.24 93.3213 1169.91 90.312 L1169.91 100.381 Q1164.18 102.812 1158.16 104.085 Q1152.14 105.358 1145.95 105.358 Q1130.44 105.358 1121.36 96.3305 Q1112.33 87.3028 1112.33 71.9093 Q1112.33 55.9951 1120.89 46.678 Q1129.52 37.303 1144.1 37.303 Q1157.18 37.303 1164.76 45.7521 Q1172.4 54.1432 1172.4 68.6107 M1161.75 65.4858 Q1161.63 56.7474 1156.83 51.5391 Q1152.09 46.3308 1144.21 46.3308 Q1135.3 46.3308 1129.92 51.3655 Q1124.6 56.4002 1123.79 65.5436 L1161.75 65.4858 Z" fill="#bebebe" fill-rule="evenodd" fill-opacity="1" /><path clip-path="url(#clip400)" d="M 0 0 M1231.31 17.28 L1231.31 49.3979 L1221.47 49.3979 L1221.47 17.28 L1231.31 17.28 Z" fill="#bebebe" fill-rule="evenodd" fill-opacity="1" /><path clip-path="url(#clip400)" d="M 0 0 M1283.8 40.7752 L1283.8 50.8446 Q1279.28 48.5298 1274.42 47.3724 Q1269.56 46.215 1264.35 46.215 Q1256.42 46.215 1252.43 48.6456 Q1248.5 51.0761 1248.5 55.9372 Q1248.5 59.6409 1251.33 61.7821 Q1254.17 63.8654 1262.73 65.7751 L1266.38 66.5853 Q1277.72 69.0158 1282.47 73.4718 Q1287.27 77.87 1287.27 85.7982 Q1287.27 94.8259 1280.09 100.092 Q1272.98 105.358 1260.48 105.358 Q1255.27 105.358 1249.6 104.317 Q1243.98 103.333 1237.73 101.307 L1237.73 90.312 Q1243.64 93.3791 1249.36 94.9416 Q1255.09 96.4462 1260.71 96.4462 Q1268.23 96.4462 1272.28 93.9 Q1276.33 91.2958 1276.33 86.6083 Q1276.33 82.2681 1273.38 79.9533 Q1270.49 77.6385 1260.59 75.4973 L1256.89 74.6292 Q1246.99 72.5459 1242.59 68.2635 Q1238.2 63.9233 1238.2 56.4002 Q1238.2 47.2567 1244.68 42.2799 Q1251.16 37.303 1263.08 37.303 Q1268.98 37.303 1274.19 38.1711 Q1279.4 39.0391 1283.8 40.7752 Z" fill="#bebebe" fill-rule="evenodd" fill-opacity="1" /><path clip-path="url(#clip400)" d="M 0 0 M1345.08 41.3539 L1345.08 51.3076 Q1340.57 48.8192 1336 47.6039 Q1331.48 46.3308 1326.85 46.3308 Q1316.49 46.3308 1310.76 52.928 Q1305.04 59.4673 1305.04 71.3306 Q1305.04 83.194 1310.76 89.7912 Q1316.49 96.3305 1326.85 96.3305 Q1331.48 96.3305 1336 95.1152 Q1340.57 93.8421 1345.08 91.3537 L1345.08 101.192 Q1340.63 103.275 1335.82 104.317 Q1331.08 105.358 1325.7 105.358 Q1311.05 105.358 1302.43 96.1569 Q1293.81 86.9556 1293.81 71.3306 Q1293.81 55.4742 1302.49 46.3886 Q1311.23 37.303 1326.39 37.303 Q1331.31 37.303 1336 38.3447 Q1340.68 39.3285 1345.08 41.3539 Z" fill="#bebebe" fill-rule="evenodd" fill-opacity="1" /><path clip-path="url(#clip400)" d="M 0 0 M1385.71 71.0992 Q1372.8 71.0992 1367.82 74.0505 Q1362.85 77.0019 1362.85 84.1199 Q1362.85 89.7912 1366.55 93.1476 Q1370.31 96.4462 1376.74 96.4462 Q1385.59 96.4462 1390.91 90.1963 Q1396.3 83.8884 1396.3 73.4718 L1396.3 71.0992 L1385.71 71.0992 M1406.94 66.701 L1406.94 103.68 L1396.3 103.68 L1396.3 93.8421 Q1392.65 99.7448 1387.21 102.58 Q1381.77 105.358 1373.9 105.358 Q1363.95 105.358 1358.04 99.8027 Q1352.2 94.1893 1352.2 84.8144 Q1352.2 73.8769 1359.49 68.3214 Q1366.84 62.7659 1381.37 62.7659 L1396.3 62.7659 L1396.3 61.7242 Q1396.3 54.3747 1391.44 50.3817 Q1386.63 46.3308 1377.89 46.3308 Q1372.34 46.3308 1367.07 47.6618 Q1361.81 48.9928 1356.95 51.6548 L1356.95 41.8169 Q1362.79 39.56 1368.29 38.4604 Q1373.79 37.303 1378.99 37.303 Q1393.06 37.303 1400 44.5947 Q1406.94 51.8863 1406.94 66.701 Z" fill="#bebebe" fill-rule="evenodd" fill-opacity="1" /><path clip-path="url(#clip400)" d="M 0 0 M1428.65 20.4629 L1428.65 38.8655 L1450.58 38.8655 L1450.58 47.141 L1428.65 47.141 L1428.65 82.3259 Q1428.65 90.2541 1430.79 92.5111 Q1432.99 94.768 1439.64 94.768 L1450.58 94.768 L1450.58 103.68 L1439.64 103.68 Q1427.32 103.68 1422.63 99.1083 Q1417.94 94.4787 1417.94 82.3259 L1417.94 47.141 L1410.13 47.141 L1410.13 38.8655 L1417.94 38.8655 L1417.94 20.4629 L1428.65 20.4629 Z" fill="#bebebe" fill-rule="evenodd" fill-opacity="1" /><path clip-path="url(#clip400)" d="M 0 0 M1472.28 20.4629 L1472.28 38.8655 L1494.21 38.8655 L1494.21 47.141 L1472.28 47.141 L1472.28 82.3259 Q1472.28 90.2541 1474.42 92.5111 Q1476.62 94.768 1483.28 94.768 L1494.21 94.768 L1494.21 103.68 L1483.28 103.68 Q1470.95 103.68 1466.26 99.1083 Q1461.57 94.4787 1461.57 82.3259 L1461.57 47.141 L1453.76 47.141 L1453.76 38.8655 L1461.57 38.8655 L1461.57 20.4629 L1472.28 20.4629 Z" fill="#bebebe" fill-rule="evenodd" fill-opacity="1" /><path clip-path="url(#clip400)" d="M 0 0 M1560.82 68.6107 L1560.82 73.819 L1511.86 73.819 Q1512.56 84.8144 1518.46 90.6014 Q1524.42 96.3305 1535.01 96.3305 Q1541.15 96.3305 1546.87 94.8259 Q1552.66 93.3213 1558.33 90.312 L1558.33 100.381 Q1552.6 102.812 1546.59 104.085 Q1540.57 105.358 1534.37 105.358 Q1518.87 105.358 1509.78 96.3305 Q1500.75 87.3028 1500.75 71.9093 Q1500.75 55.9951 1509.32 46.678 Q1517.94 37.303 1532.52 37.303 Q1545.6 37.303 1553.18 45.7521 Q1560.82 54.1432 1560.82 68.6107 M1550.17 65.4858 Q1550.06 56.7474 1545.25 51.5391 Q1540.51 46.3308 1532.64 46.3308 Q1523.73 46.3308 1518.34 51.3655 Q1513.02 56.4002 1512.21 65.5436 L1550.17 65.4858 Z" fill="#bebebe" fill-rule="evenodd" fill-opacity="1" /><path clip-path="url(#clip400)" d="M 0 0 M1609.55 48.8192 Q1607.75 47.7775 1605.61 47.3146 Q1603.53 46.7937 1600.98 46.7937 Q1591.96 46.7937 1587.09 52.6965 Q1582.29 58.5414 1582.29 69.5367 L1582.29 103.68 L1571.59 103.68 L1571.59 38.8655 L1582.29 38.8655 L1582.29 48.9349 Q1585.65 43.0322 1591.03 40.1965 Q1596.41 37.303 1604.11 37.303 Q1605.21 37.303 1606.54 37.4767 Q1607.87 37.5924 1609.49 37.8817 L1609.55 48.8192 Z" fill="#bebebe" fill-rule="evenodd" fill-opacity="1" /><path clip-path="url(#clip400)" d="M 0 0 M1630.79 17.28 L1630.79 49.3979 L1620.95 49.3979 L1620.95 17.28 L1630.79 17.28 Z" fill="#bebebe" fill-rule="evenodd" fill-opacity="1" /><path clip-path="url(#clip402)" d="M247.173 1318.68 L244.353 1326.79 L235.761 1326.97 L242.613 1332.17 L240.117 1340.39 L247.173 1335.48 L254.229 1340.39 L251.733 1332.17 L258.585 1326.97 L249.993 1326.79 L247.173 1318.68 Z" fill="#ffa500" fill-rule="evenodd" fill-opacity="0.5" stroke="#ff0000" stroke-opacity="0.5" stroke-width="3.2"/>
<path clip-path="url(#clip402)" d="M354.766 711.35 L351.946 719.462 L343.354 719.642 L350.206 724.838 L347.71 733.058 L354.766 728.15 L361.822 733.058 L359.326 724.838 L366.178 719.642 L357.586 719.462 L354.766 711.35 Z" fill="#ffa500" fill-rule="evenodd" fill-opacity="0.5" stroke="#ff0000" stroke-opacity="0.5" stroke-width="3.2"/>
<path clip-path="url(#clip402)" d="M462.358 304.406 L459.538 312.518 L450.946 312.698 L457.798 317.894 L455.302 326.114 L462.358 321.206 L469.414 326.114 L466.918 317.894 L473.77 312.698 L465.178 312.518 L462.358 304.406 Z" fill="#ffa500" fill-rule="evenodd" fill-opacity="0.5" stroke="#ff0000" stroke-opacity="0.5" stroke-width="3.2"/>
<path clip-path="url(#clip402)" d="M569.95 1314.19 L567.13 1322.3 L558.538 1322.48 L565.39 1327.67 L562.894 1335.89 L569.95 1330.99 L577.006 1335.89 L574.51 1327.67 L581.362 1322.48 L572.77 1322.3 L569.95 1314.19 Z" fill="#ffa500" fill-rule="evenodd" fill-opacity="0.5" stroke="#ff0000" stroke-opacity="0.5" stroke-width="3.2"/>
<path clip-path="url(#clip402)" d="M677.543 1155.76 L674.723 1163.87 L666.131 1164.05 L672.983 1169.25 L670.487 1177.47 L677.543 1172.56 L684.599 1177.47 L682.103 1169.25 L688.955 1164.05 L680.363 1163.87 L677.543 1155.76 Z" fill="#ffa500" fill-rule="evenodd" fill-opacity="0.5" stroke="#ff0000" stroke-opacity="0.5" stroke-width="3.2"/>
<path clip-path="url(#clip402)" d="M785.135 465.2 L782.315 473.312 L773.723 473.492 L780.575 478.688 L778.079 486.908 L785.135 482 L792.191 486.908 L789.695 478.688 L796.547 473.492 L787.955 473.312 L785.135 465.2 Z" fill="#ffa500" fill-rule="evenodd" fill-opacity="0.5" stroke="#ff0000" stroke-opacity="0.5" stroke-width="3.2"/>
<path clip-path="url(#clip402)" d="M892.728 191.559 L889.908 199.671 L881.316 199.851 L888.168 205.047 L885.672 213.267 L892.728 208.359 L899.784 213.267 L897.288 205.047 L904.14 199.851 L895.548 199.671 L892.728 191.559 Z" fill="#ffa500" fill-rule="evenodd" fill-opacity="0.5" stroke="#ff0000" stroke-opacity="0.5" stroke-width="3.2"/>
<path clip-path="url(#clip402)" d="M1000.32 946.522 L997.5 954.634 L988.908 954.814 L995.76 960.01 L993.264 968.23 L1000.32 963.322 L1007.38 968.23 L1004.88 960.01 L1011.73 954.814 L1003.14 954.634 L1000.32 946.522 Z" fill="#ffa500" fill-rule="evenodd" fill-opacity="0.5" stroke="#ff0000" stroke-opacity="0.5" stroke-width="3.2"/>
<path clip-path="url(#clip402)" d="M1107.91 1267.49 L1105.09 1275.6 L1096.5 1275.78 L1103.35 1280.98 L1100.86 1289.2 L1107.91 1284.29 L1114.97 1289.2 L1112.47 1280.98 L1119.32 1275.78 L1110.73 1275.6 L1107.91 1267.49 Z" fill="#ffa500" fill-rule="evenodd" fill-opacity="0.5" stroke="#ff0000" stroke-opacity="0.5" stroke-width="3.2"/>
<path clip-path="url(#clip402)" d="M1215.5 450.434 L1212.68 458.546 L1204.09 458.726 L1210.94 463.922 L1208.45 472.142 L1215.5 467.234 L1222.56 472.142 L1220.06 463.922 L1226.92 458.726 L1218.32 458.546 L1215.5 450.434 Z" fill="#ffa500" fill-rule="evenodd" fill-opacity="0.5" stroke="#ff0000" stroke-opacity="0.5" stroke-width="3.2"/>
<path clip-path="url(#clip402)" d="M1323.1 1223.06 L1320.28 1231.17 L1311.69 1231.35 L1318.54 1236.55 L1316.04 1244.77 L1323.1 1239.86 L1330.15 1244.77 L1327.66 1236.55 L1334.51 1231.35 L1325.92 1231.17 L1323.1 1223.06 Z" fill="#ffa500" fill-rule="evenodd" fill-opacity="0.5" stroke="#ff0000" stroke-opacity="0.5" stroke-width="3.2"/>
<path clip-path="url(#clip402)" d="M1430.69 579.372 L1427.87 587.484 L1419.28 587.664 L1426.13 592.86 L1423.63 601.08 L1430.69 596.172 L1437.75 601.08 L1435.25 592.86 L1442.1 587.664 L1433.51 587.484 L1430.69 579.372 Z" fill="#ffa500" fill-rule="evenodd" fill-opacity="0.5" stroke="#ff0000" stroke-opacity="0.5" stroke-width="3.2"/>
<path clip-path="url(#clip402)" d="M1538.28 221.417 L1535.46 229.529 L1526.87 229.709 L1533.72 234.905 L1531.23 243.125 L1538.28 238.217 L1545.34 243.125 L1542.84 234.905 L1549.69 229.709 L1541.1 229.529 L1538.28 221.417 Z" fill="#ffa500" fill-rule="evenodd" fill-opacity="0.5" stroke="#ff0000" stroke-opacity="0.5" stroke-width="3.2"/>
<path clip-path="url(#clip402)" d="M1645.87 752.517 L1643.05 760.629 L1634.46 760.809 L1641.31 766.005 L1638.82 774.225 L1645.87 769.317 L1652.93 774.225 L1650.43 766.005 L1657.29 760.809 L1648.69 760.629 L1645.87 752.517 Z" fill="#ffa500" fill-rule="evenodd" fill-opacity="0.5" stroke="#ff0000" stroke-opacity="0.5" stroke-width="3.2"/>
<path clip-path="url(#clip402)" d="M1753.47 965.27 L1750.65 973.382 L1742.05 973.562 L1748.91 978.758 L1746.41 986.978 L1753.47 982.07 L1760.52 986.978 L1758.03 978.758 L1764.88 973.562 L1756.29 973.382 L1753.47 965.27 Z" fill="#ffa500" fill-rule="evenodd" fill-opacity="0.5" stroke="#ff0000" stroke-opacity="0.5" stroke-width="3.2"/>
<path clip-path="url(#clip402)" d="M1861.06 1388.45 L1858.24 1396.56 L1849.65 1396.74 L1856.5 1401.93 L1854 1410.15 L1861.06 1405.25 L1868.11 1410.15 L1865.62 1401.93 L1872.47 1396.74 L1863.88 1396.56 L1861.06 1388.45 Z" fill="#ffa500" fill-rule="evenodd" fill-opacity="0.5" stroke="#ff0000" stroke-opacity="0.5" stroke-width="3.2"/>
<path clip-path="url(#clip402)" d="M1968.65 1065.39 L1965.83 1073.5 L1957.24 1073.68 L1964.09 1078.88 L1961.6 1087.1 L1968.65 1082.19 L1975.71 1087.1 L1973.21 1078.88 L1980.06 1073.68 L1971.47 1073.5 L1968.65 1065.39 Z" fill="#ffa500" fill-rule="evenodd" fill-opacity="0.5" stroke="#ff0000" stroke-opacity="0.5" stroke-width="3.2"/>
<path clip-path="url(#clip402)" d="M2076.24 1402.4 L2073.42 1410.51 L2064.83 1410.69 L2071.68 1415.89 L2069.19 1424.11 L2076.24 1419.2 L2083.3 1424.11 L2080.8 1415.89 L2087.66 1410.69 L2079.06 1410.51 L2076.24 1402.4 Z" fill="#ffa500" fill-rule="evenodd" fill-opacity="0.5" stroke="#ff0000" stroke-opacity="0.5" stroke-width="3.2"/>
<path clip-path="url(#clip402)" d="M2183.84 1240.09 L2181.02 1248.2 L2172.42 1248.38 L2179.28 1253.58 L2176.78 1261.8 L2183.84 1256.89 L2190.89 1261.8 L2188.4 1253.58 L2195.25 1248.38 L2186.66 1248.2 L2183.84 1240.09 Z" fill="#ffa500" fill-rule="evenodd" fill-opacity="0.5" stroke="#ff0000" stroke-opacity="0.5" stroke-width="3.2"/>
<path clip-path="url(#clip402)" d="M2291.43 543.298 L2288.61 551.41 L2280.02 551.59 L2286.87 556.786 L2284.37 565.006 L2291.43 560.098 L2298.48 565.006 L2295.99 556.786 L2302.84 551.59 L2294.25 551.41 L2291.43 543.298 Z" fill="#ffa500" fill-rule="evenodd" fill-opacity="0.5" stroke="#ff0000" stroke-opacity="0.5" stroke-width="3.2"/>
<path clip-path="url(#clip402)" d="M247.173 1021.44 L219.173 1049.44 L247.173 1077.44 L275.173 1049.44 L247.173 1021.44 Z" fill="#008000" fill-rule="evenodd" fill-opacity="1" stroke="#ff0000" stroke-opacity="1" stroke-width="3.2"/>
<path clip-path="url(#clip402)" d="M354.766 1296.44 L326.766 1324.44 L354.766 1352.44 L382.766 1324.44 L354.766 1296.44 Z" fill="#008000" fill-rule="evenodd" fill-opacity="1" stroke="#ff0000" stroke-opacity="1" stroke-width="3.2"/>
<path clip-path="url(#clip402)" d="M462.358 236.162 L434.358 264.162 L462.358 292.162 L490.358 264.162 L462.358 236.162 Z" fill="#008000" fill-rule="evenodd" fill-opacity="1" stroke="#ff0000" stroke-opacity="1" stroke-width="3.2"/>
<path clip-path="url(#clip402)" d="M569.95 287.848 L541.95 315.848 L569.95 343.848 L597.95 315.848 L569.95 287.848 Z" fill="#008000" fill-rule="evenodd" fill-opacity="1" stroke="#ff0000" stroke-opacity="1" stroke-width="3.2"/>
<path clip-path="url(#clip402)" d="M677.543 763.395 L649.543 791.395 L677.543 819.395 L705.543 791.395 L677.543 763.395 Z" fill="#008000" fill-rule="evenodd" fill-opacity="1" stroke="#ff0000" stroke-opacity="1" stroke-width="3.2"/>
<path clip-path="url(#clip402)" d="M785.135 1404.74 L757.135 1432.74 L785.135 1460.74 L813.135 1432.74 L785.135 1404.74 Z" fill="#008000" fill-rule="evenodd" fill-opacity="1" stroke="#ff0000" stroke-opacity="1" stroke-width="3.2"/>
<path clip-path="url(#clip402)" d="M892.728 964.054 L864.728 992.054 L892.728 1020.05 L920.728 992.054 L892.728 964.054 Z" fill="#008000" fill-rule="evenodd" fill-opacity="1" stroke="#ff0000" stroke-opacity="1" stroke-width="3.2"/>
<path clip-path="url(#clip402)" d="M1000.32 877.314 L972.32 905.314 L1000.32 933.314 L1028.32 905.314 L1000.32 877.314 Z" fill="#008000" fill-rule="evenodd" fill-opacity="1" stroke="#ff0000" stroke-opacity="1" stroke-width="3.2"/>
<path clip-path="url(#clip402)" d="M1107.91 1068.36 L1079.91 1096.36 L1107.91 1124.36 L1135.91 1096.36 L1107.91 1068.36 Z" fill="#008000" fill-rule="evenodd" fill-opacity="1" stroke="#ff0000" stroke-opacity="1" stroke-width="3.2"/>
<path clip-path="url(#clip402)" d="M1215.5 1135.12 L1187.5 1163.12 L1215.5 1191.12 L1243.5 1163.12 L1215.5 1135.12 Z" fill="#008000" fill-rule="evenodd" fill-opacity="1" stroke="#ff0000" stroke-opacity="1" stroke-width="3.2"/>
<path clip-path="url(#clip402)" d="M1323.1 159.111 L1295.1 187.111 L1323.1 215.111 L1351.1 187.111 L1323.1 159.111 Z" fill="#008000" fill-rule="evenodd" fill-opacity="1" stroke="#ff0000" stroke-opacity="1" stroke-width="3.2"/>
<path clip-path="url(#clip402)" d="M1430.69 606.774 L1402.69 634.774 L1430.69 662.774 L1458.69 634.774 L1430.69 606.774 Z" fill="#008000" fill-rule="evenodd" fill-opacity="1" stroke="#ff0000" stroke-opacity="1" stroke-width="3.2"/>
<path clip-path="url(#clip402)" d="M1538.28 856.92 L1510.28 884.92 L1538.28 912.92 L1566.28 884.92 L1538.28 856.92 Z" fill="#008000" fill-rule="evenodd" fill-opacity="1" stroke="#ff0000" stroke-opacity="1" stroke-width="3.2"/>
<path clip-path="url(#clip402)" d="M1645.87 195.307 L1617.87 223.307 L1645.87 251.307 L1673.87 223.307 L1645.87 195.307 Z" fill="#008000" fill-rule="evenodd" fill-opacity="1" stroke="#ff0000" stroke-opacity="1" stroke-width="3.2"/>
<path clip-path="url(#clip402)" d="M1753.47 1390.31 L1725.47 1418.31 L1753.47 1446.31 L1781.47 1418.31 L1753.47 1390.31 Z" fill="#008000" fill-rule="evenodd" fill-opacity="1" stroke="#ff0000" stroke-opacity="1" stroke-width="3.2"/>
<path clip-path="url(#clip402)" d="M1861.06 1003.42 L1833.06 1031.42 L1861.06 1059.42 L1889.06 1031.42 L1861.06 1003.42 Z" fill="#008000" fill-rule="evenodd" fill-opacity="1" stroke="#ff0000" stroke-opacity="1" stroke-width="3.2"/>
<path clip-path="url(#clip402)" d="M1968.65 991.885 L1940.65 1019.88 L1968.65 1047.88 L1996.65 1019.88 L1968.65 991.885 Z" fill="#008000" fill-rule="evenodd" fill-opacity="1" stroke="#ff0000" stroke-opacity="1" stroke-width="3.2"/>
<path clip-path="url(#clip402)" d="M2076.24 615.121 L2048.24 643.121 L2076.24 671.121 L2104.24 643.121 L2076.24 615.121 Z" fill="#008000" fill-rule="evenodd" fill-opacity="1" stroke="#ff0000" stroke-opacity="1" stroke-width="3.2"/>
<path clip-path="url(#clip402)" d="M2183.84 1098.57 L2155.84 1126.57 L2183.84 1154.57 L2211.84 1126.57 L2183.84 1098.57 Z" fill="#008000" fill-rule="evenodd" fill-opacity="1" stroke="#ff0000" stroke-opacity="1" stroke-width="3.2"/>
<path clip-path="url(#clip402)" d="M2291.43 184.908 L2263.43 212.908 L2291.43 240.908 L2319.43 212.908 L2291.43 184.908 Z" fill="#008000" fill-rule="evenodd" fill-opacity="1" stroke="#ff0000" stroke-opacity="1" stroke-width="3.2"/>
<path clip-path="url(#clip402)" d="M208.773 920.388 L266.373 953.988 L266.373 886.788 L208.773 920.388 Z" fill="#00008b" fill-rule="evenodd" fill-opacity="0.2" stroke="#ff0000" stroke-opacity="0.2" stroke-width="3.2"/>
<path clip-path="url(#clip402)" d="M316.366 353.734 L373.966 387.334 L373.966 320.134 L316.366 353.734 Z" fill="#00008b" fill-rule="evenodd" fill-opacity="0.2" stroke="#ff0000" stroke-opacity="0.2" stroke-width="3.2"/>
<path clip-path="url(#clip402)" d="M423.958 288.604 L481.558 322.204 L481.558 255.004 L423.958 288.604 Z" fill="#00008b" fill-rule="evenodd" fill-opacity="0.2" stroke="#ff0000" stroke-opacity="0.2" stroke-width="3.2"/>
<path clip-path="url(#clip402)" d="M531.55 595.5 L589.15 629.1 L589.15 561.9 L531.55 595.5 Z" fill="#00008b" fill-rule="evenodd" fill-opacity="0.2" stroke="#ff0000" stroke-opacity="0.2" stroke-width="3.2"/>
<path clip-path="url(#clip402)" d="M639.143 198.147 L696.743 231.747 L696.743 164.547 L639.143 198.147 Z" fill="#00008b" fill-rule="evenodd" fill-opacity="0.2" stroke="#ff0000" stroke-opacity="0.2" stroke-width="3.2"/>
<path clip-path="url(#clip402)" d="M746.735 1069.62 L804.335 1103.22 L804.335 1036.02 L746.735 1069.62 Z" fill="#00008b" fill-rule="evenodd" fill-opacity="0.2" stroke="#ff0000" stroke-opacity="0.2" stroke-width="3.2"/>
<path clip-path="url(#clip402)" d="M854.328 451.555 L911.928 485.155 L911.928 417.955 L854.328 451.555 Z" fill="#00008b" fill-rule="evenodd" fill-opacity="0.2" stroke="#ff0000" stroke-opacity="0.2" stroke-width="3.2"/>
<path clip-path="url(#clip402)" d="M961.92 545.3 L1019.52 578.9 L1019.52 511.7 L961.92 545.3 Z" fill="#00008b" fill-rule="evenodd" fill-opacity="0.2" stroke="#ff0000" stroke-opacity="0.2" stroke-width="3.2"/>
<path clip-path="url(#clip402)" d="M1069.51 1237.63 L1127.11 1271.23 L1127.11 1204.03 L1069.51 1237.63 Z" fill="#00008b" fill-rule="evenodd" fill-opacity="0.2" stroke="#ff0000" stroke-opacity="0.2" stroke-width="3.2"/>
<path clip-path="url(#clip402)" d="M1177.1 539.05 L1234.7 572.65 L1234.7 505.45 L1177.1 539.05 Z" fill="#00008b" fill-rule="evenodd" fill-opacity="0.2" stroke="#ff0000" stroke-opacity="0.2" stroke-width="3.2"/>
<path clip-path="url(#clip402)" d="M1284.7 287.394 L1342.3 320.994 L1342.3 253.794 L1284.7 287.394 Z" fill="#00008b" fill-rule="evenodd" fill-opacity="0.2" stroke="#ff0000" stroke-opacity="0.2" stroke-width="3.2"/>
<path clip-path="url(#clip402)" d="M1392.29 683.044 L1449.89 716.644 L1449.89 649.444 L1392.29 683.044 Z" fill="#00008b" fill-rule="evenodd" fill-opacity="0.2" stroke="#ff0000" stroke-opacity="0.2" stroke-width="3.2"/>
<path clip-path="url(#clip402)" d="M1499.88 1444.41 L1557.48 1478.01 L1557.48 1410.81 L1499.88 1444.41 Z" fill="#00008b" fill-rule="evenodd" fill-opacity="0.2" stroke="#ff0000" stroke-opacity="0.2" stroke-width="3.2"/>
<path clip-path="url(#clip402)" d="M1607.47 1207.43 L1665.07 1241.03 L1665.07 1173.83 L1607.47 1207.43 Z" fill="#00008b" fill-rule="evenodd" fill-opacity="0.2" stroke="#ff0000" stroke-opacity="0.2" stroke-width="3.2"/>
<path clip-path="url(#clip402)" d="M1715.07 590.5 L1772.67 624.1 L1772.67 556.9 L1715.07 590.5 Z" fill="#00008b" fill-rule="evenodd" fill-opacity="0.2" stroke="#ff0000" stroke-opacity="0.2" stroke-width="3.2"/>
<path clip-path="url(#clip402)" d="M1822.66 496.189 L1880.26 529.789 L1880.26 462.589 L1822.66 496.189 Z" fill="#00008b" fill-rule="evenodd" fill-opacity="0.2" stroke="#ff0000" stroke-opacity="0.2" stroke-width="3.2"/>
<path clip-path="url(#clip402)" d="M1930.25 351.615 L1987.85 385.215 L1987.85 318.015 L1930.25 351.615 Z" fill="#00008b" fill-rule="evenodd" fill-opacity="0.2" stroke="#ff0000" stroke-opacity="0.2" stroke-width="3.2"/>
<path clip-path="url(#clip402)" d="M2037.84 198.96 L2095.44 232.56 L2095.44 165.36 L2037.84 198.96 Z" fill="#00008b" fill-rule="evenodd" fill-opacity="0.2" stroke="#ff0000" stroke-opacity="0.2" stroke-width="3.2"/>
<path clip-path="url(#clip402)" d="M2145.44 1248.72 L2203.04 1282.32 L2203.04 1215.12 L2145.44 1248.72 Z" fill="#00008b" fill-rule="evenodd" fill-opacity="0.2" stroke="#ff0000" stroke-opacity="0.2" stroke-width="3.2"/>
<path clip-path="url(#clip402)" d="M2253.03 472.763 L2310.63 506.363 L2310.63 439.163 L2253.03 472.763 Z" fill="#00008b" fill-rule="evenodd" fill-opacity="0.2" stroke="#ff0000" stroke-opacity="0.2" stroke-width="3.2"/>
<path clip-path="url(#clip400)" d="
M1988.16 435.737 L2280.53 435.737 L2280.53 193.817 L1988.16 193.817  Z
  " fill="#ffffff" fill-rule="evenodd" fill-opacity="1"/>
<polyline clip-path="url(#clip400)" style="stroke:#000000; stroke-width:4; stroke-opacity:1; fill:none" points="
  1988.16,435.737 2280.53,435.737 2280.53,193.817 1988.16,193.817 1988.16,435.737 
  "/>
<path clip-path="url(#clip400)" d="M2084.47 228.697 L2078.45 246.002 L2060.12 246.386 L2074.74 257.471 L2069.42 275.007 L2084.47 264.537 L2099.52 275.007 L2094.2 257.471 L2108.81 246.386 L2090.48 246.002 L2084.47 228.697 Z" fill="#ffa500" fill-rule="evenodd" fill-opacity="0.5" stroke="#ff0000" stroke-opacity="0.5" stroke-width="6.82667"/>
<path clip-path="url(#clip400)" d="M 0 0 M2194.62 273.984 Q2192.81 278.614 2191.1 280.026 Q2189.39 281.438 2186.52 281.438 L2183.11 281.438 L2183.11 277.873 L2185.61 277.873 Q2187.37 277.873 2188.34 277.04 Q2189.32 276.206 2190.5 273.104 L2191.26 271.16 L2180.78 245.651 L2185.29 245.651 L2193.39 265.929 L2201.49 245.651 L2206.01 245.651 L2194.62 273.984 Z" fill="#bebebe" fill-rule="evenodd" fill-opacity="1" /><path clip-path="url(#clip400)" d="M 0 0 M2211.89 267.641 L2219.52 267.641 L2219.52 241.276 L2211.21 242.943 L2211.21 238.683 L2219.48 237.017 L2224.15 237.017 L2224.15 267.641 L2231.79 267.641 L2231.79 271.577 L2211.89 271.577 L2211.89 267.641 Z" fill="#bebebe" fill-rule="evenodd" fill-opacity="1" /><path clip-path="url(#clip400)" d="M2084.47 289.177 L2058.87 314.777 L2084.47 340.377 L2110.07 314.777 L2084.47 289.177 Z" fill="#008000" fill-rule="evenodd" fill-opacity="1" stroke="#ff0000" stroke-opacity="1" stroke-width="2.92571"/>
<path clip-path="url(#clip400)" d="M 0 0 M2194.62 334.464 Q2192.81 339.094 2191.1 340.506 Q2189.39 341.918 2186.52 341.918 L2183.11 341.918 L2183.11 338.353 L2185.61 338.353 Q2187.37 338.353 2188.34 337.52 Q2189.32 336.686 2190.5 333.584 L2191.26 331.64 L2180.78 306.131 L2185.29 306.131 L2193.39 326.409 L2201.49 306.131 L2206.01 306.131 L2194.62 334.464 Z" fill="#bebebe" fill-rule="evenodd" fill-opacity="1" /><path clip-path="url(#clip400)" d="M 0 0 M2215.1 328.121 L2231.42 328.121 L2231.42 332.057 L2209.48 332.057 L2209.48 328.121 Q2212.14 325.367 2216.72 320.737 Q2221.33 316.085 2222.51 314.742 Q2224.76 312.219 2225.64 310.483 Q2226.54 308.723 2226.54 307.034 Q2226.54 304.279 2224.59 302.543 Q2222.67 300.807 2219.57 300.807 Q2217.37 300.807 2214.92 301.571 Q2212.49 302.335 2209.71 303.886 L2209.71 299.163 Q2212.53 298.029 2214.99 297.45 Q2217.44 296.872 2219.48 296.872 Q2224.85 296.872 2228.04 299.557 Q2231.24 302.242 2231.24 306.733 Q2231.24 308.862 2230.43 310.784 Q2229.64 312.682 2227.53 315.274 Q2226.96 315.946 2223.85 319.163 Q2220.75 322.358 2215.1 328.121 Z" fill="#bebebe" fill-rule="evenodd" fill-opacity="1" /><path clip-path="url(#clip400)" d="M2063.99 375.257 L2094.71 393.177 L2094.71 357.337 L2063.99 375.257 Z" fill="#00008b" fill-rule="evenodd" fill-opacity="0.2" stroke="#ff0000" stroke-opacity="0.2" stroke-width="1.70667"/>
<path clip-path="url(#clip400)" d="M 0 0 M2194.62 394.944 Q2192.81 399.574 2191.1 400.986 Q2189.39 402.398 2186.52 402.398 L2183.11 402.398 L2183.11 398.833 L2185.61 398.833 Q2187.37 398.833 2188.34 398 Q2189.32 397.166 2190.5 394.064 L2191.26 392.12 L2180.78 366.611 L2185.29 366.611 L2193.39 386.889 L2201.49 366.611 L2206.01 366.611 L2194.62 394.944 Z" fill="#bebebe" fill-rule="evenodd" fill-opacity="1" /><path clip-path="url(#clip400)" d="M 0 0 M2225.24 373.902 Q2228.6 374.62 2230.47 376.889 Q2232.37 379.157 2232.37 382.49 Q2232.37 387.606 2228.85 390.407 Q2225.34 393.208 2218.85 393.208 Q2216.68 393.208 2214.36 392.768 Q2212.07 392.351 2209.62 391.495 L2209.62 386.981 Q2211.56 388.115 2213.88 388.694 Q2216.19 389.273 2218.71 389.273 Q2223.11 389.273 2225.4 387.537 Q2227.72 385.801 2227.72 382.49 Q2227.72 379.435 2225.57 377.722 Q2223.44 375.986 2219.62 375.986 L2215.59 375.986 L2215.59 372.143 L2219.8 372.143 Q2223.25 372.143 2225.08 370.778 Q2226.91 369.389 2226.91 366.796 Q2226.91 364.134 2225.01 362.722 Q2223.14 361.287 2219.62 361.287 Q2217.7 361.287 2215.5 361.703 Q2213.3 362.12 2210.66 363 L2210.66 358.833 Q2213.32 358.092 2215.64 357.722 Q2217.97 357.352 2220.03 357.352 Q2225.36 357.352 2228.46 359.782 Q2231.56 362.19 2231.56 366.31 Q2231.56 369.18 2229.92 371.171 Q2228.27 373.139 2225.24 373.902 Z" fill="#bebebe" fill-rule="evenodd" fill-opacity="1" /></svg>
