<?xml version="1.0" encoding="utf-8"?>
<svg xmlns="http://www.w3.org/2000/svg" xmlns:xlink="http://www.w3.org/1999/xlink" width="600" height="400" viewBox="0 0 2400 1600">
<defs>
  <clipPath id="clip530">
    <rect x="0" y="0" width="2400" height="1600"/>
  </clipPath>
</defs>
<path clip-path="url(#clip530)" d="
M0 1600 L2400 1600 L2400 0 L0 0  Z
  " fill="#ffffff" fill-rule="evenodd" fill-opacity="1"/>
<defs>
  <clipPath id="clip531">
    <rect x="480" y="0" width="1681" height="1600"/>
  </clipPath>
</defs>
<path clip-path="url(#clip530)" d="
M185.846 1482.13 L2352.76 1482.13 L2352.76 149.392 L185.846 149.392  Z
  " fill="#ffffff" fill-rule="evenodd" fill-opacity="1"/>
<defs>
  <clipPath id="clip532">
    <rect x="185" y="149" width="2168" height="1334"/>
  </clipPath>
</defs>
<polyline clip-path="url(#clip532)" style="stroke:#000000; stroke-width:2; stroke-opacity:0.1; fill:none" points="
  677.543,1482.13 677.543,149.392 
  "/>
<polyline clip-path="url(#clip532)" style="stroke:#000000; stroke-width:2; stroke-opacity:0.1; fill:none" points="
  1215.5,1482.13 1215.5,149.392 
  "/>
<polyline clip-path="url(#clip532)" style="stroke:#000000; stroke-width:2; stroke-opacity:0.1; fill:none" points="
  1753.47,1482.13 1753.47,149.392 
  "/>
<polyline clip-path="url(#clip532)" style="stroke:#000000; stroke-width:2; stroke-opacity:0.1; fill:none" points="
  2291.43,1482.13 2291.43,149.392 
  "/>
<polyline clip-path="url(#clip530)" style="stroke:#000000; stroke-width:4; stroke-opacity:1; fill:none" points="
  185.846,1482.13 2352.76,1482.13 
  "/>
<polyline clip-path="url(#clip530)" style="stroke:#000000; stroke-width:4; stroke-opacity:1; fill:none" points="
  677.543,1482.13 677.543,1466.14 
  "/>
<polyline clip-path="url(#clip530)" style="stroke:#000000; stroke-width:4; stroke-opacity:1; fill:none" points="
  1215.5,1482.13 1215.5,1466.14 
  "/>
<polyline clip-path="url(#clip530)" style="stroke:#000000; stroke-width:4; stroke-opacity:1; fill:none" points="
  1753.47,1482.13 1753.47,1466.14 
  "/>
<polyline clip-path="url(#clip530)" style="stroke:#000000; stroke-width:4; stroke-opacity:1; fill:none" points="
  2291.43,1482.13 2291.43,1466.14 
  "/>
<path clip-path="url(#clip530)" d="M 0 0 M666.605 1509.1 L687.256 1509.1 L687.256 1513.53 L671.423 1513.53 L671.423 1523.06 Q672.569 1522.67 673.715 1522.49 Q674.861 1522.28 676.006 1522.28 Q682.517 1522.28 686.319 1525.85 Q690.121 1529.42 690.121 1535.51 Q690.121 1541.79 686.215 1545.28 Q682.308 1548.74 675.199 1548.74 Q672.751 1548.74 670.199 1548.32 Q667.673 1547.91 664.965 1547.07 L664.965 1541.79 Q667.309 1543.06 669.809 1543.69 Q672.309 1544.31 675.095 1544.31 Q679.6 1544.31 682.23 1541.94 Q684.861 1539.57 684.861 1535.51 Q684.861 1531.45 682.23 1529.08 Q679.6 1526.71 675.095 1526.71 Q672.986 1526.71 670.876 1527.18 Q668.793 1527.65 666.605 1528.64 L666.605 1509.1 Z" fill="#bebebe" fill-rule="evenodd" fill-opacity="1" /><path clip-path="url(#clip530)" d="M 0 0 M1189.49 1543.56 L1198.08 1543.56 L1198.08 1513.9 L1188.73 1515.77 L1188.73 1510.98 L1198.03 1509.1 L1203.29 1509.1 L1203.29 1543.56 L1211.88 1543.56 L1211.88 1547.98 L1189.49 1547.98 L1189.49 1543.56 Z" fill="#bebebe" fill-rule="evenodd" fill-opacity="1" /><path clip-path="url(#clip530)" d="M 0 0 M1228.84 1512.57 Q1224.78 1512.57 1222.72 1516.58 Q1220.69 1520.56 1220.69 1528.58 Q1220.69 1536.58 1222.72 1540.59 Q1224.78 1544.57 1228.84 1544.57 Q1232.93 1544.57 1234.96 1540.59 Q1237.01 1536.58 1237.01 1528.58 Q1237.01 1520.56 1234.96 1516.58 Q1232.93 1512.57 1228.84 1512.57 M1228.84 1508.4 Q1235.37 1508.4 1238.81 1513.58 Q1242.28 1518.74 1242.28 1528.58 Q1242.28 1538.4 1238.81 1543.58 Q1235.37 1548.74 1228.84 1548.74 Q1222.3 1548.74 1218.84 1543.58 Q1215.4 1538.4 1215.4 1528.58 Q1215.4 1518.74 1218.84 1513.58 Q1222.3 1508.4 1228.84 1508.4 Z" fill="#bebebe" fill-rule="evenodd" fill-opacity="1" /><path clip-path="url(#clip530)" d="M 0 0 M1728.01 1543.56 L1736.6 1543.56 L1736.6 1513.9 L1727.26 1515.77 L1727.26 1510.98 L1736.55 1509.1 L1741.81 1509.1 L1741.81 1543.56 L1750.41 1543.56 L1750.41 1547.98 L1728.01 1547.98 L1728.01 1543.56 Z" fill="#bebebe" fill-rule="evenodd" fill-opacity="1" /><path clip-path="url(#clip530)" d="M 0 0 M1756.16 1509.1 L1776.81 1509.1 L1776.81 1513.53 L1760.98 1513.53 L1760.98 1523.06 Q1762.13 1522.67 1763.27 1522.49 Q1764.42 1522.28 1765.56 1522.28 Q1772.07 1522.28 1775.88 1525.85 Q1779.68 1529.42 1779.68 1535.51 Q1779.68 1541.79 1775.77 1545.28 Q1771.86 1548.74 1764.76 1548.74 Q1762.31 1548.74 1759.76 1548.32 Q1757.23 1547.91 1754.52 1547.07 L1754.52 1541.79 Q1756.86 1543.06 1759.36 1543.69 Q1761.86 1544.31 1764.65 1544.31 Q1769.16 1544.31 1771.79 1541.94 Q1774.42 1539.57 1774.42 1535.51 Q1774.42 1531.45 1771.79 1529.08 Q1769.16 1526.71 1764.65 1526.71 Q1762.54 1526.71 1760.43 1527.18 Q1758.35 1527.65 1756.16 1528.64 L1756.16 1509.1 Z" fill="#bebebe" fill-rule="evenodd" fill-opacity="1" /><path clip-path="url(#clip530)" d="M 0 0 M2270.22 1543.56 L2288.58 1543.56 L2288.58 1547.98 L2263.89 1547.98 L2263.89 1543.56 Q2266.88 1540.46 2272.04 1535.25 Q2277.22 1530.02 2278.55 1528.5 Q2281.08 1525.67 2282.07 1523.71 Q2283.08 1521.73 2283.08 1519.83 Q2283.08 1516.73 2280.89 1514.78 Q2278.73 1512.83 2275.24 1512.83 Q2272.77 1512.83 2270.01 1513.69 Q2267.27 1514.55 2264.15 1516.29 L2264.15 1510.98 Q2267.33 1509.7 2270.09 1509.05 Q2272.85 1508.4 2275.14 1508.4 Q2281.18 1508.4 2284.77 1511.42 Q2288.37 1514.44 2288.37 1519.49 Q2288.37 1521.89 2287.46 1524.05 Q2286.57 1526.19 2284.2 1529.1 Q2283.55 1529.86 2280.06 1533.48 Q2276.57 1537.07 2270.22 1543.56 Z" fill="#bebebe" fill-rule="evenodd" fill-opacity="1" /><path clip-path="url(#clip530)" d="M 0 0 M2305.53 1512.57 Q2301.47 1512.57 2299.41 1516.58 Q2297.38 1520.56 2297.38 1528.58 Q2297.38 1536.58 2299.41 1540.59 Q2301.47 1544.57 2305.53 1544.57 Q2309.62 1544.57 2311.65 1540.59 Q2313.71 1536.58 2313.71 1528.58 Q2313.71 1520.56 2311.65 1516.58 Q2309.62 1512.57 2305.53 1512.57 M2305.53 1508.4 Q2312.07 1508.4 2315.5 1513.58 Q2318.97 1518.74 2318.97 1528.58 Q2318.97 1538.4 2315.5 1543.58 Q2312.07 1548.74 2305.53 1548.74 Q2298.99 1548.74 2295.53 1543.58 Q2292.09 1538.4 2292.09 1528.58 Q2292.09 1518.74 2295.53 1513.58 Q2298.99 1508.4 2305.53 1508.4 Z" fill="#bebebe" fill-rule="evenodd" fill-opacity="1" /><polyline clip-path="url(#clip532)" style="stroke:#000000; stroke-width:2; stroke-opacity:0.1; fill:none" points="
  185.846,1445.07 2352.76,1445.07 
  "/>
<polyline clip-path="url(#clip532)" style="stroke:#000000; stroke-width:2; stroke-opacity:0.1; fill:none" points="
  185.846,1128.49 2352.76,1128.49 
  "/>
<polyline clip-path="url(#clip532)" style="stroke:#000000; stroke-width:2; stroke-opacity:0.1; fill:none" points="
  185.846,811.91 2352.76,811.91 
  "/>
<polyline clip-path="url(#clip532)" style="stroke:#000000; stroke-width:2; stroke-opacity:0.1; fill:none" points="
  185.846,495.333 2352.76,495.333 
  "/>
<polyline clip-path="url(#clip532)" style="stroke:#000000; stroke-width:2; stroke-opacity:0.1; fill:none" points="
  185.846,178.756 2352.76,178.756 
  "/>
<polyline clip-path="url(#clip530)" style="stroke:#000000; stroke-width:4; stroke-opacity:1; fill:none" points="
  185.846,1482.13 185.846,149.392 
  "/>
<polyline clip-path="url(#clip530)" style="stroke:#000000; stroke-width:4; stroke-opacity:1; fill:none" points="
  185.846,1445.07 211.849,1445.07 
  "/>
<polyline clip-path="url(#clip530)" style="stroke:#000000; stroke-width:4; stroke-opacity:1; fill:none" points="
  185.846,1128.49 211.849,1128.49 
  "/>
<polyline clip-path="url(#clip530)" style="stroke:#000000; stroke-width:4; stroke-opacity:1; fill:none" points="
  185.846,811.91 211.849,811.91 
  "/>
<polyline clip-path="url(#clip530)" style="stroke:#000000; stroke-width:4; stroke-opacity:1; fill:none" points="
  185.846,495.333 211.849,495.333 
  "/>
<polyline clip-path="url(#clip530)" style="stroke:#000000; stroke-width:4; stroke-opacity:1; fill:none" points="
  185.846,178.756 211.849,178.756 
  "/>
<path clip-path="url(#clip530)" d="M 0 0 M64.4296 1429.09 Q60.3671 1429.09 58.3098 1433.1 Q56.2786 1437.08 56.2786 1445.1 Q56.2786 1453.1 58.3098 1457.11 Q60.3671 1461.09 64.4296 1461.09 Q68.5181 1461.09 70.5493 1457.11 Q72.6066 1453.1 72.6066 1445.1 Q72.6066 1437.08 70.5493 1433.1 Q68.5181 1429.09 64.4296 1429.09 M64.4296 1424.92 Q70.966 1424.92 74.4035 1430.1 Q77.867 1435.26 77.867 1445.1 Q77.867 1454.92 74.4035 1460.1 Q70.966 1465.26 64.4296 1465.26 Q57.8931 1465.26 54.4296 1460.1 Q50.9921 1454.92 50.9921 1445.1 Q50.9921 1435.26 54.4296 1430.1 Q57.8931 1424.92 64.4296 1424.92 Z" fill="#bebebe" fill-rule="evenodd" fill-opacity="1" /><path clip-path="url(#clip530)" d="M 0 0 M83.5701 1457.89 L89.0648 1457.89 L89.0648 1464.51 L83.5701 1464.51 L83.5701 1457.89 Z" fill="#bebebe" fill-rule="evenodd" fill-opacity="1" /><path clip-path="url(#clip530)" d="M 0 0 M106.018 1429.09 Q101.955 1429.09 99.8981 1433.1 Q97.8669 1437.08 97.8669 1445.1 Q97.8669 1453.1 99.8981 1457.11 Q101.955 1461.09 106.018 1461.09 Q110.106 1461.09 112.138 1457.11 Q114.195 1453.1 114.195 1445.1 Q114.195 1437.08 112.138 1433.1 Q110.106 1429.09 106.018 1429.09 M106.018 1424.92 Q112.554 1424.92 115.992 1430.1 Q119.455 1435.26 119.455 1445.1 Q119.455 1454.92 115.992 1460.1 Q112.554 1465.26 106.018 1465.26 Q99.4814 1465.26 96.0179 1460.1 Q92.5804 1454.92 92.5804 1445.1 Q92.5804 1435.26 96.0179 1430.1 Q99.4814 1424.92 106.018 1424.92 Z" fill="#bebebe" fill-rule="evenodd" fill-opacity="1" /><path clip-path="url(#clip530)" d="M 0 0 M136.408 1429.09 Q132.346 1429.09 130.289 1433.1 Q128.257 1437.08 128.257 1445.1 Q128.257 1453.1 130.289 1457.11 Q132.346 1461.09 136.408 1461.09 Q140.497 1461.09 142.528 1457.11 Q144.585 1453.1 144.585 1445.1 Q144.585 1437.08 142.528 1433.1 Q140.497 1429.09 136.408 1429.09 M136.408 1424.92 Q142.945 1424.92 146.382 1430.1 Q149.846 1435.26 149.846 1445.1 Q149.846 1454.92 146.382 1460.1 Q142.945 1465.26 136.408 1465.26 Q129.872 1465.26 126.408 1460.1 Q122.971 1454.92 122.971 1445.1 Q122.971 1435.26 126.408 1430.1 Q129.872 1424.92 136.408 1424.92 Z" fill="#bebebe" fill-rule="evenodd" fill-opacity="1" /><path clip-path="url(#clip530)" d="M 0 0 M67.3462 1112.51 Q63.2837 1112.51 61.2264 1116.52 Q59.1952 1120.51 59.1952 1128.53 Q59.1952 1136.52 61.2264 1140.53 Q63.2837 1144.52 67.3462 1144.52 Q71.4347 1144.52 73.466 1140.53 Q75.5232 1136.52 75.5232 1128.53 Q75.5232 1120.51 73.466 1116.52 Q71.4347 1112.51 67.3462 1112.51 M67.3462 1108.34 Q73.8826 1108.34 77.3201 1113.53 Q80.7836 1118.68 80.7836 1128.53 Q80.7836 1138.34 77.3201 1143.53 Q73.8826 1148.68 67.3462 1148.68 Q60.8098 1148.68 57.3463 1143.53 Q53.9088 1138.34 53.9088 1128.53 Q53.9088 1118.68 57.3463 1113.53 Q60.8098 1108.34 67.3462 1108.34 Z" fill="#bebebe" fill-rule="evenodd" fill-opacity="1" /><path clip-path="url(#clip530)" d="M 0 0 M86.4867 1141.31 L91.9815 1141.31 L91.9815 1147.93 L86.4867 1147.93 L86.4867 1141.31 Z" fill="#bebebe" fill-rule="evenodd" fill-opacity="1" /><path clip-path="url(#clip530)" d="M 0 0 M102.216 1143.5 L120.575 1143.5 L120.575 1147.93 L95.8877 1147.93 L95.8877 1143.5 Q98.8825 1140.4 104.039 1135.19 Q109.221 1129.96 110.549 1128.45 Q113.075 1125.61 114.065 1123.66 Q115.08 1121.68 115.08 1119.78 Q115.08 1116.68 112.893 1114.72 Q110.731 1112.77 107.242 1112.77 Q104.768 1112.77 102.007 1113.63 Q99.2731 1114.49 96.1481 1116.24 L96.1481 1110.92 Q99.3252 1109.65 102.086 1109 Q104.846 1108.34 107.138 1108.34 Q113.179 1108.34 116.773 1111.37 Q120.367 1114.39 120.367 1119.44 Q120.367 1121.83 119.455 1124 Q118.57 1126.13 116.2 1129.05 Q115.549 1129.8 112.06 1133.42 Q108.57 1137.02 102.216 1143.5 Z" fill="#bebebe" fill-rule="evenodd" fill-opacity="1" /><path clip-path="url(#clip530)" d="M 0 0 M126.33 1109.05 L146.981 1109.05 L146.981 1113.47 L131.148 1113.47 L131.148 1123.01 Q132.294 1122.62 133.44 1122.43 Q134.585 1122.22 135.731 1122.22 Q142.242 1122.22 146.044 1125.79 Q149.846 1129.36 149.846 1135.45 Q149.846 1141.73 145.94 1145.22 Q142.033 1148.68 134.924 1148.68 Q132.476 1148.68 129.924 1148.27 Q127.398 1147.85 124.69 1147.02 L124.69 1141.73 Q127.033 1143.01 129.533 1143.63 Q132.033 1144.26 134.82 1144.26 Q139.325 1144.26 141.955 1141.89 Q144.585 1139.52 144.585 1135.45 Q144.585 1131.39 141.955 1129.02 Q139.325 1126.65 134.82 1126.65 Q132.71 1126.65 130.601 1127.12 Q128.518 1127.59 126.33 1128.58 L126.33 1109.05 Z" fill="#bebebe" fill-rule="evenodd" fill-opacity="1" /><path clip-path="url(#clip530)" d="M 0 0 M65.5493 795.934 Q61.4869 795.934 59.4296 799.944 Q57.3983 803.929 57.3983 811.95 Q57.3983 819.944 59.4296 823.955 Q61.4869 827.939 65.5493 827.939 Q69.6379 827.939 71.6691 823.955 Q73.7264 819.944 73.7264 811.95 Q73.7264 803.929 71.6691 799.944 Q69.6379 795.934 65.5493 795.934 M65.5493 791.767 Q72.0858 791.767 75.5232 796.95 Q78.9868 802.106 78.9868 811.95 Q78.9868 821.767 75.5232 826.949 Q72.0858 832.106 65.5493 832.106 Q59.0129 832.106 55.5494 826.949 Q52.1119 821.767 52.1119 811.95 Q52.1119 802.106 55.5494 796.95 Q59.0129 791.767 65.5493 791.767 Z" fill="#bebebe" fill-rule="evenodd" fill-opacity="1" /><path clip-path="url(#clip530)" d="M 0 0 M84.6899 824.736 L90.1846 824.736 L90.1846 831.35 L84.6899 831.35 L84.6899 824.736 Z" fill="#bebebe" fill-rule="evenodd" fill-opacity="1" /><path clip-path="url(#clip530)" d="M 0 0 M95.9398 792.47 L116.591 792.47 L116.591 796.898 L100.757 796.898 L100.757 806.429 Q101.903 806.038 103.049 805.856 Q104.195 805.647 105.341 805.647 Q111.851 805.647 115.653 809.215 Q119.455 812.783 119.455 818.877 Q119.455 825.153 115.549 828.642 Q111.643 832.106 104.534 832.106 Q102.086 832.106 99.5335 831.689 Q97.0075 831.272 94.2992 830.439 L94.2992 825.153 Q96.6429 826.429 99.1429 827.054 Q101.643 827.679 104.429 827.679 Q108.935 827.679 111.565 825.309 Q114.195 822.939 114.195 818.877 Q114.195 814.814 111.565 812.444 Q108.935 810.075 104.429 810.075 Q102.32 810.075 100.211 810.543 Q98.1273 811.012 95.9398 812.002 L95.9398 792.47 Z" fill="#bebebe" fill-rule="evenodd" fill-opacity="1" /><path clip-path="url(#clip530)" d="M 0 0 M136.408 795.934 Q132.346 795.934 130.289 799.944 Q128.257 803.929 128.257 811.95 Q128.257 819.944 130.289 823.955 Q132.346 827.939 136.408 827.939 Q140.497 827.939 142.528 823.955 Q144.585 819.944 144.585 811.95 Q144.585 803.929 142.528 799.944 Q140.497 795.934 136.408 795.934 M136.408 791.767 Q142.945 791.767 146.382 796.95 Q149.846 802.106 149.846 811.95 Q149.846 821.767 146.382 826.949 Q142.945 832.106 136.408 832.106 Q129.872 832.106 126.408 826.949 Q122.971 821.767 122.971 811.95 Q122.971 802.106 126.408 796.95 Q129.872 791.767 136.408 791.767 Z" fill="#bebebe" fill-rule="evenodd" fill-opacity="1" /><path clip-path="url(#clip530)" d="M 0 0 M66.565 479.357 Q62.5025 479.357 60.4452 483.367 Q58.414 487.351 58.414 495.372 Q58.414 503.367 60.4452 507.377 Q62.5025 511.362 66.565 511.362 Q70.6535 511.362 72.6847 507.377 Q74.742 503.367 74.742 495.372 Q74.742 487.351 72.6847 483.367 Q70.6535 479.357 66.565 479.357 M66.565 475.19 Q73.1014 475.19 76.5389 480.372 Q80.0024 485.528 80.0024 495.372 Q80.0024 505.19 76.5389 510.372 Q73.1014 515.528 66.565 515.528 Q60.0285 515.528 56.565 510.372 Q53.1275 505.19 53.1275 495.372 Q53.1275 485.528 56.565 480.372 Q60.0285 475.19 66.565 475.19 Z" fill="#bebebe" fill-rule="evenodd" fill-opacity="1" /><path clip-path="url(#clip530)" d="M 0 0 M85.7055 508.158 L91.2002 508.158 L91.2002 514.773 L85.7055 514.773 L85.7055 508.158 Z" fill="#bebebe" fill-rule="evenodd" fill-opacity="1" /><path clip-path="url(#clip530)" d="M 0 0 M95.5752 475.893 L120.575 475.893 L120.575 478.133 L106.461 514.773 L100.966 514.773 L114.247 480.32 L95.5752 480.32 L95.5752 475.893 Z" fill="#bebebe" fill-rule="evenodd" fill-opacity="1" /><path clip-path="url(#clip530)" d="M 0 0 M126.33 475.893 L146.981 475.893 L146.981 480.32 L131.148 480.32 L131.148 489.851 Q132.294 489.461 133.44 489.278 Q134.585 489.07 135.731 489.07 Q142.242 489.07 146.044 492.638 Q149.846 496.205 149.846 502.299 Q149.846 508.575 145.94 512.065 Q142.033 515.528 134.924 515.528 Q132.476 515.528 129.924 515.112 Q127.398 514.695 124.69 513.862 L124.69 508.575 Q127.033 509.851 129.533 510.476 Q132.033 511.101 134.82 511.101 Q139.325 511.101 141.955 508.731 Q144.585 506.362 144.585 502.299 Q144.585 498.237 141.955 495.867 Q139.325 493.497 134.82 493.497 Q132.71 493.497 130.601 493.966 Q128.518 494.435 126.33 495.424 L126.33 475.893 Z" fill="#bebebe" fill-rule="evenodd" fill-opacity="1" /><path clip-path="url(#clip530)" d="M 0 0 M55.4713 193.769 L64.065 193.769 L64.065 164.107 L54.7161 165.982 L54.7161 161.191 L64.0129 159.316 L69.2733 159.316 L69.2733 193.769 L77.867 193.769 L77.867 198.196 L55.4713 198.196 L55.4713 193.769 Z" fill="#bebebe" fill-rule="evenodd" fill-opacity="1" /><path clip-path="url(#clip530)" d="M 0 0 M83.5701 191.581 L89.0648 191.581 L89.0648 198.196 L83.5701 198.196 L83.5701 191.581 Z" fill="#bebebe" fill-rule="evenodd" fill-opacity="1" /><path clip-path="url(#clip530)" d="M 0 0 M106.018 162.779 Q101.955 162.779 99.8981 166.789 Q97.8669 170.774 97.8669 178.795 Q97.8669 186.789 99.8981 190.8 Q101.955 194.784 106.018 194.784 Q110.106 194.784 112.138 190.8 Q114.195 186.789 114.195 178.795 Q114.195 170.774 112.138 166.789 Q110.106 162.779 106.018 162.779 M106.018 158.612 Q112.554 158.612 115.992 163.795 Q119.455 168.951 119.455 178.795 Q119.455 188.612 115.992 193.795 Q112.554 198.951 106.018 198.951 Q99.4814 198.951 96.0179 193.795 Q92.5804 188.612 92.5804 178.795 Q92.5804 168.951 96.0179 163.795 Q99.4814 158.612 106.018 158.612 Z" fill="#bebebe" fill-rule="evenodd" fill-opacity="1" /><path clip-path="url(#clip530)" d="M 0 0 M136.408 162.779 Q132.346 162.779 130.289 166.789 Q128.257 170.774 128.257 178.795 Q128.257 186.789 130.289 190.8 Q132.346 194.784 136.408 194.784 Q140.497 194.784 142.528 190.8 Q144.585 186.789 144.585 178.795 Q144.585 170.774 142.528 166.789 Q140.497 162.779 136.408 162.779 M136.408 158.612 Q142.945 158.612 146.382 163.795 Q149.846 168.951 149.846 178.795 Q149.846 188.612 146.382 193.795 Q142.945 198.951 136.408 198.951 Q129.872 198.951 126.408 193.795 Q122.971 188.612 122.971 178.795 Q122.971 168.951 126.408 163.795 Q129.872 158.612 136.408 158.612 Z" fill="#bebebe" fill-rule="evenodd" fill-opacity="1" /><path clip-path="url(#clip530)" d="M 0 0 M963.429 20.1156 L963.429 31.516 Q956.774 28.3332 950.871 26.7707 Q944.968 25.2082 939.47 25.2082 Q929.922 25.2082 924.714 28.9119 Q919.563 32.6156 919.563 39.4442 Q919.563 45.1734 922.977 48.1247 Q926.45 51.0182 936.056 52.8122 L943.116 54.259 Q956.195 56.7474 962.387 63.0552 Q968.637 69.3052 968.637 79.8375 Q968.637 92.3953 960.188 98.8768 Q951.797 105.358 935.535 105.358 Q929.401 105.358 922.457 103.969 Q915.57 102.58 908.163 99.8606 L908.163 87.8236 Q915.281 91.8166 922.109 93.8421 Q928.938 95.8675 935.535 95.8675 Q945.547 95.8675 950.987 91.9324 Q956.426 87.9972 956.426 80.7056 Q956.426 74.3399 952.491 70.7519 Q948.614 67.164 939.702 65.37 L932.584 63.9811 Q919.505 61.377 913.66 55.8215 Q907.816 50.2659 907.816 40.3702 Q907.816 28.9119 915.859 22.3147 Q923.961 15.7175 938.139 15.7175 Q944.216 15.7175 950.524 16.817 Q956.831 17.9166 963.429 20.1156 Z" fill="#bebebe" fill-rule="evenodd" fill-opacity="1" /><path clip-path="url(#clip530)" d="M 0 0 M1035.25 68.6107 L1035.25 73.819 L986.287 73.819 Q986.982 84.8144 992.884 90.6014 Q998.845 96.3305 1009.44 96.3305 Q1015.57 96.3305 1021.3 94.8259 Q1027.09 93.3213 1032.76 90.312 L1032.76 100.381 Q1027.03 102.812 1021.01 104.085 Q1014.99 105.358 1008.8 105.358 Q993.29 105.358 984.204 96.3305 Q975.176 87.3028 975.176 71.9093 Q975.176 55.9951 983.741 46.678 Q992.364 37.303 1006.95 37.303 Q1020.03 37.303 1027.61 45.7521 Q1035.25 54.1432 1035.25 68.6107 M1024.6 65.4858 Q1024.48 56.7474 1019.68 51.5391 Q1014.93 46.3308 1007.06 46.3308 Q998.151 46.3308 992.769 51.3655 Q987.445 56.4002 986.635 65.5436 L1024.6 65.4858 Z" fill="#bebebe" fill-rule="evenodd" fill-opacity="1" /><path clip-path="url(#clip530)" d="M 0 0 M1083.97 48.8192 Q1082.18 47.7775 1080.04 47.3146 Q1077.95 46.7937 1075.41 46.7937 Q1066.38 46.7937 1061.52 52.6965 Q1056.72 58.5414 1056.72 69.5367 L1056.72 103.68 L1046.01 103.68 L1046.01 38.8655 L1056.72 38.8655 L1056.72 48.9349 Q1060.07 43.0322 1065.45 40.1965 Q1070.84 37.303 1078.53 37.303 Q1079.63 37.303 1080.96 37.4767 Q1082.29 37.5924 1083.91 37.8817 L1083.97 48.8192 Z" fill="#bebebe" fill-rule="evenodd" fill-opacity="1" /><path clip-path="url(#clip530)" d="M 0 0 M1095.14 38.8655 L1105.79 38.8655 L1105.79 103.68 L1095.14 103.68 L1095.14 38.8655 M1095.14 13.6342 L1105.79 13.6342 L1105.79 27.1179 L1095.14 27.1179 L1095.14 13.6342 Z" fill="#bebebe" fill-rule="evenodd" fill-opacity="1" /><path clip-path="url(#clip530)" d="M 0 0 M1172.4 68.6107 L1172.4 73.819 L1123.44 73.819 Q1124.13 84.8144 1130.04 90.6014 Q1136 96.3305 1146.59 96.3305 Q1152.72 96.3305 1158.45 94.8259 Q1164.24 93.3213 1169.91 90.312 L1169.91 100.381 Q1164.18 102.812 1158.16 104.085 Q1152.14 105.358 1145.95 105.358 Q1130.44 105.358 1121.36 96.3305 Q1112.33 87.3028 1112.33 71.9093 Q1112.33 55.9951 1120.89 46.678 Q1129.52 37.303 1144.1 37.303 Q1157.18 37.303 1164.76 45.7521 Q1172.4 54.1432 1172.4 68.6107 M1161.75 65.4858 Q1161.63 56.7474 1156.83 51.5391 Q1152.09 46.3308 1144.21 46.3308 Q1135.3 46.3308 1129.92 51.3655 Q1124.6 56.4002 1123.79 65.5436 L1161.75 65.4858 Z" fill="#bebebe" fill-rule="evenodd" fill-opacity="1" /><path clip-path="url(#clip530)" d="M 0 0 M1231.31 17.28 L1231.31 49.3979 L1221.47 49.3979 L1221.47 17.28 L1231.31 17.28 Z" fill="#bebebe" fill-rule="evenodd" fill-opacity="1" /><path clip-path="url(#clip530)" d="M 0 0 M1283.8 40.7752 L1283.8 50.8446 Q1279.28 48.5298 1274.42 47.3724 Q1269.56 46.215 1264.35 46.215 Q1256.42 46.215 1252.43 48.6456 Q1248.5 51.0761 1248.5 55.9372 Q1248.5 59.6409 1251.33 61.7821 Q1254.17 63.8654 1262.73 65.7751 L1266.38 66.5853 Q1277.72 69.0158 1282.47 73.4718 Q1287.27 77.87 1287.27 85.7982 Q1287.27 94.8259 1280.09 100.092 Q1272.98 105.358 1260.48 105.358 Q1255.27 105.358 1249.6 104.317 Q1243.98 103.333 1237.73 101.307 L1237.73 90.312 Q1243.64 93.3791 1249.36 94.9416 Q1255.09 96.4462 1260.71 96.4462 Q1268.23 96.4462 1272.28 93.9 Q1276.33 91.2958 1276.33 86.6083 Q1276.33 82.2681 1273.38 79.9533 Q1270.49 77.6385 1260.59 75.4973 L1256.89 74.6292 Q1246.99 72.5459 1242.59 68.2635 Q1238.2 63.9233 1238.2 56.4002 Q1238.2 47.2567 1244.68 42.2799 Q1251.16 37.303 1263.08 37.303 Q1268.98 37.303 1274.19 38.1711 Q1279.4 39.0391 1283.8 40.7752 Z" fill="#bebebe" fill-rule="evenodd" fill-opacity="1" /><path clip-path="url(#clip530)" d="M 0 0 M1345.08 41.3539 L1345.08 51.3076 Q1340.57 48.8192 1336 47.6039 Q1331.48 46.3308 1326.85 46.3308 Q1316.49 46.3308 1310.76 52.928 Q1305.04 59.4673 1305.04 71.3306 Q1305.04 83.194 1310.76 89.7912 Q1316.49 96.3305 1326.85 96.3305 Q1331.48 96.3305 1336 95.1152 Q1340.57 93.8421 1345.08 91.3537 L1345.08 101.192 Q1340.63 103.275 1335.82 104.317 Q1331.08 105.358 1325.7 105.358 Q1311.05 105.358 1302.43 96.1569 Q1293.81 86.9556 1293.81 71.3306 Q1293.81 55.4742 1302.49 46.3886 Q1311.23 37.303 1326.39 37.303 Q1331.31 37.303 1336 38.3447 Q1340.68 39.3285 1345.08 41.3539 Z" fill="#bebebe" fill-rule="evenodd" fill-opacity="1" /><path clip-path="url(#clip530)" d="M 0 0 M1385.71 71.0992 Q1372.8 71.0992 1367.82 74.0505 Q1362.85 77.0019 1362.85 84.1199 Q1362.85 89.7912 1366.55 93.1476 Q1370.31 96.4462 1376.74 96.4462 Q1385.59 96.4462 1390.91 90.1963 Q1396.3 83.8884 1396.3 73.4718 L1396.3 71.0992 L1385.71 71.0992 M1406.94 66.701 L1406.94 103.68 L1396.3 103.68 L1396.3 93.8421 Q1392.65 99.7448 1387.21 102.58 Q1381.77 105.358 1373.9 105.358 Q1363.95 105.358 1358.04 99.8027 Q1352.2 94.1893 1352.2 84.8144 Q1352.2 73.8769 1359.49 68.3214 Q1366.84 62.7659 1381.37 62.7659 L1396.3 62.7659 L1396.3 61.7242 Q1396.3 54.3747 1391.44 50.3817 Q1386.63 46.3308 1377.89 46.3308 Q1372.34 46.3308 1367.07 47.6618 Q1361.81 48.9928 1356.95 51.6548 L1356.95 41.8169 Q1362.79 39.56 1368.29 38.4604 Q1373.79 37.303 1378.99 37.303 Q1393.06 37.303 1400 44.5947 Q1406.94 51.8863 1406.94 66.701 Z" fill="#bebebe" fill-rule="evenodd" fill-opacity="1" /><path clip-path="url(#clip530)" d="M 0 0 M1428.65 20.4629 L1428.65 38.8655 L1450.58 38.8655 L1450.58 47.141 L1428.65 47.141 L1428.65 82.3259 Q1428.65 90.2541 1430.79 92.5111 Q1432.99 94.768 1439.64 94.768 L1450.58 94.768 L1450.58 103.68 L1439.64 103.68 Q1427.32 103.68 1422.63 99.1083 Q1417.94 94.4787 1417.94 82.3259 L1417.94 47.141 L1410.13 47.141 L1410.13 38.8655 L1417.94 38.8655 L1417.94 20.4629 L1428.65 20.4629 Z" fill="#bebebe" fill-rule="evenodd" fill-opacity="1" /><path clip-path="url(#clip530)" d="M 0 0 M1472.28 20.4629 L1472.28 38.8655 L1494.21 38.8655 L1494.21 47.141 L1472.28 47.141 L1472.28 82.3259 Q1472.28 90.2541 1474.42 92.5111 Q1476.62 94.768 1483.28 94.768 L1494.21 94.768 L1494.21 103.68 L1483.28 103.68 Q1470.95 103.68 1466.26 99.1083 Q1461.57 94.4787 1461.57 82.3259 L1461.57 47.141 L1453.76 47.141 L1453.76 38.8655 L1461.57 38.8655 L1461.57 20.4629 L1472.28 20.4629 Z" fill="#bebebe" fill-rule="evenodd" fill-opacity="1" /><path clip-path="url(#clip530)" d="M 0 0 M1560.82 68.6107 L1560.82 73.819 L1511.86 73.819 Q1512.56 84.8144 1518.46 90.6014 Q1524.42 96.3305 1535.01 96.3305 Q1541.15 96.3305 1546.87 94.8259 Q1552.66 93.3213 1558.33 90.312 L1558.33 100.381 Q1552.6 102.812 1546.59 104.085 Q1540.57 105.358 1534.37 105.358 Q1518.87 105.358 1509.78 96.3305 Q1500.75 87.3028 1500.75 71.9093 Q1500.75 55.9951 1509.32 46.678 Q1517.94 37.303 1532.52 37.303 Q1545.6 37.303 1553.18 45.7521 Q1560.82 54.1432 1560.82 68.6107 M1550.17 65.4858 Q1550.06 56.7474 1545.25 51.5391 Q1540.51 46.3308 1532.64 46.3308 Q1523.73 46.3308 1518.34 51.3655 Q1513.02 56.4002 1512.21 65.5436 L1550.17 65.4858 Z" fill="#bebebe" fill-rule="evenodd" fill-opacity="1" /><path clip-path="url(#clip530)" d="M 0 0 M1609.55 48.8192 Q1607.75 47.7775 1605.61 47.3146 Q1603.53 46.7937 1600.98 46.7937 Q1591.96 46.7937 1587.09 52.6965 Q1582.29 58.5414 1582.29 69.5367 L1582.29 103.68 L1571.59 103.68 L1571.59 38.8655 L1582.29 38.8655 L1582.29 48.9349 Q1585.65 43.0322 1591.03 40.1965 Q1596.41 37.303 1604.11 37.303 Q1605.21 37.303 1606.54 37.4767 Q1607.87 37.5924 1609.49 37.8817 L1609.55 48.8192 Z" fill="#bebebe" fill-rule="evenodd" fill-opacity="1" /><path clip-path="url(#clip530)" d="M 0 0 M1630.79 17.28 L1630.79 49.3979 L1620.95 49.3979 L1620.95 17.28 L1630.79 17.28 Z" fill="#bebebe" fill-rule="evenodd" fill-opacity="1" /><path clip-path="url(#clip532)" d="M231.173 915.13 L231.173 947.13 L263.173 947.13 L263.173 915.13 L231.173 915.13 Z" fill="#e69f00" fill-rule="evenodd" fill-opacity="1" stroke="#000000" stroke-opacity="1" stroke-width="3.2"/>
<path clip-path="url(#clip532)" d="M338.766 712.002 L338.766 744.002 L370.766 744.002 L370.766 712.002 L338.766 712.002 Z" fill="#e69f00" fill-rule="evenodd" fill-opacity="1" stroke="#000000" stroke-opacity="1" stroke-width="3.2"/>
<path clip-path="url(#clip532)" d="M446.358 730.275 L446.358 762.275 L478.358 762.275 L478.358 730.275 L446.358 730.275 Z" fill="#e69f00" fill-rule="evenodd" fill-opacity="1" stroke="#000000" stroke-opacity="1" stroke-width="3.2"/>
<path clip-path="url(#clip532)" d="M553.95 1034.18 L553.95 1066.18 L585.95 1066.18 L585.95 1034.18 L553.95 1034.18 Z" fill="#e69f00" fill-rule="evenodd" fill-opacity="1" stroke="#000000" stroke-opacity="1" stroke-width="3.2"/>
<path clip-path="url(#clip532)" d="M661.543 581.335 L661.543 613.335 L693.543 613.335 L693.543 581.335 L661.543 581.335 Z" fill="#e69f00" fill-rule="evenodd" fill-opacity="1" stroke="#000000" stroke-opacity="1" stroke-width="3.2"/>
<path clip-path="url(#clip532)" d="M769.135 913.395 L769.135 945.395 L801.135 945.395 L801.135 913.395 L769.135 913.395 Z" fill="#e69f00" fill-rule="evenodd" fill-opacity="1" stroke="#000000" stroke-opacity="1" stroke-width="3.2"/>
<path clip-path="url(#clip532)" d="M876.728 1385.85 L876.728 1417.85 L908.728 1417.85 L908.728 1385.85 L876.728 1385.85 Z" fill="#e69f00" fill-rule="evenodd" fill-opacity="1" stroke="#000000" stroke-opacity="1" stroke-width="3.2"/>
<path clip-path="url(#clip532)" d="M984.32 994.344 L984.32 1026.34 L1016.32 1026.34 L1016.32 994.344 L984.32 994.344 Z" fill="#e69f00" fill-rule="evenodd" fill-opacity="1" stroke="#000000" stroke-opacity="1" stroke-width="3.2"/>
<path clip-path="url(#clip532)" d="M1091.91 1182.37 L1091.91 1214.37 L1123.91 1214.37 L1123.91 1182.37 L1091.91 1182.37 Z" fill="#e69f00" fill-rule="evenodd" fill-opacity="1" stroke="#000000" stroke-opacity="1" stroke-width="3.2"/>
<path clip-path="url(#clip532)" d="M1199.5 210.779 L1199.5 242.779 L1231.5 242.779 L1231.5 210.779 L1199.5 210.779 Z" fill="#e69f00" fill-rule="evenodd" fill-opacity="1" stroke="#000000" stroke-opacity="1" stroke-width="3.2"/>
<path clip-path="url(#clip532)" d="M1307.1 777.417 L1307.1 809.417 L1339.1 809.417 L1339.1 777.417 L1307.1 777.417 Z" fill="#e69f00" fill-rule="evenodd" fill-opacity="1" stroke="#000000" stroke-opacity="1" stroke-width="3.2"/>
<path clip-path="url(#clip532)" d="M1414.69 271.207 L1414.69 303.207 L1446.69 303.207 L1446.69 271.207 L1414.69 271.207 Z" fill="#e69f00" fill-rule="evenodd" fill-opacity="1" stroke="#000000" stroke-opacity="1" stroke-width="3.2"/>
<path clip-path="url(#clip532)" d="M1522.28 398.584 L1522.28 430.584 L1554.28 430.584 L1554.28 398.584 L1522.28 398.584 Z" fill="#e69f00" fill-rule="evenodd" fill-opacity="1" stroke="#000000" stroke-opacity="1" stroke-width="3.2"/>
<path clip-path="url(#clip532)" d="M1629.87 673.509 L1629.87 705.509 L1661.87 705.509 L1661.87 673.509 L1629.87 673.509 Z" fill="#e69f00" fill-rule="evenodd" fill-opacity="1" stroke="#000000" stroke-opacity="1" stroke-width="3.2"/>
<path clip-path="url(#clip532)" d="M1737.47 1185.81 L1737.47 1217.81 L1769.47 1217.81 L1769.47 1185.81 L1737.47 1185.81 Z" fill="#e69f00" fill-rule="evenodd" fill-opacity="1" stroke="#000000" stroke-opacity="1" stroke-width="3.2"/>
<path clip-path="url(#clip532)" d="M1845.06 1140.74 L1845.06 1172.74 L1877.06 1172.74 L1877.06 1140.74 L1845.06 1140.74 Z" fill="#e69f00" fill-rule="evenodd" fill-opacity="1" stroke="#000000" stroke-opacity="1" stroke-width="3.2"/>
<path clip-path="url(#clip532)" d="M1952.65 581.688 L1952.65 613.688 L1984.65 613.688 L1984.65 581.688 L1952.65 581.688 Z" fill="#e69f00" fill-rule="evenodd" fill-opacity="1" stroke="#000000" stroke-opacity="1" stroke-width="3.2"/>
<path clip-path="url(#clip532)" d="M2060.24 524.841 L2060.24 556.841 L2092.24 556.841 L2092.24 524.841 L2060.24 524.841 Z" fill="#e69f00" fill-rule="evenodd" fill-opacity="1" stroke="#000000" stroke-opacity="1" stroke-width="3.2"/>
<path clip-path="url(#clip532)" d="M2167.84 1165.61 L2167.84 1197.61 L2199.84 1197.61 L2199.84 1165.61 L2167.84 1165.61 Z" fill="#e69f00" fill-rule="evenodd" fill-opacity="1" stroke="#000000" stroke-opacity="1" stroke-width="3.2"/>
<path clip-path="url(#clip532)" d="M2275.43 722.475 L2275.43 754.475 L2307.43 754.475 L2307.43 722.475 L2275.43 722.475 Z" fill="#e69f00" fill-rule="evenodd" fill-opacity="1" stroke="#000000" stroke-opacity="1" stroke-width="3.2"/>
<circle clip-path="url(#clip532)" cx="247.173" cy="630.83" r="14" fill="#56b4e9" fill-rule="evenodd" fill-opacity="1" stroke="#000000" stroke-opacity="1" stroke-width="3.2"/>
<circle clip-path="url(#clip532)" cx="354.766" cy="597.897" r="14" fill="#56b4e9" fill-rule="evenodd" fill-opacity="1" stroke="#000000" stroke-opacity="1" stroke-width="3.2"/>
<circle clip-path="url(#clip532)" cx="462.358" cy="718.83" r="14" fill="#56b4e9" fill-rule="evenodd" fill-opacity="1" stroke="#000000" stroke-opacity="1" stroke-width="3.2"/>
<circle clip-path="url(#clip532)" cx="569.95" cy="652.64" r="14" fill="#56b4e9" fill-rule="evenodd" fill-opacity="1" stroke="#000000" stroke-opacity="1" stroke-width="3.2"/>
<circle clip-path="url(#clip532)" cx="677.543" cy="381.375" r="14" fill="#56b4e9" fill-rule="evenodd" fill-opacity="1" stroke="#000000" stroke-opacity="1" stroke-width="3.2"/>
<circle clip-path="url(#clip532)" cx="785.135" cy="187.111" r="14" fill="#56b4e9" fill-rule="evenodd" fill-opacity="1" stroke="#000000" stroke-opacity="1" stroke-width="3.2"/>
<circle clip-path="url(#clip532)" cx="892.728" cy="864.41" r="14" fill="#56b4e9" fill-rule="evenodd" fill-opacity="1" stroke="#000000" stroke-opacity="1" stroke-width="3.2"/>
<circle clip-path="url(#clip532)" cx="1000.32" cy="557.923" r="14" fill="#56b4e9" fill-rule="evenodd" fill-opacity="1" stroke="#000000" stroke-opacity="1" stroke-width="3.2"/>
<circle clip-path="url(#clip532)" cx="1107.91" cy="1081.47" r="14" fill="#56b4e9" fill-rule="evenodd" fill-opacity="1" stroke="#000000" stroke-opacity="1" stroke-width="3.2"/>
<circle clip-path="url(#clip532)" cx="1215.5" cy="918.542" r="14" fill="#56b4e9" fill-rule="evenodd" fill-opacity="1" stroke="#000000" stroke-opacity="1" stroke-width="3.2"/>
<circle clip-path="url(#clip532)" cx="1323.1" cy="1298.44" r="14" fill="#56b4e9" fill-rule="evenodd" fill-opacity="1" stroke="#000000" stroke-opacity="1" stroke-width="3.2"/>
<circle clip-path="url(#clip532)" cx="1430.69" cy="950.764" r="14" fill="#56b4e9" fill-rule="evenodd" fill-opacity="1" stroke="#000000" stroke-opacity="1" stroke-width="3.2"/>
<circle clip-path="url(#clip532)" cx="1538.28" cy="567.865" r="14" fill="#56b4e9" fill-rule="evenodd" fill-opacity="1" stroke="#000000" stroke-opacity="1" stroke-width="3.2"/>
<circle clip-path="url(#clip532)" cx="1645.87" cy="375.022" r="14" fill="#56b4e9" fill-rule="evenodd" fill-opacity="1" stroke="#000000" stroke-opacity="1" stroke-width="3.2"/>
<circle clip-path="url(#clip532)" cx="1753.47" cy="1391.83" r="14" fill="#56b4e9" fill-rule="evenodd" fill-opacity="1" stroke="#000000" stroke-opacity="1" stroke-width="3.2"/>
<circle clip-path="url(#clip532)" cx="1861.06" cy="423.346" r="14" fill="#56b4e9" fill-rule="evenodd" fill-opacity="1" stroke="#000000" stroke-opacity="1" stroke-width="3.2"/>
<circle clip-path="url(#clip532)" cx="1968.65" cy="1188.29" r="14" fill="#56b4e9" fill-rule="evenodd" fill-opacity="1" stroke="#000000" stroke-opacity="1" stroke-width="3.2"/>
<circle clip-path="url(#clip532)" cx="2076.24" cy="1422.24" r="14" fill="#56b4e9" fill-rule="evenodd" fill-opacity="1" stroke="#000000" stroke-opacity="1" stroke-width="3.2"/>
<circle clip-path="url(#clip532)" cx="2183.84" cy="942.978" r="14" fill="#56b4e9" fill-rule="evenodd" fill-opacity="1" stroke="#000000" stroke-opacity="1" stroke-width="3.2"/>
<circle clip-path="url(#clip532)" cx="2291.43" cy="1170.63" r="14" fill="#56b4e9" fill-rule="evenodd" fill-opacity="1" stroke="#000000" stroke-opacity="1" stroke-width="3.2"/>
<path clip-path="url(#clip532)" d="M247.173 1292.37 L233.317 1284.37 L233.317 1268.37 L247.173 1260.37 L261.029 1268.37 L261.029 1284.37 Z" fill="#009e73" fill-rule="evenodd" fill-opacity="1" stroke="#000000" stroke-opacity="1" stroke-width="3.2"/>
<path clip-path="url(#clip532)" d="M354.766 919.719 L340.91 911.719 L340.91 895.719 L354.766 887.719 L368.622 895.719 L368.622 911.719 Z" fill="#009e73" fill-rule="evenodd" fill-opacity="1" stroke="#000000" stroke-opacity="1" stroke-width="3.2"/>
<path clip-path="url(#clip532)" d="M462.358 823.879 L448.502 815.879 L448.502 799.879 L462.358 791.879 L476.214 799.879 L476.214 815.879 Z" fill="#009e73" fill-rule="evenodd" fill-opacity="1" stroke="#000000" stroke-opacity="1" stroke-width="3.2"/>
<path clip-path="url(#clip532)" d="M569.95 281.572 L556.094 273.572 L556.094 257.572 L569.95 249.572 L583.806 257.572 L583.806 273.572 Z" fill="#009e73" fill-rule="evenodd" fill-opacity="1" stroke="#000000" stroke-opacity="1" stroke-width="3.2"/>
<path clip-path="url(#clip532)" d="M677.543 1112.93 L663.687 1104.93 L663.687 1088.93 L677.543 1080.93 L691.399 1088.93 L691.399 1104.93 Z" fill="#009e73" fill-rule="evenodd" fill-opacity="1" stroke="#000000" stroke-opacity="1" stroke-width="3.2"/>
<path clip-path="url(#clip532)" d="M785.135 1460.41 L771.279 1452.41 L771.279 1436.41 L785.135 1428.41 L798.991 1436.41 L798.991 1452.41 Z" fill="#009e73" fill-rule="evenodd" fill-opacity="1" stroke="#000000" stroke-opacity="1" stroke-width="3.2"/>
<path clip-path="url(#clip532)" d="M892.728 799.354 L878.872 791.354 L878.872 775.354 L892.728 767.354 L906.584 775.354 L906.584 791.354 Z" fill="#009e73" fill-rule="evenodd" fill-opacity="1" stroke="#000000" stroke-opacity="1" stroke-width="3.2"/>
<path clip-path="url(#clip532)" d="M1000.32 890.95 L986.464 882.95 L986.464 866.95 L1000.32 858.95 L1014.18 866.95 L1014.18 882.95 Z" fill="#009e73" fill-rule="evenodd" fill-opacity="1" stroke="#000000" stroke-opacity="1" stroke-width="3.2"/>
<path clip-path="url(#clip532)" d="M1107.91 672.364 L1094.06 664.364 L1094.06 648.364 L1107.91 640.364 L1121.77 648.364 L1121.77 664.364 Z" fill="#009e73" fill-rule="evenodd" fill-opacity="1" stroke="#000000" stroke-opacity="1" stroke-width="3.2"/>
<path clip-path="url(#clip532)" d="M1215.5 464.676 L1201.65 456.676 L1201.65 440.676 L1215.5 432.676 L1229.36 440.676 L1229.36 456.676 Z" fill="#009e73" fill-rule="evenodd" fill-opacity="1" stroke="#000000" stroke-opacity="1" stroke-width="3.2"/>
<path clip-path="url(#clip532)" d="M1323.1 787.347 L1309.24 779.347 L1309.24 763.347 L1323.1 755.347 L1336.95 763.347 L1336.95 779.347 Z" fill="#009e73" fill-rule="evenodd" fill-opacity="1" stroke="#000000" stroke-opacity="1" stroke-width="3.2"/>
<path clip-path="url(#clip532)" d="M1430.69 757.95 L1416.83 749.95 L1416.83 733.95 L1430.69 725.95 L1444.55 733.95 L1444.55 749.95 Z" fill="#009e73" fill-rule="evenodd" fill-opacity="1" stroke="#000000" stroke-opacity="1" stroke-width="3.2"/>
<path clip-path="url(#clip532)" d="M1538.28 1289.47 L1524.43 1281.47 L1524.43 1265.47 L1538.28 1257.47 L1552.14 1265.47 L1552.14 1281.47 Z" fill="#009e73" fill-rule="evenodd" fill-opacity="1" stroke="#000000" stroke-opacity="1" stroke-width="3.2"/>
<path clip-path="url(#clip532)" d="M1645.87 445.177 L1632.02 437.177 L1632.02 421.177 L1645.87 413.177 L1659.73 421.177 L1659.73 437.177 Z" fill="#009e73" fill-rule="evenodd" fill-opacity="1" stroke="#000000" stroke-opacity="1" stroke-width="3.2"/>
<path clip-path="url(#clip532)" d="M1753.47 713.046 L1739.61 705.046 L1739.61 689.046 L1753.47 681.046 L1767.32 689.046 L1767.32 705.046 Z" fill="#009e73" fill-rule="evenodd" fill-opacity="1" stroke="#000000" stroke-opacity="1" stroke-width="3.2"/>
<path clip-path="url(#clip532)" d="M1861.06 401.073 L1847.2 393.073 L1847.2 377.073 L1861.06 369.073 L1874.91 377.073 L1874.91 393.073 Z" fill="#009e73" fill-rule="evenodd" fill-opacity="1" stroke="#000000" stroke-opacity="1" stroke-width="3.2"/>
<path clip-path="url(#clip532)" d="M1968.65 763.437 L1954.8 755.437 L1954.8 739.437 L1968.65 731.437 L1982.51 739.437 L1982.51 755.437 Z" fill="#009e73" fill-rule="evenodd" fill-opacity="1" stroke="#000000" stroke-opacity="1" stroke-width="3.2"/>
<path clip-path="url(#clip532)" d="M2076.24 1094.36 L2062.39 1086.36 L2062.39 1070.36 L2076.24 1062.36 L2090.1 1070.36 L2090.1 1086.36 Z" fill="#009e73" fill-rule="evenodd" fill-opacity="1" stroke="#000000" stroke-opacity="1" stroke-width="3.2"/>
<path clip-path="url(#clip532)" d="M2183.84 1075.62 L2169.98 1067.62 L2169.98 1051.62 L2183.84 1043.62 L2197.69 1051.62 L2197.69 1067.62 Z" fill="#009e73" fill-rule="evenodd" fill-opacity="1" stroke="#000000" stroke-opacity="1" stroke-width="3.2"/>
<path clip-path="url(#clip532)" d="M2291.43 1154.03 L2277.57 1146.03 L2277.57 1130.03 L2291.43 1122.03 L2305.28 1130.03 L2305.28 1146.03 Z" fill="#009e73" fill-rule="evenodd" fill-opacity="1" stroke="#000000" stroke-opacity="1" stroke-width="3.2"/>
<path clip-path="url(#clip530)" d="
M1988.16 435.737 L2280.53 435.737 L2280.53 193.817 L1988.16 193.817  Z
  " fill="#ffffff" fill-rule="evenodd" fill-opacity="1"/>
<polyline clip-path="url(#clip530)" style="stroke:#000000; stroke-width:4; stroke-opacity:1; fill:none" points="
  1988.16,435.737 2280.53,435.737 2280.53,193.817 1988.16,193.817 1988.16,435.737 
  "/>
<path clip-path="url(#clip530)" d="M2058.87 228.697 L2058.87 279.897 L2110.07 279.897 L2110.07 228.697 L2058.87 228.697 Z" fill="#e69f00" fill-rule="evenodd" fill-opacity="1" stroke="#000000" stroke-opacity="1" stroke-width="5.12"/>
<path clip-path="url(#clip530)" d="M 0 0 M2194.62 273.984 Q2192.81 278.614 2191.1 280.026 Q2189.39 281.438 2186.52 281.438 L2183.11 281.438 L2183.11 277.873 L2185.61 277.873 Q2187.37 277.873 2188.34 277.04 Q2189.32 276.206 2190.5 273.104 L2191.26 271.16 L2180.78 245.651 L2185.29 245.651 L2193.39 265.929 L2201.49 245.651 L2206.01 245.651 L2194.62 273.984 Z" fill="#bebebe" fill-rule="evenodd" fill-opacity="1" /><path clip-path="url(#clip530)" d="M 0 0 M2211.89 267.641 L2219.52 267.641 L2219.52 241.276 L2211.21 242.943 L2211.21 238.683 L2219.48 237.017 L2224.15 237.017 L2224.15 267.641 L2231.79 267.641 L2231.79 271.577 L2211.89 271.577 L2211.89 267.641 Z" fill="#bebebe" fill-rule="evenodd" fill-opacity="1" /><circle clip-path="url(#clip530)" cx="2084.47" cy="314.777" r="23" fill="#56b4e9" fill-rule="evenodd" fill-opacity="1" stroke="#000000" stroke-opacity="1" stroke-width="5.12"/>
<path clip-path="url(#clip530)" d="M 0 0 M2194.62 334.464 Q2192.81 339.094 2191.1 340.506 Q2189.39 341.918 2186.52 341.918 L2183.11 341.918 L2183.11 338.353 L2185.61 338.353 Q2187.37 338.353 2188.34 337.52 Q2189.32 336.686 2190.5 333.584 L2191.26 331.64 L2180.78 306.131 L2185.29 306.131 L2193.39 326.409 L2201.49 306.131 L2206.01 306.131 L2194.62 334.464 Z" fill="#bebebe" fill-rule="evenodd" fill-opacity="1" /><path clip-path="url(#clip530)" d="M 0 0 M2215.1 328.121 L2231.42 328.121 L2231.42 332.057 L2209.48 332.057 L2209.48 328.121 Q2212.14 325.367 2216.72 320.737 Q2221.33 316.085 2222.51 314.742 Q2224.76 312.219 2225.64 310.483 Q2226.54 308.723 2226.54 307.034 Q2226.54 304.279 2224.59 302.543 Q2222.67 300.807 2219.57 300.807 Q2217.37 300.807 2214.92 301.571 Q2212.49 302.335 2209.71 303.886 L2209.71 299.163 Q2212.53 298.029 2214.99 297.45 Q2217.44 296.872 2219.48 296.872 Q2224.85 296.872 2228.04 299.557 Q2231.24 302.242 2231.24 306.733 Q2231.24 308.862 2230.43 310.784 Q2229.64 312.682 2227.53 315.274 Q2226.96 315.946 2223.85 319.163 Q2220.75 322.358 2215.1 328.121 Z" fill="#bebebe" fill-rule="evenodd" fill-opacity="1" /><path clip-path="url(#clip530)" d="M2084.47 400.857 L2062.3 388.057 L2062.3 362.457 L2084.47 349.657 L2106.64 362.457 L2106.64 388.057 Z" fill="#009e73" fill-rule="evenodd" fill-opacity="1" stroke="#000000" stroke-opacity="1" stroke-width="5.12"/>
<path clip-path="url(#clip530)" d="M 0 0 M2194.62 394.944 Q2192.81 399.574 2191.1 400.986 Q2189.39 402.398 2186.52 402.398 L2183.11 402.398 L2183.11 398.833 L2185.61 398.833 Q2187.37 398.833 2188.34 398 Q2189.32 397.166 2190.5 394.064 L2191.26 392.12 L2180.78 366.611 L2185.29 366.611 L2193.39 386.889 L2201.49 366.611 L2206.01 366.611 L2194.62 394.944 Z" fill="#bebebe" fill-rule="evenodd" fill-opacity="1" /><path clip-path="url(#clip530)" d="M 0 0 M2225.24 373.902 Q2228.6 374.62 2230.47 376.889 Q2232.37 379.157 2232.37 382.49 Q2232.37 387.606 2228.85 390.407 Q2225.34 393.208 2218.85 393.208 Q2216.68 393.208 2214.36 392.768 Q2212.07 392.351 2209.62 391.495 L2209.62 386.981 Q2211.56 388.115 2213.88 388.694 Q2216.19 389.273 2218.71 389.273 Q2223.11 389.273 2225.4 387.537 Q2227.72 385.801 2227.72 382.49 Q2227.72 379.435 2225.57 377.722 Q2223.44 375.986 2219.62 375.986 L2215.59 375.986 L2215.59 372.143 L2219.8 372.143 Q2223.25 372.143 2225.08 370.778 Q2226.91 369.389 2226.91 366.796 Q2226.91 364.134 2225.01 362.722 Q2223.14 361.287 2219.62 361.287 Q2217.7 361.287 2215.5 361.703 Q2213.3 362.12 2210.66 363 L2210.66 358.833 Q2213.32 358.092 2215.64 357.722 Q2217.97 357.352 2220.03 357.352 Q2225.36 357.352 2228.46 359.782 Q2231.56 362.19 2231.56 366.31 Q2231.56 369.18 2229.92 371.171 Q2228.27 373.139 2225.24 373.902 Z" fill="#bebebe" fill-rule="evenodd" fill-opacity="1" /></svg>
