<?xml version="1.0" encoding="utf-8"?>
<svg xmlns="http://www.w3.org/2000/svg" xmlns:xlink="http://www.w3.org/1999/xlink" width="600" height="400" viewBox="0 0 2400 1600">
<defs>
  <clipPath id="clip840">
    <rect x="0" y="0" width="2400" height="1600"/>
  </clipPath>
</defs>
<path clip-path="url(#clip840)" d="
M0 1600 L2400 1600 L2400 0 L0 0  Z
  " fill="#ffffff" fill-rule="evenodd" fill-opacity="1"/>
<defs>
  <clipPath id="clip841">
    <rect x="480" y="0" width="1681" height="1600"/>
  </clipPath>
</defs>
<defs>
  <clipPath id="clip842">
    <rect x="223" y="142" width="2130" height="1302"/>
  </clipPath>
</defs>
<path clip-path="url(#clip840)" d="
M223.308 1442.83 L2352.76 1442.83 L2352.76 142.325 L223.308 142.325  Z
  " fill="#ffffff" fill-rule="evenodd" fill-opacity="1"/>
<polyline clip-path="url(#clip840)" style="stroke:#000000; stroke-width:4; stroke-opacity:1; fill:none" points="
  223.308,1442.83 2352.76,1442.83 
  "/>
<polyline clip-path="url(#clip840)" style="stroke:#000000; stroke-width:4; stroke-opacity:1; fill:none" points="
  -1906.14,1442.83 -1906.14,1427.22 
  "/>
<polyline clip-path="url(#clip840)" style="stroke:#000000; stroke-width:4; stroke-opacity:1; fill:none" points="
  -841.416,1442.83 -841.416,1427.22 
  "/>
<polyline clip-path="url(#clip840)" style="stroke:#000000; stroke-width:4; stroke-opacity:1; fill:none" points="
  223.308,1442.83 223.308,1427.22 
  "/>
<polyline clip-path="url(#clip840)" style="stroke:#000000; stroke-width:4; stroke-opacity:1; fill:none" points="
  1288.03,1442.83 1288.03,1427.22 
  "/>
<polyline clip-path="url(#clip840)" style="stroke:#000000; stroke-width:4; stroke-opacity:1; fill:none" points="
  2352.76,1442.83 2352.76,1427.22 
  "/>
<path clip-path="url(#clip840)" d="M 0 0 M-1946.84 1495.27 L-1931.24 1495.27 L-1931.24 1500.01 L-1946.84 1500.01 L-1946.84 1495.27 Z" fill="#000000" fill-rule="evenodd" fill-opacity="1" /><path clip-path="url(#clip840)" d="M 0 0 M-1919.87 1508.95 L-1899.47 1508.95 L-1899.47 1513.87 L-1926.9 1513.87 L-1926.9 1508.95 Q-1923.57 1505.51 -1917.84 1499.72 Q-1912.09 1493.91 -1910.61 1492.23 Q-1907.8 1489.07 -1906.7 1486.9 Q-1905.58 1484.7 -1905.58 1482.59 Q-1905.58 1479.15 -1908.01 1476.98 Q-1910.41 1474.81 -1914.29 1474.81 Q-1917.03 1474.81 -1920.1 1475.76 Q-1923.14 1476.72 -1926.61 1478.66 L-1926.61 1472.75 Q-1923.08 1471.34 -1920.01 1470.61 Q-1916.95 1469.89 -1914.4 1469.89 Q-1907.69 1469.89 -1903.69 1473.25 Q-1899.7 1476.6 -1899.7 1482.22 Q-1899.7 1484.88 -1900.71 1487.28 Q-1901.7 1489.65 -1904.33 1492.89 Q-1905.05 1493.73 -1908.93 1497.75 Q-1912.81 1501.75 -1919.87 1508.95 Z" fill="#000000" fill-rule="evenodd" fill-opacity="1" /><path clip-path="url(#clip840)" d="M 0 0 M-1897.33 1481.46 L-1866.28 1481.46 L-1866.28 1486.79 L-1870.36 1486.79 L-1870.36 1506.69 Q-1870.36 1508.78 -1869.67 1509.7 Q-1868.94 1510.6 -1867.35 1510.6 Q-1866.92 1510.6 -1866.28 1510.54 Q-1865.65 1510.46 -1865.44 1510.43 L-1865.44 1514.28 Q-1866.46 1514.65 -1867.53 1514.83 Q-1868.6 1515 -1869.67 1515 Q-1873.14 1515 -1874.47 1513.12 Q-1875.8 1511.21 -1875.8 1506.12 L-1875.8 1486.79 L-1887.75 1486.79 L-1887.75 1513.87 L-1893.19 1513.87 L-1893.19 1486.79 L-1897.33 1486.79 L-1897.33 1481.46 Z" fill="#000000" fill-rule="evenodd" fill-opacity="1" /><path clip-path="url(#clip840)" d="M 0 0 M-866.228 1495.27 L-850.632 1495.27 L-850.632 1500.01 L-866.228 1500.01 L-866.228 1495.27 Z" fill="#000000" fill-rule="evenodd" fill-opacity="1" /><path clip-path="url(#clip840)" d="M 0 0 M-848.491 1481.46 L-817.443 1481.46 L-817.443 1486.79 L-821.523 1486.79 L-821.523 1506.69 Q-821.523 1508.78 -820.829 1509.7 Q-820.105 1510.6 -818.514 1510.6 Q-818.08 1510.6 -817.443 1510.54 Q-816.807 1510.46 -816.604 1510.43 L-816.604 1514.28 Q-817.617 1514.65 -818.688 1514.83 Q-819.758 1515 -820.829 1515 Q-824.301 1515 -825.632 1513.12 Q-826.963 1511.21 -826.963 1506.12 L-826.963 1486.79 L-838.913 1486.79 L-838.913 1513.87 L-844.353 1513.87 L-844.353 1486.79 L-848.491 1486.79 L-848.491 1481.46 Z" fill="#000000" fill-rule="evenodd" fill-opacity="1" /><path clip-path="url(#clip840)" d="M 0 0 M223.308 1474.52 Q218.794 1474.52 216.508 1478.98 Q214.251 1483.4 214.251 1492.31 Q214.251 1501.2 216.508 1505.65 Q218.794 1510.08 223.308 1510.08 Q227.851 1510.08 230.108 1505.65 Q232.394 1501.2 232.394 1492.31 Q232.394 1483.4 230.108 1478.98 Q227.851 1474.52 223.308 1474.52 M223.308 1469.89 Q230.571 1469.89 234.39 1475.65 Q238.238 1481.38 238.238 1492.31 Q238.238 1503.22 234.39 1508.98 Q230.571 1514.71 223.308 1514.71 Q216.045 1514.71 212.197 1508.98 Q208.377 1503.22 208.377 1492.31 Q208.377 1481.38 212.197 1475.65 Q216.045 1469.89 223.308 1469.89 Z" fill="#000000" fill-rule="evenodd" fill-opacity="1" /><path clip-path="url(#clip840)" d="M 0 0 M1272.09 1481.46 L1303.14 1481.46 L1303.14 1486.79 L1299.06 1486.79 L1299.06 1506.69 Q1299.06 1508.78 1299.75 1509.7 Q1300.47 1510.6 1302.07 1510.6 Q1302.5 1510.6 1303.14 1510.54 Q1303.77 1510.46 1303.98 1510.43 L1303.98 1514.28 Q1302.96 1514.65 1301.89 1514.83 Q1300.82 1515 1299.75 1515 Q1296.28 1515 1294.95 1513.12 Q1293.62 1511.21 1293.62 1506.12 L1293.62 1486.79 L1281.67 1486.79 L1281.67 1513.87 L1276.23 1513.87 L1276.23 1486.79 L1272.09 1486.79 L1272.09 1481.46 Z" fill="#000000" fill-rule="evenodd" fill-opacity="1" /><path clip-path="url(#clip840)" d="M 0 0 M2329.06 1508.95 L2349.46 1508.95 L2349.46 1513.87 L2322.03 1513.87 L2322.03 1508.95 Q2325.35 1505.51 2331.08 1499.72 Q2336.84 1493.91 2338.32 1492.23 Q2341.12 1489.07 2342.22 1486.9 Q2343.35 1484.7 2343.35 1482.59 Q2343.35 1479.15 2340.92 1476.98 Q2338.52 1474.81 2334.64 1474.81 Q2331.89 1474.81 2328.83 1475.76 Q2325.79 1476.72 2322.32 1478.66 L2322.32 1472.75 Q2325.85 1471.34 2328.91 1470.61 Q2331.98 1469.89 2334.53 1469.89 Q2341.24 1469.89 2345.23 1473.25 Q2349.23 1476.6 2349.23 1482.22 Q2349.23 1484.88 2348.21 1487.28 Q2347.23 1489.65 2344.6 1492.89 Q2343.87 1493.73 2340 1497.75 Q2336.12 1501.75 2329.06 1508.95 Z" fill="#000000" fill-rule="evenodd" fill-opacity="1" /><path clip-path="url(#clip840)" d="M 0 0 M2351.6 1481.46 L2382.65 1481.46 L2382.65 1486.79 L2378.57 1486.79 L2378.57 1506.69 Q2378.57 1508.78 2379.26 1509.7 Q2379.98 1510.6 2381.58 1510.6 Q2382.01 1510.6 2382.65 1510.54 Q2383.28 1510.46 2383.48 1510.43 L2383.48 1514.28 Q2382.47 1514.65 2381.4 1514.83 Q2380.33 1515 2379.26 1515 Q2375.79 1515 2374.46 1513.12 Q2373.13 1511.21 2373.13 1506.12 L2373.13 1486.79 L2361.18 1486.79 L2361.18 1513.87 L2355.74 1513.87 L2355.74 1486.79 L2351.6 1486.79 L2351.6 1481.46 Z" fill="#000000" fill-rule="evenodd" fill-opacity="1" /><path clip-path="url(#clip840)" d="M 0 0 M1305.33 1557.59 L1298.08 1557.4 L1290.16 1557.59 L1290.16 1554.5 L1292.73 1554.5 L1285.49 1545.93 L1279.08 1553.11 L1278.63 1553.76 Q1278.63 1554.05 1279.37 1554.27 Q1280.14 1554.5 1281.04 1554.5 L1281.04 1557.59 L1274.25 1557.4 L1268.19 1557.59 L1268.19 1554.5 Q1270.22 1554.5 1271.16 1554.47 Q1272.12 1554.4 1273.22 1554.11 Q1274.31 1553.82 1274.86 1553.24 L1283.49 1543.55 L1273.22 1531.41 L1268.51 1531.41 L1268.51 1528.31 L1275.79 1528.51 L1283.75 1528.31 L1283.75 1531.41 L1281.11 1531.41 L1287.58 1538.98 L1293.12 1532.79 Q1293.15 1532.76 1293.67 1531.99 Q1292.64 1531.41 1291.16 1531.41 L1291.16 1528.31 L1297.95 1528.51 L1304.01 1528.31 L1304.01 1531.41 Q1301.36 1531.41 1299.98 1531.6 Q1298.63 1531.76 1298.21 1531.99 Q1297.82 1532.21 1297.27 1532.79 L1289.58 1541.36 L1300.66 1554.5 L1305.33 1554.5 L1305.33 1557.59 Z" fill="#000000" fill-rule="evenodd" fill-opacity="1" /><polyline clip-path="url(#clip840)" style="stroke:#000000; stroke-width:4; stroke-opacity:1; fill:none" points="
  223.308,1442.83 223.308,142.325 
  "/>
<polyline clip-path="url(#clip840)" style="stroke:#000000; stroke-width:4; stroke-opacity:1; fill:none" points="
  223.308,1406.03 248.861,1406.03 
  "/>
<polyline clip-path="url(#clip840)" style="stroke:#000000; stroke-width:4; stroke-opacity:1; fill:none" points="
  223.308,1099.31 248.861,1099.31 
  "/>
<polyline clip-path="url(#clip840)" style="stroke:#000000; stroke-width:4; stroke-opacity:1; fill:none" points="
  223.308,792.581 248.861,792.581 
  "/>
<polyline clip-path="url(#clip840)" style="stroke:#000000; stroke-width:4; stroke-opacity:1; fill:none" points="
  223.308,485.857 248.861,485.857 
  "/>
<polyline clip-path="url(#clip840)" style="stroke:#000000; stroke-width:4; stroke-opacity:1; fill:none" points="
  223.308,179.132 248.861,179.132 
  "/>
<path clip-path="url(#clip840)" d="M 0 0 M94.8779 1406.48 L124.554 1406.48 L124.554 1410.42 L94.8779 1410.42 L94.8779 1406.48 Z" fill="#000000" fill-rule="evenodd" fill-opacity="1" /><path clip-path="url(#clip840)" d="M 0 0 M130.433 1419.37 L138.072 1419.37 L138.072 1393.01 L129.762 1394.68 L129.762 1390.42 L138.026 1388.75 L142.702 1388.75 L142.702 1419.37 L150.341 1419.37 L150.341 1423.31 L130.433 1423.31 L130.433 1419.37 Z" fill="#000000" fill-rule="evenodd" fill-opacity="1" /><path clip-path="url(#clip840)" d="M 0 0 M155.41 1417.43 L160.294 1417.43 L160.294 1423.31 L155.41 1423.31 L155.41 1417.43 Z" fill="#000000" fill-rule="evenodd" fill-opacity="1" /><path clip-path="url(#clip840)" d="M 0 0 M175.364 1391.83 Q171.752 1391.83 169.924 1395.39 Q168.118 1398.94 168.118 1406.06 Q168.118 1413.17 169.924 1416.74 Q171.752 1420.28 175.364 1420.28 Q178.998 1420.28 180.803 1416.74 Q182.632 1413.17 182.632 1406.06 Q182.632 1398.94 180.803 1395.39 Q178.998 1391.83 175.364 1391.83 M175.364 1388.12 Q181.174 1388.12 184.229 1392.73 Q187.308 1397.31 187.308 1406.06 Q187.308 1414.79 184.229 1419.4 Q181.174 1423.98 175.364 1423.98 Q169.553 1423.98 166.475 1419.4 Q163.419 1414.79 163.419 1406.06 Q163.419 1397.31 166.475 1392.73 Q169.553 1388.12 175.364 1388.12 Z" fill="#000000" fill-rule="evenodd" fill-opacity="1" /><path clip-path="url(#clip840)" d="M 0 0 M94.6464 1099.76 L124.322 1099.76 L124.322 1103.69 L94.6464 1103.69 L94.6464 1099.76 Z" fill="#000000" fill-rule="evenodd" fill-opacity="1" /><path clip-path="url(#clip840)" d="M 0 0 M139.392 1085.1 Q135.78 1085.1 133.952 1088.67 Q132.146 1092.21 132.146 1099.34 Q132.146 1106.45 133.952 1110.01 Q135.78 1113.55 139.392 1113.55 Q143.026 1113.55 144.831 1110.01 Q146.66 1106.45 146.66 1099.34 Q146.66 1092.21 144.831 1088.67 Q143.026 1085.1 139.392 1085.1 M139.392 1081.4 Q145.202 1081.4 148.257 1086.01 Q151.336 1090.59 151.336 1099.34 Q151.336 1108.07 148.257 1112.67 Q145.202 1117.26 139.392 1117.26 Q133.581 1117.26 130.503 1112.67 Q127.447 1108.07 127.447 1099.34 Q127.447 1090.59 130.503 1086.01 Q133.581 1081.4 139.392 1081.4 Z" fill="#000000" fill-rule="evenodd" fill-opacity="1" /><path clip-path="url(#clip840)" d="M 0 0 M156.405 1110.71 L161.29 1110.71 L161.29 1116.59 L156.405 1116.59 L156.405 1110.71 Z" fill="#000000" fill-rule="evenodd" fill-opacity="1" /><path clip-path="url(#clip840)" d="M 0 0 M166.405 1082.03 L184.762 1082.03 L184.762 1085.96 L170.688 1085.96 L170.688 1094.43 Q171.706 1094.09 172.725 1093.92 Q173.743 1093.74 174.762 1093.74 Q180.549 1093.74 183.928 1096.91 Q187.308 1100.08 187.308 1105.5 Q187.308 1111.08 183.836 1114.18 Q180.364 1117.26 174.044 1117.26 Q171.868 1117.26 169.6 1116.89 Q167.354 1116.52 164.947 1115.78 L164.947 1111.08 Q167.03 1112.21 169.252 1112.77 Q171.475 1113.32 173.952 1113.32 Q177.956 1113.32 180.294 1111.22 Q182.632 1109.11 182.632 1105.5 Q182.632 1101.89 180.294 1099.78 Q177.956 1097.67 173.952 1097.67 Q172.077 1097.67 170.202 1098.09 Q168.35 1098.51 166.405 1099.39 L166.405 1082.03 Z" fill="#000000" fill-rule="evenodd" fill-opacity="1" /><path clip-path="url(#clip840)" d="M 0 0 M138.396 778.38 Q134.785 778.38 132.956 781.945 Q131.151 785.486 131.151 792.616 Q131.151 799.722 132.956 803.287 Q134.785 806.829 138.396 806.829 Q142.03 806.829 143.836 803.287 Q145.665 799.722 145.665 792.616 Q145.665 785.486 143.836 781.945 Q142.03 778.38 138.396 778.38 M138.396 774.676 Q144.206 774.676 147.262 779.283 Q150.341 783.866 150.341 792.616 Q150.341 801.343 147.262 805.949 Q144.206 810.532 138.396 810.532 Q132.586 810.532 129.507 805.949 Q126.452 801.343 126.452 792.616 Q126.452 783.866 129.507 779.283 Q132.586 774.676 138.396 774.676 Z" fill="#000000" fill-rule="evenodd" fill-opacity="1" /><path clip-path="url(#clip840)" d="M 0 0 M155.41 803.981 L160.294 803.981 L160.294 809.861 L155.41 809.861 L155.41 803.981 Z" fill="#000000" fill-rule="evenodd" fill-opacity="1" /><path clip-path="url(#clip840)" d="M 0 0 M175.364 778.38 Q171.752 778.38 169.924 781.945 Q168.118 785.486 168.118 792.616 Q168.118 799.722 169.924 803.287 Q171.752 806.829 175.364 806.829 Q178.998 806.829 180.803 803.287 Q182.632 799.722 182.632 792.616 Q182.632 785.486 180.803 781.945 Q178.998 778.38 175.364 778.38 M175.364 774.676 Q181.174 774.676 184.229 779.283 Q187.308 783.866 187.308 792.616 Q187.308 801.343 184.229 805.949 Q181.174 810.532 175.364 810.532 Q169.553 810.532 166.475 805.949 Q163.419 801.343 163.419 792.616 Q163.419 783.866 166.475 779.283 Q169.553 774.676 175.364 774.676 Z" fill="#000000" fill-rule="evenodd" fill-opacity="1" /><path clip-path="url(#clip840)" d="M 0 0 M139.392 471.655 Q135.78 471.655 133.952 475.22 Q132.146 478.762 132.146 485.891 Q132.146 492.998 133.952 496.563 Q135.78 500.104 139.392 500.104 Q143.026 500.104 144.831 496.563 Q146.66 492.998 146.66 485.891 Q146.66 478.762 144.831 475.22 Q143.026 471.655 139.392 471.655 M139.392 467.952 Q145.202 467.952 148.257 472.558 Q151.336 477.141 151.336 485.891 Q151.336 494.618 148.257 499.225 Q145.202 503.808 139.392 503.808 Q133.581 503.808 130.503 499.225 Q127.447 494.618 127.447 485.891 Q127.447 477.141 130.503 472.558 Q133.581 467.952 139.392 467.952 Z" fill="#000000" fill-rule="evenodd" fill-opacity="1" /><path clip-path="url(#clip840)" d="M 0 0 M156.405 497.257 L161.29 497.257 L161.29 503.137 L156.405 503.137 L156.405 497.257 Z" fill="#000000" fill-rule="evenodd" fill-opacity="1" /><path clip-path="url(#clip840)" d="M 0 0 M166.405 468.577 L184.762 468.577 L184.762 472.512 L170.688 472.512 L170.688 480.984 Q171.706 480.637 172.725 480.475 Q173.743 480.29 174.762 480.29 Q180.549 480.29 183.928 483.461 Q187.308 486.632 187.308 492.049 Q187.308 497.627 183.836 500.729 Q180.364 503.808 174.044 503.808 Q171.868 503.808 169.6 503.438 Q167.354 503.067 164.947 502.326 L164.947 497.627 Q167.03 498.762 169.252 499.317 Q171.475 499.873 173.952 499.873 Q177.956 499.873 180.294 497.766 Q182.632 495.66 182.632 492.049 Q182.632 488.438 180.294 486.331 Q177.956 484.225 173.952 484.225 Q172.077 484.225 170.202 484.641 Q168.35 485.058 166.405 485.938 L166.405 468.577 Z" fill="#000000" fill-rule="evenodd" fill-opacity="1" /><path clip-path="url(#clip840)" d="M 0 0 M130.433 192.477 L138.072 192.477 L138.072 166.111 L129.762 167.778 L129.762 163.519 L138.026 161.852 L142.702 161.852 L142.702 192.477 L150.341 192.477 L150.341 196.412 L130.433 196.412 L130.433 192.477 Z" fill="#000000" fill-rule="evenodd" fill-opacity="1" /><path clip-path="url(#clip840)" d="M 0 0 M155.41 190.533 L160.294 190.533 L160.294 196.412 L155.41 196.412 L155.41 190.533 Z" fill="#000000" fill-rule="evenodd" fill-opacity="1" /><path clip-path="url(#clip840)" d="M 0 0 M175.364 164.931 Q171.752 164.931 169.924 168.496 Q168.118 172.037 168.118 179.167 Q168.118 186.273 169.924 189.838 Q171.752 193.38 175.364 193.38 Q178.998 193.38 180.803 189.838 Q182.632 186.273 182.632 179.167 Q182.632 172.037 180.803 168.496 Q178.998 164.931 175.364 164.931 M175.364 161.227 Q181.174 161.227 184.229 165.834 Q187.308 170.417 187.308 179.167 Q187.308 187.894 184.229 192.5 Q181.174 197.084 175.364 197.084 Q169.553 197.084 166.475 192.5 Q163.419 187.894 163.419 179.167 Q163.419 170.417 166.475 165.834 Q169.553 161.227 175.364 161.227 Z" fill="#000000" fill-rule="evenodd" fill-opacity="1" /><path clip-path="url(#clip840)" d="M 0 0 M47.6334 775.606 Q47.6334 777.635 47.8266 778.665 Q47.9876 779.696 48.2131 779.954 Q48.4385 780.211 49.0182 780.501 L79.1629 794.672 Q82.3835 796.185 84.7023 799.02 Q87.0211 801.821 87.0211 805.364 Q87.0211 808.327 85.2176 810.388 Q83.4463 812.417 80.9342 812.417 Q79.1307 812.417 78.1001 811.29 Q77.1017 810.163 77.1017 808.649 Q77.1017 806.974 78.1645 805.912 Q79.2273 804.817 80.8698 804.817 Q81.9326 804.817 82.7377 805.268 Q83.5751 805.718 83.8649 806.137 Q84.187 806.524 84.3802 806.942 Q84.6379 806.266 84.6379 805.364 Q84.6379 804.011 84.0904 802.852 Q83.5751 801.66 82.8666 800.888 Q82.1902 800.082 80.9664 799.277 Q79.7748 798.472 79.0019 798.086 Q78.2611 797.699 76.9729 797.119 L73.8167 795.606 L47.6334 807.941 L47.6334 812.16 L44.5416 812.16 L44.7348 804.623 L44.5416 796.443 L47.6334 796.443 L47.6334 800.018 L65.4432 791.644 L49.2114 784.044 L48.4385 783.722 Q48.0842 783.722 47.891 784.495 Q47.6656 785.268 47.6656 786.041 L47.6334 786.814 L44.5416 786.814 L44.7348 780.823 Q44.7348 777.989 44.5416 775.606 L47.6334 775.606 Z" fill="#000000" fill-rule="evenodd" fill-opacity="1" /><path clip-path="url(#clip840)" d="M 0 0 M653.447 73.6872 L643.844 73.6872 L643.844 97.8123 Q643.844 98.9834 643.785 99.569 Q643.727 100.096 643.317 100.623 Q642.965 101.15 642.146 101.15 Q641.267 101.15 637.051 99.042 Q632.835 96.8754 630.376 94.7674 Q624.169 102.497 608.066 102.497 Q596.706 102.497 587.513 99.2176 Q578.319 95.9385 572.288 90.2 Q566.257 84.4615 562.978 76.7907 Q559.757 69.0613 559.757 60.0436 Q559.757 50.7917 563.153 42.9452 Q566.55 35.0987 572.698 29.5359 Q578.846 23.9145 587.864 20.7525 Q596.94 17.5904 607.832 17.5904 Q621.241 17.5904 631.488 25.7297 L639.393 18.6444 Q640.623 17.5904 641.677 17.5904 Q643.2 17.5904 643.492 18.2931 Q643.844 18.9372 643.844 20.9281 L643.844 46.6928 Q643.844 49.0351 643.317 49.5621 Q642.848 50.0891 640.565 50.0891 Q638.515 50.0891 638.047 49.7377 Q637.637 49.3278 637.344 47.5712 Q635.412 36.3869 627.858 29.8287 Q620.304 23.2118 610.467 23.2118 Q602.093 23.2118 595.359 26.0811 Q588.684 28.9503 584.936 33.6348 Q581.423 38.2607 579.725 44.2335 Q578.085 50.2062 578.085 59.8679 Q578.085 68.5342 579.608 74.8583 Q581.13 81.1824 584.819 85.9254 Q589.035 91.3126 596.12 94.0647 Q603.264 96.8168 611.345 96.8168 Q617.786 96.8168 622.119 94.2989 Q623.759 93.3035 624.813 92.1909 Q625.867 91.0783 626.218 89.8487 Q626.628 88.5604 626.687 87.7992 Q626.804 87.038 626.804 85.8083 L626.804 73.6872 L609.53 73.6872 L609.53 68.0658 Q616.03 68.4171 634.123 68.4171 Q649.231 68.4171 653.447 68.0658 L653.447 73.6872 Z" fill="#808080" fill-rule="evenodd" fill-opacity="1" /><path clip-path="url(#clip840)" d="M 0 0 M715.627 56.9987 Q715.627 60.3949 713.402 62.3859 Q711.177 64.3182 708.308 64.3182 Q705.439 64.3182 703.213 62.3859 Q700.988 60.4535 700.988 56.9987 Q700.988 55.4762 701.515 54.1294 Q702.101 52.7241 702.686 52.08 L703.272 51.4944 Q699.817 51.4944 697.124 53.134 Q694.43 54.715 692.79 57.1744 Q691.151 59.6337 690.097 62.8543 Q689.043 66.0163 688.633 68.8856 Q688.282 71.7548 688.282 74.507 L688.282 95.5286 L698.705 95.5286 L698.705 101.15 Q694.372 100.799 682.192 100.799 L667.084 101.15 L667.084 95.5286 L675.341 95.5286 L675.341 58.4626 Q675.341 55.0663 674.111 54.4222 Q672.881 53.7781 667.084 53.7781 L667.084 48.1567 L686.993 47.1613 L686.993 60.7463 Q691.971 47.1613 702.921 47.1613 Q707.957 47.1613 711.763 49.8548 Q715.627 52.4899 715.627 56.9987 Z" fill="#808080" fill-rule="evenodd" fill-opacity="1" /><path clip-path="url(#clip840)" d="M 0 0 M721.703 89.7316 Q721.703 79.5428 733.707 74.1556 Q740.91 70.7008 755.783 69.8225 L755.783 65.4308 Q755.783 57.9941 751.86 54.0709 Q747.995 50.0891 743.076 50.0891 Q734.293 50.0891 730.077 55.5933 Q733.649 55.7105 734.937 57.5257 Q736.225 59.2824 736.225 61.0976 Q736.225 63.4984 734.703 65.0794 Q733.239 66.6019 730.721 66.6019 Q728.32 66.6019 726.739 65.138 Q725.158 63.6155 725.158 60.9805 Q725.158 55.1249 730.428 51.2602 Q735.757 47.3955 743.31 47.3955 Q753.148 47.3955 759.706 54.0123 Q761.756 56.0618 762.751 58.6968 Q763.805 61.3318 763.922 63.0885 Q764.039 64.7867 764.039 68.1829 L764.039 92.1324 Q764.039 92.835 764.274 94.0062 Q764.508 95.1773 765.562 96.6997 Q766.674 98.1636 768.49 98.1636 Q772.823 98.1636 772.764 90.4928 L772.764 83.7588 L775.809 83.7588 L775.809 90.4928 Q775.809 96.8754 772.413 99.3933 Q769.075 101.853 765.972 101.853 Q761.99 101.853 759.472 98.9249 Q756.954 95.9971 756.603 92.0152 Q754.787 96.5826 750.63 99.569 Q746.531 102.497 740.91 102.497 Q736.577 102.497 732.478 101.384 Q728.437 100.33 725.041 97.3439 Q721.703 94.2989 721.703 89.7316 M730.955 89.6144 Q730.955 94.0647 734.117 96.934 Q737.279 99.8032 741.729 99.8032 Q746.765 99.8032 751.274 95.9385 Q755.783 92.0152 755.783 84.3444 L755.783 72.3404 Q742.491 72.8088 736.694 78.1374 Q730.955 83.4075 730.955 89.6144 M735.581 40.0174 Q738.802 36.9139 743.486 32.288 Q749.225 26.5495 750.747 25.3784 Q752.27 24.1487 753.558 24.1487 Q755.373 24.1487 756.544 25.6126 Q757.774 27.018 757.774 28.599 Q757.774 29.3017 757.54 29.8872 Q757.305 30.4142 757.013 30.8241 Q756.72 31.234 756.134 31.6439 Q755.607 32.0538 755.314 32.2295 Q755.022 32.4051 754.378 32.815 Q753.733 33.1664 753.558 33.2835 Q737.865 42.184 737.396 42.3597 L735.581 40.0174 Z" fill="#808080" fill-rule="evenodd" fill-opacity="1" /><path clip-path="url(#clip840)" d="M 0 0 M828.45 27.6621 Q828.45 31.1169 826.166 33.1078 Q823.941 35.0987 821.014 35.0987 Q818.32 35.0987 815.978 33.1664 Q813.694 31.234 813.694 27.6621 Q813.694 23.7974 816.446 21.7479 Q815.626 21.5137 814.397 21.5137 Q813.226 21.5137 811.937 21.7479 Q810.708 21.9236 808.892 22.8019 Q807.077 23.6217 805.672 25.0856 Q804.325 26.491 803.33 29.3017 Q802.334 32.0538 802.334 35.8014 L802.334 47.9225 L816.797 47.9225 L816.797 53.5439 L803.037 53.5439 L803.037 95.5286 L813.46 95.5286 L813.46 101.15 Q809.127 100.799 796.888 100.799 L781.781 101.15 L781.781 95.5286 L790.096 95.5286 L790.096 53.5439 L781.078 53.5439 L781.078 47.9225 L790.096 47.9225 L790.096 35.8014 Q790.096 30.9412 792.262 27.2522 Q794.429 23.5046 798.06 21.3966 Q801.69 19.2886 805.906 18.2345 Q810.181 17.1805 814.807 17.1805 Q821.365 17.1805 824.878 20.3426 Q828.45 23.446 828.45 27.6621 Z" fill="#808080" fill-rule="evenodd" fill-opacity="1" /><path clip-path="url(#clip840)" d="M 0 0 M852.778 101.15 L838.724 100.799 L824.085 101.15 L824.085 95.5286 L832.4 95.5286 L832.4 58.4626 Q832.4 55.0663 831.171 54.4222 Q829.941 53.7781 824.437 53.7781 L824.437 48.1567 L845.341 47.1613 L845.341 95.5286 L852.778 95.5286 L852.778 101.15 M844.229 21.7479 Q846.981 24.5001 846.981 28.3648 Q846.981 32.2295 844.229 34.9816 Q841.535 37.7337 837.67 37.7337 Q833.806 37.7337 831.054 34.9816 Q828.301 32.2295 828.301 28.3648 Q828.301 24.5001 831.054 21.7479 Q833.806 18.9958 837.67 18.9958 Q841.535 18.9958 844.229 21.7479 Z" fill="#808080" fill-rule="evenodd" fill-opacity="1" /><path clip-path="url(#clip840)" d="M 0 0 M914.708 87.0965 Q914.708 87.565 914.181 88.9703 Q913.712 90.3171 912.131 92.6008 Q910.609 94.8845 908.208 96.934 Q905.866 98.9249 901.474 100.389 Q897.141 101.853 891.695 101.853 Q878.051 101.853 869.971 94.2404 Q861.949 86.6281 861.949 74.507 Q861.949 69.1198 863.705 64.3182 Q865.462 59.458 868.975 55.4762 Q872.547 51.4944 878.52 49.1522 Q884.551 46.8099 892.281 46.8099 Q913.127 46.8099 913.127 57.877 Q913.127 61.449 910.843 63.4399 Q908.618 65.4308 905.573 65.4308 Q902.762 65.4308 900.42 63.4984 Q898.136 61.5075 898.136 57.877 Q898.136 54.4808 900.537 52.3142 Q897.375 51.6115 892.749 51.6115 Q889.587 51.6115 887.011 52.5484 Q884.493 53.4853 882.912 54.8321 Q881.331 56.1204 880.159 58.3455 Q879.047 60.5121 878.461 62.2687 Q877.934 64.0254 877.642 66.6605 Q877.349 69.2369 877.29 70.5252 Q877.29 71.8134 877.29 73.9214 Q877.29 97.0511 893.979 97.0511 Q904.929 97.0511 908.969 87.2136 Q909.438 85.984 909.847 85.7497 Q910.257 85.457 911.838 85.457 Q912.717 85.457 913.127 85.5155 Q913.595 85.5155 914.122 85.9254 Q914.708 86.3353 914.708 87.0965 Z" fill="#808080" fill-rule="evenodd" fill-opacity="1" /><path clip-path="url(#clip840)" d="M 0 0 M985.723 98.2808 Q985.723 99.3348 985.488 99.9789 Q985.254 100.564 984.61 100.799 Q984.024 101.033 983.497 101.091 Q982.97 101.15 981.858 101.15 L976.119 101.15 Q972.547 101.15 970.03 100.506 Q967.57 99.8032 966.341 98.9834 Q965.111 98.1636 964.467 96.6997 Q963.823 95.2358 963.706 94.3575 Q963.647 93.4206 963.647 91.8981 Q961.422 96.1727 956.913 99.042 Q952.463 101.853 945.787 101.853 Q942.977 101.853 940.166 101.56 Q937.355 101.267 934.076 100.389 Q930.797 99.4519 928.338 98.0465 Q925.878 96.5826 924.239 94.0647 Q922.599 91.4882 922.599 88.2091 Q922.599 70.9936 961.598 69.354 L961.598 65.3137 Q961.598 51.1431 948.422 51.1431 Q943.621 51.1431 939.756 51.9629 Q940.107 52.1971 940.634 52.7827 Q941.161 53.3682 941.747 54.8321 Q942.391 56.296 942.391 57.877 Q942.391 61.449 940.107 63.4399 Q937.882 65.4308 934.837 65.4308 Q932.027 65.4308 929.684 63.4984 Q927.401 61.5075 927.401 57.877 Q927.401 46.8099 948.891 46.8099 Q961.832 46.8099 968.507 51.9043 Q975.241 56.9401 975.241 65.3137 L975.241 91.0783 Q975.241 92.3666 975.358 92.9521 Q975.475 93.5377 976.119 94.2404 Q976.764 94.9431 978.286 95.2358 Q979.867 95.4701 982.561 95.5286 Q983.615 95.5286 984.142 95.6457 Q984.669 95.7043 985.196 96.3484 Q985.723 96.9925 985.723 98.2808 M961.598 84.4615 L961.598 73.1016 Q959.548 73.2187 957.616 73.453 Q955.683 73.6872 952.521 74.2727 Q949.359 74.7997 946.783 75.9123 Q944.265 76.9663 941.806 78.5473 Q939.405 80.0698 937.999 82.5292 Q936.653 84.9885 936.653 88.092 Q936.653 92.0738 939.815 94.8259 Q942.977 97.5781 947.544 97.5781 Q948.715 97.5781 950.179 97.3439 Q951.643 97.1096 953.751 96.2898 Q955.859 95.4115 957.499 94.0647 Q959.197 92.7179 960.368 90.2586 Q961.598 87.7407 961.598 84.4615 Z" fill="#808080" fill-rule="evenodd" fill-opacity="1" /><path clip-path="url(#clip840)" d="M 0 0 M1034.14 84.3444 Q1034.14 87.9163 1033.02 90.8441 Q1031.97 93.7134 1030.39 95.5286 Q1028.87 97.2853 1026.53 98.5735 Q1024.18 99.8618 1022.25 100.506 Q1020.38 101.091 1017.92 101.443 Q1015.46 101.794 1014.35 101.794 Q1013.29 101.853 1011.94 101.853 Q1003.22 101.853 997.774 98.0465 L994.671 100.096 Q992.914 101.326 992.328 101.56 Q991.801 101.853 991.099 101.853 Q989.576 101.853 989.225 101.15 Q988.932 100.506 988.932 98.515 L988.932 85.457 Q988.932 83.2318 989.342 82.5877 Q989.752 81.9436 991.801 81.9436 Q992.797 81.9436 993.207 82.0022 Q993.617 82.0607 993.968 82.4706 Q994.378 82.8219 994.671 83.6417 Q995.256 85.6326 995.783 87.1551 Q996.369 88.619 997.716 90.727 Q999.062 92.835 1000.76 94.2404 Q1002.52 95.5872 1005.39 96.5826 Q1008.31 97.5781 1011.94 97.5781 Q1013.06 97.5781 1013.88 97.5195 Q1014.76 97.461 1016.57 97.2853 Q1018.44 97.0511 1019.79 96.4655 Q1021.2 95.8214 1022.6 94.9431 Q1024.07 94.0062 1024.83 92.3666 Q1025.65 90.727 1025.65 88.5604 Q1025.65 86.5695 1024.59 84.9885 Q1023.6 83.3489 1022.25 82.412 Q1020.9 81.4751 1018.8 80.7725 Q1016.69 80.0112 1015.4 79.777 Q1014.11 79.4842 1012.3 79.1915 Q1002.93 77.4933 1000.17 76.4393 Q996.603 75.1511 993.734 72.6332 Q988.932 68.5342 988.932 62.5615 Q988.932 59.3409 989.986 56.7645 Q991.099 54.188 992.621 52.607 Q994.202 50.9674 996.544 49.7963 Q998.887 48.6252 1000.76 48.0982 Q1002.69 47.5126 1005.09 47.2198 Q1007.55 46.8685 1008.61 46.8685 Q1009.72 46.8099 1011.01 46.8099 Q1018.62 46.8099 1023.13 49.0936 Q1027.81 46.8099 1028.52 46.8099 Q1029.57 46.8099 1030.04 47.2784 Q1030.51 47.6883 1030.57 48.2738 Q1030.68 48.8008 1030.68 50.2062 L1030.68 59.7508 Q1030.68 61.976 1030.21 62.5615 Q1029.8 63.1471 1027.75 63.1471 Q1026 63.1471 1025.53 62.6786 Q1025.12 62.2102 1025 60.7463 Q1024.12 50.6746 1010.89 50.6746 Q1010.07 50.6746 1009.37 50.7332 Q1008.72 50.7332 1007.2 50.9089 Q1005.74 51.026 1004.57 51.2602 Q1003.45 51.4944 1001.99 52.08 Q1000.58 52.607 999.648 53.3682 Q998.711 54.1294 998.067 55.3591 Q997.423 56.5888 997.423 58.1113 Q997.423 59.2824 997.891 60.2778 Q998.418 61.2733 999.004 61.976 Q999.648 62.6786 1000.88 63.3228 Q1002.11 63.9083 1002.93 64.2596 Q1003.81 64.611 1005.33 65.0209 Q1006.85 65.3722 1007.49 65.4893 Q1008.2 65.6064 1009.66 65.8992 Q1017.51 67.246 1020.85 68.2415 Q1024.24 69.2369 1027.52 71.6377 Q1034.14 76.8492 1034.14 84.3444 Z" fill="#808080" fill-rule="evenodd" fill-opacity="1" /><path clip-path="url(#clip840)" d="M 0 0 M1149.8 101.15 L1127.84 101.853 L1127.84 95.9971 Q1120.58 101.853 1111.04 101.853 Q1097.92 101.853 1090.07 94.2989 Q1082.29 86.6866 1082.29 74.6241 Q1082.29 62.0931 1090.66 54.6564 Q1099.09 47.1613 1112.38 47.1613 Q1121.58 47.1613 1128.54 52.607 L1128.54 29.1845 Q1128.54 25.7883 1127.32 25.1442 Q1126.09 24.5001 1120.29 24.5001 L1120.29 18.8787 L1141.54 17.9418 L1141.54 90.8441 Q1141.54 94.2404 1142.77 94.8845 Q1144 95.5286 1149.8 95.5286 L1149.8 101.15 M1127.84 88.7947 L1127.84 58.8139 Q1125.5 55.769 1121.87 53.661 Q1118.24 51.4944 1113.55 51.4944 Q1110.1 51.4944 1106.59 52.9583 Q1103.07 54.3637 1100.73 57.7599 Q1099.27 59.9265 1098.51 63.1471 Q1097.8 66.3677 1097.69 68.5342 Q1097.63 70.7008 1097.63 74.6241 Q1097.63 76.5564 1097.63 77.669 Q1097.69 78.723 1097.8 80.8896 Q1097.92 82.9976 1098.15 84.3444 Q1098.39 85.6912 1098.92 87.6235 Q1099.44 89.5559 1100.15 90.7856 Q1100.85 92.0152 1101.96 93.4791 Q1103.07 94.8845 1104.48 95.7043 Q1105.94 96.4655 1107.87 97.0511 Q1109.87 97.5781 1112.27 97.5781 Q1121.46 97.5781 1127.84 88.7947 Z" fill="#808080" fill-rule="evenodd" fill-opacity="1" /><path clip-path="url(#clip840)" d="M 0 0 M1213.52 87.0965 Q1213.52 87.8578 1212.88 89.4388 Q1212.23 90.9612 1210.42 93.1864 Q1208.66 95.3529 1206.09 97.2853 Q1203.57 99.1591 1199.12 100.506 Q1194.73 101.853 1189.4 101.853 Q1175.11 101.853 1166.62 94.1233 Q1158.13 86.3939 1158.13 74.1556 Q1158.13 68.4757 1160.06 63.557 Q1162.05 58.6383 1165.68 54.8907 Q1169.31 51.1431 1174.99 48.9765 Q1180.67 46.8099 1187.7 46.8099 Q1200.11 46.8099 1206.79 53.3097 Q1209.54 56.0618 1211.12 60.0436 Q1212.76 63.9669 1213.11 66.6019 Q1213.52 69.2369 1213.52 71.7548 Q1213.52 73.98 1212.7 74.507 Q1211.94 75.034 1209.66 75.034 L1173.47 75.034 Q1173.47 76.9663 1173.47 78.2546 Q1173.53 79.4842 1173.88 82.0022 Q1174.23 84.5201 1174.82 86.3353 Q1175.4 88.092 1176.63 90.2586 Q1177.92 92.4251 1179.68 93.8305 Q1181.43 95.1773 1184.19 96.1142 Q1186.94 97.0511 1190.45 97.0511 Q1196.31 97.0511 1200.99 94.416 Q1205.73 91.781 1207.61 87.5064 Q1208.19 85.9254 1208.66 85.457 Q1209.19 84.9885 1210.65 84.9885 Q1213.52 84.9885 1213.52 87.0965 M1202.1 71.0522 Q1201.58 51.1431 1187.7 51.1431 Q1184.65 51.1431 1181.55 52.607 Q1178.45 54.0709 1176.34 57.35 Q1175.17 59.2238 1174.52 61.9174 Q1173.88 64.5524 1173.76 66.0749 Q1173.65 67.5388 1173.47 71.0522 L1202.1 71.0522 Z" fill="#808080" fill-rule="evenodd" fill-opacity="1" /><path clip-path="url(#clip840)" d="M 0 0 M1304.33 58.4626 Q1304.33 61.7417 1302.69 63.4984 Q1301.05 65.1965 1298.83 65.1965 Q1297.01 65.1965 1296.01 64.1425 Q1295.08 63.0885 1295.08 61.6832 Q1295.08 59.6337 1296.72 57.9941 Q1298.42 56.3546 1300.87 56.296 Q1300.06 54.1294 1297.89 52.8412 Q1295.72 51.4944 1293.79 51.1431 Q1291.92 50.7917 1290.04 50.7917 Q1286.35 50.7917 1283.54 51.9629 Q1280.73 53.134 1279.33 54.9492 Q1277.92 56.7059 1277.28 58.404 Q1276.63 60.1022 1276.63 61.5661 Q1276.63 62.8543 1276.93 63.9083 Q1277.28 64.9038 1278.1 65.665 Q1278.92 66.3677 1279.5 66.8361 Q1280.15 67.3046 1281.55 67.7145 Q1282.96 68.1244 1283.54 68.3 Q1284.13 68.4171 1285.77 68.7685 Q1289.16 69.4711 1290.69 69.881 Q1292.21 70.2324 1294.2 71.2278 Q1296.25 72.2233 1297.77 73.8043 Q1301.46 77.4933 1301.46 82.5877 Q1301.46 84.4615 1300.82 86.7452 Q1300.23 89.0289 1298.53 91.8981 Q1296.83 94.7674 1294.26 97.0511 Q1291.68 99.3348 1287.23 100.916 Q1282.84 102.497 1277.34 102.497 Q1269.66 102.497 1264.92 99.2762 Q1260.18 95.9971 1260.18 90.8441 Q1260.18 87.0965 1262.23 85.0471 Q1264.28 82.939 1266.91 82.939 Q1268.9 82.939 1270.13 84.0516 Q1271.36 85.1056 1271.36 87.0965 Q1271.36 89.7901 1269.2 91.8396 Q1267.03 93.889 1263.81 93.4791 Q1266.56 99.8032 1277.45 99.8032 Q1281.55 99.8032 1284.71 98.7492 Q1287.93 97.6366 1289.69 96.1142 Q1291.51 94.5332 1292.68 92.6008 Q1293.85 90.6685 1294.2 89.2046 Q1294.61 87.7407 1294.61 86.6281 Q1294.61 84.6957 1293.85 83.2318 Q1293.09 81.7679 1292.03 80.9481 Q1291.04 80.0698 1289.11 79.3671 Q1287.23 78.6059 1285.88 78.3131 Q1284.54 78.0203 1282.14 77.5519 Q1281.02 77.3177 1280.32 77.2006 Q1279.62 77.0249 1278.16 76.5564 Q1276.75 76.0294 1275.75 75.5024 Q1274.82 74.9754 1273.59 74.0385 Q1272.36 73.1016 1271.6 71.9891 Q1270.84 70.8765 1270.31 69.2369 Q1269.78 67.5973 1269.78 65.665 Q1269.78 63.9083 1270.31 61.8003 Q1270.89 59.6923 1272.36 57.2329 Q1273.88 54.7736 1276.05 52.7827 Q1278.21 50.7917 1281.84 49.5035 Q1285.53 48.1567 1290.04 48.1567 Q1296.6 48.1567 1300.47 51.2016 Q1304.33 54.188 1304.33 58.4626 Z" fill="#808080" fill-rule="evenodd" fill-opacity="1" /><path clip-path="url(#clip840)" d="M 0 0 M1346.47 26.1982 Q1346.47 28.7746 1344.36 30.707 Q1342.31 32.5808 1340.08 32.5808 Q1338.04 32.5808 1336.75 31.3511 Q1335.52 30.0629 1335.52 28.2476 Q1335.52 25.8468 1337.57 23.8559 Q1339.62 21.865 1342.02 21.865 Q1344.01 21.865 1345.24 23.0947 Q1346.47 24.3244 1346.47 26.1982 M1347.52 83.9931 Q1347.52 84.4615 1346.99 86.3353 Q1346.47 88.1505 1345.18 90.9612 Q1343.95 93.7134 1342.25 96.2898 Q1340.55 98.8663 1337.74 100.682 Q1334.99 102.497 1331.83 102.497 Q1327.55 102.497 1324.74 99.6861 Q1321.99 96.8754 1321.99 92.6594 Q1321.99 90.3757 1324.74 83.0562 Q1332.71 61.7417 1333 60.8634 Q1334.35 57.5257 1334.35 54.5979 Q1334.35 53.2511 1334.05 52.4313 Q1333.76 51.553 1333.18 51.2602 Q1332.59 50.9089 1332.24 50.8503 Q1331.95 50.7917 1331.36 50.7917 Q1327.91 50.7917 1324.68 54.3051 Q1321.46 57.8185 1319.24 65.665 Q1318.77 67.1289 1318.48 67.4802 Q1318.18 67.8316 1317.31 67.8316 Q1315.84 67.773 1315.84 66.6019 Q1315.84 66.2506 1316.25 64.9038 Q1316.66 63.4984 1317.42 61.3904 Q1318.18 59.2238 1319.53 56.9987 Q1320.88 54.715 1322.52 52.7241 Q1324.22 50.7332 1326.62 49.445 Q1329.02 48.1567 1331.71 48.1567 Q1336.1 48.1567 1338.8 51.026 Q1341.55 53.8367 1341.55 57.9941 Q1341.55 60.2778 1339.97 64.3182 Q1338.04 69.5883 1337.33 71.2864 L1332.65 83.8759 Q1330.95 88.4433 1330.42 89.8487 Q1329.95 91.1955 1329.54 92.835 Q1329.19 94.416 1329.19 95.8799 Q1329.19 97.9294 1329.84 98.8663 Q1330.54 99.8032 1332.06 99.8032 Q1336.28 99.8032 1339.38 95.6457 Q1342.49 91.4297 1344.3 84.9885 Q1344.36 84.8128 1344.42 84.5201 Q1344.89 83.0562 1345.35 82.8805 Q1345.59 82.8219 1346.06 82.8219 Q1347.52 82.8219 1347.52 83.9931 Z" fill="#808080" fill-rule="evenodd" fill-opacity="1" /><path clip-path="url(#clip840)" d="M 0 0 M1421.78 83.9931 Q1421.78 84.4615 1421.25 86.2767 Q1420.72 88.092 1419.43 90.9027 Q1418.2 93.7134 1416.51 96.2898 Q1414.81 98.8078 1412 100.682 Q1409.25 102.497 1406.08 102.497 Q1401.87 102.497 1399.06 99.6861 Q1396.25 96.8754 1396.25 92.6594 Q1396.25 90.3171 1397.48 87.0965 Q1405.26 66.3091 1405.26 59.1653 Q1405.26 50.7917 1398.76 50.7917 Q1395.54 50.7917 1392.5 52.0214 Q1389.51 53.1925 1387.46 54.8321 Q1385.41 56.4717 1383.54 58.7554 Q1381.72 60.9805 1380.79 62.503 Q1379.91 63.9669 1379.21 65.4308 L1377.68 71.4035 Q1377.33 73.0431 1375.63 79.4257 L1373 90.2586 Q1371.13 98.3393 1370.72 99.1005 Q1370.13 100.74 1368.84 101.618 Q1367.55 102.497 1366.26 102.497 Q1364.8 102.497 1363.81 101.618 Q1362.81 100.74 1362.81 99.2176 Q1362.81 98.9834 1362.99 98.1051 Q1363.16 97.2267 1363.45 95.9971 Q1363.75 94.7674 1363.86 94.0647 L1370.83 66.3677 Q1372.12 61.3318 1372.41 59.7508 Q1372.76 58.1113 1372.76 56.296 Q1372.76 50.7917 1369.02 50.7917 Q1365.97 50.7917 1363.98 54.4222 Q1361.99 58.0527 1360.29 65.0794 Q1359.77 67.0118 1359.41 67.4217 Q1359.12 67.8316 1358.24 67.8316 Q1356.78 67.773 1356.78 66.6019 Q1356.78 66.3091 1357.25 64.3768 Q1357.72 62.4444 1358.59 59.6923 Q1359.53 56.8816 1360.41 55.0078 Q1361.17 53.6024 1361.58 52.9583 Q1362.05 52.2556 1363.16 50.9089 Q1364.33 49.5035 1365.86 48.8594 Q1367.44 48.1567 1369.37 48.1567 Q1373.7 48.1567 1376.86 50.9674 Q1380.03 53.7195 1380.44 58.5797 Q1388.22 48.1567 1399.11 48.1567 Q1405.56 48.1567 1409.25 51.553 Q1412.93 54.9492 1412.93 60.9805 Q1412.93 62.3859 1412.64 64.2011 Q1412.41 65.9578 1411.82 68.1829 Q1411.29 70.408 1410.83 72.1062 Q1410.36 73.8043 1409.42 76.5564 Q1408.48 79.25 1408.07 80.4211 Q1407.66 81.5923 1406.67 84.3444 Q1405.73 87.038 1405.61 87.3308 Q1403.45 92.7765 1403.45 95.8799 Q1403.45 97.9294 1404.09 98.8663 Q1404.79 99.8032 1406.32 99.8032 Q1410.42 99.8032 1413.46 95.7628 Q1416.56 91.6639 1418.56 84.9885 Q1419.02 83.5246 1419.26 83.1733 Q1419.55 82.8219 1420.37 82.8219 Q1421.78 82.8219 1421.78 83.9931 Z" fill="#808080" fill-rule="evenodd" fill-opacity="1" /><path clip-path="url(#clip840)" d="M 0 0 M1427.98 71.1693 Q1427.98 50.9089 1435.54 34.5717 Q1438.76 27.7206 1443.27 21.9821 Q1447.77 16.2436 1450.76 13.7257 Q1453.75 11.2078 1454.57 11.2078 Q1455.74 11.2078 1455.8 12.3789 Q1455.8 12.9645 1454.22 14.4284 Q1434.89 34.1033 1434.95 71.1693 Q1434.95 108.352 1453.75 127.266 Q1455.8 129.315 1455.8 129.96 Q1455.8 131.131 1454.57 131.131 Q1453.75 131.131 1450.88 128.73 Q1448.01 126.329 1443.56 120.825 Q1439.11 115.321 1435.89 108.587 Q1427.98 92.2495 1427.98 71.1693 Z" fill="#808080" fill-rule="evenodd" fill-opacity="1" /><path clip-path="url(#clip840)" d="M 0 0 M1533.75 56.0618 Q1533.75 59.3409 1531.7 61.2147 Q1529.65 63.03 1527.31 63.03 Q1525.08 63.03 1523.91 61.7417 Q1522.74 60.4535 1522.74 58.8139 Q1522.74 56.5888 1524.38 54.6564 Q1526.02 52.7241 1528.48 52.3142 Q1526.08 50.7917 1522.51 50.7917 Q1520.16 50.7917 1518.11 52.0214 Q1516.12 53.2511 1514.89 54.8321 Q1513.72 56.4131 1512.67 58.6968 Q1511.67 60.922 1511.26 62.2687 Q1510.91 63.557 1510.62 64.9623 L1506.52 81.358 Q1504.53 89.146 1504.53 91.8981 Q1504.53 95.2944 1506.17 97.5781 Q1507.81 99.8032 1511.09 99.8032 Q1512.38 99.8032 1513.84 99.4519 Q1515.3 99.042 1517.18 97.988 Q1519.11 96.8754 1520.81 95.2358 Q1522.56 93.5377 1524.26 90.6685 Q1525.96 87.7992 1527.07 84.1102 Q1527.42 82.8219 1528.6 82.8219 Q1530.06 82.8219 1530.06 83.9931 Q1530.06 84.9885 1529.24 87.0965 Q1528.48 89.146 1526.78 91.8396 Q1525.14 94.4746 1522.97 96.8754 Q1520.81 99.2176 1517.59 100.857 Q1514.37 102.497 1510.85 102.497 Q1505.82 102.497 1502.48 99.8032 Q1499.14 97.1096 1497.91 93.362 Q1497.62 93.889 1497.21 94.5917 Q1496.8 95.2944 1495.57 96.8754 Q1494.4 98.3979 1493.05 99.569 Q1491.71 100.682 1489.6 101.56 Q1487.55 102.497 1485.32 102.497 Q1482.51 102.497 1479.99 101.677 Q1477.53 100.857 1475.78 98.9834 Q1474.02 97.1096 1474.02 94.5332 Q1474.02 91.6639 1475.95 89.673 Q1477.94 87.6235 1480.64 87.6235 Q1482.34 87.6235 1483.68 88.619 Q1485.09 89.6144 1485.09 91.781 Q1485.09 94.1818 1483.45 95.9971 Q1481.81 97.8123 1479.47 98.2808 Q1481.87 99.8032 1485.44 99.8032 Q1489.3 99.8032 1492.35 96.407 Q1495.39 93.0107 1496.86 87.3308 Q1500.49 73.6872 1501.89 67.5973 Q1503.3 61.449 1503.3 58.8139 Q1503.3 56.3546 1502.66 54.6564 Q1502.01 52.9583 1500.9 52.1971 Q1499.84 51.3773 1498.85 51.0845 Q1497.91 50.7917 1496.86 50.7917 Q1495.1 50.7917 1493.11 51.4944 Q1491.18 52.1971 1488.84 53.8367 Q1486.55 55.4177 1484.39 58.6968 Q1482.22 61.976 1480.76 66.4848 Q1480.46 67.8316 1479.17 67.8316 Q1477.77 67.773 1477.77 66.6019 Q1477.77 65.6064 1478.53 63.557 Q1479.35 61.449 1480.99 58.8139 Q1482.69 56.1789 1484.85 53.8367 Q1487.08 51.4359 1490.3 49.7963 Q1493.58 48.1567 1497.09 48.1567 Q1498.67 48.1567 1500.2 48.5081 Q1501.78 48.8008 1503.65 49.6792 Q1505.58 50.5575 1507.28 52.4899 Q1508.98 54.4222 1510.03 57.2329 Q1510.74 55.8861 1511.67 54.5979 Q1512.67 53.3097 1514.19 51.7286 Q1515.77 50.0891 1517.94 49.1522 Q1520.16 48.1567 1522.62 48.1567 Q1525.02 48.1567 1527.37 48.8008 Q1529.71 49.3864 1531.7 51.3187 Q1533.75 53.1925 1533.75 56.0618 Z" fill="#808080" fill-rule="evenodd" fill-opacity="1" /><path clip-path="url(#clip840)" d="M 0 0 M1541.92 129.96 Q1541.92 129.374 1543.44 127.91 Q1562.77 108.235 1562.77 71.1693 Q1562.77 33.9861 1544.2 15.1896 Q1541.92 13.0231 1541.92 12.3789 Q1541.92 11.2078 1543.09 11.2078 Q1543.91 11.2078 1546.78 13.6086 Q1549.71 16.0094 1554.1 21.5137 Q1558.55 27.018 1561.83 33.7519 Q1569.73 50.0891 1569.73 71.1693 Q1569.73 91.4297 1562.18 107.767 Q1558.96 114.618 1554.45 120.356 Q1549.94 126.095 1546.96 128.613 Q1543.97 131.131 1543.09 131.131 Q1541.92 131.131 1541.92 129.96 Z" fill="#808080" fill-rule="evenodd" fill-opacity="1" /><path clip-path="url(#clip840)" d="M 0 0 M1670.73 53.5439 Q1667.04 53.5439 1665.17 53.8952 Q1663.29 54.188 1662.83 54.5979 Q1662.36 55.0078 1661.83 56.0618 L1636.06 110.87 Q1633.31 116.726 1628.16 120.942 Q1623.07 125.158 1616.62 125.158 Q1611.24 125.158 1607.49 121.879 Q1603.8 118.658 1603.8 114.091 Q1603.8 110.812 1605.85 108.938 Q1607.9 107.123 1610.65 107.123 Q1613.7 107.123 1615.63 109.055 Q1617.62 110.987 1617.62 113.974 Q1617.62 115.906 1616.8 117.37 Q1615.98 118.893 1615.22 119.42 Q1614.52 120.005 1613.76 120.356 Q1614.98 120.825 1616.62 120.825 Q1619.08 120.825 1621.19 119.829 Q1623.36 118.893 1624.76 117.604 Q1626.23 116.375 1627.69 114.149 Q1629.16 111.983 1629.86 110.578 Q1630.56 109.231 1631.61 106.888 L1634.37 101.15 L1611.94 53.5439 L1604.27 53.5439 L1604.27 47.9225 L1617.97 48.2738 L1632.84 47.9225 L1632.84 53.5439 L1626.34 53.5439 L1641.57 85.9254 L1655.39 56.4131 L1655.97 55.0078 Q1655.97 54.3637 1654.57 54.0123 Q1653.16 53.6024 1651.76 53.6024 L1650.35 53.5439 L1650.35 47.9225 L1661.24 48.2738 Q1666.4 48.2738 1670.73 47.9225 L1670.73 53.5439 Z" fill="#808080" fill-rule="evenodd" fill-opacity="1" /><path clip-path="url(#clip840)" d="M 0 0 M1737.92 87.2722 Q1738.38 87.7992 1738.38 88.3262 Q1738.38 88.8532 1737.21 90.3757 Q1736.1 91.8981 1733.7 93.9476 Q1731.3 95.9971 1728.2 97.9294 Q1725.09 99.8618 1720.53 101.15 Q1715.96 102.497 1711.16 102.497 Q1702.2 102.497 1696.93 96.5826 Q1691.72 90.6685 1691.72 82.1778 Q1691.72 73.9214 1696.34 66.0163 Q1700.97 58.0527 1708.46 53.134 Q1715.96 48.1567 1723.86 48.1567 Q1730.13 48.1567 1734.05 51.0845 Q1737.98 54.0123 1737.98 58.4626 Q1737.98 61.9174 1735.98 64.0254 Q1733.99 66.1334 1731.3 66.1334 Q1729.43 66.1334 1728.14 65.0794 Q1726.85 63.9669 1726.85 61.9174 Q1726.85 59.2824 1729.02 57.2329 Q1729.84 56.4131 1730.77 56.0618 Q1731.77 55.6519 1732.35 55.6519 Q1732.94 55.5933 1734.29 55.5933 Q1733.06 53.3097 1730.13 52.08 Q1727.26 50.7917 1723.98 50.7917 Q1719.12 50.7917 1714.49 54.188 Q1709.87 57.5257 1707.06 62.7957 Q1704.25 67.9487 1702.43 75.2682 Q1700.62 82.5292 1700.62 86.7452 Q1700.62 92.5423 1703.31 96.1727 Q1706 99.8032 1711.39 99.8032 Q1712.44 99.8032 1713.56 99.7447 Q1714.73 99.6861 1717.66 99.042 Q1720.64 98.3979 1723.28 97.2853 Q1725.91 96.1727 1729.25 93.7719 Q1732.65 91.3126 1735.34 87.9749 Q1736.28 86.7452 1736.92 86.7452 Q1737.45 86.7452 1737.92 87.2722 Z" fill="#808080" fill-rule="evenodd" fill-opacity="1" /><path clip-path="url(#clip840)" d="M 0 0 M1794.44 68.4171 Q1794.44 74.7997 1791.63 81.1238 Q1788.82 87.3893 1784.31 92.0738 Q1779.86 96.6997 1774.01 99.6275 Q1768.15 102.497 1762.3 102.497 Q1753.92 102.497 1748.48 96.8168 Q1743.09 91.0783 1743.09 82.1778 Q1743.09 73.8629 1747.71 65.9578 Q1752.4 57.9941 1759.89 53.0754 Q1767.39 48.1567 1775.24 48.1567 Q1783.49 48.1567 1788.94 53.7195 Q1794.44 59.2824 1794.44 68.4171 M1785.66 63.7326 Q1785.66 58.0527 1782.91 54.4222 Q1780.16 50.7917 1775.12 50.7917 Q1773.66 50.7917 1771.96 51.2602 Q1770.26 51.6701 1768.03 52.7827 Q1765.87 53.8952 1763.41 56.2375 Q1761.01 58.5212 1758.9 61.8003 Q1756.15 66.1334 1754.04 74.0971 Q1751.99 82.0022 1751.99 86.7452 Q1751.99 93.3035 1755.03 96.5826 Q1758.08 99.8032 1762.41 99.8032 Q1766.63 99.8032 1771.08 96.8754 Q1775.59 93.889 1778.69 88.7947 Q1781.79 83.5246 1783.73 75.7952 Q1785.66 68.0072 1785.66 63.7326 Z" fill="#808080" fill-rule="evenodd" fill-opacity="1" /><path clip-path="url(#clip840)" d="M 0 0 M1844.82 58.4626 Q1844.82 61.7417 1843.18 63.4984 Q1841.54 65.1965 1839.31 65.1965 Q1837.5 65.1965 1836.5 64.1425 Q1835.57 63.0885 1835.57 61.6832 Q1835.57 59.6337 1837.21 57.9941 Q1838.9 56.3546 1841.36 56.296 Q1840.54 54.1294 1838.38 52.8412 Q1836.21 51.4944 1834.28 51.1431 Q1832.4 50.7917 1830.53 50.7917 Q1826.84 50.7917 1824.03 51.9629 Q1821.22 53.134 1819.81 54.9492 Q1818.41 56.7059 1817.76 58.404 Q1817.12 60.1022 1817.12 61.5661 Q1817.12 62.8543 1817.41 63.9083 Q1817.76 64.9038 1818.58 65.665 Q1819.4 66.3677 1819.99 66.8361 Q1820.63 67.3046 1822.04 67.7145 Q1823.44 68.1244 1824.03 68.3 Q1824.62 68.4171 1826.26 68.7685 Q1829.65 69.4711 1831.17 69.881 Q1832.7 70.2324 1834.69 71.2278 Q1836.74 72.2233 1838.26 73.8043 Q1841.95 77.4933 1841.95 82.5877 Q1841.95 84.4615 1841.3 86.7452 Q1840.72 89.0289 1839.02 91.8981 Q1837.32 94.7674 1834.75 97.0511 Q1832.17 99.3348 1827.72 100.916 Q1823.33 102.497 1817.82 102.497 Q1810.15 102.497 1805.41 99.2762 Q1800.67 95.9971 1800.67 90.8441 Q1800.67 87.0965 1802.72 85.0471 Q1804.77 82.939 1807.4 82.939 Q1809.39 82.939 1810.62 84.0516 Q1811.85 85.1056 1811.85 87.0965 Q1811.85 89.7901 1809.68 91.8396 Q1807.52 93.889 1804.3 93.4791 Q1807.05 99.8032 1817.94 99.8032 Q1822.04 99.8032 1825.2 98.7492 Q1828.42 97.6366 1830.18 96.1142 Q1831.99 94.5332 1833.17 92.6008 Q1834.34 90.6685 1834.69 89.2046 Q1835.1 87.7407 1835.1 86.6281 Q1835.1 84.6957 1834.34 83.2318 Q1833.58 81.7679 1832.52 80.9481 Q1831.53 80.0698 1829.59 79.3671 Q1827.72 78.6059 1826.37 78.3131 Q1825.03 78.0203 1822.63 77.5519 Q1821.51 77.3177 1820.81 77.2006 Q1820.11 77.0249 1818.64 76.5564 Q1817.24 76.0294 1816.24 75.5024 Q1815.31 74.9754 1814.08 74.0385 Q1812.85 73.1016 1812.08 71.9891 Q1811.32 70.8765 1810.8 69.2369 Q1810.27 67.5973 1810.27 65.665 Q1810.27 63.9083 1810.8 61.8003 Q1811.38 59.6923 1812.85 57.2329 Q1814.37 54.7736 1816.54 52.7827 Q1818.7 50.7917 1822.33 49.5035 Q1826.02 48.1567 1830.53 48.1567 Q1837.09 48.1567 1840.95 51.2016 Q1844.82 54.188 1844.82 58.4626 Z" fill="#808080" fill-rule="evenodd" fill-opacity="1" /><path clip-path="url(#clip840)" d="M 0 0 M1856.33 71.1693 Q1856.33 50.9089 1863.88 34.5717 Q1867.1 27.7206 1871.61 21.9821 Q1876.12 16.2436 1879.11 13.7257 Q1882.1 11.2078 1882.92 11.2078 Q1884.09 11.2078 1884.14 12.3789 Q1884.14 12.9645 1882.56 14.4284 Q1863.24 34.1033 1863.3 71.1693 Q1863.3 108.352 1882.1 127.266 Q1884.14 129.315 1884.14 129.96 Q1884.14 131.131 1882.92 131.131 Q1882.1 131.131 1879.23 128.73 Q1876.36 126.329 1871.91 120.825 Q1867.46 115.321 1864.24 108.587 Q1856.33 92.2495 1856.33 71.1693 Z" fill="#808080" fill-rule="evenodd" fill-opacity="1" /><path clip-path="url(#clip840)" d="M 0 0 M1962.1 56.0618 Q1962.1 59.3409 1960.05 61.2147 Q1958 63.03 1955.66 63.03 Q1953.43 63.03 1952.26 61.7417 Q1951.09 60.4535 1951.09 58.8139 Q1951.09 56.5888 1952.73 54.6564 Q1954.37 52.7241 1956.83 52.3142 Q1954.43 50.7917 1950.85 50.7917 Q1948.51 50.7917 1946.46 52.0214 Q1944.47 53.2511 1943.24 54.8321 Q1942.07 56.4131 1941.02 58.6968 Q1940.02 60.922 1939.61 62.2687 Q1939.26 63.557 1938.97 64.9623 L1934.87 81.358 Q1932.88 89.146 1932.88 91.8981 Q1932.88 95.2944 1934.52 97.5781 Q1936.16 99.8032 1939.44 99.8032 Q1940.72 99.8032 1942.19 99.4519 Q1943.65 99.042 1945.53 97.988 Q1947.46 96.8754 1949.16 95.2358 Q1950.91 93.5377 1952.61 90.6685 Q1954.31 87.7992 1955.42 84.1102 Q1955.77 82.8219 1956.94 82.8219 Q1958.41 82.8219 1958.41 83.9931 Q1958.41 84.9885 1957.59 87.0965 Q1956.83 89.146 1955.13 91.8396 Q1953.49 94.4746 1951.32 96.8754 Q1949.16 99.2176 1945.94 100.857 Q1942.71 102.497 1939.2 102.497 Q1934.17 102.497 1930.83 99.8032 Q1927.49 97.1096 1926.26 93.362 Q1925.97 93.889 1925.56 94.5917 Q1925.15 95.2944 1923.92 96.8754 Q1922.75 98.3979 1921.4 99.569 Q1920.05 100.682 1917.95 101.56 Q1915.9 102.497 1913.67 102.497 Q1910.86 102.497 1908.34 101.677 Q1905.88 100.857 1904.13 98.9834 Q1902.37 97.1096 1902.37 94.5332 Q1902.37 91.6639 1904.3 89.673 Q1906.29 87.6235 1908.99 87.6235 Q1910.68 87.6235 1912.03 88.619 Q1913.44 89.6144 1913.44 91.781 Q1913.44 94.1818 1911.8 95.9971 Q1910.16 97.8123 1907.82 98.2808 Q1910.22 99.8032 1913.79 99.8032 Q1917.65 99.8032 1920.7 96.407 Q1923.74 93.0107 1925.21 87.3308 Q1928.84 73.6872 1930.24 67.5973 Q1931.65 61.449 1931.65 58.8139 Q1931.65 56.3546 1931 54.6564 Q1930.36 52.9583 1929.25 52.1971 Q1928.19 51.3773 1927.2 51.0845 Q1926.26 50.7917 1925.21 50.7917 Q1923.45 50.7917 1921.46 51.4944 Q1919.53 52.1971 1917.18 53.8367 Q1914.9 55.4177 1912.73 58.6968 Q1910.57 61.976 1909.1 66.4848 Q1908.81 67.8316 1907.52 67.8316 Q1906.12 67.773 1906.12 66.6019 Q1906.12 65.6064 1906.88 63.557 Q1907.7 61.449 1909.34 58.8139 Q1911.04 56.1789 1913.2 53.8367 Q1915.43 51.4359 1918.65 49.7963 Q1921.93 48.1567 1925.44 48.1567 Q1927.02 48.1567 1928.54 48.5081 Q1930.12 48.8008 1932 49.6792 Q1933.93 50.5575 1935.63 52.4899 Q1937.33 54.4222 1938.38 57.2329 Q1939.08 55.8861 1940.02 54.5979 Q1941.02 53.3097 1942.54 51.7286 Q1944.12 50.0891 1946.29 49.1522 Q1948.51 48.1567 1950.97 48.1567 Q1953.37 48.1567 1955.71 48.8008 Q1958.06 49.3864 1960.05 51.3187 Q1962.1 53.1925 1962.1 56.0618 Z" fill="#808080" fill-rule="evenodd" fill-opacity="1" /><path clip-path="url(#clip840)" d="M 0 0 M1970.27 129.96 Q1970.27 129.374 1971.79 127.91 Q1991.11 108.235 1991.11 71.1693 Q1991.11 33.9861 1972.55 15.1896 Q1970.27 13.0231 1970.27 12.3789 Q1970.27 11.2078 1971.44 11.2078 Q1972.26 11.2078 1975.13 13.6086 Q1978.06 16.0094 1982.45 21.5137 Q1986.9 27.018 1990.18 33.7519 Q1998.08 50.0891 1998.08 71.1693 Q1998.08 91.4297 1990.53 107.767 Q1987.31 114.618 1982.8 120.356 Q1978.29 126.095 1975.3 128.613 Q1972.32 131.131 1971.44 131.131 Q1970.27 131.131 1970.27 129.96 Z" fill="#808080" fill-rule="evenodd" fill-opacity="1" /><polyline clip-path="url(#clip842)" style="stroke:#e69f00; stroke-width:4; stroke-opacity:1; fill:none" points="
  -1906.14,792.581 -1872.25,731.338 -1838.36,670.708 -1804.47,611.295 -1770.58,553.693 -1736.68,498.478 -1702.79,446.202 -1668.9,397.386 -1635.01,352.52 -1601.12,312.05 
  -1567.23,276.382 -1533.34,245.871 -1499.45,220.823 -1465.55,201.487 -1431.66,188.058 -1397.77,180.669 -1363.88,179.394 -1329.99,184.245 -1296.1,195.175 -1262.21,212.074 
  -1228.32,234.774 -1194.42,263.046 -1160.53,296.61 -1126.64,335.129 -1092.75,378.219 -1058.86,425.449 -1024.97,476.347 -991.077,530.405 -957.186,587.083 -923.295,645.814 
  -889.404,706.011 -855.512,767.073 -821.621,828.391 -787.73,889.35 -753.839,949.342 -719.947,1007.77 -686.056,1064.04 -652.165,1117.61 -618.274,1167.92 -584.383,1214.49 
  -550.491,1256.84 -516.6,1294.55 -482.709,1327.25 -448.818,1354.6 -414.926,1376.34 -381.035,1392.25 -347.144,1402.16 -313.253,1405.98 -279.362,1403.68 -245.47,1395.27 
  -211.579,1380.83 -177.688,1360.52 -143.797,1334.54 -109.906,1303.13 -76.0143,1266.63 -42.1231,1225.39 -8.23187,1179.83 25.6594,1130.4 59.5506,1077.59 93.4418,1021.94 
  127.333,963.988 161.224,904.328 195.115,843.552 229.007,782.267 262.898,721.084 296.789,660.616 330.68,601.466 364.572,544.226 398.463,489.468 432.354,437.738 
  466.245,389.553 500.136,345.396 534.028,305.706 567.919,270.882 601.81,241.27 635.701,217.166 669.592,198.812 703.484,186.39 737.375,180.026 771.266,179.782 
  805.157,185.66 839.049,197.603 872.94,215.491 906.831,239.145 940.722,268.328 974.613,302.75 1008.5,342.066 1042.4,385.883 1076.29,433.764 1110.18,485.23 
  1144.07,539.767 1177.96,596.831 1211.85,655.85 1245.74,716.235 1279.63,777.383 1313.53,838.682 1347.42,899.522 1381.31,959.292 1415.2,1017.4 1449.09,1073.26 
  1482.98,1126.31 1516.87,1176.03 1550.76,1221.92 1584.66,1263.52 1618.55,1300.41 1652.44,1332.23 1686.33,1358.66 1720.22,1379.43 1754.11,1394.34 1788,1403.23 
  1821.89,1406.02 1855.79,1402.69 1889.68,1393.26 1923.57,1377.82 1957.46,1356.54 1991.35,1329.63 2025.24,1297.34 2059.13,1260.02 2093.02,1218.02 2126.91,1171.78 
  2160.81,1121.74 2194.7,1068.42 2228.59,1012.34 2262.48,954.06 2296.37,894.171 2330.26,833.266 
  "/>
<polyline clip-path="url(#clip842)" style="stroke:#56b4e9; stroke-width:4; stroke-opacity:1; fill:none" points="
  -1906.14,179.132 -1872.25,182.197 -1838.36,191.36 -1804.47,206.531 -1770.58,227.557 -1736.68,254.229 -1702.79,286.28 -1668.9,323.39 -1635.01,365.187 -1601.12,411.255 
  -1567.23,461.133 -1533.34,514.323 -1499.45,570.293 -1465.55,628.484 -1431.66,688.315 -1397.77,749.187 -1363.88,810.493 -1329.99,871.621 -1296.1,931.958 -1262.21,990.903 
  -1228.32,1047.87 -1194.42,1102.28 -1160.53,1153.6 -1126.64,1201.31 -1092.75,1244.93 -1058.86,1284.04 -1024.97,1318.24 -991.077,1347.18 -957.186,1370.59 -923.295,1388.21 
  -889.404,1399.89 -855.512,1405.5 -821.621,1404.98 -787.73,1398.35 -753.839,1385.66 -719.947,1367.05 -686.056,1342.7 -652.165,1312.85 -618.274,1277.8 -584.383,1237.9 
  -550.491,1193.56 -516.6,1145.21 -482.709,1093.33 -448.818,1038.45 -414.926,981.114 -381.035,921.894 -347.144,861.381 -313.253,800.181 -279.362,738.905 -245.47,678.165 
  -211.579,618.569 -177.688,560.711 -143.797,505.17 -109.906,452.501 -76.0143,403.229 -42.1231,357.848 -8.23187,316.811 25.6594,280.527 59.5506,249.36 93.4418,223.62 
  127.333,203.566 161.224,189.396 195.115,181.253 229.007,179.219 262.898,183.313 296.789,193.495 330.68,209.662 364.572,231.654 398.463,259.25 432.354,292.175 
  466.245,330.101 500.136,372.647 534.028,419.389 567.919,469.859 601.81,523.555 635.701,579.938 669.592,638.446 703.484,698.494 737.375,759.482 771.266,820.801 
  805.157,881.838 839.049,941.983 872.94,1000.64 906.831,1057.21 940.722,1111.14 974.613,1161.88 1008.5,1208.94 1042.4,1251.84 1076.29,1290.15 1110.18,1323.48 
  1144.07,1351.51 1177.96,1373.96 1211.85,1390.6 1245.74,1401.26 1279.63,1405.84 1313.53,1404.3 1347.42,1396.64 1381.31,1382.94 1415.2,1363.35 1449.09,1338.05 
  1482.98,1307.31 1516.87,1271.42 1550.76,1230.75 1584.66,1185.7 1618.55,1136.72 1652.44,1084.3 1686.33,1028.97 1720.22,971.272 1754.11,911.793 1788,851.122 
  1821.89,789.866 1855.79,728.638 1889.68,668.048 1923.57,608.703 1957.46,551.195 1991.35,496.098 2025.24,443.964 2059.13,395.314 2093.02,350.633 2126.91,310.367 
  2160.81,274.92 2194.7,244.645 2228.59,219.845 2262.48,200.767 2296.37,187.603 2330.26,180.483 
  "/>
<path clip-path="url(#clip840)" d="
M1664.45 412.476 L2281.77 412.476 L2281.77 185.676 L1664.45 185.676  Z
  " fill="#ffffff" fill-rule="evenodd" fill-opacity="1"/>
<polyline clip-path="url(#clip840)" style="stroke:#000000; stroke-width:4; stroke-opacity:1; fill:none" points="
  1664.45,412.476 2281.77,412.476 2281.77,185.676 1664.45,185.676 1664.45,412.476 
  "/>
<polyline clip-path="url(#clip840)" style="stroke:#e69f00; stroke-width:5; stroke-opacity:1; fill:none" points="
  1688.11,261.276 1830.07,261.276 
  "/>
<path clip-path="url(#clip840)" d="M 0 0 M1883.63 230.952 Q1883.63 232.562 1882.6 233.558 Q1881.61 234.553 1880.35 234.553 Q1879.44 234.553 1878.77 233.997 Q1878.12 233.441 1878.12 232.475 Q1878.12 231.479 1878.88 230.425 Q1879.64 229.371 1881.37 229.225 Q1880.23 228.141 1878.41 228.141 Q1877.51 228.141 1876.75 228.727 Q1876.01 229.283 1875.6 230.191 Q1875.16 231.128 1874.17 236.427 Q1873.85 238.155 1873.55 239.823 Q1873.26 241.492 1872.91 243.249 L1877.89 243.249 Q1878.53 243.249 1878.79 243.278 Q1879.06 243.307 1879.26 243.454 Q1879.5 243.6 1879.5 243.922 Q1879.5 244.742 1879.12 244.947 Q1878.77 245.123 1877.71 245.123 L1872.56 245.123 L1868.96 264.124 Q1868.87 264.68 1868.49 266.437 Q1868.14 268.165 1867.29 271.004 Q1866.44 273.874 1865.59 275.572 Q1865.12 276.538 1864.51 277.446 Q1863.92 278.383 1863.07 279.319 Q1862.22 280.256 1861.11 280.813 Q1860 281.398 1858.83 281.398 Q1856.84 281.398 1855.28 280.286 Q1853.73 279.173 1853.73 277.27 Q1853.73 275.66 1854.73 274.664 Q1855.75 273.669 1857.01 273.669 Q1857.92 273.669 1858.56 274.225 Q1859.24 274.781 1859.24 275.748 Q1859.24 276.157 1859.09 276.626 Q1858.94 277.094 1858.62 277.621 Q1858.3 278.178 1857.6 278.558 Q1856.89 278.939 1855.93 278.997 Q1857.07 280.081 1858.83 280.081 Q1859.38 280.081 1859.88 279.846 Q1860.38 279.642 1860.79 279.115 Q1861.23 278.588 1861.55 278.06 Q1861.87 277.563 1862.19 276.597 Q1862.52 275.66 1862.72 274.957 Q1862.93 274.254 1863.19 272.995 Q1863.48 271.736 1863.63 270.975 Q1863.78 270.243 1864.04 268.809 L1868.52 245.123 L1864.57 245.123 Q1863.86 245.123 1863.57 245.093 Q1863.31 245.064 1863.1 244.918 Q1862.9 244.742 1862.9 244.391 Q1862.9 243.834 1863.13 243.6 Q1863.39 243.337 1863.69 243.307 Q1863.98 243.249 1864.68 243.249 L1868.84 243.249 Q1870.25 235.842 1870.8 233.851 Q1871.45 231.743 1872.44 230.279 Q1873.44 228.786 1874.55 228.083 Q1875.66 227.38 1876.57 227.117 Q1877.51 226.824 1878.41 226.824 Q1880.46 226.824 1882.04 227.936 Q1883.63 229.02 1883.63 230.952 Z" fill="#808080" fill-rule="evenodd" fill-opacity="1" /><path clip-path="url(#clip840)" d="M 0 0 M1889.73 273.742 L1889.73 272.43 Q1894.77 272.43 1897.37 269.745 Q1898.09 269.745 1898.21 269.909 Q1898.33 270.073 1898.33 270.831 L1898.33 294.38 Q1898.33 295.63 1898.95 296.019 Q1899.56 296.409 1902.25 296.409 L1903.58 296.409 L1903.58 297.7 Q1902.11 297.577 1896.78 297.577 Q1891.45 297.577 1889.99 297.7 L1889.99 296.409 L1891.33 296.409 Q1893.97 296.409 1894.6 296.04 Q1895.24 295.65 1895.24 294.38 L1895.24 272.635 Q1893.05 273.742 1889.73 273.742 Z" fill="#808080" fill-rule="evenodd" fill-opacity="1" /><path clip-path="url(#clip840)" d="M 0 0 M1909.84 254.111 Q1909.84 243.981 1913.62 235.812 Q1915.23 232.387 1917.48 229.517 Q1919.74 226.648 1921.23 225.389 Q1922.72 224.13 1923.13 224.13 Q1923.72 224.13 1923.75 224.716 Q1923.75 225.009 1922.96 225.741 Q1913.3 235.578 1913.33 254.111 Q1913.33 272.703 1922.72 282.159 Q1923.75 283.184 1923.75 283.506 Q1923.75 284.092 1923.13 284.092 Q1922.72 284.092 1921.29 282.891 Q1919.86 281.691 1917.63 278.939 Q1915.4 276.187 1913.79 272.82 Q1909.84 264.651 1909.84 254.111 Z" fill="#808080" fill-rule="evenodd" fill-opacity="1" /><path clip-path="url(#clip840)" d="M 0 0 M1962.73 246.557 Q1962.73 248.197 1961.7 249.134 Q1960.68 250.041 1959.5 250.041 Q1958.39 250.041 1957.81 249.397 Q1957.22 248.753 1957.22 247.933 Q1957.22 246.821 1958.04 245.855 Q1958.86 244.888 1960.09 244.684 Q1958.89 243.922 1957.1 243.922 Q1955.93 243.922 1954.91 244.537 Q1953.91 245.152 1953.3 245.942 Q1952.71 246.733 1952.18 247.875 Q1951.69 248.987 1951.48 249.661 Q1951.31 250.305 1951.16 251.008 L1949.11 259.205 Q1948.12 263.099 1948.12 264.475 Q1948.12 266.174 1948.94 267.315 Q1949.75 268.428 1951.39 268.428 Q1952.04 268.428 1952.77 268.252 Q1953.5 268.047 1954.44 267.52 Q1955.41 266.964 1956.25 266.144 Q1957.13 265.295 1957.98 263.861 Q1958.83 262.426 1959.39 260.582 Q1959.56 259.937 1960.15 259.937 Q1960.88 259.937 1960.88 260.523 Q1960.88 261.021 1960.47 262.075 Q1960.09 263.099 1959.24 264.446 Q1958.42 265.764 1957.34 266.964 Q1956.25 268.135 1954.64 268.955 Q1953.03 269.775 1951.28 269.775 Q1948.76 269.775 1947.09 268.428 Q1945.42 267.081 1944.81 265.207 Q1944.66 265.471 1944.46 265.822 Q1944.25 266.174 1943.64 266.964 Q1943.05 267.725 1942.38 268.311 Q1941.7 268.867 1940.65 269.306 Q1939.62 269.775 1938.51 269.775 Q1937.11 269.775 1935.85 269.365 Q1934.62 268.955 1933.74 268.018 Q1932.86 267.081 1932.86 265.793 Q1932.86 264.358 1933.83 263.363 Q1934.82 262.338 1936.17 262.338 Q1937.02 262.338 1937.69 262.836 Q1938.4 263.334 1938.4 264.417 Q1938.4 265.617 1937.58 266.525 Q1936.76 267.433 1935.58 267.667 Q1936.78 268.428 1938.57 268.428 Q1940.5 268.428 1942.03 266.73 Q1943.55 265.032 1944.28 262.192 Q1946.1 255.37 1946.8 252.325 Q1947.5 249.251 1947.5 247.933 Q1947.5 246.704 1947.18 245.855 Q1946.86 245.006 1946.3 244.625 Q1945.77 244.215 1945.28 244.069 Q1944.81 243.922 1944.28 243.922 Q1943.4 243.922 1942.41 244.274 Q1941.44 244.625 1940.27 245.445 Q1939.13 246.235 1938.04 247.875 Q1936.96 249.514 1936.23 251.769 Q1936.08 252.442 1935.44 252.442 Q1934.74 252.413 1934.74 251.827 Q1934.74 251.33 1935.12 250.305 Q1935.53 249.251 1936.35 247.933 Q1937.19 246.616 1938.28 245.445 Q1939.39 244.244 1941 243.425 Q1942.64 242.605 1944.4 242.605 Q1945.19 242.605 1945.95 242.78 Q1946.74 242.927 1947.68 243.366 Q1948.64 243.805 1949.49 244.771 Q1950.34 245.738 1950.87 247.143 Q1951.22 246.469 1951.69 245.825 Q1952.18 245.181 1952.95 244.391 Q1953.74 243.571 1954.82 243.103 Q1955.93 242.605 1957.16 242.605 Q1958.36 242.605 1959.53 242.927 Q1960.7 243.22 1961.7 244.186 Q1962.73 245.123 1962.73 246.557 Z" fill="#808080" fill-rule="evenodd" fill-opacity="1" /><path clip-path="url(#clip840)" d="M 0 0 M1966.81 283.506 Q1966.81 283.213 1967.57 282.481 Q1977.23 272.644 1977.23 254.111 Q1977.23 235.519 1967.95 226.121 Q1966.81 225.038 1966.81 224.716 Q1966.81 224.13 1967.4 224.13 Q1967.81 224.13 1969.24 225.331 Q1970.7 226.531 1972.9 229.283 Q1975.13 232.035 1976.77 235.402 Q1980.72 243.571 1980.72 254.111 Q1980.72 264.241 1976.94 272.41 Q1975.33 275.835 1973.08 278.705 Q1970.82 281.574 1969.33 282.833 Q1967.84 284.092 1967.4 284.092 Q1966.81 284.092 1966.81 283.506 Z" fill="#808080" fill-rule="evenodd" fill-opacity="1" /><path clip-path="url(#clip840)" d="M 0 0 M2006.46 259.996 Q2006.52 259.264 2007.66 259.264 L2044.41 259.264 Q2046.14 259.264 2046.16 259.937 Q2046.16 260.669 2044.53 260.64 L2008.07 260.64 Q2006.46 260.669 2006.46 259.996 M2006.46 248.285 Q2006.46 247.553 2007.72 247.582 L2044.35 247.582 Q2046.14 247.582 2046.16 248.285 Q2046.16 248.958 2044.64 248.958 L2007.66 248.958 Q2006.46 248.958 2006.46 248.285 Z" fill="#808080" fill-rule="evenodd" fill-opacity="1" /><path clip-path="url(#clip840)" d="M 0 0 M2091.36 247.758 Q2091.36 249.397 2090.54 250.276 Q2089.72 251.125 2088.6 251.125 Q2087.7 251.125 2087.2 250.598 Q2086.73 250.071 2086.73 249.368 Q2086.73 248.343 2087.55 247.523 Q2088.4 246.704 2089.63 246.674 Q2089.22 245.591 2088.14 244.947 Q2087.05 244.274 2086.09 244.098 Q2085.15 243.922 2084.21 243.922 Q2082.37 243.922 2080.96 244.508 Q2079.56 245.093 2078.86 246.001 Q2078.15 246.879 2077.83 247.728 Q2077.51 248.577 2077.51 249.309 Q2077.51 249.954 2077.65 250.481 Q2077.83 250.978 2078.24 251.359 Q2078.65 251.71 2078.94 251.944 Q2079.26 252.179 2079.97 252.384 Q2080.67 252.589 2080.96 252.676 Q2081.26 252.735 2082.08 252.911 Q2083.77 253.262 2084.54 253.467 Q2085.3 253.643 2086.29 254.14 Q2087.32 254.638 2088.08 255.429 Q2089.92 257.273 2089.92 259.82 Q2089.92 260.757 2089.6 261.899 Q2089.31 263.041 2088.46 264.475 Q2087.61 265.91 2086.32 267.052 Q2085.03 268.194 2082.81 268.984 Q2080.61 269.775 2077.86 269.775 Q2074.02 269.775 2071.65 268.165 Q2069.28 266.525 2069.28 263.948 Q2069.28 262.075 2070.31 261.05 Q2071.33 259.996 2072.65 259.996 Q2073.64 259.996 2074.26 260.552 Q2074.87 261.079 2074.87 262.075 Q2074.87 263.421 2073.79 264.446 Q2072.71 265.471 2071.1 265.266 Q2072.47 268.428 2077.92 268.428 Q2079.97 268.428 2081.55 267.901 Q2083.16 267.345 2084.04 266.584 Q2084.94 265.793 2085.53 264.827 Q2086.12 263.861 2086.29 263.129 Q2086.5 262.397 2086.5 261.84 Q2086.5 260.874 2086.12 260.142 Q2085.74 259.41 2085.21 259 Q2084.71 258.561 2083.74 258.21 Q2082.81 257.829 2082.13 257.683 Q2081.46 257.537 2080.26 257.302 Q2079.7 257.185 2079.35 257.127 Q2079 257.039 2078.27 256.805 Q2077.57 256.541 2077.07 256.278 Q2076.6 256.014 2075.99 255.546 Q2075.37 255.077 2074.99 254.521 Q2074.61 253.965 2074.35 253.145 Q2074.08 252.325 2074.08 251.359 Q2074.08 250.481 2074.35 249.427 Q2074.64 248.373 2075.37 247.143 Q2076.13 245.913 2077.22 244.918 Q2078.3 243.922 2080.11 243.278 Q2081.96 242.605 2084.21 242.605 Q2087.49 242.605 2089.42 244.127 Q2091.36 245.62 2091.36 247.758 Z" fill="#808080" fill-rule="evenodd" fill-opacity="1" /><path clip-path="url(#clip840)" d="M 0 0 M2112.43 231.626 Q2112.43 232.914 2111.37 233.88 Q2110.35 234.817 2109.23 234.817 Q2108.21 234.817 2107.57 234.202 Q2106.95 233.558 2106.95 232.65 Q2106.95 231.45 2107.98 230.454 Q2109 229.459 2110.2 229.459 Q2111.2 229.459 2111.81 230.074 Q2112.43 230.689 2112.43 231.626 M2112.95 260.523 Q2112.95 260.757 2112.69 261.694 Q2112.43 262.602 2111.78 264.007 Q2111.17 265.383 2110.32 266.671 Q2109.47 267.96 2108.06 268.867 Q2106.69 269.775 2105.11 269.775 Q2102.97 269.775 2101.56 268.369 Q2100.19 266.964 2100.19 264.856 Q2100.19 263.714 2101.56 260.054 Q2105.55 249.397 2105.69 248.958 Q2106.37 247.289 2106.37 245.825 Q2106.37 245.152 2106.22 244.742 Q2106.07 244.303 2105.78 244.157 Q2105.49 243.981 2105.31 243.952 Q2105.16 243.922 2104.87 243.922 Q2103.14 243.922 2101.53 245.679 Q2099.92 247.436 2098.81 251.359 Q2098.58 252.091 2098.43 252.267 Q2098.28 252.442 2097.85 252.442 Q2097.11 252.413 2097.11 251.827 Q2097.11 251.652 2097.32 250.978 Q2097.52 250.276 2097.9 249.222 Q2098.28 248.138 2098.96 247.026 Q2099.63 245.884 2100.45 244.888 Q2101.3 243.893 2102.5 243.249 Q2103.7 242.605 2105.05 242.605 Q2107.24 242.605 2108.59 244.039 Q2109.97 245.445 2109.97 247.523 Q2109.97 248.665 2109.18 250.686 Q2108.21 253.321 2107.86 254.17 L2105.52 260.464 Q2104.67 262.748 2104.4 263.451 Q2104.17 264.124 2103.96 264.944 Q2103.79 265.734 2103.79 266.466 Q2103.79 267.491 2104.11 267.96 Q2104.46 268.428 2105.22 268.428 Q2107.33 268.428 2108.88 266.349 Q2110.43 264.241 2111.34 261.021 Q2111.37 260.933 2111.4 260.786 Q2111.64 260.054 2111.87 259.967 Q2111.99 259.937 2112.22 259.937 Q2112.95 259.937 2112.95 260.523 Z" fill="#808080" fill-rule="evenodd" fill-opacity="1" /><path clip-path="url(#clip840)" d="M 0 0 M2150.08 260.523 Q2150.08 260.757 2149.82 261.665 Q2149.55 262.572 2148.91 263.978 Q2148.29 265.383 2147.44 266.671 Q2146.6 267.93 2145.19 268.867 Q2143.81 269.775 2142.23 269.775 Q2140.13 269.775 2138.72 268.369 Q2137.31 266.964 2137.31 264.856 Q2137.31 263.685 2137.93 262.075 Q2141.82 251.681 2141.82 248.109 Q2141.82 243.922 2138.57 243.922 Q2136.96 243.922 2135.44 244.537 Q2133.95 245.123 2132.92 245.942 Q2131.9 246.762 2130.96 247.904 Q2130.05 249.017 2129.59 249.778 Q2129.15 250.51 2128.79 251.242 L2128.03 254.228 Q2127.86 255.048 2127.01 258.239 L2125.69 263.656 Q2124.75 267.696 2124.55 268.077 Q2124.26 268.896 2123.61 269.336 Q2122.97 269.775 2122.32 269.775 Q2121.59 269.775 2121.09 269.336 Q2120.6 268.896 2120.6 268.135 Q2120.6 268.018 2120.68 267.579 Q2120.77 267.14 2120.92 266.525 Q2121.07 265.91 2121.12 265.559 L2124.61 251.71 Q2125.25 249.192 2125.4 248.402 Q2125.57 247.582 2125.57 246.674 Q2125.57 243.922 2123.7 243.922 Q2122.18 243.922 2121.18 245.738 Q2120.19 247.553 2119.34 251.066 Q2119.07 252.032 2118.9 252.237 Q2118.75 252.442 2118.31 252.442 Q2117.58 252.413 2117.58 251.827 Q2117.58 251.681 2117.82 250.715 Q2118.05 249.749 2118.49 248.373 Q2118.96 246.967 2119.4 246.03 Q2119.78 245.328 2119.98 245.006 Q2120.22 244.654 2120.77 243.981 Q2121.36 243.278 2122.12 242.956 Q2122.91 242.605 2123.88 242.605 Q2126.04 242.605 2127.62 244.01 Q2129.2 245.386 2129.41 247.816 Q2133.3 242.605 2138.75 242.605 Q2141.97 242.605 2143.81 244.303 Q2145.66 246.001 2145.66 249.017 Q2145.66 249.719 2145.51 250.627 Q2145.4 251.505 2145.1 252.618 Q2144.84 253.73 2144.6 254.579 Q2144.37 255.429 2143.9 256.805 Q2143.43 258.151 2143.23 258.737 Q2143.02 259.323 2142.53 260.699 Q2142.06 262.045 2142 262.192 Q2140.92 264.915 2140.92 266.466 Q2140.92 267.491 2141.24 267.96 Q2141.59 268.428 2142.35 268.428 Q2144.4 268.428 2145.92 266.408 Q2147.47 264.358 2148.47 261.021 Q2148.7 260.289 2148.82 260.113 Q2148.97 259.937 2149.38 259.937 Q2150.08 259.937 2150.08 260.523 Z" fill="#808080" fill-rule="evenodd" fill-opacity="1" /><path clip-path="url(#clip840)" d="M 0 0 M2153.18 254.111 Q2153.18 243.981 2156.96 235.812 Q2158.57 232.387 2160.82 229.517 Q2163.08 226.648 2164.57 225.389 Q2166.07 224.13 2166.48 224.13 Q2167.06 224.13 2167.09 224.716 Q2167.09 225.009 2166.3 225.741 Q2156.64 235.578 2156.67 254.111 Q2156.67 272.703 2166.07 282.159 Q2167.09 283.184 2167.09 283.506 Q2167.09 284.092 2166.48 284.092 Q2166.07 284.092 2164.63 282.891 Q2163.2 281.691 2160.97 278.939 Q2158.75 276.187 2157.14 272.82 Q2153.18 264.651 2153.18 254.111 Z" fill="#808080" fill-rule="evenodd" fill-opacity="1" /><path clip-path="url(#clip840)" d="M 0 0 M2206.07 246.557 Q2206.07 248.197 2205.04 249.134 Q2204.02 250.041 2202.85 250.041 Q2201.73 250.041 2201.15 249.397 Q2200.56 248.753 2200.56 247.933 Q2200.56 246.821 2201.38 245.855 Q2202.2 244.888 2203.43 244.684 Q2202.23 243.922 2200.44 243.922 Q2199.27 243.922 2198.25 244.537 Q2197.25 245.152 2196.64 245.942 Q2196.05 246.733 2195.53 247.875 Q2195.03 248.987 2194.82 249.661 Q2194.65 250.305 2194.5 251.008 L2192.45 259.205 Q2191.46 263.099 2191.46 264.475 Q2191.46 266.174 2192.28 267.315 Q2193.1 268.428 2194.74 268.428 Q2195.38 268.428 2196.11 268.252 Q2196.84 268.047 2197.78 267.52 Q2198.75 266.964 2199.6 266.144 Q2200.47 265.295 2201.32 263.861 Q2202.17 262.426 2202.73 260.582 Q2202.9 259.937 2203.49 259.937 Q2204.22 259.937 2204.22 260.523 Q2204.22 261.021 2203.81 262.075 Q2203.43 263.099 2202.58 264.446 Q2201.76 265.764 2200.68 266.964 Q2199.6 268.135 2197.99 268.955 Q2196.38 269.775 2194.62 269.775 Q2192.1 269.775 2190.43 268.428 Q2188.76 267.081 2188.15 265.207 Q2188 265.471 2187.8 265.822 Q2187.59 266.174 2186.98 266.964 Q2186.39 267.725 2185.72 268.311 Q2185.04 268.867 2183.99 269.306 Q2182.97 269.775 2181.85 269.775 Q2180.45 269.775 2179.19 269.365 Q2177.96 268.955 2177.08 268.018 Q2176.2 267.081 2176.2 265.793 Q2176.2 264.358 2177.17 263.363 Q2178.16 262.338 2179.51 262.338 Q2180.36 262.338 2181.03 262.836 Q2181.74 263.334 2181.74 264.417 Q2181.74 265.617 2180.92 266.525 Q2180.1 267.433 2178.93 267.667 Q2180.13 268.428 2181.91 268.428 Q2183.84 268.428 2185.37 266.73 Q2186.89 265.032 2187.62 262.192 Q2189.44 255.37 2190.14 252.325 Q2190.84 249.251 2190.84 247.933 Q2190.84 246.704 2190.52 245.855 Q2190.2 245.006 2189.64 244.625 Q2189.11 244.215 2188.62 244.069 Q2188.15 243.922 2187.62 243.922 Q2186.74 243.922 2185.75 244.274 Q2184.78 244.625 2183.61 245.445 Q2182.47 246.235 2181.38 247.875 Q2180.3 249.514 2179.57 251.769 Q2179.42 252.442 2178.78 252.442 Q2178.08 252.413 2178.08 251.827 Q2178.08 251.33 2178.46 250.305 Q2178.87 249.251 2179.69 247.933 Q2180.54 246.616 2181.62 245.445 Q2182.73 244.244 2184.34 243.425 Q2185.98 242.605 2187.74 242.605 Q2188.53 242.605 2189.29 242.78 Q2190.08 242.927 2191.02 243.366 Q2191.98 243.805 2192.83 244.771 Q2193.68 245.738 2194.21 247.143 Q2194.56 246.469 2195.03 245.825 Q2195.53 245.181 2196.29 244.391 Q2197.08 243.571 2198.16 243.103 Q2199.27 242.605 2200.5 242.605 Q2201.7 242.605 2202.87 242.927 Q2204.05 243.22 2205.04 244.186 Q2206.07 245.123 2206.07 246.557 Z" fill="#808080" fill-rule="evenodd" fill-opacity="1" /><path clip-path="url(#clip840)" d="M 0 0 M2210.15 283.506 Q2210.15 283.213 2210.91 282.481 Q2220.57 272.644 2220.57 254.111 Q2220.57 235.519 2211.29 226.121 Q2210.15 225.038 2210.15 224.716 Q2210.15 224.13 2210.74 224.13 Q2211.15 224.13 2212.58 225.331 Q2214.05 226.531 2216.24 229.283 Q2218.47 232.035 2220.11 235.402 Q2224.06 243.571 2224.06 254.111 Q2224.06 264.241 2220.28 272.41 Q2218.67 275.835 2216.42 278.705 Q2214.16 281.574 2212.67 282.833 Q2211.18 284.092 2210.74 284.092 Q2210.15 284.092 2210.15 283.506 Z" fill="#808080" fill-rule="evenodd" fill-opacity="1" /><polyline clip-path="url(#clip840)" style="stroke:#56b4e9; stroke-width:5; stroke-opacity:1; fill:none" points="
  1688.11,336.876 1830.07,336.876 
  "/>
<path clip-path="url(#clip840)" d="M 0 0 M1883.63 306.552 Q1883.63 308.162 1882.6 309.158 Q1881.61 310.153 1880.35 310.153 Q1879.44 310.153 1878.77 309.597 Q1878.12 309.041 1878.12 308.075 Q1878.12 307.079 1878.88 306.025 Q1879.64 304.971 1881.37 304.825 Q1880.23 303.741 1878.41 303.741 Q1877.51 303.741 1876.75 304.327 Q1876.01 304.883 1875.6 305.791 Q1875.16 306.728 1874.17 312.027 Q1873.85 313.755 1873.55 315.423 Q1873.26 317.092 1872.91 318.849 L1877.89 318.849 Q1878.53 318.849 1878.79 318.878 Q1879.06 318.907 1879.26 319.054 Q1879.5 319.2 1879.5 319.522 Q1879.5 320.342 1879.12 320.547 Q1878.77 320.723 1877.71 320.723 L1872.56 320.723 L1868.96 339.724 Q1868.87 340.28 1868.49 342.037 Q1868.14 343.765 1867.29 346.604 Q1866.44 349.474 1865.59 351.172 Q1865.12 352.138 1864.51 353.046 Q1863.92 353.983 1863.07 354.919 Q1862.22 355.856 1861.11 356.413 Q1860 356.998 1858.83 356.998 Q1856.84 356.998 1855.28 355.886 Q1853.73 354.773 1853.73 352.87 Q1853.73 351.26 1854.73 350.264 Q1855.75 349.269 1857.01 349.269 Q1857.92 349.269 1858.56 349.825 Q1859.24 350.381 1859.24 351.348 Q1859.24 351.757 1859.09 352.226 Q1858.94 352.694 1858.62 353.221 Q1858.3 353.778 1857.6 354.158 Q1856.89 354.539 1855.93 354.597 Q1857.07 355.681 1858.83 355.681 Q1859.38 355.681 1859.88 355.446 Q1860.38 355.242 1860.79 354.715 Q1861.23 354.188 1861.55 353.66 Q1861.87 353.163 1862.19 352.197 Q1862.52 351.26 1862.72 350.557 Q1862.93 349.854 1863.19 348.595 Q1863.48 347.336 1863.63 346.575 Q1863.78 345.843 1864.04 344.409 L1868.52 320.723 L1864.57 320.723 Q1863.86 320.723 1863.57 320.693 Q1863.31 320.664 1863.1 320.518 Q1862.9 320.342 1862.9 319.991 Q1862.9 319.434 1863.13 319.2 Q1863.39 318.937 1863.69 318.907 Q1863.98 318.849 1864.68 318.849 L1868.84 318.849 Q1870.25 311.442 1870.8 309.451 Q1871.45 307.343 1872.44 305.879 Q1873.44 304.386 1874.55 303.683 Q1875.66 302.98 1876.57 302.717 Q1877.51 302.424 1878.41 302.424 Q1880.46 302.424 1882.04 303.536 Q1883.63 304.62 1883.63 306.552 Z" fill="#808080" fill-rule="evenodd" fill-opacity="1" /><path clip-path="url(#clip840)" d="M 0 0 M1889.73 373.3 Q1889.73 372.542 1889.79 372.316 Q1889.87 372.091 1890.2 371.742 L1898.25 362.766 Q1902.66 357.806 1902.66 353.482 Q1902.66 350.674 1901.18 348.665 Q1899.73 346.657 1897.04 346.657 Q1895.2 346.657 1893.64 347.784 Q1892.08 348.911 1891.37 350.92 Q1891.49 350.879 1891.92 350.879 Q1892.96 350.879 1893.54 351.535 Q1894.13 352.19 1894.13 353.072 Q1894.13 354.199 1893.39 354.752 Q1892.68 355.285 1891.96 355.285 Q1891.67 355.285 1891.28 355.224 Q1890.92 355.162 1890.32 354.588 Q1889.73 353.994 1889.73 352.949 Q1889.73 350.018 1891.94 347.682 Q1894.17 345.345 1897.58 345.345 Q1901.43 345.345 1903.95 347.641 Q1906.49 349.915 1906.49 353.482 Q1906.49 354.732 1906.1 355.879 Q1905.73 357.007 1905.22 357.888 Q1904.73 358.769 1903.38 360.183 Q1902.02 361.597 1900.94 362.602 Q1899.85 363.606 1897.41 365.737 L1892.96 370.062 L1900.53 370.062 Q1904.22 370.062 1904.5 369.734 Q1904.91 369.139 1905.43 366.004 L1906.49 366.004 L1905.3 373.3 L1889.73 373.3 Z" fill="#808080" fill-rule="evenodd" fill-opacity="1" /><path clip-path="url(#clip840)" d="M 0 0 M1912.72 329.711 Q1912.72 319.581 1916.5 311.412 Q1918.11 307.987 1920.36 305.117 Q1922.61 302.248 1924.11 300.989 Q1925.6 299.73 1926.01 299.73 Q1926.6 299.73 1926.63 300.316 Q1926.63 300.609 1925.84 301.341 Q1916.17 311.178 1916.2 329.711 Q1916.2 348.303 1925.6 357.759 Q1926.63 358.784 1926.63 359.106 Q1926.63 359.692 1926.01 359.692 Q1925.6 359.692 1924.17 358.491 Q1922.73 357.291 1920.51 354.539 Q1918.28 351.787 1916.67 348.42 Q1912.72 340.251 1912.72 329.711 Z" fill="#808080" fill-rule="evenodd" fill-opacity="1" /><path clip-path="url(#clip840)" d="M 0 0 M1965.6 322.157 Q1965.6 323.797 1964.58 324.734 Q1963.55 325.641 1962.38 325.641 Q1961.27 325.641 1960.68 324.997 Q1960.1 324.353 1960.1 323.533 Q1960.1 322.421 1960.92 321.455 Q1961.74 320.488 1962.97 320.284 Q1961.77 319.522 1959.98 319.522 Q1958.81 319.522 1957.78 320.137 Q1956.79 320.752 1956.17 321.542 Q1955.59 322.333 1955.06 323.475 Q1954.56 324.587 1954.36 325.261 Q1954.18 325.905 1954.04 326.608 L1951.99 334.805 Q1950.99 338.699 1950.99 340.075 Q1950.99 341.774 1951.81 342.915 Q1952.63 344.028 1954.27 344.028 Q1954.92 344.028 1955.65 343.852 Q1956.38 343.647 1957.32 343.12 Q1958.28 342.564 1959.13 341.744 Q1960.01 340.895 1960.86 339.461 Q1961.71 338.026 1962.26 336.182 Q1962.44 335.537 1963.03 335.537 Q1963.76 335.537 1963.76 336.123 Q1963.76 336.621 1963.35 337.675 Q1962.97 338.699 1962.12 340.046 Q1961.3 341.364 1960.21 342.564 Q1959.13 343.735 1957.52 344.555 Q1955.91 345.375 1954.15 345.375 Q1951.64 345.375 1949.97 344.028 Q1948.3 342.681 1947.68 340.807 Q1947.54 341.071 1947.33 341.422 Q1947.13 341.774 1946.51 342.564 Q1945.93 343.325 1945.25 343.911 Q1944.58 344.467 1943.53 344.906 Q1942.5 345.375 1941.39 345.375 Q1939.98 345.375 1938.72 344.965 Q1937.49 344.555 1936.62 343.618 Q1935.74 342.681 1935.74 341.393 Q1935.74 339.958 1936.7 338.963 Q1937.7 337.938 1939.05 337.938 Q1939.9 337.938 1940.57 338.436 Q1941.27 338.934 1941.27 340.017 Q1941.27 341.217 1940.45 342.125 Q1939.63 343.033 1938.46 343.267 Q1939.66 344.028 1941.45 344.028 Q1943.38 344.028 1944.9 342.33 Q1946.42 340.632 1947.16 337.792 Q1948.97 330.97 1949.67 327.925 Q1950.38 324.851 1950.38 323.533 Q1950.38 322.304 1950.05 321.455 Q1949.73 320.606 1949.18 320.225 Q1948.65 319.815 1948.15 319.669 Q1947.68 319.522 1947.16 319.522 Q1946.28 319.522 1945.28 319.874 Q1944.32 320.225 1943.15 321.045 Q1942 321.835 1940.92 323.475 Q1939.84 325.114 1939.11 327.369 Q1938.96 328.042 1938.31 328.042 Q1937.61 328.013 1937.61 327.427 Q1937.61 326.93 1937.99 325.905 Q1938.4 324.851 1939.22 323.533 Q1940.07 322.216 1941.15 321.045 Q1942.27 319.844 1943.88 319.025 Q1945.52 318.205 1947.27 318.205 Q1948.06 318.205 1948.83 318.38 Q1949.62 318.527 1950.55 318.966 Q1951.52 319.405 1952.37 320.371 Q1953.22 321.338 1953.74 322.743 Q1954.1 322.069 1954.56 321.425 Q1955.06 320.781 1955.82 319.991 Q1956.61 319.171 1957.7 318.703 Q1958.81 318.205 1960.04 318.205 Q1961.24 318.205 1962.41 318.527 Q1963.58 318.82 1964.58 319.786 Q1965.6 320.723 1965.6 322.157 Z" fill="#808080" fill-rule="evenodd" fill-opacity="1" /><path clip-path="url(#clip840)" d="M 0 0 M1969.69 359.106 Q1969.69 358.813 1970.45 358.081 Q1980.11 348.244 1980.11 329.711 Q1980.11 311.119 1970.83 301.721 Q1969.69 300.638 1969.69 300.316 Q1969.69 299.73 1970.27 299.73 Q1970.68 299.73 1972.12 300.931 Q1973.58 302.131 1975.78 304.883 Q1978 307.635 1979.64 311.002 Q1983.59 319.171 1983.59 329.711 Q1983.59 339.841 1979.82 348.01 Q1978.21 351.435 1975.95 354.305 Q1973.7 357.174 1972.21 358.433 Q1970.71 359.692 1970.27 359.692 Q1969.69 359.692 1969.69 359.106 Z" fill="#808080" fill-rule="evenodd" fill-opacity="1" /><path clip-path="url(#clip840)" d="M 0 0 M2009.34 335.596 Q2009.4 334.864 2010.54 334.864 L2047.28 334.864 Q2049.01 334.864 2049.04 335.537 Q2049.04 336.269 2047.4 336.24 L2010.95 336.24 Q2009.34 336.269 2009.34 335.596 M2009.34 323.885 Q2009.34 323.153 2010.6 323.182 L2047.23 323.182 Q2049.01 323.182 2049.04 323.885 Q2049.04 324.558 2047.52 324.558 L2010.54 324.558 Q2009.34 324.558 2009.34 323.885 Z" fill="#808080" fill-rule="evenodd" fill-opacity="1" /><path clip-path="url(#clip840)" d="M 0 0 M2095.26 337.763 Q2095.49 338.026 2095.49 338.29 Q2095.49 338.553 2094.91 339.314 Q2094.35 340.075 2093.15 341.1 Q2091.95 342.125 2090.4 343.091 Q2088.85 344.057 2086.56 344.701 Q2084.28 345.375 2081.88 345.375 Q2077.4 345.375 2074.76 342.418 Q2072.16 339.461 2072.16 335.215 Q2072.16 331.087 2074.47 327.135 Q2076.78 323.153 2080.53 320.693 Q2084.28 318.205 2088.23 318.205 Q2091.36 318.205 2093.33 319.669 Q2095.29 321.133 2095.29 323.358 Q2095.29 325.085 2094.29 326.139 Q2093.3 327.193 2091.95 327.193 Q2091.01 327.193 2090.37 326.666 Q2089.72 326.11 2089.72 325.085 Q2089.72 323.768 2090.81 322.743 Q2091.22 322.333 2091.69 322.157 Q2092.18 321.952 2092.48 321.952 Q2092.77 321.923 2093.44 321.923 Q2092.83 320.781 2091.36 320.166 Q2089.93 319.522 2088.29 319.522 Q2085.86 319.522 2083.55 321.22 Q2081.23 322.889 2079.83 325.524 Q2078.42 328.101 2077.52 331.761 Q2076.61 335.391 2076.61 337.499 Q2076.61 340.398 2077.95 342.213 Q2079.3 344.028 2082 344.028 Q2082.52 344.028 2083.08 343.999 Q2083.66 343.969 2085.13 343.647 Q2086.62 343.325 2087.94 342.769 Q2089.26 342.213 2090.92 341.012 Q2092.62 339.783 2093.97 338.114 Q2094.44 337.499 2094.76 337.499 Q2095.02 337.499 2095.26 337.763 Z" fill="#808080" fill-rule="evenodd" fill-opacity="1" /><path clip-path="url(#clip840)" d="M 0 0 M2123.52 328.335 Q2123.52 331.526 2122.12 334.688 Q2120.71 337.821 2118.46 340.163 Q2116.23 342.476 2113.3 343.94 Q2110.38 345.375 2107.45 345.375 Q2103.26 345.375 2100.54 342.535 Q2097.84 339.666 2097.84 335.215 Q2097.84 331.058 2100.16 327.105 Q2102.5 323.123 2106.25 320.664 Q2109.99 318.205 2113.92 318.205 Q2118.05 318.205 2120.77 320.986 Q2123.52 323.768 2123.52 328.335 M2119.13 325.993 Q2119.13 323.153 2117.75 321.338 Q2116.38 319.522 2113.86 319.522 Q2113.13 319.522 2112.28 319.757 Q2111.43 319.961 2110.32 320.518 Q2109.23 321.074 2108 322.245 Q2106.8 323.387 2105.75 325.027 Q2104.37 327.193 2103.32 331.175 Q2102.29 335.127 2102.29 337.499 Q2102.29 340.778 2103.82 342.418 Q2105.34 344.028 2107.51 344.028 Q2109.61 344.028 2111.84 342.564 Q2114.09 341.071 2115.65 338.524 Q2117.2 335.889 2118.16 332.024 Q2119.13 328.13 2119.13 325.993 Z" fill="#808080" fill-rule="evenodd" fill-opacity="1" /><path clip-path="url(#clip840)" d="M 0 0 M2148.71 323.358 Q2148.71 324.997 2147.89 325.876 Q2147.07 326.725 2145.96 326.725 Q2145.05 326.725 2144.55 326.198 Q2144.08 325.671 2144.08 324.968 Q2144.08 323.943 2144.9 323.123 Q2145.75 322.304 2146.98 322.274 Q2146.57 321.191 2145.49 320.547 Q2144.4 319.874 2143.44 319.698 Q2142.5 319.522 2141.56 319.522 Q2139.72 319.522 2138.32 320.108 Q2136.91 320.693 2136.21 321.601 Q2135.5 322.479 2135.18 323.328 Q2134.86 324.177 2134.86 324.909 Q2134.86 325.554 2135.01 326.081 Q2135.18 326.578 2135.59 326.959 Q2136 327.31 2136.29 327.544 Q2136.62 327.779 2137.32 327.984 Q2138.02 328.189 2138.32 328.276 Q2138.61 328.335 2139.43 328.511 Q2141.13 328.862 2141.89 329.067 Q2142.65 329.243 2143.64 329.74 Q2144.67 330.238 2145.43 331.029 Q2147.27 332.873 2147.27 335.42 Q2147.27 336.357 2146.95 337.499 Q2146.66 338.641 2145.81 340.075 Q2144.96 341.51 2143.67 342.652 Q2142.38 343.794 2140.16 344.584 Q2137.96 345.375 2135.21 345.375 Q2131.38 345.375 2129 343.765 Q2126.63 342.125 2126.63 339.548 Q2126.63 337.675 2127.66 336.65 Q2128.68 335.596 2130 335.596 Q2131 335.596 2131.61 336.152 Q2132.23 336.679 2132.23 337.675 Q2132.23 339.021 2131.14 340.046 Q2130.06 341.071 2128.45 340.866 Q2129.82 344.028 2135.27 344.028 Q2137.32 344.028 2138.9 343.501 Q2140.51 342.945 2141.39 342.184 Q2142.3 341.393 2142.88 340.427 Q2143.47 339.461 2143.64 338.729 Q2143.85 337.997 2143.85 337.44 Q2143.85 336.474 2143.47 335.742 Q2143.09 335.01 2142.56 334.6 Q2142.06 334.161 2141.1 333.81 Q2140.16 333.429 2139.49 333.283 Q2138.81 333.137 2137.61 332.902 Q2137.06 332.785 2136.7 332.727 Q2136.35 332.639 2135.62 332.405 Q2134.92 332.141 2134.42 331.878 Q2133.95 331.614 2133.34 331.146 Q2132.72 330.677 2132.34 330.121 Q2131.96 329.565 2131.7 328.745 Q2131.43 327.925 2131.43 326.959 Q2131.43 326.081 2131.7 325.027 Q2131.99 323.973 2132.72 322.743 Q2133.48 321.513 2134.57 320.518 Q2135.65 319.522 2137.47 318.878 Q2139.31 318.205 2141.56 318.205 Q2144.84 318.205 2146.78 319.727 Q2148.71 321.22 2148.71 323.358 Z" fill="#808080" fill-rule="evenodd" fill-opacity="1" /><path clip-path="url(#clip840)" d="M 0 0 M2154.47 329.711 Q2154.47 319.581 2158.24 311.412 Q2159.85 307.987 2162.11 305.117 Q2164.36 302.248 2165.85 300.989 Q2167.35 299.73 2167.76 299.73 Q2168.34 299.73 2168.37 300.316 Q2168.37 300.609 2167.58 301.341 Q2157.92 311.178 2157.95 329.711 Q2157.95 348.303 2167.35 357.759 Q2168.37 358.784 2168.37 359.106 Q2168.37 359.692 2167.76 359.692 Q2167.35 359.692 2165.91 358.491 Q2164.48 357.291 2162.25 354.539 Q2160.03 351.787 2158.42 348.42 Q2154.47 340.251 2154.47 329.711 Z" fill="#808080" fill-rule="evenodd" fill-opacity="1" /><path clip-path="url(#clip840)" d="M 0 0 M2207.35 322.157 Q2207.35 323.797 2206.32 324.734 Q2205.3 325.641 2204.13 325.641 Q2203.02 325.641 2202.43 324.997 Q2201.84 324.353 2201.84 323.533 Q2201.84 322.421 2202.66 321.455 Q2203.48 320.488 2204.71 320.284 Q2203.51 319.522 2201.73 319.522 Q2200.56 319.522 2199.53 320.137 Q2198.54 320.752 2197.92 321.542 Q2197.34 322.333 2196.81 323.475 Q2196.31 324.587 2196.11 325.261 Q2195.93 325.905 2195.78 326.608 L2193.73 334.805 Q2192.74 338.699 2192.74 340.075 Q2192.74 341.774 2193.56 342.915 Q2194.38 344.028 2196.02 344.028 Q2196.66 344.028 2197.39 343.852 Q2198.13 343.647 2199.06 343.12 Q2200.03 342.564 2200.88 341.744 Q2201.76 340.895 2202.61 339.461 Q2203.45 338.026 2204.01 336.182 Q2204.19 335.537 2204.77 335.537 Q2205.5 335.537 2205.5 336.123 Q2205.5 336.621 2205.09 337.675 Q2204.71 338.699 2203.86 340.046 Q2203.04 341.364 2201.96 342.564 Q2200.88 343.735 2199.27 344.555 Q2197.66 345.375 2195.9 345.375 Q2193.38 345.375 2191.71 344.028 Q2190.04 342.681 2189.43 340.807 Q2189.28 341.071 2189.08 341.422 Q2188.87 341.774 2188.26 342.564 Q2187.67 343.325 2187 343.911 Q2186.33 344.467 2185.27 344.906 Q2184.25 345.375 2183.14 345.375 Q2181.73 345.375 2180.47 344.965 Q2179.24 344.555 2178.36 343.618 Q2177.48 342.681 2177.48 341.393 Q2177.48 339.958 2178.45 338.963 Q2179.45 337.938 2180.79 337.938 Q2181.64 337.938 2182.32 338.436 Q2183.02 338.934 2183.02 340.017 Q2183.02 341.217 2182.2 342.125 Q2181.38 343.033 2180.21 343.267 Q2181.41 344.028 2183.19 344.028 Q2185.13 344.028 2186.65 342.33 Q2188.17 340.632 2188.9 337.792 Q2190.72 330.97 2191.42 327.925 Q2192.12 324.851 2192.12 323.533 Q2192.12 322.304 2191.8 321.455 Q2191.48 320.606 2190.92 320.225 Q2190.4 319.815 2189.9 319.669 Q2189.43 319.522 2188.9 319.522 Q2188.02 319.522 2187.03 319.874 Q2186.06 320.225 2184.89 321.045 Q2183.75 321.835 2182.67 323.475 Q2181.58 325.114 2180.85 327.369 Q2180.71 328.042 2180.06 328.042 Q2179.36 328.013 2179.36 327.427 Q2179.36 326.93 2179.74 325.905 Q2180.15 324.851 2180.97 323.533 Q2181.82 322.216 2182.9 321.045 Q2184.01 319.844 2185.62 319.025 Q2187.26 318.205 2189.02 318.205 Q2189.81 318.205 2190.57 318.38 Q2191.36 318.527 2192.3 318.966 Q2193.27 319.405 2194.11 320.371 Q2194.96 321.338 2195.49 322.743 Q2195.84 322.069 2196.31 321.425 Q2196.81 320.781 2197.57 319.991 Q2198.36 319.171 2199.44 318.703 Q2200.56 318.205 2201.79 318.205 Q2202.99 318.205 2204.16 318.527 Q2205.33 318.82 2206.32 319.786 Q2207.35 320.723 2207.35 322.157 Z" fill="#808080" fill-rule="evenodd" fill-opacity="1" /><path clip-path="url(#clip840)" d="M 0 0 M2211.43 359.106 Q2211.43 358.813 2212.2 358.081 Q2221.86 348.244 2221.86 329.711 Q2221.86 311.119 2212.58 301.721 Q2211.43 300.638 2211.43 300.316 Q2211.43 299.73 2212.02 299.73 Q2212.43 299.73 2213.86 300.931 Q2215.33 302.131 2217.52 304.883 Q2219.75 307.635 2221.39 311.002 Q2225.34 319.171 2225.34 329.711 Q2225.34 339.841 2221.56 348.01 Q2219.95 351.435 2217.7 354.305 Q2215.44 357.174 2213.95 358.433 Q2212.46 359.692 2212.02 359.692 Q2211.43 359.692 2211.43 359.106 Z" fill="#808080" fill-rule="evenodd" fill-opacity="1" /></svg>
