<?xml version="1.0" encoding="utf-8"?>
<svg xmlns="http://www.w3.org/2000/svg" xmlns:xlink="http://www.w3.org/1999/xlink" width="600" height="400" viewBox="0 0 2400 1600">
<defs>
  <clipPath id="clip620">
    <rect x="0" y="0" width="2400" height="1600"/>
  </clipPath>
</defs>
<path clip-path="url(#clip620)" d="
M0 1600 L2400 1600 L2400 0 L0 0  Z
  " fill="#ffffff" fill-rule="evenodd" fill-opacity="1"/>
<defs>
  <clipPath id="clip621">
    <rect x="480" y="0" width="1681" height="1600"/>
  </clipPath>
</defs>
<path clip-path="url(#clip620)" d="
M112.177 1486.45 L2352.76 1486.45 L2352.76 47.2441 L112.177 47.2441  Z
  " fill="#ffffff" fill-rule="evenodd" fill-opacity="1"/>
<defs>
  <clipPath id="clip622">
    <rect x="112" y="47" width="2242" height="1440"/>
  </clipPath>
</defs>
<polyline clip-path="url(#clip622)" style="stroke:#000000; stroke-width:2; stroke-opacity:0.1; fill:none" points="
  410.451,1486.45 410.451,47.2441 
  "/>
<polyline clip-path="url(#clip622)" style="stroke:#000000; stroke-width:2; stroke-opacity:0.1; fill:none" points="
  880.174,1486.45 880.174,47.2441 
  "/>
<polyline clip-path="url(#clip622)" style="stroke:#000000; stroke-width:2; stroke-opacity:0.1; fill:none" points="
  1349.9,1486.45 1349.9,47.2441 
  "/>
<polyline clip-path="url(#clip622)" style="stroke:#000000; stroke-width:2; stroke-opacity:0.1; fill:none" points="
  1819.62,1486.45 1819.62,47.2441 
  "/>
<polyline clip-path="url(#clip622)" style="stroke:#000000; stroke-width:2; stroke-opacity:0.1; fill:none" points="
  2289.34,1486.45 2289.34,47.2441 
  "/>
<polyline clip-path="url(#clip620)" style="stroke:#000000; stroke-width:4; stroke-opacity:1; fill:none" points="
  112.177,1486.45 2352.76,1486.45 
  "/>
<polyline clip-path="url(#clip620)" style="stroke:#000000; stroke-width:4; stroke-opacity:1; fill:none" points="
  410.451,1486.45 410.451,1469.18 
  "/>
<polyline clip-path="url(#clip620)" style="stroke:#000000; stroke-width:4; stroke-opacity:1; fill:none" points="
  880.174,1486.45 880.174,1469.18 
  "/>
<polyline clip-path="url(#clip620)" style="stroke:#000000; stroke-width:4; stroke-opacity:1; fill:none" points="
  1349.9,1486.45 1349.9,1469.18 
  "/>
<polyline clip-path="url(#clip620)" style="stroke:#000000; stroke-width:4; stroke-opacity:1; fill:none" points="
  1819.62,1486.45 1819.62,1469.18 
  "/>
<polyline clip-path="url(#clip620)" style="stroke:#000000; stroke-width:4; stroke-opacity:1; fill:none" points="
  2289.34,1486.45 2289.34,1469.18 
  "/>
<path clip-path="url(#clip620)" d="M 0 0 M405.104 1543.18 L421.423 1543.18 L421.423 1547.12 L399.479 1547.12 L399.479 1543.18 Q402.141 1540.43 406.724 1535.8 Q411.331 1531.15 412.511 1529.81 Q414.757 1527.28 415.636 1525.55 Q416.539 1523.79 416.539 1522.1 Q416.539 1519.34 414.595 1517.61 Q412.673 1515.87 409.572 1515.87 Q407.373 1515.87 404.919 1516.63 Q402.488 1517.4 399.711 1518.95 L399.711 1514.23 Q402.535 1513.09 404.988 1512.51 Q407.442 1511.93 409.479 1511.93 Q414.849 1511.93 418.044 1514.62 Q421.238 1517.31 421.238 1521.8 Q421.238 1523.93 420.428 1525.85 Q419.641 1527.74 417.535 1530.34 Q416.956 1531.01 413.854 1534.23 Q410.752 1537.42 405.104 1543.18 Z" fill="#000000" fill-rule="evenodd" fill-opacity="1" /><path clip-path="url(#clip620)" d="M 0 0 M883.184 1516.63 L871.378 1535.08 L883.184 1535.08 L883.184 1516.63 M881.957 1512.56 L887.836 1512.56 L887.836 1535.08 L892.767 1535.08 L892.767 1538.97 L887.836 1538.97 L887.836 1547.12 L883.184 1547.12 L883.184 1538.97 L867.582 1538.97 L867.582 1534.46 L881.957 1512.56 Z" fill="#000000" fill-rule="evenodd" fill-opacity="1" /><path clip-path="url(#clip620)" d="M 0 0 M1350.3 1527.98 Q1347.15 1527.98 1345.3 1530.13 Q1343.47 1532.28 1343.47 1536.03 Q1343.47 1539.76 1345.3 1541.93 Q1347.15 1544.09 1350.3 1544.09 Q1353.45 1544.09 1355.28 1541.93 Q1357.13 1539.76 1357.13 1536.03 Q1357.13 1532.28 1355.28 1530.13 Q1353.45 1527.98 1350.3 1527.98 M1359.58 1513.32 L1359.58 1517.58 Q1357.83 1516.75 1356.02 1516.31 Q1354.24 1515.87 1352.48 1515.87 Q1347.85 1515.87 1345.4 1519 Q1342.96 1522.12 1342.62 1528.44 Q1343.98 1526.43 1346.04 1525.36 Q1348.1 1524.27 1350.58 1524.27 Q1355.79 1524.27 1358.8 1527.44 Q1361.83 1530.59 1361.83 1536.03 Q1361.83 1541.36 1358.68 1544.57 Q1355.53 1547.79 1350.3 1547.79 Q1344.31 1547.79 1341.14 1543.21 Q1337.96 1538.6 1337.96 1529.87 Q1337.96 1521.68 1341.85 1516.82 Q1345.74 1511.93 1352.29 1511.93 Q1354.05 1511.93 1355.83 1512.28 Q1357.64 1512.63 1359.58 1513.32 Z" fill="#000000" fill-rule="evenodd" fill-opacity="1" /><path clip-path="url(#clip620)" d="M 0 0 M1819.62 1530.71 Q1816.29 1530.71 1814.37 1532.49 Q1812.47 1534.27 1812.47 1537.4 Q1812.47 1540.52 1814.37 1542.31 Q1816.29 1544.09 1819.62 1544.09 Q1822.95 1544.09 1824.87 1542.31 Q1826.8 1540.5 1826.8 1537.4 Q1826.8 1534.27 1824.87 1532.49 Q1822.98 1530.71 1819.62 1530.71 M1814.94 1528.72 Q1811.94 1527.98 1810.25 1525.92 Q1808.58 1523.86 1808.58 1520.89 Q1808.58 1516.75 1811.52 1514.34 Q1814.48 1511.93 1819.62 1511.93 Q1824.78 1511.93 1827.72 1514.34 Q1830.66 1516.75 1830.66 1520.89 Q1830.66 1523.86 1828.97 1525.92 Q1827.31 1527.98 1824.32 1528.72 Q1827.7 1529.5 1829.57 1531.8 Q1831.47 1534.09 1831.47 1537.4 Q1831.47 1542.42 1828.39 1545.11 Q1825.34 1547.79 1819.62 1547.79 Q1813.9 1547.79 1810.82 1545.11 Q1807.77 1542.42 1807.77 1537.4 Q1807.77 1534.09 1809.67 1531.8 Q1811.56 1529.5 1814.94 1528.72 M1813.23 1521.33 Q1813.23 1524.02 1814.9 1525.52 Q1816.59 1527.03 1819.62 1527.03 Q1822.63 1527.03 1824.32 1525.52 Q1826.03 1524.02 1826.03 1521.33 Q1826.03 1518.65 1824.32 1517.14 Q1822.63 1515.64 1819.62 1515.64 Q1816.59 1515.64 1814.9 1517.14 Q1813.23 1518.65 1813.23 1521.33 Z" fill="#000000" fill-rule="evenodd" fill-opacity="1" /><path clip-path="url(#clip620)" d="M 0 0 M2266.22 1543.18 L2273.86 1543.18 L2273.86 1516.82 L2265.55 1518.49 L2265.55 1514.23 L2273.81 1512.56 L2278.49 1512.56 L2278.49 1543.18 L2286.13 1543.18 L2286.13 1547.12 L2266.22 1547.12 L2266.22 1543.18 Z" fill="#000000" fill-rule="evenodd" fill-opacity="1" /><path clip-path="url(#clip620)" d="M 0 0 M2301.2 1515.64 Q2297.58 1515.64 2295.76 1519.2 Q2293.95 1522.75 2293.95 1529.87 Q2293.95 1536.98 2295.76 1540.55 Q2297.58 1544.09 2301.2 1544.09 Q2304.83 1544.09 2306.63 1540.55 Q2308.46 1536.98 2308.46 1529.87 Q2308.46 1522.75 2306.63 1519.2 Q2304.83 1515.64 2301.2 1515.64 M2301.2 1511.93 Q2307.01 1511.93 2310.06 1516.54 Q2313.14 1521.12 2313.14 1529.87 Q2313.14 1538.6 2310.06 1543.21 Q2307.01 1547.79 2301.2 1547.79 Q2295.38 1547.79 2292.31 1543.21 Q2289.25 1538.6 2289.25 1529.87 Q2289.25 1521.12 2292.31 1516.54 Q2295.38 1511.93 2301.2 1511.93 Z" fill="#000000" fill-rule="evenodd" fill-opacity="1" /><polyline clip-path="url(#clip622)" style="stroke:#000000; stroke-width:2; stroke-opacity:0.1; fill:none" points="
  112.177,1175.9 2352.76,1175.9 
  "/>
<polyline clip-path="url(#clip622)" style="stroke:#000000; stroke-width:2; stroke-opacity:0.1; fill:none" points="
  112.177,859.969 2352.76,859.969 
  "/>
<polyline clip-path="url(#clip622)" style="stroke:#000000; stroke-width:2; stroke-opacity:0.1; fill:none" points="
  112.177,544.039 2352.76,544.039 
  "/>
<polyline clip-path="url(#clip622)" style="stroke:#000000; stroke-width:2; stroke-opacity:0.1; fill:none" points="
  112.177,228.109 2352.76,228.109 
  "/>
<polyline clip-path="url(#clip620)" style="stroke:#000000; stroke-width:4; stroke-opacity:1; fill:none" points="
  112.177,1486.45 112.177,47.2441 
  "/>
<polyline clip-path="url(#clip620)" style="stroke:#000000; stroke-width:4; stroke-opacity:1; fill:none" points="
  112.177,1175.9 139.064,1175.9 
  "/>
<polyline clip-path="url(#clip620)" style="stroke:#000000; stroke-width:4; stroke-opacity:1; fill:none" points="
  112.177,859.969 139.064,859.969 
  "/>
<polyline clip-path="url(#clip620)" style="stroke:#000000; stroke-width:4; stroke-opacity:1; fill:none" points="
  112.177,544.039 139.064,544.039 
  "/>
<polyline clip-path="url(#clip620)" style="stroke:#000000; stroke-width:4; stroke-opacity:1; fill:none" points="
  112.177,228.109 139.064,228.109 
  "/>
<path clip-path="url(#clip620)" d="M 0 0 M59.8578 1189.24 L76.1772 1189.24 L76.1772 1193.18 L54.2328 1193.18 L54.2328 1189.24 Q56.8949 1186.49 61.4782 1181.86 Q66.0846 1177.21 67.2652 1175.86 Q69.5105 1173.34 70.3902 1171.6 Q71.2929 1169.85 71.2929 1168.16 Q71.2929 1165.4 69.3485 1163.67 Q67.4272 1161.93 64.3254 1161.93 Q62.1263 1161.93 59.6726 1162.69 Q57.2421 1163.46 54.4643 1165.01 L54.4643 1160.29 Q57.2884 1159.15 59.7421 1158.57 Q62.1958 1157.99 64.2328 1157.99 Q69.6031 1157.99 72.7976 1160.68 Q75.992 1163.36 75.992 1167.85 Q75.992 1169.98 75.1818 1171.91 Q74.3948 1173.8 72.2883 1176.4 Q71.7096 1177.07 68.6078 1180.29 Q65.5059 1183.48 59.8578 1189.24 Z" fill="#000000" fill-rule="evenodd" fill-opacity="1" /><path clip-path="url(#clip620)" d="M 0 0 M66.5939 846.763 L54.7884 865.212 L66.5939 865.212 L66.5939 846.763 M65.367 842.689 L71.2466 842.689 L71.2466 865.212 L76.1772 865.212 L76.1772 869.101 L71.2466 869.101 L71.2466 877.249 L66.5939 877.249 L66.5939 869.101 L50.9921 869.101 L50.9921 864.587 L65.367 842.689 Z" fill="#000000" fill-rule="evenodd" fill-opacity="1" /><path clip-path="url(#clip620)" d="M 0 0 M64.6495 542.176 Q61.5013 542.176 59.6495 544.329 Q57.8208 546.481 57.8208 550.231 Q57.8208 553.958 59.6495 556.134 Q61.5013 558.287 64.6495 558.287 Q67.7976 558.287 69.6263 556.134 Q71.4781 553.958 71.4781 550.231 Q71.4781 546.481 69.6263 544.329 Q67.7976 542.176 64.6495 542.176 M73.9318 527.523 L73.9318 531.782 Q72.1726 530.949 70.367 530.509 Q68.5846 530.069 66.8254 530.069 Q62.1958 530.069 59.7421 533.194 Q57.3115 536.319 56.9643 542.639 Q58.33 540.625 60.3902 539.56 Q62.4504 538.472 64.9272 538.472 Q70.1355 538.472 73.1448 541.643 Q76.1772 544.792 76.1772 550.231 Q76.1772 555.555 73.029 558.773 Q69.8809 561.991 64.6495 561.991 Q58.6541 561.991 55.4828 557.407 Q52.3116 552.801 52.3116 544.074 Q52.3116 535.88 56.2004 531.018 Q60.0893 526.134 66.6402 526.134 Q68.3994 526.134 70.1818 526.481 Q71.9874 526.829 73.9318 527.523 Z" fill="#000000" fill-rule="evenodd" fill-opacity="1" /><path clip-path="url(#clip620)" d="M 0 0 M64.3254 228.977 Q60.9921 228.977 59.0708 230.76 Q57.1726 232.542 57.1726 235.667 Q57.1726 238.792 59.0708 240.575 Q60.9921 242.357 64.3254 242.357 Q67.6587 242.357 69.58 240.575 Q71.5013 238.769 71.5013 235.667 Q71.5013 232.542 69.58 230.76 Q67.6819 228.977 64.3254 228.977 M59.6495 226.987 Q56.6402 226.246 54.9504 224.186 Q53.2838 222.126 53.2838 219.163 Q53.2838 215.019 56.2236 212.612 Q59.1865 210.204 64.3254 210.204 Q69.4874 210.204 72.4272 212.612 Q75.367 215.019 75.367 219.163 Q75.367 222.126 73.6772 224.186 Q72.0105 226.246 69.0244 226.987 Q72.404 227.774 74.279 230.065 Q76.1772 232.357 76.1772 235.667 Q76.1772 240.69 73.0985 243.375 Q70.0429 246.061 64.3254 246.061 Q58.6078 246.061 55.5291 243.375 Q52.4736 240.69 52.4736 235.667 Q52.4736 232.357 54.3717 230.065 Q56.2699 227.774 59.6495 226.987 M57.9365 219.602 Q57.9365 222.288 59.6032 223.792 Q61.293 225.297 64.3254 225.297 Q67.3346 225.297 69.0244 223.792 Q70.7374 222.288 70.7374 219.602 Q70.7374 216.917 69.0244 215.413 Q67.3346 213.908 64.3254 213.908 Q61.293 213.908 59.6032 215.413 Q57.9365 216.917 57.9365 219.602 Z" fill="#000000" fill-rule="evenodd" fill-opacity="1" /><polyline clip-path="url(#clip622)" style="stroke:#009af9; stroke-width:4; stroke-opacity:1; fill:none" points="
  175.59,899.077 410.451,804.914 645.313,570.882 880.174,732.679 1115.04,695.771 1349.9,406.705 1584.76,1009.99 1819.62,742.988 2054.48,863.398 2289.34,757.249 
  
  "/>
<polyline clip-path="url(#clip622)" style="stroke:#e26f46; stroke-width:4; stroke-opacity:1; fill:none" points="
  175.59,1169 410.451,552.555 645.313,179.855 880.174,446.329 1115.04,87.9763 1349.9,874.17 1584.76,725.679 1819.62,1445.72 2054.48,757.869 2289.34,944.789 
  
  "/>
<path clip-path="url(#clip620)" d="
M2005.92 276.658 L2278.07 276.658 L2278.07 95.2176 L2005.92 95.2176  Z
  " fill="#ffffff" fill-rule="evenodd" fill-opacity="1"/>
<polyline clip-path="url(#clip620)" style="stroke:#000000; stroke-width:4; stroke-opacity:1; fill:none" points="
  2005.92,276.658 2278.07,276.658 2278.07,95.2176 2005.92,95.2176 2005.92,276.658 
  "/>
<polyline clip-path="url(#clip620)" style="stroke:#009af9; stroke-width:4; stroke-opacity:1; fill:none" points="
  2030.82,155.698 2180.19,155.698 
  "/>
<path clip-path="url(#clip620)" d="M 0 0 M2223.86 160.038 Q2223.86 155.339 2221.91 152.677 Q2219.99 149.992 2216.61 149.992 Q2213.23 149.992 2211.29 152.677 Q2209.37 155.339 2209.37 160.038 Q2209.37 164.737 2211.29 167.422 Q2213.23 170.084 2216.61 170.084 Q2219.99 170.084 2221.91 167.422 Q2223.86 164.737 2223.86 160.038 M2209.37 150.987 Q2210.71 148.672 2212.75 147.561 Q2214.81 146.427 2217.65 146.427 Q2222.38 146.427 2225.32 150.177 Q2228.28 153.927 2228.28 160.038 Q2228.28 166.149 2225.32 169.899 Q2222.38 173.649 2217.65 173.649 Q2214.81 173.649 2212.75 172.538 Q2210.71 171.403 2209.37 169.089 L2209.37 172.978 L2205.08 172.978 L2205.08 136.959 L2209.37 136.959 L2209.37 150.987 Z" fill="#000000" fill-rule="evenodd" fill-opacity="1" /><polyline clip-path="url(#clip620)" style="stroke:#e26f46; stroke-width:4; stroke-opacity:1; fill:none" points="
  2030.82,216.178 2180.19,216.178 
  "/>
<path clip-path="url(#clip620)" d="M 0 0 M2225.59 208.527 L2225.59 212.509 Q2223.79 211.513 2221.96 211.027 Q2220.15 210.518 2218.3 210.518 Q2214.16 210.518 2211.87 213.157 Q2209.58 215.772 2209.58 220.518 Q2209.58 225.263 2211.87 227.902 Q2214.16 230.518 2218.3 230.518 Q2220.15 230.518 2221.96 230.032 Q2223.79 229.522 2225.59 228.527 L2225.59 232.462 Q2223.81 233.296 2221.89 233.712 Q2219.99 234.129 2217.84 234.129 Q2211.98 234.129 2208.53 230.448 Q2205.08 226.768 2205.08 220.518 Q2205.08 214.175 2208.56 210.541 Q2212.05 206.907 2218.12 206.907 Q2220.08 206.907 2221.96 207.323 Q2223.83 207.717 2225.59 208.527 Z" fill="#000000" fill-rule="evenodd" fill-opacity="1" /></svg>
