<?xml version="1.0" encoding="utf-8"?>
<svg xmlns="http://www.w3.org/2000/svg" xmlns:xlink="http://www.w3.org/1999/xlink" width="600" height="400" viewBox="0 0 2400 1600">
<defs>
  <clipPath id="clip960">
    <rect x="0" y="0" width="2400" height="1600"/>
  </clipPath>
</defs>
<path clip-path="url(#clip960)" d="
M0 1600 L2400 1600 L2400 0 L0 0  Z
  " fill="#ffffff" fill-rule="evenodd" fill-opacity="1"/>
<defs>
  <clipPath id="clip961">
    <rect x="480" y="0" width="1681" height="1600"/>
  </clipPath>
</defs>
<path clip-path="url(#clip960)" d="
M185.846 1482.13 L2352.76 1482.13 L2352.76 149.392 L185.846 149.392  Z
  " fill="#ffffff" fill-rule="evenodd" fill-opacity="1"/>
<defs>
  <clipPath id="clip962">
    <rect x="185" y="149" width="2168" height="1334"/>
  </clipPath>
</defs>
<polyline clip-path="url(#clip962)" style="stroke:#000000; stroke-width:2; stroke-opacity:0.1; fill:none" points="
  677.543,1482.13 677.543,149.392 
  "/>
<polyline clip-path="url(#clip962)" style="stroke:#000000; stroke-width:2; stroke-opacity:0.1; fill:none" points="
  1215.5,1482.13 1215.5,149.392 
  "/>
<polyline clip-path="url(#clip962)" style="stroke:#000000; stroke-width:2; stroke-opacity:0.1; fill:none" points="
  1753.47,1482.13 1753.47,149.392 
  "/>
<polyline clip-path="url(#clip962)" style="stroke:#000000; stroke-width:2; stroke-opacity:0.1; fill:none" points="
  2291.43,1482.13 2291.43,149.392 
  "/>
<polyline clip-path="url(#clip960)" style="stroke:#000000; stroke-width:4; stroke-opacity:1; fill:none" points="
  185.846,1482.13 2352.76,1482.13 
  "/>
<polyline clip-path="url(#clip960)" style="stroke:#000000; stroke-width:4; stroke-opacity:1; fill:none" points="
  677.543,1482.13 677.543,1466.14 
  "/>
<polyline clip-path="url(#clip960)" style="stroke:#000000; stroke-width:4; stroke-opacity:1; fill:none" points="
  1215.5,1482.13 1215.5,1466.14 
  "/>
<polyline clip-path="url(#clip960)" style="stroke:#000000; stroke-width:4; stroke-opacity:1; fill:none" points="
  1753.47,1482.13 1753.47,1466.14 
  "/>
<polyline clip-path="url(#clip960)" style="stroke:#000000; stroke-width:4; stroke-opacity:1; fill:none" points="
  2291.43,1482.13 2291.43,1466.14 
  "/>
<path clip-path="url(#clip960)" d="M 0 0 M666.605 1509.1 L687.256 1509.1 L687.256 1513.53 L671.423 1513.53 L671.423 1523.06 Q672.569 1522.67 673.715 1522.49 Q674.861 1522.28 676.006 1522.28 Q682.517 1522.28 686.319 1525.85 Q690.121 1529.42 690.121 1535.51 Q690.121 1541.79 686.215 1545.28 Q682.308 1548.74 675.199 1548.74 Q672.751 1548.74 670.199 1548.32 Q667.673 1547.91 664.965 1547.07 L664.965 1541.79 Q667.309 1543.06 669.809 1543.69 Q672.309 1544.31 675.095 1544.31 Q679.6 1544.31 682.23 1541.94 Q684.861 1539.57 684.861 1535.51 Q684.861 1531.45 682.23 1529.08 Q679.6 1526.71 675.095 1526.71 Q672.986 1526.71 670.876 1527.18 Q668.793 1527.65 666.605 1528.64 L666.605 1509.1 Z" fill="#bebebe" fill-rule="evenodd" fill-opacity="1" /><path clip-path="url(#clip960)" d="M 0 0 M1189.49 1543.56 L1198.08 1543.56 L1198.08 1513.9 L1188.73 1515.77 L1188.73 1510.98 L1198.03 1509.1 L1203.29 1509.1 L1203.29 1543.56 L1211.88 1543.56 L1211.88 1547.98 L1189.49 1547.98 L1189.49 1543.56 Z" fill="#bebebe" fill-rule="evenodd" fill-opacity="1" /><path clip-path="url(#clip960)" d="M 0 0 M1228.84 1512.57 Q1224.78 1512.57 1222.72 1516.58 Q1220.69 1520.56 1220.69 1528.58 Q1220.69 1536.58 1222.72 1540.59 Q1224.78 1544.57 1228.84 1544.57 Q1232.93 1544.57 1234.96 1540.59 Q1237.01 1536.58 1237.01 1528.58 Q1237.01 1520.56 1234.96 1516.58 Q1232.93 1512.57 1228.84 1512.57 M1228.84 1508.4 Q1235.37 1508.4 1238.81 1513.58 Q1242.28 1518.74 1242.28 1528.58 Q1242.28 1538.4 1238.81 1543.58 Q1235.37 1548.74 1228.84 1548.74 Q1222.3 1548.74 1218.84 1543.58 Q1215.4 1538.4 1215.4 1528.58 Q1215.4 1518.74 1218.84 1513.58 Q1222.3 1508.4 1228.84 1508.4 Z" fill="#bebebe" fill-rule="evenodd" fill-opacity="1" /><path clip-path="url(#clip960)" d="M 0 0 M1728.01 1543.56 L1736.6 1543.56 L1736.6 1513.9 L1727.26 1515.77 L1727.26 1510.98 L1736.55 1509.1 L1741.81 1509.1 L1741.81 1543.56 L1750.41 1543.56 L1750.41 1547.98 L1728.01 1547.98 L1728.01 1543.56 Z" fill="#bebebe" fill-rule="evenodd" fill-opacity="1" /><path clip-path="url(#clip960)" d="M 0 0 M1756.16 1509.1 L1776.81 1509.1 L1776.81 1513.53 L1760.98 1513.53 L1760.98 1523.06 Q1762.13 1522.67 1763.27 1522.49 Q1764.42 1522.28 1765.56 1522.28 Q1772.07 1522.28 1775.88 1525.85 Q1779.68 1529.42 1779.68 1535.51 Q1779.68 1541.79 1775.77 1545.28 Q1771.86 1548.74 1764.76 1548.74 Q1762.31 1548.74 1759.76 1548.32 Q1757.23 1547.91 1754.52 1547.07 L1754.52 1541.79 Q1756.86 1543.06 1759.36 1543.69 Q1761.86 1544.31 1764.65 1544.31 Q1769.16 1544.31 1771.79 1541.94 Q1774.42 1539.57 1774.42 1535.51 Q1774.42 1531.45 1771.79 1529.08 Q1769.16 1526.71 1764.65 1526.71 Q1762.54 1526.71 1760.43 1527.18 Q1758.35 1527.65 1756.16 1528.64 L1756.16 1509.1 Z" fill="#bebebe" fill-rule="evenodd" fill-opacity="1" /><path clip-path="url(#clip960)" d="M 0 0 M2270.22 1543.56 L2288.58 1543.56 L2288.58 1547.98 L2263.89 1547.98 L2263.89 1543.56 Q2266.88 1540.46 2272.04 1535.25 Q2277.22 1530.02 2278.55 1528.5 Q2281.08 1525.67 2282.07 1523.71 Q2283.08 1521.73 2283.08 1519.83 Q2283.08 1516.73 2280.89 1514.78 Q2278.73 1512.83 2275.24 1512.83 Q2272.77 1512.83 2270.01 1513.69 Q2267.27 1514.55 2264.15 1516.29 L2264.15 1510.98 Q2267.33 1509.7 2270.09 1509.05 Q2272.85 1508.4 2275.14 1508.4 Q2281.18 1508.4 2284.77 1511.42 Q2288.37 1514.44 2288.37 1519.49 Q2288.37 1521.89 2287.46 1524.05 Q2286.57 1526.19 2284.2 1529.1 Q2283.55 1529.86 2280.06 1533.48 Q2276.57 1537.07 2270.22 1543.56 Z" fill="#bebebe" fill-rule="evenodd" fill-opacity="1" /><path clip-path="url(#clip960)" d="M 0 0 M2305.53 1512.57 Q2301.47 1512.57 2299.41 1516.58 Q2297.38 1520.56 2297.38 1528.58 Q2297.38 1536.58 2299.41 1540.59 Q2301.47 1544.57 2305.53 1544.57 Q2309.62 1544.57 2311.65 1540.59 Q2313.71 1536.58 2313.71 1528.58 Q2313.71 1520.56 2311.65 1516.58 Q2309.62 1512.57 2305.53 1512.57 M2305.53 1508.4 Q2312.07 1508.4 2315.5 1513.58 Q2318.97 1518.74 2318.97 1528.58 Q2318.97 1538.4 2315.5 1543.58 Q2312.07 1548.74 2305.53 1548.74 Q2298.99 1548.74 2295.53 1543.58 Q2292.09 1538.4 2292.09 1528.58 Q2292.09 1518.74 2295.53 1513.58 Q2298.99 1508.4 2305.53 1508.4 Z" fill="#bebebe" fill-rule="evenodd" fill-opacity="1" /><polyline clip-path="url(#clip962)" style="stroke:#000000; stroke-width:2; stroke-opacity:0.1; fill:none" points="
  185.846,1466.01 2352.76,1466.01 
  "/>
<polyline clip-path="url(#clip962)" style="stroke:#000000; stroke-width:2; stroke-opacity:0.1; fill:none" points="
  185.846,1143.35 2352.76,1143.35 
  "/>
<polyline clip-path="url(#clip962)" style="stroke:#000000; stroke-width:2; stroke-opacity:0.1; fill:none" points="
  185.846,820.693 2352.76,820.693 
  "/>
<polyline clip-path="url(#clip962)" style="stroke:#000000; stroke-width:2; stroke-opacity:0.1; fill:none" points="
  185.846,498.033 2352.76,498.033 
  "/>
<polyline clip-path="url(#clip962)" style="stroke:#000000; stroke-width:2; stroke-opacity:0.1; fill:none" points="
  185.846,175.374 2352.76,175.374 
  "/>
<polyline clip-path="url(#clip960)" style="stroke:#000000; stroke-width:4; stroke-opacity:1; fill:none" points="
  185.846,1482.13 185.846,149.392 
  "/>
<polyline clip-path="url(#clip960)" style="stroke:#000000; stroke-width:4; stroke-opacity:1; fill:none" points="
  185.846,1466.01 211.849,1466.01 
  "/>
<polyline clip-path="url(#clip960)" style="stroke:#000000; stroke-width:4; stroke-opacity:1; fill:none" points="
  185.846,1143.35 211.849,1143.35 
  "/>
<polyline clip-path="url(#clip960)" style="stroke:#000000; stroke-width:4; stroke-opacity:1; fill:none" points="
  185.846,820.693 211.849,820.693 
  "/>
<polyline clip-path="url(#clip960)" style="stroke:#000000; stroke-width:4; stroke-opacity:1; fill:none" points="
  185.846,498.033 211.849,498.033 
  "/>
<polyline clip-path="url(#clip960)" style="stroke:#000000; stroke-width:4; stroke-opacity:1; fill:none" points="
  185.846,175.374 211.849,175.374 
  "/>
<path clip-path="url(#clip960)" d="M 0 0 M64.4296 1450.04 Q60.3671 1450.04 58.3098 1454.05 Q56.2786 1458.03 56.2786 1466.05 Q56.2786 1474.05 58.3098 1478.06 Q60.3671 1482.04 64.4296 1482.04 Q68.5181 1482.04 70.5493 1478.06 Q72.6066 1474.05 72.6066 1466.05 Q72.6066 1458.03 70.5493 1454.05 Q68.5181 1450.04 64.4296 1450.04 M64.4296 1445.87 Q70.966 1445.87 74.4035 1451.05 Q77.867 1456.21 77.867 1466.05 Q77.867 1475.87 74.4035 1481.05 Q70.966 1486.21 64.4296 1486.21 Q57.8931 1486.21 54.4296 1481.05 Q50.9921 1475.87 50.9921 1466.05 Q50.9921 1456.21 54.4296 1451.05 Q57.8931 1445.87 64.4296 1445.87 Z" fill="#bebebe" fill-rule="evenodd" fill-opacity="1" /><path clip-path="url(#clip960)" d="M 0 0 M83.5701 1478.84 L89.0648 1478.84 L89.0648 1485.45 L83.5701 1485.45 L83.5701 1478.84 Z" fill="#bebebe" fill-rule="evenodd" fill-opacity="1" /><path clip-path="url(#clip960)" d="M 0 0 M106.018 1450.04 Q101.955 1450.04 99.8981 1454.05 Q97.8669 1458.03 97.8669 1466.05 Q97.8669 1474.05 99.8981 1478.06 Q101.955 1482.04 106.018 1482.04 Q110.106 1482.04 112.138 1478.06 Q114.195 1474.05 114.195 1466.05 Q114.195 1458.03 112.138 1454.05 Q110.106 1450.04 106.018 1450.04 M106.018 1445.87 Q112.554 1445.87 115.992 1451.05 Q119.455 1456.21 119.455 1466.05 Q119.455 1475.87 115.992 1481.05 Q112.554 1486.21 106.018 1486.21 Q99.4814 1486.21 96.0179 1481.05 Q92.5804 1475.87 92.5804 1466.05 Q92.5804 1456.21 96.0179 1451.05 Q99.4814 1445.87 106.018 1445.87 Z" fill="#bebebe" fill-rule="evenodd" fill-opacity="1" /><path clip-path="url(#clip960)" d="M 0 0 M136.408 1450.04 Q132.346 1450.04 130.289 1454.05 Q128.257 1458.03 128.257 1466.05 Q128.257 1474.05 130.289 1478.06 Q132.346 1482.04 136.408 1482.04 Q140.497 1482.04 142.528 1478.06 Q144.585 1474.05 144.585 1466.05 Q144.585 1458.03 142.528 1454.05 Q140.497 1450.04 136.408 1450.04 M136.408 1445.87 Q142.945 1445.87 146.382 1451.05 Q149.846 1456.21 149.846 1466.05 Q149.846 1475.87 146.382 1481.05 Q142.945 1486.21 136.408 1486.21 Q129.872 1486.21 126.408 1481.05 Q122.971 1475.87 122.971 1466.05 Q122.971 1456.21 126.408 1451.05 Q129.872 1445.87 136.408 1445.87 Z" fill="#bebebe" fill-rule="evenodd" fill-opacity="1" /><path clip-path="url(#clip960)" d="M 0 0 M67.3462 1127.38 Q63.2837 1127.38 61.2264 1131.39 Q59.1952 1135.37 59.1952 1143.39 Q59.1952 1151.39 61.2264 1155.4 Q63.2837 1159.38 67.3462 1159.38 Q71.4347 1159.38 73.466 1155.4 Q75.5232 1151.39 75.5232 1143.39 Q75.5232 1135.37 73.466 1131.39 Q71.4347 1127.38 67.3462 1127.38 M67.3462 1123.21 Q73.8826 1123.21 77.3201 1128.39 Q80.7836 1133.55 80.7836 1143.39 Q80.7836 1153.21 77.3201 1158.39 Q73.8826 1163.55 67.3462 1163.55 Q60.8098 1163.55 57.3463 1158.39 Q53.9088 1153.21 53.9088 1143.39 Q53.9088 1133.55 57.3463 1128.39 Q60.8098 1123.21 67.3462 1123.21 Z" fill="#bebebe" fill-rule="evenodd" fill-opacity="1" /><path clip-path="url(#clip960)" d="M 0 0 M86.4867 1156.18 L91.9815 1156.18 L91.9815 1162.79 L86.4867 1162.79 L86.4867 1156.18 Z" fill="#bebebe" fill-rule="evenodd" fill-opacity="1" /><path clip-path="url(#clip960)" d="M 0 0 M102.216 1158.37 L120.575 1158.37 L120.575 1162.79 L95.8877 1162.79 L95.8877 1158.37 Q98.8825 1155.27 104.039 1150.06 Q109.221 1144.82 110.549 1143.31 Q113.075 1140.47 114.065 1138.52 Q115.08 1136.54 115.08 1134.64 Q115.08 1131.54 112.893 1129.59 Q110.731 1127.64 107.242 1127.64 Q104.768 1127.64 102.007 1128.5 Q99.2731 1129.35 96.1481 1131.1 L96.1481 1125.79 Q99.3252 1124.51 102.086 1123.86 Q104.846 1123.21 107.138 1123.21 Q113.179 1123.21 116.773 1126.23 Q120.367 1129.25 120.367 1134.3 Q120.367 1136.7 119.455 1138.86 Q118.57 1141 116.2 1143.91 Q115.549 1144.67 112.06 1148.29 Q108.57 1151.88 102.216 1158.37 Z" fill="#bebebe" fill-rule="evenodd" fill-opacity="1" /><path clip-path="url(#clip960)" d="M 0 0 M126.33 1123.91 L146.981 1123.91 L146.981 1128.34 L131.148 1128.34 L131.148 1137.87 Q132.294 1137.48 133.44 1137.3 Q134.585 1137.09 135.731 1137.09 Q142.242 1137.09 146.044 1140.66 Q149.846 1144.22 149.846 1150.32 Q149.846 1156.59 145.94 1160.08 Q142.033 1163.55 134.924 1163.55 Q132.476 1163.55 129.924 1163.13 Q127.398 1162.71 124.69 1161.88 L124.69 1156.59 Q127.033 1157.87 129.533 1158.5 Q132.033 1159.12 134.82 1159.12 Q139.325 1159.12 141.955 1156.75 Q144.585 1154.38 144.585 1150.32 Q144.585 1146.26 141.955 1143.89 Q139.325 1141.52 134.82 1141.52 Q132.71 1141.52 130.601 1141.98 Q128.518 1142.45 126.33 1143.44 L126.33 1123.91 Z" fill="#bebebe" fill-rule="evenodd" fill-opacity="1" /><path clip-path="url(#clip960)" d="M 0 0 M65.5493 804.716 Q61.4869 804.716 59.4296 808.727 Q57.3983 812.711 57.3983 820.732 Q57.3983 828.726 59.4296 832.737 Q61.4869 836.721 65.5493 836.721 Q69.6379 836.721 71.6691 832.737 Q73.7264 828.726 73.7264 820.732 Q73.7264 812.711 71.6691 808.727 Q69.6379 804.716 65.5493 804.716 M65.5493 800.549 Q72.0858 800.549 75.5232 805.732 Q78.9868 810.888 78.9868 820.732 Q78.9868 830.549 75.5232 835.732 Q72.0858 840.888 65.5493 840.888 Q59.0129 840.888 55.5494 835.732 Q52.1119 830.549 52.1119 820.732 Q52.1119 810.888 55.5494 805.732 Q59.0129 800.549 65.5493 800.549 Z" fill="#bebebe" fill-rule="evenodd" fill-opacity="1" /><path clip-path="url(#clip960)" d="M 0 0 M84.6899 833.518 L90.1846 833.518 L90.1846 840.133 L84.6899 840.133 L84.6899 833.518 Z" fill="#bebebe" fill-rule="evenodd" fill-opacity="1" /><path clip-path="url(#clip960)" d="M 0 0 M95.9398 801.253 L116.591 801.253 L116.591 805.68 L100.757 805.68 L100.757 815.211 Q101.903 814.82 103.049 814.638 Q104.195 814.43 105.341 814.43 Q111.851 814.43 115.653 817.997 Q119.455 821.565 119.455 827.659 Q119.455 833.935 115.549 837.424 Q111.643 840.888 104.534 840.888 Q102.086 840.888 99.5335 840.471 Q97.0075 840.054 94.2992 839.221 L94.2992 833.935 Q96.6429 835.211 99.1429 835.836 Q101.643 836.461 104.429 836.461 Q108.935 836.461 111.565 834.091 Q114.195 831.721 114.195 827.659 Q114.195 823.596 111.565 821.226 Q108.935 818.857 104.429 818.857 Q102.32 818.857 100.211 819.325 Q98.1273 819.794 95.9398 820.784 L95.9398 801.253 Z" fill="#bebebe" fill-rule="evenodd" fill-opacity="1" /><path clip-path="url(#clip960)" d="M 0 0 M136.408 804.716 Q132.346 804.716 130.289 808.727 Q128.257 812.711 128.257 820.732 Q128.257 828.726 130.289 832.737 Q132.346 836.721 136.408 836.721 Q140.497 836.721 142.528 832.737 Q144.585 828.726 144.585 820.732 Q144.585 812.711 142.528 808.727 Q140.497 804.716 136.408 804.716 M136.408 800.549 Q142.945 800.549 146.382 805.732 Q149.846 810.888 149.846 820.732 Q149.846 830.549 146.382 835.732 Q142.945 840.888 136.408 840.888 Q129.872 840.888 126.408 835.732 Q122.971 830.549 122.971 820.732 Q122.971 810.888 126.408 805.732 Q129.872 800.549 136.408 800.549 Z" fill="#bebebe" fill-rule="evenodd" fill-opacity="1" /><path clip-path="url(#clip960)" d="M 0 0 M66.565 482.057 Q62.5025 482.057 60.4452 486.067 Q58.414 490.051 58.414 498.072 Q58.414 506.067 60.4452 510.077 Q62.5025 514.062 66.565 514.062 Q70.6535 514.062 72.6847 510.077 Q74.742 506.067 74.742 498.072 Q74.742 490.051 72.6847 486.067 Q70.6535 482.057 66.565 482.057 M66.565 477.89 Q73.1014 477.89 76.5389 483.072 Q80.0024 488.228 80.0024 498.072 Q80.0024 507.89 76.5389 513.072 Q73.1014 518.228 66.565 518.228 Q60.0285 518.228 56.565 513.072 Q53.1275 507.89 53.1275 498.072 Q53.1275 488.228 56.565 483.072 Q60.0285 477.89 66.565 477.89 Z" fill="#bebebe" fill-rule="evenodd" fill-opacity="1" /><path clip-path="url(#clip960)" d="M 0 0 M85.7055 510.859 L91.2002 510.859 L91.2002 517.473 L85.7055 517.473 L85.7055 510.859 Z" fill="#bebebe" fill-rule="evenodd" fill-opacity="1" /><path clip-path="url(#clip960)" d="M 0 0 M95.5752 478.593 L120.575 478.593 L120.575 480.833 L106.461 517.473 L100.966 517.473 L114.247 483.02 L95.5752 483.02 L95.5752 478.593 Z" fill="#bebebe" fill-rule="evenodd" fill-opacity="1" /><path clip-path="url(#clip960)" d="M 0 0 M126.33 478.593 L146.981 478.593 L146.981 483.02 L131.148 483.02 L131.148 492.551 Q132.294 492.161 133.44 491.978 Q134.585 491.77 135.731 491.77 Q142.242 491.77 146.044 495.338 Q149.846 498.905 149.846 504.999 Q149.846 511.275 145.94 514.765 Q142.033 518.228 134.924 518.228 Q132.476 518.228 129.924 517.812 Q127.398 517.395 124.69 516.562 L124.69 511.275 Q127.033 512.551 129.533 513.176 Q132.033 513.801 134.82 513.801 Q139.325 513.801 141.955 511.431 Q144.585 509.062 144.585 504.999 Q144.585 500.937 141.955 498.567 Q139.325 496.197 134.82 496.197 Q132.71 496.197 130.601 496.666 Q128.518 497.135 126.33 498.124 L126.33 478.593 Z" fill="#bebebe" fill-rule="evenodd" fill-opacity="1" /><path clip-path="url(#clip960)" d="M 0 0 M55.4713 190.386 L64.065 190.386 L64.065 160.725 L54.7161 162.6 L54.7161 157.808 L64.0129 155.934 L69.2733 155.934 L69.2733 190.386 L77.867 190.386 L77.867 194.814 L55.4713 194.814 L55.4713 190.386 Z" fill="#bebebe" fill-rule="evenodd" fill-opacity="1" /><path clip-path="url(#clip960)" d="M 0 0 M83.5701 188.199 L89.0648 188.199 L89.0648 194.814 L83.5701 194.814 L83.5701 188.199 Z" fill="#bebebe" fill-rule="evenodd" fill-opacity="1" /><path clip-path="url(#clip960)" d="M 0 0 M106.018 159.397 Q101.955 159.397 99.8981 163.407 Q97.8669 167.392 97.8669 175.413 Q97.8669 183.407 99.8981 187.418 Q101.955 191.402 106.018 191.402 Q110.106 191.402 112.138 187.418 Q114.195 183.407 114.195 175.413 Q114.195 167.392 112.138 163.407 Q110.106 159.397 106.018 159.397 M106.018 155.23 Q112.554 155.23 115.992 160.413 Q119.455 165.569 119.455 175.413 Q119.455 185.23 115.992 190.412 Q112.554 195.569 106.018 195.569 Q99.4814 195.569 96.0179 190.412 Q92.5804 185.23 92.5804 175.413 Q92.5804 165.569 96.0179 160.413 Q99.4814 155.23 106.018 155.23 Z" fill="#bebebe" fill-rule="evenodd" fill-opacity="1" /><path clip-path="url(#clip960)" d="M 0 0 M136.408 159.397 Q132.346 159.397 130.289 163.407 Q128.257 167.392 128.257 175.413 Q128.257 183.407 130.289 187.418 Q132.346 191.402 136.408 191.402 Q140.497 191.402 142.528 187.418 Q144.585 183.407 144.585 175.413 Q144.585 167.392 142.528 163.407 Q140.497 159.397 136.408 159.397 M136.408 155.23 Q142.945 155.23 146.382 160.413 Q149.846 165.569 149.846 175.413 Q149.846 185.23 146.382 190.412 Q142.945 195.569 136.408 195.569 Q129.872 195.569 126.408 190.412 Q122.971 185.23 122.971 175.413 Q122.971 165.569 126.408 160.413 Q129.872 155.23 136.408 155.23 Z" fill="#bebebe" fill-rule="evenodd" fill-opacity="1" /><path clip-path="url(#clip960)" d="M 0 0 M963.429 20.1156 L963.429 31.516 Q956.774 28.3332 950.871 26.7707 Q944.968 25.2082 939.47 25.2082 Q929.922 25.2082 924.714 28.9119 Q919.563 32.6156 919.563 39.4442 Q919.563 45.1734 922.977 48.1247 Q926.45 51.0182 936.056 52.8122 L943.116 54.259 Q956.195 56.7474 962.387 63.0552 Q968.637 69.3052 968.637 79.8375 Q968.637 92.3953 960.188 98.8768 Q951.797 105.358 935.535 105.358 Q929.401 105.358 922.457 103.969 Q915.57 102.58 908.163 99.8606 L908.163 87.8236 Q915.281 91.8166 922.109 93.8421 Q928.938 95.8675 935.535 95.8675 Q945.547 95.8675 950.987 91.9324 Q956.426 87.9972 956.426 80.7056 Q956.426 74.3399 952.491 70.7519 Q948.614 67.164 939.702 65.37 L932.584 63.9811 Q919.505 61.377 913.66 55.8215 Q907.816 50.2659 907.816 40.3702 Q907.816 28.9119 915.859 22.3147 Q923.961 15.7175 938.139 15.7175 Q944.216 15.7175 950.524 16.817 Q956.831 17.9166 963.429 20.1156 Z" fill="#bebebe" fill-rule="evenodd" fill-opacity="1" /><path clip-path="url(#clip960)" d="M 0 0 M1035.25 68.6107 L1035.25 73.819 L986.287 73.819 Q986.982 84.8144 992.884 90.6014 Q998.845 96.3305 1009.44 96.3305 Q1015.57 96.3305 1021.3 94.8259 Q1027.09 93.3213 1032.76 90.312 L1032.76 100.381 Q1027.03 102.812 1021.01 104.085 Q1014.99 105.358 1008.8 105.358 Q993.29 105.358 984.204 96.3305 Q975.176 87.3028 975.176 71.9093 Q975.176 55.9951 983.741 46.678 Q992.364 37.303 1006.95 37.303 Q1020.03 37.303 1027.61 45.7521 Q1035.25 54.1432 1035.25 68.6107 M1024.6 65.4858 Q1024.48 56.7474 1019.68 51.5391 Q1014.93 46.3308 1007.06 46.3308 Q998.151 46.3308 992.769 51.3655 Q987.445 56.4002 986.635 65.5436 L1024.6 65.4858 Z" fill="#bebebe" fill-rule="evenodd" fill-opacity="1" /><path clip-path="url(#clip960)" d="M 0 0 M1083.97 48.8192 Q1082.18 47.7775 1080.04 47.3146 Q1077.95 46.7937 1075.41 46.7937 Q1066.38 46.7937 1061.52 52.6965 Q1056.72 58.5414 1056.72 69.5367 L1056.72 103.68 L1046.01 103.68 L1046.01 38.8655 L1056.72 38.8655 L1056.72 48.9349 Q1060.07 43.0322 1065.45 40.1965 Q1070.84 37.303 1078.53 37.303 Q1079.63 37.303 1080.96 37.4767 Q1082.29 37.5924 1083.91 37.8817 L1083.97 48.8192 Z" fill="#bebebe" fill-rule="evenodd" fill-opacity="1" /><path clip-path="url(#clip960)" d="M 0 0 M1095.14 38.8655 L1105.79 38.8655 L1105.79 103.68 L1095.14 103.68 L1095.14 38.8655 M1095.14 13.6342 L1105.79 13.6342 L1105.79 27.1179 L1095.14 27.1179 L1095.14 13.6342 Z" fill="#bebebe" fill-rule="evenodd" fill-opacity="1" /><path clip-path="url(#clip960)" d="M 0 0 M1172.4 68.6107 L1172.4 73.819 L1123.44 73.819 Q1124.13 84.8144 1130.04 90.6014 Q1136 96.3305 1146.59 96.3305 Q1152.72 96.3305 1158.45 94.8259 Q1164.24 93.3213 1169.91 90.312 L1169.91 100.381 Q1164.18 102.812 1158.16 104.085 Q1152.14 105.358 1145.95 105.358 Q1130.44 105.358 1121.36 96.3305 Q1112.33 87.3028 1112.33 71.9093 Q1112.33 55.9951 1120.89 46.678 Q1129.52 37.303 1144.1 37.303 Q1157.18 37.303 1164.76 45.7521 Q1172.4 54.1432 1172.4 68.6107 M1161.75 65.4858 Q1161.63 56.7474 1156.83 51.5391 Q1152.09 46.3308 1144.21 46.3308 Q1135.3 46.3308 1129.92 51.3655 Q1124.6 56.4002 1123.79 65.5436 L1161.75 65.4858 Z" fill="#bebebe" fill-rule="evenodd" fill-opacity="1" /><path clip-path="url(#clip960)" d="M 0 0 M1231.31 17.28 L1231.31 49.3979 L1221.47 49.3979 L1221.47 17.28 L1231.31 17.28 Z" fill="#bebebe" fill-rule="evenodd" fill-opacity="1" /><path clip-path="url(#clip960)" d="M 0 0 M1283.8 40.7752 L1283.8 50.8446 Q1279.28 48.5298 1274.42 47.3724 Q1269.56 46.215 1264.35 46.215 Q1256.42 46.215 1252.43 48.6456 Q1248.5 51.0761 1248.5 55.9372 Q1248.5 59.6409 1251.33 61.7821 Q1254.17 63.8654 1262.73 65.7751 L1266.38 66.5853 Q1277.72 69.0158 1282.47 73.4718 Q1287.27 77.87 1287.27 85.7982 Q1287.27 94.8259 1280.09 100.092 Q1272.98 105.358 1260.48 105.358 Q1255.27 105.358 1249.6 104.317 Q1243.98 103.333 1237.73 101.307 L1237.73 90.312 Q1243.64 93.3791 1249.36 94.9416 Q1255.09 96.4462 1260.71 96.4462 Q1268.23 96.4462 1272.28 93.9 Q1276.33 91.2958 1276.33 86.6083 Q1276.33 82.2681 1273.38 79.9533 Q1270.49 77.6385 1260.59 75.4973 L1256.89 74.6292 Q1246.99 72.5459 1242.59 68.2635 Q1238.2 63.9233 1238.2 56.4002 Q1238.2 47.2567 1244.68 42.2799 Q1251.16 37.303 1263.08 37.303 Q1268.98 37.303 1274.19 38.1711 Q1279.4 39.0391 1283.8 40.7752 Z" fill="#bebebe" fill-rule="evenodd" fill-opacity="1" /><path clip-path="url(#clip960)" d="M 0 0 M1345.08 41.3539 L1345.08 51.3076 Q1340.57 48.8192 1336 47.6039 Q1331.48 46.3308 1326.85 46.3308 Q1316.49 46.3308 1310.76 52.928 Q1305.04 59.4673 1305.04 71.3306 Q1305.04 83.194 1310.76 89.7912 Q1316.49 96.3305 1326.85 96.3305 Q1331.48 96.3305 1336 95.1152 Q1340.57 93.8421 1345.08 91.3537 L1345.08 101.192 Q1340.63 103.275 1335.82 104.317 Q1331.08 105.358 1325.7 105.358 Q1311.05 105.358 1302.43 96.1569 Q1293.81 86.9556 1293.81 71.3306 Q1293.81 55.4742 1302.49 46.3886 Q1311.23 37.303 1326.39 37.303 Q1331.31 37.303 1336 38.3447 Q1340.68 39.3285 1345.08 41.3539 Z" fill="#bebebe" fill-rule="evenodd" fill-opacity="1" /><path clip-path="url(#clip960)" d="M 0 0 M1385.71 71.0992 Q1372.8 71.0992 1367.82 74.0505 Q1362.85 77.0019 1362.85 84.1199 Q1362.85 89.7912 1366.55 93.1476 Q1370.31 96.4462 1376.74 96.4462 Q1385.59 96.4462 1390.91 90.1963 Q1396.3 83.8884 1396.3 73.4718 L1396.3 71.0992 L1385.71 71.0992 M1406.94 66.701 L1406.94 103.68 L1396.3 103.68 L1396.3 93.8421 Q1392.65 99.7448 1387.21 102.58 Q1381.77 105.358 1373.9 105.358 Q1363.95 105.358 1358.04 99.8027 Q1352.2 94.1893 1352.2 84.8144 Q1352.2 73.8769 1359.49 68.3214 Q1366.84 62.7659 1381.37 62.7659 L1396.3 62.7659 L1396.3 61.7242 Q1396.3 54.3747 1391.44 50.3817 Q1386.63 46.3308 1377.89 46.3308 Q1372.34 46.3308 1367.07 47.6618 Q1361.81 48.9928 1356.95 51.6548 L1356.95 41.8169 Q1362.79 39.56 1368.29 38.4604 Q1373.79 37.303 1378.99 37.303 Q1393.06 37.303 1400 44.5947 Q1406.94 51.8863 1406.94 66.701 Z" fill="#bebebe" fill-rule="evenodd" fill-opacity="1" /><path clip-path="url(#clip960)" d="M 0 0 M1428.65 20.4629 L1428.65 38.8655 L1450.58 38.8655 L1450.58 47.141 L1428.65 47.141 L1428.65 82.3259 Q1428.65 90.2541 1430.79 92.5111 Q1432.99 94.768 1439.64 94.768 L1450.58 94.768 L1450.58 103.68 L1439.64 103.68 Q1427.32 103.68 1422.63 99.1083 Q1417.94 94.4787 1417.94 82.3259 L1417.94 47.141 L1410.13 47.141 L1410.13 38.8655 L1417.94 38.8655 L1417.94 20.4629 L1428.65 20.4629 Z" fill="#bebebe" fill-rule="evenodd" fill-opacity="1" /><path clip-path="url(#clip960)" d="M 0 0 M1472.28 20.4629 L1472.28 38.8655 L1494.21 38.8655 L1494.21 47.141 L1472.28 47.141 L1472.28 82.3259 Q1472.28 90.2541 1474.42 92.5111 Q1476.62 94.768 1483.28 94.768 L1494.21 94.768 L1494.21 103.68 L1483.28 103.68 Q1470.95 103.68 1466.26 99.1083 Q1461.57 94.4787 1461.57 82.3259 L1461.57 47.141 L1453.76 47.141 L1453.76 38.8655 L1461.57 38.8655 L1461.57 20.4629 L1472.28 20.4629 Z" fill="#bebebe" fill-rule="evenodd" fill-opacity="1" /><path clip-path="url(#clip960)" d="M 0 0 M1560.82 68.6107 L1560.82 73.819 L1511.86 73.819 Q1512.56 84.8144 1518.46 90.6014 Q1524.42 96.3305 1535.01 96.3305 Q1541.15 96.3305 1546.87 94.8259 Q1552.66 93.3213 1558.33 90.312 L1558.33 100.381 Q1552.6 102.812 1546.59 104.085 Q1540.57 105.358 1534.37 105.358 Q1518.87 105.358 1509.78 96.3305 Q1500.75 87.3028 1500.75 71.9093 Q1500.75 55.9951 1509.32 46.678 Q1517.94 37.303 1532.52 37.303 Q1545.6 37.303 1553.18 45.7521 Q1560.82 54.1432 1560.82 68.6107 M1550.17 65.4858 Q1550.06 56.7474 1545.25 51.5391 Q1540.51 46.3308 1532.64 46.3308 Q1523.73 46.3308 1518.34 51.3655 Q1513.02 56.4002 1512.21 65.5436 L1550.17 65.4858 Z" fill="#bebebe" fill-rule="evenodd" fill-opacity="1" /><path clip-path="url(#clip960)" d="M 0 0 M1609.55 48.8192 Q1607.75 47.7775 1605.61 47.3146 Q1603.53 46.7937 1600.98 46.7937 Q1591.96 46.7937 1587.09 52.6965 Q1582.29 58.5414 1582.29 69.5367 L1582.29 103.68 L1571.59 103.68 L1571.59 38.8655 L1582.29 38.8655 L1582.29 48.9349 Q1585.65 43.0322 1591.03 40.1965 Q1596.41 37.303 1604.11 37.303 Q1605.21 37.303 1606.54 37.4767 Q1607.87 37.5924 1609.49 37.8817 L1609.55 48.8192 Z" fill="#bebebe" fill-rule="evenodd" fill-opacity="1" /><path clip-path="url(#clip960)" d="M 0 0 M1630.79 17.28 L1630.79 49.3979 L1620.95 49.3979 L1620.95 17.28 L1630.79 17.28 Z" fill="#bebebe" fill-rule="evenodd" fill-opacity="1" /><path clip-path="url(#clip962)" d="M231.173 964.21 L231.173 996.21 L263.173 996.21 L263.173 964.21 L231.173 964.21 Z" fill="#e69f00" fill-rule="evenodd" fill-opacity="1" stroke="#000000" stroke-opacity="1" stroke-width="3.2"/>
<path clip-path="url(#clip962)" d="M338.766 947.058 L338.766 979.058 L370.766 979.058 L370.766 947.058 L338.766 947.058 Z" fill="#e69f00" fill-rule="evenodd" fill-opacity="1" stroke="#000000" stroke-opacity="1" stroke-width="3.2"/>
<path clip-path="url(#clip962)" d="M446.358 1411.99 L446.358 1443.99 L478.358 1443.99 L478.358 1411.99 L446.358 1411.99 Z" fill="#e69f00" fill-rule="evenodd" fill-opacity="1" stroke="#000000" stroke-opacity="1" stroke-width="3.2"/>
<path clip-path="url(#clip962)" d="M553.95 455.475 L553.95 487.475 L585.95 487.475 L585.95 455.475 L553.95 455.475 Z" fill="#e69f00" fill-rule="evenodd" fill-opacity="1" stroke="#000000" stroke-opacity="1" stroke-width="3.2"/>
<path clip-path="url(#clip962)" d="M661.543 1114.19 L661.543 1146.19 L693.543 1146.19 L693.543 1114.19 L661.543 1114.19 Z" fill="#e69f00" fill-rule="evenodd" fill-opacity="1" stroke="#000000" stroke-opacity="1" stroke-width="3.2"/>
<path clip-path="url(#clip962)" d="M769.135 1106.83 L769.135 1138.83 L801.135 1138.83 L801.135 1106.83 L769.135 1106.83 Z" fill="#e69f00" fill-rule="evenodd" fill-opacity="1" stroke="#000000" stroke-opacity="1" stroke-width="3.2"/>
<path clip-path="url(#clip962)" d="M876.728 187.343 L876.728 219.343 L908.728 219.343 L908.728 187.343 L876.728 187.343 Z" fill="#e69f00" fill-rule="evenodd" fill-opacity="1" stroke="#000000" stroke-opacity="1" stroke-width="3.2"/>
<path clip-path="url(#clip962)" d="M984.32 212.602 L984.32 244.602 L1016.32 244.602 L1016.32 212.602 L984.32 212.602 Z" fill="#e69f00" fill-rule="evenodd" fill-opacity="1" stroke="#000000" stroke-opacity="1" stroke-width="3.2"/>
<path clip-path="url(#clip962)" d="M1091.91 716.844 L1091.91 748.844 L1123.91 748.844 L1123.91 716.844 L1091.91 716.844 Z" fill="#e69f00" fill-rule="evenodd" fill-opacity="1" stroke="#000000" stroke-opacity="1" stroke-width="3.2"/>
<path clip-path="url(#clip962)" d="M1199.5 976.689 L1199.5 1008.69 L1231.5 1008.69 L1231.5 976.689 L1199.5 976.689 Z" fill="#e69f00" fill-rule="evenodd" fill-opacity="1" stroke="#000000" stroke-opacity="1" stroke-width="3.2"/>
<path clip-path="url(#clip962)" d="M1307.1 1262.43 L1307.1 1294.43 L1339.1 1294.43 L1339.1 1262.43 L1307.1 1262.43 Z" fill="#e69f00" fill-rule="evenodd" fill-opacity="1" stroke="#000000" stroke-opacity="1" stroke-width="3.2"/>
<path clip-path="url(#clip962)" d="M1414.69 1165.12 L1414.69 1197.12 L1446.69 1197.12 L1446.69 1165.12 L1414.69 1165.12 Z" fill="#e69f00" fill-rule="evenodd" fill-opacity="1" stroke="#000000" stroke-opacity="1" stroke-width="3.2"/>
<path clip-path="url(#clip962)" d="M1522.28 602.218 L1522.28 634.218 L1554.28 634.218 L1554.28 602.218 L1522.28 602.218 Z" fill="#e69f00" fill-rule="evenodd" fill-opacity="1" stroke="#000000" stroke-opacity="1" stroke-width="3.2"/>
<path clip-path="url(#clip962)" d="M1629.87 975.787 L1629.87 1007.79 L1661.87 1007.79 L1661.87 975.787 L1629.87 975.787 Z" fill="#e69f00" fill-rule="evenodd" fill-opacity="1" stroke="#000000" stroke-opacity="1" stroke-width="3.2"/>
<path clip-path="url(#clip962)" d="M1737.47 1088.24 L1737.47 1120.24 L1769.47 1120.24 L1769.47 1088.24 L1737.47 1088.24 Z" fill="#e69f00" fill-rule="evenodd" fill-opacity="1" stroke="#000000" stroke-opacity="1" stroke-width="3.2"/>
<path clip-path="url(#clip962)" d="M1845.06 1383.73 L1845.06 1415.73 L1877.06 1415.73 L1877.06 1383.73 L1845.06 1383.73 Z" fill="#e69f00" fill-rule="evenodd" fill-opacity="1" stroke="#000000" stroke-opacity="1" stroke-width="3.2"/>
<path clip-path="url(#clip962)" d="M1952.65 897.337 L1952.65 929.337 L1984.65 929.337 L1984.65 897.337 L1952.65 897.337 Z" fill="#e69f00" fill-rule="evenodd" fill-opacity="1" stroke="#000000" stroke-opacity="1" stroke-width="3.2"/>
<path clip-path="url(#clip962)" d="M2060.24 1120.01 L2060.24 1152.01 L2092.24 1152.01 L2092.24 1120.01 L2060.24 1120.01 Z" fill="#e69f00" fill-rule="evenodd" fill-opacity="1" stroke="#000000" stroke-opacity="1" stroke-width="3.2"/>
<path clip-path="url(#clip962)" d="M2167.84 1019.25 L2167.84 1051.25 L2199.84 1051.25 L2199.84 1019.25 L2167.84 1019.25 Z" fill="#e69f00" fill-rule="evenodd" fill-opacity="1" stroke="#000000" stroke-opacity="1" stroke-width="3.2"/>
<path clip-path="url(#clip962)" d="M2275.43 1316.65 L2275.43 1348.65 L2307.43 1348.65 L2307.43 1316.65 L2275.43 1316.65 Z" fill="#e69f00" fill-rule="evenodd" fill-opacity="1" stroke="#000000" stroke-opacity="1" stroke-width="3.2"/>
<circle clip-path="url(#clip962)" cx="247.173" cy="519.257" r="14" fill="#56b4e9" fill-rule="evenodd" fill-opacity="1" stroke="#000000" stroke-opacity="1" stroke-width="3.2"/>
<circle clip-path="url(#clip962)" cx="354.766" cy="804.41" r="14" fill="#56b4e9" fill-rule="evenodd" fill-opacity="1" stroke="#000000" stroke-opacity="1" stroke-width="3.2"/>
<circle clip-path="url(#clip962)" cx="462.358" cy="640.165" r="14" fill="#56b4e9" fill-rule="evenodd" fill-opacity="1" stroke="#000000" stroke-opacity="1" stroke-width="3.2"/>
<circle clip-path="url(#clip962)" cx="569.95" cy="723.706" r="14" fill="#56b4e9" fill-rule="evenodd" fill-opacity="1" stroke="#000000" stroke-opacity="1" stroke-width="3.2"/>
<circle clip-path="url(#clip962)" cx="677.543" cy="1393.83" r="14" fill="#56b4e9" fill-rule="evenodd" fill-opacity="1" stroke="#000000" stroke-opacity="1" stroke-width="3.2"/>
<circle clip-path="url(#clip962)" cx="785.135" cy="742.105" r="14" fill="#56b4e9" fill-rule="evenodd" fill-opacity="1" stroke="#000000" stroke-opacity="1" stroke-width="3.2"/>
<circle clip-path="url(#clip962)" cx="892.728" cy="1358.14" r="14" fill="#56b4e9" fill-rule="evenodd" fill-opacity="1" stroke="#000000" stroke-opacity="1" stroke-width="3.2"/>
<circle clip-path="url(#clip962)" cx="1000.32" cy="187.111" r="14" fill="#56b4e9" fill-rule="evenodd" fill-opacity="1" stroke="#000000" stroke-opacity="1" stroke-width="3.2"/>
<circle clip-path="url(#clip962)" cx="1107.91" cy="934.839" r="14" fill="#56b4e9" fill-rule="evenodd" fill-opacity="1" stroke="#000000" stroke-opacity="1" stroke-width="3.2"/>
<circle clip-path="url(#clip962)" cx="1215.5" cy="363.055" r="14" fill="#56b4e9" fill-rule="evenodd" fill-opacity="1" stroke="#000000" stroke-opacity="1" stroke-width="3.2"/>
<circle clip-path="url(#clip962)" cx="1323.1" cy="1006.7" r="14" fill="#56b4e9" fill-rule="evenodd" fill-opacity="1" stroke="#000000" stroke-opacity="1" stroke-width="3.2"/>
<circle clip-path="url(#clip962)" cx="1430.69" cy="970.878" r="14" fill="#56b4e9" fill-rule="evenodd" fill-opacity="1" stroke="#000000" stroke-opacity="1" stroke-width="3.2"/>
<circle clip-path="url(#clip962)" cx="1538.28" cy="218.845" r="14" fill="#56b4e9" fill-rule="evenodd" fill-opacity="1" stroke="#000000" stroke-opacity="1" stroke-width="3.2"/>
<circle clip-path="url(#clip962)" cx="1645.87" cy="683.257" r="14" fill="#56b4e9" fill-rule="evenodd" fill-opacity="1" stroke="#000000" stroke-opacity="1" stroke-width="3.2"/>
<circle clip-path="url(#clip962)" cx="1753.47" cy="1328.92" r="14" fill="#56b4e9" fill-rule="evenodd" fill-opacity="1" stroke="#000000" stroke-opacity="1" stroke-width="3.2"/>
<circle clip-path="url(#clip962)" cx="1861.06" cy="909.97" r="14" fill="#56b4e9" fill-rule="evenodd" fill-opacity="1" stroke="#000000" stroke-opacity="1" stroke-width="3.2"/>
<circle clip-path="url(#clip962)" cx="1968.65" cy="765.844" r="14" fill="#56b4e9" fill-rule="evenodd" fill-opacity="1" stroke="#000000" stroke-opacity="1" stroke-width="3.2"/>
<circle clip-path="url(#clip962)" cx="2076.24" cy="1091.43" r="14" fill="#56b4e9" fill-rule="evenodd" fill-opacity="1" stroke="#000000" stroke-opacity="1" stroke-width="3.2"/>
<circle clip-path="url(#clip962)" cx="2183.84" cy="1122.62" r="14" fill="#56b4e9" fill-rule="evenodd" fill-opacity="1" stroke="#000000" stroke-opacity="1" stroke-width="3.2"/>
<circle clip-path="url(#clip962)" cx="2291.43" cy="215.884" r="14" fill="#56b4e9" fill-rule="evenodd" fill-opacity="1" stroke="#000000" stroke-opacity="1" stroke-width="3.2"/>
<path clip-path="url(#clip962)" d="M247.173 512.87 L233.317 504.87 L233.317 488.87 L247.173 480.87 L261.029 488.87 L261.029 504.87 Z" fill="#009e73" fill-rule="evenodd" fill-opacity="1" stroke="#000000" stroke-opacity="1" stroke-width="3.2"/>
<path clip-path="url(#clip962)" d="M354.766 838.766 L340.91 830.766 L340.91 814.766 L354.766 806.766 L368.622 814.766 L368.622 830.766 Z" fill="#009e73" fill-rule="evenodd" fill-opacity="1" stroke="#000000" stroke-opacity="1" stroke-width="3.2"/>
<path clip-path="url(#clip962)" d="M462.358 1041.53 L448.502 1033.53 L448.502 1017.53 L462.358 1009.53 L476.214 1017.53 L476.214 1033.53 Z" fill="#009e73" fill-rule="evenodd" fill-opacity="1" stroke="#000000" stroke-opacity="1" stroke-width="3.2"/>
<path clip-path="url(#clip962)" d="M569.95 340.172 L556.094 332.172 L556.094 316.172 L569.95 308.172 L583.806 316.172 L583.806 332.172 Z" fill="#009e73" fill-rule="evenodd" fill-opacity="1" stroke="#000000" stroke-opacity="1" stroke-width="3.2"/>
<path clip-path="url(#clip962)" d="M677.543 1460.41 L663.687 1452.41 L663.687 1436.41 L677.543 1428.41 L691.399 1436.41 L691.399 1452.41 Z" fill="#009e73" fill-rule="evenodd" fill-opacity="1" stroke="#000000" stroke-opacity="1" stroke-width="3.2"/>
<path clip-path="url(#clip962)" d="M785.135 474.045 L771.279 466.045 L771.279 450.045 L785.135 442.045 L798.991 450.045 L798.991 466.045 Z" fill="#009e73" fill-rule="evenodd" fill-opacity="1" stroke="#000000" stroke-opacity="1" stroke-width="3.2"/>
<path clip-path="url(#clip962)" d="M892.728 647.372 L878.872 639.372 L878.872 623.372 L892.728 615.372 L906.584 623.372 L906.584 639.372 Z" fill="#009e73" fill-rule="evenodd" fill-opacity="1" stroke="#000000" stroke-opacity="1" stroke-width="3.2"/>
<path clip-path="url(#clip962)" d="M1000.32 1300.66 L986.464 1292.66 L986.464 1276.66 L1000.32 1268.66 L1014.18 1276.66 L1014.18 1292.66 Z" fill="#009e73" fill-rule="evenodd" fill-opacity="1" stroke="#000000" stroke-opacity="1" stroke-width="3.2"/>
<path clip-path="url(#clip962)" d="M1107.91 846.236 L1094.06 838.236 L1094.06 822.236 L1107.91 814.236 L1121.77 822.236 L1121.77 838.236 Z" fill="#009e73" fill-rule="evenodd" fill-opacity="1" stroke="#000000" stroke-opacity="1" stroke-width="3.2"/>
<path clip-path="url(#clip962)" d="M1215.5 658.915 L1201.65 650.915 L1201.65 634.915 L1215.5 626.915 L1229.36 634.915 L1229.36 650.915 Z" fill="#009e73" fill-rule="evenodd" fill-opacity="1" stroke="#000000" stroke-opacity="1" stroke-width="3.2"/>
<path clip-path="url(#clip962)" d="M1323.1 448.886 L1309.24 440.886 L1309.24 424.886 L1323.1 416.886 L1336.95 424.886 L1336.95 440.886 Z" fill="#009e73" fill-rule="evenodd" fill-opacity="1" stroke="#000000" stroke-opacity="1" stroke-width="3.2"/>
<path clip-path="url(#clip962)" d="M1430.69 542.725 L1416.83 534.725 L1416.83 518.725 L1430.69 510.725 L1444.55 518.725 L1444.55 534.725 Z" fill="#009e73" fill-rule="evenodd" fill-opacity="1" stroke="#000000" stroke-opacity="1" stroke-width="3.2"/>
<path clip-path="url(#clip962)" d="M1538.28 1072.51 L1524.43 1064.51 L1524.43 1048.51 L1538.28 1040.51 L1552.14 1048.51 L1552.14 1064.51 Z" fill="#009e73" fill-rule="evenodd" fill-opacity="1" stroke="#000000" stroke-opacity="1" stroke-width="3.2"/>
<path clip-path="url(#clip962)" d="M1645.87 1306.75 L1632.02 1298.75 L1632.02 1282.75 L1645.87 1274.75 L1659.73 1282.75 L1659.73 1298.75 Z" fill="#009e73" fill-rule="evenodd" fill-opacity="1" stroke="#000000" stroke-opacity="1" stroke-width="3.2"/>
<path clip-path="url(#clip962)" d="M1753.47 339.639 L1739.61 331.639 L1739.61 315.639 L1753.47 307.639 L1767.32 315.639 L1767.32 331.639 Z" fill="#009e73" fill-rule="evenodd" fill-opacity="1" stroke="#000000" stroke-opacity="1" stroke-width="3.2"/>
<path clip-path="url(#clip962)" d="M1861.06 255.323 L1847.2 247.323 L1847.2 231.323 L1861.06 223.323 L1874.91 231.323 L1874.91 247.323 Z" fill="#009e73" fill-rule="evenodd" fill-opacity="1" stroke="#000000" stroke-opacity="1" stroke-width="3.2"/>
<path clip-path="url(#clip962)" d="M1968.65 1445.95 L1954.8 1437.95 L1954.8 1421.95 L1968.65 1413.95 L1982.51 1421.95 L1982.51 1437.95 Z" fill="#009e73" fill-rule="evenodd" fill-opacity="1" stroke="#000000" stroke-opacity="1" stroke-width="3.2"/>
<path clip-path="url(#clip962)" d="M2076.24 1179.36 L2062.39 1171.36 L2062.39 1155.36 L2076.24 1147.36 L2090.1 1155.36 L2090.1 1171.36 Z" fill="#009e73" fill-rule="evenodd" fill-opacity="1" stroke="#000000" stroke-opacity="1" stroke-width="3.2"/>
<path clip-path="url(#clip962)" d="M2183.84 930.134 L2169.98 922.134 L2169.98 906.134 L2183.84 898.134 L2197.69 906.134 L2197.69 922.134 Z" fill="#009e73" fill-rule="evenodd" fill-opacity="1" stroke="#000000" stroke-opacity="1" stroke-width="3.2"/>
<path clip-path="url(#clip962)" d="M2291.43 1360.19 L2277.57 1352.19 L2277.57 1336.19 L2291.43 1328.19 L2305.28 1336.19 L2305.28 1352.19 Z" fill="#009e73" fill-rule="evenodd" fill-opacity="1" stroke="#000000" stroke-opacity="1" stroke-width="3.2"/>
<path clip-path="url(#clip960)" d="
M1988.16 435.737 L2280.53 435.737 L2280.53 193.817 L1988.16 193.817  Z
  " fill="#ffffff" fill-rule="evenodd" fill-opacity="1"/>
<polyline clip-path="url(#clip960)" style="stroke:#000000; stroke-width:4; stroke-opacity:1; fill:none" points="
  1988.16,435.737 2280.53,435.737 2280.53,193.817 1988.16,193.817 1988.16,435.737 
  "/>
<path clip-path="url(#clip960)" d="M2058.87 228.697 L2058.87 279.897 L2110.07 279.897 L2110.07 228.697 L2058.87 228.697 Z" fill="#e69f00" fill-rule="evenodd" fill-opacity="1" stroke="#000000" stroke-opacity="1" stroke-width="5.12"/>
<path clip-path="url(#clip960)" d="M 0 0 M2194.62 273.984 Q2192.81 278.614 2191.1 280.026 Q2189.39 281.438 2186.52 281.438 L2183.11 281.438 L2183.11 277.873 L2185.61 277.873 Q2187.37 277.873 2188.34 277.04 Q2189.32 276.206 2190.5 273.104 L2191.26 271.16 L2180.78 245.651 L2185.29 245.651 L2193.39 265.929 L2201.49 245.651 L2206.01 245.651 L2194.62 273.984 Z" fill="#bebebe" fill-rule="evenodd" fill-opacity="1" /><path clip-path="url(#clip960)" d="M 0 0 M2211.89 267.641 L2219.52 267.641 L2219.52 241.276 L2211.21 242.943 L2211.21 238.683 L2219.48 237.017 L2224.15 237.017 L2224.15 267.641 L2231.79 267.641 L2231.79 271.577 L2211.89 271.577 L2211.89 267.641 Z" fill="#bebebe" fill-rule="evenodd" fill-opacity="1" /><circle clip-path="url(#clip960)" cx="2084.47" cy="314.777" r="23" fill="#56b4e9" fill-rule="evenodd" fill-opacity="1" stroke="#000000" stroke-opacity="1" stroke-width="5.12"/>
<path clip-path="url(#clip960)" d="M 0 0 M2194.62 334.464 Q2192.81 339.094 2191.1 340.506 Q2189.39 341.918 2186.52 341.918 L2183.11 341.918 L2183.11 338.353 L2185.61 338.353 Q2187.37 338.353 2188.34 337.52 Q2189.32 336.686 2190.5 333.584 L2191.26 331.64 L2180.78 306.131 L2185.29 306.131 L2193.39 326.409 L2201.49 306.131 L2206.01 306.131 L2194.62 334.464 Z" fill="#bebebe" fill-rule="evenodd" fill-opacity="1" /><path clip-path="url(#clip960)" d="M 0 0 M2215.1 328.121 L2231.42 328.121 L2231.42 332.057 L2209.48 332.057 L2209.48 328.121 Q2212.14 325.367 2216.72 320.737 Q2221.33 316.085 2222.51 314.742 Q2224.76 312.219 2225.64 310.483 Q2226.54 308.723 2226.54 307.034 Q2226.54 304.279 2224.59 302.543 Q2222.67 300.807 2219.57 300.807 Q2217.37 300.807 2214.92 301.571 Q2212.49 302.335 2209.71 303.886 L2209.71 299.163 Q2212.53 298.029 2214.99 297.45 Q2217.44 296.872 2219.48 296.872 Q2224.85 296.872 2228.04 299.557 Q2231.24 302.242 2231.24 306.733 Q2231.24 308.862 2230.43 310.784 Q2229.64 312.682 2227.53 315.274 Q2226.96 315.946 2223.85 319.163 Q2220.75 322.358 2215.1 328.121 Z" fill="#bebebe" fill-rule="evenodd" fill-opacity="1" /><path clip-path="url(#clip960)" d="M2084.47 400.857 L2062.3 388.057 L2062.3 362.457 L2084.47 349.657 L2106.64 362.457 L2106.64 388.057 Z" fill="#009e73" fill-rule="evenodd" fill-opacity="1" stroke="#000000" stroke-opacity="1" stroke-width="5.12"/>
<path clip-path="url(#clip960)" d="M 0 0 M2194.62 394.944 Q2192.81 399.574 2191.1 400.986 Q2189.39 402.398 2186.52 402.398 L2183.11 402.398 L2183.11 398.833 L2185.61 398.833 Q2187.37 398.833 2188.34 398 Q2189.32 397.166 2190.5 394.064 L2191.26 392.12 L2180.78 366.611 L2185.29 366.611 L2193.39 386.889 L2201.49 366.611 L2206.01 366.611 L2194.62 394.944 Z" fill="#bebebe" fill-rule="evenodd" fill-opacity="1" /><path clip-path="url(#clip960)" d="M 0 0 M2225.24 373.902 Q2228.6 374.62 2230.47 376.889 Q2232.37 379.157 2232.37 382.49 Q2232.37 387.606 2228.85 390.407 Q2225.34 393.208 2218.85 393.208 Q2216.68 393.208 2214.36 392.768 Q2212.07 392.351 2209.62 391.495 L2209.62 386.981 Q2211.56 388.115 2213.88 388.694 Q2216.19 389.273 2218.71 389.273 Q2223.11 389.273 2225.4 387.537 Q2227.72 385.801 2227.72 382.49 Q2227.72 379.435 2225.57 377.722 Q2223.44 375.986 2219.62 375.986 L2215.59 375.986 L2215.59 372.143 L2219.8 372.143 Q2223.25 372.143 2225.08 370.778 Q2226.91 369.389 2226.91 366.796 Q2226.91 364.134 2225.01 362.722 Q2223.14 361.287 2219.62 361.287 Q2217.7 361.287 2215.5 361.703 Q2213.3 362.12 2210.66 363 L2210.66 358.833 Q2213.32 358.092 2215.64 357.722 Q2217.97 357.352 2220.03 357.352 Q2225.36 357.352 2228.46 359.782 Q2231.56 362.19 2231.56 366.31 Q2231.56 369.18 2229.92 371.171 Q2228.27 373.139 2225.24 373.902 Z" fill="#bebebe" fill-rule="evenodd" fill-opacity="1" /></svg>
