<?xml version="1.0" encoding="utf-8"?>
<svg xmlns="http://www.w3.org/2000/svg" xmlns:xlink="http://www.w3.org/1999/xlink" width="600" height="400" viewBox="0 0 2400 1600">
<defs>
  <clipPath id="clip810">
    <rect x="0" y="0" width="2400" height="1600"/>
  </clipPath>
</defs>
<path clip-path="url(#clip810)" d="
M0 1600 L2400 1600 L2400 0 L0 0  Z
  " fill="#ffffff" fill-rule="evenodd" fill-opacity="1"/>
<defs>
  <clipPath id="clip811">
    <rect x="480" y="0" width="1681" height="1600"/>
  </clipPath>
</defs>
<path clip-path="url(#clip810)" d="
M170.924 1482.13 L2352.76 1482.13 L2352.76 149.392 L170.924 149.392  Z
  " fill="#ffffff" fill-rule="evenodd" fill-opacity="1"/>
<defs>
  <clipPath id="clip812">
    <rect x="170" y="149" width="2183" height="1334"/>
  </clipPath>
</defs>
<polyline clip-path="url(#clip812)" style="stroke:#000000; stroke-width:2; stroke-opacity:0.1; fill:none" points="
  516.582,1482.13 516.582,149.392 
  "/>
<polyline clip-path="url(#clip812)" style="stroke:#000000; stroke-width:2; stroke-opacity:0.1; fill:none" points="
  871.467,1482.13 871.467,149.392 
  "/>
<polyline clip-path="url(#clip812)" style="stroke:#000000; stroke-width:2; stroke-opacity:0.1; fill:none" points="
  1226.35,1482.13 1226.35,149.392 
  "/>
<polyline clip-path="url(#clip812)" style="stroke:#000000; stroke-width:2; stroke-opacity:0.1; fill:none" points="
  1581.24,1482.13 1581.24,149.392 
  "/>
<polyline clip-path="url(#clip812)" style="stroke:#000000; stroke-width:2; stroke-opacity:0.1; fill:none" points="
  1936.12,1482.13 1936.12,149.392 
  "/>
<polyline clip-path="url(#clip812)" style="stroke:#000000; stroke-width:2; stroke-opacity:0.1; fill:none" points="
  2291.01,1482.13 2291.01,149.392 
  "/>
<polyline clip-path="url(#clip810)" style="stroke:#000000; stroke-width:4; stroke-opacity:1; fill:none" points="
  170.924,1482.13 2352.76,1482.13 
  "/>
<polyline clip-path="url(#clip810)" style="stroke:#000000; stroke-width:4; stroke-opacity:1; fill:none" points="
  516.582,1482.13 516.582,1466.14 
  "/>
<polyline clip-path="url(#clip810)" style="stroke:#000000; stroke-width:4; stroke-opacity:1; fill:none" points="
  871.467,1482.13 871.467,1466.14 
  "/>
<polyline clip-path="url(#clip810)" style="stroke:#000000; stroke-width:4; stroke-opacity:1; fill:none" points="
  1226.35,1482.13 1226.35,1466.14 
  "/>
<polyline clip-path="url(#clip810)" style="stroke:#000000; stroke-width:4; stroke-opacity:1; fill:none" points="
  1581.24,1482.13 1581.24,1466.14 
  "/>
<polyline clip-path="url(#clip810)" style="stroke:#000000; stroke-width:4; stroke-opacity:1; fill:none" points="
  1936.12,1482.13 1936.12,1466.14 
  "/>
<polyline clip-path="url(#clip810)" style="stroke:#000000; stroke-width:4; stroke-opacity:1; fill:none" points="
  2291.01,1482.13 2291.01,1466.14 
  "/>
<path clip-path="url(#clip810)" d="M 0 0 M505.644 1509.1 L526.295 1509.1 L526.295 1513.53 L510.462 1513.53 L510.462 1523.06 Q511.608 1522.67 512.754 1522.49 Q513.9 1522.28 515.045 1522.28 Q521.556 1522.28 525.358 1525.85 Q529.16 1529.42 529.16 1535.51 Q529.16 1541.79 525.254 1545.28 Q521.347 1548.74 514.238 1548.74 Q511.79 1548.74 509.238 1548.32 Q506.712 1547.91 504.004 1547.07 L504.004 1541.79 Q506.347 1543.06 508.847 1543.69 Q511.347 1544.31 514.134 1544.31 Q518.639 1544.31 521.269 1541.94 Q523.899 1539.57 523.899 1535.51 Q523.899 1531.45 521.269 1529.08 Q518.639 1526.71 514.134 1526.71 Q512.025 1526.71 509.915 1527.18 Q507.832 1527.65 505.644 1528.64 L505.644 1509.1 Z" fill="#bebebe" fill-rule="evenodd" fill-opacity="1" /><path clip-path="url(#clip810)" d="M 0 0 M845.451 1543.56 L854.045 1543.56 L854.045 1513.9 L844.696 1515.77 L844.696 1510.98 L853.993 1509.1 L859.253 1509.1 L859.253 1543.56 L867.847 1543.56 L867.847 1547.98 L845.451 1547.98 L845.451 1543.56 Z" fill="#bebebe" fill-rule="evenodd" fill-opacity="1" /><path clip-path="url(#clip810)" d="M 0 0 M884.8 1512.57 Q880.737 1512.57 878.68 1516.58 Q876.649 1520.56 876.649 1528.58 Q876.649 1536.58 878.68 1540.59 Q880.737 1544.57 884.8 1544.57 Q888.888 1544.57 890.92 1540.59 Q892.977 1536.58 892.977 1528.58 Q892.977 1520.56 890.92 1516.58 Q888.888 1512.57 884.8 1512.57 M884.8 1508.4 Q891.336 1508.4 894.774 1513.58 Q898.237 1518.74 898.237 1528.58 Q898.237 1538.4 894.774 1543.58 Q891.336 1548.74 884.8 1548.74 Q878.263 1548.74 874.8 1543.58 Q871.362 1538.4 871.362 1528.58 Q871.362 1518.74 874.8 1513.58 Q878.263 1508.4 884.8 1508.4 Z" fill="#bebebe" fill-rule="evenodd" fill-opacity="1" /><path clip-path="url(#clip810)" d="M 0 0 M1200.9 1543.56 L1209.49 1543.56 L1209.49 1513.9 L1200.14 1515.77 L1200.14 1510.98 L1209.44 1509.1 L1214.7 1509.1 L1214.7 1543.56 L1223.29 1543.56 L1223.29 1547.98 L1200.9 1547.98 L1200.9 1543.56 Z" fill="#bebebe" fill-rule="evenodd" fill-opacity="1" /><path clip-path="url(#clip810)" d="M 0 0 M1229.05 1509.1 L1249.7 1509.1 L1249.7 1513.53 L1233.86 1513.53 L1233.86 1523.06 Q1235.01 1522.67 1236.16 1522.49 Q1237.3 1522.28 1238.45 1522.28 Q1244.96 1522.28 1248.76 1525.85 Q1252.56 1529.42 1252.56 1535.51 Q1252.56 1541.79 1248.66 1545.28 Q1244.75 1548.74 1237.64 1548.74 Q1235.19 1548.74 1232.64 1548.32 Q1230.11 1547.91 1227.41 1547.07 L1227.41 1541.79 Q1229.75 1543.06 1232.25 1543.69 Q1234.75 1544.31 1237.54 1544.31 Q1242.04 1544.31 1244.67 1541.94 Q1247.3 1539.57 1247.3 1535.51 Q1247.3 1531.45 1244.67 1529.08 Q1242.04 1526.71 1237.54 1526.71 Q1235.43 1526.71 1233.32 1527.18 Q1231.23 1527.65 1229.05 1528.64 L1229.05 1509.1 Z" fill="#bebebe" fill-rule="evenodd" fill-opacity="1" /><path clip-path="url(#clip810)" d="M 0 0 M1560.03 1543.56 L1578.38 1543.56 L1578.38 1547.98 L1553.7 1547.98 L1553.7 1543.56 Q1556.69 1540.46 1561.85 1535.25 Q1567.03 1530.02 1568.36 1528.5 Q1570.88 1525.67 1571.87 1523.71 Q1572.89 1521.73 1572.89 1519.83 Q1572.89 1516.73 1570.7 1514.78 Q1568.54 1512.83 1565.05 1512.83 Q1562.58 1512.83 1559.82 1513.69 Q1557.08 1514.55 1553.96 1516.29 L1553.96 1510.98 Q1557.13 1509.7 1559.9 1509.05 Q1562.66 1508.4 1564.95 1508.4 Q1570.99 1508.4 1574.58 1511.42 Q1578.18 1514.44 1578.18 1519.49 Q1578.18 1521.89 1577.26 1524.05 Q1576.38 1526.19 1574.01 1529.1 Q1573.36 1529.86 1569.87 1533.48 Q1566.38 1537.07 1560.03 1543.56 Z" fill="#bebebe" fill-rule="evenodd" fill-opacity="1" /><path clip-path="url(#clip810)" d="M 0 0 M1595.34 1512.57 Q1591.28 1512.57 1589.22 1516.58 Q1587.19 1520.56 1587.19 1528.58 Q1587.19 1536.58 1589.22 1540.59 Q1591.28 1544.57 1595.34 1544.57 Q1599.43 1544.57 1601.46 1540.59 Q1603.51 1536.58 1603.51 1528.58 Q1603.51 1520.56 1601.46 1516.58 Q1599.43 1512.57 1595.34 1512.57 M1595.34 1508.4 Q1601.87 1508.4 1605.31 1513.58 Q1608.78 1518.74 1608.78 1528.58 Q1608.78 1538.4 1605.31 1543.58 Q1601.87 1548.74 1595.34 1548.74 Q1588.8 1548.74 1585.34 1543.58 Q1581.9 1538.4 1581.9 1528.58 Q1581.9 1518.74 1585.34 1513.58 Q1588.8 1508.4 1595.34 1508.4 Z" fill="#bebebe" fill-rule="evenodd" fill-opacity="1" /><path clip-path="url(#clip810)" d="M 0 0 M1915.47 1543.56 L1933.83 1543.56 L1933.83 1547.98 L1909.14 1547.98 L1909.14 1543.56 Q1912.14 1540.46 1917.29 1535.25 Q1922.48 1530.02 1923.8 1528.5 Q1926.33 1525.67 1927.32 1523.71 Q1928.33 1521.73 1928.33 1519.83 Q1928.33 1516.73 1926.15 1514.78 Q1923.99 1512.83 1920.5 1512.83 Q1918.02 1512.83 1915.26 1513.69 Q1912.53 1514.55 1909.4 1516.29 L1909.4 1510.98 Q1912.58 1509.7 1915.34 1509.05 Q1918.1 1508.4 1920.39 1508.4 Q1926.43 1508.4 1930.03 1511.42 Q1933.62 1514.44 1933.62 1519.49 Q1933.62 1521.89 1932.71 1524.05 Q1931.82 1526.19 1929.45 1529.1 Q1928.8 1529.86 1925.31 1533.48 Q1921.82 1537.07 1915.47 1543.56 Z" fill="#bebebe" fill-rule="evenodd" fill-opacity="1" /><path clip-path="url(#clip810)" d="M 0 0 M1939.58 1509.1 L1960.24 1509.1 L1960.24 1513.53 L1944.4 1513.53 L1944.4 1523.06 Q1945.55 1522.67 1946.69 1522.49 Q1947.84 1522.28 1948.99 1522.28 Q1955.5 1522.28 1959.3 1525.85 Q1963.1 1529.42 1963.1 1535.51 Q1963.1 1541.79 1959.19 1545.28 Q1955.29 1548.74 1948.18 1548.74 Q1945.73 1548.74 1943.18 1548.32 Q1940.65 1547.91 1937.94 1547.07 L1937.94 1541.79 Q1940.29 1543.06 1942.79 1543.69 Q1945.29 1544.31 1948.07 1544.31 Q1952.58 1544.31 1955.21 1541.94 Q1957.84 1539.57 1957.84 1535.51 Q1957.84 1531.45 1955.21 1529.08 Q1952.58 1526.71 1948.07 1526.71 Q1945.96 1526.71 1943.86 1527.18 Q1941.77 1527.65 1939.58 1528.64 L1939.58 1509.1 Z" fill="#bebebe" fill-rule="evenodd" fill-opacity="1" /><path clip-path="url(#clip810)" d="M 0 0 M2280.59 1527.02 Q2284.37 1527.83 2286.47 1530.38 Q2288.61 1532.93 2288.61 1536.68 Q2288.61 1542.44 2284.65 1545.59 Q2280.69 1548.74 2273.4 1548.74 Q2270.95 1548.74 2268.35 1548.24 Q2265.77 1547.78 2263.01 1546.81 L2263.01 1541.73 Q2265.2 1543.01 2267.8 1543.66 Q2270.41 1544.31 2273.25 1544.31 Q2278.19 1544.31 2280.77 1542.36 Q2283.38 1540.41 2283.38 1536.68 Q2283.38 1533.24 2280.95 1531.32 Q2278.56 1529.36 2274.26 1529.36 L2269.73 1529.36 L2269.73 1525.04 L2274.47 1525.04 Q2278.35 1525.04 2280.41 1523.5 Q2282.46 1521.94 2282.46 1519.03 Q2282.46 1516.03 2280.33 1514.44 Q2278.22 1512.83 2274.26 1512.83 Q2272.1 1512.83 2269.63 1513.3 Q2267.15 1513.77 2264.18 1514.75 L2264.18 1510.07 Q2267.18 1509.23 2269.78 1508.82 Q2272.41 1508.4 2274.73 1508.4 Q2280.72 1508.4 2284.21 1511.14 Q2287.7 1513.84 2287.7 1518.48 Q2287.7 1521.71 2285.85 1523.95 Q2284 1526.16 2280.59 1527.02 Z" fill="#bebebe" fill-rule="evenodd" fill-opacity="1" /><path clip-path="url(#clip810)" d="M 0 0 M2305.56 1512.57 Q2301.5 1512.57 2299.44 1516.58 Q2297.41 1520.56 2297.41 1528.58 Q2297.41 1536.58 2299.44 1540.59 Q2301.5 1544.57 2305.56 1544.57 Q2309.65 1544.57 2311.68 1540.59 Q2313.74 1536.58 2313.74 1528.58 Q2313.74 1520.56 2311.68 1516.58 Q2309.65 1512.57 2305.56 1512.57 M2305.56 1508.4 Q2312.1 1508.4 2315.54 1513.58 Q2319 1518.74 2319 1528.58 Q2319 1538.4 2315.54 1543.58 Q2312.1 1548.74 2305.56 1548.74 Q2299.03 1548.74 2295.56 1543.58 Q2292.13 1538.4 2292.13 1528.58 Q2292.13 1518.74 2295.56 1513.58 Q2299.03 1508.4 2305.56 1508.4 Z" fill="#bebebe" fill-rule="evenodd" fill-opacity="1" /><polyline clip-path="url(#clip812)" style="stroke:#000000; stroke-width:2; stroke-opacity:0.1; fill:none" points="
  170.924,1221.76 2352.76,1221.76 
  "/>
<polyline clip-path="url(#clip812)" style="stroke:#000000; stroke-width:2; stroke-opacity:0.1; fill:none" points="
  170.924,959.825 2352.76,959.825 
  "/>
<polyline clip-path="url(#clip812)" style="stroke:#000000; stroke-width:2; stroke-opacity:0.1; fill:none" points="
  170.924,697.888 2352.76,697.888 
  "/>
<polyline clip-path="url(#clip812)" style="stroke:#000000; stroke-width:2; stroke-opacity:0.1; fill:none" points="
  170.924,435.951 2352.76,435.951 
  "/>
<polyline clip-path="url(#clip812)" style="stroke:#000000; stroke-width:2; stroke-opacity:0.1; fill:none" points="
  170.924,174.014 2352.76,174.014 
  "/>
<polyline clip-path="url(#clip810)" style="stroke:#000000; stroke-width:4; stroke-opacity:1; fill:none" points="
  170.924,1482.13 170.924,149.392 
  "/>
<polyline clip-path="url(#clip810)" style="stroke:#000000; stroke-width:4; stroke-opacity:1; fill:none" points="
  170.924,1221.76 197.106,1221.76 
  "/>
<polyline clip-path="url(#clip810)" style="stroke:#000000; stroke-width:4; stroke-opacity:1; fill:none" points="
  170.924,959.825 197.106,959.825 
  "/>
<polyline clip-path="url(#clip810)" style="stroke:#000000; stroke-width:4; stroke-opacity:1; fill:none" points="
  170.924,697.888 197.106,697.888 
  "/>
<polyline clip-path="url(#clip810)" style="stroke:#000000; stroke-width:4; stroke-opacity:1; fill:none" points="
  170.924,435.951 197.106,435.951 
  "/>
<polyline clip-path="url(#clip810)" style="stroke:#000000; stroke-width:4; stroke-opacity:1; fill:none" points="
  170.924,174.014 197.106,174.014 
  "/>
<path clip-path="url(#clip810)" d="M 0 0 M86.1742 1236.78 L104.534 1236.78 L104.534 1241.2 L79.8461 1241.2 L79.8461 1236.78 Q82.8409 1233.68 87.9971 1228.47 Q93.1794 1223.23 94.5075 1221.72 Q97.0335 1218.88 98.0231 1216.93 Q99.0387 1214.95 99.0387 1213.05 Q99.0387 1209.95 96.8513 1208 Q94.6898 1206.05 91.2002 1206.05 Q88.7263 1206.05 85.9659 1206.91 Q83.2315 1207.77 80.1066 1209.51 L80.1066 1204.2 Q83.2836 1202.92 86.044 1202.27 Q88.8044 1201.62 91.0961 1201.62 Q97.1377 1201.62 100.731 1204.64 Q104.325 1207.66 104.325 1212.71 Q104.325 1215.11 103.414 1217.27 Q102.528 1219.41 100.159 1222.32 Q99.5075 1223.08 96.0179 1226.7 Q92.5284 1230.29 86.1742 1236.78 Z" fill="#bebebe" fill-rule="evenodd" fill-opacity="1" /><path clip-path="url(#clip810)" d="M 0 0 M121.487 1205.79 Q117.424 1205.79 115.367 1209.8 Q113.336 1213.78 113.336 1221.8 Q113.336 1229.8 115.367 1233.81 Q117.424 1237.79 121.487 1237.79 Q125.575 1237.79 127.606 1233.81 Q129.664 1229.8 129.664 1221.8 Q129.664 1213.78 127.606 1209.8 Q125.575 1205.79 121.487 1205.79 M121.487 1201.62 Q128.023 1201.62 131.46 1206.8 Q134.924 1211.96 134.924 1221.8 Q134.924 1231.62 131.46 1236.8 Q128.023 1241.96 121.487 1241.96 Q114.95 1241.96 111.487 1236.8 Q108.049 1231.62 108.049 1221.8 Q108.049 1211.96 111.487 1206.8 Q114.95 1201.62 121.487 1201.62 Z" fill="#bebebe" fill-rule="evenodd" fill-opacity="1" /><path clip-path="url(#clip810)" d="M 0 0 M93.7523 944.969 L80.4711 965.724 L93.7523 965.724 L93.7523 944.969 M92.3721 940.385 L98.9867 940.385 L98.9867 965.724 L104.534 965.724 L104.534 970.099 L98.9867 970.099 L98.9867 979.265 L93.7523 979.265 L93.7523 970.099 L76.2003 970.099 L76.2003 965.021 L92.3721 940.385 Z" fill="#bebebe" fill-rule="evenodd" fill-opacity="1" /><path clip-path="url(#clip810)" d="M 0 0 M121.487 943.849 Q117.424 943.849 115.367 947.859 Q113.336 951.844 113.336 959.864 Q113.336 967.859 115.367 971.87 Q117.424 975.854 121.487 975.854 Q125.575 975.854 127.606 971.87 Q129.664 967.859 129.664 959.864 Q129.664 951.844 127.606 947.859 Q125.575 943.849 121.487 943.849 M121.487 939.682 Q128.023 939.682 131.46 944.865 Q134.924 950.021 134.924 959.864 Q134.924 969.682 131.46 974.864 Q128.023 980.021 121.487 980.021 Q114.95 980.021 111.487 974.864 Q108.049 969.682 108.049 959.864 Q108.049 950.021 111.487 944.865 Q114.95 939.682 121.487 939.682 Z" fill="#bebebe" fill-rule="evenodd" fill-opacity="1" /><path clip-path="url(#clip810)" d="M 0 0 M91.5648 695.792 Q88.0232 695.792 85.9399 698.214 Q83.8826 700.636 83.8826 704.854 Q83.8826 709.047 85.9399 711.495 Q88.0232 713.917 91.5648 713.917 Q95.1065 713.917 97.1638 711.495 Q99.2471 709.047 99.2471 704.854 Q99.2471 700.636 97.1638 698.214 Q95.1065 695.792 91.5648 695.792 M102.007 679.308 L102.007 684.099 Q100.028 683.162 97.9971 682.667 Q95.9919 682.172 94.0127 682.172 Q88.8044 682.172 86.044 685.688 Q83.3097 689.203 82.919 696.313 Q84.4555 694.047 86.7732 692.849 Q89.0909 691.625 91.8773 691.625 Q97.7367 691.625 101.122 695.193 Q104.534 698.735 104.534 704.854 Q104.534 710.844 100.992 714.464 Q97.4502 718.084 91.5648 718.084 Q84.8201 718.084 81.2524 712.927 Q77.6847 707.745 77.6847 697.927 Q77.6847 688.709 82.0597 683.24 Q86.4346 677.745 93.8044 677.745 Q95.7836 677.745 97.7888 678.136 Q99.82 678.526 102.007 679.308 Z" fill="#bebebe" fill-rule="evenodd" fill-opacity="1" /><path clip-path="url(#clip810)" d="M 0 0 M121.487 681.912 Q117.424 681.912 115.367 685.922 Q113.336 689.907 113.336 697.927 Q113.336 705.922 115.367 709.933 Q117.424 713.917 121.487 713.917 Q125.575 713.917 127.606 709.933 Q129.664 705.922 129.664 697.927 Q129.664 689.907 127.606 685.922 Q125.575 681.912 121.487 681.912 M121.487 677.745 Q128.023 677.745 131.46 682.927 Q134.924 688.084 134.924 697.927 Q134.924 707.745 131.46 712.927 Q128.023 718.084 121.487 718.084 Q114.95 718.084 111.487 712.927 Q108.049 707.745 108.049 697.927 Q108.049 688.084 111.487 682.927 Q114.95 677.745 121.487 677.745 Z" fill="#bebebe" fill-rule="evenodd" fill-opacity="1" /><path clip-path="url(#clip810)" d="M 0 0 M91.2002 436.928 Q87.4503 436.928 85.2888 438.933 Q83.1534 440.938 83.1534 444.454 Q83.1534 447.969 85.2888 449.975 Q87.4503 451.98 91.2002 451.98 Q94.9502 451.98 97.1117 449.975 Q99.2731 447.943 99.2731 444.454 Q99.2731 440.938 97.1117 438.933 Q94.9763 436.928 91.2002 436.928 M85.9399 434.688 Q82.5545 433.855 80.6534 431.537 Q78.7784 429.22 78.7784 425.886 Q78.7784 421.225 82.0857 418.516 Q85.419 415.808 91.2002 415.808 Q97.0075 415.808 100.315 418.516 Q103.622 421.225 103.622 425.886 Q103.622 429.22 101.721 431.537 Q99.846 433.855 96.4867 434.688 Q100.289 435.574 102.398 438.152 Q104.534 440.73 104.534 444.454 Q104.534 450.105 101.07 453.126 Q97.6325 456.146 91.2002 456.146 Q84.768 456.146 81.3045 453.126 Q77.867 450.105 77.867 444.454 Q77.867 440.73 80.0024 438.152 Q82.1378 435.574 85.9399 434.688 M84.0128 426.381 Q84.0128 429.402 85.8878 431.095 Q87.7888 432.787 91.2002 432.787 Q94.5856 432.787 96.4867 431.095 Q98.4137 429.402 98.4137 426.381 Q98.4137 423.36 96.4867 421.667 Q94.5856 419.975 91.2002 419.975 Q87.7888 419.975 85.8878 421.667 Q84.0128 423.36 84.0128 426.381 Z" fill="#bebebe" fill-rule="evenodd" fill-opacity="1" /><path clip-path="url(#clip810)" d="M 0 0 M121.487 419.975 Q117.424 419.975 115.367 423.985 Q113.336 427.97 113.336 435.99 Q113.336 443.985 115.367 447.995 Q117.424 451.98 121.487 451.98 Q125.575 451.98 127.606 447.995 Q129.664 443.985 129.664 435.99 Q129.664 427.97 127.606 423.985 Q125.575 419.975 121.487 419.975 M121.487 415.808 Q128.023 415.808 131.46 420.99 Q134.924 426.147 134.924 435.99 Q134.924 445.808 131.46 450.99 Q128.023 456.146 121.487 456.146 Q114.95 456.146 111.487 450.99 Q108.049 445.808 108.049 435.99 Q108.049 426.147 111.487 420.99 Q114.95 415.808 121.487 415.808 Z" fill="#bebebe" fill-rule="evenodd" fill-opacity="1" /><path clip-path="url(#clip810)" d="M 0 0 M51.7473 189.027 L60.341 189.027 L60.341 159.366 L50.9921 161.241 L50.9921 156.449 L60.289 154.574 L65.5493 154.574 L65.5493 189.027 L74.143 189.027 L74.143 193.454 L51.7473 193.454 L51.7473 189.027 Z" fill="#bebebe" fill-rule="evenodd" fill-opacity="1" /><path clip-path="url(#clip810)" d="M 0 0 M91.0961 158.038 Q87.0336 158.038 84.9763 162.048 Q82.9451 166.032 82.9451 174.053 Q82.9451 182.048 84.9763 186.058 Q87.0336 190.043 91.0961 190.043 Q95.1846 190.043 97.2158 186.058 Q99.2731 182.048 99.2731 174.053 Q99.2731 166.032 97.2158 162.048 Q95.1846 158.038 91.0961 158.038 M91.0961 153.871 Q97.6325 153.871 101.07 159.053 Q104.534 164.21 104.534 174.053 Q104.534 183.871 101.07 189.053 Q97.6325 194.209 91.0961 194.209 Q84.5597 194.209 81.0961 189.053 Q77.6586 183.871 77.6586 174.053 Q77.6586 164.21 81.0961 159.053 Q84.5597 153.871 91.0961 153.871 Z" fill="#bebebe" fill-rule="evenodd" fill-opacity="1" /><path clip-path="url(#clip810)" d="M 0 0 M121.487 158.038 Q117.424 158.038 115.367 162.048 Q113.336 166.032 113.336 174.053 Q113.336 182.048 115.367 186.058 Q117.424 190.043 121.487 190.043 Q125.575 190.043 127.606 186.058 Q129.664 182.048 129.664 174.053 Q129.664 166.032 127.606 162.048 Q125.575 158.038 121.487 158.038 M121.487 153.871 Q128.023 153.871 131.46 159.053 Q134.924 164.21 134.924 174.053 Q134.924 183.871 131.46 189.053 Q128.023 194.209 121.487 194.209 Q114.95 194.209 111.487 189.053 Q108.049 183.871 108.049 174.053 Q108.049 164.21 111.487 159.053 Q114.95 153.871 121.487 153.871 Z" fill="#bebebe" fill-rule="evenodd" fill-opacity="1" /><path clip-path="url(#clip810)" d="M 0 0 M1041.12 20.1156 L1041.12 31.516 Q1034.47 28.3332 1028.57 26.7707 Q1022.66 25.2082 1017.17 25.2082 Q1007.62 25.2082 1002.41 28.9119 Q997.258 32.6156 997.258 39.4442 Q997.258 45.1734 1000.67 48.1247 Q1004.14 51.0182 1013.75 52.8122 L1020.81 54.259 Q1033.89 56.7474 1040.08 63.0552 Q1046.33 69.3052 1046.33 79.8375 Q1046.33 92.3953 1037.88 98.8768 Q1029.49 105.358 1013.23 105.358 Q1007.1 105.358 1000.15 103.969 Q993.265 102.58 985.858 99.8606 L985.858 87.8236 Q992.976 91.8166 999.804 93.8421 Q1006.63 95.8675 1013.23 95.8675 Q1023.24 95.8675 1028.68 91.9324 Q1034.12 87.9972 1034.12 80.7056 Q1034.12 74.3399 1030.19 70.7519 Q1026.31 67.164 1017.4 65.37 L1010.28 63.9811 Q997.2 61.377 991.355 55.8215 Q985.51 50.2659 985.51 40.3702 Q985.51 28.9119 993.554 22.3147 Q1001.66 15.7175 1015.83 15.7175 Q1021.91 15.7175 1028.22 16.817 Q1034.53 17.9166 1041.12 20.1156 Z" fill="#bebebe" fill-rule="evenodd" fill-opacity="1" /><path clip-path="url(#clip810)" d="M 0 0 M1112.94 68.6107 L1112.94 73.819 L1063.98 73.819 Q1064.68 84.8144 1070.58 90.6014 Q1076.54 96.3305 1087.13 96.3305 Q1093.26 96.3305 1098.99 94.8259 Q1104.78 93.3213 1110.45 90.312 L1110.45 100.381 Q1104.72 102.812 1098.7 104.085 Q1092.69 105.358 1086.49 105.358 Q1070.98 105.358 1061.9 96.3305 Q1052.87 87.3028 1052.87 71.9093 Q1052.87 55.9951 1061.44 46.678 Q1070.06 37.303 1084.64 37.303 Q1097.72 37.303 1105.3 45.7521 Q1112.94 54.1432 1112.94 68.6107 M1102.29 65.4858 Q1102.18 56.7474 1097.37 51.5391 Q1092.63 46.3308 1084.76 46.3308 Q1075.85 46.3308 1070.46 51.3655 Q1065.14 56.4002 1064.33 65.5436 L1102.29 65.4858 Z" fill="#bebebe" fill-rule="evenodd" fill-opacity="1" /><path clip-path="url(#clip810)" d="M 0 0 M1161.67 48.8192 Q1159.87 47.7775 1157.73 47.3146 Q1155.65 46.7937 1153.1 46.7937 Q1144.07 46.7937 1139.21 52.6965 Q1134.41 58.5414 1134.41 69.5367 L1134.41 103.68 L1123.7 103.68 L1123.7 38.8655 L1134.41 38.8655 L1134.41 48.9349 Q1137.77 43.0322 1143.15 40.1965 Q1148.53 37.303 1156.23 37.303 Q1157.33 37.303 1158.66 37.4767 Q1159.99 37.5924 1161.61 37.8817 L1161.67 48.8192 Z" fill="#bebebe" fill-rule="evenodd" fill-opacity="1" /><path clip-path="url(#clip810)" d="M 0 0 M1172.84 38.8655 L1183.48 38.8655 L1183.48 103.68 L1172.84 103.68 L1172.84 38.8655 M1172.84 13.6342 L1183.48 13.6342 L1183.48 27.1179 L1172.84 27.1179 L1172.84 13.6342 Z" fill="#bebebe" fill-rule="evenodd" fill-opacity="1" /><path clip-path="url(#clip810)" d="M 0 0 M1250.09 68.6107 L1250.09 73.819 L1201.13 73.819 Q1201.83 84.8144 1207.73 90.6014 Q1213.69 96.3305 1224.28 96.3305 Q1230.42 96.3305 1236.15 94.8259 Q1241.93 93.3213 1247.6 90.312 L1247.6 100.381 Q1241.87 102.812 1235.86 104.085 Q1229.84 105.358 1223.65 105.358 Q1208.14 105.358 1199.05 96.3305 Q1190.02 87.3028 1190.02 71.9093 Q1190.02 55.9951 1198.59 46.678 Q1207.21 37.303 1221.79 37.303 Q1234.87 37.303 1242.45 45.7521 Q1250.09 54.1432 1250.09 68.6107 M1239.44 65.4858 Q1239.33 56.7474 1234.53 51.5391 Q1229.78 46.3308 1221.91 46.3308 Q1213 46.3308 1207.62 51.3655 Q1202.29 56.4002 1201.48 65.5436 L1239.44 65.4858 Z" fill="#bebebe" fill-rule="evenodd" fill-opacity="1" /><path clip-path="url(#clip810)" d="M 0 0 M1309 8.88884 L1325.32 30.5322 L1316.47 30.5322 L1297.6 8.88884 L1309 8.88884 Z" fill="#bebebe" fill-rule="evenodd" fill-opacity="1" /><path clip-path="url(#clip810)" d="M 0 0 M1336.49 13.6342 L1347.14 13.6342 L1347.14 103.68 L1336.49 103.68 L1336.49 13.6342 Z" fill="#bebebe" fill-rule="evenodd" fill-opacity="1" /><path clip-path="url(#clip810)" d="M 0 0 M1358.31 38.8655 L1368.96 38.8655 L1368.96 103.68 L1358.31 103.68 L1358.31 38.8655 M1358.31 13.6342 L1368.96 13.6342 L1368.96 27.1179 L1358.31 27.1179 L1358.31 13.6342 Z" fill="#bebebe" fill-rule="evenodd" fill-opacity="1" /><path clip-path="url(#clip810)" d="M 0 0 M1434 64.5598 L1434 103.68 L1423.36 103.68 L1423.36 64.9071 Q1423.36 55.7057 1419.77 51.134 Q1416.18 46.5623 1409 46.5623 Q1400.38 46.5623 1395.4 52.0599 Q1390.43 57.5576 1390.43 67.0483 L1390.43 103.68 L1379.72 103.68 L1379.72 38.8655 L1390.43 38.8655 L1390.43 48.9349 Q1394.25 43.09 1399.4 40.1965 Q1404.61 37.303 1411.38 37.303 Q1422.55 37.303 1428.27 44.2474 Q1434 51.134 1434 64.5598 Z" fill="#bebebe" fill-rule="evenodd" fill-opacity="1" /><path clip-path="url(#clip810)" d="M 0 0 M1500.61 68.6107 L1500.61 73.819 L1451.65 73.819 Q1452.35 84.8144 1458.25 90.6014 Q1464.21 96.3305 1474.8 96.3305 Q1480.94 96.3305 1486.67 94.8259 Q1492.45 93.3213 1498.12 90.312 L1498.12 100.381 Q1492.39 102.812 1486.38 104.085 Q1480.36 105.358 1474.17 105.358 Q1458.66 105.358 1449.57 96.3305 Q1440.54 87.3028 1440.54 71.9093 Q1440.54 55.9951 1449.11 46.678 Q1457.73 37.303 1472.31 37.303 Q1485.39 37.303 1492.97 45.7521 Q1500.61 54.1432 1500.61 68.6107 M1489.96 65.4858 Q1489.85 56.7474 1485.04 51.5391 Q1480.3 46.3308 1472.43 46.3308 Q1463.52 46.3308 1458.14 51.3655 Q1452.81 56.4002 1452 65.5436 L1489.96 65.4858 Z" fill="#bebebe" fill-rule="evenodd" fill-opacity="1" /><path clip-path="url(#clip810)" d="M 0 0 M1521.85 8.88884 L1538.17 30.5322 L1529.32 30.5322 L1510.45 8.88884 L1521.85 8.88884 Z" fill="#bebebe" fill-rule="evenodd" fill-opacity="1" /><polyline clip-path="url(#clip812)" style="stroke:#e69f00; stroke-width:4; stroke-opacity:1; fill:none" points="
  232.674,304.983 303.651,435.951 374.628,1274.15 445.605,724.082 516.582,1208.67 587.559,1300.34 658.536,593.114 729.513,710.985 800.49,1378.92 871.467,514.532 
  942.444,1208.67 1013.42,187.111 1084.4,855.051 1155.37,1444.41 1226.35,1090.79 1297.33,750.276 1368.31,553.823 1439.28,868.147 1510.26,828.857 1581.24,645.501 
  1652.21,776.469 1723.19,959.825 1794.17,881.244 1865.14,409.758 1936.12,684.791 2007.1,1339.63 2078.08,763.373 2149.05,1405.12 2220.03,986.019 2291.01,1365.83 
  
  "/>
<path clip-path="url(#clip810)" d="
M1986.58 314.777 L2280.03 314.777 L2280.03 193.817 L1986.58 193.817  Z
  " fill="#ffffff" fill-rule="evenodd" fill-opacity="1"/>
<polyline clip-path="url(#clip810)" style="stroke:#000000; stroke-width:4; stroke-opacity:1; fill:none" points="
  1986.58,314.777 2280.03,314.777 2280.03,193.817 1986.58,193.817 1986.58,314.777 
  "/>
<polyline clip-path="url(#clip810)" style="stroke:#e69f00; stroke-width:4; stroke-opacity:1; fill:none" points="
  2010.83,254.297 2156.28,254.297 
  "/>
<path clip-path="url(#clip810)" d="M 0 0 M2194.37 273.984 Q2192.56 278.614 2190.85 280.026 Q2189.14 281.438 2186.27 281.438 L2182.86 281.438 L2182.86 277.873 L2185.36 277.873 Q2187.12 277.873 2188.09 277.04 Q2189.07 276.206 2190.25 273.104 L2191.01 271.16 L2180.52 245.651 L2185.04 245.651 L2193.14 265.929 L2201.24 245.651 L2205.76 245.651 L2194.37 273.984 Z" fill="#bebebe" fill-rule="evenodd" fill-opacity="1" /><path clip-path="url(#clip810)" d="M 0 0 M2211.64 267.641 L2219.27 267.641 L2219.27 241.276 L2210.96 242.943 L2210.96 238.683 L2219.23 237.017 L2223.9 237.017 L2223.9 267.641 L2231.54 267.641 L2231.54 271.577 L2211.64 271.577 L2211.64 267.641 Z" fill="#bebebe" fill-rule="evenodd" fill-opacity="1" /></svg>
