<?xml version="1.0" encoding="utf-8"?>
<svg xmlns="http://www.w3.org/2000/svg" xmlns:xlink="http://www.w3.org/1999/xlink" width="600" height="400" viewBox="0 0 2400 1600">
<defs>
  <clipPath id="clip650">
    <rect x="0" y="0" width="2400" height="1600"/>
  </clipPath>
</defs>
<path clip-path="url(#clip650)" d="
M0 1600 L2400 1600 L2400 0 L0 0  Z
  " fill="#ffffff" fill-rule="evenodd" fill-opacity="1"/>
<defs>
  <clipPath id="clip651">
    <rect x="480" y="0" width="1681" height="1600"/>
  </clipPath>
</defs>
<path clip-path="url(#clip650)" d="
M185.846 1482.13 L2352.76 1482.13 L2352.76 149.392 L185.846 149.392  Z
  " fill="#ffffff" fill-rule="evenodd" fill-opacity="1"/>
<defs>
  <clipPath id="clip652">
    <rect x="185" y="149" width="2168" height="1334"/>
  </clipPath>
</defs>
<polyline clip-path="url(#clip652)" style="stroke:#000000; stroke-width:2; stroke-opacity:0.1; fill:none" points="
  677.543,1482.13 677.543,149.392 
  "/>
<polyline clip-path="url(#clip652)" style="stroke:#000000; stroke-width:2; stroke-opacity:0.1; fill:none" points="
  1215.5,1482.13 1215.5,149.392 
  "/>
<polyline clip-path="url(#clip652)" style="stroke:#000000; stroke-width:2; stroke-opacity:0.1; fill:none" points="
  1753.47,1482.13 1753.47,149.392 
  "/>
<polyline clip-path="url(#clip652)" style="stroke:#000000; stroke-width:2; stroke-opacity:0.1; fill:none" points="
  2291.43,1482.13 2291.43,149.392 
  "/>
<polyline clip-path="url(#clip650)" style="stroke:#000000; stroke-width:4; stroke-opacity:1; fill:none" points="
  185.846,1482.13 2352.76,1482.13 
  "/>
<polyline clip-path="url(#clip650)" style="stroke:#000000; stroke-width:4; stroke-opacity:1; fill:none" points="
  677.543,1482.13 677.543,1466.14 
  "/>
<polyline clip-path="url(#clip650)" style="stroke:#000000; stroke-width:4; stroke-opacity:1; fill:none" points="
  1215.5,1482.13 1215.5,1466.14 
  "/>
<polyline clip-path="url(#clip650)" style="stroke:#000000; stroke-width:4; stroke-opacity:1; fill:none" points="
  1753.47,1482.13 1753.47,1466.14 
  "/>
<polyline clip-path="url(#clip650)" style="stroke:#000000; stroke-width:4; stroke-opacity:1; fill:none" points="
  2291.43,1482.13 2291.43,1466.14 
  "/>
<path clip-path="url(#clip650)" d="M 0 0 M666.605 1509.1 L687.256 1509.1 L687.256 1513.53 L671.423 1513.53 L671.423 1523.06 Q672.569 1522.67 673.715 1522.49 Q674.861 1522.28 676.006 1522.28 Q682.517 1522.28 686.319 1525.85 Q690.121 1529.42 690.121 1535.51 Q690.121 1541.79 686.215 1545.28 Q682.308 1548.74 675.199 1548.74 Q672.751 1548.74 670.199 1548.32 Q667.673 1547.91 664.965 1547.07 L664.965 1541.79 Q667.309 1543.06 669.809 1543.69 Q672.309 1544.31 675.095 1544.31 Q679.6 1544.31 682.23 1541.94 Q684.861 1539.57 684.861 1535.51 Q684.861 1531.45 682.23 1529.08 Q679.6 1526.71 675.095 1526.71 Q672.986 1526.71 670.876 1527.18 Q668.793 1527.65 666.605 1528.64 L666.605 1509.1 Z" fill="#bebebe" fill-rule="evenodd" fill-opacity="1" /><path clip-path="url(#clip650)" d="M 0 0 M1189.49 1543.56 L1198.08 1543.56 L1198.08 1513.9 L1188.73 1515.77 L1188.73 1510.98 L1198.03 1509.1 L1203.29 1509.1 L1203.29 1543.56 L1211.88 1543.56 L1211.88 1547.98 L1189.49 1547.98 L1189.49 1543.56 Z" fill="#bebebe" fill-rule="evenodd" fill-opacity="1" /><path clip-path="url(#clip650)" d="M 0 0 M1228.84 1512.57 Q1224.78 1512.57 1222.72 1516.58 Q1220.69 1520.56 1220.69 1528.58 Q1220.69 1536.58 1222.72 1540.59 Q1224.78 1544.57 1228.84 1544.57 Q1232.93 1544.57 1234.96 1540.59 Q1237.01 1536.58 1237.01 1528.58 Q1237.01 1520.56 1234.96 1516.58 Q1232.93 1512.57 1228.84 1512.57 M1228.84 1508.4 Q1235.37 1508.4 1238.81 1513.58 Q1242.28 1518.74 1242.28 1528.58 Q1242.28 1538.4 1238.81 1543.58 Q1235.37 1548.74 1228.84 1548.74 Q1222.3 1548.74 1218.84 1543.58 Q1215.4 1538.4 1215.4 1528.58 Q1215.4 1518.74 1218.84 1513.58 Q1222.3 1508.4 1228.84 1508.4 Z" fill="#bebebe" fill-rule="evenodd" fill-opacity="1" /><path clip-path="url(#clip650)" d="M 0 0 M1728.01 1543.56 L1736.6 1543.56 L1736.6 1513.9 L1727.26 1515.77 L1727.26 1510.98 L1736.55 1509.1 L1741.81 1509.1 L1741.81 1543.56 L1750.41 1543.56 L1750.41 1547.98 L1728.01 1547.98 L1728.01 1543.56 Z" fill="#bebebe" fill-rule="evenodd" fill-opacity="1" /><path clip-path="url(#clip650)" d="M 0 0 M1756.16 1509.1 L1776.81 1509.1 L1776.81 1513.53 L1760.98 1513.53 L1760.98 1523.06 Q1762.13 1522.67 1763.27 1522.49 Q1764.42 1522.28 1765.56 1522.28 Q1772.07 1522.28 1775.88 1525.85 Q1779.68 1529.42 1779.68 1535.51 Q1779.68 1541.79 1775.77 1545.28 Q1771.86 1548.74 1764.76 1548.74 Q1762.31 1548.74 1759.76 1548.32 Q1757.23 1547.91 1754.52 1547.07 L1754.52 1541.79 Q1756.86 1543.06 1759.36 1543.69 Q1761.86 1544.31 1764.65 1544.31 Q1769.16 1544.31 1771.79 1541.94 Q1774.42 1539.57 1774.42 1535.51 Q1774.42 1531.45 1771.79 1529.08 Q1769.16 1526.71 1764.65 1526.71 Q1762.54 1526.71 1760.43 1527.18 Q1758.35 1527.65 1756.16 1528.64 L1756.16 1509.1 Z" fill="#bebebe" fill-rule="evenodd" fill-opacity="1" /><path clip-path="url(#clip650)" d="M 0 0 M2270.22 1543.56 L2288.58 1543.56 L2288.58 1547.98 L2263.89 1547.98 L2263.89 1543.56 Q2266.88 1540.46 2272.04 1535.25 Q2277.22 1530.02 2278.55 1528.5 Q2281.08 1525.67 2282.07 1523.71 Q2283.08 1521.73 2283.08 1519.83 Q2283.08 1516.73 2280.89 1514.78 Q2278.73 1512.83 2275.24 1512.83 Q2272.77 1512.83 2270.01 1513.69 Q2267.27 1514.55 2264.15 1516.29 L2264.15 1510.98 Q2267.33 1509.7 2270.09 1509.05 Q2272.85 1508.4 2275.14 1508.4 Q2281.18 1508.4 2284.77 1511.42 Q2288.37 1514.44 2288.37 1519.49 Q2288.37 1521.89 2287.46 1524.05 Q2286.57 1526.19 2284.2 1529.1 Q2283.55 1529.86 2280.06 1533.48 Q2276.57 1537.07 2270.22 1543.56 Z" fill="#bebebe" fill-rule="evenodd" fill-opacity="1" /><path clip-path="url(#clip650)" d="M 0 0 M2305.53 1512.57 Q2301.47 1512.57 2299.41 1516.58 Q2297.38 1520.56 2297.38 1528.58 Q2297.38 1536.58 2299.41 1540.59 Q2301.47 1544.57 2305.53 1544.57 Q2309.62 1544.57 2311.65 1540.59 Q2313.71 1536.58 2313.71 1528.58 Q2313.71 1520.56 2311.65 1516.58 Q2309.62 1512.57 2305.53 1512.57 M2305.53 1508.4 Q2312.07 1508.4 2315.5 1513.58 Q2318.97 1518.74 2318.97 1528.58 Q2318.97 1538.4 2315.5 1543.58 Q2312.07 1548.74 2305.53 1548.74 Q2298.99 1548.74 2295.53 1543.58 Q2292.09 1538.4 2292.09 1528.58 Q2292.09 1518.74 2295.53 1513.58 Q2298.99 1508.4 2305.53 1508.4 Z" fill="#bebebe" fill-rule="evenodd" fill-opacity="1" /><polyline clip-path="url(#clip652)" style="stroke:#000000; stroke-width:2; stroke-opacity:0.1; fill:none" points="
  185.846,1445.61 2352.76,1445.61 
  "/>
<polyline clip-path="url(#clip652)" style="stroke:#000000; stroke-width:2; stroke-opacity:0.1; fill:none" points="
  185.846,1126.26 2352.76,1126.26 
  "/>
<polyline clip-path="url(#clip652)" style="stroke:#000000; stroke-width:2; stroke-opacity:0.1; fill:none" points="
  185.846,806.916 2352.76,806.916 
  "/>
<polyline clip-path="url(#clip652)" style="stroke:#000000; stroke-width:2; stroke-opacity:0.1; fill:none" points="
  185.846,487.57 2352.76,487.57 
  "/>
<polyline clip-path="url(#clip652)" style="stroke:#000000; stroke-width:2; stroke-opacity:0.1; fill:none" points="
  185.846,168.223 2352.76,168.223 
  "/>
<polyline clip-path="url(#clip650)" style="stroke:#000000; stroke-width:4; stroke-opacity:1; fill:none" points="
  185.846,1482.13 185.846,149.392 
  "/>
<polyline clip-path="url(#clip650)" style="stroke:#000000; stroke-width:4; stroke-opacity:1; fill:none" points="
  185.846,1445.61 211.849,1445.61 
  "/>
<polyline clip-path="url(#clip650)" style="stroke:#000000; stroke-width:4; stroke-opacity:1; fill:none" points="
  185.846,1126.26 211.849,1126.26 
  "/>
<polyline clip-path="url(#clip650)" style="stroke:#000000; stroke-width:4; stroke-opacity:1; fill:none" points="
  185.846,806.916 211.849,806.916 
  "/>
<polyline clip-path="url(#clip650)" style="stroke:#000000; stroke-width:4; stroke-opacity:1; fill:none" points="
  185.846,487.57 211.849,487.57 
  "/>
<polyline clip-path="url(#clip650)" style="stroke:#000000; stroke-width:4; stroke-opacity:1; fill:none" points="
  185.846,168.223 211.849,168.223 
  "/>
<path clip-path="url(#clip650)" d="M 0 0 M64.4296 1429.63 Q60.3671 1429.63 58.3098 1433.64 Q56.2786 1437.63 56.2786 1445.65 Q56.2786 1453.64 58.3098 1457.65 Q60.3671 1461.64 64.4296 1461.64 Q68.5181 1461.64 70.5493 1457.65 Q72.6066 1453.64 72.6066 1445.65 Q72.6066 1437.63 70.5493 1433.64 Q68.5181 1429.63 64.4296 1429.63 M64.4296 1425.47 Q70.966 1425.47 74.4035 1430.65 Q77.867 1435.8 77.867 1445.65 Q77.867 1455.46 74.4035 1460.65 Q70.966 1465.8 64.4296 1465.8 Q57.8931 1465.8 54.4296 1460.65 Q50.9921 1455.46 50.9921 1445.65 Q50.9921 1435.8 54.4296 1430.65 Q57.8931 1425.47 64.4296 1425.47 Z" fill="#bebebe" fill-rule="evenodd" fill-opacity="1" /><path clip-path="url(#clip650)" d="M 0 0 M83.5701 1458.43 L89.0648 1458.43 L89.0648 1465.05 L83.5701 1465.05 L83.5701 1458.43 Z" fill="#bebebe" fill-rule="evenodd" fill-opacity="1" /><path clip-path="url(#clip650)" d="M 0 0 M106.018 1429.63 Q101.955 1429.63 99.8981 1433.64 Q97.8669 1437.63 97.8669 1445.65 Q97.8669 1453.64 99.8981 1457.65 Q101.955 1461.64 106.018 1461.64 Q110.106 1461.64 112.138 1457.65 Q114.195 1453.64 114.195 1445.65 Q114.195 1437.63 112.138 1433.64 Q110.106 1429.63 106.018 1429.63 M106.018 1425.47 Q112.554 1425.47 115.992 1430.65 Q119.455 1435.8 119.455 1445.65 Q119.455 1455.46 115.992 1460.65 Q112.554 1465.8 106.018 1465.8 Q99.4814 1465.8 96.0179 1460.65 Q92.5804 1455.46 92.5804 1445.65 Q92.5804 1435.8 96.0179 1430.65 Q99.4814 1425.47 106.018 1425.47 Z" fill="#bebebe" fill-rule="evenodd" fill-opacity="1" /><path clip-path="url(#clip650)" d="M 0 0 M136.408 1429.63 Q132.346 1429.63 130.289 1433.64 Q128.257 1437.63 128.257 1445.65 Q128.257 1453.64 130.289 1457.65 Q132.346 1461.64 136.408 1461.64 Q140.497 1461.64 142.528 1457.65 Q144.585 1453.64 144.585 1445.65 Q144.585 1437.63 142.528 1433.64 Q140.497 1429.63 136.408 1429.63 M136.408 1425.47 Q142.945 1425.47 146.382 1430.65 Q149.846 1435.8 149.846 1445.65 Q149.846 1455.46 146.382 1460.65 Q142.945 1465.8 136.408 1465.8 Q129.872 1465.8 126.408 1460.65 Q122.971 1455.46 122.971 1445.65 Q122.971 1435.8 126.408 1430.65 Q129.872 1425.47 136.408 1425.47 Z" fill="#bebebe" fill-rule="evenodd" fill-opacity="1" /><path clip-path="url(#clip650)" d="M 0 0 M67.3462 1110.29 Q63.2837 1110.29 61.2264 1114.3 Q59.1952 1118.28 59.1952 1126.3 Q59.1952 1134.3 61.2264 1138.31 Q63.2837 1142.29 67.3462 1142.29 Q71.4347 1142.29 73.466 1138.31 Q75.5232 1134.3 75.5232 1126.3 Q75.5232 1118.28 73.466 1114.3 Q71.4347 1110.29 67.3462 1110.29 M67.3462 1106.12 Q73.8826 1106.12 77.3201 1111.3 Q80.7836 1116.46 80.7836 1126.3 Q80.7836 1136.12 77.3201 1141.3 Q73.8826 1146.46 67.3462 1146.46 Q60.8098 1146.46 57.3463 1141.3 Q53.9088 1136.12 53.9088 1126.3 Q53.9088 1116.46 57.3463 1111.3 Q60.8098 1106.12 67.3462 1106.12 Z" fill="#bebebe" fill-rule="evenodd" fill-opacity="1" /><path clip-path="url(#clip650)" d="M 0 0 M86.4867 1139.09 L91.9815 1139.09 L91.9815 1145.7 L86.4867 1145.7 L86.4867 1139.09 Z" fill="#bebebe" fill-rule="evenodd" fill-opacity="1" /><path clip-path="url(#clip650)" d="M 0 0 M102.216 1141.27 L120.575 1141.27 L120.575 1145.7 L95.8877 1145.7 L95.8877 1141.27 Q98.8825 1138.18 104.039 1132.97 Q109.221 1127.73 110.549 1126.22 Q113.075 1123.38 114.065 1121.43 Q115.08 1119.45 115.08 1117.55 Q115.08 1114.45 112.893 1112.5 Q110.731 1110.55 107.242 1110.55 Q104.768 1110.55 102.007 1111.41 Q99.2731 1112.26 96.1481 1114.01 L96.1481 1108.7 Q99.3252 1107.42 102.086 1106.77 Q104.846 1106.12 107.138 1106.12 Q113.179 1106.12 116.773 1109.14 Q120.367 1112.16 120.367 1117.21 Q120.367 1119.61 119.455 1121.77 Q118.57 1123.91 116.2 1126.82 Q115.549 1127.58 112.06 1131.2 Q108.57 1134.79 102.216 1141.27 Z" fill="#bebebe" fill-rule="evenodd" fill-opacity="1" /><path clip-path="url(#clip650)" d="M 0 0 M126.33 1106.82 L146.981 1106.82 L146.981 1111.25 L131.148 1111.25 L131.148 1120.78 Q132.294 1120.39 133.44 1120.21 Q134.585 1120 135.731 1120 Q142.242 1120 146.044 1123.57 Q149.846 1127.13 149.846 1133.23 Q149.846 1139.5 145.94 1142.99 Q142.033 1146.46 134.924 1146.46 Q132.476 1146.46 129.924 1146.04 Q127.398 1145.62 124.69 1144.79 L124.69 1139.5 Q127.033 1140.78 129.533 1141.41 Q132.033 1142.03 134.82 1142.03 Q139.325 1142.03 141.955 1139.66 Q144.585 1137.29 144.585 1133.23 Q144.585 1129.17 141.955 1126.8 Q139.325 1124.43 134.82 1124.43 Q132.71 1124.43 130.601 1124.89 Q128.518 1125.36 126.33 1126.35 L126.33 1106.82 Z" fill="#bebebe" fill-rule="evenodd" fill-opacity="1" /><path clip-path="url(#clip650)" d="M 0 0 M65.5493 790.939 Q61.4869 790.939 59.4296 794.95 Q57.3983 798.934 57.3983 806.955 Q57.3983 814.95 59.4296 818.96 Q61.4869 822.944 65.5493 822.944 Q69.6379 822.944 71.6691 818.96 Q73.7264 814.95 73.7264 806.955 Q73.7264 798.934 71.6691 794.95 Q69.6379 790.939 65.5493 790.939 M65.5493 786.773 Q72.0858 786.773 75.5232 791.955 Q78.9868 797.111 78.9868 806.955 Q78.9868 816.773 75.5232 821.955 Q72.0858 827.111 65.5493 827.111 Q59.0129 827.111 55.5494 821.955 Q52.1119 816.773 52.1119 806.955 Q52.1119 797.111 55.5494 791.955 Q59.0129 786.773 65.5493 786.773 Z" fill="#bebebe" fill-rule="evenodd" fill-opacity="1" /><path clip-path="url(#clip650)" d="M 0 0 M84.6899 819.741 L90.1846 819.741 L90.1846 826.356 L84.6899 826.356 L84.6899 819.741 Z" fill="#bebebe" fill-rule="evenodd" fill-opacity="1" /><path clip-path="url(#clip650)" d="M 0 0 M95.9398 787.476 L116.591 787.476 L116.591 791.903 L100.757 791.903 L100.757 801.434 Q101.903 801.043 103.049 800.861 Q104.195 800.653 105.341 800.653 Q111.851 800.653 115.653 804.221 Q119.455 807.788 119.455 813.882 Q119.455 820.158 115.549 823.648 Q111.643 827.111 104.534 827.111 Q102.086 827.111 99.5335 826.694 Q97.0075 826.278 94.2992 825.444 L94.2992 820.158 Q96.6429 821.434 99.1429 822.059 Q101.643 822.684 104.429 822.684 Q108.935 822.684 111.565 820.314 Q114.195 817.944 114.195 813.882 Q114.195 809.819 111.565 807.45 Q108.935 805.08 104.429 805.08 Q102.32 805.08 100.211 805.549 Q98.1273 806.017 95.9398 807.007 L95.9398 787.476 Z" fill="#bebebe" fill-rule="evenodd" fill-opacity="1" /><path clip-path="url(#clip650)" d="M 0 0 M136.408 790.939 Q132.346 790.939 130.289 794.95 Q128.257 798.934 128.257 806.955 Q128.257 814.95 130.289 818.96 Q132.346 822.944 136.408 822.944 Q140.497 822.944 142.528 818.96 Q144.585 814.95 144.585 806.955 Q144.585 798.934 142.528 794.95 Q140.497 790.939 136.408 790.939 M136.408 786.773 Q142.945 786.773 146.382 791.955 Q149.846 797.111 149.846 806.955 Q149.846 816.773 146.382 821.955 Q142.945 827.111 136.408 827.111 Q129.872 827.111 126.408 821.955 Q122.971 816.773 122.971 806.955 Q122.971 797.111 126.408 791.955 Q129.872 786.773 136.408 786.773 Z" fill="#bebebe" fill-rule="evenodd" fill-opacity="1" /><path clip-path="url(#clip650)" d="M 0 0 M66.565 471.593 Q62.5025 471.593 60.4452 475.604 Q58.414 479.588 58.414 487.609 Q58.414 495.603 60.4452 499.614 Q62.5025 503.598 66.565 503.598 Q70.6535 503.598 72.6847 499.614 Q74.742 495.603 74.742 487.609 Q74.742 479.588 72.6847 475.604 Q70.6535 471.593 66.565 471.593 M66.565 467.427 Q73.1014 467.427 76.5389 472.609 Q80.0024 477.765 80.0024 487.609 Q80.0024 497.426 76.5389 502.609 Q73.1014 507.765 66.565 507.765 Q60.0285 507.765 56.565 502.609 Q53.1275 497.426 53.1275 487.609 Q53.1275 477.765 56.565 472.609 Q60.0285 467.427 66.565 467.427 Z" fill="#bebebe" fill-rule="evenodd" fill-opacity="1" /><path clip-path="url(#clip650)" d="M 0 0 M85.7055 500.395 L91.2002 500.395 L91.2002 507.01 L85.7055 507.01 L85.7055 500.395 Z" fill="#bebebe" fill-rule="evenodd" fill-opacity="1" /><path clip-path="url(#clip650)" d="M 0 0 M95.5752 468.13 L120.575 468.13 L120.575 470.369 L106.461 507.01 L100.966 507.01 L114.247 472.557 L95.5752 472.557 L95.5752 468.13 Z" fill="#bebebe" fill-rule="evenodd" fill-opacity="1" /><path clip-path="url(#clip650)" d="M 0 0 M126.33 468.13 L146.981 468.13 L146.981 472.557 L131.148 472.557 L131.148 482.088 Q132.294 481.697 133.44 481.515 Q134.585 481.307 135.731 481.307 Q142.242 481.307 146.044 484.874 Q149.846 488.442 149.846 494.536 Q149.846 500.812 145.94 504.301 Q142.033 507.765 134.924 507.765 Q132.476 507.765 129.924 507.348 Q127.398 506.932 124.69 506.098 L124.69 500.812 Q127.033 502.088 129.533 502.713 Q132.033 503.338 134.82 503.338 Q139.325 503.338 141.955 500.968 Q144.585 498.598 144.585 494.536 Q144.585 490.473 141.955 488.104 Q139.325 485.734 134.82 485.734 Q132.71 485.734 130.601 486.202 Q128.518 486.671 126.33 487.661 L126.33 468.13 Z" fill="#bebebe" fill-rule="evenodd" fill-opacity="1" /><path clip-path="url(#clip650)" d="M 0 0 M55.4713 183.236 L64.065 183.236 L64.065 153.575 L54.7161 155.45 L54.7161 150.658 L64.0129 148.783 L69.2733 148.783 L69.2733 183.236 L77.867 183.236 L77.867 187.663 L55.4713 187.663 L55.4713 183.236 Z" fill="#bebebe" fill-rule="evenodd" fill-opacity="1" /><path clip-path="url(#clip650)" d="M 0 0 M83.5701 181.049 L89.0648 181.049 L89.0648 187.663 L83.5701 187.663 L83.5701 181.049 Z" fill="#bebebe" fill-rule="evenodd" fill-opacity="1" /><path clip-path="url(#clip650)" d="M 0 0 M106.018 152.247 Q101.955 152.247 99.8981 156.257 Q97.8669 160.242 97.8669 168.263 Q97.8669 176.257 99.8981 180.268 Q101.955 184.252 106.018 184.252 Q110.106 184.252 112.138 180.268 Q114.195 176.257 114.195 168.263 Q114.195 160.242 112.138 156.257 Q110.106 152.247 106.018 152.247 M106.018 148.08 Q112.554 148.08 115.992 153.263 Q119.455 158.419 119.455 168.263 Q119.455 178.08 115.992 183.262 Q112.554 188.419 106.018 188.419 Q99.4814 188.419 96.0179 183.262 Q92.5804 178.08 92.5804 168.263 Q92.5804 158.419 96.0179 153.263 Q99.4814 148.08 106.018 148.08 Z" fill="#bebebe" fill-rule="evenodd" fill-opacity="1" /><path clip-path="url(#clip650)" d="M 0 0 M136.408 152.247 Q132.346 152.247 130.289 156.257 Q128.257 160.242 128.257 168.263 Q128.257 176.257 130.289 180.268 Q132.346 184.252 136.408 184.252 Q140.497 184.252 142.528 180.268 Q144.585 176.257 144.585 168.263 Q144.585 160.242 142.528 156.257 Q140.497 152.247 136.408 152.247 M136.408 148.08 Q142.945 148.08 146.382 153.263 Q149.846 158.419 149.846 168.263 Q149.846 178.08 146.382 183.262 Q142.945 188.419 136.408 188.419 Q129.872 188.419 126.408 183.262 Q122.971 178.08 122.971 168.263 Q122.971 158.419 126.408 153.263 Q129.872 148.08 136.408 148.08 Z" fill="#bebebe" fill-rule="evenodd" fill-opacity="1" /><path clip-path="url(#clip650)" d="M 0 0 M963.429 20.1156 L963.429 31.516 Q956.774 28.3332 950.871 26.7707 Q944.968 25.2082 939.47 25.2082 Q929.922 25.2082 924.714 28.9119 Q919.563 32.6156 919.563 39.4442 Q919.563 45.1734 922.977 48.1247 Q926.45 51.0182 936.056 52.8122 L943.116 54.259 Q956.195 56.7474 962.387 63.0552 Q968.637 69.3052 968.637 79.8375 Q968.637 92.3953 960.188 98.8768 Q951.797 105.358 935.535 105.358 Q929.401 105.358 922.457 103.969 Q915.57 102.58 908.163 99.8606 L908.163 87.8236 Q915.281 91.8166 922.109 93.8421 Q928.938 95.8675 935.535 95.8675 Q945.547 95.8675 950.987 91.9324 Q956.426 87.9972 956.426 80.7056 Q956.426 74.3399 952.491 70.7519 Q948.614 67.164 939.702 65.37 L932.584 63.9811 Q919.505 61.377 913.66 55.8215 Q907.816 50.2659 907.816 40.3702 Q907.816 28.9119 915.859 22.3147 Q923.961 15.7175 938.139 15.7175 Q944.216 15.7175 950.524 16.817 Q956.831 17.9166 963.429 20.1156 Z" fill="#bebebe" fill-rule="evenodd" fill-opacity="1" /><path clip-path="url(#clip650)" d="M 0 0 M1035.25 68.6107 L1035.25 73.819 L986.287 73.819 Q986.982 84.8144 992.884 90.6014 Q998.845 96.3305 1009.44 96.3305 Q1015.57 96.3305 1021.3 94.8259 Q1027.09 93.3213 1032.76 90.312 L1032.76 100.381 Q1027.03 102.812 1021.01 104.085 Q1014.99 105.358 1008.8 105.358 Q993.29 105.358 984.204 96.3305 Q975.176 87.3028 975.176 71.9093 Q975.176 55.9951 983.741 46.678 Q992.364 37.303 1006.95 37.303 Q1020.03 37.303 1027.61 45.7521 Q1035.25 54.1432 1035.25 68.6107 M1024.6 65.4858 Q1024.48 56.7474 1019.68 51.5391 Q1014.93 46.3308 1007.06 46.3308 Q998.151 46.3308 992.769 51.3655 Q987.445 56.4002 986.635 65.5436 L1024.6 65.4858 Z" fill="#bebebe" fill-rule="evenodd" fill-opacity="1" /><path clip-path="url(#clip650)" d="M 0 0 M1083.97 48.8192 Q1082.18 47.7775 1080.04 47.3146 Q1077.95 46.7937 1075.41 46.7937 Q1066.38 46.7937 1061.52 52.6965 Q1056.72 58.5414 1056.72 69.5367 L1056.72 103.68 L1046.01 103.68 L1046.01 38.8655 L1056.72 38.8655 L1056.72 48.9349 Q1060.07 43.0322 1065.45 40.1965 Q1070.84 37.303 1078.53 37.303 Q1079.63 37.303 1080.96 37.4767 Q1082.29 37.5924 1083.91 37.8817 L1083.97 48.8192 Z" fill="#bebebe" fill-rule="evenodd" fill-opacity="1" /><path clip-path="url(#clip650)" d="M 0 0 M1095.14 38.8655 L1105.79 38.8655 L1105.79 103.68 L1095.14 103.68 L1095.14 38.8655 M1095.14 13.6342 L1105.79 13.6342 L1105.79 27.1179 L1095.14 27.1179 L1095.14 13.6342 Z" fill="#bebebe" fill-rule="evenodd" fill-opacity="1" /><path clip-path="url(#clip650)" d="M 0 0 M1172.4 68.6107 L1172.4 73.819 L1123.44 73.819 Q1124.13 84.8144 1130.04 90.6014 Q1136 96.3305 1146.59 96.3305 Q1152.72 96.3305 1158.45 94.8259 Q1164.24 93.3213 1169.91 90.312 L1169.91 100.381 Q1164.18 102.812 1158.16 104.085 Q1152.14 105.358 1145.95 105.358 Q1130.44 105.358 1121.36 96.3305 Q1112.33 87.3028 1112.33 71.9093 Q1112.33 55.9951 1120.89 46.678 Q1129.52 37.303 1144.1 37.303 Q1157.18 37.303 1164.76 45.7521 Q1172.4 54.1432 1172.4 68.6107 M1161.75 65.4858 Q1161.63 56.7474 1156.83 51.5391 Q1152.09 46.3308 1144.21 46.3308 Q1135.3 46.3308 1129.92 51.3655 Q1124.6 56.4002 1123.79 65.5436 L1161.75 65.4858 Z" fill="#bebebe" fill-rule="evenodd" fill-opacity="1" /><path clip-path="url(#clip650)" d="M 0 0 M1231.31 17.28 L1231.31 49.3979 L1221.47 49.3979 L1221.47 17.28 L1231.31 17.28 Z" fill="#bebebe" fill-rule="evenodd" fill-opacity="1" /><path clip-path="url(#clip650)" d="M 0 0 M1283.8 40.7752 L1283.8 50.8446 Q1279.28 48.5298 1274.42 47.3724 Q1269.56 46.215 1264.35 46.215 Q1256.42 46.215 1252.43 48.6456 Q1248.5 51.0761 1248.5 55.9372 Q1248.5 59.6409 1251.33 61.7821 Q1254.17 63.8654 1262.73 65.7751 L1266.38 66.5853 Q1277.72 69.0158 1282.47 73.4718 Q1287.27 77.87 1287.27 85.7982 Q1287.27 94.8259 1280.09 100.092 Q1272.98 105.358 1260.48 105.358 Q1255.27 105.358 1249.6 104.317 Q1243.98 103.333 1237.73 101.307 L1237.73 90.312 Q1243.64 93.3791 1249.36 94.9416 Q1255.09 96.4462 1260.71 96.4462 Q1268.23 96.4462 1272.28 93.9 Q1276.33 91.2958 1276.33 86.6083 Q1276.33 82.2681 1273.38 79.9533 Q1270.49 77.6385 1260.59 75.4973 L1256.89 74.6292 Q1246.99 72.5459 1242.59 68.2635 Q1238.2 63.9233 1238.2 56.4002 Q1238.2 47.2567 1244.68 42.2799 Q1251.16 37.303 1263.08 37.303 Q1268.98 37.303 1274.19 38.1711 Q1279.4 39.0391 1283.8 40.7752 Z" fill="#bebebe" fill-rule="evenodd" fill-opacity="1" /><path clip-path="url(#clip650)" d="M 0 0 M1345.08 41.3539 L1345.08 51.3076 Q1340.57 48.8192 1336 47.6039 Q1331.48 46.3308 1326.85 46.3308 Q1316.49 46.3308 1310.76 52.928 Q1305.04 59.4673 1305.04 71.3306 Q1305.04 83.194 1310.76 89.7912 Q1316.49 96.3305 1326.85 96.3305 Q1331.48 96.3305 1336 95.1152 Q1340.57 93.8421 1345.08 91.3537 L1345.08 101.192 Q1340.63 103.275 1335.82 104.317 Q1331.08 105.358 1325.7 105.358 Q1311.05 105.358 1302.43 96.1569 Q1293.81 86.9556 1293.81 71.3306 Q1293.81 55.4742 1302.49 46.3886 Q1311.23 37.303 1326.39 37.303 Q1331.31 37.303 1336 38.3447 Q1340.68 39.3285 1345.08 41.3539 Z" fill="#bebebe" fill-rule="evenodd" fill-opacity="1" /><path clip-path="url(#clip650)" d="M 0 0 M1385.71 71.0992 Q1372.8 71.0992 1367.82 74.0505 Q1362.85 77.0019 1362.85 84.1199 Q1362.85 89.7912 1366.55 93.1476 Q1370.31 96.4462 1376.74 96.4462 Q1385.59 96.4462 1390.91 90.1963 Q1396.3 83.8884 1396.3 73.4718 L1396.3 71.0992 L1385.71 71.0992 M1406.94 66.701 L1406.94 103.68 L1396.3 103.68 L1396.3 93.8421 Q1392.65 99.7448 1387.21 102.58 Q1381.77 105.358 1373.9 105.358 Q1363.95 105.358 1358.04 99.8027 Q1352.2 94.1893 1352.2 84.8144 Q1352.2 73.8769 1359.49 68.3214 Q1366.84 62.7659 1381.37 62.7659 L1396.3 62.7659 L1396.3 61.7242 Q1396.3 54.3747 1391.44 50.3817 Q1386.63 46.3308 1377.89 46.3308 Q1372.34 46.3308 1367.07 47.6618 Q1361.81 48.9928 1356.95 51.6548 L1356.95 41.8169 Q1362.79 39.56 1368.29 38.4604 Q1373.79 37.303 1378.99 37.303 Q1393.06 37.303 1400 44.5947 Q1406.94 51.8863 1406.94 66.701 Z" fill="#bebebe" fill-rule="evenodd" fill-opacity="1" /><path clip-path="url(#clip650)" d="M 0 0 M1428.65 20.4629 L1428.65 38.8655 L1450.58 38.8655 L1450.58 47.141 L1428.65 47.141 L1428.65 82.3259 Q1428.65 90.2541 1430.79 92.5111 Q1432.99 94.768 1439.64 94.768 L1450.58 94.768 L1450.58 103.68 L1439.64 103.68 Q1427.32 103.68 1422.63 99.1083 Q1417.94 94.4787 1417.94 82.3259 L1417.94 47.141 L1410.13 47.141 L1410.13 38.8655 L1417.94 38.8655 L1417.94 20.4629 L1428.65 20.4629 Z" fill="#bebebe" fill-rule="evenodd" fill-opacity="1" /><path clip-path="url(#clip650)" d="M 0 0 M1472.28 20.4629 L1472.28 38.8655 L1494.21 38.8655 L1494.21 47.141 L1472.28 47.141 L1472.28 82.3259 Q1472.28 90.2541 1474.42 92.5111 Q1476.62 94.768 1483.28 94.768 L1494.21 94.768 L1494.21 103.68 L1483.28 103.68 Q1470.95 103.68 1466.26 99.1083 Q1461.57 94.4787 1461.57 82.3259 L1461.57 47.141 L1453.76 47.141 L1453.76 38.8655 L1461.57 38.8655 L1461.57 20.4629 L1472.28 20.4629 Z" fill="#bebebe" fill-rule="evenodd" fill-opacity="1" /><path clip-path="url(#clip650)" d="M 0 0 M1560.82 68.6107 L1560.82 73.819 L1511.86 73.819 Q1512.56 84.8144 1518.46 90.6014 Q1524.42 96.3305 1535.01 96.3305 Q1541.15 96.3305 1546.87 94.8259 Q1552.66 93.3213 1558.33 90.312 L1558.33 100.381 Q1552.6 102.812 1546.59 104.085 Q1540.57 105.358 1534.37 105.358 Q1518.87 105.358 1509.78 96.3305 Q1500.75 87.3028 1500.75 71.9093 Q1500.75 55.9951 1509.32 46.678 Q1517.94 37.303 1532.52 37.303 Q1545.6 37.303 1553.18 45.7521 Q1560.82 54.1432 1560.82 68.6107 M1550.17 65.4858 Q1550.06 56.7474 1545.25 51.5391 Q1540.51 46.3308 1532.64 46.3308 Q1523.73 46.3308 1518.34 51.3655 Q1513.02 56.4002 1512.21 65.5436 L1550.17 65.4858 Z" fill="#bebebe" fill-rule="evenodd" fill-opacity="1" /><path clip-path="url(#clip650)" d="M 0 0 M1609.55 48.8192 Q1607.75 47.7775 1605.61 47.3146 Q1603.53 46.7937 1600.98 46.7937 Q1591.96 46.7937 1587.09 52.6965 Q1582.29 58.5414 1582.29 69.5367 L1582.29 103.68 L1571.59 103.68 L1571.59 38.8655 L1582.29 38.8655 L1582.29 48.9349 Q1585.65 43.0322 1591.03 40.1965 Q1596.41 37.303 1604.11 37.303 Q1605.21 37.303 1606.54 37.4767 Q1607.87 37.5924 1609.49 37.8817 L1609.55 48.8192 Z" fill="#bebebe" fill-rule="evenodd" fill-opacity="1" /><path clip-path="url(#clip650)" d="M 0 0 M1630.79 17.28 L1630.79 49.3979 L1620.95 49.3979 L1620.95 17.28 L1630.79 17.28 Z" fill="#bebebe" fill-rule="evenodd" fill-opacity="1" /><path clip-path="url(#clip652)" d="M247.173 742.143 L244.353 750.255 L235.761 750.435 L242.613 755.631 L240.117 763.851 L247.173 758.943 L254.229 763.851 L251.733 755.631 L258.585 750.435 L249.993 750.255 L247.173 742.143 Z" fill="#ffa500" fill-rule="evenodd" fill-opacity="0.5" stroke="#ff0000" stroke-opacity="0.5" stroke-width="3.2"/>
<path clip-path="url(#clip652)" d="M354.766 1180.77 L351.946 1188.88 L343.354 1189.06 L350.206 1194.26 L347.71 1202.48 L354.766 1197.57 L361.822 1202.48 L359.326 1194.26 L366.178 1189.06 L357.586 1188.88 L354.766 1180.77 Z" fill="#ffa500" fill-rule="evenodd" fill-opacity="0.5" stroke="#ff0000" stroke-opacity="0.5" stroke-width="3.2"/>
<path clip-path="url(#clip652)" d="M462.358 1244.82 L459.538 1252.93 L450.946 1253.11 L457.798 1258.31 L455.302 1266.53 L462.358 1261.62 L469.414 1266.53 L466.918 1258.31 L473.77 1253.11 L465.178 1252.93 L462.358 1244.82 Z" fill="#ffa500" fill-rule="evenodd" fill-opacity="0.5" stroke="#ff0000" stroke-opacity="0.5" stroke-width="3.2"/>
<path clip-path="url(#clip652)" d="M569.95 387.062 L567.13 395.174 L558.538 395.354 L565.39 400.55 L562.894 408.77 L569.95 403.862 L577.006 408.77 L574.51 400.55 L581.362 395.354 L572.77 395.174 L569.95 387.062 Z" fill="#ffa500" fill-rule="evenodd" fill-opacity="0.5" stroke="#ff0000" stroke-opacity="0.5" stroke-width="3.2"/>
<path clip-path="url(#clip652)" d="M677.543 1283.59 L674.723 1291.7 L666.131 1291.88 L672.983 1297.08 L670.487 1305.3 L677.543 1300.39 L684.599 1305.3 L682.103 1297.08 L688.955 1291.88 L680.363 1291.7 L677.543 1283.59 Z" fill="#ffa500" fill-rule="evenodd" fill-opacity="0.5" stroke="#ff0000" stroke-opacity="0.5" stroke-width="3.2"/>
<path clip-path="url(#clip652)" d="M785.135 416.38 L782.315 424.492 L773.723 424.672 L780.575 429.868 L778.079 438.088 L785.135 433.18 L792.191 438.088 L789.695 429.868 L796.547 424.672 L787.955 424.492 L785.135 416.38 Z" fill="#ffa500" fill-rule="evenodd" fill-opacity="0.5" stroke="#ff0000" stroke-opacity="0.5" stroke-width="3.2"/>
<path clip-path="url(#clip652)" d="M892.728 948.458 L889.908 956.57 L881.316 956.75 L888.168 961.946 L885.672 970.166 L892.728 965.258 L899.784 970.166 L897.288 961.946 L904.14 956.75 L895.548 956.57 L892.728 948.458 Z" fill="#ffa500" fill-rule="evenodd" fill-opacity="0.5" stroke="#ff0000" stroke-opacity="0.5" stroke-width="3.2"/>
<path clip-path="url(#clip652)" d="M1000.32 1081.98 L997.5 1090.09 L988.908 1090.27 L995.76 1095.47 L993.264 1103.69 L1000.32 1098.78 L1007.38 1103.69 L1004.88 1095.47 L1011.73 1090.27 L1003.14 1090.09 L1000.32 1081.98 Z" fill="#ffa500" fill-rule="evenodd" fill-opacity="0.5" stroke="#ff0000" stroke-opacity="0.5" stroke-width="3.2"/>
<path clip-path="url(#clip652)" d="M1107.91 966.485 L1105.09 974.597 L1096.5 974.777 L1103.35 979.973 L1100.86 988.193 L1107.91 983.285 L1114.97 988.193 L1112.47 979.973 L1119.32 974.777 L1110.73 974.597 L1107.91 966.485 Z" fill="#ffa500" fill-rule="evenodd" fill-opacity="0.5" stroke="#ff0000" stroke-opacity="0.5" stroke-width="3.2"/>
<path clip-path="url(#clip652)" d="M1215.5 822.116 L1212.68 830.228 L1204.09 830.408 L1210.94 835.604 L1208.45 843.824 L1215.5 838.916 L1222.56 843.824 L1220.06 835.604 L1226.92 830.408 L1218.32 830.228 L1215.5 822.116 Z" fill="#ffa500" fill-rule="evenodd" fill-opacity="0.5" stroke="#ff0000" stroke-opacity="0.5" stroke-width="3.2"/>
<path clip-path="url(#clip652)" d="M1323.1 887.221 L1320.28 895.333 L1311.69 895.513 L1318.54 900.709 L1316.04 908.929 L1323.1 904.021 L1330.15 908.929 L1327.66 900.709 L1334.51 895.513 L1325.92 895.333 L1323.1 887.221 Z" fill="#ffa500" fill-rule="evenodd" fill-opacity="0.5" stroke="#ff0000" stroke-opacity="0.5" stroke-width="3.2"/>
<path clip-path="url(#clip652)" d="M1430.69 289.905 L1427.87 298.017 L1419.28 298.197 L1426.13 303.393 L1423.63 311.613 L1430.69 306.705 L1437.75 311.613 L1435.25 303.393 L1442.1 298.197 L1433.51 298.017 L1430.69 289.905 Z" fill="#ffa500" fill-rule="evenodd" fill-opacity="0.5" stroke="#ff0000" stroke-opacity="0.5" stroke-width="3.2"/>
<path clip-path="url(#clip652)" d="M1538.28 342.57 L1535.46 350.682 L1526.87 350.862 L1533.72 356.058 L1531.23 364.278 L1538.28 359.37 L1545.34 364.278 L1542.84 356.058 L1549.69 350.862 L1541.1 350.682 L1538.28 342.57 Z" fill="#ffa500" fill-rule="evenodd" fill-opacity="0.5" stroke="#ff0000" stroke-opacity="0.5" stroke-width="3.2"/>
<path clip-path="url(#clip652)" d="M1645.87 1312.73 L1643.05 1320.84 L1634.46 1321.02 L1641.31 1326.22 L1638.82 1334.44 L1645.87 1329.53 L1652.93 1334.44 L1650.43 1326.22 L1657.29 1321.02 L1648.69 1320.84 L1645.87 1312.73 Z" fill="#ffa500" fill-rule="evenodd" fill-opacity="0.5" stroke="#ff0000" stroke-opacity="0.5" stroke-width="3.2"/>
<path clip-path="url(#clip652)" d="M1753.47 950.621 L1750.65 958.733 L1742.05 958.913 L1748.91 964.109 L1746.41 972.329 L1753.47 967.421 L1760.52 972.329 L1758.03 964.109 L1764.88 958.913 L1756.29 958.733 L1753.47 950.621 Z" fill="#ffa500" fill-rule="evenodd" fill-opacity="0.5" stroke="#ff0000" stroke-opacity="0.5" stroke-width="3.2"/>
<path clip-path="url(#clip652)" d="M1861.06 1372.88 L1858.24 1380.99 L1849.65 1381.17 L1856.5 1386.37 L1854 1394.59 L1861.06 1389.68 L1868.11 1394.59 L1865.62 1386.37 L1872.47 1381.17 L1863.88 1380.99 L1861.06 1372.88 Z" fill="#ffa500" fill-rule="evenodd" fill-opacity="0.5" stroke="#ff0000" stroke-opacity="0.5" stroke-width="3.2"/>
<path clip-path="url(#clip652)" d="M1968.65 594.636 L1965.83 602.748 L1957.24 602.928 L1964.09 608.124 L1961.6 616.344 L1968.65 611.436 L1975.71 616.344 L1973.21 608.124 L1980.06 602.928 L1971.47 602.748 L1968.65 594.636 Z" fill="#ffa500" fill-rule="evenodd" fill-opacity="0.5" stroke="#ff0000" stroke-opacity="0.5" stroke-width="3.2"/>
<path clip-path="url(#clip652)" d="M2076.24 1404.35 L2073.42 1412.46 L2064.83 1412.64 L2071.68 1417.84 L2069.19 1426.06 L2076.24 1421.15 L2083.3 1426.06 L2080.8 1417.84 L2087.66 1412.64 L2079.06 1412.46 L2076.24 1404.35 Z" fill="#ffa500" fill-rule="evenodd" fill-opacity="0.5" stroke="#ff0000" stroke-opacity="0.5" stroke-width="3.2"/>
<path clip-path="url(#clip652)" d="M2183.84 1139.23 L2181.02 1147.35 L2172.42 1147.53 L2179.28 1152.72 L2176.78 1160.94 L2183.84 1156.03 L2190.89 1160.94 L2188.4 1152.72 L2195.25 1147.53 L2186.66 1147.35 L2183.84 1139.23 Z" fill="#ffa500" fill-rule="evenodd" fill-opacity="0.5" stroke="#ff0000" stroke-opacity="0.5" stroke-width="3.2"/>
<path clip-path="url(#clip652)" d="M2291.43 947.997 L2288.61 956.109 L2280.02 956.289 L2286.87 961.485 L2284.37 969.705 L2291.43 964.797 L2298.48 969.705 L2295.99 961.485 L2302.84 956.289 L2294.25 956.109 L2291.43 947.997 Z" fill="#ffa500" fill-rule="evenodd" fill-opacity="0.5" stroke="#ff0000" stroke-opacity="0.5" stroke-width="3.2"/>
<path clip-path="url(#clip652)" d="M247.173 1173.78 L219.173 1201.78 L247.173 1229.78 L275.173 1201.78 L247.173 1173.78 Z" fill="#008000" fill-rule="evenodd" fill-opacity="1" stroke="#ff0000" stroke-opacity="1" stroke-width="3.2"/>
<path clip-path="url(#clip652)" d="M354.766 338.68 L326.766 366.68 L354.766 394.68 L382.766 366.68 L354.766 338.68 Z" fill="#008000" fill-rule="evenodd" fill-opacity="1" stroke="#ff0000" stroke-opacity="1" stroke-width="3.2"/>
<path clip-path="url(#clip652)" d="M462.358 1304.33 L434.358 1332.33 L462.358 1360.33 L490.358 1332.33 L462.358 1304.33 Z" fill="#008000" fill-rule="evenodd" fill-opacity="1" stroke="#ff0000" stroke-opacity="1" stroke-width="3.2"/>
<path clip-path="url(#clip652)" d="M569.95 439.638 L541.95 467.638 L569.95 495.638 L597.95 467.638 L569.95 439.638 Z" fill="#008000" fill-rule="evenodd" fill-opacity="1" stroke="#ff0000" stroke-opacity="1" stroke-width="3.2"/>
<path clip-path="url(#clip652)" d="M677.543 1166.14 L649.543 1194.14 L677.543 1222.14 L705.543 1194.14 L677.543 1166.14 Z" fill="#008000" fill-rule="evenodd" fill-opacity="1" stroke="#ff0000" stroke-opacity="1" stroke-width="3.2"/>
<path clip-path="url(#clip652)" d="M785.135 385.277 L757.135 413.277 L785.135 441.277 L813.135 413.277 L785.135 385.277 Z" fill="#008000" fill-rule="evenodd" fill-opacity="1" stroke="#ff0000" stroke-opacity="1" stroke-width="3.2"/>
<path clip-path="url(#clip652)" d="M892.728 841.899 L864.728 869.899 L892.728 897.899 L920.728 869.899 L892.728 841.899 Z" fill="#008000" fill-rule="evenodd" fill-opacity="1" stroke="#ff0000" stroke-opacity="1" stroke-width="3.2"/>
<path clip-path="url(#clip652)" d="M1000.32 695.192 L972.32 723.192 L1000.32 751.192 L1028.32 723.192 L1000.32 695.192 Z" fill="#008000" fill-rule="evenodd" fill-opacity="1" stroke="#ff0000" stroke-opacity="1" stroke-width="3.2"/>
<path clip-path="url(#clip652)" d="M1107.91 750.156 L1079.91 778.156 L1107.91 806.156 L1135.91 778.156 L1107.91 750.156 Z" fill="#008000" fill-rule="evenodd" fill-opacity="1" stroke="#ff0000" stroke-opacity="1" stroke-width="3.2"/>
<path clip-path="url(#clip652)" d="M1215.5 1063.97 L1187.5 1091.97 L1215.5 1119.97 L1243.5 1091.97 L1215.5 1063.97 Z" fill="#008000" fill-rule="evenodd" fill-opacity="1" stroke="#ff0000" stroke-opacity="1" stroke-width="3.2"/>
<path clip-path="url(#clip652)" d="M1323.1 287.555 L1295.1 315.555 L1323.1 343.555 L1351.1 315.555 L1323.1 287.555 Z" fill="#008000" fill-rule="evenodd" fill-opacity="1" stroke="#ff0000" stroke-opacity="1" stroke-width="3.2"/>
<path clip-path="url(#clip652)" d="M1430.69 768.707 L1402.69 796.707 L1430.69 824.707 L1458.69 796.707 L1430.69 768.707 Z" fill="#008000" fill-rule="evenodd" fill-opacity="1" stroke="#ff0000" stroke-opacity="1" stroke-width="3.2"/>
<path clip-path="url(#clip652)" d="M1538.28 1285.73 L1510.28 1313.73 L1538.28 1341.73 L1566.28 1313.73 L1538.28 1285.73 Z" fill="#008000" fill-rule="evenodd" fill-opacity="1" stroke="#ff0000" stroke-opacity="1" stroke-width="3.2"/>
<path clip-path="url(#clip652)" d="M1645.87 648.538 L1617.87 676.538 L1645.87 704.538 L1673.87 676.538 L1645.87 648.538 Z" fill="#008000" fill-rule="evenodd" fill-opacity="1" stroke="#ff0000" stroke-opacity="1" stroke-width="3.2"/>
<path clip-path="url(#clip652)" d="M1753.47 274.667 L1725.47 302.667 L1753.47 330.667 L1781.47 302.667 L1753.47 274.667 Z" fill="#008000" fill-rule="evenodd" fill-opacity="1" stroke="#ff0000" stroke-opacity="1" stroke-width="3.2"/>
<path clip-path="url(#clip652)" d="M1861.06 1249.71 L1833.06 1277.71 L1861.06 1305.71 L1889.06 1277.71 L1861.06 1249.71 Z" fill="#008000" fill-rule="evenodd" fill-opacity="1" stroke="#ff0000" stroke-opacity="1" stroke-width="3.2"/>
<path clip-path="url(#clip652)" d="M1968.65 213.165 L1940.65 241.165 L1968.65 269.165 L1996.65 241.165 L1968.65 213.165 Z" fill="#008000" fill-rule="evenodd" fill-opacity="1" stroke="#ff0000" stroke-opacity="1" stroke-width="3.2"/>
<path clip-path="url(#clip652)" d="M2076.24 857.79 L2048.24 885.79 L2076.24 913.79 L2104.24 885.79 L2076.24 857.79 Z" fill="#008000" fill-rule="evenodd" fill-opacity="1" stroke="#ff0000" stroke-opacity="1" stroke-width="3.2"/>
<path clip-path="url(#clip652)" d="M2183.84 598.511 L2155.84 626.511 L2183.84 654.511 L2211.84 626.511 L2183.84 598.511 Z" fill="#008000" fill-rule="evenodd" fill-opacity="1" stroke="#ff0000" stroke-opacity="1" stroke-width="3.2"/>
<path clip-path="url(#clip652)" d="M2291.43 1187.7 L2263.43 1215.7 L2291.43 1243.7 L2319.43 1215.7 L2291.43 1187.7 Z" fill="#008000" fill-rule="evenodd" fill-opacity="1" stroke="#ff0000" stroke-opacity="1" stroke-width="3.2"/>
<path clip-path="url(#clip652)" d="M208.773 1212.26 L266.373 1245.86 L266.373 1178.66 L208.773 1212.26 Z" fill="#00008b" fill-rule="evenodd" fill-opacity="0.2" stroke="#ff0000" stroke-opacity="0.2" stroke-width="3.2"/>
<path clip-path="url(#clip652)" d="M316.366 946.868 L373.966 980.468 L373.966 913.268 L316.366 946.868 Z" fill="#00008b" fill-rule="evenodd" fill-opacity="0.2" stroke="#ff0000" stroke-opacity="0.2" stroke-width="3.2"/>
<path clip-path="url(#clip652)" d="M423.958 810.845 L481.558 844.445 L481.558 777.245 L423.958 810.845 Z" fill="#00008b" fill-rule="evenodd" fill-opacity="0.2" stroke="#ff0000" stroke-opacity="0.2" stroke-width="3.2"/>
<path clip-path="url(#clip652)" d="M531.55 1299.46 L589.15 1333.06 L589.15 1265.86 L531.55 1299.46 Z" fill="#00008b" fill-rule="evenodd" fill-opacity="0.2" stroke="#ff0000" stroke-opacity="0.2" stroke-width="3.2"/>
<path clip-path="url(#clip652)" d="M639.143 943.994 L696.743 977.594 L696.743 910.394 L639.143 943.994 Z" fill="#00008b" fill-rule="evenodd" fill-opacity="0.2" stroke="#ff0000" stroke-opacity="0.2" stroke-width="3.2"/>
<path clip-path="url(#clip652)" d="M746.735 214.052 L804.335 247.652 L804.335 180.452 L746.735 214.052 Z" fill="#00008b" fill-rule="evenodd" fill-opacity="0.2" stroke="#ff0000" stroke-opacity="0.2" stroke-width="3.2"/>
<path clip-path="url(#clip652)" d="M854.328 1409.35 L911.928 1442.95 L911.928 1375.75 L854.328 1409.35 Z" fill="#00008b" fill-rule="evenodd" fill-opacity="0.2" stroke="#ff0000" stroke-opacity="0.2" stroke-width="3.2"/>
<path clip-path="url(#clip652)" d="M961.92 963.071 L1019.52 996.671 L1019.52 929.471 L961.92 963.071 Z" fill="#00008b" fill-rule="evenodd" fill-opacity="0.2" stroke="#ff0000" stroke-opacity="0.2" stroke-width="3.2"/>
<path clip-path="url(#clip652)" d="M1069.51 1444.41 L1127.11 1478.01 L1127.11 1410.81 L1069.51 1444.41 Z" fill="#00008b" fill-rule="evenodd" fill-opacity="0.2" stroke="#ff0000" stroke-opacity="0.2" stroke-width="3.2"/>
<path clip-path="url(#clip652)" d="M1177.1 187.111 L1234.7 220.711 L1234.7 153.511 L1177.1 187.111 Z" fill="#00008b" fill-rule="evenodd" fill-opacity="0.2" stroke="#ff0000" stroke-opacity="0.2" stroke-width="3.2"/>
<path clip-path="url(#clip652)" d="M1284.7 1188.83 L1342.3 1222.43 L1342.3 1155.23 L1284.7 1188.83 Z" fill="#00008b" fill-rule="evenodd" fill-opacity="0.2" stroke="#ff0000" stroke-opacity="0.2" stroke-width="3.2"/>
<path clip-path="url(#clip652)" d="M1392.29 1374.66 L1449.89 1408.26 L1449.89 1341.06 L1392.29 1374.66 Z" fill="#00008b" fill-rule="evenodd" fill-opacity="0.2" stroke="#ff0000" stroke-opacity="0.2" stroke-width="3.2"/>
<path clip-path="url(#clip652)" d="M1499.88 1202.75 L1557.48 1236.35 L1557.48 1169.15 L1499.88 1202.75 Z" fill="#00008b" fill-rule="evenodd" fill-opacity="0.2" stroke="#ff0000" stroke-opacity="0.2" stroke-width="3.2"/>
<path clip-path="url(#clip652)" d="M1607.47 1180.55 L1665.07 1214.15 L1665.07 1146.95 L1607.47 1180.55 Z" fill="#00008b" fill-rule="evenodd" fill-opacity="0.2" stroke="#ff0000" stroke-opacity="0.2" stroke-width="3.2"/>
<path clip-path="url(#clip652)" d="M1715.07 524.569 L1772.67 558.169 L1772.67 490.969 L1715.07 524.569 Z" fill="#00008b" fill-rule="evenodd" fill-opacity="0.2" stroke="#ff0000" stroke-opacity="0.2" stroke-width="3.2"/>
<path clip-path="url(#clip652)" d="M1822.66 777.323 L1880.26 810.923 L1880.26 743.723 L1822.66 777.323 Z" fill="#00008b" fill-rule="evenodd" fill-opacity="0.2" stroke="#ff0000" stroke-opacity="0.2" stroke-width="3.2"/>
<path clip-path="url(#clip652)" d="M1930.25 1319.4 L1987.85 1353 L1987.85 1285.8 L1930.25 1319.4 Z" fill="#00008b" fill-rule="evenodd" fill-opacity="0.2" stroke="#ff0000" stroke-opacity="0.2" stroke-width="3.2"/>
<path clip-path="url(#clip652)" d="M2037.84 1266.05 L2095.44 1299.65 L2095.44 1232.45 L2037.84 1266.05 Z" fill="#00008b" fill-rule="evenodd" fill-opacity="0.2" stroke="#ff0000" stroke-opacity="0.2" stroke-width="3.2"/>
<path clip-path="url(#clip652)" d="M2145.44 537.735 L2203.04 571.335 L2203.04 504.135 L2145.44 537.735 Z" fill="#00008b" fill-rule="evenodd" fill-opacity="0.2" stroke="#ff0000" stroke-opacity="0.2" stroke-width="3.2"/>
<path clip-path="url(#clip652)" d="M2253.03 482.151 L2310.63 515.751 L2310.63 448.551 L2253.03 482.151 Z" fill="#00008b" fill-rule="evenodd" fill-opacity="0.2" stroke="#ff0000" stroke-opacity="0.2" stroke-width="3.2"/>
<path clip-path="url(#clip650)" d="
M1988.16 435.737 L2280.53 435.737 L2280.53 193.817 L1988.16 193.817  Z
  " fill="#ffffff" fill-rule="evenodd" fill-opacity="1"/>
<polyline clip-path="url(#clip650)" style="stroke:#000000; stroke-width:4; stroke-opacity:1; fill:none" points="
  1988.16,435.737 2280.53,435.737 2280.53,193.817 1988.16,193.817 1988.16,435.737 
  "/>
<path clip-path="url(#clip650)" d="M2084.47 228.697 L2078.45 246.002 L2060.12 246.386 L2074.74 257.471 L2069.42 275.007 L2084.47 264.537 L2099.52 275.007 L2094.2 257.471 L2108.81 246.386 L2090.48 246.002 L2084.47 228.697 Z" fill="#ffa500" fill-rule="evenodd" fill-opacity="0.5" stroke="#ff0000" stroke-opacity="0.5" stroke-width="6.82667"/>
<path clip-path="url(#clip650)" d="M 0 0 M2194.62 273.984 Q2192.81 278.614 2191.1 280.026 Q2189.39 281.438 2186.52 281.438 L2183.11 281.438 L2183.11 277.873 L2185.61 277.873 Q2187.37 277.873 2188.34 277.04 Q2189.32 276.206 2190.5 273.104 L2191.26 271.16 L2180.78 245.651 L2185.29 245.651 L2193.39 265.929 L2201.49 245.651 L2206.01 245.651 L2194.62 273.984 Z" fill="#bebebe" fill-rule="evenodd" fill-opacity="1" /><path clip-path="url(#clip650)" d="M 0 0 M2211.89 267.641 L2219.52 267.641 L2219.52 241.276 L2211.21 242.943 L2211.21 238.683 L2219.48 237.017 L2224.15 237.017 L2224.15 267.641 L2231.79 267.641 L2231.79 271.577 L2211.89 271.577 L2211.89 267.641 Z" fill="#bebebe" fill-rule="evenodd" fill-opacity="1" /><path clip-path="url(#clip650)" d="M2084.47 289.177 L2058.87 314.777 L2084.47 340.377 L2110.07 314.777 L2084.47 289.177 Z" fill="#008000" fill-rule="evenodd" fill-opacity="1" stroke="#ff0000" stroke-opacity="1" stroke-width="2.92571"/>
<path clip-path="url(#clip650)" d="M 0 0 M2194.62 334.464 Q2192.81 339.094 2191.1 340.506 Q2189.39 341.918 2186.52 341.918 L2183.11 341.918 L2183.11 338.353 L2185.61 338.353 Q2187.37 338.353 2188.34 337.52 Q2189.32 336.686 2190.5 333.584 L2191.26 331.64 L2180.78 306.131 L2185.29 306.131 L2193.39 326.409 L2201.49 306.131 L2206.01 306.131 L2194.62 334.464 Z" fill="#bebebe" fill-rule="evenodd" fill-opacity="1" /><path clip-path="url(#clip650)" d="M 0 0 M2215.1 328.121 L2231.42 328.121 L2231.42 332.057 L2209.48 332.057 L2209.48 328.121 Q2212.14 325.367 2216.72 320.737 Q2221.33 316.085 2222.51 314.742 Q2224.76 312.219 2225.64 310.483 Q2226.54 308.723 2226.54 307.034 Q2226.54 304.279 2224.59 302.543 Q2222.67 300.807 2219.57 300.807 Q2217.37 300.807 2214.92 301.571 Q2212.49 302.335 2209.71 303.886 L2209.71 299.163 Q2212.53 298.029 2214.99 297.45 Q2217.44 296.872 2219.48 296.872 Q2224.85 296.872 2228.04 299.557 Q2231.24 302.242 2231.24 306.733 Q2231.24 308.862 2230.43 310.784 Q2229.64 312.682 2227.53 315.274 Q2226.96 315.946 2223.85 319.163 Q2220.75 322.358 2215.1 328.121 Z" fill="#bebebe" fill-rule="evenodd" fill-opacity="1" /><path clip-path="url(#clip650)" d="M2063.99 375.257 L2094.71 393.177 L2094.71 357.337 L2063.99 375.257 Z" fill="#00008b" fill-rule="evenodd" fill-opacity="0.2" stroke="#ff0000" stroke-opacity="0.2" stroke-width="1.70667"/>
<path clip-path="url(#clip650)" d="M 0 0 M2194.62 394.944 Q2192.81 399.574 2191.1 400.986 Q2189.39 402.398 2186.52 402.398 L2183.11 402.398 L2183.11 398.833 L2185.61 398.833 Q2187.37 398.833 2188.34 398 Q2189.32 397.166 2190.5 394.064 L2191.26 392.12 L2180.78 366.611 L2185.29 366.611 L2193.39 386.889 L2201.49 366.611 L2206.01 366.611 L2194.62 394.944 Z" fill="#bebebe" fill-rule="evenodd" fill-opacity="1" /><path clip-path="url(#clip650)" d="M 0 0 M2225.24 373.902 Q2228.6 374.62 2230.47 376.889 Q2232.37 379.157 2232.37 382.49 Q2232.37 387.606 2228.85 390.407 Q2225.34 393.208 2218.85 393.208 Q2216.68 393.208 2214.36 392.768 Q2212.07 392.351 2209.62 391.495 L2209.62 386.981 Q2211.56 388.115 2213.88 388.694 Q2216.19 389.273 2218.71 389.273 Q2223.11 389.273 2225.4 387.537 Q2227.72 385.801 2227.72 382.49 Q2227.72 379.435 2225.57 377.722 Q2223.44 375.986 2219.62 375.986 L2215.59 375.986 L2215.59 372.143 L2219.8 372.143 Q2223.25 372.143 2225.08 370.778 Q2226.91 369.389 2226.91 366.796 Q2226.91 364.134 2225.01 362.722 Q2223.14 361.287 2219.62 361.287 Q2217.7 361.287 2215.5 361.703 Q2213.3 362.12 2210.66 363 L2210.66 358.833 Q2213.32 358.092 2215.64 357.722 Q2217.97 357.352 2220.03 357.352 Q2225.36 357.352 2228.46 359.782 Q2231.56 362.19 2231.56 366.31 Q2231.56 369.18 2229.92 371.171 Q2228.27 373.139 2225.24 373.902 Z" fill="#bebebe" fill-rule="evenodd" fill-opacity="1" /></svg>
