<?xml version="1.0" encoding="utf-8"?>
<svg xmlns="http://www.w3.org/2000/svg" xmlns:xlink="http://www.w3.org/1999/xlink" width="600" height="400" viewBox="0 0 2400 1600">
<defs>
  <clipPath id="clip550">
    <rect x="0" y="0" width="2400" height="1600"/>
  </clipPath>
</defs>
<path clip-path="url(#clip550)" d="
M0 1600 L2400 1600 L2400 0 L0 0  Z
  " fill="#ffffff" fill-rule="evenodd" fill-opacity="1"/>
<defs>
  <clipPath id="clip551">
    <rect x="480" y="0" width="1681" height="1600"/>
  </clipPath>
</defs>
<defs>
  <clipPath id="clip552">
    <rect x="179" y="47" width="2174" height="1440"/>
  </clipPath>
</defs>
<path clip-path="url(#clip550)" d="
M179.654 1486.45 L2352.76 1486.45 L2352.76 142.325 L179.654 142.325  Z
  " fill="#ffffff" fill-rule="evenodd" fill-opacity="1"/>
<defs>
  <clipPath id="clip553">
    <rect x="179" y="142" width="2174" height="1345"/>
  </clipPath>
</defs>
<polyline clip-path="url(#clip553)" style="stroke:#000000; stroke-width:2; stroke-opacity:0.1; fill:none" points="
  451.609,1486.45 451.609,142.325 
  "/>
<polyline clip-path="url(#clip553)" style="stroke:#000000; stroke-width:2; stroke-opacity:0.1; fill:none" points="
  861.628,1486.45 861.628,142.325 
  "/>
<polyline clip-path="url(#clip553)" style="stroke:#000000; stroke-width:2; stroke-opacity:0.1; fill:none" points="
  1271.65,1486.45 1271.65,142.325 
  "/>
<polyline clip-path="url(#clip553)" style="stroke:#000000; stroke-width:2; stroke-opacity:0.1; fill:none" points="
  1681.67,1486.45 1681.67,142.325 
  "/>
<polyline clip-path="url(#clip553)" style="stroke:#000000; stroke-width:2; stroke-opacity:0.1; fill:none" points="
  2091.69,1486.45 2091.69,142.325 
  "/>
<polyline clip-path="url(#clip550)" style="stroke:#000000; stroke-width:4; stroke-opacity:1; fill:none" points="
  179.654,1486.45 2352.76,1486.45 
  "/>
<polyline clip-path="url(#clip550)" style="stroke:#000000; stroke-width:4; stroke-opacity:1; fill:none" points="
  451.609,1486.45 451.609,1470.32 
  "/>
<polyline clip-path="url(#clip550)" style="stroke:#000000; stroke-width:4; stroke-opacity:1; fill:none" points="
  861.628,1486.45 861.628,1470.32 
  "/>
<polyline clip-path="url(#clip550)" style="stroke:#000000; stroke-width:4; stroke-opacity:1; fill:none" points="
  1271.65,1486.45 1271.65,1470.32 
  "/>
<polyline clip-path="url(#clip550)" style="stroke:#000000; stroke-width:4; stroke-opacity:1; fill:none" points="
  1681.67,1486.45 1681.67,1470.32 
  "/>
<polyline clip-path="url(#clip550)" style="stroke:#000000; stroke-width:4; stroke-opacity:1; fill:none" points="
  2091.69,1486.45 2091.69,1470.32 
  "/>
<path clip-path="url(#clip550)" d="M 0 0 M405.278 1530.29 L434.954 1530.29 L434.954 1534.23 L405.278 1534.23 L405.278 1530.29 Z" fill="#000000" fill-rule="evenodd" fill-opacity="1" /><path clip-path="url(#clip550)" d="M 0 0 M440.07 1512.56 L458.426 1512.56 L458.426 1516.5 L444.352 1516.5 L444.352 1524.97 Q445.37 1524.62 446.389 1524.46 Q447.407 1524.27 448.426 1524.27 Q454.213 1524.27 457.593 1527.44 Q460.972 1530.62 460.972 1536.03 Q460.972 1541.61 457.5 1544.71 Q454.028 1547.79 447.708 1547.79 Q445.532 1547.79 443.264 1547.42 Q441.019 1547.05 438.611 1546.31 L438.611 1541.61 Q440.695 1542.74 442.917 1543.3 Q445.139 1543.86 447.616 1543.86 Q451.62 1543.86 453.958 1541.75 Q456.296 1539.64 456.296 1536.03 Q456.296 1532.42 453.958 1530.31 Q451.62 1528.21 447.616 1528.21 Q445.741 1528.21 443.866 1528.62 Q442.014 1529.04 440.07 1529.92 L440.07 1512.56 Z" fill="#000000" fill-rule="evenodd" fill-opacity="1" /><path clip-path="url(#clip550)" d="M 0 0 M466.042 1541.24 L470.926 1541.24 L470.926 1547.12 L466.042 1547.12 L466.042 1541.24 Z" fill="#000000" fill-rule="evenodd" fill-opacity="1" /><path clip-path="url(#clip550)" d="M 0 0 M485.995 1515.64 Q482.384 1515.64 480.555 1519.2 Q478.75 1522.75 478.75 1529.87 Q478.75 1536.98 480.555 1540.55 Q482.384 1544.09 485.995 1544.09 Q489.629 1544.09 491.435 1540.55 Q493.264 1536.98 493.264 1529.87 Q493.264 1522.75 491.435 1519.2 Q489.629 1515.64 485.995 1515.64 M485.995 1511.93 Q491.805 1511.93 494.861 1516.54 Q497.94 1521.12 497.94 1529.87 Q497.94 1538.6 494.861 1543.21 Q491.805 1547.79 485.995 1547.79 Q480.185 1547.79 477.106 1543.21 Q474.051 1538.6 474.051 1529.87 Q474.051 1521.12 477.106 1516.54 Q480.185 1511.93 485.995 1511.93 Z" fill="#000000" fill-rule="evenodd" fill-opacity="1" /><path clip-path="url(#clip550)" d="M 0 0 M816.096 1530.29 L845.772 1530.29 L845.772 1534.23 L816.096 1534.23 L816.096 1530.29 Z" fill="#000000" fill-rule="evenodd" fill-opacity="1" /><path clip-path="url(#clip550)" d="M 0 0 M854.869 1543.18 L871.188 1543.18 L871.188 1547.12 L849.244 1547.12 L849.244 1543.18 Q851.906 1540.43 856.489 1535.8 Q861.096 1531.15 862.276 1529.81 Q864.522 1527.28 865.401 1525.55 Q866.304 1523.79 866.304 1522.1 Q866.304 1519.34 864.36 1517.61 Q862.438 1515.87 859.336 1515.87 Q857.137 1515.87 854.684 1516.63 Q852.253 1517.4 849.475 1518.95 L849.475 1514.23 Q852.299 1513.09 854.753 1512.51 Q857.207 1511.93 859.244 1511.93 Q864.614 1511.93 867.809 1514.62 Q871.003 1517.31 871.003 1521.8 Q871.003 1523.93 870.193 1525.85 Q869.406 1527.74 867.299 1530.34 Q866.721 1531.01 863.619 1534.23 Q860.517 1537.42 854.869 1543.18 Z" fill="#000000" fill-rule="evenodd" fill-opacity="1" /><path clip-path="url(#clip550)" d="M 0 0 M876.258 1541.24 L881.142 1541.24 L881.142 1547.12 L876.258 1547.12 L876.258 1541.24 Z" fill="#000000" fill-rule="evenodd" fill-opacity="1" /><path clip-path="url(#clip550)" d="M 0 0 M886.258 1512.56 L904.614 1512.56 L904.614 1516.5 L890.54 1516.5 L890.54 1524.97 Q891.559 1524.62 892.577 1524.46 Q893.596 1524.27 894.614 1524.27 Q900.401 1524.27 903.781 1527.44 Q907.16 1530.62 907.16 1536.03 Q907.16 1541.61 903.688 1544.71 Q900.216 1547.79 893.896 1547.79 Q891.721 1547.79 889.452 1547.42 Q887.207 1547.05 884.799 1546.31 L884.799 1541.61 Q886.883 1542.74 889.105 1543.3 Q891.327 1543.86 893.804 1543.86 Q897.809 1543.86 900.146 1541.75 Q902.484 1539.64 902.484 1536.03 Q902.484 1532.42 900.146 1530.31 Q897.809 1528.21 893.804 1528.21 Q891.929 1528.21 890.054 1528.62 Q888.202 1529.04 886.258 1529.92 L886.258 1512.56 Z" fill="#000000" fill-rule="evenodd" fill-opacity="1" /><path clip-path="url(#clip550)" d="M 0 0 M1253.16 1515.64 Q1249.55 1515.64 1247.72 1519.2 Q1245.92 1522.75 1245.92 1529.87 Q1245.92 1536.98 1247.72 1540.55 Q1249.55 1544.09 1253.16 1544.09 Q1256.8 1544.09 1258.6 1540.55 Q1260.43 1536.98 1260.43 1529.87 Q1260.43 1522.75 1258.6 1519.2 Q1256.8 1515.64 1253.16 1515.64 M1253.16 1511.93 Q1258.97 1511.93 1262.03 1516.54 Q1265.11 1521.12 1265.11 1529.87 Q1265.11 1538.6 1262.03 1543.21 Q1258.97 1547.79 1253.16 1547.79 Q1247.35 1547.79 1244.27 1543.21 Q1241.22 1538.6 1241.22 1529.87 Q1241.22 1521.12 1244.27 1516.54 Q1247.35 1511.93 1253.16 1511.93 Z" fill="#000000" fill-rule="evenodd" fill-opacity="1" /><path clip-path="url(#clip550)" d="M 0 0 M1270.18 1541.24 L1275.06 1541.24 L1275.06 1547.12 L1270.18 1547.12 L1270.18 1541.24 Z" fill="#000000" fill-rule="evenodd" fill-opacity="1" /><path clip-path="url(#clip550)" d="M 0 0 M1290.13 1515.64 Q1286.52 1515.64 1284.69 1519.2 Q1282.89 1522.75 1282.89 1529.87 Q1282.89 1536.98 1284.69 1540.55 Q1286.52 1544.09 1290.13 1544.09 Q1293.77 1544.09 1295.57 1540.55 Q1297.4 1536.98 1297.4 1529.87 Q1297.4 1522.75 1295.57 1519.2 Q1293.77 1515.64 1290.13 1515.64 M1290.13 1511.93 Q1295.94 1511.93 1299 1516.54 Q1302.08 1521.12 1302.08 1529.87 Q1302.08 1538.6 1299 1543.21 Q1295.94 1547.79 1290.13 1547.79 Q1284.32 1547.79 1281.24 1543.21 Q1278.19 1538.6 1278.19 1529.87 Q1278.19 1521.12 1281.24 1516.54 Q1284.32 1511.93 1290.13 1511.93 Z" fill="#000000" fill-rule="evenodd" fill-opacity="1" /><path clip-path="url(#clip550)" d="M 0 0 M1658.33 1543.18 L1674.65 1543.18 L1674.65 1547.12 L1652.71 1547.12 L1652.71 1543.18 Q1655.37 1540.43 1659.95 1535.8 Q1664.56 1531.15 1665.74 1529.81 Q1667.99 1527.28 1668.87 1525.55 Q1669.77 1523.79 1669.77 1522.1 Q1669.77 1519.34 1667.82 1517.61 Q1665.9 1515.87 1662.8 1515.87 Q1660.6 1515.87 1658.15 1516.63 Q1655.72 1517.4 1652.94 1518.95 L1652.94 1514.23 Q1655.76 1513.09 1658.22 1512.51 Q1660.67 1511.93 1662.71 1511.93 Q1668.08 1511.93 1671.27 1514.62 Q1674.47 1517.31 1674.47 1521.8 Q1674.47 1523.93 1673.66 1525.85 Q1672.87 1527.74 1670.76 1530.34 Q1670.19 1531.01 1667.08 1534.23 Q1663.98 1537.42 1658.33 1543.18 Z" fill="#000000" fill-rule="evenodd" fill-opacity="1" /><path clip-path="url(#clip550)" d="M 0 0 M1679.72 1541.24 L1684.61 1541.24 L1684.61 1547.12 L1679.72 1547.12 L1679.72 1541.24 Z" fill="#000000" fill-rule="evenodd" fill-opacity="1" /><path clip-path="url(#clip550)" d="M 0 0 M1689.72 1512.56 L1708.08 1512.56 L1708.08 1516.5 L1694 1516.5 L1694 1524.97 Q1695.02 1524.62 1696.04 1524.46 Q1697.06 1524.27 1698.08 1524.27 Q1703.87 1524.27 1707.25 1527.44 Q1710.62 1530.62 1710.62 1536.03 Q1710.62 1541.61 1707.15 1544.71 Q1703.68 1547.79 1697.36 1547.79 Q1695.19 1547.79 1692.92 1547.42 Q1690.67 1547.05 1688.26 1546.31 L1688.26 1541.61 Q1690.35 1542.74 1692.57 1543.3 Q1694.79 1543.86 1697.27 1543.86 Q1701.27 1543.86 1703.61 1541.75 Q1705.95 1539.64 1705.95 1536.03 Q1705.95 1532.42 1703.61 1530.31 Q1701.27 1528.21 1697.27 1528.21 Q1695.39 1528.21 1693.52 1528.62 Q1691.67 1529.04 1689.72 1529.92 L1689.72 1512.56 Z" fill="#000000" fill-rule="evenodd" fill-opacity="1" /><path clip-path="url(#clip550)" d="M 0 0 M2063.48 1512.56 L2081.84 1512.56 L2081.84 1516.5 L2067.76 1516.5 L2067.76 1524.97 Q2068.78 1524.62 2069.8 1524.46 Q2070.82 1524.27 2071.84 1524.27 Q2077.62 1524.27 2081 1527.44 Q2084.38 1530.62 2084.38 1536.03 Q2084.38 1541.61 2080.91 1544.71 Q2077.44 1547.79 2071.12 1547.79 Q2068.94 1547.79 2066.67 1547.42 Q2064.43 1547.05 2062.02 1546.31 L2062.02 1541.61 Q2064.11 1542.74 2066.33 1543.3 Q2068.55 1543.86 2071.03 1543.86 Q2075.03 1543.86 2077.37 1541.75 Q2079.71 1539.64 2079.71 1536.03 Q2079.71 1532.42 2077.37 1530.31 Q2075.03 1528.21 2071.03 1528.21 Q2069.15 1528.21 2067.28 1528.62 Q2065.42 1529.04 2063.48 1529.92 L2063.48 1512.56 Z" fill="#000000" fill-rule="evenodd" fill-opacity="1" /><path clip-path="url(#clip550)" d="M 0 0 M2089.45 1541.24 L2094.34 1541.24 L2094.34 1547.12 L2089.45 1547.12 L2089.45 1541.24 Z" fill="#000000" fill-rule="evenodd" fill-opacity="1" /><path clip-path="url(#clip550)" d="M 0 0 M2109.41 1515.64 Q2105.79 1515.64 2103.97 1519.2 Q2102.16 1522.75 2102.16 1529.87 Q2102.16 1536.98 2103.97 1540.55 Q2105.79 1544.09 2109.41 1544.09 Q2113.04 1544.09 2114.85 1540.55 Q2116.67 1536.98 2116.67 1529.87 Q2116.67 1522.75 2114.85 1519.2 Q2113.04 1515.64 2109.41 1515.64 M2109.41 1511.93 Q2115.22 1511.93 2118.27 1516.54 Q2121.35 1521.12 2121.35 1529.87 Q2121.35 1538.6 2118.27 1543.21 Q2115.22 1547.79 2109.41 1547.79 Q2103.6 1547.79 2100.52 1543.21 Q2097.46 1538.6 2097.46 1529.87 Q2097.46 1521.12 2100.52 1516.54 Q2103.6 1511.93 2109.41 1511.93 Z" fill="#000000" fill-rule="evenodd" fill-opacity="1" /><polyline clip-path="url(#clip553)" style="stroke:#000000; stroke-width:2; stroke-opacity:0.1; fill:none" points="
  179.654,1448.41 2352.76,1448.41 
  "/>
<polyline clip-path="url(#clip553)" style="stroke:#000000; stroke-width:2; stroke-opacity:0.1; fill:none" points="
  179.654,1131.4 2352.76,1131.4 
  "/>
<polyline clip-path="url(#clip553)" style="stroke:#000000; stroke-width:2; stroke-opacity:0.1; fill:none" points="
  179.654,814.39 2352.76,814.39 
  "/>
<polyline clip-path="url(#clip553)" style="stroke:#000000; stroke-width:2; stroke-opacity:0.1; fill:none" points="
  179.654,497.378 2352.76,497.378 
  "/>
<polyline clip-path="url(#clip553)" style="stroke:#000000; stroke-width:2; stroke-opacity:0.1; fill:none" points="
  179.654,180.367 2352.76,180.367 
  "/>
<polyline clip-path="url(#clip550)" style="stroke:#000000; stroke-width:4; stroke-opacity:1; fill:none" points="
  179.654,1486.45 179.654,142.325 
  "/>
<polyline clip-path="url(#clip550)" style="stroke:#000000; stroke-width:4; stroke-opacity:1; fill:none" points="
  179.654,1448.41 205.731,1448.41 
  "/>
<polyline clip-path="url(#clip550)" style="stroke:#000000; stroke-width:4; stroke-opacity:1; fill:none" points="
  179.654,1131.4 205.731,1131.4 
  "/>
<polyline clip-path="url(#clip550)" style="stroke:#000000; stroke-width:4; stroke-opacity:1; fill:none" points="
  179.654,814.39 205.731,814.39 
  "/>
<polyline clip-path="url(#clip550)" style="stroke:#000000; stroke-width:4; stroke-opacity:1; fill:none" points="
  179.654,497.378 205.731,497.378 
  "/>
<polyline clip-path="url(#clip550)" style="stroke:#000000; stroke-width:4; stroke-opacity:1; fill:none" points="
  179.654,180.367 205.731,180.367 
  "/>
<path clip-path="url(#clip550)" d="M 0 0 M51.2236 1448.86 L80.8994 1448.86 L80.8994 1452.8 L51.2236 1452.8 L51.2236 1448.86 Z" fill="#000000" fill-rule="evenodd" fill-opacity="1" /><path clip-path="url(#clip550)" d="M 0 0 M86.779 1461.76 L94.4178 1461.76 L94.4178 1435.39 L86.1077 1437.06 L86.1077 1432.8 L94.3715 1431.13 L99.0474 1431.13 L99.0474 1461.76 L106.686 1461.76 L106.686 1465.69 L86.779 1465.69 L86.779 1461.76 Z" fill="#000000" fill-rule="evenodd" fill-opacity="1" /><path clip-path="url(#clip550)" d="M 0 0 M111.756 1459.81 L116.64 1459.81 L116.64 1465.69 L111.756 1465.69 L111.756 1459.81 Z" fill="#000000" fill-rule="evenodd" fill-opacity="1" /><path clip-path="url(#clip550)" d="M 0 0 M131.709 1434.21 Q128.098 1434.21 126.27 1437.78 Q124.464 1441.32 124.464 1448.45 Q124.464 1455.55 126.27 1459.12 Q128.098 1462.66 131.709 1462.66 Q135.344 1462.66 137.149 1459.12 Q138.978 1455.55 138.978 1448.45 Q138.978 1441.32 137.149 1437.78 Q135.344 1434.21 131.709 1434.21 M131.709 1430.51 Q137.519 1430.51 140.575 1435.11 Q143.654 1439.7 143.654 1448.45 Q143.654 1457.17 140.575 1461.78 Q137.519 1466.36 131.709 1466.36 Q125.899 1466.36 122.82 1461.78 Q119.765 1457.17 119.765 1448.45 Q119.765 1439.7 122.82 1435.11 Q125.899 1430.51 131.709 1430.51 Z" fill="#000000" fill-rule="evenodd" fill-opacity="1" /><path clip-path="url(#clip550)" d="M 0 0 M50.9921 1131.85 L80.6679 1131.85 L80.6679 1135.79 L50.9921 1135.79 L50.9921 1131.85 Z" fill="#000000" fill-rule="evenodd" fill-opacity="1" /><path clip-path="url(#clip550)" d="M 0 0 M95.7373 1117.2 Q92.1262 1117.2 90.2975 1120.76 Q88.4919 1124.31 88.4919 1131.44 Q88.4919 1138.54 90.2975 1142.11 Q92.1262 1145.65 95.7373 1145.65 Q99.3715 1145.65 101.177 1142.11 Q103.006 1138.54 103.006 1131.44 Q103.006 1124.31 101.177 1120.76 Q99.3715 1117.2 95.7373 1117.2 M95.7373 1113.5 Q101.547 1113.5 104.603 1118.1 Q107.682 1122.69 107.682 1131.44 Q107.682 1140.16 104.603 1144.77 Q101.547 1149.35 95.7373 1149.35 Q89.9271 1149.35 86.8484 1144.77 Q83.7929 1140.16 83.7929 1131.44 Q83.7929 1122.69 86.8484 1118.1 Q89.9271 1113.5 95.7373 1113.5 Z" fill="#000000" fill-rule="evenodd" fill-opacity="1" /><path clip-path="url(#clip550)" d="M 0 0 M112.751 1142.8 L117.635 1142.8 L117.635 1148.68 L112.751 1148.68 L112.751 1142.8 Z" fill="#000000" fill-rule="evenodd" fill-opacity="1" /><path clip-path="url(#clip550)" d="M 0 0 M122.751 1114.12 L141.107 1114.12 L141.107 1118.06 L127.033 1118.06 L127.033 1126.53 Q128.052 1126.18 129.07 1126.02 Q130.089 1125.83 131.107 1125.83 Q136.894 1125.83 140.274 1129.01 Q143.654 1132.18 143.654 1137.59 Q143.654 1143.17 140.181 1146.27 Q136.709 1149.35 130.39 1149.35 Q128.214 1149.35 125.945 1148.98 Q123.7 1148.61 121.293 1147.87 L121.293 1143.17 Q123.376 1144.31 125.598 1144.86 Q127.82 1145.42 130.297 1145.42 Q134.302 1145.42 136.64 1143.31 Q138.978 1141.2 138.978 1137.59 Q138.978 1133.98 136.64 1131.88 Q134.302 1129.77 130.297 1129.77 Q128.422 1129.77 126.547 1130.19 Q124.695 1130.6 122.751 1131.48 L122.751 1114.12 Z" fill="#000000" fill-rule="evenodd" fill-opacity="1" /><path clip-path="url(#clip550)" d="M 0 0 M94.7419 800.188 Q91.1308 800.188 89.3021 803.753 Q87.4966 807.295 87.4966 814.424 Q87.4966 821.531 89.3021 825.096 Q91.1308 828.637 94.7419 828.637 Q98.3761 828.637 100.182 825.096 Q102.01 821.531 102.01 814.424 Q102.01 807.295 100.182 803.753 Q98.3761 800.188 94.7419 800.188 M94.7419 796.485 Q100.552 796.485 103.608 801.091 Q106.686 805.675 106.686 814.424 Q106.686 823.151 103.608 827.758 Q100.552 832.341 94.7419 832.341 Q88.9317 832.341 85.8531 827.758 Q82.7975 823.151 82.7975 814.424 Q82.7975 805.675 85.8531 801.091 Q88.9317 796.485 94.7419 796.485 Z" fill="#000000" fill-rule="evenodd" fill-opacity="1" /><path clip-path="url(#clip550)" d="M 0 0 M111.756 825.79 L116.64 825.79 L116.64 831.67 L111.756 831.67 L111.756 825.79 Z" fill="#000000" fill-rule="evenodd" fill-opacity="1" /><path clip-path="url(#clip550)" d="M 0 0 M131.709 800.188 Q128.098 800.188 126.27 803.753 Q124.464 807.295 124.464 814.424 Q124.464 821.531 126.27 825.096 Q128.098 828.637 131.709 828.637 Q135.344 828.637 137.149 825.096 Q138.978 821.531 138.978 814.424 Q138.978 807.295 137.149 803.753 Q135.344 800.188 131.709 800.188 M131.709 796.485 Q137.519 796.485 140.575 801.091 Q143.654 805.675 143.654 814.424 Q143.654 823.151 140.575 827.758 Q137.519 832.341 131.709 832.341 Q125.899 832.341 122.82 827.758 Q119.765 823.151 119.765 814.424 Q119.765 805.675 122.82 801.091 Q125.899 796.485 131.709 796.485 Z" fill="#000000" fill-rule="evenodd" fill-opacity="1" /><path clip-path="url(#clip550)" d="M 0 0 M95.7373 483.177 Q92.1262 483.177 90.2975 486.742 Q88.4919 490.283 88.4919 497.413 Q88.4919 504.519 90.2975 508.084 Q92.1262 511.626 95.7373 511.626 Q99.3715 511.626 101.177 508.084 Q103.006 504.519 103.006 497.413 Q103.006 490.283 101.177 486.742 Q99.3715 483.177 95.7373 483.177 M95.7373 479.473 Q101.547 479.473 104.603 484.08 Q107.682 488.663 107.682 497.413 Q107.682 506.14 104.603 510.746 Q101.547 515.33 95.7373 515.33 Q89.9271 515.33 86.8484 510.746 Q83.7929 506.14 83.7929 497.413 Q83.7929 488.663 86.8484 484.08 Q89.9271 479.473 95.7373 479.473 Z" fill="#000000" fill-rule="evenodd" fill-opacity="1" /><path clip-path="url(#clip550)" d="M 0 0 M112.751 508.779 L117.635 508.779 L117.635 514.658 L112.751 514.658 L112.751 508.779 Z" fill="#000000" fill-rule="evenodd" fill-opacity="1" /><path clip-path="url(#clip550)" d="M 0 0 M122.751 480.098 L141.107 480.098 L141.107 484.033 L127.033 484.033 L127.033 492.506 Q128.052 492.158 129.07 491.996 Q130.089 491.811 131.107 491.811 Q136.894 491.811 140.274 494.982 Q143.654 498.154 143.654 503.57 Q143.654 509.149 140.181 512.251 Q136.709 515.33 130.39 515.33 Q128.214 515.33 125.945 514.959 Q123.7 514.589 121.293 513.848 L121.293 509.149 Q123.376 510.283 125.598 510.839 Q127.82 511.394 130.297 511.394 Q134.302 511.394 136.64 509.288 Q138.978 507.181 138.978 503.57 Q138.978 499.959 136.64 497.853 Q134.302 495.746 130.297 495.746 Q128.422 495.746 126.547 496.163 Q124.695 496.58 122.751 497.459 L122.751 480.098 Z" fill="#000000" fill-rule="evenodd" fill-opacity="1" /><path clip-path="url(#clip550)" d="M 0 0 M86.779 193.711 L94.4178 193.711 L94.4178 167.346 L86.1077 169.013 L86.1077 164.753 L94.3715 163.087 L99.0474 163.087 L99.0474 193.711 L106.686 193.711 L106.686 197.647 L86.779 197.647 L86.779 193.711 Z" fill="#000000" fill-rule="evenodd" fill-opacity="1" /><path clip-path="url(#clip550)" d="M 0 0 M111.756 191.767 L116.64 191.767 L116.64 197.647 L111.756 197.647 L111.756 191.767 Z" fill="#000000" fill-rule="evenodd" fill-opacity="1" /><path clip-path="url(#clip550)" d="M 0 0 M131.709 166.165 Q128.098 166.165 126.27 169.73 Q124.464 173.272 124.464 180.401 Q124.464 187.508 126.27 191.073 Q128.098 194.614 131.709 194.614 Q135.344 194.614 137.149 191.073 Q138.978 187.508 138.978 180.401 Q138.978 173.272 137.149 169.73 Q135.344 166.165 131.709 166.165 M131.709 162.462 Q137.519 162.462 140.575 167.068 Q143.654 171.651 143.654 180.401 Q143.654 189.128 140.575 193.735 Q137.519 198.318 131.709 198.318 Q125.899 198.318 122.82 193.735 Q119.765 189.128 119.765 180.401 Q119.765 171.651 122.82 167.068 Q125.899 162.462 131.709 162.462 Z" fill="#000000" fill-rule="evenodd" fill-opacity="1" /><path clip-path="url(#clip550)" d="M 0 0 M631.62 73.6872 L622.017 73.6872 L622.017 97.8123 Q622.017 98.9834 621.958 99.569 Q621.899 100.096 621.49 100.623 Q621.138 101.15 620.318 101.15 Q619.44 101.15 615.224 99.042 Q611.008 96.8754 608.549 94.7674 Q602.342 102.497 586.239 102.497 Q574.879 102.497 565.686 99.2176 Q556.492 95.9385 550.461 90.2 Q544.43 84.4615 541.151 76.7907 Q537.93 69.0613 537.93 60.0436 Q537.93 50.7917 541.326 42.9452 Q544.722 35.0987 550.871 29.5359 Q557.019 23.9145 566.037 20.7525 Q575.113 17.5904 586.005 17.5904 Q599.414 17.5904 609.661 25.7297 L617.566 18.6444 Q618.796 17.5904 619.85 17.5904 Q621.372 17.5904 621.665 18.2931 Q622.017 18.9372 622.017 20.9281 L622.017 46.6928 Q622.017 49.0351 621.49 49.5621 Q621.021 50.0891 618.737 50.0891 Q616.688 50.0891 616.219 49.7377 Q615.81 49.3278 615.517 47.5712 Q613.584 36.3869 606.031 29.8287 Q598.477 23.2118 588.64 23.2118 Q580.266 23.2118 573.532 26.0811 Q566.857 28.9503 563.109 33.6348 Q559.596 38.2607 557.898 44.2335 Q556.258 50.2062 556.258 59.8679 Q556.258 68.5342 557.78 74.8583 Q559.303 81.1824 562.992 85.9254 Q567.208 91.3126 574.293 94.0647 Q581.437 96.8168 589.518 96.8168 Q595.959 96.8168 600.292 94.2989 Q601.932 93.3035 602.986 92.1909 Q604.04 91.0783 604.391 89.8487 Q604.801 88.5604 604.86 87.7992 Q604.977 87.038 604.977 85.8083 L604.977 73.6872 L587.703 73.6872 L587.703 68.0658 Q594.202 68.4171 612.296 68.4171 Q627.404 68.4171 631.62 68.0658 L631.62 73.6872 Z" fill="#808080" fill-rule="evenodd" fill-opacity="1" /><path clip-path="url(#clip550)" d="M 0 0 M693.8 56.9987 Q693.8 60.3949 691.575 62.3859 Q689.35 64.3182 686.481 64.3182 Q683.611 64.3182 681.386 62.3859 Q679.161 60.4535 679.161 56.9987 Q679.161 55.4762 679.688 54.1294 Q680.274 52.7241 680.859 52.08 L681.445 51.4944 Q677.99 51.4944 675.297 53.134 Q672.603 54.715 670.963 57.1744 Q669.324 59.6337 668.27 62.8543 Q667.216 66.0163 666.806 68.8856 Q666.455 71.7548 666.455 74.507 L666.455 95.5286 L676.878 95.5286 L676.878 101.15 Q672.544 100.799 660.365 100.799 L645.257 101.15 L645.257 95.5286 L653.514 95.5286 L653.514 58.4626 Q653.514 55.0663 652.284 54.4222 Q651.054 53.7781 645.257 53.7781 L645.257 48.1567 L665.166 47.1613 L665.166 60.7463 Q670.144 47.1613 681.094 47.1613 Q686.129 47.1613 689.936 49.8548 Q693.8 52.4899 693.8 56.9987 Z" fill="#808080" fill-rule="evenodd" fill-opacity="1" /><path clip-path="url(#clip550)" d="M 0 0 M699.876 89.7316 Q699.876 79.5428 711.88 74.1556 Q719.083 70.7008 733.956 69.8225 L733.956 65.4308 Q733.956 57.9941 730.033 54.0709 Q726.168 50.0891 721.249 50.0891 Q712.466 50.0891 708.25 55.5933 Q711.822 55.7105 713.11 57.5257 Q714.398 59.2824 714.398 61.0976 Q714.398 63.4984 712.876 65.0794 Q711.412 66.6019 708.894 66.6019 Q706.493 66.6019 704.912 65.138 Q703.331 63.6155 703.331 60.9805 Q703.331 55.1249 708.601 51.2602 Q713.93 47.3955 721.483 47.3955 Q731.321 47.3955 737.879 54.0123 Q739.929 56.0618 740.924 58.6968 Q741.978 61.3318 742.095 63.0885 Q742.212 64.7867 742.212 68.1829 L742.212 92.1324 Q742.212 92.835 742.446 94.0062 Q742.681 95.1773 743.735 96.6997 Q744.847 98.1636 746.662 98.1636 Q750.996 98.1636 750.937 90.4928 L750.937 83.7588 L753.982 83.7588 L753.982 90.4928 Q753.982 96.8754 750.586 99.3933 Q747.248 101.853 744.145 101.853 Q740.163 101.853 737.645 98.9249 Q735.127 95.9971 734.776 92.0152 Q732.96 96.5826 728.803 99.569 Q724.704 102.497 719.083 102.497 Q714.749 102.497 710.65 101.384 Q706.61 100.33 703.214 97.3439 Q699.876 94.2989 699.876 89.7316 M709.128 89.6144 Q709.128 94.0647 712.29 96.934 Q715.452 99.8032 719.902 99.8032 Q724.938 99.8032 729.447 95.9385 Q733.956 92.0152 733.956 84.3444 L733.956 72.3404 Q720.664 72.8088 714.866 78.1374 Q709.128 83.4075 709.128 89.6144 M713.754 40.0174 Q716.975 36.9139 721.659 32.288 Q727.397 26.5495 728.92 25.3784 Q730.442 24.1487 731.731 24.1487 Q733.546 24.1487 734.717 25.6126 Q735.947 27.018 735.947 28.599 Q735.947 29.3017 735.712 29.8872 Q735.478 30.4142 735.185 30.8241 Q734.893 31.234 734.307 31.6439 Q733.78 32.0538 733.487 32.2295 Q733.195 32.4051 732.55 32.815 Q731.906 33.1664 731.731 33.2835 Q716.038 42.184 715.569 42.3597 L713.754 40.0174 Z" fill="#808080" fill-rule="evenodd" fill-opacity="1" /><path clip-path="url(#clip550)" d="M 0 0 M806.623 27.6621 Q806.623 31.1169 804.339 33.1078 Q802.114 35.0987 799.186 35.0987 Q796.493 35.0987 794.151 33.1664 Q791.867 31.234 791.867 27.6621 Q791.867 23.7974 794.619 21.7479 Q793.799 21.5137 792.57 21.5137 Q791.398 21.5137 790.11 21.7479 Q788.881 21.9236 787.065 22.8019 Q785.25 23.6217 783.845 25.0856 Q782.498 26.491 781.502 29.3017 Q780.507 32.0538 780.507 35.8014 L780.507 47.9225 L794.97 47.9225 L794.97 53.5439 L781.21 53.5439 L781.21 95.5286 L791.633 95.5286 L791.633 101.15 Q787.299 100.799 775.061 100.799 L759.954 101.15 L759.954 95.5286 L768.269 95.5286 L768.269 53.5439 L759.251 53.5439 L759.251 47.9225 L768.269 47.9225 L768.269 35.8014 Q768.269 30.9412 770.435 27.2522 Q772.602 23.5046 776.232 21.3966 Q779.863 19.2886 784.079 18.2345 Q788.354 17.1805 792.979 17.1805 Q799.538 17.1805 803.051 20.3426 Q806.623 23.446 806.623 27.6621 Z" fill="#808080" fill-rule="evenodd" fill-opacity="1" /><path clip-path="url(#clip550)" d="M 0 0 M830.951 101.15 L816.897 100.799 L802.258 101.15 L802.258 95.5286 L810.573 95.5286 L810.573 58.4626 Q810.573 55.0663 809.343 54.4222 Q808.114 53.7781 802.61 53.7781 L802.61 48.1567 L823.514 47.1613 L823.514 95.5286 L830.951 95.5286 L830.951 101.15 M822.402 21.7479 Q825.154 24.5001 825.154 28.3648 Q825.154 32.2295 822.402 34.9816 Q819.708 37.7337 815.843 37.7337 Q811.979 37.7337 809.226 34.9816 Q806.474 32.2295 806.474 28.3648 Q806.474 24.5001 809.226 21.7479 Q811.979 18.9958 815.843 18.9958 Q819.708 18.9958 822.402 21.7479 Z" fill="#808080" fill-rule="evenodd" fill-opacity="1" /><path clip-path="url(#clip550)" d="M 0 0 M892.88 87.0965 Q892.88 87.565 892.353 88.9703 Q891.885 90.3171 890.304 92.6008 Q888.781 94.8845 886.381 96.934 Q884.038 98.9249 879.647 100.389 Q875.314 101.853 869.868 101.853 Q856.224 101.853 848.144 94.2404 Q840.121 86.6281 840.121 74.507 Q840.121 69.1198 841.878 64.3182 Q843.635 59.458 847.148 55.4762 Q850.72 51.4944 856.693 49.1522 Q862.724 46.8099 870.453 46.8099 Q891.299 46.8099 891.299 57.877 Q891.299 61.449 889.016 63.4399 Q886.791 65.4308 883.746 65.4308 Q880.935 65.4308 878.593 63.4984 Q876.309 61.5075 876.309 57.877 Q876.309 54.4808 878.71 52.3142 Q875.548 51.6115 870.922 51.6115 Q867.76 51.6115 865.183 52.5484 Q862.665 53.4853 861.084 54.8321 Q859.503 56.1204 858.332 58.3455 Q857.22 60.5121 856.634 62.2687 Q856.107 64.0254 855.814 66.6605 Q855.522 69.2369 855.463 70.5252 Q855.463 71.8134 855.463 73.9214 Q855.463 97.0511 872.152 97.0511 Q883.102 97.0511 887.142 87.2136 Q887.61 85.984 888.02 85.7497 Q888.43 85.457 890.011 85.457 Q890.89 85.457 891.299 85.5155 Q891.768 85.5155 892.295 85.9254 Q892.88 86.3353 892.88 87.0965 Z" fill="#808080" fill-rule="evenodd" fill-opacity="1" /><path clip-path="url(#clip550)" d="M 0 0 M963.895 98.2808 Q963.895 99.3348 963.661 99.9789 Q963.427 100.564 962.783 100.799 Q962.197 101.033 961.67 101.091 Q961.143 101.15 960.031 101.15 L954.292 101.15 Q950.72 101.15 948.202 100.506 Q945.743 99.8032 944.513 98.9834 Q943.284 98.1636 942.64 96.6997 Q941.995 95.2358 941.878 94.3575 Q941.82 93.4206 941.82 91.8981 Q939.595 96.1727 935.086 99.042 Q930.636 101.853 923.96 101.853 Q921.15 101.853 918.339 101.56 Q915.528 101.267 912.249 100.389 Q908.97 99.4519 906.51 98.0465 Q904.051 96.5826 902.412 94.0647 Q900.772 91.4882 900.772 88.2091 Q900.772 70.9936 939.77 69.354 L939.77 65.3137 Q939.77 51.1431 926.595 51.1431 Q921.794 51.1431 917.929 51.9629 Q918.28 52.1971 918.807 52.7827 Q919.334 53.3682 919.92 54.8321 Q920.564 56.296 920.564 57.877 Q920.564 61.449 918.28 63.4399 Q916.055 65.4308 913.01 65.4308 Q910.2 65.4308 907.857 63.4984 Q905.574 61.5075 905.574 57.877 Q905.574 46.8099 927.064 46.8099 Q940.005 46.8099 946.68 51.9043 Q953.414 56.9401 953.414 65.3137 L953.414 91.0783 Q953.414 92.3666 953.531 92.9521 Q953.648 93.5377 954.292 94.2404 Q954.936 94.9431 956.459 95.2358 Q958.04 95.4701 960.733 95.5286 Q961.787 95.5286 962.314 95.6457 Q962.841 95.7043 963.368 96.3484 Q963.895 96.9925 963.895 98.2808 M939.77 84.4615 L939.77 73.1016 Q937.721 73.2187 935.789 73.453 Q933.856 73.6872 930.694 74.2727 Q927.532 74.7997 924.956 75.9123 Q922.438 76.9663 919.978 78.5473 Q917.578 80.0698 916.172 82.5292 Q914.825 84.9885 914.825 88.092 Q914.825 92.0738 917.987 94.8259 Q921.15 97.5781 925.717 97.5781 Q926.888 97.5781 928.352 97.3439 Q929.816 97.1096 931.924 96.2898 Q934.032 95.4115 935.671 94.0647 Q937.37 92.7179 938.541 90.2586 Q939.77 87.7407 939.77 84.4615 Z" fill="#808080" fill-rule="evenodd" fill-opacity="1" /><path clip-path="url(#clip550)" d="M 0 0 M1012.31 84.3444 Q1012.31 87.9163 1011.2 90.8441 Q1010.14 93.7134 1008.56 95.5286 Q1007.04 97.2853 1004.7 98.5735 Q1002.36 99.8618 1000.42 100.506 Q998.55 101.091 996.09 101.443 Q993.631 101.794 992.518 101.794 Q991.464 101.853 990.118 101.853 Q981.393 101.853 975.947 98.0465 L972.844 100.096 Q971.087 101.326 970.501 101.56 Q969.974 101.853 969.272 101.853 Q967.749 101.853 967.398 101.15 Q967.105 100.506 967.105 98.515 L967.105 85.457 Q967.105 83.2318 967.515 82.5877 Q967.925 81.9436 969.974 81.9436 Q970.97 81.9436 971.38 82.0022 Q971.789 82.0607 972.141 82.4706 Q972.551 82.8219 972.844 83.6417 Q973.429 85.6326 973.956 87.1551 Q974.542 88.619 975.888 90.727 Q977.235 92.835 978.933 94.2404 Q980.69 95.5872 983.559 96.5826 Q986.487 97.5781 990.118 97.5781 Q991.23 97.5781 992.05 97.5195 Q992.928 97.461 994.743 97.2853 Q996.617 97.0511 997.964 96.4655 Q999.369 95.8214 1000.77 94.9431 Q1002.24 94.0062 1003 92.3666 Q1003.82 90.727 1003.82 88.5604 Q1003.82 86.5695 1002.77 84.9885 Q1001.77 83.3489 1000.42 82.412 Q999.077 81.4751 996.969 80.7725 Q994.861 80.0112 993.572 79.777 Q992.284 79.4842 990.469 79.1915 Q981.1 77.4933 978.348 76.4393 Q974.776 75.1511 971.907 72.6332 Q967.105 68.5342 967.105 62.5615 Q967.105 59.3409 968.159 56.7645 Q969.272 54.188 970.794 52.607 Q972.375 50.9674 974.717 49.7963 Q977.06 48.6252 978.933 48.0982 Q980.866 47.5126 983.266 47.2198 Q985.726 46.8685 986.78 46.8685 Q987.892 46.8099 989.181 46.8099 Q996.793 46.8099 1001.3 49.0936 Q1005.99 46.8099 1006.69 46.8099 Q1007.74 46.8099 1008.21 47.2784 Q1008.68 47.6883 1008.74 48.2738 Q1008.86 48.8008 1008.86 50.2062 L1008.86 59.7508 Q1008.86 61.976 1008.39 62.5615 Q1007.98 63.1471 1005.93 63.1471 Q1004.17 63.1471 1003.7 62.6786 Q1003.29 62.2102 1003.18 60.7463 Q1002.3 50.6746 989.064 50.6746 Q988.244 50.6746 987.541 50.7332 Q986.897 50.7332 985.375 50.9089 Q983.911 51.026 982.739 51.2602 Q981.627 51.4944 980.163 52.08 Q978.758 52.607 977.821 53.3682 Q976.884 54.1294 976.24 55.3591 Q975.596 56.5888 975.596 58.1113 Q975.596 59.2824 976.064 60.2778 Q976.591 61.2733 977.177 61.976 Q977.821 62.6786 979.05 63.3228 Q980.28 63.9083 981.1 64.2596 Q981.978 64.611 983.501 65.0209 Q985.023 65.3722 985.667 65.4893 Q986.37 65.6064 987.834 65.8992 Q995.68 67.246 999.018 68.2415 Q1002.41 69.2369 1005.69 71.6377 Q1012.31 76.8492 1012.31 84.3444 Z" fill="#808080" fill-rule="evenodd" fill-opacity="1" /><path clip-path="url(#clip550)" d="M 0 0 M1127.97 101.15 L1106.01 101.853 L1106.01 95.9971 Q1098.75 101.853 1089.21 101.853 Q1076.09 101.853 1068.25 94.2989 Q1060.46 86.6866 1060.46 74.6241 Q1060.46 62.0931 1068.83 54.6564 Q1077.26 47.1613 1090.56 47.1613 Q1099.75 47.1613 1106.72 52.607 L1106.72 29.1845 Q1106.72 25.7883 1105.49 25.1442 Q1104.26 24.5001 1098.46 24.5001 L1098.46 18.8787 L1119.72 17.9418 L1119.72 90.8441 Q1119.72 94.2404 1120.95 94.8845 Q1122.18 95.5286 1127.97 95.5286 L1127.97 101.15 M1106.01 88.7947 L1106.01 58.8139 Q1103.67 55.769 1100.04 53.661 Q1096.41 51.4944 1091.73 51.4944 Q1088.27 51.4944 1084.76 52.9583 Q1081.25 54.3637 1078.9 57.7599 Q1077.44 59.9265 1076.68 63.1471 Q1075.98 66.3677 1075.86 68.5342 Q1075.8 70.7008 1075.8 74.6241 Q1075.8 76.5564 1075.8 77.669 Q1075.86 78.723 1075.98 80.8896 Q1076.09 82.9976 1076.33 84.3444 Q1076.56 85.6912 1077.09 87.6235 Q1077.62 89.5559 1078.32 90.7856 Q1079.02 92.0152 1080.13 93.4791 Q1081.25 94.8845 1082.65 95.7043 Q1084.11 96.4655 1086.05 97.0511 Q1088.04 97.5781 1090.44 97.5781 Q1099.63 97.5781 1106.01 88.7947 Z" fill="#808080" fill-rule="evenodd" fill-opacity="1" /><path clip-path="url(#clip550)" d="M 0 0 M1191.69 87.0965 Q1191.69 87.8578 1191.05 89.4388 Q1190.41 90.9612 1188.59 93.1864 Q1186.83 95.3529 1184.26 97.2853 Q1181.74 99.1591 1177.29 100.506 Q1172.9 101.853 1167.57 101.853 Q1153.28 101.853 1144.79 94.1233 Q1136.3 86.3939 1136.3 74.1556 Q1136.3 68.4757 1138.23 63.557 Q1140.22 58.6383 1143.85 54.8907 Q1147.48 51.1431 1153.16 48.9765 Q1158.84 46.8099 1165.87 46.8099 Q1178.29 46.8099 1184.96 53.3097 Q1187.71 56.0618 1189.29 60.0436 Q1190.93 63.9669 1191.28 66.6019 Q1191.69 69.2369 1191.69 71.7548 Q1191.69 73.98 1190.87 74.507 Q1190.11 75.034 1187.83 75.034 L1151.64 75.034 Q1151.64 76.9663 1151.64 78.2546 Q1151.7 79.4842 1152.05 82.0022 Q1152.4 84.5201 1152.99 86.3353 Q1153.57 88.092 1154.8 90.2586 Q1156.09 92.4251 1157.85 93.8305 Q1159.61 95.1773 1162.36 96.1142 Q1165.11 97.0511 1168.62 97.0511 Q1174.48 97.0511 1179.16 94.416 Q1183.91 91.781 1185.78 87.5064 Q1186.37 85.9254 1186.83 85.457 Q1187.36 84.9885 1188.83 84.9885 Q1191.69 84.9885 1191.69 87.0965 M1180.28 71.0522 Q1179.75 51.1431 1165.87 51.1431 Q1162.83 51.1431 1159.72 52.607 Q1156.62 54.0709 1154.51 57.35 Q1153.34 59.2238 1152.7 61.9174 Q1152.05 64.5524 1151.94 66.0749 Q1151.82 67.5388 1151.64 71.0522 L1180.28 71.0522 Z" fill="#808080" fill-rule="evenodd" fill-opacity="1" /><path clip-path="url(#clip550)" d="M 0 0 M1282.5 58.4626 Q1282.5 61.7417 1280.86 63.4984 Q1279.22 65.1965 1277 65.1965 Q1275.18 65.1965 1274.19 64.1425 Q1273.25 63.0885 1273.25 61.6832 Q1273.25 59.6337 1274.89 57.9941 Q1276.59 56.3546 1279.05 56.296 Q1278.23 54.1294 1276.06 52.8412 Q1273.89 51.4944 1271.96 51.1431 Q1270.09 50.7917 1268.21 50.7917 Q1264.53 50.7917 1261.72 51.9629 Q1258.9 53.134 1257.5 54.9492 Q1256.09 56.7059 1255.45 58.404 Q1254.81 60.1022 1254.81 61.5661 Q1254.81 62.8543 1255.1 63.9083 Q1255.45 64.9038 1256.27 65.665 Q1257.09 66.3677 1257.67 66.8361 Q1258.32 67.3046 1259.72 67.7145 Q1261.13 68.1244 1261.72 68.3 Q1262.3 68.4171 1263.94 68.7685 Q1267.34 69.4711 1268.86 69.881 Q1270.38 70.2324 1272.37 71.2278 Q1274.42 72.2233 1275.94 73.8043 Q1279.63 77.4933 1279.63 82.5877 Q1279.63 84.4615 1278.99 86.7452 Q1278.4 89.0289 1276.71 91.8981 Q1275.01 94.7674 1272.43 97.0511 Q1269.85 99.3348 1265.4 100.916 Q1261.01 102.497 1255.51 102.497 Q1247.84 102.497 1243.09 99.2762 Q1238.35 95.9971 1238.35 90.8441 Q1238.35 87.0965 1240.4 85.0471 Q1242.45 82.939 1245.09 82.939 Q1247.08 82.939 1248.31 84.0516 Q1249.54 85.1056 1249.54 87.0965 Q1249.54 89.7901 1247.37 91.8396 Q1245.2 93.889 1241.98 93.4791 Q1244.73 99.8032 1255.63 99.8032 Q1259.72 99.8032 1262.89 98.7492 Q1266.11 97.6366 1267.86 96.1142 Q1269.68 94.5332 1270.85 92.6008 Q1272.02 90.6685 1272.37 89.2046 Q1272.78 87.7407 1272.78 86.6281 Q1272.78 84.6957 1272.02 83.2318 Q1271.26 81.7679 1270.21 80.9481 Q1269.21 80.0698 1267.28 79.3671 Q1265.4 78.6059 1264.06 78.3131 Q1262.71 78.0203 1260.31 77.5519 Q1259.2 77.3177 1258.49 77.2006 Q1257.79 77.0249 1256.33 76.5564 Q1254.92 76.0294 1253.93 75.5024 Q1252.99 74.9754 1251.76 74.0385 Q1250.53 73.1016 1249.77 71.9891 Q1249.01 70.8765 1248.48 69.2369 Q1247.95 67.5973 1247.95 65.665 Q1247.95 63.9083 1248.48 61.8003 Q1249.07 59.6923 1250.53 57.2329 Q1252.05 54.7736 1254.22 52.7827 Q1256.39 50.7917 1260.02 49.5035 Q1263.71 48.1567 1268.21 48.1567 Q1274.77 48.1567 1278.64 51.2016 Q1282.5 54.188 1282.5 58.4626 Z" fill="#808080" fill-rule="evenodd" fill-opacity="1" /><path clip-path="url(#clip550)" d="M 0 0 M1324.64 26.1982 Q1324.64 28.7746 1322.53 30.707 Q1320.48 32.5808 1318.26 32.5808 Q1316.21 32.5808 1314.92 31.3511 Q1313.69 30.0629 1313.69 28.2476 Q1313.69 25.8468 1315.74 23.8559 Q1317.79 21.865 1320.19 21.865 Q1322.18 21.865 1323.41 23.0947 Q1324.64 24.3244 1324.64 26.1982 M1325.69 83.9931 Q1325.69 84.4615 1325.17 86.3353 Q1324.64 88.1505 1323.35 90.9612 Q1322.12 93.7134 1320.42 96.2898 Q1318.73 98.8663 1315.92 100.682 Q1313.16 102.497 1310 102.497 Q1305.73 102.497 1302.92 99.6861 Q1300.16 96.8754 1300.16 92.6594 Q1300.16 90.3757 1302.92 83.0562 Q1310.88 61.7417 1311.17 60.8634 Q1312.52 57.5257 1312.52 54.5979 Q1312.52 53.2511 1312.23 52.4313 Q1311.93 51.553 1311.35 51.2602 Q1310.76 50.9089 1310.41 50.8503 Q1310.12 50.7917 1309.53 50.7917 Q1306.08 50.7917 1302.86 54.3051 Q1299.64 57.8185 1297.41 65.665 Q1296.94 67.1289 1296.65 67.4802 Q1296.36 67.8316 1295.48 67.8316 Q1294.02 67.773 1294.02 66.6019 Q1294.02 66.2506 1294.43 64.9038 Q1294.84 63.4984 1295.6 61.3904 Q1296.36 59.2238 1297.7 56.9987 Q1299.05 54.715 1300.69 52.7241 Q1302.39 50.7332 1304.79 49.445 Q1307.19 48.1567 1309.88 48.1567 Q1314.28 48.1567 1316.97 51.026 Q1319.72 53.8367 1319.72 57.9941 Q1319.72 60.2778 1318.14 64.3182 Q1316.21 69.5883 1315.51 71.2864 L1310.82 83.8759 Q1309.12 88.4433 1308.6 89.8487 Q1308.13 91.1955 1307.72 92.835 Q1307.37 94.416 1307.37 95.8799 Q1307.37 97.9294 1308.01 98.8663 Q1308.71 99.8032 1310.24 99.8032 Q1314.45 99.8032 1317.55 95.6457 Q1320.66 91.4297 1322.47 84.9885 Q1322.53 84.8128 1322.59 84.5201 Q1323.06 83.0562 1323.53 82.8805 Q1323.76 82.8219 1324.23 82.8219 Q1325.69 82.8219 1325.69 83.9931 Z" fill="#808080" fill-rule="evenodd" fill-opacity="1" /><path clip-path="url(#clip550)" d="M 0 0 M1399.95 83.9931 Q1399.95 84.4615 1399.42 86.2767 Q1398.89 88.092 1397.61 90.9027 Q1396.38 93.7134 1394.68 96.2898 Q1392.98 98.8078 1390.17 100.682 Q1387.42 102.497 1384.26 102.497 Q1380.04 102.497 1377.23 99.6861 Q1374.42 96.8754 1374.42 92.6594 Q1374.42 90.3171 1375.65 87.0965 Q1383.44 66.3091 1383.44 59.1653 Q1383.44 50.7917 1376.94 50.7917 Q1373.72 50.7917 1370.67 52.0214 Q1367.68 53.1925 1365.64 54.8321 Q1363.59 56.4717 1361.71 58.7554 Q1359.9 60.9805 1358.96 62.503 Q1358.08 63.9669 1357.38 65.4308 L1355.86 71.4035 Q1355.5 73.0431 1353.81 79.4257 L1351.17 90.2586 Q1349.3 98.3393 1348.89 99.1005 Q1348.3 100.74 1347.01 101.618 Q1345.73 102.497 1344.44 102.497 Q1342.97 102.497 1341.98 101.618 Q1340.98 100.74 1340.98 99.2176 Q1340.98 98.9834 1341.16 98.1051 Q1341.33 97.2267 1341.63 95.9971 Q1341.92 94.7674 1342.04 94.0647 L1349.01 66.3677 Q1350.29 61.3318 1350.59 59.7508 Q1350.94 58.1113 1350.94 56.296 Q1350.94 50.7917 1347.19 50.7917 Q1344.14 50.7917 1342.15 54.4222 Q1340.16 58.0527 1338.47 65.0794 Q1337.94 67.0118 1337.59 67.4217 Q1337.29 67.8316 1336.42 67.8316 Q1334.95 67.773 1334.95 66.6019 Q1334.95 66.3091 1335.42 64.3768 Q1335.89 62.4444 1336.77 59.6923 Q1337.7 56.8816 1338.58 55.0078 Q1339.34 53.6024 1339.75 52.9583 Q1340.22 52.2556 1341.33 50.9089 Q1342.51 49.5035 1344.03 48.8594 Q1345.61 48.1567 1347.54 48.1567 Q1351.87 48.1567 1355.04 50.9674 Q1358.2 53.7195 1358.61 58.5797 Q1366.4 48.1567 1377.29 48.1567 Q1383.73 48.1567 1387.42 51.553 Q1391.11 54.9492 1391.11 60.9805 Q1391.11 62.3859 1390.81 64.2011 Q1390.58 65.9578 1389.99 68.1829 Q1389.47 70.408 1389 72.1062 Q1388.53 73.8043 1387.59 76.5564 Q1386.66 79.25 1386.25 80.4211 Q1385.84 81.5923 1384.84 84.3444 Q1383.9 87.038 1383.79 87.3308 Q1381.62 92.7765 1381.62 95.8799 Q1381.62 97.9294 1382.27 98.8663 Q1382.97 99.8032 1384.49 99.8032 Q1388.59 99.8032 1391.63 95.7628 Q1394.74 91.6639 1396.73 84.9885 Q1397.2 83.5246 1397.43 83.1733 Q1397.72 82.8219 1398.54 82.8219 Q1399.95 82.8219 1399.95 83.9931 Z" fill="#808080" fill-rule="evenodd" fill-opacity="1" /><path clip-path="url(#clip550)" d="M 0 0 M1406.16 71.1693 Q1406.16 50.9089 1413.71 34.5717 Q1416.93 27.7206 1421.44 21.9821 Q1425.95 16.2436 1428.93 13.7257 Q1431.92 11.2078 1432.74 11.2078 Q1433.91 11.2078 1433.97 12.3789 Q1433.97 12.9645 1432.39 14.4284 Q1413.06 34.1033 1413.12 71.1693 Q1413.12 108.352 1431.92 127.266 Q1433.97 129.315 1433.97 129.96 Q1433.97 131.131 1432.74 131.131 Q1431.92 131.131 1429.05 128.73 Q1426.18 126.329 1421.73 120.825 Q1417.28 115.321 1414.06 108.587 Q1406.16 92.2495 1406.16 71.1693 Z" fill="#808080" fill-rule="evenodd" fill-opacity="1" /><path clip-path="url(#clip550)" d="M 0 0 M1511.92 56.0618 Q1511.92 59.3409 1509.87 61.2147 Q1507.82 63.03 1505.48 63.03 Q1503.26 63.03 1502.08 61.7417 Q1500.91 60.4535 1500.91 58.8139 Q1500.91 56.5888 1502.55 54.6564 Q1504.19 52.7241 1506.65 52.3142 Q1504.25 50.7917 1500.68 50.7917 Q1498.34 50.7917 1496.29 52.0214 Q1494.3 53.2511 1493.07 54.8321 Q1491.9 56.4131 1490.84 58.6968 Q1489.85 60.922 1489.44 62.2687 Q1489.08 63.557 1488.79 64.9623 L1484.69 81.358 Q1482.7 89.146 1482.7 91.8981 Q1482.7 95.2944 1484.34 97.5781 Q1485.98 99.8032 1489.26 99.8032 Q1490.55 99.8032 1492.01 99.4519 Q1493.48 99.042 1495.35 97.988 Q1497.28 96.8754 1498.98 95.2358 Q1500.74 93.5377 1502.44 90.6685 Q1504.13 87.7992 1505.25 84.1102 Q1505.6 82.8219 1506.77 82.8219 Q1508.23 82.8219 1508.23 83.9931 Q1508.23 84.9885 1507.41 87.0965 Q1506.65 89.146 1504.95 91.8396 Q1503.31 94.4746 1501.15 96.8754 Q1498.98 99.2176 1495.76 100.857 Q1492.54 102.497 1489.03 102.497 Q1483.99 102.497 1480.65 99.8032 Q1477.31 97.1096 1476.09 93.362 Q1475.79 93.889 1475.38 94.5917 Q1474.97 95.2944 1473.74 96.8754 Q1472.57 98.3979 1471.22 99.569 Q1469.88 100.682 1467.77 101.56 Q1465.72 102.497 1463.5 102.497 Q1460.68 102.497 1458.17 101.677 Q1455.71 100.857 1453.95 98.9834 Q1452.19 97.1096 1452.19 94.5332 Q1452.19 91.6639 1454.13 89.673 Q1456.12 87.6235 1458.81 87.6235 Q1460.51 87.6235 1461.86 88.619 Q1463.26 89.6144 1463.26 91.781 Q1463.26 94.1818 1461.62 95.9971 Q1459.98 97.8123 1457.64 98.2808 Q1460.04 99.8032 1463.61 99.8032 Q1467.48 99.8032 1470.52 96.407 Q1473.57 93.0107 1475.03 87.3308 Q1478.66 73.6872 1480.07 67.5973 Q1481.47 61.449 1481.47 58.8139 Q1481.47 56.3546 1480.83 54.6564 Q1480.18 52.9583 1479.07 52.1971 Q1478.02 51.3773 1477.02 51.0845 Q1476.09 50.7917 1475.03 50.7917 Q1473.27 50.7917 1471.28 51.4944 Q1469.35 52.1971 1467.01 53.8367 Q1464.73 55.4177 1462.56 58.6968 Q1460.39 61.976 1458.93 66.4848 Q1458.64 67.8316 1457.35 67.8316 Q1455.94 67.773 1455.94 66.6019 Q1455.94 65.6064 1456.7 63.557 Q1457.52 61.449 1459.16 58.8139 Q1460.86 56.1789 1463.03 53.8367 Q1465.25 51.4359 1468.47 49.7963 Q1471.75 48.1567 1475.27 48.1567 Q1476.85 48.1567 1478.37 48.5081 Q1479.95 48.8008 1481.82 49.6792 Q1483.76 50.5575 1485.45 52.4899 Q1487.15 54.4222 1488.21 57.2329 Q1488.91 55.8861 1489.85 54.5979 Q1490.84 53.3097 1492.36 51.7286 Q1493.94 50.0891 1496.11 49.1522 Q1498.34 48.1567 1500.8 48.1567 Q1503.2 48.1567 1505.54 48.8008 Q1507.88 49.3864 1509.87 51.3187 Q1511.92 53.1925 1511.92 56.0618 Z" fill="#808080" fill-rule="evenodd" fill-opacity="1" /><path clip-path="url(#clip550)" d="M 0 0 M1520.09 129.96 Q1520.09 129.374 1521.62 127.91 Q1540.94 108.235 1540.94 71.1693 Q1540.94 33.9861 1522.38 15.1896 Q1520.09 13.0231 1520.09 12.3789 Q1520.09 11.2078 1521.26 11.2078 Q1522.08 11.2078 1524.95 13.6086 Q1527.88 16.0094 1532.27 21.5137 Q1536.72 27.018 1540 33.7519 Q1547.91 50.0891 1547.91 71.1693 Q1547.91 91.4297 1540.35 107.767 Q1537.13 114.618 1532.62 120.356 Q1528.11 126.095 1525.13 128.613 Q1522.14 131.131 1521.26 131.131 Q1520.09 131.131 1520.09 129.96 Z" fill="#808080" fill-rule="evenodd" fill-opacity="1" /><path clip-path="url(#clip550)" d="M 0 0 M1648.9 53.5439 Q1645.21 53.5439 1643.34 53.8952 Q1641.47 54.188 1641 54.5979 Q1640.53 55.0078 1640 56.0618 L1614.24 110.87 Q1611.49 116.726 1606.33 120.942 Q1601.24 125.158 1594.8 125.158 Q1589.41 125.158 1585.66 121.879 Q1581.97 118.658 1581.97 114.091 Q1581.97 110.812 1584.02 108.938 Q1586.07 107.123 1588.82 107.123 Q1591.87 107.123 1593.8 109.055 Q1595.79 110.987 1595.79 113.974 Q1595.79 115.906 1594.97 117.37 Q1594.15 118.893 1593.39 119.42 Q1592.69 120.005 1591.93 120.356 Q1593.16 120.825 1594.8 120.825 Q1597.26 120.825 1599.36 119.829 Q1601.53 118.893 1602.94 117.604 Q1604.4 116.375 1605.86 114.149 Q1607.33 111.983 1608.03 110.578 Q1608.73 109.231 1609.79 106.888 L1612.54 101.15 L1590.11 53.5439 L1582.44 53.5439 L1582.44 47.9225 L1596.14 48.2738 L1611.02 47.9225 L1611.02 53.5439 L1604.52 53.5439 L1619.74 85.9254 L1633.56 56.4131 L1634.15 55.0078 Q1634.15 54.3637 1632.74 54.0123 Q1631.34 53.6024 1629.93 53.6024 L1628.53 53.5439 L1628.53 47.9225 L1639.42 48.2738 Q1644.57 48.2738 1648.9 47.9225 L1648.9 53.5439 Z" fill="#808080" fill-rule="evenodd" fill-opacity="1" /><path clip-path="url(#clip550)" d="M 0 0 M1716.09 87.2722 Q1716.56 87.7992 1716.56 88.3262 Q1716.56 88.8532 1715.39 90.3757 Q1714.27 91.8981 1711.87 93.9476 Q1709.47 95.9971 1706.37 97.9294 Q1703.27 99.8618 1698.7 101.15 Q1694.13 102.497 1689.33 102.497 Q1680.37 102.497 1675.1 96.5826 Q1669.89 90.6685 1669.89 82.1778 Q1669.89 73.9214 1674.51 66.0163 Q1679.14 58.0527 1686.64 53.134 Q1694.13 48.1567 1702.04 48.1567 Q1708.3 48.1567 1712.22 51.0845 Q1716.15 54.0123 1716.15 58.4626 Q1716.15 61.9174 1714.16 64.0254 Q1712.17 66.1334 1709.47 66.1334 Q1707.6 66.1334 1706.31 65.0794 Q1705.02 63.9669 1705.02 61.9174 Q1705.02 59.2824 1707.19 57.2329 Q1708.01 56.4131 1708.95 56.0618 Q1709.94 55.6519 1710.53 55.6519 Q1711.11 55.5933 1712.46 55.5933 Q1711.23 53.3097 1708.3 52.08 Q1705.43 50.7917 1702.15 50.7917 Q1697.29 50.7917 1692.67 54.188 Q1688.04 57.5257 1685.23 62.7957 Q1682.42 67.9487 1680.6 75.2682 Q1678.79 82.5292 1678.79 86.7452 Q1678.79 92.5423 1681.48 96.1727 Q1684.18 99.8032 1689.56 99.8032 Q1690.62 99.8032 1691.73 99.7447 Q1692.9 99.6861 1695.83 99.042 Q1698.82 98.3979 1701.45 97.2853 Q1704.09 96.1727 1707.42 93.7719 Q1710.82 91.3126 1713.51 87.9749 Q1714.45 86.7452 1715.09 86.7452 Q1715.62 86.7452 1716.09 87.2722 Z" fill="#808080" fill-rule="evenodd" fill-opacity="1" /><path clip-path="url(#clip550)" d="M 0 0 M1772.62 68.4171 Q1772.62 74.7997 1769.8 81.1238 Q1766.99 87.3893 1762.49 92.0738 Q1758.04 96.6997 1752.18 99.6275 Q1746.32 102.497 1740.47 102.497 Q1732.09 102.497 1726.65 96.8168 Q1721.26 91.0783 1721.26 82.1778 Q1721.26 73.8629 1725.89 65.9578 Q1730.57 57.9941 1738.07 53.0754 Q1745.56 48.1567 1753.41 48.1567 Q1761.67 48.1567 1767.11 53.7195 Q1772.62 59.2824 1772.62 68.4171 M1763.83 63.7326 Q1763.83 58.0527 1761.08 54.4222 Q1758.33 50.7917 1753.29 50.7917 Q1751.83 50.7917 1750.13 51.2602 Q1748.43 51.6701 1746.21 52.7827 Q1744.04 53.8952 1741.58 56.2375 Q1739.18 58.5212 1737.07 61.8003 Q1734.32 66.1334 1732.21 74.0971 Q1730.16 82.0022 1730.16 86.7452 Q1730.16 93.3035 1733.21 96.5826 Q1736.25 99.8032 1740.59 99.8032 Q1744.8 99.8032 1749.25 96.8754 Q1753.76 93.889 1756.86 88.7947 Q1759.97 83.5246 1761.9 75.7952 Q1763.83 68.0072 1763.83 63.7326 Z" fill="#808080" fill-rule="evenodd" fill-opacity="1" /><path clip-path="url(#clip550)" d="M 0 0 M1822.99 58.4626 Q1822.99 61.7417 1821.35 63.4984 Q1819.71 65.1965 1817.49 65.1965 Q1815.67 65.1965 1814.68 64.1425 Q1813.74 63.0885 1813.74 61.6832 Q1813.74 59.6337 1815.38 57.9941 Q1817.08 56.3546 1819.54 56.296 Q1818.72 54.1294 1816.55 52.8412 Q1814.38 51.4944 1812.45 51.1431 Q1810.58 50.7917 1808.7 50.7917 Q1805.01 50.7917 1802.2 51.9629 Q1799.39 53.134 1797.99 54.9492 Q1796.58 56.7059 1795.94 58.404 Q1795.29 60.1022 1795.29 61.5661 Q1795.29 62.8543 1795.59 63.9083 Q1795.94 64.9038 1796.76 65.665 Q1797.58 66.3677 1798.16 66.8361 Q1798.81 67.3046 1800.21 67.7145 Q1801.62 68.1244 1802.2 68.3 Q1802.79 68.4171 1804.43 68.7685 Q1807.82 69.4711 1809.35 69.881 Q1810.87 70.2324 1812.86 71.2278 Q1814.91 72.2233 1816.43 73.8043 Q1820.12 77.4933 1820.12 82.5877 Q1820.12 84.4615 1819.48 86.7452 Q1818.89 89.0289 1817.19 91.8981 Q1815.5 94.7674 1812.92 97.0511 Q1810.34 99.3348 1805.89 100.916 Q1801.5 102.497 1796 102.497 Q1788.33 102.497 1783.58 99.2762 Q1778.84 95.9971 1778.84 90.8441 Q1778.84 87.0965 1780.89 85.0471 Q1782.94 82.939 1785.57 82.939 Q1787.56 82.939 1788.79 84.0516 Q1790.02 85.1056 1790.02 87.0965 Q1790.02 89.7901 1787.86 91.8396 Q1785.69 93.889 1782.47 93.4791 Q1785.22 99.8032 1796.11 99.8032 Q1800.21 99.8032 1803.37 98.7492 Q1806.59 97.6366 1808.35 96.1142 Q1810.17 94.5332 1811.34 92.6008 Q1812.51 90.6685 1812.86 89.2046 Q1813.27 87.7407 1813.27 86.6281 Q1813.27 84.6957 1812.51 83.2318 Q1811.75 81.7679 1810.69 80.9481 Q1809.7 80.0698 1807.77 79.3671 Q1805.89 78.6059 1804.55 78.3131 Q1803.2 78.0203 1800.8 77.5519 Q1799.69 77.3177 1798.98 77.2006 Q1798.28 77.0249 1796.82 76.5564 Q1795.41 76.0294 1794.42 75.5024 Q1793.48 74.9754 1792.25 74.0385 Q1791.02 73.1016 1790.26 71.9891 Q1789.5 70.8765 1788.97 69.2369 Q1788.44 67.5973 1788.44 65.665 Q1788.44 63.9083 1788.97 61.8003 Q1789.56 59.6923 1791.02 57.2329 Q1792.54 54.7736 1794.71 52.7827 Q1796.87 50.7917 1800.51 49.5035 Q1804.19 48.1567 1808.7 48.1567 Q1815.26 48.1567 1819.13 51.2016 Q1822.99 54.188 1822.99 58.4626 Z" fill="#808080" fill-rule="evenodd" fill-opacity="1" /><path clip-path="url(#clip550)" d="M 0 0 M1834.5 71.1693 Q1834.5 50.9089 1842.06 34.5717 Q1845.28 27.7206 1849.79 21.9821 Q1854.3 16.2436 1857.28 13.7257 Q1860.27 11.2078 1861.09 11.2078 Q1862.26 11.2078 1862.32 12.3789 Q1862.32 12.9645 1860.74 14.4284 Q1841.41 34.1033 1841.47 71.1693 Q1841.47 108.352 1860.27 127.266 Q1862.32 129.315 1862.32 129.96 Q1862.32 131.131 1861.09 131.131 Q1860.27 131.131 1857.4 128.73 Q1854.53 126.329 1850.08 120.825 Q1845.63 115.321 1842.41 108.587 Q1834.5 92.2495 1834.5 71.1693 Z" fill="#808080" fill-rule="evenodd" fill-opacity="1" /><path clip-path="url(#clip550)" d="M 0 0 M1940.27 56.0618 Q1940.27 59.3409 1938.22 61.2147 Q1936.17 63.03 1933.83 63.03 Q1931.6 63.03 1930.43 61.7417 Q1929.26 60.4535 1929.26 58.8139 Q1929.26 56.5888 1930.9 54.6564 Q1932.54 52.7241 1935 52.3142 Q1932.6 50.7917 1929.03 50.7917 Q1926.68 50.7917 1924.63 52.0214 Q1922.64 53.2511 1921.41 54.8321 Q1920.24 56.4131 1919.19 58.6968 Q1918.19 60.922 1917.78 62.2687 Q1917.43 63.557 1917.14 64.9623 L1913.04 81.358 Q1911.05 89.146 1911.05 91.8981 Q1911.05 95.2944 1912.69 97.5781 Q1914.33 99.8032 1917.61 99.8032 Q1918.9 99.8032 1920.36 99.4519 Q1921.82 99.042 1923.7 97.988 Q1925.63 96.8754 1927.33 95.2358 Q1929.09 93.5377 1930.78 90.6685 Q1932.48 87.7992 1933.59 84.1102 Q1933.95 82.8219 1935.12 82.8219 Q1936.58 82.8219 1936.58 83.9931 Q1936.58 84.9885 1935.76 87.0965 Q1935 89.146 1933.3 91.8396 Q1931.66 94.4746 1929.5 96.8754 Q1927.33 99.2176 1924.11 100.857 Q1920.89 102.497 1917.37 102.497 Q1912.34 102.497 1909 99.8032 Q1905.66 97.1096 1904.43 93.362 Q1904.14 93.889 1903.73 94.5917 Q1903.32 95.2944 1902.09 96.8754 Q1900.92 98.3979 1899.57 99.569 Q1898.23 100.682 1896.12 101.56 Q1894.07 102.497 1891.84 102.497 Q1889.03 102.497 1886.51 101.677 Q1884.06 100.857 1882.3 98.9834 Q1880.54 97.1096 1880.54 94.5332 Q1880.54 91.6639 1882.47 89.673 Q1884.47 87.6235 1887.16 87.6235 Q1888.86 87.6235 1890.2 88.619 Q1891.61 89.6144 1891.61 91.781 Q1891.61 94.1818 1889.97 95.9971 Q1888.33 97.8123 1885.99 98.2808 Q1888.39 99.8032 1891.96 99.8032 Q1895.83 99.8032 1898.87 96.407 Q1901.92 93.0107 1903.38 87.3308 Q1907.01 73.6872 1908.41 67.5973 Q1909.82 61.449 1909.82 58.8139 Q1909.82 56.3546 1909.18 54.6564 Q1908.53 52.9583 1907.42 52.1971 Q1906.37 51.3773 1905.37 51.0845 Q1904.43 50.7917 1903.38 50.7917 Q1901.62 50.7917 1899.63 51.4944 Q1897.7 52.1971 1895.36 53.8367 Q1893.07 55.4177 1890.91 58.6968 Q1888.74 61.976 1887.28 66.4848 Q1886.98 67.8316 1885.7 67.8316 Q1884.29 67.773 1884.29 66.6019 Q1884.29 65.6064 1885.05 63.557 Q1885.87 61.449 1887.51 58.8139 Q1889.21 56.1789 1891.38 53.8367 Q1893.6 51.4359 1896.82 49.7963 Q1900.1 48.1567 1903.61 48.1567 Q1905.19 48.1567 1906.72 48.5081 Q1908.3 48.8008 1910.17 49.6792 Q1912.1 50.5575 1913.8 52.4899 Q1915.5 54.4222 1916.55 57.2329 Q1917.26 55.8861 1918.19 54.5979 Q1919.19 53.3097 1920.71 51.7286 Q1922.29 50.0891 1924.46 49.1522 Q1926.68 48.1567 1929.14 48.1567 Q1931.54 48.1567 1933.89 48.8008 Q1936.23 49.3864 1938.22 51.3187 Q1940.27 53.1925 1940.27 56.0618 Z" fill="#808080" fill-rule="evenodd" fill-opacity="1" /><path clip-path="url(#clip550)" d="M 0 0 M1948.44 129.96 Q1948.44 129.374 1949.96 127.91 Q1969.29 108.235 1969.29 71.1693 Q1969.29 33.9861 1950.72 15.1896 Q1948.44 13.0231 1948.44 12.3789 Q1948.44 11.2078 1949.61 11.2078 Q1950.43 11.2078 1953.3 13.6086 Q1956.23 16.0094 1960.62 21.5137 Q1965.07 27.018 1968.35 33.7519 Q1976.25 50.0891 1976.25 71.1693 Q1976.25 91.4297 1968.7 107.767 Q1965.48 114.618 1960.97 120.356 Q1956.46 126.095 1953.48 128.613 Q1950.49 131.131 1949.61 131.131 Q1948.44 131.131 1948.44 129.96 Z" fill="#808080" fill-rule="evenodd" fill-opacity="1" /><polyline clip-path="url(#clip553)" style="stroke:#e69f00; stroke-width:4; stroke-opacity:1; fill:none" points="
  241.157,814.39 257.557,751.093 273.958,688.429 290.359,627.023 306.76,567.49 323.16,510.423 339.561,456.393 355.962,405.941 372.363,359.569 388.764,317.742 
  405.164,280.878 421.565,249.344 437.966,223.455 454.367,203.472 470.767,189.592 487.168,181.955 503.569,180.637 519.97,185.651 536.37,196.948 552.771,214.414 
  569.172,237.874 585.573,267.095 601.974,301.784 618.374,341.595 634.775,386.131 651.176,434.945 667.577,487.55 683.977,543.421 700.378,602 716.779,662.7 
  733.18,724.916 749.58,788.027 765.981,851.4 782.382,914.404 798.783,976.409 815.184,1036.79 831.584,1094.96 847.985,1150.32 864.386,1202.32 880.787,1250.45 
  897.187,1294.22 913.588,1333.2 929.989,1366.99 946.39,1395.26 962.791,1417.73 979.191,1434.17 995.592,1444.41 1011.99,1448.36 1028.39,1445.98 1044.79,1437.29 
  1061.2,1422.37 1077.6,1401.38 1094,1374.52 1110.4,1342.07 1126.8,1304.34 1143.2,1261.72 1159.6,1214.63 1176,1163.54 1192.4,1108.96 1208.8,1051.44 
  1225.2,991.546 1241.6,929.885 1258,867.07 1274.41,803.729 1290.81,740.495 1307.21,677.999 1323.61,616.865 1340.01,557.706 1356.41,501.11 1372.81,447.646 
  1389.21,397.845 1405.61,352.207 1422.01,311.186 1438.41,275.193 1454.81,244.588 1471.21,219.676 1487.62,200.706 1504.02,187.868 1520.42,181.29 1536.82,181.038 
  1553.22,187.114 1569.62,199.457 1586.02,217.945 1602.42,242.392 1618.82,272.554 1635.22,308.13 1651.62,348.765 1668.02,394.052 1684.42,443.539 1700.83,496.731 
  1717.23,553.097 1733.63,612.074 1750.03,673.072 1766.43,735.483 1782.83,798.682 1799.23,862.037 1815.63,924.917 1832.03,986.692 1848.43,1046.75 1864.83,1104.48 
  1881.23,1159.31 1897.63,1210.7 1914.04,1258.13 1930.44,1301.12 1946.84,1339.25 1963.24,1372.14 1979.64,1399.45 1996.04,1420.92 2012.44,1436.33 2028.84,1445.52 
  2045.24,1448.41 2061.64,1444.96 2078.04,1435.21 2094.44,1419.26 2110.84,1397.27 2127.25,1369.45 2143.65,1336.08 2160.05,1297.5 2176.45,1254.1 2192.85,1206.3 
  2209.25,1154.59 2225.65,1099.48 2242.05,1041.52 2258.45,981.285 2274.85,919.387 2291.25,856.439 
  "/>
<polyline clip-path="url(#clip553)" style="stroke:#56b4e9; stroke-width:4; stroke-opacity:1; fill:none" points="
  241.157,180.367 257.557,183.534 273.958,193.005 290.359,208.684 306.76,230.416 323.16,257.982 339.561,291.108 355.962,329.462 372.363,372.662 388.764,420.275 
  405.164,471.826 421.565,526.799 437.966,584.647 454.367,644.789 470.767,706.627 487.168,769.541 503.569,832.903 519.97,896.08 536.37,958.441 552.771,1019.36 
  569.172,1078.24 585.573,1134.47 601.974,1187.51 618.374,1236.82 634.775,1281.91 651.176,1322.33 667.577,1357.68 683.977,1387.59 700.378,1411.78 716.779,1430 
  733.18,1442.07 749.58,1447.86 765.981,1447.33 782.382,1440.47 798.783,1427.36 815.184,1408.12 831.584,1382.96 847.985,1352.1 864.386,1315.88 880.787,1274.65 
  897.187,1228.81 913.588,1178.84 929.989,1125.23 946.39,1068.51 962.791,1009.25 979.191,948.039 995.592,885.497 1011.99,822.244 1028.39,758.913 1044.79,696.137 
  1061.2,634.541 1077.6,574.743 1094,517.339 1110.4,462.904 1126.8,411.98 1143.2,365.077 1159.6,322.663 1176,285.163 1192.4,252.95 1208.8,226.347 
  1225.2,205.62 1241.6,190.975 1258,182.559 1274.41,180.456 1290.81,184.688 1307.21,195.211 1323.61,211.92 1340.01,234.65 1356.41,263.172 1372.81,297.201 
  1389.21,336.398 1405.61,380.371 1422.01,428.681 1438.41,480.844 1454.81,536.341 1471.21,594.615 1487.62,655.085 1504.02,717.147 1520.42,780.181 1536.82,843.556 
  1553.22,906.64 1569.62,968.802 1586.02,1029.42 1602.42,1087.89 1618.82,1143.63 1635.22,1196.08 1651.62,1244.71 1668.02,1289.05 1684.42,1328.64 1700.83,1363.1 
  1717.23,1392.07 1733.63,1415.27 1750.03,1432.46 1766.43,1443.48 1782.83,1448.22 1799.23,1446.62 1815.63,1438.7 1832.03,1424.55 1848.43,1404.3 1864.83,1378.16 
  1881.23,1346.38 1897.63,1309.29 1914.04,1267.25 1930.44,1220.69 1946.84,1170.07 1963.24,1115.89 1979.64,1058.7 1996.04,999.074 2012.44,937.599 2028.84,874.894 
  2045.24,811.584 2061.64,748.302 2078.04,685.68 2094.44,624.344 2110.84,564.907 2127.25,507.963 2143.65,454.081 2160.05,403.799 2176.45,357.619 2192.85,316.003 
  2209.25,279.367 2225.65,248.076 2242.05,222.444 2258.45,202.727 2274.85,189.121 2291.25,181.763 
  "/>
<path clip-path="url(#clip550)" d="
M1658.14 413.93 L2280.32 413.93 L2280.32 187.13 L1658.14 187.13  Z
  " fill="#ffffff" fill-rule="evenodd" fill-opacity="1"/>
<polyline clip-path="url(#clip550)" style="stroke:#000000; stroke-width:4; stroke-opacity:1; fill:none" points="
  1658.14,413.93 2280.32,413.93 2280.32,187.13 1658.14,187.13 1658.14,413.93 
  "/>
<polyline clip-path="url(#clip550)" style="stroke:#e69f00; stroke-width:5; stroke-opacity:1; fill:none" points="
  1682.29,262.73 1827.16,262.73 
  "/>
<path clip-path="url(#clip550)" d="M 0 0 M1881.2 232.406 Q1881.2 234.016 1880.18 235.012 Q1879.18 236.007 1877.92 236.007 Q1877.01 236.007 1876.34 235.451 Q1875.7 234.895 1875.7 233.928 Q1875.7 232.933 1876.46 231.879 Q1877.22 230.825 1878.95 230.679 Q1877.8 229.595 1875.99 229.595 Q1875.08 229.595 1874.32 230.181 Q1873.59 230.737 1873.18 231.645 Q1872.74 232.582 1871.74 237.881 Q1871.42 239.608 1871.13 241.277 Q1870.84 242.946 1870.48 244.703 L1875.46 244.703 Q1876.11 244.703 1876.37 244.732 Q1876.63 244.761 1876.84 244.908 Q1877.07 245.054 1877.07 245.376 Q1877.07 246.196 1876.69 246.401 Q1876.34 246.577 1875.29 246.577 L1870.13 246.577 L1866.53 265.578 Q1866.44 266.134 1866.06 267.891 Q1865.71 269.618 1864.86 272.458 Q1864.01 275.328 1863.17 277.026 Q1862.7 277.992 1862.08 278.9 Q1861.5 279.836 1860.65 280.773 Q1859.8 281.71 1858.69 282.267 Q1857.57 282.852 1856.4 282.852 Q1854.41 282.852 1852.86 281.74 Q1851.31 280.627 1851.31 278.724 Q1851.31 277.114 1852.3 276.118 Q1853.33 275.123 1854.59 275.123 Q1855.49 275.123 1856.14 275.679 Q1856.81 276.235 1856.81 277.201 Q1856.81 277.611 1856.67 278.08 Q1856.52 278.548 1856.2 279.075 Q1855.87 279.632 1855.17 280.012 Q1854.47 280.393 1853.5 280.451 Q1854.65 281.535 1856.4 281.535 Q1856.96 281.535 1857.46 281.3 Q1857.95 281.095 1858.36 280.568 Q1858.8 280.041 1859.12 279.514 Q1859.45 279.017 1859.77 278.051 Q1860.09 277.114 1860.3 276.411 Q1860.5 275.708 1860.76 274.449 Q1861.06 273.19 1861.2 272.429 Q1861.35 271.697 1861.61 270.263 L1866.09 246.577 L1862.14 246.577 Q1861.44 246.577 1861.14 246.547 Q1860.88 246.518 1860.68 246.372 Q1860.47 246.196 1860.47 245.845 Q1860.47 245.288 1860.71 245.054 Q1860.97 244.791 1861.26 244.761 Q1861.55 244.703 1862.26 244.703 L1866.41 244.703 Q1867.82 237.295 1868.38 235.305 Q1869.02 233.197 1870.02 231.733 Q1871.01 230.239 1872.12 229.537 Q1873.24 228.834 1874.14 228.571 Q1875.08 228.278 1875.99 228.278 Q1878.04 228.278 1879.62 229.39 Q1881.2 230.474 1881.2 232.406 Z" fill="#808080" fill-rule="evenodd" fill-opacity="1" /><path clip-path="url(#clip550)" d="M 0 0 M1887.3 275.196 L1887.3 273.884 Q1892.34 273.884 1894.95 271.199 Q1895.66 271.199 1895.79 271.363 Q1895.91 271.527 1895.91 272.285 L1895.91 295.834 Q1895.91 297.084 1896.52 297.473 Q1897.14 297.863 1899.82 297.863 L1901.16 297.863 L1901.16 299.154 Q1899.68 299.031 1894.35 299.031 Q1889.02 299.031 1887.57 299.154 L1887.57 297.863 L1888.9 297.863 Q1891.54 297.863 1892.18 297.494 Q1892.81 297.104 1892.81 295.834 L1892.81 274.089 Q1890.62 275.196 1887.3 275.196 Z" fill="#808080" fill-rule="evenodd" fill-opacity="1" /><path clip-path="url(#clip550)" d="M 0 0 M1907.42 255.565 Q1907.42 245.435 1911.19 237.266 Q1912.8 233.841 1915.06 230.971 Q1917.31 228.102 1918.81 226.843 Q1920.3 225.584 1920.71 225.584 Q1921.29 225.584 1921.32 226.17 Q1921.32 226.463 1920.53 227.195 Q1910.87 237.032 1910.9 255.565 Q1910.9 274.157 1920.3 283.613 Q1921.32 284.638 1921.32 284.96 Q1921.32 285.546 1920.71 285.546 Q1920.3 285.546 1918.86 284.345 Q1917.43 283.145 1915.2 280.393 Q1912.98 277.641 1911.37 274.274 Q1907.42 266.105 1907.42 255.565 Z" fill="#808080" fill-rule="evenodd" fill-opacity="1" /><path clip-path="url(#clip550)" d="M 0 0 M1960.3 248.011 Q1960.3 249.651 1959.28 250.588 Q1958.25 251.495 1957.08 251.495 Q1955.97 251.495 1955.38 250.851 Q1954.8 250.207 1954.8 249.387 Q1954.8 248.275 1955.62 247.309 Q1956.44 246.342 1957.66 246.137 Q1956.46 245.376 1954.68 245.376 Q1953.51 245.376 1952.48 245.991 Q1951.49 246.606 1950.87 247.396 Q1950.29 248.187 1949.76 249.329 Q1949.26 250.441 1949.06 251.115 Q1948.88 251.759 1948.74 252.461 L1946.69 260.659 Q1945.69 264.553 1945.69 265.929 Q1945.69 267.628 1946.51 268.769 Q1947.33 269.882 1948.97 269.882 Q1949.61 269.882 1950.35 269.706 Q1951.08 269.501 1952.01 268.974 Q1952.98 268.418 1953.83 267.598 Q1954.71 266.749 1955.56 265.315 Q1956.41 263.88 1956.96 262.035 Q1957.14 261.391 1957.72 261.391 Q1958.46 261.391 1958.46 261.977 Q1958.46 262.475 1958.05 263.529 Q1957.66 264.553 1956.82 265.9 Q1956 267.218 1954.91 268.418 Q1953.83 269.589 1952.22 270.409 Q1950.61 271.229 1948.85 271.229 Q1946.33 271.229 1944.67 269.882 Q1943 268.535 1942.38 266.661 Q1942.24 266.925 1942.03 267.276 Q1941.83 267.628 1941.21 268.418 Q1940.62 269.179 1939.95 269.765 Q1939.28 270.321 1938.22 270.76 Q1937.2 271.229 1936.09 271.229 Q1934.68 271.229 1933.42 270.819 Q1932.19 270.409 1931.31 269.472 Q1930.44 268.535 1930.44 267.247 Q1930.44 265.812 1931.4 264.817 Q1932.4 263.792 1933.74 263.792 Q1934.59 263.792 1935.27 264.29 Q1935.97 264.788 1935.97 265.871 Q1935.97 267.071 1935.15 267.979 Q1934.33 268.886 1933.16 269.121 Q1934.36 269.882 1936.15 269.882 Q1938.08 269.882 1939.6 268.184 Q1941.12 266.486 1941.85 263.646 Q1943.67 256.824 1944.37 253.779 Q1945.08 250.705 1945.08 249.387 Q1945.08 248.158 1944.75 247.309 Q1944.43 246.459 1943.87 246.079 Q1943.35 245.669 1942.85 245.523 Q1942.38 245.376 1941.85 245.376 Q1940.98 245.376 1939.98 245.728 Q1939.01 246.079 1937.84 246.899 Q1936.7 247.689 1935.62 249.329 Q1934.54 250.968 1933.8 253.223 Q1933.66 253.896 1933.01 253.896 Q1932.31 253.867 1932.31 253.281 Q1932.31 252.784 1932.69 251.759 Q1933.1 250.705 1933.92 249.387 Q1934.77 248.07 1935.85 246.899 Q1936.97 245.698 1938.58 244.878 Q1940.22 244.059 1941.97 244.059 Q1942.76 244.059 1943.52 244.234 Q1944.31 244.381 1945.25 244.82 Q1946.22 245.259 1947.07 246.225 Q1947.92 247.191 1948.44 248.597 Q1948.79 247.923 1949.26 247.279 Q1949.76 246.635 1950.52 245.845 Q1951.31 245.025 1952.39 244.556 Q1953.51 244.059 1954.74 244.059 Q1955.94 244.059 1957.11 244.381 Q1958.28 244.674 1959.28 245.64 Q1960.3 246.577 1960.3 248.011 Z" fill="#808080" fill-rule="evenodd" fill-opacity="1" /><path clip-path="url(#clip550)" d="M 0 0 M1964.39 284.96 Q1964.39 284.667 1965.15 283.935 Q1974.81 274.098 1974.81 255.565 Q1974.81 236.973 1965.53 227.575 Q1964.39 226.492 1964.39 226.17 Q1964.39 225.584 1964.97 225.584 Q1965.38 225.584 1966.82 226.785 Q1968.28 227.985 1970.48 230.737 Q1972.7 233.489 1974.34 236.856 Q1978.29 245.025 1978.29 255.565 Q1978.29 265.695 1974.52 273.864 Q1972.91 277.289 1970.65 280.159 Q1968.4 283.028 1966.9 284.287 Q1965.41 285.546 1964.97 285.546 Q1964.39 285.546 1964.39 284.96 Z" fill="#808080" fill-rule="evenodd" fill-opacity="1" /><path clip-path="url(#clip550)" d="M 0 0 M2004.04 261.45 Q2004.1 260.718 2005.24 260.718 L2041.98 260.718 Q2043.71 260.718 2043.74 261.391 Q2043.74 262.123 2042.1 262.094 L2005.65 262.094 Q2004.04 262.123 2004.04 261.45 M2004.04 249.739 Q2004.04 249.007 2005.3 249.036 L2041.92 249.036 Q2043.71 249.036 2043.74 249.739 Q2043.74 250.412 2042.22 250.412 L2005.24 250.412 Q2004.04 250.412 2004.04 249.739 Z" fill="#808080" fill-rule="evenodd" fill-opacity="1" /><path clip-path="url(#clip550)" d="M 0 0 M2088.93 249.212 Q2088.93 250.851 2088.11 251.73 Q2087.29 252.579 2086.18 252.579 Q2085.27 252.579 2084.77 252.052 Q2084.31 251.525 2084.31 250.822 Q2084.31 249.797 2085.13 248.977 Q2085.97 248.158 2087.2 248.128 Q2086.79 247.045 2085.71 246.401 Q2084.63 245.728 2083.66 245.552 Q2082.72 245.376 2081.79 245.376 Q2079.94 245.376 2078.54 245.962 Q2077.13 246.547 2076.43 247.455 Q2075.73 248.333 2075.41 249.182 Q2075.08 250.031 2075.08 250.763 Q2075.08 251.407 2075.23 251.934 Q2075.41 252.432 2075.81 252.813 Q2076.22 253.164 2076.52 253.398 Q2076.84 253.633 2077.54 253.838 Q2078.25 254.042 2078.54 254.13 Q2078.83 254.189 2079.65 254.365 Q2081.35 254.716 2082.11 254.921 Q2082.87 255.097 2083.87 255.594 Q2084.89 256.092 2085.65 256.882 Q2087.5 258.727 2087.5 261.274 Q2087.5 262.211 2087.17 263.353 Q2086.88 264.495 2086.03 265.929 Q2085.18 267.364 2083.9 268.506 Q2082.61 269.648 2080.38 270.438 Q2078.19 271.229 2075.43 271.229 Q2071.6 271.229 2069.23 269.618 Q2066.86 267.979 2066.86 265.402 Q2066.86 263.529 2067.88 262.504 Q2068.91 261.45 2070.22 261.45 Q2071.22 261.45 2071.83 262.006 Q2072.45 262.533 2072.45 263.529 Q2072.45 264.875 2071.36 265.9 Q2070.28 266.925 2068.67 266.72 Q2070.05 269.882 2075.49 269.882 Q2077.54 269.882 2079.12 269.355 Q2080.73 268.799 2081.61 268.037 Q2082.52 267.247 2083.11 266.281 Q2083.69 265.315 2083.87 264.583 Q2084.07 263.851 2084.07 263.294 Q2084.07 262.328 2083.69 261.596 Q2083.31 260.864 2082.78 260.454 Q2082.29 260.015 2081.32 259.664 Q2080.38 259.283 2079.71 259.137 Q2079.04 258.99 2077.84 258.756 Q2077.28 258.639 2076.93 258.581 Q2076.58 258.493 2075.84 258.259 Q2075.14 257.995 2074.64 257.732 Q2074.18 257.468 2073.56 257 Q2072.95 256.531 2072.57 255.975 Q2072.18 255.419 2071.92 254.599 Q2071.66 253.779 2071.66 252.813 Q2071.66 251.934 2071.92 250.88 Q2072.21 249.826 2072.95 248.597 Q2073.71 247.367 2074.79 246.372 Q2075.87 245.376 2077.69 244.732 Q2079.53 244.059 2081.79 244.059 Q2085.07 244.059 2087 245.581 Q2088.93 247.074 2088.93 249.212 Z" fill="#808080" fill-rule="evenodd" fill-opacity="1" /><path clip-path="url(#clip550)" d="M 0 0 M2110 233.079 Q2110 234.368 2108.95 235.334 Q2107.92 236.271 2106.81 236.271 Q2105.78 236.271 2105.14 235.656 Q2104.53 235.012 2104.53 234.104 Q2104.53 232.904 2105.55 231.908 Q2106.57 230.913 2107.78 230.913 Q2108.77 230.913 2109.39 231.528 Q2110 232.143 2110 233.079 M2110.53 261.977 Q2110.53 262.211 2110.26 263.148 Q2110 264.056 2109.36 265.461 Q2108.74 266.837 2107.89 268.125 Q2107.04 269.413 2105.64 270.321 Q2104.26 271.229 2102.68 271.229 Q2100.54 271.229 2099.14 269.823 Q2097.76 268.418 2097.76 266.31 Q2097.76 265.168 2099.14 261.508 Q2103.12 250.851 2103.27 250.412 Q2103.94 248.743 2103.94 247.279 Q2103.94 246.606 2103.79 246.196 Q2103.65 245.757 2103.35 245.61 Q2103.06 245.435 2102.89 245.405 Q2102.74 245.376 2102.45 245.376 Q2100.72 245.376 2099.11 247.133 Q2097.5 248.89 2096.39 252.813 Q2096.15 253.545 2096.01 253.72 Q2095.86 253.896 2095.42 253.896 Q2094.69 253.867 2094.69 253.281 Q2094.69 253.106 2094.89 252.432 Q2095.1 251.73 2095.48 250.676 Q2095.86 249.592 2096.53 248.48 Q2097.21 247.338 2098.03 246.342 Q2098.87 245.347 2100.08 244.703 Q2101.28 244.059 2102.62 244.059 Q2104.82 244.059 2106.16 245.493 Q2107.54 246.899 2107.54 248.977 Q2107.54 250.119 2106.75 252.139 Q2105.78 254.774 2105.43 255.624 L2103.09 261.918 Q2102.24 264.202 2101.98 264.905 Q2101.74 265.578 2101.54 266.398 Q2101.36 267.188 2101.36 267.92 Q2101.36 268.945 2101.69 269.413 Q2102.04 269.882 2102.8 269.882 Q2104.91 269.882 2106.46 267.803 Q2108.01 265.695 2108.92 262.475 Q2108.95 262.387 2108.98 262.24 Q2109.21 261.508 2109.44 261.421 Q2109.56 261.391 2109.8 261.391 Q2110.53 261.391 2110.53 261.977 Z" fill="#808080" fill-rule="evenodd" fill-opacity="1" /><path clip-path="url(#clip550)" d="M 0 0 M2147.65 261.977 Q2147.65 262.211 2147.39 263.119 Q2147.13 264.026 2146.48 265.432 Q2145.87 266.837 2145.02 268.125 Q2144.17 269.384 2142.77 270.321 Q2141.39 271.229 2139.81 271.229 Q2137.7 271.229 2136.29 269.823 Q2134.89 268.418 2134.89 266.31 Q2134.89 265.139 2135.5 263.529 Q2139.4 253.135 2139.4 249.563 Q2139.4 245.376 2136.15 245.376 Q2134.54 245.376 2133.02 245.991 Q2131.52 246.577 2130.5 247.396 Q2129.47 248.216 2128.54 249.358 Q2127.63 250.471 2127.16 251.232 Q2126.72 251.964 2126.37 252.696 L2125.61 255.682 Q2125.43 256.502 2124.58 259.693 L2123.27 265.11 Q2122.33 269.15 2122.12 269.531 Q2121.83 270.35 2121.19 270.79 Q2120.54 271.229 2119.9 271.229 Q2119.17 271.229 2118.67 270.79 Q2118.17 270.35 2118.17 269.589 Q2118.17 269.472 2118.26 269.033 Q2118.35 268.594 2118.49 267.979 Q2118.64 267.364 2118.7 267.013 L2122.18 253.164 Q2122.83 250.646 2122.97 249.856 Q2123.15 249.036 2123.15 248.128 Q2123.15 245.376 2121.28 245.376 Q2119.75 245.376 2118.76 247.191 Q2117.76 249.007 2116.91 252.52 Q2116.65 253.486 2116.47 253.691 Q2116.33 253.896 2115.89 253.896 Q2115.16 253.867 2115.16 253.281 Q2115.16 253.135 2115.39 252.169 Q2115.62 251.203 2116.06 249.826 Q2116.53 248.421 2116.97 247.484 Q2117.35 246.782 2117.56 246.459 Q2117.79 246.108 2118.35 245.435 Q2118.93 244.732 2119.69 244.41 Q2120.48 244.059 2121.45 244.059 Q2123.62 244.059 2125.2 245.464 Q2126.78 246.84 2126.98 249.27 Q2130.88 244.059 2136.32 244.059 Q2139.54 244.059 2141.39 245.757 Q2143.23 247.455 2143.23 250.471 Q2143.23 251.173 2143.09 252.081 Q2142.97 252.959 2142.68 254.072 Q2142.41 255.184 2142.18 256.033 Q2141.95 256.882 2141.48 258.259 Q2141.01 259.605 2140.8 260.191 Q2140.6 260.776 2140.1 262.153 Q2139.63 263.499 2139.57 263.646 Q2138.49 266.369 2138.49 267.92 Q2138.49 268.945 2138.81 269.413 Q2139.16 269.882 2139.93 269.882 Q2141.97 269.882 2143.5 267.862 Q2145.05 265.812 2146.04 262.475 Q2146.28 261.743 2146.4 261.567 Q2146.54 261.391 2146.95 261.391 Q2147.65 261.391 2147.65 261.977 Z" fill="#808080" fill-rule="evenodd" fill-opacity="1" /><path clip-path="url(#clip550)" d="M 0 0 M2150.76 255.565 Q2150.76 245.435 2154.53 237.266 Q2156.15 233.841 2158.4 230.971 Q2160.65 228.102 2162.15 226.843 Q2163.64 225.584 2164.05 225.584 Q2164.64 225.584 2164.66 226.17 Q2164.66 226.463 2163.87 227.195 Q2154.21 237.032 2154.24 255.565 Q2154.24 274.157 2163.64 283.613 Q2164.66 284.638 2164.66 284.96 Q2164.66 285.546 2164.05 285.546 Q2163.64 285.546 2162.21 284.345 Q2160.77 283.145 2158.55 280.393 Q2156.32 277.641 2154.71 274.274 Q2150.76 266.105 2150.76 255.565 Z" fill="#808080" fill-rule="evenodd" fill-opacity="1" /><path clip-path="url(#clip550)" d="M 0 0 M2203.64 248.011 Q2203.64 249.651 2202.62 250.588 Q2201.59 251.495 2200.42 251.495 Q2199.31 251.495 2198.72 250.851 Q2198.14 250.207 2198.14 249.387 Q2198.14 248.275 2198.96 247.309 Q2199.78 246.342 2201.01 246.137 Q2199.81 245.376 2198.02 245.376 Q2196.85 245.376 2195.82 245.991 Q2194.83 246.606 2194.21 247.396 Q2193.63 248.187 2193.1 249.329 Q2192.6 250.441 2192.4 251.115 Q2192.22 251.759 2192.08 252.461 L2190.03 260.659 Q2189.03 264.553 2189.03 265.929 Q2189.03 267.628 2189.85 268.769 Q2190.67 269.882 2192.31 269.882 Q2192.95 269.882 2193.69 269.706 Q2194.42 269.501 2195.36 268.974 Q2196.32 268.418 2197.17 267.598 Q2198.05 266.749 2198.9 265.315 Q2199.75 263.88 2200.3 262.035 Q2200.48 261.391 2201.06 261.391 Q2201.8 261.391 2201.8 261.977 Q2201.8 262.475 2201.39 263.529 Q2201.01 264.553 2200.16 265.9 Q2199.34 267.218 2198.25 268.418 Q2197.17 269.589 2195.56 270.409 Q2193.95 271.229 2192.19 271.229 Q2189.68 271.229 2188.01 269.882 Q2186.34 268.535 2185.72 266.661 Q2185.58 266.925 2185.37 267.276 Q2185.17 267.628 2184.55 268.418 Q2183.97 269.179 2183.29 269.765 Q2182.62 270.321 2181.57 270.76 Q2180.54 271.229 2179.43 271.229 Q2178.02 271.229 2176.76 270.819 Q2175.53 270.409 2174.66 269.472 Q2173.78 268.535 2173.78 267.247 Q2173.78 265.812 2174.74 264.817 Q2175.74 263.792 2177.09 263.792 Q2177.93 263.792 2178.61 264.29 Q2179.31 264.788 2179.31 265.871 Q2179.31 267.071 2178.49 267.979 Q2177.67 268.886 2176.5 269.121 Q2177.7 269.882 2179.49 269.882 Q2181.42 269.882 2182.94 268.184 Q2184.46 266.486 2185.2 263.646 Q2187.01 256.824 2187.71 253.779 Q2188.42 250.705 2188.42 249.387 Q2188.42 248.158 2188.09 247.309 Q2187.77 246.459 2187.22 246.079 Q2186.69 245.669 2186.19 245.523 Q2185.72 245.376 2185.2 245.376 Q2184.32 245.376 2183.32 245.728 Q2182.36 246.079 2181.18 246.899 Q2180.04 247.689 2178.96 249.329 Q2177.88 250.968 2177.14 253.223 Q2177 253.896 2176.35 253.896 Q2175.65 253.867 2175.65 253.281 Q2175.65 252.784 2176.03 251.759 Q2176.44 250.705 2177.26 249.387 Q2178.11 248.07 2179.19 246.899 Q2180.31 245.698 2181.92 244.878 Q2183.56 244.059 2185.31 244.059 Q2186.1 244.059 2186.86 244.234 Q2187.66 244.381 2188.59 244.82 Q2189.56 245.259 2190.41 246.225 Q2191.26 247.191 2191.78 248.597 Q2192.13 247.923 2192.6 247.279 Q2193.1 246.635 2193.86 245.845 Q2194.65 245.025 2195.74 244.556 Q2196.85 244.059 2198.08 244.059 Q2199.28 244.059 2200.45 244.381 Q2201.62 244.674 2202.62 245.64 Q2203.64 246.577 2203.64 248.011 Z" fill="#808080" fill-rule="evenodd" fill-opacity="1" /><path clip-path="url(#clip550)" d="M 0 0 M2207.73 284.96 Q2207.73 284.667 2208.49 283.935 Q2218.15 274.098 2218.15 255.565 Q2218.15 236.973 2208.87 227.575 Q2207.73 226.492 2207.73 226.17 Q2207.73 225.584 2208.31 225.584 Q2208.72 225.584 2210.16 226.785 Q2211.62 227.985 2213.82 230.737 Q2216.04 233.489 2217.68 236.856 Q2221.63 245.025 2221.63 255.565 Q2221.63 265.695 2217.86 273.864 Q2216.25 277.289 2213.99 280.159 Q2211.74 283.028 2210.24 284.287 Q2208.75 285.546 2208.31 285.546 Q2207.73 285.546 2207.73 284.96 Z" fill="#808080" fill-rule="evenodd" fill-opacity="1" /><polyline clip-path="url(#clip550)" style="stroke:#56b4e9; stroke-width:5; stroke-opacity:1; fill:none" points="
  1682.29,338.33 1827.16,338.33 
  "/>
<path clip-path="url(#clip550)" d="M 0 0 M1881.2 308.006 Q1881.2 309.616 1880.18 310.612 Q1879.18 311.607 1877.92 311.607 Q1877.01 311.607 1876.34 311.051 Q1875.7 310.495 1875.7 309.528 Q1875.7 308.533 1876.46 307.479 Q1877.22 306.425 1878.95 306.279 Q1877.8 305.195 1875.99 305.195 Q1875.08 305.195 1874.32 305.781 Q1873.59 306.337 1873.18 307.245 Q1872.74 308.182 1871.74 313.481 Q1871.42 315.208 1871.13 316.877 Q1870.84 318.546 1870.48 320.303 L1875.46 320.303 Q1876.11 320.303 1876.37 320.332 Q1876.63 320.361 1876.84 320.508 Q1877.07 320.654 1877.07 320.976 Q1877.07 321.796 1876.69 322.001 Q1876.34 322.177 1875.29 322.177 L1870.13 322.177 L1866.53 341.178 Q1866.44 341.734 1866.06 343.491 Q1865.71 345.218 1864.86 348.058 Q1864.01 350.928 1863.17 352.626 Q1862.7 353.592 1862.08 354.5 Q1861.5 355.436 1860.65 356.373 Q1859.8 357.31 1858.69 357.867 Q1857.57 358.452 1856.4 358.452 Q1854.41 358.452 1852.86 357.34 Q1851.31 356.227 1851.31 354.324 Q1851.31 352.714 1852.3 351.718 Q1853.33 350.723 1854.59 350.723 Q1855.49 350.723 1856.14 351.279 Q1856.81 351.835 1856.81 352.801 Q1856.81 353.211 1856.67 353.68 Q1856.52 354.148 1856.2 354.675 Q1855.87 355.232 1855.17 355.612 Q1854.47 355.993 1853.5 356.051 Q1854.65 357.135 1856.4 357.135 Q1856.96 357.135 1857.46 356.9 Q1857.95 356.695 1858.36 356.168 Q1858.8 355.641 1859.12 355.114 Q1859.45 354.617 1859.77 353.651 Q1860.09 352.714 1860.3 352.011 Q1860.5 351.308 1860.76 350.049 Q1861.06 348.79 1861.2 348.029 Q1861.35 347.297 1861.61 345.863 L1866.09 322.177 L1862.14 322.177 Q1861.44 322.177 1861.14 322.147 Q1860.88 322.118 1860.68 321.972 Q1860.47 321.796 1860.47 321.445 Q1860.47 320.888 1860.71 320.654 Q1860.97 320.391 1861.26 320.361 Q1861.55 320.303 1862.26 320.303 L1866.41 320.303 Q1867.82 312.895 1868.38 310.905 Q1869.02 308.797 1870.02 307.333 Q1871.01 305.839 1872.12 305.137 Q1873.24 304.434 1874.14 304.171 Q1875.08 303.878 1875.99 303.878 Q1878.04 303.878 1879.62 304.99 Q1881.2 306.074 1881.2 308.006 Z" fill="#808080" fill-rule="evenodd" fill-opacity="1" /><path clip-path="url(#clip550)" d="M 0 0 M1887.3 374.754 Q1887.3 373.995 1887.36 373.77 Q1887.44 373.545 1887.77 373.196 L1895.83 364.22 Q1900.23 359.26 1900.23 354.935 Q1900.23 352.128 1898.76 350.119 Q1897.3 348.111 1894.62 348.111 Q1892.77 348.111 1891.22 349.238 Q1889.66 350.365 1888.94 352.374 Q1889.06 352.333 1889.49 352.333 Q1890.54 352.333 1891.11 352.988 Q1891.71 353.644 1891.71 354.526 Q1891.71 355.653 1890.97 356.206 Q1890.25 356.739 1889.54 356.739 Q1889.25 356.739 1888.86 356.677 Q1888.49 356.616 1887.9 356.042 Q1887.3 355.448 1887.3 354.403 Q1887.3 351.472 1889.51 349.135 Q1891.75 346.799 1895.15 346.799 Q1899 346.799 1901.52 349.094 Q1904.07 351.369 1904.07 354.935 Q1904.07 356.186 1903.68 357.333 Q1903.31 358.461 1902.8 359.342 Q1902.3 360.223 1900.95 361.637 Q1899.6 363.051 1898.51 364.056 Q1897.43 365.06 1894.99 367.191 L1890.54 371.516 L1898.1 371.516 Q1901.79 371.516 1902.08 371.188 Q1902.49 370.593 1903 367.458 L1904.07 367.458 L1902.88 374.754 L1887.3 374.754 Z" fill="#808080" fill-rule="evenodd" fill-opacity="1" /><path clip-path="url(#clip550)" d="M 0 0 M1910.29 331.165 Q1910.29 321.035 1914.07 312.866 Q1915.68 309.441 1917.93 306.571 Q1920.19 303.702 1921.68 302.443 Q1923.18 301.184 1923.59 301.184 Q1924.17 301.184 1924.2 301.77 Q1924.2 302.063 1923.41 302.795 Q1913.75 312.632 1913.78 331.165 Q1913.78 349.757 1923.18 359.213 Q1924.2 360.238 1924.2 360.56 Q1924.2 361.146 1923.59 361.146 Q1923.18 361.146 1921.74 359.945 Q1920.31 358.745 1918.08 355.993 Q1915.86 353.241 1914.25 349.874 Q1910.29 341.705 1910.29 331.165 Z" fill="#808080" fill-rule="evenodd" fill-opacity="1" /><path clip-path="url(#clip550)" d="M 0 0 M1963.18 323.611 Q1963.18 325.251 1962.15 326.188 Q1961.13 327.095 1959.96 327.095 Q1958.84 327.095 1958.26 326.451 Q1957.67 325.807 1957.67 324.987 Q1957.67 323.875 1958.49 322.909 Q1959.31 321.942 1960.54 321.737 Q1959.34 320.976 1957.56 320.976 Q1956.38 320.976 1955.36 321.591 Q1954.36 322.206 1953.75 322.996 Q1953.16 323.787 1952.64 324.929 Q1952.14 326.041 1951.93 326.715 Q1951.76 327.359 1951.61 328.061 L1949.56 336.259 Q1948.57 340.153 1948.57 341.529 Q1948.57 343.228 1949.39 344.369 Q1950.21 345.482 1951.85 345.482 Q1952.49 345.482 1953.22 345.306 Q1953.95 345.101 1954.89 344.574 Q1955.86 344.018 1956.71 343.198 Q1957.58 342.349 1958.43 340.915 Q1959.28 339.48 1959.84 337.635 Q1960.01 336.991 1960.6 336.991 Q1961.33 336.991 1961.33 337.577 Q1961.33 338.075 1960.92 339.129 Q1960.54 340.153 1959.69 341.5 Q1958.87 342.818 1957.79 344.018 Q1956.71 345.189 1955.1 346.009 Q1953.49 346.829 1951.73 346.829 Q1949.21 346.829 1947.54 345.482 Q1945.87 344.135 1945.26 342.261 Q1945.11 342.525 1944.91 342.876 Q1944.7 343.228 1944.09 344.018 Q1943.5 344.779 1942.83 345.365 Q1942.15 345.921 1941.1 346.36 Q1940.08 346.829 1938.96 346.829 Q1937.56 346.829 1936.3 346.419 Q1935.07 346.009 1934.19 345.072 Q1933.31 344.135 1933.31 342.847 Q1933.31 341.412 1934.28 340.417 Q1935.27 339.392 1936.62 339.392 Q1937.47 339.392 1938.14 339.89 Q1938.85 340.388 1938.85 341.471 Q1938.85 342.671 1938.03 343.579 Q1937.21 344.486 1936.04 344.721 Q1937.24 345.482 1939.02 345.482 Q1940.95 345.482 1942.48 343.784 Q1944 342.086 1944.73 339.246 Q1946.55 332.424 1947.25 329.379 Q1947.95 326.305 1947.95 324.987 Q1947.95 323.758 1947.63 322.909 Q1947.31 322.059 1946.75 321.679 Q1946.22 321.269 1945.73 321.123 Q1945.26 320.976 1944.73 320.976 Q1943.85 320.976 1942.86 321.328 Q1941.89 321.679 1940.72 322.499 Q1939.58 323.289 1938.5 324.929 Q1937.41 326.568 1936.68 328.823 Q1936.53 329.496 1935.89 329.496 Q1935.19 329.467 1935.19 328.881 Q1935.19 328.384 1935.57 327.359 Q1935.98 326.305 1936.8 324.987 Q1937.65 323.67 1938.73 322.499 Q1939.84 321.298 1941.45 320.478 Q1943.09 319.659 1944.85 319.659 Q1945.64 319.659 1946.4 319.834 Q1947.19 319.981 1948.13 320.42 Q1949.09 320.859 1949.94 321.825 Q1950.79 322.791 1951.32 324.197 Q1951.67 323.523 1952.14 322.879 Q1952.64 322.235 1953.4 321.445 Q1954.19 320.625 1955.27 320.156 Q1956.38 319.659 1957.61 319.659 Q1958.81 319.659 1959.99 319.981 Q1961.16 320.274 1962.15 321.24 Q1963.18 322.177 1963.18 323.611 Z" fill="#808080" fill-rule="evenodd" fill-opacity="1" /><path clip-path="url(#clip550)" d="M 0 0 M1967.26 360.56 Q1967.26 360.267 1968.02 359.535 Q1977.69 349.698 1977.69 331.165 Q1977.69 312.573 1968.4 303.175 Q1967.26 302.092 1967.26 301.77 Q1967.26 301.184 1967.85 301.184 Q1968.26 301.184 1969.69 302.385 Q1971.16 303.585 1973.35 306.337 Q1975.58 309.089 1977.22 312.456 Q1981.17 320.625 1981.17 331.165 Q1981.17 341.295 1977.39 349.464 Q1975.78 352.889 1973.53 355.759 Q1971.27 358.628 1969.78 359.887 Q1968.29 361.146 1967.85 361.146 Q1967.26 361.146 1967.26 360.56 Z" fill="#808080" fill-rule="evenodd" fill-opacity="1" /><path clip-path="url(#clip550)" d="M 0 0 M2006.92 337.05 Q2006.97 336.318 2008.12 336.318 L2044.86 336.318 Q2046.59 336.318 2046.62 336.991 Q2046.62 337.723 2044.98 337.694 L2008.53 337.694 Q2006.92 337.723 2006.92 337.05 M2006.92 325.339 Q2006.92 324.607 2008.17 324.636 L2044.8 324.636 Q2046.59 324.636 2046.62 325.339 Q2046.62 326.012 2045.09 326.012 L2008.12 326.012 Q2006.92 326.012 2006.92 325.339 Z" fill="#808080" fill-rule="evenodd" fill-opacity="1" /><path clip-path="url(#clip550)" d="M 0 0 M2092.83 339.216 Q2093.07 339.48 2093.07 339.743 Q2093.07 340.007 2092.48 340.768 Q2091.93 341.529 2090.72 342.554 Q2089.52 343.579 2087.97 344.545 Q2086.42 345.511 2084.14 346.155 Q2081.85 346.829 2079.45 346.829 Q2074.97 346.829 2072.34 343.872 Q2069.73 340.915 2069.73 336.669 Q2069.73 332.541 2072.05 328.588 Q2074.36 324.607 2078.11 322.147 Q2081.85 319.659 2085.81 319.659 Q2088.94 319.659 2090.9 321.123 Q2092.86 322.586 2092.86 324.812 Q2092.86 326.539 2091.87 327.593 Q2090.87 328.647 2089.52 328.647 Q2088.59 328.647 2087.94 328.12 Q2087.3 327.564 2087.3 326.539 Q2087.3 325.222 2088.38 324.197 Q2088.79 323.787 2089.26 323.611 Q2089.76 323.406 2090.05 323.406 Q2090.34 323.377 2091.02 323.377 Q2090.4 322.235 2088.94 321.62 Q2087.5 320.976 2085.86 320.976 Q2083.43 320.976 2081.12 322.674 Q2078.81 324.343 2077.4 326.978 Q2076 329.555 2075.09 333.214 Q2074.18 336.845 2074.18 338.953 Q2074.18 341.851 2075.53 343.667 Q2076.88 345.482 2079.57 345.482 Q2080.1 345.482 2080.65 345.453 Q2081.24 345.423 2082.7 345.101 Q2084.2 344.779 2085.51 344.223 Q2086.83 343.667 2088.5 342.466 Q2090.2 341.237 2091.54 339.568 Q2092.01 338.953 2092.34 338.953 Q2092.6 338.953 2092.83 339.216 Z" fill="#808080" fill-rule="evenodd" fill-opacity="1" /><path clip-path="url(#clip550)" d="M 0 0 M2121.1 329.789 Q2121.1 332.98 2119.69 336.142 Q2118.29 339.275 2116.03 341.617 Q2113.81 343.93 2110.88 345.394 Q2107.95 346.829 2105.02 346.829 Q2100.84 346.829 2098.11 343.989 Q2095.42 341.119 2095.42 336.669 Q2095.42 332.512 2097.73 328.559 Q2100.07 324.577 2103.82 322.118 Q2107.57 319.659 2111.49 319.659 Q2115.62 319.659 2118.34 322.44 Q2121.1 325.222 2121.1 329.789 M2116.7 327.447 Q2116.7 324.607 2115.33 322.791 Q2113.95 320.976 2111.43 320.976 Q2110.7 320.976 2109.85 321.21 Q2109 321.415 2107.89 321.972 Q2106.81 322.528 2105.58 323.699 Q2104.38 324.841 2103.32 326.48 Q2101.95 328.647 2100.89 332.629 Q2099.87 336.581 2099.87 338.953 Q2099.87 342.232 2101.39 343.872 Q2102.91 345.482 2105.08 345.482 Q2107.19 345.482 2109.41 344.018 Q2111.67 342.525 2113.22 339.978 Q2114.77 337.343 2115.74 333.478 Q2116.7 329.584 2116.7 327.447 Z" fill="#808080" fill-rule="evenodd" fill-opacity="1" /><path clip-path="url(#clip550)" d="M 0 0 M2146.28 324.812 Q2146.28 326.451 2145.46 327.33 Q2144.64 328.179 2143.53 328.179 Q2142.62 328.179 2142.13 327.652 Q2141.66 327.125 2141.66 326.422 Q2141.66 325.397 2142.48 324.577 Q2143.33 323.758 2144.56 323.728 Q2144.15 322.645 2143.06 322.001 Q2141.98 321.328 2141.01 321.152 Q2140.08 320.976 2139.14 320.976 Q2137.3 320.976 2135.89 321.562 Q2134.48 322.147 2133.78 323.055 Q2133.08 323.933 2132.76 324.782 Q2132.44 325.631 2132.44 326.363 Q2132.44 327.007 2132.58 327.534 Q2132.76 328.032 2133.17 328.413 Q2133.58 328.764 2133.87 328.998 Q2134.19 329.233 2134.89 329.438 Q2135.6 329.642 2135.89 329.73 Q2136.18 329.789 2137 329.965 Q2138.7 330.316 2139.46 330.521 Q2140.22 330.697 2141.22 331.194 Q2142.24 331.692 2143 332.482 Q2144.85 334.327 2144.85 336.874 Q2144.85 337.811 2144.53 338.953 Q2144.23 340.095 2143.39 341.529 Q2142.54 342.964 2141.25 344.106 Q2139.96 345.248 2137.73 346.038 Q2135.54 346.829 2132.79 346.829 Q2128.95 346.829 2126.58 345.218 Q2124.21 343.579 2124.21 341.002 Q2124.21 339.129 2125.23 338.104 Q2126.26 337.05 2127.57 337.05 Q2128.57 337.05 2129.19 337.606 Q2129.8 338.133 2129.8 339.129 Q2129.8 340.475 2128.72 341.5 Q2127.63 342.525 2126.02 342.32 Q2127.4 345.482 2132.84 345.482 Q2134.89 345.482 2136.48 344.955 Q2138.09 344.399 2138.96 343.637 Q2139.87 342.847 2140.46 341.881 Q2141.04 340.915 2141.22 340.183 Q2141.42 339.451 2141.42 338.894 Q2141.42 337.928 2141.04 337.196 Q2140.66 336.464 2140.14 336.054 Q2139.64 335.615 2138.67 335.264 Q2137.73 334.883 2137.06 334.737 Q2136.39 334.59 2135.19 334.356 Q2134.63 334.239 2134.28 334.181 Q2133.93 334.093 2133.2 333.859 Q2132.49 333.595 2132 333.332 Q2131.53 333.068 2130.91 332.6 Q2130.3 332.131 2129.92 331.575 Q2129.54 331.019 2129.27 330.199 Q2129.01 329.379 2129.01 328.413 Q2129.01 327.534 2129.27 326.48 Q2129.57 325.426 2130.3 324.197 Q2131.06 322.967 2132.14 321.972 Q2133.23 320.976 2135.04 320.332 Q2136.89 319.659 2139.14 319.659 Q2142.42 319.659 2144.35 321.181 Q2146.28 322.674 2146.28 324.812 Z" fill="#808080" fill-rule="evenodd" fill-opacity="1" /><path clip-path="url(#clip550)" d="M 0 0 M2152.04 331.165 Q2152.04 321.035 2155.82 312.866 Q2157.43 309.441 2159.68 306.571 Q2161.94 303.702 2163.43 302.443 Q2164.92 301.184 2165.33 301.184 Q2165.92 301.184 2165.95 301.77 Q2165.95 302.063 2165.16 302.795 Q2155.49 312.632 2155.52 331.165 Q2155.52 349.757 2164.92 359.213 Q2165.95 360.238 2165.95 360.56 Q2165.95 361.146 2165.33 361.146 Q2164.92 361.146 2163.49 359.945 Q2162.05 358.745 2159.83 355.993 Q2157.6 353.241 2155.99 349.874 Q2152.04 341.705 2152.04 331.165 Z" fill="#808080" fill-rule="evenodd" fill-opacity="1" /><path clip-path="url(#clip550)" d="M 0 0 M2204.92 323.611 Q2204.92 325.251 2203.9 326.188 Q2202.87 327.095 2201.7 327.095 Q2200.59 327.095 2200 326.451 Q2199.42 325.807 2199.42 324.987 Q2199.42 323.875 2200.24 322.909 Q2201.06 321.942 2202.29 321.737 Q2201.09 320.976 2199.3 320.976 Q2198.13 320.976 2197.11 321.591 Q2196.11 322.206 2195.5 322.996 Q2194.91 323.787 2194.38 324.929 Q2193.89 326.041 2193.68 326.715 Q2193.5 327.359 2193.36 328.061 L2191.31 336.259 Q2190.31 340.153 2190.31 341.529 Q2190.31 343.228 2191.13 344.369 Q2191.95 345.482 2193.59 345.482 Q2194.24 345.482 2194.97 345.306 Q2195.7 345.101 2196.64 344.574 Q2197.6 344.018 2198.45 343.198 Q2199.33 342.349 2200.18 340.915 Q2201.03 339.48 2201.59 337.635 Q2201.76 336.991 2202.35 336.991 Q2203.08 336.991 2203.08 337.577 Q2203.08 338.075 2202.67 339.129 Q2202.29 340.153 2201.44 341.5 Q2200.62 342.818 2199.54 344.018 Q2198.45 345.189 2196.84 346.009 Q2195.23 346.829 2193.48 346.829 Q2190.96 346.829 2189.29 345.482 Q2187.62 344.135 2187 342.261 Q2186.86 342.525 2186.65 342.876 Q2186.45 343.228 2185.83 344.018 Q2185.25 344.779 2184.57 345.365 Q2183.9 345.921 2182.85 346.36 Q2181.82 346.829 2180.71 346.829 Q2179.3 346.829 2178.05 346.419 Q2176.82 346.009 2175.94 345.072 Q2175.06 344.135 2175.06 342.847 Q2175.06 341.412 2176.03 340.417 Q2177.02 339.392 2178.37 339.392 Q2179.22 339.392 2179.89 339.89 Q2180.59 340.388 2180.59 341.471 Q2180.59 342.671 2179.77 343.579 Q2178.95 344.486 2177.78 344.721 Q2178.98 345.482 2180.77 345.482 Q2182.7 345.482 2184.22 343.784 Q2185.75 342.086 2186.48 339.246 Q2188.29 332.424 2189 329.379 Q2189.7 326.305 2189.7 324.987 Q2189.7 323.758 2189.38 322.909 Q2189.05 322.059 2188.5 321.679 Q2187.97 321.269 2187.47 321.123 Q2187 320.976 2186.48 320.976 Q2185.6 320.976 2184.6 321.328 Q2183.64 321.679 2182.47 322.499 Q2181.32 323.289 2180.24 324.929 Q2179.16 326.568 2178.43 328.823 Q2178.28 329.496 2177.64 329.496 Q2176.93 329.467 2176.93 328.881 Q2176.93 328.384 2177.31 327.359 Q2177.72 326.305 2178.54 324.987 Q2179.39 323.67 2180.48 322.499 Q2181.59 321.298 2183.2 320.478 Q2184.84 319.659 2186.59 319.659 Q2187.39 319.659 2188.15 319.834 Q2188.94 319.981 2189.87 320.42 Q2190.84 320.859 2191.69 321.825 Q2192.54 322.791 2193.07 324.197 Q2193.42 323.523 2193.89 322.879 Q2194.38 322.235 2195.14 321.445 Q2195.93 320.625 2197.02 320.156 Q2198.13 319.659 2199.36 319.659 Q2200.56 319.659 2201.73 319.981 Q2202.9 320.274 2203.9 321.24 Q2204.92 322.177 2204.92 323.611 Z" fill="#808080" fill-rule="evenodd" fill-opacity="1" /><path clip-path="url(#clip550)" d="M 0 0 M2209.01 360.56 Q2209.01 360.267 2209.77 359.535 Q2219.43 349.698 2219.43 331.165 Q2219.43 312.573 2210.15 303.175 Q2209.01 302.092 2209.01 301.77 Q2209.01 301.184 2209.59 301.184 Q2210 301.184 2211.44 302.385 Q2212.9 303.585 2215.1 306.337 Q2217.32 309.089 2218.96 312.456 Q2222.92 320.625 2222.92 331.165 Q2222.92 341.295 2219.14 349.464 Q2217.53 352.889 2215.27 355.759 Q2213.02 358.628 2211.53 359.887 Q2210.03 361.146 2209.59 361.146 Q2209.01 361.146 2209.01 360.56 Z" fill="#808080" fill-rule="evenodd" fill-opacity="1" /></svg>
