<?xml version="1.0" encoding="utf-8"?>
<svg xmlns="http://www.w3.org/2000/svg" xmlns:xlink="http://www.w3.org/1999/xlink" width="600" height="400" viewBox="0 0 2400 1600">
<defs>
  <clipPath id="clip270">
    <rect x="0" y="0" width="2400" height="1600"/>
  </clipPath>
</defs>
<path clip-path="url(#clip270)" d="
M0 1600 L2400 1600 L2400 0 L0 0  Z
  " fill="#ffffff" fill-rule="evenodd" fill-opacity="1"/>
<defs>
  <clipPath id="clip271">
    <rect x="480" y="0" width="1681" height="1600"/>
  </clipPath>
</defs>
<path clip-path="url(#clip270)" d="
M247.563 1486.45 L2352.76 1486.45 L2352.76 47.2441 L247.563 47.2441  Z
  " fill="#ffffff" fill-rule="evenodd" fill-opacity="1"/>
<defs>
  <clipPath id="clip272">
    <rect x="247" y="47" width="2106" height="1440"/>
  </clipPath>
</defs>
<polyline clip-path="url(#clip272)" style="stroke:#000000; stroke-width:2; stroke-opacity:0.1; fill:none" points="
  307.144,1486.45 307.144,47.2441 
  "/>
<polyline clip-path="url(#clip272)" style="stroke:#000000; stroke-width:2; stroke-opacity:0.1; fill:none" points="
  803.651,1486.45 803.651,47.2441 
  "/>
<polyline clip-path="url(#clip272)" style="stroke:#000000; stroke-width:2; stroke-opacity:0.1; fill:none" points="
  1300.16,1486.45 1300.16,47.2441 
  "/>
<polyline clip-path="url(#clip272)" style="stroke:#000000; stroke-width:2; stroke-opacity:0.1; fill:none" points="
  1796.67,1486.45 1796.67,47.2441 
  "/>
<polyline clip-path="url(#clip272)" style="stroke:#000000; stroke-width:2; stroke-opacity:0.1; fill:none" points="
  2293.17,1486.45 2293.17,47.2441 
  "/>
<polyline clip-path="url(#clip270)" style="stroke:#000000; stroke-width:4; stroke-opacity:1; fill:none" points="
  247.563,1486.45 2352.76,1486.45 
  "/>
<polyline clip-path="url(#clip270)" style="stroke:#000000; stroke-width:4; stroke-opacity:1; fill:none" points="
  307.144,1486.45 307.144,1469.18 
  "/>
<polyline clip-path="url(#clip270)" style="stroke:#000000; stroke-width:4; stroke-opacity:1; fill:none" points="
  803.651,1486.45 803.651,1469.18 
  "/>
<polyline clip-path="url(#clip270)" style="stroke:#000000; stroke-width:4; stroke-opacity:1; fill:none" points="
  1300.16,1486.45 1300.16,1469.18 
  "/>
<polyline clip-path="url(#clip270)" style="stroke:#000000; stroke-width:4; stroke-opacity:1; fill:none" points="
  1796.67,1486.45 1796.67,1469.18 
  "/>
<polyline clip-path="url(#clip270)" style="stroke:#000000; stroke-width:4; stroke-opacity:1; fill:none" points="
  2293.17,1486.45 2293.17,1469.18 
  "/>
<path clip-path="url(#clip270)" d="M 0 0 M265.905 1530.29 L295.581 1530.29 L295.581 1534.23 L265.905 1534.23 L265.905 1530.29 Z" fill="#000000" fill-rule="evenodd" fill-opacity="1" /><path clip-path="url(#clip270)" d="M 0 0 M301.461 1543.18 L309.1 1543.18 L309.1 1516.82 L300.79 1518.49 L300.79 1514.23 L309.053 1512.56 L313.729 1512.56 L313.729 1543.18 L321.368 1543.18 L321.368 1547.12 L301.461 1547.12 L301.461 1543.18 Z" fill="#000000" fill-rule="evenodd" fill-opacity="1" /><path clip-path="url(#clip270)" d="M 0 0 M336.437 1515.64 Q332.826 1515.64 330.998 1519.2 Q329.192 1522.75 329.192 1529.87 Q329.192 1536.98 330.998 1540.55 Q332.826 1544.09 336.437 1544.09 Q340.072 1544.09 341.877 1540.55 Q343.706 1536.98 343.706 1529.87 Q343.706 1522.75 341.877 1519.2 Q340.072 1515.64 336.437 1515.64 M336.437 1511.93 Q342.248 1511.93 345.303 1516.54 Q348.382 1521.12 348.382 1529.87 Q348.382 1538.6 345.303 1543.21 Q342.248 1547.79 336.437 1547.79 Q330.627 1547.79 327.549 1543.21 Q324.493 1538.6 324.493 1529.87 Q324.493 1521.12 327.549 1516.54 Q330.627 1511.93 336.437 1511.93 Z" fill="#000000" fill-rule="evenodd" fill-opacity="1" /><path clip-path="url(#clip270)" d="M 0 0 M775.804 1530.29 L805.48 1530.29 L805.48 1534.23 L775.804 1534.23 L775.804 1530.29 Z" fill="#000000" fill-rule="evenodd" fill-opacity="1" /><path clip-path="url(#clip270)" d="M 0 0 M810.596 1512.56 L828.952 1512.56 L828.952 1516.5 L814.878 1516.5 L814.878 1524.97 Q815.897 1524.62 816.915 1524.46 Q817.934 1524.27 818.952 1524.27 Q824.739 1524.27 828.119 1527.44 Q831.499 1530.62 831.499 1536.03 Q831.499 1541.61 828.026 1544.71 Q824.554 1547.79 818.235 1547.79 Q816.059 1547.79 813.79 1547.42 Q811.545 1547.05 809.138 1546.31 L809.138 1541.61 Q811.221 1542.74 813.443 1543.3 Q815.665 1543.86 818.142 1543.86 Q822.147 1543.86 824.485 1541.75 Q826.823 1539.64 826.823 1536.03 Q826.823 1532.42 824.485 1530.31 Q822.147 1528.21 818.142 1528.21 Q816.267 1528.21 814.392 1528.62 Q812.54 1529.04 810.596 1529.92 L810.596 1512.56 Z" fill="#000000" fill-rule="evenodd" fill-opacity="1" /><path clip-path="url(#clip270)" d="M 0 0 M1300.16 1515.64 Q1296.55 1515.64 1294.72 1519.2 Q1292.91 1522.75 1292.91 1529.87 Q1292.91 1536.98 1294.72 1540.55 Q1296.55 1544.09 1300.16 1544.09 Q1303.79 1544.09 1305.6 1540.55 Q1307.43 1536.98 1307.43 1529.87 Q1307.43 1522.75 1305.6 1519.2 Q1303.79 1515.64 1300.16 1515.64 M1300.16 1511.93 Q1305.97 1511.93 1309.03 1516.54 Q1312.1 1521.12 1312.1 1529.87 Q1312.1 1538.6 1309.03 1543.21 Q1305.97 1547.79 1300.16 1547.79 Q1294.35 1547.79 1291.27 1543.21 Q1288.21 1538.6 1288.21 1529.87 Q1288.21 1521.12 1291.27 1516.54 Q1294.35 1511.93 1300.16 1511.93 Z" fill="#000000" fill-rule="evenodd" fill-opacity="1" /><path clip-path="url(#clip270)" d="M 0 0 M1786.94 1512.56 L1805.3 1512.56 L1805.3 1516.5 L1791.23 1516.5 L1791.23 1524.97 Q1792.25 1524.62 1793.26 1524.46 Q1794.28 1524.27 1795.3 1524.27 Q1801.09 1524.27 1804.47 1527.44 Q1807.85 1530.62 1807.85 1536.03 Q1807.85 1541.61 1804.38 1544.71 Q1800.9 1547.79 1794.58 1547.79 Q1792.41 1547.79 1790.14 1547.42 Q1787.89 1547.05 1785.49 1546.31 L1785.49 1541.61 Q1787.57 1542.74 1789.79 1543.3 Q1792.01 1543.86 1794.49 1543.86 Q1798.5 1543.86 1800.83 1541.75 Q1803.17 1539.64 1803.17 1536.03 Q1803.17 1532.42 1800.83 1530.31 Q1798.5 1528.21 1794.49 1528.21 Q1792.62 1528.21 1790.74 1528.62 Q1788.89 1529.04 1786.94 1529.92 L1786.94 1512.56 Z" fill="#000000" fill-rule="evenodd" fill-opacity="1" /><path clip-path="url(#clip270)" d="M 0 0 M2270.05 1543.18 L2277.69 1543.18 L2277.69 1516.82 L2269.38 1518.49 L2269.38 1514.23 L2277.64 1512.56 L2282.32 1512.56 L2282.32 1543.18 L2289.96 1543.18 L2289.96 1547.12 L2270.05 1547.12 L2270.05 1543.18 Z" fill="#000000" fill-rule="evenodd" fill-opacity="1" /><path clip-path="url(#clip270)" d="M 0 0 M2305.03 1515.64 Q2301.42 1515.64 2299.59 1519.2 Q2297.78 1522.75 2297.78 1529.87 Q2297.78 1536.98 2299.59 1540.55 Q2301.42 1544.09 2305.03 1544.09 Q2308.66 1544.09 2310.47 1540.55 Q2312.3 1536.98 2312.3 1529.87 Q2312.3 1522.75 2310.47 1519.2 Q2308.66 1515.64 2305.03 1515.64 M2305.03 1511.93 Q2310.84 1511.93 2313.89 1516.54 Q2316.97 1521.12 2316.97 1529.87 Q2316.97 1538.6 2313.89 1543.21 Q2310.84 1547.79 2305.03 1547.79 Q2299.22 1547.79 2296.14 1543.21 Q2293.08 1538.6 2293.08 1529.87 Q2293.08 1521.12 2296.14 1516.54 Q2299.22 1511.93 2305.03 1511.93 Z" fill="#000000" fill-rule="evenodd" fill-opacity="1" /><polyline clip-path="url(#clip272)" style="stroke:#000000; stroke-width:2; stroke-opacity:0.1; fill:none" points="
  247.563,1264.68 2352.76,1264.68 
  "/>
<polyline clip-path="url(#clip272)" style="stroke:#000000; stroke-width:2; stroke-opacity:0.1; fill:none" points="
  247.563,993.136 2352.76,993.136 
  "/>
<polyline clip-path="url(#clip272)" style="stroke:#000000; stroke-width:2; stroke-opacity:0.1; fill:none" points="
  247.563,721.588 2352.76,721.588 
  "/>
<polyline clip-path="url(#clip272)" style="stroke:#000000; stroke-width:2; stroke-opacity:0.1; fill:none" points="
  247.563,450.04 2352.76,450.04 
  "/>
<polyline clip-path="url(#clip272)" style="stroke:#000000; stroke-width:2; stroke-opacity:0.1; fill:none" points="
  247.563,178.492 2352.76,178.492 
  "/>
<polyline clip-path="url(#clip270)" style="stroke:#000000; stroke-width:4; stroke-opacity:1; fill:none" points="
  247.563,1486.45 247.563,47.2441 
  "/>
<polyline clip-path="url(#clip270)" style="stroke:#000000; stroke-width:4; stroke-opacity:1; fill:none" points="
  247.563,1264.68 272.825,1264.68 
  "/>
<polyline clip-path="url(#clip270)" style="stroke:#000000; stroke-width:4; stroke-opacity:1; fill:none" points="
  247.563,993.136 272.825,993.136 
  "/>
<polyline clip-path="url(#clip270)" style="stroke:#000000; stroke-width:4; stroke-opacity:1; fill:none" points="
  247.563,721.588 272.825,721.588 
  "/>
<polyline clip-path="url(#clip270)" style="stroke:#000000; stroke-width:4; stroke-opacity:1; fill:none" points="
  247.563,450.04 272.825,450.04 
  "/>
<polyline clip-path="url(#clip270)" style="stroke:#000000; stroke-width:4; stroke-opacity:1; fill:none" points="
  247.563,178.492 272.825,178.492 
  "/>
<path clip-path="url(#clip270)" d="M 0 0 M50.9921 1271.58 L80.6679 1271.58 L80.6679 1275.52 L50.9921 1275.52 L50.9921 1271.58 Z" fill="#000000" fill-rule="evenodd" fill-opacity="1" /><path clip-path="url(#clip270)" d="M 0 0 M99.9039 1269.78 Q103.26 1270.49 105.135 1272.76 Q107.033 1275.03 107.033 1278.37 Q107.033 1283.48 103.515 1286.28 Q99.9965 1289.08 93.515 1289.08 Q91.3391 1289.08 89.0243 1288.64 Q86.7327 1288.23 84.279 1287.37 L84.279 1282.86 Q86.2234 1283.99 88.5382 1284.57 Q90.853 1285.15 93.3762 1285.15 Q97.7743 1285.15 100.066 1283.41 Q102.381 1281.68 102.381 1278.37 Q102.381 1275.31 100.228 1273.6 Q98.0984 1271.86 94.2789 1271.86 L90.2512 1271.86 L90.2512 1268.02 L94.4641 1268.02 Q97.9132 1268.02 99.7419 1266.65 Q101.571 1265.26 101.571 1262.67 Q101.571 1260.01 99.6724 1258.6 Q97.7974 1257.16 94.2789 1257.16 Q92.3576 1257.16 90.1586 1257.58 Q87.9595 1257.99 85.3206 1258.87 L85.3206 1254.71 Q87.9827 1253.97 90.2975 1253.6 Q92.6354 1253.23 94.6956 1253.23 Q100.02 1253.23 103.121 1255.66 Q106.223 1258.06 106.223 1262.18 Q106.223 1265.06 104.58 1267.05 Q102.936 1269.01 99.9039 1269.78 Z" fill="#000000" fill-rule="evenodd" fill-opacity="1" /><path clip-path="url(#clip270)" d="M 0 0 M140.274 1262.95 L129.695 1273.57 L140.274 1284.15 L137.519 1286.95 L126.894 1276.33 L116.27 1286.95 L113.538 1284.15 L124.094 1273.57 L113.538 1262.95 L116.27 1260.15 L126.894 1270.77 L137.519 1260.15 L140.274 1262.95 Z" fill="#000000" fill-rule="evenodd" fill-opacity="1" /><path clip-path="url(#clip270)" d="M 0 0 M146.154 1284.48 L153.793 1284.48 L153.793 1258.11 L145.482 1259.78 L145.482 1255.52 L153.746 1253.85 L158.422 1253.85 L158.422 1284.48 L166.061 1284.48 L166.061 1288.41 L146.154 1288.41 L146.154 1284.48 Z" fill="#000000" fill-rule="evenodd" fill-opacity="1" /><path clip-path="url(#clip270)" d="M 0 0 M181.13 1256.93 Q177.519 1256.93 175.691 1260.49 Q173.885 1264.04 173.885 1271.17 Q173.885 1278.27 175.691 1281.84 Q177.519 1285.38 181.13 1285.38 Q184.765 1285.38 186.57 1281.84 Q188.399 1278.27 188.399 1271.17 Q188.399 1264.04 186.57 1260.49 Q184.765 1256.93 181.13 1256.93 M181.13 1253.23 Q186.94 1253.23 189.996 1257.83 Q193.075 1262.42 193.075 1271.17 Q193.075 1279.89 189.996 1284.5 Q186.94 1289.08 181.13 1289.08 Q175.32 1289.08 172.241 1284.5 Q169.186 1279.89 169.186 1271.17 Q169.186 1262.42 172.241 1257.83 Q175.32 1253.23 181.13 1253.23 Z" fill="#000000" fill-rule="evenodd" fill-opacity="1" /><path clip-path="url(#clip270)" d="M 0 0 M205.77 1245.86 Q208.497 1246.44 210.02 1248.29 Q211.563 1250.13 211.563 1252.84 Q211.563 1256.99 208.704 1259.27 Q205.845 1261.55 200.579 1261.55 Q198.811 1261.55 196.93 1261.19 Q195.068 1260.85 193.075 1260.15 L193.075 1256.49 Q194.655 1257.41 196.535 1257.88 Q198.416 1258.35 200.466 1258.35 Q204.04 1258.35 205.902 1256.94 Q207.782 1255.53 207.782 1252.84 Q207.782 1250.36 206.033 1248.96 Q204.303 1247.55 201.2 1247.55 L197.927 1247.55 L197.927 1244.43 L201.35 1244.43 Q204.152 1244.43 205.638 1243.32 Q207.124 1242.19 207.124 1240.09 Q207.124 1237.92 205.582 1236.78 Q204.058 1235.61 201.2 1235.61 Q199.639 1235.61 197.852 1235.95 Q196.065 1236.29 193.921 1237 L193.921 1233.62 Q196.084 1233.02 197.965 1232.71 Q199.864 1232.41 201.538 1232.41 Q205.864 1232.41 208.384 1234.39 Q210.904 1236.34 210.904 1239.69 Q210.904 1242.02 209.569 1243.64 Q208.234 1245.24 205.77 1245.86 Z" fill="#000000" fill-rule="evenodd" fill-opacity="1" /><path clip-path="url(#clip270)" d="M 0 0 M199.618 978.935 Q196.007 978.935 194.179 982.499 Q192.373 986.041 192.373 993.171 Q192.373 1000.28 194.179 1003.84 Q196.007 1007.38 199.618 1007.38 Q203.253 1007.38 205.058 1003.84 Q206.887 1000.28 206.887 993.171 Q206.887 986.041 205.058 982.499 Q203.253 978.935 199.618 978.935 M199.618 975.231 Q205.429 975.231 208.484 979.837 Q211.563 984.421 211.563 993.171 Q211.563 1001.9 208.484 1006.5 Q205.429 1011.09 199.618 1011.09 Q193.808 1011.09 190.73 1006.5 Q187.674 1001.9 187.674 993.171 Q187.674 984.421 190.73 979.837 Q193.808 975.231 199.618 975.231 Z" fill="#000000" fill-rule="evenodd" fill-opacity="1" /><path clip-path="url(#clip270)" d="M 0 0 M99.9039 726.681 Q103.26 727.399 105.135 729.668 Q107.033 731.936 107.033 735.269 Q107.033 740.385 103.515 743.186 Q99.9965 745.987 93.515 745.987 Q91.3391 745.987 89.0243 745.547 Q86.7327 745.13 84.279 744.274 L84.279 739.76 Q86.2234 740.894 88.5382 741.473 Q90.853 742.052 93.3762 742.052 Q97.7743 742.052 100.066 740.316 Q102.381 738.58 102.381 735.269 Q102.381 732.214 100.228 730.501 Q98.0984 728.765 94.2789 728.765 L90.2512 728.765 L90.2512 724.922 L94.4641 724.922 Q97.9132 724.922 99.7419 723.556 Q101.571 722.168 101.571 719.575 Q101.571 716.913 99.6724 715.501 Q97.7974 714.066 94.2789 714.066 Q92.3576 714.066 90.1586 714.482 Q87.9595 714.899 85.3206 715.779 L85.3206 711.612 Q87.9827 710.871 90.2975 710.501 Q92.6354 710.131 94.6956 710.131 Q100.02 710.131 103.121 712.561 Q106.223 714.969 106.223 719.089 Q106.223 721.959 104.58 723.95 Q102.936 725.918 99.9039 726.681 Z" fill="#000000" fill-rule="evenodd" fill-opacity="1" /><path clip-path="url(#clip270)" d="M 0 0 M140.274 719.853 L129.695 730.478 L140.274 741.056 L137.519 743.857 L126.894 733.232 L116.27 743.857 L113.538 741.056 L124.094 730.478 L113.538 719.853 L116.27 717.052 L126.894 727.677 L137.519 717.052 L140.274 719.853 Z" fill="#000000" fill-rule="evenodd" fill-opacity="1" /><path clip-path="url(#clip270)" d="M 0 0 M146.154 741.38 L153.793 741.38 L153.793 715.015 L145.482 716.681 L145.482 712.422 L153.746 710.756 L158.422 710.756 L158.422 741.38 L166.061 741.38 L166.061 745.316 L146.154 745.316 L146.154 741.38 Z" fill="#000000" fill-rule="evenodd" fill-opacity="1" /><path clip-path="url(#clip270)" d="M 0 0 M181.13 713.834 Q177.519 713.834 175.691 717.399 Q173.885 720.941 173.885 728.07 Q173.885 735.177 175.691 738.742 Q177.519 742.283 181.13 742.283 Q184.765 742.283 186.57 738.742 Q188.399 735.177 188.399 728.07 Q188.399 720.941 186.57 717.399 Q184.765 713.834 181.13 713.834 M181.13 710.131 Q186.94 710.131 189.996 714.737 Q193.075 719.32 193.075 728.07 Q193.075 736.797 189.996 741.404 Q186.94 745.987 181.13 745.987 Q175.32 745.987 172.241 741.404 Q169.186 736.797 169.186 728.07 Q169.186 719.32 172.241 714.737 Q175.32 710.131 181.13 710.131 Z" fill="#000000" fill-rule="evenodd" fill-opacity="1" /><path clip-path="url(#clip270)" d="M 0 0 M205.77 702.765 Q208.497 703.348 210.02 705.191 Q211.563 707.034 211.563 709.743 Q211.563 713.899 208.704 716.175 Q205.845 718.451 200.579 718.451 Q198.811 718.451 196.93 718.093 Q195.068 717.755 193.075 717.059 L193.075 713.391 Q194.655 714.313 196.535 714.783 Q198.416 715.253 200.466 715.253 Q204.04 715.253 205.902 713.843 Q207.782 712.432 207.782 709.743 Q207.782 707.26 206.033 705.868 Q204.303 704.458 201.2 704.458 L197.927 704.458 L197.927 701.336 L201.35 701.336 Q204.152 701.336 205.638 700.226 Q207.124 699.097 207.124 696.991 Q207.124 694.828 205.582 693.681 Q204.058 692.515 201.2 692.515 Q199.639 692.515 197.852 692.853 Q196.065 693.192 193.921 693.906 L193.921 690.521 Q196.084 689.919 197.965 689.618 Q199.864 689.317 201.538 689.317 Q205.864 689.317 208.384 691.292 Q210.904 693.248 210.904 696.596 Q210.904 698.928 209.569 700.546 Q208.234 702.144 205.77 702.765 Z" fill="#000000" fill-rule="evenodd" fill-opacity="1" /><path clip-path="url(#clip270)" d="M 0 0 M95.5058 454.624 Q92.3576 454.624 90.5058 456.777 Q88.6771 458.93 88.6771 462.68 Q88.6771 466.407 90.5058 468.583 Q92.3576 470.735 95.5058 470.735 Q98.6539 470.735 100.483 468.583 Q102.334 466.407 102.334 462.68 Q102.334 458.93 100.483 456.777 Q98.6539 454.624 95.5058 454.624 M104.788 439.972 L104.788 444.231 Q103.029 443.398 101.223 442.958 Q99.4409 442.518 97.6817 442.518 Q93.0521 442.518 90.5984 445.643 Q88.1679 448.768 87.8206 455.087 Q89.1864 453.073 91.2465 452.009 Q93.3067 450.921 95.7836 450.921 Q100.992 450.921 104.001 454.092 Q107.033 457.24 107.033 462.68 Q107.033 468.004 103.885 471.221 Q100.737 474.439 95.5058 474.439 Q89.5104 474.439 86.3392 469.856 Q83.1679 465.249 83.1679 456.522 Q83.1679 448.328 87.0567 443.467 Q90.9456 438.583 97.4965 438.583 Q99.2558 438.583 101.038 438.93 Q102.844 439.277 104.788 439.972 Z" fill="#000000" fill-rule="evenodd" fill-opacity="1" /><path clip-path="url(#clip270)" d="M 0 0 M140.274 448.305 L129.695 458.93 L140.274 469.508 L137.519 472.309 L126.894 461.684 L116.27 472.309 L113.538 469.508 L124.094 458.93 L113.538 448.305 L116.27 445.504 L126.894 456.129 L137.519 445.504 L140.274 448.305 Z" fill="#000000" fill-rule="evenodd" fill-opacity="1" /><path clip-path="url(#clip270)" d="M 0 0 M146.154 469.833 L153.793 469.833 L153.793 443.467 L145.482 445.134 L145.482 440.874 L153.746 439.208 L158.422 439.208 L158.422 469.833 L166.061 469.833 L166.061 473.768 L146.154 473.768 L146.154 469.833 Z" fill="#000000" fill-rule="evenodd" fill-opacity="1" /><path clip-path="url(#clip270)" d="M 0 0 M181.13 442.286 Q177.519 442.286 175.691 445.851 Q173.885 449.393 173.885 456.522 Q173.885 463.629 175.691 467.194 Q177.519 470.735 181.13 470.735 Q184.765 470.735 186.57 467.194 Q188.399 463.629 188.399 456.522 Q188.399 449.393 186.57 445.851 Q184.765 442.286 181.13 442.286 M181.13 438.583 Q186.94 438.583 189.996 443.189 Q193.075 447.772 193.075 456.522 Q193.075 465.249 189.996 469.856 Q186.94 474.439 181.13 474.439 Q175.32 474.439 172.241 469.856 Q169.186 465.249 169.186 456.522 Q169.186 447.772 172.241 443.189 Q175.32 438.583 181.13 438.583 Z" fill="#000000" fill-rule="evenodd" fill-opacity="1" /><path clip-path="url(#clip270)" d="M 0 0 M205.77 431.217 Q208.497 431.8 210.02 433.643 Q211.563 435.486 211.563 438.195 Q211.563 442.351 208.704 444.627 Q205.845 446.903 200.579 446.903 Q198.811 446.903 196.93 446.545 Q195.068 446.207 193.075 445.511 L193.075 441.843 Q194.655 442.765 196.535 443.235 Q198.416 443.705 200.466 443.705 Q204.04 443.705 205.902 442.295 Q207.782 440.884 207.782 438.195 Q207.782 435.712 206.033 434.32 Q204.303 432.91 201.2 432.91 L197.927 432.91 L197.927 429.788 L201.35 429.788 Q204.152 429.788 205.638 428.678 Q207.124 427.55 207.124 425.443 Q207.124 423.28 205.582 422.133 Q204.058 420.967 201.2 420.967 Q199.639 420.967 197.852 421.305 Q196.065 421.644 193.921 422.359 L193.921 418.973 Q196.084 418.371 197.965 418.07 Q199.864 417.77 201.538 417.77 Q205.864 417.77 208.384 419.744 Q210.904 421.7 210.904 425.048 Q210.904 427.38 209.569 428.998 Q208.234 430.596 205.77 431.217 Z" fill="#000000" fill-rule="evenodd" fill-opacity="1" /><path clip-path="url(#clip270)" d="M 0 0 M85.4132 201.502 L85.4132 197.243 Q87.1725 198.076 88.978 198.516 Q90.7836 198.956 92.5197 198.956 Q97.1493 198.956 99.5798 195.854 Q102.034 192.729 102.381 186.387 Q101.038 188.377 98.978 189.442 Q96.9178 190.507 94.4178 190.507 Q89.2327 190.507 86.2003 187.382 Q83.191 184.234 83.191 178.794 Q83.191 173.47 86.3392 170.252 Q89.4873 167.035 94.7187 167.035 Q100.714 167.035 103.862 171.641 Q107.033 176.225 107.033 184.975 Q107.033 193.146 103.145 198.03 Q99.2789 202.891 92.728 202.891 Q90.9688 202.891 89.1632 202.544 Q87.3577 202.197 85.4132 201.502 M94.7187 186.85 Q97.8669 186.85 99.6956 184.697 Q101.547 182.544 101.547 178.794 Q101.547 175.067 99.6956 172.914 Q97.8669 170.739 94.7187 170.739 Q91.5706 170.739 89.7188 172.914 Q87.8901 175.067 87.8901 178.794 Q87.8901 182.544 89.7188 184.697 Q91.5706 186.85 94.7187 186.85 Z" fill="#000000" fill-rule="evenodd" fill-opacity="1" /><path clip-path="url(#clip270)" d="M 0 0 M140.274 176.757 L129.695 187.382 L140.274 197.961 L137.519 200.762 L126.894 190.137 L116.27 200.762 L113.538 197.961 L124.094 187.382 L113.538 176.757 L116.27 173.956 L126.894 184.581 L137.519 173.956 L140.274 176.757 Z" fill="#000000" fill-rule="evenodd" fill-opacity="1" /><path clip-path="url(#clip270)" d="M 0 0 M146.154 198.285 L153.793 198.285 L153.793 171.919 L145.482 173.586 L145.482 169.326 L153.746 167.66 L158.422 167.66 L158.422 198.285 L166.061 198.285 L166.061 202.22 L146.154 202.22 L146.154 198.285 Z" fill="#000000" fill-rule="evenodd" fill-opacity="1" /><path clip-path="url(#clip270)" d="M 0 0 M181.13 170.739 Q177.519 170.739 175.691 174.303 Q173.885 177.845 173.885 184.975 Q173.885 192.081 175.691 195.646 Q177.519 199.187 181.13 199.187 Q184.765 199.187 186.57 195.646 Q188.399 192.081 188.399 184.975 Q188.399 177.845 186.57 174.303 Q184.765 170.739 181.13 170.739 M181.13 167.035 Q186.94 167.035 189.996 171.641 Q193.075 176.225 193.075 184.975 Q193.075 193.701 189.996 198.308 Q186.94 202.891 181.13 202.891 Q175.32 202.891 172.241 198.308 Q169.186 193.701 169.186 184.975 Q169.186 176.225 172.241 171.641 Q175.32 167.035 181.13 167.035 Z" fill="#000000" fill-rule="evenodd" fill-opacity="1" /><path clip-path="url(#clip270)" d="M 0 0 M205.77 159.669 Q208.497 160.252 210.02 162.095 Q211.563 163.939 211.563 166.647 Q211.563 170.803 208.704 173.079 Q205.845 175.355 200.579 175.355 Q198.811 175.355 196.93 174.998 Q195.068 174.659 193.075 173.963 L193.075 170.296 Q194.655 171.217 196.535 171.687 Q198.416 172.158 200.466 172.158 Q204.04 172.158 205.902 170.747 Q207.782 169.336 207.782 166.647 Q207.782 164.164 206.033 162.772 Q204.303 161.362 201.2 161.362 L197.927 161.362 L197.927 158.24 L201.35 158.24 Q204.152 158.24 205.638 157.13 Q207.124 156.002 207.124 153.895 Q207.124 151.732 205.582 150.585 Q204.058 149.419 201.2 149.419 Q199.639 149.419 197.852 149.757 Q196.065 150.096 193.921 150.811 L193.921 147.425 Q196.084 146.823 197.965 146.523 Q199.864 146.222 201.538 146.222 Q205.864 146.222 208.384 148.196 Q210.904 150.152 210.904 153.5 Q210.904 155.832 209.569 157.45 Q208.234 159.049 205.77 159.669 Z" fill="#000000" fill-rule="evenodd" fill-opacity="1" /><polyline clip-path="url(#clip272)" style="stroke:#e69f00; stroke-width:4; stroke-opacity:1; fill:none" points="
  307.144,87.9763 317.074,105.989 327.004,123.821 336.934,141.471 346.864,158.941 356.794,176.229 366.725,193.337 376.655,210.263 386.585,227.009 396.515,243.573 
  406.445,259.957 416.375,276.159 426.306,292.18 436.236,308.021 446.166,323.68 456.096,339.158 466.026,354.455 475.956,369.571 485.886,384.507 495.817,399.261 
  505.747,413.834 515.677,428.226 525.607,442.437 535.537,456.467 545.467,470.316 555.398,483.984 565.328,497.47 575.258,510.776 585.188,523.901 595.118,536.845 
  605.048,549.608 614.979,562.189 624.909,574.59 634.839,586.81 644.769,598.848 654.699,610.706 664.629,622.383 674.559,633.878 684.49,645.193 694.42,656.326 
  704.35,667.278 714.28,678.05 724.21,688.64 734.14,699.05 744.071,709.278 754.001,719.325 763.931,729.191 773.861,738.877 783.791,748.381 793.721,757.704 
  803.651,766.846 813.582,775.807 823.512,784.587 833.442,793.186 843.372,801.604 853.302,809.841 863.232,817.897 873.163,825.772 883.093,833.466 893.023,840.979 
  902.953,848.31 912.883,855.461 922.813,862.431 932.744,869.22 942.674,875.827 952.604,882.254 962.534,888.499 972.464,894.564 982.394,900.448 992.324,906.15 
  1002.25,911.672 1012.18,917.012 1022.11,922.171 1032.05,927.15 1041.98,931.947 1051.91,936.563 1061.84,940.999 1071.77,945.253 1081.7,949.326 1091.63,953.218 
  1101.56,956.93 1111.49,960.46 1121.42,963.809 1131.35,966.977 1141.28,969.964 1151.21,972.77 1161.14,975.395 1171.07,977.839 1181,980.102 1190.93,982.183 
  1200.86,984.084 1210.79,985.804 1220.72,987.343 1230.65,988.701 1240.58,989.877 1250.51,990.873 1260.44,991.688 1270.37,992.321 1280.3,992.774 1290.23,993.045 
  1300.16,993.136 1310.09,993.045 1320.02,992.774 1329.95,992.321 1339.88,991.688 1349.81,990.873 1359.74,989.877 1369.67,988.701 1379.6,987.343 1389.53,985.804 
  1399.46,984.084 1409.39,982.183 1419.32,980.102 1429.25,977.839 1439.18,975.395 1449.11,972.77 1459.04,969.964 1468.97,966.977 1478.9,963.809 1488.83,960.46 
  1498.76,956.93 1508.69,953.218 1518.62,949.326 1528.55,945.253 1538.48,940.999 1548.41,936.563 1558.34,931.947 1568.27,927.15 1578.2,922.171 1588.13,917.012 
  1598.06,911.672 1607.99,906.15 1617.92,900.448 1627.85,894.564 1637.78,888.499 1647.71,882.254 1657.64,875.827 1667.58,869.22 1677.51,862.431 1687.44,855.461 
  1697.37,848.31 1707.3,840.979 1717.23,833.466 1727.16,825.772 1737.09,817.897 1747.02,809.841 1756.95,801.604 1766.88,793.186 1776.81,784.587 1786.74,775.807 
  1796.67,766.846 1806.6,757.704 1816.53,748.381 1826.46,738.877 1836.39,729.191 1846.32,719.325 1856.25,709.278 1866.18,699.05 1876.11,688.64 1886.04,678.05 
  1895.97,667.278 1905.9,656.326 1915.83,645.193 1925.76,633.878 1935.69,622.383 1945.62,610.706 1955.55,598.848 1965.48,586.81 1975.41,574.59 1985.34,562.189 
  1995.27,549.608 2005.2,536.845 2015.13,523.901 2025.06,510.776 2034.99,497.47 2044.92,483.984 2054.85,470.316 2064.78,456.467 2074.71,442.437 2084.64,428.226 
  2094.57,413.834 2104.5,399.261 2114.43,384.507 2124.36,369.571 2134.29,354.455 2144.22,339.158 2154.15,323.68 2164.08,308.021 2174.01,292.18 2183.94,276.159 
  2193.87,259.957 2203.8,243.573 2213.73,227.009 2223.66,210.263 2233.59,193.337 2243.52,176.229 2253.45,158.941 2263.38,141.471 2273.31,123.821 2283.24,105.989 
  2293.17,87.9763 
  "/>
<polyline clip-path="url(#clip272)" style="stroke:#56b4e9; stroke-width:4; stroke-opacity:1; fill:none" points="
  307.144,1445.72 317.074,1432.27 327.004,1419.1 336.934,1406.19 346.864,1393.55 356.794,1381.17 366.725,1369.04 376.655,1357.17 386.585,1345.55 396.515,1334.19 
  406.445,1323.07 416.375,1312.19 426.306,1301.56 436.236,1291.16 446.166,1281 456.096,1271.08 466.026,1261.38 475.956,1251.92 485.886,1242.67 495.817,1233.66 
  505.747,1224.86 515.677,1216.28 525.607,1207.91 535.537,1199.75 545.467,1191.81 555.398,1184.07 565.328,1176.53 575.258,1169.2 585.188,1162.06 595.118,1155.12 
  605.048,1148.37 614.979,1141.81 624.909,1135.44 634.839,1129.26 644.769,1123.25 654.699,1117.43 664.629,1111.78 674.559,1106.3 684.49,1101 694.42,1095.86 
  704.35,1090.89 714.28,1086.09 724.21,1081.44 734.14,1076.95 744.071,1072.62 754.001,1068.43 763.931,1064.4 773.861,1060.51 783.791,1056.77 793.721,1053.17 
  803.651,1049.71 813.582,1046.38 823.512,1043.19 833.442,1040.12 843.372,1037.19 853.302,1034.38 863.232,1031.69 873.163,1029.12 883.093,1026.67 893.023,1024.33 
  902.953,1022.1 912.883,1019.98 922.813,1017.97 932.744,1016.06 942.674,1014.25 952.604,1012.54 962.534,1010.92 972.464,1009.4 982.394,1007.97 992.324,1006.62 
  1002.25,1005.36 1012.18,1004.17 1022.11,1003.07 1032.05,1002.04 1041.98,1001.09 1051.91,1000.21 1061.84,999.392 1071.77,998.642 1081.7,997.955 1091.63,997.327 
  1101.56,996.757 1111.49,996.24 1121.42,995.775 1131.35,995.359 1141.28,994.99 1151.21,994.663 1161.14,994.378 1171.07,994.13 1181,993.918 1190.93,993.738 
  1200.86,993.588 1210.79,993.466 1220.72,993.368 1230.65,993.291 1240.58,993.234 1250.51,993.192 1260.44,993.165 1270.37,993.148 1280.3,993.14 1290.23,993.136 
  1300.16,993.136 1310.09,993.135 1320.02,993.132 1329.95,993.124 1339.88,993.107 1349.81,993.079 1359.74,993.038 1369.67,992.981 1379.6,992.904 1389.53,992.806 
  1399.46,992.683 1409.39,992.534 1419.32,992.354 1429.25,992.142 1439.18,991.894 1449.11,991.608 1459.04,991.282 1468.97,990.912 1478.9,990.496 1488.83,990.032 
  1498.76,989.515 1508.69,988.945 1518.62,988.317 1528.55,987.629 1538.48,986.879 1548.41,986.064 1558.34,985.181 1568.27,984.228 1578.2,983.201 1588.13,982.098 
  1598.06,980.916 1607.99,979.653 1617.92,978.306 1627.85,976.872 1637.78,975.348 1647.71,973.732 1657.64,972.02 1667.58,970.211 1677.51,968.302 1687.44,966.289 
  1697.37,964.171 1707.3,961.944 1717.23,959.605 1727.16,957.153 1737.09,954.583 1747.02,951.895 1756.95,949.084 1766.88,946.148 1776.81,943.084 1786.74,939.89 
  1796.67,936.563 1806.6,933.101 1816.53,929.5 1826.46,925.757 1836.39,921.871 1846.32,917.838 1856.25,913.656 1866.18,909.321 1876.11,904.832 1886.04,900.185 
  1895.97,895.379 1905.9,890.409 1915.83,885.273 1925.76,879.97 1935.69,874.495 1945.62,868.846 1955.55,863.021 1965.48,857.017 1975.41,850.83 1985.34,844.459 
  1995.27,837.901 2005.2,831.153 2015.13,824.211 2025.06,817.075 2034.99,809.74 2044.92,802.204 2054.85,794.464 2064.78,786.518 2074.71,778.363 2084.64,769.996 
  2094.57,761.415 2104.5,752.616 2114.43,743.598 2124.36,734.357 2134.29,724.89 2144.22,715.195 2154.15,705.27 2164.08,695.111 2174.01,684.715 2183.94,674.081 
  2193.87,663.205 2203.8,652.085 2213.73,640.717 2223.66,629.1 2233.59,617.23 2243.52,605.105 2253.45,592.722 2263.38,580.079 2273.31,567.171 2283.24,553.998 
  2293.17,540.556 
  "/>
<polyline clip-path="url(#clip272)" style="stroke:#009e73; stroke-width:4; stroke-opacity:1; fill:none" points="
  307.144,87.9763 317.074,123.643 327.004,158.245 336.934,191.805 346.864,224.342 356.794,255.878 366.725,286.433 376.655,316.029 386.585,344.686 396.515,372.423 
  406.445,399.261 416.375,425.218 426.306,450.316 436.236,474.572 446.166,498.006 456.096,520.637 466.026,542.483 475.956,563.562 485.886,583.894 495.817,603.494 
  505.747,622.383 515.677,640.575 525.607,658.091 535.537,674.945 545.467,691.155 555.398,706.738 565.328,721.71 575.258,736.086 585.188,749.885 595.118,763.12 
  605.048,775.807 614.979,787.962 624.909,799.6 634.839,810.736 644.769,821.384 654.699,831.559 664.629,841.275 674.559,850.546 684.49,859.386 694.42,867.809 
  704.35,875.827 714.28,883.454 724.21,890.704 734.14,897.587 744.071,904.118 754.001,910.308 763.931,916.17 773.861,921.714 783.791,926.954 793.721,931.9 
  803.651,936.563 813.582,940.955 823.512,945.086 833.442,948.967 843.372,952.608 853.302,956.019 863.232,959.21 873.163,962.19 883.093,964.97 893.023,967.558 
  902.953,969.964 912.883,972.196 922.813,974.262 932.744,976.172 942.674,977.933 952.604,979.553 962.534,981.04 972.464,982.401 982.394,983.645 992.324,984.777 
  1002.25,985.804 1012.18,986.734 1022.11,987.572 1032.05,988.325 1041.98,989 1051.91,989.6 1061.84,990.133 1071.77,990.603 1081.7,991.015 1091.63,991.376 
  1101.56,991.688 1111.49,991.956 1121.42,992.186 1131.35,992.38 1141.28,992.543 1151.21,992.678 1161.14,992.788 1171.07,992.877 1181,992.948 1190.93,993.003 
  1200.86,993.045 1210.79,993.076 1220.72,993.099 1230.65,993.114 1240.58,993.124 1250.51,993.13 1260.44,993.134 1270.37,993.135 1280.3,993.136 1290.23,993.136 
  1300.16,993.136 1310.09,993.136 1320.02,993.136 1329.95,993.135 1339.88,993.134 1349.81,993.13 1359.74,993.124 1369.67,993.114 1379.6,993.099 1389.53,993.076 
  1399.46,993.045 1409.39,993.003 1419.32,992.948 1429.25,992.877 1439.18,992.788 1449.11,992.678 1459.04,992.543 1468.97,992.38 1478.9,992.186 1488.83,991.956 
  1498.76,991.688 1508.69,991.376 1518.62,991.015 1528.55,990.603 1538.48,990.133 1548.41,989.6 1558.34,989 1568.27,988.325 1578.2,987.572 1588.13,986.734 
  1598.06,985.804 1607.99,984.777 1617.92,983.645 1627.85,982.401 1637.78,981.04 1647.71,979.553 1657.64,977.933 1667.58,976.172 1677.51,974.262 1687.44,972.196 
  1697.37,969.964 1707.3,967.558 1717.23,964.97 1727.16,962.19 1737.09,959.21 1747.02,956.019 1756.95,952.608 1766.88,948.967 1776.81,945.086 1786.74,940.955 
  1796.67,936.563 1806.6,931.9 1816.53,926.954 1826.46,921.714 1836.39,916.17 1846.32,910.308 1856.25,904.118 1866.18,897.587 1876.11,890.704 1886.04,883.454 
  1895.97,875.827 1905.9,867.809 1915.83,859.386 1925.76,850.546 1935.69,841.275 1945.62,831.559 1955.55,821.384 1965.48,810.736 1975.41,799.6 1985.34,787.962 
  1995.27,775.807 2005.2,763.12 2015.13,749.885 2025.06,736.086 2034.99,721.71 2044.92,706.738 2054.85,691.155 2064.78,674.945 2074.71,658.091 2084.64,640.575 
  2094.57,622.383 2104.5,603.494 2114.43,583.894 2124.36,563.562 2134.29,542.483 2144.22,520.637 2154.15,498.006 2164.08,474.572 2174.01,450.316 2183.94,425.218 
  2193.87,399.261 2203.8,372.423 2213.73,344.686 2223.66,316.029 2233.59,286.433 2243.52,255.878 2253.45,224.342 2263.38,191.805 2273.31,158.245 2283.24,123.643 
  2293.17,87.9763 
  "/>
<path clip-path="url(#clip270)" d="
M1997.08 337.138 L2282.58 337.138 L2282.58 95.2176 L1997.08 95.2176  Z
  " fill="#ffffff" fill-rule="evenodd" fill-opacity="1"/>
<polyline clip-path="url(#clip270)" style="stroke:#000000; stroke-width:4; stroke-opacity:1; fill:none" points="
  1997.08,337.138 2282.58,337.138 2282.58,95.2176 1997.08,95.2176 1997.08,337.138 
  "/>
<polyline clip-path="url(#clip270)" style="stroke:#e69f00; stroke-width:4; stroke-opacity:1; fill:none" points="
  2020.47,155.698 2160.81,155.698 
  "/>
<path clip-path="url(#clip270)" d="M 0 0 M2198.05 175.385 Q2196.24 180.015 2194.53 181.427 Q2192.81 182.839 2189.94 182.839 L2186.54 182.839 L2186.54 179.274 L2189.04 179.274 Q2190.8 179.274 2191.77 178.44 Q2192.75 177.607 2193.93 174.505 L2194.69 172.561 L2184.2 147.052 L2188.72 147.052 L2196.82 167.329 L2204.92 147.052 L2209.44 147.052 L2198.05 175.385 Z" fill="#000000" fill-rule="evenodd" fill-opacity="1" /><path clip-path="url(#clip270)" d="M 0 0 M2215.31 169.042 L2222.95 169.042 L2222.95 142.677 L2214.64 144.343 L2214.64 140.084 L2222.91 138.418 L2227.58 138.418 L2227.58 169.042 L2235.22 169.042 L2235.22 172.978 L2215.31 172.978 L2215.31 169.042 Z" fill="#000000" fill-rule="evenodd" fill-opacity="1" /><polyline clip-path="url(#clip270)" style="stroke:#56b4e9; stroke-width:4; stroke-opacity:1; fill:none" points="
  2020.47,216.178 2160.81,216.178 
  "/>
<path clip-path="url(#clip270)" d="M 0 0 M2198.05 235.865 Q2196.24 240.495 2194.53 241.907 Q2192.81 243.319 2189.94 243.319 L2186.54 243.319 L2186.54 239.754 L2189.04 239.754 Q2190.8 239.754 2191.77 238.92 Q2192.75 238.087 2193.93 234.985 L2194.69 233.041 L2184.2 207.532 L2188.72 207.532 L2196.82 227.809 L2204.92 207.532 L2209.44 207.532 L2198.05 235.865 Z" fill="#000000" fill-rule="evenodd" fill-opacity="1" /><path clip-path="url(#clip270)" d="M 0 0 M2218.53 229.522 L2234.85 229.522 L2234.85 233.458 L2212.91 233.458 L2212.91 229.522 Q2215.57 226.768 2220.15 222.138 Q2224.76 217.485 2225.94 216.143 Q2228.19 213.62 2229.06 211.884 Q2229.97 210.124 2229.97 208.435 Q2229.97 205.68 2228.02 203.944 Q2226.1 202.208 2223 202.208 Q2220.8 202.208 2218.35 202.972 Q2215.92 203.735 2213.14 205.286 L2213.14 200.564 Q2215.96 199.43 2218.42 198.851 Q2220.87 198.273 2222.91 198.273 Q2228.28 198.273 2231.47 200.958 Q2234.67 203.643 2234.67 208.134 Q2234.67 210.263 2233.86 212.185 Q2233.07 214.083 2230.96 216.675 Q2230.38 217.347 2227.28 220.564 Q2224.18 223.759 2218.53 229.522 Z" fill="#000000" fill-rule="evenodd" fill-opacity="1" /><polyline clip-path="url(#clip270)" style="stroke:#009e73; stroke-width:4; stroke-opacity:1; fill:none" points="
  2020.47,276.658 2160.81,276.658 
  "/>
<path clip-path="url(#clip270)" d="M 0 0 M2198.05 296.345 Q2196.24 300.975 2194.53 302.387 Q2192.81 303.799 2189.94 303.799 L2186.54 303.799 L2186.54 300.234 L2189.04 300.234 Q2190.8 300.234 2191.77 299.4 Q2192.75 298.567 2193.93 295.465 L2194.69 293.521 L2184.2 268.012 L2188.72 268.012 L2196.82 288.289 L2204.92 268.012 L2209.44 268.012 L2198.05 296.345 Z" fill="#000000" fill-rule="evenodd" fill-opacity="1" /><path clip-path="url(#clip270)" d="M 0 0 M2228.67 275.303 Q2232.03 276.021 2233.9 278.289 Q2235.8 280.558 2235.8 283.891 Q2235.8 289.007 2232.28 291.808 Q2228.76 294.609 2222.28 294.609 Q2220.11 294.609 2217.79 294.169 Q2215.5 293.752 2213.05 292.896 L2213.05 288.382 Q2214.99 289.516 2217.31 290.095 Q2219.62 290.674 2222.14 290.674 Q2226.54 290.674 2228.83 288.938 Q2231.15 287.201 2231.15 283.891 Q2231.15 280.836 2229 279.123 Q2226.87 277.387 2223.05 277.387 L2219.02 277.387 L2219.02 273.544 L2223.23 273.544 Q2226.68 273.544 2228.51 272.178 Q2230.34 270.79 2230.34 268.197 Q2230.34 265.535 2228.44 264.123 Q2226.56 262.688 2223.05 262.688 Q2221.12 262.688 2218.93 263.104 Q2216.73 263.521 2214.09 264.401 L2214.09 260.234 Q2216.75 259.493 2219.06 259.123 Q2221.4 258.753 2223.46 258.753 Q2228.79 258.753 2231.89 261.183 Q2234.99 263.59 2234.99 267.711 Q2234.99 270.581 2233.35 272.572 Q2231.7 274.54 2228.67 275.303 Z" fill="#000000" fill-rule="evenodd" fill-opacity="1" /></svg>
