<?xml version="1.0" encoding="utf-8"?>
<svg xmlns="http://www.w3.org/2000/svg" xmlns:xlink="http://www.w3.org/1999/xlink" width="600" height="400" viewBox="0 0 2400 1600">
<defs>
  <clipPath id="clip580">
    <rect x="0" y="0" width="2400" height="1600"/>
  </clipPath>
</defs>
<path clip-path="url(#clip580)" d="
M0 1600 L2400 1600 L2400 0 L0 0  Z
  " fill="#ffffff" fill-rule="evenodd" fill-opacity="1"/>
<defs>
  <clipPath id="clip581">
    <rect x="480" y="0" width="1681" height="1600"/>
  </clipPath>
</defs>
<path clip-path="url(#clip580)" d="
M156.002 1482.13 L2352.76 1482.13 L2352.76 149.392 L156.002 149.392  Z
  " fill="#ffffff" fill-rule="evenodd" fill-opacity="1"/>
<defs>
  <clipPath id="clip582">
    <rect x="156" y="149" width="2198" height="1334"/>
  </clipPath>
</defs>
<polyline clip-path="url(#clip582)" style="stroke:#000000; stroke-width:2; stroke-opacity:0.1; fill:none" points="
  654.471,1482.13 654.471,149.392 
  "/>
<polyline clip-path="url(#clip582)" style="stroke:#000000; stroke-width:2; stroke-opacity:0.1; fill:none" points="
  1199.84,1482.13 1199.84,149.392 
  "/>
<polyline clip-path="url(#clip582)" style="stroke:#000000; stroke-width:2; stroke-opacity:0.1; fill:none" points="
  1745.21,1482.13 1745.21,149.392 
  "/>
<polyline clip-path="url(#clip582)" style="stroke:#000000; stroke-width:2; stroke-opacity:0.1; fill:none" points="
  2290.58,1482.13 2290.58,149.392 
  "/>
<polyline clip-path="url(#clip580)" style="stroke:#000000; stroke-width:4; stroke-opacity:1; fill:none" points="
  156.002,1482.13 2352.76,1482.13 
  "/>
<polyline clip-path="url(#clip580)" style="stroke:#000000; stroke-width:4; stroke-opacity:1; fill:none" points="
  654.471,1482.13 654.471,1466.14 
  "/>
<polyline clip-path="url(#clip580)" style="stroke:#000000; stroke-width:4; stroke-opacity:1; fill:none" points="
  1199.84,1482.13 1199.84,1466.14 
  "/>
<polyline clip-path="url(#clip580)" style="stroke:#000000; stroke-width:4; stroke-opacity:1; fill:none" points="
  1745.21,1482.13 1745.21,1466.14 
  "/>
<polyline clip-path="url(#clip580)" style="stroke:#000000; stroke-width:4; stroke-opacity:1; fill:none" points="
  2290.58,1482.13 2290.58,1466.14 
  "/>
<path clip-path="url(#clip580)" d="M 0 0 M643.534 1509.1 L664.185 1509.1 L664.185 1513.53 L648.351 1513.53 L648.351 1523.06 Q649.497 1522.67 650.643 1522.49 Q651.789 1522.28 652.935 1522.28 Q659.445 1522.28 663.247 1525.85 Q667.049 1529.42 667.049 1535.51 Q667.049 1541.79 663.143 1545.28 Q659.237 1548.74 652.127 1548.74 Q649.679 1548.74 647.127 1548.32 Q644.601 1547.91 641.893 1547.07 L641.893 1541.79 Q644.237 1543.06 646.737 1543.69 Q649.237 1544.31 652.023 1544.31 Q656.528 1544.31 659.159 1541.94 Q661.789 1539.57 661.789 1535.51 Q661.789 1531.45 659.159 1529.08 Q656.528 1526.71 652.023 1526.71 Q649.914 1526.71 647.804 1527.18 Q645.721 1527.65 643.534 1528.64 L643.534 1509.1 Z" fill="#bebebe" fill-rule="evenodd" fill-opacity="1" /><path clip-path="url(#clip580)" d="M 0 0 M1173.83 1543.56 L1182.42 1543.56 L1182.42 1513.9 L1173.07 1515.77 L1173.07 1510.98 L1182.37 1509.1 L1187.63 1509.1 L1187.63 1543.56 L1196.22 1543.56 L1196.22 1547.98 L1173.83 1547.98 L1173.83 1543.56 Z" fill="#bebebe" fill-rule="evenodd" fill-opacity="1" /><path clip-path="url(#clip580)" d="M 0 0 M1213.18 1512.57 Q1209.11 1512.57 1207.06 1516.58 Q1205.02 1520.56 1205.02 1528.58 Q1205.02 1536.58 1207.06 1540.59 Q1209.11 1544.57 1213.18 1544.57 Q1217.26 1544.57 1219.29 1540.59 Q1221.35 1536.58 1221.35 1528.58 Q1221.35 1520.56 1219.29 1516.58 Q1217.26 1512.57 1213.18 1512.57 M1213.18 1508.4 Q1219.71 1508.4 1223.15 1513.58 Q1226.61 1518.74 1226.61 1528.58 Q1226.61 1538.4 1223.15 1543.58 Q1219.71 1548.74 1213.18 1548.74 Q1206.64 1548.74 1203.18 1543.58 Q1199.74 1538.4 1199.74 1528.58 Q1199.74 1518.74 1203.18 1513.58 Q1206.64 1508.4 1213.18 1508.4 Z" fill="#bebebe" fill-rule="evenodd" fill-opacity="1" /><path clip-path="url(#clip580)" d="M 0 0 M1719.76 1543.56 L1728.35 1543.56 L1728.35 1513.9 L1719 1515.77 L1719 1510.98 L1728.3 1509.1 L1733.56 1509.1 L1733.56 1543.56 L1742.15 1543.56 L1742.15 1547.98 L1719.76 1547.98 L1719.76 1543.56 Z" fill="#bebebe" fill-rule="evenodd" fill-opacity="1" /><path clip-path="url(#clip580)" d="M 0 0 M1747.91 1509.1 L1768.56 1509.1 L1768.56 1513.53 L1752.73 1513.53 L1752.73 1523.06 Q1753.87 1522.67 1755.02 1522.49 Q1756.16 1522.28 1757.31 1522.28 Q1763.82 1522.28 1767.62 1525.85 Q1771.42 1529.42 1771.42 1535.51 Q1771.42 1541.79 1767.52 1545.28 Q1763.61 1548.74 1756.5 1548.74 Q1754.05 1548.74 1751.5 1548.32 Q1748.98 1547.91 1746.27 1547.07 L1746.27 1541.79 Q1748.61 1543.06 1751.11 1543.69 Q1753.61 1544.31 1756.4 1544.31 Q1760.9 1544.31 1763.53 1541.94 Q1766.16 1539.57 1766.16 1535.51 Q1766.16 1531.45 1763.53 1529.08 Q1760.9 1526.71 1756.4 1526.71 Q1754.29 1526.71 1752.18 1527.18 Q1750.1 1527.65 1747.91 1528.64 L1747.91 1509.1 Z" fill="#bebebe" fill-rule="evenodd" fill-opacity="1" /><path clip-path="url(#clip580)" d="M 0 0 M2269.37 1543.56 L2287.73 1543.56 L2287.73 1547.98 L2263.04 1547.98 L2263.04 1543.56 Q2266.04 1540.46 2271.2 1535.25 Q2276.38 1530.02 2277.71 1528.5 Q2280.23 1525.67 2281.22 1523.71 Q2282.24 1521.73 2282.24 1519.83 Q2282.24 1516.73 2280.05 1514.78 Q2277.89 1512.83 2274.4 1512.83 Q2271.92 1512.83 2269.16 1513.69 Q2266.43 1514.55 2263.31 1516.29 L2263.31 1510.98 Q2266.48 1509.7 2269.24 1509.05 Q2272 1508.4 2274.29 1508.4 Q2280.34 1508.4 2283.93 1511.42 Q2287.52 1514.44 2287.52 1519.49 Q2287.52 1521.89 2286.61 1524.05 Q2285.73 1526.19 2283.36 1529.1 Q2282.71 1529.86 2279.22 1533.48 Q2275.73 1537.07 2269.37 1543.56 Z" fill="#bebebe" fill-rule="evenodd" fill-opacity="1" /><path clip-path="url(#clip580)" d="M 0 0 M2304.69 1512.57 Q2300.62 1512.57 2298.57 1516.58 Q2296.53 1520.56 2296.53 1528.58 Q2296.53 1536.58 2298.57 1540.59 Q2300.62 1544.57 2304.69 1544.57 Q2308.77 1544.57 2310.8 1540.59 Q2312.86 1536.58 2312.86 1528.58 Q2312.86 1520.56 2310.8 1516.58 Q2308.77 1512.57 2304.69 1512.57 M2304.69 1508.4 Q2311.22 1508.4 2314.66 1513.58 Q2318.12 1518.74 2318.12 1528.58 Q2318.12 1538.4 2314.66 1543.58 Q2311.22 1548.74 2304.69 1548.74 Q2298.15 1548.74 2294.69 1543.58 Q2291.25 1538.4 2291.25 1528.58 Q2291.25 1518.74 2294.69 1513.58 Q2298.15 1508.4 2304.69 1508.4 Z" fill="#bebebe" fill-rule="evenodd" fill-opacity="1" /><polyline clip-path="url(#clip582)" style="stroke:#000000; stroke-width:2; stroke-opacity:0.1; fill:none" points="
  156.002,1249.92 2352.76,1249.92 
  "/>
<polyline clip-path="url(#clip582)" style="stroke:#000000; stroke-width:2; stroke-opacity:0.1; fill:none" points="
  156.002,977.906 2352.76,977.906 
  "/>
<polyline clip-path="url(#clip582)" style="stroke:#000000; stroke-width:2; stroke-opacity:0.1; fill:none" points="
  156.002,705.894 2352.76,705.894 
  "/>
<polyline clip-path="url(#clip582)" style="stroke:#000000; stroke-width:2; stroke-opacity:0.1; fill:none" points="
  156.002,433.882 2352.76,433.882 
  "/>
<polyline clip-path="url(#clip582)" style="stroke:#000000; stroke-width:2; stroke-opacity:0.1; fill:none" points="
  156.002,161.87 2352.76,161.87 
  "/>
<polyline clip-path="url(#clip580)" style="stroke:#000000; stroke-width:4; stroke-opacity:1; fill:none" points="
  156.002,1482.13 156.002,149.392 
  "/>
<polyline clip-path="url(#clip580)" style="stroke:#000000; stroke-width:4; stroke-opacity:1; fill:none" points="
  156.002,1249.92 182.363,1249.92 
  "/>
<polyline clip-path="url(#clip580)" style="stroke:#000000; stroke-width:4; stroke-opacity:1; fill:none" points="
  156.002,977.906 182.363,977.906 
  "/>
<polyline clip-path="url(#clip580)" style="stroke:#000000; stroke-width:4; stroke-opacity:1; fill:none" points="
  156.002,705.894 182.363,705.894 
  "/>
<polyline clip-path="url(#clip580)" style="stroke:#000000; stroke-width:4; stroke-opacity:1; fill:none" points="
  156.002,433.882 182.363,433.882 
  "/>
<polyline clip-path="url(#clip580)" style="stroke:#000000; stroke-width:4; stroke-opacity:1; fill:none" points="
  156.002,161.87 182.363,161.87 
  "/>
<path clip-path="url(#clip580)" d="M 0 0 M66.7733 1233.94 Q62.7108 1233.94 60.6535 1237.95 Q58.6223 1241.94 58.6223 1249.96 Q58.6223 1257.95 60.6535 1261.96 Q62.7108 1265.95 66.7733 1265.95 Q70.8618 1265.95 72.8931 1261.96 Q74.9503 1257.95 74.9503 1249.96 Q74.9503 1241.94 72.8931 1237.95 Q70.8618 1233.94 66.7733 1233.94 M66.7733 1229.78 Q73.3097 1229.78 76.7472 1234.96 Q80.2107 1240.11 80.2107 1249.96 Q80.2107 1259.78 76.7472 1264.96 Q73.3097 1270.11 66.7733 1270.11 Q60.2369 1270.11 56.7733 1264.96 Q53.3359 1259.78 53.3359 1249.96 Q53.3359 1240.11 56.7733 1234.96 Q60.2369 1229.78 66.7733 1229.78 Z" fill="#bebebe" fill-rule="evenodd" fill-opacity="1" /><path clip-path="url(#clip580)" d="M 0 0 M85.9138 1262.74 L91.4086 1262.74 L91.4086 1269.36 L85.9138 1269.36 L85.9138 1262.74 Z" fill="#bebebe" fill-rule="evenodd" fill-opacity="1" /><path clip-path="url(#clip580)" d="M 0 0 M101.643 1264.93 L120.002 1264.93 L120.002 1269.36 L95.3148 1269.36 L95.3148 1264.93 Q98.3096 1261.83 103.466 1256.62 Q108.648 1251.39 109.976 1249.88 Q112.502 1247.04 113.492 1245.09 Q114.507 1243.11 114.507 1241.21 Q114.507 1238.11 112.32 1236.16 Q110.158 1234.2 106.669 1234.2 Q104.195 1234.2 101.435 1235.06 Q98.7002 1235.92 95.5752 1237.67 L95.5752 1232.35 Q98.7523 1231.08 101.513 1230.43 Q104.273 1229.78 106.565 1229.78 Q112.606 1229.78 116.2 1232.8 Q119.794 1235.82 119.794 1240.87 Q119.794 1243.26 118.882 1245.43 Q117.997 1247.56 115.627 1250.48 Q114.976 1251.23 111.487 1254.85 Q107.997 1258.45 101.643 1264.93 Z" fill="#bebebe" fill-rule="evenodd" fill-opacity="1" /><path clip-path="url(#clip580)" d="M 0 0 M64.4296 961.93 Q60.3671 961.93 58.3098 965.94 Q56.2786 969.925 56.2786 977.945 Q56.2786 985.94 58.3098 989.95 Q60.3671 993.935 64.4296 993.935 Q68.5181 993.935 70.5493 989.95 Q72.6066 985.94 72.6066 977.945 Q72.6066 969.925 70.5493 965.94 Q68.5181 961.93 64.4296 961.93 M64.4296 957.763 Q70.966 957.763 74.4035 962.945 Q77.867 968.102 77.867 977.945 Q77.867 987.763 74.4035 992.945 Q70.966 998.101 64.4296 998.101 Q57.8931 998.101 54.4296 992.945 Q50.9921 987.763 50.9921 977.945 Q50.9921 968.102 54.4296 962.945 Q57.8931 957.763 64.4296 957.763 Z" fill="#bebebe" fill-rule="evenodd" fill-opacity="1" /><path clip-path="url(#clip580)" d="M 0 0 M83.5701 990.732 L89.0648 990.732 L89.0648 997.346 L83.5701 997.346 L83.5701 990.732 Z" fill="#bebebe" fill-rule="evenodd" fill-opacity="1" /><path clip-path="url(#clip580)" d="M 0 0 M109.221 963.05 L95.9398 983.805 L109.221 983.805 L109.221 963.05 M107.841 958.466 L114.455 958.466 L114.455 983.805 L120.002 983.805 L120.002 988.18 L114.455 988.18 L114.455 997.346 L109.221 997.346 L109.221 988.18 L91.669 988.18 L91.669 983.102 L107.841 958.466 Z" fill="#bebebe" fill-rule="evenodd" fill-opacity="1" /><path clip-path="url(#clip580)" d="M 0 0 M64.7941 689.918 Q60.7317 689.918 58.6744 693.928 Q56.6431 697.912 56.6431 705.933 Q56.6431 713.928 58.6744 717.938 Q60.7317 721.923 64.7941 721.923 Q68.8827 721.923 70.9139 717.938 Q72.9712 713.928 72.9712 705.933 Q72.9712 697.912 70.9139 693.928 Q68.8827 689.918 64.7941 689.918 M64.7941 685.751 Q71.3306 685.751 74.768 690.933 Q78.2316 696.089 78.2316 705.933 Q78.2316 715.751 74.768 720.933 Q71.3306 726.089 64.7941 726.089 Q58.2577 726.089 54.7942 720.933 Q51.3567 715.751 51.3567 705.933 Q51.3567 696.089 54.7942 690.933 Q58.2577 685.751 64.7941 685.751 Z" fill="#bebebe" fill-rule="evenodd" fill-opacity="1" /><path clip-path="url(#clip580)" d="M 0 0 M83.9347 718.72 L89.4294 718.72 L89.4294 725.334 L83.9347 725.334 L83.9347 718.72 Z" fill="#bebebe" fill-rule="evenodd" fill-opacity="1" /><path clip-path="url(#clip580)" d="M 0 0 M107.033 703.798 Q103.492 703.798 101.409 706.22 Q99.3512 708.641 99.3512 712.86 Q99.3512 717.053 101.409 719.501 Q103.492 721.923 107.033 721.923 Q110.575 721.923 112.632 719.501 Q114.716 717.053 114.716 712.86 Q114.716 708.641 112.632 706.22 Q110.575 703.798 107.033 703.798 M117.476 687.313 L117.476 692.105 Q115.497 691.168 113.466 690.673 Q111.461 690.178 109.481 690.178 Q104.273 690.178 101.513 693.694 Q98.7783 697.209 98.3877 704.319 Q99.9242 702.053 102.242 700.855 Q104.56 699.631 107.346 699.631 Q113.205 699.631 116.591 703.199 Q120.002 706.74 120.002 712.86 Q120.002 718.85 116.461 722.469 Q112.919 726.089 107.033 726.089 Q100.289 726.089 96.721 720.933 Q93.1534 715.751 93.1534 705.933 Q93.1534 696.714 97.5283 691.246 Q101.903 685.751 109.273 685.751 Q111.252 685.751 113.257 686.142 Q115.289 686.532 117.476 687.313 Z" fill="#bebebe" fill-rule="evenodd" fill-opacity="1" /><path clip-path="url(#clip580)" d="M 0 0 M65.0806 417.905 Q61.0181 417.905 58.9608 421.916 Q56.9296 425.9 56.9296 433.921 Q56.9296 441.916 58.9608 445.926 Q61.0181 449.91 65.0806 449.91 Q69.1691 449.91 71.2004 445.926 Q73.2576 441.916 73.2576 433.921 Q73.2576 425.9 71.2004 421.916 Q69.1691 417.905 65.0806 417.905 M65.0806 413.739 Q71.617 413.739 75.0545 418.921 Q78.518 424.077 78.518 433.921 Q78.518 443.739 75.0545 448.921 Q71.617 454.077 65.0806 454.077 Q58.5442 454.077 55.0806 448.921 Q51.6432 443.739 51.6432 433.921 Q51.6432 424.077 55.0806 418.921 Q58.5442 413.739 65.0806 413.739 Z" fill="#bebebe" fill-rule="evenodd" fill-opacity="1" /><path clip-path="url(#clip580)" d="M 0 0 M84.2211 446.707 L89.7159 446.707 L89.7159 453.322 L84.2211 453.322 L84.2211 446.707 Z" fill="#bebebe" fill-rule="evenodd" fill-opacity="1" /><path clip-path="url(#clip580)" d="M 0 0 M106.669 434.858 Q102.919 434.858 100.757 436.864 Q98.6221 438.869 98.6221 442.384 Q98.6221 445.9 100.757 447.905 Q102.919 449.91 106.669 449.91 Q110.419 449.91 112.58 447.905 Q114.742 445.874 114.742 442.384 Q114.742 438.869 112.58 436.864 Q110.445 434.858 106.669 434.858 M101.409 432.619 Q98.0231 431.786 96.1221 429.468 Q94.2471 427.15 94.2471 423.817 Q94.2471 419.155 97.5544 416.447 Q100.888 413.739 106.669 413.739 Q112.476 413.739 115.783 416.447 Q119.091 419.155 119.091 423.817 Q119.091 427.15 117.19 429.468 Q115.315 431.786 111.955 432.619 Q115.757 433.504 117.867 436.082 Q120.002 438.66 120.002 442.384 Q120.002 448.035 116.539 451.056 Q113.101 454.077 106.669 454.077 Q100.237 454.077 96.7731 451.056 Q93.3356 448.035 93.3356 442.384 Q93.3356 438.66 95.4711 436.082 Q97.6065 433.504 101.409 432.619 M99.4814 424.312 Q99.4814 427.332 101.356 429.025 Q103.257 430.718 106.669 430.718 Q110.054 430.718 111.955 429.025 Q113.882 427.332 113.882 424.312 Q113.882 421.291 111.955 419.598 Q110.054 417.905 106.669 417.905 Q103.257 417.905 101.356 419.598 Q99.4814 421.291 99.4814 424.312 Z" fill="#bebebe" fill-rule="evenodd" fill-opacity="1" /><path clip-path="url(#clip580)" d="M 0 0 M56.0181 176.883 L64.6118 176.883 L64.6118 147.221 L55.2629 149.096 L55.2629 144.305 L64.5598 142.43 L69.8202 142.43 L69.8202 176.883 L78.4139 176.883 L78.4139 181.31 L56.0181 181.31 L56.0181 176.883 Z" fill="#bebebe" fill-rule="evenodd" fill-opacity="1" /><path clip-path="url(#clip580)" d="M 0 0 M84.1169 174.695 L89.6117 174.695 L89.6117 181.31 L84.1169 181.31 L84.1169 174.695 Z" fill="#bebebe" fill-rule="evenodd" fill-opacity="1" /><path clip-path="url(#clip580)" d="M 0 0 M106.565 145.893 Q102.502 145.893 100.445 149.904 Q98.4137 153.888 98.4137 161.909 Q98.4137 169.903 100.445 173.914 Q102.502 177.898 106.565 177.898 Q110.653 177.898 112.685 173.914 Q114.742 169.903 114.742 161.909 Q114.742 153.888 112.685 149.904 Q110.653 145.893 106.565 145.893 M106.565 141.727 Q113.101 141.727 116.539 146.909 Q120.002 152.065 120.002 161.909 Q120.002 171.726 116.539 176.909 Q113.101 182.065 106.565 182.065 Q100.028 182.065 96.5648 176.909 Q93.1273 171.726 93.1273 161.909 Q93.1273 152.065 96.5648 146.909 Q100.028 141.727 106.565 141.727 Z" fill="#bebebe" fill-rule="evenodd" fill-opacity="1" /><path clip-path="url(#clip580)" d="M 0 0 M948.507 20.1156 L948.507 31.516 Q941.852 28.3332 935.949 26.7707 Q930.046 25.2082 924.549 25.2082 Q915 25.2082 909.792 28.9119 Q904.641 32.6156 904.641 39.4442 Q904.641 45.1734 908.056 48.1247 Q911.528 51.0182 921.134 52.8122 L928.194 54.259 Q941.273 56.7474 947.465 63.0552 Q953.715 69.3052 953.715 79.8375 Q953.715 92.3953 945.266 98.8768 Q936.875 105.358 920.613 105.358 Q914.479 105.358 907.535 103.969 Q900.648 102.58 893.241 99.8606 L893.241 87.8236 Q900.359 91.8166 907.188 93.8421 Q914.016 95.8675 920.613 95.8675 Q930.625 95.8675 936.065 91.9324 Q941.505 87.9972 941.505 80.7056 Q941.505 74.3399 937.569 70.7519 Q933.692 67.164 924.78 65.37 L917.662 63.9811 Q904.583 61.377 898.739 55.8215 Q892.894 50.2659 892.894 40.3702 Q892.894 28.9119 900.938 22.3147 Q909.039 15.7175 923.218 15.7175 Q929.294 15.7175 935.602 16.817 Q941.91 17.9166 948.507 20.1156 Z" fill="#bebebe" fill-rule="evenodd" fill-opacity="1" /><path clip-path="url(#clip580)" d="M 0 0 M1020.32 68.6107 L1020.32 73.819 L971.366 73.819 Q972.06 84.8144 977.963 90.6014 Q983.923 96.3305 994.514 96.3305 Q1000.65 96.3305 1006.38 94.8259 Q1012.16 93.3213 1017.84 90.312 L1017.84 100.381 Q1012.11 102.812 1006.09 104.085 Q1000.07 105.358 993.877 105.358 Q978.368 105.358 969.282 96.3305 Q960.254 87.3028 960.254 71.9093 Q960.254 55.9951 968.819 46.678 Q977.442 37.303 992.025 37.303 Q1005.1 37.303 1012.68 45.7521 Q1020.32 54.1432 1020.32 68.6107 M1009.68 65.4858 Q1009.56 56.7474 1004.76 51.5391 Q1000.01 46.3308 992.141 46.3308 Q983.229 46.3308 977.847 51.3655 Q972.523 56.4002 971.713 65.5436 L1009.68 65.4858 Z" fill="#bebebe" fill-rule="evenodd" fill-opacity="1" /><path clip-path="url(#clip580)" d="M 0 0 M1069.05 48.8192 Q1067.26 47.7775 1065.12 47.3146 Q1063.03 46.7937 1060.49 46.7937 Q1051.46 46.7937 1046.6 52.6965 Q1041.79 58.5414 1041.79 69.5367 L1041.79 103.68 L1031.09 103.68 L1031.09 38.8655 L1041.79 38.8655 L1041.79 48.9349 Q1045.15 43.0322 1050.53 40.1965 Q1055.91 37.303 1063.61 37.303 Q1064.71 37.303 1066.04 37.4767 Q1067.37 37.5924 1068.99 37.8817 L1069.05 48.8192 Z" fill="#bebebe" fill-rule="evenodd" fill-opacity="1" /><path clip-path="url(#clip580)" d="M 0 0 M1080.22 38.8655 L1090.87 38.8655 L1090.87 103.68 L1080.22 103.68 L1080.22 38.8655 M1080.22 13.6342 L1090.87 13.6342 L1090.87 27.1179 L1080.22 27.1179 L1080.22 13.6342 Z" fill="#bebebe" fill-rule="evenodd" fill-opacity="1" /><path clip-path="url(#clip580)" d="M 0 0 M1157.48 68.6107 L1157.48 73.819 L1108.52 73.819 Q1109.21 84.8144 1115.11 90.6014 Q1121.08 96.3305 1131.67 96.3305 Q1137.8 96.3305 1143.53 94.8259 Q1149.32 93.3213 1154.99 90.312 L1154.99 100.381 Q1149.26 102.812 1143.24 104.085 Q1137.22 105.358 1131.03 105.358 Q1115.52 105.358 1106.43 96.3305 Q1097.41 87.3028 1097.41 71.9093 Q1097.41 55.9951 1105.97 46.678 Q1114.59 37.303 1129.18 37.303 Q1142.26 37.303 1149.84 45.7521 Q1157.48 54.1432 1157.48 68.6107 M1146.83 65.4858 Q1146.71 56.7474 1141.91 51.5391 Q1137.16 46.3308 1129.29 46.3308 Q1120.38 46.3308 1115 51.3655 Q1109.67 56.4002 1108.86 65.5436 L1146.83 65.4858 Z" fill="#bebebe" fill-rule="evenodd" fill-opacity="1" /><path clip-path="url(#clip580)" d="M 0 0 M1216.39 17.28 L1216.39 49.3979 L1206.55 49.3979 L1206.55 17.28 L1216.39 17.28 Z" fill="#bebebe" fill-rule="evenodd" fill-opacity="1" /><path clip-path="url(#clip580)" d="M 0 0 M1268.88 40.7752 L1268.88 50.8446 Q1264.36 48.5298 1259.5 47.3724 Q1254.64 46.215 1249.43 46.215 Q1241.5 46.215 1237.51 48.6456 Q1233.57 51.0761 1233.57 55.9372 Q1233.57 59.6409 1236.41 61.7821 Q1239.25 63.8654 1247.81 65.7751 L1251.46 66.5853 Q1262.8 69.0158 1267.54 73.4718 Q1272.35 77.87 1272.35 85.7982 Q1272.35 94.8259 1265.17 100.092 Q1258.05 105.358 1245.55 105.358 Q1240.35 105.358 1234.67 104.317 Q1229.06 103.333 1222.81 101.307 L1222.81 90.312 Q1228.71 93.3791 1234.44 94.9416 Q1240.17 96.4462 1245.79 96.4462 Q1253.31 96.4462 1257.36 93.9 Q1261.41 91.2958 1261.41 86.6083 Q1261.41 82.2681 1258.46 79.9533 Q1255.57 77.6385 1245.67 75.4973 L1241.97 74.6292 Q1232.07 72.5459 1227.67 68.2635 Q1223.27 63.9233 1223.27 56.4002 Q1223.27 47.2567 1229.76 42.2799 Q1236.24 37.303 1248.16 37.303 Q1254.06 37.303 1259.27 38.1711 Q1264.48 39.0391 1268.88 40.7752 Z" fill="#bebebe" fill-rule="evenodd" fill-opacity="1" /><path clip-path="url(#clip580)" d="M 0 0 M1330.16 41.3539 L1330.16 51.3076 Q1325.65 48.8192 1321.07 47.6039 Q1316.56 46.3308 1311.93 46.3308 Q1301.57 46.3308 1295.84 52.928 Q1290.11 59.4673 1290.11 71.3306 Q1290.11 83.194 1295.84 89.7912 Q1301.57 96.3305 1311.93 96.3305 Q1316.56 96.3305 1321.07 95.1152 Q1325.65 93.8421 1330.16 91.3537 L1330.16 101.192 Q1325.7 103.275 1320.9 104.317 Q1316.16 105.358 1310.77 105.358 Q1296.13 105.358 1287.51 96.1569 Q1278.89 86.9556 1278.89 71.3306 Q1278.89 55.4742 1287.57 46.3886 Q1296.31 37.303 1311.47 37.303 Q1316.39 37.303 1321.07 38.3447 Q1325.76 39.3285 1330.16 41.3539 Z" fill="#bebebe" fill-rule="evenodd" fill-opacity="1" /><path clip-path="url(#clip580)" d="M 0 0 M1370.78 71.0992 Q1357.88 71.0992 1352.9 74.0505 Q1347.93 77.0019 1347.93 84.1199 Q1347.93 89.7912 1351.63 93.1476 Q1355.39 96.4462 1361.81 96.4462 Q1370.67 96.4462 1375.99 90.1963 Q1381.37 83.8884 1381.37 73.4718 L1381.37 71.0992 L1370.78 71.0992 M1392.02 66.701 L1392.02 103.68 L1381.37 103.68 L1381.37 93.8421 Q1377.73 99.7448 1372.29 102.58 Q1366.85 105.358 1358.98 105.358 Q1349.03 105.358 1343.12 99.8027 Q1337.28 94.1893 1337.28 84.8144 Q1337.28 73.8769 1344.57 68.3214 Q1351.92 62.7659 1366.44 62.7659 L1381.37 62.7659 L1381.37 61.7242 Q1381.37 54.3747 1376.51 50.3817 Q1371.71 46.3308 1362.97 46.3308 Q1357.42 46.3308 1352.15 47.6618 Q1346.88 48.9928 1342.02 51.6548 L1342.02 41.8169 Q1347.87 39.56 1353.37 38.4604 Q1358.86 37.303 1364.07 37.303 Q1378.13 37.303 1385.08 44.5947 Q1392.02 51.8863 1392.02 66.701 Z" fill="#bebebe" fill-rule="evenodd" fill-opacity="1" /><path clip-path="url(#clip580)" d="M 0 0 M1413.72 20.4629 L1413.72 38.8655 L1435.66 38.8655 L1435.66 47.141 L1413.72 47.141 L1413.72 82.3259 Q1413.72 90.2541 1415.87 92.5111 Q1418.06 94.768 1424.72 94.768 L1435.66 94.768 L1435.66 103.68 L1424.72 103.68 Q1412.39 103.68 1407.71 99.1083 Q1403.02 94.4787 1403.02 82.3259 L1403.02 47.141 L1395.21 47.141 L1395.21 38.8655 L1403.02 38.8655 L1403.02 20.4629 L1413.72 20.4629 Z" fill="#bebebe" fill-rule="evenodd" fill-opacity="1" /><path clip-path="url(#clip580)" d="M 0 0 M1457.36 20.4629 L1457.36 38.8655 L1479.29 38.8655 L1479.29 47.141 L1457.36 47.141 L1457.36 82.3259 Q1457.36 90.2541 1459.5 92.5111 Q1461.7 94.768 1468.35 94.768 L1479.29 94.768 L1479.29 103.68 L1468.35 103.68 Q1456.03 103.68 1451.34 99.1083 Q1446.65 94.4787 1446.65 82.3259 L1446.65 47.141 L1438.84 47.141 L1438.84 38.8655 L1446.65 38.8655 L1446.65 20.4629 L1457.36 20.4629 Z" fill="#bebebe" fill-rule="evenodd" fill-opacity="1" /><path clip-path="url(#clip580)" d="M 0 0 M1545.9 68.6107 L1545.9 73.819 L1496.94 73.819 Q1497.64 84.8144 1503.54 90.6014 Q1509.5 96.3305 1520.09 96.3305 Q1526.22 96.3305 1531.95 94.8259 Q1537.74 93.3213 1543.41 90.312 L1543.41 100.381 Q1537.68 102.812 1531.66 104.085 Q1525.64 105.358 1519.45 105.358 Q1503.94 105.358 1494.86 96.3305 Q1485.83 87.3028 1485.83 71.9093 Q1485.83 55.9951 1494.4 46.678 Q1503.02 37.303 1517.6 37.303 Q1530.68 37.303 1538.26 45.7521 Q1545.9 54.1432 1545.9 68.6107 M1535.25 65.4858 Q1535.14 56.7474 1530.33 51.5391 Q1525.59 46.3308 1517.72 46.3308 Q1508.8 46.3308 1503.42 51.3655 Q1498.1 56.4002 1497.29 65.5436 L1535.25 65.4858 Z" fill="#bebebe" fill-rule="evenodd" fill-opacity="1" /><path clip-path="url(#clip580)" d="M 0 0 M1594.63 48.8192 Q1592.83 47.7775 1590.69 47.3146 Q1588.61 46.7937 1586.06 46.7937 Q1577.03 46.7937 1572.17 52.6965 Q1567.37 58.5414 1567.37 69.5367 L1567.37 103.68 L1556.66 103.68 L1556.66 38.8655 L1567.37 38.8655 L1567.37 48.9349 Q1570.73 43.0322 1576.11 40.1965 Q1581.49 37.303 1589.19 37.303 Q1590.29 37.303 1591.62 37.4767 Q1592.95 37.5924 1594.57 37.8817 L1594.63 48.8192 Z" fill="#bebebe" fill-rule="evenodd" fill-opacity="1" /><path clip-path="url(#clip580)" d="M 0 0 M1615.86 17.28 L1615.86 49.3979 L1606.03 49.3979 L1606.03 17.28 L1615.86 17.28 Z" fill="#bebebe" fill-rule="evenodd" fill-opacity="1" /><path clip-path="url(#clip582)" d="M218.174 975.935 L215.354 984.047 L206.762 984.227 L213.614 989.423 L211.118 997.643 L218.174 992.735 L225.23 997.643 L222.734 989.423 L229.586 984.227 L220.994 984.047 L218.174 975.935 Z" fill="#ffa500" fill-rule="evenodd" fill-opacity="0.5" stroke="#ff0000" stroke-opacity="0.5" stroke-width="3.2"/>
<path clip-path="url(#clip582)" d="M327.249 1037.41 L324.429 1045.52 L315.837 1045.7 L322.689 1050.9 L320.193 1059.12 L327.249 1054.21 L334.305 1059.12 L331.809 1050.9 L338.661 1045.7 L330.069 1045.52 L327.249 1037.41 Z" fill="#ffa500" fill-rule="evenodd" fill-opacity="0.5" stroke="#ff0000" stroke-opacity="0.5" stroke-width="3.2"/>
<path clip-path="url(#clip582)" d="M436.323 1285.66 L433.503 1293.78 L424.911 1293.96 L431.763 1299.15 L429.267 1307.37 L436.323 1302.46 L443.379 1307.37 L440.883 1299.15 L447.735 1293.96 L439.143 1293.78 L436.323 1285.66 Z" fill="#ffa500" fill-rule="evenodd" fill-opacity="0.5" stroke="#ff0000" stroke-opacity="0.5" stroke-width="3.2"/>
<path clip-path="url(#clip582)" d="M545.397 1033.86 L542.577 1041.97 L533.985 1042.15 L540.837 1047.35 L538.341 1055.57 L545.397 1050.66 L552.453 1055.57 L549.957 1047.35 L556.809 1042.15 L548.217 1041.97 L545.397 1033.86 Z" fill="#ffa500" fill-rule="evenodd" fill-opacity="0.5" stroke="#ff0000" stroke-opacity="0.5" stroke-width="3.2"/>
<path clip-path="url(#clip582)" d="M654.471 1228.75 L651.651 1236.86 L643.059 1237.04 L649.911 1242.23 L647.415 1250.45 L654.471 1245.55 L661.527 1250.45 L659.031 1242.23 L665.883 1237.04 L657.291 1236.86 L654.471 1228.75 Z" fill="#ffa500" fill-rule="evenodd" fill-opacity="0.5" stroke="#ff0000" stroke-opacity="0.5" stroke-width="3.2"/>
<path clip-path="url(#clip582)" d="M763.545 277.987 L760.725 286.099 L752.133 286.279 L758.985 291.475 L756.489 299.695 L763.545 294.787 L770.601 299.695 L768.105 291.475 L774.957 286.279 L766.365 286.099 L763.545 277.987 Z" fill="#ffa500" fill-rule="evenodd" fill-opacity="0.5" stroke="#ff0000" stroke-opacity="0.5" stroke-width="3.2"/>
<path clip-path="url(#clip582)" d="M872.619 1345.77 L869.799 1353.89 L861.207 1354.07 L868.059 1359.26 L865.563 1367.48 L872.619 1362.57 L879.675 1367.48 L877.179 1359.26 L884.031 1354.07 L875.439 1353.89 L872.619 1345.77 Z" fill="#ffa500" fill-rule="evenodd" fill-opacity="0.5" stroke="#ff0000" stroke-opacity="0.5" stroke-width="3.2"/>
<path clip-path="url(#clip582)" d="M981.694 1404.61 L978.874 1412.72 L970.282 1412.9 L977.134 1418.1 L974.638 1426.32 L981.694 1421.41 L988.75 1426.32 L986.254 1418.1 L993.106 1412.9 L984.514 1412.72 L981.694 1404.61 Z" fill="#ffa500" fill-rule="evenodd" fill-opacity="0.5" stroke="#ff0000" stroke-opacity="0.5" stroke-width="3.2"/>
<path clip-path="url(#clip582)" d="M1090.77 175.111 L1087.95 183.223 L1079.36 183.403 L1086.21 188.599 L1083.71 196.819 L1090.77 191.911 L1097.82 196.819 L1095.33 188.599 L1102.18 183.403 L1093.59 183.223 L1090.77 175.111 Z" fill="#ffa500" fill-rule="evenodd" fill-opacity="0.5" stroke="#ff0000" stroke-opacity="0.5" stroke-width="3.2"/>
<path clip-path="url(#clip582)" d="M1199.84 757.448 L1197.02 765.56 L1188.43 765.74 L1195.28 770.936 L1192.79 779.156 L1199.84 774.248 L1206.9 779.156 L1204.4 770.936 L1211.25 765.74 L1202.66 765.56 L1199.84 757.448 Z" fill="#ffa500" fill-rule="evenodd" fill-opacity="0.5" stroke="#ff0000" stroke-opacity="0.5" stroke-width="3.2"/>
<path clip-path="url(#clip582)" d="M1308.92 1379.82 L1306.1 1387.93 L1297.5 1388.11 L1304.36 1393.31 L1301.86 1401.53 L1308.92 1396.62 L1315.97 1401.53 L1313.48 1393.31 L1320.33 1388.11 L1311.74 1387.93 L1308.92 1379.82 Z" fill="#ffa500" fill-rule="evenodd" fill-opacity="0.5" stroke="#ff0000" stroke-opacity="0.5" stroke-width="3.2"/>
<path clip-path="url(#clip582)" d="M1417.99 1255.81 L1415.17 1263.93 L1406.58 1264.11 L1413.43 1269.3 L1410.93 1277.52 L1417.99 1272.61 L1425.05 1277.52 L1422.55 1269.3 L1429.4 1264.11 L1420.81 1263.93 L1417.99 1255.81 Z" fill="#ffa500" fill-rule="evenodd" fill-opacity="0.5" stroke="#ff0000" stroke-opacity="0.5" stroke-width="3.2"/>
<path clip-path="url(#clip582)" d="M1527.06 1288.89 L1524.24 1297 L1515.65 1297.18 L1522.5 1302.37 L1520.01 1310.59 L1527.06 1305.69 L1534.12 1310.59 L1531.62 1302.37 L1538.48 1297.18 L1529.88 1297 L1527.06 1288.89 Z" fill="#ffa500" fill-rule="evenodd" fill-opacity="0.5" stroke="#ff0000" stroke-opacity="0.5" stroke-width="3.2"/>
<path clip-path="url(#clip582)" d="M1636.14 569.69 L1633.32 577.802 L1624.73 577.982 L1631.58 583.178 L1629.08 591.398 L1636.14 586.49 L1643.19 591.398 L1640.7 583.178 L1647.55 577.982 L1638.96 577.802 L1636.14 569.69 Z" fill="#ffa500" fill-rule="evenodd" fill-opacity="0.5" stroke="#ff0000" stroke-opacity="0.5" stroke-width="3.2"/>
<path clip-path="url(#clip582)" d="M1745.21 828.446 L1742.39 836.558 L1733.8 836.738 L1740.65 841.934 L1738.16 850.154 L1745.21 845.246 L1752.27 850.154 L1749.77 841.934 L1756.62 836.738 L1748.03 836.558 L1745.21 828.446 Z" fill="#ffa500" fill-rule="evenodd" fill-opacity="0.5" stroke="#ff0000" stroke-opacity="0.5" stroke-width="3.2"/>
<path clip-path="url(#clip582)" d="M1854.29 1119.88 L1851.47 1127.99 L1842.87 1128.17 L1849.73 1133.36 L1847.23 1141.58 L1854.29 1136.68 L1861.34 1141.58 L1858.85 1133.36 L1865.7 1128.17 L1857.11 1127.99 L1854.29 1119.88 Z" fill="#ffa500" fill-rule="evenodd" fill-opacity="0.5" stroke="#ff0000" stroke-opacity="0.5" stroke-width="3.2"/>
<path clip-path="url(#clip582)" d="M1963.36 858.14 L1960.54 866.252 L1951.95 866.432 L1958.8 871.628 L1956.31 879.848 L1963.36 874.94 L1970.42 879.848 L1967.92 871.628 L1974.77 866.432 L1966.18 866.252 L1963.36 858.14 Z" fill="#ffa500" fill-rule="evenodd" fill-opacity="0.5" stroke="#ff0000" stroke-opacity="0.5" stroke-width="3.2"/>
<path clip-path="url(#clip582)" d="M2072.44 323.571 L2069.62 331.683 L2061.02 331.863 L2067.88 337.059 L2065.38 345.279 L2072.44 340.371 L2079.49 345.279 L2077 337.059 L2083.85 331.863 L2075.26 331.683 L2072.44 323.571 Z" fill="#ffa500" fill-rule="evenodd" fill-opacity="0.5" stroke="#ff0000" stroke-opacity="0.5" stroke-width="3.2"/>
<path clip-path="url(#clip582)" d="M2181.51 359.091 L2178.69 367.203 L2170.1 367.383 L2176.95 372.579 L2174.45 380.799 L2181.51 375.891 L2188.57 380.799 L2186.07 372.579 L2192.92 367.383 L2184.33 367.203 L2181.51 359.091 Z" fill="#ffa500" fill-rule="evenodd" fill-opacity="0.5" stroke="#ff0000" stroke-opacity="0.5" stroke-width="3.2"/>
<path clip-path="url(#clip582)" d="M2290.58 879.713 L2287.76 887.825 L2279.17 888.005 L2286.02 893.201 L2283.53 901.421 L2290.58 896.513 L2297.64 901.421 L2295.14 893.201 L2302 888.005 L2293.4 887.825 L2290.58 879.713 Z" fill="#ffa500" fill-rule="evenodd" fill-opacity="0.5" stroke="#ff0000" stroke-opacity="0.5" stroke-width="3.2"/>
<path clip-path="url(#clip582)" d="M218.174 982.89 L190.174 1010.89 L218.174 1038.89 L246.174 1010.89 L218.174 982.89 Z" fill="#008000" fill-rule="evenodd" fill-opacity="1" stroke="#ff0000" stroke-opacity="1" stroke-width="3.2"/>
<path clip-path="url(#clip582)" d="M327.249 175.719 L299.249 203.719 L327.249 231.719 L355.249 203.719 L327.249 175.719 Z" fill="#008000" fill-rule="evenodd" fill-opacity="1" stroke="#ff0000" stroke-opacity="1" stroke-width="3.2"/>
<path clip-path="url(#clip582)" d="M436.323 779.342 L408.323 807.342 L436.323 835.342 L464.323 807.342 L436.323 779.342 Z" fill="#008000" fill-rule="evenodd" fill-opacity="1" stroke="#ff0000" stroke-opacity="1" stroke-width="3.2"/>
<path clip-path="url(#clip582)" d="M545.397 559.251 L517.397 587.251 L545.397 615.251 L573.397 587.251 L545.397 559.251 Z" fill="#008000" fill-rule="evenodd" fill-opacity="1" stroke="#ff0000" stroke-opacity="1" stroke-width="3.2"/>
<path clip-path="url(#clip582)" d="M654.471 335.345 L626.471 363.345 L654.471 391.345 L682.471 363.345 L654.471 335.345 Z" fill="#008000" fill-rule="evenodd" fill-opacity="1" stroke="#ff0000" stroke-opacity="1" stroke-width="3.2"/>
<path clip-path="url(#clip582)" d="M763.545 542.205 L735.545 570.205 L763.545 598.205 L791.545 570.205 L763.545 542.205 Z" fill="#008000" fill-rule="evenodd" fill-opacity="1" stroke="#ff0000" stroke-opacity="1" stroke-width="3.2"/>
<path clip-path="url(#clip582)" d="M872.619 649.63 L844.619 677.63 L872.619 705.63 L900.619 677.63 L872.619 649.63 Z" fill="#008000" fill-rule="evenodd" fill-opacity="1" stroke="#ff0000" stroke-opacity="1" stroke-width="3.2"/>
<path clip-path="url(#clip582)" d="M981.694 1358.03 L953.694 1386.03 L981.694 1414.03 L1009.69 1386.03 L981.694 1358.03 Z" fill="#008000" fill-rule="evenodd" fill-opacity="1" stroke="#ff0000" stroke-opacity="1" stroke-width="3.2"/>
<path clip-path="url(#clip582)" d="M1090.77 866.566 L1062.77 894.566 L1090.77 922.566 L1118.77 894.566 L1090.77 866.566 Z" fill="#008000" fill-rule="evenodd" fill-opacity="1" stroke="#ff0000" stroke-opacity="1" stroke-width="3.2"/>
<path clip-path="url(#clip582)" d="M1199.84 730.038 L1171.84 758.038 L1199.84 786.038 L1227.84 758.038 L1199.84 730.038 Z" fill="#008000" fill-rule="evenodd" fill-opacity="1" stroke="#ff0000" stroke-opacity="1" stroke-width="3.2"/>
<path clip-path="url(#clip582)" d="M1308.92 963.571 L1280.92 991.571 L1308.92 1019.57 L1336.92 991.571 L1308.92 963.571 Z" fill="#008000" fill-rule="evenodd" fill-opacity="1" stroke="#ff0000" stroke-opacity="1" stroke-width="3.2"/>
<path clip-path="url(#clip582)" d="M1417.99 558.865 L1389.99 586.865 L1417.99 614.865 L1445.99 586.865 L1417.99 558.865 Z" fill="#008000" fill-rule="evenodd" fill-opacity="1" stroke="#ff0000" stroke-opacity="1" stroke-width="3.2"/>
<path clip-path="url(#clip582)" d="M1527.06 849.541 L1499.06 877.541 L1527.06 905.541 L1555.06 877.541 L1527.06 849.541 Z" fill="#008000" fill-rule="evenodd" fill-opacity="1" stroke="#ff0000" stroke-opacity="1" stroke-width="3.2"/>
<path clip-path="url(#clip582)" d="M1636.14 630.491 L1608.14 658.491 L1636.14 686.491 L1664.14 658.491 L1636.14 630.491 Z" fill="#008000" fill-rule="evenodd" fill-opacity="1" stroke="#ff0000" stroke-opacity="1" stroke-width="3.2"/>
<path clip-path="url(#clip582)" d="M1745.21 854.961 L1717.21 882.961 L1745.21 910.961 L1773.21 882.961 L1745.21 854.961 Z" fill="#008000" fill-rule="evenodd" fill-opacity="1" stroke="#ff0000" stroke-opacity="1" stroke-width="3.2"/>
<path clip-path="url(#clip582)" d="M1854.29 1209.47 L1826.29 1237.47 L1854.29 1265.47 L1882.29 1237.47 L1854.29 1209.47 Z" fill="#008000" fill-rule="evenodd" fill-opacity="1" stroke="#ff0000" stroke-opacity="1" stroke-width="3.2"/>
<path clip-path="url(#clip582)" d="M1963.36 899.609 L1935.36 927.609 L1963.36 955.609 L1991.36 927.609 L1963.36 899.609 Z" fill="#008000" fill-rule="evenodd" fill-opacity="1" stroke="#ff0000" stroke-opacity="1" stroke-width="3.2"/>
<path clip-path="url(#clip582)" d="M2072.44 853.192 L2044.44 881.192 L2072.44 909.192 L2100.44 881.192 L2072.44 853.192 Z" fill="#008000" fill-rule="evenodd" fill-opacity="1" stroke="#ff0000" stroke-opacity="1" stroke-width="3.2"/>
<path clip-path="url(#clip582)" d="M2181.51 682.12 L2153.51 710.12 L2181.51 738.12 L2209.51 710.12 L2181.51 682.12 Z" fill="#008000" fill-rule="evenodd" fill-opacity="1" stroke="#ff0000" stroke-opacity="1" stroke-width="3.2"/>
<path clip-path="url(#clip582)" d="M2290.58 380.849 L2262.58 408.849 L2290.58 436.849 L2318.58 408.849 L2290.58 380.849 Z" fill="#008000" fill-rule="evenodd" fill-opacity="1" stroke="#ff0000" stroke-opacity="1" stroke-width="3.2"/>
<path clip-path="url(#clip582)" d="M179.774 796.362 L237.374 829.962 L237.374 762.762 L179.774 796.362 Z" fill="#00008b" fill-rule="evenodd" fill-opacity="0.2" stroke="#ff0000" stroke-opacity="0.2" stroke-width="3.2"/>
<path clip-path="url(#clip582)" d="M288.849 899.45 L346.449 933.05 L346.449 865.85 L288.849 899.45 Z" fill="#00008b" fill-rule="evenodd" fill-opacity="0.2" stroke="#ff0000" stroke-opacity="0.2" stroke-width="3.2"/>
<path clip-path="url(#clip582)" d="M397.923 217.142 L455.523 250.742 L455.523 183.542 L397.923 217.142 Z" fill="#00008b" fill-rule="evenodd" fill-opacity="0.2" stroke="#ff0000" stroke-opacity="0.2" stroke-width="3.2"/>
<path clip-path="url(#clip582)" d="M506.997 916.928 L564.597 950.528 L564.597 883.328 L506.997 916.928 Z" fill="#00008b" fill-rule="evenodd" fill-opacity="0.2" stroke="#ff0000" stroke-opacity="0.2" stroke-width="3.2"/>
<path clip-path="url(#clip582)" d="M616.071 488.253 L673.671 521.853 L673.671 454.653 L616.071 488.253 Z" fill="#00008b" fill-rule="evenodd" fill-opacity="0.2" stroke="#ff0000" stroke-opacity="0.2" stroke-width="3.2"/>
<path clip-path="url(#clip582)" d="M725.145 255.255 L782.745 288.855 L782.745 221.655 L725.145 255.255 Z" fill="#00008b" fill-rule="evenodd" fill-opacity="0.2" stroke="#ff0000" stroke-opacity="0.2" stroke-width="3.2"/>
<path clip-path="url(#clip582)" d="M834.219 602.38 L891.819 635.98 L891.819 568.78 L834.219 602.38 Z" fill="#00008b" fill-rule="evenodd" fill-opacity="0.2" stroke="#ff0000" stroke-opacity="0.2" stroke-width="3.2"/>
<path clip-path="url(#clip582)" d="M943.294 958.6 L1000.89 992.2 L1000.89 925 L943.294 958.6 Z" fill="#00008b" fill-rule="evenodd" fill-opacity="0.2" stroke="#ff0000" stroke-opacity="0.2" stroke-width="3.2"/>
<path clip-path="url(#clip582)" d="M1052.37 512.75 L1109.97 546.35 L1109.97 479.15 L1052.37 512.75 Z" fill="#00008b" fill-rule="evenodd" fill-opacity="0.2" stroke="#ff0000" stroke-opacity="0.2" stroke-width="3.2"/>
<path clip-path="url(#clip582)" d="M1161.44 1374.47 L1219.04 1408.07 L1219.04 1340.87 L1161.44 1374.47 Z" fill="#00008b" fill-rule="evenodd" fill-opacity="0.2" stroke="#ff0000" stroke-opacity="0.2" stroke-width="3.2"/>
<path clip-path="url(#clip582)" d="M1270.52 1323.52 L1328.12 1357.12 L1328.12 1289.92 L1270.52 1323.52 Z" fill="#00008b" fill-rule="evenodd" fill-opacity="0.2" stroke="#ff0000" stroke-opacity="0.2" stroke-width="3.2"/>
<path clip-path="url(#clip582)" d="M1379.59 1171.32 L1437.19 1204.92 L1437.19 1137.72 L1379.59 1171.32 Z" fill="#00008b" fill-rule="evenodd" fill-opacity="0.2" stroke="#ff0000" stroke-opacity="0.2" stroke-width="3.2"/>
<path clip-path="url(#clip582)" d="M1488.66 471.833 L1546.26 505.433 L1546.26 438.233 L1488.66 471.833 Z" fill="#00008b" fill-rule="evenodd" fill-opacity="0.2" stroke="#ff0000" stroke-opacity="0.2" stroke-width="3.2"/>
<path clip-path="url(#clip582)" d="M1597.74 240.869 L1655.34 274.469 L1655.34 207.269 L1597.74 240.869 Z" fill="#00008b" fill-rule="evenodd" fill-opacity="0.2" stroke="#ff0000" stroke-opacity="0.2" stroke-width="3.2"/>
<path clip-path="url(#clip582)" d="M1706.81 353.87 L1764.41 387.47 L1764.41 320.27 L1706.81 353.87 Z" fill="#00008b" fill-rule="evenodd" fill-opacity="0.2" stroke="#ff0000" stroke-opacity="0.2" stroke-width="3.2"/>
<path clip-path="url(#clip582)" d="M1815.89 1444.41 L1873.49 1478.01 L1873.49 1410.81 L1815.89 1444.41 Z" fill="#00008b" fill-rule="evenodd" fill-opacity="0.2" stroke="#ff0000" stroke-opacity="0.2" stroke-width="3.2"/>
<path clip-path="url(#clip582)" d="M1924.96 740.357 L1982.56 773.957 L1982.56 706.757 L1924.96 740.357 Z" fill="#00008b" fill-rule="evenodd" fill-opacity="0.2" stroke="#ff0000" stroke-opacity="0.2" stroke-width="3.2"/>
<path clip-path="url(#clip582)" d="M2034.04 218.428 L2091.64 252.028 L2091.64 184.828 L2034.04 218.428 Z" fill="#00008b" fill-rule="evenodd" fill-opacity="0.2" stroke="#ff0000" stroke-opacity="0.2" stroke-width="3.2"/>
<path clip-path="url(#clip582)" d="M2143.11 671.417 L2200.71 705.017 L2200.71 637.817 L2143.11 671.417 Z" fill="#00008b" fill-rule="evenodd" fill-opacity="0.2" stroke="#ff0000" stroke-opacity="0.2" stroke-width="3.2"/>
<path clip-path="url(#clip582)" d="M2252.18 1024.91 L2309.78 1058.51 L2309.78 991.313 L2252.18 1024.91 Z" fill="#00008b" fill-rule="evenodd" fill-opacity="0.2" stroke="#ff0000" stroke-opacity="0.2" stroke-width="3.2"/>
<path clip-path="url(#clip580)" d="
M1983.85 435.737 L2279.53 435.737 L2279.53 193.817 L1983.85 193.817  Z
  " fill="#ffffff" fill-rule="evenodd" fill-opacity="1"/>
<polyline clip-path="url(#clip580)" style="stroke:#000000; stroke-width:4; stroke-opacity:1; fill:none" points="
  1983.85,435.737 2279.53,435.737 2279.53,193.817 1983.85,193.817 1983.85,435.737 
  "/>
<path clip-path="url(#clip580)" d="M2081.48 228.697 L2075.47 246.002 L2057.14 246.386 L2071.76 257.471 L2066.43 275.007 L2081.48 264.537 L2096.54 275.007 L2091.21 257.471 L2105.83 246.386 L2087.5 246.002 L2081.48 228.697 Z" fill="#ffa500" fill-rule="evenodd" fill-opacity="0.5" stroke="#ff0000" stroke-opacity="0.5" stroke-width="6.82667"/>
<path clip-path="url(#clip580)" d="M 0 0 M2192.96 273.984 Q2191.15 278.614 2189.44 280.026 Q2187.73 281.438 2184.86 281.438 L2181.46 281.438 L2181.46 277.873 L2183.96 277.873 Q2185.71 277.873 2186.69 277.04 Q2187.66 276.206 2188.84 273.104 L2189.6 271.16 L2179.12 245.651 L2183.63 245.651 L2191.73 265.929 L2199.83 245.651 L2204.35 245.651 L2192.96 273.984 Z" fill="#bebebe" fill-rule="evenodd" fill-opacity="1" /><path clip-path="url(#clip580)" d="M 0 0 M2210.23 267.641 L2217.87 267.641 L2217.87 241.276 L2209.56 242.943 L2209.56 238.683 L2217.82 237.017 L2222.5 237.017 L2222.5 267.641 L2230.14 267.641 L2230.14 271.577 L2210.23 271.577 L2210.23 267.641 Z" fill="#bebebe" fill-rule="evenodd" fill-opacity="1" /><path clip-path="url(#clip580)" d="M2081.48 289.177 L2055.88 314.777 L2081.48 340.377 L2107.08 314.777 L2081.48 289.177 Z" fill="#008000" fill-rule="evenodd" fill-opacity="1" stroke="#ff0000" stroke-opacity="1" stroke-width="2.92571"/>
<path clip-path="url(#clip580)" d="M 0 0 M2192.96 334.464 Q2191.15 339.094 2189.44 340.506 Q2187.73 341.918 2184.86 341.918 L2181.46 341.918 L2181.46 338.353 L2183.96 338.353 Q2185.71 338.353 2186.69 337.52 Q2187.66 336.686 2188.84 333.584 L2189.6 331.64 L2179.12 306.131 L2183.63 306.131 L2191.73 326.409 L2199.83 306.131 L2204.35 306.131 L2192.96 334.464 Z" fill="#bebebe" fill-rule="evenodd" fill-opacity="1" /><path clip-path="url(#clip580)" d="M 0 0 M2213.45 328.121 L2229.76 328.121 L2229.76 332.057 L2207.82 332.057 L2207.82 328.121 Q2210.48 325.367 2215.07 320.737 Q2219.67 316.085 2220.85 314.742 Q2223.1 312.219 2223.98 310.483 Q2224.88 308.723 2224.88 307.034 Q2224.88 304.279 2222.94 302.543 Q2221.02 300.807 2217.91 300.807 Q2215.71 300.807 2213.26 301.571 Q2210.83 302.335 2208.05 303.886 L2208.05 299.163 Q2210.88 298.029 2213.33 297.45 Q2215.78 296.872 2217.82 296.872 Q2223.19 296.872 2226.39 299.557 Q2229.58 302.242 2229.58 306.733 Q2229.58 308.862 2228.77 310.784 Q2227.98 312.682 2225.88 315.274 Q2225.3 315.946 2222.2 319.163 Q2219.09 322.358 2213.45 328.121 Z" fill="#bebebe" fill-rule="evenodd" fill-opacity="1" /><path clip-path="url(#clip580)" d="M2061 375.257 L2091.72 393.177 L2091.72 357.337 L2061 375.257 Z" fill="#00008b" fill-rule="evenodd" fill-opacity="0.2" stroke="#ff0000" stroke-opacity="0.2" stroke-width="1.70667"/>
<path clip-path="url(#clip580)" d="M 0 0 M2192.96 394.944 Q2191.15 399.574 2189.44 400.986 Q2187.73 402.398 2184.86 402.398 L2181.46 402.398 L2181.46 398.833 L2183.96 398.833 Q2185.71 398.833 2186.69 398 Q2187.66 397.166 2188.84 394.064 L2189.6 392.12 L2179.12 366.611 L2183.63 366.611 L2191.73 386.889 L2199.83 366.611 L2204.35 366.611 L2192.96 394.944 Z" fill="#bebebe" fill-rule="evenodd" fill-opacity="1" /><path clip-path="url(#clip580)" d="M 0 0 M2223.58 373.902 Q2226.94 374.62 2228.82 376.889 Q2230.71 379.157 2230.71 382.49 Q2230.71 387.606 2227.2 390.407 Q2223.68 393.208 2217.2 393.208 Q2215.02 393.208 2212.7 392.768 Q2210.41 392.351 2207.96 391.495 L2207.96 386.981 Q2209.9 388.115 2212.22 388.694 Q2214.53 389.273 2217.06 389.273 Q2221.45 389.273 2223.75 387.537 Q2226.06 385.801 2226.06 382.49 Q2226.06 379.435 2223.91 377.722 Q2221.78 375.986 2217.96 375.986 L2213.93 375.986 L2213.93 372.143 L2218.14 372.143 Q2221.59 372.143 2223.42 370.778 Q2225.25 369.389 2225.25 366.796 Q2225.25 364.134 2223.35 362.722 Q2221.48 361.287 2217.96 361.287 Q2216.04 361.287 2213.84 361.703 Q2211.64 362.12 2209 363 L2209 358.833 Q2211.66 358.092 2213.98 357.722 Q2216.32 357.352 2218.38 357.352 Q2223.7 357.352 2226.8 359.782 Q2229.9 362.19 2229.9 366.31 Q2229.9 369.18 2228.26 371.171 Q2226.62 373.139 2223.58 373.902 Z" fill="#bebebe" fill-rule="evenodd" fill-opacity="1" /></svg>
