<?xml version="1.0" encoding="utf-8"?>
<svg xmlns="http://www.w3.org/2000/svg" xmlns:xlink="http://www.w3.org/1999/xlink" width="600" height="400" viewBox="0 0 2400 1600">
<defs>
  <clipPath id="clip650">
    <rect x="0" y="0" width="2400" height="1600"/>
  </clipPath>
</defs>
<path clip-path="url(#clip650)" d="
M0 1600 L2400 1600 L2400 0 L0 0  Z
  " fill="#ffffff" fill-rule="evenodd" fill-opacity="1"/>
<defs>
  <clipPath id="clip651">
    <rect x="480" y="0" width="1681" height="1600"/>
  </clipPath>
</defs>
<path clip-path="url(#clip650)" d="
M185.846 1482.13 L2352.76 1482.13 L2352.76 149.392 L185.846 149.392  Z
  " fill="#ffffff" fill-rule="evenodd" fill-opacity="1"/>
<defs>
  <clipPath id="clip652">
    <rect x="185" y="149" width="2168" height="1334"/>
  </clipPath>
</defs>
<polyline clip-path="url(#clip652)" style="stroke:#000000; stroke-width:2; stroke-opacity:0.1; fill:none" points="
  442.783,1482.13 442.783,149.392 
  "/>
<polyline clip-path="url(#clip652)" style="stroke:#000000; stroke-width:2; stroke-opacity:0.1; fill:none" points="
  534.618,1482.13 534.618,149.392 
  "/>
<polyline clip-path="url(#clip652)" style="stroke:#000000; stroke-width:2; stroke-opacity:0.1; fill:none" points="
  626.453,1482.13 626.453,149.392 
  "/>
<polyline clip-path="url(#clip652)" style="stroke:#000000; stroke-width:2; stroke-opacity:0.1; fill:none" points="
  718.289,1482.13 718.289,149.392 
  "/>
<polyline clip-path="url(#clip652)" style="stroke:#000000; stroke-width:2; stroke-opacity:0.1; fill:none" points="
  810.124,1482.13 810.124,149.392 
  "/>
<polyline clip-path="url(#clip652)" style="stroke:#000000; stroke-width:2; stroke-opacity:0.1; fill:none" points="
  901.959,1482.13 901.959,149.392 
  "/>
<polyline clip-path="url(#clip652)" style="stroke:#000000; stroke-width:2; stroke-opacity:0.1; fill:none" points="
  993.795,1482.13 993.795,149.392 
  "/>
<polyline clip-path="url(#clip652)" style="stroke:#000000; stroke-width:2; stroke-opacity:0.1; fill:none" points="
  1085.63,1482.13 1085.63,149.392 
  "/>
<polyline clip-path="url(#clip652)" style="stroke:#000000; stroke-width:2; stroke-opacity:0.1; fill:none" points="
  1177.47,1482.13 1177.47,149.392 
  "/>
<polyline clip-path="url(#clip652)" style="stroke:#000000; stroke-width:2; stroke-opacity:0.1; fill:none" points="
  1269.3,1482.13 1269.3,149.392 
  "/>
<polyline clip-path="url(#clip652)" style="stroke:#000000; stroke-width:2; stroke-opacity:0.1; fill:none" points="
  1361.14,1482.13 1361.14,149.392 
  "/>
<polyline clip-path="url(#clip652)" style="stroke:#000000; stroke-width:2; stroke-opacity:0.1; fill:none" points="
  1452.97,1482.13 1452.97,149.392 
  "/>
<polyline clip-path="url(#clip652)" style="stroke:#000000; stroke-width:2; stroke-opacity:0.1; fill:none" points="
  1544.81,1482.13 1544.81,149.392 
  "/>
<polyline clip-path="url(#clip652)" style="stroke:#000000; stroke-width:2; stroke-opacity:0.1; fill:none" points="
  1636.64,1482.13 1636.64,149.392 
  "/>
<polyline clip-path="url(#clip652)" style="stroke:#000000; stroke-width:2; stroke-opacity:0.1; fill:none" points="
  1728.48,1482.13 1728.48,149.392 
  "/>
<polyline clip-path="url(#clip652)" style="stroke:#000000; stroke-width:2; stroke-opacity:0.1; fill:none" points="
  1820.31,1482.13 1820.31,149.392 
  "/>
<polyline clip-path="url(#clip652)" style="stroke:#000000; stroke-width:2; stroke-opacity:0.1; fill:none" points="
  1912.15,1482.13 1912.15,149.392 
  "/>
<polyline clip-path="url(#clip652)" style="stroke:#000000; stroke-width:2; stroke-opacity:0.1; fill:none" points="
  2003.98,1482.13 2003.98,149.392 
  "/>
<polyline clip-path="url(#clip652)" style="stroke:#000000; stroke-width:2; stroke-opacity:0.1; fill:none" points="
  2095.82,1482.13 2095.82,149.392 
  "/>
<polyline clip-path="url(#clip652)" style="stroke:#000000; stroke-width:2; stroke-opacity:0.1; fill:none" points="
  2187.65,1482.13 2187.65,149.392 
  "/>
<polyline clip-path="url(#clip652)" style="stroke:#000000; stroke-width:2; stroke-opacity:0.1; fill:none" points="
  2279.49,1482.13 2279.49,149.392 
  "/>
<polyline clip-path="url(#clip650)" style="stroke:#000000; stroke-width:4; stroke-opacity:1; fill:none" points="
  185.846,1482.13 2352.76,1482.13 
  "/>
<polyline clip-path="url(#clip650)" style="stroke:#000000; stroke-width:4; stroke-opacity:1; fill:none" points="
  442.783,1482.13 442.783,1466.14 
  "/>
<polyline clip-path="url(#clip650)" style="stroke:#000000; stroke-width:4; stroke-opacity:1; fill:none" points="
  534.618,1482.13 534.618,1466.14 
  "/>
<polyline clip-path="url(#clip650)" style="stroke:#000000; stroke-width:4; stroke-opacity:1; fill:none" points="
  626.453,1482.13 626.453,1466.14 
  "/>
<polyline clip-path="url(#clip650)" style="stroke:#000000; stroke-width:4; stroke-opacity:1; fill:none" points="
  718.289,1482.13 718.289,1466.14 
  "/>
<polyline clip-path="url(#clip650)" style="stroke:#000000; stroke-width:4; stroke-opacity:1; fill:none" points="
  810.124,1482.13 810.124,1466.14 
  "/>
<polyline clip-path="url(#clip650)" style="stroke:#000000; stroke-width:4; stroke-opacity:1; fill:none" points="
  901.959,1482.13 901.959,1466.14 
  "/>
<polyline clip-path="url(#clip650)" style="stroke:#000000; stroke-width:4; stroke-opacity:1; fill:none" points="
  993.795,1482.13 993.795,1466.14 
  "/>
<polyline clip-path="url(#clip650)" style="stroke:#000000; stroke-width:4; stroke-opacity:1; fill:none" points="
  1085.63,1482.13 1085.63,1466.14 
  "/>
<polyline clip-path="url(#clip650)" style="stroke:#000000; stroke-width:4; stroke-opacity:1; fill:none" points="
  1177.47,1482.13 1177.47,1466.14 
  "/>
<polyline clip-path="url(#clip650)" style="stroke:#000000; stroke-width:4; stroke-opacity:1; fill:none" points="
  1269.3,1482.13 1269.3,1466.14 
  "/>
<polyline clip-path="url(#clip650)" style="stroke:#000000; stroke-width:4; stroke-opacity:1; fill:none" points="
  1361.14,1482.13 1361.14,1466.14 
  "/>
<polyline clip-path="url(#clip650)" style="stroke:#000000; stroke-width:4; stroke-opacity:1; fill:none" points="
  1452.97,1482.13 1452.97,1466.14 
  "/>
<polyline clip-path="url(#clip650)" style="stroke:#000000; stroke-width:4; stroke-opacity:1; fill:none" points="
  1544.81,1482.13 1544.81,1466.14 
  "/>
<polyline clip-path="url(#clip650)" style="stroke:#000000; stroke-width:4; stroke-opacity:1; fill:none" points="
  1636.64,1482.13 1636.64,1466.14 
  "/>
<polyline clip-path="url(#clip650)" style="stroke:#000000; stroke-width:4; stroke-opacity:1; fill:none" points="
  1728.48,1482.13 1728.48,1466.14 
  "/>
<polyline clip-path="url(#clip650)" style="stroke:#000000; stroke-width:4; stroke-opacity:1; fill:none" points="
  1820.31,1482.13 1820.31,1466.14 
  "/>
<polyline clip-path="url(#clip650)" style="stroke:#000000; stroke-width:4; stroke-opacity:1; fill:none" points="
  1912.15,1482.13 1912.15,1466.14 
  "/>
<polyline clip-path="url(#clip650)" style="stroke:#000000; stroke-width:4; stroke-opacity:1; fill:none" points="
  2003.98,1482.13 2003.98,1466.14 
  "/>
<polyline clip-path="url(#clip650)" style="stroke:#000000; stroke-width:4; stroke-opacity:1; fill:none" points="
  2095.82,1482.13 2095.82,1466.14 
  "/>
<polyline clip-path="url(#clip650)" style="stroke:#000000; stroke-width:4; stroke-opacity:1; fill:none" points="
  2187.65,1482.13 2187.65,1466.14 
  "/>
<polyline clip-path="url(#clip650)" style="stroke:#000000; stroke-width:4; stroke-opacity:1; fill:none" points="
  2279.49,1482.13 2279.49,1466.14 
  "/>
<path clip-path="url(#clip650)" d="M 0 0 M431.962 1543.56 L440.556 1543.56 L440.556 1513.9 L431.207 1515.77 L431.207 1510.98 L440.504 1509.1 L445.764 1509.1 L445.764 1543.56 L454.358 1543.56 L454.358 1547.98 L431.962 1547.98 L431.962 1543.56 Z" fill="#bebebe" fill-rule="evenodd" fill-opacity="1" /><path clip-path="url(#clip650)" d="M 0 0 M528.602 1543.56 L546.962 1543.56 L546.962 1547.98 L522.274 1547.98 L522.274 1543.56 Q525.269 1540.46 530.425 1535.25 Q535.608 1530.02 536.936 1528.5 Q539.462 1525.67 540.451 1523.71 Q541.467 1521.73 541.467 1519.83 Q541.467 1516.73 539.279 1514.78 Q537.118 1512.83 533.628 1512.83 Q531.155 1512.83 528.394 1513.69 Q525.66 1514.55 522.535 1516.29 L522.535 1510.98 Q525.712 1509.7 528.472 1509.05 Q531.233 1508.4 533.524 1508.4 Q539.566 1508.4 543.16 1511.42 Q546.753 1514.44 546.753 1519.49 Q546.753 1521.89 545.842 1524.05 Q544.957 1526.19 542.587 1529.1 Q541.936 1529.86 538.446 1533.48 Q534.957 1537.07 528.602 1543.56 Z" fill="#bebebe" fill-rule="evenodd" fill-opacity="1" /><path clip-path="url(#clip650)" d="M 0 0 M631.232 1527.02 Q635.008 1527.83 637.117 1530.38 Q639.253 1532.93 639.253 1536.68 Q639.253 1542.44 635.294 1545.59 Q631.336 1548.74 624.045 1548.74 Q621.597 1548.74 618.992 1548.24 Q616.414 1547.78 613.654 1546.81 L613.654 1541.73 Q615.841 1543.01 618.446 1543.66 Q621.05 1544.31 623.888 1544.31 Q628.836 1544.31 631.414 1542.36 Q634.018 1540.41 634.018 1536.68 Q634.018 1533.24 631.597 1531.32 Q629.201 1529.36 624.904 1529.36 L620.373 1529.36 L620.373 1525.04 L625.112 1525.04 Q628.992 1525.04 631.05 1523.5 Q633.107 1521.94 633.107 1519.03 Q633.107 1516.03 630.972 1514.44 Q628.862 1512.83 624.904 1512.83 Q622.742 1512.83 620.269 1513.3 Q617.795 1513.77 614.826 1514.75 L614.826 1510.07 Q617.821 1509.23 620.425 1508.82 Q623.055 1508.4 625.373 1508.4 Q631.362 1508.4 634.852 1511.14 Q638.341 1513.84 638.341 1518.48 Q638.341 1521.71 636.492 1523.95 Q634.643 1526.16 631.232 1527.02 Z" fill="#bebebe" fill-rule="evenodd" fill-opacity="1" /><path clip-path="url(#clip650)" d="M 0 0 M721.674 1513.69 L708.393 1534.44 L721.674 1534.44 L721.674 1513.69 M720.294 1509.1 L726.908 1509.1 L726.908 1534.44 L732.455 1534.44 L732.455 1538.82 L726.908 1538.82 L726.908 1547.98 L721.674 1547.98 L721.674 1538.82 L704.122 1538.82 L704.122 1533.74 L720.294 1509.1 Z" fill="#bebebe" fill-rule="evenodd" fill-opacity="1" /><path clip-path="url(#clip650)" d="M 0 0 M799.187 1509.1 L819.838 1509.1 L819.838 1513.53 L804.004 1513.53 L804.004 1523.06 Q805.15 1522.67 806.296 1522.49 Q807.442 1522.28 808.588 1522.28 Q815.098 1522.28 818.9 1525.85 Q822.702 1529.42 822.702 1535.51 Q822.702 1541.79 818.796 1545.28 Q814.89 1548.74 807.78 1548.74 Q805.332 1548.74 802.78 1548.32 Q800.254 1547.91 797.546 1547.07 L797.546 1541.79 Q799.89 1543.06 802.39 1543.69 Q804.89 1544.31 807.676 1544.31 Q812.181 1544.31 814.812 1541.94 Q817.442 1539.57 817.442 1535.51 Q817.442 1531.45 814.812 1529.08 Q812.181 1526.71 807.676 1526.71 Q805.567 1526.71 803.457 1527.18 Q801.374 1527.65 799.187 1528.64 L799.187 1509.1 Z" fill="#bebebe" fill-rule="evenodd" fill-opacity="1" /><path clip-path="url(#clip650)" d="M 0 0 M902.415 1526.45 Q898.874 1526.45 896.79 1528.87 Q894.733 1531.29 894.733 1535.51 Q894.733 1539.7 896.79 1542.15 Q898.874 1544.57 902.415 1544.57 Q905.957 1544.57 908.014 1542.15 Q910.097 1539.7 910.097 1535.51 Q910.097 1531.29 908.014 1528.87 Q905.957 1526.45 902.415 1526.45 M912.858 1509.96 L912.858 1514.75 Q910.879 1513.82 908.847 1513.32 Q906.842 1512.83 904.863 1512.83 Q899.655 1512.83 896.894 1516.34 Q894.16 1519.86 893.769 1526.97 Q895.306 1524.7 897.624 1523.5 Q899.941 1522.28 902.728 1522.28 Q908.587 1522.28 911.972 1525.85 Q915.384 1529.39 915.384 1535.51 Q915.384 1541.5 911.842 1545.12 Q908.301 1548.74 902.415 1548.74 Q895.67 1548.74 892.103 1543.58 Q888.535 1538.4 888.535 1528.58 Q888.535 1519.36 892.91 1513.9 Q897.285 1508.4 904.655 1508.4 Q906.634 1508.4 908.639 1508.79 Q910.67 1509.18 912.858 1509.96 Z" fill="#bebebe" fill-rule="evenodd" fill-opacity="1" /><path clip-path="url(#clip650)" d="M 0 0 M981.295 1509.1 L1006.29 1509.1 L1006.29 1511.34 L992.18 1547.98 L986.685 1547.98 L999.967 1513.53 L981.295 1513.53 L981.295 1509.1 Z" fill="#bebebe" fill-rule="evenodd" fill-opacity="1" /><path clip-path="url(#clip650)" d="M 0 0 M1085.63 1529.52 Q1081.88 1529.52 1079.72 1531.53 Q1077.58 1533.53 1077.58 1537.05 Q1077.58 1540.56 1079.72 1542.57 Q1081.88 1544.57 1085.63 1544.57 Q1089.38 1544.57 1091.54 1542.57 Q1093.7 1540.54 1093.7 1537.05 Q1093.7 1533.53 1091.54 1531.53 Q1089.41 1529.52 1085.63 1529.52 M1080.37 1527.28 Q1076.98 1526.45 1075.08 1524.13 Q1073.21 1521.81 1073.21 1518.48 Q1073.21 1513.82 1076.52 1511.11 Q1079.85 1508.4 1085.63 1508.4 Q1091.44 1508.4 1094.74 1511.11 Q1098.05 1513.82 1098.05 1518.48 Q1098.05 1521.81 1096.15 1524.13 Q1094.28 1526.45 1090.92 1527.28 Q1094.72 1528.17 1096.83 1530.74 Q1098.96 1533.32 1098.96 1537.05 Q1098.96 1542.7 1095.5 1545.72 Q1092.06 1548.74 1085.63 1548.74 Q1079.2 1548.74 1075.73 1545.72 Q1072.3 1542.7 1072.3 1537.05 Q1072.3 1533.32 1074.43 1530.74 Q1076.57 1528.17 1080.37 1527.28 M1078.44 1518.97 Q1078.44 1521.99 1080.32 1523.69 Q1082.22 1525.38 1085.63 1525.38 Q1089.02 1525.38 1090.92 1523.69 Q1092.84 1521.99 1092.84 1518.97 Q1092.84 1515.95 1090.92 1514.26 Q1089.02 1512.57 1085.63 1512.57 Q1082.22 1512.57 1080.32 1514.26 Q1078.44 1515.95 1078.44 1518.97 Z" fill="#bebebe" fill-rule="evenodd" fill-opacity="1" /><path clip-path="url(#clip650)" d="M 0 0 M1166.55 1547.18 L1166.55 1542.38 Q1168.53 1543.32 1170.56 1543.82 Q1172.6 1544.31 1174.55 1544.31 Q1179.76 1544.31 1182.49 1540.82 Q1185.25 1537.31 1185.64 1530.17 Q1184.13 1532.41 1181.81 1533.61 Q1179.5 1534.81 1176.68 1534.81 Q1170.85 1534.81 1167.44 1531.29 Q1164.05 1527.75 1164.05 1521.63 Q1164.05 1515.64 1167.6 1512.02 Q1171.14 1508.4 1177.02 1508.4 Q1183.77 1508.4 1187.31 1513.58 Q1190.88 1518.74 1190.88 1528.58 Q1190.88 1537.78 1186.5 1543.27 Q1182.15 1548.74 1174.78 1548.74 Q1172.8 1548.74 1170.77 1548.35 Q1168.74 1547.96 1166.55 1547.18 M1177.02 1530.69 Q1180.56 1530.69 1182.62 1528.27 Q1184.71 1525.85 1184.71 1521.63 Q1184.71 1517.44 1182.62 1515.02 Q1180.56 1512.57 1177.02 1512.57 Q1173.48 1512.57 1171.4 1515.02 Q1169.34 1517.44 1169.34 1521.63 Q1169.34 1525.85 1171.4 1528.27 Q1173.48 1530.69 1177.02 1530.69 Z" fill="#bebebe" fill-rule="evenodd" fill-opacity="1" /><path clip-path="url(#clip650)" d="M 0 0 M1243.29 1543.56 L1251.88 1543.56 L1251.88 1513.9 L1242.53 1515.77 L1242.53 1510.98 L1251.83 1509.1 L1257.09 1509.1 L1257.09 1543.56 L1265.68 1543.56 L1265.68 1547.98 L1243.29 1547.98 L1243.29 1543.56 Z" fill="#bebebe" fill-rule="evenodd" fill-opacity="1" /><path clip-path="url(#clip650)" d="M 0 0 M1282.63 1512.57 Q1278.57 1512.57 1276.51 1516.58 Q1274.48 1520.56 1274.48 1528.58 Q1274.48 1536.58 1276.51 1540.59 Q1278.57 1544.57 1282.63 1544.57 Q1286.72 1544.57 1288.75 1540.59 Q1290.81 1536.58 1290.81 1528.58 Q1290.81 1520.56 1288.75 1516.58 Q1286.72 1512.57 1282.63 1512.57 M1282.63 1508.4 Q1289.17 1508.4 1292.61 1513.58 Q1296.07 1518.74 1296.07 1528.58 Q1296.07 1538.4 1292.61 1543.58 Q1289.17 1548.74 1282.63 1548.74 Q1276.1 1548.74 1272.63 1543.58 Q1269.2 1538.4 1269.2 1528.58 Q1269.2 1518.74 1272.63 1513.58 Q1276.1 1508.4 1282.63 1508.4 Z" fill="#bebebe" fill-rule="evenodd" fill-opacity="1" /><path clip-path="url(#clip650)" d="M 0 0 M1335.81 1543.56 L1344.4 1543.56 L1344.4 1513.9 L1335.06 1515.77 L1335.06 1510.98 L1344.35 1509.1 L1349.61 1509.1 L1349.61 1543.56 L1358.21 1543.56 L1358.21 1547.98 L1335.81 1547.98 L1335.81 1543.56 Z" fill="#bebebe" fill-rule="evenodd" fill-opacity="1" /><path clip-path="url(#clip650)" d="M 0 0 M1364.82 1543.56 L1373.41 1543.56 L1373.41 1513.9 L1364.07 1515.77 L1364.07 1510.98 L1373.36 1509.1 L1378.62 1509.1 L1378.62 1543.56 L1387.22 1543.56 L1387.22 1547.98 L1364.82 1547.98 L1364.82 1543.56 Z" fill="#bebebe" fill-rule="evenodd" fill-opacity="1" /><path clip-path="url(#clip650)" d="M 0 0 M1427.85 1543.56 L1436.45 1543.56 L1436.45 1513.9 L1427.1 1515.77 L1427.1 1510.98 L1436.4 1509.1 L1441.66 1509.1 L1441.66 1543.56 L1450.25 1543.56 L1450.25 1547.98 L1427.85 1547.98 L1427.85 1543.56 Z" fill="#bebebe" fill-rule="evenodd" fill-opacity="1" /><path clip-path="url(#clip650)" d="M 0 0 M1460.48 1543.56 L1478.84 1543.56 L1478.84 1547.98 L1454.16 1547.98 L1454.16 1543.56 Q1457.15 1540.46 1462.31 1535.25 Q1467.49 1530.02 1468.82 1528.5 Q1471.34 1525.67 1472.33 1523.71 Q1473.35 1521.73 1473.35 1519.83 Q1473.35 1516.73 1471.16 1514.78 Q1469 1512.83 1465.51 1512.83 Q1463.04 1512.83 1460.28 1513.69 Q1457.54 1514.55 1454.42 1516.29 L1454.42 1510.98 Q1457.59 1509.7 1460.35 1509.05 Q1463.11 1508.4 1465.41 1508.4 Q1471.45 1508.4 1475.04 1511.42 Q1478.64 1514.44 1478.64 1519.49 Q1478.64 1521.89 1477.72 1524.05 Q1476.84 1526.19 1474.47 1529.1 Q1473.82 1529.86 1470.33 1533.48 Q1466.84 1537.07 1460.48 1543.56 Z" fill="#bebebe" fill-rule="evenodd" fill-opacity="1" /><path clip-path="url(#clip650)" d="M 0 0 M1519.16 1543.56 L1527.75 1543.56 L1527.75 1513.9 L1518.4 1515.77 L1518.4 1510.98 L1527.7 1509.1 L1532.96 1509.1 L1532.96 1543.56 L1541.55 1543.56 L1541.55 1547.98 L1519.16 1547.98 L1519.16 1543.56 Z" fill="#bebebe" fill-rule="evenodd" fill-opacity="1" /><path clip-path="url(#clip650)" d="M 0 0 M1563.19 1527.02 Q1566.97 1527.83 1569.08 1530.38 Q1571.21 1532.93 1571.21 1536.68 Q1571.21 1542.44 1567.25 1545.59 Q1563.3 1548.74 1556 1548.74 Q1553.56 1548.74 1550.95 1548.24 Q1548.37 1547.78 1545.61 1546.81 L1545.61 1541.73 Q1547.8 1543.01 1550.41 1543.66 Q1553.01 1544.31 1555.85 1544.31 Q1560.8 1544.31 1563.37 1542.36 Q1565.98 1540.41 1565.98 1536.68 Q1565.98 1533.24 1563.56 1531.32 Q1561.16 1529.36 1556.86 1529.36 L1552.33 1529.36 L1552.33 1525.04 L1557.07 1525.04 Q1560.95 1525.04 1563.01 1523.5 Q1565.07 1521.94 1565.07 1519.03 Q1565.07 1516.03 1562.93 1514.44 Q1560.82 1512.83 1556.86 1512.83 Q1554.7 1512.83 1552.23 1513.3 Q1549.75 1513.77 1546.79 1514.75 L1546.79 1510.07 Q1549.78 1509.23 1552.38 1508.82 Q1555.02 1508.4 1557.33 1508.4 Q1563.32 1508.4 1566.81 1511.14 Q1570.3 1513.84 1570.3 1518.48 Q1570.3 1521.71 1568.45 1523.95 Q1566.6 1526.16 1563.19 1527.02 Z" fill="#bebebe" fill-rule="evenodd" fill-opacity="1" /><path clip-path="url(#clip650)" d="M 0 0 M1610.35 1543.56 L1618.95 1543.56 L1618.95 1513.9 L1609.6 1515.77 L1609.6 1510.98 L1618.89 1509.1 L1624.16 1509.1 L1624.16 1543.56 L1632.75 1543.56 L1632.75 1547.98 L1610.35 1547.98 L1610.35 1543.56 Z" fill="#bebebe" fill-rule="evenodd" fill-opacity="1" /><path clip-path="url(#clip650)" d="M 0 0 M1652.91 1513.69 L1639.62 1534.44 L1652.91 1534.44 L1652.91 1513.69 M1651.52 1509.1 L1658.14 1509.1 L1658.14 1534.44 L1663.69 1534.44 L1663.69 1538.82 L1658.14 1538.82 L1658.14 1547.98 L1652.91 1547.98 L1652.91 1538.82 L1635.35 1538.82 L1635.35 1533.74 L1651.52 1509.1 Z" fill="#bebebe" fill-rule="evenodd" fill-opacity="1" /><path clip-path="url(#clip650)" d="M 0 0 M1703.02 1543.56 L1711.62 1543.56 L1711.62 1513.9 L1702.27 1515.77 L1702.27 1510.98 L1711.56 1509.1 L1716.82 1509.1 L1716.82 1543.56 L1725.42 1543.56 L1725.42 1547.98 L1703.02 1547.98 L1703.02 1543.56 Z" fill="#bebebe" fill-rule="evenodd" fill-opacity="1" /><path clip-path="url(#clip650)" d="M 0 0 M1731.17 1509.1 L1751.82 1509.1 L1751.82 1513.53 L1735.99 1513.53 L1735.99 1523.06 Q1737.14 1522.67 1738.28 1522.49 Q1739.43 1522.28 1740.57 1522.28 Q1747.08 1522.28 1750.89 1525.85 Q1754.69 1529.42 1754.69 1535.51 Q1754.69 1541.79 1750.78 1545.28 Q1746.88 1548.74 1739.77 1548.74 Q1737.32 1548.74 1734.77 1548.32 Q1732.24 1547.91 1729.53 1547.07 L1729.53 1541.79 Q1731.88 1543.06 1734.38 1543.69 Q1736.88 1544.31 1739.66 1544.31 Q1744.17 1544.31 1746.8 1541.94 Q1749.43 1539.57 1749.43 1535.51 Q1749.43 1531.45 1746.8 1529.08 Q1744.17 1526.71 1739.66 1526.71 Q1737.55 1526.71 1735.44 1527.18 Q1733.36 1527.65 1731.17 1528.64 L1731.17 1509.1 Z" fill="#bebebe" fill-rule="evenodd" fill-opacity="1" /><path clip-path="url(#clip650)" d="M 0 0 M1794.21 1543.56 L1802.8 1543.56 L1802.8 1513.9 L1793.45 1515.77 L1793.45 1510.98 L1802.75 1509.1 L1808.01 1509.1 L1808.01 1543.56 L1816.6 1543.56 L1816.6 1547.98 L1794.21 1547.98 L1794.21 1543.56 Z" fill="#bebebe" fill-rule="evenodd" fill-opacity="1" /><path clip-path="url(#clip650)" d="M 0 0 M1834.21 1526.45 Q1830.66 1526.45 1828.58 1528.87 Q1826.52 1531.29 1826.52 1535.51 Q1826.52 1539.7 1828.58 1542.15 Q1830.66 1544.57 1834.21 1544.57 Q1837.75 1544.57 1839.81 1542.15 Q1841.89 1539.7 1841.89 1535.51 Q1841.89 1531.29 1839.81 1528.87 Q1837.75 1526.45 1834.21 1526.45 M1844.65 1509.96 L1844.65 1514.75 Q1842.67 1513.82 1840.64 1513.32 Q1838.63 1512.83 1836.65 1512.83 Q1831.45 1512.83 1828.69 1516.34 Q1825.95 1519.86 1825.56 1526.97 Q1827.1 1524.7 1829.41 1523.5 Q1831.73 1522.28 1834.52 1522.28 Q1840.38 1522.28 1843.76 1525.85 Q1847.17 1529.39 1847.17 1535.51 Q1847.17 1541.5 1843.63 1545.12 Q1840.09 1548.74 1834.21 1548.74 Q1827.46 1548.74 1823.89 1543.58 Q1820.33 1538.4 1820.33 1528.58 Q1820.33 1519.36 1824.7 1513.9 Q1829.08 1508.4 1836.45 1508.4 Q1838.42 1508.4 1840.43 1508.79 Q1842.46 1509.18 1844.65 1509.96 Z" fill="#bebebe" fill-rule="evenodd" fill-opacity="1" /><path clip-path="url(#clip650)" d="M 0 0 M1886.64 1543.56 L1895.23 1543.56 L1895.23 1513.9 L1885.89 1515.77 L1885.89 1510.98 L1895.18 1509.1 L1900.44 1509.1 L1900.44 1543.56 L1909.04 1543.56 L1909.04 1547.98 L1886.64 1547.98 L1886.64 1543.56 Z" fill="#bebebe" fill-rule="evenodd" fill-opacity="1" /><path clip-path="url(#clip650)" d="M 0 0 M1913.41 1509.1 L1938.41 1509.1 L1938.41 1511.34 L1924.3 1547.98 L1918.8 1547.98 L1932.08 1513.53 L1913.41 1513.53 L1913.41 1509.1 Z" fill="#bebebe" fill-rule="evenodd" fill-opacity="1" /><path clip-path="url(#clip650)" d="M 0 0 M1978.02 1543.56 L1986.61 1543.56 L1986.61 1513.9 L1977.27 1515.77 L1977.27 1510.98 L1986.56 1509.1 L1991.82 1509.1 L1991.82 1543.56 L2000.42 1543.56 L2000.42 1547.98 L1978.02 1547.98 L1978.02 1543.56 Z" fill="#bebebe" fill-rule="evenodd" fill-opacity="1" /><path clip-path="url(#clip650)" d="M 0 0 M2017.37 1529.52 Q2013.62 1529.52 2011.46 1531.53 Q2009.32 1533.53 2009.32 1537.05 Q2009.32 1540.56 2011.46 1542.57 Q2013.62 1544.57 2017.37 1544.57 Q2021.12 1544.57 2023.28 1542.57 Q2025.44 1540.54 2025.44 1537.05 Q2025.44 1533.53 2023.28 1531.53 Q2021.14 1529.52 2017.37 1529.52 M2012.11 1527.28 Q2008.72 1526.45 2006.82 1524.13 Q2004.95 1521.81 2004.95 1518.48 Q2004.95 1513.82 2008.25 1511.11 Q2011.59 1508.4 2017.37 1508.4 Q2023.18 1508.4 2026.48 1511.11 Q2029.79 1513.82 2029.79 1518.48 Q2029.79 1521.81 2027.89 1524.13 Q2026.01 1526.45 2022.66 1527.28 Q2026.46 1528.17 2028.57 1530.74 Q2030.7 1533.32 2030.7 1537.05 Q2030.7 1542.7 2027.24 1545.72 Q2023.8 1548.74 2017.37 1548.74 Q2010.94 1548.74 2007.47 1545.72 Q2004.04 1542.7 2004.04 1537.05 Q2004.04 1533.32 2006.17 1530.74 Q2008.31 1528.17 2012.11 1527.28 M2010.18 1518.97 Q2010.18 1521.99 2012.06 1523.69 Q2013.96 1525.38 2017.37 1525.38 Q2020.75 1525.38 2022.66 1523.69 Q2024.58 1521.99 2024.58 1518.97 Q2024.58 1515.95 2022.66 1514.26 Q2020.75 1512.57 2017.37 1512.57 Q2013.96 1512.57 2012.06 1514.26 Q2010.18 1515.95 2010.18 1518.97 Z" fill="#bebebe" fill-rule="evenodd" fill-opacity="1" /><path clip-path="url(#clip650)" d="M 0 0 M2069.91 1543.56 L2078.5 1543.56 L2078.5 1513.9 L2069.15 1515.77 L2069.15 1510.98 L2078.45 1509.1 L2083.71 1509.1 L2083.71 1543.56 L2092.3 1543.56 L2092.3 1547.98 L2069.91 1547.98 L2069.91 1543.56 Z" fill="#bebebe" fill-rule="evenodd" fill-opacity="1" /><path clip-path="url(#clip650)" d="M 0 0 M2098.16 1547.18 L2098.16 1542.38 Q2100.14 1543.32 2102.17 1543.82 Q2104.2 1544.31 2106.16 1544.31 Q2111.37 1544.31 2114.1 1540.82 Q2116.86 1537.31 2117.25 1530.17 Q2115.74 1532.41 2113.42 1533.61 Q2111.11 1534.81 2108.29 1534.81 Q2102.46 1534.81 2099.05 1531.29 Q2095.66 1527.75 2095.66 1521.63 Q2095.66 1515.64 2099.2 1512.02 Q2102.75 1508.4 2108.63 1508.4 Q2115.38 1508.4 2118.92 1513.58 Q2122.49 1518.74 2122.49 1528.58 Q2122.49 1537.78 2118.11 1543.27 Q2113.76 1548.74 2106.39 1548.74 Q2104.41 1548.74 2102.38 1548.35 Q2100.35 1547.96 2098.16 1547.18 M2108.63 1530.69 Q2112.17 1530.69 2114.23 1528.27 Q2116.31 1525.85 2116.31 1521.63 Q2116.31 1517.44 2114.23 1515.02 Q2112.17 1512.57 2108.63 1512.57 Q2105.09 1512.57 2103.01 1515.02 Q2100.95 1517.44 2100.95 1521.63 Q2100.95 1525.85 2103.01 1528.27 Q2105.09 1530.69 2108.63 1530.69 Z" fill="#bebebe" fill-rule="evenodd" fill-opacity="1" /><path clip-path="url(#clip650)" d="M 0 0 M2166.44 1543.56 L2184.8 1543.56 L2184.8 1547.98 L2160.12 1547.98 L2160.12 1543.56 Q2163.11 1540.46 2168.27 1535.25 Q2173.45 1530.02 2174.78 1528.5 Q2177.3 1525.67 2178.29 1523.71 Q2179.31 1521.73 2179.31 1519.83 Q2179.31 1516.73 2177.12 1514.78 Q2174.96 1512.83 2171.47 1512.83 Q2169 1512.83 2166.24 1513.69 Q2163.5 1514.55 2160.38 1516.29 L2160.38 1510.98 Q2163.55 1509.7 2166.31 1509.05 Q2169.07 1508.4 2171.37 1508.4 Q2177.41 1508.4 2181 1511.42 Q2184.59 1514.44 2184.59 1519.49 Q2184.59 1521.89 2183.68 1524.05 Q2182.8 1526.19 2180.43 1529.1 Q2179.78 1529.86 2176.29 1533.48 Q2172.8 1537.07 2166.44 1543.56 Z" fill="#bebebe" fill-rule="evenodd" fill-opacity="1" /><path clip-path="url(#clip650)" d="M 0 0 M2201.76 1512.57 Q2197.69 1512.57 2195.64 1516.58 Q2193.6 1520.56 2193.6 1528.58 Q2193.6 1536.58 2195.64 1540.59 Q2197.69 1544.57 2201.76 1544.57 Q2205.84 1544.57 2207.88 1540.59 Q2209.93 1536.58 2209.93 1528.58 Q2209.93 1520.56 2207.88 1516.58 Q2205.84 1512.57 2201.76 1512.57 M2201.76 1508.4 Q2208.29 1508.4 2211.73 1513.58 Q2215.19 1518.74 2215.19 1528.58 Q2215.19 1538.4 2211.73 1543.58 Q2208.29 1548.74 2201.76 1548.74 Q2195.22 1548.74 2191.76 1543.58 Q2188.32 1538.4 2188.32 1528.58 Q2188.32 1518.74 2191.76 1513.58 Q2195.22 1508.4 2201.76 1508.4 Z" fill="#bebebe" fill-rule="evenodd" fill-opacity="1" /><polyline clip-path="url(#clip652)" style="stroke:#000000; stroke-width:2; stroke-opacity:0.1; fill:none" points="
  185.846,1444.41 2352.76,1444.41 
  "/>
<polyline clip-path="url(#clip652)" style="stroke:#000000; stroke-width:2; stroke-opacity:0.1; fill:none" points="
  185.846,1051.5 2352.76,1051.5 
  "/>
<polyline clip-path="url(#clip652)" style="stroke:#000000; stroke-width:2; stroke-opacity:0.1; fill:none" points="
  185.846,658.598 2352.76,658.598 
  "/>
<polyline clip-path="url(#clip652)" style="stroke:#000000; stroke-width:2; stroke-opacity:0.1; fill:none" points="
  185.846,265.692 2352.76,265.692 
  "/>
<polyline clip-path="url(#clip650)" style="stroke:#000000; stroke-width:4; stroke-opacity:1; fill:none" points="
  185.846,1482.13 185.846,149.392 
  "/>
<polyline clip-path="url(#clip650)" style="stroke:#000000; stroke-width:4; stroke-opacity:1; fill:none" points="
  185.846,1444.41 211.849,1444.41 
  "/>
<polyline clip-path="url(#clip650)" style="stroke:#000000; stroke-width:4; stroke-opacity:1; fill:none" points="
  185.846,1051.5 211.849,1051.5 
  "/>
<polyline clip-path="url(#clip650)" style="stroke:#000000; stroke-width:4; stroke-opacity:1; fill:none" points="
  185.846,658.598 211.849,658.598 
  "/>
<polyline clip-path="url(#clip650)" style="stroke:#000000; stroke-width:4; stroke-opacity:1; fill:none" points="
  185.846,265.692 211.849,265.692 
  "/>
<path clip-path="url(#clip650)" d="M 0 0 M64.4296 1428.43 Q60.3671 1428.43 58.3098 1432.44 Q56.2786 1436.43 56.2786 1444.45 Q56.2786 1452.44 58.3098 1456.45 Q60.3671 1460.44 64.4296 1460.44 Q68.5181 1460.44 70.5493 1456.45 Q72.6066 1452.44 72.6066 1444.45 Q72.6066 1436.43 70.5493 1432.44 Q68.5181 1428.43 64.4296 1428.43 M64.4296 1424.27 Q70.966 1424.27 74.4035 1429.45 Q77.867 1434.6 77.867 1444.45 Q77.867 1454.27 74.4035 1459.45 Q70.966 1464.6 64.4296 1464.6 Q57.8931 1464.6 54.4296 1459.45 Q50.9921 1454.27 50.9921 1444.45 Q50.9921 1434.6 54.4296 1429.45 Q57.8931 1424.27 64.4296 1424.27 Z" fill="#bebebe" fill-rule="evenodd" fill-opacity="1" /><path clip-path="url(#clip650)" d="M 0 0 M83.5701 1457.23 L89.0648 1457.23 L89.0648 1463.85 L83.5701 1463.85 L83.5701 1457.23 Z" fill="#bebebe" fill-rule="evenodd" fill-opacity="1" /><path clip-path="url(#clip650)" d="M 0 0 M106.018 1428.43 Q101.955 1428.43 99.8981 1432.44 Q97.8669 1436.43 97.8669 1444.45 Q97.8669 1452.44 99.8981 1456.45 Q101.955 1460.44 106.018 1460.44 Q110.106 1460.44 112.138 1456.45 Q114.195 1452.44 114.195 1444.45 Q114.195 1436.43 112.138 1432.44 Q110.106 1428.43 106.018 1428.43 M106.018 1424.27 Q112.554 1424.27 115.992 1429.45 Q119.455 1434.6 119.455 1444.45 Q119.455 1454.27 115.992 1459.45 Q112.554 1464.6 106.018 1464.6 Q99.4814 1464.6 96.0179 1459.45 Q92.5804 1454.27 92.5804 1444.45 Q92.5804 1434.6 96.0179 1429.45 Q99.4814 1424.27 106.018 1424.27 Z" fill="#bebebe" fill-rule="evenodd" fill-opacity="1" /><path clip-path="url(#clip650)" d="M 0 0 M136.408 1428.43 Q132.346 1428.43 130.289 1432.44 Q128.257 1436.43 128.257 1444.45 Q128.257 1452.44 130.289 1456.45 Q132.346 1460.44 136.408 1460.44 Q140.497 1460.44 142.528 1456.45 Q144.585 1452.44 144.585 1444.45 Q144.585 1436.43 142.528 1432.44 Q140.497 1428.43 136.408 1428.43 M136.408 1424.27 Q142.945 1424.27 146.382 1429.45 Q149.846 1434.6 149.846 1444.45 Q149.846 1454.27 146.382 1459.45 Q142.945 1464.6 136.408 1464.6 Q129.872 1464.6 126.408 1459.45 Q122.971 1454.27 122.971 1444.45 Q122.971 1434.6 126.408 1429.45 Q129.872 1424.27 136.408 1424.27 Z" fill="#bebebe" fill-rule="evenodd" fill-opacity="1" /><path clip-path="url(#clip650)" d="M 0 0 M65.5493 1035.53 Q61.4869 1035.53 59.4296 1039.54 Q57.3983 1043.52 57.3983 1051.54 Q57.3983 1059.54 59.4296 1063.55 Q61.4869 1067.53 65.5493 1067.53 Q69.6379 1067.53 71.6691 1063.55 Q73.7264 1059.54 73.7264 1051.54 Q73.7264 1043.52 71.6691 1039.54 Q69.6379 1035.53 65.5493 1035.53 M65.5493 1031.36 Q72.0858 1031.36 75.5232 1036.54 Q78.9868 1041.7 78.9868 1051.54 Q78.9868 1061.36 75.5232 1066.54 Q72.0858 1071.7 65.5493 1071.7 Q59.0129 1071.7 55.5494 1066.54 Q52.1119 1061.36 52.1119 1051.54 Q52.1119 1041.7 55.5494 1036.54 Q59.0129 1031.36 65.5493 1031.36 Z" fill="#bebebe" fill-rule="evenodd" fill-opacity="1" /><path clip-path="url(#clip650)" d="M 0 0 M84.6899 1064.33 L90.1846 1064.33 L90.1846 1070.94 L84.6899 1070.94 L84.6899 1064.33 Z" fill="#bebebe" fill-rule="evenodd" fill-opacity="1" /><path clip-path="url(#clip650)" d="M 0 0 M107.138 1035.53 Q103.075 1035.53 101.018 1039.54 Q98.9867 1043.52 98.9867 1051.54 Q98.9867 1059.54 101.018 1063.55 Q103.075 1067.53 107.138 1067.53 Q111.226 1067.53 113.257 1063.55 Q115.315 1059.54 115.315 1051.54 Q115.315 1043.52 113.257 1039.54 Q111.226 1035.53 107.138 1035.53 M107.138 1031.36 Q113.674 1031.36 117.112 1036.54 Q120.575 1041.7 120.575 1051.54 Q120.575 1061.36 117.112 1066.54 Q113.674 1071.7 107.138 1071.7 Q100.601 1071.7 97.1377 1066.54 Q93.7002 1061.36 93.7002 1051.54 Q93.7002 1041.7 97.1377 1036.54 Q100.601 1031.36 107.138 1031.36 Z" fill="#bebebe" fill-rule="evenodd" fill-opacity="1" /><path clip-path="url(#clip650)" d="M 0 0 M126.33 1032.06 L146.981 1032.06 L146.981 1036.49 L131.148 1036.49 L131.148 1046.02 Q132.294 1045.63 133.44 1045.45 Q134.585 1045.24 135.731 1045.24 Q142.242 1045.24 146.044 1048.81 Q149.846 1052.38 149.846 1058.47 Q149.846 1064.75 145.94 1068.24 Q142.033 1071.7 134.924 1071.7 Q132.476 1071.7 129.924 1071.28 Q127.398 1070.87 124.69 1070.03 L124.69 1064.75 Q127.033 1066.02 129.533 1066.65 Q132.033 1067.27 134.82 1067.27 Q139.325 1067.27 141.955 1064.9 Q144.585 1062.53 144.585 1058.47 Q144.585 1054.41 141.955 1052.04 Q139.325 1049.67 134.82 1049.67 Q132.71 1049.67 130.601 1050.14 Q128.518 1050.6 126.33 1051.59 L126.33 1032.06 Z" fill="#bebebe" fill-rule="evenodd" fill-opacity="1" /><path clip-path="url(#clip650)" d="M 0 0 M65.8098 642.621 Q61.7473 642.621 59.69 646.632 Q57.6588 650.616 57.6588 658.637 Q57.6588 666.632 59.69 670.642 Q61.7473 674.626 65.8098 674.626 Q69.8983 674.626 71.9295 670.642 Q73.9868 666.632 73.9868 658.637 Q73.9868 650.616 71.9295 646.632 Q69.8983 642.621 65.8098 642.621 M65.8098 638.455 Q72.3462 638.455 75.7837 643.637 Q79.2472 648.793 79.2472 658.637 Q79.2472 668.454 75.7837 673.637 Q72.3462 678.793 65.8098 678.793 Q59.2733 678.793 55.8098 673.637 Q52.3723 668.454 52.3723 658.637 Q52.3723 648.793 55.8098 643.637 Q59.2733 638.455 65.8098 638.455 Z" fill="#bebebe" fill-rule="evenodd" fill-opacity="1" /><path clip-path="url(#clip650)" d="M 0 0 M84.9503 671.423 L90.445 671.423 L90.445 678.038 L84.9503 678.038 L84.9503 671.423 Z" fill="#bebebe" fill-rule="evenodd" fill-opacity="1" /><path clip-path="url(#clip650)" d="M 0 0 M97.0596 673.611 L105.653 673.611 L105.653 643.949 L96.3044 645.824 L96.3044 641.033 L105.601 639.158 L110.862 639.158 L110.862 673.611 L119.455 673.611 L119.455 678.038 L97.0596 678.038 L97.0596 673.611 Z" fill="#bebebe" fill-rule="evenodd" fill-opacity="1" /><path clip-path="url(#clip650)" d="M 0 0 M136.408 642.621 Q132.346 642.621 130.289 646.632 Q128.257 650.616 128.257 658.637 Q128.257 666.632 130.289 670.642 Q132.346 674.626 136.408 674.626 Q140.497 674.626 142.528 670.642 Q144.585 666.632 144.585 658.637 Q144.585 650.616 142.528 646.632 Q140.497 642.621 136.408 642.621 M136.408 638.455 Q142.945 638.455 146.382 643.637 Q149.846 648.793 149.846 658.637 Q149.846 668.454 146.382 673.637 Q142.945 678.793 136.408 678.793 Q129.872 678.793 126.408 673.637 Q122.971 668.454 122.971 658.637 Q122.971 648.793 126.408 643.637 Q129.872 638.455 136.408 638.455 Z" fill="#bebebe" fill-rule="evenodd" fill-opacity="1" /><path clip-path="url(#clip650)" d="M 0 0 M66.9295 249.716 Q62.8671 249.716 60.8098 253.726 Q58.7785 257.71 58.7785 265.731 Q58.7785 273.726 60.8098 277.736 Q62.8671 281.721 66.9295 281.721 Q71.0181 281.721 73.0493 277.736 Q75.1066 273.726 75.1066 265.731 Q75.1066 257.71 73.0493 253.726 Q71.0181 249.716 66.9295 249.716 M66.9295 245.549 Q73.466 245.549 76.9034 250.731 Q80.367 255.888 80.367 265.731 Q80.367 275.549 76.9034 280.731 Q73.466 285.887 66.9295 285.887 Q60.3931 285.887 56.9296 280.731 Q53.4921 275.549 53.4921 265.731 Q53.4921 255.888 56.9296 250.731 Q60.3931 245.549 66.9295 245.549 Z" fill="#bebebe" fill-rule="evenodd" fill-opacity="1" /><path clip-path="url(#clip650)" d="M 0 0 M86.0701 278.518 L91.5648 278.518 L91.5648 285.132 L86.0701 285.132 L86.0701 278.518 Z" fill="#bebebe" fill-rule="evenodd" fill-opacity="1" /><path clip-path="url(#clip650)" d="M 0 0 M98.1794 280.705 L106.773 280.705 L106.773 251.044 L97.4242 252.919 L97.4242 248.127 L106.721 246.252 L111.981 246.252 L111.981 280.705 L120.575 280.705 L120.575 285.132 L98.1794 285.132 L98.1794 280.705 Z" fill="#bebebe" fill-rule="evenodd" fill-opacity="1" /><path clip-path="url(#clip650)" d="M 0 0 M126.33 246.252 L146.981 246.252 L146.981 250.679 L131.148 250.679 L131.148 260.21 Q132.294 259.82 133.44 259.638 Q134.585 259.429 135.731 259.429 Q142.242 259.429 146.044 262.997 Q149.846 266.565 149.846 272.658 Q149.846 278.934 145.94 282.424 Q142.033 285.887 134.924 285.887 Q132.476 285.887 129.924 285.471 Q127.398 285.054 124.69 284.221 L124.69 278.934 Q127.033 280.21 129.533 280.835 Q132.033 281.46 134.82 281.46 Q139.325 281.46 141.955 279.091 Q144.585 276.721 144.585 272.658 Q144.585 268.596 141.955 266.226 Q139.325 263.856 134.82 263.856 Q132.71 263.856 130.601 264.325 Q128.518 264.794 126.33 265.783 L126.33 246.252 Z" fill="#bebebe" fill-rule="evenodd" fill-opacity="1" /><path clip-path="url(#clip650)" d="M 0 0 M886.085 20.1156 L886.085 31.516 Q879.43 28.3332 873.527 26.7707 Q867.625 25.2082 862.127 25.2082 Q852.579 25.2082 847.37 28.9119 Q842.22 32.6156 842.22 39.4442 Q842.22 45.1734 845.634 48.1247 Q849.106 51.0182 858.713 52.8122 L865.773 54.259 Q878.852 56.7474 885.044 63.0552 Q891.294 69.3052 891.294 79.8375 Q891.294 92.3953 882.845 98.8768 Q874.453 105.358 858.192 105.358 Q852.058 105.358 845.113 103.969 Q838.227 102.58 830.819 99.8606 L830.819 87.8236 Q837.937 91.8166 844.766 93.8421 Q851.595 95.8675 858.192 95.8675 Q868.203 95.8675 873.643 91.9324 Q879.083 87.9972 879.083 80.7056 Q879.083 74.3399 875.148 70.7519 Q871.271 67.164 862.359 65.37 L855.241 63.9811 Q842.162 61.377 836.317 55.8215 Q830.472 50.2659 830.472 40.3702 Q830.472 28.9119 838.516 22.3147 Q846.618 15.7175 860.796 15.7175 Q866.872 15.7175 873.18 16.817 Q879.488 17.9166 886.085 20.1156 Z" fill="#bebebe" fill-rule="evenodd" fill-opacity="1" /><path clip-path="url(#clip650)" d="M 0 0 M957.902 68.6107 L957.902 73.819 L908.944 73.819 Q909.638 84.8144 915.541 90.6014 Q921.502 96.3305 932.092 96.3305 Q938.226 96.3305 943.955 94.8259 Q949.742 93.3213 955.414 90.312 L955.414 100.381 Q949.684 102.812 943.666 104.085 Q937.648 105.358 931.455 105.358 Q915.946 105.358 906.861 96.3305 Q897.833 87.3028 897.833 71.9093 Q897.833 55.9951 906.398 46.678 Q915.02 37.303 929.604 37.303 Q942.682 37.303 950.263 45.7521 Q957.902 54.1432 957.902 68.6107 M947.254 65.4858 Q947.138 56.7474 942.335 51.5391 Q937.59 46.3308 929.719 46.3308 Q920.807 46.3308 915.425 51.3655 Q910.101 56.4002 909.291 65.5436 L947.254 65.4858 Z" fill="#bebebe" fill-rule="evenodd" fill-opacity="1" /><path clip-path="url(#clip650)" d="M 0 0 M1006.63 48.8192 Q1004.83 47.7775 1002.69 47.3146 Q1000.61 46.7937 998.064 46.7937 Q989.036 46.7937 984.175 52.6965 Q979.372 58.5414 979.372 69.5367 L979.372 103.68 L968.666 103.68 L968.666 38.8655 L979.372 38.8655 L979.372 48.9349 Q982.728 43.0322 988.11 40.1965 Q993.492 37.303 1001.19 37.303 Q1002.29 37.303 1003.62 37.4767 Q1004.95 37.5924 1006.57 37.8817 L1006.63 48.8192 Z" fill="#bebebe" fill-rule="evenodd" fill-opacity="1" /><path clip-path="url(#clip650)" d="M 0 0 M1017.8 38.8655 L1028.45 38.8655 L1028.45 103.68 L1017.8 103.68 L1017.8 38.8655 M1017.8 13.6342 L1028.45 13.6342 L1028.45 27.1179 L1017.8 27.1179 L1017.8 13.6342 Z" fill="#bebebe" fill-rule="evenodd" fill-opacity="1" /><path clip-path="url(#clip650)" d="M 0 0 M1095.05 68.6107 L1095.05 73.819 L1046.1 73.819 Q1046.79 84.8144 1052.69 90.6014 Q1058.65 96.3305 1069.24 96.3305 Q1075.38 96.3305 1081.11 94.8259 Q1086.89 93.3213 1092.57 90.312 L1092.57 100.381 Q1086.84 102.812 1080.82 104.085 Q1074.8 105.358 1068.61 105.358 Q1053.1 105.358 1044.01 96.3305 Q1034.98 87.3028 1034.98 71.9093 Q1034.98 55.9951 1043.55 46.678 Q1052.17 37.303 1066.76 37.303 Q1079.83 37.303 1087.42 45.7521 Q1095.05 54.1432 1095.05 68.6107 M1084.41 65.4858 Q1084.29 56.7474 1079.49 51.5391 Q1074.74 46.3308 1066.87 46.3308 Q1057.96 46.3308 1052.58 51.3655 Q1047.25 56.4002 1046.44 65.5436 L1084.41 65.4858 Z" fill="#bebebe" fill-rule="evenodd" fill-opacity="1" /><path clip-path="url(#clip650)" d="M 0 0 M1153.97 17.28 L1153.97 49.3979 L1144.13 49.3979 L1144.13 17.28 L1153.97 17.28 Z" fill="#bebebe" fill-rule="evenodd" fill-opacity="1" /><path clip-path="url(#clip650)" d="M 0 0 M1219.01 64.5598 L1219.01 103.68 L1208.36 103.68 L1208.36 64.9071 Q1208.36 55.7057 1204.78 51.134 Q1201.19 46.5623 1194.01 46.5623 Q1185.39 46.5623 1180.41 52.0599 Q1175.44 57.5576 1175.44 67.0483 L1175.44 103.68 L1164.73 103.68 L1164.73 13.6342 L1175.44 13.6342 L1175.44 48.9349 Q1179.26 43.09 1184.41 40.1965 Q1189.61 37.303 1196.38 37.303 Q1207.55 37.303 1213.28 44.2474 Q1219.01 51.134 1219.01 64.5598 Z" fill="#bebebe" fill-rule="evenodd" fill-opacity="1" /><path clip-path="url(#clip650)" d="M 0 0 M1230.18 38.8655 L1240.83 38.8655 L1240.83 103.68 L1230.18 103.68 L1230.18 38.8655 M1230.18 13.6342 L1240.83 13.6342 L1240.83 27.1179 L1230.18 27.1179 L1230.18 13.6342 Z" fill="#bebebe" fill-rule="evenodd" fill-opacity="1" /><path clip-path="url(#clip650)" d="M 0 0 M1293.32 40.7752 L1293.32 50.8446 Q1288.8 48.5298 1283.94 47.3724 Q1279.08 46.215 1273.87 46.215 Q1265.94 46.215 1261.95 48.6456 Q1258.02 51.0761 1258.02 55.9372 Q1258.02 59.6409 1260.85 61.7821 Q1263.69 63.8654 1272.25 65.7751 L1275.9 66.5853 Q1287.24 69.0158 1291.99 73.4718 Q1296.79 77.87 1296.79 85.7982 Q1296.79 94.8259 1289.61 100.092 Q1282.5 105.358 1270 105.358 Q1264.79 105.358 1259.12 104.317 Q1253.5 103.333 1247.25 101.307 L1247.25 90.312 Q1253.16 93.3791 1258.88 94.9416 Q1264.61 96.4462 1270.23 96.4462 Q1277.75 96.4462 1281.8 93.9 Q1285.85 91.2958 1285.85 86.6083 Q1285.85 82.2681 1282.9 79.9533 Q1280.01 77.6385 1270.11 75.4973 L1266.41 74.6292 Q1256.51 72.5459 1252.11 68.2635 Q1247.72 63.9233 1247.72 56.4002 Q1247.72 47.2567 1254.2 42.2799 Q1260.68 37.303 1272.6 37.303 Q1278.5 37.303 1283.71 38.1711 Q1288.92 39.0391 1293.32 40.7752 Z" fill="#bebebe" fill-rule="evenodd" fill-opacity="1" /><path clip-path="url(#clip650)" d="M 0 0 M1318.49 20.4629 L1318.49 38.8655 L1340.42 38.8655 L1340.42 47.141 L1318.49 47.141 L1318.49 82.3259 Q1318.49 90.2541 1320.63 92.5111 Q1322.83 94.768 1329.49 94.768 L1340.42 94.768 L1340.42 103.68 L1329.49 103.68 Q1317.16 103.68 1312.47 99.1083 Q1307.78 94.4787 1307.78 82.3259 L1307.78 47.141 L1299.97 47.141 L1299.97 38.8655 L1307.78 38.8655 L1307.78 20.4629 L1318.49 20.4629 Z" fill="#bebebe" fill-rule="evenodd" fill-opacity="1" /><path clip-path="url(#clip650)" d="M 0 0 M1376.71 46.3308 Q1368.14 46.3308 1363.17 53.0437 Q1358.19 59.6988 1358.19 71.3306 Q1358.19 82.9625 1363.11 89.6754 Q1368.09 96.3305 1376.71 96.3305 Q1385.21 96.3305 1390.19 89.6176 Q1395.17 82.9046 1395.17 71.3306 Q1395.17 59.8145 1390.19 53.1016 Q1385.21 46.3308 1376.71 46.3308 M1376.71 37.303 Q1390.6 37.303 1398.52 46.3308 Q1406.45 55.3585 1406.45 71.3306 Q1406.45 87.2449 1398.52 96.3305 Q1390.6 105.358 1376.71 105.358 Q1362.76 105.358 1354.83 96.3305 Q1346.96 87.2449 1346.96 71.3306 Q1346.96 55.3585 1354.83 46.3308 Q1362.76 37.303 1376.71 37.303 Z" fill="#bebebe" fill-rule="evenodd" fill-opacity="1" /><path clip-path="url(#clip650)" d="M 0 0 M1460.27 70.5205 Q1460.27 58.9464 1455.47 52.5807 Q1450.72 46.215 1442.1 46.215 Q1433.54 46.215 1428.73 52.5807 Q1423.99 58.9464 1423.99 70.5205 Q1423.99 82.0366 1428.73 88.4023 Q1433.54 94.768 1442.1 94.768 Q1450.72 94.768 1455.47 88.4023 Q1460.27 82.0366 1460.27 70.5205 M1470.92 95.6361 Q1470.92 112.187 1463.57 120.231 Q1456.22 128.333 1441.06 128.333 Q1435.45 128.333 1430.47 127.465 Q1425.49 126.654 1420.8 124.918 L1420.8 114.56 Q1425.49 117.106 1430.06 118.321 Q1434.64 119.536 1439.38 119.536 Q1449.86 119.536 1455.06 114.039 Q1460.27 108.599 1460.27 97.5458 L1460.27 92.2796 Q1456.97 98.0087 1451.82 100.844 Q1446.67 103.68 1439.5 103.68 Q1427.58 103.68 1420.28 94.5944 Q1412.99 85.5088 1412.99 70.5205 Q1412.99 55.4742 1420.28 46.3886 Q1427.58 37.303 1439.5 37.303 Q1446.67 37.303 1451.82 40.1387 Q1456.97 42.9743 1460.27 48.7034 L1460.27 38.8655 L1470.92 38.8655 L1470.92 95.6361 Z" fill="#bebebe" fill-rule="evenodd" fill-opacity="1" /><path clip-path="url(#clip650)" d="M 0 0 M1519.65 48.8192 Q1517.85 47.7775 1515.71 47.3146 Q1513.63 46.7937 1511.08 46.7937 Q1502.05 46.7937 1497.19 52.6965 Q1492.39 58.5414 1492.39 69.5367 L1492.39 103.68 L1481.68 103.68 L1481.68 38.8655 L1492.39 38.8655 L1492.39 48.9349 Q1495.75 43.0322 1501.13 40.1965 Q1506.51 37.303 1514.21 37.303 Q1515.31 37.303 1516.64 37.4767 Q1517.97 37.5924 1519.59 37.8817 L1519.65 48.8192 Z" fill="#bebebe" fill-rule="evenodd" fill-opacity="1" /><path clip-path="url(#clip650)" d="M 0 0 M1560.27 71.0992 Q1547.37 71.0992 1542.39 74.0505 Q1537.41 77.0019 1537.41 84.1199 Q1537.41 89.7912 1541.12 93.1476 Q1544.88 96.4462 1551.3 96.4462 Q1560.16 96.4462 1565.48 90.1963 Q1570.86 83.8884 1570.86 73.4718 L1570.86 71.0992 L1560.27 71.0992 M1581.51 66.701 L1581.51 103.68 L1570.86 103.68 L1570.86 93.8421 Q1567.22 99.7448 1561.78 102.58 Q1556.34 105.358 1548.47 105.358 Q1538.51 105.358 1532.61 99.8027 Q1526.76 94.1893 1526.76 84.8144 Q1526.76 73.8769 1534.06 68.3214 Q1541.41 62.7659 1555.93 62.7659 L1570.86 62.7659 L1570.86 61.7242 Q1570.86 54.3747 1566 50.3817 Q1561.2 46.3308 1552.46 46.3308 Q1546.9 46.3308 1541.64 47.6618 Q1536.37 48.9928 1531.51 51.6548 L1531.51 41.8169 Q1537.35 39.56 1542.85 38.4604 Q1548.35 37.303 1553.56 37.303 Q1567.62 37.303 1574.57 44.5947 Q1581.51 51.8863 1581.51 66.701 Z" fill="#bebebe" fill-rule="evenodd" fill-opacity="1" /><path clip-path="url(#clip650)" d="M 0 0 M1643.14 51.3076 Q1647.13 44.1317 1652.69 40.7174 Q1658.25 37.303 1665.77 37.303 Q1675.9 37.303 1681.39 44.4211 Q1686.89 51.4812 1686.89 64.5598 L1686.89 103.68 L1676.19 103.68 L1676.19 64.9071 Q1676.19 55.59 1672.89 51.0761 Q1669.59 46.5623 1662.82 46.5623 Q1654.54 46.5623 1649.74 52.0599 Q1644.94 57.5576 1644.94 67.0483 L1644.94 103.68 L1634.23 103.68 L1634.23 64.9071 Q1634.23 55.5321 1630.93 51.0761 Q1627.63 46.5623 1620.75 46.5623 Q1612.59 46.5623 1607.78 52.1178 Q1602.98 57.6154 1602.98 67.0483 L1602.98 103.68 L1592.27 103.68 L1592.27 38.8655 L1602.98 38.8655 L1602.98 48.9349 Q1606.63 42.9743 1611.72 40.1387 Q1616.81 37.303 1623.81 37.303 Q1630.87 37.303 1635.79 40.891 Q1640.77 44.4789 1643.14 51.3076 Z" fill="#bebebe" fill-rule="evenodd" fill-opacity="1" /><path clip-path="url(#clip650)" d="M 0 0 M1708.13 17.28 L1708.13 49.3979 L1698.29 49.3979 L1698.29 17.28 L1708.13 17.28 Z" fill="#bebebe" fill-rule="evenodd" fill-opacity="1" /><path clip-path="url(#clip652)" d="
M305.03 1444.41 L305.03 1444.41 L396.865 1444.41 L396.865 1444.41 L305.03 1444.41 L305.03 1444.41  Z
  " fill="#ff0000" fill-rule="evenodd" fill-opacity="1"/>
<polyline clip-path="url(#clip652)" style="stroke:#000000; stroke-width:4; stroke-opacity:1; fill:none" points="
  305.03,1444.41 305.03,1444.41 396.865,1444.41 305.03,1444.41 
  "/>
<path clip-path="url(#clip652)" d="
M396.865 894.341 L396.865 1444.41 L488.7 1444.41 L488.7 894.341 L396.865 894.341 L396.865 894.341  Z
  " fill="#ffa500" fill-rule="evenodd" fill-opacity="1"/>
<polyline clip-path="url(#clip652)" style="stroke:#000000; stroke-width:4; stroke-opacity:1; fill:none" points="
  396.865,894.341 396.865,1444.41 488.7,1444.41 488.7,894.341 396.865,894.341 
  "/>
<path clip-path="url(#clip652)" d="
M488.7 1051.5 L488.7 1444.41 L580.536 1444.41 L580.536 1051.5 L488.7 1051.5 L488.7 1051.5  Z
  " fill="#008000" fill-rule="evenodd" fill-opacity="1"/>
<polyline clip-path="url(#clip652)" style="stroke:#000000; stroke-width:4; stroke-opacity:1; fill:none" points="
  488.7,1051.5 488.7,1444.41 580.536,1444.41 580.536,1051.5 488.7,1051.5 
  "/>
<path clip-path="url(#clip652)" d="
M580.536 894.341 L580.536 1444.41 L672.371 1444.41 L672.371 894.341 L580.536 894.341 L580.536 894.341  Z
  " fill="#ff0000" fill-rule="evenodd" fill-opacity="1"/>
<polyline clip-path="url(#clip652)" style="stroke:#000000; stroke-width:4; stroke-opacity:1; fill:none" points="
  580.536,894.341 580.536,1444.41 672.371,1444.41 672.371,894.341 580.536,894.341 
  "/>
<path clip-path="url(#clip652)" d="
M672.371 1208.67 L672.371 1444.41 L764.206 1444.41 L764.206 1208.67 L672.371 1208.67 L672.371 1208.67  Z
  " fill="#ffa500" fill-rule="evenodd" fill-opacity="1"/>
<polyline clip-path="url(#clip652)" style="stroke:#000000; stroke-width:4; stroke-opacity:1; fill:none" points="
  672.371,1208.67 672.371,1444.41 764.206,1444.41 764.206,1208.67 672.371,1208.67 
  "/>
<path clip-path="url(#clip652)" d="
M764.206 815.76 L764.206 1444.41 L856.042 1444.41 L856.042 815.76 L764.206 815.76 L764.206 815.76  Z
  " fill="#008000" fill-rule="evenodd" fill-opacity="1"/>
<polyline clip-path="url(#clip652)" style="stroke:#000000; stroke-width:4; stroke-opacity:1; fill:none" points="
  764.206,815.76 764.206,1444.41 856.042,1444.41 856.042,815.76 764.206,815.76 
  "/>
<path clip-path="url(#clip652)" d="
M856.042 1287.25 L856.042 1444.41 L947.877 1444.41 L947.877 1287.25 L856.042 1287.25 L856.042 1287.25  Z
  " fill="#ff0000" fill-rule="evenodd" fill-opacity="1"/>
<polyline clip-path="url(#clip652)" style="stroke:#000000; stroke-width:4; stroke-opacity:1; fill:none" points="
  856.042,1287.25 856.042,1444.41 947.877,1444.41 947.877,1287.25 856.042,1287.25 
  "/>
<path clip-path="url(#clip652)" d="
M947.877 1287.25 L947.877 1444.41 L1039.71 1444.41 L1039.71 1287.25 L947.877 1287.25 L947.877 1287.25  Z
  " fill="#ffa500" fill-rule="evenodd" fill-opacity="1"/>
<polyline clip-path="url(#clip652)" style="stroke:#000000; stroke-width:4; stroke-opacity:1; fill:none" points="
  947.877,1287.25 947.877,1444.41 1039.71,1444.41 1039.71,1287.25 947.877,1287.25 
  "/>
<path clip-path="url(#clip652)" d="
M1039.71 972.922 L1039.71 1444.41 L1131.55 1444.41 L1131.55 972.922 L1039.71 972.922 L1039.71 972.922  Z
  " fill="#008000" fill-rule="evenodd" fill-opacity="1"/>
<polyline clip-path="url(#clip652)" style="stroke:#000000; stroke-width:4; stroke-opacity:1; fill:none" points="
  1039.71,972.922 1039.71,1444.41 1131.55,1444.41 1131.55,972.922 1039.71,972.922 
  "/>
<path clip-path="url(#clip652)" d="
M1131.55 1208.67 L1131.55 1444.41 L1223.38 1444.41 L1223.38 1208.67 L1131.55 1208.67 L1131.55 1208.67  Z
  " fill="#ff0000" fill-rule="evenodd" fill-opacity="1"/>
<polyline clip-path="url(#clip652)" style="stroke:#000000; stroke-width:4; stroke-opacity:1; fill:none" points="
  1131.55,1208.67 1131.55,1444.41 1223.38,1444.41 1223.38,1208.67 1131.55,1208.67 
  "/>
<path clip-path="url(#clip652)" d="
M1223.38 187.111 L1223.38 1444.41 L1315.22 1444.41 L1315.22 187.111 L1223.38 187.111 L1223.38 187.111  Z
  " fill="#ffa500" fill-rule="evenodd" fill-opacity="1"/>
<polyline clip-path="url(#clip652)" style="stroke:#000000; stroke-width:4; stroke-opacity:1; fill:none" points="
  1223.38,187.111 1223.38,1444.41 1315.22,1444.41 1315.22,187.111 1223.38,187.111 
  "/>
<path clip-path="url(#clip652)" d="
M1315.22 1130.08 L1315.22 1444.41 L1407.05 1444.41 L1407.05 1130.08 L1315.22 1130.08 L1315.22 1130.08  Z
  " fill="#008000" fill-rule="evenodd" fill-opacity="1"/>
<polyline clip-path="url(#clip652)" style="stroke:#000000; stroke-width:4; stroke-opacity:1; fill:none" points="
  1315.22,1130.08 1315.22,1444.41 1407.05,1444.41 1407.05,1130.08 1315.22,1130.08 
  "/>
<path clip-path="url(#clip652)" d="
M1407.05 1208.67 L1407.05 1444.41 L1498.89 1444.41 L1498.89 1208.67 L1407.05 1208.67 L1407.05 1208.67  Z
  " fill="#ff0000" fill-rule="evenodd" fill-opacity="1"/>
<polyline clip-path="url(#clip652)" style="stroke:#000000; stroke-width:4; stroke-opacity:1; fill:none" points="
  1407.05,1208.67 1407.05,1444.41 1498.89,1444.41 1498.89,1208.67 1407.05,1208.67 
  "/>
<path clip-path="url(#clip652)" d="
M1498.89 1130.08 L1498.89 1444.41 L1590.72 1444.41 L1590.72 1130.08 L1498.89 1130.08 L1498.89 1130.08  Z
  " fill="#ffa500" fill-rule="evenodd" fill-opacity="1"/>
<polyline clip-path="url(#clip652)" style="stroke:#000000; stroke-width:4; stroke-opacity:1; fill:none" points="
  1498.89,1130.08 1498.89,1444.41 1590.72,1444.41 1590.72,1130.08 1498.89,1130.08 
  "/>
<path clip-path="url(#clip652)" d="
M1590.72 1365.83 L1590.72 1444.41 L1682.56 1444.41 L1682.56 1365.83 L1590.72 1365.83 L1590.72 1365.83  Z
  " fill="#008000" fill-rule="evenodd" fill-opacity="1"/>
<polyline clip-path="url(#clip652)" style="stroke:#000000; stroke-width:4; stroke-opacity:1; fill:none" points="
  1590.72,1365.83 1590.72,1444.41 1682.56,1444.41 1682.56,1365.83 1590.72,1365.83 
  "/>
<path clip-path="url(#clip652)" d="
M1682.56 1208.67 L1682.56 1444.41 L1774.4 1444.41 L1774.4 1208.67 L1682.56 1208.67 L1682.56 1208.67  Z
  " fill="#ff0000" fill-rule="evenodd" fill-opacity="1"/>
<polyline clip-path="url(#clip652)" style="stroke:#000000; stroke-width:4; stroke-opacity:1; fill:none" points="
  1682.56,1208.67 1682.56,1444.41 1774.4,1444.41 1774.4,1208.67 1682.56,1208.67 
  "/>
<path clip-path="url(#clip652)" d="
M1774.4 1051.5 L1774.4 1444.41 L1866.23 1444.41 L1866.23 1051.5 L1774.4 1051.5 L1774.4 1051.5  Z
  " fill="#ffa500" fill-rule="evenodd" fill-opacity="1"/>
<polyline clip-path="url(#clip652)" style="stroke:#000000; stroke-width:4; stroke-opacity:1; fill:none" points="
  1774.4,1051.5 1774.4,1444.41 1866.23,1444.41 1866.23,1051.5 1774.4,1051.5 
  "/>
<path clip-path="url(#clip652)" d="
M1866.23 1051.5 L1866.23 1444.41 L1958.07 1444.41 L1958.07 1051.5 L1866.23 1051.5 L1866.23 1051.5  Z
  " fill="#008000" fill-rule="evenodd" fill-opacity="1"/>
<polyline clip-path="url(#clip652)" style="stroke:#000000; stroke-width:4; stroke-opacity:1; fill:none" points="
  1866.23,1051.5 1866.23,1444.41 1958.07,1444.41 1958.07,1051.5 1866.23,1051.5 
  "/>
<path clip-path="url(#clip652)" d="
M1958.07 1051.5 L1958.07 1444.41 L2049.9 1444.41 L2049.9 1051.5 L1958.07 1051.5 L1958.07 1051.5  Z
  " fill="#ff0000" fill-rule="evenodd" fill-opacity="1"/>
<polyline clip-path="url(#clip652)" style="stroke:#000000; stroke-width:4; stroke-opacity:1; fill:none" points="
  1958.07,1051.5 1958.07,1444.41 2049.9,1444.41 2049.9,1051.5 1958.07,1051.5 
  "/>
<path clip-path="url(#clip652)" d="
M2049.9 894.341 L2049.9 1444.41 L2141.74 1444.41 L2141.74 894.341 L2049.9 894.341 L2049.9 894.341  Z
  " fill="#ffa500" fill-rule="evenodd" fill-opacity="1"/>
<polyline clip-path="url(#clip652)" style="stroke:#000000; stroke-width:4; stroke-opacity:1; fill:none" points="
  2049.9,894.341 2049.9,1444.41 2141.74,1444.41 2141.74,894.341 2049.9,894.341 
  "/>
<path clip-path="url(#clip652)" d="
M2141.74 1130.08 L2141.74 1444.41 L2233.57 1444.41 L2233.57 1130.08 L2141.74 1130.08 L2141.74 1130.08  Z
  " fill="#008000" fill-rule="evenodd" fill-opacity="1"/>
<polyline clip-path="url(#clip652)" style="stroke:#000000; stroke-width:4; stroke-opacity:1; fill:none" points="
  2141.74,1130.08 2141.74,1444.41 2233.57,1444.41 2233.57,1130.08 2141.74,1130.08 
  "/>
</svg>
