<?xml version="1.0" encoding="utf-8"?>
<svg xmlns="http://www.w3.org/2000/svg" xmlns:xlink="http://www.w3.org/1999/xlink" width="600" height="400" viewBox="0 0 2400 1600">
<defs>
  <clipPath id="clip360">
    <rect x="0" y="0" width="2400" height="1600"/>
  </clipPath>
</defs>
<path clip-path="url(#clip360)" d="
M0 1600 L2400 1600 L2400 0 L0 0  Z
  " fill="#ffffff" fill-rule="evenodd" fill-opacity="1"/>
<defs>
  <clipPath id="clip361">
    <rect x="480" y="0" width="1681" height="1600"/>
  </clipPath>
</defs>
<path clip-path="url(#clip360)" d="
M185.846 1482.13 L2352.76 1482.13 L2352.76 149.392 L185.846 149.392  Z
  " fill="#ffffff" fill-rule="evenodd" fill-opacity="1"/>
<defs>
  <clipPath id="clip362">
    <rect x="185" y="149" width="2168" height="1334"/>
  </clipPath>
</defs>
<polyline clip-path="url(#clip362)" style="stroke:#000000; stroke-width:2; stroke-opacity:0.1; fill:none" points="
  677.543,1482.13 677.543,149.392 
  "/>
<polyline clip-path="url(#clip362)" style="stroke:#000000; stroke-width:2; stroke-opacity:0.1; fill:none" points="
  1215.5,1482.13 1215.5,149.392 
  "/>
<polyline clip-path="url(#clip362)" style="stroke:#000000; stroke-width:2; stroke-opacity:0.1; fill:none" points="
  1753.47,1482.13 1753.47,149.392 
  "/>
<polyline clip-path="url(#clip362)" style="stroke:#000000; stroke-width:2; stroke-opacity:0.1; fill:none" points="
  2291.43,1482.13 2291.43,149.392 
  "/>
<polyline clip-path="url(#clip360)" style="stroke:#000000; stroke-width:4; stroke-opacity:1; fill:none" points="
  185.846,1482.13 2352.76,1482.13 
  "/>
<polyline clip-path="url(#clip360)" style="stroke:#000000; stroke-width:4; stroke-opacity:1; fill:none" points="
  677.543,1482.13 677.543,1466.14 
  "/>
<polyline clip-path="url(#clip360)" style="stroke:#000000; stroke-width:4; stroke-opacity:1; fill:none" points="
  1215.5,1482.13 1215.5,1466.14 
  "/>
<polyline clip-path="url(#clip360)" style="stroke:#000000; stroke-width:4; stroke-opacity:1; fill:none" points="
  1753.47,1482.13 1753.47,1466.14 
  "/>
<polyline clip-path="url(#clip360)" style="stroke:#000000; stroke-width:4; stroke-opacity:1; fill:none" points="
  2291.43,1482.13 2291.43,1466.14 
  "/>
<path clip-path="url(#clip360)" d="M 0 0 M666.605 1509.1 L687.256 1509.1 L687.256 1513.53 L671.423 1513.53 L671.423 1523.06 Q672.569 1522.67 673.715 1522.49 Q674.861 1522.28 676.006 1522.28 Q682.517 1522.28 686.319 1525.85 Q690.121 1529.42 690.121 1535.51 Q690.121 1541.79 686.215 1545.28 Q682.308 1548.74 675.199 1548.74 Q672.751 1548.74 670.199 1548.32 Q667.673 1547.91 664.965 1547.07 L664.965 1541.79 Q667.309 1543.06 669.809 1543.69 Q672.309 1544.31 675.095 1544.31 Q679.6 1544.31 682.23 1541.94 Q684.861 1539.57 684.861 1535.51 Q684.861 1531.45 682.23 1529.08 Q679.6 1526.71 675.095 1526.71 Q672.986 1526.71 670.876 1527.18 Q668.793 1527.65 666.605 1528.64 L666.605 1509.1 Z" fill="#bebebe" fill-rule="evenodd" fill-opacity="1" /><path clip-path="url(#clip360)" d="M 0 0 M1189.49 1543.56 L1198.08 1543.56 L1198.08 1513.9 L1188.73 1515.77 L1188.73 1510.98 L1198.03 1509.1 L1203.29 1509.1 L1203.29 1543.56 L1211.88 1543.56 L1211.88 1547.98 L1189.49 1547.98 L1189.49 1543.56 Z" fill="#bebebe" fill-rule="evenodd" fill-opacity="1" /><path clip-path="url(#clip360)" d="M 0 0 M1228.84 1512.57 Q1224.78 1512.57 1222.72 1516.58 Q1220.69 1520.56 1220.69 1528.58 Q1220.69 1536.58 1222.72 1540.59 Q1224.78 1544.57 1228.84 1544.57 Q1232.93 1544.57 1234.96 1540.59 Q1237.01 1536.58 1237.01 1528.58 Q1237.01 1520.56 1234.96 1516.58 Q1232.93 1512.57 1228.84 1512.57 M1228.84 1508.4 Q1235.37 1508.4 1238.81 1513.58 Q1242.28 1518.74 1242.28 1528.58 Q1242.28 1538.4 1238.81 1543.58 Q1235.37 1548.74 1228.84 1548.74 Q1222.3 1548.74 1218.84 1543.58 Q1215.4 1538.4 1215.4 1528.58 Q1215.4 1518.74 1218.84 1513.58 Q1222.3 1508.4 1228.84 1508.4 Z" fill="#bebebe" fill-rule="evenodd" fill-opacity="1" /><path clip-path="url(#clip360)" d="M 0 0 M1728.01 1543.56 L1736.6 1543.56 L1736.6 1513.9 L1727.26 1515.77 L1727.26 1510.98 L1736.55 1509.1 L1741.81 1509.1 L1741.81 1543.56 L1750.41 1543.56 L1750.41 1547.98 L1728.01 1547.98 L1728.01 1543.56 Z" fill="#bebebe" fill-rule="evenodd" fill-opacity="1" /><path clip-path="url(#clip360)" d="M 0 0 M1756.16 1509.1 L1776.81 1509.1 L1776.81 1513.53 L1760.98 1513.53 L1760.98 1523.06 Q1762.13 1522.67 1763.27 1522.49 Q1764.42 1522.28 1765.56 1522.28 Q1772.07 1522.28 1775.88 1525.85 Q1779.68 1529.42 1779.68 1535.51 Q1779.68 1541.79 1775.77 1545.28 Q1771.86 1548.74 1764.76 1548.74 Q1762.31 1548.74 1759.76 1548.32 Q1757.23 1547.91 1754.52 1547.07 L1754.52 1541.79 Q1756.86 1543.06 1759.36 1543.69 Q1761.86 1544.31 1764.65 1544.31 Q1769.16 1544.31 1771.79 1541.94 Q1774.42 1539.57 1774.42 1535.51 Q1774.42 1531.45 1771.79 1529.08 Q1769.16 1526.71 1764.65 1526.71 Q1762.54 1526.71 1760.43 1527.18 Q1758.35 1527.65 1756.16 1528.64 L1756.16 1509.1 Z" fill="#bebebe" fill-rule="evenodd" fill-opacity="1" /><path clip-path="url(#clip360)" d="M 0 0 M2270.22 1543.56 L2288.58 1543.56 L2288.58 1547.98 L2263.89 1547.98 L2263.89 1543.56 Q2266.88 1540.46 2272.04 1535.25 Q2277.22 1530.02 2278.55 1528.5 Q2281.08 1525.67 2282.07 1523.71 Q2283.08 1521.73 2283.08 1519.83 Q2283.08 1516.73 2280.89 1514.78 Q2278.73 1512.83 2275.24 1512.83 Q2272.77 1512.83 2270.01 1513.69 Q2267.27 1514.55 2264.15 1516.29 L2264.15 1510.98 Q2267.33 1509.7 2270.09 1509.05 Q2272.85 1508.4 2275.14 1508.4 Q2281.18 1508.4 2284.77 1511.42 Q2288.37 1514.44 2288.37 1519.49 Q2288.37 1521.89 2287.46 1524.05 Q2286.57 1526.19 2284.2 1529.1 Q2283.55 1529.86 2280.06 1533.48 Q2276.57 1537.07 2270.22 1543.56 Z" fill="#bebebe" fill-rule="evenodd" fill-opacity="1" /><path clip-path="url(#clip360)" d="M 0 0 M2305.53 1512.57 Q2301.47 1512.57 2299.41 1516.58 Q2297.38 1520.56 2297.38 1528.58 Q2297.38 1536.58 2299.41 1540.59 Q2301.47 1544.57 2305.53 1544.57 Q2309.62 1544.57 2311.65 1540.59 Q2313.71 1536.58 2313.71 1528.58 Q2313.71 1520.56 2311.65 1516.58 Q2309.62 1512.57 2305.53 1512.57 M2305.53 1508.4 Q2312.07 1508.4 2315.5 1513.58 Q2318.97 1518.74 2318.97 1528.58 Q2318.97 1538.4 2315.5 1543.58 Q2312.07 1548.74 2305.53 1548.74 Q2298.99 1548.74 2295.53 1543.58 Q2292.09 1538.4 2292.09 1528.58 Q2292.09 1518.74 2295.53 1513.58 Q2298.99 1508.4 2305.53 1508.4 Z" fill="#bebebe" fill-rule="evenodd" fill-opacity="1" /><polyline clip-path="url(#clip362)" style="stroke:#000000; stroke-width:2; stroke-opacity:0.1; fill:none" points="
  185.846,1450.67 2352.76,1450.67 
  "/>
<polyline clip-path="url(#clip362)" style="stroke:#000000; stroke-width:2; stroke-opacity:0.1; fill:none" points="
  185.846,1130.74 2352.76,1130.74 
  "/>
<polyline clip-path="url(#clip362)" style="stroke:#000000; stroke-width:2; stroke-opacity:0.1; fill:none" points="
  185.846,810.803 2352.76,810.803 
  "/>
<polyline clip-path="url(#clip362)" style="stroke:#000000; stroke-width:2; stroke-opacity:0.1; fill:none" points="
  185.846,490.867 2352.76,490.867 
  "/>
<polyline clip-path="url(#clip362)" style="stroke:#000000; stroke-width:2; stroke-opacity:0.1; fill:none" points="
  185.846,170.931 2352.76,170.931 
  "/>
<polyline clip-path="url(#clip360)" style="stroke:#000000; stroke-width:4; stroke-opacity:1; fill:none" points="
  185.846,1482.13 185.846,149.392 
  "/>
<polyline clip-path="url(#clip360)" style="stroke:#000000; stroke-width:4; stroke-opacity:1; fill:none" points="
  185.846,1450.67 211.849,1450.67 
  "/>
<polyline clip-path="url(#clip360)" style="stroke:#000000; stroke-width:4; stroke-opacity:1; fill:none" points="
  185.846,1130.74 211.849,1130.74 
  "/>
<polyline clip-path="url(#clip360)" style="stroke:#000000; stroke-width:4; stroke-opacity:1; fill:none" points="
  185.846,810.803 211.849,810.803 
  "/>
<polyline clip-path="url(#clip360)" style="stroke:#000000; stroke-width:4; stroke-opacity:1; fill:none" points="
  185.846,490.867 211.849,490.867 
  "/>
<polyline clip-path="url(#clip360)" style="stroke:#000000; stroke-width:4; stroke-opacity:1; fill:none" points="
  185.846,170.931 211.849,170.931 
  "/>
<path clip-path="url(#clip360)" d="M 0 0 M64.4296 1434.7 Q60.3671 1434.7 58.3098 1438.71 Q56.2786 1442.69 56.2786 1450.71 Q56.2786 1458.71 58.3098 1462.72 Q60.3671 1466.7 64.4296 1466.7 Q68.5181 1466.7 70.5493 1462.72 Q72.6066 1458.71 72.6066 1450.71 Q72.6066 1442.69 70.5493 1438.71 Q68.5181 1434.7 64.4296 1434.7 M64.4296 1430.53 Q70.966 1430.53 74.4035 1435.71 Q77.867 1440.87 77.867 1450.71 Q77.867 1460.53 74.4035 1465.71 Q70.966 1470.87 64.4296 1470.87 Q57.8931 1470.87 54.4296 1465.71 Q50.9921 1460.53 50.9921 1450.71 Q50.9921 1440.87 54.4296 1435.71 Q57.8931 1430.53 64.4296 1430.53 Z" fill="#bebebe" fill-rule="evenodd" fill-opacity="1" /><path clip-path="url(#clip360)" d="M 0 0 M83.5701 1463.5 L89.0648 1463.5 L89.0648 1470.11 L83.5701 1470.11 L83.5701 1463.5 Z" fill="#bebebe" fill-rule="evenodd" fill-opacity="1" /><path clip-path="url(#clip360)" d="M 0 0 M106.018 1434.7 Q101.955 1434.7 99.8981 1438.71 Q97.8669 1442.69 97.8669 1450.71 Q97.8669 1458.71 99.8981 1462.72 Q101.955 1466.7 106.018 1466.7 Q110.106 1466.7 112.138 1462.72 Q114.195 1458.71 114.195 1450.71 Q114.195 1442.69 112.138 1438.71 Q110.106 1434.7 106.018 1434.7 M106.018 1430.53 Q112.554 1430.53 115.992 1435.71 Q119.455 1440.87 119.455 1450.71 Q119.455 1460.53 115.992 1465.71 Q112.554 1470.87 106.018 1470.87 Q99.4814 1470.87 96.0179 1465.71 Q92.5804 1460.53 92.5804 1450.71 Q92.5804 1440.87 96.0179 1435.71 Q99.4814 1430.53 106.018 1430.53 Z" fill="#bebebe" fill-rule="evenodd" fill-opacity="1" /><path clip-path="url(#clip360)" d="M 0 0 M136.408 1434.7 Q132.346 1434.7 130.289 1438.71 Q128.257 1442.69 128.257 1450.71 Q128.257 1458.71 130.289 1462.72 Q132.346 1466.7 136.408 1466.7 Q140.497 1466.7 142.528 1462.72 Q144.585 1458.71 144.585 1450.71 Q144.585 1442.69 142.528 1438.71 Q140.497 1434.7 136.408 1434.7 M136.408 1430.53 Q142.945 1430.53 146.382 1435.71 Q149.846 1440.87 149.846 1450.71 Q149.846 1460.53 146.382 1465.71 Q142.945 1470.87 136.408 1470.87 Q129.872 1470.87 126.408 1465.71 Q122.971 1460.53 122.971 1450.71 Q122.971 1440.87 126.408 1435.71 Q129.872 1430.53 136.408 1430.53 Z" fill="#bebebe" fill-rule="evenodd" fill-opacity="1" /><path clip-path="url(#clip360)" d="M 0 0 M67.3462 1114.76 Q63.2837 1114.76 61.2264 1118.77 Q59.1952 1122.76 59.1952 1130.78 Q59.1952 1138.77 61.2264 1142.78 Q63.2837 1146.77 67.3462 1146.77 Q71.4347 1146.77 73.466 1142.78 Q75.5232 1138.77 75.5232 1130.78 Q75.5232 1122.76 73.466 1118.77 Q71.4347 1114.76 67.3462 1114.76 M67.3462 1110.6 Q73.8826 1110.6 77.3201 1115.78 Q80.7836 1120.93 80.7836 1130.78 Q80.7836 1140.6 77.3201 1145.78 Q73.8826 1150.93 67.3462 1150.93 Q60.8098 1150.93 57.3463 1145.78 Q53.9088 1140.6 53.9088 1130.78 Q53.9088 1120.93 57.3463 1115.78 Q60.8098 1110.6 67.3462 1110.6 Z" fill="#bebebe" fill-rule="evenodd" fill-opacity="1" /><path clip-path="url(#clip360)" d="M 0 0 M86.4867 1143.56 L91.9815 1143.56 L91.9815 1150.18 L86.4867 1150.18 L86.4867 1143.56 Z" fill="#bebebe" fill-rule="evenodd" fill-opacity="1" /><path clip-path="url(#clip360)" d="M 0 0 M102.216 1145.75 L120.575 1145.75 L120.575 1150.18 L95.8877 1150.18 L95.8877 1145.75 Q98.8825 1142.65 104.039 1137.44 Q109.221 1132.21 110.549 1130.7 Q113.075 1127.86 114.065 1125.91 Q115.08 1123.93 115.08 1122.03 Q115.08 1118.93 112.893 1116.98 Q110.731 1115.02 107.242 1115.02 Q104.768 1115.02 102.007 1115.88 Q99.2731 1116.74 96.1481 1118.49 L96.1481 1113.17 Q99.3252 1111.9 102.086 1111.25 Q104.846 1110.6 107.138 1110.6 Q113.179 1110.6 116.773 1113.62 Q120.367 1116.64 120.367 1121.69 Q120.367 1124.09 119.455 1126.25 Q118.57 1128.38 116.2 1131.3 Q115.549 1132.05 112.06 1135.67 Q108.57 1139.27 102.216 1145.75 Z" fill="#bebebe" fill-rule="evenodd" fill-opacity="1" /><path clip-path="url(#clip360)" d="M 0 0 M126.33 1111.3 L146.981 1111.3 L146.981 1115.73 L131.148 1115.73 L131.148 1125.26 Q132.294 1124.87 133.44 1124.68 Q134.585 1124.48 135.731 1124.48 Q142.242 1124.48 146.044 1128.04 Q149.846 1131.61 149.846 1137.7 Q149.846 1143.98 145.94 1147.47 Q142.033 1150.93 134.924 1150.93 Q132.476 1150.93 129.924 1150.52 Q127.398 1150.1 124.69 1149.27 L124.69 1143.98 Q127.033 1145.26 129.533 1145.88 Q132.033 1146.51 134.82 1146.51 Q139.325 1146.51 141.955 1144.14 Q144.585 1141.77 144.585 1137.7 Q144.585 1133.64 141.955 1131.27 Q139.325 1128.9 134.82 1128.9 Q132.71 1128.9 130.601 1129.37 Q128.518 1129.84 126.33 1130.83 L126.33 1111.3 Z" fill="#bebebe" fill-rule="evenodd" fill-opacity="1" /><path clip-path="url(#clip360)" d="M 0 0 M65.5493 794.826 Q61.4869 794.826 59.4296 798.837 Q57.3983 802.821 57.3983 810.842 Q57.3983 818.837 59.4296 822.847 Q61.4869 826.832 65.5493 826.832 Q69.6379 826.832 71.6691 822.847 Q73.7264 818.837 73.7264 810.842 Q73.7264 802.821 71.6691 798.837 Q69.6379 794.826 65.5493 794.826 M65.5493 790.66 Q72.0858 790.66 75.5232 795.842 Q78.9868 800.998 78.9868 810.842 Q78.9868 820.66 75.5232 825.842 Q72.0858 830.998 65.5493 830.998 Q59.0129 830.998 55.5494 825.842 Q52.1119 820.66 52.1119 810.842 Q52.1119 800.998 55.5494 795.842 Q59.0129 790.66 65.5493 790.66 Z" fill="#bebebe" fill-rule="evenodd" fill-opacity="1" /><path clip-path="url(#clip360)" d="M 0 0 M84.6899 823.628 L90.1846 823.628 L90.1846 830.243 L84.6899 830.243 L84.6899 823.628 Z" fill="#bebebe" fill-rule="evenodd" fill-opacity="1" /><path clip-path="url(#clip360)" d="M 0 0 M95.9398 791.363 L116.591 791.363 L116.591 795.79 L100.757 795.79 L100.757 805.321 Q101.903 804.931 103.049 804.748 Q104.195 804.54 105.341 804.54 Q111.851 804.54 115.653 808.108 Q119.455 811.675 119.455 817.769 Q119.455 824.045 115.549 827.535 Q111.643 830.998 104.534 830.998 Q102.086 830.998 99.5335 830.582 Q97.0075 830.165 94.2992 829.332 L94.2992 824.045 Q96.6429 825.321 99.1429 825.946 Q101.643 826.571 104.429 826.571 Q108.935 826.571 111.565 824.201 Q114.195 821.832 114.195 817.769 Q114.195 813.707 111.565 811.337 Q108.935 808.967 104.429 808.967 Q102.32 808.967 100.211 809.436 Q98.1273 809.905 95.9398 810.894 L95.9398 791.363 Z" fill="#bebebe" fill-rule="evenodd" fill-opacity="1" /><path clip-path="url(#clip360)" d="M 0 0 M136.408 794.826 Q132.346 794.826 130.289 798.837 Q128.257 802.821 128.257 810.842 Q128.257 818.837 130.289 822.847 Q132.346 826.832 136.408 826.832 Q140.497 826.832 142.528 822.847 Q144.585 818.837 144.585 810.842 Q144.585 802.821 142.528 798.837 Q140.497 794.826 136.408 794.826 M136.408 790.66 Q142.945 790.66 146.382 795.842 Q149.846 800.998 149.846 810.842 Q149.846 820.66 146.382 825.842 Q142.945 830.998 136.408 830.998 Q129.872 830.998 126.408 825.842 Q122.971 820.66 122.971 810.842 Q122.971 800.998 126.408 795.842 Q129.872 790.66 136.408 790.66 Z" fill="#bebebe" fill-rule="evenodd" fill-opacity="1" /><path clip-path="url(#clip360)" d="M 0 0 M66.565 474.891 Q62.5025 474.891 60.4452 478.901 Q58.414 482.886 58.414 490.906 Q58.414 498.901 60.4452 502.911 Q62.5025 506.896 66.565 506.896 Q70.6535 506.896 72.6847 502.911 Q74.742 498.901 74.742 490.906 Q74.742 482.886 72.6847 478.901 Q70.6535 474.891 66.565 474.891 M66.565 470.724 Q73.1014 470.724 76.5389 475.906 Q80.0024 481.063 80.0024 490.906 Q80.0024 500.724 76.5389 505.906 Q73.1014 511.062 66.565 511.062 Q60.0285 511.062 56.565 505.906 Q53.1275 500.724 53.1275 490.906 Q53.1275 481.063 56.565 475.906 Q60.0285 470.724 66.565 470.724 Z" fill="#bebebe" fill-rule="evenodd" fill-opacity="1" /><path clip-path="url(#clip360)" d="M 0 0 M85.7055 503.693 L91.2002 503.693 L91.2002 510.307 L85.7055 510.307 L85.7055 503.693 Z" fill="#bebebe" fill-rule="evenodd" fill-opacity="1" /><path clip-path="url(#clip360)" d="M 0 0 M95.5752 471.427 L120.575 471.427 L120.575 473.667 L106.461 510.307 L100.966 510.307 L114.247 475.854 L95.5752 475.854 L95.5752 471.427 Z" fill="#bebebe" fill-rule="evenodd" fill-opacity="1" /><path clip-path="url(#clip360)" d="M 0 0 M126.33 471.427 L146.981 471.427 L146.981 475.854 L131.148 475.854 L131.148 485.385 Q132.294 484.995 133.44 484.813 Q134.585 484.604 135.731 484.604 Q142.242 484.604 146.044 488.172 Q149.846 491.74 149.846 497.833 Q149.846 504.109 145.94 507.599 Q142.033 511.062 134.924 511.062 Q132.476 511.062 129.924 510.646 Q127.398 510.229 124.69 509.396 L124.69 504.109 Q127.033 505.385 129.533 506.01 Q132.033 506.635 134.82 506.635 Q139.325 506.635 141.955 504.266 Q144.585 501.896 144.585 497.833 Q144.585 493.771 141.955 491.401 Q139.325 489.031 134.82 489.031 Q132.71 489.031 130.601 489.5 Q128.518 489.969 126.33 490.958 L126.33 471.427 Z" fill="#bebebe" fill-rule="evenodd" fill-opacity="1" /><path clip-path="url(#clip360)" d="M 0 0 M55.4713 185.944 L64.065 185.944 L64.065 156.283 L54.7161 158.158 L54.7161 153.366 L64.0129 151.491 L69.2733 151.491 L69.2733 185.944 L77.867 185.944 L77.867 190.371 L55.4713 190.371 L55.4713 185.944 Z" fill="#bebebe" fill-rule="evenodd" fill-opacity="1" /><path clip-path="url(#clip360)" d="M 0 0 M83.5701 183.757 L89.0648 183.757 L89.0648 190.371 L83.5701 190.371 L83.5701 183.757 Z" fill="#bebebe" fill-rule="evenodd" fill-opacity="1" /><path clip-path="url(#clip360)" d="M 0 0 M106.018 154.955 Q101.955 154.955 99.8981 158.965 Q97.8669 162.95 97.8669 170.971 Q97.8669 178.965 99.8981 182.976 Q101.955 186.96 106.018 186.96 Q110.106 186.96 112.138 182.976 Q114.195 178.965 114.195 170.971 Q114.195 162.95 112.138 158.965 Q110.106 154.955 106.018 154.955 M106.018 150.788 Q112.554 150.788 115.992 155.971 Q119.455 161.127 119.455 170.971 Q119.455 180.788 115.992 185.97 Q112.554 191.127 106.018 191.127 Q99.4814 191.127 96.0179 185.97 Q92.5804 180.788 92.5804 170.971 Q92.5804 161.127 96.0179 155.971 Q99.4814 150.788 106.018 150.788 Z" fill="#bebebe" fill-rule="evenodd" fill-opacity="1" /><path clip-path="url(#clip360)" d="M 0 0 M136.408 154.955 Q132.346 154.955 130.289 158.965 Q128.257 162.95 128.257 170.971 Q128.257 178.965 130.289 182.976 Q132.346 186.96 136.408 186.96 Q140.497 186.96 142.528 182.976 Q144.585 178.965 144.585 170.971 Q144.585 162.95 142.528 158.965 Q140.497 154.955 136.408 154.955 M136.408 150.788 Q142.945 150.788 146.382 155.971 Q149.846 161.127 149.846 170.971 Q149.846 180.788 146.382 185.97 Q142.945 191.127 136.408 191.127 Q129.872 191.127 126.408 185.97 Q122.971 180.788 122.971 170.971 Q122.971 161.127 126.408 155.971 Q129.872 150.788 136.408 150.788 Z" fill="#bebebe" fill-rule="evenodd" fill-opacity="1" /><path clip-path="url(#clip360)" d="M 0 0 M963.429 20.1156 L963.429 31.516 Q956.774 28.3332 950.871 26.7707 Q944.968 25.2082 939.47 25.2082 Q929.922 25.2082 924.714 28.9119 Q919.563 32.6156 919.563 39.4442 Q919.563 45.1734 922.977 48.1247 Q926.45 51.0182 936.056 52.8122 L943.116 54.259 Q956.195 56.7474 962.387 63.0552 Q968.637 69.3052 968.637 79.8375 Q968.637 92.3953 960.188 98.8768 Q951.797 105.358 935.535 105.358 Q929.401 105.358 922.457 103.969 Q915.57 102.58 908.163 99.8606 L908.163 87.8236 Q915.281 91.8166 922.109 93.8421 Q928.938 95.8675 935.535 95.8675 Q945.547 95.8675 950.987 91.9324 Q956.426 87.9972 956.426 80.7056 Q956.426 74.3399 952.491 70.7519 Q948.614 67.164 939.702 65.37 L932.584 63.9811 Q919.505 61.377 913.66 55.8215 Q907.816 50.2659 907.816 40.3702 Q907.816 28.9119 915.859 22.3147 Q923.961 15.7175 938.139 15.7175 Q944.216 15.7175 950.524 16.817 Q956.831 17.9166 963.429 20.1156 Z" fill="#bebebe" fill-rule="evenodd" fill-opacity="1" /><path clip-path="url(#clip360)" d="M 0 0 M1035.25 68.6107 L1035.25 73.819 L986.287 73.819 Q986.982 84.8144 992.884 90.6014 Q998.845 96.3305 1009.44 96.3305 Q1015.57 96.3305 1021.3 94.8259 Q1027.09 93.3213 1032.76 90.312 L1032.76 100.381 Q1027.03 102.812 1021.01 104.085 Q1014.99 105.358 1008.8 105.358 Q993.29 105.358 984.204 96.3305 Q975.176 87.3028 975.176 71.9093 Q975.176 55.9951 983.741 46.678 Q992.364 37.303 1006.95 37.303 Q1020.03 37.303 1027.61 45.7521 Q1035.25 54.1432 1035.25 68.6107 M1024.6 65.4858 Q1024.48 56.7474 1019.68 51.5391 Q1014.93 46.3308 1007.06 46.3308 Q998.151 46.3308 992.769 51.3655 Q987.445 56.4002 986.635 65.5436 L1024.6 65.4858 Z" fill="#bebebe" fill-rule="evenodd" fill-opacity="1" /><path clip-path="url(#clip360)" d="M 0 0 M1083.97 48.8192 Q1082.18 47.7775 1080.04 47.3146 Q1077.95 46.7937 1075.41 46.7937 Q1066.38 46.7937 1061.52 52.6965 Q1056.72 58.5414 1056.72 69.5367 L1056.72 103.68 L1046.01 103.68 L1046.01 38.8655 L1056.72 38.8655 L1056.72 48.9349 Q1060.07 43.0322 1065.45 40.1965 Q1070.84 37.303 1078.53 37.303 Q1079.63 37.303 1080.96 37.4767 Q1082.29 37.5924 1083.91 37.8817 L1083.97 48.8192 Z" fill="#bebebe" fill-rule="evenodd" fill-opacity="1" /><path clip-path="url(#clip360)" d="M 0 0 M1095.14 38.8655 L1105.79 38.8655 L1105.79 103.68 L1095.14 103.68 L1095.14 38.8655 M1095.14 13.6342 L1105.79 13.6342 L1105.79 27.1179 L1095.14 27.1179 L1095.14 13.6342 Z" fill="#bebebe" fill-rule="evenodd" fill-opacity="1" /><path clip-path="url(#clip360)" d="M 0 0 M1172.4 68.6107 L1172.4 73.819 L1123.44 73.819 Q1124.13 84.8144 1130.04 90.6014 Q1136 96.3305 1146.59 96.3305 Q1152.72 96.3305 1158.45 94.8259 Q1164.24 93.3213 1169.91 90.312 L1169.91 100.381 Q1164.18 102.812 1158.16 104.085 Q1152.14 105.358 1145.95 105.358 Q1130.44 105.358 1121.36 96.3305 Q1112.33 87.3028 1112.33 71.9093 Q1112.33 55.9951 1120.89 46.678 Q1129.52 37.303 1144.1 37.303 Q1157.18 37.303 1164.76 45.7521 Q1172.4 54.1432 1172.4 68.6107 M1161.75 65.4858 Q1161.63 56.7474 1156.83 51.5391 Q1152.09 46.3308 1144.21 46.3308 Q1135.3 46.3308 1129.92 51.3655 Q1124.6 56.4002 1123.79 65.5436 L1161.75 65.4858 Z" fill="#bebebe" fill-rule="evenodd" fill-opacity="1" /><path clip-path="url(#clip360)" d="M 0 0 M1231.31 17.28 L1231.31 49.3979 L1221.47 49.3979 L1221.47 17.28 L1231.31 17.28 Z" fill="#bebebe" fill-rule="evenodd" fill-opacity="1" /><path clip-path="url(#clip360)" d="M 0 0 M1283.8 40.7752 L1283.8 50.8446 Q1279.28 48.5298 1274.42 47.3724 Q1269.56 46.215 1264.35 46.215 Q1256.42 46.215 1252.43 48.6456 Q1248.5 51.0761 1248.5 55.9372 Q1248.5 59.6409 1251.33 61.7821 Q1254.17 63.8654 1262.73 65.7751 L1266.38 66.5853 Q1277.72 69.0158 1282.47 73.4718 Q1287.27 77.87 1287.27 85.7982 Q1287.27 94.8259 1280.09 100.092 Q1272.98 105.358 1260.48 105.358 Q1255.27 105.358 1249.6 104.317 Q1243.98 103.333 1237.73 101.307 L1237.73 90.312 Q1243.64 93.3791 1249.36 94.9416 Q1255.09 96.4462 1260.71 96.4462 Q1268.23 96.4462 1272.28 93.9 Q1276.33 91.2958 1276.33 86.6083 Q1276.33 82.2681 1273.38 79.9533 Q1270.49 77.6385 1260.59 75.4973 L1256.89 74.6292 Q1246.99 72.5459 1242.59 68.2635 Q1238.2 63.9233 1238.2 56.4002 Q1238.2 47.2567 1244.68 42.2799 Q1251.16 37.303 1263.08 37.303 Q1268.98 37.303 1274.19 38.1711 Q1279.4 39.0391 1283.8 40.7752 Z" fill="#bebebe" fill-rule="evenodd" fill-opacity="1" /><path clip-path="url(#clip360)" d="M 0 0 M1345.08 41.3539 L1345.08 51.3076 Q1340.57 48.8192 1336 47.6039 Q1331.48 46.3308 1326.85 46.3308 Q1316.49 46.3308 1310.76 52.928 Q1305.04 59.4673 1305.04 71.3306 Q1305.04 83.194 1310.76 89.7912 Q1316.49 96.3305 1326.85 96.3305 Q1331.48 96.3305 1336 95.1152 Q1340.57 93.8421 1345.08 91.3537 L1345.08 101.192 Q1340.63 103.275 1335.82 104.317 Q1331.08 105.358 1325.7 105.358 Q1311.05 105.358 1302.43 96.1569 Q1293.81 86.9556 1293.81 71.3306 Q1293.81 55.4742 1302.49 46.3886 Q1311.23 37.303 1326.39 37.303 Q1331.31 37.303 1336 38.3447 Q1340.68 39.3285 1345.08 41.3539 Z" fill="#bebebe" fill-rule="evenodd" fill-opacity="1" /><path clip-path="url(#clip360)" d="M 0 0 M1385.71 71.0992 Q1372.8 71.0992 1367.82 74.0505 Q1362.85 77.0019 1362.85 84.1199 Q1362.85 89.7912 1366.55 93.1476 Q1370.31 96.4462 1376.74 96.4462 Q1385.59 96.4462 1390.91 90.1963 Q1396.3 83.8884 1396.3 73.4718 L1396.3 71.0992 L1385.71 71.0992 M1406.94 66.701 L1406.94 103.68 L1396.3 103.68 L1396.3 93.8421 Q1392.65 99.7448 1387.21 102.58 Q1381.77 105.358 1373.9 105.358 Q1363.95 105.358 1358.04 99.8027 Q1352.2 94.1893 1352.2 84.8144 Q1352.2 73.8769 1359.49 68.3214 Q1366.84 62.7659 1381.37 62.7659 L1396.3 62.7659 L1396.3 61.7242 Q1396.3 54.3747 1391.44 50.3817 Q1386.63 46.3308 1377.89 46.3308 Q1372.34 46.3308 1367.07 47.6618 Q1361.81 48.9928 1356.95 51.6548 L1356.95 41.8169 Q1362.79 39.56 1368.29 38.4604 Q1373.79 37.303 1378.99 37.303 Q1393.06 37.303 1400 44.5947 Q1406.94 51.8863 1406.94 66.701 Z" fill="#bebebe" fill-rule="evenodd" fill-opacity="1" /><path clip-path="url(#clip360)" d="M 0 0 M1428.65 20.4629 L1428.65 38.8655 L1450.58 38.8655 L1450.58 47.141 L1428.65 47.141 L1428.65 82.3259 Q1428.65 90.2541 1430.79 92.5111 Q1432.99 94.768 1439.64 94.768 L1450.58 94.768 L1450.58 103.68 L1439.64 103.68 Q1427.32 103.68 1422.63 99.1083 Q1417.94 94.4787 1417.94 82.3259 L1417.94 47.141 L1410.13 47.141 L1410.13 38.8655 L1417.94 38.8655 L1417.94 20.4629 L1428.65 20.4629 Z" fill="#bebebe" fill-rule="evenodd" fill-opacity="1" /><path clip-path="url(#clip360)" d="M 0 0 M1472.28 20.4629 L1472.28 38.8655 L1494.21 38.8655 L1494.21 47.141 L1472.28 47.141 L1472.28 82.3259 Q1472.28 90.2541 1474.42 92.5111 Q1476.62 94.768 1483.28 94.768 L1494.21 94.768 L1494.21 103.68 L1483.28 103.68 Q1470.95 103.68 1466.26 99.1083 Q1461.57 94.4787 1461.57 82.3259 L1461.57 47.141 L1453.76 47.141 L1453.76 38.8655 L1461.57 38.8655 L1461.57 20.4629 L1472.28 20.4629 Z" fill="#bebebe" fill-rule="evenodd" fill-opacity="1" /><path clip-path="url(#clip360)" d="M 0 0 M1560.82 68.6107 L1560.82 73.819 L1511.86 73.819 Q1512.56 84.8144 1518.46 90.6014 Q1524.42 96.3305 1535.01 96.3305 Q1541.15 96.3305 1546.87 94.8259 Q1552.66 93.3213 1558.33 90.312 L1558.33 100.381 Q1552.6 102.812 1546.59 104.085 Q1540.57 105.358 1534.37 105.358 Q1518.87 105.358 1509.78 96.3305 Q1500.75 87.3028 1500.75 71.9093 Q1500.75 55.9951 1509.32 46.678 Q1517.94 37.303 1532.52 37.303 Q1545.6 37.303 1553.18 45.7521 Q1560.82 54.1432 1560.82 68.6107 M1550.17 65.4858 Q1550.06 56.7474 1545.25 51.5391 Q1540.51 46.3308 1532.64 46.3308 Q1523.73 46.3308 1518.34 51.3655 Q1513.02 56.4002 1512.21 65.5436 L1550.17 65.4858 Z" fill="#bebebe" fill-rule="evenodd" fill-opacity="1" /><path clip-path="url(#clip360)" d="M 0 0 M1609.55 48.8192 Q1607.75 47.7775 1605.61 47.3146 Q1603.53 46.7937 1600.98 46.7937 Q1591.96 46.7937 1587.09 52.6965 Q1582.29 58.5414 1582.29 69.5367 L1582.29 103.68 L1571.59 103.68 L1571.59 38.8655 L1582.29 38.8655 L1582.29 48.9349 Q1585.65 43.0322 1591.03 40.1965 Q1596.41 37.303 1604.11 37.303 Q1605.21 37.303 1606.54 37.4767 Q1607.87 37.5924 1609.49 37.8817 L1609.55 48.8192 Z" fill="#bebebe" fill-rule="evenodd" fill-opacity="1" /><path clip-path="url(#clip360)" d="M 0 0 M1630.79 17.28 L1630.79 49.3979 L1620.95 49.3979 L1620.95 17.28 L1630.79 17.28 Z" fill="#bebebe" fill-rule="evenodd" fill-opacity="1" /><path clip-path="url(#clip362)" d="M231.173 1074.94 L231.173 1106.94 L263.173 1106.94 L263.173 1074.94 L231.173 1074.94 Z" fill="#e69f00" fill-rule="evenodd" fill-opacity="1" stroke="#000000" stroke-opacity="1" stroke-width="3.2"/>
<path clip-path="url(#clip362)" d="M338.766 1244.13 L338.766 1276.13 L370.766 1276.13 L370.766 1244.13 L338.766 1244.13 Z" fill="#e69f00" fill-rule="evenodd" fill-opacity="1" stroke="#000000" stroke-opacity="1" stroke-width="3.2"/>
<path clip-path="url(#clip362)" d="M446.358 280.189 L446.358 312.189 L478.358 312.189 L478.358 280.189 L446.358 280.189 Z" fill="#e69f00" fill-rule="evenodd" fill-opacity="1" stroke="#000000" stroke-opacity="1" stroke-width="3.2"/>
<path clip-path="url(#clip362)" d="M553.95 982.326 L553.95 1014.33 L585.95 1014.33 L585.95 982.326 L553.95 982.326 Z" fill="#e69f00" fill-rule="evenodd" fill-opacity="1" stroke="#000000" stroke-opacity="1" stroke-width="3.2"/>
<path clip-path="url(#clip362)" d="M661.543 1130.45 L661.543 1162.45 L693.543 1162.45 L693.543 1130.45 L661.543 1130.45 Z" fill="#e69f00" fill-rule="evenodd" fill-opacity="1" stroke="#000000" stroke-opacity="1" stroke-width="3.2"/>
<path clip-path="url(#clip362)" d="M769.135 924.176 L769.135 956.176 L801.135 956.176 L801.135 924.176 L769.135 924.176 Z" fill="#e69f00" fill-rule="evenodd" fill-opacity="1" stroke="#000000" stroke-opacity="1" stroke-width="3.2"/>
<path clip-path="url(#clip362)" d="M876.728 178.585 L876.728 210.585 L908.728 210.585 L908.728 178.585 L876.728 178.585 Z" fill="#e69f00" fill-rule="evenodd" fill-opacity="1" stroke="#000000" stroke-opacity="1" stroke-width="3.2"/>
<path clip-path="url(#clip362)" d="M984.32 712.762 L984.32 744.762 L1016.32 744.762 L1016.32 712.762 L984.32 712.762 Z" fill="#e69f00" fill-rule="evenodd" fill-opacity="1" stroke="#000000" stroke-opacity="1" stroke-width="3.2"/>
<path clip-path="url(#clip362)" d="M1091.91 264.81 L1091.91 296.81 L1123.91 296.81 L1123.91 264.81 L1091.91 264.81 Z" fill="#e69f00" fill-rule="evenodd" fill-opacity="1" stroke="#000000" stroke-opacity="1" stroke-width="3.2"/>
<path clip-path="url(#clip362)" d="M1199.5 393.58 L1199.5 425.58 L1231.5 425.58 L1231.5 393.58 L1199.5 393.58 Z" fill="#e69f00" fill-rule="evenodd" fill-opacity="1" stroke="#000000" stroke-opacity="1" stroke-width="3.2"/>
<path clip-path="url(#clip362)" d="M1307.1 651 L1307.1 683 L1339.1 683 L1339.1 651 L1307.1 651 Z" fill="#e69f00" fill-rule="evenodd" fill-opacity="1" stroke="#000000" stroke-opacity="1" stroke-width="3.2"/>
<path clip-path="url(#clip362)" d="M1414.69 843.556 L1414.69 875.556 L1446.69 875.556 L1446.69 843.556 L1414.69 843.556 Z" fill="#e69f00" fill-rule="evenodd" fill-opacity="1" stroke="#000000" stroke-opacity="1" stroke-width="3.2"/>
<path clip-path="url(#clip362)" d="M1522.28 258.443 L1522.28 290.443 L1554.28 290.443 L1554.28 258.443 L1522.28 258.443 Z" fill="#e69f00" fill-rule="evenodd" fill-opacity="1" stroke="#000000" stroke-opacity="1" stroke-width="3.2"/>
<path clip-path="url(#clip362)" d="M1629.87 729.22 L1629.87 761.22 L1661.87 761.22 L1661.87 729.22 L1629.87 729.22 Z" fill="#e69f00" fill-rule="evenodd" fill-opacity="1" stroke="#000000" stroke-opacity="1" stroke-width="3.2"/>
<path clip-path="url(#clip362)" d="M1737.47 822.289 L1737.47 854.289 L1769.47 854.289 L1769.47 822.289 L1737.47 822.289 Z" fill="#e69f00" fill-rule="evenodd" fill-opacity="1" stroke="#000000" stroke-opacity="1" stroke-width="3.2"/>
<path clip-path="url(#clip362)" d="M1845.06 615.109 L1845.06 647.109 L1877.06 647.109 L1877.06 615.109 L1845.06 615.109 Z" fill="#e69f00" fill-rule="evenodd" fill-opacity="1" stroke="#000000" stroke-opacity="1" stroke-width="3.2"/>
<path clip-path="url(#clip362)" d="M1952.65 793.581 L1952.65 825.581 L1984.65 825.581 L1984.65 793.581 L1952.65 793.581 Z" fill="#e69f00" fill-rule="evenodd" fill-opacity="1" stroke="#000000" stroke-opacity="1" stroke-width="3.2"/>
<path clip-path="url(#clip362)" d="M2060.24 885.796 L2060.24 917.796 L2092.24 917.796 L2092.24 885.796 L2060.24 885.796 Z" fill="#e69f00" fill-rule="evenodd" fill-opacity="1" stroke="#000000" stroke-opacity="1" stroke-width="3.2"/>
<path clip-path="url(#clip362)" d="M2167.84 171.111 L2167.84 203.111 L2199.84 203.111 L2199.84 171.111 L2167.84 171.111 Z" fill="#e69f00" fill-rule="evenodd" fill-opacity="1" stroke="#000000" stroke-opacity="1" stroke-width="3.2"/>
<path clip-path="url(#clip362)" d="M2275.43 971.522 L2275.43 1003.52 L2307.43 1003.52 L2307.43 971.522 L2275.43 971.522 Z" fill="#e69f00" fill-rule="evenodd" fill-opacity="1" stroke="#000000" stroke-opacity="1" stroke-width="3.2"/>
<circle clip-path="url(#clip362)" cx="247.173" cy="450.848" r="14" fill="#56b4e9" fill-rule="evenodd" fill-opacity="1" stroke="#000000" stroke-opacity="1" stroke-width="3.2"/>
<circle clip-path="url(#clip362)" cx="354.766" cy="889.062" r="14" fill="#56b4e9" fill-rule="evenodd" fill-opacity="1" stroke="#000000" stroke-opacity="1" stroke-width="3.2"/>
<circle clip-path="url(#clip362)" cx="462.358" cy="551.074" r="14" fill="#56b4e9" fill-rule="evenodd" fill-opacity="1" stroke="#000000" stroke-opacity="1" stroke-width="3.2"/>
<circle clip-path="url(#clip362)" cx="569.95" cy="999.018" r="14" fill="#56b4e9" fill-rule="evenodd" fill-opacity="1" stroke="#000000" stroke-opacity="1" stroke-width="3.2"/>
<circle clip-path="url(#clip362)" cx="677.543" cy="1430.62" r="14" fill="#56b4e9" fill-rule="evenodd" fill-opacity="1" stroke="#000000" stroke-opacity="1" stroke-width="3.2"/>
<circle clip-path="url(#clip362)" cx="785.135" cy="867.577" r="14" fill="#56b4e9" fill-rule="evenodd" fill-opacity="1" stroke="#000000" stroke-opacity="1" stroke-width="3.2"/>
<circle clip-path="url(#clip362)" cx="892.728" cy="702.655" r="14" fill="#56b4e9" fill-rule="evenodd" fill-opacity="1" stroke="#000000" stroke-opacity="1" stroke-width="3.2"/>
<circle clip-path="url(#clip362)" cx="1000.32" cy="1132.09" r="14" fill="#56b4e9" fill-rule="evenodd" fill-opacity="1" stroke="#000000" stroke-opacity="1" stroke-width="3.2"/>
<circle clip-path="url(#clip362)" cx="1107.91" cy="803.258" r="14" fill="#56b4e9" fill-rule="evenodd" fill-opacity="1" stroke="#000000" stroke-opacity="1" stroke-width="3.2"/>
<circle clip-path="url(#clip362)" cx="1215.5" cy="1345.01" r="14" fill="#56b4e9" fill-rule="evenodd" fill-opacity="1" stroke="#000000" stroke-opacity="1" stroke-width="3.2"/>
<circle clip-path="url(#clip362)" cx="1323.1" cy="1383.01" r="14" fill="#56b4e9" fill-rule="evenodd" fill-opacity="1" stroke="#000000" stroke-opacity="1" stroke-width="3.2"/>
<circle clip-path="url(#clip362)" cx="1430.69" cy="537.382" r="14" fill="#56b4e9" fill-rule="evenodd" fill-opacity="1" stroke="#000000" stroke-opacity="1" stroke-width="3.2"/>
<circle clip-path="url(#clip362)" cx="1538.28" cy="1107.49" r="14" fill="#56b4e9" fill-rule="evenodd" fill-opacity="1" stroke="#000000" stroke-opacity="1" stroke-width="3.2"/>
<circle clip-path="url(#clip362)" cx="1645.87" cy="361.807" r="14" fill="#56b4e9" fill-rule="evenodd" fill-opacity="1" stroke="#000000" stroke-opacity="1" stroke-width="3.2"/>
<circle clip-path="url(#clip362)" cx="1753.47" cy="1444.41" r="14" fill="#56b4e9" fill-rule="evenodd" fill-opacity="1" stroke="#000000" stroke-opacity="1" stroke-width="3.2"/>
<circle clip-path="url(#clip362)" cx="1861.06" cy="422.508" r="14" fill="#56b4e9" fill-rule="evenodd" fill-opacity="1" stroke="#000000" stroke-opacity="1" stroke-width="3.2"/>
<circle clip-path="url(#clip362)" cx="1968.65" cy="916.433" r="14" fill="#56b4e9" fill-rule="evenodd" fill-opacity="1" stroke="#000000" stroke-opacity="1" stroke-width="3.2"/>
<circle clip-path="url(#clip362)" cx="2076.24" cy="235.266" r="14" fill="#56b4e9" fill-rule="evenodd" fill-opacity="1" stroke="#000000" stroke-opacity="1" stroke-width="3.2"/>
<circle clip-path="url(#clip362)" cx="2183.84" cy="932.609" r="14" fill="#56b4e9" fill-rule="evenodd" fill-opacity="1" stroke="#000000" stroke-opacity="1" stroke-width="3.2"/>
<circle clip-path="url(#clip362)" cx="2291.43" cy="292.497" r="14" fill="#56b4e9" fill-rule="evenodd" fill-opacity="1" stroke="#000000" stroke-opacity="1" stroke-width="3.2"/>
<path clip-path="url(#clip362)" d="M247.173 336.527 L233.317 328.527 L233.317 312.527 L247.173 304.527 L261.029 312.527 L261.029 328.527 Z" fill="#009e73" fill-rule="evenodd" fill-opacity="1" stroke="#000000" stroke-opacity="1" stroke-width="3.2"/>
<path clip-path="url(#clip362)" d="M354.766 546.203 L340.91 538.203 L340.91 522.203 L354.766 514.203 L368.622 522.203 L368.622 538.203 Z" fill="#009e73" fill-rule="evenodd" fill-opacity="1" stroke="#000000" stroke-opacity="1" stroke-width="3.2"/>
<path clip-path="url(#clip362)" d="M462.358 942.596 L448.502 934.596 L448.502 918.596 L462.358 910.596 L476.214 918.596 L476.214 934.596 Z" fill="#009e73" fill-rule="evenodd" fill-opacity="1" stroke="#000000" stroke-opacity="1" stroke-width="3.2"/>
<path clip-path="url(#clip362)" d="M569.95 995.798 L556.094 987.798 L556.094 971.798 L569.95 963.798 L583.806 971.798 L583.806 987.798 Z" fill="#009e73" fill-rule="evenodd" fill-opacity="1" stroke="#000000" stroke-opacity="1" stroke-width="3.2"/>
<path clip-path="url(#clip362)" d="M677.543 1257 L663.687 1249 L663.687 1233 L677.543 1225 L691.399 1233 L691.399 1249 Z" fill="#009e73" fill-rule="evenodd" fill-opacity="1" stroke="#000000" stroke-opacity="1" stroke-width="3.2"/>
<path clip-path="url(#clip362)" d="M785.135 1073.01 L771.279 1065.01 L771.279 1049.01 L785.135 1041.01 L798.991 1049.01 L798.991 1065.01 Z" fill="#009e73" fill-rule="evenodd" fill-opacity="1" stroke="#000000" stroke-opacity="1" stroke-width="3.2"/>
<path clip-path="url(#clip362)" d="M892.728 248.04 L878.872 240.04 L878.872 224.04 L892.728 216.04 L906.584 224.04 L906.584 240.04 Z" fill="#009e73" fill-rule="evenodd" fill-opacity="1" stroke="#000000" stroke-opacity="1" stroke-width="3.2"/>
<path clip-path="url(#clip362)" d="M1000.32 463.799 L986.464 455.799 L986.464 439.799 L1000.32 431.799 L1014.18 439.799 L1014.18 455.799 Z" fill="#009e73" fill-rule="evenodd" fill-opacity="1" stroke="#000000" stroke-opacity="1" stroke-width="3.2"/>
<path clip-path="url(#clip362)" d="M1107.91 1306.66 L1094.06 1298.66 L1094.06 1282.66 L1107.91 1274.66 L1121.77 1282.66 L1121.77 1298.66 Z" fill="#009e73" fill-rule="evenodd" fill-opacity="1" stroke="#000000" stroke-opacity="1" stroke-width="3.2"/>
<path clip-path="url(#clip362)" d="M1215.5 1105.56 L1201.65 1097.56 L1201.65 1081.56 L1215.5 1073.56 L1229.36 1081.56 L1229.36 1097.56 Z" fill="#009e73" fill-rule="evenodd" fill-opacity="1" stroke="#000000" stroke-opacity="1" stroke-width="3.2"/>
<path clip-path="url(#clip362)" d="M1323.1 1172.2 L1309.24 1164.2 L1309.24 1148.2 L1323.1 1140.2 L1336.95 1148.2 L1336.95 1164.2 Z" fill="#009e73" fill-rule="evenodd" fill-opacity="1" stroke="#000000" stroke-opacity="1" stroke-width="3.2"/>
<path clip-path="url(#clip362)" d="M1430.69 1388.06 L1416.83 1380.06 L1416.83 1364.06 L1430.69 1356.06 L1444.55 1364.06 L1444.55 1380.06 Z" fill="#009e73" fill-rule="evenodd" fill-opacity="1" stroke="#000000" stroke-opacity="1" stroke-width="3.2"/>
<path clip-path="url(#clip362)" d="M1538.28 1135.24 L1524.43 1127.24 L1524.43 1111.24 L1538.28 1103.24 L1552.14 1111.24 L1552.14 1127.24 Z" fill="#009e73" fill-rule="evenodd" fill-opacity="1" stroke="#000000" stroke-opacity="1" stroke-width="3.2"/>
<path clip-path="url(#clip362)" d="M1645.87 1112.04 L1632.02 1104.04 L1632.02 1088.04 L1645.87 1080.04 L1659.73 1088.04 L1659.73 1104.04 Z" fill="#009e73" fill-rule="evenodd" fill-opacity="1" stroke="#000000" stroke-opacity="1" stroke-width="3.2"/>
<path clip-path="url(#clip362)" d="M1753.47 1120.11 L1739.61 1112.11 L1739.61 1096.11 L1753.47 1088.11 L1767.32 1096.11 L1767.32 1112.11 Z" fill="#009e73" fill-rule="evenodd" fill-opacity="1" stroke="#000000" stroke-opacity="1" stroke-width="3.2"/>
<path clip-path="url(#clip362)" d="M1861.06 613.473 L1847.2 605.473 L1847.2 589.473 L1861.06 581.473 L1874.91 589.473 L1874.91 605.473 Z" fill="#009e73" fill-rule="evenodd" fill-opacity="1" stroke="#000000" stroke-opacity="1" stroke-width="3.2"/>
<path clip-path="url(#clip362)" d="M1968.65 575.453 L1954.8 567.453 L1954.8 551.453 L1968.65 543.453 L1982.51 551.453 L1982.51 567.453 Z" fill="#009e73" fill-rule="evenodd" fill-opacity="1" stroke="#000000" stroke-opacity="1" stroke-width="3.2"/>
<path clip-path="url(#clip362)" d="M2076.24 608.158 L2062.39 600.158 L2062.39 584.158 L2076.24 576.158 L2090.1 584.158 L2090.1 600.158 Z" fill="#009e73" fill-rule="evenodd" fill-opacity="1" stroke="#000000" stroke-opacity="1" stroke-width="3.2"/>
<path clip-path="url(#clip362)" d="M2183.84 1369.38 L2169.98 1361.38 L2169.98 1345.38 L2183.84 1337.38 L2197.69 1345.38 L2197.69 1361.38 Z" fill="#009e73" fill-rule="evenodd" fill-opacity="1" stroke="#000000" stroke-opacity="1" stroke-width="3.2"/>
<path clip-path="url(#clip362)" d="M2291.43 1360.36 L2277.57 1352.36 L2277.57 1336.36 L2291.43 1328.36 L2305.28 1336.36 L2305.28 1352.36 Z" fill="#009e73" fill-rule="evenodd" fill-opacity="1" stroke="#000000" stroke-opacity="1" stroke-width="3.2"/>
<path clip-path="url(#clip360)" d="
M1988.16 435.737 L2280.53 435.737 L2280.53 193.817 L1988.16 193.817  Z
  " fill="#ffffff" fill-rule="evenodd" fill-opacity="1"/>
<polyline clip-path="url(#clip360)" style="stroke:#000000; stroke-width:4; stroke-opacity:1; fill:none" points="
  1988.16,435.737 2280.53,435.737 2280.53,193.817 1988.16,193.817 1988.16,435.737 
  "/>
<path clip-path="url(#clip360)" d="M2058.87 228.697 L2058.87 279.897 L2110.07 279.897 L2110.07 228.697 L2058.87 228.697 Z" fill="#e69f00" fill-rule="evenodd" fill-opacity="1" stroke="#000000" stroke-opacity="1" stroke-width="5.12"/>
<path clip-path="url(#clip360)" d="M 0 0 M2194.62 273.984 Q2192.81 278.614 2191.1 280.026 Q2189.39 281.438 2186.52 281.438 L2183.11 281.438 L2183.11 277.873 L2185.61 277.873 Q2187.37 277.873 2188.34 277.04 Q2189.32 276.206 2190.5 273.104 L2191.26 271.16 L2180.78 245.651 L2185.29 245.651 L2193.39 265.929 L2201.49 245.651 L2206.01 245.651 L2194.62 273.984 Z" fill="#bebebe" fill-rule="evenodd" fill-opacity="1" /><path clip-path="url(#clip360)" d="M 0 0 M2211.89 267.641 L2219.52 267.641 L2219.52 241.276 L2211.21 242.943 L2211.21 238.683 L2219.48 237.017 L2224.15 237.017 L2224.15 267.641 L2231.79 267.641 L2231.79 271.577 L2211.89 271.577 L2211.89 267.641 Z" fill="#bebebe" fill-rule="evenodd" fill-opacity="1" /><circle clip-path="url(#clip360)" cx="2084.47" cy="314.777" r="23" fill="#56b4e9" fill-rule="evenodd" fill-opacity="1" stroke="#000000" stroke-opacity="1" stroke-width="5.12"/>
<path clip-path="url(#clip360)" d="M 0 0 M2194.62 334.464 Q2192.81 339.094 2191.1 340.506 Q2189.39 341.918 2186.52 341.918 L2183.11 341.918 L2183.11 338.353 L2185.61 338.353 Q2187.37 338.353 2188.34 337.52 Q2189.32 336.686 2190.5 333.584 L2191.26 331.64 L2180.78 306.131 L2185.29 306.131 L2193.39 326.409 L2201.49 306.131 L2206.01 306.131 L2194.62 334.464 Z" fill="#bebebe" fill-rule="evenodd" fill-opacity="1" /><path clip-path="url(#clip360)" d="M 0 0 M2215.1 328.121 L2231.42 328.121 L2231.42 332.057 L2209.48 332.057 L2209.48 328.121 Q2212.14 325.367 2216.72 320.737 Q2221.33 316.085 2222.51 314.742 Q2224.76 312.219 2225.64 310.483 Q2226.54 308.723 2226.54 307.034 Q2226.54 304.279 2224.59 302.543 Q2222.67 300.807 2219.57 300.807 Q2217.37 300.807 2214.92 301.571 Q2212.49 302.335 2209.71 303.886 L2209.71 299.163 Q2212.53 298.029 2214.99 297.45 Q2217.44 296.872 2219.48 296.872 Q2224.85 296.872 2228.04 299.557 Q2231.24 302.242 2231.24 306.733 Q2231.24 308.862 2230.43 310.784 Q2229.64 312.682 2227.53 315.274 Q2226.96 315.946 2223.85 319.163 Q2220.75 322.358 2215.1 328.121 Z" fill="#bebebe" fill-rule="evenodd" fill-opacity="1" /><path clip-path="url(#clip360)" d="M2084.47 400.857 L2062.3 388.057 L2062.3 362.457 L2084.47 349.657 L2106.64 362.457 L2106.64 388.057 Z" fill="#009e73" fill-rule="evenodd" fill-opacity="1" stroke="#000000" stroke-opacity="1" stroke-width="5.12"/>
<path clip-path="url(#clip360)" d="M 0 0 M2194.62 394.944 Q2192.81 399.574 2191.1 400.986 Q2189.39 402.398 2186.52 402.398 L2183.11 402.398 L2183.11 398.833 L2185.61 398.833 Q2187.37 398.833 2188.34 398 Q2189.32 397.166 2190.5 394.064 L2191.26 392.12 L2180.78 366.611 L2185.29 366.611 L2193.39 386.889 L2201.49 366.611 L2206.01 366.611 L2194.62 394.944 Z" fill="#bebebe" fill-rule="evenodd" fill-opacity="1" /><path clip-path="url(#clip360)" d="M 0 0 M2225.24 373.902 Q2228.6 374.62 2230.47 376.889 Q2232.37 379.157 2232.37 382.49 Q2232.37 387.606 2228.85 390.407 Q2225.34 393.208 2218.85 393.208 Q2216.68 393.208 2214.36 392.768 Q2212.07 392.351 2209.62 391.495 L2209.62 386.981 Q2211.56 388.115 2213.88 388.694 Q2216.19 389.273 2218.71 389.273 Q2223.11 389.273 2225.4 387.537 Q2227.72 385.801 2227.72 382.49 Q2227.72 379.435 2225.57 377.722 Q2223.44 375.986 2219.62 375.986 L2215.59 375.986 L2215.59 372.143 L2219.8 372.143 Q2223.25 372.143 2225.08 370.778 Q2226.91 369.389 2226.91 366.796 Q2226.91 364.134 2225.01 362.722 Q2223.14 361.287 2219.62 361.287 Q2217.7 361.287 2215.5 361.703 Q2213.3 362.12 2210.66 363 L2210.66 358.833 Q2213.32 358.092 2215.64 357.722 Q2217.97 357.352 2220.03 357.352 Q2225.36 357.352 2228.46 359.782 Q2231.56 362.19 2231.56 366.31 Q2231.56 369.18 2229.92 371.171 Q2228.27 373.139 2225.24 373.902 Z" fill="#bebebe" fill-rule="evenodd" fill-opacity="1" /></svg>
