<?xml version="1.0" encoding="utf-8"?>
<svg xmlns="http://www.w3.org/2000/svg" xmlns:xlink="http://www.w3.org/1999/xlink" width="600" height="400" viewBox="0 0 2400 1600">
<defs>
  <clipPath id="clip000">
    <rect x="0" y="0" width="2400" height="1600"/>
  </clipPath>
</defs>
<path clip-path="url(#clip000)" d="
M0 1600 L2400 1600 L2400 0 L0 0  Z
  " fill="#ffffff" fill-rule="evenodd" fill-opacity="1"/>
<defs>
  <clipPath id="clip001">
    <rect x="480" y="0" width="1681" height="1600"/>
  </clipPath>
</defs>
<path clip-path="url(#clip000)" d="
M156.002 1482.13 L2352.76 1482.13 L2352.76 149.392 L156.002 149.392  Z
  " fill="#ffffff" fill-rule="evenodd" fill-opacity="1"/>
<defs>
  <clipPath id="clip002">
    <rect x="156" y="149" width="2198" height="1334"/>
  </clipPath>
</defs>
<polyline clip-path="url(#clip002)" style="stroke:#000000; stroke-width:2; stroke-opacity:0.1; fill:none" points="
  654.471,1482.13 654.471,149.392 
  "/>
<polyline clip-path="url(#clip002)" style="stroke:#000000; stroke-width:2; stroke-opacity:0.1; fill:none" points="
  1199.84,1482.13 1199.84,149.392 
  "/>
<polyline clip-path="url(#clip002)" style="stroke:#000000; stroke-width:2; stroke-opacity:0.1; fill:none" points="
  1745.21,1482.13 1745.21,149.392 
  "/>
<polyline clip-path="url(#clip002)" style="stroke:#000000; stroke-width:2; stroke-opacity:0.1; fill:none" points="
  2290.58,1482.13 2290.58,149.392 
  "/>
<polyline clip-path="url(#clip000)" style="stroke:#000000; stroke-width:4; stroke-opacity:1; fill:none" points="
  156.002,1482.13 2352.76,1482.13 
  "/>
<polyline clip-path="url(#clip000)" style="stroke:#000000; stroke-width:4; stroke-opacity:1; fill:none" points="
  654.471,1482.13 654.471,1466.14 
  "/>
<polyline clip-path="url(#clip000)" style="stroke:#000000; stroke-width:4; stroke-opacity:1; fill:none" points="
  1199.84,1482.13 1199.84,1466.14 
  "/>
<polyline clip-path="url(#clip000)" style="stroke:#000000; stroke-width:4; stroke-opacity:1; fill:none" points="
  1745.21,1482.13 1745.21,1466.14 
  "/>
<polyline clip-path="url(#clip000)" style="stroke:#000000; stroke-width:4; stroke-opacity:1; fill:none" points="
  2290.58,1482.13 2290.58,1466.14 
  "/>
<path clip-path="url(#clip000)" d="M 0 0 M643.534 1509.1 L664.185 1509.1 L664.185 1513.53 L648.351 1513.53 L648.351 1523.06 Q649.497 1522.67 650.643 1522.49 Q651.789 1522.28 652.935 1522.28 Q659.445 1522.28 663.247 1525.85 Q667.049 1529.42 667.049 1535.51 Q667.049 1541.79 663.143 1545.28 Q659.237 1548.74 652.127 1548.74 Q649.679 1548.74 647.127 1548.32 Q644.601 1547.91 641.893 1547.07 L641.893 1541.79 Q644.237 1543.06 646.737 1543.69 Q649.237 1544.31 652.023 1544.31 Q656.528 1544.31 659.159 1541.94 Q661.789 1539.57 661.789 1535.51 Q661.789 1531.45 659.159 1529.08 Q656.528 1526.71 652.023 1526.71 Q649.914 1526.71 647.804 1527.18 Q645.721 1527.65 643.534 1528.64 L643.534 1509.1 Z" fill="#bebebe" fill-rule="evenodd" fill-opacity="1" /><path clip-path="url(#clip000)" d="M 0 0 M1173.83 1543.56 L1182.42 1543.56 L1182.42 1513.9 L1173.07 1515.77 L1173.07 1510.98 L1182.37 1509.1 L1187.63 1509.1 L1187.63 1543.56 L1196.22 1543.56 L1196.22 1547.98 L1173.83 1547.98 L1173.83 1543.56 Z" fill="#bebebe" fill-rule="evenodd" fill-opacity="1" /><path clip-path="url(#clip000)" d="M 0 0 M1213.18 1512.57 Q1209.11 1512.57 1207.06 1516.58 Q1205.02 1520.56 1205.02 1528.58 Q1205.02 1536.58 1207.06 1540.59 Q1209.11 1544.57 1213.18 1544.57 Q1217.26 1544.57 1219.29 1540.59 Q1221.35 1536.58 1221.35 1528.58 Q1221.35 1520.56 1219.29 1516.58 Q1217.26 1512.57 1213.18 1512.57 M1213.18 1508.4 Q1219.71 1508.4 1223.15 1513.58 Q1226.61 1518.74 1226.61 1528.58 Q1226.61 1538.4 1223.15 1543.58 Q1219.71 1548.74 1213.18 1548.74 Q1206.64 1548.74 1203.18 1543.58 Q1199.74 1538.4 1199.74 1528.58 Q1199.74 1518.74 1203.18 1513.58 Q1206.64 1508.4 1213.18 1508.4 Z" fill="#bebebe" fill-rule="evenodd" fill-opacity="1" /><path clip-path="url(#clip000)" d="M 0 0 M1719.76 1543.56 L1728.35 1543.56 L1728.35 1513.9 L1719 1515.77 L1719 1510.98 L1728.3 1509.1 L1733.56 1509.1 L1733.56 1543.56 L1742.15 1543.56 L1742.15 1547.98 L1719.76 1547.98 L1719.76 1543.56 Z" fill="#bebebe" fill-rule="evenodd" fill-opacity="1" /><path clip-path="url(#clip000)" d="M 0 0 M1747.91 1509.1 L1768.56 1509.1 L1768.56 1513.53 L1752.73 1513.53 L1752.73 1523.06 Q1753.87 1522.67 1755.02 1522.49 Q1756.16 1522.28 1757.31 1522.28 Q1763.82 1522.28 1767.62 1525.85 Q1771.42 1529.42 1771.42 1535.51 Q1771.42 1541.79 1767.52 1545.28 Q1763.61 1548.74 1756.5 1548.74 Q1754.05 1548.74 1751.5 1548.32 Q1748.98 1547.91 1746.27 1547.07 L1746.27 1541.79 Q1748.61 1543.06 1751.11 1543.69 Q1753.61 1544.31 1756.4 1544.31 Q1760.9 1544.31 1763.53 1541.94 Q1766.16 1539.57 1766.16 1535.51 Q1766.16 1531.45 1763.53 1529.08 Q1760.9 1526.71 1756.4 1526.71 Q1754.29 1526.71 1752.18 1527.18 Q1750.1 1527.65 1747.91 1528.64 L1747.91 1509.1 Z" fill="#bebebe" fill-rule="evenodd" fill-opacity="1" /><path clip-path="url(#clip000)" d="M 0 0 M2269.37 1543.56 L2287.73 1543.56 L2287.73 1547.98 L2263.04 1547.98 L2263.04 1543.56 Q2266.04 1540.46 2271.2 1535.25 Q2276.38 1530.02 2277.71 1528.5 Q2280.23 1525.67 2281.22 1523.71 Q2282.24 1521.73 2282.24 1519.83 Q2282.24 1516.73 2280.05 1514.78 Q2277.89 1512.83 2274.4 1512.83 Q2271.92 1512.83 2269.16 1513.69 Q2266.43 1514.55 2263.31 1516.29 L2263.31 1510.98 Q2266.48 1509.7 2269.24 1509.05 Q2272 1508.4 2274.29 1508.4 Q2280.34 1508.4 2283.93 1511.42 Q2287.52 1514.44 2287.52 1519.49 Q2287.52 1521.89 2286.61 1524.05 Q2285.73 1526.19 2283.36 1529.1 Q2282.71 1529.86 2279.22 1533.48 Q2275.73 1537.07 2269.37 1543.56 Z" fill="#bebebe" fill-rule="evenodd" fill-opacity="1" /><path clip-path="url(#clip000)" d="M 0 0 M2304.69 1512.57 Q2300.62 1512.57 2298.57 1516.58 Q2296.53 1520.56 2296.53 1528.58 Q2296.53 1536.58 2298.57 1540.59 Q2300.62 1544.57 2304.69 1544.57 Q2308.77 1544.57 2310.8 1540.59 Q2312.86 1536.58 2312.86 1528.58 Q2312.86 1520.56 2310.8 1516.58 Q2308.77 1512.57 2304.69 1512.57 M2304.69 1508.4 Q2311.22 1508.4 2314.66 1513.58 Q2318.12 1518.74 2318.12 1528.58 Q2318.12 1538.4 2314.66 1543.58 Q2311.22 1548.74 2304.69 1548.74 Q2298.15 1548.74 2294.69 1543.58 Q2291.25 1538.4 2291.25 1528.58 Q2291.25 1518.74 2294.69 1513.58 Q2298.15 1508.4 2304.69 1508.4 Z" fill="#bebebe" fill-rule="evenodd" fill-opacity="1" /><polyline clip-path="url(#clip002)" style="stroke:#000000; stroke-width:2; stroke-opacity:0.1; fill:none" points="
  156.002,1242.58 2352.76,1242.58 
  "/>
<polyline clip-path="url(#clip002)" style="stroke:#000000; stroke-width:2; stroke-opacity:0.1; fill:none" points="
  156.002,970.478 2352.76,970.478 
  "/>
<polyline clip-path="url(#clip002)" style="stroke:#000000; stroke-width:2; stroke-opacity:0.1; fill:none" points="
  156.002,698.371 2352.76,698.371 
  "/>
<polyline clip-path="url(#clip002)" style="stroke:#000000; stroke-width:2; stroke-opacity:0.1; fill:none" points="
  156.002,426.265 2352.76,426.265 
  "/>
<polyline clip-path="url(#clip002)" style="stroke:#000000; stroke-width:2; stroke-opacity:0.1; fill:none" points="
  156.002,154.158 2352.76,154.158 
  "/>
<polyline clip-path="url(#clip000)" style="stroke:#000000; stroke-width:4; stroke-opacity:1; fill:none" points="
  156.002,1482.13 156.002,149.392 
  "/>
<polyline clip-path="url(#clip000)" style="stroke:#000000; stroke-width:4; stroke-opacity:1; fill:none" points="
  156.002,1242.58 182.363,1242.58 
  "/>
<polyline clip-path="url(#clip000)" style="stroke:#000000; stroke-width:4; stroke-opacity:1; fill:none" points="
  156.002,970.478 182.363,970.478 
  "/>
<polyline clip-path="url(#clip000)" style="stroke:#000000; stroke-width:4; stroke-opacity:1; fill:none" points="
  156.002,698.371 182.363,698.371 
  "/>
<polyline clip-path="url(#clip000)" style="stroke:#000000; stroke-width:4; stroke-opacity:1; fill:none" points="
  156.002,426.265 182.363,426.265 
  "/>
<polyline clip-path="url(#clip000)" style="stroke:#000000; stroke-width:4; stroke-opacity:1; fill:none" points="
  156.002,154.158 182.363,154.158 
  "/>
<path clip-path="url(#clip000)" d="M 0 0 M66.7733 1226.61 Q62.7108 1226.61 60.6535 1230.62 Q58.6223 1234.6 58.6223 1242.62 Q58.6223 1250.62 60.6535 1254.63 Q62.7108 1258.61 66.7733 1258.61 Q70.8618 1258.61 72.8931 1254.63 Q74.9503 1250.62 74.9503 1242.62 Q74.9503 1234.6 72.8931 1230.62 Q70.8618 1226.61 66.7733 1226.61 M66.7733 1222.44 Q73.3097 1222.44 76.7472 1227.62 Q80.2107 1232.78 80.2107 1242.62 Q80.2107 1252.44 76.7472 1257.62 Q73.3097 1262.78 66.7733 1262.78 Q60.2369 1262.78 56.7733 1257.62 Q53.3359 1252.44 53.3359 1242.62 Q53.3359 1232.78 56.7733 1227.62 Q60.2369 1222.44 66.7733 1222.44 Z" fill="#bebebe" fill-rule="evenodd" fill-opacity="1" /><path clip-path="url(#clip000)" d="M 0 0 M85.9138 1255.41 L91.4086 1255.41 L91.4086 1262.02 L85.9138 1262.02 L85.9138 1255.41 Z" fill="#bebebe" fill-rule="evenodd" fill-opacity="1" /><path clip-path="url(#clip000)" d="M 0 0 M101.643 1257.6 L120.002 1257.6 L120.002 1262.02 L95.3148 1262.02 L95.3148 1257.6 Q98.3096 1254.5 103.466 1249.29 Q108.648 1244.06 109.976 1242.55 Q112.502 1239.71 113.492 1237.75 Q114.507 1235.77 114.507 1233.87 Q114.507 1230.77 112.32 1228.82 Q110.158 1226.87 106.669 1226.87 Q104.195 1226.87 101.435 1227.73 Q98.7002 1228.59 95.5752 1230.33 L95.5752 1225.02 Q98.7523 1223.74 101.513 1223.09 Q104.273 1222.44 106.565 1222.44 Q112.606 1222.44 116.2 1225.46 Q119.794 1228.48 119.794 1233.54 Q119.794 1235.93 118.882 1238.09 Q117.997 1240.23 115.627 1243.14 Q114.976 1243.9 111.487 1247.52 Q107.997 1251.11 101.643 1257.6 Z" fill="#bebebe" fill-rule="evenodd" fill-opacity="1" /><path clip-path="url(#clip000)" d="M 0 0 M64.4296 954.502 Q60.3671 954.502 58.3098 958.512 Q56.2786 962.496 56.2786 970.517 Q56.2786 978.512 58.3098 982.522 Q60.3671 986.507 64.4296 986.507 Q68.5181 986.507 70.5493 982.522 Q72.6066 978.512 72.6066 970.517 Q72.6066 962.496 70.5493 958.512 Q68.5181 954.502 64.4296 954.502 M64.4296 950.335 Q70.966 950.335 74.4035 955.517 Q77.867 960.673 77.867 970.517 Q77.867 980.335 74.4035 985.517 Q70.966 990.673 64.4296 990.673 Q57.8931 990.673 54.4296 985.517 Q50.9921 980.335 50.9921 970.517 Q50.9921 960.673 54.4296 955.517 Q57.8931 950.335 64.4296 950.335 Z" fill="#bebebe" fill-rule="evenodd" fill-opacity="1" /><path clip-path="url(#clip000)" d="M 0 0 M83.5701 983.303 L89.0648 983.303 L89.0648 989.918 L83.5701 989.918 L83.5701 983.303 Z" fill="#bebebe" fill-rule="evenodd" fill-opacity="1" /><path clip-path="url(#clip000)" d="M 0 0 M109.221 955.621 L95.9398 976.376 L109.221 976.376 L109.221 955.621 M107.841 951.038 L114.455 951.038 L114.455 976.376 L120.002 976.376 L120.002 980.751 L114.455 980.751 L114.455 989.918 L109.221 989.918 L109.221 980.751 L91.669 980.751 L91.669 975.673 L107.841 951.038 Z" fill="#bebebe" fill-rule="evenodd" fill-opacity="1" /><path clip-path="url(#clip000)" d="M 0 0 M64.7941 682.395 Q60.7317 682.395 58.6744 686.405 Q56.6431 690.39 56.6431 698.411 Q56.6431 706.405 58.6744 710.416 Q60.7317 714.4 64.7941 714.4 Q68.8827 714.4 70.9139 710.416 Q72.9712 706.405 72.9712 698.411 Q72.9712 690.39 70.9139 686.405 Q68.8827 682.395 64.7941 682.395 M64.7941 678.228 Q71.3306 678.228 74.768 683.411 Q78.2316 688.567 78.2316 698.411 Q78.2316 708.228 74.768 713.41 Q71.3306 718.567 64.7941 718.567 Q58.2577 718.567 54.7942 713.41 Q51.3567 708.228 51.3567 698.411 Q51.3567 688.567 54.7942 683.411 Q58.2577 678.228 64.7941 678.228 Z" fill="#bebebe" fill-rule="evenodd" fill-opacity="1" /><path clip-path="url(#clip000)" d="M 0 0 M83.9347 711.197 L89.4294 711.197 L89.4294 717.811 L83.9347 717.811 L83.9347 711.197 Z" fill="#bebebe" fill-rule="evenodd" fill-opacity="1" /><path clip-path="url(#clip000)" d="M 0 0 M107.033 696.275 Q103.492 696.275 101.409 698.697 Q99.3512 701.119 99.3512 705.338 Q99.3512 709.53 101.409 711.978 Q103.492 714.4 107.033 714.4 Q110.575 714.4 112.632 711.978 Q114.716 709.53 114.716 705.338 Q114.716 701.119 112.632 698.697 Q110.575 696.275 107.033 696.275 M117.476 679.791 L117.476 684.582 Q115.497 683.645 113.466 683.15 Q111.461 682.655 109.481 682.655 Q104.273 682.655 101.513 686.171 Q98.7783 689.687 98.3877 696.796 Q99.9242 694.53 102.242 693.332 Q104.56 692.108 107.346 692.108 Q113.205 692.108 116.591 695.676 Q120.002 699.218 120.002 705.338 Q120.002 711.327 116.461 714.947 Q112.919 718.567 107.033 718.567 Q100.289 718.567 96.721 713.41 Q93.1534 708.228 93.1534 698.411 Q93.1534 689.192 97.5283 683.723 Q101.903 678.228 109.273 678.228 Q111.252 678.228 113.257 678.619 Q115.289 679.01 117.476 679.791 Z" fill="#bebebe" fill-rule="evenodd" fill-opacity="1" /><path clip-path="url(#clip000)" d="M 0 0 M65.0806 410.288 Q61.0181 410.288 58.9608 414.299 Q56.9296 418.283 56.9296 426.304 Q56.9296 434.299 58.9608 438.309 Q61.0181 442.293 65.0806 442.293 Q69.1691 442.293 71.2004 438.309 Q73.2576 434.299 73.2576 426.304 Q73.2576 418.283 71.2004 414.299 Q69.1691 410.288 65.0806 410.288 M65.0806 406.122 Q71.617 406.122 75.0545 411.304 Q78.518 416.46 78.518 426.304 Q78.518 436.122 75.0545 441.304 Q71.617 446.46 65.0806 446.46 Q58.5442 446.46 55.0806 441.304 Q51.6432 436.122 51.6432 426.304 Q51.6432 416.46 55.0806 411.304 Q58.5442 406.122 65.0806 406.122 Z" fill="#bebebe" fill-rule="evenodd" fill-opacity="1" /><path clip-path="url(#clip000)" d="M 0 0 M84.2211 439.09 L89.7159 439.09 L89.7159 445.705 L84.2211 445.705 L84.2211 439.09 Z" fill="#bebebe" fill-rule="evenodd" fill-opacity="1" /><path clip-path="url(#clip000)" d="M 0 0 M106.669 427.241 Q102.919 427.241 100.757 429.247 Q98.6221 431.252 98.6221 434.767 Q98.6221 438.283 100.757 440.288 Q102.919 442.293 106.669 442.293 Q110.419 442.293 112.58 440.288 Q114.742 438.257 114.742 434.767 Q114.742 431.252 112.58 429.247 Q110.445 427.241 106.669 427.241 M101.409 425.002 Q98.0231 424.169 96.1221 421.851 Q94.2471 419.533 94.2471 416.2 Q94.2471 411.538 97.5544 408.83 Q100.888 406.122 106.669 406.122 Q112.476 406.122 115.783 408.83 Q119.091 411.538 119.091 416.2 Q119.091 419.533 117.19 421.851 Q115.315 424.169 111.955 425.002 Q115.757 425.887 117.867 428.465 Q120.002 431.044 120.002 434.767 Q120.002 440.418 116.539 443.439 Q113.101 446.46 106.669 446.46 Q100.237 446.46 96.7731 443.439 Q93.3356 440.418 93.3356 434.767 Q93.3356 431.044 95.4711 428.465 Q97.6065 425.887 101.409 425.002 M99.4814 416.695 Q99.4814 419.715 101.356 421.408 Q103.257 423.101 106.669 423.101 Q110.054 423.101 111.955 421.408 Q113.882 419.715 113.882 416.695 Q113.882 413.674 111.955 411.981 Q110.054 410.288 106.669 410.288 Q103.257 410.288 101.356 411.981 Q99.4814 413.674 99.4814 416.695 Z" fill="#bebebe" fill-rule="evenodd" fill-opacity="1" /><path clip-path="url(#clip000)" d="M 0 0 M56.0181 169.171 L64.6118 169.171 L64.6118 139.51 L55.2629 141.385 L55.2629 136.593 L64.5598 134.718 L69.8202 134.718 L69.8202 169.171 L78.4139 169.171 L78.4139 173.598 L56.0181 173.598 L56.0181 169.171 Z" fill="#bebebe" fill-rule="evenodd" fill-opacity="1" /><path clip-path="url(#clip000)" d="M 0 0 M84.1169 166.984 L89.6117 166.984 L89.6117 173.598 L84.1169 173.598 L84.1169 166.984 Z" fill="#bebebe" fill-rule="evenodd" fill-opacity="1" /><path clip-path="url(#clip000)" d="M 0 0 M106.565 138.182 Q102.502 138.182 100.445 142.192 Q98.4137 146.177 98.4137 154.197 Q98.4137 162.192 100.445 166.203 Q102.502 170.187 106.565 170.187 Q110.653 170.187 112.685 166.203 Q114.742 162.192 114.742 154.197 Q114.742 146.177 112.685 142.192 Q110.653 138.182 106.565 138.182 M106.565 134.015 Q113.101 134.015 116.539 139.197 Q120.002 144.354 120.002 154.197 Q120.002 164.015 116.539 169.197 Q113.101 174.354 106.565 174.354 Q100.028 174.354 96.5648 169.197 Q93.1273 164.015 93.1273 154.197 Q93.1273 144.354 96.5648 139.197 Q100.028 134.015 106.565 134.015 Z" fill="#bebebe" fill-rule="evenodd" fill-opacity="1" /><path clip-path="url(#clip000)" d="M 0 0 M948.507 20.1156 L948.507 31.516 Q941.852 28.3332 935.949 26.7707 Q930.046 25.2082 924.549 25.2082 Q915 25.2082 909.792 28.9119 Q904.641 32.6156 904.641 39.4442 Q904.641 45.1734 908.056 48.1247 Q911.528 51.0182 921.134 52.8122 L928.194 54.259 Q941.273 56.7474 947.465 63.0552 Q953.715 69.3052 953.715 79.8375 Q953.715 92.3953 945.266 98.8768 Q936.875 105.358 920.613 105.358 Q914.479 105.358 907.535 103.969 Q900.648 102.58 893.241 99.8606 L893.241 87.8236 Q900.359 91.8166 907.188 93.8421 Q914.016 95.8675 920.613 95.8675 Q930.625 95.8675 936.065 91.9324 Q941.505 87.9972 941.505 80.7056 Q941.505 74.3399 937.569 70.7519 Q933.692 67.164 924.78 65.37 L917.662 63.9811 Q904.583 61.377 898.739 55.8215 Q892.894 50.2659 892.894 40.3702 Q892.894 28.9119 900.938 22.3147 Q909.039 15.7175 923.218 15.7175 Q929.294 15.7175 935.602 16.817 Q941.91 17.9166 948.507 20.1156 Z" fill="#bebebe" fill-rule="evenodd" fill-opacity="1" /><path clip-path="url(#clip000)" d="M 0 0 M1020.32 68.6107 L1020.32 73.819 L971.366 73.819 Q972.06 84.8144 977.963 90.6014 Q983.923 96.3305 994.514 96.3305 Q1000.65 96.3305 1006.38 94.8259 Q1012.16 93.3213 1017.84 90.312 L1017.84 100.381 Q1012.11 102.812 1006.09 104.085 Q1000.07 105.358 993.877 105.358 Q978.368 105.358 969.282 96.3305 Q960.254 87.3028 960.254 71.9093 Q960.254 55.9951 968.819 46.678 Q977.442 37.303 992.025 37.303 Q1005.1 37.303 1012.68 45.7521 Q1020.32 54.1432 1020.32 68.6107 M1009.68 65.4858 Q1009.56 56.7474 1004.76 51.5391 Q1000.01 46.3308 992.141 46.3308 Q983.229 46.3308 977.847 51.3655 Q972.523 56.4002 971.713 65.5436 L1009.68 65.4858 Z" fill="#bebebe" fill-rule="evenodd" fill-opacity="1" /><path clip-path="url(#clip000)" d="M 0 0 M1069.05 48.8192 Q1067.26 47.7775 1065.12 47.3146 Q1063.03 46.7937 1060.49 46.7937 Q1051.46 46.7937 1046.6 52.6965 Q1041.79 58.5414 1041.79 69.5367 L1041.79 103.68 L1031.09 103.68 L1031.09 38.8655 L1041.79 38.8655 L1041.79 48.9349 Q1045.15 43.0322 1050.53 40.1965 Q1055.91 37.303 1063.61 37.303 Q1064.71 37.303 1066.04 37.4767 Q1067.37 37.5924 1068.99 37.8817 L1069.05 48.8192 Z" fill="#bebebe" fill-rule="evenodd" fill-opacity="1" /><path clip-path="url(#clip000)" d="M 0 0 M1080.22 38.8655 L1090.87 38.8655 L1090.87 103.68 L1080.22 103.68 L1080.22 38.8655 M1080.22 13.6342 L1090.87 13.6342 L1090.87 27.1179 L1080.22 27.1179 L1080.22 13.6342 Z" fill="#bebebe" fill-rule="evenodd" fill-opacity="1" /><path clip-path="url(#clip000)" d="M 0 0 M1157.48 68.6107 L1157.48 73.819 L1108.52 73.819 Q1109.21 84.8144 1115.11 90.6014 Q1121.08 96.3305 1131.67 96.3305 Q1137.8 96.3305 1143.53 94.8259 Q1149.32 93.3213 1154.99 90.312 L1154.99 100.381 Q1149.26 102.812 1143.24 104.085 Q1137.22 105.358 1131.03 105.358 Q1115.52 105.358 1106.43 96.3305 Q1097.41 87.3028 1097.41 71.9093 Q1097.41 55.9951 1105.97 46.678 Q1114.59 37.303 1129.18 37.303 Q1142.26 37.303 1149.84 45.7521 Q1157.48 54.1432 1157.48 68.6107 M1146.83 65.4858 Q1146.71 56.7474 1141.91 51.5391 Q1137.16 46.3308 1129.29 46.3308 Q1120.38 46.3308 1115 51.3655 Q1109.67 56.4002 1108.86 65.5436 L1146.83 65.4858 Z" fill="#bebebe" fill-rule="evenodd" fill-opacity="1" /><path clip-path="url(#clip000)" d="M 0 0 M1216.39 17.28 L1216.39 49.3979 L1206.55 49.3979 L1206.55 17.28 L1216.39 17.28 Z" fill="#bebebe" fill-rule="evenodd" fill-opacity="1" /><path clip-path="url(#clip000)" d="M 0 0 M1268.88 40.7752 L1268.88 50.8446 Q1264.36 48.5298 1259.5 47.3724 Q1254.64 46.215 1249.43 46.215 Q1241.5 46.215 1237.51 48.6456 Q1233.57 51.0761 1233.57 55.9372 Q1233.57 59.6409 1236.41 61.7821 Q1239.25 63.8654 1247.81 65.7751 L1251.46 66.5853 Q1262.8 69.0158 1267.54 73.4718 Q1272.35 77.87 1272.35 85.7982 Q1272.35 94.8259 1265.17 100.092 Q1258.05 105.358 1245.55 105.358 Q1240.35 105.358 1234.67 104.317 Q1229.06 103.333 1222.81 101.307 L1222.81 90.312 Q1228.71 93.3791 1234.44 94.9416 Q1240.17 96.4462 1245.79 96.4462 Q1253.31 96.4462 1257.36 93.9 Q1261.41 91.2958 1261.41 86.6083 Q1261.41 82.2681 1258.46 79.9533 Q1255.57 77.6385 1245.67 75.4973 L1241.97 74.6292 Q1232.07 72.5459 1227.67 68.2635 Q1223.27 63.9233 1223.27 56.4002 Q1223.27 47.2567 1229.76 42.2799 Q1236.24 37.303 1248.16 37.303 Q1254.06 37.303 1259.27 38.1711 Q1264.48 39.0391 1268.88 40.7752 Z" fill="#bebebe" fill-rule="evenodd" fill-opacity="1" /><path clip-path="url(#clip000)" d="M 0 0 M1330.16 41.3539 L1330.16 51.3076 Q1325.65 48.8192 1321.07 47.6039 Q1316.56 46.3308 1311.93 46.3308 Q1301.57 46.3308 1295.84 52.928 Q1290.11 59.4673 1290.11 71.3306 Q1290.11 83.194 1295.84 89.7912 Q1301.57 96.3305 1311.93 96.3305 Q1316.56 96.3305 1321.07 95.1152 Q1325.65 93.8421 1330.16 91.3537 L1330.16 101.192 Q1325.7 103.275 1320.9 104.317 Q1316.16 105.358 1310.77 105.358 Q1296.13 105.358 1287.51 96.1569 Q1278.89 86.9556 1278.89 71.3306 Q1278.89 55.4742 1287.57 46.3886 Q1296.31 37.303 1311.47 37.303 Q1316.39 37.303 1321.07 38.3447 Q1325.76 39.3285 1330.16 41.3539 Z" fill="#bebebe" fill-rule="evenodd" fill-opacity="1" /><path clip-path="url(#clip000)" d="M 0 0 M1370.78 71.0992 Q1357.88 71.0992 1352.9 74.0505 Q1347.93 77.0019 1347.93 84.1199 Q1347.93 89.7912 1351.63 93.1476 Q1355.39 96.4462 1361.81 96.4462 Q1370.67 96.4462 1375.99 90.1963 Q1381.37 83.8884 1381.37 73.4718 L1381.37 71.0992 L1370.78 71.0992 M1392.02 66.701 L1392.02 103.68 L1381.37 103.68 L1381.37 93.8421 Q1377.73 99.7448 1372.29 102.58 Q1366.85 105.358 1358.98 105.358 Q1349.03 105.358 1343.12 99.8027 Q1337.28 94.1893 1337.28 84.8144 Q1337.28 73.8769 1344.57 68.3214 Q1351.92 62.7659 1366.44 62.7659 L1381.37 62.7659 L1381.37 61.7242 Q1381.37 54.3747 1376.51 50.3817 Q1371.71 46.3308 1362.97 46.3308 Q1357.42 46.3308 1352.15 47.6618 Q1346.88 48.9928 1342.02 51.6548 L1342.02 41.8169 Q1347.87 39.56 1353.37 38.4604 Q1358.86 37.303 1364.07 37.303 Q1378.13 37.303 1385.08 44.5947 Q1392.02 51.8863 1392.02 66.701 Z" fill="#bebebe" fill-rule="evenodd" fill-opacity="1" /><path clip-path="url(#clip000)" d="M 0 0 M1413.72 20.4629 L1413.72 38.8655 L1435.66 38.8655 L1435.66 47.141 L1413.72 47.141 L1413.72 82.3259 Q1413.72 90.2541 1415.87 92.5111 Q1418.06 94.768 1424.72 94.768 L1435.66 94.768 L1435.66 103.68 L1424.72 103.68 Q1412.39 103.68 1407.71 99.1083 Q1403.02 94.4787 1403.02 82.3259 L1403.02 47.141 L1395.21 47.141 L1395.21 38.8655 L1403.02 38.8655 L1403.02 20.4629 L1413.72 20.4629 Z" fill="#bebebe" fill-rule="evenodd" fill-opacity="1" /><path clip-path="url(#clip000)" d="M 0 0 M1457.36 20.4629 L1457.36 38.8655 L1479.29 38.8655 L1479.29 47.141 L1457.36 47.141 L1457.36 82.3259 Q1457.36 90.2541 1459.5 92.5111 Q1461.7 94.768 1468.35 94.768 L1479.29 94.768 L1479.29 103.68 L1468.35 103.68 Q1456.03 103.68 1451.34 99.1083 Q1446.65 94.4787 1446.65 82.3259 L1446.65 47.141 L1438.84 47.141 L1438.84 38.8655 L1446.65 38.8655 L1446.65 20.4629 L1457.36 20.4629 Z" fill="#bebebe" fill-rule="evenodd" fill-opacity="1" /><path clip-path="url(#clip000)" d="M 0 0 M1545.9 68.6107 L1545.9 73.819 L1496.94 73.819 Q1497.64 84.8144 1503.54 90.6014 Q1509.5 96.3305 1520.09 96.3305 Q1526.22 96.3305 1531.95 94.8259 Q1537.74 93.3213 1543.41 90.312 L1543.41 100.381 Q1537.68 102.812 1531.66 104.085 Q1525.64 105.358 1519.45 105.358 Q1503.94 105.358 1494.86 96.3305 Q1485.83 87.3028 1485.83 71.9093 Q1485.83 55.9951 1494.4 46.678 Q1503.02 37.303 1517.6 37.303 Q1530.68 37.303 1538.26 45.7521 Q1545.9 54.1432 1545.9 68.6107 M1535.25 65.4858 Q1535.14 56.7474 1530.33 51.5391 Q1525.59 46.3308 1517.72 46.3308 Q1508.8 46.3308 1503.42 51.3655 Q1498.1 56.4002 1497.29 65.5436 L1535.25 65.4858 Z" fill="#bebebe" fill-rule="evenodd" fill-opacity="1" /><path clip-path="url(#clip000)" d="M 0 0 M1594.63 48.8192 Q1592.83 47.7775 1590.69 47.3146 Q1588.61 46.7937 1586.06 46.7937 Q1577.03 46.7937 1572.17 52.6965 Q1567.37 58.5414 1567.37 69.5367 L1567.37 103.68 L1556.66 103.68 L1556.66 38.8655 L1567.37 38.8655 L1567.37 48.9349 Q1570.73 43.0322 1576.11 40.1965 Q1581.49 37.303 1589.19 37.303 Q1590.29 37.303 1591.62 37.4767 Q1592.95 37.5924 1594.57 37.8817 L1594.63 48.8192 Z" fill="#bebebe" fill-rule="evenodd" fill-opacity="1" /><path clip-path="url(#clip000)" d="M 0 0 M1615.86 17.28 L1615.86 49.3979 L1606.03 49.3979 L1606.03 17.28 L1615.86 17.28 Z" fill="#bebebe" fill-rule="evenodd" fill-opacity="1" /><path clip-path="url(#clip002)" d="M218.174 1234.74 L215.354 1242.85 L206.762 1243.03 L213.614 1248.23 L211.118 1256.45 L218.174 1251.54 L225.23 1256.45 L222.734 1248.23 L229.586 1243.03 L220.994 1242.85 L218.174 1234.74 Z" fill="#ffa500" fill-rule="evenodd" fill-opacity="0.5" stroke="#ff0000" stroke-opacity="0.5" stroke-width="3.2"/>
<path clip-path="url(#clip002)" d="M327.249 766.657 L324.429 774.769 L315.837 774.949 L322.689 780.145 L320.193 788.365 L327.249 783.457 L334.305 788.365 L331.809 780.145 L338.661 774.949 L330.069 774.769 L327.249 766.657 Z" fill="#ffa500" fill-rule="evenodd" fill-opacity="0.5" stroke="#ff0000" stroke-opacity="0.5" stroke-width="3.2"/>
<path clip-path="url(#clip002)" d="M436.323 627.686 L433.503 635.798 L424.911 635.978 L431.763 641.174 L429.267 649.394 L436.323 644.486 L443.379 649.394 L440.883 641.174 L447.735 635.978 L439.143 635.798 L436.323 627.686 Z" fill="#ffa500" fill-rule="evenodd" fill-opacity="0.5" stroke="#ff0000" stroke-opacity="0.5" stroke-width="3.2"/>
<path clip-path="url(#clip002)" d="M545.397 375.937 L542.577 384.049 L533.985 384.229 L540.837 389.425 L538.341 397.645 L545.397 392.737 L552.453 397.645 L549.957 389.425 L556.809 384.229 L548.217 384.049 L545.397 375.937 Z" fill="#ffa500" fill-rule="evenodd" fill-opacity="0.5" stroke="#ff0000" stroke-opacity="0.5" stroke-width="3.2"/>
<path clip-path="url(#clip002)" d="M654.471 317.44 L651.651 325.552 L643.059 325.732 L649.911 330.928 L647.415 339.148 L654.471 334.24 L661.527 339.148 L659.031 330.928 L665.883 325.732 L657.291 325.552 L654.471 317.44 Z" fill="#ffa500" fill-rule="evenodd" fill-opacity="0.5" stroke="#ff0000" stroke-opacity="0.5" stroke-width="3.2"/>
<path clip-path="url(#clip002)" d="M763.545 1368.48 L760.725 1376.59 L752.133 1376.77 L758.985 1381.97 L756.489 1390.19 L763.545 1385.28 L770.601 1390.19 L768.105 1381.97 L774.957 1376.77 L766.365 1376.59 L763.545 1368.48 Z" fill="#ffa500" fill-rule="evenodd" fill-opacity="0.5" stroke="#ff0000" stroke-opacity="0.5" stroke-width="3.2"/>
<path clip-path="url(#clip002)" d="M872.619 332.177 L869.799 340.289 L861.207 340.469 L868.059 345.665 L865.563 353.885 L872.619 348.977 L879.675 353.885 L877.179 345.665 L884.031 340.469 L875.439 340.289 L872.619 332.177 Z" fill="#ffa500" fill-rule="evenodd" fill-opacity="0.5" stroke="#ff0000" stroke-opacity="0.5" stroke-width="3.2"/>
<path clip-path="url(#clip002)" d="M981.694 1145.49 L978.874 1153.6 L970.282 1153.78 L977.134 1158.98 L974.638 1167.2 L981.694 1162.29 L988.75 1167.2 L986.254 1158.98 L993.106 1153.78 L984.514 1153.6 L981.694 1145.49 Z" fill="#ffa500" fill-rule="evenodd" fill-opacity="0.5" stroke="#ff0000" stroke-opacity="0.5" stroke-width="3.2"/>
<path clip-path="url(#clip002)" d="M1090.77 1316.49 L1087.95 1324.61 L1079.36 1324.79 L1086.21 1329.98 L1083.71 1338.2 L1090.77 1333.29 L1097.82 1338.2 L1095.33 1329.98 L1102.18 1324.79 L1093.59 1324.61 L1090.77 1316.49 Z" fill="#ffa500" fill-rule="evenodd" fill-opacity="0.5" stroke="#ff0000" stroke-opacity="0.5" stroke-width="3.2"/>
<path clip-path="url(#clip002)" d="M1199.84 907.585 L1197.02 915.697 L1188.43 915.877 L1195.28 921.073 L1192.79 929.293 L1199.84 924.385 L1206.9 929.293 L1204.4 921.073 L1211.25 915.877 L1202.66 915.697 L1199.84 907.585 Z" fill="#ffa500" fill-rule="evenodd" fill-opacity="0.5" stroke="#ff0000" stroke-opacity="0.5" stroke-width="3.2"/>
<path clip-path="url(#clip002)" d="M1308.92 634.112 L1306.1 642.224 L1297.5 642.404 L1304.36 647.6 L1301.86 655.82 L1308.92 650.912 L1315.97 655.82 L1313.48 647.6 L1320.33 642.404 L1311.74 642.224 L1308.92 634.112 Z" fill="#ffa500" fill-rule="evenodd" fill-opacity="0.5" stroke="#ff0000" stroke-opacity="0.5" stroke-width="3.2"/>
<path clip-path="url(#clip002)" d="M1417.99 1017 L1415.17 1025.11 L1406.58 1025.29 L1413.43 1030.48 L1410.93 1038.7 L1417.99 1033.8 L1425.05 1038.7 L1422.55 1030.48 L1429.4 1025.29 L1420.81 1025.11 L1417.99 1017 Z" fill="#ffa500" fill-rule="evenodd" fill-opacity="0.5" stroke="#ff0000" stroke-opacity="0.5" stroke-width="3.2"/>
<path clip-path="url(#clip002)" d="M1527.06 1132.1 L1524.24 1140.22 L1515.65 1140.4 L1522.5 1145.59 L1520.01 1153.81 L1527.06 1148.9 L1534.12 1153.81 L1531.62 1145.59 L1538.48 1140.4 L1529.88 1140.22 L1527.06 1132.1 Z" fill="#ffa500" fill-rule="evenodd" fill-opacity="0.5" stroke="#ff0000" stroke-opacity="0.5" stroke-width="3.2"/>
<path clip-path="url(#clip002)" d="M1636.14 1400.7 L1633.32 1408.81 L1624.73 1408.99 L1631.58 1414.19 L1629.08 1422.41 L1636.14 1417.5 L1643.19 1422.41 L1640.7 1414.19 L1647.55 1408.99 L1638.96 1408.81 L1636.14 1400.7 Z" fill="#ffa500" fill-rule="evenodd" fill-opacity="0.5" stroke="#ff0000" stroke-opacity="0.5" stroke-width="3.2"/>
<path clip-path="url(#clip002)" d="M1745.21 267.929 L1742.39 276.041 L1733.8 276.221 L1740.65 281.417 L1738.16 289.637 L1745.21 284.729 L1752.27 289.637 L1749.77 281.417 L1756.62 276.221 L1748.03 276.041 L1745.21 267.929 Z" fill="#ffa500" fill-rule="evenodd" fill-opacity="0.5" stroke="#ff0000" stroke-opacity="0.5" stroke-width="3.2"/>
<path clip-path="url(#clip002)" d="M1854.29 595.551 L1851.47 603.663 L1842.87 603.843 L1849.73 609.039 L1847.23 617.259 L1854.29 612.351 L1861.34 617.259 L1858.85 609.039 L1865.7 603.843 L1857.11 603.663 L1854.29 595.551 Z" fill="#ffa500" fill-rule="evenodd" fill-opacity="0.5" stroke="#ff0000" stroke-opacity="0.5" stroke-width="3.2"/>
<path clip-path="url(#clip002)" d="M1963.36 907.496 L1960.54 915.608 L1951.95 915.788 L1958.8 920.984 L1956.31 929.204 L1963.36 924.296 L1970.42 929.204 L1967.92 920.984 L1974.77 915.788 L1966.18 915.608 L1963.36 907.496 Z" fill="#ffa500" fill-rule="evenodd" fill-opacity="0.5" stroke="#ff0000" stroke-opacity="0.5" stroke-width="3.2"/>
<path clip-path="url(#clip002)" d="M2072.44 667.473 L2069.62 675.585 L2061.02 675.765 L2067.88 680.961 L2065.38 689.181 L2072.44 684.273 L2079.49 689.181 L2077 680.961 L2083.85 675.765 L2075.26 675.585 L2072.44 667.473 Z" fill="#ffa500" fill-rule="evenodd" fill-opacity="0.5" stroke="#ff0000" stroke-opacity="0.5" stroke-width="3.2"/>
<path clip-path="url(#clip002)" d="M2181.51 175.111 L2178.69 183.223 L2170.1 183.403 L2176.95 188.599 L2174.45 196.819 L2181.51 191.911 L2188.57 196.819 L2186.07 188.599 L2192.92 183.403 L2184.33 183.223 L2181.51 175.111 Z" fill="#ffa500" fill-rule="evenodd" fill-opacity="0.5" stroke="#ff0000" stroke-opacity="0.5" stroke-width="3.2"/>
<path clip-path="url(#clip002)" d="M2290.58 334.37 L2287.76 342.482 L2279.17 342.662 L2286.02 347.858 L2283.53 356.078 L2290.58 351.17 L2297.64 356.078 L2295.14 347.858 L2302 342.662 L2293.4 342.482 L2290.58 334.37 Z" fill="#ffa500" fill-rule="evenodd" fill-opacity="0.5" stroke="#ff0000" stroke-opacity="0.5" stroke-width="3.2"/>
<path clip-path="url(#clip002)" d="M218.174 310.799 L190.174 338.799 L218.174 366.799 L246.174 338.799 L218.174 310.799 Z" fill="#008000" fill-rule="evenodd" fill-opacity="1" stroke="#ff0000" stroke-opacity="1" stroke-width="3.2"/>
<path clip-path="url(#clip002)" d="M327.249 293.757 L299.249 321.757 L327.249 349.757 L355.249 321.757 L327.249 293.757 Z" fill="#008000" fill-rule="evenodd" fill-opacity="1" stroke="#ff0000" stroke-opacity="1" stroke-width="3.2"/>
<path clip-path="url(#clip002)" d="M436.323 1239.78 L408.323 1267.78 L436.323 1295.78 L464.323 1267.78 L436.323 1239.78 Z" fill="#008000" fill-rule="evenodd" fill-opacity="1" stroke="#ff0000" stroke-opacity="1" stroke-width="3.2"/>
<path clip-path="url(#clip002)" d="M545.397 1358.44 L517.397 1386.44 L545.397 1414.44 L573.397 1386.44 L545.397 1358.44 Z" fill="#008000" fill-rule="evenodd" fill-opacity="1" stroke="#ff0000" stroke-opacity="1" stroke-width="3.2"/>
<path clip-path="url(#clip002)" d="M654.471 1054.79 L626.471 1082.79 L654.471 1110.79 L682.471 1082.79 L654.471 1054.79 Z" fill="#008000" fill-rule="evenodd" fill-opacity="1" stroke="#ff0000" stroke-opacity="1" stroke-width="3.2"/>
<path clip-path="url(#clip002)" d="M763.545 523.362 L735.545 551.362 L763.545 579.362 L791.545 551.362 L763.545 523.362 Z" fill="#008000" fill-rule="evenodd" fill-opacity="1" stroke="#ff0000" stroke-opacity="1" stroke-width="3.2"/>
<path clip-path="url(#clip002)" d="M872.619 1155.97 L844.619 1183.97 L872.619 1211.97 L900.619 1183.97 L872.619 1155.97 Z" fill="#008000" fill-rule="evenodd" fill-opacity="1" stroke="#ff0000" stroke-opacity="1" stroke-width="3.2"/>
<path clip-path="url(#clip002)" d="M981.694 1059.04 L953.694 1087.04 L981.694 1115.04 L1009.69 1087.04 L981.694 1059.04 Z" fill="#008000" fill-rule="evenodd" fill-opacity="1" stroke="#ff0000" stroke-opacity="1" stroke-width="3.2"/>
<path clip-path="url(#clip002)" d="M1090.77 1090.28 L1062.77 1118.28 L1090.77 1146.28 L1118.77 1118.28 L1090.77 1090.28 Z" fill="#008000" fill-rule="evenodd" fill-opacity="1" stroke="#ff0000" stroke-opacity="1" stroke-width="3.2"/>
<path clip-path="url(#clip002)" d="M1199.84 253.938 L1171.84 281.938 L1199.84 309.938 L1227.84 281.938 L1199.84 253.938 Z" fill="#008000" fill-rule="evenodd" fill-opacity="1" stroke="#ff0000" stroke-opacity="1" stroke-width="3.2"/>
<path clip-path="url(#clip002)" d="M1308.92 176.655 L1280.92 204.655 L1308.92 232.655 L1336.92 204.655 L1308.92 176.655 Z" fill="#008000" fill-rule="evenodd" fill-opacity="1" stroke="#ff0000" stroke-opacity="1" stroke-width="3.2"/>
<path clip-path="url(#clip002)" d="M1417.99 382.214 L1389.99 410.214 L1417.99 438.214 L1445.99 410.214 L1417.99 382.214 Z" fill="#008000" fill-rule="evenodd" fill-opacity="1" stroke="#ff0000" stroke-opacity="1" stroke-width="3.2"/>
<path clip-path="url(#clip002)" d="M1527.06 545.751 L1499.06 573.751 L1527.06 601.751 L1555.06 573.751 L1527.06 545.751 Z" fill="#008000" fill-rule="evenodd" fill-opacity="1" stroke="#ff0000" stroke-opacity="1" stroke-width="3.2"/>
<path clip-path="url(#clip002)" d="M1636.14 1416.41 L1608.14 1444.41 L1636.14 1472.41 L1664.14 1444.41 L1636.14 1416.41 Z" fill="#008000" fill-rule="evenodd" fill-opacity="1" stroke="#ff0000" stroke-opacity="1" stroke-width="3.2"/>
<path clip-path="url(#clip002)" d="M1745.21 927.589 L1717.21 955.589 L1745.21 983.589 L1773.21 955.589 L1745.21 927.589 Z" fill="#008000" fill-rule="evenodd" fill-opacity="1" stroke="#ff0000" stroke-opacity="1" stroke-width="3.2"/>
<path clip-path="url(#clip002)" d="M1854.29 691.272 L1826.29 719.272 L1854.29 747.272 L1882.29 719.272 L1854.29 691.272 Z" fill="#008000" fill-rule="evenodd" fill-opacity="1" stroke="#ff0000" stroke-opacity="1" stroke-width="3.2"/>
<path clip-path="url(#clip002)" d="M1963.36 449.397 L1935.36 477.397 L1963.36 505.397 L1991.36 477.397 L1963.36 449.397 Z" fill="#008000" fill-rule="evenodd" fill-opacity="1" stroke="#ff0000" stroke-opacity="1" stroke-width="3.2"/>
<path clip-path="url(#clip002)" d="M2072.44 335.354 L2044.44 363.354 L2072.44 391.354 L2100.44 363.354 L2072.44 335.354 Z" fill="#008000" fill-rule="evenodd" fill-opacity="1" stroke="#ff0000" stroke-opacity="1" stroke-width="3.2"/>
<path clip-path="url(#clip002)" d="M2181.51 383.369 L2153.51 411.369 L2181.51 439.369 L2209.51 411.369 L2181.51 383.369 Z" fill="#008000" fill-rule="evenodd" fill-opacity="1" stroke="#ff0000" stroke-opacity="1" stroke-width="3.2"/>
<path clip-path="url(#clip002)" d="M2290.58 1126.74 L2262.58 1154.74 L2290.58 1182.74 L2318.58 1154.74 L2290.58 1126.74 Z" fill="#008000" fill-rule="evenodd" fill-opacity="1" stroke="#ff0000" stroke-opacity="1" stroke-width="3.2"/>
<path clip-path="url(#clip002)" d="M179.774 1038.3 L237.374 1071.9 L237.374 1004.7 L179.774 1038.3 Z" fill="#00008b" fill-rule="evenodd" fill-opacity="0.2" stroke="#ff0000" stroke-opacity="0.2" stroke-width="3.2"/>
<path clip-path="url(#clip002)" d="M288.849 495.189 L346.449 528.789 L346.449 461.589 L288.849 495.189 Z" fill="#00008b" fill-rule="evenodd" fill-opacity="0.2" stroke="#ff0000" stroke-opacity="0.2" stroke-width="3.2"/>
<path clip-path="url(#clip002)" d="M397.923 1363.8 L455.523 1397.4 L455.523 1330.2 L397.923 1363.8 Z" fill="#00008b" fill-rule="evenodd" fill-opacity="0.2" stroke="#ff0000" stroke-opacity="0.2" stroke-width="3.2"/>
<path clip-path="url(#clip002)" d="M506.997 965.921 L564.597 999.521 L564.597 932.321 L506.997 965.921 Z" fill="#00008b" fill-rule="evenodd" fill-opacity="0.2" stroke="#ff0000" stroke-opacity="0.2" stroke-width="3.2"/>
<path clip-path="url(#clip002)" d="M616.071 995.835 L673.671 1029.44 L673.671 962.235 L616.071 995.835 Z" fill="#00008b" fill-rule="evenodd" fill-opacity="0.2" stroke="#ff0000" stroke-opacity="0.2" stroke-width="3.2"/>
<path clip-path="url(#clip002)" d="M725.145 1366.58 L782.745 1400.18 L782.745 1332.98 L725.145 1366.58 Z" fill="#00008b" fill-rule="evenodd" fill-opacity="0.2" stroke="#ff0000" stroke-opacity="0.2" stroke-width="3.2"/>
<path clip-path="url(#clip002)" d="M834.219 548.066 L891.819 581.666 L891.819 514.466 L834.219 548.066 Z" fill="#00008b" fill-rule="evenodd" fill-opacity="0.2" stroke="#ff0000" stroke-opacity="0.2" stroke-width="3.2"/>
<path clip-path="url(#clip002)" d="M943.294 282.146 L1000.89 315.746 L1000.89 248.546 L943.294 282.146 Z" fill="#00008b" fill-rule="evenodd" fill-opacity="0.2" stroke="#ff0000" stroke-opacity="0.2" stroke-width="3.2"/>
<path clip-path="url(#clip002)" d="M1052.37 456.171 L1109.97 489.771 L1109.97 422.571 L1052.37 456.171 Z" fill="#00008b" fill-rule="evenodd" fill-opacity="0.2" stroke="#ff0000" stroke-opacity="0.2" stroke-width="3.2"/>
<path clip-path="url(#clip002)" d="M1161.44 660.641 L1219.04 694.241 L1219.04 627.041 L1161.44 660.641 Z" fill="#00008b" fill-rule="evenodd" fill-opacity="0.2" stroke="#ff0000" stroke-opacity="0.2" stroke-width="3.2"/>
<path clip-path="url(#clip002)" d="M1270.52 1438.39 L1328.12 1471.99 L1328.12 1404.79 L1270.52 1438.39 Z" fill="#00008b" fill-rule="evenodd" fill-opacity="0.2" stroke="#ff0000" stroke-opacity="0.2" stroke-width="3.2"/>
<path clip-path="url(#clip002)" d="M1379.59 965.399 L1437.19 998.999 L1437.19 931.799 L1379.59 965.399 Z" fill="#00008b" fill-rule="evenodd" fill-opacity="0.2" stroke="#ff0000" stroke-opacity="0.2" stroke-width="3.2"/>
<path clip-path="url(#clip002)" d="M1488.66 987.044 L1546.26 1020.64 L1546.26 953.444 L1488.66 987.044 Z" fill="#00008b" fill-rule="evenodd" fill-opacity="0.2" stroke="#ff0000" stroke-opacity="0.2" stroke-width="3.2"/>
<path clip-path="url(#clip002)" d="M1597.74 850.292 L1655.34 883.892 L1655.34 816.692 L1597.74 850.292 Z" fill="#00008b" fill-rule="evenodd" fill-opacity="0.2" stroke="#ff0000" stroke-opacity="0.2" stroke-width="3.2"/>
<path clip-path="url(#clip002)" d="M1706.81 1436.88 L1764.41 1470.48 L1764.41 1403.28 L1706.81 1436.88 Z" fill="#00008b" fill-rule="evenodd" fill-opacity="0.2" stroke="#ff0000" stroke-opacity="0.2" stroke-width="3.2"/>
<path clip-path="url(#clip002)" d="M1815.89 1066.34 L1873.49 1099.94 L1873.49 1032.74 L1815.89 1066.34 Z" fill="#00008b" fill-rule="evenodd" fill-opacity="0.2" stroke="#ff0000" stroke-opacity="0.2" stroke-width="3.2"/>
<path clip-path="url(#clip002)" d="M1924.96 1293.47 L1982.56 1327.07 L1982.56 1259.87 L1924.96 1293.47 Z" fill="#00008b" fill-rule="evenodd" fill-opacity="0.2" stroke="#ff0000" stroke-opacity="0.2" stroke-width="3.2"/>
<path clip-path="url(#clip002)" d="M2034.04 511.113 L2091.64 544.713 L2091.64 477.513 L2034.04 511.113 Z" fill="#00008b" fill-rule="evenodd" fill-opacity="0.2" stroke="#ff0000" stroke-opacity="0.2" stroke-width="3.2"/>
<path clip-path="url(#clip002)" d="M2143.11 306.639 L2200.71 340.239 L2200.71 273.039 L2143.11 306.639 Z" fill="#00008b" fill-rule="evenodd" fill-opacity="0.2" stroke="#ff0000" stroke-opacity="0.2" stroke-width="3.2"/>
<path clip-path="url(#clip002)" d="M2252.18 818.11 L2309.78 851.71 L2309.78 784.51 L2252.18 818.11 Z" fill="#00008b" fill-rule="evenodd" fill-opacity="0.2" stroke="#ff0000" stroke-opacity="0.2" stroke-width="3.2"/>
<path clip-path="url(#clip000)" d="
M1983.85 435.737 L2279.53 435.737 L2279.53 193.817 L1983.85 193.817  Z
  " fill="#ffffff" fill-rule="evenodd" fill-opacity="1"/>
<polyline clip-path="url(#clip000)" style="stroke:#000000; stroke-width:4; stroke-opacity:1; fill:none" points="
  1983.85,435.737 2279.53,435.737 2279.53,193.817 1983.85,193.817 1983.85,435.737 
  "/>
<path clip-path="url(#clip000)" d="M2081.48 228.697 L2075.47 246.002 L2057.14 246.386 L2071.76 257.471 L2066.43 275.007 L2081.48 264.537 L2096.54 275.007 L2091.21 257.471 L2105.83 246.386 L2087.5 246.002 L2081.48 228.697 Z" fill="#ffa500" fill-rule="evenodd" fill-opacity="0.5" stroke="#ff0000" stroke-opacity="0.5" stroke-width="6.82667"/>
<path clip-path="url(#clip000)" d="M 0 0 M2192.96 273.984 Q2191.15 278.614 2189.44 280.026 Q2187.73 281.438 2184.86 281.438 L2181.46 281.438 L2181.46 277.873 L2183.96 277.873 Q2185.71 277.873 2186.69 277.04 Q2187.66 276.206 2188.84 273.104 L2189.6 271.16 L2179.12 245.651 L2183.63 245.651 L2191.73 265.929 L2199.83 245.651 L2204.35 245.651 L2192.96 273.984 Z" fill="#bebebe" fill-rule="evenodd" fill-opacity="1" /><path clip-path="url(#clip000)" d="M 0 0 M2210.23 267.641 L2217.87 267.641 L2217.87 241.276 L2209.56 242.943 L2209.56 238.683 L2217.82 237.017 L2222.5 237.017 L2222.5 267.641 L2230.14 267.641 L2230.14 271.577 L2210.23 271.577 L2210.23 267.641 Z" fill="#bebebe" fill-rule="evenodd" fill-opacity="1" /><path clip-path="url(#clip000)" d="M2081.48 289.177 L2055.88 314.777 L2081.48 340.377 L2107.08 314.777 L2081.48 289.177 Z" fill="#008000" fill-rule="evenodd" fill-opacity="1" stroke="#ff0000" stroke-opacity="1" stroke-width="2.92571"/>
<path clip-path="url(#clip000)" d="M 0 0 M2192.96 334.464 Q2191.15 339.094 2189.44 340.506 Q2187.73 341.918 2184.86 341.918 L2181.46 341.918 L2181.46 338.353 L2183.96 338.353 Q2185.71 338.353 2186.69 337.52 Q2187.66 336.686 2188.84 333.584 L2189.6 331.64 L2179.12 306.131 L2183.63 306.131 L2191.73 326.409 L2199.83 306.131 L2204.35 306.131 L2192.96 334.464 Z" fill="#bebebe" fill-rule="evenodd" fill-opacity="1" /><path clip-path="url(#clip000)" d="M 0 0 M2213.45 328.121 L2229.76 328.121 L2229.76 332.057 L2207.82 332.057 L2207.82 328.121 Q2210.48 325.367 2215.07 320.737 Q2219.67 316.085 2220.85 314.742 Q2223.1 312.219 2223.98 310.483 Q2224.88 308.723 2224.88 307.034 Q2224.88 304.279 2222.94 302.543 Q2221.02 300.807 2217.91 300.807 Q2215.71 300.807 2213.26 301.571 Q2210.83 302.335 2208.05 303.886 L2208.05 299.163 Q2210.88 298.029 2213.33 297.45 Q2215.78 296.872 2217.82 296.872 Q2223.19 296.872 2226.39 299.557 Q2229.58 302.242 2229.58 306.733 Q2229.58 308.862 2228.77 310.784 Q2227.98 312.682 2225.88 315.274 Q2225.3 315.946 2222.2 319.163 Q2219.09 322.358 2213.45 328.121 Z" fill="#bebebe" fill-rule="evenodd" fill-opacity="1" /><path clip-path="url(#clip000)" d="M2061 375.257 L2091.72 393.177 L2091.72 357.337 L2061 375.257 Z" fill="#00008b" fill-rule="evenodd" fill-opacity="0.2" stroke="#ff0000" stroke-opacity="0.2" stroke-width="1.70667"/>
<path clip-path="url(#clip000)" d="M 0 0 M2192.96 394.944 Q2191.15 399.574 2189.44 400.986 Q2187.73 402.398 2184.86 402.398 L2181.46 402.398 L2181.46 398.833 L2183.96 398.833 Q2185.71 398.833 2186.69 398 Q2187.66 397.166 2188.84 394.064 L2189.6 392.12 L2179.12 366.611 L2183.63 366.611 L2191.73 386.889 L2199.83 366.611 L2204.35 366.611 L2192.96 394.944 Z" fill="#bebebe" fill-rule="evenodd" fill-opacity="1" /><path clip-path="url(#clip000)" d="M 0 0 M2223.58 373.902 Q2226.94 374.62 2228.82 376.889 Q2230.71 379.157 2230.71 382.49 Q2230.71 387.606 2227.2 390.407 Q2223.68 393.208 2217.2 393.208 Q2215.02 393.208 2212.7 392.768 Q2210.41 392.351 2207.96 391.495 L2207.96 386.981 Q2209.9 388.115 2212.22 388.694 Q2214.53 389.273 2217.06 389.273 Q2221.45 389.273 2223.75 387.537 Q2226.06 385.801 2226.06 382.49 Q2226.06 379.435 2223.91 377.722 Q2221.78 375.986 2217.96 375.986 L2213.93 375.986 L2213.93 372.143 L2218.14 372.143 Q2221.59 372.143 2223.42 370.778 Q2225.25 369.389 2225.25 366.796 Q2225.25 364.134 2223.35 362.722 Q2221.48 361.287 2217.96 361.287 Q2216.04 361.287 2213.84 361.703 Q2211.64 362.12 2209 363 L2209 358.833 Q2211.66 358.092 2213.98 357.722 Q2216.32 357.352 2218.38 357.352 Q2223.7 357.352 2226.8 359.782 Q2229.9 362.19 2229.9 366.31 Q2229.9 369.18 2228.26 371.171 Q2226.62 373.139 2223.58 373.902 Z" fill="#bebebe" fill-rule="evenodd" fill-opacity="1" /></svg>
