<?xml version="1.0" encoding="utf-8"?>
<svg xmlns="http://www.w3.org/2000/svg" xmlns:xlink="http://www.w3.org/1999/xlink" width="600" height="400" viewBox="0 0 2400 1600">
<defs>
  <clipPath id="clip410">
    <rect x="0" y="0" width="2400" height="1600"/>
  </clipPath>
</defs>
<path clip-path="url(#clip410)" d="
M0 1600 L2400 1600 L2400 0 L0 0  Z
  " fill="#ffffff" fill-rule="evenodd" fill-opacity="1"/>
<defs>
  <clipPath id="clip411">
    <rect x="480" y="0" width="1681" height="1600"/>
  </clipPath>
</defs>
<path clip-path="url(#clip410)" d="
M112.177 1486.45 L2352.76 1486.45 L2352.76 47.2441 L112.177 47.2441  Z
  " fill="#ffffff" fill-rule="evenodd" fill-opacity="1"/>
<defs>
  <clipPath id="clip412">
    <rect x="112" y="47" width="2242" height="1440"/>
  </clipPath>
</defs>
<polyline clip-path="url(#clip412)" style="stroke:#000000; stroke-width:2; stroke-opacity:0.1; fill:none" points="
  410.451,1486.45 410.451,47.2441 
  "/>
<polyline clip-path="url(#clip412)" style="stroke:#000000; stroke-width:2; stroke-opacity:0.1; fill:none" points="
  880.174,1486.45 880.174,47.2441 
  "/>
<polyline clip-path="url(#clip412)" style="stroke:#000000; stroke-width:2; stroke-opacity:0.1; fill:none" points="
  1349.9,1486.45 1349.9,47.2441 
  "/>
<polyline clip-path="url(#clip412)" style="stroke:#000000; stroke-width:2; stroke-opacity:0.1; fill:none" points="
  1819.62,1486.45 1819.62,47.2441 
  "/>
<polyline clip-path="url(#clip412)" style="stroke:#000000; stroke-width:2; stroke-opacity:0.1; fill:none" points="
  2289.34,1486.45 2289.34,47.2441 
  "/>
<polyline clip-path="url(#clip410)" style="stroke:#000000; stroke-width:4; stroke-opacity:1; fill:none" points="
  112.177,1486.45 2352.76,1486.45 
  "/>
<polyline clip-path="url(#clip410)" style="stroke:#000000; stroke-width:4; stroke-opacity:1; fill:none" points="
  410.451,1486.45 410.451,1469.18 
  "/>
<polyline clip-path="url(#clip410)" style="stroke:#000000; stroke-width:4; stroke-opacity:1; fill:none" points="
  880.174,1486.45 880.174,1469.18 
  "/>
<polyline clip-path="url(#clip410)" style="stroke:#000000; stroke-width:4; stroke-opacity:1; fill:none" points="
  1349.9,1486.45 1349.9,1469.18 
  "/>
<polyline clip-path="url(#clip410)" style="stroke:#000000; stroke-width:4; stroke-opacity:1; fill:none" points="
  1819.62,1486.45 1819.62,1469.18 
  "/>
<polyline clip-path="url(#clip410)" style="stroke:#000000; stroke-width:4; stroke-opacity:1; fill:none" points="
  2289.34,1486.45 2289.34,1469.18 
  "/>
<path clip-path="url(#clip410)" d="M 0 0 M405.104 1543.18 L421.423 1543.18 L421.423 1547.12 L399.479 1547.12 L399.479 1543.18 Q402.141 1540.43 406.724 1535.8 Q411.331 1531.15 412.511 1529.81 Q414.757 1527.28 415.636 1525.55 Q416.539 1523.79 416.539 1522.1 Q416.539 1519.34 414.595 1517.61 Q412.673 1515.87 409.572 1515.87 Q407.373 1515.87 404.919 1516.63 Q402.488 1517.4 399.711 1518.95 L399.711 1514.23 Q402.535 1513.09 404.988 1512.51 Q407.442 1511.93 409.479 1511.93 Q414.849 1511.93 418.044 1514.62 Q421.238 1517.31 421.238 1521.8 Q421.238 1523.93 420.428 1525.85 Q419.641 1527.74 417.535 1530.34 Q416.956 1531.01 413.854 1534.23 Q410.752 1537.42 405.104 1543.18 Z" fill="#000000" fill-rule="evenodd" fill-opacity="1" /><path clip-path="url(#clip410)" d="M 0 0 M883.184 1516.63 L871.378 1535.08 L883.184 1535.08 L883.184 1516.63 M881.957 1512.56 L887.836 1512.56 L887.836 1535.08 L892.767 1535.08 L892.767 1538.97 L887.836 1538.97 L887.836 1547.12 L883.184 1547.12 L883.184 1538.97 L867.582 1538.97 L867.582 1534.46 L881.957 1512.56 Z" fill="#000000" fill-rule="evenodd" fill-opacity="1" /><path clip-path="url(#clip410)" d="M 0 0 M1350.3 1527.98 Q1347.15 1527.98 1345.3 1530.13 Q1343.47 1532.28 1343.47 1536.03 Q1343.47 1539.76 1345.3 1541.93 Q1347.15 1544.09 1350.3 1544.09 Q1353.45 1544.09 1355.28 1541.93 Q1357.13 1539.76 1357.13 1536.03 Q1357.13 1532.28 1355.28 1530.13 Q1353.45 1527.98 1350.3 1527.98 M1359.58 1513.32 L1359.58 1517.58 Q1357.83 1516.75 1356.02 1516.31 Q1354.24 1515.87 1352.48 1515.87 Q1347.85 1515.87 1345.4 1519 Q1342.96 1522.12 1342.62 1528.44 Q1343.98 1526.43 1346.04 1525.36 Q1348.1 1524.27 1350.58 1524.27 Q1355.79 1524.27 1358.8 1527.44 Q1361.83 1530.59 1361.83 1536.03 Q1361.83 1541.36 1358.68 1544.57 Q1355.53 1547.79 1350.3 1547.79 Q1344.31 1547.79 1341.14 1543.21 Q1337.96 1538.6 1337.96 1529.87 Q1337.96 1521.68 1341.85 1516.82 Q1345.74 1511.93 1352.29 1511.93 Q1354.05 1511.93 1355.83 1512.28 Q1357.64 1512.63 1359.58 1513.32 Z" fill="#000000" fill-rule="evenodd" fill-opacity="1" /><path clip-path="url(#clip410)" d="M 0 0 M1819.62 1530.71 Q1816.29 1530.71 1814.37 1532.49 Q1812.47 1534.27 1812.47 1537.4 Q1812.47 1540.52 1814.37 1542.31 Q1816.29 1544.09 1819.62 1544.09 Q1822.95 1544.09 1824.87 1542.31 Q1826.8 1540.5 1826.8 1537.4 Q1826.8 1534.27 1824.87 1532.49 Q1822.98 1530.71 1819.62 1530.71 M1814.94 1528.72 Q1811.94 1527.98 1810.25 1525.92 Q1808.58 1523.86 1808.58 1520.89 Q1808.58 1516.75 1811.52 1514.34 Q1814.48 1511.93 1819.62 1511.93 Q1824.78 1511.93 1827.72 1514.34 Q1830.66 1516.75 1830.66 1520.89 Q1830.66 1523.86 1828.97 1525.92 Q1827.31 1527.98 1824.32 1528.72 Q1827.7 1529.5 1829.57 1531.8 Q1831.47 1534.09 1831.47 1537.4 Q1831.47 1542.42 1828.39 1545.11 Q1825.34 1547.79 1819.62 1547.79 Q1813.9 1547.79 1810.82 1545.11 Q1807.77 1542.42 1807.77 1537.4 Q1807.77 1534.09 1809.67 1531.8 Q1811.56 1529.5 1814.94 1528.72 M1813.23 1521.33 Q1813.23 1524.02 1814.9 1525.52 Q1816.59 1527.03 1819.62 1527.03 Q1822.63 1527.03 1824.32 1525.52 Q1826.03 1524.02 1826.03 1521.33 Q1826.03 1518.65 1824.32 1517.14 Q1822.63 1515.64 1819.62 1515.64 Q1816.59 1515.64 1814.9 1517.14 Q1813.23 1518.65 1813.23 1521.33 Z" fill="#000000" fill-rule="evenodd" fill-opacity="1" /><path clip-path="url(#clip410)" d="M 0 0 M2266.22 1543.18 L2273.86 1543.18 L2273.86 1516.82 L2265.55 1518.49 L2265.55 1514.23 L2273.81 1512.56 L2278.49 1512.56 L2278.49 1543.18 L2286.13 1543.18 L2286.13 1547.12 L2266.22 1547.12 L2266.22 1543.18 Z" fill="#000000" fill-rule="evenodd" fill-opacity="1" /><path clip-path="url(#clip410)" d="M 0 0 M2301.2 1515.64 Q2297.58 1515.64 2295.76 1519.2 Q2293.95 1522.75 2293.95 1529.87 Q2293.95 1536.98 2295.76 1540.55 Q2297.58 1544.09 2301.2 1544.09 Q2304.83 1544.09 2306.63 1540.55 Q2308.46 1536.98 2308.46 1529.87 Q2308.46 1522.75 2306.63 1519.2 Q2304.83 1515.64 2301.2 1515.64 M2301.2 1511.93 Q2307.01 1511.93 2310.06 1516.54 Q2313.14 1521.12 2313.14 1529.87 Q2313.14 1538.6 2310.06 1543.21 Q2307.01 1547.79 2301.2 1547.79 Q2295.38 1547.79 2292.31 1543.21 Q2289.25 1538.6 2289.25 1529.87 Q2289.25 1521.12 2292.31 1516.54 Q2295.38 1511.93 2301.2 1511.93 Z" fill="#000000" fill-rule="evenodd" fill-opacity="1" /><polyline clip-path="url(#clip412)" style="stroke:#000000; stroke-width:2; stroke-opacity:0.1; fill:none" points="
  112.177,1473.74 2352.76,1473.74 
  "/>
<polyline clip-path="url(#clip412)" style="stroke:#000000; stroke-width:2; stroke-opacity:0.1; fill:none" points="
  112.177,1181.01 2352.76,1181.01 
  "/>
<polyline clip-path="url(#clip412)" style="stroke:#000000; stroke-width:2; stroke-opacity:0.1; fill:none" points="
  112.177,888.268 2352.76,888.268 
  "/>
<polyline clip-path="url(#clip412)" style="stroke:#000000; stroke-width:2; stroke-opacity:0.1; fill:none" points="
  112.177,595.53 2352.76,595.53 
  "/>
<polyline clip-path="url(#clip412)" style="stroke:#000000; stroke-width:2; stroke-opacity:0.1; fill:none" points="
  112.177,302.793 2352.76,302.793 
  "/>
<polyline clip-path="url(#clip410)" style="stroke:#000000; stroke-width:4; stroke-opacity:1; fill:none" points="
  112.177,1486.45 112.177,47.2441 
  "/>
<polyline clip-path="url(#clip410)" style="stroke:#000000; stroke-width:4; stroke-opacity:1; fill:none" points="
  112.177,1473.74 139.064,1473.74 
  "/>
<polyline clip-path="url(#clip410)" style="stroke:#000000; stroke-width:4; stroke-opacity:1; fill:none" points="
  112.177,1181.01 139.064,1181.01 
  "/>
<polyline clip-path="url(#clip410)" style="stroke:#000000; stroke-width:4; stroke-opacity:1; fill:none" points="
  112.177,888.268 139.064,888.268 
  "/>
<polyline clip-path="url(#clip410)" style="stroke:#000000; stroke-width:4; stroke-opacity:1; fill:none" points="
  112.177,595.53 139.064,595.53 
  "/>
<polyline clip-path="url(#clip410)" style="stroke:#000000; stroke-width:4; stroke-opacity:1; fill:none" points="
  112.177,302.793 139.064,302.793 
  "/>
<path clip-path="url(#clip410)" d="M 0 0 M64.2328 1459.54 Q60.6217 1459.54 58.793 1463.11 Q56.9875 1466.65 56.9875 1473.78 Q56.9875 1480.88 58.793 1484.45 Q60.6217 1487.99 64.2328 1487.99 Q67.867 1487.99 69.6726 1484.45 Q71.5013 1480.88 71.5013 1473.78 Q71.5013 1466.65 69.6726 1463.11 Q67.867 1459.54 64.2328 1459.54 M64.2328 1455.84 Q70.0429 1455.84 73.0985 1460.45 Q76.1772 1465.03 76.1772 1473.78 Q76.1772 1482.51 73.0985 1487.11 Q70.0429 1491.69 64.2328 1491.69 Q58.4226 1491.69 55.344 1487.11 Q52.2884 1482.51 52.2884 1473.78 Q52.2884 1465.03 55.344 1460.45 Q58.4226 1455.84 64.2328 1455.84 Z" fill="#000000" fill-rule="evenodd" fill-opacity="1" /><path clip-path="url(#clip410)" d="M 0 0 M59.8578 1194.35 L76.1772 1194.35 L76.1772 1198.29 L54.2328 1198.29 L54.2328 1194.35 Q56.8949 1191.6 61.4782 1186.97 Q66.0846 1182.31 67.2652 1180.97 Q69.5105 1178.45 70.3902 1176.71 Q71.2929 1174.95 71.2929 1173.26 Q71.2929 1170.51 69.3485 1168.77 Q67.4272 1167.04 64.3254 1167.04 Q62.1263 1167.04 59.6726 1167.8 Q57.2421 1168.56 54.4643 1170.11 L54.4643 1165.39 Q57.2884 1164.26 59.7421 1163.68 Q62.1958 1163.1 64.2328 1163.1 Q69.6031 1163.1 72.7976 1165.79 Q75.992 1168.47 75.992 1172.96 Q75.992 1175.09 75.1818 1177.01 Q74.3948 1178.91 72.2883 1181.5 Q71.7096 1182.17 68.6078 1185.39 Q65.5059 1188.59 59.8578 1194.35 Z" fill="#000000" fill-rule="evenodd" fill-opacity="1" /><path clip-path="url(#clip410)" d="M 0 0 M66.5939 875.062 L54.7884 893.511 L66.5939 893.511 L66.5939 875.062 M65.367 870.988 L71.2466 870.988 L71.2466 893.511 L76.1772 893.511 L76.1772 897.4 L71.2466 897.4 L71.2466 905.548 L66.5939 905.548 L66.5939 897.4 L50.9921 897.4 L50.9921 892.886 L65.367 870.988 Z" fill="#000000" fill-rule="evenodd" fill-opacity="1" /><path clip-path="url(#clip410)" d="M 0 0 M64.6495 593.667 Q61.5013 593.667 59.6495 595.82 Q57.8208 597.972 57.8208 601.722 Q57.8208 605.449 59.6495 607.625 Q61.5013 609.778 64.6495 609.778 Q67.7976 609.778 69.6263 607.625 Q71.4781 605.449 71.4781 601.722 Q71.4781 597.972 69.6263 595.82 Q67.7976 593.667 64.6495 593.667 M73.9318 579.014 L73.9318 583.273 Q72.1726 582.44 70.367 582 Q68.5846 581.561 66.8254 581.561 Q62.1958 581.561 59.7421 584.686 Q57.3115 587.81 56.9643 594.13 Q58.33 592.116 60.3902 591.051 Q62.4504 589.963 64.9272 589.963 Q70.1355 589.963 73.1448 593.135 Q76.1772 596.283 76.1772 601.722 Q76.1772 607.047 73.029 610.264 Q69.8809 613.482 64.6495 613.482 Q58.6541 613.482 55.4828 608.898 Q52.3116 604.292 52.3116 595.565 Q52.3116 587.371 56.2004 582.51 Q60.0893 577.625 66.6402 577.625 Q68.3994 577.625 70.1818 577.973 Q71.9874 578.32 73.9318 579.014 Z" fill="#000000" fill-rule="evenodd" fill-opacity="1" /><path clip-path="url(#clip410)" d="M 0 0 M64.3254 303.661 Q60.9921 303.661 59.0708 305.443 Q57.1726 307.225 57.1726 310.35 Q57.1726 313.475 59.0708 315.258 Q60.9921 317.04 64.3254 317.04 Q67.6587 317.04 69.58 315.258 Q71.5013 313.452 71.5013 310.35 Q71.5013 307.225 69.58 305.443 Q67.6819 303.661 64.3254 303.661 M59.6495 301.67 Q56.6402 300.929 54.9504 298.869 Q53.2838 296.809 53.2838 293.846 Q53.2838 289.702 56.2236 287.295 Q59.1865 284.888 64.3254 284.888 Q69.4874 284.888 72.4272 287.295 Q75.367 289.702 75.367 293.846 Q75.367 296.809 73.6772 298.869 Q72.0105 300.929 69.0244 301.67 Q72.404 302.457 74.279 304.749 Q76.1772 307.04 76.1772 310.35 Q76.1772 315.374 73.0985 318.059 Q70.0429 320.744 64.3254 320.744 Q58.6078 320.744 55.5291 318.059 Q52.4736 315.374 52.4736 310.35 Q52.4736 307.04 54.3717 304.749 Q56.2699 302.457 59.6495 301.67 M57.9365 294.286 Q57.9365 296.971 59.6032 298.475 Q61.293 299.98 64.3254 299.98 Q67.3346 299.98 69.0244 298.475 Q70.7374 296.971 70.7374 294.286 Q70.7374 291.601 69.0244 290.096 Q67.3346 288.591 64.3254 288.591 Q61.293 288.591 59.6032 290.096 Q57.9365 291.601 57.9365 294.286 Z" fill="#000000" fill-rule="evenodd" fill-opacity="1" /><polyline clip-path="url(#clip412)" style="stroke:#009af9; stroke-width:4; stroke-opacity:1; fill:none" points="
  175.59,416.739 410.451,1445.72 645.313,1172.94 880.174,528.205 1115.04,193.006 1349.9,137.009 1584.76,1318.2 1819.62,1278.63 2054.48,436.138 2289.34,174.948 
  
  "/>
<polyline clip-path="url(#clip412)" style="stroke:#e26f46; stroke-width:4; stroke-opacity:1; fill:none" points="
  175.59,769.428 410.451,153.237 645.313,1326.1 880.174,1025.37 1115.04,410.27 1349.9,1165.97 1584.76,386.59 1819.62,1420.07 2054.48,87.9763 2289.34,372.232 
  
  "/>
<path clip-path="url(#clip410)" d="
M2005.92 276.658 L2278.07 276.658 L2278.07 95.2176 L2005.92 95.2176  Z
  " fill="#ffffff" fill-rule="evenodd" fill-opacity="1"/>
<polyline clip-path="url(#clip410)" style="stroke:#000000; stroke-width:4; stroke-opacity:1; fill:none" points="
  2005.92,276.658 2278.07,276.658 2278.07,95.2176 2005.92,95.2176 2005.92,276.658 
  "/>
<polyline clip-path="url(#clip410)" style="stroke:#009af9; stroke-width:4; stroke-opacity:1; fill:none" points="
  2030.82,155.698 2180.19,155.698 
  "/>
<path clip-path="url(#clip410)" d="M 0 0 M2223.86 160.038 Q2223.86 155.339 2221.91 152.677 Q2219.99 149.992 2216.61 149.992 Q2213.23 149.992 2211.29 152.677 Q2209.37 155.339 2209.37 160.038 Q2209.37 164.737 2211.29 167.422 Q2213.23 170.084 2216.61 170.084 Q2219.99 170.084 2221.91 167.422 Q2223.86 164.737 2223.86 160.038 M2209.37 150.987 Q2210.71 148.672 2212.75 147.561 Q2214.81 146.427 2217.65 146.427 Q2222.38 146.427 2225.32 150.177 Q2228.28 153.927 2228.28 160.038 Q2228.28 166.149 2225.32 169.899 Q2222.38 173.649 2217.65 173.649 Q2214.81 173.649 2212.75 172.538 Q2210.71 171.403 2209.37 169.089 L2209.37 172.978 L2205.08 172.978 L2205.08 136.959 L2209.37 136.959 L2209.37 150.987 Z" fill="#000000" fill-rule="evenodd" fill-opacity="1" /><polyline clip-path="url(#clip410)" style="stroke:#e26f46; stroke-width:4; stroke-opacity:1; fill:none" points="
  2030.82,216.178 2180.19,216.178 
  "/>
<path clip-path="url(#clip410)" d="M 0 0 M2225.59 208.527 L2225.59 212.509 Q2223.79 211.513 2221.96 211.027 Q2220.15 210.518 2218.3 210.518 Q2214.16 210.518 2211.87 213.157 Q2209.58 215.772 2209.58 220.518 Q2209.58 225.263 2211.87 227.902 Q2214.16 230.518 2218.3 230.518 Q2220.15 230.518 2221.96 230.032 Q2223.79 229.522 2225.59 228.527 L2225.59 232.462 Q2223.81 233.296 2221.89 233.712 Q2219.99 234.129 2217.84 234.129 Q2211.98 234.129 2208.53 230.448 Q2205.08 226.768 2205.08 220.518 Q2205.08 214.175 2208.56 210.541 Q2212.05 206.907 2218.12 206.907 Q2220.08 206.907 2221.96 207.323 Q2223.83 207.717 2225.59 208.527 Z" fill="#000000" fill-rule="evenodd" fill-opacity="1" /></svg>
