<?xml version="1.0" encoding="utf-8"?>
<svg xmlns="http://www.w3.org/2000/svg" xmlns:xlink="http://www.w3.org/1999/xlink" width="600" height="400" viewBox="0 0 2400 1600">
<defs>
  <clipPath id="clip610">
    <rect x="0" y="0" width="2400" height="1600"/>
  </clipPath>
</defs>
<path clip-path="url(#clip610)" d="
M0 1600 L2400 1600 L2400 0 L0 0  Z
  " fill="#ffffff" fill-rule="evenodd" fill-opacity="1"/>
<defs>
  <clipPath id="clip611">
    <rect x="480" y="0" width="1681" height="1600"/>
  </clipPath>
</defs>
<path clip-path="url(#clip610)" d="
M156.002 1482.13 L2352.76 1482.13 L2352.76 149.392 L156.002 149.392  Z
  " fill="#ffffff" fill-rule="evenodd" fill-opacity="1"/>
<defs>
  <clipPath id="clip612">
    <rect x="156" y="149" width="2198" height="1334"/>
  </clipPath>
</defs>
<polyline clip-path="url(#clip612)" style="stroke:#000000; stroke-width:2; stroke-opacity:0.1; fill:none" points="
  654.471,1482.13 654.471,149.392 
  "/>
<polyline clip-path="url(#clip612)" style="stroke:#000000; stroke-width:2; stroke-opacity:0.1; fill:none" points="
  1199.84,1482.13 1199.84,149.392 
  "/>
<polyline clip-path="url(#clip612)" style="stroke:#000000; stroke-width:2; stroke-opacity:0.1; fill:none" points="
  1745.21,1482.13 1745.21,149.392 
  "/>
<polyline clip-path="url(#clip612)" style="stroke:#000000; stroke-width:2; stroke-opacity:0.1; fill:none" points="
  2290.58,1482.13 2290.58,149.392 
  "/>
<polyline clip-path="url(#clip610)" style="stroke:#000000; stroke-width:4; stroke-opacity:1; fill:none" points="
  156.002,1482.13 2352.76,1482.13 
  "/>
<polyline clip-path="url(#clip610)" style="stroke:#000000; stroke-width:4; stroke-opacity:1; fill:none" points="
  654.471,1482.13 654.471,1466.14 
  "/>
<polyline clip-path="url(#clip610)" style="stroke:#000000; stroke-width:4; stroke-opacity:1; fill:none" points="
  1199.84,1482.13 1199.84,1466.14 
  "/>
<polyline clip-path="url(#clip610)" style="stroke:#000000; stroke-width:4; stroke-opacity:1; fill:none" points="
  1745.21,1482.13 1745.21,1466.14 
  "/>
<polyline clip-path="url(#clip610)" style="stroke:#000000; stroke-width:4; stroke-opacity:1; fill:none" points="
  2290.58,1482.13 2290.58,1466.14 
  "/>
<path clip-path="url(#clip610)" d="M 0 0 M643.534 1509.1 L664.185 1509.1 L664.185 1513.53 L648.351 1513.53 L648.351 1523.06 Q649.497 1522.67 650.643 1522.49 Q651.789 1522.28 652.935 1522.28 Q659.445 1522.28 663.247 1525.85 Q667.049 1529.42 667.049 1535.51 Q667.049 1541.79 663.143 1545.28 Q659.237 1548.74 652.127 1548.74 Q649.679 1548.74 647.127 1548.32 Q644.601 1547.91 641.893 1547.07 L641.893 1541.79 Q644.237 1543.06 646.737 1543.69 Q649.237 1544.31 652.023 1544.31 Q656.528 1544.31 659.159 1541.94 Q661.789 1539.57 661.789 1535.51 Q661.789 1531.45 659.159 1529.08 Q656.528 1526.71 652.023 1526.71 Q649.914 1526.71 647.804 1527.18 Q645.721 1527.65 643.534 1528.64 L643.534 1509.1 Z" fill="#bebebe" fill-rule="evenodd" fill-opacity="1" /><path clip-path="url(#clip610)" d="M 0 0 M1173.83 1543.56 L1182.42 1543.56 L1182.42 1513.9 L1173.07 1515.77 L1173.07 1510.98 L1182.37 1509.1 L1187.63 1509.1 L1187.63 1543.56 L1196.22 1543.56 L1196.22 1547.98 L1173.83 1547.98 L1173.83 1543.56 Z" fill="#bebebe" fill-rule="evenodd" fill-opacity="1" /><path clip-path="url(#clip610)" d="M 0 0 M1213.18 1512.57 Q1209.11 1512.57 1207.06 1516.58 Q1205.02 1520.56 1205.02 1528.58 Q1205.02 1536.58 1207.06 1540.59 Q1209.11 1544.57 1213.18 1544.57 Q1217.26 1544.57 1219.29 1540.59 Q1221.35 1536.58 1221.35 1528.58 Q1221.35 1520.56 1219.29 1516.58 Q1217.26 1512.57 1213.18 1512.57 M1213.18 1508.4 Q1219.71 1508.4 1223.15 1513.58 Q1226.61 1518.74 1226.61 1528.58 Q1226.61 1538.4 1223.15 1543.58 Q1219.71 1548.74 1213.18 1548.74 Q1206.64 1548.74 1203.18 1543.58 Q1199.74 1538.4 1199.74 1528.58 Q1199.74 1518.74 1203.18 1513.58 Q1206.64 1508.4 1213.18 1508.4 Z" fill="#bebebe" fill-rule="evenodd" fill-opacity="1" /><path clip-path="url(#clip610)" d="M 0 0 M1719.76 1543.56 L1728.35 1543.56 L1728.35 1513.9 L1719 1515.77 L1719 1510.98 L1728.3 1509.1 L1733.56 1509.1 L1733.56 1543.56 L1742.15 1543.56 L1742.15 1547.98 L1719.76 1547.98 L1719.76 1543.56 Z" fill="#bebebe" fill-rule="evenodd" fill-opacity="1" /><path clip-path="url(#clip610)" d="M 0 0 M1747.91 1509.1 L1768.56 1509.1 L1768.56 1513.53 L1752.73 1513.53 L1752.73 1523.06 Q1753.87 1522.67 1755.02 1522.49 Q1756.16 1522.28 1757.31 1522.28 Q1763.82 1522.28 1767.62 1525.85 Q1771.42 1529.42 1771.42 1535.51 Q1771.42 1541.79 1767.52 1545.28 Q1763.61 1548.74 1756.5 1548.74 Q1754.05 1548.74 1751.5 1548.32 Q1748.98 1547.91 1746.27 1547.07 L1746.27 1541.79 Q1748.61 1543.06 1751.11 1543.69 Q1753.61 1544.31 1756.4 1544.31 Q1760.9 1544.31 1763.53 1541.94 Q1766.16 1539.57 1766.16 1535.51 Q1766.16 1531.45 1763.53 1529.08 Q1760.9 1526.71 1756.4 1526.71 Q1754.29 1526.71 1752.18 1527.18 Q1750.1 1527.65 1747.91 1528.64 L1747.91 1509.1 Z" fill="#bebebe" fill-rule="evenodd" fill-opacity="1" /><path clip-path="url(#clip610)" d="M 0 0 M2269.37 1543.56 L2287.73 1543.56 L2287.73 1547.98 L2263.04 1547.98 L2263.04 1543.56 Q2266.04 1540.46 2271.2 1535.25 Q2276.38 1530.02 2277.71 1528.5 Q2280.23 1525.67 2281.22 1523.71 Q2282.24 1521.73 2282.24 1519.83 Q2282.24 1516.73 2280.05 1514.78 Q2277.89 1512.83 2274.4 1512.83 Q2271.92 1512.83 2269.16 1513.69 Q2266.43 1514.55 2263.31 1516.29 L2263.31 1510.98 Q2266.48 1509.7 2269.24 1509.05 Q2272 1508.4 2274.29 1508.4 Q2280.34 1508.4 2283.93 1511.42 Q2287.52 1514.44 2287.52 1519.49 Q2287.52 1521.89 2286.61 1524.05 Q2285.73 1526.19 2283.36 1529.1 Q2282.71 1529.86 2279.22 1533.48 Q2275.73 1537.07 2269.37 1543.56 Z" fill="#bebebe" fill-rule="evenodd" fill-opacity="1" /><path clip-path="url(#clip610)" d="M 0 0 M2304.69 1512.57 Q2300.62 1512.57 2298.57 1516.58 Q2296.53 1520.56 2296.53 1528.58 Q2296.53 1536.58 2298.57 1540.59 Q2300.62 1544.57 2304.69 1544.57 Q2308.77 1544.57 2310.8 1540.59 Q2312.86 1536.58 2312.86 1528.58 Q2312.86 1520.56 2310.8 1516.58 Q2308.77 1512.57 2304.69 1512.57 M2304.69 1508.4 Q2311.22 1508.4 2314.66 1513.58 Q2318.12 1518.74 2318.12 1528.58 Q2318.12 1538.4 2314.66 1543.58 Q2311.22 1548.74 2304.69 1548.74 Q2298.15 1548.74 2294.69 1543.58 Q2291.25 1538.4 2291.25 1528.58 Q2291.25 1518.74 2294.69 1513.58 Q2298.15 1508.4 2304.69 1508.4 Z" fill="#bebebe" fill-rule="evenodd" fill-opacity="1" /><polyline clip-path="url(#clip612)" style="stroke:#000000; stroke-width:2; stroke-opacity:0.1; fill:none" points="
  156.002,1224.71 2352.76,1224.71 
  "/>
<polyline clip-path="url(#clip612)" style="stroke:#000000; stroke-width:2; stroke-opacity:0.1; fill:none" points="
  156.002,964.387 2352.76,964.387 
  "/>
<polyline clip-path="url(#clip612)" style="stroke:#000000; stroke-width:2; stroke-opacity:0.1; fill:none" points="
  156.002,704.069 2352.76,704.069 
  "/>
<polyline clip-path="url(#clip612)" style="stroke:#000000; stroke-width:2; stroke-opacity:0.1; fill:none" points="
  156.002,443.75 2352.76,443.75 
  "/>
<polyline clip-path="url(#clip612)" style="stroke:#000000; stroke-width:2; stroke-opacity:0.1; fill:none" points="
  156.002,183.432 2352.76,183.432 
  "/>
<polyline clip-path="url(#clip610)" style="stroke:#000000; stroke-width:4; stroke-opacity:1; fill:none" points="
  156.002,1482.13 156.002,149.392 
  "/>
<polyline clip-path="url(#clip610)" style="stroke:#000000; stroke-width:4; stroke-opacity:1; fill:none" points="
  156.002,1224.71 182.363,1224.71 
  "/>
<polyline clip-path="url(#clip610)" style="stroke:#000000; stroke-width:4; stroke-opacity:1; fill:none" points="
  156.002,964.387 182.363,964.387 
  "/>
<polyline clip-path="url(#clip610)" style="stroke:#000000; stroke-width:4; stroke-opacity:1; fill:none" points="
  156.002,704.069 182.363,704.069 
  "/>
<polyline clip-path="url(#clip610)" style="stroke:#000000; stroke-width:4; stroke-opacity:1; fill:none" points="
  156.002,443.75 182.363,443.75 
  "/>
<polyline clip-path="url(#clip610)" style="stroke:#000000; stroke-width:4; stroke-opacity:1; fill:none" points="
  156.002,183.432 182.363,183.432 
  "/>
<path clip-path="url(#clip610)" d="M 0 0 M66.7733 1208.73 Q62.7108 1208.73 60.6535 1212.74 Q58.6223 1216.72 58.6223 1224.74 Q58.6223 1232.74 60.6535 1236.75 Q62.7108 1240.73 66.7733 1240.73 Q70.8618 1240.73 72.8931 1236.75 Q74.9503 1232.74 74.9503 1224.74 Q74.9503 1216.72 72.8931 1212.74 Q70.8618 1208.73 66.7733 1208.73 M66.7733 1204.56 Q73.3097 1204.56 76.7472 1209.74 Q80.2107 1214.9 80.2107 1224.74 Q80.2107 1234.56 76.7472 1239.74 Q73.3097 1244.9 66.7733 1244.9 Q60.2369 1244.9 56.7733 1239.74 Q53.3359 1234.56 53.3359 1224.74 Q53.3359 1214.9 56.7733 1209.74 Q60.2369 1204.56 66.7733 1204.56 Z" fill="#bebebe" fill-rule="evenodd" fill-opacity="1" /><path clip-path="url(#clip610)" d="M 0 0 M85.9138 1237.53 L91.4086 1237.53 L91.4086 1244.15 L85.9138 1244.15 L85.9138 1237.53 Z" fill="#bebebe" fill-rule="evenodd" fill-opacity="1" /><path clip-path="url(#clip610)" d="M 0 0 M101.643 1239.72 L120.002 1239.72 L120.002 1244.15 L95.3148 1244.15 L95.3148 1239.72 Q98.3096 1236.62 103.466 1231.41 Q108.648 1226.18 109.976 1224.67 Q112.502 1221.83 113.492 1219.87 Q114.507 1217.9 114.507 1215.99 Q114.507 1212.9 112.32 1210.94 Q110.158 1208.99 106.669 1208.99 Q104.195 1208.99 101.435 1209.85 Q98.7002 1210.71 95.5752 1212.45 L95.5752 1207.14 Q98.7523 1205.86 101.513 1205.21 Q104.273 1204.56 106.565 1204.56 Q112.606 1204.56 116.2 1207.58 Q119.794 1210.6 119.794 1215.66 Q119.794 1218.05 118.882 1220.21 Q117.997 1222.35 115.627 1225.27 Q114.976 1226.02 111.487 1229.64 Q107.997 1233.23 101.643 1239.72 Z" fill="#bebebe" fill-rule="evenodd" fill-opacity="1" /><path clip-path="url(#clip610)" d="M 0 0 M64.4296 948.411 Q60.3671 948.411 58.3098 952.421 Q56.2786 956.405 56.2786 964.426 Q56.2786 972.421 58.3098 976.431 Q60.3671 980.416 64.4296 980.416 Q68.5181 980.416 70.5493 976.431 Q72.6066 972.421 72.6066 964.426 Q72.6066 956.405 70.5493 952.421 Q68.5181 948.411 64.4296 948.411 M64.4296 944.244 Q70.966 944.244 74.4035 949.426 Q77.867 954.583 77.867 964.426 Q77.867 974.244 74.4035 979.426 Q70.966 984.582 64.4296 984.582 Q57.8931 984.582 54.4296 979.426 Q50.9921 974.244 50.9921 964.426 Q50.9921 954.583 54.4296 949.426 Q57.8931 944.244 64.4296 944.244 Z" fill="#bebebe" fill-rule="evenodd" fill-opacity="1" /><path clip-path="url(#clip610)" d="M 0 0 M83.5701 977.213 L89.0648 977.213 L89.0648 983.827 L83.5701 983.827 L83.5701 977.213 Z" fill="#bebebe" fill-rule="evenodd" fill-opacity="1" /><path clip-path="url(#clip610)" d="M 0 0 M109.221 949.531 L95.9398 970.286 L109.221 970.286 L109.221 949.531 M107.841 944.947 L114.455 944.947 L114.455 970.286 L120.002 970.286 L120.002 974.661 L114.455 974.661 L114.455 983.827 L109.221 983.827 L109.221 974.661 L91.669 974.661 L91.669 969.582 L107.841 944.947 Z" fill="#bebebe" fill-rule="evenodd" fill-opacity="1" /><path clip-path="url(#clip610)" d="M 0 0 M64.7941 688.092 Q60.7317 688.092 58.6744 692.103 Q56.6431 696.087 56.6431 704.108 Q56.6431 712.103 58.6744 716.113 Q60.7317 720.097 64.7941 720.097 Q68.8827 720.097 70.9139 716.113 Q72.9712 712.103 72.9712 704.108 Q72.9712 696.087 70.9139 692.103 Q68.8827 688.092 64.7941 688.092 M64.7941 683.926 Q71.3306 683.926 74.768 689.108 Q78.2316 694.264 78.2316 704.108 Q78.2316 713.925 74.768 719.108 Q71.3306 724.264 64.7941 724.264 Q58.2577 724.264 54.7942 719.108 Q51.3567 713.925 51.3567 704.108 Q51.3567 694.264 54.7942 689.108 Q58.2577 683.926 64.7941 683.926 Z" fill="#bebebe" fill-rule="evenodd" fill-opacity="1" /><path clip-path="url(#clip610)" d="M 0 0 M83.9347 716.894 L89.4294 716.894 L89.4294 723.509 L83.9347 723.509 L83.9347 716.894 Z" fill="#bebebe" fill-rule="evenodd" fill-opacity="1" /><path clip-path="url(#clip610)" d="M 0 0 M107.033 701.972 Q103.492 701.972 101.409 704.394 Q99.3512 706.816 99.3512 711.035 Q99.3512 715.228 101.409 717.675 Q103.492 720.097 107.033 720.097 Q110.575 720.097 112.632 717.675 Q114.716 715.228 114.716 711.035 Q114.716 706.816 112.632 704.394 Q110.575 701.972 107.033 701.972 M117.476 685.488 L117.476 690.28 Q115.497 689.342 113.466 688.847 Q111.461 688.353 109.481 688.353 Q104.273 688.353 101.513 691.868 Q98.7783 695.384 98.3877 702.493 Q99.9242 700.228 102.242 699.03 Q104.56 697.806 107.346 697.806 Q113.205 697.806 116.591 701.373 Q120.002 704.915 120.002 711.035 Q120.002 717.024 116.461 720.644 Q112.919 724.264 107.033 724.264 Q100.289 724.264 96.721 719.108 Q93.1534 713.925 93.1534 704.108 Q93.1534 694.889 97.5283 689.42 Q101.903 683.926 109.273 683.926 Q111.252 683.926 113.257 684.316 Q115.289 684.707 117.476 685.488 Z" fill="#bebebe" fill-rule="evenodd" fill-opacity="1" /><path clip-path="url(#clip610)" d="M 0 0 M65.0806 427.774 Q61.0181 427.774 58.9608 431.784 Q56.9296 435.769 56.9296 443.789 Q56.9296 451.784 58.9608 455.795 Q61.0181 459.779 65.0806 459.779 Q69.1691 459.779 71.2004 455.795 Q73.2576 451.784 73.2576 443.789 Q73.2576 435.769 71.2004 431.784 Q69.1691 427.774 65.0806 427.774 M65.0806 423.607 Q71.617 423.607 75.0545 428.789 Q78.518 433.946 78.518 443.789 Q78.518 453.607 75.0545 458.789 Q71.617 463.946 65.0806 463.946 Q58.5442 463.946 55.0806 458.789 Q51.6432 453.607 51.6432 443.789 Q51.6432 433.946 55.0806 428.789 Q58.5442 423.607 65.0806 423.607 Z" fill="#bebebe" fill-rule="evenodd" fill-opacity="1" /><path clip-path="url(#clip610)" d="M 0 0 M84.2211 456.576 L89.7159 456.576 L89.7159 463.19 L84.2211 463.19 L84.2211 456.576 Z" fill="#bebebe" fill-rule="evenodd" fill-opacity="1" /><path clip-path="url(#clip610)" d="M 0 0 M106.669 444.727 Q102.919 444.727 100.757 446.732 Q98.6221 448.737 98.6221 452.253 Q98.6221 455.768 100.757 457.774 Q102.919 459.779 106.669 459.779 Q110.419 459.779 112.58 457.774 Q114.742 455.742 114.742 452.253 Q114.742 448.737 112.58 446.732 Q110.445 444.727 106.669 444.727 M101.409 442.487 Q98.0231 441.654 96.1221 439.336 Q94.2471 437.019 94.2471 433.685 Q94.2471 429.024 97.5544 426.315 Q100.888 423.607 106.669 423.607 Q112.476 423.607 115.783 426.315 Q119.091 429.024 119.091 433.685 Q119.091 437.019 117.19 439.336 Q115.315 441.654 111.955 442.487 Q115.757 443.373 117.867 445.951 Q120.002 448.529 120.002 452.253 Q120.002 457.904 116.539 460.925 Q113.101 463.946 106.669 463.946 Q100.237 463.946 96.7731 460.925 Q93.3356 457.904 93.3356 452.253 Q93.3356 448.529 95.4711 445.951 Q97.6065 443.373 101.409 442.487 M99.4814 434.18 Q99.4814 437.201 101.356 438.894 Q103.257 440.586 106.669 440.586 Q110.054 440.586 111.955 438.894 Q113.882 437.201 113.882 434.18 Q113.882 431.159 111.955 429.467 Q110.054 427.774 106.669 427.774 Q103.257 427.774 101.356 429.467 Q99.4814 431.159 99.4814 434.18 Z" fill="#bebebe" fill-rule="evenodd" fill-opacity="1" /><path clip-path="url(#clip610)" d="M 0 0 M56.0181 198.445 L64.6118 198.445 L64.6118 168.783 L55.2629 170.658 L55.2629 165.867 L64.5598 163.992 L69.8202 163.992 L69.8202 198.445 L78.4139 198.445 L78.4139 202.872 L56.0181 202.872 L56.0181 198.445 Z" fill="#bebebe" fill-rule="evenodd" fill-opacity="1" /><path clip-path="url(#clip610)" d="M 0 0 M84.1169 196.257 L89.6117 196.257 L89.6117 202.872 L84.1169 202.872 L84.1169 196.257 Z" fill="#bebebe" fill-rule="evenodd" fill-opacity="1" /><path clip-path="url(#clip610)" d="M 0 0 M106.565 167.455 Q102.502 167.455 100.445 171.466 Q98.4137 175.45 98.4137 183.471 Q98.4137 191.466 100.445 195.476 Q102.502 199.46 106.565 199.46 Q110.653 199.46 112.685 195.476 Q114.742 191.466 114.742 183.471 Q114.742 175.45 112.685 171.466 Q110.653 167.455 106.565 167.455 M106.565 163.289 Q113.101 163.289 116.539 168.471 Q120.002 173.627 120.002 183.471 Q120.002 193.289 116.539 198.471 Q113.101 203.627 106.565 203.627 Q100.028 203.627 96.5648 198.471 Q93.1273 193.289 93.1273 183.471 Q93.1273 173.627 96.5648 168.471 Q100.028 163.289 106.565 163.289 Z" fill="#bebebe" fill-rule="evenodd" fill-opacity="1" /><path clip-path="url(#clip610)" d="M 0 0 M948.507 20.1156 L948.507 31.516 Q941.852 28.3332 935.949 26.7707 Q930.046 25.2082 924.549 25.2082 Q915 25.2082 909.792 28.9119 Q904.641 32.6156 904.641 39.4442 Q904.641 45.1734 908.056 48.1247 Q911.528 51.0182 921.134 52.8122 L928.194 54.259 Q941.273 56.7474 947.465 63.0552 Q953.715 69.3052 953.715 79.8375 Q953.715 92.3953 945.266 98.8768 Q936.875 105.358 920.613 105.358 Q914.479 105.358 907.535 103.969 Q900.648 102.58 893.241 99.8606 L893.241 87.8236 Q900.359 91.8166 907.188 93.8421 Q914.016 95.8675 920.613 95.8675 Q930.625 95.8675 936.065 91.9324 Q941.505 87.9972 941.505 80.7056 Q941.505 74.3399 937.569 70.7519 Q933.692 67.164 924.78 65.37 L917.662 63.9811 Q904.583 61.377 898.739 55.8215 Q892.894 50.2659 892.894 40.3702 Q892.894 28.9119 900.938 22.3147 Q909.039 15.7175 923.218 15.7175 Q929.294 15.7175 935.602 16.817 Q941.91 17.9166 948.507 20.1156 Z" fill="#bebebe" fill-rule="evenodd" fill-opacity="1" /><path clip-path="url(#clip610)" d="M 0 0 M1020.32 68.6107 L1020.32 73.819 L971.366 73.819 Q972.06 84.8144 977.963 90.6014 Q983.923 96.3305 994.514 96.3305 Q1000.65 96.3305 1006.38 94.8259 Q1012.16 93.3213 1017.84 90.312 L1017.84 100.381 Q1012.11 102.812 1006.09 104.085 Q1000.07 105.358 993.877 105.358 Q978.368 105.358 969.282 96.3305 Q960.254 87.3028 960.254 71.9093 Q960.254 55.9951 968.819 46.678 Q977.442 37.303 992.025 37.303 Q1005.1 37.303 1012.68 45.7521 Q1020.32 54.1432 1020.32 68.6107 M1009.68 65.4858 Q1009.56 56.7474 1004.76 51.5391 Q1000.01 46.3308 992.141 46.3308 Q983.229 46.3308 977.847 51.3655 Q972.523 56.4002 971.713 65.5436 L1009.68 65.4858 Z" fill="#bebebe" fill-rule="evenodd" fill-opacity="1" /><path clip-path="url(#clip610)" d="M 0 0 M1069.05 48.8192 Q1067.26 47.7775 1065.12 47.3146 Q1063.03 46.7937 1060.49 46.7937 Q1051.46 46.7937 1046.6 52.6965 Q1041.79 58.5414 1041.79 69.5367 L1041.79 103.68 L1031.09 103.68 L1031.09 38.8655 L1041.79 38.8655 L1041.79 48.9349 Q1045.15 43.0322 1050.53 40.1965 Q1055.91 37.303 1063.61 37.303 Q1064.71 37.303 1066.04 37.4767 Q1067.37 37.5924 1068.99 37.8817 L1069.05 48.8192 Z" fill="#bebebe" fill-rule="evenodd" fill-opacity="1" /><path clip-path="url(#clip610)" d="M 0 0 M1080.22 38.8655 L1090.87 38.8655 L1090.87 103.68 L1080.22 103.68 L1080.22 38.8655 M1080.22 13.6342 L1090.87 13.6342 L1090.87 27.1179 L1080.22 27.1179 L1080.22 13.6342 Z" fill="#bebebe" fill-rule="evenodd" fill-opacity="1" /><path clip-path="url(#clip610)" d="M 0 0 M1157.48 68.6107 L1157.48 73.819 L1108.52 73.819 Q1109.21 84.8144 1115.11 90.6014 Q1121.08 96.3305 1131.67 96.3305 Q1137.8 96.3305 1143.53 94.8259 Q1149.32 93.3213 1154.99 90.312 L1154.99 100.381 Q1149.26 102.812 1143.24 104.085 Q1137.22 105.358 1131.03 105.358 Q1115.52 105.358 1106.43 96.3305 Q1097.41 87.3028 1097.41 71.9093 Q1097.41 55.9951 1105.97 46.678 Q1114.59 37.303 1129.18 37.303 Q1142.26 37.303 1149.84 45.7521 Q1157.48 54.1432 1157.48 68.6107 M1146.83 65.4858 Q1146.71 56.7474 1141.91 51.5391 Q1137.16 46.3308 1129.29 46.3308 Q1120.38 46.3308 1115 51.3655 Q1109.67 56.4002 1108.86 65.5436 L1146.83 65.4858 Z" fill="#bebebe" fill-rule="evenodd" fill-opacity="1" /><path clip-path="url(#clip610)" d="M 0 0 M1216.39 17.28 L1216.39 49.3979 L1206.55 49.3979 L1206.55 17.28 L1216.39 17.28 Z" fill="#bebebe" fill-rule="evenodd" fill-opacity="1" /><path clip-path="url(#clip610)" d="M 0 0 M1268.88 40.7752 L1268.88 50.8446 Q1264.36 48.5298 1259.5 47.3724 Q1254.64 46.215 1249.43 46.215 Q1241.5 46.215 1237.51 48.6456 Q1233.57 51.0761 1233.57 55.9372 Q1233.57 59.6409 1236.41 61.7821 Q1239.25 63.8654 1247.81 65.7751 L1251.46 66.5853 Q1262.8 69.0158 1267.54 73.4718 Q1272.35 77.87 1272.35 85.7982 Q1272.35 94.8259 1265.17 100.092 Q1258.05 105.358 1245.55 105.358 Q1240.35 105.358 1234.67 104.317 Q1229.06 103.333 1222.81 101.307 L1222.81 90.312 Q1228.71 93.3791 1234.44 94.9416 Q1240.17 96.4462 1245.79 96.4462 Q1253.31 96.4462 1257.36 93.9 Q1261.41 91.2958 1261.41 86.6083 Q1261.41 82.2681 1258.46 79.9533 Q1255.57 77.6385 1245.67 75.4973 L1241.97 74.6292 Q1232.07 72.5459 1227.67 68.2635 Q1223.27 63.9233 1223.27 56.4002 Q1223.27 47.2567 1229.76 42.2799 Q1236.24 37.303 1248.16 37.303 Q1254.06 37.303 1259.27 38.1711 Q1264.48 39.0391 1268.88 40.7752 Z" fill="#bebebe" fill-rule="evenodd" fill-opacity="1" /><path clip-path="url(#clip610)" d="M 0 0 M1330.16 41.3539 L1330.16 51.3076 Q1325.65 48.8192 1321.07 47.6039 Q1316.56 46.3308 1311.93 46.3308 Q1301.57 46.3308 1295.84 52.928 Q1290.11 59.4673 1290.11 71.3306 Q1290.11 83.194 1295.84 89.7912 Q1301.57 96.3305 1311.93 96.3305 Q1316.56 96.3305 1321.07 95.1152 Q1325.65 93.8421 1330.16 91.3537 L1330.16 101.192 Q1325.7 103.275 1320.9 104.317 Q1316.16 105.358 1310.77 105.358 Q1296.13 105.358 1287.51 96.1569 Q1278.89 86.9556 1278.89 71.3306 Q1278.89 55.4742 1287.57 46.3886 Q1296.31 37.303 1311.47 37.303 Q1316.39 37.303 1321.07 38.3447 Q1325.76 39.3285 1330.16 41.3539 Z" fill="#bebebe" fill-rule="evenodd" fill-opacity="1" /><path clip-path="url(#clip610)" d="M 0 0 M1370.78 71.0992 Q1357.88 71.0992 1352.9 74.0505 Q1347.93 77.0019 1347.93 84.1199 Q1347.93 89.7912 1351.63 93.1476 Q1355.39 96.4462 1361.81 96.4462 Q1370.67 96.4462 1375.99 90.1963 Q1381.37 83.8884 1381.37 73.4718 L1381.37 71.0992 L1370.78 71.0992 M1392.02 66.701 L1392.02 103.68 L1381.37 103.68 L1381.37 93.8421 Q1377.73 99.7448 1372.29 102.58 Q1366.85 105.358 1358.98 105.358 Q1349.03 105.358 1343.12 99.8027 Q1337.28 94.1893 1337.28 84.8144 Q1337.28 73.8769 1344.57 68.3214 Q1351.92 62.7659 1366.44 62.7659 L1381.37 62.7659 L1381.37 61.7242 Q1381.37 54.3747 1376.51 50.3817 Q1371.71 46.3308 1362.97 46.3308 Q1357.42 46.3308 1352.15 47.6618 Q1346.88 48.9928 1342.02 51.6548 L1342.02 41.8169 Q1347.87 39.56 1353.37 38.4604 Q1358.86 37.303 1364.07 37.303 Q1378.13 37.303 1385.08 44.5947 Q1392.02 51.8863 1392.02 66.701 Z" fill="#bebebe" fill-rule="evenodd" fill-opacity="1" /><path clip-path="url(#clip610)" d="M 0 0 M1413.72 20.4629 L1413.72 38.8655 L1435.66 38.8655 L1435.66 47.141 L1413.72 47.141 L1413.72 82.3259 Q1413.72 90.2541 1415.87 92.5111 Q1418.06 94.768 1424.72 94.768 L1435.66 94.768 L1435.66 103.68 L1424.72 103.68 Q1412.39 103.68 1407.71 99.1083 Q1403.02 94.4787 1403.02 82.3259 L1403.02 47.141 L1395.21 47.141 L1395.21 38.8655 L1403.02 38.8655 L1403.02 20.4629 L1413.72 20.4629 Z" fill="#bebebe" fill-rule="evenodd" fill-opacity="1" /><path clip-path="url(#clip610)" d="M 0 0 M1457.36 20.4629 L1457.36 38.8655 L1479.29 38.8655 L1479.29 47.141 L1457.36 47.141 L1457.36 82.3259 Q1457.36 90.2541 1459.5 92.5111 Q1461.7 94.768 1468.35 94.768 L1479.29 94.768 L1479.29 103.68 L1468.35 103.68 Q1456.03 103.68 1451.34 99.1083 Q1446.65 94.4787 1446.65 82.3259 L1446.65 47.141 L1438.84 47.141 L1438.84 38.8655 L1446.65 38.8655 L1446.65 20.4629 L1457.36 20.4629 Z" fill="#bebebe" fill-rule="evenodd" fill-opacity="1" /><path clip-path="url(#clip610)" d="M 0 0 M1545.9 68.6107 L1545.9 73.819 L1496.94 73.819 Q1497.64 84.8144 1503.54 90.6014 Q1509.5 96.3305 1520.09 96.3305 Q1526.22 96.3305 1531.95 94.8259 Q1537.74 93.3213 1543.41 90.312 L1543.41 100.381 Q1537.68 102.812 1531.66 104.085 Q1525.64 105.358 1519.45 105.358 Q1503.94 105.358 1494.86 96.3305 Q1485.83 87.3028 1485.83 71.9093 Q1485.83 55.9951 1494.4 46.678 Q1503.02 37.303 1517.6 37.303 Q1530.68 37.303 1538.26 45.7521 Q1545.9 54.1432 1545.9 68.6107 M1535.25 65.4858 Q1535.14 56.7474 1530.33 51.5391 Q1525.59 46.3308 1517.72 46.3308 Q1508.8 46.3308 1503.42 51.3655 Q1498.1 56.4002 1497.29 65.5436 L1535.25 65.4858 Z" fill="#bebebe" fill-rule="evenodd" fill-opacity="1" /><path clip-path="url(#clip610)" d="M 0 0 M1594.63 48.8192 Q1592.83 47.7775 1590.69 47.3146 Q1588.61 46.7937 1586.06 46.7937 Q1577.03 46.7937 1572.17 52.6965 Q1567.37 58.5414 1567.37 69.5367 L1567.37 103.68 L1556.66 103.68 L1556.66 38.8655 L1567.37 38.8655 L1567.37 48.9349 Q1570.73 43.0322 1576.11 40.1965 Q1581.49 37.303 1589.19 37.303 Q1590.29 37.303 1591.62 37.4767 Q1592.95 37.5924 1594.57 37.8817 L1594.63 48.8192 Z" fill="#bebebe" fill-rule="evenodd" fill-opacity="1" /><path clip-path="url(#clip610)" d="M 0 0 M1615.86 17.28 L1615.86 49.3979 L1606.03 49.3979 L1606.03 17.28 L1615.86 17.28 Z" fill="#bebebe" fill-rule="evenodd" fill-opacity="1" /><path clip-path="url(#clip612)" d="M202.174 589.927 L202.174 621.927 L234.174 621.927 L234.174 589.927 L202.174 589.927 Z" fill="#e69f00" fill-rule="evenodd" fill-opacity="1" stroke="#000000" stroke-opacity="1" stroke-width="3.2"/>
<path clip-path="url(#clip612)" d="M311.249 1191.73 L311.249 1223.73 L343.249 1223.73 L343.249 1191.73 L311.249 1191.73 Z" fill="#e69f00" fill-rule="evenodd" fill-opacity="1" stroke="#000000" stroke-opacity="1" stroke-width="3.2"/>
<path clip-path="url(#clip612)" d="M420.323 793.41 L420.323 825.41 L452.323 825.41 L452.323 793.41 L420.323 793.41 Z" fill="#e69f00" fill-rule="evenodd" fill-opacity="1" stroke="#000000" stroke-opacity="1" stroke-width="3.2"/>
<path clip-path="url(#clip612)" d="M529.397 867.774 L529.397 899.774 L561.397 899.774 L561.397 867.774 L529.397 867.774 Z" fill="#e69f00" fill-rule="evenodd" fill-opacity="1" stroke="#000000" stroke-opacity="1" stroke-width="3.2"/>
<path clip-path="url(#clip612)" d="M638.471 171.111 L638.471 203.111 L670.471 203.111 L670.471 171.111 L638.471 171.111 Z" fill="#e69f00" fill-rule="evenodd" fill-opacity="1" stroke="#000000" stroke-opacity="1" stroke-width="3.2"/>
<path clip-path="url(#clip612)" d="M747.545 1104.66 L747.545 1136.66 L779.545 1136.66 L779.545 1104.66 L747.545 1104.66 Z" fill="#e69f00" fill-rule="evenodd" fill-opacity="1" stroke="#000000" stroke-opacity="1" stroke-width="3.2"/>
<path clip-path="url(#clip612)" d="M856.619 841 L856.619 873 L888.619 873 L888.619 841 L856.619 841 Z" fill="#e69f00" fill-rule="evenodd" fill-opacity="1" stroke="#000000" stroke-opacity="1" stroke-width="3.2"/>
<path clip-path="url(#clip612)" d="M965.694 534.999 L965.694 566.999 L997.694 566.999 L997.694 534.999 L965.694 534.999 Z" fill="#e69f00" fill-rule="evenodd" fill-opacity="1" stroke="#000000" stroke-opacity="1" stroke-width="3.2"/>
<path clip-path="url(#clip612)" d="M1074.77 1240.44 L1074.77 1272.44 L1106.77 1272.44 L1106.77 1240.44 L1074.77 1240.44 Z" fill="#e69f00" fill-rule="evenodd" fill-opacity="1" stroke="#000000" stroke-opacity="1" stroke-width="3.2"/>
<path clip-path="url(#clip612)" d="M1183.84 992.401 L1183.84 1024.4 L1215.84 1024.4 L1215.84 992.401 L1183.84 992.401 Z" fill="#e69f00" fill-rule="evenodd" fill-opacity="1" stroke="#000000" stroke-opacity="1" stroke-width="3.2"/>
<path clip-path="url(#clip612)" d="M1292.92 190.678 L1292.92 222.678 L1324.92 222.678 L1324.92 190.678 L1292.92 190.678 Z" fill="#e69f00" fill-rule="evenodd" fill-opacity="1" stroke="#000000" stroke-opacity="1" stroke-width="3.2"/>
<path clip-path="url(#clip612)" d="M1401.99 1321.22 L1401.99 1353.22 L1433.99 1353.22 L1433.99 1321.22 L1401.99 1321.22 Z" fill="#e69f00" fill-rule="evenodd" fill-opacity="1" stroke="#000000" stroke-opacity="1" stroke-width="3.2"/>
<path clip-path="url(#clip612)" d="M1511.06 1247.63 L1511.06 1279.63 L1543.06 1279.63 L1543.06 1247.63 L1511.06 1247.63 Z" fill="#e69f00" fill-rule="evenodd" fill-opacity="1" stroke="#000000" stroke-opacity="1" stroke-width="3.2"/>
<path clip-path="url(#clip612)" d="M1620.14 271.678 L1620.14 303.678 L1652.14 303.678 L1652.14 271.678 L1620.14 271.678 Z" fill="#e69f00" fill-rule="evenodd" fill-opacity="1" stroke="#000000" stroke-opacity="1" stroke-width="3.2"/>
<path clip-path="url(#clip612)" d="M1729.21 478.745 L1729.21 510.745 L1761.21 510.745 L1761.21 478.745 L1729.21 478.745 Z" fill="#e69f00" fill-rule="evenodd" fill-opacity="1" stroke="#000000" stroke-opacity="1" stroke-width="3.2"/>
<path clip-path="url(#clip612)" d="M1838.29 300.576 L1838.29 332.576 L1870.29 332.576 L1870.29 300.576 L1838.29 300.576 Z" fill="#e69f00" fill-rule="evenodd" fill-opacity="1" stroke="#000000" stroke-opacity="1" stroke-width="3.2"/>
<path clip-path="url(#clip612)" d="M1947.36 495.902 L1947.36 527.902 L1979.36 527.902 L1979.36 495.902 L1947.36 495.902 Z" fill="#e69f00" fill-rule="evenodd" fill-opacity="1" stroke="#000000" stroke-opacity="1" stroke-width="3.2"/>
<path clip-path="url(#clip612)" d="M2056.44 1133.97 L2056.44 1165.97 L2088.44 1165.97 L2088.44 1133.97 L2056.44 1133.97 Z" fill="#e69f00" fill-rule="evenodd" fill-opacity="1" stroke="#000000" stroke-opacity="1" stroke-width="3.2"/>
<path clip-path="url(#clip612)" d="M2165.51 1076.65 L2165.51 1108.65 L2197.51 1108.65 L2197.51 1076.65 L2165.51 1076.65 Z" fill="#e69f00" fill-rule="evenodd" fill-opacity="1" stroke="#000000" stroke-opacity="1" stroke-width="3.2"/>
<path clip-path="url(#clip612)" d="M2274.58 880.495 L2274.58 912.495 L2306.58 912.495 L2306.58 880.495 L2274.58 880.495 Z" fill="#e69f00" fill-rule="evenodd" fill-opacity="1" stroke="#000000" stroke-opacity="1" stroke-width="3.2"/>
<circle clip-path="url(#clip612)" cx="218.174" cy="734.582" r="14" fill="#56b4e9" fill-rule="evenodd" fill-opacity="1" stroke="#000000" stroke-opacity="1" stroke-width="3.2"/>
<circle clip-path="url(#clip612)" cx="327.249" cy="527.879" r="14" fill="#56b4e9" fill-rule="evenodd" fill-opacity="1" stroke="#000000" stroke-opacity="1" stroke-width="3.2"/>
<circle clip-path="url(#clip612)" cx="436.323" cy="932.285" r="14" fill="#56b4e9" fill-rule="evenodd" fill-opacity="1" stroke="#000000" stroke-opacity="1" stroke-width="3.2"/>
<circle clip-path="url(#clip612)" cx="545.397" cy="1352.61" r="14" fill="#56b4e9" fill-rule="evenodd" fill-opacity="1" stroke="#000000" stroke-opacity="1" stroke-width="3.2"/>
<circle clip-path="url(#clip612)" cx="654.471" cy="823.859" r="14" fill="#56b4e9" fill-rule="evenodd" fill-opacity="1" stroke="#000000" stroke-opacity="1" stroke-width="3.2"/>
<circle clip-path="url(#clip612)" cx="763.545" cy="818.362" r="14" fill="#56b4e9" fill-rule="evenodd" fill-opacity="1" stroke="#000000" stroke-opacity="1" stroke-width="3.2"/>
<circle clip-path="url(#clip612)" cx="872.619" cy="657.421" r="14" fill="#56b4e9" fill-rule="evenodd" fill-opacity="1" stroke="#000000" stroke-opacity="1" stroke-width="3.2"/>
<circle clip-path="url(#clip612)" cx="981.694" cy="912.34" r="14" fill="#56b4e9" fill-rule="evenodd" fill-opacity="1" stroke="#000000" stroke-opacity="1" stroke-width="3.2"/>
<circle clip-path="url(#clip612)" cx="1090.77" cy="558.374" r="14" fill="#56b4e9" fill-rule="evenodd" fill-opacity="1" stroke="#000000" stroke-opacity="1" stroke-width="3.2"/>
<circle clip-path="url(#clip612)" cx="1199.84" cy="678.057" r="14" fill="#56b4e9" fill-rule="evenodd" fill-opacity="1" stroke="#000000" stroke-opacity="1" stroke-width="3.2"/>
<circle clip-path="url(#clip612)" cx="1308.92" cy="930.547" r="14" fill="#56b4e9" fill-rule="evenodd" fill-opacity="1" stroke="#000000" stroke-opacity="1" stroke-width="3.2"/>
<circle clip-path="url(#clip612)" cx="1417.99" cy="1257.32" r="14" fill="#56b4e9" fill-rule="evenodd" fill-opacity="1" stroke="#000000" stroke-opacity="1" stroke-width="3.2"/>
<circle clip-path="url(#clip612)" cx="1527.06" cy="1383.99" r="14" fill="#56b4e9" fill-rule="evenodd" fill-opacity="1" stroke="#000000" stroke-opacity="1" stroke-width="3.2"/>
<circle clip-path="url(#clip612)" cx="1636.14" cy="1272.54" r="14" fill="#56b4e9" fill-rule="evenodd" fill-opacity="1" stroke="#000000" stroke-opacity="1" stroke-width="3.2"/>
<circle clip-path="url(#clip612)" cx="1745.21" cy="1373.24" r="14" fill="#56b4e9" fill-rule="evenodd" fill-opacity="1" stroke="#000000" stroke-opacity="1" stroke-width="3.2"/>
<circle clip-path="url(#clip612)" cx="1854.29" cy="543.253" r="14" fill="#56b4e9" fill-rule="evenodd" fill-opacity="1" stroke="#000000" stroke-opacity="1" stroke-width="3.2"/>
<circle clip-path="url(#clip612)" cx="1963.36" cy="707.992" r="14" fill="#56b4e9" fill-rule="evenodd" fill-opacity="1" stroke="#000000" stroke-opacity="1" stroke-width="3.2"/>
<circle clip-path="url(#clip612)" cx="2072.44" cy="1146.29" r="14" fill="#56b4e9" fill-rule="evenodd" fill-opacity="1" stroke="#000000" stroke-opacity="1" stroke-width="3.2"/>
<circle clip-path="url(#clip612)" cx="2181.51" cy="367.655" r="14" fill="#56b4e9" fill-rule="evenodd" fill-opacity="1" stroke="#000000" stroke-opacity="1" stroke-width="3.2"/>
<circle clip-path="url(#clip612)" cx="2290.58" cy="1352.86" r="14" fill="#56b4e9" fill-rule="evenodd" fill-opacity="1" stroke="#000000" stroke-opacity="1" stroke-width="3.2"/>
<path clip-path="url(#clip612)" d="M218.174 411.869 L204.318 403.869 L204.318 387.869 L218.174 379.869 L232.03 387.869 L232.03 403.869 Z" fill="#009e73" fill-rule="evenodd" fill-opacity="1" stroke="#000000" stroke-opacity="1" stroke-width="3.2"/>
<path clip-path="url(#clip612)" d="M327.249 206.667 L313.393 198.667 L313.393 182.667 L327.249 174.667 L341.105 182.667 L341.105 198.667 Z" fill="#009e73" fill-rule="evenodd" fill-opacity="1" stroke="#000000" stroke-opacity="1" stroke-width="3.2"/>
<path clip-path="url(#clip612)" d="M436.323 1299.38 L422.467 1291.38 L422.467 1275.38 L436.323 1267.38 L450.179 1275.38 L450.179 1291.38 Z" fill="#009e73" fill-rule="evenodd" fill-opacity="1" stroke="#000000" stroke-opacity="1" stroke-width="3.2"/>
<path clip-path="url(#clip612)" d="M545.397 1042.91 L531.541 1034.91 L531.541 1018.91 L545.397 1010.91 L559.253 1018.91 L559.253 1034.91 Z" fill="#009e73" fill-rule="evenodd" fill-opacity="1" stroke="#000000" stroke-opacity="1" stroke-width="3.2"/>
<path clip-path="url(#clip612)" d="M654.471 1031.42 L640.615 1023.42 L640.615 1007.42 L654.471 999.419 L668.327 1007.42 L668.327 1023.42 Z" fill="#009e73" fill-rule="evenodd" fill-opacity="1" stroke="#000000" stroke-opacity="1" stroke-width="3.2"/>
<path clip-path="url(#clip612)" d="M763.545 1383.93 L749.689 1375.93 L749.689 1359.93 L763.545 1351.93 L777.401 1359.93 L777.401 1375.93 Z" fill="#009e73" fill-rule="evenodd" fill-opacity="1" stroke="#000000" stroke-opacity="1" stroke-width="3.2"/>
<path clip-path="url(#clip612)" d="M872.619 1275.16 L858.763 1267.16 L858.763 1251.16 L872.619 1243.16 L886.475 1251.16 L886.475 1267.16 Z" fill="#009e73" fill-rule="evenodd" fill-opacity="1" stroke="#000000" stroke-opacity="1" stroke-width="3.2"/>
<path clip-path="url(#clip612)" d="M981.694 1030.33 L967.838 1022.33 L967.838 1006.33 L981.694 998.329 L995.55 1006.33 L995.55 1022.33 Z" fill="#009e73" fill-rule="evenodd" fill-opacity="1" stroke="#000000" stroke-opacity="1" stroke-width="3.2"/>
<path clip-path="url(#clip612)" d="M1090.77 994.233 L1076.91 986.233 L1076.91 970.233 L1090.77 962.233 L1104.62 970.233 L1104.62 986.233 Z" fill="#009e73" fill-rule="evenodd" fill-opacity="1" stroke="#000000" stroke-opacity="1" stroke-width="3.2"/>
<path clip-path="url(#clip612)" d="M1199.84 1172.96 L1185.99 1164.96 L1185.99 1148.96 L1199.84 1140.96 L1213.7 1148.96 L1213.7 1164.96 Z" fill="#009e73" fill-rule="evenodd" fill-opacity="1" stroke="#000000" stroke-opacity="1" stroke-width="3.2"/>
<path clip-path="url(#clip612)" d="M1308.92 396.412 L1295.06 388.412 L1295.06 372.412 L1308.92 364.412 L1322.77 372.412 L1322.77 388.412 Z" fill="#009e73" fill-rule="evenodd" fill-opacity="1" stroke="#000000" stroke-opacity="1" stroke-width="3.2"/>
<path clip-path="url(#clip612)" d="M1417.99 609.845 L1404.13 601.845 L1404.13 585.845 L1417.99 577.845 L1431.85 585.845 L1431.85 601.845 Z" fill="#009e73" fill-rule="evenodd" fill-opacity="1" stroke="#000000" stroke-opacity="1" stroke-width="3.2"/>
<path clip-path="url(#clip612)" d="M1527.06 931.749 L1513.21 923.749 L1513.21 907.749 L1527.06 899.749 L1540.92 907.749 L1540.92 923.749 Z" fill="#009e73" fill-rule="evenodd" fill-opacity="1" stroke="#000000" stroke-opacity="1" stroke-width="3.2"/>
<path clip-path="url(#clip612)" d="M1636.14 1074.57 L1622.28 1066.57 L1622.28 1050.57 L1636.14 1042.57 L1649.99 1050.57 L1649.99 1066.57 Z" fill="#009e73" fill-rule="evenodd" fill-opacity="1" stroke="#000000" stroke-opacity="1" stroke-width="3.2"/>
<path clip-path="url(#clip612)" d="M1745.21 1242.64 L1731.36 1234.64 L1731.36 1218.64 L1745.21 1210.64 L1759.07 1218.64 L1759.07 1234.64 Z" fill="#009e73" fill-rule="evenodd" fill-opacity="1" stroke="#000000" stroke-opacity="1" stroke-width="3.2"/>
<path clip-path="url(#clip612)" d="M1854.29 1460.41 L1840.43 1452.41 L1840.43 1436.41 L1854.29 1428.41 L1868.14 1436.41 L1868.14 1452.41 Z" fill="#009e73" fill-rule="evenodd" fill-opacity="1" stroke="#000000" stroke-opacity="1" stroke-width="3.2"/>
<path clip-path="url(#clip612)" d="M1963.36 736.773 L1949.51 728.773 L1949.51 712.773 L1963.36 704.773 L1977.22 712.773 L1977.22 728.773 Z" fill="#009e73" fill-rule="evenodd" fill-opacity="1" stroke="#000000" stroke-opacity="1" stroke-width="3.2"/>
<path clip-path="url(#clip612)" d="M2072.44 212.264 L2058.58 204.264 L2058.58 188.264 L2072.44 180.264 L2086.29 188.264 L2086.29 204.264 Z" fill="#009e73" fill-rule="evenodd" fill-opacity="1" stroke="#000000" stroke-opacity="1" stroke-width="3.2"/>
<path clip-path="url(#clip612)" d="M2181.51 345.725 L2167.65 337.725 L2167.65 321.725 L2181.51 313.725 L2195.37 321.725 L2195.37 337.725 Z" fill="#009e73" fill-rule="evenodd" fill-opacity="1" stroke="#000000" stroke-opacity="1" stroke-width="3.2"/>
<path clip-path="url(#clip612)" d="M2290.58 316.008 L2276.73 308.008 L2276.73 292.008 L2290.58 284.008 L2304.44 292.008 L2304.44 308.008 Z" fill="#009e73" fill-rule="evenodd" fill-opacity="1" stroke="#000000" stroke-opacity="1" stroke-width="3.2"/>
<path clip-path="url(#clip610)" d="
M1983.85 435.737 L2279.53 435.737 L2279.53 193.817 L1983.85 193.817  Z
  " fill="#ffffff" fill-rule="evenodd" fill-opacity="1"/>
<polyline clip-path="url(#clip610)" style="stroke:#000000; stroke-width:4; stroke-opacity:1; fill:none" points="
  1983.85,435.737 2279.53,435.737 2279.53,193.817 1983.85,193.817 1983.85,435.737 
  "/>
<path clip-path="url(#clip610)" d="M2055.88 228.697 L2055.88 279.897 L2107.08 279.897 L2107.08 228.697 L2055.88 228.697 Z" fill="#e69f00" fill-rule="evenodd" fill-opacity="1" stroke="#000000" stroke-opacity="1" stroke-width="5.12"/>
<path clip-path="url(#clip610)" d="M 0 0 M2192.96 273.984 Q2191.15 278.614 2189.44 280.026 Q2187.73 281.438 2184.86 281.438 L2181.46 281.438 L2181.46 277.873 L2183.96 277.873 Q2185.71 277.873 2186.69 277.04 Q2187.66 276.206 2188.84 273.104 L2189.6 271.16 L2179.12 245.651 L2183.63 245.651 L2191.73 265.929 L2199.83 245.651 L2204.35 245.651 L2192.96 273.984 Z" fill="#bebebe" fill-rule="evenodd" fill-opacity="1" /><path clip-path="url(#clip610)" d="M 0 0 M2210.23 267.641 L2217.87 267.641 L2217.87 241.276 L2209.56 242.943 L2209.56 238.683 L2217.82 237.017 L2222.5 237.017 L2222.5 267.641 L2230.14 267.641 L2230.14 271.577 L2210.23 271.577 L2210.23 267.641 Z" fill="#bebebe" fill-rule="evenodd" fill-opacity="1" /><circle clip-path="url(#clip610)" cx="2081.48" cy="314.777" r="23" fill="#56b4e9" fill-rule="evenodd" fill-opacity="1" stroke="#000000" stroke-opacity="1" stroke-width="5.12"/>
<path clip-path="url(#clip610)" d="M 0 0 M2192.96 334.464 Q2191.15 339.094 2189.44 340.506 Q2187.73 341.918 2184.86 341.918 L2181.46 341.918 L2181.46 338.353 L2183.96 338.353 Q2185.71 338.353 2186.69 337.52 Q2187.66 336.686 2188.84 333.584 L2189.6 331.64 L2179.12 306.131 L2183.63 306.131 L2191.73 326.409 L2199.83 306.131 L2204.35 306.131 L2192.96 334.464 Z" fill="#bebebe" fill-rule="evenodd" fill-opacity="1" /><path clip-path="url(#clip610)" d="M 0 0 M2213.45 328.121 L2229.76 328.121 L2229.76 332.057 L2207.82 332.057 L2207.82 328.121 Q2210.48 325.367 2215.07 320.737 Q2219.67 316.085 2220.85 314.742 Q2223.1 312.219 2223.98 310.483 Q2224.88 308.723 2224.88 307.034 Q2224.88 304.279 2222.94 302.543 Q2221.02 300.807 2217.91 300.807 Q2215.71 300.807 2213.26 301.571 Q2210.83 302.335 2208.05 303.886 L2208.05 299.163 Q2210.88 298.029 2213.33 297.45 Q2215.78 296.872 2217.82 296.872 Q2223.19 296.872 2226.39 299.557 Q2229.58 302.242 2229.58 306.733 Q2229.58 308.862 2228.77 310.784 Q2227.98 312.682 2225.88 315.274 Q2225.3 315.946 2222.2 319.163 Q2219.09 322.358 2213.45 328.121 Z" fill="#bebebe" fill-rule="evenodd" fill-opacity="1" /><path clip-path="url(#clip610)" d="M2081.48 400.857 L2059.31 388.057 L2059.31 362.457 L2081.48 349.657 L2103.65 362.457 L2103.65 388.057 Z" fill="#009e73" fill-rule="evenodd" fill-opacity="1" stroke="#000000" stroke-opacity="1" stroke-width="5.12"/>
<path clip-path="url(#clip610)" d="M 0 0 M2192.96 394.944 Q2191.15 399.574 2189.44 400.986 Q2187.73 402.398 2184.86 402.398 L2181.46 402.398 L2181.46 398.833 L2183.96 398.833 Q2185.71 398.833 2186.69 398 Q2187.66 397.166 2188.84 394.064 L2189.6 392.12 L2179.12 366.611 L2183.63 366.611 L2191.73 386.889 L2199.83 366.611 L2204.35 366.611 L2192.96 394.944 Z" fill="#bebebe" fill-rule="evenodd" fill-opacity="1" /><path clip-path="url(#clip610)" d="M 0 0 M2223.58 373.902 Q2226.94 374.62 2228.82 376.889 Q2230.71 379.157 2230.71 382.49 Q2230.71 387.606 2227.2 390.407 Q2223.68 393.208 2217.2 393.208 Q2215.02 393.208 2212.7 392.768 Q2210.41 392.351 2207.96 391.495 L2207.96 386.981 Q2209.9 388.115 2212.22 388.694 Q2214.53 389.273 2217.06 389.273 Q2221.45 389.273 2223.75 387.537 Q2226.06 385.801 2226.06 382.49 Q2226.06 379.435 2223.91 377.722 Q2221.78 375.986 2217.96 375.986 L2213.93 375.986 L2213.93 372.143 L2218.14 372.143 Q2221.59 372.143 2223.42 370.778 Q2225.25 369.389 2225.25 366.796 Q2225.25 364.134 2223.35 362.722 Q2221.48 361.287 2217.96 361.287 Q2216.04 361.287 2213.84 361.703 Q2211.64 362.12 2209 363 L2209 358.833 Q2211.66 358.092 2213.98 357.722 Q2216.32 357.352 2218.38 357.352 Q2223.7 357.352 2226.8 359.782 Q2229.9 362.19 2229.9 366.31 Q2229.9 369.18 2228.26 371.171 Q2226.62 373.139 2223.58 373.902 Z" fill="#bebebe" fill-rule="evenodd" fill-opacity="1" /></svg>
