<?xml version="1.0" encoding="utf-8"?>
<svg xmlns="http://www.w3.org/2000/svg" xmlns:xlink="http://www.w3.org/1999/xlink" width="600" height="400" viewBox="0 0 2400 1600">
<defs>
  <clipPath id="clip570">
    <rect x="0" y="0" width="2400" height="1600"/>
  </clipPath>
</defs>
<path clip-path="url(#clip570)" d="
M0 1600 L2400 1600 L2400 0 L0 0  Z
  " fill="#ffffff" fill-rule="evenodd" fill-opacity="1"/>
<defs>
  <clipPath id="clip571">
    <rect x="480" y="0" width="1681" height="1600"/>
  </clipPath>
</defs>
<path clip-path="url(#clip570)" d="
M156.002 1482.13 L2352.76 1482.13 L2352.76 149.392 L156.002 149.392  Z
  " fill="#ffffff" fill-rule="evenodd" fill-opacity="1"/>
<defs>
  <clipPath id="clip572">
    <rect x="156" y="149" width="2198" height="1334"/>
  </clipPath>
</defs>
<polyline clip-path="url(#clip572)" style="stroke:#000000; stroke-width:2; stroke-opacity:0.1; fill:none" points="
  654.471,1482.13 654.471,149.392 
  "/>
<polyline clip-path="url(#clip572)" style="stroke:#000000; stroke-width:2; stroke-opacity:0.1; fill:none" points="
  1199.84,1482.13 1199.84,149.392 
  "/>
<polyline clip-path="url(#clip572)" style="stroke:#000000; stroke-width:2; stroke-opacity:0.1; fill:none" points="
  1745.21,1482.13 1745.21,149.392 
  "/>
<polyline clip-path="url(#clip572)" style="stroke:#000000; stroke-width:2; stroke-opacity:0.1; fill:none" points="
  2290.58,1482.13 2290.58,149.392 
  "/>
<polyline clip-path="url(#clip570)" style="stroke:#000000; stroke-width:4; stroke-opacity:1; fill:none" points="
  156.002,1482.13 2352.76,1482.13 
  "/>
<polyline clip-path="url(#clip570)" style="stroke:#000000; stroke-width:4; stroke-opacity:1; fill:none" points="
  654.471,1482.13 654.471,1466.14 
  "/>
<polyline clip-path="url(#clip570)" style="stroke:#000000; stroke-width:4; stroke-opacity:1; fill:none" points="
  1199.84,1482.13 1199.84,1466.14 
  "/>
<polyline clip-path="url(#clip570)" style="stroke:#000000; stroke-width:4; stroke-opacity:1; fill:none" points="
  1745.21,1482.13 1745.21,1466.14 
  "/>
<polyline clip-path="url(#clip570)" style="stroke:#000000; stroke-width:4; stroke-opacity:1; fill:none" points="
  2290.58,1482.13 2290.58,1466.14 
  "/>
<path clip-path="url(#clip570)" d="M 0 0 M643.534 1509.1 L664.185 1509.1 L664.185 1513.53 L648.351 1513.53 L648.351 1523.06 Q649.497 1522.67 650.643 1522.49 Q651.789 1522.28 652.935 1522.28 Q659.445 1522.28 663.247 1525.85 Q667.049 1529.42 667.049 1535.51 Q667.049 1541.79 663.143 1545.28 Q659.237 1548.74 652.127 1548.74 Q649.679 1548.74 647.127 1548.32 Q644.601 1547.91 641.893 1547.07 L641.893 1541.79 Q644.237 1543.06 646.737 1543.69 Q649.237 1544.31 652.023 1544.31 Q656.528 1544.31 659.159 1541.94 Q661.789 1539.57 661.789 1535.51 Q661.789 1531.45 659.159 1529.08 Q656.528 1526.71 652.023 1526.71 Q649.914 1526.71 647.804 1527.18 Q645.721 1527.65 643.534 1528.64 L643.534 1509.1 Z" fill="#bebebe" fill-rule="evenodd" fill-opacity="1" /><path clip-path="url(#clip570)" d="M 0 0 M1173.83 1543.56 L1182.42 1543.56 L1182.42 1513.9 L1173.07 1515.77 L1173.07 1510.98 L1182.37 1509.1 L1187.63 1509.1 L1187.63 1543.56 L1196.22 1543.56 L1196.22 1547.98 L1173.83 1547.98 L1173.83 1543.56 Z" fill="#bebebe" fill-rule="evenodd" fill-opacity="1" /><path clip-path="url(#clip570)" d="M 0 0 M1213.18 1512.57 Q1209.11 1512.57 1207.06 1516.58 Q1205.02 1520.56 1205.02 1528.58 Q1205.02 1536.58 1207.06 1540.59 Q1209.11 1544.57 1213.18 1544.57 Q1217.26 1544.57 1219.29 1540.59 Q1221.35 1536.58 1221.35 1528.58 Q1221.35 1520.56 1219.29 1516.58 Q1217.26 1512.57 1213.18 1512.57 M1213.18 1508.4 Q1219.71 1508.4 1223.15 1513.58 Q1226.61 1518.74 1226.61 1528.58 Q1226.61 1538.4 1223.15 1543.58 Q1219.71 1548.74 1213.18 1548.74 Q1206.64 1548.74 1203.18 1543.58 Q1199.74 1538.4 1199.74 1528.58 Q1199.74 1518.74 1203.18 1513.58 Q1206.64 1508.4 1213.18 1508.4 Z" fill="#bebebe" fill-rule="evenodd" fill-opacity="1" /><path clip-path="url(#clip570)" d="M 0 0 M1719.76 1543.56 L1728.35 1543.56 L1728.35 1513.9 L1719 1515.77 L1719 1510.98 L1728.3 1509.1 L1733.56 1509.1 L1733.56 1543.56 L1742.15 1543.56 L1742.15 1547.98 L1719.76 1547.98 L1719.76 1543.56 Z" fill="#bebebe" fill-rule="evenodd" fill-opacity="1" /><path clip-path="url(#clip570)" d="M 0 0 M1747.91 1509.1 L1768.56 1509.1 L1768.56 1513.53 L1752.73 1513.53 L1752.73 1523.06 Q1753.87 1522.67 1755.02 1522.49 Q1756.16 1522.28 1757.31 1522.28 Q1763.82 1522.28 1767.62 1525.85 Q1771.42 1529.42 1771.42 1535.51 Q1771.42 1541.79 1767.52 1545.28 Q1763.61 1548.74 1756.5 1548.74 Q1754.05 1548.74 1751.5 1548.32 Q1748.98 1547.91 1746.27 1547.07 L1746.27 1541.79 Q1748.61 1543.06 1751.11 1543.69 Q1753.61 1544.31 1756.4 1544.31 Q1760.9 1544.31 1763.53 1541.94 Q1766.16 1539.57 1766.16 1535.51 Q1766.16 1531.45 1763.53 1529.08 Q1760.9 1526.71 1756.4 1526.71 Q1754.29 1526.71 1752.18 1527.18 Q1750.1 1527.65 1747.91 1528.64 L1747.91 1509.1 Z" fill="#bebebe" fill-rule="evenodd" fill-opacity="1" /><path clip-path="url(#clip570)" d="M 0 0 M2269.37 1543.56 L2287.73 1543.56 L2287.73 1547.98 L2263.04 1547.98 L2263.04 1543.56 Q2266.04 1540.46 2271.2 1535.25 Q2276.38 1530.02 2277.71 1528.5 Q2280.23 1525.67 2281.22 1523.71 Q2282.24 1521.73 2282.24 1519.83 Q2282.24 1516.73 2280.05 1514.78 Q2277.89 1512.83 2274.4 1512.83 Q2271.92 1512.83 2269.16 1513.69 Q2266.43 1514.55 2263.31 1516.29 L2263.31 1510.98 Q2266.48 1509.7 2269.24 1509.05 Q2272 1508.4 2274.29 1508.4 Q2280.34 1508.4 2283.93 1511.42 Q2287.52 1514.44 2287.52 1519.49 Q2287.52 1521.89 2286.61 1524.05 Q2285.73 1526.19 2283.36 1529.1 Q2282.71 1529.86 2279.22 1533.48 Q2275.73 1537.07 2269.37 1543.56 Z" fill="#bebebe" fill-rule="evenodd" fill-opacity="1" /><path clip-path="url(#clip570)" d="M 0 0 M2304.69 1512.57 Q2300.62 1512.57 2298.57 1516.58 Q2296.53 1520.56 2296.53 1528.58 Q2296.53 1536.58 2298.57 1540.59 Q2300.62 1544.57 2304.69 1544.57 Q2308.77 1544.57 2310.8 1540.59 Q2312.86 1536.58 2312.86 1528.58 Q2312.86 1520.56 2310.8 1516.58 Q2308.77 1512.57 2304.69 1512.57 M2304.69 1508.4 Q2311.22 1508.4 2314.66 1513.58 Q2318.12 1518.74 2318.12 1528.58 Q2318.12 1538.4 2314.66 1543.58 Q2311.22 1548.74 2304.69 1548.74 Q2298.15 1548.74 2294.69 1543.58 Q2291.25 1538.4 2291.25 1528.58 Q2291.25 1518.74 2294.69 1513.58 Q2298.15 1508.4 2304.69 1508.4 Z" fill="#bebebe" fill-rule="evenodd" fill-opacity="1" /><polyline clip-path="url(#clip572)" style="stroke:#000000; stroke-width:2; stroke-opacity:0.1; fill:none" points="
  156.002,1236.39 2352.76,1236.39 
  "/>
<polyline clip-path="url(#clip572)" style="stroke:#000000; stroke-width:2; stroke-opacity:0.1; fill:none" points="
  156.002,969.722 2352.76,969.722 
  "/>
<polyline clip-path="url(#clip572)" style="stroke:#000000; stroke-width:2; stroke-opacity:0.1; fill:none" points="
  156.002,703.054 2352.76,703.054 
  "/>
<polyline clip-path="url(#clip572)" style="stroke:#000000; stroke-width:2; stroke-opacity:0.1; fill:none" points="
  156.002,436.386 2352.76,436.386 
  "/>
<polyline clip-path="url(#clip572)" style="stroke:#000000; stroke-width:2; stroke-opacity:0.1; fill:none" points="
  156.002,169.718 2352.76,169.718 
  "/>
<polyline clip-path="url(#clip570)" style="stroke:#000000; stroke-width:4; stroke-opacity:1; fill:none" points="
  156.002,1482.13 156.002,149.392 
  "/>
<polyline clip-path="url(#clip570)" style="stroke:#000000; stroke-width:4; stroke-opacity:1; fill:none" points="
  156.002,1236.39 182.363,1236.39 
  "/>
<polyline clip-path="url(#clip570)" style="stroke:#000000; stroke-width:4; stroke-opacity:1; fill:none" points="
  156.002,969.722 182.363,969.722 
  "/>
<polyline clip-path="url(#clip570)" style="stroke:#000000; stroke-width:4; stroke-opacity:1; fill:none" points="
  156.002,703.054 182.363,703.054 
  "/>
<polyline clip-path="url(#clip570)" style="stroke:#000000; stroke-width:4; stroke-opacity:1; fill:none" points="
  156.002,436.386 182.363,436.386 
  "/>
<polyline clip-path="url(#clip570)" style="stroke:#000000; stroke-width:4; stroke-opacity:1; fill:none" points="
  156.002,169.718 182.363,169.718 
  "/>
<path clip-path="url(#clip570)" d="M 0 0 M66.7733 1220.41 Q62.7108 1220.41 60.6535 1224.42 Q58.6223 1228.41 58.6223 1236.43 Q58.6223 1244.42 60.6535 1248.43 Q62.7108 1252.42 66.7733 1252.42 Q70.8618 1252.42 72.8931 1248.43 Q74.9503 1244.42 74.9503 1236.43 Q74.9503 1228.41 72.8931 1224.42 Q70.8618 1220.41 66.7733 1220.41 M66.7733 1216.25 Q73.3097 1216.25 76.7472 1221.43 Q80.2107 1226.58 80.2107 1236.43 Q80.2107 1246.25 76.7472 1251.43 Q73.3097 1256.58 66.7733 1256.58 Q60.2369 1256.58 56.7733 1251.43 Q53.3359 1246.25 53.3359 1236.43 Q53.3359 1226.58 56.7733 1221.43 Q60.2369 1216.25 66.7733 1216.25 Z" fill="#bebebe" fill-rule="evenodd" fill-opacity="1" /><path clip-path="url(#clip570)" d="M 0 0 M85.9138 1249.22 L91.4086 1249.22 L91.4086 1255.83 L85.9138 1255.83 L85.9138 1249.22 Z" fill="#bebebe" fill-rule="evenodd" fill-opacity="1" /><path clip-path="url(#clip570)" d="M 0 0 M101.643 1251.4 L120.002 1251.4 L120.002 1255.83 L95.3148 1255.83 L95.3148 1251.4 Q98.3096 1248.3 103.466 1243.1 Q108.648 1237.86 109.976 1236.35 Q112.502 1233.51 113.492 1231.56 Q114.507 1229.58 114.507 1227.68 Q114.507 1224.58 112.32 1222.63 Q110.158 1220.67 106.669 1220.67 Q104.195 1220.67 101.435 1221.53 Q98.7002 1222.39 95.5752 1224.14 L95.5752 1218.82 Q98.7523 1217.55 101.513 1216.9 Q104.273 1216.25 106.565 1216.25 Q112.606 1216.25 116.2 1219.27 Q119.794 1222.29 119.794 1227.34 Q119.794 1229.74 118.882 1231.9 Q117.997 1234.03 115.627 1236.95 Q114.976 1237.7 111.487 1241.32 Q107.997 1244.92 101.643 1251.4 Z" fill="#bebebe" fill-rule="evenodd" fill-opacity="1" /><path clip-path="url(#clip570)" d="M 0 0 M64.4296 953.745 Q60.3671 953.745 58.3098 957.756 Q56.2786 961.74 56.2786 969.761 Q56.2786 977.756 58.3098 981.766 Q60.3671 985.75 64.4296 985.75 Q68.5181 985.75 70.5493 981.766 Q72.6066 977.756 72.6066 969.761 Q72.6066 961.74 70.5493 957.756 Q68.5181 953.745 64.4296 953.745 M64.4296 949.579 Q70.966 949.579 74.4035 954.761 Q77.867 959.917 77.867 969.761 Q77.867 979.579 74.4035 984.761 Q70.966 989.917 64.4296 989.917 Q57.8931 989.917 54.4296 984.761 Q50.9921 979.579 50.9921 969.761 Q50.9921 959.917 54.4296 954.761 Q57.8931 949.579 64.4296 949.579 Z" fill="#bebebe" fill-rule="evenodd" fill-opacity="1" /><path clip-path="url(#clip570)" d="M 0 0 M83.5701 982.547 L89.0648 982.547 L89.0648 989.162 L83.5701 989.162 L83.5701 982.547 Z" fill="#bebebe" fill-rule="evenodd" fill-opacity="1" /><path clip-path="url(#clip570)" d="M 0 0 M109.221 954.865 L95.9398 975.62 L109.221 975.62 L109.221 954.865 M107.841 950.282 L114.455 950.282 L114.455 975.62 L120.002 975.62 L120.002 979.995 L114.455 979.995 L114.455 989.162 L109.221 989.162 L109.221 979.995 L91.669 979.995 L91.669 974.917 L107.841 950.282 Z" fill="#bebebe" fill-rule="evenodd" fill-opacity="1" /><path clip-path="url(#clip570)" d="M 0 0 M64.7941 687.078 Q60.7317 687.078 58.6744 691.088 Q56.6431 695.072 56.6431 703.093 Q56.6431 711.088 58.6744 715.098 Q60.7317 719.083 64.7941 719.083 Q68.8827 719.083 70.9139 715.098 Q72.9712 711.088 72.9712 703.093 Q72.9712 695.072 70.9139 691.088 Q68.8827 687.078 64.7941 687.078 M64.7941 682.911 Q71.3306 682.911 74.768 688.093 Q78.2316 693.249 78.2316 703.093 Q78.2316 712.911 74.768 718.093 Q71.3306 723.249 64.7941 723.249 Q58.2577 723.249 54.7942 718.093 Q51.3567 712.911 51.3567 703.093 Q51.3567 693.249 54.7942 688.093 Q58.2577 682.911 64.7941 682.911 Z" fill="#bebebe" fill-rule="evenodd" fill-opacity="1" /><path clip-path="url(#clip570)" d="M 0 0 M83.9347 715.879 L89.4294 715.879 L89.4294 722.494 L83.9347 722.494 L83.9347 715.879 Z" fill="#bebebe" fill-rule="evenodd" fill-opacity="1" /><path clip-path="url(#clip570)" d="M 0 0 M107.033 700.958 Q103.492 700.958 101.409 703.38 Q99.3512 705.801 99.3512 710.02 Q99.3512 714.213 101.409 716.661 Q103.492 719.083 107.033 719.083 Q110.575 719.083 112.632 716.661 Q114.716 714.213 114.716 710.02 Q114.716 705.801 112.632 703.38 Q110.575 700.958 107.033 700.958 M117.476 684.473 L117.476 689.265 Q115.497 688.328 113.466 687.833 Q111.461 687.338 109.481 687.338 Q104.273 687.338 101.513 690.854 Q98.7783 694.369 98.3877 701.478 Q99.9242 699.213 102.242 698.015 Q104.56 696.791 107.346 696.791 Q113.205 696.791 116.591 700.359 Q120.002 703.9 120.002 710.02 Q120.002 716.01 116.461 719.629 Q112.919 723.249 107.033 723.249 Q100.289 723.249 96.721 718.093 Q93.1534 712.911 93.1534 703.093 Q93.1534 693.874 97.5283 688.406 Q101.903 682.911 109.273 682.911 Q111.252 682.911 113.257 683.301 Q115.289 683.692 117.476 684.473 Z" fill="#bebebe" fill-rule="evenodd" fill-opacity="1" /><path clip-path="url(#clip570)" d="M 0 0 M65.0806 420.41 Q61.0181 420.41 58.9608 424.42 Q56.9296 428.404 56.9296 436.425 Q56.9296 444.42 58.9608 448.43 Q61.0181 452.415 65.0806 452.415 Q69.1691 452.415 71.2004 448.43 Q73.2576 444.42 73.2576 436.425 Q73.2576 428.404 71.2004 424.42 Q69.1691 420.41 65.0806 420.41 M65.0806 416.243 Q71.617 416.243 75.0545 421.425 Q78.518 426.582 78.518 436.425 Q78.518 446.243 75.0545 451.425 Q71.617 456.581 65.0806 456.581 Q58.5442 456.581 55.0806 451.425 Q51.6432 446.243 51.6432 436.425 Q51.6432 426.582 55.0806 421.425 Q58.5442 416.243 65.0806 416.243 Z" fill="#bebebe" fill-rule="evenodd" fill-opacity="1" /><path clip-path="url(#clip570)" d="M 0 0 M84.2211 449.212 L89.7159 449.212 L89.7159 455.826 L84.2211 455.826 L84.2211 449.212 Z" fill="#bebebe" fill-rule="evenodd" fill-opacity="1" /><path clip-path="url(#clip570)" d="M 0 0 M106.669 437.363 Q102.919 437.363 100.757 439.368 Q98.6221 441.373 98.6221 444.889 Q98.6221 448.404 100.757 450.41 Q102.919 452.415 106.669 452.415 Q110.419 452.415 112.58 450.41 Q114.742 448.378 114.742 444.889 Q114.742 441.373 112.58 439.368 Q110.445 437.363 106.669 437.363 M101.409 435.123 Q98.0231 434.29 96.1221 431.972 Q94.2471 429.654 94.2471 426.321 Q94.2471 421.66 97.5544 418.951 Q100.888 416.243 106.669 416.243 Q112.476 416.243 115.783 418.951 Q119.091 421.66 119.091 426.321 Q119.091 429.654 117.19 431.972 Q115.315 434.29 111.955 435.123 Q115.757 436.009 117.867 438.587 Q120.002 441.165 120.002 444.889 Q120.002 450.54 116.539 453.561 Q113.101 456.581 106.669 456.581 Q100.237 456.581 96.7731 453.561 Q93.3356 450.54 93.3356 444.889 Q93.3356 441.165 95.4711 438.587 Q97.6065 436.009 101.409 435.123 M99.4814 426.816 Q99.4814 429.837 101.356 431.529 Q103.257 433.222 106.669 433.222 Q110.054 433.222 111.955 431.529 Q113.882 429.837 113.882 426.816 Q113.882 423.795 111.955 422.102 Q110.054 420.41 106.669 420.41 Q103.257 420.41 101.356 422.102 Q99.4814 423.795 99.4814 426.816 Z" fill="#bebebe" fill-rule="evenodd" fill-opacity="1" /><path clip-path="url(#clip570)" d="M 0 0 M56.0181 184.731 L64.6118 184.731 L64.6118 155.07 L55.2629 156.945 L55.2629 152.153 L64.5598 150.278 L69.8202 150.278 L69.8202 184.731 L78.4139 184.731 L78.4139 189.158 L56.0181 189.158 L56.0181 184.731 Z" fill="#bebebe" fill-rule="evenodd" fill-opacity="1" /><path clip-path="url(#clip570)" d="M 0 0 M84.1169 182.544 L89.6117 182.544 L89.6117 189.158 L84.1169 189.158 L84.1169 182.544 Z" fill="#bebebe" fill-rule="evenodd" fill-opacity="1" /><path clip-path="url(#clip570)" d="M 0 0 M106.565 153.742 Q102.502 153.742 100.445 157.752 Q98.4137 161.737 98.4137 169.757 Q98.4137 177.752 100.445 181.763 Q102.502 185.747 106.565 185.747 Q110.653 185.747 112.685 181.763 Q114.742 177.752 114.742 169.757 Q114.742 161.737 112.685 157.752 Q110.653 153.742 106.565 153.742 M106.565 149.575 Q113.101 149.575 116.539 154.758 Q120.002 159.914 120.002 169.757 Q120.002 179.575 116.539 184.757 Q113.101 189.914 106.565 189.914 Q100.028 189.914 96.5648 184.757 Q93.1273 179.575 93.1273 169.757 Q93.1273 159.914 96.5648 154.758 Q100.028 149.575 106.565 149.575 Z" fill="#bebebe" fill-rule="evenodd" fill-opacity="1" /><path clip-path="url(#clip570)" d="M 0 0 M948.507 20.1156 L948.507 31.516 Q941.852 28.3332 935.949 26.7707 Q930.046 25.2082 924.549 25.2082 Q915 25.2082 909.792 28.9119 Q904.641 32.6156 904.641 39.4442 Q904.641 45.1734 908.056 48.1247 Q911.528 51.0182 921.134 52.8122 L928.194 54.259 Q941.273 56.7474 947.465 63.0552 Q953.715 69.3052 953.715 79.8375 Q953.715 92.3953 945.266 98.8768 Q936.875 105.358 920.613 105.358 Q914.479 105.358 907.535 103.969 Q900.648 102.58 893.241 99.8606 L893.241 87.8236 Q900.359 91.8166 907.188 93.8421 Q914.016 95.8675 920.613 95.8675 Q930.625 95.8675 936.065 91.9324 Q941.505 87.9972 941.505 80.7056 Q941.505 74.3399 937.569 70.7519 Q933.692 67.164 924.78 65.37 L917.662 63.9811 Q904.583 61.377 898.739 55.8215 Q892.894 50.2659 892.894 40.3702 Q892.894 28.9119 900.938 22.3147 Q909.039 15.7175 923.218 15.7175 Q929.294 15.7175 935.602 16.817 Q941.91 17.9166 948.507 20.1156 Z" fill="#bebebe" fill-rule="evenodd" fill-opacity="1" /><path clip-path="url(#clip570)" d="M 0 0 M1020.32 68.6107 L1020.32 73.819 L971.366 73.819 Q972.06 84.8144 977.963 90.6014 Q983.923 96.3305 994.514 96.3305 Q1000.65 96.3305 1006.38 94.8259 Q1012.16 93.3213 1017.84 90.312 L1017.84 100.381 Q1012.11 102.812 1006.09 104.085 Q1000.07 105.358 993.877 105.358 Q978.368 105.358 969.282 96.3305 Q960.254 87.3028 960.254 71.9093 Q960.254 55.9951 968.819 46.678 Q977.442 37.303 992.025 37.303 Q1005.1 37.303 1012.68 45.7521 Q1020.32 54.1432 1020.32 68.6107 M1009.68 65.4858 Q1009.56 56.7474 1004.76 51.5391 Q1000.01 46.3308 992.141 46.3308 Q983.229 46.3308 977.847 51.3655 Q972.523 56.4002 971.713 65.5436 L1009.68 65.4858 Z" fill="#bebebe" fill-rule="evenodd" fill-opacity="1" /><path clip-path="url(#clip570)" d="M 0 0 M1069.05 48.8192 Q1067.26 47.7775 1065.12 47.3146 Q1063.03 46.7937 1060.49 46.7937 Q1051.46 46.7937 1046.6 52.6965 Q1041.79 58.5414 1041.79 69.5367 L1041.79 103.68 L1031.09 103.68 L1031.09 38.8655 L1041.79 38.8655 L1041.79 48.9349 Q1045.15 43.0322 1050.53 40.1965 Q1055.91 37.303 1063.61 37.303 Q1064.71 37.303 1066.04 37.4767 Q1067.37 37.5924 1068.99 37.8817 L1069.05 48.8192 Z" fill="#bebebe" fill-rule="evenodd" fill-opacity="1" /><path clip-path="url(#clip570)" d="M 0 0 M1080.22 38.8655 L1090.87 38.8655 L1090.87 103.68 L1080.22 103.68 L1080.22 38.8655 M1080.22 13.6342 L1090.87 13.6342 L1090.87 27.1179 L1080.22 27.1179 L1080.22 13.6342 Z" fill="#bebebe" fill-rule="evenodd" fill-opacity="1" /><path clip-path="url(#clip570)" d="M 0 0 M1157.48 68.6107 L1157.48 73.819 L1108.52 73.819 Q1109.21 84.8144 1115.11 90.6014 Q1121.08 96.3305 1131.67 96.3305 Q1137.8 96.3305 1143.53 94.8259 Q1149.32 93.3213 1154.99 90.312 L1154.99 100.381 Q1149.26 102.812 1143.24 104.085 Q1137.22 105.358 1131.03 105.358 Q1115.52 105.358 1106.43 96.3305 Q1097.41 87.3028 1097.41 71.9093 Q1097.41 55.9951 1105.97 46.678 Q1114.59 37.303 1129.18 37.303 Q1142.26 37.303 1149.84 45.7521 Q1157.48 54.1432 1157.48 68.6107 M1146.83 65.4858 Q1146.71 56.7474 1141.91 51.5391 Q1137.16 46.3308 1129.29 46.3308 Q1120.38 46.3308 1115 51.3655 Q1109.67 56.4002 1108.86 65.5436 L1146.83 65.4858 Z" fill="#bebebe" fill-rule="evenodd" fill-opacity="1" /><path clip-path="url(#clip570)" d="M 0 0 M1216.39 17.28 L1216.39 49.3979 L1206.55 49.3979 L1206.55 17.28 L1216.39 17.28 Z" fill="#bebebe" fill-rule="evenodd" fill-opacity="1" /><path clip-path="url(#clip570)" d="M 0 0 M1268.88 40.7752 L1268.88 50.8446 Q1264.36 48.5298 1259.5 47.3724 Q1254.64 46.215 1249.43 46.215 Q1241.5 46.215 1237.51 48.6456 Q1233.57 51.0761 1233.57 55.9372 Q1233.57 59.6409 1236.41 61.7821 Q1239.25 63.8654 1247.81 65.7751 L1251.46 66.5853 Q1262.8 69.0158 1267.54 73.4718 Q1272.35 77.87 1272.35 85.7982 Q1272.35 94.8259 1265.17 100.092 Q1258.05 105.358 1245.55 105.358 Q1240.35 105.358 1234.67 104.317 Q1229.06 103.333 1222.81 101.307 L1222.81 90.312 Q1228.71 93.3791 1234.44 94.9416 Q1240.17 96.4462 1245.79 96.4462 Q1253.31 96.4462 1257.36 93.9 Q1261.41 91.2958 1261.41 86.6083 Q1261.41 82.2681 1258.46 79.9533 Q1255.57 77.6385 1245.67 75.4973 L1241.97 74.6292 Q1232.07 72.5459 1227.67 68.2635 Q1223.27 63.9233 1223.27 56.4002 Q1223.27 47.2567 1229.76 42.2799 Q1236.24 37.303 1248.16 37.303 Q1254.06 37.303 1259.27 38.1711 Q1264.48 39.0391 1268.88 40.7752 Z" fill="#bebebe" fill-rule="evenodd" fill-opacity="1" /><path clip-path="url(#clip570)" d="M 0 0 M1330.16 41.3539 L1330.16 51.3076 Q1325.65 48.8192 1321.07 47.6039 Q1316.56 46.3308 1311.93 46.3308 Q1301.57 46.3308 1295.84 52.928 Q1290.11 59.4673 1290.11 71.3306 Q1290.11 83.194 1295.84 89.7912 Q1301.57 96.3305 1311.93 96.3305 Q1316.56 96.3305 1321.07 95.1152 Q1325.65 93.8421 1330.16 91.3537 L1330.16 101.192 Q1325.7 103.275 1320.9 104.317 Q1316.16 105.358 1310.77 105.358 Q1296.13 105.358 1287.51 96.1569 Q1278.89 86.9556 1278.89 71.3306 Q1278.89 55.4742 1287.57 46.3886 Q1296.31 37.303 1311.47 37.303 Q1316.39 37.303 1321.07 38.3447 Q1325.76 39.3285 1330.16 41.3539 Z" fill="#bebebe" fill-rule="evenodd" fill-opacity="1" /><path clip-path="url(#clip570)" d="M 0 0 M1370.78 71.0992 Q1357.88 71.0992 1352.9 74.0505 Q1347.93 77.0019 1347.93 84.1199 Q1347.93 89.7912 1351.63 93.1476 Q1355.39 96.4462 1361.81 96.4462 Q1370.67 96.4462 1375.99 90.1963 Q1381.37 83.8884 1381.37 73.4718 L1381.37 71.0992 L1370.78 71.0992 M1392.02 66.701 L1392.02 103.68 L1381.37 103.68 L1381.37 93.8421 Q1377.73 99.7448 1372.29 102.58 Q1366.85 105.358 1358.98 105.358 Q1349.03 105.358 1343.12 99.8027 Q1337.28 94.1893 1337.28 84.8144 Q1337.28 73.8769 1344.57 68.3214 Q1351.92 62.7659 1366.44 62.7659 L1381.37 62.7659 L1381.37 61.7242 Q1381.37 54.3747 1376.51 50.3817 Q1371.71 46.3308 1362.97 46.3308 Q1357.42 46.3308 1352.15 47.6618 Q1346.88 48.9928 1342.02 51.6548 L1342.02 41.8169 Q1347.87 39.56 1353.37 38.4604 Q1358.86 37.303 1364.07 37.303 Q1378.13 37.303 1385.08 44.5947 Q1392.02 51.8863 1392.02 66.701 Z" fill="#bebebe" fill-rule="evenodd" fill-opacity="1" /><path clip-path="url(#clip570)" d="M 0 0 M1413.72 20.4629 L1413.72 38.8655 L1435.66 38.8655 L1435.66 47.141 L1413.72 47.141 L1413.72 82.3259 Q1413.72 90.2541 1415.87 92.5111 Q1418.06 94.768 1424.72 94.768 L1435.66 94.768 L1435.66 103.68 L1424.72 103.68 Q1412.39 103.68 1407.71 99.1083 Q1403.02 94.4787 1403.02 82.3259 L1403.02 47.141 L1395.21 47.141 L1395.21 38.8655 L1403.02 38.8655 L1403.02 20.4629 L1413.72 20.4629 Z" fill="#bebebe" fill-rule="evenodd" fill-opacity="1" /><path clip-path="url(#clip570)" d="M 0 0 M1457.36 20.4629 L1457.36 38.8655 L1479.29 38.8655 L1479.29 47.141 L1457.36 47.141 L1457.36 82.3259 Q1457.36 90.2541 1459.5 92.5111 Q1461.7 94.768 1468.35 94.768 L1479.29 94.768 L1479.29 103.68 L1468.35 103.68 Q1456.03 103.68 1451.34 99.1083 Q1446.65 94.4787 1446.65 82.3259 L1446.65 47.141 L1438.84 47.141 L1438.84 38.8655 L1446.65 38.8655 L1446.65 20.4629 L1457.36 20.4629 Z" fill="#bebebe" fill-rule="evenodd" fill-opacity="1" /><path clip-path="url(#clip570)" d="M 0 0 M1545.9 68.6107 L1545.9 73.819 L1496.94 73.819 Q1497.64 84.8144 1503.54 90.6014 Q1509.5 96.3305 1520.09 96.3305 Q1526.22 96.3305 1531.95 94.8259 Q1537.74 93.3213 1543.41 90.312 L1543.41 100.381 Q1537.68 102.812 1531.66 104.085 Q1525.64 105.358 1519.45 105.358 Q1503.94 105.358 1494.86 96.3305 Q1485.83 87.3028 1485.83 71.9093 Q1485.83 55.9951 1494.4 46.678 Q1503.02 37.303 1517.6 37.303 Q1530.68 37.303 1538.26 45.7521 Q1545.9 54.1432 1545.9 68.6107 M1535.25 65.4858 Q1535.14 56.7474 1530.33 51.5391 Q1525.59 46.3308 1517.72 46.3308 Q1508.8 46.3308 1503.42 51.3655 Q1498.1 56.4002 1497.29 65.5436 L1535.25 65.4858 Z" fill="#bebebe" fill-rule="evenodd" fill-opacity="1" /><path clip-path="url(#clip570)" d="M 0 0 M1594.63 48.8192 Q1592.83 47.7775 1590.69 47.3146 Q1588.61 46.7937 1586.06 46.7937 Q1577.03 46.7937 1572.17 52.6965 Q1567.37 58.5414 1567.37 69.5367 L1567.37 103.68 L1556.66 103.68 L1556.66 38.8655 L1567.37 38.8655 L1567.37 48.9349 Q1570.73 43.0322 1576.11 40.1965 Q1581.49 37.303 1589.19 37.303 Q1590.29 37.303 1591.62 37.4767 Q1592.95 37.5924 1594.57 37.8817 L1594.63 48.8192 Z" fill="#bebebe" fill-rule="evenodd" fill-opacity="1" /><path clip-path="url(#clip570)" d="M 0 0 M1615.86 17.28 L1615.86 49.3979 L1606.03 49.3979 L1606.03 17.28 L1615.86 17.28 Z" fill="#bebebe" fill-rule="evenodd" fill-opacity="1" /><path clip-path="url(#clip572)" d="M218.174 221.489 L215.354 229.601 L206.762 229.781 L213.614 234.977 L211.118 243.197 L218.174 238.289 L225.23 243.197 L222.734 234.977 L229.586 229.781 L220.994 229.601 L218.174 221.489 Z" fill="#ffa500" fill-rule="evenodd" fill-opacity="0.5" stroke="#ff0000" stroke-opacity="0.5" stroke-width="3.2"/>
<path clip-path="url(#clip572)" d="M327.249 568.127 L324.429 576.239 L315.837 576.419 L322.689 581.615 L320.193 589.835 L327.249 584.927 L334.305 589.835 L331.809 581.615 L338.661 576.419 L330.069 576.239 L327.249 568.127 Z" fill="#ffa500" fill-rule="evenodd" fill-opacity="0.5" stroke="#ff0000" stroke-opacity="0.5" stroke-width="3.2"/>
<path clip-path="url(#clip572)" d="M436.323 1307.74 L433.503 1315.86 L424.911 1316.04 L431.763 1321.23 L429.267 1329.45 L436.323 1324.54 L443.379 1329.45 L440.883 1321.23 L447.735 1316.04 L439.143 1315.86 L436.323 1307.74 Z" fill="#ffa500" fill-rule="evenodd" fill-opacity="0.5" stroke="#ff0000" stroke-opacity="0.5" stroke-width="3.2"/>
<path clip-path="url(#clip572)" d="M545.397 1244.14 L542.577 1252.25 L533.985 1252.43 L540.837 1257.62 L538.341 1265.84 L545.397 1260.94 L552.453 1265.84 L549.957 1257.62 L556.809 1252.43 L548.217 1252.25 L545.397 1244.14 Z" fill="#ffa500" fill-rule="evenodd" fill-opacity="0.5" stroke="#ff0000" stroke-opacity="0.5" stroke-width="3.2"/>
<path clip-path="url(#clip572)" d="M654.471 715.275 L651.651 723.387 L643.059 723.567 L649.911 728.763 L647.415 736.983 L654.471 732.075 L661.527 736.983 L659.031 728.763 L665.883 723.567 L657.291 723.387 L654.471 715.275 Z" fill="#ffa500" fill-rule="evenodd" fill-opacity="0.5" stroke="#ff0000" stroke-opacity="0.5" stroke-width="3.2"/>
<path clip-path="url(#clip572)" d="M763.545 815.072 L760.725 823.184 L752.133 823.364 L758.985 828.56 L756.489 836.78 L763.545 831.872 L770.601 836.78 L768.105 828.56 L774.957 823.364 L766.365 823.184 L763.545 815.072 Z" fill="#ffa500" fill-rule="evenodd" fill-opacity="0.5" stroke="#ff0000" stroke-opacity="0.5" stroke-width="3.2"/>
<path clip-path="url(#clip572)" d="M872.619 282.559 L869.799 290.671 L861.207 290.851 L868.059 296.047 L865.563 304.267 L872.619 299.359 L879.675 304.267 L877.179 296.047 L884.031 290.851 L875.439 290.671 L872.619 282.559 Z" fill="#ffa500" fill-rule="evenodd" fill-opacity="0.5" stroke="#ff0000" stroke-opacity="0.5" stroke-width="3.2"/>
<path clip-path="url(#clip572)" d="M981.694 346.618 L978.874 354.73 L970.282 354.91 L977.134 360.106 L974.638 368.326 L981.694 363.418 L988.75 368.326 L986.254 360.106 L993.106 354.91 L984.514 354.73 L981.694 346.618 Z" fill="#ffa500" fill-rule="evenodd" fill-opacity="0.5" stroke="#ff0000" stroke-opacity="0.5" stroke-width="3.2"/>
<path clip-path="url(#clip572)" d="M1090.77 1186.94 L1087.95 1195.05 L1079.36 1195.23 L1086.21 1200.43 L1083.71 1208.65 L1090.77 1203.74 L1097.82 1208.65 L1095.33 1200.43 L1102.18 1195.23 L1093.59 1195.05 L1090.77 1186.94 Z" fill="#ffa500" fill-rule="evenodd" fill-opacity="0.5" stroke="#ff0000" stroke-opacity="0.5" stroke-width="3.2"/>
<path clip-path="url(#clip572)" d="M1199.84 1206.68 L1197.02 1214.79 L1188.43 1214.97 L1195.28 1220.17 L1192.79 1228.39 L1199.84 1223.48 L1206.9 1228.39 L1204.4 1220.17 L1211.25 1214.97 L1202.66 1214.79 L1199.84 1206.68 Z" fill="#ffa500" fill-rule="evenodd" fill-opacity="0.5" stroke="#ff0000" stroke-opacity="0.5" stroke-width="3.2"/>
<path clip-path="url(#clip572)" d="M1308.92 399.815 L1306.1 407.927 L1297.5 408.107 L1304.36 413.303 L1301.86 421.523 L1308.92 416.615 L1315.97 421.523 L1313.48 413.303 L1320.33 408.107 L1311.74 407.927 L1308.92 399.815 Z" fill="#ffa500" fill-rule="evenodd" fill-opacity="0.5" stroke="#ff0000" stroke-opacity="0.5" stroke-width="3.2"/>
<path clip-path="url(#clip572)" d="M1417.99 660.008 L1415.17 668.12 L1406.58 668.3 L1413.43 673.496 L1410.93 681.716 L1417.99 676.808 L1425.05 681.716 L1422.55 673.496 L1429.4 668.3 L1420.81 668.12 L1417.99 660.008 Z" fill="#ffa500" fill-rule="evenodd" fill-opacity="0.5" stroke="#ff0000" stroke-opacity="0.5" stroke-width="3.2"/>
<path clip-path="url(#clip572)" d="M1527.06 711.507 L1524.24 719.619 L1515.65 719.799 L1522.5 724.995 L1520.01 733.215 L1527.06 728.307 L1534.12 733.215 L1531.62 724.995 L1538.48 719.799 L1529.88 719.619 L1527.06 711.507 Z" fill="#ffa500" fill-rule="evenodd" fill-opacity="0.5" stroke="#ff0000" stroke-opacity="0.5" stroke-width="3.2"/>
<path clip-path="url(#clip572)" d="M1636.14 1392.93 L1633.32 1401.04 L1624.73 1401.22 L1631.58 1406.41 L1629.08 1414.63 L1636.14 1409.73 L1643.19 1414.63 L1640.7 1406.41 L1647.55 1401.22 L1638.96 1401.04 L1636.14 1392.93 Z" fill="#ffa500" fill-rule="evenodd" fill-opacity="0.5" stroke="#ff0000" stroke-opacity="0.5" stroke-width="3.2"/>
<path clip-path="url(#clip572)" d="M1745.21 726.952 L1742.39 735.064 L1733.8 735.244 L1740.65 740.44 L1738.16 748.66 L1745.21 743.752 L1752.27 748.66 L1749.77 740.44 L1756.62 735.244 L1748.03 735.064 L1745.21 726.952 Z" fill="#ffa500" fill-rule="evenodd" fill-opacity="0.5" stroke="#ff0000" stroke-opacity="0.5" stroke-width="3.2"/>
<path clip-path="url(#clip572)" d="M1854.29 1256.22 L1851.47 1264.33 L1842.87 1264.51 L1849.73 1269.71 L1847.23 1277.93 L1854.29 1273.02 L1861.34 1277.93 L1858.85 1269.71 L1865.7 1264.51 L1857.11 1264.33 L1854.29 1256.22 Z" fill="#ffa500" fill-rule="evenodd" fill-opacity="0.5" stroke="#ff0000" stroke-opacity="0.5" stroke-width="3.2"/>
<path clip-path="url(#clip572)" d="M1963.36 316.832 L1960.54 324.944 L1951.95 325.124 L1958.8 330.32 L1956.31 338.54 L1963.36 333.632 L1970.42 338.54 L1967.92 330.32 L1974.77 325.124 L1966.18 324.944 L1963.36 316.832 Z" fill="#ffa500" fill-rule="evenodd" fill-opacity="0.5" stroke="#ff0000" stroke-opacity="0.5" stroke-width="3.2"/>
<path clip-path="url(#clip572)" d="M2072.44 363.741 L2069.62 371.853 L2061.02 372.033 L2067.88 377.229 L2065.38 385.449 L2072.44 380.541 L2079.49 385.449 L2077 377.229 L2083.85 372.033 L2075.26 371.853 L2072.44 363.741 Z" fill="#ffa500" fill-rule="evenodd" fill-opacity="0.5" stroke="#ff0000" stroke-opacity="0.5" stroke-width="3.2"/>
<path clip-path="url(#clip572)" d="M2181.51 1056.95 L2178.69 1065.06 L2170.1 1065.24 L2176.95 1070.44 L2174.45 1078.66 L2181.51 1073.75 L2188.57 1078.66 L2186.07 1070.44 L2192.92 1065.24 L2184.33 1065.06 L2181.51 1056.95 Z" fill="#ffa500" fill-rule="evenodd" fill-opacity="0.5" stroke="#ff0000" stroke-opacity="0.5" stroke-width="3.2"/>
<path clip-path="url(#clip572)" d="M2290.58 777.714 L2287.76 785.826 L2279.17 786.006 L2286.02 791.202 L2283.53 799.422 L2290.58 794.514 L2297.64 799.422 L2295.14 791.202 L2302 786.006 L2293.4 785.826 L2290.58 777.714 Z" fill="#ffa500" fill-rule="evenodd" fill-opacity="0.5" stroke="#ff0000" stroke-opacity="0.5" stroke-width="3.2"/>
<path clip-path="url(#clip572)" d="M218.174 1416.41 L190.174 1444.41 L218.174 1472.41 L246.174 1444.41 L218.174 1416.41 Z" fill="#008000" fill-rule="evenodd" fill-opacity="1" stroke="#ff0000" stroke-opacity="1" stroke-width="3.2"/>
<path clip-path="url(#clip572)" d="M327.249 251.877 L299.249 279.877 L327.249 307.877 L355.249 279.877 L327.249 251.877 Z" fill="#008000" fill-rule="evenodd" fill-opacity="1" stroke="#ff0000" stroke-opacity="1" stroke-width="3.2"/>
<path clip-path="url(#clip572)" d="M436.323 944.582 L408.323 972.582 L436.323 1000.58 L464.323 972.582 L436.323 944.582 Z" fill="#008000" fill-rule="evenodd" fill-opacity="1" stroke="#ff0000" stroke-opacity="1" stroke-width="3.2"/>
<path clip-path="url(#clip572)" d="M545.397 433.935 L517.397 461.935 L545.397 489.935 L573.397 461.935 L545.397 433.935 Z" fill="#008000" fill-rule="evenodd" fill-opacity="1" stroke="#ff0000" stroke-opacity="1" stroke-width="3.2"/>
<path clip-path="url(#clip572)" d="M654.471 926.789 L626.471 954.789 L654.471 982.789 L682.471 954.789 L654.471 926.789 Z" fill="#008000" fill-rule="evenodd" fill-opacity="1" stroke="#ff0000" stroke-opacity="1" stroke-width="3.2"/>
<path clip-path="url(#clip572)" d="M763.545 282.152 L735.545 310.152 L763.545 338.152 L791.545 310.152 L763.545 282.152 Z" fill="#008000" fill-rule="evenodd" fill-opacity="1" stroke="#ff0000" stroke-opacity="1" stroke-width="3.2"/>
<path clip-path="url(#clip572)" d="M872.619 482.064 L844.619 510.064 L872.619 538.064 L900.619 510.064 L872.619 482.064 Z" fill="#008000" fill-rule="evenodd" fill-opacity="1" stroke="#ff0000" stroke-opacity="1" stroke-width="3.2"/>
<path clip-path="url(#clip572)" d="M981.694 159.111 L953.694 187.111 L981.694 215.111 L1009.69 187.111 L981.694 159.111 Z" fill="#008000" fill-rule="evenodd" fill-opacity="1" stroke="#ff0000" stroke-opacity="1" stroke-width="3.2"/>
<path clip-path="url(#clip572)" d="M1090.77 677.439 L1062.77 705.439 L1090.77 733.439 L1118.77 705.439 L1090.77 677.439 Z" fill="#008000" fill-rule="evenodd" fill-opacity="1" stroke="#ff0000" stroke-opacity="1" stroke-width="3.2"/>
<path clip-path="url(#clip572)" d="M1199.84 1359.67 L1171.84 1387.67 L1199.84 1415.67 L1227.84 1387.67 L1199.84 1359.67 Z" fill="#008000" fill-rule="evenodd" fill-opacity="1" stroke="#ff0000" stroke-opacity="1" stroke-width="3.2"/>
<path clip-path="url(#clip572)" d="M1308.92 385.324 L1280.92 413.324 L1308.92 441.324 L1336.92 413.324 L1308.92 385.324 Z" fill="#008000" fill-rule="evenodd" fill-opacity="1" stroke="#ff0000" stroke-opacity="1" stroke-width="3.2"/>
<path clip-path="url(#clip572)" d="M1417.99 1291.58 L1389.99 1319.58 L1417.99 1347.58 L1445.99 1319.58 L1417.99 1291.58 Z" fill="#008000" fill-rule="evenodd" fill-opacity="1" stroke="#ff0000" stroke-opacity="1" stroke-width="3.2"/>
<path clip-path="url(#clip572)" d="M1527.06 554.726 L1499.06 582.726 L1527.06 610.726 L1555.06 582.726 L1527.06 554.726 Z" fill="#008000" fill-rule="evenodd" fill-opacity="1" stroke="#ff0000" stroke-opacity="1" stroke-width="3.2"/>
<path clip-path="url(#clip572)" d="M1636.14 1257.43 L1608.14 1285.43 L1636.14 1313.43 L1664.14 1285.43 L1636.14 1257.43 Z" fill="#008000" fill-rule="evenodd" fill-opacity="1" stroke="#ff0000" stroke-opacity="1" stroke-width="3.2"/>
<path clip-path="url(#clip572)" d="M1745.21 526.334 L1717.21 554.334 L1745.21 582.334 L1773.21 554.334 L1745.21 526.334 Z" fill="#008000" fill-rule="evenodd" fill-opacity="1" stroke="#ff0000" stroke-opacity="1" stroke-width="3.2"/>
<path clip-path="url(#clip572)" d="M1854.29 381.274 L1826.29 409.274 L1854.29 437.274 L1882.29 409.274 L1854.29 381.274 Z" fill="#008000" fill-rule="evenodd" fill-opacity="1" stroke="#ff0000" stroke-opacity="1" stroke-width="3.2"/>
<path clip-path="url(#clip572)" d="M1963.36 697.014 L1935.36 725.014 L1963.36 753.014 L1991.36 725.014 L1963.36 697.014 Z" fill="#008000" fill-rule="evenodd" fill-opacity="1" stroke="#ff0000" stroke-opacity="1" stroke-width="3.2"/>
<path clip-path="url(#clip572)" d="M2072.44 1105.98 L2044.44 1133.98 L2072.44 1161.98 L2100.44 1133.98 L2072.44 1105.98 Z" fill="#008000" fill-rule="evenodd" fill-opacity="1" stroke="#ff0000" stroke-opacity="1" stroke-width="3.2"/>
<path clip-path="url(#clip572)" d="M2181.51 1414.12 L2153.51 1442.12 L2181.51 1470.12 L2209.51 1442.12 L2181.51 1414.12 Z" fill="#008000" fill-rule="evenodd" fill-opacity="1" stroke="#ff0000" stroke-opacity="1" stroke-width="3.2"/>
<path clip-path="url(#clip572)" d="M2290.58 661.066 L2262.58 689.066 L2290.58 717.066 L2318.58 689.066 L2290.58 661.066 Z" fill="#008000" fill-rule="evenodd" fill-opacity="1" stroke="#ff0000" stroke-opacity="1" stroke-width="3.2"/>
<path clip-path="url(#clip572)" d="M179.774 1014.97 L237.374 1048.57 L237.374 981.373 L179.774 1014.97 Z" fill="#00008b" fill-rule="evenodd" fill-opacity="0.2" stroke="#ff0000" stroke-opacity="0.2" stroke-width="3.2"/>
<path clip-path="url(#clip572)" d="M288.849 279.835 L346.449 313.435 L346.449 246.235 L288.849 279.835 Z" fill="#00008b" fill-rule="evenodd" fill-opacity="0.2" stroke="#ff0000" stroke-opacity="0.2" stroke-width="3.2"/>
<path clip-path="url(#clip572)" d="M397.923 426.107 L455.523 459.707 L455.523 392.507 L397.923 426.107 Z" fill="#00008b" fill-rule="evenodd" fill-opacity="0.2" stroke="#ff0000" stroke-opacity="0.2" stroke-width="3.2"/>
<path clip-path="url(#clip572)" d="M506.997 611.841 L564.597 645.441 L564.597 578.241 L506.997 611.841 Z" fill="#00008b" fill-rule="evenodd" fill-opacity="0.2" stroke="#ff0000" stroke-opacity="0.2" stroke-width="3.2"/>
<path clip-path="url(#clip572)" d="M616.071 592.785 L673.671 626.385 L673.671 559.185 L616.071 592.785 Z" fill="#00008b" fill-rule="evenodd" fill-opacity="0.2" stroke="#ff0000" stroke-opacity="0.2" stroke-width="3.2"/>
<path clip-path="url(#clip572)" d="M725.145 666.51 L782.745 700.11 L782.745 632.91 L725.145 666.51 Z" fill="#00008b" fill-rule="evenodd" fill-opacity="0.2" stroke="#ff0000" stroke-opacity="0.2" stroke-width="3.2"/>
<path clip-path="url(#clip572)" d="M834.219 819.047 L891.819 852.647 L891.819 785.447 L834.219 819.047 Z" fill="#00008b" fill-rule="evenodd" fill-opacity="0.2" stroke="#ff0000" stroke-opacity="0.2" stroke-width="3.2"/>
<path clip-path="url(#clip572)" d="M943.294 628.96 L1000.89 662.56 L1000.89 595.36 L943.294 628.96 Z" fill="#00008b" fill-rule="evenodd" fill-opacity="0.2" stroke="#ff0000" stroke-opacity="0.2" stroke-width="3.2"/>
<path clip-path="url(#clip572)" d="M1052.37 925.38 L1109.97 958.98 L1109.97 891.78 L1052.37 925.38 Z" fill="#00008b" fill-rule="evenodd" fill-opacity="0.2" stroke="#ff0000" stroke-opacity="0.2" stroke-width="3.2"/>
<path clip-path="url(#clip572)" d="M1161.44 636.98 L1219.04 670.58 L1219.04 603.38 L1161.44 636.98 Z" fill="#00008b" fill-rule="evenodd" fill-opacity="0.2" stroke="#ff0000" stroke-opacity="0.2" stroke-width="3.2"/>
<path clip-path="url(#clip572)" d="M1270.52 1068.92 L1328.12 1102.52 L1328.12 1035.32 L1270.52 1068.92 Z" fill="#00008b" fill-rule="evenodd" fill-opacity="0.2" stroke="#ff0000" stroke-opacity="0.2" stroke-width="3.2"/>
<path clip-path="url(#clip572)" d="M1379.59 1042.84 L1437.19 1076.44 L1437.19 1009.24 L1379.59 1042.84 Z" fill="#00008b" fill-rule="evenodd" fill-opacity="0.2" stroke="#ff0000" stroke-opacity="0.2" stroke-width="3.2"/>
<path clip-path="url(#clip572)" d="M1488.66 453.993 L1546.26 487.593 L1546.26 420.393 L1488.66 453.993 Z" fill="#00008b" fill-rule="evenodd" fill-opacity="0.2" stroke="#ff0000" stroke-opacity="0.2" stroke-width="3.2"/>
<path clip-path="url(#clip572)" d="M1597.74 1435.24 L1655.34 1468.84 L1655.34 1401.64 L1597.74 1435.24 Z" fill="#00008b" fill-rule="evenodd" fill-opacity="0.2" stroke="#ff0000" stroke-opacity="0.2" stroke-width="3.2"/>
<path clip-path="url(#clip572)" d="M1706.81 1212.25 L1764.41 1245.85 L1764.41 1178.65 L1706.81 1212.25 Z" fill="#00008b" fill-rule="evenodd" fill-opacity="0.2" stroke="#ff0000" stroke-opacity="0.2" stroke-width="3.2"/>
<path clip-path="url(#clip572)" d="M1815.89 1163.09 L1873.49 1196.69 L1873.49 1129.49 L1815.89 1163.09 Z" fill="#00008b" fill-rule="evenodd" fill-opacity="0.2" stroke="#ff0000" stroke-opacity="0.2" stroke-width="3.2"/>
<path clip-path="url(#clip572)" d="M1924.96 204.272 L1982.56 237.872 L1982.56 170.672 L1924.96 204.272 Z" fill="#00008b" fill-rule="evenodd" fill-opacity="0.2" stroke="#ff0000" stroke-opacity="0.2" stroke-width="3.2"/>
<path clip-path="url(#clip572)" d="M2034.04 627.084 L2091.64 660.684 L2091.64 593.484 L2034.04 627.084 Z" fill="#00008b" fill-rule="evenodd" fill-opacity="0.2" stroke="#ff0000" stroke-opacity="0.2" stroke-width="3.2"/>
<path clip-path="url(#clip572)" d="M2143.11 1342.66 L2200.71 1376.26 L2200.71 1309.06 L2143.11 1342.66 Z" fill="#00008b" fill-rule="evenodd" fill-opacity="0.2" stroke="#ff0000" stroke-opacity="0.2" stroke-width="3.2"/>
<path clip-path="url(#clip572)" d="M2252.18 773.497 L2309.78 807.097 L2309.78 739.897 L2252.18 773.497 Z" fill="#00008b" fill-rule="evenodd" fill-opacity="0.2" stroke="#ff0000" stroke-opacity="0.2" stroke-width="3.2"/>
<path clip-path="url(#clip570)" d="
M1983.85 435.737 L2279.53 435.737 L2279.53 193.817 L1983.85 193.817  Z
  " fill="#ffffff" fill-rule="evenodd" fill-opacity="1"/>
<polyline clip-path="url(#clip570)" style="stroke:#000000; stroke-width:4; stroke-opacity:1; fill:none" points="
  1983.85,435.737 2279.53,435.737 2279.53,193.817 1983.85,193.817 1983.85,435.737 
  "/>
<path clip-path="url(#clip570)" d="M2081.48 228.697 L2075.47 246.002 L2057.14 246.386 L2071.76 257.471 L2066.43 275.007 L2081.48 264.537 L2096.54 275.007 L2091.21 257.471 L2105.83 246.386 L2087.5 246.002 L2081.48 228.697 Z" fill="#ffa500" fill-rule="evenodd" fill-opacity="0.5" stroke="#ff0000" stroke-opacity="0.5" stroke-width="6.82667"/>
<path clip-path="url(#clip570)" d="M 0 0 M2192.96 273.984 Q2191.15 278.614 2189.44 280.026 Q2187.73 281.438 2184.86 281.438 L2181.46 281.438 L2181.46 277.873 L2183.96 277.873 Q2185.71 277.873 2186.69 277.04 Q2187.66 276.206 2188.84 273.104 L2189.6 271.16 L2179.12 245.651 L2183.63 245.651 L2191.73 265.929 L2199.83 245.651 L2204.35 245.651 L2192.96 273.984 Z" fill="#bebebe" fill-rule="evenodd" fill-opacity="1" /><path clip-path="url(#clip570)" d="M 0 0 M2210.23 267.641 L2217.87 267.641 L2217.87 241.276 L2209.56 242.943 L2209.56 238.683 L2217.82 237.017 L2222.5 237.017 L2222.5 267.641 L2230.14 267.641 L2230.14 271.577 L2210.23 271.577 L2210.23 267.641 Z" fill="#bebebe" fill-rule="evenodd" fill-opacity="1" /><path clip-path="url(#clip570)" d="M2081.48 289.177 L2055.88 314.777 L2081.48 340.377 L2107.08 314.777 L2081.48 289.177 Z" fill="#008000" fill-rule="evenodd" fill-opacity="1" stroke="#ff0000" stroke-opacity="1" stroke-width="2.92571"/>
<path clip-path="url(#clip570)" d="M 0 0 M2192.96 334.464 Q2191.15 339.094 2189.44 340.506 Q2187.73 341.918 2184.86 341.918 L2181.46 341.918 L2181.46 338.353 L2183.96 338.353 Q2185.71 338.353 2186.69 337.52 Q2187.66 336.686 2188.84 333.584 L2189.6 331.64 L2179.12 306.131 L2183.63 306.131 L2191.73 326.409 L2199.83 306.131 L2204.35 306.131 L2192.96 334.464 Z" fill="#bebebe" fill-rule="evenodd" fill-opacity="1" /><path clip-path="url(#clip570)" d="M 0 0 M2213.45 328.121 L2229.76 328.121 L2229.76 332.057 L2207.82 332.057 L2207.82 328.121 Q2210.48 325.367 2215.07 320.737 Q2219.67 316.085 2220.85 314.742 Q2223.1 312.219 2223.98 310.483 Q2224.88 308.723 2224.88 307.034 Q2224.88 304.279 2222.94 302.543 Q2221.02 300.807 2217.91 300.807 Q2215.71 300.807 2213.26 301.571 Q2210.83 302.335 2208.05 303.886 L2208.05 299.163 Q2210.88 298.029 2213.33 297.45 Q2215.78 296.872 2217.82 296.872 Q2223.19 296.872 2226.39 299.557 Q2229.58 302.242 2229.58 306.733 Q2229.58 308.862 2228.77 310.784 Q2227.98 312.682 2225.88 315.274 Q2225.3 315.946 2222.2 319.163 Q2219.09 322.358 2213.45 328.121 Z" fill="#bebebe" fill-rule="evenodd" fill-opacity="1" /><path clip-path="url(#clip570)" d="M2061 375.257 L2091.72 393.177 L2091.72 357.337 L2061 375.257 Z" fill="#00008b" fill-rule="evenodd" fill-opacity="0.2" stroke="#ff0000" stroke-opacity="0.2" stroke-width="1.70667"/>
<path clip-path="url(#clip570)" d="M 0 0 M2192.96 394.944 Q2191.15 399.574 2189.44 400.986 Q2187.73 402.398 2184.86 402.398 L2181.46 402.398 L2181.46 398.833 L2183.96 398.833 Q2185.71 398.833 2186.69 398 Q2187.66 397.166 2188.84 394.064 L2189.6 392.12 L2179.12 366.611 L2183.63 366.611 L2191.73 386.889 L2199.83 366.611 L2204.35 366.611 L2192.96 394.944 Z" fill="#bebebe" fill-rule="evenodd" fill-opacity="1" /><path clip-path="url(#clip570)" d="M 0 0 M2223.58 373.902 Q2226.94 374.62 2228.82 376.889 Q2230.71 379.157 2230.71 382.49 Q2230.71 387.606 2227.2 390.407 Q2223.68 393.208 2217.2 393.208 Q2215.02 393.208 2212.7 392.768 Q2210.41 392.351 2207.96 391.495 L2207.96 386.981 Q2209.9 388.115 2212.22 388.694 Q2214.53 389.273 2217.06 389.273 Q2221.45 389.273 2223.75 387.537 Q2226.06 385.801 2226.06 382.49 Q2226.06 379.435 2223.91 377.722 Q2221.78 375.986 2217.96 375.986 L2213.93 375.986 L2213.93 372.143 L2218.14 372.143 Q2221.59 372.143 2223.42 370.778 Q2225.25 369.389 2225.25 366.796 Q2225.25 364.134 2223.35 362.722 Q2221.48 361.287 2217.96 361.287 Q2216.04 361.287 2213.84 361.703 Q2211.64 362.12 2209 363 L2209 358.833 Q2211.66 358.092 2213.98 357.722 Q2216.32 357.352 2218.38 357.352 Q2223.7 357.352 2226.8 359.782 Q2229.9 362.19 2229.9 366.31 Q2229.9 369.18 2228.26 371.171 Q2226.62 373.139 2223.58 373.902 Z" fill="#bebebe" fill-rule="evenodd" fill-opacity="1" /></svg>
