<?xml version="1.0" encoding="utf-8"?>
<svg xmlns="http://www.w3.org/2000/svg" xmlns:xlink="http://www.w3.org/1999/xlink" width="600" height="400" viewBox="0 0 2400 1600">
<defs>
  <clipPath id="clip620">
    <rect x="0" y="0" width="2400" height="1600"/>
  </clipPath>
</defs>
<path clip-path="url(#clip620)" d="
M0 1600 L2400 1600 L2400 0 L0 0  Z
  " fill="#ffffff" fill-rule="evenodd" fill-opacity="1"/>
<defs>
  <clipPath id="clip621">
    <rect x="480" y="0" width="1681" height="1600"/>
  </clipPath>
</defs>
<path clip-path="url(#clip620)" d="
M182.122 1482.13 L2352.76 1482.13 L2352.76 149.392 L182.122 149.392  Z
  " fill="#ffffff" fill-rule="evenodd" fill-opacity="1"/>
<defs>
  <clipPath id="clip622">
    <rect x="182" y="149" width="2172" height="1334"/>
  </clipPath>
</defs>
<polyline clip-path="url(#clip622)" style="stroke:#000000; stroke-width:2; stroke-opacity:0.1; fill:none" points="
  301.511,1482.13 301.511,149.392 
  "/>
<polyline clip-path="url(#clip622)" style="stroke:#000000; stroke-width:2; stroke-opacity:0.1; fill:none" points="
  687.882,1482.13 687.882,149.392 
  "/>
<polyline clip-path="url(#clip622)" style="stroke:#000000; stroke-width:2; stroke-opacity:0.1; fill:none" points="
  1074.25,1482.13 1074.25,149.392 
  "/>
<polyline clip-path="url(#clip622)" style="stroke:#000000; stroke-width:2; stroke-opacity:0.1; fill:none" points="
  1460.62,1482.13 1460.62,149.392 
  "/>
<polyline clip-path="url(#clip622)" style="stroke:#000000; stroke-width:2; stroke-opacity:0.1; fill:none" points="
  1847,1482.13 1847,149.392 
  "/>
<polyline clip-path="url(#clip622)" style="stroke:#000000; stroke-width:2; stroke-opacity:0.1; fill:none" points="
  2233.37,1482.13 2233.37,149.392 
  "/>
<polyline clip-path="url(#clip620)" style="stroke:#000000; stroke-width:4; stroke-opacity:1; fill:none" points="
  182.122,1482.13 2352.76,1482.13 
  "/>
<polyline clip-path="url(#clip620)" style="stroke:#000000; stroke-width:4; stroke-opacity:1; fill:none" points="
  301.511,1482.13 301.511,1466.14 
  "/>
<polyline clip-path="url(#clip620)" style="stroke:#000000; stroke-width:4; stroke-opacity:1; fill:none" points="
  687.882,1482.13 687.882,1466.14 
  "/>
<polyline clip-path="url(#clip620)" style="stroke:#000000; stroke-width:4; stroke-opacity:1; fill:none" points="
  1074.25,1482.13 1074.25,1466.14 
  "/>
<polyline clip-path="url(#clip620)" style="stroke:#000000; stroke-width:4; stroke-opacity:1; fill:none" points="
  1460.62,1482.13 1460.62,1466.14 
  "/>
<polyline clip-path="url(#clip620)" style="stroke:#000000; stroke-width:4; stroke-opacity:1; fill:none" points="
  1847,1482.13 1847,1466.14 
  "/>
<polyline clip-path="url(#clip620)" style="stroke:#000000; stroke-width:4; stroke-opacity:1; fill:none" points="
  2233.37,1482.13 2233.37,1466.14 
  "/>
<path clip-path="url(#clip620)" d="M 0 0 M301.511 1512.57 Q297.448 1512.57 295.391 1516.58 Q293.36 1520.56 293.36 1528.58 Q293.36 1536.58 295.391 1540.59 Q297.448 1544.57 301.511 1544.57 Q305.599 1544.57 307.63 1540.59 Q309.688 1536.58 309.688 1528.58 Q309.688 1520.56 307.63 1516.58 Q305.599 1512.57 301.511 1512.57 M301.511 1508.4 Q308.047 1508.4 311.484 1513.58 Q314.948 1518.74 314.948 1528.58 Q314.948 1538.4 311.484 1543.58 Q308.047 1548.74 301.511 1548.74 Q294.974 1548.74 291.511 1543.58 Q288.073 1538.4 288.073 1528.58 Q288.073 1518.74 291.511 1513.58 Q294.974 1508.4 301.511 1508.4 Z" fill="#bebebe" fill-rule="evenodd" fill-opacity="1" /><path clip-path="url(#clip620)" d="M 0 0 M676.944 1509.1 L697.595 1509.1 L697.595 1513.53 L681.762 1513.53 L681.762 1523.06 Q682.908 1522.67 684.054 1522.49 Q685.2 1522.28 686.345 1522.28 Q692.856 1522.28 696.658 1525.85 Q700.46 1529.42 700.46 1535.51 Q700.46 1541.79 696.554 1545.28 Q692.647 1548.74 685.538 1548.74 Q683.09 1548.74 680.538 1548.32 Q678.012 1547.91 675.304 1547.07 L675.304 1541.79 Q677.648 1543.06 680.148 1543.69 Q682.648 1544.31 685.434 1544.31 Q689.939 1544.31 692.569 1541.94 Q695.2 1539.57 695.2 1535.51 Q695.2 1531.45 692.569 1529.08 Q689.939 1526.71 685.434 1526.71 Q683.325 1526.71 681.215 1527.18 Q679.132 1527.65 676.944 1528.64 L676.944 1509.1 Z" fill="#bebebe" fill-rule="evenodd" fill-opacity="1" /><path clip-path="url(#clip620)" d="M 0 0 M1048.24 1543.56 L1056.83 1543.56 L1056.83 1513.9 L1047.48 1515.77 L1047.48 1510.98 L1056.78 1509.1 L1062.04 1509.1 L1062.04 1543.56 L1070.63 1543.56 L1070.63 1547.98 L1048.24 1547.98 L1048.24 1543.56 Z" fill="#bebebe" fill-rule="evenodd" fill-opacity="1" /><path clip-path="url(#clip620)" d="M 0 0 M1087.59 1512.57 Q1083.52 1512.57 1081.47 1516.58 Q1079.44 1520.56 1079.44 1528.58 Q1079.44 1536.58 1081.47 1540.59 Q1083.52 1544.57 1087.59 1544.57 Q1091.67 1544.57 1093.71 1540.59 Q1095.76 1536.58 1095.76 1528.58 Q1095.76 1520.56 1093.71 1516.58 Q1091.67 1512.57 1087.59 1512.57 M1087.59 1508.4 Q1094.12 1508.4 1097.56 1513.58 Q1101.02 1518.74 1101.02 1528.58 Q1101.02 1538.4 1097.56 1543.58 Q1094.12 1548.74 1087.59 1548.74 Q1081.05 1548.74 1077.59 1543.58 Q1074.15 1538.4 1074.15 1528.58 Q1074.15 1518.74 1077.59 1513.58 Q1081.05 1508.4 1087.59 1508.4 Z" fill="#bebebe" fill-rule="evenodd" fill-opacity="1" /><path clip-path="url(#clip620)" d="M 0 0 M1435.17 1543.56 L1443.76 1543.56 L1443.76 1513.9 L1434.41 1515.77 L1434.41 1510.98 L1443.71 1509.1 L1448.97 1509.1 L1448.97 1543.56 L1457.56 1543.56 L1457.56 1547.98 L1435.17 1547.98 L1435.17 1543.56 Z" fill="#bebebe" fill-rule="evenodd" fill-opacity="1" /><path clip-path="url(#clip620)" d="M 0 0 M1463.32 1509.1 L1483.97 1509.1 L1483.97 1513.53 L1468.14 1513.53 L1468.14 1523.06 Q1469.28 1522.67 1470.43 1522.49 Q1471.57 1522.28 1472.72 1522.28 Q1479.23 1522.28 1483.03 1525.85 Q1486.84 1529.42 1486.84 1535.51 Q1486.84 1541.79 1482.93 1545.28 Q1479.02 1548.74 1471.91 1548.74 Q1469.47 1548.74 1466.91 1548.32 Q1464.39 1547.91 1461.68 1547.07 L1461.68 1541.79 Q1464.02 1543.06 1466.52 1543.69 Q1469.02 1544.31 1471.81 1544.31 Q1476.31 1544.31 1478.94 1541.94 Q1481.57 1539.57 1481.57 1535.51 Q1481.57 1531.45 1478.94 1529.08 Q1476.31 1526.71 1471.81 1526.71 Q1469.7 1526.71 1467.59 1527.18 Q1465.51 1527.65 1463.32 1528.64 L1463.32 1509.1 Z" fill="#bebebe" fill-rule="evenodd" fill-opacity="1" /><path clip-path="url(#clip620)" d="M 0 0 M1825.79 1543.56 L1844.14 1543.56 L1844.14 1547.98 L1819.46 1547.98 L1819.46 1543.56 Q1822.45 1540.46 1827.61 1535.25 Q1832.79 1530.02 1834.12 1528.5 Q1836.64 1525.67 1837.63 1523.71 Q1838.65 1521.73 1838.65 1519.83 Q1838.65 1516.73 1836.46 1514.78 Q1834.3 1512.83 1830.81 1512.83 Q1828.34 1512.83 1825.58 1513.69 Q1822.84 1514.55 1819.72 1516.29 L1819.72 1510.98 Q1822.89 1509.7 1825.65 1509.05 Q1828.42 1508.4 1830.71 1508.4 Q1836.75 1508.4 1840.34 1511.42 Q1843.94 1514.44 1843.94 1519.49 Q1843.94 1521.89 1843.02 1524.05 Q1842.14 1526.19 1839.77 1529.1 Q1839.12 1529.86 1835.63 1533.48 Q1832.14 1537.07 1825.79 1543.56 Z" fill="#bebebe" fill-rule="evenodd" fill-opacity="1" /><path clip-path="url(#clip620)" d="M 0 0 M1861.1 1512.57 Q1857.03 1512.57 1854.98 1516.58 Q1852.95 1520.56 1852.95 1528.58 Q1852.95 1536.58 1854.98 1540.59 Q1857.03 1544.57 1861.1 1544.57 Q1865.19 1544.57 1867.22 1540.59 Q1869.27 1536.58 1869.27 1528.58 Q1869.27 1520.56 1867.22 1516.58 Q1865.19 1512.57 1861.1 1512.57 M1861.1 1508.4 Q1867.63 1508.4 1871.07 1513.58 Q1874.53 1518.74 1874.53 1528.58 Q1874.53 1538.4 1871.07 1543.58 Q1867.63 1548.74 1861.1 1548.74 Q1854.56 1548.74 1851.1 1543.58 Q1847.66 1538.4 1847.66 1528.58 Q1847.66 1518.74 1851.1 1513.58 Q1854.56 1508.4 1861.1 1508.4 Z" fill="#bebebe" fill-rule="evenodd" fill-opacity="1" /><path clip-path="url(#clip620)" d="M 0 0 M2212.72 1543.56 L2231.08 1543.56 L2231.08 1547.98 L2206.39 1547.98 L2206.39 1543.56 Q2209.38 1540.46 2214.54 1535.25 Q2219.72 1530.02 2221.05 1528.5 Q2223.58 1525.67 2224.57 1523.71 Q2225.58 1521.73 2225.58 1519.83 Q2225.58 1516.73 2223.39 1514.78 Q2221.23 1512.83 2217.74 1512.83 Q2215.27 1512.83 2212.51 1513.69 Q2209.77 1514.55 2206.65 1516.29 L2206.65 1510.98 Q2209.83 1509.7 2212.59 1509.05 Q2215.35 1508.4 2217.64 1508.4 Q2223.68 1508.4 2227.27 1511.42 Q2230.87 1514.44 2230.87 1519.49 Q2230.87 1521.89 2229.96 1524.05 Q2229.07 1526.19 2226.7 1529.1 Q2226.05 1529.86 2222.56 1533.48 Q2219.07 1537.07 2212.72 1543.56 Z" fill="#bebebe" fill-rule="evenodd" fill-opacity="1" /><path clip-path="url(#clip620)" d="M 0 0 M2236.83 1509.1 L2257.48 1509.1 L2257.48 1513.53 L2241.65 1513.53 L2241.65 1523.06 Q2242.79 1522.67 2243.94 1522.49 Q2245.09 1522.28 2246.23 1522.28 Q2252.74 1522.28 2256.54 1525.85 Q2260.35 1529.42 2260.35 1535.51 Q2260.35 1541.79 2256.44 1545.28 Q2252.53 1548.74 2245.42 1548.74 Q2242.98 1548.74 2240.42 1548.32 Q2237.9 1547.91 2235.19 1547.07 L2235.19 1541.79 Q2237.53 1543.06 2240.03 1543.69 Q2242.53 1544.31 2245.32 1544.31 Q2249.83 1544.31 2252.46 1541.94 Q2255.09 1539.57 2255.09 1535.51 Q2255.09 1531.45 2252.46 1529.08 Q2249.83 1526.71 2245.32 1526.71 Q2243.21 1526.71 2241.1 1527.18 Q2239.02 1527.65 2236.83 1528.64 L2236.83 1509.1 Z" fill="#bebebe" fill-rule="evenodd" fill-opacity="1" /><polyline clip-path="url(#clip622)" style="stroke:#000000; stroke-width:2; stroke-opacity:0.1; fill:none" points="
  182.122,1444.41 2352.76,1444.41 
  "/>
<polyline clip-path="url(#clip622)" style="stroke:#000000; stroke-width:2; stroke-opacity:0.1; fill:none" points="
  182.122,1219.89 2352.76,1219.89 
  "/>
<polyline clip-path="url(#clip622)" style="stroke:#000000; stroke-width:2; stroke-opacity:0.1; fill:none" points="
  182.122,995.374 2352.76,995.374 
  "/>
<polyline clip-path="url(#clip622)" style="stroke:#000000; stroke-width:2; stroke-opacity:0.1; fill:none" points="
  182.122,770.857 2352.76,770.857 
  "/>
<polyline clip-path="url(#clip622)" style="stroke:#000000; stroke-width:2; stroke-opacity:0.1; fill:none" points="
  182.122,546.339 2352.76,546.339 
  "/>
<polyline clip-path="url(#clip622)" style="stroke:#000000; stroke-width:2; stroke-opacity:0.1; fill:none" points="
  182.122,321.822 2352.76,321.822 
  "/>
<polyline clip-path="url(#clip620)" style="stroke:#000000; stroke-width:4; stroke-opacity:1; fill:none" points="
  182.122,1482.13 182.122,149.392 
  "/>
<polyline clip-path="url(#clip620)" style="stroke:#000000; stroke-width:4; stroke-opacity:1; fill:none" points="
  182.122,1444.41 208.169,1444.41 
  "/>
<polyline clip-path="url(#clip620)" style="stroke:#000000; stroke-width:4; stroke-opacity:1; fill:none" points="
  182.122,1219.89 208.169,1219.89 
  "/>
<polyline clip-path="url(#clip620)" style="stroke:#000000; stroke-width:4; stroke-opacity:1; fill:none" points="
  182.122,995.374 208.169,995.374 
  "/>
<polyline clip-path="url(#clip620)" style="stroke:#000000; stroke-width:4; stroke-opacity:1; fill:none" points="
  182.122,770.857 208.169,770.857 
  "/>
<polyline clip-path="url(#clip620)" style="stroke:#000000; stroke-width:4; stroke-opacity:1; fill:none" points="
  182.122,546.339 208.169,546.339 
  "/>
<polyline clip-path="url(#clip620)" style="stroke:#000000; stroke-width:4; stroke-opacity:1; fill:none" points="
  182.122,321.822 208.169,321.822 
  "/>
<path clip-path="url(#clip620)" d="M 0 0 M91.0961 1428.43 Q87.0336 1428.43 84.9763 1432.44 Q82.9451 1436.43 82.9451 1444.45 Q82.9451 1452.44 84.9763 1456.45 Q87.0336 1460.44 91.0961 1460.44 Q95.1846 1460.44 97.2158 1456.45 Q99.2731 1452.44 99.2731 1444.45 Q99.2731 1436.43 97.2158 1432.44 Q95.1846 1428.43 91.0961 1428.43 M91.0961 1424.27 Q97.6325 1424.27 101.07 1429.45 Q104.534 1434.6 104.534 1444.45 Q104.534 1454.27 101.07 1459.45 Q97.6325 1464.6 91.0961 1464.6 Q84.5597 1464.6 81.0961 1459.45 Q77.6586 1454.27 77.6586 1444.45 Q77.6586 1434.6 81.0961 1429.45 Q84.5597 1424.27 91.0961 1424.27 Z" fill="#bebebe" fill-rule="evenodd" fill-opacity="1" /><path clip-path="url(#clip620)" d="M 0 0 M110.237 1457.23 L115.731 1457.23 L115.731 1463.85 L110.237 1463.85 L110.237 1457.23 Z" fill="#bebebe" fill-rule="evenodd" fill-opacity="1" /><path clip-path="url(#clip620)" d="M 0 0 M132.684 1428.43 Q128.622 1428.43 126.565 1432.44 Q124.533 1436.43 124.533 1444.45 Q124.533 1452.44 126.565 1456.45 Q128.622 1460.44 132.684 1460.44 Q136.773 1460.44 138.804 1456.45 Q140.861 1452.44 140.861 1444.45 Q140.861 1436.43 138.804 1432.44 Q136.773 1428.43 132.684 1428.43 M132.684 1424.27 Q139.221 1424.27 142.658 1429.45 Q146.122 1434.6 146.122 1444.45 Q146.122 1454.27 142.658 1459.45 Q139.221 1464.6 132.684 1464.6 Q126.148 1464.6 122.684 1459.45 Q119.247 1454.27 119.247 1444.45 Q119.247 1434.6 122.684 1429.45 Q126.148 1424.27 132.684 1424.27 Z" fill="#bebebe" fill-rule="evenodd" fill-opacity="1" /><path clip-path="url(#clip620)" d="M 0 0 M87.294 1234.9 L105.653 1234.9 L105.653 1239.33 L80.9659 1239.33 L80.9659 1234.9 Q83.9607 1231.81 89.1169 1226.6 Q94.2992 1221.36 95.6273 1219.85 Q98.1533 1217.01 99.1429 1215.06 Q100.159 1213.08 100.159 1211.18 Q100.159 1208.08 97.971 1206.13 Q95.8096 1204.18 92.32 1204.18 Q89.8461 1204.18 87.0857 1205.03 Q84.3513 1205.89 81.2263 1207.64 L81.2263 1202.33 Q84.4034 1201.05 87.1638 1200.4 Q89.9242 1199.75 92.2159 1199.75 Q98.2575 1199.75 101.851 1202.77 Q105.445 1205.79 105.445 1210.84 Q105.445 1213.24 104.534 1215.4 Q103.648 1217.53 101.278 1220.45 Q100.627 1221.21 97.1377 1224.83 Q93.6481 1228.42 87.294 1234.9 Z" fill="#bebebe" fill-rule="evenodd" fill-opacity="1" /><path clip-path="url(#clip620)" d="M 0 0 M111.356 1232.72 L116.851 1232.72 L116.851 1239.33 L111.356 1239.33 L111.356 1232.72 Z" fill="#bebebe" fill-rule="evenodd" fill-opacity="1" /><path clip-path="url(#clip620)" d="M 0 0 M122.606 1200.45 L143.257 1200.45 L143.257 1204.88 L127.424 1204.88 L127.424 1214.41 Q128.57 1214.02 129.716 1213.84 Q130.861 1213.63 132.007 1213.63 Q138.518 1213.63 142.32 1217.2 Q146.122 1220.76 146.122 1226.86 Q146.122 1233.13 142.216 1236.62 Q138.309 1240.09 131.2 1240.09 Q128.752 1240.09 126.2 1239.67 Q123.674 1239.25 120.966 1238.42 L120.966 1233.13 Q123.309 1234.41 125.809 1235.03 Q128.309 1235.66 131.096 1235.66 Q135.601 1235.66 138.231 1233.29 Q140.861 1230.92 140.861 1226.86 Q140.861 1222.8 138.231 1220.43 Q135.601 1218.06 131.096 1218.06 Q128.986 1218.06 126.877 1218.52 Q124.794 1218.99 122.606 1219.98 L122.606 1200.45 Z" fill="#bebebe" fill-rule="evenodd" fill-opacity="1" /><path clip-path="url(#clip620)" d="M 0 0 M81.018 975.934 L101.669 975.934 L101.669 980.361 L85.8357 980.361 L85.8357 989.892 Q86.9815 989.502 88.1273 989.319 Q89.2732 989.111 90.419 989.111 Q96.9294 989.111 100.731 992.679 Q104.534 996.246 104.534 1002.34 Q104.534 1008.62 100.627 1012.11 Q96.721 1015.57 89.6117 1015.57 Q87.1638 1015.57 84.6117 1015.15 Q82.0857 1014.74 79.3774 1013.9 L79.3774 1008.62 Q81.7211 1009.89 84.2211 1010.52 Q86.7211 1011.14 89.5075 1011.14 Q94.0127 1011.14 96.6429 1008.77 Q99.2731 1006.4 99.2731 1002.34 Q99.2731 998.278 96.6429 995.908 Q94.0127 993.538 89.5075 993.538 Q87.3982 993.538 85.2888 994.007 Q83.2055 994.476 81.018 995.465 L81.018 975.934 Z" fill="#bebebe" fill-rule="evenodd" fill-opacity="1" /><path clip-path="url(#clip620)" d="M 0 0 M110.237 1008.2 L115.731 1008.2 L115.731 1014.81 L110.237 1014.81 L110.237 1008.2 Z" fill="#bebebe" fill-rule="evenodd" fill-opacity="1" /><path clip-path="url(#clip620)" d="M 0 0 M132.684 979.398 Q128.622 979.398 126.565 983.408 Q124.533 987.392 124.533 995.413 Q124.533 1003.41 126.565 1007.42 Q128.622 1011.4 132.684 1011.4 Q136.773 1011.4 138.804 1007.42 Q140.861 1003.41 140.861 995.413 Q140.861 987.392 138.804 983.408 Q136.773 979.398 132.684 979.398 M132.684 975.231 Q139.221 975.231 142.658 980.413 Q146.122 985.569 146.122 995.413 Q146.122 1005.23 142.658 1010.41 Q139.221 1015.57 132.684 1015.57 Q126.148 1015.57 122.684 1010.41 Q119.247 1005.23 119.247 995.413 Q119.247 985.569 122.684 980.413 Q126.148 975.231 132.684 975.231 Z" fill="#bebebe" fill-rule="evenodd" fill-opacity="1" /><path clip-path="url(#clip620)" d="M 0 0 M80.6534 751.417 L105.653 751.417 L105.653 753.656 L91.5388 790.297 L86.044 790.297 L99.3252 755.844 L80.6534 755.844 L80.6534 751.417 Z" fill="#bebebe" fill-rule="evenodd" fill-opacity="1" /><path clip-path="url(#clip620)" d="M 0 0 M111.356 783.682 L116.851 783.682 L116.851 790.297 L111.356 790.297 L111.356 783.682 Z" fill="#bebebe" fill-rule="evenodd" fill-opacity="1" /><path clip-path="url(#clip620)" d="M 0 0 M122.606 751.417 L143.257 751.417 L143.257 755.844 L127.424 755.844 L127.424 765.375 Q128.57 764.984 129.716 764.802 Q130.861 764.594 132.007 764.594 Q138.518 764.594 142.32 768.161 Q146.122 771.729 146.122 777.823 Q146.122 784.099 142.216 787.588 Q138.309 791.052 131.2 791.052 Q128.752 791.052 126.2 790.635 Q123.674 790.218 120.966 789.385 L120.966 784.099 Q123.309 785.375 125.809 786 Q128.309 786.625 131.096 786.625 Q135.601 786.625 138.231 784.255 Q140.861 781.885 140.861 777.823 Q140.861 773.76 138.231 771.39 Q135.601 769.021 131.096 769.021 Q128.986 769.021 126.877 769.489 Q124.794 769.958 122.606 770.948 L122.606 751.417 Z" fill="#bebebe" fill-rule="evenodd" fill-opacity="1" /><path clip-path="url(#clip620)" d="M 0 0 M51.7473 561.352 L60.341 561.352 L60.341 531.691 L50.9921 533.566 L50.9921 528.774 L60.289 526.899 L65.5493 526.899 L65.5493 561.352 L74.143 561.352 L74.143 565.779 L51.7473 565.779 L51.7473 561.352 Z" fill="#bebebe" fill-rule="evenodd" fill-opacity="1" /><path clip-path="url(#clip620)" d="M 0 0 M91.0961 530.363 Q87.0336 530.363 84.9763 534.373 Q82.9451 538.357 82.9451 546.378 Q82.9451 554.373 84.9763 558.383 Q87.0336 562.368 91.0961 562.368 Q95.1846 562.368 97.2158 558.383 Q99.2731 554.373 99.2731 546.378 Q99.2731 538.357 97.2158 534.373 Q95.1846 530.363 91.0961 530.363 M91.0961 526.196 Q97.6325 526.196 101.07 531.378 Q104.534 536.534 104.534 546.378 Q104.534 556.196 101.07 561.378 Q97.6325 566.534 91.0961 566.534 Q84.5597 566.534 81.0961 561.378 Q77.6586 556.196 77.6586 546.378 Q77.6586 536.534 81.0961 531.378 Q84.5597 526.196 91.0961 526.196 Z" fill="#bebebe" fill-rule="evenodd" fill-opacity="1" /><path clip-path="url(#clip620)" d="M 0 0 M110.237 559.164 L115.731 559.164 L115.731 565.779 L110.237 565.779 L110.237 559.164 Z" fill="#bebebe" fill-rule="evenodd" fill-opacity="1" /><path clip-path="url(#clip620)" d="M 0 0 M132.684 530.363 Q128.622 530.363 126.565 534.373 Q124.533 538.357 124.533 546.378 Q124.533 554.373 126.565 558.383 Q128.622 562.368 132.684 562.368 Q136.773 562.368 138.804 558.383 Q140.861 554.373 140.861 546.378 Q140.861 538.357 138.804 534.373 Q136.773 530.363 132.684 530.363 M132.684 526.196 Q139.221 526.196 142.658 531.378 Q146.122 536.534 146.122 546.378 Q146.122 556.196 142.658 561.378 Q139.221 566.534 132.684 566.534 Q126.148 566.534 122.684 561.378 Q119.247 556.196 119.247 546.378 Q119.247 536.534 122.684 531.378 Q126.148 526.196 132.684 526.196 Z" fill="#bebebe" fill-rule="evenodd" fill-opacity="1" /><path clip-path="url(#clip620)" d="M 0 0 M54.664 336.834 L63.2577 336.834 L63.2577 307.173 L53.9088 309.048 L53.9088 304.257 L63.2056 302.382 L68.466 302.382 L68.466 336.834 L77.0597 336.834 L77.0597 341.262 L54.664 341.262 L54.664 336.834 Z" fill="#bebebe" fill-rule="evenodd" fill-opacity="1" /><path clip-path="url(#clip620)" d="M 0 0 M87.294 336.834 L105.653 336.834 L105.653 341.262 L80.9659 341.262 L80.9659 336.834 Q83.9607 333.736 89.1169 328.527 Q94.2992 323.293 95.6273 321.782 Q98.1533 318.944 99.1429 316.991 Q100.159 315.012 100.159 313.111 Q100.159 310.012 97.971 308.059 Q95.8096 306.105 92.32 306.105 Q89.8461 306.105 87.0857 306.965 Q84.3513 307.824 81.2263 309.569 L81.2263 304.257 Q84.4034 302.981 87.1638 302.329 Q89.9242 301.678 92.2159 301.678 Q98.2575 301.678 101.851 304.699 Q105.445 307.72 105.445 312.772 Q105.445 315.168 104.534 317.329 Q103.648 319.465 101.278 322.381 Q100.627 323.137 97.1377 326.756 Q93.6481 330.35 87.294 336.834 Z" fill="#bebebe" fill-rule="evenodd" fill-opacity="1" /><path clip-path="url(#clip620)" d="M 0 0 M111.356 334.647 L116.851 334.647 L116.851 341.262 L111.356 341.262 L111.356 334.647 Z" fill="#bebebe" fill-rule="evenodd" fill-opacity="1" /><path clip-path="url(#clip620)" d="M 0 0 M122.606 302.382 L143.257 302.382 L143.257 306.809 L127.424 306.809 L127.424 316.34 Q128.57 315.949 129.716 315.767 Q130.861 315.559 132.007 315.559 Q138.518 315.559 142.32 319.126 Q146.122 322.694 146.122 328.788 Q146.122 335.064 142.216 338.553 Q138.309 342.017 131.2 342.017 Q128.752 342.017 126.2 341.6 Q123.674 341.183 120.966 340.35 L120.966 335.064 Q123.309 336.34 125.809 336.965 Q128.309 337.59 131.096 337.59 Q135.601 337.59 138.231 335.22 Q140.861 332.85 140.861 328.788 Q140.861 324.725 138.231 322.355 Q135.601 319.986 131.096 319.986 Q128.986 319.986 126.877 320.454 Q124.794 320.923 122.606 321.913 L122.606 302.382 Z" fill="#bebebe" fill-rule="evenodd" fill-opacity="1" /><path clip-path="url(#clip620)" d="M 0 0 M884.223 20.1156 L884.223 31.516 Q877.568 28.3332 871.666 26.7707 Q865.763 25.2082 860.265 25.2082 Q850.717 25.2082 845.508 28.9119 Q840.358 32.6156 840.358 39.4442 Q840.358 45.1734 843.772 48.1247 Q847.244 51.0182 856.851 52.8122 L863.911 54.259 Q876.99 56.7474 883.182 63.0552 Q889.432 69.3052 889.432 79.8375 Q889.432 92.3953 880.983 98.8768 Q872.591 105.358 856.33 105.358 Q850.196 105.358 843.251 103.969 Q836.365 102.58 828.957 99.8606 L828.957 87.8236 Q836.075 91.8166 842.904 93.8421 Q849.733 95.8675 856.33 95.8675 Q866.341 95.8675 871.781 91.9324 Q877.221 87.9972 877.221 80.7056 Q877.221 74.3399 873.286 70.7519 Q869.409 67.164 860.497 65.37 L853.379 63.9811 Q840.3 61.377 834.455 55.8215 Q828.61 50.2659 828.61 40.3702 Q828.61 28.9119 836.654 22.3147 Q844.756 15.7175 858.934 15.7175 Q865.01 15.7175 871.318 16.817 Q877.626 17.9166 884.223 20.1156 Z" fill="#bebebe" fill-rule="evenodd" fill-opacity="1" /><path clip-path="url(#clip620)" d="M 0 0 M956.04 68.6107 L956.04 73.819 L907.082 73.819 Q907.776 84.8144 913.679 90.6014 Q919.64 96.3305 930.23 96.3305 Q936.364 96.3305 942.093 94.8259 Q947.88 93.3213 953.552 90.312 L953.552 100.381 Q947.823 102.812 941.804 104.085 Q935.786 105.358 929.593 105.358 Q914.084 105.358 904.999 96.3305 Q895.971 87.3028 895.971 71.9093 Q895.971 55.9951 904.536 46.678 Q913.158 37.303 927.742 37.303 Q940.82 37.303 948.401 45.7521 Q956.04 54.1432 956.04 68.6107 M945.392 65.4858 Q945.276 56.7474 940.473 51.5391 Q935.728 46.3308 927.857 46.3308 Q918.945 46.3308 913.563 51.3655 Q908.239 56.4002 907.429 65.5436 L945.392 65.4858 Z" fill="#bebebe" fill-rule="evenodd" fill-opacity="1" /><path clip-path="url(#clip620)" d="M 0 0 M1004.77 48.8192 Q1002.97 47.7775 1000.83 47.3146 Q998.748 46.7937 996.202 46.7937 Q987.174 46.7937 982.313 52.6965 Q977.51 58.5414 977.51 69.5367 L977.51 103.68 L966.804 103.68 L966.804 38.8655 L977.51 38.8655 L977.51 48.9349 Q980.866 43.0322 986.248 40.1965 Q991.63 37.303 999.327 37.303 Q1000.43 37.303 1001.76 37.4767 Q1003.09 37.5924 1004.71 37.8817 L1004.77 48.8192 Z" fill="#bebebe" fill-rule="evenodd" fill-opacity="1" /><path clip-path="url(#clip620)" d="M 0 0 M1015.94 38.8655 L1026.58 38.8655 L1026.58 103.68 L1015.94 103.68 L1015.94 38.8655 M1015.94 13.6342 L1026.58 13.6342 L1026.58 27.1179 L1015.94 27.1179 L1015.94 13.6342 Z" fill="#bebebe" fill-rule="evenodd" fill-opacity="1" /><path clip-path="url(#clip620)" d="M 0 0 M1093.19 68.6107 L1093.19 73.819 L1044.23 73.819 Q1044.93 84.8144 1050.83 90.6014 Q1056.79 96.3305 1067.38 96.3305 Q1073.52 96.3305 1079.25 94.8259 Q1085.03 93.3213 1090.7 90.312 L1090.7 100.381 Q1084.97 102.812 1078.96 104.085 Q1072.94 105.358 1066.75 105.358 Q1051.24 105.358 1042.15 96.3305 Q1033.12 87.3028 1033.12 71.9093 Q1033.12 55.9951 1041.69 46.678 Q1050.31 37.303 1064.89 37.303 Q1077.97 37.303 1085.55 45.7521 Q1093.19 54.1432 1093.19 68.6107 M1082.54 65.4858 Q1082.43 56.7474 1077.63 51.5391 Q1072.88 46.3308 1065.01 46.3308 Q1056.1 46.3308 1050.72 51.3655 Q1045.39 56.4002 1044.58 65.5436 L1082.54 65.4858 Z" fill="#bebebe" fill-rule="evenodd" fill-opacity="1" /><path clip-path="url(#clip620)" d="M 0 0 M1152.1 17.28 L1152.1 49.3979 L1142.27 49.3979 L1142.27 17.28 L1152.1 17.28 Z" fill="#bebebe" fill-rule="evenodd" fill-opacity="1" /><path clip-path="url(#clip620)" d="M 0 0 M1217.15 64.5598 L1217.15 103.68 L1206.5 103.68 L1206.5 64.9071 Q1206.5 55.7057 1202.91 51.134 Q1199.33 46.5623 1192.15 46.5623 Q1183.53 46.5623 1178.55 52.0599 Q1173.57 57.5576 1173.57 67.0483 L1173.57 103.68 L1162.87 103.68 L1162.87 13.6342 L1173.57 13.6342 L1173.57 48.9349 Q1177.39 43.09 1182.54 40.1965 Q1187.75 37.303 1194.52 37.303 Q1205.69 37.303 1211.42 44.2474 Q1217.15 51.134 1217.15 64.5598 Z" fill="#bebebe" fill-rule="evenodd" fill-opacity="1" /><path clip-path="url(#clip620)" d="M 0 0 M1228.32 38.8655 L1238.97 38.8655 L1238.97 103.68 L1228.32 103.68 L1228.32 38.8655 M1228.32 13.6342 L1238.97 13.6342 L1238.97 27.1179 L1228.32 27.1179 L1228.32 13.6342 Z" fill="#bebebe" fill-rule="evenodd" fill-opacity="1" /><path clip-path="url(#clip620)" d="M 0 0 M1291.45 40.7752 L1291.45 50.8446 Q1286.94 48.5298 1282.08 47.3724 Q1277.22 46.215 1272.01 46.215 Q1264.08 46.215 1260.09 48.6456 Q1256.15 51.0761 1256.15 55.9372 Q1256.15 59.6409 1258.99 61.7821 Q1261.83 63.8654 1270.39 65.7751 L1274.04 66.5853 Q1285.38 69.0158 1290.12 73.4718 Q1294.93 77.87 1294.93 85.7982 Q1294.93 94.8259 1287.75 100.092 Q1280.63 105.358 1268.13 105.358 Q1262.93 105.358 1257.25 104.317 Q1251.64 103.333 1245.39 101.307 L1245.39 90.312 Q1251.29 93.3791 1257.02 94.9416 Q1262.75 96.4462 1268.36 96.4462 Q1275.89 96.4462 1279.94 93.9 Q1283.99 91.2958 1283.99 86.6083 Q1283.99 82.2681 1281.04 79.9533 Q1278.14 77.6385 1268.25 75.4973 L1264.55 74.6292 Q1254.65 72.5459 1250.25 68.2635 Q1245.85 63.9233 1245.85 56.4002 Q1245.85 47.2567 1252.33 42.2799 Q1258.82 37.303 1270.74 37.303 Q1276.64 37.303 1281.85 38.1711 Q1287.06 39.0391 1291.45 40.7752 Z" fill="#bebebe" fill-rule="evenodd" fill-opacity="1" /><path clip-path="url(#clip620)" d="M 0 0 M1316.63 20.4629 L1316.63 38.8655 L1338.56 38.8655 L1338.56 47.141 L1316.63 47.141 L1316.63 82.3259 Q1316.63 90.2541 1318.77 92.5111 Q1320.97 94.768 1327.62 94.768 L1338.56 94.768 L1338.56 103.68 L1327.62 103.68 Q1315.3 103.68 1310.61 99.1083 Q1305.92 94.4787 1305.92 82.3259 L1305.92 47.141 L1298.11 47.141 L1298.11 38.8655 L1305.92 38.8655 L1305.92 20.4629 L1316.63 20.4629 Z" fill="#bebebe" fill-rule="evenodd" fill-opacity="1" /><path clip-path="url(#clip620)" d="M 0 0 M1374.85 46.3308 Q1366.28 46.3308 1361.3 53.0437 Q1356.33 59.6988 1356.33 71.3306 Q1356.33 82.9625 1361.25 89.6754 Q1366.22 96.3305 1374.85 96.3305 Q1383.35 96.3305 1388.33 89.6176 Q1393.31 82.9046 1393.31 71.3306 Q1393.31 59.8145 1388.33 53.1016 Q1383.35 46.3308 1374.85 46.3308 M1374.85 37.303 Q1388.73 37.303 1396.66 46.3308 Q1404.59 55.3585 1404.59 71.3306 Q1404.59 87.2449 1396.66 96.3305 Q1388.73 105.358 1374.85 105.358 Q1360.9 105.358 1352.97 96.3305 Q1345.1 87.2449 1345.1 71.3306 Q1345.1 55.3585 1352.97 46.3308 Q1360.9 37.303 1374.85 37.303 Z" fill="#bebebe" fill-rule="evenodd" fill-opacity="1" /><path clip-path="url(#clip620)" d="M 0 0 M1458.41 70.5205 Q1458.41 58.9464 1453.61 52.5807 Q1448.86 46.215 1440.24 46.215 Q1431.67 46.215 1426.87 52.5807 Q1422.13 58.9464 1422.13 70.5205 Q1422.13 82.0366 1426.87 88.4023 Q1431.67 94.768 1440.24 94.768 Q1448.86 94.768 1453.61 88.4023 Q1458.41 82.0366 1458.41 70.5205 M1469.06 95.6361 Q1469.06 112.187 1461.71 120.231 Q1454.36 128.333 1439.2 128.333 Q1433.58 128.333 1428.61 127.465 Q1423.63 126.654 1418.94 124.918 L1418.94 114.56 Q1423.63 117.106 1428.2 118.321 Q1432.77 119.536 1437.52 119.536 Q1447.99 119.536 1453.2 114.039 Q1458.41 108.599 1458.41 97.5458 L1458.41 92.2796 Q1455.11 98.0087 1449.96 100.844 Q1444.81 103.68 1437.63 103.68 Q1425.71 103.68 1418.42 94.5944 Q1411.13 85.5088 1411.13 70.5205 Q1411.13 55.4742 1418.42 46.3886 Q1425.71 37.303 1437.63 37.303 Q1444.81 37.303 1449.96 40.1387 Q1455.11 42.9743 1458.41 48.7034 L1458.41 38.8655 L1469.06 38.8655 L1469.06 95.6361 Z" fill="#bebebe" fill-rule="evenodd" fill-opacity="1" /><path clip-path="url(#clip620)" d="M 0 0 M1517.78 48.8192 Q1515.99 47.7775 1513.85 47.3146 Q1511.77 46.7937 1509.22 46.7937 Q1500.19 46.7937 1495.33 52.6965 Q1490.53 58.5414 1490.53 69.5367 L1490.53 103.68 L1479.82 103.68 L1479.82 38.8655 L1490.53 38.8655 L1490.53 48.9349 Q1493.88 43.0322 1499.27 40.1965 Q1504.65 37.303 1512.34 37.303 Q1513.44 37.303 1514.78 37.4767 Q1516.11 37.5924 1517.73 37.8817 L1517.78 48.8192 Z" fill="#bebebe" fill-rule="evenodd" fill-opacity="1" /><path clip-path="url(#clip620)" d="M 0 0 M1558.41 71.0992 Q1545.5 71.0992 1540.53 74.0505 Q1535.55 77.0019 1535.55 84.1199 Q1535.55 89.7912 1539.25 93.1476 Q1543.02 96.4462 1549.44 96.4462 Q1558.29 96.4462 1563.62 90.1963 Q1569 83.8884 1569 73.4718 L1569 71.0992 L1558.41 71.0992 M1579.65 66.701 L1579.65 103.68 L1569 103.68 L1569 93.8421 Q1565.35 99.7448 1559.91 102.58 Q1554.47 105.358 1546.6 105.358 Q1536.65 105.358 1530.75 99.8027 Q1524.9 94.1893 1524.9 84.8144 Q1524.9 73.8769 1532.19 68.3214 Q1539.54 62.7659 1554.07 62.7659 L1569 62.7659 L1569 61.7242 Q1569 54.3747 1564.14 50.3817 Q1559.34 46.3308 1550.6 46.3308 Q1545.04 46.3308 1539.78 47.6618 Q1534.51 48.9928 1529.65 51.6548 L1529.65 41.8169 Q1535.49 39.56 1540.99 38.4604 Q1546.49 37.303 1551.7 37.303 Q1565.76 37.303 1572.7 44.5947 Q1579.65 51.8863 1579.65 66.701 Z" fill="#bebebe" fill-rule="evenodd" fill-opacity="1" /><path clip-path="url(#clip620)" d="M 0 0 M1641.28 51.3076 Q1645.27 44.1317 1650.83 40.7174 Q1656.38 37.303 1663.91 37.303 Q1674.03 37.303 1679.53 44.4211 Q1685.03 51.4812 1685.03 64.5598 L1685.03 103.68 L1674.32 103.68 L1674.32 64.9071 Q1674.32 55.59 1671.02 51.0761 Q1667.73 46.5623 1660.96 46.5623 Q1652.68 46.5623 1647.88 52.0599 Q1643.07 57.5576 1643.07 67.0483 L1643.07 103.68 L1632.37 103.68 L1632.37 64.9071 Q1632.37 55.5321 1629.07 51.0761 Q1625.77 46.5623 1618.88 46.5623 Q1610.72 46.5623 1605.92 52.1178 Q1601.12 57.6154 1601.12 67.0483 L1601.12 103.68 L1590.41 103.68 L1590.41 38.8655 L1601.12 38.8655 L1601.12 48.9349 Q1604.76 42.9743 1609.86 40.1387 Q1614.95 37.303 1621.95 37.303 Q1629.01 37.303 1633.93 40.891 Q1638.91 44.4789 1641.28 51.3076 Z" fill="#bebebe" fill-rule="evenodd" fill-opacity="1" /><path clip-path="url(#clip620)" d="M 0 0 M1706.27 17.28 L1706.27 49.3979 L1696.43 49.3979 L1696.43 17.28 L1706.27 17.28 Z" fill="#bebebe" fill-rule="evenodd" fill-opacity="1" /><path clip-path="url(#clip622)" d="
M301.511 546.339 L301.511 1444.41 L687.882 1444.41 L687.882 546.339 L301.511 546.339 L301.511 546.339  Z
  " fill="#e69f00" fill-rule="evenodd" fill-opacity="1"/>
<polyline clip-path="url(#clip622)" style="stroke:#000000; stroke-width:4; stroke-opacity:1; fill:none" points="
  301.511,546.339 301.511,1444.41 687.882,1444.41 687.882,546.339 301.511,546.339 
  "/>
<path clip-path="url(#clip622)" d="
M687.882 366.725 L687.882 1444.41 L1074.25 1444.41 L1074.25 366.725 L687.882 366.725 L687.882 366.725  Z
  " fill="#e69f00" fill-rule="evenodd" fill-opacity="1"/>
<polyline clip-path="url(#clip622)" style="stroke:#000000; stroke-width:4; stroke-opacity:1; fill:none" points="
  687.882,366.725 687.882,1444.41 1074.25,1444.41 1074.25,366.725 687.882,366.725 
  "/>
<path clip-path="url(#clip622)" d="
M1074.25 187.111 L1074.25 1444.41 L1460.62 1444.41 L1460.62 187.111 L1074.25 187.111 L1074.25 187.111  Z
  " fill="#e69f00" fill-rule="evenodd" fill-opacity="1"/>
<polyline clip-path="url(#clip622)" style="stroke:#000000; stroke-width:4; stroke-opacity:1; fill:none" points="
  1074.25,187.111 1074.25,1444.41 1460.62,1444.41 1460.62,187.111 1074.25,187.111 
  "/>
<path clip-path="url(#clip622)" d="
M1460.62 636.146 L1460.62 1444.41 L1847 1444.41 L1847 636.146 L1460.62 636.146 L1460.62 636.146  Z
  " fill="#e69f00" fill-rule="evenodd" fill-opacity="1"/>
<polyline clip-path="url(#clip622)" style="stroke:#000000; stroke-width:4; stroke-opacity:1; fill:none" points="
  1460.62,636.146 1460.62,1444.41 1847,1444.41 1847,636.146 1460.62,636.146 
  "/>
<path clip-path="url(#clip622)" d="
M1847 995.374 L1847 1444.41 L2233.37 1444.41 L2233.37 995.374 L1847 995.374 L1847 995.374  Z
  " fill="#e69f00" fill-rule="evenodd" fill-opacity="1"/>
<polyline clip-path="url(#clip622)" style="stroke:#000000; stroke-width:4; stroke-opacity:1; fill:none" points="
  1847,995.374 1847,1444.41 2233.37,1444.41 2233.37,995.374 1847,995.374 
  "/>
<path clip-path="url(#clip620)" d="
M1988.2 314.777 L2280.4 314.777 L2280.4 193.817 L1988.2 193.817  Z
  " fill="#ffffff" fill-rule="evenodd" fill-opacity="1"/>
<polyline clip-path="url(#clip620)" style="stroke:#000000; stroke-width:4; stroke-opacity:1; fill:none" points="
  1988.2,314.777 2280.4,314.777 2280.4,193.817 1988.2,193.817 1988.2,314.777 
  "/>
<path clip-path="url(#clip620)" d="
M2012.32 278.489 L2157.03 278.489 L2157.03 230.105 L2012.32 230.105 L2012.32 278.489  Z
  " fill="#e69f00" fill-rule="evenodd" fill-opacity="1"/>
<polyline clip-path="url(#clip620)" style="stroke:#000000; stroke-width:4; stroke-opacity:1; fill:none" points="
  2012.32,278.489 2157.03,278.489 2157.03,230.105 2012.32,230.105 2012.32,278.489 
  "/>
<path clip-path="url(#clip620)" d="M 0 0 M2194.99 273.984 Q2193.18 278.614 2191.47 280.026 Q2189.76 281.438 2186.89 281.438 L2183.48 281.438 L2183.48 277.873 L2185.98 277.873 Q2187.74 277.873 2188.72 277.04 Q2189.69 276.206 2190.87 273.104 L2191.63 271.16 L2181.15 245.651 L2185.66 245.651 L2193.76 265.929 L2201.86 245.651 L2206.38 245.651 L2194.99 273.984 Z" fill="#bebebe" fill-rule="evenodd" fill-opacity="1" /><path clip-path="url(#clip620)" d="M 0 0 M2212.26 267.641 L2219.9 267.641 L2219.9 241.276 L2211.59 242.943 L2211.59 238.683 L2219.85 237.017 L2224.53 237.017 L2224.53 267.641 L2232.17 267.641 L2232.17 271.577 L2212.26 271.577 L2212.26 267.641 Z" fill="#bebebe" fill-rule="evenodd" fill-opacity="1" /></svg>
