<?xml version="1.0" encoding="utf-8"?>
<svg xmlns="http://www.w3.org/2000/svg" xmlns:xlink="http://www.w3.org/1999/xlink" width="600" height="400" viewBox="0 0 2400 1600">
<defs>
  <clipPath id="clip970">
    <rect x="0" y="0" width="2400" height="1600"/>
  </clipPath>
</defs>
<path clip-path="url(#clip970)" d="
M0 1600 L2400 1600 L2400 0 L0 0  Z
  " fill="#ffffff" fill-rule="evenodd" fill-opacity="1"/>
<defs>
  <clipPath id="clip971">
    <rect x="480" y="0" width="1681" height="1600"/>
  </clipPath>
</defs>
<path clip-path="url(#clip970)" d="
M142.07 1482.13 L2352.76 1482.13 L2352.76 149.392 L142.07 149.392  Z
  " fill="#ffffff" fill-rule="evenodd" fill-opacity="1"/>
<defs>
  <clipPath id="clip972">
    <rect x="142" y="149" width="2212" height="1334"/>
  </clipPath>
</defs>
<polyline clip-path="url(#clip972)" style="stroke:#000000; stroke-width:2; stroke-opacity:0.1; fill:none" points="
  263.662,1482.13 263.662,149.392 
  "/>
<polyline clip-path="url(#clip972)" style="stroke:#000000; stroke-width:2; stroke-opacity:0.1; fill:none" points="
  657.162,1482.13 657.162,149.392 
  "/>
<polyline clip-path="url(#clip972)" style="stroke:#000000; stroke-width:2; stroke-opacity:0.1; fill:none" points="
  1050.66,1482.13 1050.66,149.392 
  "/>
<polyline clip-path="url(#clip972)" style="stroke:#000000; stroke-width:2; stroke-opacity:0.1; fill:none" points="
  1444.16,1482.13 1444.16,149.392 
  "/>
<polyline clip-path="url(#clip972)" style="stroke:#000000; stroke-width:2; stroke-opacity:0.1; fill:none" points="
  1837.66,1482.13 1837.66,149.392 
  "/>
<polyline clip-path="url(#clip972)" style="stroke:#000000; stroke-width:2; stroke-opacity:0.1; fill:none" points="
  2231.16,1482.13 2231.16,149.392 
  "/>
<polyline clip-path="url(#clip970)" style="stroke:#000000; stroke-width:4; stroke-opacity:1; fill:none" points="
  142.07,1482.13 2352.76,1482.13 
  "/>
<polyline clip-path="url(#clip970)" style="stroke:#000000; stroke-width:4; stroke-opacity:1; fill:none" points="
  263.662,1482.13 263.662,1466.14 
  "/>
<polyline clip-path="url(#clip970)" style="stroke:#000000; stroke-width:4; stroke-opacity:1; fill:none" points="
  657.162,1482.13 657.162,1466.14 
  "/>
<polyline clip-path="url(#clip970)" style="stroke:#000000; stroke-width:4; stroke-opacity:1; fill:none" points="
  1050.66,1482.13 1050.66,1466.14 
  "/>
<polyline clip-path="url(#clip970)" style="stroke:#000000; stroke-width:4; stroke-opacity:1; fill:none" points="
  1444.16,1482.13 1444.16,1466.14 
  "/>
<polyline clip-path="url(#clip970)" style="stroke:#000000; stroke-width:4; stroke-opacity:1; fill:none" points="
  1837.66,1482.13 1837.66,1466.14 
  "/>
<polyline clip-path="url(#clip970)" style="stroke:#000000; stroke-width:4; stroke-opacity:1; fill:none" points="
  2231.16,1482.13 2231.16,1466.14 
  "/>
<path clip-path="url(#clip970)" d="M 0 0 M263.662 1512.57 Q259.599 1512.57 257.542 1516.58 Q255.511 1520.56 255.511 1528.58 Q255.511 1536.58 257.542 1540.59 Q259.599 1544.57 263.662 1544.57 Q267.75 1544.57 269.781 1540.59 Q271.839 1536.58 271.839 1528.58 Q271.839 1520.56 269.781 1516.58 Q267.75 1512.57 263.662 1512.57 M263.662 1508.4 Q270.198 1508.4 273.636 1513.58 Q277.099 1518.74 277.099 1528.58 Q277.099 1538.4 273.636 1543.58 Q270.198 1548.74 263.662 1548.74 Q257.125 1548.74 253.662 1543.58 Q250.224 1538.4 250.224 1528.58 Q250.224 1518.74 253.662 1513.58 Q257.125 1508.4 263.662 1508.4 Z" fill="#bebebe" fill-rule="evenodd" fill-opacity="1" /><path clip-path="url(#clip970)" d="M 0 0 M646.225 1509.1 L666.876 1509.1 L666.876 1513.53 L651.042 1513.53 L651.042 1523.06 Q652.188 1522.67 653.334 1522.49 Q654.48 1522.28 655.626 1522.28 Q662.136 1522.28 665.938 1525.85 Q669.74 1529.42 669.74 1535.51 Q669.74 1541.79 665.834 1545.28 Q661.928 1548.74 654.818 1548.74 Q652.371 1548.74 649.818 1548.32 Q647.292 1547.91 644.584 1547.07 L644.584 1541.79 Q646.928 1543.06 649.428 1543.69 Q651.928 1544.31 654.714 1544.31 Q659.219 1544.31 661.85 1541.94 Q664.48 1539.57 664.48 1535.51 Q664.48 1531.45 661.85 1529.08 Q659.219 1526.71 654.714 1526.71 Q652.605 1526.71 650.496 1527.18 Q648.412 1527.65 646.225 1528.64 L646.225 1509.1 Z" fill="#bebebe" fill-rule="evenodd" fill-opacity="1" /><path clip-path="url(#clip970)" d="M 0 0 M1024.65 1543.56 L1033.24 1543.56 L1033.24 1513.9 L1023.89 1515.77 L1023.89 1510.98 L1033.19 1509.1 L1038.45 1509.1 L1038.45 1543.56 L1047.04 1543.56 L1047.04 1547.98 L1024.65 1547.98 L1024.65 1543.56 Z" fill="#bebebe" fill-rule="evenodd" fill-opacity="1" /><path clip-path="url(#clip970)" d="M 0 0 M1064 1512.57 Q1059.93 1512.57 1057.88 1516.58 Q1055.84 1520.56 1055.84 1528.58 Q1055.84 1536.58 1057.88 1540.59 Q1059.93 1544.57 1064 1544.57 Q1068.08 1544.57 1070.12 1540.59 Q1072.17 1536.58 1072.17 1528.58 Q1072.17 1520.56 1070.12 1516.58 Q1068.08 1512.57 1064 1512.57 M1064 1508.4 Q1070.53 1508.4 1073.97 1513.58 Q1077.43 1518.74 1077.43 1528.58 Q1077.43 1538.4 1073.97 1543.58 Q1070.53 1548.74 1064 1548.74 Q1057.46 1548.74 1054 1543.58 Q1050.56 1538.4 1050.56 1528.58 Q1050.56 1518.74 1054 1513.58 Q1057.46 1508.4 1064 1508.4 Z" fill="#bebebe" fill-rule="evenodd" fill-opacity="1" /><path clip-path="url(#clip970)" d="M 0 0 M1418.71 1543.56 L1427.3 1543.56 L1427.3 1513.9 L1417.95 1515.77 L1417.95 1510.98 L1427.25 1509.1 L1432.51 1509.1 L1432.51 1543.56 L1441.1 1543.56 L1441.1 1547.98 L1418.71 1547.98 L1418.71 1543.56 Z" fill="#bebebe" fill-rule="evenodd" fill-opacity="1" /><path clip-path="url(#clip970)" d="M 0 0 M1446.86 1509.1 L1467.51 1509.1 L1467.51 1513.53 L1451.68 1513.53 L1451.68 1523.06 Q1452.82 1522.67 1453.97 1522.49 Q1455.11 1522.28 1456.26 1522.28 Q1462.77 1522.28 1466.57 1525.85 Q1470.37 1529.42 1470.37 1535.51 Q1470.37 1541.79 1466.47 1545.28 Q1462.56 1548.74 1455.45 1548.74 Q1453 1548.74 1450.45 1548.32 Q1447.93 1547.91 1445.22 1547.07 L1445.22 1541.79 Q1447.56 1543.06 1450.06 1543.69 Q1452.56 1544.31 1455.35 1544.31 Q1459.85 1544.31 1462.48 1541.94 Q1465.11 1539.57 1465.11 1535.51 Q1465.11 1531.45 1462.48 1529.08 Q1459.85 1526.71 1455.35 1526.71 Q1453.24 1526.71 1451.13 1527.18 Q1449.05 1527.65 1446.86 1528.64 L1446.86 1509.1 Z" fill="#bebebe" fill-rule="evenodd" fill-opacity="1" /><path clip-path="url(#clip970)" d="M 0 0 M1816.45 1543.56 L1834.81 1543.56 L1834.81 1547.98 L1810.12 1547.98 L1810.12 1543.56 Q1813.12 1540.46 1818.28 1535.25 Q1823.46 1530.02 1824.79 1528.5 Q1827.31 1525.67 1828.3 1523.71 Q1829.32 1521.73 1829.32 1519.83 Q1829.32 1516.73 1827.13 1514.78 Q1824.97 1512.83 1821.48 1512.83 Q1819 1512.83 1816.24 1513.69 Q1813.51 1514.55 1810.39 1516.29 L1810.39 1510.98 Q1813.56 1509.7 1816.32 1509.05 Q1819.08 1508.4 1821.37 1508.4 Q1827.42 1508.4 1831.01 1511.42 Q1834.6 1514.44 1834.6 1519.49 Q1834.6 1521.89 1833.69 1524.05 Q1832.81 1526.19 1830.44 1529.1 Q1829.79 1529.86 1826.3 1533.48 Q1822.81 1537.07 1816.45 1543.56 Z" fill="#bebebe" fill-rule="evenodd" fill-opacity="1" /><path clip-path="url(#clip970)" d="M 0 0 M1851.77 1512.57 Q1847.7 1512.57 1845.65 1516.58 Q1843.61 1520.56 1843.61 1528.58 Q1843.61 1536.58 1845.65 1540.59 Q1847.7 1544.57 1851.77 1544.57 Q1855.85 1544.57 1857.88 1540.59 Q1859.94 1536.58 1859.94 1528.58 Q1859.94 1520.56 1857.88 1516.58 Q1855.85 1512.57 1851.77 1512.57 M1851.77 1508.4 Q1858.3 1508.4 1861.74 1513.58 Q1865.2 1518.74 1865.2 1528.58 Q1865.2 1538.4 1861.74 1543.58 Q1858.3 1548.74 1851.77 1548.74 Q1845.23 1548.74 1841.77 1543.58 Q1838.33 1538.4 1838.33 1528.58 Q1838.33 1518.74 1841.77 1513.58 Q1845.23 1508.4 1851.77 1508.4 Z" fill="#bebebe" fill-rule="evenodd" fill-opacity="1" /><path clip-path="url(#clip970)" d="M 0 0 M2210.51 1543.56 L2228.87 1543.56 L2228.87 1547.98 L2204.19 1547.98 L2204.19 1543.56 Q2207.18 1540.46 2212.34 1535.25 Q2217.52 1530.02 2218.85 1528.5 Q2221.37 1525.67 2222.36 1523.71 Q2223.38 1521.73 2223.38 1519.83 Q2223.38 1516.73 2221.19 1514.78 Q2219.03 1512.83 2215.54 1512.83 Q2213.07 1512.83 2210.3 1513.69 Q2207.57 1514.55 2204.45 1516.29 L2204.45 1510.98 Q2207.62 1509.7 2210.38 1509.05 Q2213.14 1508.4 2215.44 1508.4 Q2221.48 1508.4 2225.07 1511.42 Q2228.66 1514.44 2228.66 1519.49 Q2228.66 1521.89 2227.75 1524.05 Q2226.87 1526.19 2224.5 1529.1 Q2223.85 1529.86 2220.36 1533.48 Q2216.87 1537.07 2210.51 1543.56 Z" fill="#bebebe" fill-rule="evenodd" fill-opacity="1" /><path clip-path="url(#clip970)" d="M 0 0 M2234.63 1509.1 L2255.28 1509.1 L2255.28 1513.53 L2239.45 1513.53 L2239.45 1523.06 Q2240.59 1522.67 2241.74 1522.49 Q2242.88 1522.28 2244.03 1522.28 Q2250.54 1522.28 2254.34 1525.85 Q2258.14 1529.42 2258.14 1535.51 Q2258.14 1541.79 2254.24 1545.28 Q2250.33 1548.74 2243.22 1548.74 Q2240.77 1548.74 2238.22 1548.32 Q2235.7 1547.91 2232.99 1547.07 L2232.99 1541.79 Q2235.33 1543.06 2237.83 1543.69 Q2240.33 1544.31 2243.12 1544.31 Q2247.62 1544.31 2250.25 1541.94 Q2252.88 1539.57 2252.88 1535.51 Q2252.88 1531.45 2250.25 1529.08 Q2247.62 1526.71 2243.12 1526.71 Q2241.01 1526.71 2238.9 1527.18 Q2236.82 1527.65 2234.63 1528.64 L2234.63 1509.1 Z" fill="#bebebe" fill-rule="evenodd" fill-opacity="1" /><polyline clip-path="url(#clip972)" style="stroke:#000000; stroke-width:2; stroke-opacity:0.1; fill:none" points="
  142.07,1444.41 2352.76,1444.41 
  "/>
<polyline clip-path="url(#clip972)" style="stroke:#000000; stroke-width:2; stroke-opacity:0.1; fill:none" points="
  142.07,1158.66 2352.76,1158.66 
  "/>
<polyline clip-path="url(#clip972)" style="stroke:#000000; stroke-width:2; stroke-opacity:0.1; fill:none" points="
  142.07,872.91 2352.76,872.91 
  "/>
<polyline clip-path="url(#clip972)" style="stroke:#000000; stroke-width:2; stroke-opacity:0.1; fill:none" points="
  142.07,587.16 2352.76,587.16 
  "/>
<polyline clip-path="url(#clip972)" style="stroke:#000000; stroke-width:2; stroke-opacity:0.1; fill:none" points="
  142.07,301.411 2352.76,301.411 
  "/>
<polyline clip-path="url(#clip970)" style="stroke:#000000; stroke-width:4; stroke-opacity:1; fill:none" points="
  142.07,1482.13 142.07,149.392 
  "/>
<polyline clip-path="url(#clip970)" style="stroke:#000000; stroke-width:4; stroke-opacity:1; fill:none" points="
  142.07,1444.41 168.598,1444.41 
  "/>
<polyline clip-path="url(#clip970)" style="stroke:#000000; stroke-width:4; stroke-opacity:1; fill:none" points="
  142.07,1158.66 168.598,1158.66 
  "/>
<polyline clip-path="url(#clip970)" style="stroke:#000000; stroke-width:4; stroke-opacity:1; fill:none" points="
  142.07,872.91 168.598,872.91 
  "/>
<polyline clip-path="url(#clip970)" style="stroke:#000000; stroke-width:4; stroke-opacity:1; fill:none" points="
  142.07,587.16 168.598,587.16 
  "/>
<polyline clip-path="url(#clip970)" style="stroke:#000000; stroke-width:4; stroke-opacity:1; fill:none" points="
  142.07,301.411 168.598,301.411 
  "/>
<path clip-path="url(#clip970)" d="M 0 0 M92.6325 1428.43 Q88.57 1428.43 86.5128 1432.44 Q84.4815 1436.43 84.4815 1444.45 Q84.4815 1452.44 86.5128 1456.45 Q88.57 1460.44 92.6325 1460.44 Q96.721 1460.44 98.7523 1456.45 Q100.81 1452.44 100.81 1444.45 Q100.81 1436.43 98.7523 1432.44 Q96.721 1428.43 92.6325 1428.43 M92.6325 1424.27 Q99.169 1424.27 102.606 1429.45 Q106.07 1434.6 106.07 1444.45 Q106.07 1454.27 102.606 1459.45 Q99.169 1464.6 92.6325 1464.6 Q86.0961 1464.6 82.6326 1459.45 Q79.1951 1454.27 79.1951 1444.45 Q79.1951 1434.6 82.6326 1429.45 Q86.0961 1424.27 92.6325 1424.27 Z" fill="#bebebe" fill-rule="evenodd" fill-opacity="1" /><path clip-path="url(#clip970)" d="M 0 0 M82.5545 1139.22 L103.205 1139.22 L103.205 1143.65 L87.3721 1143.65 L87.3721 1153.18 Q88.518 1152.79 89.6638 1152.6 Q90.8096 1152.4 91.9554 1152.4 Q98.4658 1152.4 102.268 1155.96 Q106.07 1159.53 106.07 1165.63 Q106.07 1171.9 102.164 1175.39 Q98.2575 1178.85 91.1482 1178.85 Q88.7003 1178.85 86.1482 1178.44 Q83.6222 1178.02 80.9138 1177.19 L80.9138 1171.9 Q83.2576 1173.18 85.7576 1173.8 Q88.2576 1174.43 91.044 1174.43 Q95.5492 1174.43 98.1794 1172.06 Q100.81 1169.69 100.81 1165.63 Q100.81 1161.56 98.1794 1159.19 Q95.5492 1156.82 91.044 1156.82 Q88.9346 1156.82 86.8253 1157.29 Q84.7419 1157.76 82.5545 1158.75 L82.5545 1139.22 Z" fill="#bebebe" fill-rule="evenodd" fill-opacity="1" /><path clip-path="url(#clip970)" d="M 0 0 M53.2838 887.923 L61.8775 887.923 L61.8775 858.262 L52.5286 860.137 L52.5286 855.345 L61.8254 853.47 L67.0858 853.47 L67.0858 887.923 L75.6795 887.923 L75.6795 892.35 L53.2838 892.35 L53.2838 887.923 Z" fill="#bebebe" fill-rule="evenodd" fill-opacity="1" /><path clip-path="url(#clip970)" d="M 0 0 M92.6325 856.933 Q88.57 856.933 86.5128 860.944 Q84.4815 864.928 84.4815 872.949 Q84.4815 880.944 86.5128 884.954 Q88.57 888.938 92.6325 888.938 Q96.721 888.938 98.7523 884.954 Q100.81 880.944 100.81 872.949 Q100.81 864.928 98.7523 860.944 Q96.721 856.933 92.6325 856.933 M92.6325 852.767 Q99.169 852.767 102.606 857.949 Q106.07 863.105 106.07 872.949 Q106.07 882.767 102.606 887.949 Q99.169 893.105 92.6325 893.105 Q86.0961 893.105 82.6326 887.949 Q79.1951 882.767 79.1951 872.949 Q79.1951 863.105 82.6326 857.949 Q86.0961 852.767 92.6325 852.767 Z" fill="#bebebe" fill-rule="evenodd" fill-opacity="1" /><path clip-path="url(#clip970)" d="M 0 0 M54.4036 602.173 L62.9973 602.173 L62.9973 572.512 L53.6484 574.387 L53.6484 569.595 L62.9452 567.72 L68.2056 567.72 L68.2056 602.173 L76.7993 602.173 L76.7993 606.6 L54.4036 606.6 L54.4036 602.173 Z" fill="#bebebe" fill-rule="evenodd" fill-opacity="1" /><path clip-path="url(#clip970)" d="M 0 0 M82.5545 567.72 L103.205 567.72 L103.205 572.147 L87.3721 572.147 L87.3721 581.679 Q88.518 581.288 89.6638 581.106 Q90.8096 580.897 91.9554 580.897 Q98.4658 580.897 102.268 584.465 Q106.07 588.033 106.07 594.126 Q106.07 600.403 102.164 603.892 Q98.2575 607.356 91.1482 607.356 Q88.7003 607.356 86.1482 606.939 Q83.6222 606.522 80.9138 605.689 L80.9138 600.403 Q83.2576 601.679 85.7576 602.304 Q88.2576 602.929 91.044 602.929 Q95.5492 602.929 98.1794 600.559 Q100.81 598.189 100.81 594.126 Q100.81 590.064 98.1794 587.694 Q95.5492 585.324 91.044 585.324 Q88.9346 585.324 86.8253 585.793 Q84.7419 586.262 82.5545 587.252 L82.5545 567.72 Z" fill="#bebebe" fill-rule="evenodd" fill-opacity="1" /><path clip-path="url(#clip970)" d="M 0 0 M57.3202 316.424 L75.6795 316.424 L75.6795 320.851 L50.9921 320.851 L50.9921 316.424 Q53.9869 313.325 59.1431 308.117 Q64.3254 302.882 65.6535 301.372 Q68.1795 298.533 69.1691 296.58 Q70.1847 294.601 70.1847 292.7 Q70.1847 289.601 67.9972 287.648 Q65.8358 285.695 62.3462 285.695 Q59.8723 285.695 57.1119 286.554 Q54.3775 287.414 51.2525 289.158 L51.2525 283.846 Q54.4296 282.57 57.19 281.919 Q59.9504 281.268 62.2421 281.268 Q68.2837 281.268 71.8774 284.289 Q75.4712 287.309 75.4712 292.361 Q75.4712 294.757 74.5597 296.919 Q73.6743 299.054 71.3045 301.971 Q70.6535 302.726 67.1639 306.346 Q63.6743 309.939 57.3202 316.424 Z" fill="#bebebe" fill-rule="evenodd" fill-opacity="1" /><path clip-path="url(#clip970)" d="M 0 0 M92.6325 285.434 Q88.57 285.434 86.5128 289.445 Q84.4815 293.429 84.4815 301.45 Q84.4815 309.445 86.5128 313.455 Q88.57 317.439 92.6325 317.439 Q96.721 317.439 98.7523 313.455 Q100.81 309.445 100.81 301.45 Q100.81 293.429 98.7523 289.445 Q96.721 285.434 92.6325 285.434 M92.6325 281.268 Q99.169 281.268 102.606 286.45 Q106.07 291.606 106.07 301.45 Q106.07 311.268 102.606 316.45 Q99.169 321.606 92.6325 321.606 Q86.0961 321.606 82.6326 316.45 Q79.1951 311.268 79.1951 301.45 Q79.1951 291.606 82.6326 286.45 Q86.0961 281.268 92.6325 281.268 Z" fill="#bebebe" fill-rule="evenodd" fill-opacity="1" /><path clip-path="url(#clip970)" d="M 0 0 M864.197 20.1156 L864.197 31.516 Q857.542 28.3332 851.64 26.7707 Q845.737 25.2082 840.239 25.2082 Q830.691 25.2082 825.482 28.9119 Q820.332 32.6156 820.332 39.4442 Q820.332 45.1734 823.746 48.1247 Q827.218 51.0182 836.825 52.8122 L843.885 54.259 Q856.964 56.7474 863.156 63.0552 Q869.406 69.3052 869.406 79.8375 Q869.406 92.3953 860.957 98.8768 Q852.566 105.358 836.304 105.358 Q830.17 105.358 823.225 103.969 Q816.339 102.58 808.931 99.8606 L808.931 87.8236 Q816.05 91.8166 822.878 93.8421 Q829.707 95.8675 836.304 95.8675 Q846.316 95.8675 851.755 91.9324 Q857.195 87.9972 857.195 80.7056 Q857.195 74.3399 853.26 70.7519 Q849.383 67.164 840.471 65.37 L833.353 63.9811 Q820.274 61.377 814.429 55.8215 Q808.584 50.2659 808.584 40.3702 Q808.584 28.9119 816.628 22.3147 Q824.73 15.7175 838.908 15.7175 Q844.985 15.7175 851.292 16.817 Q857.6 17.9166 864.197 20.1156 Z" fill="#bebebe" fill-rule="evenodd" fill-opacity="1" /><path clip-path="url(#clip970)" d="M 0 0 M936.014 68.6107 L936.014 73.819 L887.056 73.819 Q887.751 84.8144 893.653 90.6014 Q899.614 96.3305 910.204 96.3305 Q916.338 96.3305 922.067 94.8259 Q927.854 93.3213 933.526 90.312 L933.526 100.381 Q927.797 102.812 921.778 104.085 Q915.76 105.358 909.568 105.358 Q894.058 105.358 884.973 96.3305 Q875.945 87.3028 875.945 71.9093 Q875.945 55.9951 884.51 46.678 Q893.132 37.303 907.716 37.303 Q920.794 37.303 928.375 45.7521 Q936.014 54.1432 936.014 68.6107 M925.366 65.4858 Q925.25 56.7474 920.447 51.5391 Q915.702 46.3308 907.831 46.3308 Q898.919 46.3308 893.538 51.3655 Q888.213 56.4002 887.403 65.5436 L925.366 65.4858 Z" fill="#bebebe" fill-rule="evenodd" fill-opacity="1" /><path clip-path="url(#clip970)" d="M 0 0 M984.741 48.8192 Q982.947 47.7775 980.806 47.3146 Q978.722 46.7937 976.176 46.7937 Q967.148 46.7937 962.287 52.6965 Q957.484 58.5414 957.484 69.5367 L957.484 103.68 L946.778 103.68 L946.778 38.8655 L957.484 38.8655 L957.484 48.9349 Q960.84 43.0322 966.222 40.1965 Q971.604 37.303 979.301 37.303 Q980.4 37.303 981.731 37.4767 Q983.062 37.5924 984.683 37.8817 L984.741 48.8192 Z" fill="#bebebe" fill-rule="evenodd" fill-opacity="1" /><path clip-path="url(#clip970)" d="M 0 0 M995.91 38.8655 L1006.56 38.8655 L1006.56 103.68 L995.91 103.68 L995.91 38.8655 M995.91 13.6342 L1006.56 13.6342 L1006.56 27.1179 L995.91 27.1179 L995.91 13.6342 Z" fill="#bebebe" fill-rule="evenodd" fill-opacity="1" /><path clip-path="url(#clip970)" d="M 0 0 M1073.17 68.6107 L1073.17 73.819 L1024.21 73.819 Q1024.9 84.8144 1030.81 90.6014 Q1036.77 96.3305 1047.36 96.3305 Q1053.49 96.3305 1059.22 94.8259 Q1065.01 93.3213 1070.68 90.312 L1070.68 100.381 Q1064.95 102.812 1058.93 104.085 Q1052.91 105.358 1046.72 105.358 Q1031.21 105.358 1022.12 96.3305 Q1013.1 87.3028 1013.1 71.9093 Q1013.1 55.9951 1021.66 46.678 Q1030.28 37.303 1044.87 37.303 Q1057.95 37.303 1065.53 45.7521 Q1073.17 54.1432 1073.17 68.6107 M1062.52 65.4858 Q1062.4 56.7474 1057.6 51.5391 Q1052.85 46.3308 1044.98 46.3308 Q1036.07 46.3308 1030.69 51.3655 Q1025.37 56.4002 1024.56 65.5436 L1062.52 65.4858 Z" fill="#bebebe" fill-rule="evenodd" fill-opacity="1" /><path clip-path="url(#clip970)" d="M 0 0 M1132.08 17.28 L1132.08 49.3979 L1122.24 49.3979 L1122.24 17.28 L1132.08 17.28 Z" fill="#bebebe" fill-rule="evenodd" fill-opacity="1" /><path clip-path="url(#clip970)" d="M 0 0 M1197.12 64.5598 L1197.12 103.68 L1186.48 103.68 L1186.48 64.9071 Q1186.48 55.7057 1182.89 51.134 Q1179.3 46.5623 1172.12 46.5623 Q1163.5 46.5623 1158.52 52.0599 Q1153.55 57.5576 1153.55 67.0483 L1153.55 103.68 L1142.84 103.68 L1142.84 13.6342 L1153.55 13.6342 L1153.55 48.9349 Q1157.37 43.09 1162.52 40.1965 Q1167.73 37.303 1174.5 37.303 Q1185.67 37.303 1191.39 44.2474 Q1197.12 51.134 1197.12 64.5598 Z" fill="#bebebe" fill-rule="evenodd" fill-opacity="1" /><path clip-path="url(#clip970)" d="M 0 0 M1208.29 38.8655 L1218.94 38.8655 L1218.94 103.68 L1208.29 103.68 L1208.29 38.8655 M1208.29 13.6342 L1218.94 13.6342 L1218.94 27.1179 L1208.29 27.1179 L1208.29 13.6342 Z" fill="#bebebe" fill-rule="evenodd" fill-opacity="1" /><path clip-path="url(#clip970)" d="M 0 0 M1271.43 40.7752 L1271.43 50.8446 Q1266.92 48.5298 1262.05 47.3724 Q1257.19 46.215 1251.98 46.215 Q1244.06 46.215 1240.06 48.6456 Q1236.13 51.0761 1236.13 55.9372 Q1236.13 59.6409 1238.96 61.7821 Q1241.8 63.8654 1250.36 65.7751 L1254.01 66.5853 Q1265.35 69.0158 1270.1 73.4718 Q1274.9 77.87 1274.9 85.7982 Q1274.9 94.8259 1267.73 100.092 Q1260.61 105.358 1248.11 105.358 Q1242.9 105.358 1237.23 104.317 Q1231.61 103.333 1225.36 101.307 L1225.36 90.312 Q1231.27 93.3791 1237 94.9416 Q1242.73 96.4462 1248.34 96.4462 Q1255.86 96.4462 1259.91 93.9 Q1263.96 91.2958 1263.96 86.6083 Q1263.96 82.2681 1261.01 79.9533 Q1258.12 77.6385 1248.22 75.4973 L1244.52 74.6292 Q1234.62 72.5459 1230.23 68.2635 Q1225.83 63.9233 1225.83 56.4002 Q1225.83 47.2567 1232.31 42.2799 Q1238.79 37.303 1250.71 37.303 Q1256.61 37.303 1261.82 38.1711 Q1267.03 39.0391 1271.43 40.7752 Z" fill="#bebebe" fill-rule="evenodd" fill-opacity="1" /><path clip-path="url(#clip970)" d="M 0 0 M1296.6 20.4629 L1296.6 38.8655 L1318.54 38.8655 L1318.54 47.141 L1296.6 47.141 L1296.6 82.3259 Q1296.6 90.2541 1298.74 92.5111 Q1300.94 94.768 1307.6 94.768 L1318.54 94.768 L1318.54 103.68 L1307.6 103.68 Q1295.27 103.68 1290.58 99.1083 Q1285.9 94.4787 1285.9 82.3259 L1285.9 47.141 L1278.08 47.141 L1278.08 38.8655 L1285.9 38.8655 L1285.9 20.4629 L1296.6 20.4629 Z" fill="#bebebe" fill-rule="evenodd" fill-opacity="1" /><path clip-path="url(#clip970)" d="M 0 0 M1354.82 46.3308 Q1346.25 46.3308 1341.28 53.0437 Q1336.3 59.6988 1336.3 71.3306 Q1336.3 82.9625 1341.22 89.6754 Q1346.2 96.3305 1354.82 96.3305 Q1363.33 96.3305 1368.3 89.6176 Q1373.28 82.9046 1373.28 71.3306 Q1373.28 59.8145 1368.3 53.1016 Q1363.33 46.3308 1354.82 46.3308 M1354.82 37.303 Q1368.71 37.303 1376.64 46.3308 Q1384.56 55.3585 1384.56 71.3306 Q1384.56 87.2449 1376.64 96.3305 Q1368.71 105.358 1354.82 105.358 Q1340.87 105.358 1332.94 96.3305 Q1325.07 87.2449 1325.07 71.3306 Q1325.07 55.3585 1332.94 46.3308 Q1340.87 37.303 1354.82 37.303 Z" fill="#bebebe" fill-rule="evenodd" fill-opacity="1" /><path clip-path="url(#clip970)" d="M 0 0 M1438.38 70.5205 Q1438.38 58.9464 1433.58 52.5807 Q1428.84 46.215 1420.21 46.215 Q1411.65 46.215 1406.84 52.5807 Q1402.1 58.9464 1402.1 70.5205 Q1402.1 82.0366 1406.84 88.4023 Q1411.65 94.768 1420.21 94.768 Q1428.84 94.768 1433.58 88.4023 Q1438.38 82.0366 1438.38 70.5205 M1449.03 95.6361 Q1449.03 112.187 1441.68 120.231 Q1434.33 128.333 1419.17 128.333 Q1413.56 128.333 1408.58 127.465 Q1403.6 126.654 1398.92 124.918 L1398.92 114.56 Q1403.6 117.106 1408.18 118.321 Q1412.75 119.536 1417.49 119.536 Q1427.97 119.536 1433.18 114.039 Q1438.38 108.599 1438.38 97.5458 L1438.38 92.2796 Q1435.09 98.0087 1429.94 100.844 Q1424.78 103.68 1417.61 103.68 Q1405.69 103.68 1398.4 94.5944 Q1391.1 85.5088 1391.1 70.5205 Q1391.1 55.4742 1398.4 46.3886 Q1405.69 37.303 1417.61 37.303 Q1424.78 37.303 1429.94 40.1387 Q1435.09 42.9743 1438.38 48.7034 L1438.38 38.8655 L1449.03 38.8655 L1449.03 95.6361 Z" fill="#bebebe" fill-rule="evenodd" fill-opacity="1" /><path clip-path="url(#clip970)" d="M 0 0 M1497.76 48.8192 Q1495.96 47.7775 1493.82 47.3146 Q1491.74 46.7937 1489.19 46.7937 Q1480.17 46.7937 1475.31 52.6965 Q1470.5 58.5414 1470.5 69.5367 L1470.5 103.68 L1459.8 103.68 L1459.8 38.8655 L1470.5 38.8655 L1470.5 48.9349 Q1473.86 43.0322 1479.24 40.1965 Q1484.62 37.303 1492.32 37.303 Q1493.42 37.303 1494.75 37.4767 Q1496.08 37.5924 1497.7 37.8817 L1497.76 48.8192 Z" fill="#bebebe" fill-rule="evenodd" fill-opacity="1" /><path clip-path="url(#clip970)" d="M 0 0 M1538.38 71.0992 Q1525.48 71.0992 1520.5 74.0505 Q1515.52 77.0019 1515.52 84.1199 Q1515.52 89.7912 1519.23 93.1476 Q1522.99 96.4462 1529.41 96.4462 Q1538.27 96.4462 1543.59 90.1963 Q1548.97 83.8884 1548.97 73.4718 L1548.97 71.0992 L1538.38 71.0992 M1559.62 66.701 L1559.62 103.68 L1548.97 103.68 L1548.97 93.8421 Q1545.33 99.7448 1539.89 102.58 Q1534.45 105.358 1526.58 105.358 Q1516.62 105.358 1510.72 99.8027 Q1504.88 94.1893 1504.88 84.8144 Q1504.88 73.8769 1512.17 68.3214 Q1519.52 62.7659 1534.04 62.7659 L1548.97 62.7659 L1548.97 61.7242 Q1548.97 54.3747 1544.11 50.3817 Q1539.31 46.3308 1530.57 46.3308 Q1525.02 46.3308 1519.75 47.6618 Q1514.48 48.9928 1509.62 51.6548 L1509.62 41.8169 Q1515.47 39.56 1520.96 38.4604 Q1526.46 37.303 1531.67 37.303 Q1545.73 37.303 1552.68 44.5947 Q1559.62 51.8863 1559.62 66.701 Z" fill="#bebebe" fill-rule="evenodd" fill-opacity="1" /><path clip-path="url(#clip970)" d="M 0 0 M1621.25 51.3076 Q1625.25 44.1317 1630.8 40.7174 Q1636.36 37.303 1643.88 37.303 Q1654.01 37.303 1659.51 44.4211 Q1665 51.4812 1665 64.5598 L1665 103.68 L1654.3 103.68 L1654.3 64.9071 Q1654.3 55.59 1651 51.0761 Q1647.7 46.5623 1640.93 46.5623 Q1632.65 46.5623 1627.85 52.0599 Q1623.05 57.5576 1623.05 67.0483 L1623.05 103.68 L1612.34 103.68 L1612.34 64.9071 Q1612.34 55.5321 1609.04 51.0761 Q1605.74 46.5623 1598.86 46.5623 Q1590.7 46.5623 1585.89 52.1178 Q1581.09 57.6154 1581.09 67.0483 L1581.09 103.68 L1570.39 103.68 L1570.39 38.8655 L1581.09 38.8655 L1581.09 48.9349 Q1584.74 42.9743 1589.83 40.1387 Q1594.92 37.303 1601.92 37.303 Q1608.99 37.303 1613.9 40.891 Q1618.88 44.4789 1621.25 51.3076 Z" fill="#bebebe" fill-rule="evenodd" fill-opacity="1" /><path clip-path="url(#clip970)" d="M 0 0 M1686.24 17.28 L1686.24 49.3979 L1676.4 49.3979 L1676.4 17.28 L1686.24 17.28 Z" fill="#bebebe" fill-rule="evenodd" fill-opacity="1" /><path clip-path="url(#clip972)" d="
M263.662 1158.66 L263.662 1444.41 L657.162 1444.41 L657.162 1158.66 L263.662 1158.66 L263.662 1158.66  Z
  " fill="#e69f00" fill-rule="evenodd" fill-opacity="1"/>
<polyline clip-path="url(#clip972)" style="stroke:#000000; stroke-width:4; stroke-opacity:1; fill:none" points="
  263.662,1158.66 263.662,1444.41 657.162,1444.41 657.162,1158.66 263.662,1158.66 
  "/>
<path clip-path="url(#clip972)" d="
M657.162 815.76 L657.162 1444.41 L1050.66 1444.41 L1050.66 815.76 L657.162 815.76 L657.162 815.76  Z
  " fill="#e69f00" fill-rule="evenodd" fill-opacity="1"/>
<polyline clip-path="url(#clip972)" style="stroke:#000000; stroke-width:4; stroke-opacity:1; fill:none" points="
  657.162,815.76 657.162,1444.41 1050.66,1444.41 1050.66,815.76 657.162,815.76 
  "/>
<path clip-path="url(#clip972)" d="
M1050.66 872.91 L1050.66 1444.41 L1444.16 1444.41 L1444.16 872.91 L1050.66 872.91 L1050.66 872.91  Z
  " fill="#e69f00" fill-rule="evenodd" fill-opacity="1"/>
<polyline clip-path="url(#clip972)" style="stroke:#000000; stroke-width:4; stroke-opacity:1; fill:none" points="
  1050.66,872.91 1050.66,1444.41 1444.16,1444.41 1444.16,872.91 1050.66,872.91 
  "/>
<path clip-path="url(#clip972)" d="
M1444.16 187.111 L1444.16 1444.41 L1837.66 1444.41 L1837.66 187.111 L1444.16 187.111 L1444.16 187.111  Z
  " fill="#e69f00" fill-rule="evenodd" fill-opacity="1"/>
<polyline clip-path="url(#clip972)" style="stroke:#000000; stroke-width:4; stroke-opacity:1; fill:none" points="
  1444.16,187.111 1444.16,1444.41 1837.66,1444.41 1837.66,187.111 1444.16,187.111 
  "/>
<path clip-path="url(#clip972)" d="
M1837.66 1330.11 L1837.66 1444.41 L2231.16 1444.41 L2231.16 1330.11 L1837.66 1330.11 L1837.66 1330.11  Z
  " fill="#e69f00" fill-rule="evenodd" fill-opacity="1"/>
<polyline clip-path="url(#clip972)" style="stroke:#000000; stroke-width:4; stroke-opacity:1; fill:none" points="
  1837.66,1330.11 1837.66,1444.41 2231.16,1444.41 2231.16,1330.11 1837.66,1330.11 
  "/>
<path clip-path="url(#clip970)" d="
M1982.42 314.777 L2279.07 314.777 L2279.07 193.817 L1982.42 193.817  Z
  " fill="#ffffff" fill-rule="evenodd" fill-opacity="1"/>
<polyline clip-path="url(#clip970)" style="stroke:#000000; stroke-width:4; stroke-opacity:1; fill:none" points="
  1982.42,314.777 2279.07,314.777 2279.07,193.817 1982.42,193.817 1982.42,314.777 
  "/>
<path clip-path="url(#clip970)" d="
M2006.98 278.489 L2154.36 278.489 L2154.36 230.105 L2006.98 230.105 L2006.98 278.489  Z
  " fill="#e69f00" fill-rule="evenodd" fill-opacity="1"/>
<polyline clip-path="url(#clip970)" style="stroke:#000000; stroke-width:4; stroke-opacity:1; fill:none" points="
  2006.98,278.489 2154.36,278.489 2154.36,230.105 2006.98,230.105 2006.98,278.489 
  "/>
<path clip-path="url(#clip970)" d="M 0 0 M2192.76 273.984 Q2190.96 278.614 2189.25 280.026 Q2187.53 281.438 2184.66 281.438 L2181.26 281.438 L2181.26 277.873 L2183.76 277.873 Q2185.52 277.873 2186.49 277.04 Q2187.46 276.206 2188.64 273.104 L2189.41 271.16 L2178.92 245.651 L2183.44 245.651 L2191.54 265.929 L2199.64 245.651 L2204.15 245.651 L2192.76 273.984 Z" fill="#bebebe" fill-rule="evenodd" fill-opacity="1" /><path clip-path="url(#clip970)" d="M 0 0 M2210.03 267.641 L2217.67 267.641 L2217.67 241.276 L2209.36 242.943 L2209.36 238.683 L2217.63 237.017 L2222.3 237.017 L2222.3 267.641 L2229.94 267.641 L2229.94 271.577 L2210.03 271.577 L2210.03 267.641 Z" fill="#bebebe" fill-rule="evenodd" fill-opacity="1" /></svg>
