<?xml version="1.0" encoding="utf-8"?>
<svg xmlns="http://www.w3.org/2000/svg" xmlns:xlink="http://www.w3.org/1999/xlink" width="150" height="100" viewBox="0 0 600 400">
<defs>
  <clipPath id="clip500">
    <rect x="0" y="0" width="600" height="400"/>
  </clipPath>
</defs>
<path clip-path="url(#clip500)" d="
M0 400 L600 400 L600 0 L0 0  Z
  " fill="#ffffff" fill-rule="evenodd" fill-opacity="1"/>
<defs>
  <clipPath id="clip501">
    <rect x="120" y="0" width="421" height="400"/>
  </clipPath>
</defs>
<path clip-path="url(#clip500)" d="
M51.4307 355.795 L588.189 355.795 L588.189 30.868 L51.4307 30.868  Z
  " fill="#ffffff" fill-rule="evenodd" fill-opacity="1"/>
<defs>
  <clipPath id="clip502">
    <rect x="51" y="30" width="538" height="326"/>
  </clipPath>
</defs>
<polyline clip-path="url(#clip502)" style="stroke:#000000; stroke-width:0.5; stroke-opacity:0.1; fill:none" points="
  88.4082,355.795 88.4082,30.868 
  "/>
<polyline clip-path="url(#clip502)" style="stroke:#000000; stroke-width:0.5; stroke-opacity:0.1; fill:none" points="
  165.286,355.795 165.286,30.868 
  "/>
<polyline clip-path="url(#clip502)" style="stroke:#000000; stroke-width:0.5; stroke-opacity:0.1; fill:none" points="
  242.163,355.795 242.163,30.868 
  "/>
<polyline clip-path="url(#clip502)" style="stroke:#000000; stroke-width:0.5; stroke-opacity:0.1; fill:none" points="
  319.04,355.795 319.04,30.868 
  "/>
<polyline clip-path="url(#clip502)" style="stroke:#000000; stroke-width:0.5; stroke-opacity:0.1; fill:none" points="
  395.918,355.795 395.918,30.868 
  "/>
<polyline clip-path="url(#clip502)" style="stroke:#000000; stroke-width:0.5; stroke-opacity:0.1; fill:none" points="
  472.795,355.795 472.795,30.868 
  "/>
<polyline clip-path="url(#clip502)" style="stroke:#000000; stroke-width:0.5; stroke-opacity:0.1; fill:none" points="
  549.673,355.795 549.673,30.868 
  "/>
<polyline clip-path="url(#clip500)" style="stroke:#000000; stroke-width:1; stroke-opacity:1; fill:none" points="
  51.4307,355.795 588.189,355.795 
  "/>
<polyline clip-path="url(#clip500)" style="stroke:#000000; stroke-width:1; stroke-opacity:1; fill:none" points="
  88.4082,355.795 88.4082,351.896 
  "/>
<polyline clip-path="url(#clip500)" style="stroke:#000000; stroke-width:1; stroke-opacity:1; fill:none" points="
  165.286,355.795 165.286,351.896 
  "/>
<polyline clip-path="url(#clip500)" style="stroke:#000000; stroke-width:1; stroke-opacity:1; fill:none" points="
  242.163,355.795 242.163,351.896 
  "/>
<polyline clip-path="url(#clip500)" style="stroke:#000000; stroke-width:1; stroke-opacity:1; fill:none" points="
  319.04,355.795 319.04,351.896 
  "/>
<polyline clip-path="url(#clip500)" style="stroke:#000000; stroke-width:1; stroke-opacity:1; fill:none" points="
  395.918,355.795 395.918,351.896 
  "/>
<polyline clip-path="url(#clip500)" style="stroke:#000000; stroke-width:1; stroke-opacity:1; fill:none" points="
  472.795,355.795 472.795,351.896 
  "/>
<polyline clip-path="url(#clip500)" style="stroke:#000000; stroke-width:1; stroke-opacity:1; fill:none" points="
  549.673,355.795 549.673,351.896 
  "/>
<path clip-path="url(#clip500)" d="M 0 0 M81.403 366.756 L88.822 366.756 L88.822 367.74 L81.403 367.74 L81.403 366.756 Z" fill="#000000" fill-rule="evenodd" fill-opacity="1" /><path clip-path="url(#clip500)" d="M 0 0 M93.631 366.304 Q94.4701 366.484 94.9388 367.051 Q95.4134 367.618 95.4134 368.451 Q95.4134 369.73 94.5338 370.431 Q93.6541 371.131 92.0338 371.131 Q91.4898 371.131 90.9111 371.021 Q90.3382 370.917 89.7248 370.703 L89.7248 369.574 Q90.2109 369.858 90.7896 370.002 Q91.3683 370.147 91.999 370.147 Q93.0986 370.147 93.6715 369.713 Q94.2502 369.279 94.2502 368.451 Q94.2502 367.688 93.712 367.259 Q93.1796 366.825 92.2247 366.825 L91.2178 366.825 L91.2178 365.865 L92.271 365.865 Q93.1333 365.865 93.5905 365.523 Q94.0476 365.176 94.0476 364.528 Q94.0476 363.862 93.5731 363.509 Q93.1044 363.151 92.2247 363.151 Q91.7444 363.151 91.1947 363.255 Q90.6449 363.359 89.9852 363.579 L89.9852 362.537 Q90.6507 362.352 91.2294 362.259 Q91.8139 362.167 92.3289 362.167 Q93.6599 362.167 94.4354 362.774 Q95.2108 363.376 95.2108 364.406 Q95.2108 365.124 94.8 365.622 Q94.3891 366.113 93.631 366.304 Z" fill="#000000" fill-rule="evenodd" fill-opacity="1" /><path clip-path="url(#clip500)" d="M 0 0 M158.399 366.756 L165.818 366.756 L165.818 367.74 L158.399 367.74 L158.399 366.756 Z" fill="#000000" fill-rule="evenodd" fill-opacity="1" /><path clip-path="url(#clip500)" d="M 0 0 M168.092 369.979 L172.172 369.979 L172.172 370.963 L166.686 370.963 L166.686 369.979 Q167.352 369.291 168.497 368.133 Q169.649 366.97 169.944 366.634 Q170.506 366.003 170.725 365.569 Q170.951 365.13 170.951 364.707 Q170.951 364.019 170.465 363.585 Q169.985 363.151 169.209 363.151 Q168.659 363.151 168.046 363.341 Q167.438 363.532 166.744 363.92 L166.744 362.74 Q167.45 362.456 168.063 362.311 Q168.677 362.167 169.186 362.167 Q170.529 362.167 171.327 362.838 Q172.126 363.509 172.126 364.632 Q172.126 365.164 171.923 365.645 Q171.727 366.119 171.2 366.767 Q171.055 366.935 170.28 367.74 Q169.504 368.538 168.092 369.979 Z" fill="#000000" fill-rule="evenodd" fill-opacity="1" /><path clip-path="url(#clip500)" d="M 0 0 M235.23 366.756 L242.649 366.756 L242.649 367.74 L235.23 367.74 L235.23 366.756 Z" fill="#000000" fill-rule="evenodd" fill-opacity="1" /><path clip-path="url(#clip500)" d="M 0 0 M244.119 369.979 L246.029 369.979 L246.029 363.388 L243.951 363.804 L243.951 362.74 L246.017 362.323 L247.186 362.323 L247.186 369.979 L249.096 369.979 L249.096 370.963 L244.119 370.963 L244.119 369.979 Z" fill="#000000" fill-rule="evenodd" fill-opacity="1" /><path clip-path="url(#clip500)" d="M 0 0 M319.04 363.093 Q318.138 363.093 317.681 363.984 Q317.229 364.869 317.229 366.652 Q317.229 368.428 317.681 369.319 Q318.138 370.205 319.04 370.205 Q319.949 370.205 320.4 369.319 Q320.858 368.428 320.858 366.652 Q320.858 364.869 320.4 363.984 Q319.949 363.093 319.04 363.093 M319.04 362.167 Q320.493 362.167 321.257 363.318 Q322.027 364.464 322.027 366.652 Q322.027 368.833 321.257 369.985 Q320.493 371.131 319.04 371.131 Q317.588 371.131 316.818 369.985 Q316.054 368.833 316.054 366.652 Q316.054 364.464 316.818 363.318 Q317.588 362.167 319.04 362.167 Z" fill="#000000" fill-rule="evenodd" fill-opacity="1" /><path clip-path="url(#clip500)" d="M 0 0 M393.513 369.979 L395.423 369.979 L395.423 363.388 L393.346 363.804 L393.346 362.74 L395.412 362.323 L396.581 362.323 L396.581 369.979 L398.49 369.979 L398.49 370.963 L393.513 370.963 L393.513 369.979 Z" fill="#000000" fill-rule="evenodd" fill-opacity="1" /><path clip-path="url(#clip500)" d="M 0 0 M471.459 369.979 L475.538 369.979 L475.538 370.963 L470.052 370.963 L470.052 369.979 Q470.718 369.291 471.864 368.133 Q473.015 366.97 473.31 366.634 Q473.872 366.003 474.092 365.569 Q474.317 365.13 474.317 364.707 Q474.317 364.019 473.831 363.585 Q473.351 363.151 472.575 363.151 Q472.026 363.151 471.412 363.341 Q470.805 363.532 470.11 363.92 L470.11 362.74 Q470.816 362.456 471.43 362.311 Q472.043 362.167 472.552 362.167 Q473.895 362.167 474.693 362.838 Q475.492 363.509 475.492 364.632 Q475.492 365.164 475.29 365.645 Q475.093 366.119 474.566 366.767 Q474.421 366.935 473.646 367.74 Q472.871 368.538 471.459 369.979 Z" fill="#000000" fill-rule="evenodd" fill-opacity="1" /><path clip-path="url(#clip500)" d="M 0 0 M550.735 366.304 Q551.574 366.484 552.043 367.051 Q552.517 367.618 552.517 368.451 Q552.517 369.73 551.637 370.431 Q550.758 371.131 549.137 371.131 Q548.593 371.131 548.015 371.021 Q547.442 370.917 546.828 370.703 L546.828 369.574 Q547.315 369.858 547.893 370.002 Q548.472 370.147 549.103 370.147 Q550.202 370.147 550.775 369.713 Q551.354 369.279 551.354 368.451 Q551.354 367.688 550.816 367.259 Q550.283 366.825 549.328 366.825 L548.322 366.825 L548.322 365.865 L549.375 365.865 Q550.237 365.865 550.694 365.523 Q551.151 365.176 551.151 364.528 Q551.151 363.862 550.677 363.509 Q550.208 363.151 549.328 363.151 Q548.848 363.151 548.298 363.255 Q547.749 363.359 547.089 363.579 L547.089 362.537 Q547.754 362.352 548.333 362.259 Q548.918 362.167 549.433 362.167 Q550.764 362.167 551.539 362.774 Q552.315 363.376 552.315 364.406 Q552.315 365.124 551.904 365.622 Q551.493 366.113 550.735 366.304 Z" fill="#000000" fill-rule="evenodd" fill-opacity="1" /><path clip-path="url(#clip500)" d="M 0 0 M307.043 383.441 Q307.56 383.616 308.045 384.189 Q308.539 384.762 309.032 385.764 L310.663 389.011 L308.936 389.011 L307.417 385.963 Q306.828 384.77 306.271 384.38 Q305.722 383.99 304.767 383.99 L303.016 383.99 L303.016 389.011 L301.409 389.011 L301.409 377.131 L305.037 377.131 Q307.074 377.131 308.077 377.982 Q309.08 378.834 309.08 380.553 Q309.08 381.674 308.554 382.414 Q308.037 383.155 307.043 383.441 M303.016 378.452 L303.016 382.669 L305.037 382.669 Q306.199 382.669 306.788 382.136 Q307.385 381.595 307.385 380.553 Q307.385 379.51 306.788 378.985 Q306.199 378.452 305.037 378.452 L303.016 378.452 Z" fill="#000000" fill-rule="evenodd" fill-opacity="1" /><path clip-path="url(#clip500)" d="M 0 0 M319.09 384.189 L319.09 384.905 L312.358 384.905 Q312.453 386.417 313.265 387.213 Q314.085 388 315.541 388 Q316.384 388 317.172 387.794 Q317.968 387.587 318.748 387.173 L318.748 388.557 Q317.96 388.892 317.132 389.067 Q316.305 389.242 315.453 389.242 Q313.321 389.242 312.072 388 Q310.83 386.759 310.83 384.642 Q310.83 382.454 312.008 381.173 Q313.193 379.884 315.199 379.884 Q316.997 379.884 318.039 381.046 Q319.09 382.2 319.09 384.189 M317.626 383.759 Q317.61 382.558 316.949 381.842 Q316.297 381.125 315.215 381.125 Q313.989 381.125 313.249 381.818 Q312.517 382.51 312.406 383.767 L317.626 383.759 Z" fill="#000000" fill-rule="evenodd" fill-opacity="1" /><path clip-path="url(#clip500)" d="M 0 0 M324.143 376.646 Q323.076 378.476 322.559 380.266 Q322.042 382.056 322.042 383.895 Q322.042 385.733 322.559 387.539 Q323.084 389.337 324.143 391.159 L322.869 391.159 Q321.676 389.289 321.079 387.483 Q320.49 385.677 320.49 383.895 Q320.49 382.12 321.079 380.322 Q321.668 378.523 322.869 376.646 L324.143 376.646 Z" fill="#000000" fill-rule="evenodd" fill-opacity="1" /><path clip-path="url(#clip500)" d="M 0 0 M333.086 380.099 L329.864 384.436 L333.253 389.011 L331.527 389.011 L328.933 385.51 L326.339 389.011 L324.612 389.011 L328.073 384.348 L324.906 380.099 L326.633 380.099 L328.996 383.274 L331.36 380.099 L333.086 380.099 Z" fill="#000000" fill-rule="evenodd" fill-opacity="1" /><path clip-path="url(#clip500)" d="M 0 0 M334.558 376.646 L335.832 376.646 Q337.025 378.523 337.614 380.322 Q338.211 382.12 338.211 383.895 Q338.211 385.677 337.614 387.483 Q337.025 389.289 335.832 391.159 L334.558 391.159 Q335.617 389.337 336.134 387.539 Q336.659 385.733 336.659 383.895 Q336.659 382.056 336.134 380.266 Q335.617 378.476 334.558 376.646 Z" fill="#000000" fill-rule="evenodd" fill-opacity="1" /><polyline clip-path="url(#clip502)" style="stroke:#000000; stroke-width:0.5; stroke-opacity:0.1; fill:none" points="
  51.4307,347.189 588.189,347.189 
  "/>
<polyline clip-path="url(#clip502)" style="stroke:#000000; stroke-width:0.5; stroke-opacity:0.1; fill:none" points="
  51.4307,270.311 588.189,270.311 
  "/>
<polyline clip-path="url(#clip502)" style="stroke:#000000; stroke-width:0.5; stroke-opacity:0.1; fill:none" points="
  51.4307,193.434 588.189,193.434 
  "/>
<polyline clip-path="url(#clip502)" style="stroke:#000000; stroke-width:0.5; stroke-opacity:0.1; fill:none" points="
  51.4307,116.556 588.189,116.556 
  "/>
<polyline clip-path="url(#clip502)" style="stroke:#000000; stroke-width:0.5; stroke-opacity:0.1; fill:none" points="
  51.4307,39.6789 588.189,39.6789 
  "/>
<polyline clip-path="url(#clip500)" style="stroke:#000000; stroke-width:1; stroke-opacity:1; fill:none" points="
  51.4307,355.795 51.4307,30.868 
  "/>
<polyline clip-path="url(#clip500)" style="stroke:#000000; stroke-width:1; stroke-opacity:1; fill:none" points="
  51.4307,347.189 57.8718,347.189 
  "/>
<polyline clip-path="url(#clip500)" style="stroke:#000000; stroke-width:1; stroke-opacity:1; fill:none" points="
  51.4307,270.311 57.8718,270.311 
  "/>
<polyline clip-path="url(#clip500)" style="stroke:#000000; stroke-width:1; stroke-opacity:1; fill:none" points="
  51.4307,193.434 57.8718,193.434 
  "/>
<polyline clip-path="url(#clip500)" style="stroke:#000000; stroke-width:1; stroke-opacity:1; fill:none" points="
  51.4307,116.556 57.8718,116.556 
  "/>
<polyline clip-path="url(#clip500)" style="stroke:#000000; stroke-width:1; stroke-opacity:1; fill:none" points="
  51.4307,39.6789 57.8718,39.6789 
  "/>
<path clip-path="url(#clip500)" d="M 0 0 M28.6576 347.301 L36.0766 347.301 L36.0766 348.285 L28.6576 348.285 L28.6576 347.301 Z" fill="#000000" fill-rule="evenodd" fill-opacity="1" /><path clip-path="url(#clip500)" d="M 0 0 M38.3509 350.525 L42.4307 350.525 L42.4307 351.509 L36.9446 351.509 L36.9446 350.525 Q37.6101 349.836 38.756 348.679 Q39.9076 347.516 40.2027 347.18 Q40.764 346.549 40.984 346.115 Q41.2096 345.675 41.2096 345.253 Q41.2096 344.564 40.7235 344.13 Q40.2432 343.696 39.4678 343.696 Q38.918 343.696 38.3046 343.887 Q37.6969 344.078 37.0025 344.466 L37.0025 343.285 Q37.7085 343.002 38.3219 342.857 Q38.9354 342.712 39.4446 342.712 Q40.7872 342.712 41.5858 343.384 Q42.3844 344.055 42.3844 345.178 Q42.3844 345.71 42.1819 346.19 Q41.9851 346.665 41.4585 347.313 Q41.3138 347.481 40.5384 348.285 Q39.7629 349.084 38.3509 350.525 Z" fill="#000000" fill-rule="evenodd" fill-opacity="1" /><path clip-path="url(#clip500)" d="M 0 0 M28.565 270.424 L35.984 270.424 L35.984 271.408 L28.565 271.408 L28.565 270.424 Z" fill="#000000" fill-rule="evenodd" fill-opacity="1" /><path clip-path="url(#clip500)" d="M 0 0 M37.4539 273.647 L39.3636 273.647 L39.3636 267.056 L37.2861 267.473 L37.2861 266.408 L39.352 265.991 L40.521 265.991 L40.521 273.647 L42.4307 273.647 L42.4307 274.631 L37.4539 274.631 L37.4539 273.647 Z" fill="#000000" fill-rule="evenodd" fill-opacity="1" /><path clip-path="url(#clip500)" d="M 0 0 M39.4446 189.883 Q38.5418 189.883 38.0847 190.775 Q37.6333 191.66 37.6333 193.442 Q37.6333 195.219 38.0847 196.11 Q38.5418 196.996 39.4446 196.996 Q40.3532 196.996 40.8046 196.11 Q41.2617 195.219 41.2617 193.442 Q41.2617 191.66 40.8046 190.775 Q40.3532 189.883 39.4446 189.883 M39.4446 188.958 Q40.8971 188.958 41.661 190.109 Q42.4307 191.255 42.4307 193.442 Q42.4307 195.624 41.661 196.776 Q40.8971 197.922 39.4446 197.922 Q37.9921 197.922 37.2224 196.776 Q36.4585 195.624 36.4585 193.442 Q36.4585 191.255 37.2224 190.109 Q37.9921 188.958 39.4446 188.958 Z" fill="#000000" fill-rule="evenodd" fill-opacity="1" /><path clip-path="url(#clip500)" d="M 0 0 M37.4539 119.893 L39.3636 119.893 L39.3636 113.301 L37.2861 113.718 L37.2861 112.653 L39.352 112.236 L40.521 112.236 L40.521 119.893 L42.4307 119.893 L42.4307 120.876 L37.4539 120.876 L37.4539 119.893 Z" fill="#000000" fill-rule="evenodd" fill-opacity="1" /><path clip-path="url(#clip500)" d="M 0 0 M38.3509 43.0151 L42.4307 43.0151 L42.4307 43.9989 L36.9446 43.9989 L36.9446 43.0151 Q37.6101 42.3265 38.756 41.1691 Q39.9076 40.0059 40.2027 39.6702 Q40.764 39.0395 40.984 38.6054 Q41.2096 38.1656 41.2096 37.7432 Q41.2096 37.0545 40.7235 36.6205 Q40.2432 36.1865 39.4678 36.1865 Q38.918 36.1865 38.3046 36.3774 Q37.6969 36.5684 37.0025 36.9561 L37.0025 35.7756 Q37.7085 35.492 38.3219 35.3473 Q38.9354 35.2027 39.4446 35.2027 Q40.7872 35.2027 41.5858 35.874 Q42.3844 36.5453 42.3844 37.6679 Q42.3844 38.2003 42.1819 38.6807 Q41.9851 39.1552 41.4585 39.8033 Q41.3138 39.9712 40.5384 40.7756 Q39.7629 41.5742 38.3509 43.0151 Z" fill="#000000" fill-rule="evenodd" fill-opacity="1" /><path clip-path="url(#clip500)" d="M 0 0 M10.121 210.941 L10.121 209.333 L22.001 209.333 L22.001 210.941 L10.121 210.941 Z" fill="#000000" fill-rule="evenodd" fill-opacity="1" /><path clip-path="url(#clip500)" d="M 0 0 M14.7998 200.859 Q13.8131 200.31 13.3437 199.546 Q12.8742 198.782 12.8742 197.748 Q12.8742 196.355 13.8529 195.599 Q14.8237 194.843 16.622 194.843 L22.001 194.843 L22.001 196.315 L16.6698 196.315 Q15.3887 196.315 14.768 196.769 Q14.1473 197.223 14.1473 198.154 Q14.1473 199.291 14.9033 199.952 Q15.6592 200.612 16.9642 200.612 L22.001 200.612 L22.001 202.084 L16.6698 202.084 Q15.3807 202.084 14.768 202.538 Q14.1473 202.991 14.1473 203.938 Q14.1473 205.06 14.9112 205.721 Q15.6672 206.381 16.9642 206.381 L22.001 206.381 L22.001 207.853 L13.0891 207.853 L13.0891 206.381 L14.4736 206.381 Q13.654 205.88 13.2641 205.18 Q12.8742 204.479 12.8742 203.517 Q12.8742 202.546 13.3675 201.87 Q13.8609 201.185 14.7998 200.859 Z" fill="#000000" fill-rule="evenodd" fill-opacity="1" /><path clip-path="url(#clip500)" d="M 0 0 M9.63565 189.791 Q11.4658 190.857 13.2561 191.374 Q15.0465 191.891 16.8846 191.891 Q18.7227 191.891 20.529 191.374 Q22.3273 190.849 24.1495 189.791 L24.1495 191.064 Q22.2795 192.257 20.4733 192.854 Q18.667 193.443 16.8846 193.443 Q15.1102 193.443 13.3118 192.854 Q11.5135 192.265 9.63565 191.064 L9.63565 189.791 Z" fill="#000000" fill-rule="evenodd" fill-opacity="1" /><path clip-path="url(#clip500)" d="M 0 0 M13.0891 180.847 L17.4257 184.069 L22.001 180.68 L22.001 182.406 L18.4999 185 L22.001 187.594 L22.001 189.321 L17.3382 185.86 L13.0891 189.027 L13.0891 187.3 L16.2639 184.937 L13.0891 182.573 L13.0891 180.847 Z" fill="#000000" fill-rule="evenodd" fill-opacity="1" /><path clip-path="url(#clip500)" d="M 0 0 M9.63565 179.375 L9.63565 178.102 Q11.5135 176.908 13.3118 176.319 Q15.1102 175.722 16.8846 175.722 Q18.667 175.722 20.4733 176.319 Q22.2795 176.908 24.1495 178.102 L24.1495 179.375 Q22.3273 178.316 20.529 177.799 Q18.7227 177.274 16.8846 177.274 Q15.0465 177.274 13.2561 177.799 Q11.4658 178.316 9.63565 179.375 Z" fill="#000000" fill-rule="evenodd" fill-opacity="1" /><path clip-path="url(#clip500)" d="M 0 0 M243.871 15.9869 L243.871 11.9259 L240.529 11.9259 L240.529 10.2447 L245.896 10.2447 L245.896 16.7363 Q244.711 17.5769 243.283 18.0123 Q241.855 18.4377 240.235 18.4377 Q236.69 18.4377 234.685 16.3717 Q232.69 14.2956 232.69 10.5992 Q232.69 6.89261 234.685 4.82665 Q236.69 2.75056 240.235 2.75056 Q241.713 2.75056 243.04 3.11515 Q244.377 3.47973 245.501 4.18863 L245.501 6.366 Q244.367 5.40391 243.091 4.9178 Q241.815 4.43169 240.407 4.43169 Q237.632 4.43169 236.235 5.98116 Q234.847 7.53063 234.847 10.5992 Q234.847 13.6576 236.235 15.2071 Q237.632 16.7566 240.407 16.7566 Q241.491 16.7566 242.341 16.5743 Q243.192 16.3819 243.871 15.9869 Z" fill="#000000" fill-rule="evenodd" fill-opacity="1" /><path clip-path="url(#clip500)" d="M 0 0 M254.423 8.54336 Q254.109 8.36107 253.735 8.28005 Q253.37 8.1889 252.924 8.1889 Q251.344 8.1889 250.494 9.22188 Q249.653 10.2447 249.653 12.1689 L249.653 18.144 L247.78 18.144 L247.78 6.80147 L249.653 6.80147 L249.653 8.56361 Q250.241 7.53063 251.182 7.0344 Q252.124 6.52803 253.471 6.52803 Q253.664 6.52803 253.897 6.55841 Q254.129 6.57867 254.413 6.6293 L254.423 8.54336 Z" fill="#000000" fill-rule="evenodd" fill-opacity="1" /><path clip-path="url(#clip500)" d="M 0 0 M261.533 12.4424 Q259.274 12.4424 258.403 12.9588 Q257.532 13.4753 257.532 14.721 Q257.532 15.7135 258.18 16.3008 Q258.839 16.8781 259.963 16.8781 Q261.512 16.8781 262.444 15.7843 Q263.386 14.6805 263.386 12.8576 L263.386 12.4424 L261.533 12.4424 M265.249 11.6727 L265.249 18.144 L263.386 18.144 L263.386 16.4224 Q262.748 17.4553 261.796 17.9516 Q260.844 18.4377 259.467 18.4377 Q257.725 18.4377 256.692 17.4655 Q255.669 16.4831 255.669 14.8425 Q255.669 12.9285 256.945 11.9562 Q258.231 10.984 260.773 10.984 L263.386 10.984 L263.386 10.8017 Q263.386 9.51557 262.535 8.81679 Q261.695 8.10788 260.165 8.10788 Q259.193 8.10788 258.272 8.34081 Q257.35 8.57374 256.499 9.03959 L256.499 7.31796 Q257.522 6.923 258.484 6.73058 Q259.446 6.52803 260.358 6.52803 Q262.819 6.52803 264.034 7.80407 Q265.249 9.0801 265.249 11.6727 M261.846 1.55555 L263.862 1.55555 L260.56 5.3634 L259.011 5.3634 L261.846 1.55555 Z" fill="#000000" fill-rule="evenodd" fill-opacity="1" /><path clip-path="url(#clip500)" d="M 0 0 M272.946 2.38598 L272.946 3.93545 L271.164 3.93545 Q270.161 3.93545 269.766 4.34054 Q269.381 4.74563 269.381 5.79887 L269.381 6.80147 L272.45 6.80147 L272.45 8.24967 L269.381 8.24967 L269.381 18.144 L267.508 18.144 L267.508 8.24967 L265.725 8.24967 L265.725 6.80147 L267.508 6.80147 L267.508 6.01154 Q267.508 4.11774 268.389 3.25693 Q269.27 2.38598 271.184 2.38598 L272.946 2.38598 Z" fill="#000000" fill-rule="evenodd" fill-opacity="1" /><path clip-path="url(#clip500)" d="M 0 0 M274.901 6.80147 L276.764 6.80147 L276.764 18.144 L274.901 18.144 L274.901 6.80147 M274.901 2.38598 L276.764 2.38598 L276.764 4.74563 L274.901 4.74563 L274.901 2.38598 Z" fill="#000000" fill-rule="evenodd" fill-opacity="1" /><path clip-path="url(#clip500)" d="M 0 0 M286.881 7.23694 L286.881 8.97883 Q286.091 8.54336 285.291 8.33068 Q284.501 8.10788 283.691 8.10788 Q281.878 8.10788 280.876 9.26239 Q279.873 10.4068 279.873 12.4829 Q279.873 14.5589 280.876 15.7135 Q281.878 16.8578 283.691 16.8578 Q284.501 16.8578 285.291 16.6452 Q286.091 16.4224 286.881 15.9869 L286.881 17.7085 Q286.101 18.0731 285.261 18.2554 Q284.43 18.4377 283.488 18.4377 Q280.926 18.4377 279.417 16.8275 Q277.908 15.2172 277.908 12.4829 Q277.908 9.70799 279.427 8.11801 Q280.957 6.52803 283.61 6.52803 Q284.471 6.52803 285.291 6.71032 Q286.111 6.88249 286.881 7.23694 Z" fill="#000000" fill-rule="evenodd" fill-opacity="1" /><path clip-path="url(#clip500)" d="M 0 0 M293.99 12.4424 Q291.732 12.4424 290.861 12.9588 Q289.99 13.4753 289.99 14.721 Q289.99 15.7135 290.638 16.3008 Q291.297 16.8781 292.421 16.8781 Q293.97 16.8781 294.902 15.7843 Q295.844 14.6805 295.844 12.8576 L295.844 12.4424 L293.99 12.4424 M297.707 11.6727 L297.707 18.144 L295.844 18.144 L295.844 16.4224 Q295.206 17.4553 294.254 17.9516 Q293.302 18.4377 291.924 18.4377 Q290.183 18.4377 289.15 17.4655 Q288.127 16.4831 288.127 14.8425 Q288.127 12.9285 289.403 11.9562 Q290.689 10.984 293.231 10.984 L295.844 10.984 L295.844 10.8017 Q295.844 9.51557 294.993 8.81679 Q294.152 8.10788 292.623 8.10788 Q291.651 8.10788 290.729 8.34081 Q289.808 8.57374 288.957 9.03959 L288.957 7.31796 Q289.98 6.923 290.942 6.73058 Q291.904 6.52803 292.816 6.52803 Q295.277 6.52803 296.492 7.80407 Q297.707 9.0801 297.707 11.6727 Z" fill="#000000" fill-rule="evenodd" fill-opacity="1" /><path clip-path="url(#clip500)" d="M 0 0 M313.718 8.5231 L313.718 2.38598 L315.582 2.38598 L315.582 18.144 L313.718 18.144 L313.718 16.4426 Q313.131 17.4553 312.23 17.9516 Q311.338 18.4377 310.083 18.4377 Q308.027 18.4377 306.73 16.7971 Q305.444 15.1565 305.444 12.4829 Q305.444 9.80926 306.73 8.16865 Q308.027 6.52803 310.083 6.52803 Q311.338 6.52803 312.23 7.02427 Q313.131 7.51038 313.718 8.5231 M307.369 12.4829 Q307.369 14.5387 308.209 15.7135 Q309.06 16.8781 310.538 16.8781 Q312.017 16.8781 312.868 15.7135 Q313.718 14.5387 313.718 12.4829 Q313.718 10.427 312.868 9.26239 Q312.017 8.08763 310.538 8.08763 Q309.06 8.08763 308.209 9.26239 Q307.369 10.427 307.369 12.4829 Z" fill="#000000" fill-rule="evenodd" fill-opacity="1" /><path clip-path="url(#clip500)" d="M 0 0 M327.238 12.0069 L327.238 12.9183 L318.671 12.9183 Q318.792 14.8425 319.825 15.8552 Q320.868 16.8578 322.721 16.8578 Q323.795 16.8578 324.798 16.5945 Q325.81 16.3312 326.803 15.8046 L326.803 17.5667 Q325.8 17.9921 324.747 18.2149 Q323.694 18.4377 322.61 18.4377 Q319.896 18.4377 318.306 16.8578 Q316.726 15.278 316.726 12.5841 Q316.726 9.79914 318.225 8.16865 Q319.734 6.52803 322.286 6.52803 Q324.575 6.52803 325.901 8.00661 Q327.238 9.47506 327.238 12.0069 M325.375 11.46 Q325.355 9.93079 324.514 9.01934 Q323.684 8.10788 322.306 8.10788 Q320.747 8.10788 319.805 8.98896 Q318.873 9.87003 318.731 11.4701 L325.375 11.46 Z" fill="#000000" fill-rule="evenodd" fill-opacity="1" /><path clip-path="url(#clip500)" d="M 0 0 M335.867 3.024 L345.427 3.024 L345.427 4.74563 L337.912 4.74563 L337.912 9.22188 L345.113 9.22188 L345.113 10.9435 L337.912 10.9435 L337.912 16.4224 L345.609 16.4224 L345.609 18.144 L335.867 18.144 L335.867 3.024 Z" fill="#000000" fill-rule="evenodd" fill-opacity="1" /><path clip-path="url(#clip500)" d="M 0 0 M347.564 6.80147 L349.427 6.80147 L349.427 18.3465 Q349.427 20.5138 348.597 21.486 Q347.776 22.4582 345.943 22.4582 L345.234 22.4582 L345.234 20.8784 L345.731 20.8784 Q346.794 20.8784 347.179 20.3821 Q347.564 19.896 347.564 18.3465 L347.564 6.80147 M347.564 2.38598 L349.427 2.38598 L349.427 4.74563 L347.564 4.74563 L347.564 2.38598 Z" fill="#000000" fill-rule="evenodd" fill-opacity="1" /><path clip-path="url(#clip500)" d="M 0 0 M361.083 12.0069 L361.083 12.9183 L352.516 12.9183 Q352.637 14.8425 353.67 15.8552 Q354.713 16.8578 356.567 16.8578 Q357.64 16.8578 358.643 16.5945 Q359.656 16.3312 360.648 15.8046 L360.648 17.5667 Q359.645 17.9921 358.592 18.2149 Q357.539 18.4377 356.455 18.4377 Q353.741 18.4377 352.151 16.8578 Q350.571 15.278 350.571 12.5841 Q350.571 9.79914 352.07 8.16865 Q353.579 6.52803 356.131 6.52803 Q358.42 6.52803 359.747 8.00661 Q361.083 9.47506 361.083 12.0069 M359.22 11.46 Q359.2 9.93079 358.359 9.01934 Q357.529 8.10788 356.152 8.10788 Q354.592 8.10788 353.65 8.98896 Q352.718 9.87003 352.577 11.4701 L359.22 11.46 Z" fill="#000000" fill-rule="evenodd" fill-opacity="1" /><path clip-path="url(#clip500)" d="M 0 0 M371.869 8.97883 Q372.568 7.72305 373.54 7.12554 Q374.512 6.52803 375.829 6.52803 Q377.601 6.52803 378.563 7.77369 Q379.525 9.00921 379.525 11.298 L379.525 18.144 L377.652 18.144 L377.652 11.3587 Q377.652 9.72825 377.074 8.93832 Q376.497 8.14839 375.312 8.14839 Q373.864 8.14839 373.024 9.11048 Q372.183 10.0726 372.183 11.7334 L372.183 18.144 L370.309 18.144 L370.309 11.3587 Q370.309 9.71812 369.732 8.93832 Q369.155 8.14839 367.95 8.14839 Q366.522 8.14839 365.681 9.12061 Q364.841 10.0827 364.841 11.7334 L364.841 18.144 L362.967 18.144 L362.967 6.80147 L364.841 6.80147 L364.841 8.56361 Q365.479 7.5205 366.37 7.02427 Q367.261 6.52803 368.487 6.52803 Q369.722 6.52803 370.583 7.15592 Q371.454 7.78381 371.869 8.97883 Z" fill="#000000" fill-rule="evenodd" fill-opacity="1" /><path clip-path="url(#clip500)" d="M 0 0 M383.282 16.4426 L383.282 22.4582 L381.409 22.4582 L381.409 6.80147 L383.282 6.80147 L383.282 8.5231 Q383.87 7.51038 384.761 7.02427 Q385.662 6.52803 386.908 6.52803 Q388.974 6.52803 390.26 8.16865 Q391.556 9.80926 391.556 12.4829 Q391.556 15.1565 390.26 16.7971 Q388.974 18.4377 386.908 18.4377 Q385.662 18.4377 384.761 17.9516 Q383.87 17.4553 383.282 16.4426 M389.622 12.4829 Q389.622 10.427 388.771 9.26239 Q387.931 8.08763 386.452 8.08763 Q384.974 8.08763 384.123 9.26239 Q383.282 10.427 383.282 12.4829 Q383.282 14.5387 384.123 15.7135 Q384.974 16.8781 386.452 16.8781 Q387.931 16.8781 388.771 15.7135 Q389.622 14.5387 389.622 12.4829 Z" fill="#000000" fill-rule="evenodd" fill-opacity="1" /><path clip-path="url(#clip500)" d="M 0 0 M393.511 2.38598 L395.374 2.38598 L395.374 18.144 L393.511 18.144 L393.511 2.38598 Z" fill="#000000" fill-rule="evenodd" fill-opacity="1" /><path clip-path="url(#clip500)" d="M 0 0 M401.724 8.10788 Q400.225 8.10788 399.354 9.28265 Q398.483 10.4473 398.483 12.4829 Q398.483 14.5184 399.344 15.6932 Q400.215 16.8578 401.724 16.8578 Q403.213 16.8578 404.084 15.6831 Q404.955 14.5083 404.955 12.4829 Q404.955 10.4675 404.084 9.29277 Q403.213 8.10788 401.724 8.10788 M401.724 6.52803 Q404.155 6.52803 405.542 8.10788 Q406.93 9.68774 406.93 12.4829 Q406.93 15.2679 405.542 16.8578 Q404.155 18.4377 401.724 18.4377 Q399.284 18.4377 397.896 16.8578 Q396.519 15.2679 396.519 12.4829 Q396.519 9.68774 397.896 8.10788 Q399.284 6.52803 401.724 6.52803 Z" fill="#000000" fill-rule="evenodd" fill-opacity="1" /><circle clip-path="url(#clip502)" cx="472.795" cy="193.434" r="3" fill="#ffffff" fill-rule="evenodd" fill-opacity="1" stroke="#0000ff" stroke-opacity="1" stroke-width="0.8"/>
<circle clip-path="url(#clip502)" cx="465.928" cy="147.996" r="3" fill="#ffffff" fill-rule="evenodd" fill-opacity="1" stroke="#0000ff" stroke-opacity="1" stroke-width="0.8"/>
<circle clip-path="url(#clip502)" cx="445.94" cy="106.617" r="3" fill="#ffffff" fill-rule="evenodd" fill-opacity="1" stroke="#0000ff" stroke-opacity="1" stroke-width="0.8"/>
<circle clip-path="url(#clip502)" cx="414.616" cy="72.9935" r="3" fill="#ffffff" fill-rule="evenodd" fill-opacity="1" stroke="#0000ff" stroke-opacity="1" stroke-width="0.8"/>
<circle clip-path="url(#clip502)" cx="374.755" cy="50.1282" r="3" fill="#ffffff" fill-rule="evenodd" fill-opacity="1" stroke="#0000ff" stroke-opacity="1" stroke-width="0.8"/>
<circle clip-path="url(#clip502)" cx="329.917" cy="40.0641" r="3" fill="#ffffff" fill-rule="evenodd" fill-opacity="1" stroke="#0000ff" stroke-opacity="1" stroke-width="0.8"/>
<circle clip-path="url(#clip502)" cx="284.107" cy="43.7" r="3" fill="#ffffff" fill-rule="evenodd" fill-opacity="1" stroke="#0000ff" stroke-opacity="1" stroke-width="0.8"/>
<circle clip-path="url(#clip502)" cx="241.418" cy="60.7111" r="3" fill="#ffffff" fill-rule="evenodd" fill-opacity="1" stroke="#0000ff" stroke-opacity="1" stroke-width="0.8"/>
<circle clip-path="url(#clip502)" cx="205.663" cy="89.578" r="3" fill="#ffffff" fill-rule="evenodd" fill-opacity="1" stroke="#0000ff" stroke-opacity="1" stroke-width="0.8"/>
<circle clip-path="url(#clip502)" cx="180.035" cy="127.722" r="3" fill="#ffffff" fill-rule="evenodd" fill-opacity="1" stroke="#0000ff" stroke-opacity="1" stroke-width="0.8"/>
<circle clip-path="url(#clip502)" cx="166.824" cy="171.736" r="3" fill="#ffffff" fill-rule="evenodd" fill-opacity="1" stroke="#0000ff" stroke-opacity="1" stroke-width="0.8"/>
<circle clip-path="url(#clip502)" cx="167.211" cy="217.688" r="3" fill="#ffffff" fill-rule="evenodd" fill-opacity="1" stroke="#0000ff" stroke-opacity="1" stroke-width="0.8"/>
<circle clip-path="url(#clip502)" cx="181.16" cy="261.473" r="3" fill="#ffffff" fill-rule="evenodd" fill-opacity="1" stroke="#0000ff" stroke-opacity="1" stroke-width="0.8"/>
<circle clip-path="url(#clip502)" cx="207.425" cy="299.181" r="3" fill="#ffffff" fill-rule="evenodd" fill-opacity="1" stroke="#0000ff" stroke-opacity="1" stroke-width="0.8"/>
<circle clip-path="url(#clip502)" cx="243.661" cy="327.443" r="3" fill="#ffffff" fill-rule="evenodd" fill-opacity="1" stroke="#0000ff" stroke-opacity="1" stroke-width="0.8"/>
<circle clip-path="url(#clip502)" cx="286.63" cy="343.734" r="3" fill="#ffffff" fill-rule="evenodd" fill-opacity="1" stroke="#0000ff" stroke-opacity="1" stroke-width="0.8"/>
<circle clip-path="url(#clip502)" cx="332.494" cy="346.599" r="3" fill="#ffffff" fill-rule="evenodd" fill-opacity="1" stroke="#0000ff" stroke-opacity="1" stroke-width="0.8"/>
<circle clip-path="url(#clip502)" cx="377.156" cy="335.782" r="3" fill="#ffffff" fill-rule="evenodd" fill-opacity="1" stroke="#0000ff" stroke-opacity="1" stroke-width="0.8"/>
<circle clip-path="url(#clip502)" cx="416.628" cy="312.25" r="3" fill="#ffffff" fill-rule="evenodd" fill-opacity="1" stroke="#0000ff" stroke-opacity="1" stroke-width="0.8"/>
<circle clip-path="url(#clip502)" cx="447.382" cy="278.104" r="3" fill="#ffffff" fill-rule="evenodd" fill-opacity="1" stroke="#0000ff" stroke-opacity="1" stroke-width="0.8"/>
<circle clip-path="url(#clip502)" cx="466.671" cy="236.395" r="3" fill="#ffffff" fill-rule="evenodd" fill-opacity="1" stroke="#0000ff" stroke-opacity="1" stroke-width="0.8"/>
<path clip-path="url(#clip500)" d="
M497.903 71.9389 L570.297 71.9389 L570.297 41.6989 L497.903 41.6989  Z
  " fill="#ffffff" fill-rule="evenodd" fill-opacity="1"/>
<polyline clip-path="url(#clip500)" style="stroke:#000000; stroke-width:1; stroke-opacity:1; fill:none" points="
  497.903,71.9389 570.297,71.9389 570.297,41.6989 497.903,41.6989 497.903,71.9389 
  "/>
<circle clip-path="url(#clip500)" cx="521.759" cy="56.8189" r="5" fill="#ffffff" fill-rule="evenodd" fill-opacity="1" stroke="#0000ff" stroke-opacity="1" stroke-width="1.28"/>
<path clip-path="url(#clip500)" d="M 0 0 M549.075 61.7408 Q548.624 62.8982 548.196 63.2512 Q547.767 63.6042 547.05 63.6042 L546.199 63.6042 L546.199 62.713 L546.824 62.713 Q547.264 62.713 547.507 62.5047 Q547.75 62.2963 548.045 61.5209 L548.236 61.0348 L545.615 54.6575 L546.743 54.6575 L548.768 59.7269 L550.794 54.6575 L551.922 54.6575 L549.075 61.7408 Z" fill="#000000" fill-rule="evenodd" fill-opacity="1" /><path clip-path="url(#clip500)" d="M 0 0 M553.392 60.1551 L555.302 60.1551 L555.302 53.5637 L553.224 53.9804 L553.224 52.9156 L555.29 52.4989 L556.459 52.4989 L556.459 60.1551 L558.369 60.1551 L558.369 61.1389 L553.392 61.1389 L553.392 60.1551 Z" fill="#000000" fill-rule="evenodd" fill-opacity="1" /></svg>
