<?xml version="1.0" encoding="utf-8"?>
<svg xmlns="http://www.w3.org/2000/svg" xmlns:xlink="http://www.w3.org/1999/xlink" width="2600" height="2000" viewBox="0 0 10400 8000">
<defs>
  <clipPath id="clip940">
    <rect x="0" y="0" width="10400" height="8000"/>
  </clipPath>
</defs>
<path clip-path="url(#clip940)" d="
M0 8000 L10400 8000 L10400 0 L0 0  Z
  " fill="#ffffff" fill-rule="evenodd" fill-opacity="1"/>
<defs>
  <clipPath id="clip941">
    <rect x="2080" y="0" width="7281" height="7281"/>
  </clipPath>
</defs>
<path clip-path="url(#clip940)" d="
M1020.36 7342.8 L10352.8 7342.8 L10352.8 312.223 L1020.36 312.223  Z
  " fill="#ffffff" fill-rule="evenodd" fill-opacity="1"/>
<defs>
  <clipPath id="clip942">
    <rect x="1020" y="312" width="9333" height="7032"/>
  </clipPath>
</defs>
<polyline clip-path="url(#clip942)" style="stroke:#000000; stroke-width:2; stroke-opacity:0.1; fill:none" points="
  2024.76,7342.8 2024.76,312.223 
  "/>
<polyline clip-path="url(#clip942)" style="stroke:#000000; stroke-width:2; stroke-opacity:0.1; fill:none" points="
  3876.96,7342.8 3876.96,312.223 
  "/>
<polyline clip-path="url(#clip942)" style="stroke:#000000; stroke-width:2; stroke-opacity:0.1; fill:none" points="
  5729.16,7342.8 5729.16,312.223 
  "/>
<polyline clip-path="url(#clip942)" style="stroke:#000000; stroke-width:2; stroke-opacity:0.1; fill:none" points="
  7581.36,7342.8 7581.36,312.223 
  "/>
<polyline clip-path="url(#clip942)" style="stroke:#000000; stroke-width:2; stroke-opacity:0.1; fill:none" points="
  9433.57,7342.8 9433.57,312.223 
  "/>
<polyline clip-path="url(#clip940)" style="stroke:#000000; stroke-width:4; stroke-opacity:1; fill:none" points="
  1020.36,7342.8 10352.8,7342.8 
  "/>
<polyline clip-path="url(#clip940)" style="stroke:#000000; stroke-width:4; stroke-opacity:1; fill:none" points="
  2024.76,7342.8 2024.76,7258.43 
  "/>
<polyline clip-path="url(#clip940)" style="stroke:#000000; stroke-width:4; stroke-opacity:1; fill:none" points="
  3876.96,7342.8 3876.96,7258.43 
  "/>
<polyline clip-path="url(#clip940)" style="stroke:#000000; stroke-width:4; stroke-opacity:1; fill:none" points="
  5729.16,7342.8 5729.16,7258.43 
  "/>
<polyline clip-path="url(#clip940)" style="stroke:#000000; stroke-width:4; stroke-opacity:1; fill:none" points="
  7581.36,7342.8 7581.36,7258.43 
  "/>
<polyline clip-path="url(#clip940)" style="stroke:#000000; stroke-width:4; stroke-opacity:1; fill:none" points="
  9433.57,7342.8 9433.57,7258.43 
  "/>
<path clip-path="url(#clip940)" d="M 0 0 M1730.56 7580.02 L1916.03 7580.02 L1916.03 7604.61 L1730.56 7604.61 L1730.56 7580.02 Z" fill="#000000" fill-rule="evenodd" fill-opacity="1" /><path clip-path="url(#clip940)" d="M 0 0 M2010.22 7488.44 Q1987.65 7488.44 1976.22 7510.72 Q1964.94 7532.86 1964.94 7577.42 Q1964.94 7621.83 1976.22 7644.11 Q1987.65 7666.25 2010.22 7666.25 Q2032.93 7666.25 2044.22 7644.11 Q2055.65 7621.83 2055.65 7577.42 Q2055.65 7532.86 2044.22 7510.72 Q2032.93 7488.44 2010.22 7488.44 M2010.22 7465.29 Q2046.53 7465.29 2065.63 7494.08 Q2084.87 7522.73 2084.87 7577.42 Q2084.87 7631.96 2065.63 7660.75 Q2046.53 7689.39 2010.22 7689.39 Q1973.91 7689.39 1954.66 7660.75 Q1935.57 7631.96 1935.57 7577.42 Q1935.57 7522.73 1954.66 7494.08 Q1973.91 7465.29 2010.22 7465.29 Z" fill="#000000" fill-rule="evenodd" fill-opacity="1" /><path clip-path="url(#clip940)" d="M 0 0 M2116.55 7648.45 L2147.08 7648.45 L2147.08 7685.2 L2116.55 7685.2 L2116.55 7648.45 Z" fill="#000000" fill-rule="evenodd" fill-opacity="1" /><path clip-path="url(#clip940)" d="M 0 0 M2259.06 7494.66 L2185.28 7609.97 L2259.06 7609.97 L2259.06 7494.66 M2251.39 7469.2 L2288.14 7469.2 L2288.14 7609.97 L2318.96 7609.97 L2318.96 7634.27 L2288.14 7634.27 L2288.14 7685.2 L2259.06 7685.2 L2259.06 7634.27 L2161.55 7634.27 L2161.55 7606.06 L2251.39 7469.2 Z" fill="#000000" fill-rule="evenodd" fill-opacity="1" /><path clip-path="url(#clip940)" d="M 0 0 M3589.27 7580.02 L3774.75 7580.02 L3774.75 7604.61 L3589.27 7604.61 L3589.27 7580.02 Z" fill="#000000" fill-rule="evenodd" fill-opacity="1" /><path clip-path="url(#clip940)" d="M 0 0 M3868.93 7488.44 Q3846.36 7488.44 3834.93 7510.72 Q3823.65 7532.86 3823.65 7577.42 Q3823.65 7621.83 3834.93 7644.11 Q3846.36 7666.25 3868.93 7666.25 Q3891.64 7666.25 3902.93 7644.11 Q3914.36 7621.83 3914.36 7577.42 Q3914.36 7532.86 3902.93 7510.72 Q3891.64 7488.44 3868.93 7488.44 M3868.93 7465.29 Q3905.24 7465.29 3924.34 7494.08 Q3943.58 7522.73 3943.58 7577.42 Q3943.58 7631.96 3924.34 7660.75 Q3905.24 7689.39 3868.93 7689.39 Q3832.62 7689.39 3813.38 7660.75 Q3794.28 7631.96 3794.28 7577.42 Q3794.28 7522.73 3813.38 7494.08 Q3832.62 7465.29 3868.93 7465.29 Z" fill="#000000" fill-rule="evenodd" fill-opacity="1" /><path clip-path="url(#clip940)" d="M 0 0 M3975.27 7648.45 L4005.79 7648.45 L4005.79 7685.2 L3975.27 7685.2 L3975.27 7648.45 Z" fill="#000000" fill-rule="evenodd" fill-opacity="1" /><path clip-path="url(#clip940)" d="M 0 0 M4062.65 7660.6 L4164.65 7660.6 L4164.65 7685.2 L4027.49 7685.2 L4027.49 7660.6 Q4044.13 7643.39 4072.78 7614.45 Q4101.57 7585.37 4108.95 7576.98 Q4122.98 7561.21 4128.48 7550.36 Q4134.12 7539.37 4134.12 7528.8 Q4134.12 7511.59 4121.97 7500.74 Q4109.96 7489.89 4090.57 7489.89 Q4076.83 7489.89 4061.49 7494.66 Q4046.3 7499.44 4028.94 7509.13 L4028.94 7479.61 Q4046.59 7472.53 4061.93 7468.91 Q4077.26 7465.29 4089.99 7465.29 Q4123.56 7465.29 4143.52 7482.07 Q4163.49 7498.86 4163.49 7526.92 Q4163.49 7540.23 4158.43 7552.24 Q4153.51 7564.11 4140.34 7580.31 Q4136.72 7584.5 4117.34 7604.61 Q4097.95 7624.58 4062.65 7660.6 Z" fill="#000000" fill-rule="evenodd" fill-opacity="1" /><path clip-path="url(#clip940)" d="M 0 0 M5613.64 7488.44 Q5591.07 7488.44 5579.64 7510.72 Q5568.36 7532.86 5568.36 7577.42 Q5568.36 7621.83 5579.64 7644.11 Q5591.07 7666.25 5613.64 7666.25 Q5636.35 7666.25 5647.64 7644.11 Q5659.07 7621.83 5659.07 7577.42 Q5659.07 7532.86 5647.64 7510.72 Q5636.35 7488.44 5613.64 7488.44 M5613.64 7465.29 Q5649.95 7465.29 5669.05 7494.08 Q5688.29 7522.73 5688.29 7577.42 Q5688.29 7631.96 5669.05 7660.75 Q5649.95 7689.39 5613.64 7689.39 Q5577.33 7689.39 5558.08 7660.75 Q5538.99 7631.96 5538.99 7577.42 Q5538.99 7522.73 5558.08 7494.08 Q5577.33 7465.29 5613.64 7465.29 Z" fill="#000000" fill-rule="evenodd" fill-opacity="1" /><path clip-path="url(#clip940)" d="M 0 0 M5719.98 7648.45 L5750.5 7648.45 L5750.5 7685.2 L5719.98 7685.2 L5719.98 7648.45 Z" fill="#000000" fill-rule="evenodd" fill-opacity="1" /><path clip-path="url(#clip940)" d="M 0 0 M5844.69 7488.44 Q5822.12 7488.44 5810.69 7510.72 Q5799.4 7532.86 5799.4 7577.42 Q5799.4 7621.83 5810.69 7644.11 Q5822.12 7666.25 5844.69 7666.25 Q5867.4 7666.25 5878.68 7644.11 Q5890.11 7621.83 5890.11 7577.42 Q5890.11 7532.86 5878.68 7510.72 Q5867.4 7488.44 5844.69 7488.44 M5844.69 7465.29 Q5881 7465.29 5900.1 7494.08 Q5919.34 7522.73 5919.34 7577.42 Q5919.34 7631.96 5900.1 7660.75 Q5881 7689.39 5844.69 7689.39 Q5808.37 7689.39 5789.13 7660.75 Q5770.03 7631.96 5770.03 7577.42 Q5770.03 7522.73 5789.13 7494.08 Q5808.37 7465.29 5844.69 7465.29 Z" fill="#000000" fill-rule="evenodd" fill-opacity="1" /><path clip-path="url(#clip940)" d="M 0 0 M7470.83 7488.44 Q7448.26 7488.44 7436.83 7510.72 Q7425.55 7532.86 7425.55 7577.42 Q7425.55 7621.83 7436.83 7644.11 Q7448.26 7666.25 7470.83 7666.25 Q7493.55 7666.25 7504.83 7644.11 Q7516.26 7621.83 7516.26 7577.42 Q7516.26 7532.86 7504.83 7510.72 Q7493.55 7488.44 7470.83 7488.44 M7470.83 7465.29 Q7507.15 7465.29 7526.24 7494.08 Q7545.49 7522.73 7545.49 7577.42 Q7545.49 7631.96 7526.24 7660.75 Q7507.15 7689.39 7470.83 7689.39 Q7434.52 7689.39 7415.28 7660.75 Q7396.18 7631.96 7396.18 7577.42 Q7396.18 7522.73 7415.28 7494.08 Q7434.52 7465.29 7470.83 7465.29 Z" fill="#000000" fill-rule="evenodd" fill-opacity="1" /><path clip-path="url(#clip940)" d="M 0 0 M7577.17 7648.45 L7607.7 7648.45 L7607.7 7685.2 L7577.17 7685.2 L7577.17 7648.45 Z" fill="#000000" fill-rule="evenodd" fill-opacity="1" /><path clip-path="url(#clip940)" d="M 0 0 M7664.55 7660.6 L7766.55 7660.6 L7766.55 7685.2 L7629.4 7685.2 L7629.4 7660.6 Q7646.03 7643.39 7674.68 7614.45 Q7703.47 7585.37 7710.85 7576.98 Q7724.88 7561.21 7730.38 7550.36 Q7736.02 7539.37 7736.02 7528.8 Q7736.02 7511.59 7723.87 7500.74 Q7711.86 7489.89 7692.48 7489.89 Q7678.73 7489.89 7663.4 7494.66 Q7648.2 7499.44 7630.84 7509.13 L7630.84 7479.61 Q7648.49 7472.53 7663.83 7468.91 Q7679.17 7465.29 7691.9 7465.29 Q7725.46 7465.29 7745.43 7482.07 Q7765.39 7498.86 7765.39 7526.92 Q7765.39 7540.23 7760.33 7552.24 Q7755.41 7564.11 7742.24 7580.31 Q7738.63 7584.5 7719.24 7604.61 Q7699.85 7624.58 7664.55 7660.6 Z" fill="#000000" fill-rule="evenodd" fill-opacity="1" /><path clip-path="url(#clip940)" d="M 0 0 M9316.52 7488.44 Q9293.96 7488.44 9282.53 7510.72 Q9271.24 7532.86 9271.24 7577.42 Q9271.24 7621.83 9282.53 7644.11 Q9293.96 7666.25 9316.52 7666.25 Q9339.24 7666.25 9350.52 7644.11 Q9361.95 7621.83 9361.95 7577.42 Q9361.95 7532.86 9350.52 7510.72 Q9339.24 7488.44 9316.52 7488.44 M9316.52 7465.29 Q9352.84 7465.29 9371.94 7494.08 Q9391.18 7522.73 9391.18 7577.42 Q9391.18 7631.96 9371.94 7660.75 Q9352.84 7689.39 9316.52 7689.39 Q9280.21 7689.39 9260.97 7660.75 Q9241.87 7631.96 9241.87 7577.42 Q9241.87 7522.73 9260.97 7494.08 Q9280.21 7465.29 9316.52 7465.29 Z" fill="#000000" fill-rule="evenodd" fill-opacity="1" /><path clip-path="url(#clip940)" d="M 0 0 M9422.86 7648.45 L9453.39 7648.45 L9453.39 7685.2 L9422.86 7685.2 L9422.86 7648.45 Z" fill="#000000" fill-rule="evenodd" fill-opacity="1" /><path clip-path="url(#clip940)" d="M 0 0 M9565.37 7494.66 L9491.58 7609.97 L9565.37 7609.97 L9565.37 7494.66 M9557.7 7469.2 L9594.45 7469.2 L9594.45 7609.97 L9625.26 7609.97 L9625.26 7634.27 L9594.45 7634.27 L9594.45 7685.2 L9565.37 7685.2 L9565.37 7634.27 L9467.85 7634.27 L9467.85 7606.06 L9557.7 7469.2 Z" fill="#000000" fill-rule="evenodd" fill-opacity="1" /><path clip-path="url(#clip940)" d="M 0 0 M5762.08 7867.96 L5703.49 7946.81 L5765.12 8030 L5733.72 8030 L5686.56 7966.34 L5639.4 8030 L5608 8030 L5670.94 7945.22 L5613.35 7867.96 L5644.75 7867.96 L5687.72 7925.69 L5730.69 7867.96 L5762.08 7867.96 Z" fill="#000000" fill-rule="evenodd" fill-opacity="1" /><polyline clip-path="url(#clip942)" style="stroke:#000000; stroke-width:2; stroke-opacity:0.1; fill:none" points="
  1020.36,7116.34 10352.8,7116.34 
  "/>
<polyline clip-path="url(#clip942)" style="stroke:#000000; stroke-width:2; stroke-opacity:0.1; fill:none" points="
  1020.36,5619.4 10352.8,5619.4 
  "/>
<polyline clip-path="url(#clip942)" style="stroke:#000000; stroke-width:2; stroke-opacity:0.1; fill:none" points="
  1020.36,4122.45 10352.8,4122.45 
  "/>
<polyline clip-path="url(#clip942)" style="stroke:#000000; stroke-width:2; stroke-opacity:0.1; fill:none" points="
  1020.36,2625.51 10352.8,2625.51 
  "/>
<polyline clip-path="url(#clip942)" style="stroke:#000000; stroke-width:2; stroke-opacity:0.1; fill:none" points="
  1020.36,1128.57 10352.8,1128.57 
  "/>
<polyline clip-path="url(#clip940)" style="stroke:#000000; stroke-width:4; stroke-opacity:1; fill:none" points="
  1020.36,7342.8 1020.36,312.223 
  "/>
<polyline clip-path="url(#clip940)" style="stroke:#000000; stroke-width:4; stroke-opacity:1; fill:none" points="
  1020.36,7116.34 1132.35,7116.34 
  "/>
<polyline clip-path="url(#clip940)" style="stroke:#000000; stroke-width:4; stroke-opacity:1; fill:none" points="
  1020.36,5619.4 1132.35,5619.4 
  "/>
<polyline clip-path="url(#clip940)" style="stroke:#000000; stroke-width:4; stroke-opacity:1; fill:none" points="
  1020.36,4122.45 1132.35,4122.45 
  "/>
<polyline clip-path="url(#clip940)" style="stroke:#000000; stroke-width:4; stroke-opacity:1; fill:none" points="
  1020.36,2625.51 1132.35,2625.51 
  "/>
<polyline clip-path="url(#clip940)" style="stroke:#000000; stroke-width:4; stroke-opacity:1; fill:none" points="
  1020.36,1128.57 1132.35,1128.57 
  "/>
<path clip-path="url(#clip940)" d="M 0 0 M275.971 7119.16 L461.444 7119.16 L461.444 7143.75 L275.971 7143.75 L275.971 7119.16 Z" fill="#000000" fill-rule="evenodd" fill-opacity="1" /><path clip-path="url(#clip940)" d="M 0 0 M555.628 7027.58 Q533.059 7027.58 521.629 7049.86 Q510.345 7072 510.345 7116.56 Q510.345 7160.97 521.629 7183.25 Q533.059 7205.39 555.628 7205.39 Q578.342 7205.39 589.627 7183.25 Q601.056 7160.97 601.056 7116.56 Q601.056 7072 589.627 7049.86 Q578.342 7027.58 555.628 7027.58 M555.628 7004.43 Q591.941 7004.43 611.039 7033.22 Q630.28 7061.87 630.28 7116.56 Q630.28 7171.1 611.039 7199.89 Q591.941 7228.53 555.628 7228.53 Q519.315 7228.53 500.073 7199.89 Q480.976 7171.1 480.976 7116.56 Q480.976 7061.87 500.073 7033.22 Q519.315 7004.43 555.628 7004.43 Z" fill="#000000" fill-rule="evenodd" fill-opacity="1" /><path clip-path="url(#clip940)" d="M 0 0 M661.964 7187.59 L692.491 7187.59 L692.491 7224.34 L661.964 7224.34 L661.964 7187.59 Z" fill="#000000" fill-rule="evenodd" fill-opacity="1" /><path clip-path="url(#clip940)" d="M 0 0 M804.469 7033.8 L730.685 7149.11 L804.469 7149.11 L804.469 7033.8 M796.801 7008.34 L833.549 7008.34 L833.549 7149.11 L864.365 7149.11 L864.365 7173.41 L833.549 7173.41 L833.549 7224.34 L804.469 7224.34 L804.469 7173.41 L706.958 7173.41 L706.958 7145.2 L796.801 7008.34 Z" fill="#000000" fill-rule="evenodd" fill-opacity="1" /><path clip-path="url(#clip940)" d="M 0 0 M288.992 5622.22 L474.465 5622.22 L474.465 5646.81 L288.992 5646.81 L288.992 5622.22 Z" fill="#000000" fill-rule="evenodd" fill-opacity="1" /><path clip-path="url(#clip940)" d="M 0 0 M568.649 5530.64 Q546.079 5530.64 534.65 5552.92 Q523.365 5575.05 523.365 5619.61 Q523.365 5664.03 534.65 5686.31 Q546.079 5708.44 568.649 5708.44 Q591.363 5708.44 602.647 5686.31 Q614.077 5664.03 614.077 5619.61 Q614.077 5575.05 602.647 5552.92 Q591.363 5530.64 568.649 5530.64 M568.649 5507.49 Q604.962 5507.49 624.059 5536.28 Q643.301 5564.93 643.301 5619.61 Q643.301 5674.16 624.059 5702.95 Q604.962 5731.59 568.649 5731.59 Q532.335 5731.59 513.093 5702.95 Q493.996 5674.16 493.996 5619.61 Q493.996 5564.93 513.093 5536.28 Q532.335 5507.49 568.649 5507.49 Z" fill="#000000" fill-rule="evenodd" fill-opacity="1" /><path clip-path="url(#clip940)" d="M 0 0 M674.985 5690.65 L705.511 5690.65 L705.511 5727.4 L674.985 5727.4 L674.985 5690.65 Z" fill="#000000" fill-rule="evenodd" fill-opacity="1" /><path clip-path="url(#clip940)" d="M 0 0 M762.369 5702.8 L864.365 5702.8 L864.365 5727.4 L727.213 5727.4 L727.213 5702.8 Q743.85 5685.58 772.496 5656.65 Q801.286 5627.57 808.665 5619.18 Q822.698 5603.41 828.196 5592.56 Q833.838 5581.56 833.838 5571 Q833.838 5553.79 821.686 5542.93 Q809.678 5532.08 790.291 5532.08 Q776.547 5532.08 761.211 5536.86 Q746.02 5541.63 728.659 5551.33 L728.659 5521.81 Q746.31 5514.72 761.645 5511.11 Q776.981 5507.49 789.712 5507.49 Q823.277 5507.49 843.242 5524.27 Q863.207 5541.05 863.207 5569.12 Q863.207 5582.43 858.144 5594.44 Q853.225 5606.3 840.059 5622.51 Q836.442 5626.7 817.056 5646.81 Q797.67 5666.78 762.369 5702.8 Z" fill="#000000" fill-rule="evenodd" fill-opacity="1" /><path clip-path="url(#clip940)" d="M 0 0 M558.666 4033.69 Q536.097 4033.69 524.668 4055.97 Q513.383 4078.11 513.383 4122.67 Q513.383 4167.09 524.668 4189.37 Q536.097 4211.5 558.666 4211.5 Q581.38 4211.5 592.665 4189.37 Q604.094 4167.09 604.094 4122.67 Q604.094 4078.11 592.665 4055.97 Q581.38 4033.69 558.666 4033.69 M558.666 4010.55 Q594.98 4010.55 614.077 4039.34 Q633.319 4067.98 633.319 4122.67 Q633.319 4177.21 614.077 4206 Q594.98 4234.65 558.666 4234.65 Q522.353 4234.65 503.111 4206 Q484.014 4177.21 484.014 4122.67 Q484.014 4067.98 503.111 4039.34 Q522.353 4010.55 558.666 4010.55 Z" fill="#000000" fill-rule="evenodd" fill-opacity="1" /><path clip-path="url(#clip940)" d="M 0 0 M665.002 4193.71 L695.529 4193.71 L695.529 4230.45 L665.002 4230.45 L665.002 4193.71 Z" fill="#000000" fill-rule="evenodd" fill-opacity="1" /><path clip-path="url(#clip940)" d="M 0 0 M789.712 4033.69 Q767.143 4033.69 755.714 4055.97 Q744.429 4078.11 744.429 4122.67 Q744.429 4167.09 755.714 4189.37 Q767.143 4211.5 789.712 4211.5 Q812.426 4211.5 823.711 4189.37 Q835.14 4167.09 835.14 4122.67 Q835.14 4078.11 823.711 4055.97 Q812.426 4033.69 789.712 4033.69 M789.712 4010.55 Q826.026 4010.55 845.123 4039.34 Q864.365 4067.98 864.365 4122.67 Q864.365 4177.21 845.123 4206 Q826.026 4234.65 789.712 4234.65 Q753.399 4234.65 734.157 4206 Q715.06 4177.21 715.06 4122.67 Q715.06 4067.98 734.157 4039.34 Q753.399 4010.55 789.712 4010.55 Z" fill="#000000" fill-rule="evenodd" fill-opacity="1" /><path clip-path="url(#clip940)" d="M 0 0 M568.649 2536.75 Q546.079 2536.75 534.65 2559.03 Q523.365 2581.17 523.365 2625.73 Q523.365 2670.14 534.65 2692.42 Q546.079 2714.56 568.649 2714.56 Q591.363 2714.56 602.647 2692.42 Q614.077 2670.14 614.077 2625.73 Q614.077 2581.17 602.647 2559.03 Q591.363 2536.75 568.649 2536.75 M568.649 2513.6 Q604.962 2513.6 624.059 2542.39 Q643.301 2571.04 643.301 2625.73 Q643.301 2680.27 624.059 2709.06 Q604.962 2737.71 568.649 2737.71 Q532.335 2737.71 513.093 2709.06 Q493.996 2680.27 493.996 2625.73 Q493.996 2571.04 513.093 2542.39 Q532.335 2513.6 568.649 2513.6 Z" fill="#000000" fill-rule="evenodd" fill-opacity="1" /><path clip-path="url(#clip940)" d="M 0 0 M674.985 2696.76 L705.511 2696.76 L705.511 2733.51 L674.985 2733.51 L674.985 2696.76 Z" fill="#000000" fill-rule="evenodd" fill-opacity="1" /><path clip-path="url(#clip940)" d="M 0 0 M762.369 2708.92 L864.365 2708.92 L864.365 2733.51 L727.213 2733.51 L727.213 2708.92 Q743.85 2691.7 772.496 2662.76 Q801.286 2633.68 808.665 2625.29 Q822.698 2609.52 828.196 2598.67 Q833.838 2587.68 833.838 2577.12 Q833.838 2559.9 821.686 2549.05 Q809.678 2538.2 790.291 2538.2 Q776.547 2538.2 761.211 2542.97 Q746.02 2547.75 728.659 2557.44 L728.659 2527.93 Q746.31 2520.84 761.645 2517.22 Q776.981 2513.6 789.712 2513.6 Q823.277 2513.6 843.242 2530.39 Q863.207 2547.17 863.207 2575.24 Q863.207 2588.55 858.144 2600.55 Q853.225 2612.42 840.059 2628.62 Q836.442 2632.82 817.056 2652.93 Q797.67 2672.89 762.369 2708.92 Z" fill="#000000" fill-rule="evenodd" fill-opacity="1" /><path clip-path="url(#clip940)" d="M 0 0 M555.628 1039.81 Q533.059 1039.81 521.629 1062.09 Q510.345 1084.23 510.345 1128.78 Q510.345 1173.2 521.629 1195.48 Q533.059 1217.62 555.628 1217.62 Q578.342 1217.62 589.627 1195.48 Q601.056 1173.2 601.056 1128.78 Q601.056 1084.23 589.627 1062.09 Q578.342 1039.81 555.628 1039.81 M555.628 1016.66 Q591.941 1016.66 611.039 1045.45 Q630.28 1074.1 630.28 1128.78 Q630.28 1183.33 611.039 1212.12 Q591.941 1240.76 555.628 1240.76 Q519.315 1240.76 500.073 1212.12 Q480.976 1183.33 480.976 1128.78 Q480.976 1074.1 500.073 1045.45 Q519.315 1016.66 555.628 1016.66 Z" fill="#000000" fill-rule="evenodd" fill-opacity="1" /><path clip-path="url(#clip940)" d="M 0 0 M661.964 1199.82 L692.491 1199.82 L692.491 1236.57 L661.964 1236.57 L661.964 1199.82 Z" fill="#000000" fill-rule="evenodd" fill-opacity="1" /><path clip-path="url(#clip940)" d="M 0 0 M804.469 1046.03 L730.685 1161.34 L804.469 1161.34 L804.469 1046.03 M796.801 1020.57 L833.549 1020.57 L833.549 1161.34 L864.365 1161.34 L864.365 1185.64 L833.549 1185.64 L833.549 1236.57 L804.469 1236.57 L804.469 1185.64 L706.958 1185.64 L706.958 1157.43 L796.801 1020.57 Z" fill="#000000" fill-rule="evenodd" fill-opacity="1" /><path clip-path="url(#clip940)" d="M 0 0 M174.217 3819.84 Q203.152 3831.13 211.977 3841.83 Q220.803 3852.54 220.803 3870.48 L220.803 3891.75 L198.523 3891.75 L198.523 3876.12 Q198.523 3865.13 193.314 3859.05 Q188.106 3852.97 168.719 3845.59 L156.567 3840.82 L-2.86524 3906.36 L-2.86524 3878.15 L123.87 3827.51 L-2.86524 3776.87 L-2.86524 3748.66 L174.217 3819.84 Z" fill="#000000" fill-rule="evenodd" fill-opacity="1" /><path clip-path="url(#clip940)" d="M 0 0 M3463.99 63.0205 Q3432.16 63.0205 3413.35 86.7472 Q3394.69 110.474 3394.69 151.417 Q3394.69 192.215 3413.35 215.942 Q3432.16 239.669 3463.99 239.669 Q3495.82 239.669 3514.34 215.942 Q3533 192.215 3533 151.417 Q3533 110.474 3514.34 86.7472 Q3495.82 63.0205 3463.99 63.0205 M3463.99 39.2938 Q3509.42 39.2938 3536.62 69.8202 Q3563.81 100.202 3563.81 151.417 Q3563.81 202.487 3536.62 233.014 Q3509.42 263.396 3463.99 263.396 Q3418.42 263.396 3391.07 233.014 Q3363.87 202.632 3363.87 151.417 Q3363.87 100.202 3391.07 69.8202 Q3418.42 39.2938 3463.99 39.2938 M3471.95 -15.5381 L3498.71 -15.5381 L3465.72 22.6561 L3443.59 22.6561 L3471.95 -15.5381 Z" fill="#000000" fill-rule="evenodd" fill-opacity="1" /><path clip-path="url(#clip940)" d="M 0 0 M3685.63 122.048 Q3681.15 119.444 3675.79 118.286 Q3670.58 116.984 3664.22 116.984 Q3641.65 116.984 3629.5 131.741 Q3617.49 146.353 3617.49 173.842 L3617.49 259.2 L3590.72 259.2 L3590.72 97.1638 L3617.49 97.1638 L3617.49 122.337 Q3625.88 107.58 3639.33 100.491 Q3652.79 93.2576 3672.03 93.2576 Q3674.78 93.2576 3678.11 93.6916 Q3681.44 93.981 3685.49 94.7044 L3685.63 122.048 Z" fill="#000000" fill-rule="evenodd" fill-opacity="1" /><path clip-path="url(#clip940)" d="M 0 0 M3829.87 178.327 Q3829.87 148.958 3817.72 132.32 Q3805.71 115.538 3784.59 115.538 Q3763.47 115.538 3751.31 132.32 Q3739.31 148.958 3739.31 178.327 Q3739.31 207.696 3751.31 224.478 Q3763.47 241.116 3784.59 241.116 Q3805.71 241.116 3817.72 224.478 Q3829.87 207.696 3829.87 178.327 M3739.31 121.759 Q3747.7 107.291 3760.43 100.347 Q3773.3 93.2576 3791.1 93.2576 Q3820.61 93.2576 3838.99 116.695 Q3857.5 140.132 3857.5 178.327 Q3857.5 216.521 3838.99 239.958 Q3820.61 263.396 3791.1 263.396 Q3773.3 263.396 3760.43 256.451 Q3747.7 249.362 3739.31 234.895 L3739.31 259.2 L3712.54 259.2 L3712.54 34.0855 L3739.31 34.0855 L3739.31 121.759 Z" fill="#000000" fill-rule="evenodd" fill-opacity="1" /><path clip-path="url(#clip940)" d="M 0 0 M3885.43 97.1638 L3912.05 97.1638 L3912.05 259.2 L3885.43 259.2 L3885.43 97.1638 M3885.43 34.0855 L3912.05 34.0855 L3912.05 67.7948 L3885.43 67.7948 L3885.43 34.0855 Z" fill="#000000" fill-rule="evenodd" fill-opacity="1" /><path clip-path="url(#clip940)" d="M 0 0 M3966.3 51.1571 L3966.3 97.1638 L4021.13 97.1638 L4021.13 117.852 L3966.3 117.852 L3966.3 205.815 Q3966.3 225.635 3971.65 231.278 Q3977.15 236.92 3993.79 236.92 L4021.13 236.92 L4021.13 259.2 L3993.79 259.2 Q3962.97 259.2 3951.25 247.771 Q3939.54 236.197 3939.54 205.815 L3939.54 117.852 L3920 117.852 L3920 97.1638 L3939.54 97.1638 L3939.54 51.1571 L3966.3 51.1571 Z" fill="#000000" fill-rule="evenodd" fill-opacity="1" /><path clip-path="url(#clip940)" d="M 0 0 M4122.69 177.748 Q4090.43 177.748 4077.99 185.126 Q4065.55 192.505 4065.55 210.3 Q4065.55 224.478 4074.81 232.869 Q4084.21 241.116 4100.27 241.116 Q4122.4 241.116 4135.72 225.491 Q4149.17 209.721 4149.17 183.68 L4149.17 177.748 L4122.69 177.748 M4175.79 166.753 L4175.79 259.2 L4149.17 259.2 L4149.17 234.605 Q4140.06 249.362 4126.46 256.451 Q4112.86 263.396 4093.18 263.396 Q4068.3 263.396 4053.54 249.507 Q4038.93 235.473 4038.93 212.036 Q4038.93 184.692 4057.16 170.803 Q4075.53 156.915 4111.84 156.915 L4149.17 156.915 L4149.17 154.311 Q4149.17 135.937 4137.02 125.954 Q4125.01 115.827 4103.16 115.827 Q4089.27 115.827 4076.11 119.154 Q4062.94 122.482 4050.79 129.137 L4050.79 104.542 Q4065.4 98.8999 4079.15 96.1511 Q4092.89 93.2576 4105.91 93.2576 Q4141.07 93.2576 4158.43 111.487 Q4175.79 129.716 4175.79 166.753 Z" fill="#000000" fill-rule="evenodd" fill-opacity="1" /><path clip-path="url(#clip940)" d="M 0 0 M4404.52 121.759 L4404.52 34.0855 L4431.14 34.0855 L4431.14 259.2 L4404.52 259.2 L4404.52 234.895 Q4396.13 249.362 4383.25 256.451 Q4370.52 263.396 4352.58 263.396 Q4323.21 263.396 4304.7 239.958 Q4286.32 216.521 4286.32 178.327 Q4286.32 140.132 4304.7 116.695 Q4323.21 93.2576 4352.58 93.2576 Q4370.52 93.2576 4383.25 100.347 Q4396.13 107.291 4404.52 121.759 M4313.81 178.327 Q4313.81 207.696 4325.82 224.478 Q4337.97 241.116 4359.09 241.116 Q4380.22 241.116 4392.37 224.478 Q4404.52 207.696 4404.52 178.327 Q4404.52 148.958 4392.37 132.32 Q4380.22 115.538 4359.09 115.538 Q4337.97 115.538 4325.82 132.32 Q4313.81 148.958 4313.81 178.327 Z" fill="#000000" fill-rule="evenodd" fill-opacity="1" /><path clip-path="url(#clip940)" d="M 0 0 M4597.66 171.527 L4597.66 184.548 L4475.27 184.548 Q4477 212.036 4491.76 226.503 Q4506.66 240.826 4533.14 240.826 Q4548.47 240.826 4562.8 237.065 Q4577.26 233.303 4591.44 225.78 L4591.44 250.954 Q4577.12 257.03 4562.07 260.213 Q4547.03 263.396 4531.55 263.396 Q4492.77 263.396 4470.06 240.826 Q4447.49 218.257 4447.49 179.773 Q4447.49 139.988 4468.9 116.695 Q4490.46 93.2576 4526.92 93.2576 Q4559.61 93.2576 4578.57 114.38 Q4597.66 135.358 4597.66 171.527 M4571.04 163.714 Q4570.75 141.868 4558.75 128.848 Q4546.88 115.827 4527.21 115.827 Q4504.93 115.827 4491.47 128.414 Q4478.16 141 4476.14 163.859 L4571.04 163.714 Z" fill="#000000" fill-rule="evenodd" fill-opacity="1" /><path clip-path="url(#clip940)" d="M 0 0 M4625.59 34.0855 L4652.21 34.0855 L4652.21 259.2 L4625.59 259.2 L4625.59 34.0855 Z" fill="#000000" fill-rule="evenodd" fill-opacity="1" /><path clip-path="url(#clip940)" d="M 0 0 M4877.61 101.938 L4877.61 127.112 Q4866.32 121.325 4854.17 118.431 Q4842.02 115.538 4829 115.538 Q4809.18 115.538 4799.2 121.614 Q4789.36 127.69 4789.36 139.843 Q4789.36 149.102 4796.45 154.455 Q4803.54 159.663 4824.95 164.438 L4834.06 166.463 Q4862.42 172.54 4874.28 183.68 Q4886.29 194.675 4886.29 214.495 Q4886.29 237.065 4868.35 250.23 Q4850.55 263.396 4819.31 263.396 Q4806.28 263.396 4792.11 260.791 Q4778.07 258.332 4762.45 253.268 L4762.45 225.78 Q4777.2 233.448 4791.53 237.354 Q4805.85 241.116 4819.88 241.116 Q4838.69 241.116 4848.82 234.75 Q4858.95 228.24 4858.95 216.521 Q4858.95 205.67 4851.57 199.883 Q4844.33 194.096 4819.59 188.743 L4810.34 186.573 Q4785.6 181.365 4774.6 170.659 Q4763.61 159.808 4763.61 141 Q4763.61 118.142 4779.81 105.7 Q4796.01 93.2576 4825.82 93.2576 Q4840.57 93.2576 4853.59 95.4277 Q4866.61 97.5979 4877.61 101.938 Z" fill="#000000" fill-rule="evenodd" fill-opacity="1" /><path clip-path="url(#clip940)" d="M 0 0 M4914.21 97.1638 L4940.83 97.1638 L4940.83 259.2 L4914.21 259.2 L4914.21 97.1638 M4914.21 34.0855 L4940.83 34.0855 L4940.83 67.7948 L4914.21 67.7948 L4914.21 34.0855 Z" fill="#000000" fill-rule="evenodd" fill-opacity="1" /><path clip-path="url(#clip940)" d="M 0 0 M5072.05 101.938 L5072.05 127.112 Q5060.77 121.325 5048.62 118.431 Q5036.46 115.538 5023.44 115.538 Q5003.62 115.538 4993.64 121.614 Q4983.8 127.69 4983.8 139.843 Q4983.8 149.102 4990.89 154.455 Q4997.98 159.663 5019.39 164.438 L5028.51 166.463 Q5056.86 172.54 5068.73 183.68 Q5080.73 194.675 5080.73 214.495 Q5080.73 237.065 5062.79 250.23 Q5045 263.396 5013.75 263.396 Q5000.73 263.396 4986.55 260.791 Q4972.52 258.332 4956.89 253.268 L4956.89 225.78 Q4971.65 233.448 4985.97 237.354 Q5000.29 241.116 5014.33 241.116 Q5033.14 241.116 5043.26 234.75 Q5053.39 228.24 5053.39 216.521 Q5053.39 205.67 5046.01 199.883 Q5038.78 194.096 5014.04 188.743 L5004.78 186.573 Q4980.04 181.365 4969.04 170.659 Q4958.05 159.808 4958.05 141 Q4958.05 118.142 4974.25 105.7 Q4990.46 93.2576 5020.26 93.2576 Q5035.02 93.2576 5048.04 95.4277 Q5061.06 97.5979 5072.05 101.938 Z" fill="#000000" fill-rule="evenodd" fill-opacity="1" /><path clip-path="url(#clip940)" d="M 0 0 M5134.99 51.1571 L5134.99 97.1638 L5189.82 97.1638 L5189.82 117.852 L5134.99 117.852 L5134.99 205.815 Q5134.99 225.635 5140.34 231.278 Q5145.84 236.92 5162.47 236.92 L5189.82 236.92 L5189.82 259.2 L5162.47 259.2 Q5131.66 259.2 5119.94 247.771 Q5108.22 236.197 5108.22 205.815 L5108.22 117.852 L5088.69 117.852 L5088.69 97.1638 L5108.22 97.1638 L5108.22 51.1571 L5134.99 51.1571 Z" fill="#000000" fill-rule="evenodd" fill-opacity="1" /><path clip-path="url(#clip940)" d="M 0 0 M5356.34 171.527 L5356.34 184.548 L5233.94 184.548 Q5235.68 212.036 5250.44 226.503 Q5265.34 240.826 5291.81 240.826 Q5307.15 240.826 5321.47 237.065 Q5335.94 233.303 5350.12 225.78 L5350.12 250.954 Q5335.8 257.03 5320.75 260.213 Q5305.7 263.396 5290.22 263.396 Q5251.45 263.396 5228.74 240.826 Q5206.17 218.257 5206.17 179.773 Q5206.17 139.988 5227.58 116.695 Q5249.14 93.2576 5285.59 93.2576 Q5318.29 93.2576 5337.24 114.38 Q5356.34 135.358 5356.34 171.527 M5329.72 163.714 Q5329.43 141.868 5317.42 128.848 Q5305.56 115.827 5285.88 115.827 Q5263.6 115.827 5250.15 128.414 Q5236.84 141 5234.81 163.859 L5329.72 163.714 Z" fill="#000000" fill-rule="evenodd" fill-opacity="1" /><path clip-path="url(#clip940)" d="M 0 0 M5510.42 128.269 Q5520.4 110.329 5534.29 101.793 Q5548.18 93.2576 5566.99 93.2576 Q5592.3 93.2576 5606.05 111.053 Q5619.79 128.703 5619.79 161.4 L5619.79 259.2 L5593.03 259.2 L5593.03 162.268 Q5593.03 138.975 5584.78 127.69 Q5576.53 116.406 5559.61 116.406 Q5538.92 116.406 5526.91 130.15 Q5514.9 143.894 5514.9 167.621 L5514.9 259.2 L5488.14 259.2 L5488.14 162.268 Q5488.14 138.83 5479.89 127.69 Q5471.65 116.406 5454.43 116.406 Q5434.03 116.406 5422.02 130.294 Q5410.01 144.039 5410.01 167.621 L5410.01 259.2 L5383.25 259.2 L5383.25 97.1638 L5410.01 97.1638 L5410.01 122.337 Q5419.13 107.436 5431.86 100.347 Q5444.59 93.2576 5462.1 93.2576 Q5479.75 93.2576 5492.04 102.227 Q5504.49 111.197 5510.42 128.269 Z" fill="#000000" fill-rule="evenodd" fill-opacity="1" /><path clip-path="url(#clip940)" d="M 0 0 M5721.35 177.748 Q5689.09 177.748 5676.65 185.126 Q5664.21 192.505 5664.21 210.3 Q5664.21 224.478 5673.47 232.869 Q5682.87 241.116 5698.93 241.116 Q5721.07 241.116 5734.38 225.491 Q5747.83 209.721 5747.83 183.68 L5747.83 177.748 L5721.35 177.748 M5774.45 166.753 L5774.45 259.2 L5747.83 259.2 L5747.83 234.605 Q5738.72 249.362 5725.12 256.451 Q5711.52 263.396 5691.84 263.396 Q5666.96 263.396 5652.2 249.507 Q5637.59 235.473 5637.59 212.036 Q5637.59 184.692 5655.82 170.803 Q5674.19 156.915 5710.5 156.915 L5747.83 156.915 L5747.83 154.311 Q5747.83 135.937 5735.68 125.954 Q5723.67 115.827 5701.82 115.827 Q5687.93 115.827 5674.77 119.154 Q5661.6 122.482 5649.45 129.137 L5649.45 104.542 Q5664.06 98.8999 5677.81 96.1511 Q5691.55 93.2576 5704.57 93.2576 Q5739.73 93.2576 5757.09 111.487 Q5774.45 129.716 5774.45 166.753 Z" fill="#000000" fill-rule="evenodd" fill-opacity="1" /><path clip-path="url(#clip940)" d="M 0 0 M6003.18 121.759 L6003.18 34.0855 L6029.8 34.0855 L6029.8 259.2 L6003.18 259.2 L6003.18 234.895 Q5994.79 249.362 5981.91 256.451 Q5969.18 263.396 5951.24 263.396 Q5921.87 263.396 5903.36 239.958 Q5884.98 216.521 5884.98 178.327 Q5884.98 140.132 5903.36 116.695 Q5921.87 93.2576 5951.24 93.2576 Q5969.18 93.2576 5981.91 100.347 Q5994.79 107.291 6003.18 121.759 M5912.47 178.327 Q5912.47 207.696 5924.48 224.478 Q5936.63 241.116 5957.75 241.116 Q5978.88 241.116 5991.03 224.478 Q6003.18 207.696 6003.18 178.327 Q6003.18 148.958 5991.03 132.32 Q5978.88 115.538 5957.75 115.538 Q5936.63 115.538 5924.48 132.32 Q5912.47 148.958 5912.47 178.327 Z" fill="#000000" fill-rule="evenodd" fill-opacity="1" /><path clip-path="url(#clip940)" d="M 0 0 M6196.32 171.527 L6196.32 184.548 L6073.93 184.548 Q6075.66 212.036 6090.42 226.503 Q6105.32 240.826 6131.8 240.826 Q6147.13 240.826 6161.46 237.065 Q6175.92 233.303 6190.1 225.78 L6190.1 250.954 Q6175.78 257.03 6160.73 260.213 Q6145.69 263.396 6130.21 263.396 Q6091.43 263.396 6068.72 240.826 Q6046.15 218.257 6046.15 179.773 Q6046.15 139.988 6067.56 116.695 Q6089.12 93.2576 6125.58 93.2576 Q6158.27 93.2576 6177.23 114.38 Q6196.32 135.358 6196.32 171.527 M6169.7 163.714 Q6169.41 141.868 6157.41 128.848 Q6145.54 115.827 6125.87 115.827 Q6103.59 115.827 6090.13 128.414 Q6076.82 141 6074.8 163.859 L6169.7 163.714 Z" fill="#000000" fill-rule="evenodd" fill-opacity="1" /><path clip-path="url(#clip940)" d="M 0 0 M6319.59 43.2 L6348.81 43.2 L6348.81 131.741 L6455 131.741 L6455 43.2 L6484.23 43.2 L6484.23 259.2 L6455 259.2 L6455 156.336 L6348.81 156.336 L6348.81 259.2 L6319.59 259.2 L6319.59 43.2 Z" fill="#000000" fill-rule="evenodd" fill-opacity="1" /><path clip-path="url(#clip940)" d="M 0 0 M6650.75 171.527 L6650.75 184.548 L6528.35 184.548 Q6530.09 212.036 6544.85 226.503 Q6559.75 240.826 6586.22 240.826 Q6601.56 240.826 6615.88 237.065 Q6630.35 233.303 6644.53 225.78 L6644.53 250.954 Q6630.2 257.03 6615.16 260.213 Q6600.11 263.396 6584.63 263.396 Q6545.86 263.396 6523.14 240.826 Q6500.58 218.257 6500.58 179.773 Q6500.58 139.988 6521.99 116.695 Q6543.54 93.2576 6580 93.2576 Q6612.7 93.2576 6631.65 114.38 Q6650.75 135.358 6650.75 171.527 M6624.13 163.714 Q6623.84 141.868 6611.83 128.848 Q6599.97 115.827 6580.29 115.827 Q6558.01 115.827 6544.56 128.414 Q6531.25 141 6529.22 163.859 L6624.13 163.714 M6598.52 22.2221 L6627.31 22.2221 L6580.15 76.62 L6558.01 76.62 L6598.52 22.2221 Z" fill="#000000" fill-rule="evenodd" fill-opacity="1" /><path clip-path="url(#clip940)" d="M 0 0 M6813.36 161.4 L6813.36 259.2 L6786.74 259.2 L6786.74 162.268 Q6786.74 139.264 6777.77 127.835 Q6768.8 116.406 6750.86 116.406 Q6729.31 116.406 6716.86 130.15 Q6704.42 143.894 6704.42 167.621 L6704.42 259.2 L6677.66 259.2 L6677.66 97.1638 L6704.42 97.1638 L6704.42 122.337 Q6713.97 107.725 6726.85 100.491 Q6739.87 93.2576 6756.79 93.2576 Q6784.72 93.2576 6799.04 110.619 Q6813.36 127.835 6813.36 161.4 Z" fill="#000000" fill-rule="evenodd" fill-opacity="1" /><path clip-path="url(#clip940)" d="M 0 0 M6904.07 115.827 Q6882.66 115.827 6870.22 132.609 Q6857.78 149.247 6857.78 178.327 Q6857.78 207.406 6870.08 224.189 Q6882.52 240.826 6904.07 240.826 Q6925.34 240.826 6937.78 224.044 Q6950.23 207.262 6950.23 178.327 Q6950.23 149.536 6937.78 132.754 Q6925.34 115.827 6904.07 115.827 M6904.07 93.2576 Q6938.8 93.2576 6958.62 115.827 Q6978.44 138.396 6978.44 178.327 Q6978.44 218.112 6958.62 240.826 Q6938.8 263.396 6904.07 263.396 Q6869.21 263.396 6849.39 240.826 Q6829.71 218.112 6829.71 178.327 Q6829.71 138.396 6849.39 115.827 Q6869.21 93.2576 6904.07 93.2576 Z" fill="#000000" fill-rule="evenodd" fill-opacity="1" /><path clip-path="url(#clip940)" d="M 0 0 M7141.05 161.4 L7141.05 259.2 L7114.43 259.2 L7114.43 162.268 Q7114.43 139.264 7105.46 127.835 Q7096.49 116.406 7078.55 116.406 Q7057 116.406 7044.55 130.15 Q7032.11 143.894 7032.11 167.621 L7032.11 259.2 L7005.35 259.2 L7005.35 97.1638 L7032.11 97.1638 L7032.11 122.337 Q7041.66 107.725 7054.54 100.491 Q7067.56 93.2576 7084.48 93.2576 Q7112.41 93.2576 7126.73 110.619 Q7141.05 127.835 7141.05 161.4 Z" fill="#000000" fill-rule="evenodd" fill-opacity="1" /><path clip-path="url(#clip940)" d="M 0 0 M7155.52 166.174 L7233.5 166.174 L7233.5 189.901 L7155.52 189.901 L7155.52 166.174 Z" fill="#000000" fill-rule="evenodd" fill-opacity="1" /><path clip-path="url(#clip940)" d="M 0 0 M7262.58 43.2 L7291.8 43.2 L7291.8 131.741 L7398 131.741 L7398 43.2 L7427.22 43.2 L7427.22 259.2 L7398 259.2 L7398 156.336 L7291.8 156.336 L7291.8 259.2 L7262.58 259.2 L7262.58 43.2 Z" fill="#000000" fill-rule="evenodd" fill-opacity="1" /><path clip-path="url(#clip940)" d="M 0 0 M7593.74 171.527 L7593.74 184.548 L7471.35 184.548 Q7473.08 212.036 7487.84 226.503 Q7502.74 240.826 7529.22 240.826 Q7544.55 240.826 7558.87 237.065 Q7573.34 233.303 7587.52 225.78 L7587.52 250.954 Q7573.2 257.03 7558.15 260.213 Q7543.1 263.396 7527.62 263.396 Q7488.85 263.396 7466.14 240.826 Q7443.57 218.257 7443.57 179.773 Q7443.57 139.988 7464.98 116.695 Q7486.54 93.2576 7522.99 93.2576 Q7555.69 93.2576 7574.64 114.38 Q7593.74 135.358 7593.74 171.527 M7567.12 163.714 Q7566.83 141.868 7554.82 128.848 Q7542.96 115.827 7523.28 115.827 Q7501 115.827 7487.55 128.414 Q7474.24 141 7472.21 163.859 L7567.12 163.714 Z" fill="#000000" fill-rule="evenodd" fill-opacity="1" /><path clip-path="url(#clip940)" d="M 0 0 M7621.66 97.1638 L7648.28 97.1638 L7648.28 259.2 L7621.66 259.2 L7621.66 97.1638 M7621.66 34.0855 L7648.28 34.0855 L7648.28 67.7948 L7621.66 67.7948 L7621.66 34.0855 Z" fill="#000000" fill-rule="evenodd" fill-opacity="1" /><path clip-path="url(#clip940)" d="M 0 0 M7676.21 34.0855 L7702.83 34.0855 L7702.83 259.2 L7676.21 259.2 L7676.21 34.0855 Z" fill="#000000" fill-rule="evenodd" fill-opacity="1" /><path clip-path="url(#clip940)" d="M 0 0 M7869.35 171.527 L7869.35 184.548 L7746.95 184.548 Q7748.69 212.036 7763.44 226.503 Q7778.35 240.826 7804.82 240.826 Q7820.16 240.826 7834.48 237.065 Q7848.95 233.303 7863.13 225.78 L7863.13 250.954 Q7848.8 257.03 7833.76 260.213 Q7818.71 263.396 7803.23 263.396 Q7764.46 263.396 7741.74 240.826 Q7719.17 218.257 7719.17 179.773 Q7719.17 139.988 7740.59 116.695 Q7762.14 93.2576 7798.6 93.2576 Q7831.3 93.2576 7850.25 114.38 Q7869.35 135.358 7869.35 171.527 M7842.73 163.714 Q7842.44 141.868 7830.43 128.848 Q7818.57 115.827 7798.89 115.827 Q7776.61 115.827 7763.16 128.414 Q7749.84 141 7747.82 163.859 L7842.73 163.714 Z" fill="#000000" fill-rule="evenodd" fill-opacity="1" /><path clip-path="url(#clip940)" d="M 0 0 M8000.57 101.938 L8000.57 127.112 Q7989.28 121.325 7977.13 118.431 Q7964.98 115.538 7951.96 115.538 Q7932.14 115.538 7922.15 121.614 Q7912.32 127.69 7912.32 139.843 Q7912.32 149.102 7919.4 154.455 Q7926.49 159.663 7947.91 164.438 L7957.02 166.463 Q7985.38 172.54 7997.24 183.68 Q8009.25 194.675 8009.25 214.495 Q8009.25 237.065 7991.31 250.23 Q7973.51 263.396 7942.26 263.396 Q7929.24 263.396 7915.06 260.791 Q7901.03 258.332 7885.41 253.268 L7885.41 225.78 Q7900.16 233.448 7914.49 237.354 Q7928.81 241.116 7942.84 241.116 Q7961.65 241.116 7971.78 234.75 Q7981.9 228.24 7981.9 216.521 Q7981.9 205.67 7974.53 199.883 Q7967.29 194.096 7942.55 188.743 L7933.29 186.573 Q7908.55 181.365 7897.56 170.659 Q7886.56 159.808 7886.56 141 Q7886.56 118.142 7902.77 105.7 Q7918.97 93.2576 7948.77 93.2576 Q7963.53 93.2576 7976.55 95.4277 Q7989.57 97.5979 8000.57 101.938 Z" fill="#000000" fill-rule="evenodd" fill-opacity="1" /><polyline clip-path="url(#clip942)" style="stroke:#009af9; stroke-width:20; stroke-opacity:1; fill:none" points="
  5729.16,3373.98 6191.75,3377.37 6648.78,3387.69 7094.81,3405.42 7524.56,3431.29 7933.02,3466.28 8315.56,3511.53 8668.01,3568.24 8986.69,3637.64 9268.56,3720.85 
  9511.22,3818.8 9712.97,3932.14 9872.83,4061.19 9990.55,4205.82 10066.6,4365.44 10102,4538.95 10098.6,4724.74 10058.4,4920.66 9984.13,5124.08 9878.65,5331.91 
  9745.05,5540.71 9586.44,5746.68 9405.96,5945.85 9206.56,6134.12 8991.03,6307.39 8761.87,6461.71 8521.29,6593.33 8271.18,6698.88 8013.11,6775.42 7748.35,6820.57 
  7477.93,6832.56 7202.67,6810.29 6923.24,6753.38 6640.26,6662.14 6354.36,6537.61 6066.24,6381.46 5776.81,6195.98 5487.19,5984.01 5198.82,5748.84 4913.48,5494.09 
  4633.36,5223.67 4361.02,4941.65 4099.41,4652.16 3851.85,4359.3 3621.93,4067.06 3413.44,3779.23 3230.28,3499.34 3076.31,3230.61 2955.23,2975.86 2870.43,2737.54 
  2824.82,2517.63 2820.73,2317.7 2859.77,2138.85 2942.73,1981.78 3069.5,1846.78 3239.05,1733.82 3449.39,1642.55 3697.65,1572.43 3980.07,1522.76 4292.13,1492.77 
  4628.67,1481.68 4983.98,1488.78 5351.99,1513.49 5726.42,1555.36 6100.9,1614.15 6469.18,1689.79 6825.25,1782.37 7163.53,1892.12 7478.91,2019.37 7766.98,2164.43 
  8024.01,2327.61 8247.08,2509.04 8434.12,2708.68 8583.88,2926.18 8695.97,3160.83 8770.74,3411.55 8809.3,3676.76 8813.37,3954.42 8785.18,4242.01 8727.37,4536.51 
  8642.85,4834.47 8534.7,5132 8406.01,5424.91 8259.82,5708.75 8099,5978.93 7926.19,6230.81 7743.75,6459.85 7553.69,6661.74 7357.74,6832.5 7157.25,6968.64 
  6953.32,7067.26 6746.75,7126.14 6538.17,7143.82 6328.01,7119.64 6116.65,7053.79 5904.46,6947.25 5691.85,6801.82 5479.36,6619.98 5267.73,6404.87 5057.92,6160.13 
  4851.2,5889.83 4649.15,5598.34 4453.68,5290.16 4267.03,4969.87 4091.74,4641.99 3930.59,4310.86 3786.57,3980.6 3662.75,3655 3562.21,3337.5 3487.91,3031.1 
  3442.6,2738.41 3428.63,2461.55 3447.89,2202.23 3501.67,1961.73 3590.6,1740.94 3714.53,1540.4 3872.51,1360.33 4062.76,1200.73 4282.67,1061.39 4528.87,942.002 
  4797.26,842.203 5083.14,761.633 5381.28,699.99 5686.06,657.075 5991.68,632.819 6292.22,627.299 6581.88,640.736 6855.06,673.477 7106.6,725.967 7331.88,798.704 
  7526.9,892.197 7688.42,1006.91 7814.04,1143.18 7902.21,1301.21 7952.26,1480.96 7964.39,1682.13 7939.58,1904.12 7879.53,2146 7786.61,2406.46 7663.65,2683.84 
  7513.87,2976.11 7340.74,3280.86 7147.84,3595.35 6938.7,3916.47 6716.76,4240.86 6485.2,4564.88 6246.94,4884.7 6004.52,5196.35 5760.1,5495.75 5515.44,5778.87 
  5271.95,6041.77 5030.67,6280.71 4792.33,6492.25 4557.42,6673.34 4326.23,6821.4 4098.96,6934.44 3875.75,7011.09 3656.79,7050.7 3442.36,7053.3 3232.92,7019.67 
  3029.15,6951.28 2832.01,6850.25 2642.77,6719.31 2463.02,6561.69 2294.69,6381.01 2140.04,6181.2 2001.58,5966.36 1882.08,5740.63 1784.47,5508.12 1711.75,5272.73 
  1666.89,5038.12 1652.76,4807.61 1671.96,4584.1 1726.77,4370.03 1818.99,4167.38 1949.87,3977.6 2120.02,3801.69 2329.37,3640.22 2577.12,3493.35 2861.7,3360.92 
  3180.79,3242.52 3531.37,3137.57 3909.71,3045.42 4311.48,2965.4 4731.81,2896.96 5165.38,2839.67 5606.52,2793.34 6049.31,2757.99 6487.72,2733.93 6915.72,2721.73 
  7327.4,2722.18 7717.11,2736.29 8079.56,2765.17 8409.97,2810.01 8704.17,2871.97 8958.67,2952.09 9170.76,3051.19 9338.55,3169.82 9461.03,3308.15 9538.05,3465.88 
  9570.28,3642.25 9559.14,3835.98 9506.73,4045.26 9415.72,4267.75 9289.23,4500.59 9130.7,4740.5 8943.71,4983.8 8731.92,5226.49 8498.91,5464.37 8248.07,5693.09 
  7982.56,5908.33 7705.22,6105.86 7418.54,6281.7 7124.67,6432.19 6825.43,6554.15 6522.31,6644.92 6216.59,6702.52 5909.35,6725.62 5601.55,6713.66 5294.15,6666.82 
  4988.15,6586.04 4684.72,6472.99 4385.19,6330 4091.22,6159.98 3804.75,5966.37 3528.1,5752.99 3263.92,5523.97 3015.21,5283.59 2785.28,5036.21 2577.66,4786.12 
  2396,4537.44 2244.02,4294.06 2125.35,4059.51 2043.39,3836.91 2001.14,3628.91 2001.12,3437.63 2045.22,3264.69 2134.62,3111.18 2269.71,2977.7 2450.01,2864.38 
  2674.12,2770.91 2939.83,2696.67 3244.07,2640.79 3583.01,2602.2 3952.15,2579.79 4346.39,2572.42 4760.2,2579.04 5187.71,2598.78 5622.84,2630.96 6059.47,2675.13 
  6491.53,2731.12 6913.13,2798.99 7318.71,2879.01 7703.12,2971.64 8061.73,3077.42 8390.5,3196.98 8686.05,3330.84 8945.77,3479.44 9167.77,3642.94 9350.98,3821.25 
  9495.04,4013.89 9600.32,4219.96 9667.87,4438.11 9699.32,4666.49 9696.81,4902.77 9662.87,5144.13 9600.27,5387.37 9512.01,5628.87 9401.09,5864.73 9270.5,6090.85 
  9123.07,6303.02 8961.43,6497.07 8787.92,6668.93 8604.59,6814.8 8413.15,6931.26 8214.98,7015.36 8011.12,7064.73 7802.36,7077.65 7589.21,7053.08 7372,6990.73 
  7150.95,6891.05 6926.19,6755.19 6697.89,6584.97 6466.27,6382.83 6231.75,6151.7 5994.95,5894.99 5756.78,5616.38 5518.47,5319.83 5281.62,5009.4 5048.23,4689.21 
  4820.65,4363.29 4601.63,4035.6 4394.18,3709.85 4201.6,3389.55 4027.33,3077.88 3874.87,2777.73 3747.64,2491.6 3648.9,2221.65 3581.55,1969.67 3548.05,1737.06 
  3550.27,1524.86 3589.41,1333.78 3665.9,1164.21 3779.34,1016.27 3928.46,889.853 4111.15,784.661 4324.44,700.283 4564.62,636.241 4827.29,592.05 5107.49,567.268 
  5399.81,561.536 5698.56,574.615 5997.91,606.404 6292.05,656.947 6575.37,726.422 6842.54,815.121 7088.74,923.404 7309.73,1051.66 7501.95,1200.23 7662.6,1369.38 
  7789.7,1559.23 7882.08,1769.66 7939.38,2000.27 7962.05,2250.36 7951.2,2518.84 7908.59,2804.23 7836.49,3104.62 7737.54,3417.67 7614.7,3740.61 7471.03,4070.26 
  7309.67,4403.05 7133.64,4735.08 6945.82,5062.18 6748.84,5379.97 6545.06,5683.95 6336.48,5969.61 6124.79,6232.55 5911.35,6468.57 5697.2,6673.79 5483.14,6844.75 
  5269.74,6978.59 5057.42,7073.13 4846.52,7126.93 4637.38,7139.29 4430.36,7110.35 4225.98,7041.05 4024.94,6933.12 3828.17,6789.06 3636.91,6611.98 3452.69,6405.52 
  3277.39,6173.76 3113.22,5921.08 2962.69,5652.04 2828.56,5371.23 2713.81,5083.16 2621.52,4792.15 2554.79,4502.24 2516.62,4217.11 2509.8,3940.01 2536.77,3673.71 
  2599.51,3420.51 2699.43,3182.2 2837.28,2960.13 3013.04,2755.17 3225.89,2567.84 3474.18,2398.3 3755.4,2246.5 4066.24,2112.18 4402.64,1995.01 4759.85,1894.64 
  5132.51,1810.78 5514.8,1743.25 5900.61,1692.04 6283.58,1657.31 6657.36,1639.43 7015.67,1638.95 7352.56,1656.56 7662.52,1693.04 7940.59,1749.23 8182.53,1825.92 
  8384.86,1923.82 8545.02,2043.42 8661.37,2184.97 8733.22,2348.39 8760.76,2533.24 8745.1,2738.62 8688.1,2963.23 8592.31,3205.27 8460.84,3462.5 8297.19,3732.25 
  8105.13,4011.45 7888.56,4296.65 7651.35,4584.13 7397.23,4869.91 7129.71,5149.88 6851.98,5419.87 6566.87,5675.73 6276.82,5913.43 5983.87,6129.18 5689.71,6319.51 
  5395.69,6481.39 5102.89,6612.34 4812.18,6710.45 4524.29,6774.45 4239.93,6803.79 3959.81,6798.63 3684.75,6759.86 3415.76,6689.07 3154.07,6588.47 2901.21,6460.86 
  2659.01,6309.52 2429.62,6138.14 2215.51,5950.65 2019.43,5751.16 1844.36,5543.83 1693.43,5332.74 1569.86,5121.78 1476.83,4914.56 1417.36,4714.34 1394.23,4523.94 
  1409.84,4345.69 1466.09,4181.4 1564.34,4032.36 1705.26,3899.35 1888.85,3782.63 2114.36,3682.02 2380.28,3596.96 2684.41,3526.59 3023.86,3469.81 3395.1,3425.39 
  3794.03,3392.08 4216.11,3368.66 4656.38,3354.04 5109.59,3347.37 5570.28,3348.01 6032.89,3355.67 6491.85,3370.32 6941.64,3392.29 7376.93,3422.17 7792.65,3460.79 
  8184.07,3509.2 8546.91,3568.51 8877.38,3639.91 9172.31,3724.47 9429.13,3823.15 9645.97,3936.66 9821.66,4065.37 9955.77,4209.26 10048.6,4367.86 10101,4540.17 
  10114.5,4724.74 10091.2,4919.57 10033.5,5122.16 9944.27,5329.57 9826.41,5538.43 9683.02,5745.08 9517.19,5945.61 9331.87,6135.96 9129.86,6312.07 8913.68,6469.94 
  8685.58,6605.81 8447.5,6716.23 8201.02,6798.15 7947.47,6849.06 7687.86,6867.06 7423,6850.89 7153.54,6799.99 6880.02,6714.48 6602.95,6595.23 6322.93,6443.73 
  6040.67,6262.12 5757.09,6053.06 5473.4,5819.69 5191.15,5565.55 4912.24,5294.42 4638.99,5010.31 4374.1,4717.28 4120.66,4419.41 3882.06,4120.7 3661.98,3824.96 
  3464.27,3535.79 3292.82,3256.51 3151.43,2990.07 3043.65,2739.03 2972.68,2505.56 2941.2,2291.4 2951.27,2097.86 3004.17,1925.83 3100.33,1775.83 3239.25,1647.97 
  3419.54,1542.12 3638.86,1457.85 3893.97,1394.59 4180.81,1351.65 4494.59,1328.29 4829.95,1323.81 5181.03,1337.61 5541.67,1369.21 5905.58,1418.3 6266.45,1484.73 
  6618.18,1568.54 6954.96,1669.91 7271.46,1789.12 7562.94,1926.5 7825.32,2082.35 8055.3,2256.92 8250.43,2450.22 8409.07,2662.07 8530.46,2891.95 8614.61,3138.95 
  8662.3,3401.76 8674.99,3678.57 8654.71,3967.12 8603.92,4264.63 8525.44,4567.89 8422.28,4873.22 8297.54,5176.6 8154.31,5473.67 7995.54,5759.88 7823.97,6030.6 
  7642.09,6281.17 7452.07,6507.09 7255.76,6704.14 7054.68,6868.47 6850.03,6996.79 6642.77,7086.4 6433.58,7135.35 6223.01,7142.47 6011.49,7107.39 5799.39,7030.62 
  5587.14,6913.44 5375.27,6757.96 5164.47,6566.92 4955.66,6343.71 4750.01,6092.2 4549.05,5816.61 4354.58,5521.43 4168.76,5211.27 3994.05,4890.73 3833.16,4564.31 
  3689.05,4236.33 3564.77,3910.8 3463.39,3591.4 3387.93,3281.39 3341.16,2983.61 3325.56,2700.46 3343.16,2433.87 3395.4,2185.32 3483.06,1955.89 3606.19,1746.27 
  3764.02,1556.82 3954.98,1387.62 4176.64,1238.55 4425.79,1109.34 4698.45,999.663 4990.01,909.15 5295.3,837.497 5608.74,784.488 5924.44,750.035 6236.43,734.194 
  6538.75,737.17 6825.66,759.303 7091.76,801.047 7332.14,862.931 7542.52,945.5 7719.36,1049.26 7859.95,1174.62 7962.46,1321.84 8025.92,1490.96 8050.26,1681.76 
  8036.22,1893.73 7985.36,2126 7899.88,2377.36 7782.55,2646.22 7636.55,2930.61 7465.37,3228.19 7272.63,3536.27 7062,3851.82 6837.03,4171.52 6601.08,4491.77 
  6357.22,4808.8 6108.2,5118.66 5856.35,5417.33 5603.64,5700.8 5351.62,5965.16 5101.49,6206.69 4854.14,6421.92 4610.15,6607.73 4369.92,6761.49 4133.69,6881.1 
  3901.66,6965.16 3674.04,7012.91 3451.12,7024.29 3233.36,6999.91 3021.39,6941.1 2816.12,6849.84 2618.81,6728.77 2431,6581.02 2254.54,6410.07 2091.65,6219.77 
  1944.79,6014.13 1816.71,5797.28 1710.29,5573.26 1628.53,5345.99 1574.42,5119.13 1550.83,4896.01 1560.43,4679.58 1605.54,4472.3 1688.07,4276.17 1809.37,4092.72 
  1970.2,3922.95 2170.64,3767.46 2410.07,3626.4 2687.1,3499.59 2999.62,3386.58 3344.82,3286.72 3719.19,3199.27 4118.62,3123.47 4538.46,3058.62 4973.59,3004.18 
  5418.53,2959.79 5867.55,2925.34 6314.73,2901 6754.14,2887.23 7179.89,2884.74 7586.33,2894.45 7968.08,2917.47 8320.23,2955.01 8638.37,3008.29 8918.73,3078.45 
  9158.29,3166.49 9354.78,3273.15 9506.76,3398.8 9613.65,3543.44 9675.65,3706.59 9693.78,3887.25 9669.73,4083.89 9605.84,4294.46 9504.92,4516.35 9370.16,4746.53 
  9205.02,4981.49 9013.04,5217.4 8797.78,5450.15 8562.66,5675.46 8310.9,5889.02 8045.46,6086.54 7768.96,6263.94 7483.7,6417.41 7191.6,6543.56 6894.31,6639.51 
  6593.18,6703.02 6289.35,6732.47 5983.81,6726.98 5677.5,6686.42 5371.36,6611.44 5066.44,6503.4 4763.95,6364.35 4465.37,6196.97 4172.45,6004.47 3887.32,5790.52 
  3612.46,5559.12 3350.69,5314.49 3105.18,5060.95 2879.39,4802.84 2676.97,4544.38 2501.69,4289.58 2357.28,4042.14 2247.37,3805.4 2175.25,3582.26 2143.84,3375.14 
  2155.46,3185.96 2211.81,3016.12 2313.75,2866.51 2461.32,2737.54 2653.68,2629.18 2889.07,2541.04 3164.88,2472.43 3477.66,2422.46 3823.18,2390.08 4196.6,2374.21 
  4592.51,2373.84 5005.11,2388.04 5428.32,2416.06 5855.91,2457.39 6281.68,2511.72 6699.55,2579.01 7103.73,2659.41 7488.78,2753.26 7849.81,2861.04 8182.47,2983.26 
  8483.14,3120.41 8748.89,3272.87 8977.58,3440.83 9167.86,3624.19 9319.15,3822.52 9431.65,4034.96 9506.23,4260.22 9544.41,4496.51 9548.21,4741.55 9520.1,4992.59 
  9462.85,5246.44 9379.44,5499.49 9272.9,5747.84 9146.27,5987.33 9002.45,6213.7 8844.13,6422.65 8673.75,6609.96 8493.46,6771.66 8305.05,6904.14 8109.99,7004.24 
  7909.41,7069.36 7704.17,7097.54 7494.86,7087.53 7281.86,7038.82 7065.42,6951.69 6845.71,6827.11 6622.91,6666.78 6397.24,6473.03 6169.11,6248.77 5939.1,5997.34 
  5708.06,5722.49 5477.18,5428.19 5247.97,5118.58 5022.32,4797.86 4802.52,4470.19 4591.16,4139.61 4391.17,3809.97 4205.71,3484.85 4038.09,3167.58 3891.73,2861.13 
  3769.99,2568.11 3676.04,2290.77 3612.7,2030.94 3582.38,1790.11 3586.9,1569.35 3627.46,1369.44 3704.52,1190.81 3817.71,1033.62 3965.78,897.782 4146.66,783.041 
  4357.48,689.016 4594.6,615.256 4853.7,561.301 5129.88,526.729 5417.8,511.201 5711.84,514.496 6006.23,536.529 6295.19,577.356 6573.14,637.17 6834.79,716.274 
  7075.33,815.048 7290.52,933.899 7476.8,1073.21 7631.37,1233.29 7752.23,1414.29 7838.21,1616.17 7888.97,1838.62 7904.95,2081.01 7887.29,2342.39 7837.76,2621.4 
  7758.65,2916.3 7652.69,3224.89 7522.84,3544.6 7372.25,3872.44 7204.09,4205.03 7021.46,4538.66 6827.3,4869.33 6624.31,5192.81 6414.89,5504.73 6201.1,5800.65 
  5984.68,6076.2 5767.01,6327.14 5549.16,6549.51 5331.92,6739.75 5115.86,6894.79 4901.39,7012.16 4688.81,7090.05 4478.4,7127.43 4270.45,7124.03 4065.42,7080.42 
  3863.9,6997.93 3666.73,6878.68 3475.04,6725.4 3290.25,6541.45 3114.12,6330.65 2948.77,6097.2 2796.6,5845.52 2660.3,5580.12 2542.78,5305.49 2447.11,5025.98 
  2376.38,4745.73 2333.63,4468.51 2321.74,4197.7 2343.27,3936.24 2400.37,3686.59 2494.66,3450.7 2627.11,3230.05 2797.99,3025.65 3006.78,2838.11 3252.14,2667.69 
  3531.91,2514.36 3843.08,2377.9 4181.9,2257.95 4543.9,2154.12 4923.98,2066.07 5316.53,1993.55 5715.54,1936.45 6114.76,1894.87 6507.81,1869.12 6888.39,1859.7 
  7250.37,1867.27 7587.98,1892.66 7895.92,1936.76 8169.51,2000.46 8404.84,2084.61 8598.82,2189.86 8749.3,2316.64 8854.99,2465.09 8915.56,2634.99 8931.58,2825.67 
  8904.44,3036.02 8836.32,3264.45 8729.97,3508.9 8588.65,3766.82 8415.97,4035.26 8215.75,4310.85 7991.86,4589.88 7748.11,4868.4 7488.15,5142.25 7215.33,5407.2 
  6932.71,5659.01 6642.95,5893.55 6348.33,6106.89 6050.76,6295.45 5751.82,6456.06 5452.78,6586.06 5154.67,6683.36 4858.37,6746.56 4564.67,6774.96 4274.38,6768.61 
  3988.37,6728.29 3707.68,6655.48 3433.56,6552.32 3167.53,6421.55 2911.42,6266.44 2667.4,6090.66 2437.95,5898.2 2225.85,5693.19 2034.13,5479.87 1866.02,5262.4 
  1724.84,5044.81 1613.87,4830.83 1536.31,4623.85 1495.11,4426.84 1492.85,4242.29 1531.62,4072.17 1612.96,3917.91 1737.74,3780.42 1906.11,3660.09 2117.45,3556.85 
  2370.39,3470.23 2662.79,3399.42 2991.79,3343.37 3353.89,3300.85 3744.96,3270.6 4160.41,3251.37 4595.21,3242.02 5044.03,3241.59 5501.32,3249.39 5961.43,3264.98 
  6418.69,3288.26 6867.52,3319.4 7302.5,3358.88 7718.54,3407.41 8110.87,3465.89 8475.19,3535.34 8807.74,3616.8 9105.32,3711.25 9365.4,3819.56 9586.17,3942.3 
  9766.49,4079.79 9905.95,4231.91 10004.8,4398.14 10064.1,4577.45 10085.2,4768.31 10070.3,4968.69 10021.7,5176.08 9942.25,5387.5 9834.85,5599.6 9702.55,5808.7 
  9548.36,6010.88 9375.2,6202.13 9185.79,6378.38 8982.59,6535.7 8767.79,6670.31 8543.24,6778.81 8310.49,6858.21 8070.75,6906.05 7824.99,6920.47 7573.91,6900.29 
  7318.06,6844.97 7057.86,6754.71 6793.73,6630.39 6526.08,6473.58 6255.48,6286.41 5982.67,6071.56 5708.68,5832.19 5434.82,5571.79 5162.81,5294.15 4894.73,5003.22 
  4633.08,4703.03 4380.73,4397.62 4140.93,4090.93 3917.19,3786.74 3713.25,3488.6 3532.92,3199.81 3379.98,2923.29 3258.07,2661.64 3170.55,2417.09 3120.33,2191.44 
  3109.72,1986.07 3140.28,1801.97 3212.78,1639.74 3327.12,1499.64 3482.33,1381.64 3676.48,1285.45 3906.74,1210.59 4169.39,1156.45 4459.98,1122.38 4773.45,1107.73 
  5104.17,1111.93 5446.18,1134.52 5793.27,1175.18 6139.23,1233.76 6477.94,1310.27 6803.53,1404.87 7110.59,1517.84 7394.23,1649.48 7650.22,1800.14 7875.09,1970.06 
  8066.16,2159.35 8221.61,2367.91 8340.43,2595.33 8422.48,2840.86 8468.35,3103.34 8479.36,3381.16 8457.39,3672.24 8404.82,3974.04 8324.4,4283.51 8219.1,4597.2 
  8092.02,4911.21 7946.25,5221.35 7784.76,5523.16 7610.37,5812 7425.61,6083.19 7232.74,6332.1 7033.66,6554.34 6829.98,6745.82 6622.98,6902.91 6413.66,7022.55 
  6202.78,7102.34 5990.93,7140.64 5778.56,7136.64 5566.09,7090.35 5353.97,7002.62 5142.73,6875.11 4933.07,6710.23 4725.88,6511.06 4522.36,6281.23 4323.99,6024.83 
  4132.56,5746.27 3950.22,5450.15 3779.4,5141.12 3622.82,4823.81 3483.39,4502.67 3364.19,4181.9 3268.29,3865.39 3198.72,3556.63 3158.32,3258.67 3149.6,2974.11 
  3174.62,2705.08 3234.87,2453.22 3331.19,2219.76 3463.69,2005.53 3631.67,1810.97 3833.58,1636.24 4067.03,1481.28 4328.81,1345.86 4614.99,1229.64 4920.92,1132.3 
  5241.37,1053.53 5570.69,993.121 5902.92,950.994 6231.93,927.219 6551.61,922.026 6856.03,935.79 7139.59,969.008 7397.16,1022.25 7624.23,1096.12 7817.02,1191.19 
  
  "/>
</svg>
