<?xml version="1.0" encoding="utf-8"?>
<svg xmlns="http://www.w3.org/2000/svg" xmlns:xlink="http://www.w3.org/1999/xlink" width="2800" height="2000" viewBox="0 0 11200 8000">
<defs>
  <clipPath id="clip310">
    <rect x="0" y="0" width="11200" height="8000"/>
  </clipPath>
</defs>
<path clip-path="url(#clip310)" d="
M0 8000 L11200 8000 L11200 0 L0 0  Z
  " fill="#ffffff" fill-rule="evenodd" fill-opacity="1"/>
<defs>
  <clipPath id="clip311">
    <rect x="2240" y="0" width="7841" height="7841"/>
  </clipPath>
</defs>
<path clip-path="url(#clip310)" d="
M4481.46 7378.4 L11152.8 7378.4 L11152.8 294.421 L4481.46 294.421  Z
  " fill="#ffffff" fill-rule="evenodd" fill-opacity="1"/>
<defs>
  <clipPath id="clip312">
    <rect x="4481" y="294" width="6672" height="7085"/>
  </clipPath>
</defs>
<polyline clip-path="url(#clip312)" style="stroke:#000000; stroke-width:2; stroke-opacity:0.1; fill:none" points="
  4670.27,7378.4 4670.27,294.421 
  "/>
<polyline clip-path="url(#clip312)" style="stroke:#000000; stroke-width:2; stroke-opacity:0.1; fill:none" points="
  6243.69,7378.4 6243.69,294.421 
  "/>
<polyline clip-path="url(#clip312)" style="stroke:#000000; stroke-width:2; stroke-opacity:0.1; fill:none" points="
  7817.11,7378.4 7817.11,294.421 
  "/>
<polyline clip-path="url(#clip312)" style="stroke:#000000; stroke-width:2; stroke-opacity:0.1; fill:none" points="
  9390.53,7378.4 9390.53,294.421 
  "/>
<polyline clip-path="url(#clip312)" style="stroke:#000000; stroke-width:2; stroke-opacity:0.1; fill:none" points="
  10963.9,7378.4 10963.9,294.421 
  "/>
<polyline clip-path="url(#clip310)" style="stroke:#000000; stroke-width:4; stroke-opacity:1; fill:none" points="
  4481.46,7378.4 11152.8,7378.4 
  "/>
<polyline clip-path="url(#clip310)" style="stroke:#000000; stroke-width:4; stroke-opacity:1; fill:none" points="
  4670.27,7378.4 4670.27,7293.39 
  "/>
<polyline clip-path="url(#clip310)" style="stroke:#000000; stroke-width:4; stroke-opacity:1; fill:none" points="
  6243.69,7378.4 6243.69,7293.39 
  "/>
<polyline clip-path="url(#clip310)" style="stroke:#000000; stroke-width:4; stroke-opacity:1; fill:none" points="
  7817.11,7378.4 7817.11,7293.39 
  "/>
<polyline clip-path="url(#clip310)" style="stroke:#000000; stroke-width:4; stroke-opacity:1; fill:none" points="
  9390.53,7378.4 9390.53,7293.39 
  "/>
<polyline clip-path="url(#clip310)" style="stroke:#000000; stroke-width:4; stroke-opacity:1; fill:none" points="
  10963.9,7378.4 10963.9,7293.39 
  "/>
<path clip-path="url(#clip310)" d="M 0 0 M4670.27 7530.44 Q4647.7 7530.44 4636.28 7552.72 Q4624.99 7574.86 4624.99 7619.42 Q4624.99 7663.83 4636.28 7686.11 Q4647.7 7708.25 4670.27 7708.25 Q4692.99 7708.25 4704.27 7686.11 Q4715.7 7663.83 4715.7 7619.42 Q4715.7 7574.86 4704.27 7552.72 Q4692.99 7530.44 4670.27 7530.44 M4670.27 7507.3 Q4706.59 7507.3 4725.68 7536.09 Q4744.93 7564.73 4744.93 7619.42 Q4744.93 7673.96 4725.68 7702.75 Q4706.59 7731.4 4670.27 7731.4 Q4633.96 7731.4 4614.72 7702.75 Q4595.62 7673.96 4595.62 7619.42 Q4595.62 7564.73 4614.72 7536.09 Q4633.96 7507.3 4670.27 7507.3 Z" fill="#000000" fill-rule="evenodd" fill-opacity="1" /><path clip-path="url(#clip310)" d="M 0 0 M6128.96 7702.61 L6230.96 7702.61 L6230.96 7727.2 L6093.81 7727.2 L6093.81 7702.61 Q6110.45 7685.39 6139.09 7656.46 Q6167.88 7627.38 6175.26 7618.99 Q6189.29 7603.22 6194.79 7592.37 Q6200.43 7581.37 6200.43 7570.81 Q6200.43 7553.59 6188.28 7542.74 Q6176.27 7531.89 6156.89 7531.89 Q6143.14 7531.89 6127.81 7536.67 Q6112.62 7541.44 6095.26 7551.13 L6095.26 7521.62 Q6112.91 7514.53 6128.24 7510.91 Q6143.58 7507.3 6156.31 7507.3 Q6189.87 7507.3 6209.84 7524.08 Q6229.8 7540.86 6229.8 7568.93 Q6229.8 7582.24 6224.74 7594.25 Q6219.82 7606.11 6206.66 7622.31 Q6203.04 7626.51 6183.65 7646.62 Q6164.27 7666.58 6128.96 7702.61 Z" fill="#000000" fill-rule="evenodd" fill-opacity="1" /><path clip-path="url(#clip310)" d="M 0 0 M6262.93 7511.2 L6377.66 7511.2 L6377.66 7535.8 L6289.7 7535.8 L6289.7 7588.75 Q6296.06 7586.58 6302.43 7585.57 Q6308.8 7584.41 6315.16 7584.41 Q6351.33 7584.41 6372.45 7604.23 Q6393.58 7624.05 6393.58 7657.9 Q6393.58 7692.77 6371.87 7712.16 Q6350.17 7731.4 6310.68 7731.4 Q6297.08 7731.4 6282.9 7729.08 Q6268.87 7726.77 6253.82 7722.14 L6253.82 7692.77 Q6266.84 7699.86 6280.73 7703.33 Q6294.62 7706.8 6310.1 7706.8 Q6335.13 7706.8 6349.74 7693.64 Q6364.35 7680.47 6364.35 7657.9 Q6364.35 7635.33 6349.74 7622.17 Q6335.13 7609 6310.1 7609 Q6298.38 7609 6286.66 7611.61 Q6275.09 7614.21 6262.93 7619.71 L6262.93 7511.2 Z" fill="#000000" fill-rule="evenodd" fill-opacity="1" /><path clip-path="url(#clip310)" d="M 0 0 M7671.93 7511.2 L7786.66 7511.2 L7786.66 7535.8 L7698.69 7535.8 L7698.69 7588.75 Q7705.06 7586.58 7711.42 7585.57 Q7717.79 7584.41 7724.16 7584.41 Q7760.33 7584.41 7781.45 7604.23 Q7802.57 7624.05 7802.57 7657.9 Q7802.57 7692.77 7780.87 7712.16 Q7759.17 7731.4 7719.67 7731.4 Q7706.07 7731.4 7691.89 7729.08 Q7677.86 7726.77 7662.81 7722.14 L7662.81 7692.77 Q7675.83 7699.86 7689.72 7703.33 Q7703.61 7706.8 7719.09 7706.8 Q7744.12 7706.8 7758.73 7693.64 Q7773.35 7680.47 7773.35 7657.9 Q7773.35 7635.33 7758.73 7622.17 Q7744.12 7609 7719.09 7609 Q7707.37 7609 7695.66 7611.61 Q7684.08 7614.21 7671.93 7619.71 L7671.93 7511.2 Z" fill="#000000" fill-rule="evenodd" fill-opacity="1" /><path clip-path="url(#clip310)" d="M 0 0 M7896.75 7530.44 Q7874.18 7530.44 7862.76 7552.72 Q7851.47 7574.86 7851.47 7619.42 Q7851.47 7663.83 7862.76 7686.11 Q7874.18 7708.25 7896.75 7708.25 Q7919.47 7708.25 7930.75 7686.11 Q7942.18 7663.83 7942.18 7619.42 Q7942.18 7574.86 7930.75 7552.72 Q7919.47 7530.44 7896.75 7530.44 M7896.75 7507.3 Q7933.07 7507.3 7952.16 7536.09 Q7971.41 7564.73 7971.41 7619.42 Q7971.41 7673.96 7952.16 7702.75 Q7933.07 7731.4 7896.75 7731.4 Q7860.44 7731.4 7841.2 7702.75 Q7822.1 7673.96 7822.1 7619.42 Q7822.1 7564.73 7841.2 7536.09 Q7860.44 7507.3 7896.75 7507.3 Z" fill="#000000" fill-rule="evenodd" fill-opacity="1" /><path clip-path="url(#clip310)" d="M 0 0 M9239.78 7511.2 L9378.66 7511.2 L9378.66 7523.64 L9300.25 7727.2 L9269.72 7727.2 L9343.51 7535.8 L9239.78 7535.8 L9239.78 7511.2 Z" fill="#000000" fill-rule="evenodd" fill-opacity="1" /><path clip-path="url(#clip310)" d="M 0 0 M9410.64 7511.2 L9525.37 7511.2 L9525.37 7535.8 L9437.4 7535.8 L9437.4 7588.75 Q9443.77 7586.58 9450.13 7585.57 Q9456.5 7584.41 9462.87 7584.41 Q9499.03 7584.41 9520.16 7604.23 Q9541.28 7624.05 9541.28 7657.9 Q9541.28 7692.77 9519.58 7712.16 Q9497.88 7731.4 9458.38 7731.4 Q9444.78 7731.4 9430.6 7729.08 Q9416.57 7726.77 9401.52 7722.14 L9401.52 7692.77 Q9414.54 7699.86 9428.43 7703.33 Q9442.32 7706.8 9457.8 7706.8 Q9482.83 7706.8 9497.44 7693.64 Q9512.06 7680.47 9512.06 7657.9 Q9512.06 7635.33 9497.44 7622.17 Q9482.83 7609 9457.8 7609 Q9446.08 7609 9434.36 7611.61 Q9422.79 7614.21 9410.64 7619.71 L9410.64 7511.2 Z" fill="#000000" fill-rule="evenodd" fill-opacity="1" /><path clip-path="url(#clip310)" d="M 0 0 M10735 7702.61 L10782.7 7702.61 L10782.7 7537.82 L10730.8 7548.24 L10730.8 7521.62 L10782.5 7511.2 L10811.7 7511.2 L10811.7 7702.61 L10859.4 7702.61 L10859.4 7727.2 L10735 7727.2 L10735 7702.61 Z" fill="#000000" fill-rule="evenodd" fill-opacity="1" /><path clip-path="url(#clip310)" d="M 0 0 M10953.6 7530.44 Q10931 7530.44 10919.6 7552.72 Q10908.3 7574.86 10908.3 7619.42 Q10908.3 7663.83 10919.6 7686.11 Q10931 7708.25 10953.6 7708.25 Q10976.3 7708.25 10987.6 7686.11 Q10999 7663.83 10999 7619.42 Q10999 7574.86 10987.6 7552.72 Q10976.3 7530.44 10953.6 7530.44 M10953.6 7507.3 Q10989.9 7507.3 11009 7536.09 Q11028.3 7564.73 11028.3 7619.42 Q11028.3 7673.96 11009 7702.75 Q10989.9 7731.4 10953.6 7731.4 Q10917.3 7731.4 10898 7702.75 Q10878.9 7673.96 10878.9 7619.42 Q10878.9 7564.73 10898 7536.09 Q10917.3 7507.3 10953.6 7507.3 Z" fill="#000000" fill-rule="evenodd" fill-opacity="1" /><path clip-path="url(#clip310)" d="M 0 0 M11122.4 7530.44 Q11099.9 7530.44 11088.4 7552.72 Q11077.2 7574.86 11077.2 7619.42 Q11077.2 7663.83 11088.4 7686.11 Q11099.9 7708.25 11122.4 7708.25 Q11145.2 7708.25 11156.4 7686.11 Q11167.9 7663.83 11167.9 7619.42 Q11167.9 7574.86 11156.4 7552.72 Q11145.2 7530.44 11122.4 7530.44 M11122.4 7507.3 Q11158.8 7507.3 11177.8 7536.09 Q11197.1 7564.73 11197.1 7619.42 Q11197.1 7673.96 11177.8 7702.75 Q11158.8 7731.4 11122.4 7731.4 Q11086.1 7731.4 11066.9 7702.75 Q11047.8 7673.96 11047.8 7619.42 Q11047.8 7564.73 11066.9 7536.09 Q11086.1 7507.3 11122.4 7507.3 Z" fill="#000000" fill-rule="evenodd" fill-opacity="1" /><path clip-path="url(#clip310)" d="M 0 0 M6321.82 7857.6 L6361.17 7857.6 L6456.95 8038.3 L6456.95 7857.6 L6485.3 7857.6 L6485.3 8073.6 L6445.95 8073.6 L6350.18 7892.9 L6350.18 8073.6 L6321.82 8073.6 L6321.82 7857.6 Z" fill="#000000" fill-rule="evenodd" fill-opacity="1" /><path clip-path="url(#clip310)" d="M 0 0 M6510.48 8009.66 L6510.48 7911.57 L6537.1 7911.57 L6537.1 8008.64 Q6537.1 8031.65 6546.07 8043.22 Q6555.04 8054.65 6572.98 8054.65 Q6594.53 8054.65 6606.97 8040.91 Q6619.56 8027.16 6619.56 8003.44 L6619.56 7911.57 L6646.18 7911.57 L6646.18 8073.6 L6619.56 8073.6 L6619.56 8048.72 Q6609.87 8063.48 6596.99 8070.71 Q6584.26 8077.8 6567.33 8077.8 Q6539.41 8077.8 6524.94 8060.44 Q6510.48 8043.08 6510.48 8009.66 M6577.46 7907.66 L6577.46 7907.66 M6597.28 7836.62 L6626.07 7836.62 L6578.91 7891.02 L6556.77 7891.02 L6597.28 7836.62 Z" fill="#000000" fill-rule="evenodd" fill-opacity="1" /><path clip-path="url(#clip310)" d="M 0 0 M6800.26 7942.67 Q6810.24 7924.73 6824.13 7916.2 Q6838.02 7907.66 6856.83 7907.66 Q6882.15 7907.66 6895.89 7925.46 Q6909.64 7943.11 6909.64 7975.8 L6909.64 8073.6 L6882.87 8073.6 L6882.87 7976.67 Q6882.87 7953.38 6874.62 7942.09 Q6866.38 7930.81 6849.45 7930.81 Q6828.76 7930.81 6816.75 7944.55 Q6804.75 7958.3 6804.75 7982.02 L6804.75 8073.6 L6777.98 8073.6 L6777.98 7976.67 Q6777.98 7953.23 6769.73 7942.09 Q6761.49 7930.81 6744.27 7930.81 Q6723.87 7930.81 6711.86 7944.7 Q6699.86 7958.44 6699.86 7982.02 L6699.86 8073.6 L6673.09 8073.6 L6673.09 7911.57 L6699.86 7911.57 L6699.86 7936.74 Q6708.97 7921.84 6721.7 7914.75 Q6734.43 7907.66 6751.94 7907.66 Q6769.59 7907.66 6781.89 7916.63 Q6794.33 7925.6 6800.26 7942.67 Z" fill="#000000" fill-rule="evenodd" fill-opacity="1" /><path clip-path="url(#clip310)" d="M 0 0 M7076.16 7985.93 L7076.16 7998.95 L6953.76 7998.95 Q6955.5 8026.44 6970.25 8040.91 Q6985.16 8055.23 7011.63 8055.23 Q7026.97 8055.23 7041.29 8051.47 Q7055.76 8047.71 7069.94 8040.18 L7069.94 8065.36 Q7055.61 8071.43 7040.57 8074.62 Q7025.52 8077.8 7010.04 8077.8 Q6971.27 8077.8 6948.55 8055.23 Q6925.98 8032.66 6925.98 7994.18 Q6925.98 7954.39 6947.4 7931.1 Q6968.95 7907.66 7005.41 7907.66 Q7038.11 7907.66 7057.06 7928.78 Q7076.16 7949.76 7076.16 7985.93 M7049.54 7978.12 Q7049.25 7956.27 7037.24 7943.25 Q7025.38 7930.23 7005.7 7930.23 Q6983.42 7930.23 6969.96 7942.82 Q6956.65 7955.4 6954.63 7978.26 L7049.54 7978.12 Z" fill="#000000" fill-rule="evenodd" fill-opacity="1" /><path clip-path="url(#clip310)" d="M 0 0 M7197.97 7936.45 Q7193.49 7933.85 7188.13 7932.69 Q7182.93 7931.39 7176.56 7931.39 Q7153.99 7931.39 7141.84 7946.14 Q7129.83 7960.76 7129.83 7988.24 L7129.83 8073.6 L7103.07 8073.6 L7103.07 7911.57 L7129.83 7911.57 L7129.83 7936.74 Q7138.22 7921.98 7151.68 7914.89 Q7165.13 7907.66 7184.37 7907.66 Q7187.12 7907.66 7190.45 7908.09 Q7193.78 7908.38 7197.83 7909.11 L7197.97 7936.45 Z" fill="#000000" fill-rule="evenodd" fill-opacity="1" /><path clip-path="url(#clip310)" d="M 0 0 M7282.17 7930.23 Q7260.76 7930.23 7248.32 7947.01 Q7235.88 7963.65 7235.88 7992.73 Q7235.88 8021.81 7248.17 8038.59 Q7260.62 8055.23 7282.17 8055.23 Q7303.44 8055.23 7315.88 8038.45 Q7328.33 8021.66 7328.33 7992.73 Q7328.33 7963.94 7315.88 7947.16 Q7303.44 7930.23 7282.17 7930.23 M7282.17 7907.66 Q7316.9 7907.66 7336.72 7930.23 Q7356.54 7952.8 7356.54 7992.73 Q7356.54 8032.51 7336.72 8055.23 Q7316.9 8077.8 7282.17 8077.8 Q7247.31 8077.8 7227.49 8055.23 Q7207.81 8032.51 7207.81 7992.73 Q7207.81 7952.8 7227.49 7930.23 Q7247.31 7907.66 7282.17 7907.66 Z" fill="#000000" fill-rule="evenodd" fill-opacity="1" /><path clip-path="url(#clip310)" d="M 0 0 M7585.27 7936.16 L7585.27 7848.49 L7611.89 7848.49 L7611.89 8073.6 L7585.27 8073.6 L7585.27 8049.3 Q7576.88 8063.76 7564 8070.85 Q7551.27 8077.8 7533.33 8077.8 Q7503.96 8077.8 7485.44 8054.36 Q7467.07 8030.92 7467.07 7992.73 Q7467.07 7954.54 7485.44 7931.1 Q7503.96 7907.66 7533.33 7907.66 Q7551.27 7907.66 7564 7914.75 Q7576.88 7921.69 7585.27 7936.16 M7494.56 7992.73 Q7494.56 8022.1 7506.56 8038.88 Q7518.72 8055.52 7539.84 8055.52 Q7560.96 8055.52 7573.12 8038.88 Q7585.27 8022.1 7585.27 7992.73 Q7585.27 7963.36 7573.12 7946.72 Q7560.96 7929.94 7539.84 7929.94 Q7518.72 7929.94 7506.56 7946.72 Q7494.56 7963.36 7494.56 7992.73 Z" fill="#000000" fill-rule="evenodd" fill-opacity="1" /><path clip-path="url(#clip310)" d="M 0 0 M7778.41 7985.93 L7778.41 7998.95 L7656.01 7998.95 Q7657.75 8026.44 7672.51 8040.91 Q7687.41 8055.23 7713.88 8055.23 Q7729.22 8055.23 7743.54 8051.47 Q7758.01 8047.71 7772.19 8040.18 L7772.19 8065.36 Q7757.87 8071.43 7742.82 8074.62 Q7727.77 8077.8 7712.29 8077.8 Q7673.52 8077.8 7650.81 8055.23 Q7628.24 8032.66 7628.24 7994.18 Q7628.24 7954.39 7649.65 7931.1 Q7671.21 7907.66 7707.66 7907.66 Q7740.36 7907.66 7759.31 7928.78 Q7778.41 7949.76 7778.41 7985.93 M7751.79 7978.12 Q7751.5 7956.27 7739.49 7943.25 Q7727.63 7930.23 7707.95 7930.23 Q7685.67 7930.23 7672.22 7942.82 Q7658.91 7955.4 7656.88 7978.26 L7751.79 7978.12 Z" fill="#000000" fill-rule="evenodd" fill-opacity="1" /><path clip-path="url(#clip310)" d="M 0 0 M7900.52 7911.57 L7927.14 7911.57 L7927.14 8073.6 L7900.52 8073.6 L7900.52 7911.57 M7900.52 7848.49 L7927.14 7848.49 L7927.14 7882.2 L7900.52 7882.2 L7900.52 7848.49 Z" fill="#000000" fill-rule="evenodd" fill-opacity="1" /><path clip-path="url(#clip310)" d="M 0 0 M7981.39 7865.56 L7981.39 7911.57 L8036.22 7911.57 L8036.22 7932.26 L7981.39 7932.26 L7981.39 8020.22 Q7981.39 8040.04 7986.74 8045.68 Q7992.24 8051.32 8008.88 8051.32 L8036.22 8051.32 L8036.22 8073.6 L8008.88 8073.6 Q7978.06 8073.6 7966.34 8062.17 Q7954.62 8050.6 7954.62 8020.22 L7954.62 7932.26 L7935.09 7932.26 L7935.09 7911.57 L7954.62 7911.57 L7954.62 7865.56 L7981.39 7865.56 Z" fill="#000000" fill-rule="evenodd" fill-opacity="1" /><path clip-path="url(#clip310)" d="M 0 0 M8202.74 7985.93 L8202.74 7998.95 L8080.35 7998.95 Q8082.08 8026.44 8096.84 8040.91 Q8111.74 8055.23 8138.22 8055.23 Q8153.55 8055.23 8167.87 8051.47 Q8182.34 8047.71 8196.52 8040.18 L8196.52 8065.36 Q8182.2 8071.43 8167.15 8074.62 Q8152.11 8077.8 8136.63 8077.8 Q8097.85 8077.8 8075.14 8055.23 Q8052.57 8032.66 8052.57 7994.18 Q8052.57 7954.39 8073.98 7931.1 Q8095.54 7907.66 8132 7907.66 Q8164.69 7907.66 8183.64 7928.78 Q8202.74 7949.76 8202.74 7985.93 M8176.12 7978.12 Q8175.83 7956.27 8163.82 7943.25 Q8151.96 7930.23 8132.28 7930.23 Q8110 7930.23 8096.55 7942.82 Q8083.24 7955.4 8081.21 7978.26 L8176.12 7978.12 Z" fill="#000000" fill-rule="evenodd" fill-opacity="1" /><path clip-path="url(#clip310)" d="M 0 0 M8324.56 7936.45 Q8320.07 7933.85 8314.72 7932.69 Q8309.51 7931.39 8303.15 7931.39 Q8280.58 7931.39 8268.42 7946.14 Q8256.42 7960.76 8256.42 7988.24 L8256.42 8073.6 L8229.65 8073.6 L8229.65 7911.57 L8256.42 7911.57 L8256.42 7936.74 Q8264.81 7921.98 8278.26 7914.89 Q8291.72 7907.66 8310.96 7907.66 Q8313.71 7907.66 8317.03 7908.09 Q8320.36 7908.38 8324.41 7909.11 L8324.56 7936.45 Z" fill="#000000" fill-rule="evenodd" fill-opacity="1" /><path clip-path="url(#clip310)" d="M 0 0 M8426.12 7992.15 Q8393.86 7992.15 8381.42 7999.53 Q8368.97 8006.91 8368.97 8024.7 Q8368.97 8038.88 8378.23 8047.27 Q8387.64 8055.52 8403.7 8055.52 Q8425.83 8055.52 8439.14 8039.89 Q8452.6 8024.12 8452.6 7998.08 L8452.6 7992.15 L8426.12 7992.15 M8479.22 7981.16 L8479.22 8073.6 L8452.6 8073.6 L8452.6 8049.01 Q8443.48 8063.76 8429.88 8070.85 Q8416.28 8077.8 8396.61 8077.8 Q8371.72 8077.8 8356.97 8063.91 Q8342.35 8049.88 8342.35 8026.44 Q8342.35 7999.09 8360.58 7985.21 Q8378.96 7971.32 8415.27 7971.32 L8452.6 7971.32 L8452.6 7968.71 Q8452.6 7950.34 8440.44 7940.36 Q8428.43 7930.23 8406.59 7930.23 Q8392.7 7930.23 8379.53 7933.56 Q8366.37 7936.88 8354.22 7943.54 L8354.22 7918.94 Q8368.83 7913.3 8382.57 7910.55 Q8396.32 7907.66 8409.34 7907.66 Q8444.49 7907.66 8461.85 7925.89 Q8479.22 7944.12 8479.22 7981.16 Z" fill="#000000" fill-rule="evenodd" fill-opacity="1" /><path clip-path="url(#clip310)" d="M 0 0 M8623.75 7917.79 L8623.75 7942.67 Q8612.46 7936.45 8601.03 7933.41 Q8589.75 7930.23 8578.17 7930.23 Q8552.28 7930.23 8537.95 7946.72 Q8523.63 7963.07 8523.63 7992.73 Q8523.63 8022.39 8537.95 8038.88 Q8552.28 8055.23 8578.17 8055.23 Q8589.75 8055.23 8601.03 8052.19 Q8612.46 8049.01 8623.75 8042.79 L8623.75 8067.38 Q8612.61 8072.59 8600.6 8075.19 Q8588.73 8077.8 8575.28 8077.8 Q8538.68 8077.8 8517.12 8054.79 Q8495.56 8031.79 8495.56 7992.73 Q8495.56 7953.09 8517.27 7930.37 Q8539.11 7907.66 8577.02 7907.66 Q8589.31 7907.66 8601.03 7910.26 Q8612.75 7912.72 8623.75 7917.79 Z" fill="#000000" fill-rule="evenodd" fill-opacity="1" /><path clip-path="url(#clip310)" d="M 0 0 M8651.67 7911.57 L8678.29 7911.57 L8678.29 8073.6 L8651.67 8073.6 L8651.67 7911.57 M8651.67 7848.49 L8678.29 7848.49 L8678.29 7882.2 L8651.67 7882.2 L8651.67 7848.49 Z" fill="#000000" fill-rule="evenodd" fill-opacity="1" /><path clip-path="url(#clip310)" d="M 0 0 M8769 7930.23 Q8747.59 7930.23 8735.15 7947.01 Q8722.7 7963.65 8722.7 7992.73 Q8722.7 8021.81 8735 8038.59 Q8747.44 8055.23 8769 8055.23 Q8790.27 8055.23 8802.71 8038.45 Q8815.15 8021.66 8815.15 7992.73 Q8815.15 7963.94 8802.71 7947.16 Q8790.27 7930.23 8769 7930.23 M8769 7907.66 Q8803.72 7907.66 8823.54 7930.23 Q8843.36 7952.8 8843.36 7992.73 Q8843.36 8032.51 8823.54 8055.23 Q8803.72 8077.8 8769 8077.8 Q8734.13 8077.8 8714.31 8055.23 Q8694.64 8032.51 8694.64 7992.73 Q8694.64 7952.8 8714.31 7930.23 Q8734.13 7907.66 8769 7907.66 Z" fill="#000000" fill-rule="evenodd" fill-opacity="1" /><path clip-path="url(#clip310)" d="M 0 0 M9005.98 7975.8 L9005.98 8073.6 L8979.36 8073.6 L8979.36 7976.67 Q8979.36 7953.67 8970.39 7942.24 Q8961.42 7930.81 8943.48 7930.81 Q8921.92 7930.81 8909.48 7944.55 Q8897.04 7958.3 8897.04 7982.02 L8897.04 8073.6 L8870.27 8073.6 L8870.27 7911.57 L8897.04 7911.57 L8897.04 7936.74 Q8906.59 7922.13 8919.46 7914.89 Q8932.48 7907.66 8949.41 7907.66 Q8977.33 7907.66 8991.66 7925.02 Q9005.98 7942.24 9005.98 7975.8 Z" fill="#000000" fill-rule="evenodd" fill-opacity="1" /><path clip-path="url(#clip310)" d="M 0 0 M9172.5 7985.93 L9172.5 7998.95 L9050.1 7998.95 Q9051.84 8026.44 9066.6 8040.91 Q9081.5 8055.23 9107.97 8055.23 Q9123.31 8055.23 9137.63 8051.47 Q9152.1 8047.71 9166.28 8040.18 L9166.28 8065.36 Q9151.96 8071.43 9136.91 8074.62 Q9121.86 8077.8 9106.38 8077.8 Q9067.61 8077.8 9044.9 8055.23 Q9022.33 8032.66 9022.33 7994.18 Q9022.33 7954.39 9043.74 7931.1 Q9065.29 7907.66 9101.75 7907.66 Q9134.45 7907.66 9153.4 7928.78 Q9172.5 7949.76 9172.5 7985.93 M9145.88 7978.12 Q9145.59 7956.27 9133.58 7943.25 Q9121.72 7930.23 9102.04 7930.23 Q9079.76 7930.23 9066.31 7942.82 Q9053 7955.4 9050.97 7978.26 L9145.88 7978.12 Z" fill="#000000" fill-rule="evenodd" fill-opacity="1" /><path clip-path="url(#clip310)" d="M 0 0 M9303.72 7916.34 L9303.72 7941.51 Q9292.43 7935.73 9280.28 7932.83 Q9268.13 7929.94 9255.11 7929.94 Q9235.29 7929.94 9225.31 7936.02 Q9215.47 7942.09 9215.47 7954.25 Q9215.47 7963.5 9222.56 7968.86 Q9229.65 7974.07 9251.06 7978.84 L9260.17 7980.87 Q9288.53 7986.94 9300.39 7998.08 Q9312.4 8009.08 9312.4 8028.9 Q9312.4 8051.47 9294.46 8064.63 Q9276.67 8077.8 9245.42 8077.8 Q9232.39 8077.8 9218.22 8075.19 Q9204.18 8072.73 9188.56 8067.67 L9188.56 8040.18 Q9203.31 8047.85 9217.64 8051.76 Q9231.96 8055.52 9245.99 8055.52 Q9264.8 8055.52 9274.93 8049.15 Q9285.06 8042.64 9285.06 8030.92 Q9285.06 8020.07 9277.68 8014.29 Q9270.44 8008.5 9245.7 8003.15 L9236.45 8000.98 Q9211.71 7995.77 9200.71 7985.06 Q9189.72 7974.21 9189.72 7955.4 Q9189.72 7932.54 9205.92 7920.1 Q9222.12 7907.66 9251.93 7907.66 Q9266.68 7907.66 9279.7 7909.83 Q9292.72 7912 9303.72 7916.34 Z" fill="#000000" fill-rule="evenodd" fill-opacity="1" /><polyline clip-path="url(#clip312)" style="stroke:#000000; stroke-width:2; stroke-opacity:0.1; fill:none" points="
  4481.46,6270.6 11152.8,6270.6 
  "/>
<polyline clip-path="url(#clip312)" style="stroke:#000000; stroke-width:2; stroke-opacity:0.1; fill:none" points="
  4481.46,4404.08 11152.8,4404.08 
  "/>
<polyline clip-path="url(#clip312)" style="stroke:#000000; stroke-width:2; stroke-opacity:0.1; fill:none" points="
  4481.46,2537.57 11152.8,2537.57 
  "/>
<polyline clip-path="url(#clip312)" style="stroke:#000000; stroke-width:2; stroke-opacity:0.1; fill:none" points="
  4481.46,671.052 11152.8,671.052 
  "/>
<polyline clip-path="url(#clip310)" style="stroke:#000000; stroke-width:4; stroke-opacity:1; fill:none" points="
  4481.46,7378.4 4481.46,294.421 
  "/>
<polyline clip-path="url(#clip310)" style="stroke:#000000; stroke-width:4; stroke-opacity:1; fill:none" points="
  4481.46,6270.6 4561.52,6270.6 
  "/>
<polyline clip-path="url(#clip310)" style="stroke:#000000; stroke-width:4; stroke-opacity:1; fill:none" points="
  4481.46,4404.08 4561.52,4404.08 
  "/>
<polyline clip-path="url(#clip310)" style="stroke:#000000; stroke-width:4; stroke-opacity:1; fill:none" points="
  4481.46,2537.57 4561.52,2537.57 
  "/>
<polyline clip-path="url(#clip310)" style="stroke:#000000; stroke-width:4; stroke-opacity:1; fill:none" points="
  4481.46,671.052 4561.52,671.052 
  "/>
<path clip-path="url(#clip310)" d="M 0 0 M260.39 6313.72 L445.863 6313.72 L445.863 6338.31 L260.39 6338.31 L260.39 6313.72 Z" fill="#000000" fill-rule="evenodd" fill-opacity="1" /><path clip-path="url(#clip310)" d="M 0 0 M482.611 6394.3 L530.354 6394.3 L530.354 6229.52 L478.415 6239.93 L478.415 6213.31 L530.064 6202.9 L559.289 6202.9 L559.289 6394.3 L607.031 6394.3 L607.031 6418.9 L482.611 6418.9 L482.611 6394.3 Z" fill="#000000" fill-rule="evenodd" fill-opacity="1" /><path clip-path="url(#clip310)" d="M 0 0 M638.715 6382.15 L669.242 6382.15 L669.242 6418.9 L638.715 6418.9 L638.715 6382.15 Z" fill="#000000" fill-rule="evenodd" fill-opacity="1" /><path clip-path="url(#clip310)" d="M 0 0 M701.215 6202.9 L815.942 6202.9 L815.942 6227.49 L727.98 6227.49 L727.98 6280.44 Q734.346 6278.27 740.711 6277.26 Q747.077 6276.1 753.443 6276.1 Q789.611 6276.1 810.734 6295.92 Q831.857 6315.74 831.857 6349.6 Q831.857 6384.46 810.155 6403.85 Q788.454 6423.09 748.958 6423.09 Q735.358 6423.09 721.18 6420.78 Q707.147 6418.46 692.1 6413.83 L692.1 6384.46 Q705.121 6391.55 719.01 6395.02 Q732.899 6398.5 748.379 6398.5 Q773.408 6398.5 788.02 6385.33 Q802.632 6372.17 802.632 6349.6 Q802.632 6327.03 788.02 6313.86 Q773.408 6300.7 748.379 6300.7 Q736.66 6300.7 724.942 6303.3 Q713.368 6305.91 701.215 6311.4 L701.215 6202.9 Z" fill="#000000" fill-rule="evenodd" fill-opacity="1" /><path clip-path="url(#clip310)" d="M 0 0 M926.04 6222.14 Q903.471 6222.14 892.041 6244.42 Q880.757 6266.55 880.757 6311.11 Q880.757 6355.53 892.041 6377.81 Q903.471 6399.94 926.04 6399.94 Q948.754 6399.94 960.039 6377.81 Q971.468 6355.53 971.468 6311.11 Q971.468 6266.55 960.039 6244.42 Q948.754 6222.14 926.04 6222.14 M926.04 6198.99 Q962.354 6198.99 981.451 6227.78 Q1000.69 6256.43 1000.69 6311.11 Q1000.69 6365.66 981.451 6394.45 Q962.354 6423.09 926.04 6423.09 Q889.727 6423.09 870.485 6394.45 Q851.388 6365.66 851.388 6311.11 Q851.388 6256.43 870.485 6227.78 Q889.727 6198.99 926.04 6198.99 Z" fill="#000000" fill-rule="evenodd" fill-opacity="1" /><path clip-path="url(#clip310)" d="M 0 0 M1094.88 6222.14 Q1072.31 6222.14 1060.88 6244.42 Q1049.59 6266.55 1049.59 6311.11 Q1049.59 6355.53 1060.88 6377.81 Q1072.31 6399.94 1094.88 6399.94 Q1117.59 6399.94 1128.87 6377.81 Q1140.3 6355.53 1140.3 6311.11 Q1140.3 6266.55 1128.87 6244.42 Q1117.59 6222.14 1094.88 6222.14 M1094.88 6198.99 Q1131.19 6198.99 1150.29 6227.78 Q1169.53 6256.43 1169.53 6311.11 Q1169.53 6365.66 1150.29 6394.45 Q1131.19 6423.09 1094.88 6423.09 Q1058.56 6423.09 1039.32 6394.45 Q1020.22 6365.66 1020.22 6311.11 Q1020.22 6256.43 1039.32 6227.78 Q1058.56 6198.99 1094.88 6198.99 Z" fill="#000000" fill-rule="evenodd" fill-opacity="1" /><path clip-path="url(#clip310)" d="M 0 0 M1263.71 6222.14 Q1241.14 6222.14 1229.71 6244.42 Q1218.43 6266.55 1218.43 6311.11 Q1218.43 6355.53 1229.71 6377.81 Q1241.14 6399.94 1263.71 6399.94 Q1286.43 6399.94 1297.71 6377.81 Q1309.14 6355.53 1309.14 6311.11 Q1309.14 6266.55 1297.71 6244.42 Q1286.43 6222.14 1263.71 6222.14 M1263.71 6198.99 Q1300.03 6198.99 1319.12 6227.78 Q1338.36 6256.43 1338.36 6311.11 Q1338.36 6365.66 1319.12 6394.45 Q1300.03 6423.09 1263.71 6423.09 Q1227.4 6423.09 1208.16 6394.45 Q1189.06 6365.66 1189.06 6311.11 Q1189.06 6256.43 1208.16 6227.78 Q1227.4 6198.99 1263.71 6198.99 Z" fill="#000000" fill-rule="evenodd" fill-opacity="1" /><path clip-path="url(#clip310)" d="M 0 0 M1432.55 6222.14 Q1409.98 6222.14 1398.55 6244.42 Q1387.26 6266.55 1387.26 6311.11 Q1387.26 6355.53 1398.55 6377.81 Q1409.98 6399.94 1432.55 6399.94 Q1455.26 6399.94 1466.55 6377.81 Q1477.98 6355.53 1477.98 6311.11 Q1477.98 6266.55 1466.55 6244.42 Q1455.26 6222.14 1432.55 6222.14 M1432.55 6198.99 Q1468.86 6198.99 1487.96 6227.78 Q1507.2 6256.43 1507.2 6311.11 Q1507.2 6365.66 1487.96 6394.45 Q1468.86 6423.09 1432.55 6423.09 Q1396.23 6423.09 1376.99 6394.45 Q1357.9 6365.66 1357.9 6311.11 Q1357.9 6256.43 1376.99 6227.78 Q1396.23 6198.99 1432.55 6198.99 Z" fill="#000000" fill-rule="evenodd" fill-opacity="1" /><path clip-path="url(#clip310)" d="M 0 0 M1601.38 6222.14 Q1578.81 6222.14 1567.39 6244.42 Q1556.1 6266.55 1556.1 6311.11 Q1556.1 6355.53 1567.39 6377.81 Q1578.81 6399.94 1601.38 6399.94 Q1624.1 6399.94 1635.38 6377.81 Q1646.81 6355.53 1646.81 6311.11 Q1646.81 6266.55 1635.38 6244.42 Q1624.1 6222.14 1601.38 6222.14 M1601.38 6198.99 Q1637.7 6198.99 1656.79 6227.78 Q1676.04 6256.43 1676.04 6311.11 Q1676.04 6365.66 1656.79 6394.45 Q1637.7 6423.09 1601.38 6423.09 Q1565.07 6423.09 1545.83 6394.45 Q1526.73 6365.66 1526.73 6311.11 Q1526.73 6256.43 1545.83 6227.78 Q1565.07 6198.99 1601.38 6198.99 Z" fill="#000000" fill-rule="evenodd" fill-opacity="1" /><path clip-path="url(#clip310)" d="M 0 0 M1770.22 6222.14 Q1747.65 6222.14 1736.22 6244.42 Q1724.94 6266.55 1724.94 6311.11 Q1724.94 6355.53 1736.22 6377.81 Q1747.65 6399.94 1770.22 6399.94 Q1792.93 6399.94 1804.22 6377.81 Q1815.65 6355.53 1815.65 6311.11 Q1815.65 6266.55 1804.22 6244.42 Q1792.93 6222.14 1770.22 6222.14 M1770.22 6198.99 Q1806.53 6198.99 1825.63 6227.78 Q1844.87 6256.43 1844.87 6311.11 Q1844.87 6365.66 1825.63 6394.45 Q1806.53 6423.09 1770.22 6423.09 Q1733.91 6423.09 1714.66 6394.45 Q1695.57 6365.66 1695.57 6311.11 Q1695.57 6256.43 1714.66 6227.78 Q1733.91 6198.99 1770.22 6198.99 Z" fill="#000000" fill-rule="evenodd" fill-opacity="1" /><path clip-path="url(#clip310)" d="M 0 0 M1939.06 6222.14 Q1916.49 6222.14 1905.06 6244.42 Q1893.77 6266.55 1893.77 6311.11 Q1893.77 6355.53 1905.06 6377.81 Q1916.49 6399.94 1939.06 6399.94 Q1961.77 6399.94 1973.05 6377.81 Q1984.48 6355.53 1984.48 6311.11 Q1984.48 6266.55 1973.05 6244.42 Q1961.77 6222.14 1939.06 6222.14 M1939.06 6198.99 Q1975.37 6198.99 1994.47 6227.78 Q2013.71 6256.43 2013.71 6311.11 Q2013.71 6365.66 1994.47 6394.45 Q1975.37 6423.09 1939.06 6423.09 Q1902.74 6423.09 1883.5 6394.45 Q1864.4 6365.66 1864.4 6311.11 Q1864.4 6256.43 1883.5 6227.78 Q1902.74 6198.99 1939.06 6198.99 Z" fill="#000000" fill-rule="evenodd" fill-opacity="1" /><path clip-path="url(#clip310)" d="M 0 0 M2107.89 6222.14 Q2085.32 6222.14 2073.89 6244.42 Q2062.61 6266.55 2062.61 6311.11 Q2062.61 6355.53 2073.89 6377.81 Q2085.32 6399.94 2107.89 6399.94 Q2130.61 6399.94 2141.89 6377.81 Q2153.32 6355.53 2153.32 6311.11 Q2153.32 6266.55 2141.89 6244.42 Q2130.61 6222.14 2107.89 6222.14 M2107.89 6198.99 Q2144.2 6198.99 2163.3 6227.78 Q2182.54 6256.43 2182.54 6311.11 Q2182.54 6365.66 2163.3 6394.45 Q2144.2 6423.09 2107.89 6423.09 Q2071.58 6423.09 2052.34 6394.45 Q2033.24 6365.66 2033.24 6311.11 Q2033.24 6256.43 2052.34 6227.78 Q2071.58 6198.99 2107.89 6198.99 Z" fill="#000000" fill-rule="evenodd" fill-opacity="1" /><path clip-path="url(#clip310)" d="M 0 0 M2276.73 6222.14 Q2254.16 6222.14 2242.73 6244.42 Q2231.44 6266.55 2231.44 6311.11 Q2231.44 6355.53 2242.73 6377.81 Q2254.16 6399.94 2276.73 6399.94 Q2299.44 6399.94 2310.73 6377.81 Q2322.16 6355.53 2322.16 6311.11 Q2322.16 6266.55 2310.73 6244.42 Q2299.44 6222.14 2276.73 6222.14 M2276.73 6198.99 Q2313.04 6198.99 2332.14 6227.78 Q2351.38 6256.43 2351.38 6311.11 Q2351.38 6365.66 2332.14 6394.45 Q2313.04 6423.09 2276.73 6423.09 Q2240.41 6423.09 2221.17 6394.45 Q2202.07 6365.66 2202.07 6311.11 Q2202.07 6256.43 2221.17 6227.78 Q2240.41 6198.99 2276.73 6198.99 Z" fill="#000000" fill-rule="evenodd" fill-opacity="1" /><path clip-path="url(#clip310)" d="M 0 0 M2445.56 6222.14 Q2422.99 6222.14 2411.56 6244.42 Q2400.28 6266.55 2400.28 6311.11 Q2400.28 6355.53 2411.56 6377.81 Q2422.99 6399.94 2445.56 6399.94 Q2468.28 6399.94 2479.56 6377.81 Q2490.99 6355.53 2490.99 6311.11 Q2490.99 6266.55 2479.56 6244.42 Q2468.28 6222.14 2445.56 6222.14 M2445.56 6198.99 Q2481.88 6198.99 2500.97 6227.78 Q2520.22 6256.43 2520.22 6311.11 Q2520.22 6365.66 2500.97 6394.45 Q2481.88 6423.09 2445.56 6423.09 Q2409.25 6423.09 2390.01 6394.45 Q2370.91 6365.66 2370.91 6311.11 Q2370.91 6256.43 2390.01 6227.78 Q2409.25 6198.99 2445.56 6198.99 Z" fill="#000000" fill-rule="evenodd" fill-opacity="1" /><path clip-path="url(#clip310)" d="M 0 0 M2614.4 6222.14 Q2591.83 6222.14 2580.4 6244.42 Q2569.12 6266.55 2569.12 6311.11 Q2569.12 6355.53 2580.4 6377.81 Q2591.83 6399.94 2614.4 6399.94 Q2637.11 6399.94 2648.4 6377.81 Q2659.83 6355.53 2659.83 6311.11 Q2659.83 6266.55 2648.4 6244.42 Q2637.11 6222.14 2614.4 6222.14 M2614.4 6198.99 Q2650.71 6198.99 2669.81 6227.78 Q2689.05 6256.43 2689.05 6311.11 Q2689.05 6365.66 2669.81 6394.45 Q2650.71 6423.09 2614.4 6423.09 Q2578.09 6423.09 2558.84 6394.45 Q2539.75 6365.66 2539.75 6311.11 Q2539.75 6256.43 2558.84 6227.78 Q2578.09 6198.99 2614.4 6198.99 Z" fill="#000000" fill-rule="evenodd" fill-opacity="1" /><path clip-path="url(#clip310)" d="M 0 0 M2783.24 6222.14 Q2760.67 6222.14 2749.24 6244.42 Q2737.95 6266.55 2737.95 6311.11 Q2737.95 6355.53 2749.24 6377.81 Q2760.67 6399.94 2783.24 6399.94 Q2805.95 6399.94 2817.23 6377.81 Q2828.66 6355.53 2828.66 6311.11 Q2828.66 6266.55 2817.23 6244.42 Q2805.95 6222.14 2783.24 6222.14 M2783.24 6198.99 Q2819.55 6198.99 2838.65 6227.78 Q2857.89 6256.43 2857.89 6311.11 Q2857.89 6365.66 2838.65 6394.45 Q2819.55 6423.09 2783.24 6423.09 Q2746.92 6423.09 2727.68 6394.45 Q2708.58 6365.66 2708.58 6311.11 Q2708.58 6256.43 2727.68 6227.78 Q2746.92 6198.99 2783.24 6198.99 Z" fill="#000000" fill-rule="evenodd" fill-opacity="1" /><path clip-path="url(#clip310)" d="M 0 0 M2952.07 6222.14 Q2929.5 6222.14 2918.07 6244.42 Q2906.79 6266.55 2906.79 6311.11 Q2906.79 6355.53 2918.07 6377.81 Q2929.5 6399.94 2952.07 6399.94 Q2974.78 6399.94 2986.07 6377.81 Q2997.5 6355.53 2997.5 6311.11 Q2997.5 6266.55 2986.07 6244.42 Q2974.78 6222.14 2952.07 6222.14 M2952.07 6198.99 Q2988.38 6198.99 3007.48 6227.78 Q3026.72 6256.43 3026.72 6311.11 Q3026.72 6365.66 3007.48 6394.45 Q2988.38 6423.09 2952.07 6423.09 Q2915.76 6423.09 2896.52 6394.45 Q2877.42 6365.66 2877.42 6311.11 Q2877.42 6256.43 2896.52 6227.78 Q2915.76 6198.99 2952.07 6198.99 Z" fill="#000000" fill-rule="evenodd" fill-opacity="1" /><path clip-path="url(#clip310)" d="M 0 0 M3120.91 6222.14 Q3098.34 6222.14 3086.91 6244.42 Q3075.62 6266.55 3075.62 6311.11 Q3075.62 6355.53 3086.91 6377.81 Q3098.34 6399.94 3120.91 6399.94 Q3143.62 6399.94 3154.91 6377.81 Q3166.33 6355.53 3166.33 6311.11 Q3166.33 6266.55 3154.91 6244.42 Q3143.62 6222.14 3120.91 6222.14 M3120.91 6198.99 Q3157.22 6198.99 3176.32 6227.78 Q3195.56 6256.43 3195.56 6311.11 Q3195.56 6365.66 3176.32 6394.45 Q3157.22 6423.09 3120.91 6423.09 Q3084.59 6423.09 3065.35 6394.45 Q3046.25 6365.66 3046.25 6311.11 Q3046.25 6256.43 3065.35 6227.78 Q3084.59 6198.99 3120.91 6198.99 Z" fill="#000000" fill-rule="evenodd" fill-opacity="1" /><path clip-path="url(#clip310)" d="M 0 0 M3252.42 6394.3 L3354.41 6394.3 L3354.41 6418.9 L3217.26 6418.9 L3217.26 6394.3 Q3233.9 6377.09 3262.54 6348.15 Q3291.33 6319.07 3298.71 6310.68 Q3312.75 6294.91 3318.24 6284.06 Q3323.89 6273.06 3323.89 6262.5 Q3323.89 6245.29 3311.73 6234.44 Q3299.73 6223.58 3280.34 6223.58 Q3266.59 6223.58 3251.26 6228.36 Q3236.07 6233.13 3218.71 6242.83 L3218.71 6213.31 Q3236.36 6206.22 3251.69 6202.61 Q3267.03 6198.99 3279.76 6198.99 Q3313.32 6198.99 3333.29 6215.77 Q3353.26 6232.55 3353.26 6260.62 Q3353.26 6273.93 3348.19 6285.94 Q3343.27 6297.8 3330.11 6314.01 Q3326.49 6318.2 3307.1 6338.31 Q3287.72 6358.28 3252.42 6394.3 Z" fill="#000000" fill-rule="evenodd" fill-opacity="1" /><path clip-path="url(#clip310)" d="M 0 0 M3562.17 6259.75 L3496.05 6326.16 L3562.17 6392.28 L3544.95 6409.78 L3478.54 6343.38 L3412.14 6409.78 L3395.07 6392.28 L3461.04 6326.16 L3395.07 6259.75 L3412.14 6242.25 L3478.54 6308.65 L3544.95 6242.25 L3562.17 6259.75 Z" fill="#000000" fill-rule="evenodd" fill-opacity="1" /><path clip-path="url(#clip310)" d="M 0 0 M3598.91 6394.3 L3646.66 6394.3 L3646.66 6229.52 L3594.72 6239.93 L3594.72 6213.31 L3646.37 6202.9 L3675.59 6202.9 L3675.59 6394.3 L3723.33 6394.3 L3723.33 6418.9 L3598.91 6418.9 L3598.91 6394.3 Z" fill="#000000" fill-rule="evenodd" fill-opacity="1" /><path clip-path="url(#clip310)" d="M 0 0 M3817.52 6222.14 Q3794.95 6222.14 3783.52 6244.42 Q3772.23 6266.55 3772.23 6311.11 Q3772.23 6355.53 3783.52 6377.81 Q3794.95 6399.94 3817.52 6399.94 Q3840.23 6399.94 3851.52 6377.81 Q3862.95 6355.53 3862.95 6311.11 Q3862.95 6266.55 3851.52 6244.42 Q3840.23 6222.14 3817.52 6222.14 M3817.52 6198.99 Q3853.83 6198.99 3872.93 6227.78 Q3892.17 6256.43 3892.17 6311.11 Q3892.17 6365.66 3872.93 6394.45 Q3853.83 6423.09 3817.52 6423.09 Q3781.2 6423.09 3761.96 6394.45 Q3742.87 6365.66 3742.87 6311.11 Q3742.87 6256.43 3761.96 6227.78 Q3781.2 6198.99 3817.52 6198.99 Z" fill="#000000" fill-rule="evenodd" fill-opacity="1" /><path clip-path="url(#clip310)" d="M 0 0 M3892.17 6162.12 L4042.87 6162.12 L4042.87 6182.11 L3892.17 6182.11 L3892.17 6162.12 Z" fill="#000000" fill-rule="evenodd" fill-opacity="1" /><path clip-path="url(#clip310)" d="M 0 0 M4072.72 6227.6 L4111.52 6227.6 L4111.52 6093.71 L4069.32 6102.17 L4069.32 6080.54 L4111.28 6072.08 L4135.03 6072.08 L4135.03 6227.6 L4173.82 6227.6 L4173.82 6247.58 L4072.72 6247.58 L4072.72 6227.6 Z" fill="#000000" fill-rule="evenodd" fill-opacity="1" /><path clip-path="url(#clip310)" d="M 0 0 M4264.8 6092.77 L4204.85 6186.46 L4264.8 6186.46 L4264.8 6092.77 M4258.57 6072.08 L4288.43 6072.08 L4288.43 6186.46 L4313.46 6186.46 L4313.46 6206.2 L4288.43 6206.2 L4288.43 6247.58 L4264.8 6247.58 L4264.8 6206.2 L4185.57 6206.2 L4185.57 6183.28 L4258.57 6072.08 Z" fill="#000000" fill-rule="evenodd" fill-opacity="1" /><path clip-path="url(#clip310)" d="M 0 0 M254.169 4447.2 L439.642 4447.2 L439.642 4471.8 L254.169 4471.8 L254.169 4447.2 Z" fill="#000000" fill-rule="evenodd" fill-opacity="1" /><path clip-path="url(#clip310)" d="M 0 0 M476.39 4527.79 L524.133 4527.79 L524.133 4363 L472.194 4373.42 L472.194 4346.8 L523.843 4336.38 L553.068 4336.38 L553.068 4527.79 L600.81 4527.79 L600.81 4552.38 L476.39 4552.38 L476.39 4527.79 Z" fill="#000000" fill-rule="evenodd" fill-opacity="1" /><path clip-path="url(#clip310)" d="M 0 0 M632.494 4515.63 L663.021 4515.63 L663.021 4552.38 L632.494 4552.38 L632.494 4515.63 Z" fill="#000000" fill-rule="evenodd" fill-opacity="1" /><path clip-path="url(#clip310)" d="M 0 0 M757.204 4355.62 Q734.635 4355.62 723.206 4377.9 Q711.921 4400.04 711.921 4444.6 Q711.921 4489.01 723.206 4511.29 Q734.635 4533.43 757.204 4533.43 Q779.918 4533.43 791.203 4511.29 Q802.632 4489.01 802.632 4444.6 Q802.632 4400.04 791.203 4377.9 Q779.918 4355.62 757.204 4355.62 M757.204 4332.47 Q793.518 4332.47 812.615 4361.26 Q831.857 4389.91 831.857 4444.6 Q831.857 4499.14 812.615 4527.93 Q793.518 4556.58 757.204 4556.58 Q720.891 4556.58 701.649 4527.93 Q682.552 4499.14 682.552 4444.6 Q682.552 4389.91 701.649 4361.26 Q720.891 4332.47 757.204 4332.47 Z" fill="#000000" fill-rule="evenodd" fill-opacity="1" /><path clip-path="url(#clip310)" d="M 0 0 M926.04 4355.62 Q903.471 4355.62 892.041 4377.9 Q880.757 4400.04 880.757 4444.6 Q880.757 4489.01 892.041 4511.29 Q903.471 4533.43 926.04 4533.43 Q948.754 4533.43 960.039 4511.29 Q971.468 4489.01 971.468 4444.6 Q971.468 4400.04 960.039 4377.9 Q948.754 4355.62 926.04 4355.62 M926.04 4332.47 Q962.354 4332.47 981.451 4361.26 Q1000.69 4389.91 1000.69 4444.6 Q1000.69 4499.14 981.451 4527.93 Q962.354 4556.58 926.04 4556.58 Q889.727 4556.58 870.485 4527.93 Q851.388 4499.14 851.388 4444.6 Q851.388 4389.91 870.485 4361.26 Q889.727 4332.47 926.04 4332.47 Z" fill="#000000" fill-rule="evenodd" fill-opacity="1" /><path clip-path="url(#clip310)" d="M 0 0 M1094.88 4355.62 Q1072.31 4355.62 1060.88 4377.9 Q1049.59 4400.04 1049.59 4444.6 Q1049.59 4489.01 1060.88 4511.29 Q1072.31 4533.43 1094.88 4533.43 Q1117.59 4533.43 1128.87 4511.29 Q1140.3 4489.01 1140.3 4444.6 Q1140.3 4400.04 1128.87 4377.9 Q1117.59 4355.62 1094.88 4355.62 M1094.88 4332.47 Q1131.19 4332.47 1150.29 4361.26 Q1169.53 4389.91 1169.53 4444.6 Q1169.53 4499.14 1150.29 4527.93 Q1131.19 4556.58 1094.88 4556.58 Q1058.56 4556.58 1039.32 4527.93 Q1020.22 4499.14 1020.22 4444.6 Q1020.22 4389.91 1039.32 4361.26 Q1058.56 4332.47 1094.88 4332.47 Z" fill="#000000" fill-rule="evenodd" fill-opacity="1" /><path clip-path="url(#clip310)" d="M 0 0 M1263.71 4355.62 Q1241.14 4355.62 1229.71 4377.9 Q1218.43 4400.04 1218.43 4444.6 Q1218.43 4489.01 1229.71 4511.29 Q1241.14 4533.43 1263.71 4533.43 Q1286.43 4533.43 1297.71 4511.29 Q1309.14 4489.01 1309.14 4444.6 Q1309.14 4400.04 1297.71 4377.9 Q1286.43 4355.62 1263.71 4355.62 M1263.71 4332.47 Q1300.03 4332.47 1319.12 4361.26 Q1338.36 4389.91 1338.36 4444.6 Q1338.36 4499.14 1319.12 4527.93 Q1300.03 4556.58 1263.71 4556.58 Q1227.4 4556.58 1208.16 4527.93 Q1189.06 4499.14 1189.06 4444.6 Q1189.06 4389.91 1208.16 4361.26 Q1227.4 4332.47 1263.71 4332.47 Z" fill="#000000" fill-rule="evenodd" fill-opacity="1" /><path clip-path="url(#clip310)" d="M 0 0 M1432.55 4355.62 Q1409.98 4355.62 1398.55 4377.9 Q1387.26 4400.04 1387.26 4444.6 Q1387.26 4489.01 1398.55 4511.29 Q1409.98 4533.43 1432.55 4533.43 Q1455.26 4533.43 1466.55 4511.29 Q1477.98 4489.01 1477.98 4444.6 Q1477.98 4400.04 1466.55 4377.9 Q1455.26 4355.62 1432.55 4355.62 M1432.55 4332.47 Q1468.86 4332.47 1487.96 4361.26 Q1507.2 4389.91 1507.2 4444.6 Q1507.2 4499.14 1487.96 4527.93 Q1468.86 4556.58 1432.55 4556.58 Q1396.23 4556.58 1376.99 4527.93 Q1357.9 4499.14 1357.9 4444.6 Q1357.9 4389.91 1376.99 4361.26 Q1396.23 4332.47 1432.55 4332.47 Z" fill="#000000" fill-rule="evenodd" fill-opacity="1" /><path clip-path="url(#clip310)" d="M 0 0 M1601.38 4355.62 Q1578.81 4355.62 1567.39 4377.9 Q1556.1 4400.04 1556.1 4444.6 Q1556.1 4489.01 1567.39 4511.29 Q1578.81 4533.43 1601.38 4533.43 Q1624.1 4533.43 1635.38 4511.29 Q1646.81 4489.01 1646.81 4444.6 Q1646.81 4400.04 1635.38 4377.9 Q1624.1 4355.62 1601.38 4355.62 M1601.38 4332.47 Q1637.7 4332.47 1656.79 4361.26 Q1676.04 4389.91 1676.04 4444.6 Q1676.04 4499.14 1656.79 4527.93 Q1637.7 4556.58 1601.38 4556.58 Q1565.07 4556.58 1545.83 4527.93 Q1526.73 4499.14 1526.73 4444.6 Q1526.73 4389.91 1545.83 4361.26 Q1565.07 4332.47 1601.38 4332.47 Z" fill="#000000" fill-rule="evenodd" fill-opacity="1" /><path clip-path="url(#clip310)" d="M 0 0 M1770.22 4355.62 Q1747.65 4355.62 1736.22 4377.9 Q1724.94 4400.04 1724.94 4444.6 Q1724.94 4489.01 1736.22 4511.29 Q1747.65 4533.43 1770.22 4533.43 Q1792.93 4533.43 1804.22 4511.29 Q1815.65 4489.01 1815.65 4444.6 Q1815.65 4400.04 1804.22 4377.9 Q1792.93 4355.62 1770.22 4355.62 M1770.22 4332.47 Q1806.53 4332.47 1825.63 4361.26 Q1844.87 4389.91 1844.87 4444.6 Q1844.87 4499.14 1825.63 4527.93 Q1806.53 4556.58 1770.22 4556.58 Q1733.91 4556.58 1714.66 4527.93 Q1695.57 4499.14 1695.57 4444.6 Q1695.57 4389.91 1714.66 4361.26 Q1733.91 4332.47 1770.22 4332.47 Z" fill="#000000" fill-rule="evenodd" fill-opacity="1" /><path clip-path="url(#clip310)" d="M 0 0 M1939.06 4355.62 Q1916.49 4355.62 1905.06 4377.9 Q1893.77 4400.04 1893.77 4444.6 Q1893.77 4489.01 1905.06 4511.29 Q1916.49 4533.43 1939.06 4533.43 Q1961.77 4533.43 1973.05 4511.29 Q1984.48 4489.01 1984.48 4444.6 Q1984.48 4400.04 1973.05 4377.9 Q1961.77 4355.62 1939.06 4355.62 M1939.06 4332.47 Q1975.37 4332.47 1994.47 4361.26 Q2013.71 4389.91 2013.71 4444.6 Q2013.71 4499.14 1994.47 4527.93 Q1975.37 4556.58 1939.06 4556.58 Q1902.74 4556.58 1883.5 4527.93 Q1864.4 4499.14 1864.4 4444.6 Q1864.4 4389.91 1883.5 4361.26 Q1902.74 4332.47 1939.06 4332.47 Z" fill="#000000" fill-rule="evenodd" fill-opacity="1" /><path clip-path="url(#clip310)" d="M 0 0 M2107.89 4355.62 Q2085.32 4355.62 2073.89 4377.9 Q2062.61 4400.04 2062.61 4444.6 Q2062.61 4489.01 2073.89 4511.29 Q2085.32 4533.43 2107.89 4533.43 Q2130.61 4533.43 2141.89 4511.29 Q2153.32 4489.01 2153.32 4444.6 Q2153.32 4400.04 2141.89 4377.9 Q2130.61 4355.62 2107.89 4355.62 M2107.89 4332.47 Q2144.2 4332.47 2163.3 4361.26 Q2182.54 4389.91 2182.54 4444.6 Q2182.54 4499.14 2163.3 4527.93 Q2144.2 4556.58 2107.89 4556.58 Q2071.58 4556.58 2052.34 4527.93 Q2033.24 4499.14 2033.24 4444.6 Q2033.24 4389.91 2052.34 4361.26 Q2071.58 4332.47 2107.89 4332.47 Z" fill="#000000" fill-rule="evenodd" fill-opacity="1" /><path clip-path="url(#clip310)" d="M 0 0 M2276.73 4355.62 Q2254.16 4355.62 2242.73 4377.9 Q2231.44 4400.04 2231.44 4444.6 Q2231.44 4489.01 2242.73 4511.29 Q2254.16 4533.43 2276.73 4533.43 Q2299.44 4533.43 2310.73 4511.29 Q2322.16 4489.01 2322.16 4444.6 Q2322.16 4400.04 2310.73 4377.9 Q2299.44 4355.62 2276.73 4355.62 M2276.73 4332.47 Q2313.04 4332.47 2332.14 4361.26 Q2351.38 4389.91 2351.38 4444.6 Q2351.38 4499.14 2332.14 4527.93 Q2313.04 4556.58 2276.73 4556.58 Q2240.41 4556.58 2221.17 4527.93 Q2202.07 4499.14 2202.07 4444.6 Q2202.07 4389.91 2221.17 4361.26 Q2240.41 4332.47 2276.73 4332.47 Z" fill="#000000" fill-rule="evenodd" fill-opacity="1" /><path clip-path="url(#clip310)" d="M 0 0 M2445.56 4355.62 Q2422.99 4355.62 2411.56 4377.9 Q2400.28 4400.04 2400.28 4444.6 Q2400.28 4489.01 2411.56 4511.29 Q2422.99 4533.43 2445.56 4533.43 Q2468.28 4533.43 2479.56 4511.29 Q2490.99 4489.01 2490.99 4444.6 Q2490.99 4400.04 2479.56 4377.9 Q2468.28 4355.62 2445.56 4355.62 M2445.56 4332.47 Q2481.88 4332.47 2500.97 4361.26 Q2520.22 4389.91 2520.22 4444.6 Q2520.22 4499.14 2500.97 4527.93 Q2481.88 4556.58 2445.56 4556.58 Q2409.25 4556.58 2390.01 4527.93 Q2370.91 4499.14 2370.91 4444.6 Q2370.91 4389.91 2390.01 4361.26 Q2409.25 4332.47 2445.56 4332.47 Z" fill="#000000" fill-rule="evenodd" fill-opacity="1" /><path clip-path="url(#clip310)" d="M 0 0 M2614.4 4355.62 Q2591.83 4355.62 2580.4 4377.9 Q2569.12 4400.04 2569.12 4444.6 Q2569.12 4489.01 2580.4 4511.29 Q2591.83 4533.43 2614.4 4533.43 Q2637.11 4533.43 2648.4 4511.29 Q2659.83 4489.01 2659.83 4444.6 Q2659.83 4400.04 2648.4 4377.9 Q2637.11 4355.62 2614.4 4355.62 M2614.4 4332.47 Q2650.71 4332.47 2669.81 4361.26 Q2689.05 4389.91 2689.05 4444.6 Q2689.05 4499.14 2669.81 4527.93 Q2650.71 4556.58 2614.4 4556.58 Q2578.09 4556.58 2558.84 4527.93 Q2539.75 4499.14 2539.75 4444.6 Q2539.75 4389.91 2558.84 4361.26 Q2578.09 4332.47 2614.4 4332.47 Z" fill="#000000" fill-rule="evenodd" fill-opacity="1" /><path clip-path="url(#clip310)" d="M 0 0 M2783.24 4355.62 Q2760.67 4355.62 2749.24 4377.9 Q2737.95 4400.04 2737.95 4444.6 Q2737.95 4489.01 2749.24 4511.29 Q2760.67 4533.43 2783.24 4533.43 Q2805.95 4533.43 2817.23 4511.29 Q2828.66 4489.01 2828.66 4444.6 Q2828.66 4400.04 2817.23 4377.9 Q2805.95 4355.62 2783.24 4355.62 M2783.24 4332.47 Q2819.55 4332.47 2838.65 4361.26 Q2857.89 4389.91 2857.89 4444.6 Q2857.89 4499.14 2838.65 4527.93 Q2819.55 4556.58 2783.24 4556.58 Q2746.92 4556.58 2727.68 4527.93 Q2708.58 4499.14 2708.58 4444.6 Q2708.58 4389.91 2727.68 4361.26 Q2746.92 4332.47 2783.24 4332.47 Z" fill="#000000" fill-rule="evenodd" fill-opacity="1" /><path clip-path="url(#clip310)" d="M 0 0 M2952.07 4355.62 Q2929.5 4355.62 2918.07 4377.9 Q2906.79 4400.04 2906.79 4444.6 Q2906.79 4489.01 2918.07 4511.29 Q2929.5 4533.43 2952.07 4533.43 Q2974.78 4533.43 2986.07 4511.29 Q2997.5 4489.01 2997.5 4444.6 Q2997.5 4400.04 2986.07 4377.9 Q2974.78 4355.62 2952.07 4355.62 M2952.07 4332.47 Q2988.38 4332.47 3007.48 4361.26 Q3026.72 4389.91 3026.72 4444.6 Q3026.72 4499.14 3007.48 4527.93 Q2988.38 4556.58 2952.07 4556.58 Q2915.76 4556.58 2896.52 4527.93 Q2877.42 4499.14 2877.42 4444.6 Q2877.42 4389.91 2896.52 4361.26 Q2915.76 4332.47 2952.07 4332.47 Z" fill="#000000" fill-rule="evenodd" fill-opacity="1" /><path clip-path="url(#clip310)" d="M 0 0 M3120.91 4355.62 Q3098.34 4355.62 3086.91 4377.9 Q3075.62 4400.04 3075.62 4444.6 Q3075.62 4489.01 3086.91 4511.29 Q3098.34 4533.43 3120.91 4533.43 Q3143.62 4533.43 3154.91 4511.29 Q3166.33 4489.01 3166.33 4444.6 Q3166.33 4400.04 3154.91 4377.9 Q3143.62 4355.62 3120.91 4355.62 M3120.91 4332.47 Q3157.22 4332.47 3176.32 4361.26 Q3195.56 4389.91 3195.56 4444.6 Q3195.56 4499.14 3176.32 4527.93 Q3157.22 4556.58 3120.91 4556.58 Q3084.59 4556.58 3065.35 4527.93 Q3046.25 4499.14 3046.25 4444.6 Q3046.25 4389.91 3065.35 4361.26 Q3084.59 4332.47 3120.91 4332.47 Z" fill="#000000" fill-rule="evenodd" fill-opacity="1" /><path clip-path="url(#clip310)" d="M 0 0 M3252.42 4527.79 L3354.41 4527.79 L3354.41 4552.38 L3217.26 4552.38 L3217.26 4527.79 Q3233.9 4510.57 3262.54 4481.63 Q3291.33 4452.55 3298.71 4444.16 Q3312.75 4428.39 3318.24 4417.54 Q3323.89 4406.55 3323.89 4395.99 Q3323.89 4378.77 3311.73 4367.92 Q3299.73 4357.07 3280.34 4357.07 Q3266.59 4357.07 3251.26 4361.84 Q3236.07 4366.62 3218.71 4376.31 L3218.71 4346.8 Q3236.36 4339.71 3251.69 4336.09 Q3267.03 4332.47 3279.76 4332.47 Q3313.32 4332.47 3333.29 4349.26 Q3353.26 4366.04 3353.26 4394.11 Q3353.26 4407.42 3348.19 4419.42 Q3343.27 4431.29 3330.11 4447.49 Q3326.49 4451.69 3307.1 4471.8 Q3287.72 4491.76 3252.42 4527.79 Z" fill="#000000" fill-rule="evenodd" fill-opacity="1" /><path clip-path="url(#clip310)" d="M 0 0 M3562.17 4393.24 L3496.05 4459.64 L3562.17 4525.76 L3544.95 4543.27 L3478.54 4476.86 L3412.14 4543.27 L3395.07 4525.76 L3461.04 4459.64 L3395.07 4393.24 L3412.14 4375.73 L3478.54 4442.14 L3544.95 4375.73 L3562.17 4393.24 Z" fill="#000000" fill-rule="evenodd" fill-opacity="1" /><path clip-path="url(#clip310)" d="M 0 0 M3598.91 4527.79 L3646.66 4527.79 L3646.66 4363 L3594.72 4373.42 L3594.72 4346.8 L3646.37 4336.38 L3675.59 4336.38 L3675.59 4527.79 L3723.33 4527.79 L3723.33 4552.38 L3598.91 4552.38 L3598.91 4527.79 Z" fill="#000000" fill-rule="evenodd" fill-opacity="1" /><path clip-path="url(#clip310)" d="M 0 0 M3817.52 4355.62 Q3794.95 4355.62 3783.52 4377.9 Q3772.23 4400.04 3772.23 4444.6 Q3772.23 4489.01 3783.52 4511.29 Q3794.95 4533.43 3817.52 4533.43 Q3840.23 4533.43 3851.52 4511.29 Q3862.95 4489.01 3862.95 4444.6 Q3862.95 4400.04 3851.52 4377.9 Q3840.23 4355.62 3817.52 4355.62 M3817.52 4332.47 Q3853.83 4332.47 3872.93 4361.26 Q3892.17 4389.91 3892.17 4444.6 Q3892.17 4499.14 3872.93 4527.93 Q3853.83 4556.58 3817.52 4556.58 Q3781.2 4556.58 3761.96 4527.93 Q3742.87 4499.14 3742.87 4444.6 Q3742.87 4389.91 3761.96 4361.26 Q3781.2 4332.47 3817.52 4332.47 Z" fill="#000000" fill-rule="evenodd" fill-opacity="1" /><path clip-path="url(#clip310)" d="M 0 0 M3892.17 4295.61 L4042.87 4295.61 L4042.87 4315.59 L3892.17 4315.59 L3892.17 4295.61 Z" fill="#000000" fill-rule="evenodd" fill-opacity="1" /><path clip-path="url(#clip310)" d="M 0 0 M4072.72 4361.08 L4111.52 4361.08 L4111.52 4227.19 L4069.32 4235.66 L4069.32 4214.03 L4111.28 4205.57 L4135.03 4205.57 L4135.03 4361.08 L4173.82 4361.08 L4173.82 4381.07 L4072.72 4381.07 L4072.72 4361.08 Z" fill="#000000" fill-rule="evenodd" fill-opacity="1" /><path clip-path="url(#clip310)" d="M 0 0 M4264.8 4226.25 L4204.85 4319.94 L4264.8 4319.94 L4264.8 4226.25 M4258.57 4205.57 L4288.43 4205.57 L4288.43 4319.94 L4313.46 4319.94 L4313.46 4339.69 L4288.43 4339.69 L4288.43 4381.07 L4264.8 4381.07 L4264.8 4339.69 L4185.57 4339.69 L4185.57 4316.77 L4258.57 4205.57 Z" fill="#000000" fill-rule="evenodd" fill-opacity="1" /><path clip-path="url(#clip310)" d="M 0 0 M2782.8 2580.69 L2968.27 2580.69 L2968.27 2605.28 L2782.8 2605.28 L2782.8 2580.69 Z" fill="#000000" fill-rule="evenodd" fill-opacity="1" /><path clip-path="url(#clip310)" d="M 0 0 M3000.25 2469.87 L3114.98 2469.87 L3114.98 2494.46 L3027.01 2494.46 L3027.01 2547.41 Q3033.38 2545.24 3039.74 2544.23 Q3046.11 2543.07 3052.48 2543.07 Q3088.64 2543.07 3109.77 2562.89 Q3130.89 2582.71 3130.89 2616.57 Q3130.89 2651.43 3109.19 2670.82 Q3087.49 2690.06 3047.99 2690.06 Q3034.39 2690.06 3020.21 2687.75 Q3006.18 2685.43 2991.13 2680.8 L2991.13 2651.43 Q3004.15 2658.52 3018.04 2661.99 Q3031.93 2665.47 3047.41 2665.47 Q3072.44 2665.47 3087.05 2652.3 Q3101.67 2639.13 3101.67 2616.57 Q3101.67 2594 3087.05 2580.83 Q3072.44 2567.67 3047.41 2567.67 Q3035.69 2567.67 3023.97 2570.27 Q3012.4 2572.87 3000.25 2578.37 L3000.25 2469.87 Z" fill="#000000" fill-rule="evenodd" fill-opacity="1" /><path clip-path="url(#clip310)" d="M 0 0 M3162.57 2649.12 L3193.1 2649.12 L3193.1 2685.87 L3162.57 2685.87 L3162.57 2649.12 Z" fill="#000000" fill-rule="evenodd" fill-opacity="1" /><path clip-path="url(#clip310)" d="M 0 0 M3287.28 2489.11 Q3264.71 2489.11 3253.28 2511.39 Q3242 2533.52 3242 2578.08 Q3242 2622.5 3253.28 2644.78 Q3264.71 2666.91 3287.28 2666.91 Q3310 2666.91 3321.28 2644.78 Q3332.71 2622.5 3332.71 2578.08 Q3332.71 2533.52 3321.28 2511.39 Q3310 2489.11 3287.28 2489.11 M3287.28 2465.96 Q3323.6 2465.96 3342.69 2494.75 Q3361.94 2523.39 3361.94 2578.08 Q3361.94 2632.62 3342.69 2661.41 Q3323.6 2690.06 3287.28 2690.06 Q3250.97 2690.06 3231.73 2661.41 Q3212.63 2632.62 3212.63 2578.08 Q3212.63 2523.39 3231.73 2494.75 Q3250.97 2465.96 3287.28 2465.96 Z" fill="#000000" fill-rule="evenodd" fill-opacity="1" /><path clip-path="url(#clip310)" d="M 0 0 M3569.69 2526.72 L3503.57 2593.13 L3569.69 2659.24 L3552.47 2676.75 L3486.07 2610.34 L3419.66 2676.75 L3402.59 2659.24 L3468.56 2593.13 L3402.59 2526.72 L3419.66 2509.22 L3486.07 2575.62 L3552.47 2509.22 L3569.69 2526.72 Z" fill="#000000" fill-rule="evenodd" fill-opacity="1" /><path clip-path="url(#clip310)" d="M 0 0 M3606.44 2661.27 L3654.18 2661.27 L3654.18 2496.49 L3602.24 2506.9 L3602.24 2480.28 L3653.89 2469.87 L3683.11 2469.87 L3683.11 2661.27 L3730.86 2661.27 L3730.86 2685.87 L3606.44 2685.87 L3606.44 2661.27 Z" fill="#000000" fill-rule="evenodd" fill-opacity="1" /><path clip-path="url(#clip310)" d="M 0 0 M3825.04 2489.11 Q3802.47 2489.11 3791.04 2511.39 Q3779.76 2533.52 3779.76 2578.08 Q3779.76 2622.5 3791.04 2644.78 Q3802.47 2666.91 3825.04 2666.91 Q3847.75 2666.91 3859.04 2644.78 Q3870.47 2622.5 3870.47 2578.08 Q3870.47 2533.52 3859.04 2511.39 Q3847.75 2489.11 3825.04 2489.11 M3825.04 2465.96 Q3861.35 2465.96 3880.45 2494.75 Q3899.69 2523.39 3899.69 2578.08 Q3899.69 2632.62 3880.45 2661.41 Q3861.35 2690.06 3825.04 2690.06 Q3788.73 2690.06 3769.49 2661.41 Q3750.39 2632.62 3750.39 2578.08 Q3750.39 2523.39 3769.49 2494.75 Q3788.73 2465.96 3825.04 2465.96 Z" fill="#000000" fill-rule="evenodd" fill-opacity="1" /><path clip-path="url(#clip310)" d="M 0 0 M3899.69 2429.09 L4050.39 2429.09 L4050.39 2449.08 L3899.69 2449.08 L3899.69 2429.09 Z" fill="#000000" fill-rule="evenodd" fill-opacity="1" /><path clip-path="url(#clip310)" d="M 0 0 M4080.25 2494.57 L4119.04 2494.57 L4119.04 2360.68 L4076.84 2369.14 L4076.84 2347.51 L4118.8 2339.05 L4142.55 2339.05 L4142.55 2494.57 L4181.34 2494.57 L4181.34 2514.55 L4080.25 2514.55 L4080.25 2494.57 Z" fill="#000000" fill-rule="evenodd" fill-opacity="1" /><path clip-path="url(#clip310)" d="M 0 0 M4207.32 2339.05 L4300.53 2339.05 L4300.53 2359.03 L4229.06 2359.03 L4229.06 2402.06 Q4234.24 2400.29 4239.41 2399.47 Q4244.58 2398.53 4249.75 2398.53 Q4279.14 2398.53 4296.3 2414.63 Q4313.46 2430.74 4313.46 2458.24 Q4313.46 2486.57 4295.83 2502.32 Q4278.2 2517.96 4246.11 2517.96 Q4235.06 2517.96 4223.54 2516.08 Q4212.14 2514.2 4199.91 2510.44 L4199.91 2486.57 Q4210.49 2492.33 4221.78 2495.15 Q4233.06 2497.98 4245.64 2497.98 Q4265.97 2497.98 4277.85 2487.28 Q4289.72 2476.58 4289.72 2458.24 Q4289.72 2439.91 4277.85 2429.21 Q4265.97 2418.51 4245.64 2418.51 Q4236.12 2418.51 4226.6 2420.63 Q4217.19 2422.74 4207.32 2427.21 L4207.32 2339.05 Z" fill="#000000" fill-rule="evenodd" fill-opacity="1" /><path clip-path="url(#clip310)" d="M 0 0 M4238.81 582.294 Q4216.24 582.294 4204.81 604.574 Q4193.53 626.709 4193.53 671.269 Q4193.53 715.684 4204.81 737.964 Q4216.24 760.099 4238.81 760.099 Q4261.53 760.099 4272.81 737.964 Q4284.24 715.684 4284.24 671.269 Q4284.24 626.709 4272.81 604.574 Q4261.53 582.294 4238.81 582.294 M4238.81 559.146 Q4275.13 559.146 4294.22 587.936 Q4313.46 616.582 4313.46 671.269 Q4313.46 725.811 4294.22 754.602 Q4275.13 783.247 4238.81 783.247 Q4202.5 783.247 4183.26 754.602 Q4164.16 725.811 4164.16 671.269 Q4164.16 616.582 4183.26 587.936 Q4202.5 559.146 4238.81 559.146 Z" fill="#000000" fill-rule="evenodd" fill-opacity="1" /><path clip-path="url(#clip310)" d="M 0 0 M-65.9936 4921.98 L-35.1778 4921.98 Q-48.922 4936.74 -55.7217 4953.52 Q-62.5214 4970.16 -62.5214 4988.97 Q-62.5214 5026 -39.8074 5045.68 Q-17.2381 5065.35 25.5857 5065.35 Q68.2649 5065.35 90.9789 5045.68 Q113.548 5026 113.548 4988.97 Q113.548 4970.16 106.749 4953.52 Q99.9488 4936.74 86.2046 4921.98 L116.731 4921.98 Q127.148 4937.32 132.356 4954.53 Q137.564 4971.61 137.564 4990.7 Q137.564 5039.75 107.617 5067.96 Q77.5241 5096.17 25.5857 5096.17 Q-26.4973 5096.17 -56.4451 5067.96 Q-86.5375 5039.75 -86.5375 4990.7 Q-86.5375 4971.32 -81.3292 4954.24 Q-76.2656 4937.03 -65.9936 4921.98 Z" fill="#000000" fill-rule="evenodd" fill-opacity="1" /><path clip-path="url(#clip310)" d="M 0 0 M51.9166 4820.42 Q51.9166 4852.68 59.2951 4865.12 Q66.6735 4877.57 84.4685 4877.57 Q98.6467 4877.57 107.038 4868.31 Q115.284 4858.9 115.284 4842.84 Q115.284 4820.71 99.6594 4807.4 Q83.8898 4793.94 57.8483 4793.94 L51.9166 4793.94 L51.9166 4820.42 M40.9213 4767.32 L133.369 4767.32 L133.369 4793.94 L108.774 4793.94 Q123.531 4803.06 130.62 4816.66 Q137.564 4830.26 137.564 4849.93 Q137.564 4874.82 123.675 4889.57 Q109.642 4904.19 86.2046 4904.19 Q58.861 4904.19 44.9722 4885.96 Q31.0834 4867.58 31.0834 4831.27 L31.0834 4793.94 L28.4792 4793.94 Q10.1055 4793.94 0.122915 4806.1 Q-10.0043 4818.1 -10.0043 4839.95 Q-10.0043 4853.84 -6.67682 4867.01 Q-3.34929 4880.17 3.30577 4892.32 L-21.289 4892.32 Q-26.9313 4877.71 -29.6802 4863.97 Q-32.5737 4850.22 -32.5737 4837.2 Q-32.5737 4802.05 -14.3446 4784.68 Q3.88447 4767.32 40.9213 4767.32 Z" fill="#000000" fill-rule="evenodd" fill-opacity="1" /><path clip-path="url(#clip310)" d="M 0 0 M2.43772 4613.24 Q-15.502 4603.26 -24.0378 4589.37 Q-32.5737 4575.48 -32.5737 4556.68 Q-32.5737 4531.36 -14.7786 4517.61 Q2.87174 4503.87 35.5683 4503.87 L133.369 4503.87 L133.369 4530.64 L36.4364 4530.64 Q13.1437 4530.64 1.85902 4538.88 Q-9.42564 4547.13 -9.42564 4564.06 Q-9.42564 4584.74 4.31849 4596.75 Q18.0626 4608.76 41.7894 4608.76 L133.369 4608.76 L133.369 4635.52 L36.4364 4635.52 Q12.999 4635.52 1.85902 4643.77 Q-9.42564 4652.02 -9.42564 4669.23 Q-9.42564 4689.63 4.46317 4701.64 Q18.2073 4713.65 41.7894 4713.65 L133.369 4713.65 L133.369 4740.41 L-28.6674 4740.41 L-28.6674 4713.65 L-3.49396 4713.65 Q-18.3955 4704.53 -25.4846 4691.8 Q-32.5737 4679.07 -32.5737 4661.57 Q-32.5737 4643.92 -23.6038 4631.62 Q-14.634 4619.18 2.43772 4613.24 Z" fill="#000000" fill-rule="evenodd" fill-opacity="1" /><path clip-path="url(#clip310)" d="M 0 0 M52.4953 4359.63 Q23.1263 4359.63 6.48862 4371.78 Q-10.2937 4383.79 -10.2937 4404.91 Q-10.2937 4426.04 6.48862 4438.19 Q23.1263 4450.2 52.4953 4450.2 Q81.8644 4450.2 98.6467 4438.19 Q115.284 4426.04 115.284 4404.91 Q115.284 4383.79 98.6467 4371.78 Q81.8644 4359.63 52.4953 4359.63 M-4.07266 4450.2 Q-18.5402 4441.8 -25.4846 4429.07 Q-32.5737 4416.2 -32.5737 4398.4 Q-32.5737 4368.89 -9.13629 4350.51 Q14.3011 4332 52.4953 4332 Q90.6896 4332 114.127 4350.51 Q137.564 4368.89 137.564 4398.4 Q137.564 4416.2 130.62 4429.07 Q123.531 4441.8 109.063 4450.2 L133.369 4450.2 L133.369 4476.96 L-91.7458 4476.96 L-91.7458 4450.2 L-4.07266 4450.2 Z" fill="#000000" fill-rule="evenodd" fill-opacity="1" /><path clip-path="url(#clip310)" d="M 0 0 M-28.6674 4304.07 L-28.6674 4277.45 L133.369 4277.45 L133.369 4304.07 L-28.6674 4304.07 M-91.7458 4304.07 L-91.7458 4277.45 L-58.0365 4277.45 L-58.0365 4304.07 L-91.7458 4304.07 Z" fill="#000000" fill-rule="evenodd" fill-opacity="1" /><path clip-path="url(#clip310)" d="M 0 0 M-10.0043 4186.74 Q-10.0043 4208.15 6.77797 4220.6 Q23.4156 4233.04 52.4953 4233.04 Q81.575 4233.04 98.3573 4220.74 Q114.995 4208.3 114.995 4186.74 Q114.995 4165.48 98.2127 4153.03 Q81.4303 4140.59 52.4953 4140.59 Q23.705 4140.59 6.92265 4153.03 Q-10.0043 4165.48 -10.0043 4186.74 M-32.5737 4186.74 Q-32.5737 4152.02 -10.0043 4132.2 Q12.565 4112.38 52.4953 4112.38 Q92.281 4112.38 114.995 4132.2 Q137.564 4152.02 137.564 4186.74 Q137.564 4221.61 114.995 4241.43 Q92.281 4261.11 52.4953 4261.11 Q12.565 4261.11 -10.0043 4241.43 Q-32.5737 4221.61 -32.5737 4186.74 Z" fill="#000000" fill-rule="evenodd" fill-opacity="1" /><path clip-path="url(#clip310)" d="M 0 0 M45.6956 3851.67 L58.7164 3851.67 L58.7164 3974.07 Q86.2046 3972.33 100.672 3957.58 Q114.995 3942.68 114.995 3916.2 Q114.995 3900.86 111.233 3886.54 Q107.472 3872.07 99.9488 3857.9 L125.122 3857.9 Q131.199 3872.22 134.381 3887.27 Q137.564 3902.31 137.564 3917.79 Q137.564 3956.56 114.995 3979.28 Q92.4257 4001.85 53.9421 4001.85 Q14.1564 4001.85 -9.13629 3980.44 Q-32.5737 3958.88 -32.5737 3922.42 Q-32.5737 3889.72 -11.4511 3870.77 Q9.5268 3851.67 45.6956 3851.67 M37.8831 3878.3 Q16.0372 3878.58 3.01642 3890.59 Q-10.0043 3902.46 -10.0043 3922.13 Q-10.0043 3944.41 2.58239 3957.87 Q15.1691 3971.18 38.0278 3973.2 L37.8831 3878.3 Z" fill="#000000" fill-rule="evenodd" fill-opacity="1" /><path clip-path="url(#clip310)" d="M 0 0 M35.5683 3689.06 L133.369 3689.06 L133.369 3715.68 L36.4364 3715.68 Q13.433 3715.68 2.00369 3724.65 Q-9.42564 3733.62 -9.42564 3751.56 Q-9.42564 3773.12 4.31849 3785.56 Q18.0626 3798 41.7894 3798 L133.369 3798 L133.369 3824.77 L-28.6674 3824.77 L-28.6674 3798 L-3.49396 3798 Q-18.1062 3788.45 -25.3399 3775.58 Q-32.5737 3762.56 -32.5737 3745.63 Q-32.5737 3717.71 -15.2127 3703.38 Q2.00369 3689.06 35.5683 3689.06 Z" fill="#000000" fill-rule="evenodd" fill-opacity="1" /><path clip-path="url(#clip310)" d="M 0 0 M45.6956 3428.36 L58.7164 3428.36 L58.7164 3550.75 Q86.2046 3549.01 100.672 3534.26 Q114.995 3519.36 114.995 3492.88 Q114.995 3477.54 111.233 3463.22 Q107.472 3448.75 99.9488 3434.58 L125.122 3434.58 Q131.199 3448.9 134.381 3463.95 Q137.564 3478.99 137.564 3494.47 Q137.564 3533.24 114.995 3555.96 Q92.4257 3578.53 53.9421 3578.53 Q14.1564 3578.53 -9.13629 3557.12 Q-32.5737 3535.56 -32.5737 3499.1 Q-32.5737 3466.41 -11.4511 3447.45 Q9.5268 3428.36 45.6956 3428.36 M37.8831 3454.98 Q16.0372 3455.27 3.01642 3467.27 Q-10.0043 3479.14 -10.0043 3498.81 Q-10.0043 3521.09 2.58239 3534.55 Q15.1691 3547.86 38.0278 3549.88 L37.8831 3454.98 Z" fill="#000000" fill-rule="evenodd" fill-opacity="1" /><path clip-path="url(#clip310)" d="M 0 0 M35.5683 3265.74 L133.369 3265.74 L133.369 3292.36 L36.4364 3292.36 Q13.433 3292.36 2.00369 3301.33 Q-9.42564 3310.3 -9.42564 3328.24 Q-9.42564 3349.8 4.31849 3362.24 Q18.0626 3374.68 41.7894 3374.68 L133.369 3374.68 L133.369 3401.45 L-28.6674 3401.45 L-28.6674 3374.68 L-3.49396 3374.68 Q-18.1062 3365.13 -25.3399 3352.26 Q-32.5737 3339.24 -32.5737 3322.31 Q-32.5737 3294.39 -15.2127 3280.06 Q2.00369 3265.74 35.5683 3265.74 Z" fill="#000000" fill-rule="evenodd" fill-opacity="1" /><path clip-path="url(#clip310)" d="M 0 0 M45.6956 3099.22 L58.7164 3099.22 L58.7164 3221.61 Q86.2046 3219.88 100.672 3205.12 Q114.995 3190.22 114.995 3163.74 Q114.995 3148.41 111.233 3134.09 Q107.472 3119.62 99.9488 3105.44 L125.122 3105.44 Q131.199 3119.76 134.381 3134.81 Q137.564 3149.86 137.564 3165.34 Q137.564 3204.11 114.995 3226.82 Q92.4257 3249.39 53.9421 3249.39 Q14.1564 3249.39 -9.13629 3227.98 Q-32.5737 3206.42 -32.5737 3169.97 Q-32.5737 3137.27 -11.4511 3118.32 Q9.5268 3099.22 45.6956 3099.22 M37.8831 3125.84 Q16.0372 3126.13 3.01642 3138.14 Q-10.0043 3150 -10.0043 3169.68 Q-10.0043 3191.96 2.58239 3205.41 Q15.1691 3218.72 38.0278 3220.75 L37.8831 3125.84 Z" fill="#000000" fill-rule="evenodd" fill-opacity="1" /><path clip-path="url(#clip310)" d="M 0 0 M-3.78331 2977.4 Q-6.38747 2981.89 -7.54487 2987.24 Q-8.84694 2992.45 -8.84694 2998.81 Q-8.84694 3021.38 5.90992 3033.54 Q20.5221 3045.54 48.0104 3045.54 L133.369 3045.54 L133.369 3072.31 L-28.6674 3072.31 L-28.6674 3045.54 L-3.49396 3045.54 Q-18.2508 3037.15 -25.3399 3023.7 Q-32.5737 3010.24 -32.5737 2991 Q-32.5737 2988.25 -32.1396 2984.93 Q-31.8503 2981.6 -31.1269 2977.55 L-3.78331 2977.4 Z" fill="#000000" fill-rule="evenodd" fill-opacity="1" /><path clip-path="url(#clip310)" d="M 0 0 M50.4699 2848.06 Q21.5348 2848.06 5.62057 2860.07 Q-10.2937 2871.93 -10.2937 2893.49 Q-10.2937 2914.9 5.62057 2926.91 Q21.5348 2938.77 50.4699 2938.77 Q79.2602 2938.77 95.1745 2926.91 Q111.089 2914.9 111.089 2893.49 Q111.089 2871.93 95.1745 2860.07 Q79.2602 2848.06 50.4699 2848.06 M113.259 2821.44 Q154.636 2821.44 174.746 2839.82 Q195 2858.19 195 2896.1 Q195 2910.13 192.83 2922.57 Q190.805 2935.01 186.465 2946.73 L160.568 2946.73 Q166.933 2935.01 169.972 2923.58 Q173.01 2912.15 173.01 2900.29 Q173.01 2874.1 159.266 2861.08 Q145.666 2848.06 118.033 2848.06 L104.868 2848.06 Q119.191 2856.31 126.28 2869.19 Q133.369 2882.06 133.369 2900 Q133.369 2929.8 110.655 2948.03 Q87.9407 2966.26 50.4699 2966.26 Q12.8543 2966.26 -9.85967 2948.03 Q-32.5737 2929.8 -32.5737 2900 Q-32.5737 2882.06 -25.4846 2869.19 Q-18.3955 2856.31 -4.07266 2848.06 L-28.6674 2848.06 L-28.6674 2821.44 L113.259 2821.44 Z" fill="#000000" fill-rule="evenodd" fill-opacity="1" /><path clip-path="url(#clip310)" d="M 0 0 M-103.609 2760.1 L-103.609 2731.31 L-49.2113 2778.47 L-49.2113 2800.61 L-103.609 2760.1 M-28.6674 2793.52 L-28.6674 2766.9 L133.369 2766.9 L133.369 2793.52 L-28.6674 2793.52 M-32.5737 2780.21 L-32.5737 2780.21 Z" fill="#000000" fill-rule="evenodd" fill-opacity="1" /><path clip-path="url(#clip310)" d="M 0 0 M51.9166 2629.75 Q51.9166 2662.01 59.2951 2674.45 Q66.6735 2686.9 84.4685 2686.9 Q98.6467 2686.9 107.038 2677.64 Q115.284 2668.23 115.284 2652.17 Q115.284 2630.04 99.6594 2616.73 Q83.8898 2603.27 57.8483 2603.27 L51.9166 2603.27 L51.9166 2629.75 M40.9213 2576.65 L133.369 2576.65 L133.369 2603.27 L108.774 2603.27 Q123.531 2612.39 130.62 2625.99 Q137.564 2639.59 137.564 2659.26 Q137.564 2684.15 123.675 2698.9 Q109.642 2713.52 86.2046 2713.52 Q58.861 2713.52 44.9722 2695.29 Q31.0834 2676.91 31.0834 2640.6 L31.0834 2603.27 L28.4792 2603.27 Q10.1055 2603.27 0.122915 2615.43 Q-10.0043 2627.43 -10.0043 2649.28 Q-10.0043 2663.17 -6.67682 2676.33 Q-3.34929 2689.5 3.30577 2701.65 L-21.289 2701.65 Q-26.9313 2687.04 -29.6802 2673.3 Q-32.5737 2659.55 -32.5737 2646.53 Q-32.5737 2611.37 -14.3446 2594.01 Q3.88447 2576.65 40.9213 2576.65 Z" fill="#000000" fill-rule="evenodd" fill-opacity="1" /><path clip-path="url(#clip310)" d="M 0 0 M5698.92 59.8376 L5698.92 90.6534 Q5684.16 76.9093 5667.38 70.1096 Q5650.74 63.3098 5631.94 63.3098 Q5594.9 63.3098 5575.22 86.0238 Q5555.55 108.593 5555.55 151.417 Q5555.55 194.096 5575.22 216.81 Q5594.9 239.38 5631.94 239.38 Q5650.74 239.38 5667.38 232.58 Q5684.16 225.78 5698.92 212.036 L5698.92 242.562 Q5683.59 252.979 5666.37 258.187 Q5649.3 263.396 5630.2 263.396 Q5581.16 263.396 5552.94 233.448 Q5524.73 203.355 5524.73 151.417 Q5524.73 99.334 5552.94 69.3862 Q5581.16 39.2938 5630.2 39.2938 Q5649.59 39.2938 5666.66 44.5021 Q5683.87 49.5657 5698.92 59.8376 Z" fill="#000000" fill-rule="evenodd" fill-opacity="1" /><path clip-path="url(#clip310)" d="M 0 0 M5800.48 177.748 Q5768.22 177.748 5755.78 185.126 Q5743.34 192.505 5743.34 210.3 Q5743.34 224.478 5752.6 232.869 Q5762 241.116 5778.06 241.116 Q5800.19 241.116 5813.5 225.491 Q5826.96 209.721 5826.96 183.68 L5826.96 177.748 L5800.48 177.748 M5853.58 166.753 L5853.58 259.2 L5826.96 259.2 L5826.96 234.605 Q5817.84 249.362 5804.24 256.451 Q5790.65 263.396 5770.97 263.396 Q5746.09 263.396 5731.33 249.507 Q5716.72 235.473 5716.72 212.036 Q5716.72 184.692 5734.95 170.803 Q5753.32 156.915 5789.63 156.915 L5826.96 156.915 L5826.96 154.311 Q5826.96 135.937 5814.81 125.954 Q5802.8 115.827 5780.95 115.827 Q5767.06 115.827 5753.9 119.154 Q5740.73 122.482 5728.58 129.137 L5728.58 104.542 Q5743.19 98.8999 5756.94 96.1511 Q5770.68 93.2576 5783.7 93.2576 Q5818.86 93.2576 5836.22 111.487 Q5853.58 129.716 5853.58 166.753 Z" fill="#000000" fill-rule="evenodd" fill-opacity="1" /><path clip-path="url(#clip310)" d="M 0 0 M6007.66 128.269 Q6017.64 110.329 6031.53 101.793 Q6045.42 93.2576 6064.23 93.2576 Q6089.54 93.2576 6103.29 111.053 Q6117.03 128.703 6117.03 161.4 L6117.03 259.2 L6090.27 259.2 L6090.27 162.268 Q6090.27 138.975 6082.02 127.69 Q6073.77 116.406 6056.85 116.406 Q6036.16 116.406 6024.15 130.15 Q6012.14 143.894 6012.14 167.621 L6012.14 259.2 L5985.38 259.2 L5985.38 162.268 Q5985.38 138.83 5977.13 127.69 Q5968.88 116.406 5951.67 116.406 Q5931.27 116.406 5919.26 130.294 Q5907.25 144.039 5907.25 167.621 L5907.25 259.2 L5880.49 259.2 L5880.49 97.1638 L5907.25 97.1638 L5907.25 122.337 Q5916.37 107.436 5929.1 100.347 Q5941.83 93.2576 5959.34 93.2576 Q5976.99 93.2576 5989.28 102.227 Q6001.73 111.197 6007.66 128.269 Z" fill="#000000" fill-rule="evenodd" fill-opacity="1" /><path clip-path="url(#clip310)" d="M 0 0 M6261.27 178.327 Q6261.27 148.958 6249.12 132.32 Q6237.11 115.538 6215.99 115.538 Q6194.87 115.538 6182.71 132.32 Q6170.71 148.958 6170.71 178.327 Q6170.71 207.696 6182.71 224.478 Q6194.87 241.116 6215.99 241.116 Q6237.11 241.116 6249.12 224.478 Q6261.27 207.696 6261.27 178.327 M6170.71 121.759 Q6179.1 107.291 6191.83 100.347 Q6204.71 93.2576 6222.5 93.2576 Q6252.01 93.2576 6270.39 116.695 Q6288.91 140.132 6288.91 178.327 Q6288.91 216.521 6270.39 239.958 Q6252.01 263.396 6222.5 263.396 Q6204.71 263.396 6191.83 256.451 Q6179.1 249.362 6170.71 234.895 L6170.71 259.2 L6143.94 259.2 L6143.94 34.0855 L6170.71 34.0855 L6170.71 121.759 Z" fill="#000000" fill-rule="evenodd" fill-opacity="1" /><path clip-path="url(#clip310)" d="M 0 0 M6316.83 97.1638 L6343.45 97.1638 L6343.45 259.2 L6316.83 259.2 L6316.83 97.1638 M6316.83 34.0855 L6343.45 34.0855 L6343.45 67.7948 L6316.83 67.7948 L6316.83 34.0855 Z" fill="#000000" fill-rule="evenodd" fill-opacity="1" /><path clip-path="url(#clip310)" d="M 0 0 M6434.16 115.827 Q6412.75 115.827 6400.31 132.609 Q6387.86 149.247 6387.86 178.327 Q6387.86 207.406 6400.16 224.189 Q6412.6 240.826 6434.16 240.826 Q6455.43 240.826 6467.87 224.044 Q6480.31 207.262 6480.31 178.327 Q6480.31 149.536 6467.87 132.754 Q6455.43 115.827 6434.16 115.827 M6434.16 93.2576 Q6468.88 93.2576 6488.7 115.827 Q6508.52 138.396 6508.52 178.327 Q6508.52 218.112 6488.7 240.826 Q6468.88 263.396 6434.16 263.396 Q6399.29 263.396 6379.47 240.826 Q6359.8 218.112 6359.8 178.327 Q6359.8 138.396 6379.47 115.827 Q6399.29 93.2576 6434.16 93.2576 Z" fill="#000000" fill-rule="evenodd" fill-opacity="1" /><path clip-path="url(#clip310)" d="M 0 0 M6737.25 121.759 L6737.25 34.0855 L6763.87 34.0855 L6763.87 259.2 L6737.25 259.2 L6737.25 234.895 Q6728.86 249.362 6715.99 256.451 Q6703.26 263.396 6685.32 263.396 Q6655.95 263.396 6637.43 239.958 Q6619.06 216.521 6619.06 178.327 Q6619.06 140.132 6637.43 116.695 Q6655.95 93.2576 6685.32 93.2576 Q6703.26 93.2576 6715.99 100.347 Q6728.86 107.291 6737.25 121.759 M6646.54 178.327 Q6646.54 207.696 6658.55 224.478 Q6670.7 241.116 6691.83 241.116 Q6712.95 241.116 6725.1 224.478 Q6737.25 207.696 6737.25 178.327 Q6737.25 148.958 6725.1 132.32 Q6712.95 115.538 6691.83 115.538 Q6670.7 115.538 6658.55 132.32 Q6646.54 148.958 6646.54 178.327 Z" fill="#000000" fill-rule="evenodd" fill-opacity="1" /><path clip-path="url(#clip310)" d="M 0 0 M6930.4 171.527 L6930.4 184.548 L6808 184.548 Q6809.74 212.036 6824.49 226.503 Q6839.4 240.826 6865.87 240.826 Q6881.21 240.826 6895.53 237.065 Q6910 233.303 6924.17 225.78 L6924.17 250.954 Q6909.85 257.03 6894.81 260.213 Q6879.76 263.396 6864.28 263.396 Q6825.51 263.396 6802.79 240.826 Q6780.22 218.257 6780.22 179.773 Q6780.22 139.988 6801.64 116.695 Q6823.19 93.2576 6859.65 93.2576 Q6892.35 93.2576 6911.3 114.38 Q6930.4 135.358 6930.4 171.527 M6903.78 163.714 Q6903.49 141.868 6891.48 128.848 Q6879.62 115.827 6859.94 115.827 Q6837.66 115.827 6824.2 128.414 Q6810.89 141 6808.87 163.859 L6903.78 163.714 Z" fill="#000000" fill-rule="evenodd" fill-opacity="1" /><path clip-path="url(#clip310)" d="M 0 0 M7052.5 34.0855 L7079.12 34.0855 L7079.12 259.2 L7052.5 259.2 L7052.5 34.0855 Z" fill="#000000" fill-rule="evenodd" fill-opacity="1" /><path clip-path="url(#clip310)" d="M 0 0 M7180.68 177.748 Q7148.42 177.748 7135.98 185.126 Q7123.54 192.505 7123.54 210.3 Q7123.54 224.478 7132.8 232.869 Q7142.2 241.116 7158.26 241.116 Q7180.39 241.116 7193.7 225.491 Q7207.16 209.721 7207.16 183.68 L7207.16 177.748 L7180.68 177.748 M7233.78 166.753 L7233.78 259.2 L7207.16 259.2 L7207.16 234.605 Q7198.05 249.362 7184.45 256.451 Q7170.85 263.396 7151.17 263.396 Q7126.29 263.396 7111.53 249.507 Q7096.92 235.473 7096.92 212.036 Q7096.92 184.692 7115.15 170.803 Q7133.52 156.915 7169.83 156.915 L7207.16 156.915 L7207.16 154.311 Q7207.16 135.937 7195.01 125.954 Q7183 115.827 7161.15 115.827 Q7147.26 115.827 7134.1 119.154 Q7120.93 122.482 7108.78 129.137 L7108.78 104.542 Q7123.39 98.8999 7137.14 96.1511 Q7150.88 93.2576 7163.9 93.2576 Q7199.06 93.2576 7216.42 111.487 Q7233.78 129.716 7233.78 166.753 Z" fill="#000000" fill-rule="evenodd" fill-opacity="1" /><path clip-path="url(#clip310)" d="M 0 0 M7494.48 171.527 L7494.48 184.548 L7372.09 184.548 Q7373.83 212.036 7388.58 226.503 Q7403.48 240.826 7429.96 240.826 Q7445.29 240.826 7459.62 237.065 Q7474.09 233.303 7488.26 225.78 L7488.26 250.954 Q7473.94 257.03 7458.89 260.213 Q7443.85 263.396 7428.37 263.396 Q7389.59 263.396 7366.88 240.826 Q7344.31 218.257 7344.31 179.773 Q7344.31 139.988 7365.72 116.695 Q7387.28 93.2576 7423.74 93.2576 Q7456.43 93.2576 7475.39 114.38 Q7494.48 135.358 7494.48 171.527 M7467.86 163.714 Q7467.57 141.868 7455.57 128.848 Q7443.7 115.827 7424.03 115.827 Q7401.75 115.827 7388.29 128.414 Q7374.98 141 7372.96 163.859 L7467.86 163.714 Z" fill="#000000" fill-rule="evenodd" fill-opacity="1" /><path clip-path="url(#clip310)" d="M 0 0 M7657.1 161.4 L7657.1 259.2 L7630.48 259.2 L7630.48 162.268 Q7630.48 139.264 7621.51 127.835 Q7612.54 116.406 7594.6 116.406 Q7573.04 116.406 7560.6 130.15 Q7548.16 143.894 7548.16 167.621 L7548.16 259.2 L7521.39 259.2 L7521.39 97.1638 L7548.16 97.1638 L7548.16 122.337 Q7557.71 107.725 7570.58 100.491 Q7583.6 93.2576 7600.53 93.2576 Q7628.45 93.2576 7642.78 110.619 Q7657.1 127.835 7657.1 161.4 Z" fill="#000000" fill-rule="evenodd" fill-opacity="1" /><path clip-path="url(#clip310)" d="M 0 0 M7823.62 171.527 L7823.62 184.548 L7701.23 184.548 Q7702.96 212.036 7717.72 226.503 Q7732.62 240.826 7759.1 240.826 Q7774.43 240.826 7788.75 237.065 Q7803.22 233.303 7817.4 225.78 L7817.4 250.954 Q7803.08 257.03 7788.03 260.213 Q7772.98 263.396 7757.5 263.396 Q7718.73 263.396 7696.02 240.826 Q7673.45 218.257 7673.45 179.773 Q7673.45 139.988 7694.86 116.695 Q7716.42 93.2576 7752.87 93.2576 Q7785.57 93.2576 7804.52 114.38 Q7823.62 135.358 7823.62 171.527 M7797 163.714 Q7796.71 141.868 7784.7 128.848 Q7772.84 115.827 7753.16 115.827 Q7730.88 115.827 7717.43 128.414 Q7704.12 141 7702.09 163.859 L7797 163.714 Z" fill="#000000" fill-rule="evenodd" fill-opacity="1" /><path clip-path="url(#clip310)" d="M 0 0 M7945.44 122.048 Q7940.95 119.444 7935.6 118.286 Q7930.39 116.984 7924.02 116.984 Q7901.46 116.984 7889.3 131.741 Q7877.29 146.353 7877.29 173.842 L7877.29 259.2 L7850.53 259.2 L7850.53 97.1638 L7877.29 97.1638 L7877.29 122.337 Q7885.69 107.58 7899.14 100.491 Q7912.6 93.2576 7931.84 93.2576 Q7934.59 93.2576 7937.91 93.6916 Q7941.24 93.981 7945.29 94.7044 L7945.44 122.048 Z" fill="#000000" fill-rule="evenodd" fill-opacity="1" /><path clip-path="url(#clip310)" d="M 0 0 M8074.78 176.301 Q8074.78 147.366 8062.77 131.452 Q8050.91 115.538 8029.35 115.538 Q8007.94 115.538 7995.93 131.452 Q7984.07 147.366 7984.07 176.301 Q7984.07 205.091 7995.93 221.006 Q8007.94 236.92 8029.35 236.92 Q8050.91 236.92 8062.77 221.006 Q8074.78 205.091 8074.78 176.301 M8101.4 239.09 Q8101.4 280.467 8083.02 300.577 Q8064.65 320.832 8026.74 320.832 Q8012.71 320.832 8000.27 318.661 Q7987.83 316.636 7976.11 312.296 L7976.11 286.399 Q7987.83 292.765 7999.26 295.803 Q8010.69 298.841 8022.55 298.841 Q8048.73 298.841 8061.76 285.097 Q8074.78 271.497 8074.78 243.864 L8074.78 230.699 Q8066.53 245.022 8053.65 252.111 Q8040.78 259.2 8022.84 259.2 Q7993.03 259.2 7974.81 236.486 Q7956.58 213.772 7956.58 176.301 Q7956.58 138.686 7974.81 115.972 Q7993.03 93.2576 8022.84 93.2576 Q8040.78 93.2576 8053.65 100.347 Q8066.53 107.436 8074.78 121.759 L8074.78 97.1638 L8101.4 97.1638 L8101.4 239.09 Z" fill="#000000" fill-rule="evenodd" fill-opacity="1" /><path clip-path="url(#clip310)" d="M 0 0 M8162.74 22.2221 L8191.53 22.2221 L8144.37 76.62 L8122.23 76.62 L8162.74 22.2221 M8129.32 97.1638 L8155.94 97.1638 L8155.94 259.2 L8129.32 259.2 L8129.32 97.1638 M8142.63 93.2576 L8142.63 93.2576 Z" fill="#000000" fill-rule="evenodd" fill-opacity="1" /><path clip-path="url(#clip310)" d="M 0 0 M8293.09 177.748 Q8260.83 177.748 8248.39 185.126 Q8235.94 192.505 8235.94 210.3 Q8235.94 224.478 8245.2 232.869 Q8254.61 241.116 8270.67 241.116 Q8292.8 241.116 8306.11 225.491 Q8319.57 209.721 8319.57 183.68 L8319.57 177.748 L8293.09 177.748 M8346.19 166.753 L8346.19 259.2 L8319.57 259.2 L8319.57 234.605 Q8310.45 249.362 8296.85 256.451 Q8283.25 263.396 8263.58 263.396 Q8238.69 263.396 8223.94 249.507 Q8209.32 235.473 8209.32 212.036 Q8209.32 184.692 8227.55 170.803 Q8245.93 156.915 8282.24 156.915 L8319.57 156.915 L8319.57 154.311 Q8319.57 135.937 8307.41 125.954 Q8295.41 115.827 8273.56 115.827 Q8259.67 115.827 8246.51 119.154 Q8233.34 122.482 8221.19 129.137 L8221.19 104.542 Q8235.8 98.8999 8249.54 96.1511 Q8263.29 93.2576 8276.31 93.2576 Q8311.46 93.2576 8328.83 111.487 Q8346.19 129.716 8346.19 166.753 Z" fill="#000000" fill-rule="evenodd" fill-opacity="1" /><path clip-path="url(#clip310)" d="M 0 0 M8606.89 171.527 L8606.89 184.548 L8484.5 184.548 Q8486.23 212.036 8500.99 226.503 Q8515.89 240.826 8542.37 240.826 Q8557.7 240.826 8572.02 237.065 Q8586.49 233.303 8600.67 225.78 L8600.67 250.954 Q8586.35 257.03 8571.3 260.213 Q8556.26 263.396 8540.78 263.396 Q8502 263.396 8479.29 240.826 Q8456.72 218.257 8456.72 179.773 Q8456.72 139.988 8478.13 116.695 Q8499.69 93.2576 8536.15 93.2576 Q8568.84 93.2576 8587.79 114.38 Q8606.89 135.358 8606.89 171.527 M8580.27 163.714 Q8579.98 141.868 8567.97 128.848 Q8556.11 115.827 8536.43 115.827 Q8514.15 115.827 8500.7 128.414 Q8487.39 141 8485.36 163.859 L8580.27 163.714 Z" fill="#000000" fill-rule="evenodd" fill-opacity="1" /><path clip-path="url(#clip310)" d="M 0 0 M8769.51 161.4 L8769.51 259.2 L8742.89 259.2 L8742.89 162.268 Q8742.89 139.264 8733.92 127.835 Q8724.95 116.406 8707.01 116.406 Q8685.45 116.406 8673.01 130.15 Q8660.57 143.894 8660.57 167.621 L8660.57 259.2 L8633.8 259.2 L8633.8 97.1638 L8660.57 97.1638 L8660.57 122.337 Q8670.11 107.725 8682.99 100.491 Q8696.01 93.2576 8712.94 93.2576 Q8740.86 93.2576 8755.18 110.619 Q8769.51 127.835 8769.51 161.4 Z" fill="#000000" fill-rule="evenodd" fill-opacity="1" /><path clip-path="url(#clip310)" d="M 0 0 M9030.21 171.527 L9030.21 184.548 L8907.82 184.548 Q8909.55 212.036 8924.31 226.503 Q8939.21 240.826 8965.69 240.826 Q8981.02 240.826 8995.34 237.065 Q9009.81 233.303 9023.99 225.78 L9023.99 250.954 Q9009.67 257.03 8994.62 260.213 Q8979.57 263.396 8964.09 263.396 Q8925.32 263.396 8902.61 240.826 Q8880.04 218.257 8880.04 179.773 Q8880.04 139.988 8901.45 116.695 Q8923.01 93.2576 8959.46 93.2576 Q8992.16 93.2576 9011.11 114.38 Q9030.21 135.358 9030.21 171.527 M9003.59 163.714 Q9003.3 141.868 8991.29 128.848 Q8979.43 115.827 8959.75 115.827 Q8937.47 115.827 8924.02 128.414 Q8910.71 141 8908.68 163.859 L9003.59 163.714 Z" fill="#000000" fill-rule="evenodd" fill-opacity="1" /><path clip-path="url(#clip310)" d="M 0 0 M9058.13 34.0855 L9084.75 34.0855 L9084.75 259.2 L9058.13 259.2 L9058.13 34.0855 Z" fill="#000000" fill-rule="evenodd" fill-opacity="1" /><path clip-path="url(#clip310)" d="M 0 0 M9233.19 51.1571 L9233.19 97.1638 L9288.02 97.1638 L9288.02 117.852 L9233.19 117.852 L9233.19 205.815 Q9233.19 225.635 9238.54 231.278 Q9244.04 236.92 9260.68 236.92 L9288.02 236.92 L9288.02 259.2 L9260.68 259.2 Q9229.86 259.2 9218.14 247.771 Q9206.43 236.197 9206.43 205.815 L9206.43 117.852 L9186.89 117.852 L9186.89 97.1638 L9206.43 97.1638 L9206.43 51.1571 L9233.19 51.1571 Z" fill="#000000" fill-rule="evenodd" fill-opacity="1" /><path clip-path="url(#clip310)" d="M 0 0 M9315.94 97.1638 L9342.56 97.1638 L9342.56 259.2 L9315.94 259.2 L9315.94 97.1638 M9315.94 34.0855 L9342.56 34.0855 L9342.56 67.7948 L9315.94 67.7948 L9315.94 34.0855 Z" fill="#000000" fill-rule="evenodd" fill-opacity="1" /><path clip-path="url(#clip310)" d="M 0 0 M9509.09 171.527 L9509.09 184.548 L9386.69 184.548 Q9388.43 212.036 9403.18 226.503 Q9418.09 240.826 9444.56 240.826 Q9459.9 240.826 9474.22 237.065 Q9488.69 233.303 9502.86 225.78 L9502.86 250.954 Q9488.54 257.03 9473.5 260.213 Q9458.45 263.396 9442.97 263.396 Q9404.2 263.396 9381.48 240.826 Q9358.91 218.257 9358.91 179.773 Q9358.91 139.988 9380.33 116.695 Q9401.88 93.2576 9438.34 93.2576 Q9471.04 93.2576 9489.99 114.38 Q9509.09 135.358 9509.09 171.527 M9482.47 163.714 Q9482.18 141.868 9470.17 128.848 Q9458.3 115.827 9438.63 115.827 Q9416.35 115.827 9402.89 128.414 Q9389.58 141 9387.56 163.859 L9482.47 163.714 Z" fill="#000000" fill-rule="evenodd" fill-opacity="1" /><path clip-path="url(#clip310)" d="M 0 0 M9663.16 128.269 Q9673.15 110.329 9687.04 101.793 Q9700.93 93.2576 9719.73 93.2576 Q9745.05 93.2576 9758.8 111.053 Q9772.54 128.703 9772.54 161.4 L9772.54 259.2 L9745.77 259.2 L9745.77 162.268 Q9745.77 138.975 9737.53 127.69 Q9729.28 116.406 9712.35 116.406 Q9691.67 116.406 9679.66 130.15 Q9667.65 143.894 9667.65 167.621 L9667.65 259.2 L9640.88 259.2 L9640.88 162.268 Q9640.88 138.83 9632.64 127.69 Q9624.39 116.406 9607.18 116.406 Q9586.78 116.406 9574.77 130.294 Q9562.76 144.039 9562.76 167.621 L9562.76 259.2 L9536 259.2 L9536 97.1638 L9562.76 97.1638 L9562.76 122.337 Q9571.87 107.436 9584.61 100.347 Q9597.34 93.2576 9614.84 93.2576 Q9632.49 93.2576 9644.79 102.227 Q9657.23 111.197 9663.16 128.269 Z" fill="#000000" fill-rule="evenodd" fill-opacity="1" /><path clip-path="url(#clip310)" d="M 0 0 M9826.21 234.895 L9826.21 320.832 L9799.45 320.832 L9799.45 97.1638 L9826.21 97.1638 L9826.21 121.759 Q9834.6 107.291 9847.34 100.347 Q9860.21 93.2576 9878.01 93.2576 Q9907.52 93.2576 9925.9 116.695 Q9944.41 140.132 9944.41 178.327 Q9944.41 216.521 9925.9 239.958 Q9907.52 263.396 9878.01 263.396 Q9860.21 263.396 9847.34 256.451 Q9834.6 249.362 9826.21 234.895 M9916.78 178.327 Q9916.78 148.958 9904.63 132.32 Q9892.62 115.538 9871.5 115.538 Q9850.37 115.538 9838.22 132.32 Q9826.21 148.958 9826.21 178.327 Q9826.21 207.696 9838.22 224.478 Q9850.37 241.116 9871.5 241.116 Q9892.62 241.116 9904.63 224.478 Q9916.78 207.696 9916.78 178.327 Z" fill="#000000" fill-rule="evenodd" fill-opacity="1" /><path clip-path="url(#clip310)" d="M 0 0 M10035.1 115.827 Q10013.7 115.827 10001.3 132.609 Q9988.83 149.247 9988.83 178.327 Q9988.83 207.406 10001.1 224.189 Q10013.6 240.826 10035.1 240.826 Q10056.4 240.826 10068.8 224.044 Q10081.3 207.262 10081.3 178.327 Q10081.3 149.536 10068.8 132.754 Q10056.4 115.827 10035.1 115.827 M10035.1 93.2576 Q10069.8 93.2576 10089.7 115.827 Q10109.5 138.396 10109.5 178.327 Q10109.5 218.112 10089.7 240.826 Q10069.8 263.396 10035.1 263.396 Q10000.3 263.396 9980.44 240.826 Q9960.76 218.112 9960.76 178.327 Q9960.76 138.396 9980.44 115.827 Q10000.3 93.2576 10035.1 93.2576 Z" fill="#000000" fill-rule="evenodd" fill-opacity="1" /><polyline clip-path="url(#clip312)" style="stroke:#009af9; stroke-width:4; stroke-opacity:1; fill:none" points="
  4670.27,671.052 4676.57,836.832 4682.86,1282.37 4689.16,1924.76 4695.45,2629.33 4701.74,3251 4708.04,3665.45 4714.33,3841.59 4720.62,3789.79 4726.92,3499.67 
  4733.21,3209.56 4739.5,3002.33 4745.8,2991.97 4752.09,3230.28 4758.39,3727.62 4764.68,4421.82 4770.97,5188.55 4777.27,5924.2 4783.56,6525.15 4789.85,6929.24 
  4796.15,7136.47 4802.44,7146.83 4808.74,6949.97 4815.03,6587.32 4821.32,6038.18 4827.62,5354.33 4833.91,4577.24 4840.2,3748.34 4846.5,2960.89 4852.79,2297.77 
  4859.08,1872.96 4865.38,1686.45 4871.67,1748.62 4877.97,1966.21 4884.26,2256.32 4890.55,2515.35 4896.85,2670.77 4903.14,2691.49 4909.43,2587.88 4915.73,2463.55 
  4922.02,2380.66 4928.31,2453.19 4934.61,2774.38 4940.9,3323.53 4947.2,3997.01 4953.49,4711.94 4959.78,5312.89 4966.08,5675.53 4972.37,5716.98 4978.66,5447.59 
  4984.96,5012.41 4991.25,4515.07 4997.55,4214.6 5003.84,4183.51 5010.13,4473.63 5016.43,5012.41 5022.72,5685.89 5029.01,6359.37 5035.31,6815.27 5041.6,7053.58 
  5047.89,7063.94 5054.19,6815.27 5060.48,6442.26 5066.78,6007.09 5073.07,5540.84 5079.36,5053.86 5085.66,4525.43 5091.95,3955.57 5098.24,3323.53 5104.54,2650.05 
  5110.83,2038.74 5117.12,1531.04 5123.42,1272 5129.71,1261.64 5136.01,1531.04 5142.3,2028.37 5148.59,2629.33 5154.89,3271.72 5161.18,3893.4 5167.47,4452.91 
  5173.77,4970.97 5180.06,5406.14 5186.36,5862.03 5192.65,6328.29 5198.94,6711.66 5205.24,6991.41 5211.53,7032.86 5217.82,6815.27 5224.12,6359.37 5230.41,5716.98 
  5236.7,5033.14 5243,4463.27 5249.29,4173.15 5255.59,4224.96 5261.88,4504.71 5268.17,4981.33 5274.47,5468.31 5280.76,5779.14 5287.05,5779.14 5293.35,5457.95 
  5299.64,4898.44 5305.94,4193.87 5312.23,3499.67 5318.52,2960.89 5324.82,2629.33 5331.11,2536.08 5337.4,2577.52 5343.7,2681.13 5349.99,2753.66 5356.28,2681.13 
  5362.58,2494.63 5368.87,2214.88 5375.17,1924.76 5381.46,1686.45 5387.75,1645.01 5394.05,1841.87 5400.34,2318.49 5406.63,2981.61 5412.93,3758.7 5419.22,4597.96 
  5425.51,5385.42 5431.81,6048.54 5438.1,6597.68 5444.4,6970.69 5450.69,7167.55 5456.98,7177.91 5463.28,6970.69 5469.57,6566.6 5475.86,5976.01 5482.16,5250.72 
  5488.45,4494.35 5494.75,3820.87 5501.04,3333.89 5507.33,3126.67 5513.63,3178.47 5519.92,3416.78 5526.21,3748.34 5532.51,3986.65 5538.8,4038.46 5545.09,3851.95 
  5551.39,3406.42 5557.68,2764.02 5563.98,2069.82 5570.27,1448.15 5576.56,1002.61 5582.86,847.193 5589.15,1002.61 5595.44,1458.51 5601.74,2059.46 5608.03,2753.66 
  5614.32,3333.89 5620.62,3737.98 5626.91,3851.95 5633.21,3748.34 5639.5,3458.23 5645.79,3168.11 5652.09,2960.89 5658.38,2950.53 5664.67,3219.92 5670.97,3696.53 
  5677.26,4380.38 5683.56,5136.75 5689.85,5882.76 5696.14,6462.99 5702.44,6887.8 5708.73,7074.3 5715.02,7043.22 5721.32,6856.71 5727.61,6473.35 5733.9,5934.56 
  5740.2,5230 5746.49,4452.91 5752.79,3592.92 5759.08,2836.55 5765.37,2214.88 5771.67,1800.43 5777.96,1613.93 5784.25,1686.45 5790.55,1935.12 5796.84,2235.6 
  5803.14,2484.27 5809.43,2608.6 5815.72,2587.88 5822.02,2442.82 5828.31,2277.04 5834.6,2163.07 5840.9,2245.96 5847.19,2567.16 5853.48,3095.58 5859.78,3769.06 
  5866.07,4504.71 5872.37,5095.3 5878.66,5468.31 5884.95,5499.39 5891.25,5250.72 5897.54,4825.91 5903.83,4390.74 5910.13,4059.18 5916.42,4007.37 5922.71,4287.13 
  5929.01,4825.91 5935.3,5509.75 5941.6,6183.23 5947.89,6690.93 5954.18,6949.97 5960.48,6981.05 5966.77,6763.46 5973.06,6400.82 5979.36,5976.01 5985.65,5489.03 
  5991.95,4991.69 5998.24,4473.63 6004.53,3872.68 6010.83,3230.28 6017.12,2556.8 6023.41,1914.4 6029.71,1427.42 6036,1147.67 6042.29,1137.31 6048.59,1396.34 
  6054.88,1862.59 6061.18,2442.82 6067.47,3064.5 6073.76,3665.45 6080.06,4183.51 6086.35,4680.85 6092.64,5157.47 6098.94,5613.36 6105.23,6069.26 6111.53,6483.71 
  6117.82,6773.82 6124.11,6856.71 6130.41,6680.57 6136.7,6235.04 6142.99,5592.64 6149.29,4919.16 6155.58,4338.93 6161.87,4017.73 6168.17,4028.09 6174.46,4338.93 
  6180.76,4815.55 6187.05,5302.53 6193.34,5613.36 6199.64,5654.81 6205.93,5354.33 6212.22,4805.19 6218.52,4110.98 6224.81,3437.5 6231.1,2919.44 6237.4,2577.52 
  6243.69,2432.46 6249.99,2442.82 6256.28,2504.99 6262.57,2536.08 6268.87,2432.46 6275.16,2214.88 6281.45,1945.48 6287.75,1645.01 6294.04,1437.78 6300.34,1417.06 
  6306.63,1634.65 6312.92,2111.26 6319.22,2795.11 6325.51,3572.2 6331.8,4390.74 6338.1,5157.47 6344.39,5830.95 6350.68,6369.74 6356.98,6732.38 6363.27,6939.6 
  6369.57,6960.33 6375.86,6753.1 6382.15,6338.65 6388.45,5716.98 6394.74,4970.97 6401.03,4204.24 6407.33,3541.12 6413.62,3043.78 6419.91,2805.47 6426.21,2878 
  6432.5,3147.39 6438.8,3478.95 6445.09,3727.62 6451.38,3748.34 6457.68,3541.12 6463.97,3085.22 6470.26,2422.1 6476.56,1717.54 6482.85,1064.78 6489.15,660.691 
  6495.44,525.994 6501.73,702.136 6508.03,1137.31 6514.32,1748.62 6520.61,2401.38 6526.91,2960.89 6533.2,3333.89 6539.49,3458.23 6545.79,3333.89 6552.08,3064.5 
  6558.38,2753.66 6564.67,2567.16 6570.96,2587.88 6577.26,2888.36 6583.55,3416.78 6589.84,4142.07 6596.14,4929.52 6602.43,5665.17 6608.73,6255.76 6615.02,6670.21 
  6621.31,6877.44 6627.61,6867.08 6633.9,6670.21 6640.19,6276.48 6646.49,5716.98 6652.78,5022.77 6659.07,4224.96 6665.37,3406.42 6671.66,2650.05 6677.96,2038.74 
  6684.25,1655.37 6690.54,1510.31 6696.84,1593.2 6703.13,1841.87 6709.42,2131.99 6715.72,2359.93 6722.01,2463.55 6728.3,2411.74 6734.6,2235.6 6740.89,2028.37 
  6747.19,1904.04 6753.48,1945.48 6759.77,2256.32 6766.07,2795.11 6772.36,3499.67 6778.65,4224.96 6784.95,4846.63 6791.24,5219.64 6797.54,5281.81 6803.83,5033.14 
  6810.12,4608.32 6816.42,4162.79 6822.71,3831.23 6829,3789.79 6835.3,4059.18 6841.59,4608.32 6847.88,5323.25 6854.18,6007.09 6860.47,6556.24 6866.77,6835.99 
  6873.06,6877.44 6879.35,6690.93 6885.65,6369.74 6891.94,5944.92 6898.23,5468.31 6904.53,4970.97 6910.82,4411.46 6917.11,3820.87 6923.41,3147.39 6929.7,2453.19 
  6936,1821.15 6942.29,1303.09 6948.58,1095.86 6954.88,1085.5 6961.17,1375.62 6967.46,1841.87 6973.76,2411.74 6980.05,2991.97 6986.35,3530.76 6992.64,4028.09 
  6998.93,4473.63 7005.23,4898.44 7011.52,5354.33 7017.81,5830.95 7024.11,6266.12 7030.4,6587.32 7036.69,6701.3 7042.99,6566.6 7049.28,6131.43 7055.58,5509.75 
  7061.87,4825.91 7068.16,4276.76 7074.46,3986.65 7080.75,3976.29 7087.04,4287.13 7093.34,4774.1 7099.63,5261.08 7105.93,5613.36 7112.22,5665.17 7118.51,5406.14 
  7124.81,4877.72 7131.1,4214.6 7137.39,3551.48 7143.69,2991.97 7149.98,2629.33 7156.27,2463.55 7162.57,2473.91 7168.86,2515.35 7175.16,2504.99 7181.45,2391.02 
  7187.74,2142.35 7194.04,1841.87 7200.33,1531.04 7206.62,1354.89 7212.92,1334.17 7219.21,1582.84 7225.5,2069.82 7231.8,2774.38 7238.09,3603.28 7244.39,4432.18 
  7250.68,5178.19 7256.97,5841.31 7263.27,6349.01 7269.56,6711.66 7275.85,6898.16 7282.15,6929.24 7288.44,6732.38 7294.74,6297.21 7301.03,5696.25 7307.32,4970.97 
  7313.62,4204.24 7319.91,3530.76 7326.2,3064.5 7332.5,2878 7338.79,2960.89 7345.08,3230.28 7351.38,3561.84 7357.67,3779.42 7363.97,3820.87 7370.26,3592.92 
  7376.55,3085.22 7382.85,2401.38 7389.14,1696.81 7395.43,1064.78 7401.73,650.329 7408.02,494.911 7414.32,671.052 7420.61,1137.31 7426.9,1717.54 7433.2,2359.93 
  7439.49,2888.36 7445.78,3209.56 7452.08,3292.45 7458.37,3126.67 7464.66,2846.91 7470.96,2587.88 7477.25,2453.19 7483.55,2484.27 7489.84,2815.83 7496.13,3385.7 
  7502.43,4090.26 7508.72,4877.72 7515.01,5592.64 7521.31,6172.87 7527.6,6576.96 7533.89,6773.82 7540.19,6753.1 7546.48,6535.52 7552.78,6131.43 7559.07,5571.92 
  7565.36,4867.36 7571.66,4059.18 7577.95,3271.72 7584.24,2504.99 7590.54,1904.04 7596.83,1551.76 7603.13,1437.78 7609.42,1551.76 7615.71,1779.7 7622.01,2049.1 
  7628.3,2266.68 7634.59,2308.13 7640.89,2214.88 7647.18,1997.29 7653.47,1769.34 7659.77,1634.65 7666.06,1676.09 7672.36,2007.65 7678.65,2546.44 7684.94,3251 
  7691.24,3986.65 7697.53,4587.6 7703.82,4970.97 7710.12,5053.86 7716.41,4825.91 7722.7,4401.1 7729,3955.57 7735.29,3655.09 7741.59,3603.28 7747.88,3872.68 
  7754.17,4442.54 7760.47,5157.47 7766.76,5841.31 7773.05,6390.46 7779.35,6711.66 7785.64,6753.1 7791.94,6587.32 7798.23,6266.12 7804.52,5830.95 7810.82,5354.33 
  7817.11,4846.63 7823.4,4276.76 7829.7,3655.09 7835.99,2960.89 7842.28,2256.32 7848.58,1603.56 7854.87,1095.86 7861.17,857.554 7867.46,878.277 7873.75,1158.03 
  7880.05,1655.37 7886.34,2214.88 7892.63,2836.55 7898.93,3344.25 7905.22,3810.51 7911.52,4224.96 7917.81,4639.41 7924.1,5053.86 7930.4,5540.84 7936.69,5986.37 
  7942.98,6338.65 7949.28,6483.71 7955.57,6359.37 7961.86,5965.65 7968.16,5385.42 7974.45,4711.94 7980.75,4131.71 7987.04,3831.23 7993.33,3831.23 7999.63,4142.07 
  8005.92,4639.41 8012.21,5157.47 8018.51,5530.47 8024.8,5613.36 8031.09,5364.7 8037.39,4877.72 8043.68,4245.68 8049.98,3582.56 8056.27,3043.78 8062.56,2691.49 
  8068.86,2536.08 8075.15,2504.99 8081.44,2484.27 8087.74,2432.46 8094.03,2256.32 8100.33,1966.21 8106.62,1634.65 8112.91,1303.09 8119.21,1116.59 8125.5,1147.67 
  8131.79,1417.06 8138.09,1976.57 8144.38,2681.13 8150.67,3489.31 8156.97,4307.85 8163.26,5043.5 8169.56,5696.25 8175.85,6203.96 8182.14,6576.96 8188.44,6784.19 
  8194.73,6815.27 8201.02,6597.68 8207.32,6162.51 8213.61,5540.84 8219.9,4805.19 8226.2,4038.46 8232.49,3385.7 8238.79,2950.53 8245.08,2795.11 8251.37,2919.44 
  8257.67,3240.64 8263.96,3582.56 8270.25,3810.51 8276.55,3831.23 8282.84,3551.48 8289.14,3033.42 8295.43,2359.93 8301.72,1624.29 8308.02,1012.97 8314.31,608.884 
  8320.6,505.272 8326.9,691.774 8333.19,1147.67 8339.48,1758.98 8345.78,2339.21 8352.07,2826.19 8358.37,3105.94 8364.66,3137.03 8370.95,2960.89 8377.25,2681.13 
  8383.54,2422.1 8389.83,2287.41 8396.13,2411.74 8402.42,2774.38 8408.72,3354.61 8415.01,4100.62 8421.3,4877.72 8427.6,5592.64 8433.89,6152.15 8440.18,6545.88 
  8446.48,6711.66 8452.77,6701.3 8459.06,6483.71 8465.36,6079.62 8471.65,5509.75 8477.95,4805.19 8484.24,4017.73 8490.53,3219.92 8496.83,2515.35 8503.12,1966.21 
  8509.41,1655.37 8515.71,1582.84 8522,1738.26 8528.29,1986.93 8534.59,2256.32 8540.88,2422.1 8547.18,2453.19 8553.47,2287.41 8559.76,2038.74 8566.06,1769.34 
  8572.35,1613.93 8578.64,1645.01 8584.94,1955.85 8591.23,2484.27 8597.53,3199.2 8603.82,3955.57 8610.11,4556.52 8616.41,4970.97 8622.7,5022.77 8628.99,4805.19 
  8635.29,4411.46 8641.58,3997.01 8647.87,3675.81 8654.17,3624.01 8660.46,3924.48 8666.76,4473.63 8673.05,5198.92 8679.34,5913.84 8685.64,6494.07 8691.93,6856.71 
  8698.22,6929.24 8704.52,6784.19 8710.81,6504.43 8717.11,6089.98 8723.4,5634.09 8729.69,5095.3 8735.99,4504.71 8742.28,3831.23 8748.57,3116.31 8754.87,2401.38 
  8761.16,1727.9 8767.45,1251.28 8773.75,1033.7 8780.04,1054.42 8786.34,1334.17 8792.63,1800.43 8798.92,2359.93 8805.22,2909.08 8811.51,3375.34 8817.8,3810.51 
  8824.1,4193.87 8830.39,4577.24 8836.68,5022.77 8842.98,5489.03 8849.27,5965.65 8855.57,6359.37 8861.86,6556.24 8868.15,6473.35 8874.45,6100.34 8880.74,5499.39 
  8887.03,4846.63 8893.33,4287.13 8899.62,3986.65 8905.92,3997.01 8912.21,4318.21 8918.5,4815.55 8924.8,5343.97 8931.09,5727.34 8937.38,5851.67 8943.68,5644.45 
  8949.97,5198.92 8956.26,4597.96 8962.56,3934.84 8968.85,3396.06 8975.15,3043.78 8981.44,2846.91 8987.73,2753.66 8994.03,2712.22 9000.32,2608.6 9006.61,2401.38 
  9012.91,2080.18 9019.2,1727.9 9025.49,1406.7 9031.79,1220.2 9038.08,1261.64 9044.38,1572.48 9050.67,2142.35 9056.96,2878 9063.26,3706.9 9069.55,4525.43 
  9075.84,5250.72 9082.14,5872.4 9088.43,6369.74 9094.73,6732.38 9101.02,6939.6 9107.31,6949.97 9113.61,6773.82 9119.9,6338.65 9126.19,5716.98 9132.49,4960.61 
  9138.78,4183.51 9145.07,3561.84 9151.37,3137.03 9157.66,2981.61 9163.96,3105.94 9170.25,3416.78 9176.54,3769.06 9182.84,3965.93 9189.13,3955.57 9195.42,3655.09 
  9201.72,3116.31 9208.01,2422.1 9214.31,1686.45 9220.6,1054.42 9226.89,660.691 9233.19,577.801 9239.48,795.387 9245.77,1220.2 9252.07,1790.07 9258.36,2349.57 
  9264.65,2784.75 9270.95,3002.33 9277.24,2991.97 9283.54,2774.38 9289.83,2484.27 9296.12,2245.96 9302.42,2142.35 9308.71,2308.13 9315,2712.22 9321.3,3344.25 
  9327.59,4090.26 9333.88,4877.72 9340.18,5561.56 9346.47,6110.7 9352.77,6462.99 9359.06,6639.13 9365.35,6608.04 9371.65,6359.37 9377.94,5944.92 9384.23,5333.61 
  9390.53,4618.69 9396.82,3810.51 9403.12,3012.69 9409.41,2318.49 9415.7,1810.79 9422,1551.76 9428.29,1541.4 9434.58,1717.54 9440.88,1976.57 9447.17,2225.24 
  9453.46,2349.57 9459.76,2308.13 9466.05,2100.9 9472.35,1779.7 9478.64,1468.87 9484.93,1313.45 9491.23,1334.17 9497.52,1624.29 9503.81,2173.43 9510.11,2898.72 
  9516.4,3675.81 9522.69,4287.13 9528.99,4660.13 9535.28,4743.02 9541.58,4535.8 9547.87,4142.07 9554.16,3706.9 9560.46,3458.23 9566.75,3437.5 9573.04,3727.62 
  9579.34,4276.76 9585.63,4991.69 9591.93,5737.7 9598.22,6297.21 9604.51,6659.85 9610.81,6753.1 9617.1,6639.13 9623.39,6338.65 9629.69,5934.56 9635.98,5468.31 
  9642.27,4929.52 9648.57,4297.49 9654.86,3603.28 9661.16,2836.55 9667.45,2111.26 9673.74,1458.51 9680.04,1002.61 9686.33,795.387 9692.62,826.471 9698.92,1126.95 
  9705.21,1572.48 9711.51,2090.54 9717.8,2608.6 9724.09,3064.5 9730.39,3437.5 9736.68,3758.7 9742.97,4131.71 9749.27,4577.24 9755.56,5043.5 9761.85,5551.2 
  9768.15,5944.92 9774.44,6152.15 9780.74,6110.7 9787.03,5758.42 9793.32,5209.28 9799.62,4577.24 9805.91,4028.09 9812.2,3727.62 9818.5,3748.34 9824.79,4059.18 
  9831.08,4577.24 9837.38,5136.75 9843.67,5530.47 9849.97,5675.53 9856.26,5509.75 9862.55,5095.3 9868.85,4483.99 9875.14,3872.68 9881.43,3375.34 9887.73,3002.33 
  9894.02,2784.75 9900.32,2670.77 9906.61,2567.16 9912.9,2422.1 9919.2,2163.07 9925.49,1800.43 9931.78,1396.34 9938.08,1085.5 9944.37,940.444 9950.66,1033.7 
  9956.96,1396.34 9963.25,1976.57 9969.55,2712.22 9975.84,3530.76 9982.13,4328.57 9988.43,5053.86 9994.72,5665.17 10001,6152.15 10007.3,6525.15 10013.6,6732.38 
  10019.9,6742.74 10026.2,6566.6 10032.5,6131.43 10038.8,5478.67 10045.1,4722.3 10051.4,3986.65 10057.7,3354.61 10064,3002.33 10070.2,2929.8 10076.5,3085.22 
  10082.8,3416.78 10089.1,3758.7 10095.4,3997.01 10101.7,3965.93 10108,3634.37 10114.3,3064.5 10120.6,2339.21 10126.9,1603.56 10133.2,992.25 10139.5,619.246 
  10145.8,546.717 10152.1,753.942 10158.4,1199.48 10164.6,1748.62 10170.9,2256.32 10177.2,2587.88 10183.5,2732.94 10189.8,2670.77 10196.1,2442.82 10202.4,2163.07 
  10208.7,1945.48 10215,1914.4 10221.3,2142.35 10227.6,2608.6 10233.9,3292.45 10240.2,4059.18 10246.5,4825.91 10252.8,5499.39 10259.1,6027.81 10265.3,6338.65 
  10271.6,6494.07 10277.9,6411.18 10284.2,6162.51 10290.5,5716.98 10296.8,5095.3 10303.1,4380.38 10309.4,3582.56 10315.7,2795.11 10322,2152.71 10328.3,1717.54 
  10334.6,1531.04 10340.9,1593.2 10347.2,1790.07 10353.5,2069.82 10359.8,2297.77 10366,2359.93 10372.3,2245.96 10378.6,1966.21 10384.9,1593.2 10391.2,1261.64 
  10397.5,1054.42 10403.8,1085.5 10410.1,1427.42 10416.4,2007.65 10422.7,2764.02 10429,3510.03 10435.3,4142.07 10441.6,4515.07 10447.9,4566.88 10454.2,4349.29 
  10460.5,3965.93 10466.7,3572.2 10473,3313.17 10479.3,3354.61 10485.6,3675.81 10491.9,4235.32 10498.2,4950.25 10504.5,5675.53 10510.8,6276.48 10517.1,6649.49 
  10523.4,6784.19 10529.7,6670.21 10536,6400.82 10542.3,6007.09 10548.6,5530.47 10554.9,4970.97 10561.2,4307.85 10567.4,3603.28 10573.7,2826.19 10580,2111.26 
  10586.3,1468.87 10592.6,1033.7 10598.9,826.471 10605.2,909.36 10611.5,1209.84 10617.8,1665.73 10624.1,2183.79 10630.4,2670.77 10636.7,3033.42 10643,3364.98 
  10649.3,3644.73 10655.6,3955.57 10661.8,4390.74 10668.1,4877.72 10674.4,5406.14 10680.7,5862.03 10687,6110.7 10693.3,6089.98 10699.6,5789.51 10705.9,5261.08 
  10712.2,4629.05 10718.5,4100.62 10724.8,3769.06 10731.1,3779.42 10737.4,4110.98 10743.7,4639.41 10750,5178.19 10756.3,5634.09 10762.5,5799.87 10768.8,5675.53 
  10775.1,5271.44 10781.4,4743.02 10787.7,4162.79 10794,3665.45 10800.3,3271.72 10806.6,3023.05 10812.9,2888.36 10819.2,2732.94 10825.5,2504.99 10831.8,2183.79 
  10838.1,1769.34 10844.4,1365.26 10850.7,1023.33 10857,919.722 10863.2,1044.06 10869.5,1448.15 10875.8,2069.82 10882.1,2805.47 10888.4,3603.28 10894.7,4390.74 
  10901,5074.58 10907.3,5675.53 10913.6,6172.87 10919.9,6525.15 10926.2,6742.74 10932.5,6763.46 10938.8,6556.24 10945.1,6141.79 10951.4,5540.84 10957.7,4784.47 
  10963.9,4048.82 10963.9,4038.46 
  "/>
<path clip-path="url(#clip310)" d="
M9870.26 1286.55 L10930.4 1286.55 L10930.4 530.553 L9870.26 530.553  Z
  " fill="#ffffff" fill-rule="evenodd" fill-opacity="1"/>
<polyline clip-path="url(#clip310)" style="stroke:#000000; stroke-width:4; stroke-opacity:1; fill:none" points="
  9870.26,1286.55 10930.4,1286.55 10930.4,530.553 9870.26,530.553 9870.26,1286.55 
  "/>
<polyline clip-path="url(#clip310)" style="stroke:#009af9; stroke-width:25; stroke-opacity:1; fill:none" points="
  9944.39,908.553 10389.1,908.553 
  "/>
<path clip-path="url(#clip310)" d="M 0 0 M10549.8 1031.6 Q10538.5 1060.53 10527.8 1069.36 Q10517.1 1078.19 10499.1 1078.19 L10477.9 1078.19 L10477.9 1055.91 L10493.5 1055.91 Q10504.5 1055.91 10510.6 1050.7 Q10516.6 1045.49 10524 1026.1 L10528.8 1013.95 L10463.3 854.517 L10491.5 854.517 L10542.1 981.253 L10592.7 854.517 L10621 854.517 L10549.8 1031.6 Z" fill="#000000" fill-rule="evenodd" fill-opacity="1" /><path clip-path="url(#clip310)" d="M 0 0 M10657.7 991.959 L10705.5 991.959 L10705.5 827.174 L10653.5 837.59 L10653.5 810.97 L10705.2 800.553 L10734.4 800.553 L10734.4 991.959 L10782.1 991.959 L10782.1 1016.55 L10657.7 1016.55 L10657.7 991.959 Z" fill="#000000" fill-rule="evenodd" fill-opacity="1" /></svg>
