<?xml version="1.0" encoding="utf-8"?>
<svg xmlns="http://www.w3.org/2000/svg" xmlns:xlink="http://www.w3.org/1999/xlink" width="2600" height="2000" viewBox="0 0 10400 8000">
<defs>
  <clipPath id="clip980">
    <rect x="0" y="0" width="10400" height="8000"/>
  </clipPath>
</defs>
<path clip-path="url(#clip980)" d="
M0 8000 L10400 8000 L10400 0 L0 0  Z
  " fill="#ffffff" fill-rule="evenodd" fill-opacity="1"/>
<defs>
  <clipPath id="clip981">
    <rect x="2080" y="0" width="7281" height="7281"/>
  </clipPath>
</defs>
<path clip-path="url(#clip980)" d="
M1394.77 7342.8 L10352.8 7342.8 L10352.8 312.223 L1394.77 312.223  Z
  " fill="#ffffff" fill-rule="evenodd" fill-opacity="1"/>
<defs>
  <clipPath id="clip982">
    <rect x="1394" y="312" width="8959" height="7032"/>
  </clipPath>
</defs>
<polyline clip-path="url(#clip982)" style="stroke:#000000; stroke-width:2; stroke-opacity:0.1; fill:none" points="
  1648.29,7342.8 1648.29,312.223 
  "/>
<polyline clip-path="url(#clip982)" style="stroke:#000000; stroke-width:2; stroke-opacity:0.1; fill:none" points="
  3761.03,7342.8 3761.03,312.223 
  "/>
<polyline clip-path="url(#clip982)" style="stroke:#000000; stroke-width:2; stroke-opacity:0.1; fill:none" points="
  5873.76,7342.8 5873.76,312.223 
  "/>
<polyline clip-path="url(#clip982)" style="stroke:#000000; stroke-width:2; stroke-opacity:0.1; fill:none" points="
  7986.49,7342.8 7986.49,312.223 
  "/>
<polyline clip-path="url(#clip982)" style="stroke:#000000; stroke-width:2; stroke-opacity:0.1; fill:none" points="
  10099.2,7342.8 10099.2,312.223 
  "/>
<polyline clip-path="url(#clip980)" style="stroke:#000000; stroke-width:4; stroke-opacity:1; fill:none" points="
  1394.77,7342.8 10352.8,7342.8 
  "/>
<polyline clip-path="url(#clip980)" style="stroke:#000000; stroke-width:4; stroke-opacity:1; fill:none" points="
  1648.29,7342.8 1648.29,7258.43 
  "/>
<polyline clip-path="url(#clip980)" style="stroke:#000000; stroke-width:4; stroke-opacity:1; fill:none" points="
  3761.03,7342.8 3761.03,7258.43 
  "/>
<polyline clip-path="url(#clip980)" style="stroke:#000000; stroke-width:4; stroke-opacity:1; fill:none" points="
  5873.76,7342.8 5873.76,7258.43 
  "/>
<polyline clip-path="url(#clip980)" style="stroke:#000000; stroke-width:4; stroke-opacity:1; fill:none" points="
  7986.49,7342.8 7986.49,7258.43 
  "/>
<polyline clip-path="url(#clip980)" style="stroke:#000000; stroke-width:4; stroke-opacity:1; fill:none" points="
  10099.2,7342.8 10099.2,7258.43 
  "/>
<path clip-path="url(#clip980)" d="M 0 0 M1648.29 7488.44 Q1625.72 7488.44 1614.3 7510.72 Q1603.01 7532.86 1603.01 7577.42 Q1603.01 7621.83 1614.3 7644.11 Q1625.72 7666.25 1648.29 7666.25 Q1671.01 7666.25 1682.29 7644.11 Q1693.72 7621.83 1693.72 7577.42 Q1693.72 7532.86 1682.29 7510.72 Q1671.01 7488.44 1648.29 7488.44 M1648.29 7465.29 Q1684.61 7465.29 1703.7 7494.08 Q1722.95 7522.73 1722.95 7577.42 Q1722.95 7631.96 1703.7 7660.75 Q1684.61 7689.39 1648.29 7689.39 Q1611.98 7689.39 1592.74 7660.75 Q1573.64 7631.96 1573.64 7577.42 Q1573.64 7522.73 1592.74 7494.08 Q1611.98 7465.29 1648.29 7465.29 Z" fill="#000000" fill-rule="evenodd" fill-opacity="1" /><path clip-path="url(#clip980)" d="M 0 0 M3646.3 7660.6 L3748.3 7660.6 L3748.3 7685.2 L3611.14 7685.2 L3611.14 7660.6 Q3627.78 7643.39 3656.43 7614.45 Q3685.22 7585.37 3692.6 7576.98 Q3706.63 7561.21 3712.13 7550.36 Q3717.77 7539.37 3717.77 7528.8 Q3717.77 7511.59 3705.62 7500.74 Q3693.61 7489.89 3674.22 7489.89 Q3660.48 7489.89 3645.14 7494.66 Q3629.95 7499.44 3612.59 7509.13 L3612.59 7479.61 Q3630.24 7472.53 3645.58 7468.91 Q3660.91 7465.29 3673.64 7465.29 Q3707.21 7465.29 3727.17 7482.07 Q3747.14 7498.86 3747.14 7526.92 Q3747.14 7540.23 3742.08 7552.24 Q3737.16 7564.11 3723.99 7580.31 Q3720.37 7584.5 3700.99 7604.61 Q3681.6 7624.58 3646.3 7660.6 Z" fill="#000000" fill-rule="evenodd" fill-opacity="1" /><path clip-path="url(#clip980)" d="M 0 0 M3780.27 7469.2 L3895 7469.2 L3895 7493.79 L3807.03 7493.79 L3807.03 7546.74 Q3813.4 7544.57 3819.77 7543.56 Q3826.13 7542.4 3832.5 7542.4 Q3868.67 7542.4 3889.79 7562.22 Q3910.91 7582.04 3910.91 7615.9 Q3910.91 7650.77 3889.21 7670.15 Q3867.51 7689.39 3828.01 7689.39 Q3814.41 7689.39 3800.23 7687.08 Q3786.2 7684.76 3771.15 7680.13 L3771.15 7650.77 Q3784.18 7657.85 3798.06 7661.33 Q3811.95 7664.8 3827.43 7664.8 Q3852.46 7664.8 3867.07 7651.63 Q3881.69 7638.47 3881.69 7615.9 Q3881.69 7593.33 3867.07 7580.16 Q3852.46 7567 3827.43 7567 Q3815.71 7567 3804 7569.6 Q3792.42 7572.21 3780.27 7577.7 L3780.27 7469.2 Z" fill="#000000" fill-rule="evenodd" fill-opacity="1" /><path clip-path="url(#clip980)" d="M 0 0 M5728.58 7469.2 L5843.31 7469.2 L5843.31 7493.79 L5755.34 7493.79 L5755.34 7546.74 Q5761.71 7544.57 5768.08 7543.56 Q5774.44 7542.4 5780.81 7542.4 Q5816.98 7542.4 5838.1 7562.22 Q5859.22 7582.04 5859.22 7615.9 Q5859.22 7650.77 5837.52 7670.15 Q5815.82 7689.39 5776.32 7689.39 Q5762.72 7689.39 5748.54 7687.08 Q5734.51 7684.76 5719.46 7680.13 L5719.46 7650.77 Q5732.49 7657.85 5746.37 7661.33 Q5760.26 7664.8 5775.74 7664.8 Q5800.77 7664.8 5815.38 7651.63 Q5830 7638.47 5830 7615.9 Q5830 7593.33 5815.38 7580.16 Q5800.77 7567 5775.74 7567 Q5764.02 7567 5752.31 7569.6 Q5740.73 7572.21 5728.58 7577.7 L5728.58 7469.2 Z" fill="#000000" fill-rule="evenodd" fill-opacity="1" /><path clip-path="url(#clip980)" d="M 0 0 M5953.4 7488.44 Q5930.84 7488.44 5919.41 7510.72 Q5908.12 7532.86 5908.12 7577.42 Q5908.12 7621.83 5919.41 7644.11 Q5930.84 7666.25 5953.4 7666.25 Q5976.12 7666.25 5987.4 7644.11 Q5998.83 7621.83 5998.83 7577.42 Q5998.83 7532.86 5987.4 7510.72 Q5976.12 7488.44 5953.4 7488.44 M5953.4 7465.29 Q5989.72 7465.29 6008.82 7494.08 Q6028.06 7522.73 6028.06 7577.42 Q6028.06 7631.96 6008.82 7660.75 Q5989.72 7689.39 5953.4 7689.39 Q5917.09 7689.39 5897.85 7660.75 Q5878.75 7631.96 5878.75 7577.42 Q5878.75 7522.73 5897.85 7494.08 Q5917.09 7465.29 5953.4 7465.29 Z" fill="#000000" fill-rule="evenodd" fill-opacity="1" /><path clip-path="url(#clip980)" d="M 0 0 M7835.74 7469.2 L7974.63 7469.2 L7974.63 7481.64 L7896.22 7685.2 L7865.69 7685.2 L7939.47 7493.79 L7835.74 7493.79 L7835.74 7469.2 Z" fill="#000000" fill-rule="evenodd" fill-opacity="1" /><path clip-path="url(#clip980)" d="M 0 0 M8006.6 7469.2 L8121.33 7469.2 L8121.33 7493.79 L8033.37 7493.79 L8033.37 7546.74 Q8039.73 7544.57 8046.1 7543.56 Q8052.47 7542.4 8058.83 7542.4 Q8095 7542.4 8116.12 7562.22 Q8137.25 7582.04 8137.25 7615.9 Q8137.25 7650.77 8115.54 7670.15 Q8093.84 7689.39 8054.35 7689.39 Q8040.75 7689.39 8026.57 7687.08 Q8012.54 7684.76 7997.49 7680.13 L7997.49 7650.77 Q8010.51 7657.85 8024.4 7661.33 Q8038.29 7664.8 8053.77 7664.8 Q8078.8 7664.8 8093.41 7651.63 Q8108.02 7638.47 8108.02 7615.9 Q8108.02 7593.33 8093.41 7580.16 Q8078.8 7567 8053.77 7567 Q8042.05 7567 8030.33 7569.6 Q8018.76 7572.21 8006.6 7577.7 L8006.6 7469.2 Z" fill="#000000" fill-rule="evenodd" fill-opacity="1" /><path clip-path="url(#clip980)" d="M 0 0 M9870.28 7660.6 L9918.02 7660.6 L9918.02 7495.82 L9866.08 7506.24 L9866.08 7479.61 L9917.73 7469.2 L9946.96 7469.2 L9946.96 7660.6 L9994.7 7660.6 L9994.7 7685.2 L9870.28 7685.2 L9870.28 7660.6 Z" fill="#000000" fill-rule="evenodd" fill-opacity="1" /><path clip-path="url(#clip980)" d="M 0 0 M10088.9 7488.44 Q10066.3 7488.44 10054.9 7510.72 Q10043.6 7532.86 10043.6 7577.42 Q10043.6 7621.83 10054.9 7644.11 Q10066.3 7666.25 10088.9 7666.25 Q10111.6 7666.25 10122.9 7644.11 Q10134.3 7621.83 10134.3 7577.42 Q10134.3 7532.86 10122.9 7510.72 Q10111.6 7488.44 10088.9 7488.44 M10088.9 7465.29 Q10125.2 7465.29 10144.3 7494.08 Q10163.5 7522.73 10163.5 7577.42 Q10163.5 7631.96 10144.3 7660.75 Q10125.2 7689.39 10088.9 7689.39 Q10052.6 7689.39 10033.3 7660.75 Q10014.2 7631.96 10014.2 7577.42 Q10014.2 7522.73 10033.3 7494.08 Q10052.6 7465.29 10088.9 7465.29 Z" fill="#000000" fill-rule="evenodd" fill-opacity="1" /><path clip-path="url(#clip980)" d="M 0 0 M10257.7 7488.44 Q10235.2 7488.44 10223.7 7510.72 Q10212.4 7532.86 10212.4 7577.42 Q10212.4 7621.83 10223.7 7644.11 Q10235.2 7666.25 10257.7 7666.25 Q10280.4 7666.25 10291.7 7644.11 Q10303.1 7621.83 10303.1 7577.42 Q10303.1 7532.86 10291.7 7510.72 Q10280.4 7488.44 10257.7 7488.44 M10257.7 7465.29 Q10294 7465.29 10313.1 7494.08 Q10332.4 7522.73 10332.4 7577.42 Q10332.4 7631.96 10313.1 7660.75 Q10294 7689.39 10257.7 7689.39 Q10221.4 7689.39 10202.2 7660.75 Q10183.1 7631.96 10183.1 7577.42 Q10183.1 7522.73 10202.2 7494.08 Q10221.4 7465.29 10257.7 7465.29 Z" fill="#000000" fill-rule="evenodd" fill-opacity="1" /><path clip-path="url(#clip980)" d="M 0 0 M4378.47 7814 L4417.82 7814 L4513.6 7994.7 L4513.6 7814 L4541.95 7814 L4541.95 8030 L4502.6 8030 L4406.83 7849.3 L4406.83 8030 L4378.47 8030 L4378.47 7814 Z" fill="#000000" fill-rule="evenodd" fill-opacity="1" /><path clip-path="url(#clip980)" d="M 0 0 M4567.13 7966.05 L4567.13 7867.96 L4593.75 7867.96 L4593.75 7965.04 Q4593.75 7988.04 4602.72 7999.62 Q4611.69 8011.05 4629.63 8011.05 Q4651.18 8011.05 4663.63 7997.3 Q4676.21 7983.56 4676.21 7959.83 L4676.21 7867.96 L4702.83 7867.96 L4702.83 8030 L4676.21 8030 L4676.21 8005.11 Q4666.52 8019.87 4653.64 8027.1 Q4640.91 8034.19 4623.98 8034.19 Q4596.06 8034.19 4581.59 8016.83 Q4567.13 7999.47 4567.13 7966.05 M4634.11 7864.06 L4634.11 7864.06 M4653.93 7793.02 L4682.72 7793.02 L4635.56 7847.42 L4613.42 7847.42 L4653.93 7793.02 Z" fill="#000000" fill-rule="evenodd" fill-opacity="1" /><path clip-path="url(#clip980)" d="M 0 0 M4856.91 7899.07 Q4866.89 7881.13 4880.78 7872.59 Q4894.67 7864.06 4913.48 7864.06 Q4938.8 7864.06 4952.54 7881.85 Q4966.29 7899.5 4966.29 7932.2 L4966.29 8030 L4939.52 8030 L4939.52 7933.07 Q4939.52 7909.77 4931.27 7898.49 Q4923.03 7887.2 4906.1 7887.2 Q4885.41 7887.2 4873.4 7900.95 Q4861.4 7914.69 4861.4 7938.42 L4861.4 8030 L4834.63 8030 L4834.63 7933.07 Q4834.63 7909.63 4826.39 7898.49 Q4818.14 7887.2 4800.92 7887.2 Q4780.52 7887.2 4768.52 7901.09 Q4756.51 7914.84 4756.51 7938.42 L4756.51 8030 L4729.74 8030 L4729.74 7867.96 L4756.51 7867.96 L4756.51 7893.14 Q4765.62 7878.23 4778.35 7871.14 Q4791.08 7864.06 4808.59 7864.06 Q4826.24 7864.06 4838.54 7873.03 Q4850.98 7882 4856.91 7899.07 Z" fill="#000000" fill-rule="evenodd" fill-opacity="1" /><path clip-path="url(#clip980)" d="M 0 0 M5132.81 7942.33 L5132.81 7955.35 L5010.41 7955.35 Q5012.15 7982.83 5026.9 7997.3 Q5041.81 8011.62 5068.28 8011.62 Q5083.62 8011.62 5097.94 8007.86 Q5112.41 8004.1 5126.59 7996.58 L5126.59 8021.75 Q5112.26 8027.83 5097.22 8031.01 Q5082.17 8034.19 5066.69 8034.19 Q5027.92 8034.19 5005.2 8011.62 Q4982.63 7989.06 4982.63 7950.57 Q4982.63 7910.79 5004.05 7887.49 Q5025.6 7864.06 5062.06 7864.06 Q5094.76 7864.06 5113.71 7885.18 Q5132.81 7906.16 5132.81 7942.33 M5106.19 7934.51 Q5105.9 7912.67 5093.89 7899.65 Q5082.03 7886.63 5062.35 7886.63 Q5040.07 7886.63 5026.62 7899.21 Q5013.31 7911.8 5011.28 7934.66 L5106.19 7934.51 Z" fill="#000000" fill-rule="evenodd" fill-opacity="1" /><path clip-path="url(#clip980)" d="M 0 0 M5254.62 7892.85 Q5250.14 7890.24 5244.79 7889.08 Q5239.58 7887.78 5233.21 7887.78 Q5210.64 7887.78 5198.49 7902.54 Q5186.48 7917.15 5186.48 7944.64 L5186.48 8030 L5159.72 8030 L5159.72 7867.96 L5186.48 7867.96 L5186.48 7893.14 Q5194.87 7878.38 5208.33 7871.29 Q5221.78 7864.06 5241.02 7864.06 Q5243.77 7864.06 5247.1 7864.49 Q5250.43 7864.78 5254.48 7865.5 L5254.62 7892.85 Z" fill="#000000" fill-rule="evenodd" fill-opacity="1" /><path clip-path="url(#clip980)" d="M 0 0 M5338.82 7886.63 Q5317.41 7886.63 5304.97 7903.41 Q5292.53 7920.05 5292.53 7949.12 Q5292.53 7978.2 5304.83 7994.99 Q5317.27 8011.62 5338.82 8011.62 Q5360.09 8011.62 5372.53 7994.84 Q5384.98 7978.06 5384.98 7949.12 Q5384.98 7920.33 5372.53 7903.55 Q5360.09 7886.63 5338.82 7886.63 M5338.82 7864.06 Q5373.55 7864.06 5393.37 7886.63 Q5413.19 7909.19 5413.19 7949.12 Q5413.19 7988.91 5393.37 8011.62 Q5373.55 8034.19 5338.82 8034.19 Q5303.96 8034.19 5284.14 8011.62 Q5264.46 7988.91 5264.46 7949.12 Q5264.46 7909.19 5284.14 7886.63 Q5303.96 7864.06 5338.82 7864.06 Z" fill="#000000" fill-rule="evenodd" fill-opacity="1" /><path clip-path="url(#clip980)" d="M 0 0 M5641.92 7892.56 L5641.92 7804.88 L5668.54 7804.88 L5668.54 8030 L5641.92 8030 L5641.92 8005.69 Q5633.53 8020.16 5620.65 8027.25 Q5607.92 8034.19 5589.98 8034.19 Q5560.61 8034.19 5542.09 8010.76 Q5523.72 7987.32 5523.72 7949.12 Q5523.72 7910.93 5542.09 7887.49 Q5560.61 7864.06 5589.98 7864.06 Q5607.92 7864.06 5620.65 7871.14 Q5633.53 7878.09 5641.92 7892.56 M5551.21 7949.12 Q5551.21 7978.49 5563.22 7995.28 Q5575.37 8011.91 5596.49 8011.91 Q5617.61 8011.91 5629.77 7995.28 Q5641.92 7978.49 5641.92 7949.12 Q5641.92 7919.76 5629.77 7903.12 Q5617.61 7886.34 5596.49 7886.34 Q5575.37 7886.34 5563.22 7903.12 Q5551.21 7919.76 5551.21 7949.12 Z" fill="#000000" fill-rule="evenodd" fill-opacity="1" /><path clip-path="url(#clip980)" d="M 0 0 M5835.06 7942.33 L5835.06 7955.35 L5712.67 7955.35 Q5714.4 7982.83 5729.16 7997.3 Q5744.06 8011.62 5770.54 8011.62 Q5785.87 8011.62 5800.19 8007.86 Q5814.66 8004.1 5828.84 7996.58 L5828.84 8021.75 Q5814.52 8027.83 5799.47 8031.01 Q5784.42 8034.19 5768.94 8034.19 Q5730.17 8034.19 5707.46 8011.62 Q5684.89 7989.06 5684.89 7950.57 Q5684.89 7910.79 5706.3 7887.49 Q5727.86 7864.06 5764.31 7864.06 Q5797.01 7864.06 5815.96 7885.18 Q5835.06 7906.16 5835.06 7942.33 M5808.44 7934.51 Q5808.15 7912.67 5796.14 7899.65 Q5784.28 7886.63 5764.6 7886.63 Q5742.32 7886.63 5728.87 7899.21 Q5715.56 7911.8 5713.53 7934.66 L5808.44 7934.51 Z" fill="#000000" fill-rule="evenodd" fill-opacity="1" /><path clip-path="url(#clip980)" d="M 0 0 M5957.17 7867.96 L5983.79 7867.96 L5983.79 8030 L5957.17 8030 L5957.17 7867.96 M5957.17 7804.88 L5983.79 7804.88 L5983.79 7838.59 L5957.17 7838.59 L5957.17 7804.88 Z" fill="#000000" fill-rule="evenodd" fill-opacity="1" /><path clip-path="url(#clip980)" d="M 0 0 M6038.04 7821.96 L6038.04 7867.96 L6092.87 7867.96 L6092.87 7888.65 L6038.04 7888.65 L6038.04 7976.61 Q6038.04 7996.43 6043.39 8002.08 Q6048.89 8007.72 6065.53 8007.72 L6092.87 8007.72 L6092.87 8030 L6065.53 8030 Q6034.71 8030 6022.99 8018.57 Q6011.27 8006.99 6011.27 7976.61 L6011.27 7888.65 L5991.74 7888.65 L5991.74 7867.96 L6011.27 7867.96 L6011.27 7821.96 L6038.04 7821.96 Z" fill="#000000" fill-rule="evenodd" fill-opacity="1" /><path clip-path="url(#clip980)" d="M 0 0 M6259.39 7942.33 L6259.39 7955.35 L6137 7955.35 Q6138.73 7982.83 6153.49 7997.3 Q6168.39 8011.62 6194.87 8011.62 Q6210.2 8011.62 6224.53 8007.86 Q6238.99 8004.1 6253.17 7996.58 L6253.17 8021.75 Q6238.85 8027.83 6223.8 8031.01 Q6208.76 8034.19 6193.28 8034.19 Q6154.5 8034.19 6131.79 8011.62 Q6109.22 7989.06 6109.22 7950.57 Q6109.22 7910.79 6130.63 7887.49 Q6152.19 7864.06 6188.65 7864.06 Q6221.34 7864.06 6240.3 7885.18 Q6259.39 7906.16 6259.39 7942.33 M6232.77 7934.51 Q6232.48 7912.67 6220.47 7899.65 Q6208.61 7886.63 6188.94 7886.63 Q6166.66 7886.63 6153.2 7899.21 Q6139.89 7911.8 6137.87 7934.66 L6232.77 7934.51 Z" fill="#000000" fill-rule="evenodd" fill-opacity="1" /><path clip-path="url(#clip980)" d="M 0 0 M6381.21 7892.85 Q6376.72 7890.24 6371.37 7889.08 Q6366.16 7887.78 6359.8 7887.78 Q6337.23 7887.78 6325.08 7902.54 Q6313.07 7917.15 6313.07 7944.64 L6313.07 8030 L6286.3 8030 L6286.3 7867.96 L6313.07 7867.96 L6313.07 7893.14 Q6321.46 7878.38 6334.91 7871.29 Q6348.37 7864.06 6367.61 7864.06 Q6370.36 7864.06 6373.69 7864.49 Q6377.01 7864.78 6381.06 7865.5 L6381.21 7892.85 Z" fill="#000000" fill-rule="evenodd" fill-opacity="1" /><path clip-path="url(#clip980)" d="M 0 0 M6482.77 7948.55 Q6450.51 7948.55 6438.07 7955.92 Q6425.62 7963.3 6425.62 7981.1 Q6425.62 7995.28 6434.88 8003.67 Q6444.29 8011.91 6460.35 8011.91 Q6482.48 8011.91 6495.79 7996.29 Q6509.25 7980.52 6509.25 7954.48 L6509.25 7948.55 L6482.77 7948.55 M6535.87 7937.55 L6535.87 8030 L6509.25 8030 L6509.25 8005.4 Q6500.13 8020.16 6486.53 8027.25 Q6472.93 8034.19 6453.26 8034.19 Q6428.37 8034.19 6413.62 8020.31 Q6399 8006.27 6399 7982.83 Q6399 7955.49 6417.23 7941.6 Q6435.61 7927.71 6471.92 7927.71 L6509.25 7927.71 L6509.25 7925.11 Q6509.25 7906.74 6497.09 7896.75 Q6485.09 7886.63 6463.24 7886.63 Q6449.35 7886.63 6436.19 7889.95 Q6423.02 7893.28 6410.87 7899.94 L6410.87 7875.34 Q6425.48 7869.7 6439.22 7866.95 Q6452.97 7864.06 6465.99 7864.06 Q6501.14 7864.06 6518.51 7882.28 Q6535.87 7900.51 6535.87 7937.55 Z" fill="#000000" fill-rule="evenodd" fill-opacity="1" /><path clip-path="url(#clip980)" d="M 0 0 M6680.4 7874.18 L6680.4 7899.07 Q6669.11 7892.85 6657.68 7889.81 Q6646.4 7886.63 6634.82 7886.63 Q6608.93 7886.63 6594.6 7903.12 Q6580.28 7919.47 6580.28 7949.12 Q6580.28 7978.78 6594.6 7995.28 Q6608.93 8011.62 6634.82 8011.62 Q6646.4 8011.62 6657.68 8008.59 Q6669.11 8005.4 6680.4 7999.18 L6680.4 8023.78 Q6669.26 8028.99 6657.25 8031.59 Q6645.39 8034.19 6631.93 8034.19 Q6595.33 8034.19 6573.77 8011.19 Q6552.22 7988.19 6552.22 7949.12 Q6552.22 7909.48 6573.92 7886.77 Q6595.76 7864.06 6633.67 7864.06 Q6645.96 7864.06 6657.68 7866.66 Q6669.4 7869.12 6680.4 7874.18 Z" fill="#000000" fill-rule="evenodd" fill-opacity="1" /><path clip-path="url(#clip980)" d="M 0 0 M6708.32 7867.96 L6734.94 7867.96 L6734.94 8030 L6708.32 8030 L6708.32 7867.96 M6708.32 7804.88 L6734.94 7804.88 L6734.94 7838.59 L6708.32 7838.59 L6708.32 7804.88 Z" fill="#000000" fill-rule="evenodd" fill-opacity="1" /><path clip-path="url(#clip980)" d="M 0 0 M6825.65 7886.63 Q6804.24 7886.63 6791.8 7903.41 Q6779.36 7920.05 6779.36 7949.12 Q6779.36 7978.2 6791.65 7994.99 Q6804.09 8011.62 6825.65 8011.62 Q6846.92 8011.62 6859.36 7994.84 Q6871.8 7978.06 6871.8 7949.12 Q6871.8 7920.33 6859.36 7903.55 Q6846.92 7886.63 6825.65 7886.63 M6825.65 7864.06 Q6860.37 7864.06 6880.19 7886.63 Q6900.01 7909.19 6900.01 7949.12 Q6900.01 7988.91 6880.19 8011.62 Q6860.37 8034.19 6825.65 8034.19 Q6790.78 8034.19 6770.96 8011.62 Q6751.29 7988.91 6751.29 7949.12 Q6751.29 7909.19 6770.96 7886.63 Q6790.78 7864.06 6825.65 7864.06 Z" fill="#000000" fill-rule="evenodd" fill-opacity="1" /><path clip-path="url(#clip980)" d="M 0 0 M7062.63 7932.2 L7062.63 8030 L7036.01 8030 L7036.01 7933.07 Q7036.01 7910.06 7027.04 7898.63 Q7018.07 7887.2 7000.13 7887.2 Q6978.57 7887.2 6966.13 7900.95 Q6953.69 7914.69 6953.69 7938.42 L6953.69 8030 L6926.92 8030 L6926.92 7867.96 L6953.69 7867.96 L6953.69 7893.14 Q6963.24 7878.52 6976.11 7871.29 Q6989.13 7864.06 7006.06 7864.06 Q7033.98 7864.06 7048.31 7881.42 Q7062.63 7898.63 7062.63 7932.2 Z" fill="#000000" fill-rule="evenodd" fill-opacity="1" /><path clip-path="url(#clip980)" d="M 0 0 M7229.15 7942.33 L7229.15 7955.35 L7106.75 7955.35 Q7108.49 7982.83 7123.25 7997.3 Q7138.15 8011.62 7164.62 8011.62 Q7179.96 8011.62 7194.28 8007.86 Q7208.75 8004.1 7222.93 7996.58 L7222.93 8021.75 Q7208.61 8027.83 7193.56 8031.01 Q7178.51 8034.19 7163.03 8034.19 Q7124.26 8034.19 7101.55 8011.62 Q7078.98 7989.06 7078.98 7950.57 Q7078.98 7910.79 7100.39 7887.49 Q7121.95 7864.06 7158.4 7864.06 Q7191.1 7864.06 7210.05 7885.18 Q7229.15 7906.16 7229.15 7942.33 M7202.53 7934.51 Q7202.24 7912.67 7190.23 7899.65 Q7178.37 7886.63 7158.69 7886.63 Q7136.41 7886.63 7122.96 7899.21 Q7109.65 7911.8 7107.62 7934.66 L7202.53 7934.51 Z" fill="#000000" fill-rule="evenodd" fill-opacity="1" /><path clip-path="url(#clip980)" d="M 0 0 M7360.37 7872.74 L7360.37 7897.91 Q7349.09 7892.12 7336.93 7889.23 Q7324.78 7886.34 7311.76 7886.34 Q7291.94 7886.34 7281.96 7892.41 Q7272.12 7898.49 7272.12 7910.64 Q7272.12 7919.9 7279.21 7925.25 Q7286.3 7930.46 7307.71 7935.24 L7316.82 7937.26 Q7345.18 7943.34 7357.04 7954.48 Q7369.05 7965.47 7369.05 7985.29 Q7369.05 8007.86 7351.11 8021.03 Q7333.32 8034.19 7302.07 8034.19 Q7289.05 8034.19 7274.87 8031.59 Q7260.83 8029.13 7245.21 8024.07 L7245.21 7996.58 Q7259.97 8004.25 7274.29 8008.15 Q7288.61 8011.91 7302.65 8011.91 Q7321.45 8011.91 7331.58 8005.55 Q7341.71 7999.04 7341.71 7987.32 Q7341.71 7976.47 7334.33 7970.68 Q7327.1 7964.89 7302.36 7959.54 L7293.1 7957.37 Q7268.36 7952.16 7257.36 7941.46 Q7246.37 7930.61 7246.37 7911.8 Q7246.37 7888.94 7262.57 7876.5 Q7278.77 7864.06 7308.58 7864.06 Q7323.33 7864.06 7336.35 7866.23 Q7349.38 7868.4 7360.37 7872.74 Z" fill="#000000" fill-rule="evenodd" fill-opacity="1" /><polyline clip-path="url(#clip982)" style="stroke:#000000; stroke-width:2; stroke-opacity:0.1; fill:none" points="
  1394.77,7141.42 10352.8,7141.42 
  "/>
<polyline clip-path="url(#clip982)" style="stroke:#000000; stroke-width:2; stroke-opacity:0.1; fill:none" points="
  1394.77,5014.52 10352.8,5014.52 
  "/>
<polyline clip-path="url(#clip982)" style="stroke:#000000; stroke-width:2; stroke-opacity:0.1; fill:none" points="
  1394.77,2887.62 10352.8,2887.62 
  "/>
<polyline clip-path="url(#clip982)" style="stroke:#000000; stroke-width:2; stroke-opacity:0.1; fill:none" points="
  1394.77,760.716 10352.8,760.716 
  "/>
<polyline clip-path="url(#clip980)" style="stroke:#000000; stroke-width:4; stroke-opacity:1; fill:none" points="
  1394.77,7342.8 1394.77,312.223 
  "/>
<polyline clip-path="url(#clip980)" style="stroke:#000000; stroke-width:4; stroke-opacity:1; fill:none" points="
  1394.77,7141.42 1502.26,7141.42 
  "/>
<polyline clip-path="url(#clip980)" style="stroke:#000000; stroke-width:4; stroke-opacity:1; fill:none" points="
  1394.77,5014.52 1502.26,5014.52 
  "/>
<polyline clip-path="url(#clip980)" style="stroke:#000000; stroke-width:4; stroke-opacity:1; fill:none" points="
  1394.77,2887.62 1502.26,2887.62 
  "/>
<polyline clip-path="url(#clip980)" style="stroke:#000000; stroke-width:4; stroke-opacity:1; fill:none" points="
  1394.77,760.716 1502.26,760.716 
  "/>
<path clip-path="url(#clip980)" d="M 0 0 M1164.11 7052.66 Q1141.54 7052.66 1130.11 7074.94 Q1118.83 7097.08 1118.83 7141.64 Q1118.83 7186.05 1130.11 7208.33 Q1141.54 7230.47 1164.11 7230.47 Q1186.83 7230.47 1198.11 7208.33 Q1209.54 7186.05 1209.54 7141.64 Q1209.54 7097.08 1198.11 7074.94 Q1186.83 7052.66 1164.11 7052.66 M1164.11 7029.51 Q1200.43 7029.51 1219.52 7058.3 Q1238.77 7086.95 1238.77 7141.64 Q1238.77 7196.18 1219.52 7224.97 Q1200.43 7253.62 1164.11 7253.62 Q1127.8 7253.62 1108.56 7224.97 Q1089.46 7196.18 1089.46 7141.64 Q1089.46 7086.95 1108.56 7058.3 Q1127.8 7029.51 1164.11 7029.51 Z" fill="#000000" fill-rule="evenodd" fill-opacity="1" /><path clip-path="url(#clip980)" d="M 0 0 M293.766 5138.22 L341.509 5138.22 L341.509 4973.44 L289.57 4983.85 L289.57 4957.23 L341.219 4946.82 L370.444 4946.82 L370.444 5138.22 L418.187 5138.22 L418.187 5162.82 L293.766 5162.82 L293.766 5138.22 Z" fill="#000000" fill-rule="evenodd" fill-opacity="1" /><path clip-path="url(#clip980)" d="M 0 0 M625.94 5003.67 L559.824 5070.08 L625.94 5136.2 L608.724 5153.7 L542.318 5087.3 L475.912 5153.7 L458.84 5136.2 L524.812 5070.08 L458.84 5003.67 L475.912 4986.17 L542.318 5052.57 L608.724 4986.17 L625.94 5003.67 Z" fill="#000000" fill-rule="evenodd" fill-opacity="1" /><path clip-path="url(#clip980)" d="M 0 0 M662.688 5138.22 L710.43 5138.22 L710.43 4973.44 L658.492 4983.85 L658.492 4957.23 L710.141 4946.82 L739.365 4946.82 L739.365 5138.22 L787.108 5138.22 L787.108 5162.82 L662.688 5162.82 L662.688 5138.22 Z" fill="#000000" fill-rule="evenodd" fill-opacity="1" /><path clip-path="url(#clip980)" d="M 0 0 M881.292 4966.06 Q858.722 4966.06 847.293 4988.34 Q836.008 5010.47 836.008 5055.03 Q836.008 5099.45 847.293 5121.73 Q858.722 5143.86 881.292 5143.86 Q904.006 5143.86 915.29 5121.73 Q926.72 5099.45 926.72 5055.03 Q926.72 5010.47 915.29 4988.34 Q904.006 4966.06 881.292 4966.06 M881.292 4942.91 Q917.605 4942.91 936.702 4971.7 Q955.944 5000.35 955.944 5055.03 Q955.944 5109.58 936.702 5138.37 Q917.605 5167.01 881.292 5167.01 Q844.978 5167.01 825.736 5138.37 Q806.639 5109.58 806.639 5055.03 Q806.639 5000.35 825.736 4971.7 Q844.978 4942.91 881.292 4942.91 Z" fill="#000000" fill-rule="evenodd" fill-opacity="1" /><path clip-path="url(#clip980)" d="M 0 0 M955.944 4906.04 L1106.64 4906.04 L1106.64 4926.03 L955.944 4926.03 L955.944 4906.04 Z" fill="#000000" fill-rule="evenodd" fill-opacity="1" /><path clip-path="url(#clip980)" d="M 0 0 M1132.62 4816 L1225.84 4816 L1225.84 4835.98 L1154.37 4835.98 L1154.37 4879.01 Q1159.54 4877.24 1164.71 4876.42 Q1169.88 4875.48 1175.05 4875.48 Q1204.44 4875.48 1221.6 4891.59 Q1238.77 4907.69 1238.77 4935.2 Q1238.77 4963.52 1221.13 4979.28 Q1203.5 4994.91 1171.41 4994.91 Q1160.36 4994.91 1148.84 4993.03 Q1137.44 4991.15 1125.21 4987.39 L1125.21 4963.52 Q1135.79 4969.28 1147.08 4972.11 Q1158.36 4974.93 1170.94 4974.93 Q1191.28 4974.93 1203.15 4964.23 Q1215.02 4953.53 1215.02 4935.2 Q1215.02 4916.86 1203.15 4906.16 Q1191.28 4895.46 1170.94 4895.46 Q1161.42 4895.46 1151.9 4897.58 Q1142.49 4899.7 1132.62 4904.16 L1132.62 4816 Z" fill="#000000" fill-rule="evenodd" fill-opacity="1" /><path clip-path="url(#clip980)" d="M 0 0 M316.191 3011.32 L418.187 3011.32 L418.187 3035.91 L281.035 3035.91 L281.035 3011.32 Q297.672 2994.1 326.318 2965.17 Q355.108 2936.09 362.487 2927.7 Q376.52 2911.93 382.018 2901.08 Q387.66 2890.08 387.66 2879.52 Q387.66 2862.3 375.507 2851.45 Q363.499 2840.6 344.113 2840.6 Q330.369 2840.6 315.033 2845.38 Q299.842 2850.15 282.481 2859.85 L282.481 2830.33 Q300.132 2823.24 315.467 2819.63 Q330.803 2816.01 343.534 2816.01 Q377.099 2816.01 397.064 2832.79 Q417.029 2849.57 417.029 2877.64 Q417.029 2890.95 411.966 2902.96 Q407.047 2914.82 393.881 2931.03 Q390.264 2935.22 370.878 2955.33 Q351.491 2975.3 316.191 3011.32 Z" fill="#000000" fill-rule="evenodd" fill-opacity="1" /><path clip-path="url(#clip980)" d="M 0 0 M625.94 2876.77 L559.824 2943.18 L625.94 3009.29 L608.724 3026.8 L542.318 2960.39 L475.912 3026.8 L458.84 3009.29 L524.812 2943.18 L458.84 2876.77 L475.912 2859.27 L542.318 2925.67 L608.724 2859.27 L625.94 2876.77 Z" fill="#000000" fill-rule="evenodd" fill-opacity="1" /><path clip-path="url(#clip980)" d="M 0 0 M662.688 3011.32 L710.43 3011.32 L710.43 2846.54 L658.492 2856.95 L658.492 2830.33 L710.141 2819.91 L739.365 2819.91 L739.365 3011.32 L787.108 3011.32 L787.108 3035.91 L662.688 3035.91 L662.688 3011.32 Z" fill="#000000" fill-rule="evenodd" fill-opacity="1" /><path clip-path="url(#clip980)" d="M 0 0 M881.292 2839.16 Q858.722 2839.16 847.293 2861.44 Q836.008 2883.57 836.008 2928.13 Q836.008 2972.55 847.293 2994.83 Q858.722 3016.96 881.292 3016.96 Q904.006 3016.96 915.29 2994.83 Q926.72 2972.55 926.72 2928.13 Q926.72 2883.57 915.29 2861.44 Q904.006 2839.16 881.292 2839.16 M881.292 2816.01 Q917.605 2816.01 936.702 2844.8 Q955.944 2873.44 955.944 2928.13 Q955.944 2982.67 936.702 3011.46 Q917.605 3040.11 881.292 3040.11 Q844.978 3040.11 825.736 3011.46 Q806.639 2982.67 806.639 2928.13 Q806.639 2873.44 825.736 2844.8 Q844.978 2816.01 881.292 2816.01 Z" fill="#000000" fill-rule="evenodd" fill-opacity="1" /><path clip-path="url(#clip980)" d="M 0 0 M955.944 2779.14 L1106.64 2779.14 L1106.64 2799.13 L955.944 2799.13 L955.944 2779.14 Z" fill="#000000" fill-rule="evenodd" fill-opacity="1" /><path clip-path="url(#clip980)" d="M 0 0 M1132.62 2689.1 L1225.84 2689.1 L1225.84 2709.08 L1154.37 2709.08 L1154.37 2752.11 Q1159.54 2750.34 1164.71 2749.52 Q1169.88 2748.58 1175.05 2748.58 Q1204.44 2748.58 1221.6 2764.68 Q1238.77 2780.79 1238.77 2808.29 Q1238.77 2836.62 1221.13 2852.37 Q1203.5 2868.01 1171.41 2868.01 Q1160.36 2868.01 1148.84 2866.13 Q1137.44 2864.25 1125.21 2860.49 L1125.21 2836.62 Q1135.79 2842.38 1147.08 2845.2 Q1158.36 2848.03 1170.94 2848.03 Q1191.28 2848.03 1203.15 2837.33 Q1215.02 2826.63 1215.02 2808.29 Q1215.02 2789.96 1203.15 2779.26 Q1191.28 2768.56 1170.94 2768.56 Q1161.42 2768.56 1151.9 2770.68 Q1142.49 2772.79 1132.62 2777.26 L1132.62 2689.1 Z" fill="#000000" fill-rule="evenodd" fill-opacity="1" /><path clip-path="url(#clip980)" d="M 0 0 M373.627 792.55 Q394.605 797.035 406.323 811.213 Q418.187 825.391 418.187 846.225 Q418.187 878.198 396.196 895.703 Q374.205 913.209 333.696 913.209 Q320.097 913.209 305.629 910.46 Q291.306 907.856 275.971 902.503 L275.971 874.291 Q288.124 881.381 302.591 884.997 Q317.059 888.614 332.828 888.614 Q360.317 888.614 374.639 877.764 Q389.107 866.913 389.107 846.225 Q389.107 827.127 375.652 816.421 Q362.342 805.571 338.471 805.571 L313.297 805.571 L313.297 781.555 L339.628 781.555 Q361.185 781.555 372.614 773.019 Q384.043 764.338 384.043 748.135 Q384.043 731.497 372.18 722.672 Q360.461 713.702 338.471 713.702 Q326.463 713.702 312.718 716.306 Q298.974 718.91 282.481 724.408 L282.481 698.367 Q299.119 693.737 313.586 691.422 Q328.199 689.107 341.075 689.107 Q374.35 689.107 393.736 704.298 Q413.123 719.344 413.123 745.097 Q413.123 763.036 402.851 775.478 Q392.579 787.776 373.627 792.55 Z" fill="#000000" fill-rule="evenodd" fill-opacity="1" /><path clip-path="url(#clip980)" d="M 0 0 M625.94 749.871 L559.824 816.277 L625.94 882.393 L608.724 899.899 L542.318 833.493 L475.912 899.899 L458.84 882.393 L524.812 816.277 L458.84 749.871 L475.912 732.365 L542.318 798.771 L608.724 732.365 L625.94 749.871 Z" fill="#000000" fill-rule="evenodd" fill-opacity="1" /><path clip-path="url(#clip980)" d="M 0 0 M662.688 884.419 L710.43 884.419 L710.43 719.634 L658.492 730.05 L658.492 703.43 L710.141 693.014 L739.365 693.014 L739.365 884.419 L787.108 884.419 L787.108 909.014 L662.688 909.014 L662.688 884.419 Z" fill="#000000" fill-rule="evenodd" fill-opacity="1" /><path clip-path="url(#clip980)" d="M 0 0 M881.292 712.255 Q858.722 712.255 847.293 734.535 Q836.008 756.671 836.008 801.231 Q836.008 845.646 847.293 867.926 Q858.722 890.061 881.292 890.061 Q904.006 890.061 915.29 867.926 Q926.72 845.646 926.72 801.231 Q926.72 756.671 915.29 734.535 Q904.006 712.255 881.292 712.255 M881.292 689.107 Q917.605 689.107 936.702 717.898 Q955.944 746.543 955.944 801.231 Q955.944 855.773 936.702 884.563 Q917.605 913.209 881.292 913.209 Q844.978 913.209 825.736 884.563 Q806.639 855.773 806.639 801.231 Q806.639 746.543 825.736 717.898 Q844.978 689.107 881.292 689.107 Z" fill="#000000" fill-rule="evenodd" fill-opacity="1" /><path clip-path="url(#clip980)" d="M 0 0 M955.944 652.241 L1106.64 652.241 L1106.64 672.224 L955.944 672.224 L955.944 652.241 Z" fill="#000000" fill-rule="evenodd" fill-opacity="1" /><path clip-path="url(#clip980)" d="M 0 0 M1132.62 562.199 L1225.84 562.199 L1225.84 582.182 L1154.37 582.182 L1154.37 625.205 Q1159.54 623.441 1164.71 622.618 Q1169.88 621.678 1175.05 621.678 Q1204.44 621.678 1221.6 637.782 Q1238.77 653.886 1238.77 681.393 Q1238.77 709.722 1221.13 725.473 Q1203.5 741.107 1171.41 741.107 Q1160.36 741.107 1148.84 739.227 Q1137.44 737.346 1125.21 733.584 L1125.21 709.722 Q1135.79 715.482 1147.08 718.303 Q1158.36 721.124 1170.94 721.124 Q1191.28 721.124 1203.15 710.427 Q1215.02 699.73 1215.02 681.393 Q1215.02 663.055 1203.15 652.358 Q1191.28 641.661 1170.94 641.661 Q1161.42 641.661 1151.9 643.777 Q1142.49 645.893 1132.62 650.36 L1132.62 562.199 Z" fill="#000000" fill-rule="evenodd" fill-opacity="1" /><path clip-path="url(#clip980)" d="M 0 0 M-40.1914 4913.08 L-9.37562 4913.08 Q-23.1198 4927.84 -29.9195 4944.62 Q-36.7192 4961.26 -36.7192 4980.07 Q-36.7192 5017.1 -14.0052 5036.78 Q8.56409 5056.45 51.3879 5056.45 Q94.0671 5056.45 116.781 5036.78 Q139.35 5017.1 139.35 4980.07 Q139.35 4961.26 132.551 4944.62 Q125.751 4927.84 112.007 4913.08 L142.533 4913.08 Q152.95 4928.42 158.158 4945.63 Q163.367 4962.7 163.367 4981.8 Q163.367 5030.85 133.419 5059.06 Q103.326 5087.27 51.3879 5087.27 Q-0.695115 5087.27 -30.6429 5059.06 Q-60.7353 5030.85 -60.7353 4981.8 Q-60.7353 4962.41 -55.527 4945.34 Q-50.4634 4928.13 -40.1914 4913.08 Z" fill="#000000" fill-rule="evenodd" fill-opacity="1" /><path clip-path="url(#clip980)" d="M 0 0 M77.7188 4811.52 Q77.7188 4843.78 85.0972 4856.22 Q92.4757 4868.67 110.271 4868.67 Q124.449 4868.67 132.84 4859.41 Q141.087 4850 141.087 4833.94 Q141.087 4811.81 125.462 4798.5 Q109.692 4785.04 83.6505 4785.04 L77.7188 4785.04 L77.7188 4811.52 M66.7235 4758.42 L159.171 4758.42 L159.171 4785.04 L134.576 4785.04 Q149.333 4794.16 156.422 4807.76 Q163.367 4821.36 163.367 4841.03 Q163.367 4865.92 149.478 4880.67 Q135.444 4895.29 112.007 4895.29 Q84.6632 4895.29 70.7744 4877.06 Q56.8856 4858.68 56.8856 4822.37 L56.8856 4785.04 L54.2814 4785.04 Q35.9077 4785.04 25.9251 4797.2 Q15.7979 4809.2 15.7979 4831.05 Q15.7979 4844.94 19.1254 4858.1 Q22.4529 4871.27 29.108 4883.42 L4.51319 4883.42 Q-1.12914 4868.81 -3.87797 4855.07 Q-6.77147 4841.32 -6.77147 4828.3 Q-6.77147 4793.14 11.4576 4775.78 Q29.6867 4758.42 66.7235 4758.42 Z" fill="#000000" fill-rule="evenodd" fill-opacity="1" /><path clip-path="url(#clip980)" d="M 0 0 M28.2399 4604.34 Q10.3002 4594.36 1.76436 4580.47 Q-6.77147 4566.58 -6.77147 4547.78 Q-6.77147 4522.46 11.0236 4508.71 Q28.6739 4494.97 61.3705 4494.97 L159.171 4494.97 L159.171 4521.73 L62.2386 4521.73 Q38.9459 4521.73 27.6612 4529.98 Q16.3766 4538.23 16.3766 4555.15 Q16.3766 4575.84 30.1207 4587.85 Q43.8648 4599.86 67.5916 4599.86 L159.171 4599.86 L159.171 4626.62 L62.2386 4626.62 Q38.8012 4626.62 27.6612 4634.87 Q16.3766 4643.12 16.3766 4660.33 Q16.3766 4680.73 30.2654 4692.74 Q44.0095 4704.75 67.5916 4704.75 L159.171 4704.75 L159.171 4731.51 L-2.86524 4731.51 L-2.86524 4704.75 L22.3082 4704.75 Q7.40669 4695.63 0.317611 4682.9 Q-6.77147 4670.17 -6.77147 4652.67 Q-6.77147 4635.01 2.19839 4622.72 Q11.1682 4610.28 28.2399 4604.34 Z" fill="#000000" fill-rule="evenodd" fill-opacity="1" /><path clip-path="url(#clip980)" d="M 0 0 M78.2975 4350.73 Q48.9285 4350.73 32.2908 4362.88 Q15.5085 4374.89 15.5085 4396.01 Q15.5085 4417.13 32.2908 4429.29 Q48.9285 4441.29 78.2975 4441.29 Q107.667 4441.29 124.449 4429.29 Q141.087 4417.13 141.087 4396.01 Q141.087 4374.89 124.449 4362.88 Q107.667 4350.73 78.2975 4350.73 M21.7295 4441.29 Q7.26202 4432.9 0.317611 4420.17 Q-6.77147 4407.3 -6.77147 4389.5 Q-6.77147 4359.99 16.6659 4341.61 Q40.1033 4323.1 78.2975 4323.1 Q116.492 4323.1 139.929 4341.61 Q163.367 4359.99 163.367 4389.5 Q163.367 4407.3 156.422 4420.17 Q149.333 4432.9 134.866 4441.29 L159.171 4441.29 L159.171 4468.06 L-65.9436 4468.06 L-65.9436 4441.29 L21.7295 4441.29 Z" fill="#000000" fill-rule="evenodd" fill-opacity="1" /><path clip-path="url(#clip980)" d="M 0 0 M-2.86524 4295.17 L-2.86524 4268.55 L159.171 4268.55 L159.171 4295.17 L-2.86524 4295.17 M-65.9436 4295.17 L-65.9436 4268.55 L-32.2343 4268.55 L-32.2343 4295.17 L-65.9436 4295.17 Z" fill="#000000" fill-rule="evenodd" fill-opacity="1" /><path clip-path="url(#clip980)" d="M 0 0 M15.7979 4177.84 Q15.7979 4199.25 32.5802 4211.7 Q49.2178 4224.14 78.2975 4224.14 Q107.377 4224.14 124.16 4211.84 Q140.797 4199.4 140.797 4177.84 Q140.797 4156.57 124.015 4144.13 Q107.233 4131.69 78.2975 4131.69 Q49.5072 4131.69 32.7248 4144.13 Q15.7979 4156.57 15.7979 4177.84 M-6.77147 4177.84 Q-6.77147 4143.12 15.7979 4123.3 Q38.3672 4103.48 78.2975 4103.48 Q118.083 4103.48 140.797 4123.3 Q163.367 4143.12 163.367 4177.84 Q163.367 4212.71 140.797 4232.53 Q118.083 4252.2 78.2975 4252.2 Q38.3672 4252.2 15.7979 4232.53 Q-6.77147 4212.71 -6.77147 4177.84 Z" fill="#000000" fill-rule="evenodd" fill-opacity="1" /><path clip-path="url(#clip980)" d="M 0 0 M71.4978 3842.77 L84.5185 3842.77 L84.5185 3965.17 Q112.007 3963.43 126.474 3948.68 Q140.797 3933.77 140.797 3907.3 Q140.797 3891.96 137.036 3877.64 Q133.274 3863.17 125.751 3848.99 L150.924 3848.99 Q157.001 3863.32 160.184 3878.36 Q163.367 3893.41 163.367 3908.89 Q163.367 3947.66 140.797 3970.38 Q118.228 3992.95 79.7443 3992.95 Q39.9586 3992.95 16.6659 3971.53 Q-6.77147 3949.98 -6.77147 3913.52 Q-6.77147 3880.82 14.3511 3861.87 Q35.329 3842.77 71.4978 3842.77 M63.6853 3869.39 Q41.8394 3869.68 28.8186 3881.69 Q15.7979 3893.55 15.7979 3913.23 Q15.7979 3935.51 28.3846 3948.97 Q40.9713 3962.28 63.83 3964.3 L63.6853 3869.39 Z" fill="#000000" fill-rule="evenodd" fill-opacity="1" /><path clip-path="url(#clip980)" d="M 0 0 M61.3705 3680.16 L159.171 3680.16 L159.171 3706.78 L62.2386 3706.78 Q39.2352 3706.78 27.8059 3715.75 Q16.3766 3724.72 16.3766 3742.66 Q16.3766 3764.22 30.1207 3776.66 Q43.8648 3789.1 67.5916 3789.1 L159.171 3789.1 L159.171 3815.86 L-2.86524 3815.86 L-2.86524 3789.1 L22.3082 3789.1 Q7.69604 3779.55 0.462286 3766.67 Q-6.77147 3753.65 -6.77147 3736.73 Q-6.77147 3708.8 10.5895 3694.48 Q27.8059 3680.16 61.3705 3680.16 Z" fill="#000000" fill-rule="evenodd" fill-opacity="1" /><path clip-path="url(#clip980)" d="M 0 0 M71.4978 3419.45 L84.5185 3419.45 L84.5185 3541.85 Q112.007 3540.11 126.474 3525.36 Q140.797 3510.46 140.797 3483.98 Q140.797 3468.64 137.036 3454.32 Q133.274 3439.85 125.751 3425.68 L150.924 3425.68 Q157.001 3440 160.184 3455.04 Q163.367 3470.09 163.367 3485.57 Q163.367 3524.34 140.797 3547.06 Q118.228 3569.63 79.7443 3569.63 Q39.9586 3569.63 16.6659 3548.22 Q-6.77147 3526.66 -6.77147 3490.2 Q-6.77147 3457.5 14.3511 3438.55 Q35.329 3419.45 71.4978 3419.45 M63.6853 3446.07 Q41.8394 3446.36 28.8186 3458.37 Q15.7979 3470.24 15.7979 3489.91 Q15.7979 3512.19 28.3846 3525.65 Q40.9713 3538.96 63.83 3540.98 L63.6853 3446.07 Z" fill="#000000" fill-rule="evenodd" fill-opacity="1" /><path clip-path="url(#clip980)" d="M 0 0 M61.3705 3256.84 L159.171 3256.84 L159.171 3283.46 L62.2386 3283.46 Q39.2352 3283.46 27.8059 3292.43 Q16.3766 3301.4 16.3766 3319.34 Q16.3766 3340.9 30.1207 3353.34 Q43.8648 3365.78 67.5916 3365.78 L159.171 3365.78 L159.171 3392.54 L-2.86524 3392.54 L-2.86524 3365.78 L22.3082 3365.78 Q7.69604 3356.23 0.462286 3343.36 Q-6.77147 3330.33 -6.77147 3313.41 Q-6.77147 3285.49 10.5895 3271.16 Q27.8059 3256.84 61.3705 3256.84 Z" fill="#000000" fill-rule="evenodd" fill-opacity="1" /><path clip-path="url(#clip980)" d="M 0 0 M71.4978 3090.32 L84.5185 3090.32 L84.5185 3212.71 Q112.007 3210.98 126.474 3196.22 Q140.797 3181.32 140.797 3154.84 Q140.797 3139.51 137.036 3125.19 Q133.274 3110.72 125.751 3096.54 L150.924 3096.54 Q157.001 3110.86 160.184 3125.91 Q163.367 3140.95 163.367 3156.43 Q163.367 3195.21 140.797 3217.92 Q118.228 3240.49 79.7443 3240.49 Q39.9586 3240.49 16.6659 3219.08 Q-6.77147 3197.52 -6.77147 3161.06 Q-6.77147 3128.37 14.3511 3109.42 Q35.329 3090.32 71.4978 3090.32 M63.6853 3116.94 Q41.8394 3117.23 28.8186 3129.24 Q15.7979 3141.1 15.7979 3160.78 Q15.7979 3183.06 28.3846 3196.51 Q40.9713 3209.82 63.83 3211.85 L63.6853 3116.94 Z" fill="#000000" fill-rule="evenodd" fill-opacity="1" /><path clip-path="url(#clip980)" d="M 0 0 M22.0189 2968.5 Q19.4147 2972.99 18.2573 2978.34 Q16.9553 2983.55 16.9553 2989.91 Q16.9553 3012.48 31.7121 3024.64 Q46.3243 3036.64 73.8126 3036.64 L159.171 3036.64 L159.171 3063.41 L-2.86524 3063.41 L-2.86524 3036.64 L22.3082 3036.64 Q7.55137 3028.25 0.462286 3014.8 Q-6.77147 3001.34 -6.77147 2982.1 Q-6.77147 2979.35 -6.33745 2976.03 Q-6.0481 2972.7 -5.32472 2968.65 L22.0189 2968.5 Z" fill="#000000" fill-rule="evenodd" fill-opacity="1" /><path clip-path="url(#clip980)" d="M 0 0 M76.2721 2839.16 Q47.337 2839.16 31.4228 2851.17 Q15.5085 2863.03 15.5085 2884.59 Q15.5085 2906 31.4228 2918.01 Q47.337 2929.87 76.2721 2929.87 Q105.062 2929.87 120.977 2918.01 Q136.891 2906 136.891 2884.59 Q136.891 2863.03 120.977 2851.17 Q105.062 2839.16 76.2721 2839.16 M139.061 2812.54 Q180.438 2812.54 200.548 2830.92 Q220.803 2849.29 220.803 2887.19 Q220.803 2901.23 218.632 2913.67 Q216.607 2926.11 212.267 2937.83 L186.37 2937.83 Q192.736 2926.11 195.774 2914.68 Q198.812 2903.25 198.812 2891.39 Q198.812 2865.2 185.068 2852.18 Q171.468 2839.16 143.835 2839.16 L130.67 2839.16 Q144.993 2847.41 152.082 2860.28 Q159.171 2873.16 159.171 2891.1 Q159.171 2920.9 136.457 2939.13 Q113.743 2957.36 76.2721 2957.36 Q38.6565 2957.36 15.9425 2939.13 Q-6.77147 2920.9 -6.77147 2891.1 Q-6.77147 2873.16 0.317611 2860.28 Q7.40669 2847.41 21.7295 2839.16 L-2.86524 2839.16 L-2.86524 2812.54 L139.061 2812.54 Z" fill="#000000" fill-rule="evenodd" fill-opacity="1" /><path clip-path="url(#clip980)" d="M 0 0 M-77.807 2751.2 L-77.807 2722.41 L-23.4091 2769.57 L-23.4091 2791.71 L-77.807 2751.2 M-2.86524 2784.62 L-2.86524 2758 L159.171 2758 L159.171 2784.62 L-2.86524 2784.62 M-6.77147 2771.31 L-6.77147 2771.31 Z" fill="#000000" fill-rule="evenodd" fill-opacity="1" /><path clip-path="url(#clip980)" d="M 0 0 M77.7188 2620.85 Q77.7188 2653.11 85.0972 2665.55 Q92.4757 2677.99 110.271 2677.99 Q124.449 2677.99 132.84 2668.73 Q141.087 2659.33 141.087 2643.27 Q141.087 2621.14 125.462 2607.83 Q109.692 2594.37 83.6505 2594.37 L77.7188 2594.37 L77.7188 2620.85 M66.7235 2567.75 L159.171 2567.75 L159.171 2594.37 L134.576 2594.37 Q149.333 2603.49 156.422 2617.09 Q163.367 2630.69 163.367 2650.36 Q163.367 2675.25 149.478 2690 Q135.444 2704.61 112.007 2704.61 Q84.6632 2704.61 70.7744 2686.39 Q56.8856 2668.01 56.8856 2631.7 L56.8856 2594.37 L54.2814 2594.37 Q35.9077 2594.37 25.9251 2606.52 Q15.7979 2618.53 15.7979 2640.38 Q15.7979 2654.27 19.1254 2667.43 Q22.4529 2680.6 29.108 2692.75 L4.51319 2692.75 Q-1.12914 2678.14 -3.87797 2664.39 Q-6.77147 2650.65 -6.77147 2637.63 Q-6.77147 2602.47 11.4576 2585.11 Q29.6867 2567.75 66.7235 2567.75 Z" fill="#000000" fill-rule="evenodd" fill-opacity="1" /><path clip-path="url(#clip980)" d="M 0 0 M3755.57 59.8376 L3755.57 90.6534 Q3740.82 76.9093 3724.03 70.1096 Q3707.4 63.3098 3688.59 63.3098 Q3651.55 63.3098 3631.87 86.0238 Q3612.2 108.593 3612.2 151.417 Q3612.2 194.096 3631.87 216.81 Q3651.55 239.38 3688.59 239.38 Q3707.4 239.38 3724.03 232.58 Q3740.82 225.78 3755.57 212.036 L3755.57 242.562 Q3740.24 252.979 3723.02 258.187 Q3705.95 263.396 3686.85 263.396 Q3637.81 263.396 3609.59 233.448 Q3581.38 203.355 3581.38 151.417 Q3581.38 99.334 3609.59 69.3862 Q3637.81 39.2938 3686.85 39.2938 Q3706.24 39.2938 3723.31 44.5021 Q3740.53 49.5657 3755.57 59.8376 Z" fill="#000000" fill-rule="evenodd" fill-opacity="1" /><path clip-path="url(#clip980)" d="M 0 0 M3857.13 177.748 Q3824.87 177.748 3812.43 185.126 Q3799.99 192.505 3799.99 210.3 Q3799.99 224.478 3809.25 232.869 Q3818.65 241.116 3834.71 241.116 Q3856.84 241.116 3870.15 225.491 Q3883.61 209.721 3883.61 183.68 L3883.61 177.748 L3857.13 177.748 M3910.23 166.753 L3910.23 259.2 L3883.61 259.2 L3883.61 234.605 Q3874.5 249.362 3860.9 256.451 Q3847.3 263.396 3827.62 263.396 Q3802.74 263.396 3787.98 249.507 Q3773.37 235.473 3773.37 212.036 Q3773.37 184.692 3791.6 170.803 Q3809.97 156.915 3846.28 156.915 L3883.61 156.915 L3883.61 154.311 Q3883.61 135.937 3871.46 125.954 Q3859.45 115.827 3837.6 115.827 Q3823.71 115.827 3810.55 119.154 Q3797.38 122.482 3785.23 129.137 L3785.23 104.542 Q3799.84 98.8999 3813.59 96.1511 Q3827.33 93.2576 3840.35 93.2576 Q3875.51 93.2576 3892.87 111.487 Q3910.23 129.716 3910.23 166.753 Z" fill="#000000" fill-rule="evenodd" fill-opacity="1" /><path clip-path="url(#clip980)" d="M 0 0 M4064.31 128.269 Q4074.29 110.329 4088.18 101.793 Q4102.07 93.2576 4120.88 93.2576 Q4146.19 93.2576 4159.94 111.053 Q4173.68 128.703 4173.68 161.4 L4173.68 259.2 L4146.92 259.2 L4146.92 162.268 Q4146.92 138.975 4138.67 127.69 Q4130.43 116.406 4113.5 116.406 Q4092.81 116.406 4080.8 130.15 Q4068.79 143.894 4068.79 167.621 L4068.79 259.2 L4042.03 259.2 L4042.03 162.268 Q4042.03 138.83 4033.78 127.69 Q4025.54 116.406 4008.32 116.406 Q3987.92 116.406 3975.91 130.294 Q3963.9 144.039 3963.9 167.621 L3963.9 259.2 L3937.14 259.2 L3937.14 97.1638 L3963.9 97.1638 L3963.9 122.337 Q3973.02 107.436 3985.75 100.347 Q3998.48 93.2576 4015.99 93.2576 Q4033.64 93.2576 4045.94 102.227 Q4058.38 111.197 4064.31 128.269 Z" fill="#000000" fill-rule="evenodd" fill-opacity="1" /><path clip-path="url(#clip980)" d="M 0 0 M4317.92 178.327 Q4317.92 148.958 4305.77 132.32 Q4293.76 115.538 4272.64 115.538 Q4251.52 115.538 4239.37 132.32 Q4227.36 148.958 4227.36 178.327 Q4227.36 207.696 4239.37 224.478 Q4251.52 241.116 4272.64 241.116 Q4293.76 241.116 4305.77 224.478 Q4317.92 207.696 4317.92 178.327 M4227.36 121.759 Q4235.75 107.291 4248.48 100.347 Q4261.36 93.2576 4279.15 93.2576 Q4308.67 93.2576 4327.04 116.695 Q4345.56 140.132 4345.56 178.327 Q4345.56 216.521 4327.04 239.958 Q4308.67 263.396 4279.15 263.396 Q4261.36 263.396 4248.48 256.451 Q4235.75 249.362 4227.36 234.895 L4227.36 259.2 L4200.59 259.2 L4200.59 34.0855 L4227.36 34.0855 L4227.36 121.759 Z" fill="#000000" fill-rule="evenodd" fill-opacity="1" /><path clip-path="url(#clip980)" d="M 0 0 M4373.48 97.1638 L4400.1 97.1638 L4400.1 259.2 L4373.48 259.2 L4373.48 97.1638 M4373.48 34.0855 L4400.1 34.0855 L4400.1 67.7948 L4373.48 67.7948 L4373.48 34.0855 Z" fill="#000000" fill-rule="evenodd" fill-opacity="1" /><path clip-path="url(#clip980)" d="M 0 0 M4490.81 115.827 Q4469.4 115.827 4456.96 132.609 Q4444.52 149.247 4444.52 178.327 Q4444.52 207.406 4456.81 224.189 Q4469.25 240.826 4490.81 240.826 Q4512.08 240.826 4524.52 224.044 Q4536.96 207.262 4536.96 178.327 Q4536.96 149.536 4524.52 132.754 Q4512.08 115.827 4490.81 115.827 M4490.81 93.2576 Q4525.53 93.2576 4545.35 115.827 Q4565.17 138.396 4565.17 178.327 Q4565.17 218.112 4545.35 240.826 Q4525.53 263.396 4490.81 263.396 Q4455.94 263.396 4436.12 240.826 Q4416.45 218.112 4416.45 178.327 Q4416.45 138.396 4436.12 115.827 Q4455.94 93.2576 4490.81 93.2576 Z" fill="#000000" fill-rule="evenodd" fill-opacity="1" /><path clip-path="url(#clip980)" d="M 0 0 M4793.91 121.759 L4793.91 34.0855 L4820.53 34.0855 L4820.53 259.2 L4793.91 259.2 L4793.91 234.895 Q4785.51 249.362 4772.64 256.451 Q4759.91 263.396 4741.97 263.396 Q4712.6 263.396 4694.08 239.958 Q4675.71 216.521 4675.71 178.327 Q4675.71 140.132 4694.08 116.695 Q4712.6 93.2576 4741.97 93.2576 Q4759.91 93.2576 4772.64 100.347 Q4785.51 107.291 4793.91 121.759 M4703.19 178.327 Q4703.19 207.696 4715.2 224.478 Q4727.36 241.116 4748.48 241.116 Q4769.6 241.116 4781.75 224.478 Q4793.91 207.696 4793.91 178.327 Q4793.91 148.958 4781.75 132.32 Q4769.6 115.538 4748.48 115.538 Q4727.36 115.538 4715.2 132.32 Q4703.19 148.958 4703.19 178.327 Z" fill="#000000" fill-rule="evenodd" fill-opacity="1" /><path clip-path="url(#clip980)" d="M 0 0 M4987.05 171.527 L4987.05 184.548 L4864.65 184.548 Q4866.39 212.036 4881.14 226.503 Q4896.05 240.826 4922.52 240.826 Q4937.86 240.826 4952.18 237.065 Q4966.65 233.303 4980.83 225.78 L4980.83 250.954 Q4966.5 257.03 4951.46 260.213 Q4936.41 263.396 4920.93 263.396 Q4882.16 263.396 4859.44 240.826 Q4836.87 218.257 4836.87 179.773 Q4836.87 139.988 4858.29 116.695 Q4879.84 93.2576 4916.3 93.2576 Q4949 93.2576 4967.95 114.38 Q4987.05 135.358 4987.05 171.527 M4960.43 163.714 Q4960.14 141.868 4948.13 128.848 Q4936.27 115.827 4916.59 115.827 Q4894.31 115.827 4880.86 128.414 Q4867.55 141 4865.52 163.859 L4960.43 163.714 Z" fill="#000000" fill-rule="evenodd" fill-opacity="1" /><path clip-path="url(#clip980)" d="M 0 0 M5109.15 34.0855 L5135.77 34.0855 L5135.77 259.2 L5109.15 259.2 L5109.15 34.0855 Z" fill="#000000" fill-rule="evenodd" fill-opacity="1" /><path clip-path="url(#clip980)" d="M 0 0 M5237.33 177.748 Q5205.07 177.748 5192.63 185.126 Q5180.19 192.505 5180.19 210.3 Q5180.19 224.478 5189.45 232.869 Q5198.85 241.116 5214.91 241.116 Q5237.05 241.116 5250.36 225.491 Q5263.81 209.721 5263.81 183.68 L5263.81 177.748 L5237.33 177.748 M5290.43 166.753 L5290.43 259.2 L5263.81 259.2 L5263.81 234.605 Q5254.7 249.362 5241.1 256.451 Q5227.5 263.396 5207.82 263.396 Q5182.94 263.396 5168.18 249.507 Q5153.57 235.473 5153.57 212.036 Q5153.57 184.692 5171.8 170.803 Q5190.17 156.915 5226.48 156.915 L5263.81 156.915 L5263.81 154.311 Q5263.81 135.937 5251.66 125.954 Q5239.65 115.827 5217.8 115.827 Q5203.91 115.827 5190.75 119.154 Q5177.58 122.482 5165.43 129.137 L5165.43 104.542 Q5180.04 98.8999 5193.79 96.1511 Q5207.53 93.2576 5220.55 93.2576 Q5255.71 93.2576 5273.07 111.487 Q5290.43 129.716 5290.43 166.753 Z" fill="#000000" fill-rule="evenodd" fill-opacity="1" /><path clip-path="url(#clip980)" d="M 0 0 M5551.14 171.527 L5551.14 184.548 L5428.74 184.548 Q5430.48 212.036 5445.23 226.503 Q5460.13 240.826 5486.61 240.826 Q5501.95 240.826 5516.27 237.065 Q5530.74 233.303 5544.91 225.78 L5544.91 250.954 Q5530.59 257.03 5515.55 260.213 Q5500.5 263.396 5485.02 263.396 Q5446.25 263.396 5423.53 240.826 Q5400.96 218.257 5400.96 179.773 Q5400.96 139.988 5422.37 116.695 Q5443.93 93.2576 5480.39 93.2576 Q5513.09 93.2576 5532.04 114.38 Q5551.14 135.358 5551.14 171.527 M5524.52 163.714 Q5524.23 141.868 5512.22 128.848 Q5500.35 115.827 5480.68 115.827 Q5458.4 115.827 5444.94 128.414 Q5431.63 141 5429.61 163.859 L5524.52 163.714 Z" fill="#000000" fill-rule="evenodd" fill-opacity="1" /><path clip-path="url(#clip980)" d="M 0 0 M5713.75 161.4 L5713.75 259.2 L5687.13 259.2 L5687.13 162.268 Q5687.13 139.264 5678.16 127.835 Q5669.19 116.406 5651.25 116.406 Q5629.69 116.406 5617.25 130.15 Q5604.81 143.894 5604.81 167.621 L5604.81 259.2 L5578.04 259.2 L5578.04 97.1638 L5604.81 97.1638 L5604.81 122.337 Q5614.36 107.725 5627.23 100.491 Q5640.26 93.2576 5657.18 93.2576 Q5685.1 93.2576 5699.43 110.619 Q5713.75 127.835 5713.75 161.4 Z" fill="#000000" fill-rule="evenodd" fill-opacity="1" /><path clip-path="url(#clip980)" d="M 0 0 M5880.27 171.527 L5880.27 184.548 L5757.88 184.548 Q5759.61 212.036 5774.37 226.503 Q5789.27 240.826 5815.75 240.826 Q5831.08 240.826 5845.4 237.065 Q5859.87 233.303 5874.05 225.78 L5874.05 250.954 Q5859.73 257.03 5844.68 260.213 Q5829.64 263.396 5814.15 263.396 Q5775.38 263.396 5752.67 240.826 Q5730.1 218.257 5730.1 179.773 Q5730.1 139.988 5751.51 116.695 Q5773.07 93.2576 5809.53 93.2576 Q5842.22 93.2576 5861.17 114.38 Q5880.27 135.358 5880.27 171.527 M5853.65 163.714 Q5853.36 141.868 5841.35 128.848 Q5829.49 115.827 5809.81 115.827 Q5787.53 115.827 5774.08 128.414 Q5760.77 141 5758.74 163.859 L5853.65 163.714 Z" fill="#000000" fill-rule="evenodd" fill-opacity="1" /><path clip-path="url(#clip980)" d="M 0 0 M6002.09 122.048 Q5997.6 119.444 5992.25 118.286 Q5987.04 116.984 5980.68 116.984 Q5958.11 116.984 5945.95 131.741 Q5933.95 146.353 5933.95 173.842 L5933.95 259.2 L5907.18 259.2 L5907.18 97.1638 L5933.95 97.1638 L5933.95 122.337 Q5942.34 107.58 5955.79 100.491 Q5969.25 93.2576 5988.49 93.2576 Q5991.24 93.2576 5994.56 93.6916 Q5997.89 93.981 6001.94 94.7044 L6002.09 122.048 Z" fill="#000000" fill-rule="evenodd" fill-opacity="1" /><path clip-path="url(#clip980)" d="M 0 0 M6131.43 176.301 Q6131.43 147.366 6119.42 131.452 Q6107.56 115.538 6086 115.538 Q6064.59 115.538 6052.58 131.452 Q6040.72 147.366 6040.72 176.301 Q6040.72 205.091 6052.58 221.006 Q6064.59 236.92 6086 236.92 Q6107.56 236.92 6119.42 221.006 Q6131.43 205.091 6131.43 176.301 M6158.05 239.09 Q6158.05 280.467 6139.67 300.577 Q6121.3 320.832 6083.4 320.832 Q6069.36 320.832 6056.92 318.661 Q6044.48 316.636 6032.76 312.296 L6032.76 286.399 Q6044.48 292.765 6055.91 295.803 Q6067.34 298.841 6079.2 298.841 Q6105.39 298.841 6118.41 285.097 Q6131.43 271.497 6131.43 243.864 L6131.43 230.699 Q6123.18 245.022 6110.3 252.111 Q6097.43 259.2 6079.49 259.2 Q6049.69 259.2 6031.46 236.486 Q6013.23 213.772 6013.23 176.301 Q6013.23 138.686 6031.46 115.972 Q6049.69 93.2576 6079.49 93.2576 Q6097.43 93.2576 6110.3 100.347 Q6123.18 107.436 6131.43 121.759 L6131.43 97.1638 L6158.05 97.1638 L6158.05 239.09 Z" fill="#000000" fill-rule="evenodd" fill-opacity="1" /><path clip-path="url(#clip980)" d="M 0 0 M6219.39 22.2221 L6248.18 22.2221 L6201.02 76.62 L6178.88 76.62 L6219.39 22.2221 M6185.97 97.1638 L6212.59 97.1638 L6212.59 259.2 L6185.97 259.2 L6185.97 97.1638 M6199.28 93.2576 L6199.28 93.2576 Z" fill="#000000" fill-rule="evenodd" fill-opacity="1" /><path clip-path="url(#clip980)" d="M 0 0 M6349.74 177.748 Q6317.48 177.748 6305.04 185.126 Q6292.6 192.505 6292.6 210.3 Q6292.6 224.478 6301.85 232.869 Q6311.26 241.116 6327.32 241.116 Q6349.45 241.116 6362.76 225.491 Q6376.22 209.721 6376.22 183.68 L6376.22 177.748 L6349.74 177.748 M6402.84 166.753 L6402.84 259.2 L6376.22 259.2 L6376.22 234.605 Q6367.1 249.362 6353.5 256.451 Q6339.9 263.396 6320.23 263.396 Q6295.34 263.396 6280.59 249.507 Q6265.98 235.473 6265.98 212.036 Q6265.98 184.692 6284.2 170.803 Q6302.58 156.915 6338.89 156.915 L6376.22 156.915 L6376.22 154.311 Q6376.22 135.937 6364.07 125.954 Q6352.06 115.827 6330.21 115.827 Q6316.32 115.827 6303.16 119.154 Q6289.99 122.482 6277.84 129.137 L6277.84 104.542 Q6292.45 98.8999 6306.19 96.1511 Q6319.94 93.2576 6332.96 93.2576 Q6368.12 93.2576 6385.48 111.487 Q6402.84 129.716 6402.84 166.753 Z" fill="#000000" fill-rule="evenodd" fill-opacity="1" /><path clip-path="url(#clip980)" d="M 0 0 M6663.54 171.527 L6663.54 184.548 L6541.15 184.548 Q6542.88 212.036 6557.64 226.503 Q6572.54 240.826 6599.02 240.826 Q6614.35 240.826 6628.68 237.065 Q6643.14 233.303 6657.32 225.78 L6657.32 250.954 Q6643 257.03 6627.95 260.213 Q6612.91 263.396 6597.43 263.396 Q6558.65 263.396 6535.94 240.826 Q6513.37 218.257 6513.37 179.773 Q6513.37 139.988 6534.78 116.695 Q6556.34 93.2576 6592.8 93.2576 Q6625.49 93.2576 6644.45 114.38 Q6663.54 135.358 6663.54 171.527 M6636.92 163.714 Q6636.63 141.868 6624.62 128.848 Q6612.76 115.827 6593.09 115.827 Q6570.81 115.827 6557.35 128.414 Q6544.04 141 6542.02 163.859 L6636.92 163.714 Z" fill="#000000" fill-rule="evenodd" fill-opacity="1" /><path clip-path="url(#clip980)" d="M 0 0 M6826.16 161.4 L6826.16 259.2 L6799.54 259.2 L6799.54 162.268 Q6799.54 139.264 6790.57 127.835 Q6781.6 116.406 6763.66 116.406 Q6742.1 116.406 6729.66 130.15 Q6717.22 143.894 6717.22 167.621 L6717.22 259.2 L6690.45 259.2 L6690.45 97.1638 L6717.22 97.1638 L6717.22 122.337 Q6726.77 107.725 6739.64 100.491 Q6752.66 93.2576 6769.59 93.2576 Q6797.51 93.2576 6811.83 110.619 Q6826.16 127.835 6826.16 161.4 Z" fill="#000000" fill-rule="evenodd" fill-opacity="1" /><path clip-path="url(#clip980)" d="M 0 0 M7086.86 171.527 L7086.86 184.548 L6964.47 184.548 Q6966.2 212.036 6980.96 226.503 Q6995.86 240.826 7022.34 240.826 Q7037.67 240.826 7052 237.065 Q7066.46 233.303 7080.64 225.78 L7080.64 250.954 Q7066.32 257.03 7051.27 260.213 Q7036.23 263.396 7020.75 263.396 Q6981.97 263.396 6959.26 240.826 Q6936.69 218.257 6936.69 179.773 Q6936.69 139.988 6958.1 116.695 Q6979.66 93.2576 7016.12 93.2576 Q7048.81 93.2576 7067.76 114.38 Q7086.86 135.358 7086.86 171.527 M7060.24 163.714 Q7059.95 141.868 7047.94 128.848 Q7036.08 115.827 7016.41 115.827 Q6994.13 115.827 6980.67 128.414 Q6967.36 141 6965.33 163.859 L7060.24 163.714 Z" fill="#000000" fill-rule="evenodd" fill-opacity="1" /><path clip-path="url(#clip980)" d="M 0 0 M7114.78 34.0855 L7141.4 34.0855 L7141.4 259.2 L7114.78 259.2 L7114.78 34.0855 Z" fill="#000000" fill-rule="evenodd" fill-opacity="1" /><path clip-path="url(#clip980)" d="M 0 0 M7289.84 51.1571 L7289.84 97.1638 L7344.67 97.1638 L7344.67 117.852 L7289.84 117.852 L7289.84 205.815 Q7289.84 225.635 7295.19 231.278 Q7300.69 236.92 7317.33 236.92 L7344.67 236.92 L7344.67 259.2 L7317.33 259.2 Q7286.51 259.2 7274.8 247.771 Q7263.08 236.197 7263.08 205.815 L7263.08 117.852 L7243.55 117.852 L7243.55 97.1638 L7263.08 97.1638 L7263.08 51.1571 L7289.84 51.1571 Z" fill="#000000" fill-rule="evenodd" fill-opacity="1" /><path clip-path="url(#clip980)" d="M 0 0 M7372.6 97.1638 L7399.22 97.1638 L7399.22 259.2 L7372.6 259.2 L7372.6 97.1638 M7372.6 34.0855 L7399.22 34.0855 L7399.22 67.7948 L7372.6 67.7948 L7372.6 34.0855 Z" fill="#000000" fill-rule="evenodd" fill-opacity="1" /><path clip-path="url(#clip980)" d="M 0 0 M7565.74 171.527 L7565.74 184.548 L7443.34 184.548 Q7445.08 212.036 7459.83 226.503 Q7474.74 240.826 7501.21 240.826 Q7516.55 240.826 7530.87 237.065 Q7545.34 233.303 7559.52 225.78 L7559.52 250.954 Q7545.19 257.03 7530.15 260.213 Q7515.1 263.396 7499.62 263.396 Q7460.85 263.396 7438.13 240.826 Q7415.56 218.257 7415.56 179.773 Q7415.56 139.988 7436.98 116.695 Q7458.53 93.2576 7494.99 93.2576 Q7527.69 93.2576 7546.64 114.38 Q7565.74 135.358 7565.74 171.527 M7539.12 163.714 Q7538.83 141.868 7526.82 128.848 Q7514.96 115.827 7495.28 115.827 Q7473 115.827 7459.55 128.414 Q7446.24 141 7444.21 163.859 L7539.12 163.714 Z" fill="#000000" fill-rule="evenodd" fill-opacity="1" /><path clip-path="url(#clip980)" d="M 0 0 M7719.82 128.269 Q7729.8 110.329 7743.69 101.793 Q7757.58 93.2576 7776.38 93.2576 Q7801.7 93.2576 7815.45 111.053 Q7829.19 128.703 7829.19 161.4 L7829.19 259.2 L7802.43 259.2 L7802.43 162.268 Q7802.43 138.975 7794.18 127.69 Q7785.93 116.406 7769.01 116.406 Q7748.32 116.406 7736.31 130.15 Q7724.3 143.894 7724.3 167.621 L7724.3 259.2 L7697.54 259.2 L7697.54 162.268 Q7697.54 138.83 7689.29 127.69 Q7681.04 116.406 7663.83 116.406 Q7643.43 116.406 7631.42 130.294 Q7619.41 144.039 7619.41 167.621 L7619.41 259.2 L7592.65 259.2 L7592.65 97.1638 L7619.41 97.1638 L7619.41 122.337 Q7628.53 107.436 7641.26 100.347 Q7653.99 93.2576 7671.49 93.2576 Q7689.14 93.2576 7701.44 102.227 Q7713.88 111.197 7719.82 128.269 Z" fill="#000000" fill-rule="evenodd" fill-opacity="1" /><path clip-path="url(#clip980)" d="M 0 0 M7882.86 234.895 L7882.86 320.832 L7856.1 320.832 L7856.1 97.1638 L7882.86 97.1638 L7882.86 121.759 Q7891.26 107.291 7903.99 100.347 Q7916.86 93.2576 7934.66 93.2576 Q7964.17 93.2576 7982.55 116.695 Q8001.06 140.132 8001.06 178.327 Q8001.06 216.521 7982.55 239.958 Q7964.17 263.396 7934.66 263.396 Q7916.86 263.396 7903.99 256.451 Q7891.26 249.362 7882.86 234.895 M7973.43 178.327 Q7973.43 148.958 7961.28 132.32 Q7949.27 115.538 7928.15 115.538 Q7907.03 115.538 7894.87 132.32 Q7882.86 148.958 7882.86 178.327 Q7882.86 207.696 7894.87 224.478 Q7907.03 241.116 7928.15 241.116 Q7949.27 241.116 7961.28 224.478 Q7973.43 207.696 7973.43 178.327 Z" fill="#000000" fill-rule="evenodd" fill-opacity="1" /><path clip-path="url(#clip980)" d="M 0 0 M8091.78 115.827 Q8070.36 115.827 8057.92 132.609 Q8045.48 149.247 8045.48 178.327 Q8045.48 207.406 8057.78 224.189 Q8070.22 240.826 8091.78 240.826 Q8113.04 240.826 8125.48 224.044 Q8137.93 207.262 8137.93 178.327 Q8137.93 149.536 8125.48 132.754 Q8113.04 115.827 8091.78 115.827 M8091.78 93.2576 Q8126.5 93.2576 8146.32 115.827 Q8166.14 138.396 8166.14 178.327 Q8166.14 218.112 8146.32 240.826 Q8126.5 263.396 8091.78 263.396 Q8056.91 263.396 8037.09 240.826 Q8017.41 218.112 8017.41 178.327 Q8017.41 138.396 8037.09 115.827 Q8056.91 93.2576 8091.78 93.2576 Z" fill="#000000" fill-rule="evenodd" fill-opacity="1" /><polyline clip-path="url(#clip982)" style="stroke:#009af9; stroke-width:20; stroke-opacity:1; fill:none" points="
  1648.29,7141.42 1648.53,7141.42 1649.93,7141.42 1658.54,7141.42 1693.11,7141.42 1748.15,7141.48 1809.51,7141.54 1881.59,7143.82 1952.98,7142.97 2038.73,7139.3 
  2125.39,7113.28 2208.47,7113.26 2298.47,7087.35 2390.75,7116.49 2484.42,7082.02 2580.67,7092.34 2677.77,7014.02 2774.15,7022.82 2867.53,6968.59 2975.94,7070.35 
  3070.53,7085.85 3174.29,6974.64 3271.27,6956.5 3376.32,6664.39 3471.41,6681.74 3572.62,6589.16 3677.74,6390.29 3771.5,6333.33 3875.56,6151.24 3969.46,6197.2 
  4068.5,6162.6 4171.96,6220.68 4275.32,6102.44 4374.08,6065.05 4473.03,5968.03 4583.61,5377.68 4676.07,5385.62 4778.19,5261.72 4880.67,5291.99 4976.78,5227.32 
  5084.16,5128.72 5179.3,5170.14 5280.92,5112.44 5376.81,5101.38 5481.35,4846.08 5574.29,4860.45 5672.7,4787.12 5781.22,4769.41 5873.91,4765.74 5976.77,4628.43 
  6075.39,4686.34 6176.94,4615.22 6279.6,4677.75 6376.93,4658.44 6480.9,4502.59 6577.1,4422.1 6692.72,3510.43 6783.03,3532.98 6883.94,3471.55 6985.41,3565.82 
  7081.64,3548.85 7184.07,3462.15 7280.79,3460.5 7385.31,3246.76 7483.3,3263.77 7584.95,3142.18 7685.48,3091.44 7781.73,2992.29 7894.55,2754.55 7983.44,2775.51 
  8084.2,2723.22 8182.28,2736.22 8290.56,2406.65 8385.21,2410.16 8483.41,2351.18 8590.19,2013.13 8684.9,1980.1 8790.22,1721.49 8884.95,1757.92 8982.03,1699.75 
  9084.98,1788.53 9180.23,1783.9 9283.27,1681.78 9377.69,1628.1 9491.06,760.009 9580.3,772.571 9682.52,667.59 9783.62,698.155 9881.97,628.311 9986.09,511.201 
  10080.4,550.996 10099.2,550.996 
  "/>
<path clip-path="url(#clip980)" d="
M8739.96 1302.58 L10054.2 1302.58 L10054.2 546.575 L8739.96 546.575  Z
  " fill="#ffffff" fill-rule="evenodd" fill-opacity="1"/>
<polyline clip-path="url(#clip980)" style="stroke:#000000; stroke-width:4; stroke-opacity:1; fill:none" points="
  8739.96,1302.58 10054.2,1302.58 10054.2,546.575 8739.96,546.575 8739.96,1302.58 
  "/>
<polyline clip-path="url(#clip980)" style="stroke:#009af9; stroke-width:25; stroke-opacity:1; fill:none" points="
  8839.49,924.575 9436.69,924.575 
  "/>
<path clip-path="url(#clip980)" d="M 0 0 M9622.74 1047.62 Q9611.46 1076.56 9600.75 1085.38 Q9590.04 1094.21 9572.11 1094.21 L9550.84 1094.21 L9550.84 1071.93 L9566.46 1071.93 Q9577.46 1071.93 9583.53 1066.72 Q9589.61 1061.51 9596.99 1042.12 L9601.76 1029.97 L9536.23 870.539 L9564.44 870.539 L9615.07 997.275 L9665.71 870.539 L9693.92 870.539 L9622.74 1047.62 Z" fill="#000000" fill-rule="evenodd" fill-opacity="1" /><path clip-path="url(#clip980)" d="M 0 0 M9730.67 1007.98 L9778.41 1007.98 L9778.41 843.196 L9726.47 853.612 L9726.47 826.992 L9778.12 816.575 L9807.35 816.575 L9807.35 1007.98 L9855.09 1007.98 L9855.09 1032.58 L9730.67 1032.58 L9730.67 1007.98 Z" fill="#000000" fill-rule="evenodd" fill-opacity="1" /></svg>
