<?xml version="1.0" encoding="utf-8"?>
<svg xmlns="http://www.w3.org/2000/svg" xmlns:xlink="http://www.w3.org/1999/xlink" width="2800" height="2000" viewBox="0 0 11200 8000">
<defs>
  <clipPath id="clip280">
    <rect x="0" y="0" width="11200" height="8000"/>
  </clipPath>
</defs>
<path clip-path="url(#clip280)" d="
M0 8000 L11200 8000 L11200 0 L0 0  Z
  " fill="#ffffff" fill-rule="evenodd" fill-opacity="1"/>
<defs>
  <clipPath id="clip281">
    <rect x="2240" y="0" width="7841" height="7841"/>
  </clipPath>
</defs>
<path clip-path="url(#clip280)" d="
M525.251 7625.58 L11152.8 7625.58 L11152.8 47.2441 L525.251 47.2441  Z
  " fill="#ffffff" fill-rule="evenodd" fill-opacity="1"/>
<defs>
  <clipPath id="clip282">
    <rect x="525" y="47" width="10629" height="7579"/>
  </clipPath>
</defs>
<polyline clip-path="url(#clip282)" style="stroke:#000000; stroke-width:2; stroke-opacity:0.1; fill:none" points="
  604.163,7625.58 604.163,47.2441 
  "/>
<polyline clip-path="url(#clip282)" style="stroke:#000000; stroke-width:2; stroke-opacity:0.1; fill:none" points="
  2350.27,7625.58 2350.27,47.2441 
  "/>
<polyline clip-path="url(#clip282)" style="stroke:#000000; stroke-width:2; stroke-opacity:0.1; fill:none" points="
  4096.38,7625.58 4096.38,47.2441 
  "/>
<polyline clip-path="url(#clip282)" style="stroke:#000000; stroke-width:2; stroke-opacity:0.1; fill:none" points="
  5842.5,7625.58 5842.5,47.2441 
  "/>
<polyline clip-path="url(#clip282)" style="stroke:#000000; stroke-width:2; stroke-opacity:0.1; fill:none" points="
  7588.61,7625.58 7588.61,47.2441 
  "/>
<polyline clip-path="url(#clip282)" style="stroke:#000000; stroke-width:2; stroke-opacity:0.1; fill:none" points="
  9334.72,7625.58 9334.72,47.2441 
  "/>
<polyline clip-path="url(#clip282)" style="stroke:#000000; stroke-width:2; stroke-opacity:0.1; fill:none" points="
  11080.8,7625.58 11080.8,47.2441 
  "/>
<polyline clip-path="url(#clip280)" style="stroke:#000000; stroke-width:4; stroke-opacity:1; fill:none" points="
  525.251,7625.58 11152.8,7625.58 
  "/>
<polyline clip-path="url(#clip280)" style="stroke:#000000; stroke-width:4; stroke-opacity:1; fill:none" points="
  604.163,7625.58 604.163,7534.64 
  "/>
<polyline clip-path="url(#clip280)" style="stroke:#000000; stroke-width:4; stroke-opacity:1; fill:none" points="
  2350.27,7625.58 2350.27,7534.64 
  "/>
<polyline clip-path="url(#clip280)" style="stroke:#000000; stroke-width:4; stroke-opacity:1; fill:none" points="
  4096.38,7625.58 4096.38,7534.64 
  "/>
<polyline clip-path="url(#clip280)" style="stroke:#000000; stroke-width:4; stroke-opacity:1; fill:none" points="
  5842.5,7625.58 5842.5,7534.64 
  "/>
<polyline clip-path="url(#clip280)" style="stroke:#000000; stroke-width:4; stroke-opacity:1; fill:none" points="
  7588.61,7625.58 7588.61,7534.64 
  "/>
<polyline clip-path="url(#clip280)" style="stroke:#000000; stroke-width:4; stroke-opacity:1; fill:none" points="
  9334.72,7625.58 9334.72,7534.64 
  "/>
<polyline clip-path="url(#clip280)" style="stroke:#000000; stroke-width:4; stroke-opacity:1; fill:none" points="
  11080.8,7625.58 11080.8,7534.64 
  "/>
<path clip-path="url(#clip280)" d="M 0 0 M429.033 7869.2 L614.507 7869.2 L614.507 7893.8 L429.033 7893.8 L429.033 7869.2 Z" fill="#000000" fill-rule="evenodd" fill-opacity="1" /><path clip-path="url(#clip280)" d="M 0 0 M734.732 7857.92 Q755.71 7862.4 767.428 7876.58 Q779.292 7890.76 779.292 7911.59 Q779.292 7943.56 757.301 7961.07 Q735.311 7978.57 694.802 7978.57 Q681.202 7978.57 666.735 7975.83 Q652.412 7973.22 637.076 7967.87 L637.076 7939.66 Q649.229 7946.75 663.696 7950.36 Q678.164 7953.98 693.934 7953.98 Q721.422 7953.98 735.745 7943.13 Q750.212 7932.28 750.212 7911.59 Q750.212 7892.49 736.757 7881.79 Q723.447 7870.94 699.576 7870.94 L674.402 7870.94 L674.402 7846.92 L700.733 7846.92 Q722.29 7846.92 733.719 7838.38 Q745.149 7829.7 745.149 7813.5 Q745.149 7796.86 733.285 7788.04 Q721.566 7779.07 699.576 7779.07 Q687.568 7779.07 673.824 7781.67 Q660.08 7784.28 643.587 7789.77 L643.587 7763.73 Q660.224 7759.1 674.692 7756.79 Q689.304 7754.47 702.18 7754.47 Q735.455 7754.47 754.842 7769.66 Q774.228 7784.71 774.228 7810.46 Q774.228 7828.4 763.956 7840.84 Q753.684 7853.14 734.732 7857.92 Z" fill="#000000" fill-rule="evenodd" fill-opacity="1" /><path clip-path="url(#clip280)" d="M 0 0 M2178.11 7869.2 L2363.58 7869.2 L2363.58 7893.8 L2178.11 7893.8 L2178.11 7869.2 Z" fill="#000000" fill-rule="evenodd" fill-opacity="1" /><path clip-path="url(#clip280)" d="M 0 0 M2420.44 7949.78 L2522.44 7949.78 L2522.44 7974.38 L2385.29 7974.38 L2385.29 7949.78 Q2401.92 7932.57 2430.57 7903.63 Q2459.36 7874.55 2466.74 7866.16 Q2480.77 7850.39 2486.27 7839.54 Q2491.91 7828.55 2491.91 7817.99 Q2491.91 7800.77 2479.76 7789.92 Q2467.75 7779.07 2448.36 7779.07 Q2434.62 7779.07 2419.28 7783.84 Q2404.09 7788.62 2386.73 7798.31 L2386.73 7768.8 Q2404.38 7761.71 2419.72 7758.09 Q2435.05 7754.47 2447.78 7754.47 Q2481.35 7754.47 2501.31 7771.26 Q2521.28 7788.04 2521.28 7816.1 Q2521.28 7829.41 2516.22 7841.42 Q2511.3 7853.29 2498.13 7869.49 Q2494.51 7873.69 2475.13 7893.8 Q2455.74 7913.76 2420.44 7949.78 Z" fill="#000000" fill-rule="evenodd" fill-opacity="1" /><path clip-path="url(#clip280)" d="M 0 0 M3923.06 7869.2 L4108.54 7869.2 L4108.54 7893.8 L3923.06 7893.8 L3923.06 7869.2 Z" fill="#000000" fill-rule="evenodd" fill-opacity="1" /><path clip-path="url(#clip280)" d="M 0 0 M4145.28 7949.78 L4193.03 7949.78 L4193.03 7785 L4141.09 7795.42 L4141.09 7768.8 L4192.74 7758.38 L4221.96 7758.38 L4221.96 7949.78 L4269.71 7949.78 L4269.71 7974.38 L4145.28 7974.38 L4145.28 7949.78 Z" fill="#000000" fill-rule="evenodd" fill-opacity="1" /><path clip-path="url(#clip280)" d="M 0 0 M5842.5 7777.62 Q5819.93 7777.62 5808.5 7799.9 Q5797.21 7822.04 5797.21 7866.6 Q5797.21 7911.01 5808.5 7933.29 Q5819.93 7955.43 5842.5 7955.43 Q5865.21 7955.43 5876.49 7933.29 Q5887.92 7911.01 5887.92 7866.6 Q5887.92 7822.04 5876.49 7799.9 Q5865.21 7777.62 5842.5 7777.62 M5842.5 7754.47 Q5878.81 7754.47 5897.91 7783.26 Q5917.15 7811.91 5917.15 7866.6 Q5917.15 7921.14 5897.91 7949.93 Q5878.81 7978.57 5842.5 7978.57 Q5806.18 7978.57 5786.94 7949.93 Q5767.84 7921.14 5767.84 7866.6 Q5767.84 7811.91 5786.94 7783.26 Q5806.18 7754.47 5842.5 7754.47 Z" fill="#000000" fill-rule="evenodd" fill-opacity="1" /><path clip-path="url(#clip280)" d="M 0 0 M7528.49 7949.78 L7576.24 7949.78 L7576.24 7785 L7524.3 7795.42 L7524.3 7768.8 L7575.95 7758.38 L7605.17 7758.38 L7605.17 7949.78 L7652.91 7949.78 L7652.91 7974.38 L7528.49 7974.38 L7528.49 7949.78 Z" fill="#000000" fill-rule="evenodd" fill-opacity="1" /><path clip-path="url(#clip280)" d="M 0 0 M9301.3 7949.78 L9403.29 7949.78 L9403.29 7974.38 L9266.14 7974.38 L9266.14 7949.78 Q9282.78 7932.57 9311.43 7903.63 Q9340.22 7874.55 9347.59 7866.16 Q9361.63 7850.39 9367.13 7839.54 Q9372.77 7828.55 9372.77 7817.99 Q9372.77 7800.77 9360.61 7789.92 Q9348.61 7779.07 9329.22 7779.07 Q9315.48 7779.07 9300.14 7783.84 Q9284.95 7788.62 9267.59 7798.31 L9267.59 7768.8 Q9285.24 7761.71 9300.57 7758.09 Q9315.91 7754.47 9328.64 7754.47 Q9362.21 7754.47 9382.17 7771.26 Q9402.14 7788.04 9402.14 7816.1 Q9402.14 7829.41 9397.07 7841.42 Q9392.15 7853.29 9378.99 7869.49 Q9375.37 7873.69 9355.99 7893.8 Q9336.6 7913.76 9301.3 7949.78 Z" fill="#000000" fill-rule="evenodd" fill-opacity="1" /><path clip-path="url(#clip280)" d="M 0 0 M11107.4 7857.92 Q11128.4 7862.4 11140.1 7876.58 Q11151.9 7890.76 11151.9 7911.59 Q11151.9 7943.56 11129.9 7961.07 Q11108 7978.57 11067.4 7978.57 Q11053.8 7978.57 11039.4 7975.83 Q11025.1 7973.22 11009.7 7967.87 L11009.7 7939.66 Q11021.9 7946.75 11036.3 7950.36 Q11050.8 7953.98 11066.6 7953.98 Q11094.1 7953.98 11108.4 7943.13 Q11122.9 7932.28 11122.9 7911.59 Q11122.9 7892.49 11109.4 7881.79 Q11096.1 7870.94 11072.2 7870.94 L11047 7870.94 L11047 7846.92 L11073.4 7846.92 Q11094.9 7846.92 11106.4 7838.38 Q11117.8 7829.7 11117.8 7813.5 Q11117.8 7796.86 11105.9 7788.04 Q11094.2 7779.07 11072.2 7779.07 Q11060.2 7779.07 11046.5 7781.67 Q11032.7 7784.28 11016.2 7789.77 L11016.2 7763.73 Q11032.9 7759.1 11047.3 7756.79 Q11061.9 7754.47 11074.8 7754.47 Q11108.1 7754.47 11127.5 7769.66 Q11146.9 7784.71 11146.9 7810.46 Q11146.9 7828.4 11136.6 7840.84 Q11126.3 7853.14 11107.4 7857.92 Z" fill="#000000" fill-rule="evenodd" fill-opacity="1" /><polyline clip-path="url(#clip282)" style="stroke:#000000; stroke-width:2; stroke-opacity:0.1; fill:none" points="
  525.251,7411.46 11152.8,7411.46 
  "/>
<polyline clip-path="url(#clip282)" style="stroke:#000000; stroke-width:2; stroke-opacity:0.1; fill:none" points="
  525.251,6033.89 11152.8,6033.89 
  "/>
<polyline clip-path="url(#clip282)" style="stroke:#000000; stroke-width:2; stroke-opacity:0.1; fill:none" points="
  525.251,4656.32 11152.8,4656.32 
  "/>
<polyline clip-path="url(#clip282)" style="stroke:#000000; stroke-width:2; stroke-opacity:0.1; fill:none" points="
  525.251,3278.75 11152.8,3278.75 
  "/>
<polyline clip-path="url(#clip282)" style="stroke:#000000; stroke-width:2; stroke-opacity:0.1; fill:none" points="
  525.251,1901.18 11152.8,1901.18 
  "/>
<polyline clip-path="url(#clip282)" style="stroke:#000000; stroke-width:2; stroke-opacity:0.1; fill:none" points="
  525.251,523.604 11152.8,523.604 
  "/>
<polyline clip-path="url(#clip280)" style="stroke:#000000; stroke-width:4; stroke-opacity:1; fill:none" points="
  525.251,7625.58 525.251,47.2441 
  "/>
<polyline clip-path="url(#clip280)" style="stroke:#000000; stroke-width:4; stroke-opacity:1; fill:none" points="
  525.251,7411.46 652.781,7411.46 
  "/>
<polyline clip-path="url(#clip280)" style="stroke:#000000; stroke-width:4; stroke-opacity:1; fill:none" points="
  525.251,6033.89 652.781,6033.89 
  "/>
<polyline clip-path="url(#clip280)" style="stroke:#000000; stroke-width:4; stroke-opacity:1; fill:none" points="
  525.251,4656.32 652.781,4656.32 
  "/>
<polyline clip-path="url(#clip280)" style="stroke:#000000; stroke-width:4; stroke-opacity:1; fill:none" points="
  525.251,3278.75 652.781,3278.75 
  "/>
<polyline clip-path="url(#clip280)" style="stroke:#000000; stroke-width:4; stroke-opacity:1; fill:none" points="
  525.251,1901.18 652.781,1901.18 
  "/>
<polyline clip-path="url(#clip280)" style="stroke:#000000; stroke-width:4; stroke-opacity:1; fill:none" points="
  525.251,523.604 652.781,523.604 
  "/>
<path clip-path="url(#clip280)" d="M 0 0 M6.99213 7414.28 L192.466 7414.28 L192.466 7438.88 L6.99213 7438.88 L6.99213 7414.28 Z" fill="#000000" fill-rule="evenodd" fill-opacity="1" /><path clip-path="url(#clip280)" d="M 0 0 M312.691 7403 Q333.669 7407.48 345.387 7421.66 Q357.251 7435.84 357.251 7456.67 Q357.251 7488.65 335.26 7506.15 Q313.269 7523.66 272.76 7523.66 Q259.161 7523.66 244.693 7520.91 Q230.371 7518.31 215.035 7512.95 L215.035 7484.74 Q227.188 7491.83 241.655 7495.45 Q256.123 7499.06 271.892 7499.06 Q299.381 7499.06 313.703 7488.21 Q328.171 7477.36 328.171 7456.67 Q328.171 7437.58 314.716 7426.87 Q301.406 7416.02 277.535 7416.02 L252.361 7416.02 L252.361 7392 L278.692 7392 Q300.249 7392 311.678 7383.47 Q323.107 7374.79 323.107 7358.58 Q323.107 7341.95 311.244 7333.12 Q299.525 7324.15 277.535 7324.15 Q265.527 7324.15 251.782 7326.76 Q238.038 7329.36 221.545 7334.86 L221.545 7308.82 Q238.183 7304.19 252.651 7301.87 Q267.263 7299.56 280.139 7299.56 Q313.414 7299.56 332.801 7314.75 Q352.187 7329.79 352.187 7355.55 Q352.187 7373.49 341.915 7385.93 Q331.643 7398.23 312.691 7403 Z" fill="#000000" fill-rule="evenodd" fill-opacity="1" /><path clip-path="url(#clip280)" d="M 0 0 M12.9238 6036.71 L198.397 6036.71 L198.397 6061.31 L12.9238 6061.31 L12.9238 6036.71 Z" fill="#000000" fill-rule="evenodd" fill-opacity="1" /><path clip-path="url(#clip280)" d="M 0 0 M255.255 6117.3 L357.251 6117.3 L357.251 6141.89 L220.099 6141.89 L220.099 6117.3 Q236.736 6100.08 265.382 6071.15 Q294.172 6042.07 301.551 6033.67 Q315.584 6017.9 321.082 6007.05 Q326.724 5996.06 326.724 5985.5 Q326.724 5968.28 314.571 5957.43 Q302.563 5946.58 283.177 5946.58 Q269.433 5946.58 254.097 5951.35 Q238.906 5956.13 221.545 5965.82 L221.545 5936.31 Q239.196 5929.22 254.531 5925.6 Q269.867 5921.99 282.598 5921.99 Q316.163 5921.99 336.128 5938.77 Q356.093 5955.55 356.093 5983.62 Q356.093 5996.93 351.03 6008.94 Q346.111 6020.8 332.945 6037 Q329.328 6041.2 309.942 6061.31 Q290.555 6081.27 255.255 6117.3 Z" fill="#000000" fill-rule="evenodd" fill-opacity="1" /><path clip-path="url(#clip280)" d="M 0 0 M10.609 4659.14 L196.083 4659.14 L196.083 4683.74 L10.609 4683.74 L10.609 4659.14 Z" fill="#000000" fill-rule="evenodd" fill-opacity="1" /><path clip-path="url(#clip280)" d="M 0 0 M232.83 4739.72 L280.573 4739.72 L280.573 4574.94 L228.634 4585.36 L228.634 4558.74 L280.283 4548.32 L309.508 4548.32 L309.508 4739.72 L357.251 4739.72 L357.251 4764.32 L232.83 4764.32 L232.83 4739.72 Z" fill="#000000" fill-rule="evenodd" fill-opacity="1" /><path clip-path="url(#clip280)" d="M 0 0 M282.598 3189.99 Q260.029 3189.99 248.6 3212.27 Q237.315 3234.4 237.315 3278.96 Q237.315 3323.38 248.6 3345.66 Q260.029 3367.8 282.598 3367.8 Q305.312 3367.8 316.597 3345.66 Q328.026 3323.38 328.026 3278.96 Q328.026 3234.4 316.597 3212.27 Q305.312 3189.99 282.598 3189.99 M282.598 3166.84 Q318.912 3166.84 338.009 3195.63 Q357.251 3224.28 357.251 3278.96 Q357.251 3333.51 338.009 3362.3 Q318.912 3390.94 282.598 3390.94 Q246.285 3390.94 227.043 3362.3 Q207.946 3333.51 207.946 3278.96 Q207.946 3224.28 227.043 3195.63 Q246.285 3166.84 282.598 3166.84 Z" fill="#000000" fill-rule="evenodd" fill-opacity="1" /><path clip-path="url(#clip280)" d="M 0 0 M232.83 1984.58 L280.573 1984.58 L280.573 1819.8 L228.634 1830.21 L228.634 1803.59 L280.283 1793.18 L309.508 1793.18 L309.508 1984.58 L357.251 1984.58 L357.251 2009.18 L232.83 2009.18 L232.83 1984.58 Z" fill="#000000" fill-rule="evenodd" fill-opacity="1" /><path clip-path="url(#clip280)" d="M 0 0 M255.255 607.009 L357.251 607.009 L357.251 631.604 L220.099 631.604 L220.099 607.009 Q236.736 589.793 265.382 560.858 Q294.172 531.778 301.551 523.387 Q315.584 507.617 321.082 496.767 Q326.724 485.772 326.724 475.21 Q326.724 457.994 314.571 447.143 Q302.563 436.293 283.177 436.293 Q269.433 436.293 254.097 441.067 Q238.906 445.841 221.545 455.534 L221.545 426.021 Q239.196 418.932 254.531 415.315 Q269.867 411.698 282.598 411.698 Q316.163 411.698 336.128 428.48 Q356.093 445.262 356.093 473.329 Q356.093 486.64 351.03 498.648 Q346.111 510.511 332.945 526.715 Q329.328 530.91 309.942 551.02 Q290.555 570.985 255.255 607.009 Z" fill="#000000" fill-rule="evenodd" fill-opacity="1" /><polyline clip-path="url(#clip282)" style="stroke:#009af9; stroke-width:20; stroke-opacity:1; fill:none" points="
  5302,1738.58 5308.42,1734.21 5327.67,1721.2 5359.73,1699.81 5404.51,1670.43 5461.93,1633.65 5531.84,1590.19 5614.05,1540.88 5708.29,1486.7 5814.25,1428.71 
  5931.5,1368.04 6059.56,1305.9 6197.82,1243.51 6345.6,1182.1 6502.12,1122.89 6666.5,1067.07 6837.81,1015.75 7015,969.965 7196.98,930.662 7382.64,898.663 
  7570.8,874.671 7760.29,859.251 7949.94,852.835 8138.61,855.713 8325.17,868.039 8508.6,889.836 8687.9,921.004 8862.17,961.329 9030.6,1010.5 9192.48,1068.11 
  9347.19,1133.7 9494.22,1206.74 9633.17,1286.66 9763.71,1372.87 9885.63,1464.76 9998.76,1561.72 10103.1,1663.15 10198.5,1768.48 10285.2,1877.15 10363.1,1988.65 
  10432.5,2102.47 10493.4,2218.17 10546.1,2335.33 10590.7,2453.59 10627.5,2572.58 10656.5,2692.01 10678.1,2811.59 10692.4,2931.07 10699.5,3050.23 10699.7,3168.85 
  10693.1,3286.76 10680,3403.79 10660.4,3519.79 10634.7,3634.61 10602.9,3748.15 10565.2,3860.3 10521.9,3970.96 10473.1,4080.06 10419,4187.54 10359.9,4293.35 
  10295.9,4397.47 10227.3,4499.88 10154.1,4600.6 10076.7,4699.63 9995.1,4797.04 9909.58,4892.86 9820.25,4987.18 9727.22,5080.07 9630.59,5171.64 9530.42,5261.98 
  9426.74,5351.21 9319.54,5439.43 9208.77,5526.75 9094.35,5613.27 8976.16,5699.06 8854.02,5784.19 8727.72,5868.7 8597.03,5952.58 8461.67,6035.81 8321.34,6118.31 
  8175.7,6199.94 8024.41,6280.54 7867.14,6359.87 7703.53,6437.62 7533.26,6513.44 7356.03,6586.9 7171.56,6657.5 6979.65,6724.69 6780.14,6787.86 6572.96,6846.32 
  6358.12,6899.35 6135.76,6946.18 5906.08,6986 5669.46,7017.97 5426.37,7041.24 5177.46,7054.95 4923.49,7058.27 4665.4,7050.36 4404.27,7030.45 4141.34,6997.8 
  3878.01,6951.77 3615.8,6891.78 3356.38,6817.36 3101.57,6728.17 2853.27,6623.99 2613.5,6504.76 2384.35,6370.56 2167.97,6221.67 1966.56,6058.51 1782.3,5881.73 
  1617.37,5692.14 1473.9,5490.76 1353.95,5278.81 1259.45,5057.68 1192.19,4828.96 1153.81,4594.41 1145.71,4355.96 1169.06,4115.66 1224.77,3875.72 1313.42,3638.44 
  1435.29,3406.17 1590.29,3181.32 1777.98,2966.32 1997.48,2763.57 2247.5,2575.41 2526.33,2404.07 2831.83,2251.63 3161.44,2119.96 3512.18,2010.69 3880.65,1925.15 
  4263.1,1864.34 4655.39,1828.85 5053.12,1818.82 5451.65,1833.93 5846.19,1873.34 6231.93,1935.65 6604.14,2018.93 6958.31,2120.74 7290.28,2238.1 7596.36,2367.62 
  7873.46,2505.56 8119.1,2647.85 8331.61,2790.32 8510.3,2928.88 8654.97,3059.48 8766.01,3178.25 8844.33,3281.68 8891.19,3366.72 8908.01,3430.77 8896.16,3471.79 
  8856.85,3488.21 8790.99,3478.94 8699.24,3443.41 8582.01,3381.5 8439.61,3293.62 8272.33,3180.72 8080.66,3044.3 7865.34,2886.45 7627.52,2709.82 7368.76,2517.57 
  7090.68,2312.99 6795.38,2099.83 6485.26,1882.07 6162.98,1663.83 5831.44,1449.26 5493.71,1242.52 5153.05,1047.61 4812.81,868.306 4476.4,708.016 4147.2,569.714 
  3828.56,455.829 3523.69,368.174 3235.63,307.878 2967.15,275.341 2720.71,270.195 2498.36,291.278 2301.55,336.625 2130.95,403.538 1986.48,488.698 1867.31,588.271 
  1771.79,698.059 1697.51,813.679 1641.42,930.744 1599.96,1045.06 1569.31,1152.79 1545.61,1250.64 1525.24,1335.94 1505.06,1406.73 1482.61,1461.82 1456.32,1500.79 
  1425.57,1523.94 1390.69,1532.25 1352.96,1527.27 1314.43,1511.03 1277.78,1485.89 1246.08,1454.46 1222.63,1419.41 1210.7,1383.41 1213.38,1348.96 1233.4,1318.32 
  1273.06,1293.41 1334.12,1275.75 1417.81,1266.45 1524.78,1266.16 1655.16,1275.1 1808.55,1293.09 1984.13,1319.58 2180.61,1353.72 2396.33,1394.41 2629.19,1440.34 
  2876.88,1490.09 3136.87,1542.13 3406.33,1594.93 3682.28,1647 3961.54,1696.93 4240.83,1743.4 4516.78,1785.28 4785.96,1821.6 5044.97,1851.58 5290.46,1874.7 
  5519.22,1890.63 5728.21,1899.34 5914.64,1901 6075.99,1896.09 6210.1,1885.32 6315.2,1869.69 6389.96,1850.43 6433.6,1829.04 6445.68,1807.25 6426.19,1786.98 
  6375.77,1770.33 6295.67,1759.48 6187.63,1756.67 6053.89,1764.09 5897.13,1783.85 5720.43,1817.87 5527.25,1867.85 5321.35,1935.15 5106.72,2020.81 4887.53,2125.44 
  4667.98,2249.23 4452.23,2391.96 4244.29,2552.99 4047.93,2731.32 3866.57,2925.64 3703.24,3134.41 3560.54,3355.97 3440.65,3588.6 3345.62,3830.15 3277.06,4078.3 
  3236.14,4330.79 3223.61,4585.32 3239.88,4839.61 3285.01,5091.39 3358.74,5338.44 3460.49,5578.62 3589.43,5809.86 3744.44,6030.19 3924.17,6237.76 4127.06,6430.81 
  4351.34,6607.74 4595.06,6767.05 4856.08,6907.43 5132.16,7027.69 5420.89,7126.8 5719.76,7203.9 6026.15,7258.27 6337.35,7289.38 6650.59,7296.88 6963.06,7280.57 
  7271.88,7240.46 7574.18,7176.74 7867.08,7089.76 8147.71,6980.09 8413.23,6848.46 8660.87,6695.81 8887.94,6523.25 9091.81,6332.09 9269.99,6123.81 9420.14,5900.07 
  9540.05,5662.7 9627.71,5413.71 9681.32,5155.25 9699.31,4889.63 9680.37,4619.28 9623.5,4346.82 9528.01,4074.89 9393.47,3806.21 9219.88,3543.59 9007.68,3289.95 
  8757.74,3048.22 8471.44,2821.28 8150.65,2611.99 7797.75,2423.09 7415.7,2257.16 7008.03,2116.61 6578.87,2003.57 6133.02,1919.84 5675.85,1866.79 5213.35,1845.28 
  4752.01,1855.55 4298.67,1897.12 3860.35,1968.67 3443.98,2068.04 3056.11,2192.15 2702.58,2337.08 2388.2,2498.11 2116.49,2669.88 1889.51,2846.57 1707.72,3022.12 
  1569.76,3190.76 1473.11,3347.07 1414.57,3486.21 1390.73,3604.13 1398.63,3697.6 1436.28,3764.17 1502.99,3802.04 1599.31,3809.99 1726.8,3787.33 1887.48,3733.9 
  2083.29,3650.17 2315.51,3537.27 2584.55,3396.86 2889.7,3231.23 3229.04,3043.22 3599.59,2836.24 3997.44,2614.15 4418.02,2381.19 4856.27,2141.95 5306.92,1901.22 
  5764.6,1663.97 6223.95,1435.23 6679.68,1220.05 7126.57,1023.4 7559.46,850.06 7973.27,704.533 8363.09,590.812 8724.06,512.326 9051.45,471.75 9340.76,470.836 
  9587.87,510.255 9789.21,589.446 9942.05,706.51 10044.7,858.135 10097,1039.6 10100.4,1244.89 10058.4,1466.85 9976.71,1697.53 9863.03,1928.53 9727.1,2151.37 
  9580.02,2358.2 9433.71,2541.98 9300.16,2696.7 9190.47,2817.73 9113.84,2901.93 9076.87,2947.55 9083.02,2954.12 9132.43,2922.31 9221.95,2853.81 9345.39,2751.41 
  9494.09,2618.98 9657.55,2461.5 9824.39,2284.94 9983.17,2096.03 10123.3,1901.79 10235.4,1709.31 10311.9,1525.39 10347,1356.19 10336.8,1206.99 10279.1,1082 
  10173.4,984.255 10020.3,915.625 9821.53,876.821 9579.57,867.515 9297.45,886.479 8978.65,931.744 8627.06,1000.75 8246.84,1090.5 7842.3,1197.63 7417.93,1318.6 
  6978.49,1449.8 6528.93,1587.62 6074.42,1728.52 5620.3,1869.12 5172.05,2006.23 4735.23,2136.85 4315.35,2258.26 3917.74,2367.96 3547.37,2463.75 3208.63,2543.7 
  2905.21,2606.17 2639.94,2649.82 2414.84,2673.64 2230.81,2677.06 2088.28,2659.87 1987.29,2622.33 1927.65,2565.31 1909.22,2490.34 1932.11,2399.71 1996.68,2296.47 
  2103.46,2184.39 2252.82,2067.91 2444.66,1951.95 2678,1841.75 2950.73,1742.53 3259.43,1659.25 3599.58,1596.33 3965.98,1557.47 4352.58,1545.55 4752.86,1562.58 
  5160.15,1609.64 5567.84,1687.03 5969.63,1794.26 6359.64,1930.21 6732.53,2093.23 7083.56,2281.2 7408.66,2491.69 7704.4,2722.02 7968.04,2969.4 8197.35,3230.86 
  8390.71,3503.41 8547.01,3784.06 8665.66,4069.87 8746.48,4357.94 8789.7,4645.46 8795.93,4929.75 8766.08,5208.22 8701.4,5478.42 8603.36,5738.04 8473.72,5984.92 
  8314.41,6217.05 8127.59,6432.59 7915.56,6629.85 7680.81,6807.32 7425.93,6963.66 7153.64,7097.69 6866.76,7208.42 6568.19,7295.03 6260.89,7356.89 5947.89,7393.55 
  5632.23,7404.75 5316.98,7390.4 5005.22,7350.61 4700.01,7285.65 4404.38,7196.02 4121.32,7082.35 3853.76,6945.51 3604.56,6786.5 3376.46,6606.54 3172.11,6407 
  2994.04,6189.43 2844.6,5955.55 2726,5707.28 2640.24,5446.64 2589.1,5175.85 2574.16,4897.27 2596.69,4613.38 2657.7,4326.81 2757.86,4040.31 2897.49,3756.74 
  3076.51,3479.03 3294.41,3210.21 3550.2,2953.32 3842.38,2711.43 4168.85,2487.58 4526.95,2284.73 4913.32,2105.71 5323.94,1953.16 5754.05,1829.4 6198.24,1736.37 
  6650.39,1675.52 7103.82,1647.66 7551.4,1652.86 7985.73,1690.31 8399.41,1758.25 8785.43,1853.88 9137.43,1973.4 9450.21,2112.03 9719.99,2264.22 9944.69,2423.89 
  10124,2584.74 10259.1,2740.64 10352.2,2885.87 10406.2,3015.46 10423.6,3125.32 10406.4,3212.43 10355.4,3274.73 10269.9,3310.71 10148.2,3319.65 9988.42,3301.49 
  9788.47,3256.65 9547.11,3186.04 9264.15,3091.01 8940.78,2973.39 8579.53,2835.39 8184.18,2679.6 7759.45,2508.95 7310.76,2326.68 6843.94,2136.31 6365.06,1941.65 
  5880.14,1746.71 5395.14,1555.72 4915.79,1373.03 4447.66,1203.08 3996.09,1050.33 3566.27,919.144 3163.2,813.688 2791.8,737.786 2456.8,694.766 2162.81,687.289 
  1914.11,717.165 1714.61,785.174 1567.54,890.883 1475.24,1032.49 1438.78,1206.79 1457.61,1409.05 1529.22,1633.15 1648.76,1871.75 1808.91,2116.63 1999.92,2359.15 
  2209.87,2590.65 2425.21,2802.99 2631.53,2988.91 2814.55,3142.35 2961.21,3258.59 3060.86,3334.29 3106.42,3367.62 3095.3,3358.26 3028.03,3306.04 2909.41,3211.97 
  2748.15,3078.39 2555.88,2908.94 2346.21,2708.71 2133.62,2484.2 1932.37,2243.14 1755.56,1994.09 1614.38,1745.98 1517.63,1507.56 1471.59,1286.96 1480.04,1091.31 
  1544.61,926.395 1665.03,796.557 1839.54,704.624 2065.27,651.968 2338.54,638.623 2655.13,663.436 3010.48,724.253 3399.83,818.102 3818.28,941.379 4260.78,1090.01 
  4722.18,1259.63 5197.21,1445.66 5680.35,1643.49 6166,1848.52 6648.31,2056.22 7121.26,2262.24 7578.79,2462.39 8014.97,2652.76 8424.2,2829.71 8801.43,2989.93 
  9142.49,3130.45 9444.3,3248.68 9705.13,3342.44 9924.66,3410.01 10103.9,3450.14 10244.7,3462.13 10349.8,3445.87 10421.2,3401.71 10460.3,3330.53 10467.1,3233.99 
  10440.2,3114.6 10377.1,2975.74 10274.7,2821.72 10129.7,2657.72 9939.67,2489.64 9703.64,2323.79 9422.21,2166.52 9097.82,2023.9 8734.56,1901.35 8338.03,1803.45 
  7914.8,1733.87 7472.03,1695.21 7017.17,1689.09 6557.64,1716.16 6100.52,1776.23 5652.39,1868.41 5219.21,1991.21 4806.28,2142.67 4418.24,2320.43 4059.04,2521.86 
  3731.98,2744.1 3439.65,2984.19 3183.94,3239.17 2966.29,3506.04 2787.68,3781.71 2648.59,4063.19 2549.06,4347.56 2488.73,4631.97 2466.91,4913.69 2482.58,5190.11 
  2534.42,5458.75 2620.87,5717.25 2740.11,5963.42 2890.14,6195.23 3068.74,6410.78 3273.54,6608.36 3502.02,6786.42 3751.53,6943.61 4019.3,7078.73 4302.5,7190.75 
  4598.2,7278.87 4903.41,7342.43 5215.12,7380.97 5530.29,7394.22 5845.85,7382.09 6158.77,7344.67 6466.01,7282.23 6764.61,7195.26 7051.63,7084.37 7324.21,6950.4 
  7579.58,6794.35 7815.07,6617.39 8028.14,6420.87 8216.37,6206.29 8377.5,5975.34 8509.46,5729.86 8610.38,5471.84 8678.57,5203.44 8712.64,4926.93 8711.46,4644.81 
  8674.19,4359.58 8600.28,4073.85 8489.61,3790.38 8342.44,3512.05 8159.51,3241.76 7942.04,2982.43 7691.74,2736.95 7410.89,2508.12 7102.31,2298.63 6769.43,2110.97 
  6416.32,1947.39 6047.61,1809.79 5668.56,1699.64 5284.89,1617.85 4902.69,1564.72 4528.25,1539.77 4167.87,1541.77 3827.57,1568.66 3512.93,1617.61 3228.84,1685.06 
  2979.39,1766.92 2767.84,1858.66 2596.37,1955.62 2466.33,2053.16 2378.47,2146.95 2333.07,2233.08 2330.1,2308.28 2369.4,2369.92 2450.78,2416.07 2574.03,2445.37 
  2738.76,2457.05 2944.23,2450.81 3189.13,2426.8 3471.34,2385.59 3787.79,2328.15 4135.03,2255.68 4509,2169.68 4905.08,2071.91 5318.29,1964.45 5743.45,1849.61 
  6175.32,1729.96 6608.68,1608.28 7038.43,1487.57 7459.63,1370.96 7867.55,1261.68 8257.65,1163.01 8625.61,1078.19 8967.34,1010.3 9279,962.194 9557.06,936.337 
  9798.3,934.701 9999.95,958.617 10159.8,1008.65 10276.4,1084.46 10349.1,1184.77 10378.5,1307.22 10366.6,1448.44 10316.5,1604.04 10233.3,1768.79 10123.6,1936.81 
  9995.23,2101.81 9857.4,2257.46 9719.82,2397.63 9592.35,2516.57 9483.94,2609.55 9402.3,2672.53 9353.16,2702.31 9339.62,2696.85 9361.82,2655.3 9416.9,2578.07 
  9499.28,2466.81 9601.19,2324.41 9713.25,2155.01 9825.18,1963.9 9926.54,1757.42 10007.3,1542.85 10058.7,1328.27 10073.5,1122.22 10046.7,931.903 9975.03,764.027 
  9856.89,624.457 9692.39,517.869 9482.99,447.646 9231.22,415.844 8940.41,423.229 8614.45,469.368 8257.64,552.746 7874.51,670.919 7469.75,820.662 7048.16,998.121 
  6614.62,1198.94 6174.02,1418.44 5731.35,1651.66 5291.64,1893.55 4859.93,2139 4441.19,2382.98 4040.22,2620.62 3661.55,2847.27 3309.22,3058.61 2986.66,3250.71 
  2696.45,3420.12 2440.18,3563.97 2218.44,3679.98 2030.84,3766.54 1876.28,3822.64 1753.25,3847.9 1660.27,3842.53 1596.42,3807.23 1561.61,3743.28 1556.8,3652.56 
  1583.95,3537.59 1645.81,3401.59 1745.5,3248.47 1885.89,3082.84 2069.18,2909.87 2296.31,2735.14 2566.67,2564.39 2878.3,2403.18 3227.84,2256.69 3610.69,2129.55 
  4021.29,2025.67 4453.43,1948.15 4900.57,1899.26 5356.06,1880.47 5813.38,1892.48 6266.27,1935.28 6708.93,2008.25 7136.05,2110.27 7542.88,2239.74 7925.23,2394.73 
  8279.49,2572.99 8602.64,2772.07 8892.19,2989.33 9146.21,3222.04 9363.25,3467.38 9542.35,3722.52 9682.99,3984.62 9785.06,4250.87 9848.83,4518.51 9874.91,4784.9 
  9864.26,5047.45 9818.11,5303.74 9737.96,5551.45 9625.57,5788.41 9482.88,6012.63 9312.04,6222.26 9115.35,6415.65 8895.25,6591.31 8654.3,6747.94 8395.15,6884.45 
  8120.5,6999.91 7833.13,7093.6 7535.82,7164.98 7231.36,7213.72 6922.53,7239.64 6612.09,7242.77 6302.74,7223.31 5997.1,7181.65 5697.73,7118.32 5407.09,7034.04 
  5127.51,6929.68 4861.19,6806.24 4610.19,6664.88 4376.43,6506.9 4161.63,6333.72 3967.33,6146.88 3794.86,5948.04 3645.32,5738.93 3519.59,5521.37 3418.29,5297.27 
  3341.79,5068.57 3290.15,4837.26 3263.15,4605.34 3260.29,4374.83 3280.72,4147.7 3323.29,3925.88 3386.52,3711.21 3468.63,3505.43 3567.53,3310.13 3680.83,3126.7 
  3805.93,2956.37 3939.96,2800.08 4079.91,2658.57 4222.61,2532.26 4364.84,2421.31 4503.37,2325.58 4635.04,2244.64 4756.81,2177.78 4865.82,2124.06 4959.5,2082.3 
  5035.58,2051.16 5092.14,2029.16 5127.65,2014.74 5141,2006.29 5131.48,2002.21 5098.8,2000.97 5043.11,2001.09 4964.95,2001.24 4865.23,2000.2 4745.24,1996.95 
  4606.57,1990.61 4451.05,1980.51 4280.75,1966.19 4097.99,1947.35 3905.2,1923.92 3704.87,1896 3499.53,1863.88 3291.74,1828.03 3084.03,1789.03 2878.88,1747.61 
  2678.67,1704.6 2485.64,1660.88 2301.88,1617.38 2129.26,1575.03 1969.41,1534.7 1823.69,1497.2 1693.19,1463.21 1578.69,1433.27 1480.63,1407.72 1399.16,1386.66 
  1334.06,1369.97 1284.83,1357.21 1250.63,1347.67 1230.27,1340.4 1222.24,1334.31 1224.89,1328.08 1236.5,1320.25 1255.34,1309.31 1279.77,1293.75 1308.39,1272.18 
  1340.14,1243.36 1374.34,1206.35 1410.82,1160.52 1449.94,1105.67 1492.55,1042.05 1539.99,970.406 1593.98,891.974 1656.55,808.494 1729.84,722.145 1816.05,635.474 
  1917.21,551.305 2035.09,472.669 2171.08,402.643 2326.12,344.22 2500.66,300.202 2694.64,273.094 2907.46,264.996 3138.03,277.526 3384.82,311.754 3645.9,368.16 
  3919.08,446.63 4201.93,546.458 4491.89,666.388 4786.33,804.659 5082.6,959.06 5378.06,1126.99 5670.09,1305.53 5956.09,1491.43 6233.46,1681.22 6499.77,1871.3 
  6753.13,2058.33 6991.69,2238.94 7213.8,2409.91 7418.05,2568.26 7603.23,2711.3 7768.35,2836.72 7912.61,2942.57 8035.3,3027.36 8135.82,3090.05 8213.54,3130.04 
  8267.81,3147.2 8297.87,3141.88 8302.88,3114.86 8281.93,3067.4 8234.02,3001.2 8158.2,2918.33 8053.66,2821.28 7919.85,2712.92 7756.6,2596.39 7564.14,2475.03 
  7343.21,2352.32 7095.12,2231.77 6821.71,2116.84 6525.38,2010.82 6209.03,1916.79 5875.95,1837.51 5529.8,1775.37 5174.44,1732.35 4813.84,1709.99 4452,1709.36 
  4092.83,1731.14 3740.19,1775.53 3397.81,1842.37 3069.11,1931.09 2757.24,2040.81 2465.02,2170.32 2194.94,2318.16 1949.1,2482.68 1729.24,2662.03 1536.71,2854.24 
  1372.5,3057.26 1237.21,3268.98 1131.12,3487.28 1054.16,3710.08 1005.94,3935.33 985.794,4161.08 992.812,4385.49 1025.85,4606.83 1083.55,4823.53 1164.44,5034.16 
  1266.87,5237.48 1389.12,5432.41 1529.4,5618.03 1685.89,5793.61 1856.76,5958.6 2040.19,6112.58 2234.44,6255.3 2437.79,6386.67 2648.63,6506.68 2865.46,6615.48 
  3086.85,6713.3 3311.52,6800.45 3538.32,6877.31 3766.2,6944.31 3994.25,7001.92 4221.7,7050.64 4447.86,7090.96 4672.2,7123.38 4894.27,7148.39 5113.7,7166.46 
  5330.24,7178.02 5543.69,7183.48 5753.91,7183.2 5960.83,7177.5 6164.42,7166.68 6364.66,7150.96 6561.56,7130.55 6755.16,7105.6 6945.49,7076.25 7132.57,7042.59 
  7316.44,7004.67 7497.1,6962.54 7674.55,6916.21 7848.78,6865.69 8019.74,6810.97 8187.38,6752.03 8351.63,6688.85 8512.38,6621.41 8669.54,6549.68 8822.98,6473.64 
  8972.55,6393.28 9118.09,6308.6 9259.45,6219.6 9396.44,6126.29 9528.87,6028.68 9656.57,5926.81 9779.31,5820.72 9896.89,5710.46 10009.1,5596.08 10115.7,5477.64 
  10216.4,5355.24 10310.9,5228.95 10399.1,5098.88 10480.6,4965.14 10555.1,4827.87 10622.2,4687.21 10681.6,4543.34 10732.8,4396.45 10775.5,4246.78 10809.3,4094.6 
  10833.6,3940.2 10848,3783.94 10852,3626.23 10845,3467.51 10826.7,3308.3 10796.5,3149.16 10753.9,2990.74 10698.6,2833.73 10630.2,2678.87 10548.4,2526.97 
  10453,2378.87 10343.9,2235.47 10221.2,2097.68 10085,1966.42 9935.55,1842.61 9773.37,1727.17 9599.03,1620.94 9413.31,1524.73 9217.12,1439.27 9011.55,1365.17 
  8797.82,1302.95 8577.31,1252.96 8351.49,1215.42 8121.96,1190.36 7890.39,1177.64 7658.48,1176.94 7427.99,1187.74 7200.66,1209.32 6978.2,1240.8 6762.26,1281.11 
  6554.4,1329.03 6356.08,1383.2 6168.61,1442.16 5993.17,1504.36 5830.75,1568.19 5682.2,1632.04 5548.18,1694.29 5429.21,1753.38 5325.64,1807.82 5237.69,1856.23 
  5165.46,1897.34 5108.94,1930.07 5068.03,1953.5 5042.55,1966.92 5032.25,1969.85 5036.85,1962 5056.12,1943.25 5089.79,1913.73 5137.52,1873.78 5198.98,1823.96 
  5273.8,1765.01 5361.56,1697.85 5461.83,1623.56 5574.08,1543.37 5697.76,1458.6 5832.21,1370.67 5976.71,1281.04 6130.42,1191.23 6292.44,1102.71 6461.79,1016.94 
  6637.39,935.295 6818.12,859.069 7002.8,789.416 7190.22,727.349 7379.17,673.723 7568.44,629.221 7756.8,594.348 7943.08,569.422 8126.19,554.578 8305.12,549.781 
  8478.94,554.833 8646.84,569.393 8808.14,592.995 8962.25,625.072 9108.74,664.976 9247.29,712.006 9377.67,765.429 9499.79,824.502 9613.61,888.497 9719.19,956.709 
  9816.64,1028.48 9906.11,1103.21 9987.78,1180.34 10061.8,1259.4 10128.5,1339.98 10187.9,1421.72 10240.2,1504.33 10285.6,1587.55 10324.2,1671.19 10356,1755.09 
  10381.3,1839.09 10400.1,1923.09 10412.4,2006.97 10418.4,2090.64 10418.1,2174 10411.8,2256.96 10399.5,2339.41 10381.5,2421.27 10358,2502.44 10329.3,2582.82 
  10295.6,2662.33 10257.3,2740.9 10214.9,2818.47 10168.8,2895 10119.3,2970.48 10067,3044.93 10012.4,3118.41 9955.96,3190.98 9898.12,3262.79 9839.37,3333.99 
  9780.16,3404.78 9720.87,3475.42 9661.87,3546.18 9603.45,3617.37 9545.83,3689.33 9489.16,3762.42 9433.52,3837.01 9378.86,3913.5 9325.1,3992.27 9271.99,4073.69 
  9219.25,4158.12 9166.45,4245.88 9113.1,4337.26 9058.6,4432.48 9002.27,4531.72 8943.35,4635.05 8881.04,4742.5 8814.47,4853.99 8742.75,4969.38 8664.96,5088.4 
  8580.19,5210.71 8487.54,5335.86 8386.13,5463.27 8275.14,5592.32 8153.82,5722.24 8021.49,5852.21 7877.59,5981.31 7721.65,6108.56 7553.34,6232.91 7372.47,6353.24 
  7178.98,6468.41 6973.01,6577.24 6754.81,6678.54 6524.85,6771.11 6283.76,6853.76 6032.33,6925.33 5771.55,6984.69 5502.56,7030.79 5226.72,7062.61 4945.5,7079.24 
  4660.54,7079.87 4373.68,7063.78 4086.85,7030.4 3802.13,6979.28 3521.71,6910.13 3247.85,6822.82 2982.89,6717.4 2729.25,6594.08 2489.35,6453.27 2265.63,6295.58 
  2060.53,6121.81 1876.41,5932.96 1715.6,5730.22 1580.3,5515.01 1472.56,5288.9 1394.3,5053.69 1347.22,4811.31 1332.8,4563.86 1352.27,4313.61 1406.56,4062.91 
  1496.32,3814.22 1621.83,3570.11 1783.01,3333.15 1979.41,3105.97 2210.13,2891.15 2473.86,2691.26 2768.8,2508.73 3092.69,2345.88 3442.77,2204.83 3815.78,2087.47 
  4208,1995.35 4615.36,1929.67 5033.37,1891.23 5457.1,1880.35 5881.36,1896.83 6300.76,1939.9 6709.83,2008.15 7103.19,2099.57 7475.69,2211.53 7822.57,2340.77 
  8139.66,2483.51 8423.53,2635.51 8671.64,2792.22 8882.44,2948.93 9055.38,3100.92 9190.87,3243.67 9290.01,3372.99 9354.42,3485.05 9385.95,3576.61 9386.4,3644.9 
  9357.26,3687.72 9299.66,3703.44 9214.29,3691 9101.43,3649.85 8961.07,3580.02 8793.1,3482.05 8597.48,3357.04 8374.44,3206.66 8124.72,3033.22 7849.71,2839.71 
  7551.45,2629.68 7232.06,2406.83 6894.29,2175.34 6541.26,1939.66 6176.4,1704.41 5803.33,1474.25 5425.84,1253.82 5047.83,1047.61 4673.24,859.849 4306.06,694.405 
  3950.23,554.67 3609.66,443.455 3288.12,362.881 2989.17,314.269 2716.05,298.066 2471.56,313.78 2257.94,359.939 2076.65,434.1 1928.31,532.892 1812.47,652.116 
  1727.62,786.89 1671.1,931.842 1639.16,1081.34 1627.14,1229.73 1629.64,1371.63 1640.88,1502.1 1655.1,1616.96 1666.9,1712.9 1671.7,1787.49 1666.03,1839.34 
  1647.8,1868.03 1616.43,1874.09 1572.85,1858.95 1519.42,1824.79 1459.68,1774.49 1398.04,1711.38 1339.44,1639.17 1289.03,1561.71 1251.83,1482.82 1232.47,1406.2 
  1234.95,1335.25 1262.49,1272.98 1317.55,1221.71 1401.74,1183.2 1515.87,1158.61 1660.05,1148.46 1833.68,1152.71 2035.59,1170.76 2264.12,1201.58 2517.15,1243.75 
  2792.21,1295.58 3086.48,1355.12 3396.89,1420.33 3720.08,1489.09 4052.48,1559.31 4390.32,1628.93 4729.7,1696.04 5066.58,1758.85 5396.88,1815.78 5716.52,1865.45 
  6021.45,1906.74 6307.77,1938.76 6571.77,1960.9 6810.06,1972.83 7019.55,1974.52 7197.61,1966.23 7342.01,1948.57 7451.01,1922.45 7523.32,1889.16 7558.17,1850.33 
  7555.34,1807.95 7515.12,1764.33 7438.19,1722.05 7325.89,1683.92 7180.14,1652.88 7003.43,1631.87 6798.83,1623.74 6569.94,1631.12 6320.86,1656.33 6056.07,1701.26 
  5780.34,1767.34 5498.6,1855.45 5215.79,1965.97 4936.74,2098.75 4666.03,2253.18 4407.96,2428.22 4166.5,2622.42 3945.15,2834.02 3747,3061.01 3574.64,3301.17 
  3430.19,3552.14 3315.31,3811.45 3231.22,4076.62 3178.7,4345.1 3158.13,4614.38 3169.52,4882.01 3212.55,5145.56 3286.55,5402.73 3390.58,5651.29 3523.41,5889.16 
  3683.58,6114.36 3869.41,6325.03 4079.01,6519.46 4310.32,6696.1 4561.1,6853.52 4828.98,6990.49 5111.46,7105.92 5405.93,7198.87 5709.66,7268.59 6019.88,7314.51 
  6333.74,7336.21 6648.33,7333.47 6960.72,7306.25 7267.96,7254.69 7567.11,7179.11 7855.23,7080.01 8129.45,6958.09 8386.91,6814.24 8624.84,6649.51 8840.59,6465.17 
  9031.57,6262.62 9195.35,6043.49 9329.66,5809.53 9432.39,5562.7 9501.63,5305.1 9535.7,5038.98 9533.15,4766.72 9492.83,4490.87 9413.86,4214.05 9295.72,3939.02 
  9138.22,3668.6 8941.61,3405.69 8706.52,3153.22 8434.09,2914.15 8125.94,2691.41 7784.26,2487.86 7411.8,2306.28 7011.93,2149.24 6588.69,2019.13 6146.71,1918 
  5691.25,1847.5 5228.27,1808.81 4764.27,1802.52 4306.17,1828.47 3861.11,1885.74 3436.23,1972.5 3038.44,2085.99 2674.07,2222.51 2348.5,2377.44 2065.77,2545.44 
  1828.34,2720.58 1636.88,2896.69 1490.32,3067.67 1386.14,3227.83 1320.93,3372.12 1291.18,3496.19 1293.76,3596.6 1326.64,3670.69 1389.11,3716.55 1481.82,3732.96 
  1606.46,3719.28 1765.3,3675.4 1960.59,3601.73 2194.03,3499.2 2466.34,3369.31 2776.77,3214.25 3122.94,3036.97 3501.83,2840.57 3909.33,2628.67 4340.56,2405.32 
  4790.16,2174.86 5252.57,1941.89 5722.11,1711.21 6193.17,1487.74 6660.22,1276.44 7117.87,1082.24 7560.85,909.95 7984.01,764.141 8382.3,649.004 8750.76,568.212 
  9084.56,524.757 9379.02,520.771 9629.83,557.348 9833.18,634.383 9985.98,750.433 10086.2,902.613 10133.3,1086.57 10128.2,1296.51 10074.2,1525.42 9976.71,1765.27 
  9843.49,2007.45 9684.49,2243.2 9511.49,2464.04 9337.33,2662.37 9175.12,2831.77 9037.39,2967.04 8934.96,3064.47 8875.96,3121.84 8865.23,3138.21 8903.95,3113.79 
  8989.63,3049.83 9116.32,2948.6 9275.13,2813.55 9454.91,2649.31 9643.19,2461.73 9827.2,2257.71 9994.89,2044.67 10135.5,1830.3 10240.1,1622.23 10301.9,1427.54 
  10316.1,1252.5 10280,1102.26 10192.6,980.747 10054.5,890.559 9867.34,833.031 9633.7,808.314 9356.79,815.521 9040.36,852.894 8688.5,917.949 8305.45,1007.61 
  7895.7,1118.41 7463.93,1246.63 7015,1388.37 6553.99,1539.73 6086.16,1696.83 5616.99,1855.92 5152.14,2013.41 4697.38,2165.91 4258.48,2310.27 3841.05,2443.6 
  3450.39,2563.27 3091.23,2666.95 2767.65,2752.53 2482.53,2818.36 2237.75,2863.06 2034.33,2885.57 1872.36,2885.23 1751.28,2861.87 1670.24,2815.93 1628.62,2748.44 
  1626.25,2661.17 1663.66,2556.66 1741.87,2438.3 1862.15,2310.3 2025.47,2177.62 2232.06,2045.74 2481.07,1920.33 2770.6,1806.96 3097.32,1710.84 3456.45,1636.6 
  3842.28,1588.02 4248.36,1567.95 4667.78,1578.3 5093.57,1620.04 5518.92,1693.27 5937.38,1797.37 6342.98,1931.06 6730.31,2092.53 7094.59,2279.52 7431.69,2489.45 
  7738.22,2719.49 8011.55,2966.78 8249.73,3228.48 8451.05,3501.44 8614.47,3782.62 8739.46,4069.03 8825.89,4357.75 8874.08,4645.95 8884.67,4930.93 8858.65,5210.07 
  8797.29,5480.93 8702.13,5741.17 8574.95,5988.63 8417.73,6221.28 8232.68,6437.29 8022.12,6634.95 7788.57,6812.75 7534.66,6969.33 7263.14,7103.53 6976.84,7214.36 
  6678.69,7300.99 6371.67,7362.79 6058.82,7399.33 5743.2,7410.32 5427.89,7395.7 5115.98,7355.57 4810.52,7290.21 4514.56,7200.11 4231.08,7085.93 3963,6948.51 
  3713.19,6788.87 3484.38,6608.21 3279.21,6407.92 3100.19,6189.54 2949.68,5954.8 2829.85,5705.59 2742.71,5443.95 2690.02,5172.09 2673.33,4892.35 2693.91,4607.24 
  2752.75,4319.37 2850.48,4031.5 2987.41,3746.48 3163.42,3467.25 3377.96,3196.84 3630,2938.3 3918,2694.68 4239.81,2469.03 4592.7,2264.3 4973.25,2083.31 
  5377.37,1928.65 5800.26,1802.63 6236.43,1707.11 6679.75,1643.48 7123.55,1612.44 7560.76,1613.94 7984.1,1647.06 8386.38,1709.9 8760.66,1799.56 9100.91,1912.1 
  9402.49,2042.78 9661.88,2186.08 9877.03,2336.02 10047.5,2486.45 10174.4,2631.45 10259.6,2765.67 10305.4,2884.51 10313.8,2984.27 10285.8,3062.13 10221.6,3116.1 
  10120.2,3144.95 9980.3,3148.16 9800.26,3125.85 9579.09,3078.72 9316.66,3007.9 9013.61,2914.72 8671.24,2800.6 8293.25,2667.99 7884.11,2519.49 7448.91,2357.93 
  6993.22,2186.43 6522.94,2008.36 6044.06,1827.39 5562.57,1647.38 5084.25,1472.39 4614.7,1306.6 4159.26,1154.27 3723.07,1019.6 3311.11,906.695 2928.22,819.426 
  2579.1,761.319 2268.31,735.429 2000.15,744.077 1778.47,788.614 1606.64,869.408 1487.36,985.586 1422.24,1134.91 1411.5,1313.76 1453.62,1517.1 1545.03,1738.67 
  1679.91,1971.11 1850.06,2206.36 2044.99,2435.98 2252.3,2651.68 2458.35,2845.77 2649.08,3011.54 2811.24,3143.63 2933.61,3238.19 3007.65,3292.55 3027.87,3304.86 
  2992.97,3274.52 2905.72,3201.93 2772.71,3088.63 2603.91,2937.48 2411.71,2752.79 2209.98,2540.35 2012.87,2307.26 1833.84,2061.62 1684.84,1812.07 1575.81,1567.46 
  1514.25,1336.54 1504.98,1127.52 1550.62,946.744 1651.76,799.415 1807.28,689.292 2014.79,618.629 2270.89,588.255 2571.56,597.705 2912.35,645.387 3288.51,728.759 
  3695.16,844.519 4127.27,988.783 4579.74,1157.25 5047.31,1345.33 5524.63,1548.3 6006.19,1761.37 6486.25,1979.79 6958.91,2198.9 7418.25,2414.2 7858.42,2621.43 
  8273.8,2816.61 8659.26,2996.05 9010.39,3156.4 9323.82,3294.74 9597.43,3408.56 9830.52,3495.88 10023.7,3555.21 10178.9,3585.66 10298.5,3586.92 10385,3559.09 
  10440,3502.84 10464.3,3419.51 10456.9,3311.16 10415.8,3180.68 10337.6,3031.83 10218.9,2869.3 10056.6,2698.55 9848.55,2525.65 9594.32,2356.95 9295.15,2198.7 
  8954.08,2056.73 8575.79,1936.18 8166.47,1841.27 7732.78,1775.34 7281.98,1740.68 6821.47,1738.61 6358.52,1769.56 5900,1833.18 5452.24,1928.44 5020.99,2053.76 
  4611.33,2207.12 4227.65,2386.15 3873.66,2588.21 3552.39,2810.53 3266.24,3050.19 3017.1,3304.18 2806.28,3569.52 2634.61,3843.18 2502.46,4122.23 2409.79,4403.77 
  2356.18,4685 2340.86,4963.22 2362.76,5235.85 2420.52,5500.43 2512.54,5754.66 2636.96,5996.37 2791.73,6223.55 2974.63,6434.36 3183.25,6627.12 3415.06,6800.32 
  3667.4,6952.63 3937.51,7082.9 4222.53,7190.17 4519.56,7273.64 4825.62,7332.73 5137.72,7367 5452.85,7376.24 5767.99,7360.39 6080.14,7319.59 6386.33,7254.16 
  6683.64,7164.61 6969.22,7051.6 7240.29,6916 7494.15,6758.83 7728.24,6581.29 7940.11,6384.75 8127.46,6170.74 8288.15,5940.95 8420.23,5697.27 8521.97,5441.69 
  8591.85,5176.27 8628.6,4903.26 8631.22,4625.09 8599.06,4344.28 8531.79,4063.48 8429.48,3785.38 8292.6,3512.72 8122.03,3248.26 7919.14,2994.75 7685.78,2754.87 
  7424.33,2531.24 7137.74,2326.32 6829.53,2142.37 6503.78,1981.38 6165.11,1844.93 5818.63,1734.18 5469.8,1649.7 5124.31,1591.47 4787.97,1558.79 4466.44,1550.24 
  4165.13,1563.75 3889.01,1596.61 3642.51,1645.56 3429.43,1706.93 3252.79,1776.82 3114.75,1851.23 3016.92,1926.3 2960.34,1998.42 2945.53,2064.41 2972.61,2121.58 
  3041.37,2167.75 3151.28,2201.31 3301.55,2221.1 3490.94,2226.44 3717.78,2217.05 3979.77,2193.03 4273.91,2154.87 4596.4,2103.42 4943.41,2039.72 5310.67,1965.14 
  5693.57,1881.3 6087.34,1790.09 6487.16,1693.65 6888.22,1594.33 7285.82,1494.68 7675.41,1397.39 8052.61,1305.26 8413.27,1221.11 8753.47,1147.75 9069.52,1087.87 
  9357.99,1043.94 9615.78,1018.1 9840.2,1012.09 10029,1027.08 10180.6,1063.59 10293.8,1121.37 10368.7,1199.37 10405.9,1295.64 10407.7,1407.39 10377,1530.97 
  10318.5,1662.05 10237.7,1795.69 10141.5,1926.6 10037.4,2049.35 9933.14,2158.62 9836.63,2249.49 9754.82,2317.68 9693.4,2359.69 9656.41,2372.69 9645.74,2354.96 
  9660.92,2305.78 9699.15,2225.58 9755.49,2116.01 9823.23,1980.02 9894.41,1821.72 9960.52,1646.37 10013,1460.06 10044,1269.51 10046.4,1081.69 10014.8,903.604 
  9944.93,741.998 9834.68,603.177 9683.2,492.284 9490.87,413.266 9259.27,369.033 8990.94,361.293 8689.09,390.585 8357.46,456.347 8000.13,557.018 7621.4,690.16 
  7225.72,852.591 6817.62,1040.52 6401.67,1249.68 5982.48,1475.44 5564.67,1712.94 5152.83,1957.18 4751.47,2203.14 4364.96,2445.86 3997.41,2680.58 3652.57,2902.75 
  3333.68,3108.21 3043.35,3293.24 2783.38,3454.64 2554.81,3589.79 2357.85,3696.73 2192.14,3774.08 2056.87,3821.1 1951.2,3837.62 1874.5,3824.04 1826.59,3781.42 
  1807.98,3711.45 1820.28,3616.12 1865.68,3498.14 1946.72,3360.89 2065.9,3208.4 2225.33,3045.25 2426.24,2876.44 2668.78,2707.27 2951.79,2543.04 3272.81,2388.93 
  3628.18,2249.7 4013.29,2129.58 4422.81,2032.1 4850.88,1960.11 5291.33,1915.7 5737.95,1900.22 6184.68,1914.34 6625.71,1958.06 7055.63,2030.82 7469.47,2131.58 
  7862.78,2258.84 8231.61,2410.79 8572.55,2585.29 8882.73,2779.98 9159.8,2992.34 9401.94,3219.74 9607.8,3459.44 9776.46,3708.7 9907.47,3964.72 10000.7,4224.79 
  10056.6,4486.21 10075.7,4746.39 10059,5002.82 10007.8,5253.13 9923.64,5495.08 9808.23,5726.59 9663.55,5945.73 9491.76,6150.77 9295.14,6340.13 9076.12,6512.44 
  8837.2,6666.53 8580.99,6801.39 8310.12,6916.24 8027.25,7010.49 7735.07,7083.71 7436.21,7135.7 7133.3,7166.43 6828.89,7176.02 6525.46,7164.81 6225.41,7133.27 
  5931.01,7082.04 5644.42,7011.91 5367.66,6923.8 5102.61,6818.77 4850.95,6697.98 4614.23,6562.72 4393.77,6414.36 4190.73,6254.37 4006.03,6084.27 3840.39,5905.66 
  3694.3,5720.17 3568.02,5529.46 3461.58,5335.19 3374.77,5139.04 3307.13,4942.65 3257.97,4747.61 3226.36,4555.45 3211.17,4367.63 3211.02,4185.51 3224.36,4010.3 
  3249.45,3843.09 3284.41,3684.83 3327.23,3536.26 3375.81,3397.97 3428.02,3270.33 3481.68,3153.56 3534.67,3047.64 3584.91,2952.41 3630.44,2867.5 3669.43,2792.38 
  3700.25,2726.4 3721.46,2668.77 3731.91,2618.57 3730.67,2574.85 3717.04,2536.6 3690.61,2502.8 3651.25,2472.45 3599.09,2444.53 3534.5,2418.12 3458.12,2392.36 
  3370.75,2366.45 3273.43,2339.73 3167.34,2311.63 3053.8,2281.7 2934.23,2249.61 2810.15,2215.16 2683.1,2178.24 2554.65,2138.89 2426.38,2097.22 2299.79,2053.45 
  2176.37,2007.86 2057.49,1960.79 1944.42,1912.64 1838.32,1863.79 1740.19,1814.66 1650.87,1765.59 1571.02,1716.94 1501.13,1668.95 1441.52,1621.81 1392.3,1575.61 
  1353.43,1530.31 1324.68,1485.79 1305.71,1441.81 1296.05,1398.04 1295.15,1354.04 1302.43,1309.35 1317.31,1263.45 1339.28,1215.82 1367.89,1165.98 1402.86,1113.54 
  1444.07,1058.22 1491.57,999.93 1545.61,938.761 1606.66,875.014 1675.39,809.239 1752.55,742.244 1839.04,675.085 1935.75,609.049 2043.6,545.622 2163.38,486.448 
  2295.76,433.275 2441.19,387.892 2599.91,352.067 2771.85,327.472 2956.67,315.622 3153.72,317.804 3362.09,335.028 3580.59,367.98 3807.79,416.986 4042.09,481.999 
  4281.73,562.591 4524.84,657.954 4769.48,766.908 5013.67,887.92 5255.44,1019.16 5492.87,1158.54 5724.13,1303.77 5947.46,1452.39 6161.23,1601.87 6363.94,1749.64 
  6554.24,1893.14 6730.9,2029.92 6892.86,2157.67 7039.17,2274.26 7168.99,2377.83 7281.6,2466.76 7376.29,2539.77 7452.44,2595.88 7509.42,2634.47 7546.62,2655.31 
  7563.4,2658.51 7559.09,2644.51 7533.02,2614.13 7484.57,2568.56 7413.2,2509.29 7318.5,2438.16 7200.22,2357.24 7058.34,2268.84 6893.13,2175.45 6705.19,2079.69 
  6495.45,1984.24 6265.25,1891.8 6016.27,1805 5750.53,1726.33 5470.39,1658.13 5178.42,1602.46 4877.42,1561.14 4570.31,1535.66 4260.09,1527.23 3949.8,1536.71 
  3642.48,1564.63 3341.07,1611.17 3048.39,1676.22 2767.06,1759.37 2499.48,1859.94 2247.82,1977.01 2013.98,2109.47 1799.58,2256.01 1605.93,2415.21 1434.05,2585.53 
  1284.69,2765.37 1158.26,2953.09 1054.95,3147.05 974.651,3345.63 917.042,3547.27 881.577,3750.46 867.525,3953.8 873.994,4155.99 899.955,4355.85 944.276,4552.32 
  1005.75,4744.46 1083.12,4931.48 1175.1,5112.71 1280.4,5287.59 1397.76,5455.7 1525.95,5616.72 1663.79,5770.42 1810.17,5916.66 1964.06,6055.39 2124.49,6186.61 
  2290.6,6310.37 2461.61,6426.76 2636.8,6535.9 2815.57,6637.94 2997.37,6733.03 3181.75,6821.33 3368.29,6902.97 3556.67,6978.11 3746.57,7046.88 3937.76,7109.4 
  4130.01,7165.76 4323.15,7216.05 4517.01,7260.34 4711.44,7298.68 4906.3,7331.11 5101.46,7357.66 5296.8,7378.35 5492.19,7393.18 5687.51,7402.16 5882.62,7405.3 
  6077.39,7402.59 6271.69,7394.02 6465.38,7379.6 6658.33,7359.33 6850.38,7333.19 7041.4,7301.19 7231.25,7263.33 7419.76,7219.6 7606.8,7170 7792.19,7114.52 
  7975.78,7053.14 8157.38,6985.84 8336.8,6912.59 8513.84,6833.36 8688.25,6748.09 8859.77,6656.74 9028.11,6559.24 9192.91,6455.54 9353.79,6345.57 9510.3,6229.25 
  9661.94,6106.55 9808.13,5977.42 9948.24,5841.83 10081.6,5699.82 10207.3,5551.42 10324.6,5396.75 10432.6,5235.96 10530.3,5069.29 10616.7,4897.05 10690.7,4719.64 
  10751.2,4537.56 10797.2,4351.43 10827.6,4161.95 10841.4,3969.95 10837.5,3776.37 10815.2,3582.24 10773.5,3388.73 10712,3197.08 10630,3008.62 10527.3,2824.74 
  10403.9,2646.88 10259.8,2476.5 10095.4,2315.06 9911.42,2163.99 9708.64,2024.66 9488.26,1898.35 9251.69,1786.22 9000.6,1689.29 8736.91,1608.38 8462.74,1544.11 
  8180.43,1496.85 7892.46,1466.73 7601.45,1453.57 7310.07,1456.92 7021.05,1476.04 6737.08,1509.87 6460.78,1557.09 6194.65,1616.09 5941.03,1685.05 5702.07,1761.9 
  5479.63,1844.44 5275.3,1930.32 5090.36,2017.16 4925.81,2102.54 4782.33,2184.08 4660.3,2259.52 4559.88,2326.73 4480.96,2383.79 4423.27,2429.01 4386.42,2460.97 
  4369.93,2478.52 4373.25,2480.83 4395.83,2467.37 4437.11,2437.94 4496.52,2392.67 4573.48,2332.02 4667.41,2256.76 4777.69,2167.97 4903.66,2066.99 5044.64,1955.38 
  5199.84,1834.96 5368.27,1707.79 5548.9,1576.01 5740.59,1441.84 5942.1,1307.53 6152.07,1175.32 6369.01,1047.41 6591.33,925.87 6817.33,812.638 7045.26,709.421 
  7273.34,617.682 7499.82,538.589 7722.99,472.998 7941.24,421.441 8153.08,384.12 8357.21,360.923 8552.47,351.442 8737.92,355.003 8912.79,370.692 9076.51,397.391 
  9228.66,433.809 9368.98,478.51 9497.7,530.037 9615.27,586.969 9722.16,647.923 9818.92,711.613 9906.18,776.891 9984.59,842.768 10054.7,908.441 10117.2,973.293 
  10172.3,1036.9 10220.5,1098.99 10261.9,1159.49 10296.5,1218.42 10324.3,1275.92 10345.1,1332.21 10358.7,1387.55 10364.6,1442.23 10362.7,1496.52 10352.5,1550.67 
  10333.9,1604.88 10306.5,1659.28 10270.4,1713.93 10225.4,1768.84 10171.8,1823.91 10109.7,1879.02 10039.7,1933.97 9962.14,1988.53 9877.81,2042.44 9787.49,2095.41 
  9692.1,2147.19 9592.66,2197.52 9490.27,2246.18 9386.11,2293.02 9281.41,2337.92 9177.41,2380.87 9075.38,2421.92 8976.54,2461.22 8882.11,2499.02 8793.19,2535.65 
  8710.83,2571.56 8635.95,2607.28 8569.33,2643.42 8511.59,2680.67 8463.18,2719.78 8424.35,2761.56 8395.15,2806.84 8375.41,2856.49 8364.74,2911.34 8362.52,2972.21 
  8367.92,3039.87 8379.92,3115.03 8397.29,3198.29 8418.64,3290.15 8442.44,3390.99 8467.04,3501.04 8490.68,3620.38 8511.58,3748.93 8527.9,3886.44 8537.85,4032.5 
  8539.65,4186.53 8531.61,4347.8 8512.14,4515.43 8479.78,4688.39 8433.21,4865.55 8371.3,5045.65 8293.07,5227.36 8197.77,5409.24 8084.84,5589.82 7953.95,5767.58 
  7804.96,5940.96 7637.98,6108.41 7453.32,6268.39 7251.5,6419.36 7033.27,6559.84 6799.57,6688.41 6551.55,6803.69 6290.55,6904.4 6018.07,6989.35 5735.82,7057.45 
  5445.65,7107.72 5149.56,7139.32 4849.71,7151.53 4548.34,7143.81 4247.82,7115.76 3950.6,7067.13 3659.21,6997.87 3376.23,6908.09 3104.27,6798.11 2845.96,6668.41 
  2603.91,6519.7 2380.68,6352.85 2178.81,6168.95 2000.72,5969.28 1848.73,5755.31 1725.02,5528.7 1631.61,5291.29 1570.32,5045.08 1542.74,4792.24 1550.23,4535.08 
  1593.83,4276.05 1674.32,4017.68 1792.11,3762.62 1947.25,3513.56 2139.33,3273.28 2367.64,3044.48 2631.05,2829.81 2927.87,2631.94 3255.9,2453.39 3612.42,2296.56 
  3994.2,2163.59 4397.52,2056.34 4818.18,1976.34 5251.5,1924.73 5692.35,1902.16 6135.22,1908.78 6574.27,1944.12 7003.46,2007.06 7416.72,2095.76 7808.17,2207.64 
  8172.34,2339.4 8504.43,2487.11 8800.54,2646.25 9057.86,2811.94 9274.79,2979.05 9450.93,3142.42 9586.95,3297.03 9684.38,3438.18 9745.49,3561.74 9772.64,3664.13 
  9768.05,3742.36 9733.47,3794.1 9669.99,3817.62 9577.98,3811.77 9457.19,3775.88 9306.95,3709.84 9126.51,3614.08 8915.36,3489.66 8673.55,3338.31 8401.98,3162.55 
  8102.02,2965.27 7775.79,2749.97 7426.11,2520.59 7056.3,2281.5 6670.16,2037.36 6271.76,1793.03 5865.36,1553.47 5455.36,1323.63 5046.19,1108.36 4642.33,912.312 
  4248.22,739.803 3868.32,594.724 3506.99,480.398 3168.45,399.434 2856.77,353.632 2575.7,343.855 2328.54,369.919 2118,430.529 1945.96,523.241 1813.26,644.482 
  1719.58,789.624 1663.16,953.128 1640.83,1128.75 1647.93,1309.8 1678.44,1489.48 1725.3,1661.2 1780.76,1818.9 1836.88,1957.25 1886.12,2072.02 1921.89,2160.02 
  1939.02,2219.22 1934.2,2248.79 1906.25,2249.05 1856.15,2221.45 1786.93,2168.34 1703.29,2092.96 1611.27,1999.2 1517.74,1891.5 1429.9,1774.7 1354.83,1653.86 
  1299.02,1534.13 1268.07,1420.21 1266.52,1316.22 1297.77,1225.71 1364.09,1151.49 1466.66,1095.57 1605.71,1059.12 1780.59,1042.54 1989.97,1045.51 2231.91,1067.05 
  2503.99,1105.65 2803.4,1159.37 3126.98,1225.94 3471.25,1302.88 3832.44,1387.56 4206.62,1477.31 4589.62,1569.49 4977.08,1661.53 5364.48,1751.01 5747.21,1835.69 
  6120.58,1913.54 6479.99,1982.76 6820.9,2041.81 7139.04,2089.41 7430.42,2124.56 7691.48,2146.56 7919.14,2155.02 8110.86,2149.88 8264.64,2131.44 8379.03,2100.43 
  8452.97,2057.98 8485.87,2005.68 8477.5,1945.63 8428.02,1880.4 8338.02,1813.01 8208.57,1746.83 8041.3,1685.49 7838.51,1632.72 7603.19,1592.19 7339.04,1567.35 
  7050.41,1561.3 6742.16,1576.58 6419.55,1615.2 6088.09,1678.48 5753.39,1767.09 5421.02,1881.05 5096.19,2019.83 4783.82,2182.39 4488.39,2367.21 4213.91,2572.4 
  3963.84,2795.81 3741.12,3035.02 3548.14,3287.49 3386.78,3550.57 3258.42,3821.54 3163.97,4097.68 3103.92,4376.28 3078.33,4654.69 3086.88,4930.36 3128.94,5200.83 
  3203.56,5463.72 3309.52,5716.78 3445.33,5957.9 3609.26,6185.1 3799.41,6396.55 4013.66,6590.59 4249.74,6765.69 4505.24,6920.5 4777.6,7053.83 5064.16,7164.66 
  5362.17,7252.15 5668.79,7315.61 5981.12,7354.57 6296.21,7368.7 6611.07,7357.87 6922.72,7322.13 7228.15,7261.72 7524.38,7177.05 7808.45,7068.73 8077.45,6937.56 
  8328.57,6784.49 8559.03,6610.7 8766.19,6417.5 8947.53,6206.42 9100.65,5979.14 9223.35,5737.51 9313.57,5483.53 9369.49,5219.39 9389.51,4947.4 9372.28,4670.01 
  9316.76,4389.81 9222.19,4109.49 9088.17,3831.86 8914.67,3559.8 8702.1,3296.25 8451.3,3044.21 8163.6,2806.67 7840.92,2586.63 7485.62,2386.92 7100.75,2210.33 
  6690.05,2059.46 6257.93,1936.66 5809.47,1843.91 5350.36,1782.74 4886.89,1754.13 4425.87,1758.41 3974.51,1795.12 3540.17,1862.95 3130.15,1959.59 2751.25,2081.73 
  2409.43,2225.12 2109.36,2384.61 1854.13,2554.42 1645.03,2728.34 1481.62,2900.11 1361.94,3063.65 1282.76,3213.55 1240.6,3345.07 1232.22,3454.38 1255.27,3538.57 
  1308.75,3595.6 1393.11,3624.1 1510.05,3623.31 1661.99,3592.99 1851.47,3533.39 2080.39,3445.36 2349.38,3330.46 2657.77,3190.72 3003.8,3028.53 3384.26,2846.84 
  3794.93,2649 4230.77,2438.77 4686.24,2220.21 5155.57,1997.64 5632.87,1775.61 6112.33,1558.82 6588.25,1352.08 7055.1,1160.21 7507.52,988.005 7940.28,840.069 
  8348.25,720.732 8726.43,633.899 9069.9,582.881 9373.93,570.23 9634.05,597.547 9846.19,665.308 10007,772.695 10113.9,917.467 10165.8,1095.88 10163.2,1302.73 
  10108.6,1531.4 10006.8,1774.15 9865.01,2022.4 9692.91,2267.23 9502.22,2499.89 9306.21,2712.2 9118.88,2897.02 8953.89,3048.61 8823.46,3162.67 8737.41,3236.37 
  8702.36,3268.17 8721.19,3257.6 8792.77,3205.29 8912.06,3112.91 9070.52,2983.35 9256.91,2820.78 9458.37,2630.47 9661.33,2418.9 9852.34,2193.69 10019.2,1962.96 
  10151.6,1734.96 10241.3,1517.63 10282.6,1318.2 10271.8,1142.86 10207.3,996.528 10089.4,882.718 9919.48,803.56 9700.06,759.877 9434.44,751.319 9126.54,776.521 
  8780.53,833.2 8400.82,918.394 7992.03,1028.63 7558.94,1160.08 7106.49,1308.68 6639.82,1470.28 6164.24,1640.69 5685.3,1815.83 5208.73,1991.73 4740.42,2164.62 
  4286.32,2330.94 3852.28,2487.37 3443.89,2630.89 3066.31,2758.72 2723.8,2868.41 2419.63,2957.89 2155.99,3025.37 1933.89,3069.42 1753.2,3089.03 1612.89,3083.67 
  1511.55,3053.33 1447.88,2998.57 1421.16,2920.6 1431.61,2821.4 1480.33,2703.81 1569.1,2571.59 1699.82,2429.41 1873.99,2282.68 2092.27,2137.25 2354.39,1999.02 
  2658.15,1873.91 2999.85,1767.33 3374.49,1683.93 3776,1627.5 4197.59,1600.81 4632.12,1605.65 5072.39,1642.84 5511.41,1712.36 5942.58,1813.43 6359.85,1944.62 
  6757.81,2103.98 7131.8,2289.21 7477.88,2497.74 7792.68,2726.7 8073.51,2973.13 8318.31,3234.01 8525.58,3506.25 8694.37,3786.82 8824.17,4072.71 8914.93,4360.99 
  8966.99,4648.83 8981.03,4933.5 8958.07,5212.39 8899.43,5483.03 8806.66,5743.1 8681.58,5990.41 8526.2,6222.94 8342.72,6438.84 8133.52,6636.41 7901.12,6814.12 
  7648.17,6970.62 7377.42,7104.74 7091.74,7215.49 6794.06,7302.03 6487.37,7363.75 6174.71,7400.2 5859.15,7411.1 5543.77,7396.38 5231.65,7356.15 4925.86,7290.7 
  4629.41,7200.51 4345.3,7086.22 4076.43,6948.69 3825.65,6788.94 3595.68,6608.15 3389.15,6407.72 3208.54,6189.17 3056.19,5954.24 2934.27,5704.8 2844.73,5442.89 
  2789.35,5170.71 2769.63,4890.59 2786.82,4605.02 2841.86,4316.63 2935.37,4028.16 3067.62,3742.43 3238.43,3462.41 3447.23,3191.07 3692.94,2931.46 3973.94,2686.63 
  4288.04,2459.59 4632.44,2253.25 5003.68,2070.37 5397.61,1913.5 5809.42,1784.85 6233.62,1686.19 6664.14,1618.77 7094.39,1583.17 7517.44,1579.23 7926.21,1605.87 
  8313.8,1661.09 8673.72,1741.92 9000.28,1844.43 9288.89,1963.89 9536.27,2094.94 9740.6,2231.86 9901.37,2368.88 10019.1,2500.44 10095,2621.53 10130.4,2727.86 
  10126.7,2816.08 10084.5,2883.76 10003.6,2929.1 9883.11,2951.11 9722.16,2949.45 9519.97,2924.34 9276.32,2876.42 8991.95,2806.78 8668.64,2716.87 8309.34,2608.5 
  7917.98,2483.78 7499.27,2345.15 7058.52,2195.3 6601.39,2037.2 6133.71,1874.11 5661.31,1709.5 5189.89,1547.03 4724.99,1390.57 4271.95,1244.07 3835.87,1111.53 
  3421.7,996.913 3034.17,904.033 2677.84,836.432 2357.09,797.236 2076.04,789 1838.53,813.538 1647.92,871.763 1506.93,963.52 1417.4,1087.45 1379.97,1240.88 
  1393.8,1419.84 1456.26,1619.07 1562.66,1832.17 1706.14,2051.83 1877.66,2270.27 2066.28,2479.6 2259.73,2672.26 2445.05,2841.42 2609.51,2981.15 2741.49,3086.67 
  2831.47,3154.28 2872.92,3181.49 2863.09,3167.08 2803.68,3111.44 2699.59,3015.62 2558.6,2881.48 2391.59,2712.65 2211.22,2514.2 2030.92,2292.6 1863.83,2055.48 
  1722.01,1811.31 1615.72,1568.93 1552.98,1337.03 1539.46,1123.72 1578.49,936.1 1671.32,780.023 1817.42,659.92 2014.84,578.739 2260.53,537.974 2550.71,537.764 
  2881.07,577.042 3246.95,653.698 3643.53,764.764 4065.84,906.586 4508.83,1074.99 4967.32,1265.44 5436.04,1473.15 5909.58,1693.21 6382.4,1920.72 6848.81,2150.78 
  7303.08,2378.65 7739.56,2599.78 8152.78,2809.85 8537.68,3004.85 8889.93,3181.13 9206.15,3335.48 9484.14,3465.19 9723.05,3568.08 9923.32,3642.54 10086.5,3687.48 
  10214.6,3702.38 10310.1,3687.21 10374.9,3642.54 10409.7,3569.69 10414.5,3470.73 10386.9,3348 10324,3204.91 10222.2,3045.75 10078.1,2875.62 9889.21,2700.23 
  9654.27,2525.71 9373.87,2358.27 9050.36,2203.86 8687.75,2067.9 8291.37,1955.03 7867.48,1869 7423.06,1812.6 6965.37,1787.67 6501.6,1795.15 6038.74,1835.17 
  5583.3,1907.11 5141.24,2009.8 4717.89,2141.55 4317.94,2300.26 3945.44,2483.56 3603.78,2688.79 3295.76,2913.18 3023.53,3153.81 2788.67,3407.81 2592.32,3672.18 
  2435.14,3943.97 2317.36,4220.28 2238.8,4498.28 2198.92,4775.2 2196.85,5048.42 2231.41,5315.4 2301.17,5573.75 2404.42,5821.22 2539.27,6055.71 2703.6,6275.27 
  2895.13,6478.13 3111.41,6662.69 3349.89,6827.5 3607.88,6971.32 3882.6,7093.09 4171.22,7191.91 4470.82,7267.08 4778.46,7318.1 5091.19,7344.62 5406.05,7346.51 
  5720.07,7323.8 6030.33,7276.71 6333.97,7205.64 6628.16,7111.17 6910.16,6994.04 7177.33,6855.19 7427.11,6695.69 7657.11,6516.81 7865.04,6319.95 8048.79,6106.68 
  8206.43,5878.72 8336.22,5637.92 8436.64,5386.29 8506.42,5125.96 8544.56,4859.17 8550.34,4588.28 8523.38,4315.69 8463.61,4043.92 8371.38,3775.54 8247.43,3513.16 
  8092.96,3259.35 7909.6,3016.66 7699.46,2787.52 7465.14,2574.22 7209.71,2378.87 6936.75,2203.32 6650.3,2049.11 6354.78,1917.39 6054.99,1808.85 5755.95,1723.69 
  5462.82,1661.56 5180.72,1621.52 4914.62,1602.09 4669.19,1601.24 4448.66,1616.52 4256.87,1645.1 4096.98,1683.93 3971.58,1729.82 3882.68,1779.61 3831.71,1830.27 
  3819.49,1879.01 3846.32,1923.38 3911.97,1961.27 4015.78,1990.98 4156.63,2011.2 4332.99,2020.97 4542.82,2019.7 4783.65,2007.14 5052.44,1983.38 5345.58,1948.83 
  5659.2,1904.17 5989.48,1850.35 6332.24,1788.58 6683.22,1720.31 7038.15,1647.23 7392.79,1571.24 7743.01,1494.39 8084.83,1418.87 8414.44,1346.96 8728.25,1280.93 
  9022.93,1223.05 9295.4,1175.44 9542.89,1140.04 9762.98,1118.48 9953.69,1112.02 10113.5,1121.46 10241.6,1147.06 10337.6,1188.42 10402.1,1244.52 10436.4,1313.61 
  10442.7,1393.29 10424.3,1480.57 10385.2,1571.88 10330.1,1663.29 10264.6,1750.6 10194.4,1829.56 10125.1,1896.02 10062,1946.13 10009.6,1976.59 9971.14,1984.81 
  9948.38,1969.09 9941.49,1928.3 9948.93,1862.44 9967.49,1772.54 9992.58,1660.71 10018.5,1530.08 10039.1,1384.77 10047.9,1229.71 10038.7,1070.45 10006,912.911 
  9945.08,763.116 9852.6,626.894 9726.27,509.649 9565.09,416.148 9369.24,350.361 9139.86,315.239 8878.93,312.724 8589.14,343.736 8273.66,408.19 7936.09,505.062 
  7580.24,632.469 7210.11,787.777 6829.79,967.709 6443.4,1168.46 6055.06,1385.83 5668.87,1615.3 5288.85,1852.17 4918.9,2091.68 4562.78,2329.05 4223.94,2559.67 
  3905.53,2779.11 3610.27,2983.3 3340.31,3168.58 3097.3,3331.75 2882.27,3470.17 2695.7,3581.8 2537.63,3665.2 2407.85,3719.54 2306.09,3744.6 2232.31,3740.67 
  2186.84,3708.59 2170.56,3649.76 2184.84,3566.13 2231.41,3460.28 2312.24,3335.33 2429.33,3194.89 2584.24,3043.11 2777.84,2884.52 3010.1,2723.93 3279.98,2566.21 
  3585.37,2416.13 3923.16,2278.19 4289.37,2156.49 4679.3,2054.6 5087.77,1975.45 5509.27,1921.35 5938.16,1893.95 6368.83,1894.24 6795.86,1922.61 7214.08,1978.9 
  7618.68,2062.43 8005.28,2172.07 8369.94,2306.35 8709.2,2463.43 9020.11,2641.24 9300.18,2837.48 9547.42,3049.73 9760.3,3275.4 9937.73,3511.88 10079.1,3756.5 
  10184.1,4006.61 10252.9,4259.6 10286.1,4512.94 10284.5,4764.17 10249.1,5010.96 10181.4,5251.1 10083,5482.54 9955.78,5703.4 9801.75,5911.97 9623.08,6106.73 
  9422.08,6286.36 9201.13,6449.73 8962.69,6595.9 8709.23,6724.14 8443.27,6833.92 8167.28,6924.89 7883.73,6996.9 7595.01,7049.96 7303.42,7084.28 7011.19,7100.19 
  6720.43,7098.22 6433.12,7078.99 6151.1,7043.29 5876.05,6992 5609.49,6926.11 5352.8,6846.69 5107.13,6754.88 4873.5,6651.91 4652.71,6539.02 4445.38,6417.49 
  4251.96,6288.64 4072.71,6153.75 3907.69,6014.12 3756.8,5871.01 3619.79,5725.65 3496.22,5579.2 3385.52,5432.78 3286.99,5287.42 3199.79,5144.05 3123,5003.54 
  3055.61,4866.62 2996.52,4733.93 2944.62,4606 2898.75,4483.22 2857.76,4365.89 2820.51,4254.17 2785.9,4148.12 2752.86,4047.72 2720.43,3952.82 2687.72,3863.2 
  2653.93,3778.56 2618.38,3698.52 2580.52,3622.66 2539.92,3550.52 2496.26,3481.61 2449.39,3415.41 2399.24,3351.42 2345.88,3289.13 2289.51,3228.07 2230.41,3167.78 
  2168.97,3107.85 2105.64,3047.9 2040.97,2987.61 1975.53,2926.71 1909.97,2864.97 1844.94,2802.22 1781.12,2738.36 1719.17,2673.32 1659.76,2607.06 1603.52,2539.61 
  1551.05,2471.03 1502.9,2401.38 1459.57,2330.77 1421.51,2259.3 1389.11,2187.08 1362.67,2114.22 1342.45,2040.84 1328.66,1967.02 1321.42,1892.84 1320.84,1818.37 
  1326.97,1743.65 1339.84,1668.74 1359.48,1593.67 1385.89,1518.49 1419.11,1443.24 1459.19,1368.02 1506.21,1292.94 1560.28,1218.18 1621.55,1143.97 1690.23,1070.61 
  1766.55,998.509 1850.76,928.13 1943.12,860.044 2043.89,794.904 2153.29,733.446 2271.49,676.472 2398.61,624.837 2534.64,579.423 2679.5,541.119 2832.94,510.788 
  2994.61,489.242 3163.98,477.205 3340.4,475.289 3523.06,483.963 3711.01,503.527 3903.21,534.097 4098.5,575.584 4295.62,627.69 4493.29,689.899 4690.16,761.474 
  4884.88,841.474 5076.12,928.772 5262.56,1022.07 5442.98,1119.93 5616.16,1220.8 5781.02,1323.04 5936.53,1424.97 6081.76,1524.9 6215.87,1621.18 6338.12,1712.21 
  6447.84,1796.5 6544.44,1872.68 6627.39,1939.55 6696.21,1996.09 6750.45,2041.49 6789.67,2075.13 6813.48,2096.67 6821.49,2105.99 6813.35,2103.22 6788.73,2088.74 
  6747.3,2063.14 6688.81,2027.27 6613.08,1982.19 6520.05,1929.17 6409.78,1869.64 6282.48,1805.19 6138.52,1737.51 5978.45,1668.38 5803.05,1599.63 5613.27,1533.09 
  5410.29,1470.55 5195.48,1413.74 4970.38,1364.29 4736.69,1323.68 4496.24,1293.24 4250.94,1274.09 4002.78,1267.17 3753.74,1273.2 3505.82,1292.68 3260.99,1325.89 
  3021.16,1372.9 2788.13,1433.58 2563.55,1507.62 2348.96,1594.51 2145.71,1693.62 1954.98,1804.16 1777.76,1925.26 1614.87,2055.96 1466.9,2195.23 1334.31,2342.01 
  1217.32,2495.24 1116.05,2653.83 1030.41,2816.74 960.207,2982.95 905.125,3151.52 864.746,3321.52 838.567,3492.12 826.029,3662.57 826.521,3832.16 839.404,4000.29 
  864.024,4166.4 899.728,4330.02 945.873,4490.74 1001.83,4648.21 1067.01,4802.13 1140.84,4952.26 1222.79,5098.38 1312.37,5240.32 1409.12,5377.94 1512.63,5511.12 
  1622.5,5639.76 1738.38,5763.78 1859.96,5883.1 1986.94,5997.67 2119.03,6107.42 2255.99,6212.32 2397.58,6312.32 2543.57,6407.4 2693.75,6497.51 2847.92,6582.64 
  3005.88,6662.77 3167.46,6737.89 3332.48,6807.99 3500.77,6873.07 3672.19,6933.13 3846.59,6988.2 4023.83,7038.27 4203.8,7083.37 4386.4,7123.5 4571.54,7158.69 
  4759.12,7188.92 4949.11,7214.21 5141.43,7234.53 5336.05,7249.85 5532.94,7260.13 5732.05,7265.29 5933.38,7265.23 6136.86,7259.82 6342.45,7248.9 6550.06,7232.28 
  6759.59,7209.73 6970.89,7180.98 7183.74,7145.74 7397.88,7103.68 7612.97,7054.45 7828.61,6997.68 8044.28,6932.98 8259.38,6859.97 8473.2,6778.26 8684.91,6687.48 
  8893.58,6587.31 9098.16,6477.44 9297.47,6357.64 9490.23,6227.76 9675.07,6087.71 9850.51,5937.53 10015,5777.36 10166.9,5607.49 10304.6,5428.31 10426.4,5240.4 
  10530.6,5044.49 10615.6,4841.45 10679.7,4632.33 10721.6,4418.34 10739.8,4200.84 10733.2,3981.35 10700.7,3761.53 10641.5,3543.13 10555.2,3327.99 10441.2,3118.01 
  10299.8,2915.19 10131.2,2721.52 9936.2,2538.97 9715.74,2369.45 9471.26,2214.78 9204.49,2076.62 8917.53,1956.48 8612.79,1855.62 8292.99,1775.07 7961.15,1715.55 
  7620.53,1677.46 7274.61,1660.85 6927.03,1665.36 6581.51,1690.25 6241.82,1734.34 5911.65,1796.04 5594.53,1873.38 5293.78,1964.01 5012.36,2065.25 4752.87,2174.17 
  4517.42,2287.66 4307.66,2402.47 4124.72,2515.36 3969.25,2623.12 3841.54,2722.65 3741.46,2811.04 3668.48,2885.75 3621.95,2944.48 3601.08,2985.3 3605.03,3006.69 
  3632.93,3007.55 3683.98,2987.25 3757.38,2945.57 3852.45,2882.74 3968.52,2799.42 4104.95,2696.65 4261.05,2575.89 4436.08,2438.95 4629.13,2288 4839.13,2125.57 
  5064.68,1954.51 5304.05,1777.99 5555.42,1599.24 5817.06,1421.3 6086.89,1247.39 6362.7,1080.59 6642.16,923.818 6922.84,779.757 7202.26,650.767 7477.95,538.833 
  7747.46,445.505 8008.43,371.848 8258.69,318.418 8496.26,285.238 8719.44,271.81 8926.86,277.127 9117.54,299.722 9290.9,337.715 9446.8,388.889 9585.51,450.768 
  9707.79,520.735 9814.77,596.149 9907.85,674.424 9988.65,753.134 10058.9,830.107 10120.3,903.5 10174.4,971.854 10222.7,1034.12 10266.1,1089.68 10305.4,1138.3 
  10340.8,1180.14 10372.2,1215.68 10399.1,1245.67 10420.7,1271.07 10435.8,1292.98 10443.3,1312.58 10441.9,1331.06 10430.1,1349.52 10406.9,1368.95 10371,1390.21 
  10321.6,1413.94 10258.1,1440.6 10180.1,1470.41 10087.5,1503.41 9980.57,1539.44 9859.79,1578.16 9725.97,1619.09 9580.16,1661.63 9423.68,1705.09 9258.04,1748.72 
  9084.93,1791.77 8906.22,1833.5 8723.91,1873.21 8540.11,1910.28 8357.04,1944.21 8177.04,1974.61 8002.44,2001.26 7835.39,2024.04 7678.08,2043.02 7532.58,2058.44 
  7400.82,2070.74 7284.53,2080.49 7185.25,2088.47 7104.21,2095.59 7042.38,2102.92 7000.38,2111.65 6978.5,2123.07 6976.64,2138.55 6994.34,2159.51 7030.76,2187.36 
  7084.66,2223.51 7154.47,2269.27 7238.29,2325.85 7333.91,2394.31 7438.89,2475.55 7550.56,2570.23 7666.12,2678.78 7782.7,2801.39 7897.38,2937.98 8007.28,3088.23 
  8109.6,3251.54 8201.67,3427.09 8281.01,3613.82 8345.32,3810.49 8392.59,4015.67 8421.03,4227.79 8429.16,4445.15 8415.78,4665.97 8379.98,4888.42 8321.15,5110.61 
  8238.95,5330.63 8133.33,5546.59 8004.52,5756.6 7853,5958.82 7679.5,6151.43 7485.01,6332.71 7270.72,6501.06 7038.03,6654.96 6788.53,6792.97 6524,6913.78 
  6246.39,7016.23 5957.8,7099.26 5660.46,7161.98 5356.74,7203.63 5049.09,7223.64 4740.08,7221.56 4432.34,7197.16 4128.57,7150.35 3831.49,7081.24 3543.85,6990.11 
  3268.43,6877.45 3007.96,6743.93 2765.13,6590.41 2542.59,6417.93 2342.89,6227.75 2168.48,6021.29 2021.68,5800.17 1904.66,5566.19 1819.4,5321.3 1767.66,5067.63 
  1750.98,4807.45 1770.66,4543.17 1827.67,4277.33 1922.68,4012.56 2056.02,3751.58 2227.64,3497.18 2437.08,3252.17 2683.43,3019.37 2965.36,2801.57 3280.99,2601.5 
  3627.97,2421.76 4003.38,2264.81 4403.74,2132.89 4825.01,2027.93 5262.56,1951.54 5711.26,1904.9 6165.46,1888.67 6619.11,1902.91 7065.83,1947.03 7499.13,2019.7 
  7912.54,2118.79 8299.89,2241.38 8655.57,2383.74 8974.86,2541.46 9254.12,2709.53 9491.06,2882.54 9684.81,3054.9 9835.87,3221.08 9945.98,3375.88 10017.7,3514.62 
  10054,3633.26 10057.7,3728.45 10030.9,3797.54 9974.85,3838.48 9889.84,3849.84 9775.26,3830.75 9629.98,3780.88 9452.68,3700.51 9242.3,3590.49 8998.29,3452.26 
  8720.88,3287.85 8411.26,3099.92 8071.72,2891.82 7705.74,2667.66 7316.86,2431.53 6909.26,2187.98 6487.54,1941.85 6056.48,1698.15 5620.96,1461.96 5185.9,1238.35 
  4756.16,1032.25 4336.6,848.393 3932.01,691.153 3547.12,564.437 3186.58,471.547 2854.85,415.022 2556.21,396.507 2294.55,416.607 2073.28,474.763 1895.01,569.167 
  1761.36,696.724 1672.7,853.08 1627.91,1032.71 1624.15,1229.1 1656.78,1434.99 1719.39,1642.73 1803.97,1844.65 1901.29,2033.44 2001.5,2202.58 2094.74,2346.58 
  2171.86,2461.06 2225.21,2543 2249.13,2590.63 2240.53,2603.46 2199.08,2582.2 2127.18,2528.7 2029.72,2445.86 1913.61,2337.47 1787.15,2208.19 1659.46,2063.33 
  1539.75,1908.76 1436.8,1750.68 1358.33,1595.09 1310.77,1447.61 1299.11,1313.28 1326.83,1196.36 1396,1100.17 1507.4,1027.06 1660.69,978.377 1854.64,954.514 
  2087.26,955.002 2356.02,978.62 2657.91,1023.53 2989.55,1087.39 3347.22,1167.52 3726.97,1260.96 4124.66,1364.59 4535.86,1475.26 4955.97,1589.86 5380.17,1705.35 
  5803.49,1818.84 6220.86,1927.66 6627.16,2029.33 7017.31,2121.61 7386.42,2202.55 7729.9,2270.43 8043.61,2323.84 8323.97,2361.66 8568.03,2383.06 8773.44,2387.54 
  8938.83,2375.09 9063.13,2346.04 9145.61,2301.17 9185.84,2241.86 9183.66,2170.08 9139.08,2088.46 9052.3,2000.21 8923.83,1909.11 8754.58,1819.31 8546.07,1735.24 
  8300.56,1661.35 8021.18,1601.96 7711.94,1561.02 7377.83,1541.94 7024.85,1547.32 6659.07,1579.05 6286.27,1638.32 5912.54,1725.55 5543.79,1840.43 5185.56,1982.07 
  4842.95,2149.03 4520.49,2339.44 4222.16,2551.08 3951.37,2781.47 3710.89,3027.94 3502.95,3287.71 3329.2,3557.94 3190.82,3835.76 3088.48,4118.31 3022.43,4402.81 
  2992.53,4686.52 2998.26,4966.81 3038.76,5241.17 3112.91,5507.19 3219.27,5762.63 3356.19,6005.36 3521.8,6233.42 3714.01,6444.98 3930.59,6638.4 4169.12,6812.18 
  4427.06,6965 4701.76,7095.71 4990.45,7203.34 5290.3,7287.09 5598.37,7346.33 5911.7,7380.61 6227.29,7389.69 6542.08,7373.48 6853.06,7332.09 7157.18,7265.82 
  7451.44,7175.13 7732.87,7060.7 7998.57,6923.37 8245.7,6764.17 8471.51,6584.3 8673.39,6385.16 8848.83,6168.29 8995.46,5935.44 9111.12,5688.49 9193.81,5429.5 
  9241.74,5160.69 9253.39,4884.42 9227.47,4603.2 9162.99,4319.6 9059.27,4036.38 8916.02,3756.38 8733.32,3482.54 8511.68,3217.84 8252.1,2965.31 7956.07,2727.99 
  7625.62,2508.86 7263.4,2310.83 6872.66,2136.69 6457.36,1989.02 6022.16,1870.13 5572.39,1781.94 5114.1,1725.89 4653.92,1702.82 4198.93,1712.84 3756.51,1755.21 
  3334.07,1828.26 2938.71,1929.31 2576.92,2054.67 2254.2,2199.7 1974.92,2358.82 1741.13,2526.02 1553.11,2695.12 1409.89,2859.81 1309.19,3014.14 1247.82,3152.88 
  1222.47,3271.78 1230.44,3367.57 1270.27,3437.89 1341.94,3481.13 1446.81,3496.29 1587.11,3482.92 1765.39,3441.12 1983.76,3371.49 2243.34,3275.25 2543.8,3154.18 
  2883.23,3010.63 3258.48,2847.3 3665.67,2667.07 4099.8,2473.33 4555.32,2269.79 5026.35,2060.43 5506.88,1849.48 5990.95,1641.37 6472.73,1440.67 6946.6,1252.05 
  7407.09,1080.17 7848.93,929.608 8266.95,804.755 8656.11,709.665 9011.51,647.934 9328.39,622.547 9602.16,635.588 9828.71,688.172 10004.3,780.212 10126.1,910.245 
  10192.4,1075.33 10202.9,1271.05 10159.2,1491.55 10065.3,1729.71 9927.43,1977.39 9754.31,2225.84 9557.07,2466.11 9348.77,2689.61 9143.65,2888.54 8956.2,3056.36 
  8799.88,3188 8685.87,3280.13 8622.12,3330.86 8613.83,3338.75 8661.74,3303.75 8762.42,3226.85 8908.61,3110.11 9089.85,2956.85 9293.39,2771.77 9505.19,2560.96 
  9711.06,2331.71 9897.68,2092.15 10053.3,1850.79 10168.5,1616.04 10235.9,1395.87 10250.8,1197.69 10211.1,1027.76 10116.1,890.332 9966.85,788.473 9765.78,723.849 
  9516.04,696.792 9221.48,706.451 8886.35,750.965 8515.18,827.645 8112.68,933.155 7683.7,1063.68 7233.24,1215.09 6766.45,1383.05 6288.65,1563.16 5805.39,1751.05 
  5322.39,1942.41 4845.53,2133.12 4380.83,2319.24 3934.32,2497.04 3511.82,2663.06 3118.7,2814.14 2759.62,2947.43 2438.24,3060.46 2157.05,3151.11 1917.25,3217.63 
  1718.78,3258.7 1560.54,3273.39 1440.85,3261.25 1357.88,3222.37 1310.15,3157.59 1296.76,3068.72 1318.52,2957.98 1377.47,2828.4 1476.11,2684.12 1616.98,2530.15 
  1802.14,2372.19 2032.47,2216.34 2307.36,2068.83 2624.44,1935.64 2979.71,1822.17 3367.76,1733.05 3782.2,1671.92 4216.1,1641.4 4662.08,1643.11 5112.82,1677.75 
  5561.25,1745.12 6000.8,1844.32 6425.48,1973.84 6829.97,2131.68 7209.69,2315.48 7560.7,2522.59 7879.77,2750.15 8164.29,2995.18 8412.24,3254.63 8622.2,3525.4 
  8793.31,3804.51 8925.13,4088.98 9017.63,4375.85 9071.17,4662.29 9086.49,4945.58 9064.62,5223.11 9006.9,5492.42 8914.92,5751.19 8790.5,5997.22 8635.68,6228.52 
  8452.68,6443.2 8243.89,6639.59 8011.83,6816.17 7759.18,6971.57 7488.69,7104.64 7203.23,7214.37 6905.73,7299.97 6599.19,7360.8 6286.65,7396.43 5971.16,7406.59 
  5655.79,7391.21 5343.62,7350.4 5037.68,7284.46 4740.99,7193.88 4456.51,7079.3 4187.12,6941.58 3935.62,6781.74 3704.73,6600.97 3497.03,6400.65 3314.96,6182.31 
  3160.84,5947.68 3036.76,5698.62 2944.67,5437.16 2886.27,5165.49 2863.02,4885.94 2876.11,4600.98 2926.44,4313.21 3014.55,4025.35 3140.64,3740.22 3304.42,3460.8 
  3505.23,3190.01 3742.03,2930.74 4013.13,2686 4316.24,2458.77 4648.4,2251.94 5006.06,2068.16 5385.08,1909.83 5780.67,1778.97 6187.47,1677.2 6599.57,1605.56 
  7010.61,1564.47 7413.9,1553.6 7802.65,1571.75 8170.26,1616.83 8510.6,1685.81 8818.31,1774.83 9089.11,1879.32 9319.91,1994.19 9508.88,2114.13 9655.34,2233.88 
  9759.4,2348.5 9821.38,2453.46 9841.95,2545 9821.55,2620.08 9760.32,2676.48 9658.11,2712.72 9514.68,2728 9329.89,2722.11 9104.02,2695.28 8837.96,2648.2 
  8533.42,2581.85 8193.06,2497.6 7820.7,2397.22 7421.14,2282.84 6999.06,2156.65 6559.8,2021.2 6108.91,1879.32 5651.99,1734.05 5194.57,1588.7 4742.03,1446.71 
  4299.57,1311.7 3872.19,1187.36 3464.65,1077.36 3081.55,985.301 2727.26,914.58 2405.94,868.272 2121.5,848.977 1877.48,858.69 1677.04,898.632 1522.75,969.088 
  1416.38,1069.29 1358.66,1197.3 1349.01,1350.01 1385.3,1523.12 1463.64,1711.22 1578.21,1908.01 1721.27,2106.5 1883.3,2299.42 2053.43,2479.56 2220.05,2640.16 
  2371.59,2775.29 2497.5,2880.08 2588.77,2950.46 2639.06,2983.7 2645.02,2978.02 2606.71,2932.73 2527.7,2848.38 2414.79,2726.87 2277.4,2571.46 2126.72,2386.83 
  1974.84,2178.92 1833.84,1954.72 1715.01,1722.05 1628.28,1489.25 1581.67,1265.05 1580.77,1057.98 1629.14,874.815 1728.34,721.547 1878.15,602.898 2076.95,522.173 
  2321.98,481.259 2609.68,480.695 2935.91,519.787 3296.19,596.757 3685.77,708.91 4099.81,852.799 4533.33,1024.4 4981.26,1219.24 5438.48,1432.56 5899.77,1659.41 
  6359.77,1894.76 6813.05,2133.57 7254.18,2370.9 7677.84,2602.01 8078.92,2822.38 8452.79,3027.78 8795.43,3214.38 9103.72,3378.8 9375.64,3518.15 9610.36,3630.14 
  9808.26,3713.09 9970.71,3765.96 10099.7,3788.28 10197.1,3780.12 10264.7,3742.13 10303,3675.48 10311.3,3581.95 10287.8,3464.04 10229.6,3325.03 10133.3,3168.96 
  9995.59,3000.64 9813.96,2825.53 9587.07,2649.46 9315.21,2478.46 9000.61,2318.42 8646.8,2174.71 8258.63,2052.05 7842.04,1954.38 7403.63,1884.74 6950.36,1845.24 
  6489.22,1837.16 6027.02,1860.95 5570.25,1916.35 5124.9,2002.46 4696.4,2117.87 4289.49,2260.76 3908.36,2428.97 3556.58,2620.05 3237.09,2831.37 2952.28,3060.16 
  2703.95,3303.57 2493.44,3558.69 2321.58,3822.62 2188.76,4092.47 2094.98,4365.42 2039.87,4638.69 2022.68,4909.63 2042.39,5175.66 2097.67,5434.37 2186.94,5683.44 
  2308.39,5920.74 2460,6144.26 2639.57,6352.19 2844.73,6542.85 3073,6714.78 3321.75,6866.68 3588.29,6997.42 3869.81,7106.08 4163.49,7191.92 4466.46,7254.38 
  4775.82,7293.09 5088.68,7307.87 5402.16,7298.72 5713.43,7265.81 6019.7,7209.51 6318.24,7130.33 6606.42,7029 6881.68,6906.37 7141.6,6763.48 7383.9,6601.51 
  7606.41,6421.78 7807.14,6225.79 7984.29,6015.16 8136.25,5791.65 8261.61,5557.14 8359.25,5313.61 8428.26,5063.14 8468.04,4807.92 8478.27,4550.18 8458.98,4292.23 
  8410.53,4036.39 8333.65,3785.01 8229.47,3540.42 8099.53,3304.86 7945.76,3080.52 7770.54,2869.4 7576.62,2673.36 7367.16,2493.98 7145.66,2332.59 6915.93,2190.18 
  6682.03,2067.36 6448.2,1964.35 6218.82,1880.99 5998.15,1816.61 5790.41,1770.17 5599.59,1740.25 5429.38,1725.06 5283.08,1722.55 5163.52,1730.49 5073.04,1746.51 
  5013.42,1768.23 4985.93,1793.32 4991.32,1819.57 5029.79,1844.96 5101.03,1867.67 5204.24,1886.15 5338.11,1899.11 5500.87,1905.54 5690.38,1904.71 5904.21,1896.18 
  6139.42,1879.76 6392.82,1855.55 6661.11,1823.9 6940.88,1785.39 7228.64,1740.86 7520.82,1691.35 7813.87,1638.09 8104.28,1582.47 8388.65,1526.03 8663.77,1470.37 
  8926.63,1417.15 9174.49,1368.02 9404.88,1324.54 9615.66,1288.17 9805.02,1260.18 9971.47,1241.6 10113.9,1233.11 10231.7,1235.01 10324.5,1247.1 10393,1268.73 
  10438.3,1298.87 10462.1,1335.97 10466.9,1378.04 10455.4,1422.7 10430.9,1467.26 10397,1508.86 10357.3,1544.53 10315.3,1571.41 10274.3,1586.81 10236.7,1588.39 
  10204.4,1574.28 10178.2,1543.21 10157.6,1494.55 10141.5,1428.5 10127.4,1346.06 10112.2,1249.04 10092,1139.99 10062.7,1022.22 10019.9,899.627 9959.82,776.567 
  9878.74,657.646 9773.81,547.534 9642.91,450.756 9484.8,371.508 9299.09,313.481 9086.24,279.722 8847.45,272.538 8584.55,293.426 8299.93,343.053 7996.36,421.264 
  7676.94,527.111 7344.98,658.905 7003.94,814.298 6657.31,990.384 6308.62,1183.77 5961.33,1390.69 5618.83,1607.11 5284.42,1828.79 4961.21,2051.44 4652.1,2270.79 
  4359.74,2482.7 4086.46,2683.22 3834.23,2868.76 3604.62,3036.08 3398.84,3182.4 3217.73,3305.45 3061.85,3403.46 2931.57,3475.23 2827.16,3520.11 2748.95,3538.04 
  2697.36,3529.52 2673.28,3495.41 2677.84,3437.14 2712.33,3356.71 2778.2,3256.63 2876.83,3139.9 3009.44,3009.93 3176.77,2870.52 3379.03,2725.73 3615.62,2579.82 
  3885.18,2437.08 4185.45,2301.73 4513.45,2177.75 4865.48,2068.75 5237.36,1977.9 5624.53,1907.81 6022.26,1860.57 6425.74,1837.76 6829.94,1840.37 7230.03,1868.88 
  7621.41,1923.24 7999.78,2002.94 8361.17,2107.06 8701.99,2234.31 9019.08,2383.1 9309.7,2551.57 9571.55,2737.63 9802.78,2939.06 10002,3153.49 10168.1,3378.5 
  10300.6,3611.6 10399.3,3850.34 10464.3,4092.29 10496.2,4335.11 10495.7,4576.51 10464.1,4814.35 10402.5,5046.62 10312.7,5271.47 10196.3,5487.21 10055.4,5692.34 
  9891.95,5885.56 9708.11,6065.73 9506.09,6231.96 9288.15,6383.5 9056.53,6519.83 8813.45,6640.59 8561.11,6745.62 8301.6,6834.92 8036.97,6908.63 7769.12,6967.07 
  7499.86,7010.65 7230.85,7039.93 6963.63,7055.56 6699.55,7058.25 6439.84,7048.82 6185.56,7028.12 5937.6,6997.03 5696.73,6956.48 5463.52,6907.38 5238.43,6850.67 
  5021.78,6787.23 4813.73,6717.95 4614.36,6643.67 4423.62,6565.17 4241.36,6483.2 4067.38,6398.42 3901.38,6311.46 3743.01,6222.85 3591.89,6133.07 3447.59,6042.53 
  3309.69,5951.55 3177.74,5860.41 3051.32,5769.31 2930,5678.39 2813.38,5587.74 2701.1,5497.4 2592.83,5407.35 2488.29,5317.56 2387.22,5227.94 2289.44,5138.4 
  2194.8,5048.8 2103.2,4959.01 2014.58,4868.9 1928.94,4778.3 1846.31,4687.09 1766.76,4595.12 1690.4,4502.26 1617.36,4408.41 1547.81,4313.46 1481.93,4217.34 
  1419.91,4119.99 1361.97,4021.36 1308.32,3921.43 1259.18,3820.21 1214.78,3717.7 1175.33,3613.94 1141.04,3508.98 1112.11,3402.89 1088.75,3295.76 1071.14,3187.67 
  1059.47,3078.74 1053.91,2969.1 1054.63,2858.88 1061.79,2748.24 1075.55,2637.34 1096.07,2526.38 1123.52,2415.57 1158.06,2305.13 1199.85,2195.31 1249.05,2086.42 
  1305.83,1978.76 1370.35,1872.68 1442.75,1768.57 1523.17,1666.86 1611.71,1568 1708.47,1472.48 1813.49,1380.84 1926.75,1293.61 2048.19,1211.38 2177.69,1134.73 
  2315.02,1064.23 2459.9,1000.47 2611.93,943.969 2770.63,895.251 2935.42,854.757 3105.62,822.865 3280.48,799.868 3459.12,785.959 3640.62,781.216 3823.97,785.597 
  4008.11,798.928 4191.95,820.898 4374.39,851.059 4554.29,888.83 4730.55,933.497 4902.1,984.225 5067.91,1040.07 5226.98,1100 5378.41,1162.89 5521.37,1227.57 
  5655.09,1292.84 5778.91,1357.47 5892.25,1420.26 5994.59,1480.04 6085.51,1535.69 6164.68,1586.18 6231.81,1630.59 6286.71,1668.12 6329.19,1698.11 6359.09,1720 
  6376.3,1733.43 6380.71,1738.19 6372.27,1734.23 6350.93,1721.69 6316.68,1700.85 6269.54,1672.19 6209.57,1636.31 6136.87,1593.98 6051.62,1546.07 5954.04,1493.6 
  5844.45,1437.66 5723.28,1379.41 5591.01,1320.07 5448.25,1260.88 5295.72,1203.1 5134.23,1147.95 4964.68,1096.62 4788.09,1050.24 4605.53,1009.84 4418.13,976.338 
  4227.09,950.561 4033.63,933.192 3838.98,924.778 3644.37,925.73 3450.99,936.316 3260.01,956.669 3072.53,986.786 2889.59,1026.55 2712.12,1075.71 2540.98,1133.93 
  2376.93,1200.8 2220.59,1275.82 2072.53,1358.42 1933.15,1448.03 1802.81,1544.02 1681.74,1645.75 1570.09,1752.6 1467.95,1863.93 1375.31,1979.13 1292.1,2097.63 
  1218.24,2218.86 1153.57,2342.33 1097.91,2467.53 1051.07,2594.03 1012.84,2721.43 982.997,2849.35 961.323,2977.46 947.591,3105.46 941.583,3233.07 943.084,3360.06 
  951.882,3486.19 967.772,3611.27 990.554,3735.12 1020.03,3857.57 1056.01,3978.48 1098.29,4097.73 1146.68,4215.18 1201,4330.76 1261.04,4444.36 1326.62,4555.93 
  1397.54,4665.39 1473.62,4772.72 1554.68,4877.88 1640.52,4980.88 1730.98,5081.7 1825.9,5180.38 1925.13,5276.94 2028.54,5371.44 2136.03,5463.93 2247.51,5554.47 
  2362.92,5643.13 2482.23,5729.99 2605.45,5815.11 2732.6,5898.57 2863.75,5980.41 2999.01,6060.69 3138.51,6139.42 3282.42,6216.61 3430.93,6292.21 3584.27,6366.16 
  3742.67,6438.33 3906.38,6508.57 4075.66,6576.64 4250.75,6642.28 4431.9,6705.17 4619.31,6764.92 4813.18,6821.11 5013.63,6873.21 5220.74,6920.69 5434.51,6962.93 
  5654.85,6999.26 5881.58,7028.99 6114.42,7051.38 6352.96,7065.68 6596.66,7071.11 6844.86,7066.89 7096.75,7052.28 7351.35,7026.52 7607.58,6988.92 7864.17,6938.85 
  8119.73,6875.74 8372.72,6799.1 8621.48,6708.58 8864.21,6603.9 9099.02,6484.96 9323.93,6351.78 9536.9,6204.56 9735.82,6043.65 9918.58,5869.59 10083.1,5683.12 
  10227.2,5485.15 10348.9,5276.8 10446.3,5059.36 10517.6,4834.31 10561.2,4603.3 10575.6,4368.16 10559.6,4130.86 10512.2,3893.5 10432.8,3658.29 10320.9,3427.53 
  10176.7,3203.56 10000.4,2988.74 9792.83,2785.44 9555.07,2595.93 9288.69,2422.42 8995.66,2266.98 8678.38,2131.46 8339.63,2017.52 7982.6,1926.52 7610.87,1859.5 
  7228.33,1817.12 6839.17,1799.64 6447.85,1806.85 6058.97,1838.04 5677.24,1891.97 5307.3,1966.88 4953.49,2060.53 4619.93,2170.16 4310.31,2292.61 4027.83,2424.32 
  3775.03,2561.47 3553.79,2700.06 3365.24,2836.05 3209.81,2965.48 3087.32,3084.58 2997.05,3189.87 2937.95,3278.26 2908.81,3347.04 2908.38,3394.01 2935.51,3417.4 
  2989.23,3415.97 3068.72,3389.03 3173.28,3336.44 3302.48,3258.46 3455.93,3155.87 3633.11,3030.01 3833.34,2882.71 4055.68,2716.33 4298.92,2533.64 4561.49,2337.84 
  4841.52,2132.47 5136.84,1921.3 5445,1708.29 5763.32,1497.47 6088.93,1292.87 6418.8,1098.38 6749.79,917.7 7078.68,754.225 7402.22,610.941 7717.21,490.352 
  8020.49,394.391 8309.07,324.349 8580.19,280.823 8831.4,263.676 9060.65,272.023 9266.41,304.236 9447.75,357.994 9604.43,430.355 9736.92,517.864 9846.44,616.69 
  9934.93,722.784 10004.9,832.047 10059.5,940.503 10101.9,1044.46 10135.7,1140.67 10164.2,1226.43 10190.3,1299.74 10216.4,1359.3 10244.3,1404.49 10274.7,1435.31 
  10307.8,1452.47 10342.5,1457.22 10377.4,1451.26 10410.3,1436.67 10438.5,1415.73 10459.3,1390.86 10469.6,1364.48 10466.8,1338.88 10448.2,1316.15 10411.8,1298.1 
  10355.6,1286.16 10278.6,1281.39 10179.9,1284.47 10059.3,1295.67 9917.1,1314.94 9753.98,1341.81 9571.03,1375.54 9369.74,1415.14 9151.92,1459.45 8919.7,1507.18 
  8675.45,1556.94 8421.79,1607.33 8161.54,1656.98 7897.66,1704.59 7633.26,1748.96 7371.52,1789.03 7115.68,1823.92 6868.97,1852.93 6634.57,1875.58 6415.55,1891.61 
  6214.83,1901.02 6035.14,1904.04 5878.91,1901.13 5748.16,1893.02 5644.66,1880.69 5569.74,1865.37 5524.34,1848.48 5508.85,1831.69 5523.19,1816.83 5566.76,1805.87 
  5638.45,1800.85 5736.66,1803.88 5859.29,1817 6003.81,1842.18 6167.29,1881.2 6346.43,1935.63 6537.61,2006.73 6737.02,2095.43 6940.68,2202.28 7144.55,2327.41 
  7344.73,2470.63 7537.49,2631.4 7719.28,2808.83 7886.78,3001.71 8037,3208.57 8167.31,3427.73 8275.42,3657.3 8359.44,3895.26 8417.85,4139.51 8449.5,4387.84 
  8453.63,4638.05 8429.81,4887.9 8377.94,5135.17 8298.26,5377.7 8191.31,5613.36 8057.89,5840.14 7899.05,6056.12 7716.1,6259.48 7510.56,6448.48 7284.15,6621.53 
  7038.78,6777.16 6776.52,6914.06 6499.59,7031.05 6210.37,7127.11 5911.31,7201.36 5605.01,7253.12 5294.14,7281.84 4981.42,7287.16 4669.66,7268.9 4361.7,7227.06 
  4060.38,7161.81 3768.57,7073.52 3489.12,6962.73 3224.83,6830.2 2978.47,6676.83 2752.72,6503.76 2550.18,6312.26 2373.32,6103.83 2224.5,5880.13 2105.89,5642.99 
  2019.48,5394.4 1967.08,5136.52 1950.23,4871.64 1970.24,4602.22 2028.1,4330.79 2124.52,4060.05 2259.83,3792.74 2434.01,3531.68 2646.62,3279.75 2896.78,3039.84 
  3183.14,2814.8 3503.83,2607.47 3856.47,2420.55 4238.07,2256.64 4645.06,2118.1 5073.28,2007.03 5517.92,1925.18 5973.62,1873.88 6434.45,1853.92 6894.03,1865.49 
  7345.64,1908.05 7782.4,1980.29 8197.46,2080.02 8584.34,2204.2 8937.24,2348.91 9251.32,2509.46 9523.08,2680.52 9750.5,2856.35 9933.17,3031.05 10072.2,3198.82 
  10169.9,3354.25 10229.5,3492.61 10254.4,3609.93 10247.4,3702.93 10210.5,3769.1 10144.4,3806.61 10048.7,3814.21 9922.06,3791.22 9762.6,3737.51 9568.58,3653.54 
  9338.75,3540.35 9072.68,3399.6 8770.99,3233.5 8435.37,3044.83 8068.71,2836.98 7675.23,2614.08 7259.3,2380.33 6825.7,2140.25 6379.59,1898.63 5926.25,1660.47 
  5470.98,1430.81 5019,1214.72 4575.49,1017.15 4145.52,842.867 3734.09,696.306 3346.11,581.456 2986.39,501.701 2659.63,459.665 2370.22,457.047 2122.22,494.474 
  1919.15,571.339 1763.71,685.699 1657.48,834.223 1600.63,1012.21 1591.63,1213.7 1627.02,1431.62 1701.26,1658.12 1806.76,1884.91 1934.06,2103.67 2072.29,2306.55 
  2209.8,2486.55 2335.09,2637.89 2437.64,2756.21 2508.57,2838.33 2541.53,2882.5 2533.19,2888.2 2483.5,2856.1 2395.68,2788.05 2275.9,2687 2132.67,2556.98 
  1976.11,2402.98 1817.15,2230.83 1666.73,2047 1535.13,1858.39 1431.37,1672.15 1362.77,1494.84 1334.85,1332.35 1351.32,1189.76 1414.26,1071.05 1524.21,979.093 
  1680.51,915.605 1881.5,881.198 2124.74,875.483 2407.22,897.196 2725.51,944.344 3075.82,1014.36 3454.11,1104.24 3856.07,1210.71 4277.23,1330.27 4712.92,1459.37 
  5158.2,1594.47 5607.97,1732.12 6056.92,1868.99 6499.65,2001.99 6930.67,2128.2 7344.58,2244.97 7736.14,2349.9 8100.48,2440.88 8433.29,2516.05 8730.95,2573.85 
  8990.68,2613.07 9210.55,2632.81 9389.39,2632.53 9526.81,2612.18 9622.71,2572.17 9677.12,2513.47 9690.03,2437.73 9661.27,2347.34 9590.55,2245.42 9477.53,2135.83 
  9322.12,2023.01 9124.73,1911.86 8886.63,1807.46 8610.1,1714.91 8298.66,1638.97 7957.13,1583.86 7590.92,1553.06 7206.01,1549.26 6808.84,1574.26 6406.02,1629.01 
  6004.02,1713.66 5608.99,1827.63 5226.65,1969.71 4862.19,2138.19 4520.17,2330.94 4204.53,2545.49 3918.56,2779.18 3664.89,3029.18 3445.62,3292.56 3262.28,3566.36 
  3115.88,3847.62 3006.93,4133.4 2935.55,4420.86 2901.45,4707.21 2903.95,4989.81 2942.1,5266.1 3014.62,5533.68 3119.99,5790.27 3256.44,6033.75 3422,6262.15 
  3614.49,6473.67 3831.58,6666.65 4070.8,6839.62 4329.52,6991.27 4605.03,7120.48 4894.5,7226.27 5195.02,7307.88 5503.64,7364.72 5817.34,7396.35 6133.08,7402.56 
  6447.79,7383.29 6758.42,7338.68 7061.91,7269.06 7355.25,7174.93 7635.46,7056.98 7899.64,6916.09 8144.96,6753.31 8368.69,6569.88 8568.21,6367.2 8741.04,6146.85 
  8884.85,5910.59 8997.47,5660.34 9076.95,5398.17 9121.53,5126.31 9129.71,4847.15 9100.26,4563.19 9032.23,4277.07 8925.01,3991.56 8778.36,3709.53 8592.43,3433.91 
  8367.81,3167.73 8105.57,2914.03 7807.32,2675.87 7475.22,2456.26 7112.07,2258.13 6721.31,2084.27 6307.08,1937.24 5874.22,1819.31 5428.26,1732.33 4975.37,1677.62 
  4522.3,1655.89 4076.2,1667.06 3644.48,1710.17 3234.47,1783.31 2853.09,1883.52 2506.52,2006.85 2199.78,2148.41 1936.4,2302.58 1718.21,2463.24 1545.31,2624.11 
  1416.32,2779.13 1328.85,2922.69 1280.11,3049.93 1267.54,3156.91 1289.32,3240.72 1344.75,3299.4 1434.69,3331.52 1560.79,3336.44 1725.1,3314.12 1929.52,3265.06 
  2175.21,3190.2 2462.21,3090.96 2789.21,2969.21 3153.54,2827.23 3551.33,2667.7 3977.81,2493.59 4427.55,2308.22 4894.7,2115.2 5373.24,1918.38 5857.16,1721.85 
  6340.58,1529.89 6817.77,1346.89 7283.24,1177.33 7731.65,1025.67 8157.87,896.29 8556.9,793.31 8923.85,720.505 9254.01,681.119 9542.82,677.699 9786.03,711.913 
  9979.84,784.367 10121.1,894.425 10207.6,1040.08 10238.6,1217.88 10214.8,1422.9 10139,1648.8 10016.4,1888.1 9854.65,2132.5 9663.7,2373.32 9455.67,2601.95 
  9244.2,2810.37 9043.6,2991.47 8867.93,3139.39 8729.83,3249.58 8639.43,3318.93 8603.11,3345.82 8622.84,3330.1 8697.57,3271.69 8821.89,3171.86 8986.67,3033.2 
  9180.02,2859.61 9388.27,2656.43 9597.06,2430.37 9792.39,2189.29 9961.54,1941.82 10093.8,1696.82 10180.8,1462.9 10216.7,1247.99 10198.1,1058.96 10123.8,901.3 
  9994.15,779.051 9811.16,694.765 9577.78,649.559 9297.77,643.246 8975.36,674.488 8615.11,740.987 8221.77,839.663 7800.25,966.837 7355.56,1118.4 6892.86,1289.95 
  6417.44,1476.94 5934.81,1674.77 5450.58,1878.88 4970.62,2084.81 4500.92,2288.24 4047.52,2485.09 3616.28,2671.5 3212.71,2843.93 2841.7,2999.15 2507.26,3134.29 
  2212.25,3246.86 1958.21,3334.77 1745.29,3396.4 1572.4,3430.61 1437.54,3436.81 1338.29,3414.99 1272.7,3365.6 1239.75,3289.68 1239.65,3189.05 1273.93,3066.38 
  1345.21,2925.24 1456.63,2770.12 1611.17,2606.35 1810.88,2439.89 2056.44,2277.04 2346.76,2124.1 2679.05,1986.99 3048.88,1870.92 3450.45,1780.28 3877.07,1718.49 
  4321.53,1687.94 4776.4,1690.02 5234.34,1725.2 5688.39,1793.15 6132.11,1892.82 6559.72,2022.62 6966.07,2180.51 7346.69,2364.09 7697.77,2570.66 8016.17,2797.34 
  8299.41,3041.15 8545.71,3299.09 8753.83,3568.25 8922.84,3845.5 9052.38,4127.88 9142.48,4412.49 9193.58,4696.5 9206.44,4977.22 9182.16,5252.07 9122.1,5518.59 
  9027.87,5774.47 8901.34,6017.57 8744.56,6245.86 8559.77,6457.52 8349.37,6650.86 8115.91,6824.39 7862.07,6976.77 7590.6,7106.86 7304.39,7213.69 7006.36,7296.46 
  6699.49,7354.59 6386.8,7387.64 6071.35,7395.39 5756.18,7377.78 5444.33,7334.94 5138.8,7267.21 4842.57,7175.06 4558.55,7059.2 4289.58,6920.46 4038.41,6759.9 
  3807.68,6578.72 3599.91,6378.29 3417.49,6160.17 3262.63,5926.06 3137.37,5677.85 3043.55,5417.55 2982.79,5147.33 2956.45,4869.53 2965.62,4586.59 3011.03,4301.15 
  3093.17,4015.79 3212.12,3733.29 3367.53,3456.5 3558.57,3188.35 3783.94,2931.77 4041.81,2689.64 4329.8,2464.75 4644.95,2259.75 4983.73,2077.12 5341.98,1919.03 
  5714.92,1787.31 6097.24,1683.33 6483.11,1607.91 6866.39,1561.2 7240.74,1542.62 7599.87,1550.76 7937.76,1583.42 8248.95,1637.62 8528.66,1709.66 8772.99,1795.33 
  8978.88,1890.04 9144.3,1989.05 9268.1,2087.75 9349.66,2181.81 9388.81,2267.4 9385.63,2341.33 9340.3,2401.05 9253.01,2444.73 9123.98,2471.12 8953.6,2479.52 
  8742.64,2469.71 8492.45,2441.93 8205.2,2396.81 7884.05,2335.42 7532.48,2259.02 7154.65,2169.16 6755.21,2067.7 6339.19,1956.77 5911.79,1838.77 5478.26,1716.33 
  5043.84,1592.31 4613.61,1469.76 4192.5,1351.86 3785.23,1241.9 3396.34,1143.18 3030.12,1058.96 2690.67,992.341 2381.79,946.139 2107.01,922.791 1869.52,924.202 
  1672.06,951.616 1516.79,1005.48 1405.09,1085.33 1337.43,1189.72 1313.12,1316.12 1330.12,1460.96 1384.87,1619.71 1472.19,1786.95 1585.32,1956.67 1716.05,2122.52 
  1855.12,2278.1 1992.64,2417.25 2118.78,2534.35 2224.65,2624.73 2302.65,2684.36 2347.33,2710.24 2355.95,2700.49 2328.77,2654.46 2269.04,2572.73 2182.64,2457.11 
  2077.66,2310.67 1963.65,2137.69 1851.04,1943.65 1750.33,1735.08 1671.48,1519.5 1623.18,1305.24 1612.19,1100.48 1643.47,912.31 1720.11,747.476 1843.4,611.692 
  2013.06,509.464 2227.47,443.989 2484,417.135 2779.22,429.486 3109.18,480.439 3469.55,568.332 3855.77,690.594 4263.13,843.898 4686.81,1024.3 5121.96,1227.41 
  5563.64,1448.47 6006.86,1682.54 6446.57,1924.54 6877.72,2169.38 7295.35,2412.06 7694.65,2647.76 8071.12,2871.87 8420.76,3080.14 8740.2,3268.7 9026.98,3434.19 
  9279.59,3573.83 9497.57,3685.44 9681.39,3767.47 9832.21,3819.01 9951.6,3839.77 10041,3830 10101.1,3790.48 10132.1,3722.59 10132.8,3628.29 10101.1,3510.2 
  10034.3,3371.64 9929.12,3216.61 9782.84,3049.83 9593.4,2876.54 9360.12,2702.38 9083.82,2533.12 8766.58,2374.23 8412,2230.85 8024.86,2107.52 7610.83,2008 
  7176.2,1935.3 6727.57,1891.55 6271.57,1878.08 5814.72,1895.48 5363.22,1943.64 4922.81,2021.83 4498.69,2128.85 4095.57,2263.04 3717.53,2422.4 3368.1,2604.64 
  3050.21,2807.27 2766.25,3027.63 2518.09,3262.98 2307.08,3510.49 2134.12,3767.31 1999.65,4030.61 1903.74,4297.6 1846.04,4565.53 1825.89,4831.76 1842.3,5093.75 
  1893.97,5349.07 1979.38,5595.44 2096.74,5830.71 2244.07,6052.92 2419.21,6260.25 2619.82,6451.07 2843.46,6623.92 3087.55,6777.53 3349.44,6910.83 3626.4,7022.92 
  3915.67,7113.1 4214.45,7180.86 4519.96,7225.88 4829.4,7248.03 5140.04,7247.33 5449.17,7224.03 5754.16,7178.51 6052.46,7111.33 6341.62,7023.23 6619.32,6915.09 
  6883.35,6787.93 7131.66,6642.94 7362.34,6481.41 7573.67,6304.8 7764.12,6114.66 7932.37,5912.65 8077.31,5700.53 8198.08,5480.14 8294.07,5253.4 8364.94,5022.27 
  8410.62,4788.75 8431.35,4554.88 8427.67,4322.68 8400.45,4094.15 8350.87,3871.22 8280.45,3655.77 8191.02,3449.54 8084.72,3254.12 7963.97,3070.93 7831.46,2901.18 
  7690.11,2745.82 7543.01,2605.55 7393.39,2480.81 7244.55,2371.72 7099.8,2278.1 6962.36,2199.47 6835.34,2135.09 6721.64,2083.97 6623.9,2044.86 6544.42,2016.37 
  6485.14,1996.97 6447.63,1985.03 6433.01,1978.91 6441.98,1976.97 6474.83,1977.63 6531.4,1979.4 6611.11,1980.91 6713.01,1980.96 6835.79,1978.49 6977.81,1972.66 
  7137.23,1962.8 7311.85,1948.45 7499.3,1929.36 7697.11,1905.48 7902.73,1876.94 8113.56,1844.08 8326.98,1807.39 8540.38,1767.51 8751.22,1725.22 8957.04,1681.38 
  9155.53,1636.94 9344.55,1592.86 9522.18,1550.13 9686.73,1509.65 9836.81,1472.28 9971.28,1438.75 10089.3,1409.6 10190.5,1385.2 10274.7,1365.67 10341.9,1350.86 
  10392.9,1340.33 10428.3,1333.3 10449.4,1328.8 10457.9,1325.69 10455.5,1322.57 10443.8,1317.9 10424.9,1310.1 10400.4,1297.57 10371.8,1278.82 10340.3,1252.55 
  10306.6,1217.73 10271,1173.67 10233.2,1120.13 10192.3,1057.3 10146.9,985.923 10095.3,907.246 10035.3,823.029 9964.86,735.489 9881.53,647.225 9783.21,561.148 
  9668.02,480.377 9534.49,408.071 9381.57,347.318 9208.73,301.017 9016,271.759 8803.95,261.725 8573.64,272.6 8326.62,305.503 8064.8,360.953 7790.4,438.859 
  7505.87,538.53 7213.78,658.712 6916.8,797.638 6617.61,953.081 6318.92,1122.41 6023.4,1302.64 5733.77,1490.46 5452.76,1682.29 5182.6,1874.64 4925.33,2064.05 
  4682.87,2247.08 4456.91,2420.48 4248.92,2581.2 4060.13,2726.51 3891.55,2854.05 3744.02,2961.85 3618.23,3048.37 3514.8,3112.55 3434.33,3153.78 3377.48,3171.9 
  3345.01,3167.26 3337.76,3140.63 3356.65,3093.3 3402.7,3026.93 3476.91,2943.62 3580.1,2845.9 3712.87,2736.66 3875.44,2619.06 4067.6,2496.5 4288.62,2372.49 
  4537.24,2250.59 4811.57,2134.3 5109.22,2026.98 5427.25,1931.73 5762.31,1851.37 6110.71,1788.31 6468.53,1744.56 6831.73,1721.65 7196.29,1720.7 7558.23,1742.35 
  7913.61,1786.84 8258.69,1853.98 8589.97,1943.2 8904.27,2053.59 9198.73,2183.93 9470.84,2332.77 9718.47,2498.39 9939.85,2678.95 10133.6,2872.46 10298.8,3076.82 
  10434.7,3289.92 10541,3509.62 10618,3733.79 10665.8,3960.37 10685.2,4187.4 10677.2,4412.99 10642.8,4635.4 10583.4,4853.02 10500.5,5064.43 10395.8,5268.33 
  10271,5463.63 10127.9,5649.4 9968.41,5824.89 9794.33,5989.52 9607.51,6142.87 9409.75,6284.69 9202.78,6414.84 8988.26,6533.35 8767.74,6640.35 8542.67,6736.07 
  8314.36,6820.82 8084.02,6895.01 7852.73,6959.07 7621.41,7013.5 7390.91,7058.8 7161.9,7095.49 6934.96,7124.11 6710.58,7145.17 6489.11,7159.15 6270.84,7166.54 
  6055.98,7167.77 
  "/>
<path clip-path="url(#clip280)" d="
M9298.81 1055.86 L10798.5 1055.86 L10798.5 299.855 L9298.81 299.855  Z
  " fill="#ffffff" fill-rule="evenodd" fill-opacity="1"/>
<polyline clip-path="url(#clip280)" style="stroke:#000000; stroke-width:4; stroke-opacity:1; fill:none" points="
  9298.81,1055.86 10798.5,1055.86 10798.5,299.855 9298.81,299.855 9298.81,1055.86 
  "/>
<polyline clip-path="url(#clip280)" style="stroke:#009af9; stroke-width:25; stroke-opacity:1; fill:none" points="
  9416.89,677.855 10125.4,677.855 
  "/>
<path clip-path="url(#clip280)" d="M 0 0 M10330 800.901 Q10318.7 829.837 10308 838.662 Q10297.3 847.487 10279.4 847.487 L10258.1 847.487 L10258.1 825.207 L10273.7 825.207 Q10284.7 825.207 10290.8 819.999 Q10296.9 814.79 10304.2 795.404 L10309 783.251 L10243.5 623.819 L10271.7 623.819 L10322.3 750.555 L10373 623.819 L10401.2 623.819 L10330 800.901 Z" fill="#000000" fill-rule="evenodd" fill-opacity="1" /><path clip-path="url(#clip280)" d="M 0 0 M10437.9 761.26 L10485.7 761.26 L10485.7 596.475 L10433.7 606.892 L10433.7 580.272 L10485.4 569.855 L10514.6 569.855 L10514.6 761.26 L10562.3 761.26 L10562.3 785.855 L10437.9 785.855 L10437.9 761.26 Z" fill="#000000" fill-rule="evenodd" fill-opacity="1" /></svg>
