<?xml version="1.0" encoding="utf-8"?>
<svg xmlns="http://www.w3.org/2000/svg" xmlns:xlink="http://www.w3.org/1999/xlink" width="2600" height="2000" viewBox="0 0 10400 8000">
<defs>
  <clipPath id="clip380">
    <rect x="0" y="0" width="10400" height="8000"/>
  </clipPath>
</defs>
<path clip-path="url(#clip380)" d="
M0 8000 L10400 8000 L10400 0 L0 0  Z
  " fill="#ffffff" fill-rule="evenodd" fill-opacity="1"/>
<defs>
  <clipPath id="clip381">
    <rect x="2080" y="0" width="7281" height="7281"/>
  </clipPath>
</defs>
<path clip-path="url(#clip380)" d="
M4491.27 7342.8 L10352.8 7342.8 L10352.8 312.223 L4491.27 312.223  Z
  " fill="#ffffff" fill-rule="evenodd" fill-opacity="1"/>
<defs>
  <clipPath id="clip382">
    <rect x="4491" y="312" width="5862" height="7032"/>
  </clipPath>
</defs>
<polyline clip-path="url(#clip382)" style="stroke:#000000; stroke-width:2; stroke-opacity:0.1; fill:none" points="
  4657.16,7342.8 4657.16,312.223 
  "/>
<polyline clip-path="url(#clip382)" style="stroke:#000000; stroke-width:2; stroke-opacity:0.1; fill:none" points="
  6039.58,7342.8 6039.58,312.223 
  "/>
<polyline clip-path="url(#clip382)" style="stroke:#000000; stroke-width:2; stroke-opacity:0.1; fill:none" points="
  7422.01,7342.8 7422.01,312.223 
  "/>
<polyline clip-path="url(#clip382)" style="stroke:#000000; stroke-width:2; stroke-opacity:0.1; fill:none" points="
  8804.44,7342.8 8804.44,312.223 
  "/>
<polyline clip-path="url(#clip382)" style="stroke:#000000; stroke-width:2; stroke-opacity:0.1; fill:none" points="
  10186.9,7342.8 10186.9,312.223 
  "/>
<polyline clip-path="url(#clip380)" style="stroke:#000000; stroke-width:4; stroke-opacity:1; fill:none" points="
  4491.27,7342.8 10352.8,7342.8 
  "/>
<polyline clip-path="url(#clip380)" style="stroke:#000000; stroke-width:4; stroke-opacity:1; fill:none" points="
  4657.16,7342.8 4657.16,7258.43 
  "/>
<polyline clip-path="url(#clip380)" style="stroke:#000000; stroke-width:4; stroke-opacity:1; fill:none" points="
  6039.58,7342.8 6039.58,7258.43 
  "/>
<polyline clip-path="url(#clip380)" style="stroke:#000000; stroke-width:4; stroke-opacity:1; fill:none" points="
  7422.01,7342.8 7422.01,7258.43 
  "/>
<polyline clip-path="url(#clip380)" style="stroke:#000000; stroke-width:4; stroke-opacity:1; fill:none" points="
  8804.44,7342.8 8804.44,7258.43 
  "/>
<polyline clip-path="url(#clip380)" style="stroke:#000000; stroke-width:4; stroke-opacity:1; fill:none" points="
  10186.9,7342.8 10186.9,7258.43 
  "/>
<path clip-path="url(#clip380)" d="M 0 0 M4657.16 7488.44 Q4634.59 7488.44 4623.16 7510.72 Q4611.87 7532.86 4611.87 7577.42 Q4611.87 7621.83 4623.16 7644.11 Q4634.59 7666.25 4657.16 7666.25 Q4679.87 7666.25 4691.16 7644.11 Q4702.59 7621.83 4702.59 7577.42 Q4702.59 7532.86 4691.16 7510.72 Q4679.87 7488.44 4657.16 7488.44 M4657.16 7465.29 Q4693.47 7465.29 4712.57 7494.08 Q4731.81 7522.73 4731.81 7577.42 Q4731.81 7631.96 4712.57 7660.75 Q4693.47 7689.39 4657.16 7689.39 Q4620.84 7689.39 4601.6 7660.75 Q4582.51 7631.96 4582.51 7577.42 Q4582.51 7522.73 4601.6 7494.08 Q4620.84 7465.29 4657.16 7465.29 Z" fill="#000000" fill-rule="evenodd" fill-opacity="1" /><path clip-path="url(#clip380)" d="M 0 0 M5924.86 7660.6 L6026.85 7660.6 L6026.85 7685.2 L5889.7 7685.2 L5889.7 7660.6 Q5906.34 7643.39 5934.98 7614.45 Q5963.77 7585.37 5971.15 7576.98 Q5985.19 7561.21 5990.68 7550.36 Q5996.33 7539.37 5996.33 7528.8 Q5996.33 7511.59 5984.17 7500.74 Q5972.17 7489.89 5952.78 7489.89 Q5939.04 7489.89 5923.7 7494.66 Q5908.51 7499.44 5891.15 7509.13 L5891.15 7479.61 Q5908.8 7472.53 5924.13 7468.91 Q5939.47 7465.29 5952.2 7465.29 Q5985.77 7465.29 6005.73 7482.07 Q6025.7 7498.86 6025.7 7526.92 Q6025.7 7540.23 6020.63 7552.24 Q6015.71 7564.11 6002.55 7580.31 Q5998.93 7584.5 5979.54 7604.61 Q5960.16 7624.58 5924.86 7660.6 Z" fill="#000000" fill-rule="evenodd" fill-opacity="1" /><path clip-path="url(#clip380)" d="M 0 0 M6058.83 7469.2 L6173.55 7469.2 L6173.55 7493.79 L6085.59 7493.79 L6085.59 7546.74 Q6091.96 7544.57 6098.32 7543.56 Q6104.69 7542.4 6111.05 7542.4 Q6147.22 7542.4 6168.35 7562.22 Q6189.47 7582.04 6189.47 7615.9 Q6189.47 7650.77 6167.77 7670.15 Q6146.07 7689.39 6106.57 7689.39 Q6092.97 7689.39 6078.79 7687.08 Q6064.76 7684.76 6049.71 7680.13 L6049.71 7650.77 Q6062.73 7657.85 6076.62 7661.33 Q6090.51 7664.8 6105.99 7664.8 Q6131.02 7664.8 6145.63 7651.63 Q6160.24 7638.47 6160.24 7615.9 Q6160.24 7593.33 6145.63 7580.16 Q6131.02 7567 6105.99 7567 Q6094.27 7567 6082.55 7569.6 Q6070.98 7572.21 6058.83 7577.7 L6058.83 7469.2 Z" fill="#000000" fill-rule="evenodd" fill-opacity="1" /><path clip-path="url(#clip380)" d="M 0 0 M7276.83 7469.2 L7391.56 7469.2 L7391.56 7493.79 L7303.59 7493.79 L7303.59 7546.74 Q7309.96 7544.57 7316.33 7543.56 Q7322.69 7542.4 7329.06 7542.4 Q7365.23 7542.4 7386.35 7562.22 Q7407.47 7582.04 7407.47 7615.9 Q7407.47 7650.77 7385.77 7670.15 Q7364.07 7689.39 7324.57 7689.39 Q7310.97 7689.39 7296.79 7687.08 Q7282.76 7684.76 7267.72 7680.13 L7267.72 7650.77 Q7280.74 7657.85 7294.62 7661.33 Q7308.51 7664.8 7323.99 7664.8 Q7349.02 7664.8 7363.63 7651.63 Q7378.25 7638.47 7378.25 7615.9 Q7378.25 7593.33 7363.63 7580.16 Q7349.02 7567 7323.99 7567 Q7312.28 7567 7300.56 7569.6 Q7288.98 7572.21 7276.83 7577.7 L7276.83 7469.2 Z" fill="#000000" fill-rule="evenodd" fill-opacity="1" /><path clip-path="url(#clip380)" d="M 0 0 M7501.65 7488.44 Q7479.09 7488.44 7467.66 7510.72 Q7456.37 7532.86 7456.37 7577.42 Q7456.37 7621.83 7467.66 7644.11 Q7479.09 7666.25 7501.65 7666.25 Q7524.37 7666.25 7535.65 7644.11 Q7547.08 7621.83 7547.08 7577.42 Q7547.08 7532.86 7535.65 7510.72 Q7524.37 7488.44 7501.65 7488.44 M7501.65 7465.29 Q7537.97 7465.29 7557.07 7494.08 Q7576.31 7522.73 7576.31 7577.42 Q7576.31 7631.96 7557.07 7660.75 Q7537.97 7689.39 7501.65 7689.39 Q7465.34 7689.39 7446.1 7660.75 Q7427 7631.96 7427 7577.42 Q7427 7522.73 7446.1 7494.08 Q7465.34 7465.29 7501.65 7465.29 Z" fill="#000000" fill-rule="evenodd" fill-opacity="1" /><path clip-path="url(#clip380)" d="M 0 0 M8653.69 7469.2 L8792.57 7469.2 L8792.57 7481.64 L8714.16 7685.2 L8683.63 7685.2 L8757.42 7493.79 L8653.69 7493.79 L8653.69 7469.2 Z" fill="#000000" fill-rule="evenodd" fill-opacity="1" /><path clip-path="url(#clip380)" d="M 0 0 M8824.55 7469.2 L8939.28 7469.2 L8939.28 7493.79 L8851.31 7493.79 L8851.31 7546.74 Q8857.68 7544.57 8864.04 7543.56 Q8870.41 7542.4 8876.78 7542.4 Q8912.94 7542.4 8934.07 7562.22 Q8955.19 7582.04 8955.19 7615.9 Q8955.19 7650.77 8933.49 7670.15 Q8911.79 7689.39 8872.29 7689.39 Q8858.69 7689.39 8844.51 7687.08 Q8830.48 7684.76 8815.43 7680.13 L8815.43 7650.77 Q8828.45 7657.85 8842.34 7661.33 Q8856.23 7664.8 8871.71 7664.8 Q8896.74 7664.8 8911.35 7651.63 Q8925.97 7638.47 8925.97 7615.9 Q8925.97 7593.33 8911.35 7580.16 Q8896.74 7567 8871.71 7567 Q8859.99 7567 8848.27 7569.6 Q8836.7 7572.21 8824.55 7577.7 L8824.55 7469.2 Z" fill="#000000" fill-rule="evenodd" fill-opacity="1" /><path clip-path="url(#clip380)" d="M 0 0 M9957.92 7660.6 L10005.7 7660.6 L10005.7 7495.82 L9953.72 7506.24 L9953.72 7479.61 L10005.4 7469.2 L10034.6 7469.2 L10034.6 7660.6 L10082.3 7660.6 L10082.3 7685.2 L9957.92 7685.2 L9957.92 7660.6 Z" fill="#000000" fill-rule="evenodd" fill-opacity="1" /><path clip-path="url(#clip380)" d="M 0 0 M10176.5 7488.44 Q10154 7488.44 10142.5 7510.72 Q10131.2 7532.86 10131.2 7577.42 Q10131.2 7621.83 10142.5 7644.11 Q10154 7666.25 10176.5 7666.25 Q10199.2 7666.25 10210.5 7644.11 Q10221.9 7621.83 10221.9 7577.42 Q10221.9 7532.86 10210.5 7510.72 Q10199.2 7488.44 10176.5 7488.44 M10176.5 7465.29 Q10212.8 7465.29 10231.9 7494.08 Q10251.2 7522.73 10251.2 7577.42 Q10251.2 7631.96 10231.9 7660.75 Q10212.8 7689.39 10176.5 7689.39 Q10140.2 7689.39 10121 7660.75 Q10101.9 7631.96 10101.9 7577.42 Q10101.9 7522.73 10121 7494.08 Q10140.2 7465.29 10176.5 7465.29 Z" fill="#000000" fill-rule="evenodd" fill-opacity="1" /><path clip-path="url(#clip380)" d="M 0 0 M10345.4 7488.44 Q10322.8 7488.44 10311.4 7510.72 Q10300.1 7532.86 10300.1 7577.42 Q10300.1 7621.83 10311.4 7644.11 Q10322.8 7666.25 10345.4 7666.25 Q10368.1 7666.25 10379.4 7644.11 Q10390.8 7621.83 10390.8 7577.42 Q10390.8 7532.86 10379.4 7510.72 Q10368.1 7488.44 10345.4 7488.44 M10345.4 7465.29 Q10381.7 7465.29 10400.8 7494.08 Q10420 7522.73 10420 7577.42 Q10420 7631.96 10400.8 7660.75 Q10381.7 7689.39 10345.4 7689.39 Q10309 7689.39 10289.8 7660.75 Q10270.7 7631.96 10270.7 7577.42 Q10270.7 7522.73 10289.8 7494.08 Q10309 7465.29 10345.4 7465.29 Z" fill="#000000" fill-rule="evenodd" fill-opacity="1" /><path clip-path="url(#clip380)" d="M 0 0 M5926.72 7814 L5966.07 7814 L6061.85 7994.7 L6061.85 7814 L6090.2 7814 L6090.2 8030 L6050.85 8030 L5955.08 7849.3 L5955.08 8030 L5926.72 8030 L5926.72 7814 Z" fill="#000000" fill-rule="evenodd" fill-opacity="1" /><path clip-path="url(#clip380)" d="M 0 0 M6115.38 7966.05 L6115.38 7867.96 L6142 7867.96 L6142 7965.04 Q6142 7988.04 6150.97 7999.62 Q6159.94 8011.05 6177.88 8011.05 Q6199.43 8011.05 6211.88 7997.3 Q6224.46 7983.56 6224.46 7959.83 L6224.46 7867.96 L6251.08 7867.96 L6251.08 8030 L6224.46 8030 L6224.46 8005.11 Q6214.77 8019.87 6201.89 8027.1 Q6189.16 8034.19 6172.23 8034.19 Q6144.31 8034.19 6129.84 8016.83 Q6115.38 7999.47 6115.38 7966.05 M6182.36 7864.06 L6182.36 7864.06 M6202.18 7793.02 L6230.97 7793.02 L6183.81 7847.42 L6161.67 7847.42 L6202.18 7793.02 Z" fill="#000000" fill-rule="evenodd" fill-opacity="1" /><path clip-path="url(#clip380)" d="M 0 0 M6405.16 7899.07 Q6415.14 7881.13 6429.03 7872.59 Q6442.92 7864.06 6461.73 7864.06 Q6487.05 7864.06 6500.79 7881.85 Q6514.54 7899.5 6514.54 7932.2 L6514.54 8030 L6487.77 8030 L6487.77 7933.07 Q6487.77 7909.77 6479.52 7898.49 Q6471.28 7887.2 6454.35 7887.2 Q6433.66 7887.2 6421.65 7900.95 Q6409.65 7914.69 6409.65 7938.42 L6409.65 8030 L6382.88 8030 L6382.88 7933.07 Q6382.88 7909.63 6374.64 7898.49 Q6366.39 7887.2 6349.17 7887.2 Q6328.77 7887.2 6316.77 7901.09 Q6304.76 7914.84 6304.76 7938.42 L6304.76 8030 L6277.99 8030 L6277.99 7867.96 L6304.76 7867.96 L6304.76 7893.14 Q6313.87 7878.23 6326.6 7871.14 Q6339.33 7864.06 6356.84 7864.06 Q6374.49 7864.06 6386.79 7873.03 Q6399.23 7882 6405.16 7899.07 Z" fill="#000000" fill-rule="evenodd" fill-opacity="1" /><path clip-path="url(#clip380)" d="M 0 0 M6681.06 7942.33 L6681.06 7955.35 L6558.66 7955.35 Q6560.4 7982.83 6575.16 7997.3 Q6590.06 8011.62 6616.53 8011.62 Q6631.87 8011.62 6646.19 8007.86 Q6660.66 8004.1 6674.84 7996.58 L6674.84 8021.75 Q6660.51 8027.83 6645.47 8031.01 Q6630.42 8034.19 6614.94 8034.19 Q6576.17 8034.19 6553.45 8011.62 Q6530.88 7989.06 6530.88 7950.57 Q6530.88 7910.79 6552.3 7887.49 Q6573.85 7864.06 6610.31 7864.06 Q6643.01 7864.06 6661.96 7885.18 Q6681.06 7906.16 6681.06 7942.33 M6654.44 7934.51 Q6654.15 7912.67 6642.14 7899.65 Q6630.28 7886.63 6610.6 7886.63 Q6588.32 7886.63 6574.87 7899.21 Q6561.56 7911.8 6559.53 7934.66 L6654.44 7934.51 Z" fill="#000000" fill-rule="evenodd" fill-opacity="1" /><path clip-path="url(#clip380)" d="M 0 0 M6802.87 7892.85 Q6798.39 7890.24 6793.04 7889.08 Q6787.83 7887.78 6781.46 7887.78 Q6758.89 7887.78 6746.74 7902.54 Q6734.73 7917.15 6734.73 7944.64 L6734.73 8030 L6707.97 8030 L6707.97 7867.96 L6734.73 7867.96 L6734.73 7893.14 Q6743.12 7878.38 6756.58 7871.29 Q6770.03 7864.06 6789.27 7864.06 Q6792.02 7864.06 6795.35 7864.49 Q6798.68 7864.78 6802.73 7865.5 L6802.87 7892.85 Z" fill="#000000" fill-rule="evenodd" fill-opacity="1" /><path clip-path="url(#clip380)" d="M 0 0 M6887.07 7886.63 Q6865.66 7886.63 6853.22 7903.41 Q6840.78 7920.05 6840.78 7949.12 Q6840.78 7978.2 6853.08 7994.99 Q6865.52 8011.62 6887.07 8011.62 Q6908.34 8011.62 6920.78 7994.84 Q6933.23 7978.06 6933.23 7949.12 Q6933.23 7920.33 6920.78 7903.55 Q6908.34 7886.63 6887.07 7886.63 M6887.07 7864.06 Q6921.8 7864.06 6941.62 7886.63 Q6961.44 7909.19 6961.44 7949.12 Q6961.44 7988.91 6941.62 8011.62 Q6921.8 8034.19 6887.07 8034.19 Q6852.21 8034.19 6832.39 8011.62 Q6812.71 7988.91 6812.71 7949.12 Q6812.71 7909.19 6832.39 7886.63 Q6852.21 7864.06 6887.07 7864.06 Z" fill="#000000" fill-rule="evenodd" fill-opacity="1" /><path clip-path="url(#clip380)" d="M 0 0 M7190.17 7892.56 L7190.17 7804.88 L7216.79 7804.88 L7216.79 8030 L7190.17 8030 L7190.17 8005.69 Q7181.78 8020.16 7168.9 8027.25 Q7156.17 8034.19 7138.23 8034.19 Q7108.86 8034.19 7090.34 8010.76 Q7071.97 7987.32 7071.97 7949.12 Q7071.97 7910.93 7090.34 7887.49 Q7108.86 7864.06 7138.23 7864.06 Q7156.17 7864.06 7168.9 7871.14 Q7181.78 7878.09 7190.17 7892.56 M7099.46 7949.12 Q7099.46 7978.49 7111.47 7995.28 Q7123.62 8011.91 7144.74 8011.91 Q7165.86 8011.91 7178.02 7995.28 Q7190.17 7978.49 7190.17 7949.12 Q7190.17 7919.76 7178.02 7903.12 Q7165.86 7886.34 7144.74 7886.34 Q7123.62 7886.34 7111.47 7903.12 Q7099.46 7919.76 7099.46 7949.12 Z" fill="#000000" fill-rule="evenodd" fill-opacity="1" /><path clip-path="url(#clip380)" d="M 0 0 M7383.31 7942.33 L7383.31 7955.35 L7260.92 7955.35 Q7262.65 7982.83 7277.41 7997.3 Q7292.31 8011.62 7318.79 8011.62 Q7334.12 8011.62 7348.44 8007.86 Q7362.91 8004.1 7377.09 7996.58 L7377.09 8021.75 Q7362.77 8027.83 7347.72 8031.01 Q7332.67 8034.19 7317.19 8034.19 Q7278.42 8034.19 7255.71 8011.62 Q7233.14 7989.06 7233.14 7950.57 Q7233.14 7910.79 7254.55 7887.49 Q7276.11 7864.06 7312.56 7864.06 Q7345.26 7864.06 7364.21 7885.18 Q7383.31 7906.16 7383.31 7942.33 M7356.69 7934.51 Q7356.4 7912.67 7344.39 7899.65 Q7332.53 7886.63 7312.85 7886.63 Q7290.57 7886.63 7277.12 7899.21 Q7263.81 7911.8 7261.78 7934.66 L7356.69 7934.51 Z" fill="#000000" fill-rule="evenodd" fill-opacity="1" /><path clip-path="url(#clip380)" d="M 0 0 M7505.42 7867.96 L7532.04 7867.96 L7532.04 8030 L7505.42 8030 L7505.42 7867.96 M7505.42 7804.88 L7532.04 7804.88 L7532.04 7838.59 L7505.42 7838.59 L7505.42 7804.88 Z" fill="#000000" fill-rule="evenodd" fill-opacity="1" /><path clip-path="url(#clip380)" d="M 0 0 M7586.29 7821.96 L7586.29 7867.96 L7641.12 7867.96 L7641.12 7888.65 L7586.29 7888.65 L7586.29 7976.61 Q7586.29 7996.43 7591.64 8002.08 Q7597.14 8007.72 7613.78 8007.72 L7641.12 8007.72 L7641.12 8030 L7613.78 8030 Q7582.96 8030 7571.24 8018.57 Q7559.52 8006.99 7559.52 7976.61 L7559.52 7888.65 L7539.99 7888.65 L7539.99 7867.96 L7559.52 7867.96 L7559.52 7821.96 L7586.29 7821.96 Z" fill="#000000" fill-rule="evenodd" fill-opacity="1" /><path clip-path="url(#clip380)" d="M 0 0 M7807.64 7942.33 L7807.64 7955.35 L7685.25 7955.35 Q7686.98 7982.83 7701.74 7997.3 Q7716.64 8011.62 7743.12 8011.62 Q7758.45 8011.62 7772.78 8007.86 Q7787.24 8004.1 7801.42 7996.58 L7801.42 8021.75 Q7787.1 8027.83 7772.05 8031.01 Q7757.01 8034.19 7741.53 8034.19 Q7702.75 8034.19 7680.04 8011.62 Q7657.47 7989.06 7657.47 7950.57 Q7657.47 7910.79 7678.88 7887.49 Q7700.44 7864.06 7736.9 7864.06 Q7769.59 7864.06 7788.55 7885.18 Q7807.64 7906.16 7807.64 7942.33 M7781.02 7934.51 Q7780.73 7912.67 7768.73 7899.65 Q7756.86 7886.63 7737.19 7886.63 Q7714.91 7886.63 7701.45 7899.21 Q7688.14 7911.8 7686.12 7934.66 L7781.02 7934.51 Z" fill="#000000" fill-rule="evenodd" fill-opacity="1" /><path clip-path="url(#clip380)" d="M 0 0 M7929.46 7892.85 Q7924.97 7890.24 7919.62 7889.08 Q7914.41 7887.78 7908.05 7887.78 Q7885.48 7887.78 7873.33 7902.54 Q7861.32 7917.15 7861.32 7944.64 L7861.32 8030 L7834.55 8030 L7834.55 7867.96 L7861.32 7867.96 L7861.32 7893.14 Q7869.71 7878.38 7883.16 7871.29 Q7896.62 7864.06 7915.86 7864.06 Q7918.61 7864.06 7921.94 7864.49 Q7925.26 7864.78 7929.31 7865.5 L7929.46 7892.85 Z" fill="#000000" fill-rule="evenodd" fill-opacity="1" /><path clip-path="url(#clip380)" d="M 0 0 M8031.02 7948.55 Q7998.76 7948.55 7986.32 7955.92 Q7973.87 7963.3 7973.87 7981.1 Q7973.87 7995.28 7983.13 8003.67 Q7992.54 8011.91 8008.6 8011.91 Q8030.73 8011.91 8044.04 7996.29 Q8057.5 7980.52 8057.5 7954.48 L8057.5 7948.55 L8031.02 7948.55 M8084.12 7937.55 L8084.12 8030 L8057.5 8030 L8057.5 8005.4 Q8048.38 8020.16 8034.78 8027.25 Q8021.18 8034.19 8001.51 8034.19 Q7976.62 8034.19 7961.87 8020.31 Q7947.25 8006.27 7947.25 7982.83 Q7947.25 7955.49 7965.48 7941.6 Q7983.86 7927.71 8020.17 7927.71 L8057.5 7927.71 L8057.5 7925.11 Q8057.5 7906.74 8045.34 7896.75 Q8033.34 7886.63 8011.49 7886.63 Q7997.6 7886.63 7984.44 7889.95 Q7971.27 7893.28 7959.12 7899.94 L7959.12 7875.34 Q7973.73 7869.7 7987.47 7866.95 Q8001.22 7864.06 8014.24 7864.06 Q8049.39 7864.06 8066.76 7882.28 Q8084.12 7900.51 8084.12 7937.55 Z" fill="#000000" fill-rule="evenodd" fill-opacity="1" /><path clip-path="url(#clip380)" d="M 0 0 M8228.65 7874.18 L8228.65 7899.07 Q8217.36 7892.85 8205.93 7889.81 Q8194.65 7886.63 8183.07 7886.63 Q8157.18 7886.63 8142.86 7903.12 Q8128.53 7919.47 8128.53 7949.12 Q8128.53 7978.78 8142.86 7995.28 Q8157.18 8011.62 8183.07 8011.62 Q8194.65 8011.62 8205.93 8008.59 Q8217.36 8005.4 8228.65 7999.18 L8228.65 8023.78 Q8217.51 8028.99 8205.5 8031.59 Q8193.64 8034.19 8180.18 8034.19 Q8143.58 8034.19 8122.02 8011.19 Q8100.47 7988.19 8100.47 7949.12 Q8100.47 7909.48 8122.17 7886.77 Q8144.01 7864.06 8181.92 7864.06 Q8194.21 7864.06 8205.93 7866.66 Q8217.65 7869.12 8228.65 7874.18 Z" fill="#000000" fill-rule="evenodd" fill-opacity="1" /><path clip-path="url(#clip380)" d="M 0 0 M8256.57 7867.96 L8283.19 7867.96 L8283.19 8030 L8256.57 8030 L8256.57 7867.96 M8256.57 7804.88 L8283.19 7804.88 L8283.19 7838.59 L8256.57 7838.59 L8256.57 7804.88 Z" fill="#000000" fill-rule="evenodd" fill-opacity="1" /><path clip-path="url(#clip380)" d="M 0 0 M8373.9 7886.63 Q8352.49 7886.63 8340.05 7903.41 Q8327.61 7920.05 8327.61 7949.12 Q8327.61 7978.2 8339.9 7994.99 Q8352.34 8011.62 8373.9 8011.62 Q8395.17 8011.62 8407.61 7994.84 Q8420.05 7978.06 8420.05 7949.12 Q8420.05 7920.33 8407.61 7903.55 Q8395.17 7886.63 8373.9 7886.63 M8373.9 7864.06 Q8408.62 7864.06 8428.44 7886.63 Q8448.26 7909.19 8448.26 7949.12 Q8448.26 7988.91 8428.44 8011.62 Q8408.62 8034.19 8373.9 8034.19 Q8339.03 8034.19 8319.21 8011.62 Q8299.54 7988.91 8299.54 7949.12 Q8299.54 7909.19 8319.21 7886.63 Q8339.03 7864.06 8373.9 7864.06 Z" fill="#000000" fill-rule="evenodd" fill-opacity="1" /><path clip-path="url(#clip380)" d="M 0 0 M8610.88 7932.2 L8610.88 8030 L8584.26 8030 L8584.26 7933.07 Q8584.26 7910.06 8575.29 7898.63 Q8566.32 7887.2 8548.38 7887.2 Q8526.82 7887.2 8514.38 7900.95 Q8501.94 7914.69 8501.94 7938.42 L8501.94 8030 L8475.17 8030 L8475.17 7867.96 L8501.94 7867.96 L8501.94 7893.14 Q8511.49 7878.52 8524.36 7871.29 Q8537.38 7864.06 8554.31 7864.06 Q8582.23 7864.06 8596.56 7881.42 Q8610.88 7898.63 8610.88 7932.2 Z" fill="#000000" fill-rule="evenodd" fill-opacity="1" /><path clip-path="url(#clip380)" d="M 0 0 M8777.4 7942.33 L8777.4 7955.35 L8655.01 7955.35 Q8656.74 7982.83 8671.5 7997.3 Q8686.4 8011.62 8712.88 8011.62 Q8728.21 8011.62 8742.53 8007.86 Q8757 8004.1 8771.18 7996.58 L8771.18 8021.75 Q8756.86 8027.83 8741.81 8031.01 Q8726.76 8034.19 8711.28 8034.19 Q8672.51 8034.19 8649.8 8011.62 Q8627.23 7989.06 8627.23 7950.57 Q8627.23 7910.79 8648.64 7887.49 Q8670.2 7864.06 8706.65 7864.06 Q8739.35 7864.06 8758.3 7885.18 Q8777.4 7906.16 8777.4 7942.33 M8750.78 7934.51 Q8750.49 7912.67 8738.48 7899.65 Q8726.62 7886.63 8706.94 7886.63 Q8684.66 7886.63 8671.21 7899.21 Q8657.9 7911.8 8655.87 7934.66 L8750.78 7934.51 Z" fill="#000000" fill-rule="evenodd" fill-opacity="1" /><path clip-path="url(#clip380)" d="M 0 0 M8908.62 7872.74 L8908.62 7897.91 Q8897.34 7892.12 8885.18 7889.23 Q8873.03 7886.34 8860.01 7886.34 Q8840.19 7886.34 8830.21 7892.41 Q8820.37 7898.49 8820.37 7910.64 Q8820.37 7919.9 8827.46 7925.25 Q8834.55 7930.46 8855.96 7935.24 L8865.07 7937.26 Q8893.43 7943.34 8905.29 7954.48 Q8917.3 7965.47 8917.3 7985.29 Q8917.3 8007.86 8899.36 8021.03 Q8881.57 8034.19 8850.32 8034.19 Q8837.3 8034.19 8823.12 8031.59 Q8809.08 8029.13 8793.46 8024.07 L8793.46 7996.58 Q8808.22 8004.25 8822.54 8008.15 Q8836.86 8011.91 8850.9 8011.91 Q8869.7 8011.91 8879.83 8005.55 Q8889.96 7999.04 8889.96 7987.32 Q8889.96 7976.47 8882.58 7970.68 Q8875.35 7964.89 8850.61 7959.54 L8841.35 7957.37 Q8816.61 7952.16 8805.61 7941.46 Q8794.62 7930.61 8794.62 7911.8 Q8794.62 7888.94 8810.82 7876.5 Q8827.02 7864.06 8856.83 7864.06 Q8871.58 7864.06 8884.6 7866.23 Q8897.63 7868.4 8908.62 7872.74 Z" fill="#000000" fill-rule="evenodd" fill-opacity="1" /><polyline clip-path="url(#clip382)" style="stroke:#000000; stroke-width:2; stroke-opacity:0.1; fill:none" points="
  4491.27,6243.35 10352.8,6243.35 
  "/>
<polyline clip-path="url(#clip382)" style="stroke:#000000; stroke-width:2; stroke-opacity:0.1; fill:none" points="
  4491.27,4390.9 10352.8,4390.9 
  "/>
<polyline clip-path="url(#clip382)" style="stroke:#000000; stroke-width:2; stroke-opacity:0.1; fill:none" points="
  4491.27,2538.46 10352.8,2538.46 
  "/>
<polyline clip-path="url(#clip382)" style="stroke:#000000; stroke-width:2; stroke-opacity:0.1; fill:none" points="
  4491.27,686.015 10352.8,686.015 
  "/>
<polyline clip-path="url(#clip380)" style="stroke:#000000; stroke-width:4; stroke-opacity:1; fill:none" points="
  4491.27,7342.8 4491.27,312.223 
  "/>
<polyline clip-path="url(#clip380)" style="stroke:#000000; stroke-width:4; stroke-opacity:1; fill:none" points="
  4491.27,6243.35 4561.6,6243.35 
  "/>
<polyline clip-path="url(#clip380)" style="stroke:#000000; stroke-width:4; stroke-opacity:1; fill:none" points="
  4491.27,4390.9 4561.6,4390.9 
  "/>
<polyline clip-path="url(#clip380)" style="stroke:#000000; stroke-width:4; stroke-opacity:1; fill:none" points="
  4491.27,2538.46 4561.6,2538.46 
  "/>
<polyline clip-path="url(#clip380)" style="stroke:#000000; stroke-width:4; stroke-opacity:1; fill:none" points="
  4491.27,686.015 4561.6,686.015 
  "/>
<path clip-path="url(#clip380)" d="M 0 0 M282.192 6286.46 L467.666 6286.46 L467.666 6311.06 L282.192 6311.06 L282.192 6286.46 Z" fill="#000000" fill-rule="evenodd" fill-opacity="1" /><path clip-path="url(#clip380)" d="M 0 0 M504.413 6367.05 L552.156 6367.05 L552.156 6202.26 L500.217 6212.68 L500.217 6186.06 L551.866 6175.64 L581.091 6175.64 L581.091 6367.05 L628.834 6367.05 L628.834 6391.64 L504.413 6391.64 L504.413 6367.05 Z" fill="#000000" fill-rule="evenodd" fill-opacity="1" /><path clip-path="url(#clip380)" d="M 0 0 M660.517 6354.9 L691.044 6354.9 L691.044 6391.64 L660.517 6391.64 L660.517 6354.9 Z" fill="#000000" fill-rule="evenodd" fill-opacity="1" /><path clip-path="url(#clip380)" d="M 0 0 M723.017 6175.64 L837.745 6175.64 L837.745 6200.24 L749.782 6200.24 L749.782 6253.19 Q756.148 6251.02 762.513 6250.01 Q768.879 6248.85 775.245 6248.85 Q811.414 6248.85 832.536 6268.67 Q853.659 6288.49 853.659 6322.34 Q853.659 6357.21 831.958 6376.6 Q810.256 6395.84 770.76 6395.84 Q757.16 6395.84 742.982 6393.52 Q728.949 6391.21 713.903 6386.58 L713.903 6357.21 Q726.923 6364.3 740.812 6367.77 Q754.701 6371.24 770.181 6371.24 Q795.21 6371.24 809.822 6358.08 Q824.434 6344.91 824.434 6322.34 Q824.434 6299.78 809.822 6286.61 Q795.21 6273.44 770.181 6273.44 Q758.463 6273.44 746.744 6276.05 Q735.17 6278.65 723.017 6284.15 L723.017 6175.64 Z" fill="#000000" fill-rule="evenodd" fill-opacity="1" /><path clip-path="url(#clip380)" d="M 0 0 M947.842 6194.89 Q925.273 6194.89 913.844 6217.17 Q902.559 6239.3 902.559 6283.86 Q902.559 6328.28 913.844 6350.56 Q925.273 6372.69 947.842 6372.69 Q970.556 6372.69 981.841 6350.56 Q993.27 6328.28 993.27 6283.86 Q993.27 6239.3 981.841 6217.17 Q970.556 6194.89 947.842 6194.89 M947.842 6171.74 Q984.156 6171.74 1003.25 6200.53 Q1022.49 6229.17 1022.49 6283.86 Q1022.49 6338.4 1003.25 6367.19 Q984.156 6395.84 947.842 6395.84 Q911.529 6395.84 892.287 6367.19 Q873.19 6338.4 873.19 6283.86 Q873.19 6229.17 892.287 6200.53 Q911.529 6171.74 947.842 6171.74 Z" fill="#000000" fill-rule="evenodd" fill-opacity="1" /><path clip-path="url(#clip380)" d="M 0 0 M1116.68 6194.89 Q1094.11 6194.89 1082.68 6217.17 Q1071.39 6239.3 1071.39 6283.86 Q1071.39 6328.28 1082.68 6350.56 Q1094.11 6372.69 1116.68 6372.69 Q1139.39 6372.69 1150.68 6350.56 Q1162.11 6328.28 1162.11 6283.86 Q1162.11 6239.3 1150.68 6217.17 Q1139.39 6194.89 1116.68 6194.89 M1116.68 6171.74 Q1152.99 6171.74 1172.09 6200.53 Q1191.33 6229.17 1191.33 6283.86 Q1191.33 6338.4 1172.09 6367.19 Q1152.99 6395.84 1116.68 6395.84 Q1080.36 6395.84 1061.12 6367.19 Q1042.03 6338.4 1042.03 6283.86 Q1042.03 6229.17 1061.12 6200.53 Q1080.36 6171.74 1116.68 6171.74 Z" fill="#000000" fill-rule="evenodd" fill-opacity="1" /><path clip-path="url(#clip380)" d="M 0 0 M1285.51 6194.89 Q1262.94 6194.89 1251.52 6217.17 Q1240.23 6239.3 1240.23 6283.86 Q1240.23 6328.28 1251.52 6350.56 Q1262.94 6372.69 1285.51 6372.69 Q1308.23 6372.69 1319.51 6350.56 Q1330.94 6328.28 1330.94 6283.86 Q1330.94 6239.3 1319.51 6217.17 Q1308.23 6194.89 1285.51 6194.89 M1285.51 6171.74 Q1321.83 6171.74 1340.92 6200.53 Q1360.17 6229.17 1360.17 6283.86 Q1360.17 6338.4 1340.92 6367.19 Q1321.83 6395.84 1285.51 6395.84 Q1249.2 6395.84 1229.96 6367.19 Q1210.86 6338.4 1210.86 6283.86 Q1210.86 6229.17 1229.96 6200.53 Q1249.2 6171.74 1285.51 6171.74 Z" fill="#000000" fill-rule="evenodd" fill-opacity="1" /><path clip-path="url(#clip380)" d="M 0 0 M1454.35 6194.89 Q1431.78 6194.89 1420.35 6217.17 Q1409.07 6239.3 1409.07 6283.86 Q1409.07 6328.28 1420.35 6350.56 Q1431.78 6372.69 1454.35 6372.69 Q1477.06 6372.69 1488.35 6350.56 Q1499.78 6328.28 1499.78 6283.86 Q1499.78 6239.3 1488.35 6217.17 Q1477.06 6194.89 1454.35 6194.89 M1454.35 6171.74 Q1490.66 6171.74 1509.76 6200.53 Q1529 6229.17 1529 6283.86 Q1529 6338.4 1509.76 6367.19 Q1490.66 6395.84 1454.35 6395.84 Q1418.04 6395.84 1398.79 6367.19 Q1379.7 6338.4 1379.7 6283.86 Q1379.7 6229.17 1398.79 6200.53 Q1418.04 6171.74 1454.35 6171.74 Z" fill="#000000" fill-rule="evenodd" fill-opacity="1" /><path clip-path="url(#clip380)" d="M 0 0 M1623.19 6194.89 Q1600.62 6194.89 1589.19 6217.17 Q1577.9 6239.3 1577.9 6283.86 Q1577.9 6328.28 1589.19 6350.56 Q1600.62 6372.69 1623.19 6372.69 Q1645.9 6372.69 1657.18 6350.56 Q1668.61 6328.28 1668.61 6283.86 Q1668.61 6239.3 1657.18 6217.17 Q1645.9 6194.89 1623.19 6194.89 M1623.19 6171.74 Q1659.5 6171.74 1678.6 6200.53 Q1697.84 6229.17 1697.84 6283.86 Q1697.84 6338.4 1678.6 6367.19 Q1659.5 6395.84 1623.19 6395.84 Q1586.87 6395.84 1567.63 6367.19 Q1548.53 6338.4 1548.53 6283.86 Q1548.53 6229.17 1567.63 6200.53 Q1586.87 6171.74 1623.19 6171.74 Z" fill="#000000" fill-rule="evenodd" fill-opacity="1" /><path clip-path="url(#clip380)" d="M 0 0 M1792.02 6194.89 Q1769.45 6194.89 1758.02 6217.17 Q1746.74 6239.3 1746.74 6283.86 Q1746.74 6328.28 1758.02 6350.56 Q1769.45 6372.69 1792.02 6372.69 Q1814.74 6372.69 1826.02 6350.56 Q1837.45 6328.28 1837.45 6283.86 Q1837.45 6239.3 1826.02 6217.17 Q1814.74 6194.89 1792.02 6194.89 M1792.02 6171.74 Q1828.34 6171.74 1847.43 6200.53 Q1866.67 6229.17 1866.67 6283.86 Q1866.67 6338.4 1847.43 6367.19 Q1828.34 6395.84 1792.02 6395.84 Q1755.71 6395.84 1736.47 6367.19 Q1717.37 6338.4 1717.37 6283.86 Q1717.37 6229.17 1736.47 6200.53 Q1755.71 6171.74 1792.02 6171.74 Z" fill="#000000" fill-rule="evenodd" fill-opacity="1" /><path clip-path="url(#clip380)" d="M 0 0 M1960.86 6194.89 Q1938.29 6194.89 1926.86 6217.17 Q1915.57 6239.3 1915.57 6283.86 Q1915.57 6328.28 1926.86 6350.56 Q1938.29 6372.69 1960.86 6372.69 Q1983.57 6372.69 1994.86 6350.56 Q2006.29 6328.28 2006.29 6283.86 Q2006.29 6239.3 1994.86 6217.17 Q1983.57 6194.89 1960.86 6194.89 M1960.86 6171.74 Q1997.17 6171.74 2016.27 6200.53 Q2035.51 6229.17 2035.51 6283.86 Q2035.51 6338.4 2016.27 6367.19 Q1997.17 6395.84 1960.86 6395.84 Q1924.54 6395.84 1905.3 6367.19 Q1886.21 6338.4 1886.21 6283.86 Q1886.21 6229.17 1905.3 6200.53 Q1924.54 6171.74 1960.86 6171.74 Z" fill="#000000" fill-rule="evenodd" fill-opacity="1" /><path clip-path="url(#clip380)" d="M 0 0 M2129.69 6194.89 Q2107.12 6194.89 2095.69 6217.17 Q2084.41 6239.3 2084.41 6283.86 Q2084.41 6328.28 2095.69 6350.56 Q2107.12 6372.69 2129.69 6372.69 Q2152.41 6372.69 2163.69 6350.56 Q2175.12 6328.28 2175.12 6283.86 Q2175.12 6239.3 2163.69 6217.17 Q2152.41 6194.89 2129.69 6194.89 M2129.69 6171.74 Q2166.01 6171.74 2185.1 6200.53 Q2204.35 6229.17 2204.35 6283.86 Q2204.35 6338.4 2185.1 6367.19 Q2166.01 6395.84 2129.69 6395.84 Q2093.38 6395.84 2074.14 6367.19 Q2055.04 6338.4 2055.04 6283.86 Q2055.04 6229.17 2074.14 6200.53 Q2093.38 6171.74 2129.69 6171.74 Z" fill="#000000" fill-rule="evenodd" fill-opacity="1" /><path clip-path="url(#clip380)" d="M 0 0 M2298.53 6194.89 Q2275.96 6194.89 2264.53 6217.17 Q2253.25 6239.3 2253.25 6283.86 Q2253.25 6328.28 2264.53 6350.56 Q2275.96 6372.69 2298.53 6372.69 Q2321.24 6372.69 2332.53 6350.56 Q2343.96 6328.28 2343.96 6283.86 Q2343.96 6239.3 2332.53 6217.17 Q2321.24 6194.89 2298.53 6194.89 M2298.53 6171.74 Q2334.84 6171.74 2353.94 6200.53 Q2373.18 6229.17 2373.18 6283.86 Q2373.18 6338.4 2353.94 6367.19 Q2334.84 6395.84 2298.53 6395.84 Q2262.22 6395.84 2242.97 6367.19 Q2223.88 6338.4 2223.88 6283.86 Q2223.88 6229.17 2242.97 6200.53 Q2262.22 6171.74 2298.53 6171.74 Z" fill="#000000" fill-rule="evenodd" fill-opacity="1" /><path clip-path="url(#clip380)" d="M 0 0 M2467.37 6194.89 Q2444.8 6194.89 2433.37 6217.17 Q2422.08 6239.3 2422.08 6283.86 Q2422.08 6328.28 2433.37 6350.56 Q2444.8 6372.69 2467.37 6372.69 Q2490.08 6372.69 2501.36 6350.56 Q2512.79 6328.28 2512.79 6283.86 Q2512.79 6239.3 2501.36 6217.17 Q2490.08 6194.89 2467.37 6194.89 M2467.37 6171.74 Q2503.68 6171.74 2522.78 6200.53 Q2542.02 6229.17 2542.02 6283.86 Q2542.02 6338.4 2522.78 6367.19 Q2503.68 6395.84 2467.37 6395.84 Q2431.05 6395.84 2411.81 6367.19 Q2392.71 6338.4 2392.71 6283.86 Q2392.71 6229.17 2411.81 6200.53 Q2431.05 6171.74 2467.37 6171.74 Z" fill="#000000" fill-rule="evenodd" fill-opacity="1" /><path clip-path="url(#clip380)" d="M 0 0 M2636.2 6194.89 Q2613.63 6194.89 2602.2 6217.17 Q2590.92 6239.3 2590.92 6283.86 Q2590.92 6328.28 2602.2 6350.56 Q2613.63 6372.69 2636.2 6372.69 Q2658.92 6372.69 2670.2 6350.56 Q2681.63 6328.28 2681.63 6283.86 Q2681.63 6239.3 2670.2 6217.17 Q2658.92 6194.89 2636.2 6194.89 M2636.2 6171.74 Q2672.51 6171.74 2691.61 6200.53 Q2710.85 6229.17 2710.85 6283.86 Q2710.85 6338.4 2691.61 6367.19 Q2672.51 6395.84 2636.2 6395.84 Q2599.89 6395.84 2580.65 6367.19 Q2561.55 6338.4 2561.55 6283.86 Q2561.55 6229.17 2580.65 6200.53 Q2599.89 6171.74 2636.2 6171.74 Z" fill="#000000" fill-rule="evenodd" fill-opacity="1" /><path clip-path="url(#clip380)" d="M 0 0 M2805.04 6194.89 Q2782.47 6194.89 2771.04 6217.17 Q2759.75 6239.3 2759.75 6283.86 Q2759.75 6328.28 2771.04 6350.56 Q2782.47 6372.69 2805.04 6372.69 Q2827.75 6372.69 2839.04 6350.56 Q2850.47 6328.28 2850.47 6283.86 Q2850.47 6239.3 2839.04 6217.17 Q2827.75 6194.89 2805.04 6194.89 M2805.04 6171.74 Q2841.35 6171.74 2860.45 6200.53 Q2879.69 6229.17 2879.69 6283.86 Q2879.69 6338.4 2860.45 6367.19 Q2841.35 6395.84 2805.04 6395.84 Q2768.72 6395.84 2749.48 6367.19 Q2730.38 6338.4 2730.38 6283.86 Q2730.38 6229.17 2749.48 6200.53 Q2768.72 6171.74 2805.04 6171.74 Z" fill="#000000" fill-rule="evenodd" fill-opacity="1" /><path clip-path="url(#clip380)" d="M 0 0 M2973.87 6194.89 Q2951.3 6194.89 2939.87 6217.17 Q2928.59 6239.3 2928.59 6283.86 Q2928.59 6328.28 2939.87 6350.56 Q2951.3 6372.69 2973.87 6372.69 Q2996.59 6372.69 3007.87 6350.56 Q3019.3 6328.28 3019.3 6283.86 Q3019.3 6239.3 3007.87 6217.17 Q2996.59 6194.89 2973.87 6194.89 M2973.87 6171.74 Q3010.19 6171.74 3029.28 6200.53 Q3048.53 6229.17 3048.53 6283.86 Q3048.53 6338.4 3029.28 6367.19 Q3010.19 6395.84 2973.87 6395.84 Q2937.56 6395.84 2918.32 6367.19 Q2899.22 6338.4 2899.22 6283.86 Q2899.22 6229.17 2918.32 6200.53 Q2937.56 6171.74 2973.87 6171.74 Z" fill="#000000" fill-rule="evenodd" fill-opacity="1" /><path clip-path="url(#clip380)" d="M 0 0 M3142.71 6194.89 Q3120.14 6194.89 3108.71 6217.17 Q3097.43 6239.3 3097.43 6283.86 Q3097.43 6328.28 3108.71 6350.56 Q3120.14 6372.69 3142.71 6372.69 Q3165.42 6372.69 3176.71 6350.56 Q3188.14 6328.28 3188.14 6283.86 Q3188.14 6239.3 3176.71 6217.17 Q3165.42 6194.89 3142.71 6194.89 M3142.71 6171.74 Q3179.02 6171.74 3198.12 6200.53 Q3217.36 6229.17 3217.36 6283.86 Q3217.36 6338.4 3198.12 6367.19 Q3179.02 6395.84 3142.71 6395.84 Q3106.4 6395.84 3087.15 6367.19 Q3068.06 6338.4 3068.06 6283.86 Q3068.06 6229.17 3087.15 6200.53 Q3106.4 6171.74 3142.71 6171.74 Z" fill="#000000" fill-rule="evenodd" fill-opacity="1" /><path clip-path="url(#clip380)" d="M 0 0 M3274.22 6367.05 L3376.21 6367.05 L3376.21 6391.64 L3239.06 6391.64 L3239.06 6367.05 Q3255.7 6349.83 3284.35 6320.9 Q3313.14 6291.82 3320.51 6283.43 Q3334.55 6267.66 3340.05 6256.81 Q3345.69 6245.81 3345.69 6235.25 Q3345.69 6218.03 3333.54 6207.18 Q3321.53 6196.33 3302.14 6196.33 Q3288.4 6196.33 3273.06 6201.11 Q3257.87 6205.88 3240.51 6215.57 L3240.51 6186.06 Q3258.16 6178.97 3273.5 6175.35 Q3288.83 6171.74 3301.56 6171.74 Q3335.13 6171.74 3355.09 6188.52 Q3375.06 6205.3 3375.06 6233.37 Q3375.06 6246.68 3369.99 6258.69 Q3365.07 6270.55 3351.91 6286.75 Q3348.29 6290.95 3328.91 6311.06 Q3309.52 6331.02 3274.22 6367.05 Z" fill="#000000" fill-rule="evenodd" fill-opacity="1" /><path clip-path="url(#clip380)" d="M 0 0 M3583.97 6232.5 L3517.85 6298.91 L3583.97 6365.02 L3566.75 6382.53 L3500.35 6316.12 L3433.94 6382.53 L3416.87 6365.02 L3482.84 6298.91 L3416.87 6232.5 L3433.94 6215 L3500.35 6281.4 L3566.75 6215 L3583.97 6232.5 Z" fill="#000000" fill-rule="evenodd" fill-opacity="1" /><path clip-path="url(#clip380)" d="M 0 0 M3620.72 6367.05 L3668.46 6367.05 L3668.46 6202.26 L3616.52 6212.68 L3616.52 6186.06 L3668.17 6175.64 L3697.39 6175.64 L3697.39 6367.05 L3745.14 6367.05 L3745.14 6391.64 L3620.72 6391.64 L3620.72 6367.05 Z" fill="#000000" fill-rule="evenodd" fill-opacity="1" /><path clip-path="url(#clip380)" d="M 0 0 M3839.32 6194.89 Q3816.75 6194.89 3805.32 6217.17 Q3794.04 6239.3 3794.04 6283.86 Q3794.04 6328.28 3805.32 6350.56 Q3816.75 6372.69 3839.32 6372.69 Q3862.03 6372.69 3873.32 6350.56 Q3884.75 6328.28 3884.75 6283.86 Q3884.75 6239.3 3873.32 6217.17 Q3862.03 6194.89 3839.32 6194.89 M3839.32 6171.74 Q3875.63 6171.74 3894.73 6200.53 Q3913.97 6229.17 3913.97 6283.86 Q3913.97 6338.4 3894.73 6367.19 Q3875.63 6395.84 3839.32 6395.84 Q3803.01 6395.84 3783.76 6367.19 Q3764.67 6338.4 3764.67 6283.86 Q3764.67 6229.17 3783.76 6200.53 Q3803.01 6171.74 3839.32 6171.74 Z" fill="#000000" fill-rule="evenodd" fill-opacity="1" /><path clip-path="url(#clip380)" d="M 0 0 M3913.97 6134.87 L4064.67 6134.87 L4064.67 6154.85 L3913.97 6154.85 L3913.97 6134.87 Z" fill="#000000" fill-rule="evenodd" fill-opacity="1" /><path clip-path="url(#clip380)" d="M 0 0 M4094.53 6200.35 L4133.32 6200.35 L4133.32 6066.46 L4091.12 6074.92 L4091.12 6053.29 L4133.08 6044.83 L4156.83 6044.83 L4156.83 6200.35 L4195.62 6200.35 L4195.62 6220.33 L4094.53 6220.33 L4094.53 6200.35 Z" fill="#000000" fill-rule="evenodd" fill-opacity="1" /><path clip-path="url(#clip380)" d="M 0 0 M4286.6 6065.52 L4226.65 6159.2 L4286.6 6159.2 L4286.6 6065.52 M4280.37 6044.83 L4310.23 6044.83 L4310.23 6159.2 L4335.27 6159.2 L4335.27 6178.95 L4310.23 6178.95 L4310.23 6220.33 L4286.6 6220.33 L4286.6 6178.95 L4207.37 6178.95 L4207.37 6156.03 L4280.37 6044.83 Z" fill="#000000" fill-rule="evenodd" fill-opacity="1" /><path clip-path="url(#clip380)" d="M 0 0 M275.971 4434.02 L461.444 4434.02 L461.444 4458.62 L275.971 4458.62 L275.971 4434.02 Z" fill="#000000" fill-rule="evenodd" fill-opacity="1" /><path clip-path="url(#clip380)" d="M 0 0 M498.192 4514.61 L545.935 4514.61 L545.935 4349.82 L493.996 4360.24 L493.996 4333.62 L545.645 4323.2 L574.87 4323.2 L574.87 4514.61 L622.613 4514.61 L622.613 4539.2 L498.192 4539.2 L498.192 4514.61 Z" fill="#000000" fill-rule="evenodd" fill-opacity="1" /><path clip-path="url(#clip380)" d="M 0 0 M654.296 4502.45 L684.823 4502.45 L684.823 4539.2 L654.296 4539.2 L654.296 4502.45 Z" fill="#000000" fill-rule="evenodd" fill-opacity="1" /><path clip-path="url(#clip380)" d="M 0 0 M779.006 4342.44 Q756.437 4342.44 745.008 4364.72 Q733.723 4386.86 733.723 4431.42 Q733.723 4475.83 745.008 4498.11 Q756.437 4520.25 779.006 4520.25 Q801.72 4520.25 813.005 4498.11 Q824.434 4475.83 824.434 4431.42 Q824.434 4386.86 813.005 4364.72 Q801.72 4342.44 779.006 4342.44 M779.006 4319.29 Q815.32 4319.29 834.417 4348.08 Q853.659 4376.73 853.659 4431.42 Q853.659 4485.96 834.417 4514.75 Q815.32 4543.4 779.006 4543.4 Q742.693 4543.4 723.451 4514.75 Q704.354 4485.96 704.354 4431.42 Q704.354 4376.73 723.451 4348.08 Q742.693 4319.29 779.006 4319.29 Z" fill="#000000" fill-rule="evenodd" fill-opacity="1" /><path clip-path="url(#clip380)" d="M 0 0 M947.842 4342.44 Q925.273 4342.44 913.844 4364.72 Q902.559 4386.86 902.559 4431.42 Q902.559 4475.83 913.844 4498.11 Q925.273 4520.25 947.842 4520.25 Q970.556 4520.25 981.841 4498.11 Q993.27 4475.83 993.27 4431.42 Q993.27 4386.86 981.841 4364.72 Q970.556 4342.44 947.842 4342.44 M947.842 4319.29 Q984.156 4319.29 1003.25 4348.08 Q1022.49 4376.73 1022.49 4431.42 Q1022.49 4485.96 1003.25 4514.75 Q984.156 4543.4 947.842 4543.4 Q911.529 4543.4 892.287 4514.75 Q873.19 4485.96 873.19 4431.42 Q873.19 4376.73 892.287 4348.08 Q911.529 4319.29 947.842 4319.29 Z" fill="#000000" fill-rule="evenodd" fill-opacity="1" /><path clip-path="url(#clip380)" d="M 0 0 M1116.68 4342.44 Q1094.11 4342.44 1082.68 4364.72 Q1071.39 4386.86 1071.39 4431.42 Q1071.39 4475.83 1082.68 4498.11 Q1094.11 4520.25 1116.68 4520.25 Q1139.39 4520.25 1150.68 4498.11 Q1162.11 4475.83 1162.11 4431.42 Q1162.11 4386.86 1150.68 4364.72 Q1139.39 4342.44 1116.68 4342.44 M1116.68 4319.29 Q1152.99 4319.29 1172.09 4348.08 Q1191.33 4376.73 1191.33 4431.42 Q1191.33 4485.96 1172.09 4514.75 Q1152.99 4543.4 1116.68 4543.4 Q1080.36 4543.4 1061.12 4514.75 Q1042.03 4485.96 1042.03 4431.42 Q1042.03 4376.73 1061.12 4348.08 Q1080.36 4319.29 1116.68 4319.29 Z" fill="#000000" fill-rule="evenodd" fill-opacity="1" /><path clip-path="url(#clip380)" d="M 0 0 M1285.51 4342.44 Q1262.94 4342.44 1251.52 4364.72 Q1240.23 4386.86 1240.23 4431.42 Q1240.23 4475.83 1251.52 4498.11 Q1262.94 4520.25 1285.51 4520.25 Q1308.23 4520.25 1319.51 4498.11 Q1330.94 4475.83 1330.94 4431.42 Q1330.94 4386.86 1319.51 4364.72 Q1308.23 4342.44 1285.51 4342.44 M1285.51 4319.29 Q1321.83 4319.29 1340.92 4348.08 Q1360.17 4376.73 1360.17 4431.42 Q1360.17 4485.96 1340.92 4514.75 Q1321.83 4543.4 1285.51 4543.4 Q1249.2 4543.4 1229.96 4514.75 Q1210.86 4485.96 1210.86 4431.42 Q1210.86 4376.73 1229.96 4348.08 Q1249.2 4319.29 1285.51 4319.29 Z" fill="#000000" fill-rule="evenodd" fill-opacity="1" /><path clip-path="url(#clip380)" d="M 0 0 M1454.35 4342.44 Q1431.78 4342.44 1420.35 4364.72 Q1409.07 4386.86 1409.07 4431.42 Q1409.07 4475.83 1420.35 4498.11 Q1431.78 4520.25 1454.35 4520.25 Q1477.06 4520.25 1488.35 4498.11 Q1499.78 4475.83 1499.78 4431.42 Q1499.78 4386.86 1488.35 4364.72 Q1477.06 4342.44 1454.35 4342.44 M1454.35 4319.29 Q1490.66 4319.29 1509.76 4348.08 Q1529 4376.73 1529 4431.42 Q1529 4485.96 1509.76 4514.75 Q1490.66 4543.4 1454.35 4543.4 Q1418.04 4543.4 1398.79 4514.75 Q1379.7 4485.96 1379.7 4431.42 Q1379.7 4376.73 1398.79 4348.08 Q1418.04 4319.29 1454.35 4319.29 Z" fill="#000000" fill-rule="evenodd" fill-opacity="1" /><path clip-path="url(#clip380)" d="M 0 0 M1623.19 4342.44 Q1600.62 4342.44 1589.19 4364.72 Q1577.9 4386.86 1577.9 4431.42 Q1577.9 4475.83 1589.19 4498.11 Q1600.62 4520.25 1623.19 4520.25 Q1645.9 4520.25 1657.18 4498.11 Q1668.61 4475.83 1668.61 4431.42 Q1668.61 4386.86 1657.18 4364.72 Q1645.9 4342.44 1623.19 4342.44 M1623.19 4319.29 Q1659.5 4319.29 1678.6 4348.08 Q1697.84 4376.73 1697.84 4431.42 Q1697.84 4485.96 1678.6 4514.75 Q1659.5 4543.4 1623.19 4543.4 Q1586.87 4543.4 1567.63 4514.75 Q1548.53 4485.96 1548.53 4431.42 Q1548.53 4376.73 1567.63 4348.08 Q1586.87 4319.29 1623.19 4319.29 Z" fill="#000000" fill-rule="evenodd" fill-opacity="1" /><path clip-path="url(#clip380)" d="M 0 0 M1792.02 4342.44 Q1769.45 4342.44 1758.02 4364.72 Q1746.74 4386.86 1746.74 4431.42 Q1746.74 4475.83 1758.02 4498.11 Q1769.45 4520.25 1792.02 4520.25 Q1814.74 4520.25 1826.02 4498.11 Q1837.45 4475.83 1837.45 4431.42 Q1837.45 4386.86 1826.02 4364.72 Q1814.74 4342.44 1792.02 4342.44 M1792.02 4319.29 Q1828.34 4319.29 1847.43 4348.08 Q1866.67 4376.73 1866.67 4431.42 Q1866.67 4485.96 1847.43 4514.75 Q1828.34 4543.4 1792.02 4543.4 Q1755.71 4543.4 1736.47 4514.75 Q1717.37 4485.96 1717.37 4431.42 Q1717.37 4376.73 1736.47 4348.08 Q1755.71 4319.29 1792.02 4319.29 Z" fill="#000000" fill-rule="evenodd" fill-opacity="1" /><path clip-path="url(#clip380)" d="M 0 0 M1960.86 4342.44 Q1938.29 4342.44 1926.86 4364.72 Q1915.57 4386.86 1915.57 4431.42 Q1915.57 4475.83 1926.86 4498.11 Q1938.29 4520.25 1960.86 4520.25 Q1983.57 4520.25 1994.86 4498.11 Q2006.29 4475.83 2006.29 4431.42 Q2006.29 4386.86 1994.86 4364.72 Q1983.57 4342.44 1960.86 4342.44 M1960.86 4319.29 Q1997.17 4319.29 2016.27 4348.08 Q2035.51 4376.73 2035.51 4431.42 Q2035.51 4485.96 2016.27 4514.75 Q1997.17 4543.4 1960.86 4543.4 Q1924.54 4543.4 1905.3 4514.75 Q1886.21 4485.96 1886.21 4431.42 Q1886.21 4376.73 1905.3 4348.08 Q1924.54 4319.29 1960.86 4319.29 Z" fill="#000000" fill-rule="evenodd" fill-opacity="1" /><path clip-path="url(#clip380)" d="M 0 0 M2129.69 4342.44 Q2107.12 4342.44 2095.69 4364.72 Q2084.41 4386.86 2084.41 4431.42 Q2084.41 4475.83 2095.69 4498.11 Q2107.12 4520.25 2129.69 4520.25 Q2152.41 4520.25 2163.69 4498.11 Q2175.12 4475.83 2175.12 4431.42 Q2175.12 4386.86 2163.69 4364.72 Q2152.41 4342.44 2129.69 4342.44 M2129.69 4319.29 Q2166.01 4319.29 2185.1 4348.08 Q2204.35 4376.73 2204.35 4431.42 Q2204.35 4485.96 2185.1 4514.75 Q2166.01 4543.4 2129.69 4543.4 Q2093.38 4543.4 2074.14 4514.75 Q2055.04 4485.96 2055.04 4431.42 Q2055.04 4376.73 2074.14 4348.08 Q2093.38 4319.29 2129.69 4319.29 Z" fill="#000000" fill-rule="evenodd" fill-opacity="1" /><path clip-path="url(#clip380)" d="M 0 0 M2298.53 4342.44 Q2275.96 4342.44 2264.53 4364.72 Q2253.25 4386.86 2253.25 4431.42 Q2253.25 4475.83 2264.53 4498.11 Q2275.96 4520.25 2298.53 4520.25 Q2321.24 4520.25 2332.53 4498.11 Q2343.96 4475.83 2343.96 4431.42 Q2343.96 4386.86 2332.53 4364.72 Q2321.24 4342.44 2298.53 4342.44 M2298.53 4319.29 Q2334.84 4319.29 2353.94 4348.08 Q2373.18 4376.73 2373.18 4431.42 Q2373.18 4485.96 2353.94 4514.75 Q2334.84 4543.4 2298.53 4543.4 Q2262.22 4543.4 2242.97 4514.75 Q2223.88 4485.96 2223.88 4431.42 Q2223.88 4376.73 2242.97 4348.08 Q2262.22 4319.29 2298.53 4319.29 Z" fill="#000000" fill-rule="evenodd" fill-opacity="1" /><path clip-path="url(#clip380)" d="M 0 0 M2467.37 4342.44 Q2444.8 4342.44 2433.37 4364.72 Q2422.08 4386.86 2422.08 4431.42 Q2422.08 4475.83 2433.37 4498.11 Q2444.8 4520.25 2467.37 4520.25 Q2490.08 4520.25 2501.36 4498.11 Q2512.79 4475.83 2512.79 4431.42 Q2512.79 4386.86 2501.36 4364.72 Q2490.08 4342.44 2467.37 4342.44 M2467.37 4319.29 Q2503.68 4319.29 2522.78 4348.08 Q2542.02 4376.73 2542.02 4431.42 Q2542.02 4485.96 2522.78 4514.75 Q2503.68 4543.4 2467.37 4543.4 Q2431.05 4543.4 2411.81 4514.75 Q2392.71 4485.96 2392.71 4431.42 Q2392.71 4376.73 2411.81 4348.08 Q2431.05 4319.29 2467.37 4319.29 Z" fill="#000000" fill-rule="evenodd" fill-opacity="1" /><path clip-path="url(#clip380)" d="M 0 0 M2636.2 4342.44 Q2613.63 4342.44 2602.2 4364.72 Q2590.92 4386.86 2590.92 4431.42 Q2590.92 4475.83 2602.2 4498.11 Q2613.63 4520.25 2636.2 4520.25 Q2658.92 4520.25 2670.2 4498.11 Q2681.63 4475.83 2681.63 4431.42 Q2681.63 4386.86 2670.2 4364.72 Q2658.92 4342.44 2636.2 4342.44 M2636.2 4319.29 Q2672.51 4319.29 2691.61 4348.08 Q2710.85 4376.73 2710.85 4431.42 Q2710.85 4485.96 2691.61 4514.75 Q2672.51 4543.4 2636.2 4543.4 Q2599.89 4543.4 2580.65 4514.75 Q2561.55 4485.96 2561.55 4431.42 Q2561.55 4376.73 2580.65 4348.08 Q2599.89 4319.29 2636.2 4319.29 Z" fill="#000000" fill-rule="evenodd" fill-opacity="1" /><path clip-path="url(#clip380)" d="M 0 0 M2805.04 4342.44 Q2782.47 4342.44 2771.04 4364.72 Q2759.75 4386.86 2759.75 4431.42 Q2759.75 4475.83 2771.04 4498.11 Q2782.47 4520.25 2805.04 4520.25 Q2827.75 4520.25 2839.04 4498.11 Q2850.47 4475.83 2850.47 4431.42 Q2850.47 4386.86 2839.04 4364.72 Q2827.75 4342.44 2805.04 4342.44 M2805.04 4319.29 Q2841.35 4319.29 2860.45 4348.08 Q2879.69 4376.73 2879.69 4431.42 Q2879.69 4485.96 2860.45 4514.75 Q2841.35 4543.4 2805.04 4543.4 Q2768.72 4543.4 2749.48 4514.75 Q2730.38 4485.96 2730.38 4431.42 Q2730.38 4376.73 2749.48 4348.08 Q2768.72 4319.29 2805.04 4319.29 Z" fill="#000000" fill-rule="evenodd" fill-opacity="1" /><path clip-path="url(#clip380)" d="M 0 0 M2973.87 4342.44 Q2951.3 4342.44 2939.87 4364.72 Q2928.59 4386.86 2928.59 4431.42 Q2928.59 4475.83 2939.87 4498.11 Q2951.3 4520.25 2973.87 4520.25 Q2996.59 4520.25 3007.87 4498.11 Q3019.3 4475.83 3019.3 4431.42 Q3019.3 4386.86 3007.87 4364.72 Q2996.59 4342.44 2973.87 4342.44 M2973.87 4319.29 Q3010.19 4319.29 3029.28 4348.08 Q3048.53 4376.73 3048.53 4431.42 Q3048.53 4485.96 3029.28 4514.75 Q3010.19 4543.4 2973.87 4543.4 Q2937.56 4543.4 2918.32 4514.75 Q2899.22 4485.96 2899.22 4431.42 Q2899.22 4376.73 2918.32 4348.08 Q2937.56 4319.29 2973.87 4319.29 Z" fill="#000000" fill-rule="evenodd" fill-opacity="1" /><path clip-path="url(#clip380)" d="M 0 0 M3142.71 4342.44 Q3120.14 4342.44 3108.71 4364.72 Q3097.43 4386.86 3097.43 4431.42 Q3097.43 4475.83 3108.71 4498.11 Q3120.14 4520.25 3142.71 4520.25 Q3165.42 4520.25 3176.71 4498.11 Q3188.14 4475.83 3188.14 4431.42 Q3188.14 4386.86 3176.71 4364.72 Q3165.42 4342.44 3142.71 4342.44 M3142.71 4319.29 Q3179.02 4319.29 3198.12 4348.08 Q3217.36 4376.73 3217.36 4431.42 Q3217.36 4485.96 3198.12 4514.75 Q3179.02 4543.4 3142.71 4543.4 Q3106.4 4543.4 3087.15 4514.75 Q3068.06 4485.96 3068.06 4431.42 Q3068.06 4376.73 3087.15 4348.08 Q3106.4 4319.29 3142.71 4319.29 Z" fill="#000000" fill-rule="evenodd" fill-opacity="1" /><path clip-path="url(#clip380)" d="M 0 0 M3274.22 4514.61 L3376.21 4514.61 L3376.21 4539.2 L3239.06 4539.2 L3239.06 4514.61 Q3255.7 4497.39 3284.35 4468.45 Q3313.14 4439.37 3320.51 4430.98 Q3334.55 4415.21 3340.05 4404.36 Q3345.69 4393.37 3345.69 4382.81 Q3345.69 4365.59 3333.54 4354.74 Q3321.53 4343.89 3302.14 4343.89 Q3288.4 4343.89 3273.06 4348.66 Q3257.87 4353.44 3240.51 4363.13 L3240.51 4333.62 Q3258.16 4326.53 3273.5 4322.91 Q3288.83 4319.29 3301.56 4319.29 Q3335.13 4319.29 3355.09 4336.08 Q3375.06 4352.86 3375.06 4380.93 Q3375.06 4394.24 3369.99 4406.24 Q3365.07 4418.11 3351.91 4434.31 Q3348.29 4438.51 3328.91 4458.62 Q3309.52 4478.58 3274.22 4514.61 Z" fill="#000000" fill-rule="evenodd" fill-opacity="1" /><path clip-path="url(#clip380)" d="M 0 0 M3583.97 4380.06 L3517.85 4446.46 L3583.97 4512.58 L3566.75 4530.09 L3500.35 4463.68 L3433.94 4530.09 L3416.87 4512.58 L3482.84 4446.46 L3416.87 4380.06 L3433.94 4362.55 L3500.35 4428.96 L3566.75 4362.55 L3583.97 4380.06 Z" fill="#000000" fill-rule="evenodd" fill-opacity="1" /><path clip-path="url(#clip380)" d="M 0 0 M3620.72 4514.61 L3668.46 4514.61 L3668.46 4349.82 L3616.52 4360.24 L3616.52 4333.62 L3668.17 4323.2 L3697.39 4323.2 L3697.39 4514.61 L3745.14 4514.61 L3745.14 4539.2 L3620.72 4539.2 L3620.72 4514.61 Z" fill="#000000" fill-rule="evenodd" fill-opacity="1" /><path clip-path="url(#clip380)" d="M 0 0 M3839.32 4342.44 Q3816.75 4342.44 3805.32 4364.72 Q3794.04 4386.86 3794.04 4431.42 Q3794.04 4475.83 3805.32 4498.11 Q3816.75 4520.25 3839.32 4520.25 Q3862.03 4520.25 3873.32 4498.11 Q3884.75 4475.83 3884.75 4431.42 Q3884.75 4386.86 3873.32 4364.72 Q3862.03 4342.44 3839.32 4342.44 M3839.32 4319.29 Q3875.63 4319.29 3894.73 4348.08 Q3913.97 4376.73 3913.97 4431.42 Q3913.97 4485.96 3894.73 4514.75 Q3875.63 4543.4 3839.32 4543.4 Q3803.01 4543.4 3783.76 4514.75 Q3764.67 4485.96 3764.67 4431.42 Q3764.67 4376.73 3783.76 4348.08 Q3803.01 4319.29 3839.32 4319.29 Z" fill="#000000" fill-rule="evenodd" fill-opacity="1" /><path clip-path="url(#clip380)" d="M 0 0 M3913.97 4282.43 L4064.67 4282.43 L4064.67 4302.41 L3913.97 4302.41 L3913.97 4282.43 Z" fill="#000000" fill-rule="evenodd" fill-opacity="1" /><path clip-path="url(#clip380)" d="M 0 0 M4094.53 4347.9 L4133.32 4347.9 L4133.32 4214.01 L4091.12 4222.48 L4091.12 4200.85 L4133.08 4192.38 L4156.83 4192.38 L4156.83 4347.9 L4195.62 4347.9 L4195.62 4367.88 L4094.53 4367.88 L4094.53 4347.9 Z" fill="#000000" fill-rule="evenodd" fill-opacity="1" /><path clip-path="url(#clip380)" d="M 0 0 M4286.6 4213.07 L4226.65 4306.76 L4286.6 4306.76 L4286.6 4213.07 M4280.37 4192.38 L4310.23 4192.38 L4310.23 4306.76 L4335.27 4306.76 L4335.27 4326.51 L4310.23 4326.51 L4310.23 4367.88 L4286.6 4367.88 L4286.6 4326.51 L4207.37 4326.51 L4207.37 4303.59 L4280.37 4192.38 Z" fill="#000000" fill-rule="evenodd" fill-opacity="1" /><path clip-path="url(#clip380)" d="M 0 0 M2804.6 2581.58 L2990.08 2581.58 L2990.08 2606.17 L2804.6 2606.17 L2804.6 2581.58 Z" fill="#000000" fill-rule="evenodd" fill-opacity="1" /><path clip-path="url(#clip380)" d="M 0 0 M3022.05 2470.76 L3136.78 2470.76 L3136.78 2495.35 L3048.81 2495.35 L3048.81 2548.3 Q3055.18 2546.13 3061.55 2545.12 Q3067.91 2543.96 3074.28 2543.96 Q3110.45 2543.96 3131.57 2563.78 Q3152.69 2583.6 3152.69 2617.46 Q3152.69 2652.32 3130.99 2671.71 Q3109.29 2690.95 3069.79 2690.95 Q3056.19 2690.95 3042.02 2688.64 Q3027.98 2686.32 3012.94 2681.69 L3012.94 2652.32 Q3025.96 2659.41 3039.85 2662.88 Q3053.73 2666.36 3069.21 2666.36 Q3094.24 2666.36 3108.86 2653.19 Q3123.47 2640.03 3123.47 2617.46 Q3123.47 2594.89 3108.86 2581.72 Q3094.24 2568.56 3069.21 2568.56 Q3057.5 2568.56 3045.78 2571.16 Q3034.2 2573.76 3022.05 2579.26 L3022.05 2470.76 Z" fill="#000000" fill-rule="evenodd" fill-opacity="1" /><path clip-path="url(#clip380)" d="M 0 0 M3184.38 2650.01 L3214.9 2650.01 L3214.9 2686.76 L3184.38 2686.76 L3184.38 2650.01 Z" fill="#000000" fill-rule="evenodd" fill-opacity="1" /><path clip-path="url(#clip380)" d="M 0 0 M3309.09 2490 Q3286.52 2490 3275.09 2512.28 Q3263.8 2534.41 3263.8 2578.97 Q3263.8 2623.39 3275.09 2645.67 Q3286.52 2667.8 3309.09 2667.8 Q3331.8 2667.8 3343.08 2645.67 Q3354.51 2623.39 3354.51 2578.97 Q3354.51 2534.41 3343.08 2512.28 Q3331.8 2490 3309.09 2490 M3309.09 2466.85 Q3345.4 2466.85 3364.5 2495.64 Q3383.74 2524.29 3383.74 2578.97 Q3383.74 2633.52 3364.5 2662.31 Q3345.4 2690.95 3309.09 2690.95 Q3272.77 2690.95 3253.53 2662.31 Q3234.43 2633.52 3234.43 2578.97 Q3234.43 2524.29 3253.53 2495.64 Q3272.77 2466.85 3309.09 2466.85 Z" fill="#000000" fill-rule="evenodd" fill-opacity="1" /><path clip-path="url(#clip380)" d="M 0 0 M3591.49 2527.61 L3525.37 2594.02 L3591.49 2660.14 L3574.28 2677.64 L3507.87 2611.24 L3441.46 2677.64 L3424.39 2660.14 L3490.36 2594.02 L3424.39 2527.61 L3441.46 2510.11 L3507.87 2576.51 L3574.28 2510.11 L3591.49 2527.61 Z" fill="#000000" fill-rule="evenodd" fill-opacity="1" /><path clip-path="url(#clip380)" d="M 0 0 M3628.24 2662.16 L3675.98 2662.16 L3675.98 2497.38 L3624.04 2507.79 L3624.04 2481.17 L3675.69 2470.76 L3704.92 2470.76 L3704.92 2662.16 L3752.66 2662.16 L3752.66 2686.76 L3628.24 2686.76 L3628.24 2662.16 Z" fill="#000000" fill-rule="evenodd" fill-opacity="1" /><path clip-path="url(#clip380)" d="M 0 0 M3846.84 2490 Q3824.27 2490 3812.84 2512.28 Q3801.56 2534.41 3801.56 2578.97 Q3801.56 2623.39 3812.84 2645.67 Q3824.27 2667.8 3846.84 2667.8 Q3869.56 2667.8 3880.84 2645.67 Q3892.27 2623.39 3892.27 2578.97 Q3892.27 2534.41 3880.84 2512.28 Q3869.56 2490 3846.84 2490 M3846.84 2466.85 Q3883.16 2466.85 3902.25 2495.64 Q3921.5 2524.29 3921.5 2578.97 Q3921.5 2633.52 3902.25 2662.31 Q3883.16 2690.95 3846.84 2690.95 Q3810.53 2690.95 3791.29 2662.31 Q3772.19 2633.52 3772.19 2578.97 Q3772.19 2524.29 3791.29 2495.64 Q3810.53 2466.85 3846.84 2466.85 Z" fill="#000000" fill-rule="evenodd" fill-opacity="1" /><path clip-path="url(#clip380)" d="M 0 0 M3921.5 2429.98 L4072.19 2429.98 L4072.19 2449.97 L3921.5 2449.97 L3921.5 2429.98 Z" fill="#000000" fill-rule="evenodd" fill-opacity="1" /><path clip-path="url(#clip380)" d="M 0 0 M4102.05 2495.46 L4140.84 2495.46 L4140.84 2361.57 L4098.64 2370.03 L4098.64 2348.4 L4140.61 2339.94 L4164.35 2339.94 L4164.35 2495.46 L4203.14 2495.46 L4203.14 2515.44 L4102.05 2515.44 L4102.05 2495.46 Z" fill="#000000" fill-rule="evenodd" fill-opacity="1" /><path clip-path="url(#clip380)" d="M 0 0 M4229.12 2339.94 L4322.34 2339.94 L4322.34 2359.92 L4250.87 2359.92 L4250.87 2402.95 Q4256.04 2401.18 4261.21 2400.36 Q4266.38 2399.42 4271.55 2399.42 Q4300.94 2399.42 4318.1 2415.52 Q4335.27 2431.63 4335.27 2459.14 Q4335.27 2487.46 4317.63 2503.22 Q4300 2518.85 4267.91 2518.85 Q4256.86 2518.85 4245.34 2516.97 Q4233.94 2515.09 4221.71 2511.33 L4221.71 2487.46 Q4232.29 2493.22 4243.58 2496.05 Q4254.86 2498.87 4267.44 2498.87 Q4287.78 2498.87 4299.65 2488.17 Q4311.52 2477.47 4311.52 2459.14 Q4311.52 2440.8 4299.65 2430.1 Q4287.78 2419.4 4267.44 2419.4 Q4257.92 2419.4 4248.4 2421.52 Q4238.99 2423.64 4229.12 2428.1 L4229.12 2339.94 Z" fill="#000000" fill-rule="evenodd" fill-opacity="1" /><path clip-path="url(#clip380)" d="M 0 0 M4260.61 597.256 Q4238.04 597.256 4226.62 619.536 Q4215.33 641.672 4215.33 686.232 Q4215.33 730.647 4226.62 752.927 Q4238.04 775.062 4260.61 775.062 Q4283.33 775.062 4294.61 752.927 Q4306.04 730.647 4306.04 686.232 Q4306.04 641.672 4294.61 619.536 Q4283.33 597.256 4260.61 597.256 M4260.61 574.108 Q4296.93 574.108 4316.02 602.899 Q4335.27 631.544 4335.27 686.232 Q4335.27 740.774 4316.02 769.565 Q4296.93 798.21 4260.61 798.21 Q4224.3 798.21 4205.06 769.565 Q4185.96 740.774 4185.96 686.232 Q4185.96 631.544 4205.06 602.899 Q4224.3 574.108 4260.61 574.108 Z" fill="#000000" fill-rule="evenodd" fill-opacity="1" /><path clip-path="url(#clip380)" d="M 0 0 M-40.1914 4913.08 L-9.37562 4913.08 Q-23.1198 4927.84 -29.9195 4944.62 Q-36.7192 4961.26 -36.7192 4980.07 Q-36.7192 5017.1 -14.0052 5036.78 Q8.56409 5056.45 51.3879 5056.45 Q94.0671 5056.45 116.781 5036.78 Q139.35 5017.1 139.35 4980.07 Q139.35 4961.26 132.551 4944.62 Q125.751 4927.84 112.007 4913.08 L142.533 4913.08 Q152.95 4928.42 158.158 4945.63 Q163.367 4962.7 163.367 4981.8 Q163.367 5030.85 133.419 5059.06 Q103.326 5087.27 51.3879 5087.27 Q-0.695115 5087.27 -30.6429 5059.06 Q-60.7353 5030.85 -60.7353 4981.8 Q-60.7353 4962.41 -55.527 4945.34 Q-50.4634 4928.13 -40.1914 4913.08 Z" fill="#000000" fill-rule="evenodd" fill-opacity="1" /><path clip-path="url(#clip380)" d="M 0 0 M77.7188 4811.52 Q77.7188 4843.78 85.0972 4856.22 Q92.4757 4868.67 110.271 4868.67 Q124.449 4868.67 132.84 4859.41 Q141.087 4850 141.087 4833.94 Q141.087 4811.81 125.462 4798.5 Q109.692 4785.04 83.6505 4785.04 L77.7188 4785.04 L77.7188 4811.52 M66.7235 4758.42 L159.171 4758.42 L159.171 4785.04 L134.576 4785.04 Q149.333 4794.16 156.422 4807.76 Q163.367 4821.36 163.367 4841.03 Q163.367 4865.92 149.478 4880.67 Q135.444 4895.29 112.007 4895.29 Q84.6632 4895.29 70.7744 4877.06 Q56.8856 4858.68 56.8856 4822.37 L56.8856 4785.04 L54.2814 4785.04 Q35.9077 4785.04 25.9251 4797.2 Q15.7979 4809.2 15.7979 4831.05 Q15.7979 4844.94 19.1254 4858.1 Q22.4529 4871.27 29.108 4883.42 L4.51319 4883.42 Q-1.12914 4868.81 -3.87797 4855.07 Q-6.77147 4841.32 -6.77147 4828.3 Q-6.77147 4793.14 11.4576 4775.78 Q29.6867 4758.42 66.7235 4758.42 Z" fill="#000000" fill-rule="evenodd" fill-opacity="1" /><path clip-path="url(#clip380)" d="M 0 0 M28.2399 4604.34 Q10.3002 4594.36 1.76436 4580.47 Q-6.77147 4566.58 -6.77147 4547.78 Q-6.77147 4522.46 11.0236 4508.71 Q28.6739 4494.97 61.3705 4494.97 L159.171 4494.97 L159.171 4521.73 L62.2386 4521.73 Q38.9459 4521.73 27.6612 4529.98 Q16.3766 4538.23 16.3766 4555.15 Q16.3766 4575.84 30.1207 4587.85 Q43.8648 4599.86 67.5916 4599.86 L159.171 4599.86 L159.171 4626.62 L62.2386 4626.62 Q38.8012 4626.62 27.6612 4634.87 Q16.3766 4643.12 16.3766 4660.33 Q16.3766 4680.73 30.2654 4692.74 Q44.0095 4704.75 67.5916 4704.75 L159.171 4704.75 L159.171 4731.51 L-2.86524 4731.51 L-2.86524 4704.75 L22.3082 4704.75 Q7.40669 4695.63 0.317611 4682.9 Q-6.77147 4670.17 -6.77147 4652.67 Q-6.77147 4635.01 2.19839 4622.72 Q11.1682 4610.28 28.2399 4604.34 Z" fill="#000000" fill-rule="evenodd" fill-opacity="1" /><path clip-path="url(#clip380)" d="M 0 0 M78.2975 4350.73 Q48.9285 4350.73 32.2908 4362.88 Q15.5085 4374.89 15.5085 4396.01 Q15.5085 4417.13 32.2908 4429.29 Q48.9285 4441.29 78.2975 4441.29 Q107.667 4441.29 124.449 4429.29 Q141.087 4417.13 141.087 4396.01 Q141.087 4374.89 124.449 4362.88 Q107.667 4350.73 78.2975 4350.73 M21.7295 4441.29 Q7.26202 4432.9 0.317611 4420.17 Q-6.77147 4407.3 -6.77147 4389.5 Q-6.77147 4359.99 16.6659 4341.61 Q40.1033 4323.1 78.2975 4323.1 Q116.492 4323.1 139.929 4341.61 Q163.367 4359.99 163.367 4389.5 Q163.367 4407.3 156.422 4420.17 Q149.333 4432.9 134.866 4441.29 L159.171 4441.29 L159.171 4468.06 L-65.9436 4468.06 L-65.9436 4441.29 L21.7295 4441.29 Z" fill="#000000" fill-rule="evenodd" fill-opacity="1" /><path clip-path="url(#clip380)" d="M 0 0 M-2.86524 4295.17 L-2.86524 4268.55 L159.171 4268.55 L159.171 4295.17 L-2.86524 4295.17 M-65.9436 4295.17 L-65.9436 4268.55 L-32.2343 4268.55 L-32.2343 4295.17 L-65.9436 4295.17 Z" fill="#000000" fill-rule="evenodd" fill-opacity="1" /><path clip-path="url(#clip380)" d="M 0 0 M15.7979 4177.84 Q15.7979 4199.25 32.5802 4211.7 Q49.2178 4224.14 78.2975 4224.14 Q107.377 4224.14 124.16 4211.84 Q140.797 4199.4 140.797 4177.84 Q140.797 4156.57 124.015 4144.13 Q107.233 4131.69 78.2975 4131.69 Q49.5072 4131.69 32.7248 4144.13 Q15.7979 4156.57 15.7979 4177.84 M-6.77147 4177.84 Q-6.77147 4143.12 15.7979 4123.3 Q38.3672 4103.48 78.2975 4103.48 Q118.083 4103.48 140.797 4123.3 Q163.367 4143.12 163.367 4177.84 Q163.367 4212.71 140.797 4232.53 Q118.083 4252.2 78.2975 4252.2 Q38.3672 4252.2 15.7979 4232.53 Q-6.77147 4212.71 -6.77147 4177.84 Z" fill="#000000" fill-rule="evenodd" fill-opacity="1" /><path clip-path="url(#clip380)" d="M 0 0 M71.4978 3842.77 L84.5185 3842.77 L84.5185 3965.17 Q112.007 3963.43 126.474 3948.68 Q140.797 3933.77 140.797 3907.3 Q140.797 3891.96 137.036 3877.64 Q133.274 3863.17 125.751 3848.99 L150.924 3848.99 Q157.001 3863.32 160.184 3878.36 Q163.367 3893.41 163.367 3908.89 Q163.367 3947.66 140.797 3970.38 Q118.228 3992.95 79.7443 3992.95 Q39.9586 3992.95 16.6659 3971.53 Q-6.77147 3949.98 -6.77147 3913.52 Q-6.77147 3880.82 14.3511 3861.87 Q35.329 3842.77 71.4978 3842.77 M63.6853 3869.39 Q41.8394 3869.68 28.8186 3881.69 Q15.7979 3893.55 15.7979 3913.23 Q15.7979 3935.51 28.3846 3948.97 Q40.9713 3962.28 63.83 3964.3 L63.6853 3869.39 Z" fill="#000000" fill-rule="evenodd" fill-opacity="1" /><path clip-path="url(#clip380)" d="M 0 0 M61.3705 3680.16 L159.171 3680.16 L159.171 3706.78 L62.2386 3706.78 Q39.2352 3706.78 27.8059 3715.75 Q16.3766 3724.72 16.3766 3742.66 Q16.3766 3764.22 30.1207 3776.66 Q43.8648 3789.1 67.5916 3789.1 L159.171 3789.1 L159.171 3815.86 L-2.86524 3815.86 L-2.86524 3789.1 L22.3082 3789.1 Q7.69604 3779.55 0.462286 3766.67 Q-6.77147 3753.65 -6.77147 3736.73 Q-6.77147 3708.8 10.5895 3694.48 Q27.8059 3680.16 61.3705 3680.16 Z" fill="#000000" fill-rule="evenodd" fill-opacity="1" /><path clip-path="url(#clip380)" d="M 0 0 M71.4978 3419.45 L84.5185 3419.45 L84.5185 3541.85 Q112.007 3540.11 126.474 3525.36 Q140.797 3510.46 140.797 3483.98 Q140.797 3468.64 137.036 3454.32 Q133.274 3439.85 125.751 3425.68 L150.924 3425.68 Q157.001 3440 160.184 3455.04 Q163.367 3470.09 163.367 3485.57 Q163.367 3524.34 140.797 3547.06 Q118.228 3569.63 79.7443 3569.63 Q39.9586 3569.63 16.6659 3548.22 Q-6.77147 3526.66 -6.77147 3490.2 Q-6.77147 3457.5 14.3511 3438.55 Q35.329 3419.45 71.4978 3419.45 M63.6853 3446.07 Q41.8394 3446.36 28.8186 3458.37 Q15.7979 3470.24 15.7979 3489.91 Q15.7979 3512.19 28.3846 3525.65 Q40.9713 3538.96 63.83 3540.98 L63.6853 3446.07 Z" fill="#000000" fill-rule="evenodd" fill-opacity="1" /><path clip-path="url(#clip380)" d="M 0 0 M61.3705 3256.84 L159.171 3256.84 L159.171 3283.46 L62.2386 3283.46 Q39.2352 3283.46 27.8059 3292.43 Q16.3766 3301.4 16.3766 3319.34 Q16.3766 3340.9 30.1207 3353.34 Q43.8648 3365.78 67.5916 3365.78 L159.171 3365.78 L159.171 3392.54 L-2.86524 3392.54 L-2.86524 3365.78 L22.3082 3365.78 Q7.69604 3356.23 0.462286 3343.36 Q-6.77147 3330.33 -6.77147 3313.41 Q-6.77147 3285.49 10.5895 3271.16 Q27.8059 3256.84 61.3705 3256.84 Z" fill="#000000" fill-rule="evenodd" fill-opacity="1" /><path clip-path="url(#clip380)" d="M 0 0 M71.4978 3090.32 L84.5185 3090.32 L84.5185 3212.71 Q112.007 3210.98 126.474 3196.22 Q140.797 3181.32 140.797 3154.84 Q140.797 3139.51 137.036 3125.19 Q133.274 3110.72 125.751 3096.54 L150.924 3096.54 Q157.001 3110.86 160.184 3125.91 Q163.367 3140.95 163.367 3156.43 Q163.367 3195.21 140.797 3217.92 Q118.228 3240.49 79.7443 3240.49 Q39.9586 3240.49 16.6659 3219.08 Q-6.77147 3197.52 -6.77147 3161.06 Q-6.77147 3128.37 14.3511 3109.42 Q35.329 3090.32 71.4978 3090.32 M63.6853 3116.94 Q41.8394 3117.23 28.8186 3129.24 Q15.7979 3141.1 15.7979 3160.78 Q15.7979 3183.06 28.3846 3196.51 Q40.9713 3209.82 63.83 3211.85 L63.6853 3116.94 Z" fill="#000000" fill-rule="evenodd" fill-opacity="1" /><path clip-path="url(#clip380)" d="M 0 0 M22.0189 2968.5 Q19.4147 2972.99 18.2573 2978.34 Q16.9553 2983.55 16.9553 2989.91 Q16.9553 3012.48 31.7121 3024.64 Q46.3243 3036.64 73.8126 3036.64 L159.171 3036.64 L159.171 3063.41 L-2.86524 3063.41 L-2.86524 3036.64 L22.3082 3036.64 Q7.55137 3028.25 0.462286 3014.8 Q-6.77147 3001.34 -6.77147 2982.1 Q-6.77147 2979.35 -6.33745 2976.03 Q-6.0481 2972.7 -5.32472 2968.65 L22.0189 2968.5 Z" fill="#000000" fill-rule="evenodd" fill-opacity="1" /><path clip-path="url(#clip380)" d="M 0 0 M76.2721 2839.16 Q47.337 2839.16 31.4228 2851.17 Q15.5085 2863.03 15.5085 2884.59 Q15.5085 2906 31.4228 2918.01 Q47.337 2929.87 76.2721 2929.87 Q105.062 2929.87 120.977 2918.01 Q136.891 2906 136.891 2884.59 Q136.891 2863.03 120.977 2851.17 Q105.062 2839.16 76.2721 2839.16 M139.061 2812.54 Q180.438 2812.54 200.548 2830.92 Q220.803 2849.29 220.803 2887.19 Q220.803 2901.23 218.632 2913.67 Q216.607 2926.11 212.267 2937.83 L186.37 2937.83 Q192.736 2926.11 195.774 2914.68 Q198.812 2903.25 198.812 2891.39 Q198.812 2865.2 185.068 2852.18 Q171.468 2839.16 143.835 2839.16 L130.67 2839.16 Q144.993 2847.41 152.082 2860.28 Q159.171 2873.16 159.171 2891.1 Q159.171 2920.9 136.457 2939.13 Q113.743 2957.36 76.2721 2957.36 Q38.6565 2957.36 15.9425 2939.13 Q-6.77147 2920.9 -6.77147 2891.1 Q-6.77147 2873.16 0.317611 2860.28 Q7.40669 2847.41 21.7295 2839.16 L-2.86524 2839.16 L-2.86524 2812.54 L139.061 2812.54 Z" fill="#000000" fill-rule="evenodd" fill-opacity="1" /><path clip-path="url(#clip380)" d="M 0 0 M-77.807 2751.2 L-77.807 2722.41 L-23.4091 2769.57 L-23.4091 2791.71 L-77.807 2751.2 M-2.86524 2784.62 L-2.86524 2758 L159.171 2758 L159.171 2784.62 L-2.86524 2784.62 M-6.77147 2771.31 L-6.77147 2771.31 Z" fill="#000000" fill-rule="evenodd" fill-opacity="1" /><path clip-path="url(#clip380)" d="M 0 0 M77.7188 2620.85 Q77.7188 2653.11 85.0972 2665.55 Q92.4757 2677.99 110.271 2677.99 Q124.449 2677.99 132.84 2668.73 Q141.087 2659.33 141.087 2643.27 Q141.087 2621.14 125.462 2607.83 Q109.692 2594.37 83.6505 2594.37 L77.7188 2594.37 L77.7188 2620.85 M66.7235 2567.75 L159.171 2567.75 L159.171 2594.37 L134.576 2594.37 Q149.333 2603.49 156.422 2617.09 Q163.367 2630.69 163.367 2650.36 Q163.367 2675.25 149.478 2690 Q135.444 2704.61 112.007 2704.61 Q84.6632 2704.61 70.7744 2686.39 Q56.8856 2668.01 56.8856 2631.7 L56.8856 2594.37 L54.2814 2594.37 Q35.9077 2594.37 25.9251 2606.52 Q15.7979 2618.53 15.7979 2640.38 Q15.7979 2654.27 19.1254 2667.43 Q22.4529 2680.6 29.108 2692.75 L4.51319 2692.75 Q-1.12914 2678.14 -3.87797 2664.39 Q-6.77147 2650.65 -6.77147 2637.63 Q-6.77147 2602.47 11.4576 2585.11 Q29.6867 2567.75 66.7235 2567.75 Z" fill="#000000" fill-rule="evenodd" fill-opacity="1" /><path clip-path="url(#clip380)" d="M 0 0 M5303.82 59.8376 L5303.82 90.6534 Q5289.07 76.9093 5272.28 70.1096 Q5255.65 63.3098 5236.84 63.3098 Q5199.8 63.3098 5180.12 86.0238 Q5160.45 108.593 5160.45 151.417 Q5160.45 194.096 5180.12 216.81 Q5199.8 239.38 5236.84 239.38 Q5255.65 239.38 5272.28 232.58 Q5289.07 225.78 5303.82 212.036 L5303.82 242.562 Q5288.49 252.979 5271.27 258.187 Q5254.2 263.396 5235.1 263.396 Q5186.06 263.396 5157.84 233.448 Q5129.63 203.355 5129.63 151.417 Q5129.63 99.334 5157.84 69.3862 Q5186.06 39.2938 5235.1 39.2938 Q5254.49 39.2938 5271.56 44.5021 Q5288.78 49.5657 5303.82 59.8376 Z" fill="#000000" fill-rule="evenodd" fill-opacity="1" /><path clip-path="url(#clip380)" d="M 0 0 M5405.38 177.748 Q5373.12 177.748 5360.68 185.126 Q5348.24 192.505 5348.24 210.3 Q5348.24 224.478 5357.5 232.869 Q5366.9 241.116 5382.96 241.116 Q5405.09 241.116 5418.4 225.491 Q5431.86 209.721 5431.86 183.68 L5431.86 177.748 L5405.38 177.748 M5458.48 166.753 L5458.48 259.2 L5431.86 259.2 L5431.86 234.605 Q5422.75 249.362 5409.15 256.451 Q5395.55 263.396 5375.87 263.396 Q5350.99 263.396 5336.23 249.507 Q5321.62 235.473 5321.62 212.036 Q5321.62 184.692 5339.85 170.803 Q5358.22 156.915 5394.53 156.915 L5431.86 156.915 L5431.86 154.311 Q5431.86 135.937 5419.71 125.954 Q5407.7 115.827 5385.85 115.827 Q5371.96 115.827 5358.8 119.154 Q5345.63 122.482 5333.48 129.137 L5333.48 104.542 Q5348.09 98.8999 5361.84 96.1511 Q5375.58 93.2576 5388.6 93.2576 Q5423.76 93.2576 5441.12 111.487 Q5458.48 129.716 5458.48 166.753 Z" fill="#000000" fill-rule="evenodd" fill-opacity="1" /><path clip-path="url(#clip380)" d="M 0 0 M5612.56 128.269 Q5622.54 110.329 5636.43 101.793 Q5650.32 93.2576 5669.13 93.2576 Q5694.45 93.2576 5708.19 111.053 Q5721.93 128.703 5721.93 161.4 L5721.93 259.2 L5695.17 259.2 L5695.17 162.268 Q5695.17 138.975 5686.92 127.69 Q5678.68 116.406 5661.75 116.406 Q5641.06 116.406 5629.05 130.15 Q5617.04 143.894 5617.04 167.621 L5617.04 259.2 L5590.28 259.2 L5590.28 162.268 Q5590.28 138.83 5582.03 127.69 Q5573.79 116.406 5556.57 116.406 Q5536.17 116.406 5524.16 130.294 Q5512.15 144.039 5512.15 167.621 L5512.15 259.2 L5485.39 259.2 L5485.39 97.1638 L5512.15 97.1638 L5512.15 122.337 Q5521.27 107.436 5534 100.347 Q5546.73 93.2576 5564.24 93.2576 Q5581.89 93.2576 5594.19 102.227 Q5606.63 111.197 5612.56 128.269 Z" fill="#000000" fill-rule="evenodd" fill-opacity="1" /><path clip-path="url(#clip380)" d="M 0 0 M5866.17 178.327 Q5866.17 148.958 5854.02 132.32 Q5842.01 115.538 5820.89 115.538 Q5799.77 115.538 5787.62 132.32 Q5775.61 148.958 5775.61 178.327 Q5775.61 207.696 5787.62 224.478 Q5799.77 241.116 5820.89 241.116 Q5842.01 241.116 5854.02 224.478 Q5866.17 207.696 5866.17 178.327 M5775.61 121.759 Q5784 107.291 5796.73 100.347 Q5809.61 93.2576 5827.4 93.2576 Q5856.92 93.2576 5875.29 116.695 Q5893.81 140.132 5893.81 178.327 Q5893.81 216.521 5875.29 239.958 Q5856.92 263.396 5827.4 263.396 Q5809.61 263.396 5796.73 256.451 Q5784 249.362 5775.61 234.895 L5775.61 259.2 L5748.84 259.2 L5748.84 34.0855 L5775.61 34.0855 L5775.61 121.759 Z" fill="#000000" fill-rule="evenodd" fill-opacity="1" /><path clip-path="url(#clip380)" d="M 0 0 M5921.73 97.1638 L5948.35 97.1638 L5948.35 259.2 L5921.73 259.2 L5921.73 97.1638 M5921.73 34.0855 L5948.35 34.0855 L5948.35 67.7948 L5921.73 67.7948 L5921.73 34.0855 Z" fill="#000000" fill-rule="evenodd" fill-opacity="1" /><path clip-path="url(#clip380)" d="M 0 0 M6039.06 115.827 Q6017.65 115.827 6005.21 132.609 Q5992.77 149.247 5992.77 178.327 Q5992.77 207.406 6005.06 224.189 Q6017.5 240.826 6039.06 240.826 Q6060.33 240.826 6072.77 224.044 Q6085.21 207.262 6085.21 178.327 Q6085.21 149.536 6072.77 132.754 Q6060.33 115.827 6039.06 115.827 M6039.06 93.2576 Q6073.78 93.2576 6093.6 115.827 Q6113.42 138.396 6113.42 178.327 Q6113.42 218.112 6093.6 240.826 Q6073.78 263.396 6039.06 263.396 Q6004.19 263.396 5984.37 240.826 Q5964.7 218.112 5964.7 178.327 Q5964.7 138.396 5984.37 115.827 Q6004.19 93.2576 6039.06 93.2576 Z" fill="#000000" fill-rule="evenodd" fill-opacity="1" /><path clip-path="url(#clip380)" d="M 0 0 M6342.16 121.759 L6342.16 34.0855 L6368.78 34.0855 L6368.78 259.2 L6342.16 259.2 L6342.16 234.895 Q6333.76 249.362 6320.89 256.451 Q6308.16 263.396 6290.22 263.396 Q6260.85 263.396 6242.33 239.958 Q6223.96 216.521 6223.96 178.327 Q6223.96 140.132 6242.33 116.695 Q6260.85 93.2576 6290.22 93.2576 Q6308.16 93.2576 6320.89 100.347 Q6333.76 107.291 6342.16 121.759 M6251.44 178.327 Q6251.44 207.696 6263.45 224.478 Q6275.61 241.116 6296.73 241.116 Q6317.85 241.116 6330 224.478 Q6342.16 207.696 6342.16 178.327 Q6342.16 148.958 6330 132.32 Q6317.85 115.538 6296.73 115.538 Q6275.61 115.538 6263.45 132.32 Q6251.44 148.958 6251.44 178.327 Z" fill="#000000" fill-rule="evenodd" fill-opacity="1" /><path clip-path="url(#clip380)" d="M 0 0 M6535.3 171.527 L6535.3 184.548 L6412.9 184.548 Q6414.64 212.036 6429.39 226.503 Q6444.3 240.826 6470.77 240.826 Q6486.11 240.826 6500.43 237.065 Q6514.9 233.303 6529.08 225.78 L6529.08 250.954 Q6514.75 257.03 6499.71 260.213 Q6484.66 263.396 6469.18 263.396 Q6430.41 263.396 6407.69 240.826 Q6385.12 218.257 6385.12 179.773 Q6385.12 139.988 6406.54 116.695 Q6428.09 93.2576 6464.55 93.2576 Q6497.25 93.2576 6516.2 114.38 Q6535.3 135.358 6535.3 171.527 M6508.68 163.714 Q6508.39 141.868 6496.38 128.848 Q6484.52 115.827 6464.84 115.827 Q6442.56 115.827 6429.11 128.414 Q6415.8 141 6413.77 163.859 L6508.68 163.714 Z" fill="#000000" fill-rule="evenodd" fill-opacity="1" /><path clip-path="url(#clip380)" d="M 0 0 M6657.4 34.0855 L6684.02 34.0855 L6684.02 259.2 L6657.4 259.2 L6657.4 34.0855 Z" fill="#000000" fill-rule="evenodd" fill-opacity="1" /><path clip-path="url(#clip380)" d="M 0 0 M6785.59 177.748 Q6753.32 177.748 6740.88 185.126 Q6728.44 192.505 6728.44 210.3 Q6728.44 224.478 6737.7 232.869 Q6747.1 241.116 6763.16 241.116 Q6785.3 241.116 6798.61 225.491 Q6812.06 209.721 6812.06 183.68 L6812.06 177.748 L6785.59 177.748 M6838.68 166.753 L6838.68 259.2 L6812.06 259.2 L6812.06 234.605 Q6802.95 249.362 6789.35 256.451 Q6775.75 263.396 6756.07 263.396 Q6731.19 263.396 6716.43 249.507 Q6701.82 235.473 6701.82 212.036 Q6701.82 184.692 6720.05 170.803 Q6738.42 156.915 6774.73 156.915 L6812.06 156.915 L6812.06 154.311 Q6812.06 135.937 6799.91 125.954 Q6787.9 115.827 6766.05 115.827 Q6752.17 115.827 6739 119.154 Q6725.83 122.482 6713.68 129.137 L6713.68 104.542 Q6728.29 98.8999 6742.04 96.1511 Q6755.78 93.2576 6768.8 93.2576 Q6803.96 93.2576 6821.32 111.487 Q6838.68 129.716 6838.68 166.753 Z" fill="#000000" fill-rule="evenodd" fill-opacity="1" /><path clip-path="url(#clip380)" d="M 0 0 M7099.39 171.527 L7099.39 184.548 L6976.99 184.548 Q6978.73 212.036 6993.48 226.503 Q7008.38 240.826 7034.86 240.826 Q7050.2 240.826 7064.52 237.065 Q7078.99 233.303 7093.16 225.78 L7093.16 250.954 Q7078.84 257.03 7063.8 260.213 Q7048.75 263.396 7033.27 263.396 Q6994.5 263.396 6971.78 240.826 Q6949.21 218.257 6949.21 179.773 Q6949.21 139.988 6970.62 116.695 Q6992.18 93.2576 7028.64 93.2576 Q7061.34 93.2576 7080.29 114.38 Q7099.39 135.358 7099.39 171.527 M7072.77 163.714 Q7072.48 141.868 7060.47 128.848 Q7048.6 115.827 7028.93 115.827 Q7006.65 115.827 6993.19 128.414 Q6979.88 141 6977.86 163.859 L7072.77 163.714 Z" fill="#000000" fill-rule="evenodd" fill-opacity="1" /><path clip-path="url(#clip380)" d="M 0 0 M7262 161.4 L7262 259.2 L7235.38 259.2 L7235.38 162.268 Q7235.38 139.264 7226.41 127.835 Q7217.44 116.406 7199.5 116.406 Q7177.94 116.406 7165.5 130.15 Q7153.06 143.894 7153.06 167.621 L7153.06 259.2 L7126.3 259.2 L7126.3 97.1638 L7153.06 97.1638 L7153.06 122.337 Q7162.61 107.725 7175.48 100.491 Q7188.51 93.2576 7205.43 93.2576 Q7233.35 93.2576 7247.68 110.619 Q7262 127.835 7262 161.4 Z" fill="#000000" fill-rule="evenodd" fill-opacity="1" /><path clip-path="url(#clip380)" d="M 0 0 M7428.52 171.527 L7428.52 184.548 L7306.13 184.548 Q7307.86 212.036 7322.62 226.503 Q7337.52 240.826 7364 240.826 Q7379.33 240.826 7393.65 237.065 Q7408.12 233.303 7422.3 225.78 L7422.3 250.954 Q7407.98 257.03 7392.93 260.213 Q7377.89 263.396 7362.4 263.396 Q7323.63 263.396 7300.92 240.826 Q7278.35 218.257 7278.35 179.773 Q7278.35 139.988 7299.76 116.695 Q7321.32 93.2576 7357.78 93.2576 Q7390.47 93.2576 7409.42 114.38 Q7428.52 135.358 7428.52 171.527 M7401.9 163.714 Q7401.61 141.868 7389.6 128.848 Q7377.74 115.827 7358.06 115.827 Q7335.78 115.827 7322.33 128.414 Q7309.02 141 7306.99 163.859 L7401.9 163.714 Z" fill="#000000" fill-rule="evenodd" fill-opacity="1" /><path clip-path="url(#clip380)" d="M 0 0 M7550.34 122.048 Q7545.85 119.444 7540.5 118.286 Q7535.29 116.984 7528.93 116.984 Q7506.36 116.984 7494.2 131.741 Q7482.2 146.353 7482.2 173.842 L7482.2 259.2 L7455.43 259.2 L7455.43 97.1638 L7482.2 97.1638 L7482.2 122.337 Q7490.59 107.58 7504.04 100.491 Q7517.5 93.2576 7536.74 93.2576 Q7539.49 93.2576 7542.81 93.6916 Q7546.14 93.981 7550.19 94.7044 L7550.34 122.048 Z" fill="#000000" fill-rule="evenodd" fill-opacity="1" /><path clip-path="url(#clip380)" d="M 0 0 M7679.68 176.301 Q7679.68 147.366 7667.67 131.452 Q7655.81 115.538 7634.25 115.538 Q7612.84 115.538 7600.83 131.452 Q7588.97 147.366 7588.97 176.301 Q7588.97 205.091 7600.83 221.006 Q7612.84 236.92 7634.25 236.92 Q7655.81 236.92 7667.67 221.006 Q7679.68 205.091 7679.68 176.301 M7706.3 239.09 Q7706.3 280.467 7687.92 300.577 Q7669.55 320.832 7631.65 320.832 Q7617.61 320.832 7605.17 318.661 Q7592.73 316.636 7581.01 312.296 L7581.01 286.399 Q7592.73 292.765 7604.16 295.803 Q7615.59 298.841 7627.45 298.841 Q7653.64 298.841 7666.66 285.097 Q7679.68 271.497 7679.68 243.864 L7679.68 230.699 Q7671.43 245.022 7658.55 252.111 Q7645.68 259.2 7627.74 259.2 Q7597.94 259.2 7579.71 236.486 Q7561.48 213.772 7561.48 176.301 Q7561.48 138.686 7579.71 115.972 Q7597.94 93.2576 7627.74 93.2576 Q7645.68 93.2576 7658.55 100.347 Q7671.43 107.436 7679.68 121.759 L7679.68 97.1638 L7706.3 97.1638 L7706.3 239.09 Z" fill="#000000" fill-rule="evenodd" fill-opacity="1" /><path clip-path="url(#clip380)" d="M 0 0 M7767.64 22.2221 L7796.43 22.2221 L7749.27 76.62 L7727.13 76.62 L7767.64 22.2221 M7734.22 97.1638 L7760.84 97.1638 L7760.84 259.2 L7734.22 259.2 L7734.22 97.1638 M7747.53 93.2576 L7747.53 93.2576 Z" fill="#000000" fill-rule="evenodd" fill-opacity="1" /><path clip-path="url(#clip380)" d="M 0 0 M7897.99 177.748 Q7865.73 177.748 7853.29 185.126 Q7840.85 192.505 7840.85 210.3 Q7840.85 224.478 7850.1 232.869 Q7859.51 241.116 7875.57 241.116 Q7897.7 241.116 7911.01 225.491 Q7924.47 209.721 7924.47 183.68 L7924.47 177.748 L7897.99 177.748 M7951.09 166.753 L7951.09 259.2 L7924.47 259.2 L7924.47 234.605 Q7915.35 249.362 7901.75 256.451 Q7888.15 263.396 7868.48 263.396 Q7843.59 263.396 7828.84 249.507 Q7814.23 235.473 7814.23 212.036 Q7814.23 184.692 7832.45 170.803 Q7850.83 156.915 7887.14 156.915 L7924.47 156.915 L7924.47 154.311 Q7924.47 135.937 7912.32 125.954 Q7900.31 115.827 7878.46 115.827 Q7864.57 115.827 7851.41 119.154 Q7838.24 122.482 7826.09 129.137 L7826.09 104.542 Q7840.7 98.8999 7854.45 96.1511 Q7868.19 93.2576 7881.21 93.2576 Q7916.37 93.2576 7933.73 111.487 Q7951.09 129.716 7951.09 166.753 Z" fill="#000000" fill-rule="evenodd" fill-opacity="1" /><path clip-path="url(#clip380)" d="M 0 0 M8211.79 171.527 L8211.79 184.548 L8089.4 184.548 Q8091.13 212.036 8105.89 226.503 Q8120.79 240.826 8147.27 240.826 Q8162.6 240.826 8176.93 237.065 Q8191.39 233.303 8205.57 225.78 L8205.57 250.954 Q8191.25 257.03 8176.2 260.213 Q8161.16 263.396 8145.68 263.396 Q8106.9 263.396 8084.19 240.826 Q8061.62 218.257 8061.62 179.773 Q8061.62 139.988 8083.03 116.695 Q8104.59 93.2576 8141.05 93.2576 Q8173.74 93.2576 8192.7 114.38 Q8211.79 135.358 8211.79 171.527 M8185.17 163.714 Q8184.88 141.868 8172.88 128.848 Q8161.01 115.827 8141.34 115.827 Q8119.06 115.827 8105.6 128.414 Q8092.29 141 8090.27 163.859 L8185.17 163.714 Z" fill="#000000" fill-rule="evenodd" fill-opacity="1" /><path clip-path="url(#clip380)" d="M 0 0 M8374.41 161.4 L8374.41 259.2 L8347.79 259.2 L8347.79 162.268 Q8347.79 139.264 8338.82 127.835 Q8329.85 116.406 8311.91 116.406 Q8290.35 116.406 8277.91 130.15 Q8265.47 143.894 8265.47 167.621 L8265.47 259.2 L8238.7 259.2 L8238.7 97.1638 L8265.47 97.1638 L8265.47 122.337 Q8275.02 107.725 8287.89 100.491 Q8300.91 93.2576 8317.84 93.2576 Q8345.76 93.2576 8360.08 110.619 Q8374.41 127.835 8374.41 161.4 Z" fill="#000000" fill-rule="evenodd" fill-opacity="1" /><path clip-path="url(#clip380)" d="M 0 0 M8635.11 171.527 L8635.11 184.548 L8512.72 184.548 Q8514.45 212.036 8529.21 226.503 Q8544.11 240.826 8570.59 240.826 Q8585.92 240.826 8600.25 237.065 Q8614.71 233.303 8628.89 225.78 L8628.89 250.954 Q8614.57 257.03 8599.52 260.213 Q8584.48 263.396 8569 263.396 Q8530.22 263.396 8507.51 240.826 Q8484.94 218.257 8484.94 179.773 Q8484.94 139.988 8506.35 116.695 Q8527.91 93.2576 8564.37 93.2576 Q8597.06 93.2576 8616.02 114.38 Q8635.11 135.358 8635.11 171.527 M8608.49 163.714 Q8608.2 141.868 8596.19 128.848 Q8584.33 115.827 8564.66 115.827 Q8542.38 115.827 8528.92 128.414 Q8515.61 141 8513.59 163.859 L8608.49 163.714 Z" fill="#000000" fill-rule="evenodd" fill-opacity="1" /><path clip-path="url(#clip380)" d="M 0 0 M8663.03 34.0855 L8689.65 34.0855 L8689.65 259.2 L8663.03 259.2 L8663.03 34.0855 Z" fill="#000000" fill-rule="evenodd" fill-opacity="1" /><path clip-path="url(#clip380)" d="M 0 0 M8838.09 51.1571 L8838.09 97.1638 L8892.92 97.1638 L8892.92 117.852 L8838.09 117.852 L8838.09 205.815 Q8838.09 225.635 8843.44 231.278 Q8848.94 236.92 8865.58 236.92 L8892.92 236.92 L8892.92 259.2 L8865.58 259.2 Q8834.76 259.2 8823.05 247.771 Q8811.33 236.197 8811.33 205.815 L8811.33 117.852 L8791.8 117.852 L8791.8 97.1638 L8811.33 97.1638 L8811.33 51.1571 L8838.09 51.1571 Z" fill="#000000" fill-rule="evenodd" fill-opacity="1" /><path clip-path="url(#clip380)" d="M 0 0 M8920.85 97.1638 L8947.47 97.1638 L8947.47 259.2 L8920.85 259.2 L8920.85 97.1638 M8920.85 34.0855 L8947.47 34.0855 L8947.47 67.7948 L8920.85 67.7948 L8920.85 34.0855 Z" fill="#000000" fill-rule="evenodd" fill-opacity="1" /><path clip-path="url(#clip380)" d="M 0 0 M9113.99 171.527 L9113.99 184.548 L8991.59 184.548 Q8993.33 212.036 9008.08 226.503 Q9022.99 240.826 9049.46 240.826 Q9064.8 240.826 9079.12 237.065 Q9093.59 233.303 9107.77 225.78 L9107.77 250.954 Q9093.44 257.03 9078.4 260.213 Q9063.35 263.396 9047.87 263.396 Q9009.1 263.396 8986.38 240.826 Q8963.81 218.257 8963.81 179.773 Q8963.81 139.988 8985.23 116.695 Q9006.78 93.2576 9043.24 93.2576 Q9075.94 93.2576 9094.89 114.38 Q9113.99 135.358 9113.99 171.527 M9087.37 163.714 Q9087.08 141.868 9075.07 128.848 Q9063.21 115.827 9043.53 115.827 Q9021.25 115.827 9007.8 128.414 Q8994.49 141 8992.46 163.859 L9087.37 163.714 Z" fill="#000000" fill-rule="evenodd" fill-opacity="1" /><path clip-path="url(#clip380)" d="M 0 0 M9268.07 128.269 Q9278.05 110.329 9291.94 101.793 Q9305.83 93.2576 9324.63 93.2576 Q9349.95 93.2576 9363.7 111.053 Q9377.44 128.703 9377.44 161.4 L9377.44 259.2 L9350.68 259.2 L9350.68 162.268 Q9350.68 138.975 9342.43 127.69 Q9334.18 116.406 9317.26 116.406 Q9296.57 116.406 9284.56 130.15 Q9272.55 143.894 9272.55 167.621 L9272.55 259.2 L9245.79 259.2 L9245.79 162.268 Q9245.79 138.83 9237.54 127.69 Q9229.29 116.406 9212.08 116.406 Q9191.68 116.406 9179.67 130.294 Q9167.66 144.039 9167.66 167.621 L9167.66 259.2 L9140.9 259.2 L9140.9 97.1638 L9167.66 97.1638 L9167.66 122.337 Q9176.78 107.436 9189.51 100.347 Q9202.24 93.2576 9219.74 93.2576 Q9237.39 93.2576 9249.69 102.227 Q9262.13 111.197 9268.07 128.269 Z" fill="#000000" fill-rule="evenodd" fill-opacity="1" /><path clip-path="url(#clip380)" d="M 0 0 M9431.11 234.895 L9431.11 320.832 L9404.35 320.832 L9404.35 97.1638 L9431.11 97.1638 L9431.11 121.759 Q9439.51 107.291 9452.24 100.347 Q9465.11 93.2576 9482.91 93.2576 Q9512.42 93.2576 9530.8 116.695 Q9549.31 140.132 9549.31 178.327 Q9549.31 216.521 9530.8 239.958 Q9512.42 263.396 9482.91 263.396 Q9465.11 263.396 9452.24 256.451 Q9439.51 249.362 9431.11 234.895 M9521.68 178.327 Q9521.68 148.958 9509.53 132.32 Q9497.52 115.538 9476.4 115.538 Q9455.28 115.538 9443.12 132.32 Q9431.11 148.958 9431.11 178.327 Q9431.11 207.696 9443.12 224.478 Q9455.28 241.116 9476.4 241.116 Q9497.52 241.116 9509.53 224.478 Q9521.68 207.696 9521.68 178.327 Z" fill="#000000" fill-rule="evenodd" fill-opacity="1" /><path clip-path="url(#clip380)" d="M 0 0 M9640.03 115.827 Q9618.61 115.827 9606.17 132.609 Q9593.73 149.247 9593.73 178.327 Q9593.73 207.406 9606.03 224.189 Q9618.47 240.826 9640.03 240.826 Q9661.29 240.826 9673.74 224.044 Q9686.18 207.262 9686.18 178.327 Q9686.18 149.536 9673.74 132.754 Q9661.29 115.827 9640.03 115.827 M9640.03 93.2576 Q9674.75 93.2576 9694.57 115.827 Q9714.39 138.396 9714.39 178.327 Q9714.39 218.112 9694.57 240.826 Q9674.75 263.396 9640.03 263.396 Q9605.16 263.396 9585.34 240.826 Q9565.66 218.112 9565.66 178.327 Q9565.66 138.396 9585.34 115.827 Q9605.16 93.2576 9640.03 93.2576 Z" fill="#000000" fill-rule="evenodd" fill-opacity="1" /><polyline clip-path="url(#clip382)" style="stroke:#009af9; stroke-width:20; stroke-opacity:1; fill:none" points="
  4657.16,686.015 4662.69,850.545 4668.22,1292.72 4673.75,1930.27 4679.28,2629.53 4684.81,3246.51 4690.34,3657.84 4695.87,3832.65 4701.4,3781.24 4706.92,3493.31 
  4712.45,3205.38 4717.98,2999.72 4723.51,2989.44 4729.04,3225.95 4734.57,3719.54 4740.1,4408.51 4745.63,5169.46 4751.16,5899.56 4756.69,6495.98 4762.22,6897.02 
  4767.75,7102.69 4773.28,7112.97 4778.81,6917.59 4784.34,6557.68 4789.87,6012.68 4795.4,5333.99 4800.93,4562.75 4806.46,3740.1 4811.99,2958.59 4817.52,2300.47 
  4823.05,1878.86 4828.58,1693.76 4834.11,1755.46 4839.64,1971.41 4845.17,2259.33 4850.7,2516.41 4856.23,2670.66 4861.76,2691.22 4867.29,2588.39 4872.82,2465 
  4878.35,2382.73 4883.88,2454.71 4889.41,2773.49 4894.93,3318.5 4900.46,3986.9 4905.99,4696.44 4911.52,5292.86 4917.05,5652.77 4922.58,5693.9 4928.11,5426.54 
  4933.64,4994.65 4939.17,4501.06 4944.7,4202.84 4950.23,4172 4955.76,4459.92 4961.29,4994.65 4966.82,5663.05 4972.35,6331.45 4977.88,6783.91 4983.41,7020.42 
  4988.94,7030.71 4994.47,6783.91 5000,6413.72 5005.53,5981.83 5011.06,5519.09 5016.59,5035.78 5022.12,4511.34 5027.65,3945.77 5033.18,3318.5 5038.71,2650.09 
  5044.24,2043.39 5049.77,1539.51 5055.3,1282.44 5060.83,1272.15 5066.36,1539.51 5071.89,2033.1 5077.42,2629.53 5082.94,3267.08 5088.47,3884.07 5094,4439.36 
  5099.53,4953.51 5105.06,5385.4 5110.59,5837.86 5116.12,6300.6 5121.65,6681.08 5127.18,6958.72 5132.71,6999.86 5138.24,6783.91 5143.77,6331.45 5149.3,5693.9 
  5154.83,5015.21 5160.36,4449.64 5165.89,4161.71 5171.42,4213.13 5176.95,4490.77 5182.48,4963.8 5188.01,5447.1 5193.54,5755.6 5199.07,5755.6 5204.6,5436.82 
  5210.13,4881.53 5215.66,4182.28 5221.19,3493.31 5226.72,2958.59 5232.25,2629.53 5237.78,2536.98 5243.31,2578.11 5248.84,2680.94 5254.37,2752.92 5259.9,2680.94 
  5265.43,2495.85 5270.96,2218.2 5276.48,1930.27 5282.01,1693.76 5287.54,1652.63 5293.07,1848.01 5298.6,2321.03 5304.13,2979.15 5309.66,3750.39 5315.19,4583.32 
  5320.72,5364.84 5326.25,6022.96 5331.78,6567.96 5337.31,6938.16 5342.84,7133.54 5348.37,7143.82 5353.9,6938.16 5359.43,6537.12 5364.96,5950.98 5370.49,5231.16 
  5376.02,4480.49 5381.55,3812.09 5387.08,3328.78 5392.61,3123.12 5398.14,3174.53 5403.67,3411.04 5409.2,3740.1 5414.73,3976.62 5420.26,4028.03 5425.79,3842.94 
  5431.32,3400.76 5436.85,2763.21 5442.38,2074.24 5447.91,1457.25 5453.44,1015.07 5458.97,860.828 5464.49,1015.07 5470.02,1467.53 5475.55,2063.95 5481.08,2752.92 
  5486.61,3328.78 5492.14,3729.82 5497.67,3842.94 5503.2,3740.1 5508.73,3452.18 5514.26,3164.25 5519.79,2958.59 5525.32,2948.3 5530.85,3215.66 5536.38,3688.69 
  5541.91,4367.37 5547.44,5118.04 5552.97,5858.43 5558.5,6434.28 5564.03,6855.89 5569.56,7040.99 5575.09,7010.14 5580.62,6825.04 5586.15,6444.57 5591.68,5909.84 
  5597.21,5210.59 5602.74,4439.36 5608.27,3585.86 5613.8,2835.19 5619.33,2218.2 5624.86,1806.88 5630.39,1621.78 5635.92,1693.76 5641.45,1940.56 5646.98,2238.77 
  5652.5,2485.56 5658.03,2608.96 5663.56,2588.39 5669.09,2444.43 5674.62,2279.9 5680.15,2166.79 5685.68,2249.05 5691.21,2567.83 5696.74,3092.27 5702.27,3760.67 
  5707.8,4490.77 5713.33,5076.91 5718.86,5447.1 5724.39,5477.95 5729.92,5231.16 5735.45,4809.55 5740.98,4377.66 5746.51,4048.6 5752.04,3997.18 5757.57,4274.83 
  5763.1,4809.55 5768.63,5488.24 5774.16,6156.64 5779.69,6660.51 5785.22,6917.59 5790.75,6948.44 5796.28,6732.49 5801.81,6372.59 5807.34,5950.98 5812.87,5467.67 
  5818.4,4974.08 5823.93,4459.92 5829.46,3863.5 5834.99,3225.95 5840.51,2557.54 5846.04,1919.99 5851.57,1436.68 5857.1,1159.04 5862.63,1148.76 5868.16,1405.83 
  5873.69,1868.57 5879.22,2444.43 5884.75,3061.42 5890.28,3657.84 5895.81,4172 5901.34,4665.59 5906.87,5138.61 5912.4,5591.07 5917.93,6043.52 5923.46,6454.85 
  5928.99,6742.78 5934.52,6825.04 5940.05,6650.23 5945.58,6208.06 5951.11,5570.5 5956.64,4902.1 5962.17,4326.24 5967.7,4007.47 5973.23,4017.75 5978.76,4326.24 
  5984.29,4799.27 5989.82,5282.57 5995.35,5591.07 6000.88,5632.2 6006.41,5333.99 6011.94,4788.98 6017.47,4100.01 6023,3431.61 6028.52,2917.45 6034.05,2578.11 
  6039.58,2434.15 6045.11,2444.43 6050.64,2506.13 6056.17,2536.98 6061.7,2434.15 6067.23,2218.2 6072.76,1950.84 6078.29,1652.63 6083.82,1446.97 6089.35,1426.4 
  6094.88,1642.35 6100.41,2115.37 6105.94,2794.06 6111.47,3565.29 6117,4377.66 6122.53,5138.61 6128.06,5807.01 6133.59,6341.74 6139.12,6701.65 6144.65,6907.31 
  6150.18,6927.87 6155.71,6722.21 6161.24,6310.89 6166.77,5693.9 6172.3,4953.51 6177.83,4192.56 6183.36,3534.44 6188.89,3040.85 6194.42,2804.34 6199.95,2876.32 
  6205.48,3143.68 6211.01,3472.74 6216.53,3719.54 6222.06,3740.1 6227.59,3534.44 6233.12,3081.98 6238.65,2423.86 6244.18,1724.61 6249.71,1076.77 6255.24,675.732 
  6260.77,542.051 6266.3,716.864 6271.83,1148.76 6277.36,1755.46 6282.89,2403.3 6288.42,2958.59 6293.95,3328.78 6299.48,3452.18 6305.01,3328.78 6310.54,3061.42 
  6316.07,2752.92 6321.6,2567.83 6327.13,2588.39 6332.66,2886.6 6338.19,3411.04 6343.72,4130.86 6349.25,4912.38 6354.78,5642.48 6360.31,6228.62 6365.84,6639.95 
  6371.37,6845.61 6376.9,6835.33 6382.43,6639.95 6387.96,6249.19 6393.49,5693.9 6399.02,5004.93 6404.54,4213.13 6410.07,3400.76 6415.6,2650.09 6421.13,2043.39 
  6426.66,1662.91 6432.19,1518.95 6437.72,1601.21 6443.25,1848.01 6448.78,2135.94 6454.31,2362.16 6459.84,2465 6465.37,2413.58 6470.9,2238.77 6476.43,2033.1 
  6481.96,1909.71 6487.49,1950.84 6493.02,2259.33 6498.55,2794.06 6504.08,3493.31 6509.61,4213.13 6515.14,4830.12 6520.67,5200.31 6526.2,5262.01 6531.73,5015.21 
  6537.26,4593.6 6542.79,4151.43 6548.32,3822.37 6553.85,3781.24 6559.38,4048.6 6564.91,4593.6 6570.44,5303.14 6575.97,5981.83 6581.5,6526.83 6587.03,6804.48 
  6592.56,6845.61 6598.08,6660.51 6603.61,6341.74 6609.14,5920.13 6614.67,5447.1 6620.2,4953.51 6625.73,4398.22 6631.26,3812.09 6636.79,3143.68 6642.32,2454.71 
  6647.85,1827.44 6653.38,1313.29 6658.91,1107.62 6664.44,1097.34 6669.97,1385.27 6675.5,1848.01 6681.03,2413.58 6686.56,2989.44 6692.09,3524.16 6697.62,4017.75 
  6703.15,4459.92 6708.68,4881.53 6714.21,5333.99 6719.74,5807.01 6725.27,6238.9 6730.8,6557.68 6736.33,6670.8 6741.86,6537.12 6747.39,6105.22 6752.92,5488.24 
  6758.45,4809.55 6763.98,4264.54 6769.51,3976.62 6775.04,3966.33 6780.57,4274.83 6786.09,4758.13 6791.62,5241.44 6797.15,5591.07 6802.68,5642.48 6808.21,5385.4 
  6813.74,4860.97 6819.27,4202.84 6824.8,3544.72 6830.33,2989.44 6835.86,2629.53 6841.39,2465 6846.92,2475.28 6852.45,2516.41 6857.98,2506.13 6863.51,2393.01 
  6869.04,2146.22 6874.57,1848.01 6880.1,1539.51 6885.63,1364.7 6891.16,1344.13 6896.69,1590.93 6902.22,2074.24 6907.75,2773.49 6913.28,3596.14 6918.81,4418.79 
  6924.34,5159.18 6929.87,5817.3 6935.4,6321.17 6940.93,6681.08 6946.46,6866.18 6951.99,6897.02 6957.52,6701.65 6963.05,6269.75 6968.58,5673.33 6974.1,4953.51 
  6979.63,4192.56 6985.16,3524.16 6990.69,3061.42 6996.22,2876.32 7001.75,2958.59 7007.28,3225.95 7012.81,3555.01 7018.34,3770.95 7023.87,3812.09 7029.4,3585.86 
  7034.93,3081.98 7040.46,2403.3 7045.99,1704.04 7051.52,1076.77 7057.05,665.448 7062.58,511.201 7068.11,686.015 7073.64,1148.76 7079.17,1724.61 7084.7,2362.16 
  7090.23,2886.6 7095.76,3205.38 7101.29,3287.65 7106.82,3123.12 7112.35,2845.47 7117.88,2588.39 7123.41,2454.71 7128.94,2485.56 7134.47,2814.62 7140,3380.19 
  7145.53,4079.45 7151.06,4860.97 7156.59,5570.5 7162.11,6146.36 7167.64,6547.4 7173.17,6742.78 7178.7,6722.21 7184.23,6506.27 7189.76,6105.22 7195.29,5549.93 
  7200.82,4850.68 7206.35,4048.6 7211.88,3267.08 7217.41,2506.13 7222.94,1909.71 7228.47,1560.08 7234,1446.97 7239.53,1560.08 7245.06,1786.31 7250.59,2053.67 
  7256.12,2269.62 7261.65,2310.75 7267.18,2218.2 7272.71,2002.26 7278.24,1776.03 7283.77,1642.35 7289.3,1683.48 7294.83,2012.54 7300.36,2547.26 7305.89,3246.51 
  7311.42,3976.62 7316.95,4573.04 7322.48,4953.51 7328.01,5035.78 7333.54,4809.55 7339.07,4387.94 7344.6,3945.77 7350.12,3647.56 7355.65,3596.14 7361.18,3863.5 
  7366.71,4429.07 7372.24,5138.61 7377.77,5817.3 7383.3,6362.3 7388.83,6681.08 7394.36,6722.21 7399.89,6557.68 7405.42,6238.9 7410.95,5807.01 7416.48,5333.99 
  7422.01,4830.12 7427.54,4264.54 7433.07,3647.56 7438.6,2958.59 7444.13,2259.33 7449.66,1611.5 7455.19,1107.62 7460.72,871.111 7466.25,891.677 7471.78,1169.32 
  7477.31,1662.91 7482.84,2218.2 7488.37,2835.19 7493.9,3339.06 7499.43,3801.8 7504.96,4213.13 7510.49,4624.45 7516.02,5035.78 7521.55,5519.09 7527.08,5961.26 
  7532.61,6310.89 7538.13,6454.85 7543.66,6331.45 7549.19,5940.69 7554.72,5364.84 7560.25,4696.44 7565.78,4120.58 7571.31,3822.37 7576.84,3822.37 7582.37,4130.86 
  7587.9,4624.45 7593.43,5138.61 7598.96,5508.8 7604.49,5591.07 7610.02,5344.27 7615.55,4860.97 7621.08,4233.69 7626.61,3575.57 7632.14,3040.85 7637.67,2691.22 
  7643.2,2536.98 7648.73,2506.13 7654.26,2485.56 7659.79,2434.15 7665.32,2259.33 7670.85,1971.41 7676.38,1642.35 7681.91,1313.29 7687.44,1128.19 7692.97,1159.04 
  7698.5,1426.4 7704.03,1981.69 7709.56,2680.94 7715.09,3483.03 7720.62,4295.39 7726.14,5025.5 7731.67,5673.33 7737.2,6177.21 7742.73,6547.4 7748.26,6753.06 
  7753.79,6783.91 7759.32,6567.96 7764.85,6136.07 7770.38,5519.09 7775.91,4788.98 7781.44,4028.03 7786.97,3380.19 7792.5,2948.3 7798.03,2794.06 7803.56,2917.45 
  7809.09,3236.23 7814.62,3575.57 7820.15,3801.8 7825.68,3822.37 7831.21,3544.72 7836.74,3030.57 7842.27,2362.16 7847.8,1632.06 7853.33,1025.36 7858.86,624.316 
  7864.39,521.485 7869.92,706.581 7875.45,1159.04 7880.98,1765.74 7886.51,2341.6 7892.04,2824.91 7897.57,3102.55 7903.1,3133.4 7908.63,2958.59 7914.16,2680.94 
  7919.68,2423.86 7925.21,2290.18 7930.74,2413.58 7936.27,2773.49 7941.8,3349.35 7947.33,4089.73 7952.86,4860.97 7958.39,5570.5 7963.92,6125.79 7969.45,6516.55 
  7974.98,6681.08 7980.51,6670.8 7986.04,6454.85 7991.57,6053.81 7997.1,5488.24 8002.63,4788.98 8008.16,4007.47 8013.69,3215.66 8019.22,2516.41 8024.75,1971.41 
  8030.28,1662.91 8035.81,1590.93 8041.34,1745.18 8046.87,1991.97 8052.4,2259.33 8057.93,2423.86 8063.46,2454.71 8068.99,2290.18 8074.52,2043.39 8080.05,1776.03 
  8085.58,1621.78 8091.11,1652.63 8096.64,1961.12 8102.17,2485.56 8107.69,3195.1 8113.22,3945.77 8118.75,4542.19 8124.28,4953.51 8129.81,5004.93 8135.34,4788.98 
  8140.87,4398.22 8146.4,3986.9 8151.93,3668.12 8157.46,3616.71 8162.99,3914.92 8168.52,4459.92 8174.05,5179.74 8179.58,5889.28 8185.11,6465.13 8190.64,6825.04 
  8196.17,6897.02 8201.7,6753.06 8207.23,6475.42 8212.76,6064.09 8218.29,5611.63 8223.82,5076.91 8229.35,4490.77 8234.88,3822.37 8240.41,3112.83 8245.94,2403.3 
  8251.47,1734.89 8257,1261.87 8262.53,1045.92 8268.06,1066.49 8273.59,1344.13 8279.12,1806.88 8284.65,2362.16 8290.18,2907.17 8295.7,3369.91 8301.23,3801.8 
  8306.76,4182.28 8312.29,4562.75 8317.82,5004.93 8323.35,5467.67 8328.88,5940.69 8334.41,6331.45 8339.94,6526.83 8345.47,6444.57 8351,6074.37 8356.53,5477.95 
  8362.06,4830.12 8367.59,4274.83 8373.12,3976.62 8378.65,3986.9 8384.18,4305.68 8389.71,4799.27 8395.24,5323.71 8400.77,5704.18 8406.3,5827.58 8411.83,5621.92 
  8417.36,5179.74 8422.89,4583.32 8428.42,3925.2 8433.95,3390.48 8439.48,3040.85 8445.01,2845.47 8450.54,2752.92 8456.07,2711.79 8461.6,2608.96 8467.13,2403.3 
  8472.66,2084.52 8478.19,1734.89 8483.71,1416.12 8489.24,1231.02 8494.77,1272.15 8500.3,1580.65 8505.83,2146.22 8511.36,2876.32 8516.89,3698.97 8522.42,4511.34 
  8527.95,5231.16 8533.48,5848.15 8539.01,6341.74 8544.54,6701.65 8550.07,6907.31 8555.6,6917.59 8561.13,6742.78 8566.66,6310.89 8572.19,5693.9 8577.72,4943.23 
  8583.25,4172 8588.78,3555.01 8594.31,3133.4 8599.84,2979.15 8605.37,3102.55 8610.9,3411.04 8616.43,3760.67 8621.96,3956.05 8627.49,3945.77 8633.02,3647.56 
  8638.55,3112.83 8644.08,2423.86 8649.61,1693.76 8655.14,1066.49 8660.67,675.732 8666.2,593.466 8671.72,809.412 8677.25,1231.02 8682.78,1796.59 8688.31,2351.88 
  8693.84,2783.77 8699.37,2999.72 8704.9,2989.44 8710.43,2773.49 8715.96,2485.56 8721.49,2249.05 8727.02,2146.22 8732.55,2310.75 8738.08,2711.79 8743.61,3339.06 
  8749.14,4079.45 8754.67,4860.97 8760.2,5539.65 8765.73,6084.66 8771.26,6434.28 8776.79,6609.1 8782.32,6578.25 8787.85,6331.45 8793.38,5920.13 8798.91,5313.42 
  8804.44,4603.89 8809.97,3801.8 8815.5,3010 8821.03,2321.03 8826.56,1817.16 8832.09,1560.08 8837.62,1549.8 8843.15,1724.61 8848.68,1981.69 8854.21,2228.48 
  8859.73,2351.88 8865.26,2310.75 8870.79,2105.09 8876.32,1786.31 8881.85,1477.82 8887.38,1323.57 8892.91,1344.13 8898.44,1632.06 8903.97,2177.07 8909.5,2896.89 
  8915.03,3668.12 8920.56,4274.83 8926.09,4645.02 8931.62,4727.28 8937.15,4521.62 8942.68,4130.86 8948.21,3698.97 8953.74,3452.18 8959.27,3431.61 8964.8,3719.54 
  8970.33,4264.54 8975.86,4974.08 8981.39,5714.46 8986.92,6269.75 8992.45,6629.66 8997.98,6722.21 9003.51,6609.1 9009.04,6310.89 9014.57,5909.84 9020.1,5447.1 
  9025.63,4912.38 9031.16,4285.11 9036.69,3596.14 9042.22,2835.19 9047.75,2115.37 9053.27,1467.53 9058.8,1015.07 9064.33,809.412 9069.86,840.262 9075.39,1138.47 
  9080.92,1580.65 9086.45,2094.8 9091.98,2608.96 9097.51,3061.42 9103.04,3431.61 9108.57,3750.39 9114.1,4120.58 9119.63,4562.75 9125.16,5025.5 9130.69,5529.37 
  9136.22,5920.13 9141.75,6125.79 9147.28,6084.66 9152.81,5735.03 9158.34,5190.03 9163.87,4562.75 9169.4,4017.75 9174.93,3719.54 9180.46,3740.1 9185.99,4048.6 
  9191.52,4562.75 9197.05,5118.04 9202.58,5508.8 9208.11,5652.77 9213.64,5488.24 9219.17,5076.91 9224.7,4470.21 9230.23,3863.5 9235.76,3369.91 9241.28,2999.72 
  9246.81,2783.77 9252.34,2670.66 9257.87,2567.83 9263.4,2423.86 9268.93,2166.79 9274.46,1806.88 9279.99,1405.83 9285.52,1097.34 9291.05,953.376 9296.58,1045.92 
  9302.11,1405.83 9307.64,1981.69 9313.17,2711.79 9318.7,3524.16 9324.23,4315.96 9329.76,5035.78 9335.29,5642.48 9340.82,6125.79 9346.35,6495.98 9351.88,6701.65 
  9357.41,6711.93 9362.94,6537.12 9368.47,6105.22 9374,5457.39 9379.53,4706.72 9385.06,3976.62 9390.59,3349.35 9396.12,2999.72 9401.65,2927.74 9407.18,3081.98 
  9412.71,3411.04 9418.24,3750.39 9423.77,3986.9 9429.29,3956.05 9434.82,3626.99 9440.35,3061.42 9445.88,2341.6 9451.41,1611.5 9456.94,1004.79 9462.47,634.599 
  9468,562.617 9473.53,768.28 9479.06,1210.45 9484.59,1755.46 9490.12,2259.33 9495.65,2588.39 9501.18,2732.36 9506.71,2670.66 9512.24,2444.43 9517.77,2166.79 
  9523.3,1950.84 9528.83,1919.99 9534.36,2146.22 9539.89,2608.96 9545.42,3287.65 9550.95,4048.6 9556.48,4809.55 9562.01,5477.95 9567.54,6002.39 9573.07,6310.89 
  9578.6,6465.13 9584.13,6382.87 9589.66,6136.07 9595.19,5693.9 9600.72,5076.91 9606.25,4367.37 9611.78,3575.57 9617.3,2794.06 9622.83,2156.5 9628.36,1724.61 
  9633.89,1539.51 9639.42,1601.21 9644.95,1796.59 9650.48,2074.24 9656.01,2300.47 9661.54,2362.16 9667.07,2249.05 9672.6,1971.41 9678.13,1601.21 9683.66,1272.15 
  9689.19,1066.49 9694.72,1097.34 9700.25,1436.68 9705.78,2012.54 9711.31,2763.21 9716.84,3503.59 9722.37,4130.86 9727.9,4501.06 9733.43,4552.47 9738.96,4336.53 
  9744.49,3956.05 9750.02,3565.29 9755.55,3308.21 9761.08,3349.35 9766.61,3668.12 9772.14,4223.41 9777.67,4932.95 9783.2,5652.77 9788.73,6249.19 9794.26,6619.38 
  9799.79,6753.06 9805.31,6639.95 9810.84,6372.59 9816.37,5981.83 9821.9,5508.8 9827.43,4953.51 9832.96,4295.39 9838.49,3596.14 9844.02,2824.91 9849.55,2115.37 
  9855.08,1477.82 9860.61,1045.92 9866.14,840.262 9871.67,922.527 9877.2,1220.74 9882.73,1673.2 9888.26,2187.35 9893.79,2670.66 9899.32,3030.57 9904.85,3359.63 
  9910.38,3637.27 9915.91,3945.77 9921.44,4377.66 9926.97,4860.97 9932.5,5385.4 9938.03,5837.86 9943.56,6084.66 9949.09,6064.09 9954.62,5765.88 9960.15,5241.44 
  9965.68,4614.17 9971.21,4089.73 9976.74,3760.67 9982.27,3770.95 9987.8,4100.01 9993.32,4624.45 9998.85,5159.18 10004.4,5611.63 10009.9,5776.16 10015.4,5652.77 
  10021,5251.72 10026.5,4727.28 10032,4151.43 10037.6,3657.84 10043.1,3267.08 10048.6,3020.28 10054.2,2886.6 10059.7,2732.36 10065.2,2506.13 10070.7,2187.35 
  10076.3,1776.03 10081.8,1374.98 10087.3,1035.64 10092.9,932.81 10098.4,1056.21 10103.9,1457.25 10109.4,2074.24 10115,2804.34 10120.5,3596.14 10126,4377.66 
  10131.6,5056.34 10137.1,5652.77 10142.6,6146.36 10148.2,6495.98 10153.7,6711.93 10159.2,6732.49 10164.7,6526.83 10170.3,6115.51 10175.8,5519.09 10181.3,4768.42 
  10186.9,4038.31 10186.9,4028.03 
  "/>
<path clip-path="url(#clip380)" d="
M9187.23 1302.58 L10157.4 1302.58 L10157.4 546.575 L9187.23 546.575  Z
  " fill="#ffffff" fill-rule="evenodd" fill-opacity="1"/>
<polyline clip-path="url(#clip380)" style="stroke:#000000; stroke-width:4; stroke-opacity:1; fill:none" points="
  9187.23,1302.58 10157.4,1302.58 10157.4,546.575 9187.23,546.575 9187.23,1302.58 
  "/>
<polyline clip-path="url(#clip380)" style="stroke:#009af9; stroke-width:25; stroke-opacity:1; fill:none" points="
  9252.36,924.575 9643.13,924.575 
  "/>
<path clip-path="url(#clip380)" d="M 0 0 M9794.77 1047.62 Q9783.48 1076.56 9772.78 1085.38 Q9762.07 1094.21 9744.13 1094.21 L9722.87 1094.21 L9722.87 1071.93 L9738.49 1071.93 Q9749.49 1071.93 9755.56 1066.72 Q9761.64 1061.51 9769.02 1042.12 L9773.79 1029.97 L9708.25 870.539 L9736.47 870.539 L9787.1 997.275 L9837.74 870.539 L9865.95 870.539 L9794.77 1047.62 Z" fill="#000000" fill-rule="evenodd" fill-opacity="1" /><path clip-path="url(#clip380)" d="M 0 0 M9902.7 1007.98 L9950.44 1007.98 L9950.44 843.196 L9898.5 853.612 L9898.5 826.992 L9950.15 816.575 L9979.37 816.575 L9979.37 1007.98 L10027.1 1007.98 L10027.1 1032.58 L9902.7 1032.58 L9902.7 1007.98 Z" fill="#000000" fill-rule="evenodd" fill-opacity="1" /></svg>
