<?xml version="1.0" encoding="utf-8"?>
<svg xmlns="http://www.w3.org/2000/svg" xmlns:xlink="http://www.w3.org/1999/xlink" width="2600" height="2000" viewBox="0 0 10400 8000">
<defs>
  <clipPath id="clip220">
    <rect x="0" y="0" width="10400" height="8000"/>
  </clipPath>
</defs>
<path clip-path="url(#clip220)" d="
M0 8000 L10400 8000 L10400 0 L0 0  Z
  " fill="#ffffff" fill-rule="evenodd" fill-opacity="1"/>
<defs>
  <clipPath id="clip221">
    <rect x="2080" y="0" width="7281" height="7281"/>
  </clipPath>
</defs>
<path clip-path="url(#clip220)" d="
M813.335 7342.8 L10352.8 7342.8 L10352.8 312.223 L813.335 312.223  Z
  " fill="#ffffff" fill-rule="evenodd" fill-opacity="1"/>
<defs>
  <clipPath id="clip222">
    <rect x="813" y="312" width="9540" height="7032"/>
  </clipPath>
</defs>
<polyline clip-path="url(#clip222)" style="stroke:#000000; stroke-width:2; stroke-opacity:0.1; fill:none" points="
  813.335,7342.8 813.335,312.223 
  "/>
<polyline clip-path="url(#clip222)" style="stroke:#000000; stroke-width:2; stroke-opacity:0.1; fill:none" points="
  2721.22,7342.8 2721.22,312.223 
  "/>
<polyline clip-path="url(#clip222)" style="stroke:#000000; stroke-width:2; stroke-opacity:0.1; fill:none" points="
  4629.1,7342.8 4629.1,312.223 
  "/>
<polyline clip-path="url(#clip222)" style="stroke:#000000; stroke-width:2; stroke-opacity:0.1; fill:none" points="
  6536.99,7342.8 6536.99,312.223 
  "/>
<polyline clip-path="url(#clip222)" style="stroke:#000000; stroke-width:2; stroke-opacity:0.1; fill:none" points="
  8444.87,7342.8 8444.87,312.223 
  "/>
<polyline clip-path="url(#clip222)" style="stroke:#000000; stroke-width:2; stroke-opacity:0.1; fill:none" points="
  10352.8,7342.8 10352.8,312.223 
  "/>
<polyline clip-path="url(#clip220)" style="stroke:#000000; stroke-width:4; stroke-opacity:1; fill:none" points="
  813.335,7342.8 10352.8,7342.8 
  "/>
<polyline clip-path="url(#clip220)" style="stroke:#000000; stroke-width:4; stroke-opacity:1; fill:none" points="
  813.335,7342.8 813.335,7258.43 
  "/>
<polyline clip-path="url(#clip220)" style="stroke:#000000; stroke-width:4; stroke-opacity:1; fill:none" points="
  2721.22,7342.8 2721.22,7258.43 
  "/>
<polyline clip-path="url(#clip220)" style="stroke:#000000; stroke-width:4; stroke-opacity:1; fill:none" points="
  4629.1,7342.8 4629.1,7258.43 
  "/>
<polyline clip-path="url(#clip220)" style="stroke:#000000; stroke-width:4; stroke-opacity:1; fill:none" points="
  6536.99,7342.8 6536.99,7258.43 
  "/>
<polyline clip-path="url(#clip220)" style="stroke:#000000; stroke-width:4; stroke-opacity:1; fill:none" points="
  8444.87,7342.8 8444.87,7258.43 
  "/>
<polyline clip-path="url(#clip220)" style="stroke:#000000; stroke-width:4; stroke-opacity:1; fill:none" points="
  10352.8,7342.8 10352.8,7258.43 
  "/>
<path clip-path="url(#clip220)" d="M 0 0 M697.812 7488.44 Q675.242 7488.44 663.813 7510.72 Q652.528 7532.86 652.528 7577.42 Q652.528 7621.83 663.813 7644.11 Q675.242 7666.25 697.812 7666.25 Q720.526 7666.25 731.81 7644.11 Q743.24 7621.83 743.24 7577.42 Q743.24 7532.86 731.81 7510.72 Q720.526 7488.44 697.812 7488.44 M697.812 7465.29 Q734.125 7465.29 753.222 7494.08 Q772.464 7522.73 772.464 7577.42 Q772.464 7631.96 753.222 7660.75 Q734.125 7689.39 697.812 7689.39 Q661.498 7689.39 642.256 7660.75 Q623.159 7631.96 623.159 7577.42 Q623.159 7522.73 642.256 7494.08 Q661.498 7465.29 697.812 7465.29 Z" fill="#000000" fill-rule="evenodd" fill-opacity="1" /><path clip-path="url(#clip220)" d="M 0 0 M804.148 7648.45 L834.674 7648.45 L834.674 7685.2 L804.148 7685.2 L804.148 7648.45 Z" fill="#000000" fill-rule="evenodd" fill-opacity="1" /><path clip-path="url(#clip220)" d="M 0 0 M928.858 7488.44 Q906.288 7488.44 894.859 7510.72 Q883.574 7532.86 883.574 7577.42 Q883.574 7621.83 894.859 7644.11 Q906.288 7666.25 928.858 7666.25 Q951.572 7666.25 962.856 7644.11 Q974.286 7621.83 974.286 7577.42 Q974.286 7532.86 962.856 7510.72 Q951.572 7488.44 928.858 7488.44 M928.858 7465.29 Q965.171 7465.29 984.268 7494.08 Q1003.51 7522.73 1003.51 7577.42 Q1003.51 7631.96 984.268 7660.75 Q965.171 7689.39 928.858 7689.39 Q892.544 7689.39 873.302 7660.75 Q854.205 7631.96 854.205 7577.42 Q854.205 7522.73 873.302 7494.08 Q892.544 7465.29 928.858 7465.29 Z" fill="#000000" fill-rule="evenodd" fill-opacity="1" /><path clip-path="url(#clip220)" d="M 0 0 M2610.69 7488.44 Q2588.12 7488.44 2576.69 7510.72 Q2565.4 7532.86 2565.4 7577.42 Q2565.4 7621.83 2576.69 7644.11 Q2588.12 7666.25 2610.69 7666.25 Q2633.4 7666.25 2644.69 7644.11 Q2656.12 7621.83 2656.12 7577.42 Q2656.12 7532.86 2644.69 7510.72 Q2633.4 7488.44 2610.69 7488.44 M2610.69 7465.29 Q2647 7465.29 2666.1 7494.08 Q2685.34 7522.73 2685.34 7577.42 Q2685.34 7631.96 2666.1 7660.75 Q2647 7689.39 2610.69 7689.39 Q2574.37 7689.39 2555.13 7660.75 Q2536.03 7631.96 2536.03 7577.42 Q2536.03 7522.73 2555.13 7494.08 Q2574.37 7465.29 2610.69 7465.29 Z" fill="#000000" fill-rule="evenodd" fill-opacity="1" /><path clip-path="url(#clip220)" d="M 0 0 M2717.02 7648.45 L2747.55 7648.45 L2747.55 7685.2 L2717.02 7685.2 L2717.02 7648.45 Z" fill="#000000" fill-rule="evenodd" fill-opacity="1" /><path clip-path="url(#clip220)" d="M 0 0 M2804.41 7660.6 L2906.4 7660.6 L2906.4 7685.2 L2769.25 7685.2 L2769.25 7660.6 Q2785.89 7643.39 2814.53 7614.45 Q2843.32 7585.37 2850.7 7576.98 Q2864.74 7561.21 2870.23 7550.36 Q2875.88 7539.37 2875.88 7528.8 Q2875.88 7511.59 2863.72 7500.74 Q2851.72 7489.89 2832.33 7489.89 Q2818.59 7489.89 2803.25 7494.66 Q2788.06 7499.44 2770.7 7509.13 L2770.7 7479.61 Q2788.35 7472.53 2803.68 7468.91 Q2819.02 7465.29 2831.75 7465.29 Q2865.32 7465.29 2885.28 7482.07 Q2905.25 7498.86 2905.25 7526.92 Q2905.25 7540.23 2900.18 7552.24 Q2895.26 7564.11 2882.1 7580.31 Q2878.48 7584.5 2859.09 7604.61 Q2839.71 7624.58 2804.41 7660.6 Z" fill="#000000" fill-rule="evenodd" fill-opacity="1" /><path clip-path="url(#clip220)" d="M 0 0 M4512.06 7488.44 Q4489.49 7488.44 4478.06 7510.72 Q4466.78 7532.86 4466.78 7577.42 Q4466.78 7621.83 4478.06 7644.11 Q4489.49 7666.25 4512.06 7666.25 Q4534.77 7666.25 4546.06 7644.11 Q4557.49 7621.83 4557.49 7577.42 Q4557.49 7532.86 4546.06 7510.72 Q4534.77 7488.44 4512.06 7488.44 M4512.06 7465.29 Q4548.37 7465.29 4567.47 7494.08 Q4586.71 7522.73 4586.71 7577.42 Q4586.71 7631.96 4567.47 7660.75 Q4548.37 7689.39 4512.06 7689.39 Q4475.75 7689.39 4456.51 7660.75 Q4437.41 7631.96 4437.41 7577.42 Q4437.41 7522.73 4456.51 7494.08 Q4475.75 7465.29 4512.06 7465.29 Z" fill="#000000" fill-rule="evenodd" fill-opacity="1" /><path clip-path="url(#clip220)" d="M 0 0 M4618.4 7648.45 L4648.92 7648.45 L4648.92 7685.2 L4618.4 7685.2 L4618.4 7648.45 Z" fill="#000000" fill-rule="evenodd" fill-opacity="1" /><path clip-path="url(#clip220)" d="M 0 0 M4760.9 7494.66 L4687.12 7609.97 L4760.9 7609.97 L4760.9 7494.66 M4753.23 7469.2 L4789.98 7469.2 L4789.98 7609.97 L4820.8 7609.97 L4820.8 7634.27 L4789.98 7634.27 L4789.98 7685.2 L4760.9 7685.2 L4760.9 7634.27 L4663.39 7634.27 L4663.39 7606.06 L4753.23 7469.2 Z" fill="#000000" fill-rule="evenodd" fill-opacity="1" /><path clip-path="url(#clip220)" d="M 0 0 M6420.96 7488.44 Q6398.39 7488.44 6386.96 7510.72 Q6375.67 7532.86 6375.67 7577.42 Q6375.67 7621.83 6386.96 7644.11 Q6398.39 7666.25 6420.96 7666.25 Q6443.67 7666.25 6454.96 7644.11 Q6466.39 7621.83 6466.39 7577.42 Q6466.39 7532.86 6454.96 7510.72 Q6443.67 7488.44 6420.96 7488.44 M6420.96 7465.29 Q6457.27 7465.29 6476.37 7494.08 Q6495.61 7522.73 6495.61 7577.42 Q6495.61 7631.96 6476.37 7660.75 Q6457.27 7689.39 6420.96 7689.39 Q6384.64 7689.39 6365.4 7660.75 Q6346.31 7631.96 6346.31 7577.42 Q6346.31 7522.73 6365.4 7494.08 Q6384.64 7465.29 6420.96 7465.29 Z" fill="#000000" fill-rule="evenodd" fill-opacity="1" /><path clip-path="url(#clip220)" d="M 0 0 M6527.29 7648.45 L6557.82 7648.45 L6557.82 7685.2 L6527.29 7685.2 L6527.29 7648.45 Z" fill="#000000" fill-rule="evenodd" fill-opacity="1" /><path clip-path="url(#clip220)" d="M 0 0 M6655.62 7565.55 Q6635.95 7565.55 6624.37 7579.01 Q6612.94 7592.46 6612.94 7615.9 Q6612.94 7639.19 6624.37 7652.79 Q6635.95 7666.25 6655.62 7666.25 Q6675.3 7666.25 6686.73 7652.79 Q6698.3 7639.19 6698.3 7615.9 Q6698.3 7592.46 6686.73 7579.01 Q6675.3 7565.55 6655.62 7565.55 M6713.64 7473.97 L6713.64 7500.59 Q6702.64 7495.38 6691.36 7492.64 Q6680.22 7489.89 6669.22 7489.89 Q6640.29 7489.89 6624.95 7509.42 Q6609.76 7528.95 6607.59 7568.45 Q6616.12 7555.86 6629 7549.2 Q6641.88 7542.4 6657.36 7542.4 Q6689.91 7542.4 6708.72 7562.22 Q6727.67 7581.9 6727.67 7615.9 Q6727.67 7649.17 6707.99 7669.28 Q6688.32 7689.39 6655.62 7689.39 Q6618.15 7689.39 6598.33 7660.75 Q6578.51 7631.96 6578.51 7577.42 Q6578.51 7526.2 6602.81 7495.82 Q6627.12 7465.29 6668.06 7465.29 Q6679.06 7465.29 6690.2 7467.46 Q6701.48 7469.63 6713.64 7473.97 Z" fill="#000000" fill-rule="evenodd" fill-opacity="1" /><path clip-path="url(#clip220)" d="M 0 0 M8329.64 7488.44 Q8307.07 7488.44 8295.64 7510.72 Q8284.35 7532.86 8284.35 7577.42 Q8284.35 7621.83 8295.64 7644.11 Q8307.07 7666.25 8329.64 7666.25 Q8352.35 7666.25 8363.64 7644.11 Q8375.07 7621.83 8375.07 7577.42 Q8375.07 7532.86 8363.64 7510.72 Q8352.35 7488.44 8329.64 7488.44 M8329.64 7465.29 Q8365.95 7465.29 8385.05 7494.08 Q8404.29 7522.73 8404.29 7577.42 Q8404.29 7631.96 8385.05 7660.75 Q8365.95 7689.39 8329.64 7689.39 Q8293.32 7689.39 8274.08 7660.75 Q8254.99 7631.96 8254.99 7577.42 Q8254.99 7522.73 8274.08 7494.08 Q8293.32 7465.29 8329.64 7465.29 Z" fill="#000000" fill-rule="evenodd" fill-opacity="1" /><path clip-path="url(#clip220)" d="M 0 0 M8435.97 7648.45 L8466.5 7648.45 L8466.5 7685.2 L8435.97 7685.2 L8435.97 7648.45 Z" fill="#000000" fill-rule="evenodd" fill-opacity="1" /><path clip-path="url(#clip220)" d="M 0 0 M8560.68 7582.62 Q8539.85 7582.62 8527.84 7593.76 Q8515.98 7604.9 8515.98 7624.43 Q8515.98 7643.97 8527.84 7655.11 Q8539.85 7666.25 8560.68 7666.25 Q8581.52 7666.25 8593.53 7655.11 Q8605.53 7643.82 8605.53 7624.43 Q8605.53 7604.9 8593.53 7593.76 Q8581.66 7582.62 8560.68 7582.62 M8531.46 7570.18 Q8512.65 7565.55 8502.09 7552.68 Q8491.67 7539.8 8491.67 7521.28 Q8491.67 7495.38 8510.05 7480.34 Q8528.57 7465.29 8560.68 7465.29 Q8592.95 7465.29 8611.32 7480.34 Q8629.69 7495.38 8629.69 7521.28 Q8629.69 7539.8 8619.13 7552.68 Q8608.72 7565.55 8590.05 7570.18 Q8611.18 7575.1 8622.89 7589.42 Q8634.76 7603.75 8634.76 7624.43 Q8634.76 7655.83 8615.52 7672.61 Q8596.42 7689.39 8560.68 7689.39 Q8524.95 7689.39 8505.71 7672.61 Q8486.61 7655.83 8486.61 7624.43 Q8486.61 7603.75 8498.47 7589.42 Q8510.34 7575.1 8531.46 7570.18 M8520.75 7524.03 Q8520.75 7540.81 8531.17 7550.22 Q8541.73 7559.62 8560.68 7559.62 Q8579.49 7559.62 8590.05 7550.22 Q8600.76 7540.81 8600.76 7524.03 Q8600.76 7507.25 8590.05 7497.84 Q8579.49 7488.44 8560.68 7488.44 Q8541.73 7488.44 8531.17 7497.84 Q8520.75 7507.25 8520.75 7524.03 Z" fill="#000000" fill-rule="evenodd" fill-opacity="1" /><path clip-path="url(#clip220)" d="M 0 0 M10177.1 7660.6 L10224.9 7660.6 L10224.9 7495.82 L10172.9 7506.24 L10172.9 7479.61 L10224.6 7469.2 L10253.8 7469.2 L10253.8 7660.6 L10301.5 7660.6 L10301.5 7685.2 L10177.1 7685.2 L10177.1 7660.6 Z" fill="#000000" fill-rule="evenodd" fill-opacity="1" /><path clip-path="url(#clip220)" d="M 0 0 M10333.2 7648.45 L10363.8 7648.45 L10363.8 7685.2 L10333.2 7685.2 L10333.2 7648.45 Z" fill="#000000" fill-rule="evenodd" fill-opacity="1" /><path clip-path="url(#clip220)" d="M 0 0 M10457.9 7488.44 Q10435.4 7488.44 10423.9 7510.72 Q10412.7 7532.86 10412.7 7577.42 Q10412.7 7621.83 10423.9 7644.11 Q10435.4 7666.25 10457.9 7666.25 Q10480.6 7666.25 10491.9 7644.11 Q10503.4 7621.83 10503.4 7577.42 Q10503.4 7532.86 10491.9 7510.72 Q10480.6 7488.44 10457.9 7488.44 M10457.9 7465.29 Q10494.2 7465.29 10513.3 7494.08 Q10532.6 7522.73 10532.6 7577.42 Q10532.6 7631.96 10513.3 7660.75 Q10494.2 7689.39 10457.9 7689.39 Q10421.6 7689.39 10402.4 7660.75 Q10383.3 7631.96 10383.3 7577.42 Q10383.3 7522.73 10402.4 7494.08 Q10421.6 7465.29 10457.9 7465.29 Z" fill="#000000" fill-rule="evenodd" fill-opacity="1" /><path clip-path="url(#clip220)" d="M 0 0 M5061.35 7814 L5244.07 7814 L5244.07 7838.59 L5167.39 7838.59 L5167.39 8030 L5138.02 8030 L5138.02 7838.59 L5061.35 7838.59 L5061.35 7814 Z" fill="#000000" fill-rule="evenodd" fill-opacity="1" /><path clip-path="url(#clip220)" d="M 0 0 M5262.88 7867.96 L5289.5 7867.96 L5289.5 8030 L5262.88 8030 L5262.88 7867.96 M5262.88 7804.88 L5289.5 7804.88 L5289.5 7838.59 L5262.88 7838.59 L5262.88 7804.88 Z" fill="#000000" fill-rule="evenodd" fill-opacity="1" /><path clip-path="url(#clip220)" d="M 0 0 M5443.58 7899.07 Q5453.56 7881.13 5467.45 7872.59 Q5481.34 7864.06 5500.15 7864.06 Q5525.46 7864.06 5539.21 7881.85 Q5552.95 7899.5 5552.95 7932.2 L5552.95 8030 L5526.19 8030 L5526.19 7933.07 Q5526.19 7909.77 5517.94 7898.49 Q5509.69 7887.2 5492.77 7887.2 Q5472.08 7887.2 5460.07 7900.95 Q5448.06 7914.69 5448.06 7938.42 L5448.06 8030 L5421.3 8030 L5421.3 7933.07 Q5421.3 7909.63 5413.05 7898.49 Q5404.81 7887.2 5387.59 7887.2 Q5367.19 7887.2 5355.18 7901.09 Q5343.17 7914.84 5343.17 7938.42 L5343.17 8030 L5316.41 8030 L5316.41 7867.96 L5343.17 7867.96 L5343.17 7893.14 Q5352.29 7878.23 5365.02 7871.14 Q5377.75 7864.06 5395.26 7864.06 Q5412.91 7864.06 5425.2 7873.03 Q5437.65 7882 5443.58 7899.07 Z" fill="#000000" fill-rule="evenodd" fill-opacity="1" /><path clip-path="url(#clip220)" d="M 0 0 M5719.47 7942.33 L5719.47 7955.35 L5597.08 7955.35 Q5598.81 7982.83 5613.57 7997.3 Q5628.47 8011.62 5654.95 8011.62 Q5670.28 8011.62 5684.61 8007.86 Q5699.07 8004.1 5713.25 7996.58 L5713.25 8021.75 Q5698.93 8027.83 5683.88 8031.01 Q5668.84 8034.19 5653.36 8034.19 Q5614.58 8034.19 5591.87 8011.62 Q5569.3 7989.06 5569.3 7950.57 Q5569.3 7910.79 5590.71 7887.49 Q5612.27 7864.06 5648.73 7864.06 Q5681.42 7864.06 5700.38 7885.18 Q5719.47 7906.16 5719.47 7942.33 M5692.85 7934.51 Q5692.56 7912.67 5680.56 7899.65 Q5668.69 7886.63 5649.02 7886.63 Q5626.74 7886.63 5613.28 7899.21 Q5599.97 7911.8 5597.95 7934.66 L5692.85 7934.51 Z" fill="#000000" fill-rule="evenodd" fill-opacity="1" /><path clip-path="url(#clip220)" d="M 0 0 M5905.53 7805.17 Q5886.14 7838.45 5876.74 7871 Q5867.33 7903.55 5867.33 7936.97 Q5867.33 7970.39 5876.74 8003.23 Q5886.28 8035.93 5905.53 8069.06 L5882.38 8069.06 Q5860.68 8035.06 5849.83 8002.22 Q5839.12 7969.38 5839.12 7936.97 Q5839.12 7904.71 5849.83 7872.01 Q5860.53 7839.32 5882.38 7805.17 L5905.53 7805.17 Z" fill="#000000" fill-rule="evenodd" fill-opacity="1" /><path clip-path="url(#clip220)" d="M 0 0 M5959.78 7821.96 L5959.78 7867.96 L6014.61 7867.96 L6014.61 7888.65 L5959.78 7888.65 L5959.78 7976.61 Q5959.78 7996.43 5965.13 8002.08 Q5970.63 8007.72 5987.27 8007.72 L6014.61 8007.72 L6014.61 8030 L5987.27 8030 Q5956.45 8030 5944.73 8018.57 Q5933.01 8006.99 5933.01 7976.61 L5933.01 7888.65 L5913.48 7888.65 L5913.48 7867.96 L5933.01 7867.96 L5933.01 7821.96 L5959.78 7821.96 Z" fill="#000000" fill-rule="evenodd" fill-opacity="1" /><path clip-path="url(#clip220)" d="M 0 0 M6038.34 7805.17 L6061.49 7805.17 Q6083.19 7839.32 6093.89 7872.01 Q6104.74 7904.71 6104.74 7936.97 Q6104.74 7969.38 6093.89 8002.22 Q6083.19 8035.06 6061.49 8069.06 L6038.34 8069.06 Q6057.58 8035.93 6066.98 8003.23 Q6076.53 7970.39 6076.53 7936.97 Q6076.53 7903.55 6066.98 7871 Q6057.58 7838.45 6038.34 7805.17 Z" fill="#000000" fill-rule="evenodd" fill-opacity="1" /><polyline clip-path="url(#clip222)" style="stroke:#000000; stroke-width:2; stroke-opacity:0.1; fill:none" points="
  813.335,6383.9 10352.8,6383.9 
  "/>
<polyline clip-path="url(#clip222)" style="stroke:#000000; stroke-width:2; stroke-opacity:0.1; fill:none" points="
  813.335,4864.05 10352.8,4864.05 
  "/>
<polyline clip-path="url(#clip222)" style="stroke:#000000; stroke-width:2; stroke-opacity:0.1; fill:none" points="
  813.335,3344.2 10352.8,3344.2 
  "/>
<polyline clip-path="url(#clip222)" style="stroke:#000000; stroke-width:2; stroke-opacity:0.1; fill:none" points="
  813.335,1824.35 10352.8,1824.35 
  "/>
<polyline clip-path="url(#clip220)" style="stroke:#000000; stroke-width:4; stroke-opacity:1; fill:none" points="
  813.335,7342.8 813.335,312.223 
  "/>
<polyline clip-path="url(#clip220)" style="stroke:#000000; stroke-width:4; stroke-opacity:1; fill:none" points="
  813.335,6383.9 927.808,6383.9 
  "/>
<polyline clip-path="url(#clip220)" style="stroke:#000000; stroke-width:4; stroke-opacity:1; fill:none" points="
  813.335,4864.05 927.808,4864.05 
  "/>
<polyline clip-path="url(#clip220)" style="stroke:#000000; stroke-width:4; stroke-opacity:1; fill:none" points="
  813.335,3344.2 927.808,3344.2 
  "/>
<polyline clip-path="url(#clip220)" style="stroke:#000000; stroke-width:4; stroke-opacity:1; fill:none" points="
  813.335,1824.35 927.808,1824.35 
  "/>
<path clip-path="url(#clip220)" d="M 0 0 M350.623 6295.14 Q328.054 6295.14 316.625 6317.42 Q305.34 6339.55 305.34 6384.11 Q305.34 6428.53 316.625 6450.81 Q328.054 6472.94 350.623 6472.94 Q373.337 6472.94 384.622 6450.81 Q396.051 6428.53 396.051 6384.11 Q396.051 6339.55 384.622 6317.42 Q373.337 6295.14 350.623 6295.14 M350.623 6271.99 Q386.937 6271.99 406.034 6300.78 Q425.276 6329.43 425.276 6384.11 Q425.276 6438.66 406.034 6467.45 Q386.937 6496.09 350.623 6496.09 Q314.31 6496.09 295.068 6467.45 Q275.971 6438.66 275.971 6384.11 Q275.971 6329.43 295.068 6300.78 Q314.31 6271.99 350.623 6271.99 Z" fill="#000000" fill-rule="evenodd" fill-opacity="1" /><path clip-path="url(#clip220)" d="M 0 0 M456.96 6455.15 L487.486 6455.15 L487.486 6491.9 L456.96 6491.9 L456.96 6455.15 Z" fill="#000000" fill-rule="evenodd" fill-opacity="1" /><path clip-path="url(#clip220)" d="M 0 0 M585.286 6372.25 Q565.611 6372.25 554.037 6385.7 Q542.607 6399.16 542.607 6422.6 Q542.607 6445.89 554.037 6459.49 Q565.611 6472.94 585.286 6472.94 Q604.962 6472.94 616.392 6459.49 Q627.966 6445.89 627.966 6422.6 Q627.966 6399.16 616.392 6385.7 Q604.962 6372.25 585.286 6372.25 M643.301 6280.67 L643.301 6307.29 Q632.306 6302.08 621.021 6299.33 Q609.881 6296.58 598.886 6296.58 Q569.951 6296.58 554.615 6316.12 Q539.424 6335.65 537.254 6375.14 Q545.79 6362.56 558.666 6355.9 Q571.542 6349.1 587.023 6349.1 Q619.574 6349.1 638.382 6368.92 Q657.335 6388.6 657.335 6422.6 Q657.335 6455.87 637.659 6475.98 Q617.983 6496.09 585.286 6496.09 Q547.816 6496.09 527.995 6467.45 Q508.175 6438.66 508.175 6384.11 Q508.175 6332.9 532.48 6302.52 Q556.785 6271.99 597.728 6271.99 Q608.724 6271.99 619.864 6274.16 Q631.148 6276.33 643.301 6280.67 Z" fill="#000000" fill-rule="evenodd" fill-opacity="1" /><path clip-path="url(#clip220)" d="M 0 0 M352.215 4775.29 Q329.645 4775.29 318.216 4797.57 Q306.931 4819.71 306.931 4864.27 Q306.931 4908.68 318.216 4930.96 Q329.645 4953.1 352.215 4953.1 Q374.929 4953.1 386.213 4930.96 Q397.643 4908.68 397.643 4864.27 Q397.643 4819.71 386.213 4797.57 Q374.929 4775.29 352.215 4775.29 M352.215 4752.14 Q388.528 4752.14 407.625 4780.93 Q426.867 4809.58 426.867 4864.27 Q426.867 4918.81 407.625 4947.6 Q388.528 4976.24 352.215 4976.24 Q315.901 4976.24 296.659 4947.6 Q277.562 4918.81 277.562 4864.27 Q277.562 4809.58 296.659 4780.93 Q315.901 4752.14 352.215 4752.14 Z" fill="#000000" fill-rule="evenodd" fill-opacity="1" /><path clip-path="url(#clip220)" d="M 0 0 M458.551 4935.3 L489.077 4935.3 L489.077 4972.05 L458.551 4972.05 L458.551 4935.3 Z" fill="#000000" fill-rule="evenodd" fill-opacity="1" /><path clip-path="url(#clip220)" d="M 0 0 M583.261 4869.47 Q562.428 4869.47 550.42 4880.61 Q538.556 4891.75 538.556 4911.28 Q538.556 4930.82 550.42 4941.96 Q562.428 4953.1 583.261 4953.1 Q604.094 4953.1 616.102 4941.96 Q628.11 4930.67 628.11 4911.28 Q628.11 4891.75 616.102 4880.61 Q604.239 4869.47 583.261 4869.47 M554.037 4857.03 Q535.229 4852.4 524.668 4839.53 Q514.251 4826.65 514.251 4808.13 Q514.251 4782.23 532.625 4767.19 Q551.143 4752.14 583.261 4752.14 Q615.524 4752.14 633.897 4767.19 Q652.271 4782.23 652.271 4808.13 Q652.271 4826.65 641.71 4839.53 Q631.293 4852.4 612.63 4857.03 Q633.753 4861.95 645.471 4876.27 Q657.335 4890.6 657.335 4911.28 Q657.335 4942.68 638.093 4959.46 Q618.996 4976.24 583.261 4976.24 Q547.526 4976.24 528.284 4959.46 Q509.187 4942.68 509.187 4911.28 Q509.187 4890.6 521.051 4876.27 Q532.914 4861.95 554.037 4857.03 M543.331 4810.88 Q543.331 4827.66 553.747 4837.07 Q564.309 4846.47 583.261 4846.47 Q602.069 4846.47 612.63 4837.07 Q623.336 4827.66 623.336 4810.88 Q623.336 4794.1 612.63 4784.69 Q602.069 4775.29 583.261 4775.29 Q564.309 4775.29 553.747 4784.69 Q543.331 4794.1 543.331 4810.88 Z" fill="#000000" fill-rule="evenodd" fill-opacity="1" /><path clip-path="url(#clip220)" d="M 0 0 M301.868 3427.61 L349.611 3427.61 L349.611 3262.82 L297.672 3273.24 L297.672 3246.62 L349.321 3236.2 L378.546 3236.2 L378.546 3427.61 L426.288 3427.61 L426.288 3452.2 L301.868 3452.2 L301.868 3427.61 Z" fill="#000000" fill-rule="evenodd" fill-opacity="1" /><path clip-path="url(#clip220)" d="M 0 0 M457.972 3415.45 L488.499 3415.45 L488.499 3452.2 L457.972 3452.2 L457.972 3415.45 Z" fill="#000000" fill-rule="evenodd" fill-opacity="1" /><path clip-path="url(#clip220)" d="M 0 0 M582.682 3255.44 Q560.113 3255.44 548.684 3277.72 Q537.399 3299.86 537.399 3344.42 Q537.399 3388.83 548.684 3411.11 Q560.113 3433.25 582.682 3433.25 Q605.396 3433.25 616.681 3411.11 Q628.11 3388.83 628.11 3344.42 Q628.11 3299.86 616.681 3277.72 Q605.396 3255.44 582.682 3255.44 M582.682 3232.29 Q618.996 3232.29 638.093 3261.09 Q657.335 3289.73 657.335 3344.42 Q657.335 3398.96 638.093 3427.75 Q618.996 3456.4 582.682 3456.4 Q546.369 3456.4 527.127 3427.75 Q508.03 3398.96 508.03 3344.42 Q508.03 3289.73 527.127 3261.09 Q546.369 3232.29 582.682 3232.29 Z" fill="#000000" fill-rule="evenodd" fill-opacity="1" /><path clip-path="url(#clip220)" d="M 0 0 M311.85 1907.76 L359.593 1907.76 L359.593 1742.97 L307.655 1753.39 L307.655 1726.77 L359.304 1716.35 L388.528 1716.35 L388.528 1907.76 L436.271 1907.76 L436.271 1932.35 L311.85 1932.35 L311.85 1907.76 Z" fill="#000000" fill-rule="evenodd" fill-opacity="1" /><path clip-path="url(#clip220)" d="M 0 0 M467.955 1895.61 L498.481 1895.61 L498.481 1932.35 L467.955 1932.35 L467.955 1895.61 Z" fill="#000000" fill-rule="evenodd" fill-opacity="1" /><path clip-path="url(#clip220)" d="M 0 0 M555.339 1907.76 L657.335 1907.76 L657.335 1932.35 L520.183 1932.35 L520.183 1907.76 Q536.82 1890.54 565.466 1861.61 Q594.256 1832.53 601.635 1824.14 Q615.668 1808.37 621.166 1797.52 Q626.808 1786.52 626.808 1775.96 Q626.808 1758.74 614.655 1747.89 Q602.647 1737.04 583.261 1737.04 Q569.517 1737.04 554.181 1741.82 Q538.99 1746.59 521.629 1756.28 L521.629 1726.77 Q539.28 1719.68 554.615 1716.06 Q569.951 1712.45 582.682 1712.45 Q616.247 1712.45 636.212 1729.23 Q656.177 1746.01 656.177 1774.08 Q656.177 1787.39 651.114 1799.4 Q646.195 1811.26 633.029 1827.46 Q629.412 1831.66 610.026 1851.77 Q590.639 1871.73 555.339 1907.76 Z" fill="#000000" fill-rule="evenodd" fill-opacity="1" /><path clip-path="url(#clip220)" d="M 0 0 M95.2245 4557.04 L-2.86524 4557.04 L-2.86524 4530.41 L94.2118 4530.41 Q117.215 4530.41 128.789 4521.44 Q140.218 4512.48 140.218 4494.54 Q140.218 4472.98 126.474 4460.54 Q112.73 4447.95 89.0035 4447.95 L-2.86524 4447.95 L-2.86524 4421.33 L159.171 4421.33 L159.171 4447.95 L134.287 4447.95 Q149.044 4457.64 156.277 4470.52 Q163.367 4483.25 163.367 4500.18 Q163.367 4528.1 146.005 4542.57 Q128.644 4557.04 95.2245 4557.04 M-6.77147 4490.05 L-6.77147 4490.05 Z" fill="#000000" fill-rule="evenodd" fill-opacity="1" /><path clip-path="url(#clip220)" d="M 0 0 M-65.6543 4329.46 Q-32.379 4348.85 0.172936 4358.25 Q32.7248 4367.66 66.1448 4367.66 Q99.5648 4367.66 132.406 4358.25 Q165.103 4348.7 198.233 4329.46 L198.233 4352.61 Q164.235 4374.31 131.393 4385.16 Q98.552 4395.87 66.1448 4395.87 Q33.8822 4395.87 1.18566 4385.16 Q-31.5109 4374.46 -65.6543 4352.61 L-65.6543 4329.46 Z" fill="#000000" fill-rule="evenodd" fill-opacity="1" /><path clip-path="url(#clip220)" d="M 0 0 M-48.8719 4275.21 L-2.86524 4275.21 L-2.86524 4220.38 L17.8233 4220.38 L17.8233 4275.21 L105.786 4275.21 Q125.606 4275.21 131.249 4269.85 Q136.891 4264.36 136.891 4247.72 L136.891 4220.38 L159.171 4220.38 L159.171 4247.72 Q159.171 4278.54 147.742 4290.25 Q136.168 4301.97 105.786 4301.97 L17.8233 4301.97 L17.8233 4321.5 L-2.86524 4321.5 L-2.86524 4301.97 L-48.8719 4301.97 L-48.8719 4275.21 Z" fill="#000000" fill-rule="evenodd" fill-opacity="1" /><path clip-path="url(#clip220)" d="M 0 0 M-65.6543 4196.65 L-65.6543 4173.5 Q-31.5109 4151.8 1.18566 4141.09 Q33.8822 4130.24 66.1448 4130.24 Q98.552 4130.24 131.393 4141.09 Q164.235 4151.8 198.233 4173.5 L198.233 4196.65 Q165.103 4177.41 132.406 4168 Q99.5648 4158.46 66.1448 4158.46 Q32.7248 4158.46 0.172936 4168 Q-32.379 4177.41 -65.6543 4196.65 Z" fill="#000000" fill-rule="evenodd" fill-opacity="1" /><path clip-path="url(#clip220)" d="M 0 0 M-65.6543 3944.19 Q-32.379 3963.58 0.172936 3972.98 Q32.7248 3982.39 66.1448 3982.39 Q99.5648 3982.39 132.406 3972.98 Q165.103 3963.43 198.233 3944.19 L198.233 3967.34 Q164.235 3989.04 131.393 3999.89 Q98.552 4010.6 66.1448 4010.6 Q33.8822 4010.6 1.18566 3999.89 Q-31.5109 3989.19 -65.6543 3967.34 L-65.6543 3944.19 Z" fill="#000000" fill-rule="evenodd" fill-opacity="1" /><path clip-path="url(#clip220)" d="M 0 0 M-2.86524 3916.27 L-2.86524 3889.65 L159.171 3889.65 L159.171 3916.27 L-2.86524 3916.27 M-65.9436 3916.27 L-65.9436 3889.65 L-32.2343 3889.65 L-32.2343 3916.27 L-65.9436 3916.27 Z" fill="#000000" fill-rule="evenodd" fill-opacity="1" /><path clip-path="url(#clip220)" d="M 0 0 M61.3705 3727.03 L159.171 3727.03 L159.171 3753.65 L62.2386 3753.65 Q39.2352 3753.65 27.8059 3762.62 Q16.3766 3771.59 16.3766 3789.53 Q16.3766 3811.09 30.1207 3823.53 Q43.8648 3835.97 67.5916 3835.97 L159.171 3835.97 L159.171 3862.74 L-2.86524 3862.74 L-2.86524 3835.97 L22.3082 3835.97 Q7.69604 3826.43 0.462286 3813.55 Q-6.77147 3800.53 -6.77147 3783.6 Q-6.77147 3755.68 10.5895 3741.36 Q27.8059 3727.03 61.3705 3727.03 Z" fill="#000000" fill-rule="evenodd" fill-opacity="1" /><path clip-path="url(#clip220)" d="M 0 0 M220.803 3607.68 L-2.86524 3607.68 L-2.86524 3581.06 L97.8287 3581.06 Q118.807 3581.06 129.513 3571.07 Q140.218 3561.09 140.218 3541.56 Q140.218 3520.15 128.066 3509.44 Q115.913 3498.59 91.6076 3498.59 L-2.86524 3498.59 L-2.86524 3471.97 L121.845 3471.97 Q130.525 3471.97 134.721 3469.51 Q138.772 3466.91 138.772 3461.55 Q138.772 3460.25 138.048 3457.94 Q137.18 3455.62 135.444 3451.57 L156.856 3451.57 Q160.184 3457.5 161.775 3462.86 Q163.367 3468.07 163.367 3473.13 Q163.367 3483.11 157.724 3489.04 Q152.082 3494.97 140.508 3497.14 Q151.937 3504.38 157.724 3514.94 Q163.367 3525.36 163.367 3539.53 Q163.367 3554.29 157.724 3564.71 Q152.082 3574.98 140.797 3581.06 L220.803 3581.06 L220.803 3607.68 Z" fill="#000000" fill-rule="evenodd" fill-opacity="1" /><path clip-path="url(#clip220)" d="M 0 0 M28.2399 3297.49 Q10.3002 3287.51 1.76436 3273.62 Q-6.77147 3259.73 -6.77147 3240.93 Q-6.77147 3215.61 11.0236 3201.86 Q28.6739 3188.12 61.3705 3188.12 L159.171 3188.12 L159.171 3214.88 L62.2386 3214.88 Q38.9459 3214.88 27.6612 3223.13 Q16.3766 3231.38 16.3766 3248.3 Q16.3766 3268.99 30.1207 3281 Q43.8648 3293.01 67.5916 3293.01 L159.171 3293.01 L159.171 3319.77 L62.2386 3319.77 Q38.8012 3319.77 27.6612 3328.02 Q16.3766 3336.27 16.3766 3353.48 Q16.3766 3373.88 30.2654 3385.89 Q44.0095 3397.9 67.5916 3397.9 L159.171 3397.9 L159.171 3424.66 L-2.86524 3424.66 L-2.86524 3397.9 L22.3082 3397.9 Q7.40669 3388.78 0.317611 3376.05 Q-6.77147 3363.32 -6.77147 3345.81 Q-6.77147 3328.16 2.19839 3315.87 Q11.1682 3303.42 28.2399 3297.49 Z" fill="#000000" fill-rule="evenodd" fill-opacity="1" /><path clip-path="url(#clip220)" d="M 0 0 M-65.6543 3164.39 L-65.6543 3141.24 Q-31.5109 3119.54 1.18566 3108.84 Q33.8822 3097.99 66.1448 3097.99 Q98.552 3097.99 131.393 3108.84 Q164.235 3119.54 198.233 3141.24 L198.233 3164.39 Q165.103 3145.15 132.406 3135.75 Q99.5648 3126.2 66.1448 3126.2 Q32.7248 3126.2 0.172936 3135.75 Q-32.379 3145.15 -65.6543 3164.39 Z" fill="#000000" fill-rule="evenodd" fill-opacity="1" /><path clip-path="url(#clip220)" d="M 0 0 M3538.93 50.2891 L3538.93 78.7901 Q3522.29 70.833 3507.54 66.9267 Q3492.78 63.0205 3479.03 63.0205 Q3455.16 63.0205 3442.14 72.2797 Q3429.27 81.5389 3429.27 98.6106 Q3429.27 112.933 3437.8 120.312 Q3446.48 127.546 3470.5 132.031 L3488.15 135.647 Q3520.85 141.868 3536.33 157.638 Q3551.95 173.263 3551.95 199.594 Q3551.95 230.988 3530.83 247.192 Q3509.85 263.396 3469.2 263.396 Q3453.86 263.396 3436.5 259.923 Q3419.28 256.451 3400.77 249.651 L3400.77 219.559 Q3418.56 229.542 3435.63 234.605 Q3452.7 239.669 3469.2 239.669 Q3494.23 239.669 3507.82 229.831 Q3521.42 219.993 3521.42 201.764 Q3521.42 185.85 3511.59 176.88 Q3501.89 167.91 3479.61 163.425 L3461.82 159.953 Q3429.12 153.442 3414.51 139.554 Q3399.9 125.665 3399.9 100.925 Q3399.9 72.2797 3420.01 55.7867 Q3440.26 39.2938 3475.71 39.2938 Q3490.9 39.2938 3506.67 42.0426 Q3522.44 44.7914 3538.93 50.2891 Z" fill="#000000" fill-rule="evenodd" fill-opacity="1" /><path clip-path="url(#clip220)" d="M 0 0 M3642.66 115.827 Q3621.25 115.827 3608.81 132.609 Q3596.37 149.247 3596.37 178.327 Q3596.37 207.406 3608.66 224.189 Q3621.11 240.826 3642.66 240.826 Q3663.93 240.826 3676.37 224.044 Q3688.81 207.262 3688.81 178.327 Q3688.81 149.536 3676.37 132.754 Q3663.93 115.827 3642.66 115.827 M3642.66 93.2576 Q3677.38 93.2576 3697.2 115.827 Q3717.03 138.396 3717.03 178.327 Q3717.03 218.112 3697.2 240.826 Q3677.38 263.396 3642.66 263.396 Q3607.8 263.396 3587.97 240.826 Q3568.3 218.112 3568.3 178.327 Q3568.3 138.396 3587.97 115.827 Q3607.8 93.2576 3642.66 93.2576 Z" fill="#000000" fill-rule="evenodd" fill-opacity="1" /><path clip-path="url(#clip220)" d="M 0 0 M3744.95 34.0855 L3771.57 34.0855 L3771.57 259.2 L3744.95 259.2 L3744.95 34.0855 Z" fill="#000000" fill-rule="evenodd" fill-opacity="1" /><path clip-path="url(#clip220)" d="M 0 0 M3796.74 195.254 L3796.74 97.1638 L3823.36 97.1638 L3823.36 194.241 Q3823.36 217.244 3832.33 228.818 Q3841.3 240.248 3859.24 240.248 Q3880.8 240.248 3893.24 226.503 Q3905.83 212.759 3905.83 189.033 L3905.83 97.1638 L3932.45 97.1638 L3932.45 259.2 L3905.83 259.2 L3905.83 234.316 Q3896.13 249.073 3883.26 256.306 Q3870.53 263.396 3853.6 263.396 Q3825.68 263.396 3811.21 246.035 Q3796.74 228.674 3796.74 195.254 M3863.73 93.2576 L3863.73 93.2576 Z" fill="#000000" fill-rule="evenodd" fill-opacity="1" /><path clip-path="url(#clip220)" d="M 0 0 M4076.98 103.385 L4076.98 128.269 Q4065.69 122.048 4054.26 119.01 Q4042.98 115.827 4031.4 115.827 Q4005.51 115.827 3991.18 132.32 Q3976.86 148.668 3976.86 178.327 Q3976.86 207.985 3991.18 224.478 Q4005.51 240.826 4031.4 240.826 Q4042.98 240.826 4054.26 237.788 Q4065.69 234.605 4076.98 228.384 L4076.98 252.979 Q4065.84 258.187 4053.83 260.791 Q4041.97 263.396 4028.51 263.396 Q3991.91 263.396 3970.35 240.392 Q3948.79 217.389 3948.79 178.327 Q3948.79 138.686 3970.5 115.972 Q3992.34 93.2576 4030.25 93.2576 Q4042.54 93.2576 4054.26 95.8618 Q4065.98 98.3212 4076.98 103.385 Z" fill="#000000" fill-rule="evenodd" fill-opacity="1" /><path clip-path="url(#clip220)" d="M 0 0 M4104.9 97.1638 L4131.52 97.1638 L4131.52 259.2 L4104.9 259.2 L4104.9 97.1638 M4104.9 34.0855 L4131.52 34.0855 L4131.52 67.7948 L4104.9 67.7948 L4104.9 34.0855 Z" fill="#000000" fill-rule="evenodd" fill-opacity="1" /><path clip-path="url(#clip220)" d="M 0 0 M4222.23 115.827 Q4200.82 115.827 4188.38 132.609 Q4175.93 149.247 4175.93 178.327 Q4175.93 207.406 4188.23 224.189 Q4200.67 240.826 4222.23 240.826 Q4243.5 240.826 4255.94 224.044 Q4268.38 207.262 4268.38 178.327 Q4268.38 149.536 4255.94 132.754 Q4243.5 115.827 4222.23 115.827 M4222.23 93.2576 Q4256.95 93.2576 4276.77 115.827 Q4296.59 138.396 4296.59 178.327 Q4296.59 218.112 4276.77 240.826 Q4256.95 263.396 4222.23 263.396 Q4187.36 263.396 4167.54 240.826 Q4147.87 218.112 4147.87 178.327 Q4147.87 138.396 4167.54 115.827 Q4187.36 93.2576 4222.23 93.2576 M4242.34 22.2221 L4271.13 22.2221 L4223.97 76.62 L4201.83 76.62 L4242.34 22.2221 Z" fill="#000000" fill-rule="evenodd" fill-opacity="1" /><path clip-path="url(#clip220)" d="M 0 0 M4459.21 161.4 L4459.21 259.2 L4432.59 259.2 L4432.59 162.268 Q4432.59 139.264 4423.62 127.835 Q4414.65 116.406 4396.71 116.406 Q4375.15 116.406 4362.71 130.15 Q4350.27 143.894 4350.27 167.621 L4350.27 259.2 L4323.5 259.2 L4323.5 97.1638 L4350.27 97.1638 L4350.27 122.337 Q4359.82 107.725 4372.69 100.491 Q4385.71 93.2576 4402.64 93.2576 Q4430.56 93.2576 4444.89 110.619 Q4459.21 127.835 4459.21 161.4 Z" fill="#000000" fill-rule="evenodd" fill-opacity="1" /><path clip-path="url(#clip220)" d="M 0 0 M4654.95 177.748 Q4622.69 177.748 4610.25 185.126 Q4597.81 192.505 4597.81 210.3 Q4597.81 224.478 4607.07 232.869 Q4616.47 241.116 4632.53 241.116 Q4654.66 241.116 4667.97 225.491 Q4681.43 209.721 4681.43 183.68 L4681.43 177.748 L4654.95 177.748 M4708.05 166.753 L4708.05 259.2 L4681.43 259.2 L4681.43 234.605 Q4672.32 249.362 4658.72 256.451 Q4645.12 263.396 4625.44 263.396 Q4600.56 263.396 4585.8 249.507 Q4571.19 235.473 4571.19 212.036 Q4571.19 184.692 4589.42 170.803 Q4607.79 156.915 4644.1 156.915 L4681.43 156.915 L4681.43 154.311 Q4681.43 135.937 4669.28 125.954 Q4657.27 115.827 4635.42 115.827 Q4621.53 115.827 4608.37 119.154 Q4595.2 122.482 4583.05 129.137 L4583.05 104.542 Q4597.66 98.8999 4611.41 96.1511 Q4625.15 93.2576 4638.17 93.2576 Q4673.33 93.2576 4690.69 111.487 Q4708.05 129.716 4708.05 166.753 Z" fill="#000000" fill-rule="evenodd" fill-opacity="1" /><path clip-path="url(#clip220)" d="M 0 0 M4761.72 234.895 L4761.72 320.832 L4734.96 320.832 L4734.96 97.1638 L4761.72 97.1638 L4761.72 121.759 Q4770.12 107.291 4782.85 100.347 Q4795.72 93.2576 4813.52 93.2576 Q4843.03 93.2576 4861.41 116.695 Q4879.92 140.132 4879.92 178.327 Q4879.92 216.521 4861.41 239.958 Q4843.03 263.396 4813.52 263.396 Q4795.72 263.396 4782.85 256.451 Q4770.12 249.362 4761.72 234.895 M4852.29 178.327 Q4852.29 148.958 4840.14 132.32 Q4828.13 115.538 4807.01 115.538 Q4785.89 115.538 4773.73 132.32 Q4761.72 148.958 4761.72 178.327 Q4761.72 207.696 4773.73 224.478 Q4785.89 241.116 4807.01 241.116 Q4828.13 241.116 4840.14 224.478 Q4852.29 207.696 4852.29 178.327 Z" fill="#000000" fill-rule="evenodd" fill-opacity="1" /><path clip-path="url(#clip220)" d="M 0 0 M5001.74 122.048 Q4997.26 119.444 4991.9 118.286 Q4986.69 116.984 4980.33 116.984 Q4957.76 116.984 4945.61 131.741 Q4933.6 146.353 4933.6 173.842 L4933.6 259.2 L4906.83 259.2 L4906.83 97.1638 L4933.6 97.1638 L4933.6 122.337 Q4941.99 107.58 4955.44 100.491 Q4968.9 93.2576 4988.14 93.2576 Q4990.89 93.2576 4994.22 93.6916 Q4997.54 93.981 5001.6 94.7044 L5001.74 122.048 Z" fill="#000000" fill-rule="evenodd" fill-opacity="1" /><path clip-path="url(#clip220)" d="M 0 0 M5085.94 115.827 Q5064.53 115.827 5052.09 132.609 Q5039.65 149.247 5039.65 178.327 Q5039.65 207.406 5051.94 224.189 Q5064.38 240.826 5085.94 240.826 Q5107.21 240.826 5119.65 224.044 Q5132.09 207.262 5132.09 178.327 Q5132.09 149.536 5119.65 132.754 Q5107.21 115.827 5085.94 115.827 M5085.94 93.2576 Q5120.66 93.2576 5140.48 115.827 Q5160.3 138.396 5160.3 178.327 Q5160.3 218.112 5140.48 240.826 Q5120.66 263.396 5085.94 263.396 Q5051.07 263.396 5031.25 240.826 Q5011.58 218.112 5011.58 178.327 Q5011.58 138.396 5031.25 115.827 Q5051.07 93.2576 5085.94 93.2576 Z" fill="#000000" fill-rule="evenodd" fill-opacity="1" /><path clip-path="url(#clip220)" d="M 0 0 M5313.8 97.1638 L5255.21 176.012 L5316.84 259.2 L5285.45 259.2 L5238.28 195.543 L5191.12 259.2 L5159.73 259.2 L5222.66 174.42 L5165.08 97.1638 L5196.47 97.1638 L5239.44 154.889 L5282.41 97.1638 L5313.8 97.1638 Z" fill="#000000" fill-rule="evenodd" fill-opacity="1" /><path clip-path="url(#clip220)" d="M 0 0 M5344.77 97.1638 L5371.39 97.1638 L5371.39 259.2 L5344.77 259.2 L5344.77 97.1638 M5344.77 34.0855 L5371.39 34.0855 L5371.39 67.7948 L5344.77 67.7948 L5344.77 34.0855 Z" fill="#000000" fill-rule="evenodd" fill-opacity="1" /><path clip-path="url(#clip220)" d="M 0 0 M5525.46 128.269 Q5535.45 110.329 5549.34 101.793 Q5563.22 93.2576 5582.03 93.2576 Q5607.35 93.2576 5621.09 111.053 Q5634.84 128.703 5634.84 161.4 L5634.84 259.2 L5608.07 259.2 L5608.07 162.268 Q5608.07 138.975 5599.83 127.69 Q5591.58 116.406 5574.65 116.406 Q5553.97 116.406 5541.96 130.15 Q5529.95 143.894 5529.95 167.621 L5529.95 259.2 L5503.18 259.2 L5503.18 162.268 Q5503.18 138.83 5494.94 127.69 Q5486.69 116.406 5469.48 116.406 Q5449.08 116.406 5437.07 130.294 Q5425.06 144.039 5425.06 167.621 L5425.06 259.2 L5398.3 259.2 L5398.3 97.1638 L5425.06 97.1638 L5425.06 122.337 Q5434.17 107.436 5446.91 100.347 Q5459.64 93.2576 5477.14 93.2576 Q5494.79 93.2576 5507.09 102.227 Q5519.53 111.197 5525.46 128.269 Z" fill="#000000" fill-rule="evenodd" fill-opacity="1" /><path clip-path="url(#clip220)" d="M 0 0 M5736.4 177.748 Q5704.14 177.748 5691.7 185.126 Q5679.25 192.505 5679.25 210.3 Q5679.25 224.478 5688.51 232.869 Q5697.92 241.116 5713.98 241.116 Q5736.11 241.116 5749.42 225.491 Q5762.88 209.721 5762.88 183.68 L5762.88 177.748 L5736.4 177.748 M5789.5 166.753 L5789.5 259.2 L5762.88 259.2 L5762.88 234.605 Q5753.76 249.362 5740.16 256.451 Q5726.56 263.396 5706.89 263.396 Q5682 263.396 5667.25 249.507 Q5652.63 235.473 5652.63 212.036 Q5652.63 184.692 5670.86 170.803 Q5689.24 156.915 5725.55 156.915 L5762.88 156.915 L5762.88 154.311 Q5762.88 135.937 5750.72 125.954 Q5738.72 115.827 5716.87 115.827 Q5702.98 115.827 5689.82 119.154 Q5676.65 122.482 5664.5 129.137 L5664.5 104.542 Q5679.11 98.8999 5692.85 96.1511 Q5706.6 93.2576 5719.62 93.2576 Q5754.77 93.2576 5772.14 111.487 Q5789.5 129.716 5789.5 166.753 Z" fill="#000000" fill-rule="evenodd" fill-opacity="1" /><path clip-path="url(#clip220)" d="M 0 0 M5924.04 121.759 L5924.04 34.0855 L5950.66 34.0855 L5950.66 259.2 L5924.04 259.2 L5924.04 234.895 Q5915.65 249.362 5902.78 256.451 Q5890.05 263.396 5872.11 263.396 Q5842.74 263.396 5824.22 239.958 Q5805.84 216.521 5805.84 178.327 Q5805.84 140.132 5824.22 116.695 Q5842.74 93.2576 5872.11 93.2576 Q5890.05 93.2576 5902.78 100.347 Q5915.65 107.291 5924.04 121.759 M5833.33 178.327 Q5833.33 207.696 5845.34 224.478 Q5857.49 241.116 5878.62 241.116 Q5899.74 241.116 5911.89 224.478 Q5924.04 207.696 5924.04 178.327 Q5924.04 148.958 5911.89 132.32 Q5899.74 115.538 5878.62 115.538 Q5857.49 115.538 5845.34 132.32 Q5833.33 148.958 5833.33 178.327 Z" fill="#000000" fill-rule="evenodd" fill-opacity="1" /><path clip-path="url(#clip220)" d="M 0 0 M6052.23 177.748 Q6019.96 177.748 6007.52 185.126 Q5995.08 192.505 5995.08 210.3 Q5995.08 224.478 6004.34 232.869 Q6013.74 241.116 6029.8 241.116 Q6051.94 241.116 6065.25 225.491 Q6078.7 209.721 6078.7 183.68 L6078.7 177.748 L6052.23 177.748 M6105.32 166.753 L6105.32 259.2 L6078.7 259.2 L6078.7 234.605 Q6069.59 249.362 6055.99 256.451 Q6042.39 263.396 6022.71 263.396 Q5997.83 263.396 5983.07 249.507 Q5968.46 235.473 5968.46 212.036 Q5968.46 184.692 5986.69 170.803 Q6005.06 156.915 6041.38 156.915 L6078.7 156.915 L6078.7 154.311 Q6078.7 135.937 6066.55 125.954 Q6054.54 115.827 6032.7 115.827 Q6018.81 115.827 6005.64 119.154 Q5992.48 122.482 5980.32 129.137 L5980.32 104.542 Q5994.94 98.8999 6008.68 96.1511 Q6022.42 93.2576 6035.44 93.2576 Q6070.6 93.2576 6087.96 111.487 Q6105.32 129.716 6105.32 166.753 Z" fill="#000000" fill-rule="evenodd" fill-opacity="1" /><path clip-path="url(#clip220)" d="M 0 0 M6301.07 177.748 Q6268.81 177.748 6256.36 185.126 Q6243.92 192.505 6243.92 210.3 Q6243.92 224.478 6253.18 232.869 Q6262.58 241.116 6278.64 241.116 Q6300.78 241.116 6314.09 225.491 Q6327.54 209.721 6327.54 183.68 L6327.54 177.748 L6301.07 177.748 M6354.16 166.753 L6354.16 259.2 L6327.54 259.2 L6327.54 234.605 Q6318.43 249.362 6304.83 256.451 Q6291.23 263.396 6271.55 263.396 Q6246.67 263.396 6231.91 249.507 Q6217.3 235.473 6217.3 212.036 Q6217.3 184.692 6235.53 170.803 Q6253.9 156.915 6290.22 156.915 L6327.54 156.915 L6327.54 154.311 Q6327.54 135.937 6315.39 125.954 Q6303.38 115.827 6281.54 115.827 Q6267.65 115.827 6254.48 119.154 Q6241.32 122.482 6229.16 129.137 L6229.16 104.542 Q6243.78 98.8999 6257.52 96.1511 Q6271.26 93.2576 6284.29 93.2576 Q6319.44 93.2576 6336.8 111.487 Q6354.16 129.716 6354.16 166.753 Z" fill="#000000" fill-rule="evenodd" fill-opacity="1" /><path clip-path="url(#clip220)" d="M 0 0 M6382.09 34.0855 L6408.71 34.0855 L6408.71 259.2 L6382.09 259.2 L6382.09 34.0855 Z" fill="#000000" fill-rule="evenodd" fill-opacity="1" /><path clip-path="url(#clip220)" d="M 0 0 M6556.56 234.895 L6556.56 320.832 L6529.8 320.832 L6529.8 97.1638 L6556.56 97.1638 L6556.56 121.759 Q6564.96 107.291 6577.69 100.347 Q6590.56 93.2576 6608.36 93.2576 Q6637.87 93.2576 6656.25 116.695 Q6674.76 140.132 6674.76 178.327 Q6674.76 216.521 6656.25 239.958 Q6637.87 263.396 6608.36 263.396 Q6590.56 263.396 6577.69 256.451 Q6564.96 249.362 6556.56 234.895 M6647.13 178.327 Q6647.13 148.958 6634.98 132.32 Q6622.97 115.538 6601.85 115.538 Q6580.73 115.538 6568.57 132.32 Q6556.56 148.958 6556.56 178.327 Q6556.56 207.696 6568.57 224.478 Q6580.73 241.116 6601.85 241.116 Q6622.97 241.116 6634.98 224.478 Q6647.13 207.696 6647.13 178.327 Z" fill="#000000" fill-rule="evenodd" fill-opacity="1" /><path clip-path="url(#clip220)" d="M 0 0 M6796.58 122.048 Q6792.1 119.444 6786.74 118.286 Q6781.53 116.984 6775.17 116.984 Q6752.6 116.984 6740.45 131.741 Q6728.44 146.353 6728.44 173.842 L6728.44 259.2 L6701.67 259.2 L6701.67 97.1638 L6728.44 97.1638 L6728.44 122.337 Q6736.83 107.58 6750.28 100.491 Q6763.74 93.2576 6782.98 93.2576 Q6785.73 93.2576 6789.06 93.6916 Q6792.38 93.981 6796.44 94.7044 L6796.58 122.048 Z" fill="#000000" fill-rule="evenodd" fill-opacity="1" /><path clip-path="url(#clip220)" d="M 0 0 M6880.78 115.827 Q6859.37 115.827 6846.93 132.609 Q6834.49 149.247 6834.49 178.327 Q6834.49 207.406 6846.78 224.189 Q6859.22 240.826 6880.78 240.826 Q6902.05 240.826 6914.49 224.044 Q6926.93 207.262 6926.93 178.327 Q6926.93 149.536 6914.49 132.754 Q6902.05 115.827 6880.78 115.827 M6880.78 93.2576 Q6915.5 93.2576 6935.32 115.827 Q6955.14 138.396 6955.14 178.327 Q6955.14 218.112 6935.32 240.826 Q6915.5 263.396 6880.78 263.396 Q6845.91 263.396 6826.09 240.826 Q6806.42 218.112 6806.42 178.327 Q6806.42 138.396 6826.09 115.827 Q6845.91 93.2576 6880.78 93.2576 Z" fill="#000000" fill-rule="evenodd" fill-opacity="1" /><path clip-path="url(#clip220)" d="M 0 0 M7099.39 178.327 Q7099.39 148.958 7087.23 132.32 Q7075.22 115.538 7054.1 115.538 Q7032.98 115.538 7020.83 132.32 Q7008.82 148.958 7008.82 178.327 Q7008.82 207.696 7020.83 224.478 Q7032.98 241.116 7054.1 241.116 Q7075.22 241.116 7087.23 224.478 Q7099.39 207.696 7099.39 178.327 M7008.82 121.759 Q7017.21 107.291 7029.94 100.347 Q7042.82 93.2576 7060.61 93.2576 Q7090.13 93.2576 7108.5 116.695 Q7127.02 140.132 7127.02 178.327 Q7127.02 216.521 7108.5 239.958 Q7090.13 263.396 7060.61 263.396 Q7042.82 263.396 7029.94 256.451 Q7017.21 249.362 7008.82 234.895 L7008.82 259.2 L6982.05 259.2 L6982.05 34.0855 L7008.82 34.0855 L7008.82 121.759 Z" fill="#000000" fill-rule="evenodd" fill-opacity="1" /><path clip-path="url(#clip220)" d="M 0 0 M7154.94 34.0855 L7181.56 34.0855 L7181.56 259.2 L7154.94 259.2 L7154.94 34.0855 Z" fill="#000000" fill-rule="evenodd" fill-opacity="1" /><path clip-path="url(#clip220)" d="M 0 0 M7348.08 171.527 L7348.08 184.548 L7225.69 184.548 Q7227.42 212.036 7242.18 226.503 Q7257.08 240.826 7283.56 240.826 Q7298.89 240.826 7313.22 237.065 Q7327.68 233.303 7341.86 225.78 L7341.86 250.954 Q7327.54 257.03 7312.49 260.213 Q7297.45 263.396 7281.97 263.396 Q7243.19 263.396 7220.48 240.826 Q7197.91 218.257 7197.91 179.773 Q7197.91 139.988 7219.32 116.695 Q7240.88 93.2576 7277.34 93.2576 Q7310.03 93.2576 7328.98 114.38 Q7348.08 135.358 7348.08 171.527 M7321.46 163.714 Q7321.17 141.868 7309.16 128.848 Q7297.3 115.827 7277.63 115.827 Q7255.35 115.827 7241.89 128.414 Q7228.58 141 7226.55 163.859 L7321.46 163.714 Z" fill="#000000" fill-rule="evenodd" fill-opacity="1" /><path clip-path="url(#clip220)" d="M 0 0 M7502.16 128.269 Q7512.14 110.329 7526.03 101.793 Q7539.92 93.2576 7558.73 93.2576 Q7584.05 93.2576 7597.79 111.053 Q7611.54 128.703 7611.54 161.4 L7611.54 259.2 L7584.77 259.2 L7584.77 162.268 Q7584.77 138.975 7576.52 127.69 Q7568.28 116.406 7551.35 116.406 Q7530.66 116.406 7518.65 130.15 Q7506.65 143.894 7506.65 167.621 L7506.65 259.2 L7479.88 259.2 L7479.88 162.268 Q7479.88 138.83 7471.63 127.69 Q7463.39 116.406 7446.17 116.406 Q7425.77 116.406 7413.76 130.294 Q7401.76 144.039 7401.76 167.621 L7401.76 259.2 L7374.99 259.2 L7374.99 97.1638 L7401.76 97.1638 L7401.76 122.337 Q7410.87 107.436 7423.6 100.347 Q7436.33 93.2576 7453.84 93.2576 Q7471.49 93.2576 7483.79 102.227 Q7496.23 111.197 7502.16 128.269 Z" fill="#000000" fill-rule="evenodd" fill-opacity="1" /><path clip-path="url(#clip220)" d="M 0 0 M7713.1 177.748 Q7680.83 177.748 7668.39 185.126 Q7655.95 192.505 7655.95 210.3 Q7655.95 224.478 7665.21 232.869 Q7674.61 241.116 7690.67 241.116 Q7712.81 241.116 7726.12 225.491 Q7739.57 209.721 7739.57 183.68 L7739.57 177.748 L7713.1 177.748 M7766.19 166.753 L7766.19 259.2 L7739.57 259.2 L7739.57 234.605 Q7730.46 249.362 7716.86 256.451 Q7703.26 263.396 7683.58 263.396 Q7658.7 263.396 7643.94 249.507 Q7629.33 235.473 7629.33 212.036 Q7629.33 184.692 7647.56 170.803 Q7665.93 156.915 7702.25 156.915 L7739.57 156.915 L7739.57 154.311 Q7739.57 135.937 7727.42 125.954 Q7715.41 115.827 7693.57 115.827 Q7679.68 115.827 7666.51 119.154 Q7653.35 122.482 7641.19 129.137 L7641.19 104.542 Q7655.81 98.8999 7669.55 96.1511 Q7683.29 93.2576 7696.32 93.2576 Q7731.47 93.2576 7748.83 111.487 Q7766.19 129.716 7766.19 166.753 Z" fill="#000000" fill-rule="evenodd" fill-opacity="1" /><polyline clip-path="url(#clip222)" style="stroke:#009af9; stroke-width:20; stroke-opacity:1; fill:none" points="
  813.335,7143.82 822.884,7139.98 832.433,7136.13 841.982,7132.28 851.531,7128.42 861.079,7124.56 870.628,7120.7 880.177,7116.83 889.726,7112.96 899.275,7109.09 
  908.824,7105.21 918.373,7101.33 927.922,7097.44 937.471,7093.55 947.02,7089.66 956.569,7085.76 966.118,7081.86 975.667,7077.95 985.216,7074.04 994.765,7070.13 
  1004.31,7066.21 1013.86,7062.29 1023.41,7058.36 1032.96,7054.43 1042.51,7050.5 1052.06,7046.56 1061.61,7042.62 1071.16,7038.67 1080.71,7034.72 1090.25,7030.77 
  1099.8,7026.81 1109.35,7022.85 1118.9,7018.88 1128.45,7014.91 1138,7010.94 1147.55,7006.96 1157.1,7002.98 1166.65,6998.99 1176.2,6995 1185.74,6991.01 
  1195.29,6987.01 1204.84,6983.01 1214.39,6979 1223.94,6974.99 1233.49,6970.98 1243.04,6966.96 1252.59,6962.94 1262.14,6958.91 1271.69,6954.88 1281.23,6950.85 
  1290.78,6946.81 1300.33,6942.77 1309.88,6938.72 1319.43,6934.67 1328.98,6930.61 1338.53,6926.56 1348.08,6922.49 1357.63,6918.42 1367.17,6914.35 1376.72,6910.28 
  1386.27,6906.2 1395.82,6902.11 1405.37,6898.03 1414.92,6893.93 1424.47,6889.84 1434.02,6885.74 1443.57,6881.63 1453.12,6877.52 1462.66,6873.41 1472.21,6869.3 
  1481.76,6865.17 1491.31,6861.05 1500.86,6856.92 1510.41,6852.79 1519.96,6848.65 1529.51,6844.51 1539.06,6840.36 1548.61,6836.21 1558.15,6832.05 1567.7,6827.9 
  1577.25,6823.73 1586.8,6819.57 1596.35,6815.39 1605.9,6811.22 1615.45,6807.04 1625,6802.86 1634.55,6798.67 1644.1,6794.47 1653.64,6790.28 1663.19,6786.08 
  1672.74,6781.87 1682.29,6777.66 1691.84,6773.45 1701.39,6769.23 1710.94,6765.01 1720.49,6760.78 1730.04,6756.55 1739.58,6752.32 1749.13,6748.08 1758.68,6743.83 
  1768.23,6739.58 1777.78,6735.33 1787.33,6731.08 1796.88,6726.81 1806.43,6722.55 1815.98,6718.28 1825.53,6714.01 1835.07,6709.73 1844.62,6705.45 1854.17,6701.16 
  1863.72,6696.87 1873.27,6692.57 1882.82,6688.27 1892.37,6683.97 1901.92,6679.66 1911.47,6675.35 1921.02,6671.03 1930.56,6666.71 1940.11,6662.38 1949.66,6658.05 
  1959.21,6653.72 1968.76,6649.38 1978.31,6645.03 1987.86,6640.69 1997.41,6636.33 2006.96,6631.98 2016.5,6627.62 2026.05,6623.25 2035.6,6618.88 2045.15,6614.51 
  2054.7,6610.13 2064.25,6605.74 2073.8,6601.36 2083.35,6596.96 2092.9,6592.57 2102.45,6588.17 2111.99,6583.76 2121.54,6579.35 2131.09,6574.94 2140.64,6570.52 
  2150.19,6566.09 2159.74,6561.67 2169.29,6557.23 2178.84,6552.8 2188.39,6548.36 2197.94,6543.91 2207.48,6539.46 2217.03,6535.01 2226.58,6530.55 2236.13,6526.08 
  2245.68,6521.61 2255.23,6517.14 2264.78,6512.66 2274.33,6508.18 2283.88,6503.7 2293.43,6499.2 2302.97,6494.71 2312.52,6490.21 2322.07,6485.7 2331.62,6481.2 
  2341.17,6476.68 2350.72,6472.16 2360.27,6467.64 2369.82,6463.11 2379.37,6458.58 2388.91,6454.05 2398.46,6449.5 2408.01,6444.96 2417.56,6440.41 2427.11,6435.85 
  2436.66,6431.29 2446.21,6426.73 2455.76,6422.16 2465.31,6417.59 2474.86,6413.01 2484.4,6408.43 2493.95,6403.84 2503.5,6399.25 2513.05,6394.65 2522.6,6390.05 
  2532.15,6385.44 2541.7,6380.83 2551.25,6376.22 2560.8,6371.6 2570.35,6366.97 2579.89,6362.34 2589.44,6357.71 2598.99,6353.07 2608.54,6348.43 2618.09,6343.78 
  2627.64,6339.13 2637.19,6334.47 2646.74,6329.81 2656.29,6325.14 2665.83,6320.47 2675.38,6315.79 2684.93,6311.11 2694.48,6306.43 2704.03,6301.74 2713.58,6297.04 
  2723.13,6292.34 2732.68,6287.64 2742.23,6282.93 2751.78,6278.21 2761.32,6273.49 2770.87,6268.77 2780.42,6264.04 2789.97,6259.31 2799.52,6254.57 2809.07,6249.83 
  2818.62,6245.08 2828.17,6240.33 2837.72,6235.57 2847.27,6230.81 2856.81,6226.04 2866.36,6221.27 2875.91,6216.49 2885.46,6211.71 2895.01,6206.93 2904.56,6202.13 
  2914.11,6197.34 2923.66,6192.54 2933.21,6187.73 2942.75,6182.92 2952.3,6178.11 2961.85,6173.29 2971.4,6168.46 2980.95,6163.63 2990.5,6158.8 3000.05,6153.96 
  3009.6,6149.11 3019.15,6144.26 3028.7,6139.41 3038.24,6134.55 3047.79,6129.68 3057.34,6124.81 3066.89,6119.94 3076.44,6115.06 3085.99,6110.18 3095.54,6105.29 
  3105.09,6100.39 3114.64,6095.5 3124.19,6090.59 3133.73,6085.68 3143.28,6080.77 3152.83,6075.85 3162.38,6070.93 3171.93,6066 3181.48,6061.07 3191.03,6056.13 
  3200.58,6051.18 3210.13,6046.23 3219.68,6041.28 3229.22,6036.32 3238.77,6031.36 3248.32,6026.39 3257.87,6021.42 3267.42,6016.44 3276.97,6011.45 3286.52,6006.46 
  3296.07,6001.47 3305.62,5996.47 3315.16,5991.47 3324.71,5986.46 3334.26,5981.44 3343.81,5976.43 3353.36,5971.4 3362.91,5966.37 3372.46,5961.34 3382.01,5956.3 
  3391.56,5951.25 3401.11,5946.2 3410.65,5941.15 3420.2,5936.09 3429.75,5931.02 3439.3,5925.95 3448.85,5920.88 3458.4,5915.8 3467.95,5910.71 3477.5,5905.62 
  3487.05,5900.53 3496.6,5895.42 3506.14,5890.32 3515.69,5885.21 3525.24,5880.09 3534.79,5874.97 3544.34,5869.84 3553.89,5864.71 3563.44,5859.57 3572.99,5854.43 
  3582.54,5849.28 3592.08,5844.13 3601.63,5838.97 3611.18,5833.81 3620.73,5828.64 3630.28,5823.47 3639.83,5818.29 3649.38,5813.1 3658.93,5807.91 3668.48,5802.72 
  3678.03,5797.52 3687.57,5792.31 3697.12,5787.1 3706.67,5781.89 3716.22,5776.67 3725.77,5771.44 3735.32,5766.21 3744.87,5760.97 3754.42,5755.73 3763.97,5750.48 
  3773.52,5745.23 3783.06,5739.97 3792.61,5734.71 3802.16,5729.44 3811.71,5724.17 3821.26,5718.89 3830.81,5713.6 3840.36,5708.31 3849.91,5703.02 3859.46,5697.71 
  3869.01,5692.41 3878.55,5687.1 3888.1,5681.78 3897.65,5676.46 3907.2,5671.13 3916.75,5665.8 3926.3,5660.46 3935.85,5655.11 3945.4,5649.77 3954.95,5644.41 
  3964.49,5639.05 3974.04,5633.69 3983.59,5628.31 3993.14,5622.94 4002.69,5617.56 4012.24,5612.17 4021.79,5606.78 4031.34,5601.38 4040.89,5595.97 4050.44,5590.57 
  4059.98,5585.15 4069.53,5579.73 4079.08,5574.31 4088.63,5568.87 4098.18,5563.44 4107.73,5558 4117.28,5552.55 4126.83,5547.1 4136.38,5541.64 4145.93,5536.17 
  4155.47,5530.7 4165.02,5525.23 4174.57,5519.75 4184.12,5514.26 4193.67,5508.77 4203.22,5503.27 4212.77,5497.77 4222.32,5492.26 4231.87,5486.75 4241.41,5481.23 
  4250.96,5475.7 4260.51,5470.17 4270.06,5464.64 4279.61,5459.09 4289.16,5453.55 4298.71,5447.99 4308.26,5442.43 4317.81,5436.87 4327.36,5431.3 4336.9,5425.72 
  4346.45,5420.14 4356,5414.56 4365.55,5408.96 4375.1,5403.36 4384.65,5397.76 4394.2,5392.15 4403.75,5386.54 4413.3,5380.91 4422.85,5375.29 4432.39,5369.66 
  4441.94,5364.02 4451.49,5358.37 4461.04,5352.72 4470.59,5347.07 4480.14,5341.41 4489.69,5335.74 4499.24,5330.07 4508.79,5324.39 4518.34,5318.71 4527.88,5313.02 
  4537.43,5307.32 4546.98,5301.62 4556.53,5295.92 4566.08,5290.2 4575.63,5284.48 4585.18,5278.76 4594.73,5273.03 4604.28,5267.29 4613.82,5261.55 4623.37,5255.81 
  4632.92,5250.05 4642.47,5244.29 4652.02,5238.53 4661.57,5232.76 4671.12,5226.98 4680.67,5221.2 4690.22,5215.41 4699.77,5209.62 4709.31,5203.82 4718.86,5198.01 
  4728.41,5192.2 4737.96,5186.38 4747.51,5180.56 4757.06,5174.73 4766.61,5168.89 4776.16,5163.05 4785.71,5157.21 4795.26,5151.35 4804.8,5145.49 4814.35,5139.63 
  4823.9,5133.76 4833.45,5127.88 4843,5122 4852.55,5116.11 4862.1,5110.22 4871.65,5104.32 4881.2,5098.41 4890.74,5092.5 4900.29,5086.58 4909.84,5080.66 
  4919.39,5074.72 4928.94,5068.79 4938.49,5062.85 4948.04,5056.9 4957.59,5050.94 4967.14,5044.98 4976.69,5039.02 4986.23,5033.04 4995.78,5027.07 5005.33,5021.08 
  5014.88,5015.09 5024.43,5009.09 5033.98,5003.09 5043.53,4997.08 5053.08,4991.07 5062.63,4985.05 5072.18,4979.02 5081.72,4972.99 5091.27,4966.95 5100.82,4960.9 
  5110.37,4954.85 5119.92,4948.79 5129.47,4942.73 5139.02,4936.66 5148.57,4930.58 5158.12,4924.5 5167.67,4918.41 5177.21,4912.32 5186.76,4906.22 5196.31,4900.11 
  5205.86,4894 5215.41,4887.88 5224.96,4881.75 5234.51,4875.62 5244.06,4869.48 5253.61,4863.34 5263.15,4857.19 5272.7,4851.03 5282.25,4844.87 5291.8,4838.7 
  5301.35,4832.53 5310.9,4826.35 5320.45,4820.16 5330,4813.96 5339.55,4807.76 5349.1,4801.56 5358.64,4795.35 5368.19,4789.13 5377.74,4782.9 5387.29,4776.67 
  5396.84,4770.43 5406.39,4764.19 5415.94,4757.94 5425.49,4751.68 5435.04,4745.42 5444.59,4739.15 5454.13,4732.87 5463.68,4726.59 5473.23,4720.3 5482.78,4714.01 
  5492.33,4707.71 5501.88,4701.4 5511.43,4695.08 5520.98,4688.76 5530.53,4682.44 5540.07,4676.1 5549.62,4669.76 5559.17,4663.42 5568.72,4657.07 5578.27,4650.71 
  5587.82,4644.34 5597.37,4637.97 5606.92,4631.59 5616.47,4625.21 5626.02,4618.82 5635.56,4612.42 5645.11,4606.01 5654.66,4599.6 5664.21,4593.19 5673.76,4586.76 
  5683.31,4580.33 5692.86,4573.9 5702.41,4567.45 5711.96,4561.01 5721.51,4554.55 5731.05,4548.09 5740.6,4541.62 5750.15,4535.14 5759.7,4528.66 5769.25,4522.17 
  5778.8,4515.68 5788.35,4509.17 5797.9,4502.67 5807.45,4496.15 5817,4489.63 5826.54,4483.1 5836.09,4476.57 5845.64,4470.03 5855.19,4463.48 5864.74,4456.92 
  5874.29,4450.36 5883.84,4443.79 5893.39,4437.22 5902.94,4430.64 5912.48,4424.05 5922.03,4417.46 5931.58,4410.85 5941.13,4404.25 5950.68,4397.63 5960.23,4391.01 
  5969.78,4384.38 5979.33,4377.75 5988.88,4371.11 5998.43,4364.46 6007.97,4357.8 6017.52,4351.14 6027.07,4344.47 6036.62,4337.8 6046.17,4331.12 6055.72,4324.43 
  6065.27,4317.73 6074.82,4311.03 6084.37,4304.32 6093.92,4297.61 6103.46,4290.88 6113.01,4284.16 6122.56,4277.42 6132.11,4270.68 6141.66,4263.93 6151.21,4257.17 
  6160.76,4250.41 6170.31,4243.64 6179.86,4236.86 6189.4,4230.08 6198.95,4223.29 6208.5,4216.49 6218.05,4209.68 6227.6,4202.87 6237.15,4196.05 6246.7,4189.23 
  6256.25,4182.4 6265.8,4175.56 6275.35,4168.71 6284.89,4161.86 6294.44,4155 6303.99,4148.13 6313.54,4141.26 6323.09,4134.38 6332.64,4127.49 6342.19,4120.6 
  6351.74,4113.7 6361.29,4106.79 6370.84,4099.87 6380.38,4092.95 6389.93,4086.02 6399.48,4079.08 6409.03,4072.14 6418.58,4065.19 6428.13,4058.23 6437.68,4051.27 
  6447.23,4044.3 6456.78,4037.32 6466.33,4030.33 6475.87,4023.34 6485.42,4016.34 6494.97,4009.33 6504.52,4002.32 6514.07,3995.3 6523.62,3988.27 6533.17,3981.23 
  6542.72,3974.19 6552.27,3967.14 6561.81,3960.08 6571.36,3953.02 6580.91,3945.95 6590.46,3938.87 6600.01,3931.79 6609.56,3924.69 6619.11,3917.59 6628.66,3910.49 
  6638.21,3903.37 6647.76,3896.25 6657.3,3889.12 6666.85,3881.99 6676.4,3874.85 6685.95,3867.7 6695.5,3860.54 6705.05,3853.37 6714.6,3846.2 6724.15,3839.02 
  6733.7,3831.84 6743.25,3824.64 6752.79,3817.44 6762.34,3810.23 6771.89,3803.02 6781.44,3795.8 6790.99,3788.57 6800.54,3781.33 6810.09,3774.08 6819.64,3766.83 
  6829.19,3759.57 6838.73,3752.31 6848.28,3745.03 6857.83,3737.75 6867.38,3730.46 6876.93,3723.17 6886.48,3715.86 6896.03,3708.55 6905.58,3701.23 6915.13,3693.91 
  6924.68,3686.57 6934.22,3679.23 6943.77,3671.89 6953.32,3664.53 6962.87,3657.17 6972.42,3649.8 6981.97,3642.42 6991.52,3635.03 7001.07,3627.64 7010.62,3620.24 
  7020.17,3612.83 7029.71,3605.42 7039.26,3598 7048.81,3590.57 7058.36,3583.13 7067.91,3575.68 7077.46,3568.23 7087.01,3560.77 7096.56,3553.3 7106.11,3545.83 
  7115.65,3538.35 7125.2,3530.86 7134.75,3523.36 7144.3,3515.85 7153.85,3508.34 7163.4,3500.82 7172.95,3493.29 7182.5,3485.75 7192.05,3478.21 7201.6,3470.66 
  7211.14,3463.1 7220.69,3455.53 7230.24,3447.96 7239.79,3440.38 7249.34,3432.79 7258.89,3425.19 7268.44,3417.59 7277.99,3409.97 7287.54,3402.35 7297.09,3394.72 
  7306.63,3387.09 7316.18,3379.45 7325.73,3371.79 7335.28,3364.14 7344.83,3356.47 7354.38,3348.79 7363.93,3341.11 7373.48,3333.42 7383.03,3325.72 7392.58,3318.02 
  7402.12,3310.31 7411.67,3302.58 7421.22,3294.86 7430.77,3287.12 7440.32,3279.37 7449.87,3271.62 7459.42,3263.86 7468.97,3256.09 7478.52,3248.32 7488.06,3240.53 
  7497.61,3232.74 7507.16,3224.94 7516.71,3217.14 7526.26,3209.32 7535.81,3201.5 7545.36,3193.67 7554.91,3185.83 7564.46,3177.98 7574.01,3170.12 7583.55,3162.26 
  7593.1,3154.39 7602.65,3146.51 7612.2,3138.63 7621.75,3130.73 7631.3,3122.83 7640.85,3114.92 7650.4,3107 7659.95,3099.07 7669.5,3091.14 7679.04,3083.19 
  7688.59,3075.24 7698.14,3067.28 7707.69,3059.32 7717.24,3051.34 7726.79,3043.36 7736.34,3035.37 7745.89,3027.37 7755.44,3019.36 7764.98,3011.35 7774.53,3003.32 
  7784.08,2995.29 7793.63,2987.25 7803.18,2979.2 7812.73,2971.15 7822.28,2963.08 7831.83,2955.01 7841.38,2946.93 7850.93,2938.84 7860.47,2930.75 7870.02,2922.64 
  7879.57,2914.53 7889.12,2906.41 7898.67,2898.28 7908.22,2890.14 7917.77,2881.99 7927.32,2873.84 7936.87,2865.68 7946.42,2857.5 7955.96,2849.33 7965.51,2841.14 
  7975.06,2832.94 7984.61,2824.74 7994.16,2816.53 8003.71,2808.31 8013.26,2800.08 8022.81,2791.84 8032.36,2783.59 8041.91,2775.34 8051.45,2767.08 8061,2758.81 
  8070.55,2750.53 8080.1,2742.24 8089.65,2733.95 8099.2,2725.64 8108.75,2717.33 8118.3,2709.01 8127.85,2700.68 8137.39,2692.34 8146.94,2684 8156.49,2675.64 
  8166.04,2667.28 8175.59,2658.91 8185.14,2650.53 8194.69,2642.14 8204.24,2633.74 8213.79,2625.34 8223.34,2616.92 8232.88,2608.5 8242.43,2600.07 8251.98,2591.63 
  8261.53,2583.18 8271.08,2574.72 8280.63,2566.26 8290.18,2557.78 8299.73,2549.3 8309.28,2540.81 8318.83,2532.31 8328.37,2523.8 8337.92,2515.29 8347.47,2506.76 
  8357.02,2498.23 8366.57,2489.69 8376.12,2481.13 8385.67,2472.57 8395.22,2464.01 8404.77,2455.43 8414.31,2446.84 8423.86,2438.25 8433.41,2429.65 8442.96,2421.03 
  8452.51,2412.41 8462.06,2403.78 8471.61,2395.15 8481.16,2386.5 8490.71,2377.84 8500.26,2369.18 8509.8,2360.51 8519.35,2351.82 8528.9,2343.13 8538.45,2334.43 
  8548,2325.73 8557.55,2317.01 8567.1,2308.28 8576.65,2299.55 8586.2,2290.81 8595.75,2282.05 8605.29,2273.29 8614.84,2264.52 8624.39,2255.74 8633.94,2246.96 
  8643.49,2238.16 8653.04,2229.35 8662.59,2220.54 8672.14,2211.71 8681.69,2202.88 8691.24,2194.04 8700.78,2185.19 8710.33,2176.33 8719.88,2167.46 8729.43,2158.59 
  8738.98,2149.7 8748.53,2140.81 8758.08,2131.9 8767.63,2122.99 8777.18,2114.07 8786.72,2105.14 8796.27,2096.2 8805.82,2087.25 8815.37,2078.29 8824.92,2069.32 
  8834.47,2060.34 8844.02,2051.36 8853.57,2042.36 8863.12,2033.36 8872.67,2024.35 8882.21,2015.33 8891.76,2006.29 8901.31,1997.25 8910.86,1988.21 8920.41,1979.15 
  8929.96,1970.08 8939.51,1961 8949.06,1951.92 8958.61,1942.82 8968.16,1933.72 8977.7,1924.6 8987.25,1915.48 8996.8,1906.35 9006.35,1897.21 9015.9,1888.06 
  9025.45,1878.9 9035,1869.73 9044.55,1860.55 9054.1,1851.36 9063.64,1842.17 9073.19,1832.96 9082.74,1823.74 9092.29,1814.52 9101.84,1805.29 9111.39,1796.04 
  9120.94,1786.79 9130.49,1777.53 9140.04,1768.26 9149.59,1758.97 9159.13,1749.68 9168.68,1740.38 9178.23,1731.08 9187.78,1721.76 9197.33,1712.43 9206.88,1703.09 
  9216.43,1693.74 9225.98,1684.39 9235.53,1675.02 9245.08,1665.65 9254.62,1656.26 9264.17,1646.87 9273.72,1637.47 9283.27,1628.05 9292.82,1618.63 9302.37,1609.2 
  9311.92,1599.76 9321.47,1590.3 9331.02,1580.84 9340.57,1571.37 9350.11,1561.89 9359.66,1552.4 9369.21,1542.9 9378.76,1533.39 9388.31,1523.88 9397.86,1514.35 
  9407.41,1504.81 9416.96,1495.26 9426.51,1485.71 9436.05,1476.14 9445.6,1466.56 9455.15,1456.98 9464.7,1447.38 9474.25,1437.78 9483.8,1428.16 9493.35,1418.54 
  9502.9,1408.9 9512.45,1399.26 9522,1389.6 9531.54,1379.94 9541.09,1370.26 9550.64,1360.58 9560.19,1350.89 9569.74,1341.18 9579.29,1331.47 9588.84,1321.75 
  9598.39,1312.02 9607.94,1302.27 9617.49,1292.52 9627.03,1282.76 9636.58,1272.99 9646.13,1263.21 9655.68,1253.41 9665.23,1243.61 9674.78,1233.8 9684.33,1223.98 
  9693.88,1214.15 9703.43,1204.31 9712.97,1194.46 9722.52,1184.59 9732.07,1174.72 9741.62,1164.84 9751.17,1154.95 9760.72,1145.05 9770.27,1135.14 9779.82,1125.22 
  9789.37,1115.28 9798.92,1105.34 9808.46,1095.39 9818.01,1085.43 9827.56,1075.46 9837.11,1065.48 9846.66,1055.49 9856.21,1045.48 9865.76,1035.47 9875.31,1025.45 
  9884.86,1015.42 9894.41,1005.37 9903.95,995.322 9913.5,985.26 9923.05,975.187 9932.6,965.103 9942.15,955.01 9951.7,944.907 9961.25,934.793 9970.8,924.669 
  9980.35,914.535 9989.9,904.39 9999.44,894.236 10009,884.071 10018.5,873.895 10028.1,863.71 10037.6,853.514 10047.2,843.308 10056.7,833.091 10066.3,822.864 
  10075.8,812.627 10085.4,802.38 10094.9,792.122 10104.5,781.853 10114,771.575 10123.6,761.286 10133.1,750.986 10142.7,740.676 10152.2,730.356 10161.8,720.025 
  10171.3,709.684 10180.9,699.332 10190.4,688.97 10200,678.598 10209.5,668.214 10219.1,657.821 10228.6,647.417 10238.2,637.002 10247.7,626.577 10257.3,616.141 
  10266.8,605.695 10276.4,595.238 10285.9,584.771 10295.5,574.293 10305,563.804 10314.6,553.305 10324.1,542.795 10333.7,532.274 10343.2,521.743 10352.8,511.201 
  
  "/>
<polyline clip-path="url(#clip222)" style="stroke:#e26f46; stroke-width:12; stroke-opacity:1; fill:none" stroke-dasharray="48, 30" points="
  813.335,7143.82 931.698,7095.9 1218.77,6977.16 1593.47,6816.65 2042.72,6615.62 2569.52,6367.37 3162.65,6070.79 3816.28,5721.64 4520.32,5317.53 5266.93,4854.76 
  6047.77,4330 6855.94,3739.2 7685.18,3078.09 8530.33,2341.84 9387.04,1525.15 10251.8,622.124 10352.8,511.201 
  "/>
<path clip-path="url(#clip220)" d="
M6931.45 1680.58 L10034.8 1680.58 L10034.8 546.575 L6931.45 546.575  Z
  " fill="#ffffff" fill-rule="evenodd" fill-opacity="1"/>
<polyline clip-path="url(#clip220)" style="stroke:#000000; stroke-width:4; stroke-opacity:1; fill:none" points="
  6931.45,1680.58 10034.8,1680.58 10034.8,546.575 6931.45,546.575 6931.45,1680.58 
  "/>
<polyline clip-path="url(#clip220)" style="stroke:#009af9; stroke-width:25; stroke-opacity:1; fill:none" points="
  7037.44,924.575 7673.4,924.575 
  "/>
<path clip-path="url(#clip220)" d="M 0 0 M7878.35 845.366 L7838.71 952.859 L7918.14 952.859 L7878.35 845.366 M7861.86 816.575 L7894.99 816.575 L7977.31 1032.58 L7946.93 1032.58 L7927.25 977.165 L7829.89 977.165 L7810.21 1032.58 L7779.4 1032.58 L7861.86 816.575 Z" fill="#000000" fill-rule="evenodd" fill-opacity="1" /><path clip-path="url(#clip220)" d="M 0 0 M8030.99 1008.27 L8030.99 1094.21 L8004.22 1094.21 L8004.22 870.539 L8030.99 870.539 L8030.99 895.134 Q8039.38 880.667 8052.11 873.722 Q8064.98 866.633 8082.78 866.633 Q8112.29 866.633 8130.67 890.07 Q8149.19 913.508 8149.19 951.702 Q8149.19 989.896 8130.67 1013.33 Q8112.29 1036.77 8082.78 1036.77 Q8064.98 1036.77 8052.11 1029.83 Q8039.38 1022.74 8030.99 1008.27 M8121.55 951.702 Q8121.55 922.333 8109.4 905.695 Q8097.39 888.913 8076.27 888.913 Q8055.15 888.913 8042.99 905.695 Q8030.99 922.333 8030.99 951.702 Q8030.99 981.071 8042.99 997.853 Q8055.15 1014.49 8076.27 1014.49 Q8097.39 1014.49 8109.4 997.853 Q8121.55 981.071 8121.55 951.702 Z" fill="#000000" fill-rule="evenodd" fill-opacity="1" /><path clip-path="url(#clip220)" d="M 0 0 M8271 895.423 Q8266.52 892.819 8261.16 891.662 Q8255.96 890.36 8249.59 890.36 Q8227.02 890.36 8214.87 905.117 Q8202.86 919.729 8202.86 947.217 L8202.86 1032.58 L8176.1 1032.58 L8176.1 870.539 L8202.86 870.539 L8202.86 895.713 Q8211.25 880.956 8224.71 873.867 Q8238.16 866.633 8257.4 866.633 Q8260.15 866.633 8263.48 867.067 Q8266.81 867.356 8270.86 868.08 L8271 895.423 Z" fill="#000000" fill-rule="evenodd" fill-opacity="1" /><path clip-path="url(#clip220)" d="M 0 0 M8355.2 889.202 Q8333.79 889.202 8321.35 905.985 Q8308.91 922.622 8308.91 951.702 Q8308.91 980.782 8321.2 997.564 Q8333.65 1014.2 8355.2 1014.2 Q8376.47 1014.2 8388.91 997.419 Q8401.35 980.637 8401.35 951.702 Q8401.35 922.912 8388.91 906.129 Q8376.47 889.202 8355.2 889.202 M8355.2 866.633 Q8389.93 866.633 8409.75 889.202 Q8429.57 911.772 8429.57 951.702 Q8429.57 991.488 8409.75 1014.2 Q8389.93 1036.77 8355.2 1036.77 Q8320.34 1036.77 8300.52 1014.2 Q8280.84 991.488 8280.84 951.702 Q8280.84 911.772 8300.52 889.202 Q8320.34 866.633 8355.2 866.633 Z" fill="#000000" fill-rule="evenodd" fill-opacity="1" /><path clip-path="url(#clip220)" d="M 0 0 M8583.07 870.539 L8524.47 949.387 L8586.1 1032.58 L8554.71 1032.58 L8507.55 968.918 L8460.38 1032.58 L8428.99 1032.58 L8491.92 947.796 L8434.34 870.539 L8465.74 870.539 L8508.7 928.265 L8551.67 870.539 L8583.07 870.539 Z" fill="#000000" fill-rule="evenodd" fill-opacity="1" /><path clip-path="url(#clip220)" d="M 0 0 M8614.03 870.539 L8640.65 870.539 L8640.65 1032.58 L8614.03 1032.58 L8614.03 870.539 M8614.03 807.461 L8640.65 807.461 L8640.65 841.17 L8614.03 841.17 L8614.03 807.461 Z" fill="#000000" fill-rule="evenodd" fill-opacity="1" /><path clip-path="url(#clip220)" d="M 0 0 M8794.73 901.644 Q8804.71 883.705 8818.6 875.169 Q8832.49 866.633 8851.29 866.633 Q8876.61 866.633 8890.36 884.428 Q8904.1 902.078 8904.1 934.775 L8904.1 1032.58 L8877.34 1032.58 L8877.34 935.643 Q8877.34 912.35 8869.09 901.066 Q8860.84 889.781 8843.92 889.781 Q8823.23 889.781 8811.22 903.525 Q8799.21 917.269 8799.21 940.996 L8799.21 1032.58 L8772.45 1032.58 L8772.45 935.643 Q8772.45 912.206 8764.2 901.066 Q8755.95 889.781 8738.74 889.781 Q8718.34 889.781 8706.33 903.67 Q8694.32 917.414 8694.32 940.996 L8694.32 1032.58 L8667.56 1032.58 L8667.56 870.539 L8694.32 870.539 L8694.32 895.713 Q8703.44 880.811 8716.17 873.722 Q8728.9 866.633 8746.4 866.633 Q8764.06 866.633 8776.35 875.603 Q8788.79 884.573 8794.73 901.644 Z" fill="#000000" fill-rule="evenodd" fill-opacity="1" /><path clip-path="url(#clip220)" d="M 0 0 M9005.66 951.123 Q8973.4 951.123 8960.96 958.502 Q8948.52 965.88 8948.52 983.675 Q8948.52 997.853 8957.78 1006.24 Q8967.18 1014.49 8983.24 1014.49 Q9005.37 1014.49 9018.68 998.866 Q9032.14 983.097 9032.14 957.055 L9032.14 951.123 L9005.66 951.123 M9058.76 940.128 L9058.76 1032.58 L9032.14 1032.58 L9032.14 1007.98 Q9023.02 1022.74 9009.42 1029.83 Q8995.82 1036.77 8976.15 1036.77 Q8951.26 1036.77 8936.51 1022.88 Q8921.9 1008.85 8921.9 985.411 Q8921.9 958.068 8940.12 944.179 Q8958.5 930.29 8994.81 930.29 L9032.14 930.29 L9032.14 927.686 Q9032.14 909.312 9019.99 899.33 Q9007.98 889.202 8986.13 889.202 Q8972.24 889.202 8959.08 892.53 Q8945.91 895.857 8933.76 902.512 L8933.76 877.918 Q8948.37 872.275 8962.12 869.527 Q8975.86 866.633 8988.88 866.633 Q9024.04 866.633 9041.4 884.862 Q9058.76 903.091 9058.76 940.128 Z" fill="#000000" fill-rule="evenodd" fill-opacity="1" /><path clip-path="url(#clip220)" d="M 0 0 M9203.29 876.76 L9203.29 901.644 Q9192 895.423 9180.58 892.385 Q9169.29 889.202 9157.72 889.202 Q9131.82 889.202 9117.5 905.695 Q9103.17 922.044 9103.17 951.702 Q9103.17 981.36 9117.5 997.853 Q9131.82 1014.2 9157.72 1014.2 Q9169.29 1014.2 9180.58 1011.16 Q9192 1007.98 9203.29 1001.76 L9203.29 1026.35 Q9192.15 1031.56 9180.14 1034.17 Q9168.28 1036.77 9154.82 1036.77 Q9118.22 1036.77 9096.66 1013.77 Q9075.11 990.764 9075.11 951.702 Q9075.11 912.061 9096.81 889.347 Q9118.65 866.633 9156.56 866.633 Q9168.86 866.633 9180.58 869.237 Q9192.29 871.697 9203.29 876.76 Z" fill="#000000" fill-rule="evenodd" fill-opacity="1" /><path clip-path="url(#clip220)" d="M 0 0 M9231.21 870.539 L9257.83 870.539 L9257.83 1032.58 L9231.21 1032.58 L9231.21 870.539 M9231.21 807.461 L9257.83 807.461 L9257.83 841.17 L9231.21 841.17 L9231.21 807.461 Z" fill="#000000" fill-rule="evenodd" fill-opacity="1" /><path clip-path="url(#clip220)" d="M 0 0 M9348.54 889.202 Q9327.13 889.202 9314.69 905.985 Q9302.25 922.622 9302.25 951.702 Q9302.25 980.782 9314.54 997.564 Q9326.99 1014.2 9348.54 1014.2 Q9369.81 1014.2 9382.25 997.419 Q9394.69 980.637 9394.69 951.702 Q9394.69 922.912 9382.25 906.129 Q9369.81 889.202 9348.54 889.202 M9348.54 866.633 Q9383.26 866.633 9403.09 889.202 Q9422.91 911.772 9422.91 951.702 Q9422.91 991.488 9403.09 1014.2 Q9383.26 1036.77 9348.54 1036.77 Q9313.68 1036.77 9293.86 1014.2 Q9274.18 991.488 9274.18 951.702 Q9274.18 911.772 9293.86 889.202 Q9313.68 866.633 9348.54 866.633 M9368.65 795.598 L9397.44 795.598 L9350.28 849.995 L9328.14 849.995 L9368.65 795.598 Z" fill="#000000" fill-rule="evenodd" fill-opacity="1" /><path clip-path="url(#clip220)" d="M 0 0 M9585.52 934.775 L9585.52 1032.58 L9558.9 1032.58 L9558.9 935.643 Q9558.9 912.64 9549.93 901.21 Q9540.96 889.781 9523.02 889.781 Q9501.46 889.781 9489.02 903.525 Q9476.58 917.269 9476.58 940.996 L9476.58 1032.58 L9449.82 1032.58 L9449.82 870.539 L9476.58 870.539 L9476.58 895.713 Q9486.13 881.101 9499.01 873.867 Q9512.03 866.633 9528.95 866.633 Q9556.88 866.633 9571.2 883.994 Q9585.52 901.21 9585.52 934.775 Z" fill="#000000" fill-rule="evenodd" fill-opacity="1" /><polyline clip-path="url(#clip220)" style="stroke:#e26f46; stroke-width:25; stroke-opacity:1; fill:none" stroke-dasharray="100, 63" points="
  7037.44,1302.58 7673.4,1302.58 
  "/>
<path clip-path="url(#clip220)" d="M 0 0 M7918.43 1201.66 L7918.43 1230.17 Q7901.79 1222.21 7887.03 1218.3 Q7872.28 1214.4 7858.53 1214.4 Q7834.66 1214.4 7821.64 1223.66 Q7808.77 1232.91 7808.77 1249.99 Q7808.77 1264.31 7817.3 1271.69 Q7825.98 1278.92 7850 1283.41 L7867.65 1287.02 Q7900.34 1293.24 7915.82 1309.01 Q7931.45 1324.64 7931.45 1350.97 Q7931.45 1382.36 7910.33 1398.57 Q7889.35 1414.77 7848.7 1414.77 Q7833.36 1414.77 7816 1411.3 Q7798.78 1407.83 7780.26 1401.03 L7780.26 1370.93 Q7798.06 1380.92 7815.13 1385.98 Q7832.2 1391.04 7848.7 1391.04 Q7873.72 1391.04 7887.32 1381.21 Q7900.92 1371.37 7900.92 1353.14 Q7900.92 1337.23 7891.09 1328.26 Q7881.39 1319.29 7859.11 1314.8 L7841.32 1311.33 Q7808.62 1304.82 7794.01 1290.93 Q7779.4 1277.04 7779.4 1252.3 Q7779.4 1223.66 7799.51 1207.16 Q7819.76 1190.67 7855.21 1190.67 Q7870.4 1190.67 7886.17 1193.42 Q7901.94 1196.17 7918.43 1201.66 Z" fill="#000000" fill-rule="evenodd" fill-opacity="1" /><path clip-path="url(#clip220)" d="M 0 0 M8022.16 1267.2 Q8000.75 1267.2 7988.31 1283.98 Q7975.87 1300.62 7975.87 1329.7 Q7975.87 1358.78 7988.16 1375.56 Q8000.6 1392.2 8022.16 1392.2 Q8043.43 1392.2 8055.87 1375.42 Q8068.31 1358.64 8068.31 1329.7 Q8068.31 1300.91 8055.87 1284.13 Q8043.43 1267.2 8022.16 1267.2 M8022.16 1244.63 Q8056.88 1244.63 8076.7 1267.2 Q8096.52 1289.77 8096.52 1329.7 Q8096.52 1369.49 8076.7 1392.2 Q8056.88 1414.77 8022.16 1414.77 Q7987.29 1414.77 7967.47 1392.2 Q7947.8 1369.49 7947.8 1329.7 Q7947.8 1289.77 7967.47 1267.2 Q7987.29 1244.63 8022.16 1244.63 Z" fill="#000000" fill-rule="evenodd" fill-opacity="1" /><path clip-path="url(#clip220)" d="M 0 0 M8124.45 1185.46 L8151.07 1185.46 L8151.07 1410.58 L8124.45 1410.58 L8124.45 1185.46 Z" fill="#000000" fill-rule="evenodd" fill-opacity="1" /><path clip-path="url(#clip220)" d="M 0 0 M8176.24 1346.63 L8176.24 1248.54 L8202.86 1248.54 L8202.86 1345.62 Q8202.86 1368.62 8211.83 1380.19 Q8220.8 1391.62 8238.74 1391.62 Q8260.3 1391.62 8272.74 1377.88 Q8285.33 1364.13 8285.33 1340.41 L8285.33 1248.54 L8311.95 1248.54 L8311.95 1410.58 L8285.33 1410.58 L8285.33 1385.69 Q8275.63 1400.45 8262.76 1407.68 Q8250.02 1414.77 8233.1 1414.77 Q8205.18 1414.77 8190.71 1397.41 Q8176.24 1380.05 8176.24 1346.63 M8243.22 1244.63 L8243.22 1244.63 Z" fill="#000000" fill-rule="evenodd" fill-opacity="1" /><path clip-path="url(#clip220)" d="M 0 0 M8456.48 1254.76 L8456.48 1279.64 Q8445.19 1273.42 8433.76 1270.39 Q8422.48 1267.2 8410.9 1267.2 Q8385.01 1267.2 8370.68 1283.7 Q8356.36 1300.04 8356.36 1329.7 Q8356.36 1359.36 8370.68 1375.85 Q8385.01 1392.2 8410.9 1392.2 Q8422.48 1392.2 8433.76 1389.16 Q8445.19 1385.98 8456.48 1379.76 L8456.48 1404.35 Q8445.34 1409.56 8433.33 1412.17 Q8421.46 1414.77 8408.01 1414.77 Q8371.41 1414.77 8349.85 1391.77 Q8328.29 1368.76 8328.29 1329.7 Q8328.29 1290.06 8350 1267.35 Q8371.84 1244.63 8409.75 1244.63 Q8422.04 1244.63 8433.76 1247.24 Q8445.48 1249.7 8456.48 1254.76 Z" fill="#000000" fill-rule="evenodd" fill-opacity="1" /><path clip-path="url(#clip220)" d="M 0 0 M8484.4 1248.54 L8511.02 1248.54 L8511.02 1410.58 L8484.4 1410.58 L8484.4 1248.54 M8484.4 1185.46 L8511.02 1185.46 L8511.02 1219.17 L8484.4 1219.17 L8484.4 1185.46 Z" fill="#000000" fill-rule="evenodd" fill-opacity="1" /><path clip-path="url(#clip220)" d="M 0 0 M8601.73 1267.2 Q8580.32 1267.2 8567.88 1283.98 Q8555.43 1300.62 8555.43 1329.7 Q8555.43 1358.78 8567.73 1375.56 Q8580.17 1392.2 8601.73 1392.2 Q8623 1392.2 8635.44 1375.42 Q8647.88 1358.64 8647.88 1329.7 Q8647.88 1300.91 8635.44 1284.13 Q8623 1267.2 8601.73 1267.2 M8601.73 1244.63 Q8636.45 1244.63 8656.27 1267.2 Q8676.09 1289.77 8676.09 1329.7 Q8676.09 1369.49 8656.27 1392.2 Q8636.45 1414.77 8601.73 1414.77 Q8566.86 1414.77 8547.04 1392.2 Q8527.37 1369.49 8527.37 1329.7 Q8527.37 1289.77 8547.04 1267.2 Q8566.86 1244.63 8601.73 1244.63 M8621.84 1173.6 L8650.63 1173.6 L8603.47 1228 L8581.33 1228 L8621.84 1173.6 Z" fill="#000000" fill-rule="evenodd" fill-opacity="1" /><path clip-path="url(#clip220)" d="M 0 0 M8838.71 1312.78 L8838.71 1410.58 L8812.09 1410.58 L8812.09 1313.64 Q8812.09 1290.64 8803.12 1279.21 Q8794.15 1267.78 8776.21 1267.78 Q8754.65 1267.78 8742.21 1281.53 Q8729.77 1295.27 8729.77 1319 L8729.77 1410.58 L8703 1410.58 L8703 1248.54 L8729.77 1248.54 L8729.77 1273.71 Q8739.32 1259.1 8752.19 1251.87 Q8765.21 1244.63 8782.14 1244.63 Q8810.06 1244.63 8824.38 1261.99 Q8838.71 1279.21 8838.71 1312.78 Z" fill="#000000" fill-rule="evenodd" fill-opacity="1" /><path clip-path="url(#clip220)" d="M 0 0 M9099.41 1322.9 L9099.41 1335.92 L8977.02 1335.92 Q8978.75 1363.41 8993.51 1377.88 Q9008.41 1392.2 9034.89 1392.2 Q9050.22 1392.2 9064.55 1388.44 Q9079.01 1384.68 9093.19 1377.16 L9093.19 1402.33 Q9078.87 1408.41 9063.82 1411.59 Q9048.78 1414.77 9033.3 1414.77 Q8994.52 1414.77 8971.81 1392.2 Q8949.24 1369.63 8949.24 1331.15 Q8949.24 1291.36 8970.65 1268.07 Q8992.21 1244.63 9028.67 1244.63 Q9061.36 1244.63 9080.32 1265.76 Q9099.41 1286.73 9099.41 1322.9 M9072.79 1315.09 Q9072.5 1293.24 9060.49 1280.22 Q9048.63 1267.2 9028.96 1267.2 Q9006.68 1267.2 8993.22 1279.79 Q8979.91 1292.38 8977.89 1315.23 L9072.79 1315.09 Z" fill="#000000" fill-rule="evenodd" fill-opacity="1" /><path clip-path="url(#clip220)" d="M 0 0 M9256.82 1248.54 L9198.23 1327.39 L9259.86 1410.58 L9228.46 1410.58 L9181.3 1346.92 L9134.13 1410.58 L9102.74 1410.58 L9165.67 1325.8 L9108.09 1248.54 L9139.49 1248.54 L9182.46 1306.26 L9225.42 1248.54 L9256.82 1248.54 Z" fill="#000000" fill-rule="evenodd" fill-opacity="1" /><path clip-path="url(#clip220)" d="M 0 0 M9361.42 1329.12 Q9329.16 1329.12 9316.71 1336.5 Q9304.27 1343.88 9304.27 1361.68 Q9304.27 1375.85 9313.53 1384.24 Q9322.94 1392.49 9338.99 1392.49 Q9361.13 1392.49 9374.44 1376.87 Q9387.89 1361.1 9387.89 1335.05 L9387.89 1329.12 L9361.42 1329.12 M9414.51 1318.13 L9414.51 1410.58 L9387.89 1410.58 L9387.89 1385.98 Q9378.78 1400.74 9365.18 1407.83 Q9351.58 1414.77 9331.91 1414.77 Q9307.02 1414.77 9292.26 1400.88 Q9277.65 1386.85 9277.65 1363.41 Q9277.65 1336.07 9295.88 1322.18 Q9314.25 1308.29 9350.57 1308.29 L9387.89 1308.29 L9387.89 1305.69 Q9387.89 1287.31 9375.74 1277.33 Q9363.73 1267.2 9341.89 1267.2 Q9328 1267.2 9314.83 1270.53 Q9301.67 1273.86 9289.52 1280.51 L9289.52 1255.92 Q9304.13 1250.28 9317.87 1247.53 Q9331.62 1244.63 9344.64 1244.63 Q9379.79 1244.63 9397.15 1262.86 Q9414.51 1281.09 9414.51 1318.13 Z" fill="#000000" fill-rule="evenodd" fill-opacity="1" /><path clip-path="url(#clip220)" d="M 0 0 M9559.05 1254.76 L9559.05 1279.64 Q9547.76 1273.42 9536.33 1270.39 Q9525.05 1267.2 9513.47 1267.2 Q9487.58 1267.2 9473.25 1283.7 Q9458.93 1300.04 9458.93 1329.7 Q9458.93 1359.36 9473.25 1375.85 Q9487.58 1392.2 9513.47 1392.2 Q9525.05 1392.2 9536.33 1389.16 Q9547.76 1385.98 9559.05 1379.76 L9559.05 1404.35 Q9547.91 1409.56 9535.9 1412.17 Q9524.03 1414.77 9510.58 1414.77 Q9473.98 1414.77 9452.42 1391.77 Q9430.86 1368.76 9430.86 1329.7 Q9430.86 1290.06 9452.56 1267.35 Q9474.41 1244.63 9512.32 1244.63 Q9524.61 1244.63 9536.33 1247.24 Q9548.05 1249.7 9559.05 1254.76 Z" fill="#000000" fill-rule="evenodd" fill-opacity="1" /><path clip-path="url(#clip220)" d="M 0 0 M9613.3 1202.53 L9613.3 1248.54 L9668.13 1248.54 L9668.13 1269.23 L9613.3 1269.23 L9613.3 1357.19 Q9613.3 1377.01 9618.65 1382.65 Q9624.15 1388.3 9640.79 1388.3 L9668.13 1388.3 L9668.13 1410.58 L9640.79 1410.58 Q9609.97 1410.58 9598.25 1399.15 Q9586.53 1387.57 9586.53 1357.19 L9586.53 1269.23 L9567 1269.23 L9567 1248.54 L9586.53 1248.54 L9586.53 1202.53 L9613.3 1202.53 Z" fill="#000000" fill-rule="evenodd" fill-opacity="1" /><path clip-path="url(#clip220)" d="M 0 0 M9769.69 1329.12 Q9737.43 1329.12 9724.99 1336.5 Q9712.55 1343.88 9712.55 1361.68 Q9712.55 1375.85 9721.8 1384.24 Q9731.21 1392.49 9747.27 1392.49 Q9769.4 1392.49 9782.71 1376.87 Q9796.17 1361.1 9796.17 1335.05 L9796.17 1329.12 L9769.69 1329.12 M9822.79 1318.13 L9822.79 1410.58 L9796.17 1410.58 L9796.17 1385.98 Q9787.05 1400.74 9773.45 1407.83 Q9759.85 1414.77 9740.18 1414.77 Q9715.29 1414.77 9700.54 1400.88 Q9685.93 1386.85 9685.93 1363.41 Q9685.93 1336.07 9704.15 1322.18 Q9722.53 1308.29 9758.84 1308.29 L9796.17 1308.29 L9796.17 1305.69 Q9796.17 1287.31 9784.02 1277.33 Q9772.01 1267.2 9750.16 1267.2 Q9736.27 1267.2 9723.11 1270.53 Q9709.94 1273.86 9697.79 1280.51 L9697.79 1255.92 Q9712.4 1250.28 9726.15 1247.53 Q9739.89 1244.63 9752.91 1244.63 Q9788.07 1244.63 9805.43 1262.86 Q9822.79 1281.09 9822.79 1318.13 Z" fill="#000000" fill-rule="evenodd" fill-opacity="1" /></svg>
