<?xml version="1.0" encoding="utf-8"?>
<svg xmlns="http://www.w3.org/2000/svg" xmlns:xlink="http://www.w3.org/1999/xlink" width="2800" height="2000" viewBox="0 0 11200 8000">
<defs>
  <clipPath id="clip670">
    <rect x="0" y="0" width="11200" height="8000"/>
  </clipPath>
</defs>
<path clip-path="url(#clip670)" d="
M0 8000 L11200 8000 L11200 0 L0 0  Z
  " fill="#ffffff" fill-rule="evenodd" fill-opacity="1"/>
<defs>
  <clipPath id="clip671">
    <rect x="2240" y="0" width="7841" height="7841"/>
  </clipPath>
</defs>
<path clip-path="url(#clip670)" d="
M1384.96 7378.4 L11152.8 7378.4 L11152.8 294.421 L1384.96 294.421  Z
  " fill="#ffffff" fill-rule="evenodd" fill-opacity="1"/>
<defs>
  <clipPath id="clip672">
    <rect x="1384" y="294" width="9769" height="7085"/>
  </clipPath>
</defs>
<polyline clip-path="url(#clip672)" style="stroke:#000000; stroke-width:2; stroke-opacity:0.1; fill:none" points="
  1661.41,7378.4 1661.41,294.421 
  "/>
<polyline clip-path="url(#clip672)" style="stroke:#000000; stroke-width:2; stroke-opacity:0.1; fill:none" points="
  3965.14,7378.4 3965.14,294.421 
  "/>
<polyline clip-path="url(#clip672)" style="stroke:#000000; stroke-width:2; stroke-opacity:0.1; fill:none" points="
  6268.86,7378.4 6268.86,294.421 
  "/>
<polyline clip-path="url(#clip672)" style="stroke:#000000; stroke-width:2; stroke-opacity:0.1; fill:none" points="
  8572.58,7378.4 8572.58,294.421 
  "/>
<polyline clip-path="url(#clip672)" style="stroke:#000000; stroke-width:2; stroke-opacity:0.1; fill:none" points="
  10876.3,7378.4 10876.3,294.421 
  "/>
<polyline clip-path="url(#clip670)" style="stroke:#000000; stroke-width:4; stroke-opacity:1; fill:none" points="
  1384.96,7378.4 11152.8,7378.4 
  "/>
<polyline clip-path="url(#clip670)" style="stroke:#000000; stroke-width:4; stroke-opacity:1; fill:none" points="
  1661.41,7378.4 1661.41,7293.39 
  "/>
<polyline clip-path="url(#clip670)" style="stroke:#000000; stroke-width:4; stroke-opacity:1; fill:none" points="
  3965.14,7378.4 3965.14,7293.39 
  "/>
<polyline clip-path="url(#clip670)" style="stroke:#000000; stroke-width:4; stroke-opacity:1; fill:none" points="
  6268.86,7378.4 6268.86,7293.39 
  "/>
<polyline clip-path="url(#clip670)" style="stroke:#000000; stroke-width:4; stroke-opacity:1; fill:none" points="
  8572.58,7378.4 8572.58,7293.39 
  "/>
<polyline clip-path="url(#clip670)" style="stroke:#000000; stroke-width:4; stroke-opacity:1; fill:none" points="
  10876.3,7378.4 10876.3,7293.39 
  "/>
<path clip-path="url(#clip670)" d="M 0 0 M1661.41 7530.44 Q1638.84 7530.44 1627.41 7552.72 Q1616.13 7574.86 1616.13 7619.42 Q1616.13 7663.83 1627.41 7686.11 Q1638.84 7708.25 1661.41 7708.25 Q1684.12 7708.25 1695.41 7686.11 Q1706.84 7663.83 1706.84 7619.42 Q1706.84 7574.86 1695.41 7552.72 Q1684.12 7530.44 1661.41 7530.44 M1661.41 7507.3 Q1697.72 7507.3 1716.82 7536.09 Q1736.06 7564.73 1736.06 7619.42 Q1736.06 7673.96 1716.82 7702.75 Q1697.72 7731.4 1661.41 7731.4 Q1625.1 7731.4 1605.86 7702.75 Q1586.76 7673.96 1586.76 7619.42 Q1586.76 7564.73 1605.86 7536.09 Q1625.1 7507.3 1661.41 7507.3 Z" fill="#000000" fill-rule="evenodd" fill-opacity="1" /><path clip-path="url(#clip670)" d="M 0 0 M3850.41 7702.61 L3952.4 7702.61 L3952.4 7727.2 L3815.25 7727.2 L3815.25 7702.61 Q3831.89 7685.39 3860.54 7656.46 Q3889.33 7627.38 3896.7 7618.99 Q3910.74 7603.22 3916.24 7592.37 Q3921.88 7581.37 3921.88 7570.81 Q3921.88 7553.59 3909.72 7542.74 Q3897.72 7531.89 3878.33 7531.89 Q3864.59 7531.89 3849.25 7536.67 Q3834.06 7541.44 3816.7 7551.13 L3816.7 7521.62 Q3834.35 7514.53 3849.68 7510.91 Q3865.02 7507.3 3877.75 7507.3 Q3911.32 7507.3 3931.28 7524.08 Q3951.25 7540.86 3951.25 7568.93 Q3951.25 7582.24 3946.18 7594.25 Q3941.26 7606.11 3928.1 7622.31 Q3924.48 7626.51 3905.1 7646.62 Q3885.71 7666.58 3850.41 7702.61 Z" fill="#000000" fill-rule="evenodd" fill-opacity="1" /><path clip-path="url(#clip670)" d="M 0 0 M3984.38 7511.2 L4099.1 7511.2 L4099.1 7535.8 L4011.14 7535.8 L4011.14 7588.75 Q4017.51 7586.58 4023.87 7585.57 Q4030.24 7584.41 4036.6 7584.41 Q4072.77 7584.41 4093.9 7604.23 Q4115.02 7624.05 4115.02 7657.9 Q4115.02 7692.77 4093.32 7712.16 Q4071.62 7731.4 4032.12 7731.4 Q4018.52 7731.4 4004.34 7729.08 Q3990.31 7726.77 3975.26 7722.14 L3975.26 7692.77 Q3988.28 7699.86 4002.17 7703.33 Q4016.06 7706.8 4031.54 7706.8 Q4056.57 7706.8 4071.18 7693.64 Q4085.79 7680.47 4085.79 7657.9 Q4085.79 7635.33 4071.18 7622.17 Q4056.57 7609 4031.54 7609 Q4019.82 7609 4008.1 7611.61 Q3996.53 7614.21 3984.38 7619.71 L3984.38 7511.2 Z" fill="#000000" fill-rule="evenodd" fill-opacity="1" /><path clip-path="url(#clip670)" d="M 0 0 M6123.68 7511.2 L6238.41 7511.2 L6238.41 7535.8 L6150.44 7535.8 L6150.44 7588.75 Q6156.81 7586.58 6163.17 7585.57 Q6169.54 7584.41 6175.91 7584.41 Q6212.07 7584.41 6233.2 7604.23 Q6254.32 7624.05 6254.32 7657.9 Q6254.32 7692.77 6232.62 7712.16 Q6210.92 7731.4 6171.42 7731.4 Q6157.82 7731.4 6143.64 7729.08 Q6129.61 7726.77 6114.56 7722.14 L6114.56 7692.77 Q6127.58 7699.86 6141.47 7703.33 Q6155.36 7706.8 6170.84 7706.8 Q6195.87 7706.8 6210.48 7693.64 Q6225.1 7680.47 6225.1 7657.9 Q6225.1 7635.33 6210.48 7622.17 Q6195.87 7609 6170.84 7609 Q6159.12 7609 6147.41 7611.61 Q6135.83 7614.21 6123.68 7619.71 L6123.68 7511.2 Z" fill="#000000" fill-rule="evenodd" fill-opacity="1" /><path clip-path="url(#clip670)" d="M 0 0 M6348.5 7530.44 Q6325.93 7530.44 6314.5 7552.72 Q6303.22 7574.86 6303.22 7619.42 Q6303.22 7663.83 6314.5 7686.11 Q6325.93 7708.25 6348.5 7708.25 Q6371.22 7708.25 6382.5 7686.11 Q6393.93 7663.83 6393.93 7619.42 Q6393.93 7574.86 6382.5 7552.72 Q6371.22 7530.44 6348.5 7530.44 M6348.5 7507.3 Q6384.82 7507.3 6403.91 7536.09 Q6423.16 7564.73 6423.16 7619.42 Q6423.16 7673.96 6403.91 7702.75 Q6384.82 7731.4 6348.5 7731.4 Q6312.19 7731.4 6292.95 7702.75 Q6273.85 7673.96 6273.85 7619.42 Q6273.85 7564.73 6292.95 7536.09 Q6312.19 7507.3 6348.5 7507.3 Z" fill="#000000" fill-rule="evenodd" fill-opacity="1" /><path clip-path="url(#clip670)" d="M 0 0 M8421.83 7511.2 L8560.72 7511.2 L8560.72 7523.64 L8482.31 7727.2 L8451.78 7727.2 L8525.56 7535.8 L8421.83 7535.8 L8421.83 7511.2 Z" fill="#000000" fill-rule="evenodd" fill-opacity="1" /><path clip-path="url(#clip670)" d="M 0 0 M8592.69 7511.2 L8707.42 7511.2 L8707.42 7535.8 L8619.46 7535.8 L8619.46 7588.75 Q8625.82 7586.58 8632.19 7585.57 Q8638.56 7584.41 8644.92 7584.41 Q8681.09 7584.41 8702.21 7604.23 Q8723.34 7624.05 8723.34 7657.9 Q8723.34 7692.77 8701.63 7712.16 Q8679.93 7731.4 8640.44 7731.4 Q8626.84 7731.4 8612.66 7729.08 Q8598.63 7726.77 8583.58 7722.14 L8583.58 7692.77 Q8596.6 7699.86 8610.49 7703.33 Q8624.38 7706.8 8639.86 7706.8 Q8664.89 7706.8 8679.5 7693.64 Q8694.11 7680.47 8694.11 7657.9 Q8694.11 7635.33 8679.5 7622.17 Q8664.89 7609 8639.86 7609 Q8628.14 7609 8616.42 7611.61 Q8604.85 7614.21 8592.69 7619.71 L8592.69 7511.2 Z" fill="#000000" fill-rule="evenodd" fill-opacity="1" /><path clip-path="url(#clip670)" d="M 0 0 M10647.4 7702.61 L10695.1 7702.61 L10695.1 7537.82 L10643.2 7548.24 L10643.2 7521.62 L10694.8 7511.2 L10724 7511.2 L10724 7702.61 L10771.8 7702.61 L10771.8 7727.2 L10647.4 7727.2 L10647.4 7702.61 Z" fill="#000000" fill-rule="evenodd" fill-opacity="1" /><path clip-path="url(#clip670)" d="M 0 0 M10866 7530.44 Q10843.4 7530.44 10832 7552.72 Q10820.7 7574.86 10820.7 7619.42 Q10820.7 7663.83 10832 7686.11 Q10843.4 7708.25 10866 7708.25 Q10888.7 7708.25 10900 7686.11 Q10911.4 7663.83 10911.4 7619.42 Q10911.4 7574.86 10900 7552.72 Q10888.7 7530.44 10866 7530.44 M10866 7507.3 Q10902.3 7507.3 10921.4 7536.09 Q10940.6 7564.73 10940.6 7619.42 Q10940.6 7673.96 10921.4 7702.75 Q10902.3 7731.4 10866 7731.4 Q10829.7 7731.4 10810.4 7702.75 Q10791.3 7673.96 10791.3 7619.42 Q10791.3 7564.73 10810.4 7536.09 Q10829.7 7507.3 10866 7507.3 Z" fill="#000000" fill-rule="evenodd" fill-opacity="1" /><path clip-path="url(#clip670)" d="M 0 0 M11034.8 7530.44 Q11012.2 7530.44 11000.8 7552.72 Q10989.5 7574.86 10989.5 7619.42 Q10989.5 7663.83 11000.8 7686.11 Q11012.2 7708.25 11034.8 7708.25 Q11057.5 7708.25 11068.8 7686.11 Q11080.2 7663.83 11080.2 7619.42 Q11080.2 7574.86 11068.8 7552.72 Q11057.5 7530.44 11034.8 7530.44 M11034.8 7507.3 Q11071.1 7507.3 11090.2 7536.09 Q11109.5 7564.73 11109.5 7619.42 Q11109.5 7673.96 11090.2 7702.75 Q11071.1 7731.4 11034.8 7731.4 Q10998.5 7731.4 10979.2 7702.75 Q10960.1 7673.96 10960.1 7619.42 Q10960.1 7564.73 10979.2 7536.09 Q10998.5 7507.3 11034.8 7507.3 Z" fill="#000000" fill-rule="evenodd" fill-opacity="1" /><path clip-path="url(#clip670)" d="M 0 0 M4773.57 7857.6 L4812.92 7857.6 L4908.7 8038.3 L4908.7 7857.6 L4937.05 7857.6 L4937.05 8073.6 L4897.7 8073.6 L4801.93 7892.9 L4801.93 8073.6 L4773.57 8073.6 L4773.57 7857.6 Z" fill="#000000" fill-rule="evenodd" fill-opacity="1" /><path clip-path="url(#clip670)" d="M 0 0 M4962.23 8009.66 L4962.23 7911.57 L4988.85 7911.57 L4988.85 8008.64 Q4988.85 8031.65 4997.82 8043.22 Q5006.79 8054.65 5024.73 8054.65 Q5046.28 8054.65 5058.72 8040.91 Q5071.31 8027.16 5071.31 8003.44 L5071.31 7911.57 L5097.93 7911.57 L5097.93 8073.6 L5071.31 8073.6 L5071.31 8048.72 Q5061.62 8063.48 5048.74 8070.71 Q5036.01 8077.8 5019.08 8077.8 Q4991.16 8077.8 4976.69 8060.44 Q4962.23 8043.08 4962.23 8009.66 M5029.21 7907.66 L5029.21 7907.66 M5049.03 7836.62 L5077.82 7836.62 L5030.66 7891.02 L5008.52 7891.02 L5049.03 7836.62 Z" fill="#000000" fill-rule="evenodd" fill-opacity="1" /><path clip-path="url(#clip670)" d="M 0 0 M5252.01 7942.67 Q5261.99 7924.73 5275.88 7916.2 Q5289.77 7907.66 5308.58 7907.66 Q5333.9 7907.66 5347.64 7925.46 Q5361.38 7943.11 5361.38 7975.8 L5361.38 8073.6 L5334.62 8073.6 L5334.62 7976.67 Q5334.62 7953.38 5326.37 7942.09 Q5318.13 7930.81 5301.2 7930.81 Q5280.51 7930.81 5268.5 7944.55 Q5256.5 7958.3 5256.5 7982.02 L5256.5 8073.6 L5229.73 8073.6 L5229.73 7976.67 Q5229.73 7953.23 5221.48 7942.09 Q5213.24 7930.81 5196.02 7930.81 Q5175.62 7930.81 5163.61 7944.7 Q5151.61 7958.44 5151.61 7982.02 L5151.61 8073.6 L5124.84 8073.6 L5124.84 7911.57 L5151.61 7911.57 L5151.61 7936.74 Q5160.72 7921.84 5173.45 7914.75 Q5186.18 7907.66 5203.69 7907.66 Q5221.34 7907.66 5233.64 7916.63 Q5246.08 7925.6 5252.01 7942.67 Z" fill="#000000" fill-rule="evenodd" fill-opacity="1" /><path clip-path="url(#clip670)" d="M 0 0 M5527.91 7985.93 L5527.91 7998.95 L5405.51 7998.95 Q5407.25 8026.44 5422 8040.91 Q5436.91 8055.23 5463.38 8055.23 Q5478.72 8055.23 5493.04 8051.47 Q5507.51 8047.71 5521.69 8040.18 L5521.69 8065.36 Q5507.36 8071.43 5492.32 8074.62 Q5477.27 8077.8 5461.79 8077.8 Q5423.02 8077.8 5400.3 8055.23 Q5377.73 8032.66 5377.73 7994.18 Q5377.73 7954.39 5399.15 7931.1 Q5420.7 7907.66 5457.16 7907.66 Q5489.86 7907.66 5508.81 7928.78 Q5527.91 7949.76 5527.91 7985.93 M5501.29 7978.12 Q5501 7956.27 5488.99 7943.25 Q5477.13 7930.23 5457.45 7930.23 Q5435.17 7930.23 5421.71 7942.82 Q5408.4 7955.4 5406.38 7978.26 L5501.29 7978.12 Z" fill="#000000" fill-rule="evenodd" fill-opacity="1" /><path clip-path="url(#clip670)" d="M 0 0 M5649.72 7936.45 Q5645.24 7933.85 5639.88 7932.69 Q5634.68 7931.39 5628.31 7931.39 Q5605.74 7931.39 5593.59 7946.14 Q5581.58 7960.76 5581.58 7988.24 L5581.58 8073.6 L5554.82 8073.6 L5554.82 7911.57 L5581.58 7911.57 L5581.58 7936.74 Q5589.97 7921.98 5603.43 7914.89 Q5616.88 7907.66 5636.12 7907.66 Q5638.87 7907.66 5642.2 7908.09 Q5645.53 7908.38 5649.58 7909.11 L5649.72 7936.45 Z" fill="#000000" fill-rule="evenodd" fill-opacity="1" /><path clip-path="url(#clip670)" d="M 0 0 M5733.92 7930.23 Q5712.51 7930.23 5700.07 7947.01 Q5687.63 7963.65 5687.63 7992.73 Q5687.63 8021.81 5699.92 8038.59 Q5712.37 8055.23 5733.92 8055.23 Q5755.19 8055.23 5767.63 8038.45 Q5780.07 8021.66 5780.07 7992.73 Q5780.07 7963.94 5767.63 7947.16 Q5755.19 7930.23 5733.92 7930.23 M5733.92 7907.66 Q5768.65 7907.66 5788.47 7930.23 Q5808.29 7952.8 5808.29 7992.73 Q5808.29 8032.51 5788.47 8055.23 Q5768.65 8077.8 5733.92 8077.8 Q5699.06 8077.8 5679.24 8055.23 Q5659.56 8032.51 5659.56 7992.73 Q5659.56 7952.8 5679.24 7930.23 Q5699.06 7907.66 5733.92 7907.66 Z" fill="#000000" fill-rule="evenodd" fill-opacity="1" /><path clip-path="url(#clip670)" d="M 0 0 M6037.02 7936.16 L6037.02 7848.49 L6063.64 7848.49 L6063.64 8073.6 L6037.02 8073.6 L6037.02 8049.3 Q6028.63 8063.76 6015.75 8070.85 Q6003.02 8077.8 5985.08 8077.8 Q5955.71 8077.8 5937.19 8054.36 Q5918.82 8030.92 5918.82 7992.73 Q5918.82 7954.54 5937.19 7931.1 Q5955.71 7907.66 5985.08 7907.66 Q6003.02 7907.66 6015.75 7914.75 Q6028.63 7921.69 6037.02 7936.16 M5946.31 7992.73 Q5946.31 8022.1 5958.31 8038.88 Q5970.47 8055.52 5991.59 8055.52 Q6012.71 8055.52 6024.87 8038.88 Q6037.02 8022.1 6037.02 7992.73 Q6037.02 7963.36 6024.87 7946.72 Q6012.71 7929.94 5991.59 7929.94 Q5970.47 7929.94 5958.31 7946.72 Q5946.31 7963.36 5946.31 7992.73 Z" fill="#000000" fill-rule="evenodd" fill-opacity="1" /><path clip-path="url(#clip670)" d="M 0 0 M6230.16 7985.93 L6230.16 7998.95 L6107.76 7998.95 Q6109.5 8026.44 6124.26 8040.91 Q6139.16 8055.23 6165.63 8055.23 Q6180.97 8055.23 6195.29 8051.47 Q6209.76 8047.71 6223.94 8040.18 L6223.94 8065.36 Q6209.62 8071.43 6194.57 8074.62 Q6179.52 8077.8 6164.04 8077.8 Q6125.27 8077.8 6102.56 8055.23 Q6079.99 8032.66 6079.99 7994.18 Q6079.99 7954.39 6101.4 7931.1 Q6122.95 7907.66 6159.41 7907.66 Q6192.11 7907.66 6211.06 7928.78 Q6230.16 7949.76 6230.16 7985.93 M6203.54 7978.12 Q6203.25 7956.27 6191.24 7943.25 Q6179.38 7930.23 6159.7 7930.23 Q6137.42 7930.23 6123.97 7942.82 Q6110.66 7955.4 6108.63 7978.26 L6203.54 7978.12 Z" fill="#000000" fill-rule="evenodd" fill-opacity="1" /><path clip-path="url(#clip670)" d="M 0 0 M6352.27 7911.57 L6378.89 7911.57 L6378.89 8073.6 L6352.27 8073.6 L6352.27 7911.57 M6352.27 7848.49 L6378.89 7848.49 L6378.89 7882.2 L6352.27 7882.2 L6352.27 7848.49 Z" fill="#000000" fill-rule="evenodd" fill-opacity="1" /><path clip-path="url(#clip670)" d="M 0 0 M6433.14 7865.56 L6433.14 7911.57 L6487.97 7911.57 L6487.97 7932.26 L6433.14 7932.26 L6433.14 8020.22 Q6433.14 8040.04 6438.49 8045.68 Q6443.99 8051.32 6460.63 8051.32 L6487.97 8051.32 L6487.97 8073.6 L6460.63 8073.6 Q6429.81 8073.6 6418.09 8062.17 Q6406.37 8050.6 6406.37 8020.22 L6406.37 7932.26 L6386.84 7932.26 L6386.84 7911.57 L6406.37 7911.57 L6406.37 7865.56 L6433.14 7865.56 Z" fill="#000000" fill-rule="evenodd" fill-opacity="1" /><path clip-path="url(#clip670)" d="M 0 0 M6654.49 7985.93 L6654.49 7998.95 L6532.1 7998.95 Q6533.83 8026.44 6548.59 8040.91 Q6563.49 8055.23 6589.97 8055.23 Q6605.3 8055.23 6619.62 8051.47 Q6634.09 8047.71 6648.27 8040.18 L6648.27 8065.36 Q6633.95 8071.43 6618.9 8074.62 Q6603.86 8077.8 6588.37 8077.8 Q6549.6 8077.8 6526.89 8055.23 Q6504.32 8032.66 6504.32 7994.18 Q6504.32 7954.39 6525.73 7931.1 Q6547.29 7907.66 6583.75 7907.66 Q6616.44 7907.66 6635.39 7928.78 Q6654.49 7949.76 6654.49 7985.93 M6627.87 7978.12 Q6627.58 7956.27 6615.57 7943.25 Q6603.71 7930.23 6584.03 7930.23 Q6561.75 7930.23 6548.3 7942.82 Q6534.99 7955.4 6532.96 7978.26 L6627.87 7978.12 Z" fill="#000000" fill-rule="evenodd" fill-opacity="1" /><path clip-path="url(#clip670)" d="M 0 0 M6776.31 7936.45 Q6771.82 7933.85 6766.47 7932.69 Q6761.26 7931.39 6754.9 7931.39 Q6732.33 7931.39 6720.17 7946.14 Q6708.17 7960.76 6708.17 7988.24 L6708.17 8073.6 L6681.4 8073.6 L6681.4 7911.57 L6708.17 7911.57 L6708.17 7936.74 Q6716.56 7921.98 6730.01 7914.89 Q6743.47 7907.66 6762.71 7907.66 Q6765.46 7907.66 6768.78 7908.09 Q6772.11 7908.38 6776.16 7909.11 L6776.31 7936.45 Z" fill="#000000" fill-rule="evenodd" fill-opacity="1" /><path clip-path="url(#clip670)" d="M 0 0 M6877.87 7992.15 Q6845.61 7992.15 6833.17 7999.53 Q6820.72 8006.91 6820.72 8024.7 Q6820.72 8038.88 6829.98 8047.27 Q6839.39 8055.52 6855.45 8055.52 Q6877.58 8055.52 6890.89 8039.89 Q6904.35 8024.12 6904.35 7998.08 L6904.35 7992.15 L6877.87 7992.15 M6930.97 7981.16 L6930.97 8073.6 L6904.35 8073.6 L6904.35 8049.01 Q6895.23 8063.76 6881.63 8070.85 Q6868.03 8077.8 6848.36 8077.8 Q6823.47 8077.8 6808.72 8063.91 Q6794.1 8049.88 6794.1 8026.44 Q6794.1 7999.09 6812.33 7985.21 Q6830.71 7971.32 6867.02 7971.32 L6904.35 7971.32 L6904.35 7968.71 Q6904.35 7950.34 6892.19 7940.36 Q6880.18 7930.23 6858.34 7930.23 Q6844.45 7930.23 6831.28 7933.56 Q6818.12 7936.88 6805.97 7943.54 L6805.97 7918.94 Q6820.58 7913.3 6834.32 7910.55 Q6848.07 7907.66 6861.09 7907.66 Q6896.24 7907.66 6913.6 7925.89 Q6930.97 7944.12 6930.97 7981.16 Z" fill="#000000" fill-rule="evenodd" fill-opacity="1" /><path clip-path="url(#clip670)" d="M 0 0 M7075.5 7917.79 L7075.5 7942.67 Q7064.21 7936.45 7052.78 7933.41 Q7041.5 7930.23 7029.92 7930.23 Q7004.03 7930.23 6989.7 7946.72 Q6975.38 7963.07 6975.38 7992.73 Q6975.38 8022.39 6989.7 8038.88 Q7004.03 8055.23 7029.92 8055.23 Q7041.5 8055.23 7052.78 8052.19 Q7064.21 8049.01 7075.5 8042.79 L7075.5 8067.38 Q7064.36 8072.59 7052.35 8075.19 Q7040.48 8077.8 7027.03 8077.8 Q6990.43 8077.8 6968.87 8054.79 Q6947.31 8031.79 6947.31 7992.73 Q6947.31 7953.09 6969.02 7930.37 Q6990.86 7907.66 7028.77 7907.66 Q7041.06 7907.66 7052.78 7910.26 Q7064.5 7912.72 7075.5 7917.79 Z" fill="#000000" fill-rule="evenodd" fill-opacity="1" /><path clip-path="url(#clip670)" d="M 0 0 M7103.42 7911.57 L7130.04 7911.57 L7130.04 8073.6 L7103.42 8073.6 L7103.42 7911.57 M7103.42 7848.49 L7130.04 7848.49 L7130.04 7882.2 L7103.42 7882.2 L7103.42 7848.49 Z" fill="#000000" fill-rule="evenodd" fill-opacity="1" /><path clip-path="url(#clip670)" d="M 0 0 M7220.75 7930.23 Q7199.34 7930.23 7186.9 7947.01 Q7174.45 7963.65 7174.45 7992.73 Q7174.45 8021.81 7186.75 8038.59 Q7199.19 8055.23 7220.75 8055.23 Q7242.02 8055.23 7254.46 8038.45 Q7266.9 8021.66 7266.9 7992.73 Q7266.9 7963.94 7254.46 7947.16 Q7242.02 7930.23 7220.75 7930.23 M7220.75 7907.66 Q7255.47 7907.66 7275.29 7930.23 Q7295.11 7952.8 7295.11 7992.73 Q7295.11 8032.51 7275.29 8055.23 Q7255.47 8077.8 7220.75 8077.8 Q7185.88 8077.8 7166.06 8055.23 Q7146.39 8032.51 7146.39 7992.73 Q7146.39 7952.8 7166.06 7930.23 Q7185.88 7907.66 7220.75 7907.66 Z" fill="#000000" fill-rule="evenodd" fill-opacity="1" /><path clip-path="url(#clip670)" d="M 0 0 M7457.73 7975.8 L7457.73 8073.6 L7431.11 8073.6 L7431.11 7976.67 Q7431.11 7953.67 7422.14 7942.24 Q7413.17 7930.81 7395.23 7930.81 Q7373.67 7930.81 7361.23 7944.55 Q7348.79 7958.3 7348.79 7982.02 L7348.79 8073.6 L7322.02 8073.6 L7322.02 7911.57 L7348.79 7911.57 L7348.79 7936.74 Q7358.34 7922.13 7371.21 7914.89 Q7384.23 7907.66 7401.16 7907.66 Q7429.08 7907.66 7443.41 7925.02 Q7457.73 7942.24 7457.73 7975.8 Z" fill="#000000" fill-rule="evenodd" fill-opacity="1" /><path clip-path="url(#clip670)" d="M 0 0 M7624.25 7985.93 L7624.25 7998.95 L7501.85 7998.95 Q7503.59 8026.44 7518.35 8040.91 Q7533.25 8055.23 7559.72 8055.23 Q7575.06 8055.23 7589.38 8051.47 Q7603.85 8047.71 7618.03 8040.18 L7618.03 8065.36 Q7603.71 8071.43 7588.66 8074.62 Q7573.61 8077.8 7558.13 8077.8 Q7519.36 8077.8 7496.65 8055.23 Q7474.08 8032.66 7474.08 7994.18 Q7474.08 7954.39 7495.49 7931.1 Q7517.04 7907.66 7553.5 7907.66 Q7586.2 7907.66 7605.15 7928.78 Q7624.25 7949.76 7624.25 7985.93 M7597.63 7978.12 Q7597.34 7956.27 7585.33 7943.25 Q7573.47 7930.23 7553.79 7930.23 Q7531.51 7930.23 7518.06 7942.82 Q7504.75 7955.4 7502.72 7978.26 L7597.63 7978.12 Z" fill="#000000" fill-rule="evenodd" fill-opacity="1" /><path clip-path="url(#clip670)" d="M 0 0 M7755.47 7916.34 L7755.47 7941.51 Q7744.18 7935.73 7732.03 7932.83 Q7719.88 7929.94 7706.86 7929.94 Q7687.04 7929.94 7677.06 7936.02 Q7667.22 7942.09 7667.22 7954.25 Q7667.22 7963.5 7674.31 7968.86 Q7681.4 7974.07 7702.81 7978.84 L7711.92 7980.87 Q7740.28 7986.94 7752.14 7998.08 Q7764.15 8009.08 7764.15 8028.9 Q7764.15 8051.47 7746.21 8064.63 Q7728.42 8077.8 7697.17 8077.8 Q7684.14 8077.8 7669.97 8075.19 Q7655.93 8072.73 7640.31 8067.67 L7640.31 8040.18 Q7655.06 8047.85 7669.39 8051.76 Q7683.71 8055.52 7697.74 8055.52 Q7716.55 8055.52 7726.68 8049.15 Q7736.81 8042.64 7736.81 8030.92 Q7736.81 8020.07 7729.43 8014.29 Q7722.19 8008.5 7697.45 8003.15 L7688.2 8000.98 Q7663.46 7995.77 7652.46 7985.06 Q7641.47 7974.21 7641.47 7955.4 Q7641.47 7932.54 7657.67 7920.1 Q7673.87 7907.66 7703.68 7907.66 Q7718.43 7907.66 7731.45 7909.83 Q7744.47 7912 7755.47 7916.34 Z" fill="#000000" fill-rule="evenodd" fill-opacity="1" /><polyline clip-path="url(#clip672)" style="stroke:#000000; stroke-width:2; stroke-opacity:0.1; fill:none" points="
  1384.96,7175.5 11152.8,7175.5 
  "/>
<polyline clip-path="url(#clip672)" style="stroke:#000000; stroke-width:2; stroke-opacity:0.1; fill:none" points="
  1384.96,5032.44 11152.8,5032.44 
  "/>
<polyline clip-path="url(#clip672)" style="stroke:#000000; stroke-width:2; stroke-opacity:0.1; fill:none" points="
  1384.96,2889.38 11152.8,2889.38 
  "/>
<polyline clip-path="url(#clip672)" style="stroke:#000000; stroke-width:2; stroke-opacity:0.1; fill:none" points="
  1384.96,746.321 11152.8,746.321 
  "/>
<polyline clip-path="url(#clip670)" style="stroke:#000000; stroke-width:4; stroke-opacity:1; fill:none" points="
  1384.96,7378.4 1384.96,294.421 
  "/>
<polyline clip-path="url(#clip670)" style="stroke:#000000; stroke-width:4; stroke-opacity:1; fill:none" points="
  1384.96,7175.5 1502.18,7175.5 
  "/>
<polyline clip-path="url(#clip670)" style="stroke:#000000; stroke-width:4; stroke-opacity:1; fill:none" points="
  1384.96,5032.44 1502.18,5032.44 
  "/>
<polyline clip-path="url(#clip670)" style="stroke:#000000; stroke-width:4; stroke-opacity:1; fill:none" points="
  1384.96,2889.38 1502.18,2889.38 
  "/>
<polyline clip-path="url(#clip670)" style="stroke:#000000; stroke-width:4; stroke-opacity:1; fill:none" points="
  1384.96,746.321 1502.18,746.321 
  "/>
<path clip-path="url(#clip670)" d="M 0 0 M1142.31 7086.74 Q1119.74 7086.74 1108.31 7109.02 Q1097.03 7131.15 1097.03 7175.71 Q1097.03 7220.13 1108.31 7242.41 Q1119.74 7264.54 1142.31 7264.54 Q1165.03 7264.54 1176.31 7242.41 Q1187.74 7220.13 1187.74 7175.71 Q1187.74 7131.15 1176.31 7109.02 Q1165.03 7086.74 1142.31 7086.74 M1142.31 7063.59 Q1178.62 7063.59 1197.72 7092.38 Q1216.96 7121.02 1216.96 7175.71 Q1216.96 7230.25 1197.72 7259.04 Q1178.62 7287.69 1142.31 7287.69 Q1106 7287.69 1086.76 7259.04 Q1067.66 7230.25 1067.66 7175.71 Q1067.66 7121.02 1086.76 7092.38 Q1106 7063.59 1142.31 7063.59 Z" fill="#000000" fill-rule="evenodd" fill-opacity="1" /><path clip-path="url(#clip670)" d="M 0 0 M271.964 5156.14 L319.707 5156.14 L319.707 4991.35 L267.768 5001.77 L267.768 4975.15 L319.417 4964.73 L348.642 4964.73 L348.642 5156.14 L396.384 5156.14 L396.384 5180.73 L271.964 5180.73 L271.964 5156.14 Z" fill="#000000" fill-rule="evenodd" fill-opacity="1" /><path clip-path="url(#clip670)" d="M 0 0 M604.138 5021.59 L538.021 5088 L604.138 5154.11 L586.922 5171.62 L520.516 5105.21 L454.11 5171.62 L437.038 5154.11 L503.01 5088 L437.038 5021.59 L454.11 5004.09 L520.516 5070.49 L586.922 5004.09 L604.138 5021.59 Z" fill="#000000" fill-rule="evenodd" fill-opacity="1" /><path clip-path="url(#clip670)" d="M 0 0 M640.885 5156.14 L688.628 5156.14 L688.628 4991.35 L636.69 5001.77 L636.69 4975.15 L688.339 4964.73 L717.563 4964.73 L717.563 5156.14 L765.306 5156.14 L765.306 5180.73 L640.885 5180.73 L640.885 5156.14 Z" fill="#000000" fill-rule="evenodd" fill-opacity="1" /><path clip-path="url(#clip670)" d="M 0 0 M859.49 4983.98 Q836.92 4983.98 825.491 5006.26 Q814.206 5028.39 814.206 5072.95 Q814.206 5117.37 825.491 5139.65 Q836.92 5161.78 859.49 5161.78 Q882.204 5161.78 893.488 5139.65 Q904.918 5117.37 904.918 5072.95 Q904.918 5028.39 893.488 5006.26 Q882.204 4983.98 859.49 4983.98 M859.49 4960.83 Q895.803 4960.83 914.9 4989.62 Q934.142 5018.26 934.142 5072.95 Q934.142 5127.49 914.9 5156.28 Q895.803 5184.93 859.49 5184.93 Q823.176 5184.93 803.934 5156.28 Q784.837 5127.49 784.837 5072.95 Q784.837 5018.26 803.934 4989.62 Q823.176 4960.83 859.49 4960.83 Z" fill="#000000" fill-rule="evenodd" fill-opacity="1" /><path clip-path="url(#clip670)" d="M 0 0 M934.142 4923.96 L1084.84 4923.96 L1084.84 4943.94 L934.142 4943.94 L934.142 4923.96 Z" fill="#000000" fill-rule="evenodd" fill-opacity="1" /><path clip-path="url(#clip670)" d="M 0 0 M1110.82 4833.92 L1204.03 4833.92 L1204.03 4853.9 L1132.56 4853.9 L1132.56 4896.93 Q1137.74 4895.16 1142.91 4894.34 Q1148.08 4893.4 1153.25 4893.4 Q1182.64 4893.4 1199.8 4909.5 Q1216.96 4925.61 1216.96 4953.11 Q1216.96 4981.44 1199.33 4997.19 Q1181.7 5012.83 1149.61 5012.83 Q1138.56 5012.83 1127.04 5010.95 Q1115.64 5009.07 1103.41 5005.31 L1103.41 4981.44 Q1113.99 4987.2 1125.28 4990.02 Q1136.56 4992.85 1149.14 4992.85 Q1169.47 4992.85 1181.35 4982.15 Q1193.22 4971.45 1193.22 4953.11 Q1193.22 4934.78 1181.35 4924.08 Q1169.47 4913.38 1149.14 4913.38 Q1139.62 4913.38 1130.1 4915.5 Q1120.69 4917.61 1110.82 4922.08 L1110.82 4833.92 Z" fill="#000000" fill-rule="evenodd" fill-opacity="1" /><path clip-path="url(#clip670)" d="M 0 0 M294.388 3013.08 L396.384 3013.08 L396.384 3037.68 L259.232 3037.68 L259.232 3013.08 Q275.87 2995.87 304.516 2966.93 Q333.306 2937.85 340.684 2929.46 Q354.718 2913.69 360.216 2902.84 Q365.858 2891.84 365.858 2881.28 Q365.858 2864.07 353.705 2853.22 Q341.697 2842.36 322.311 2842.36 Q308.567 2842.36 293.231 2847.14 Q278.04 2851.91 260.679 2861.61 L260.679 2832.09 Q278.329 2825 293.665 2821.39 Q309.001 2817.77 321.732 2817.77 Q355.297 2817.77 375.262 2834.55 Q395.227 2851.33 395.227 2879.4 Q395.227 2892.71 390.163 2904.72 Q385.244 2916.58 372.079 2932.79 Q368.462 2936.98 349.076 2957.09 Q329.689 2977.06 294.388 3013.08 Z" fill="#000000" fill-rule="evenodd" fill-opacity="1" /><path clip-path="url(#clip670)" d="M 0 0 M604.138 2878.53 L538.021 2944.94 L604.138 3011.06 L586.922 3028.56 L520.516 2962.16 L454.11 3028.56 L437.038 3011.06 L503.01 2944.94 L437.038 2878.53 L454.11 2861.03 L520.516 2927.43 L586.922 2861.03 L604.138 2878.53 Z" fill="#000000" fill-rule="evenodd" fill-opacity="1" /><path clip-path="url(#clip670)" d="M 0 0 M640.885 3013.08 L688.628 3013.08 L688.628 2848.3 L636.69 2858.71 L636.69 2832.09 L688.339 2821.68 L717.563 2821.68 L717.563 3013.08 L765.306 3013.08 L765.306 3037.68 L640.885 3037.68 L640.885 3013.08 Z" fill="#000000" fill-rule="evenodd" fill-opacity="1" /><path clip-path="url(#clip670)" d="M 0 0 M859.49 2840.92 Q836.92 2840.92 825.491 2863.2 Q814.206 2885.33 814.206 2929.89 Q814.206 2974.31 825.491 2996.59 Q836.92 3018.72 859.49 3018.72 Q882.204 3018.72 893.488 2996.59 Q904.918 2974.31 904.918 2929.89 Q904.918 2885.33 893.488 2863.2 Q882.204 2840.92 859.49 2840.92 M859.49 2817.77 Q895.803 2817.77 914.9 2846.56 Q934.142 2875.21 934.142 2929.89 Q934.142 2984.44 914.9 3013.23 Q895.803 3041.87 859.49 3041.87 Q823.176 3041.87 803.934 3013.23 Q784.837 2984.44 784.837 2929.89 Q784.837 2875.21 803.934 2846.56 Q823.176 2817.77 859.49 2817.77 Z" fill="#000000" fill-rule="evenodd" fill-opacity="1" /><path clip-path="url(#clip670)" d="M 0 0 M934.142 2780.9 L1084.84 2780.9 L1084.84 2800.89 L934.142 2800.89 L934.142 2780.9 Z" fill="#000000" fill-rule="evenodd" fill-opacity="1" /><path clip-path="url(#clip670)" d="M 0 0 M1110.82 2690.86 L1204.03 2690.86 L1204.03 2710.84 L1132.56 2710.84 L1132.56 2753.87 Q1137.74 2752.1 1142.91 2751.28 Q1148.08 2750.34 1153.25 2750.34 Q1182.64 2750.34 1199.8 2766.45 Q1216.96 2782.55 1216.96 2810.06 Q1216.96 2838.38 1199.33 2854.14 Q1181.7 2869.77 1149.61 2869.77 Q1138.56 2869.77 1127.04 2867.89 Q1115.64 2866.01 1103.41 2862.25 L1103.41 2838.38 Q1113.99 2844.14 1125.28 2846.97 Q1136.56 2849.79 1149.14 2849.79 Q1169.47 2849.79 1181.35 2839.09 Q1193.22 2828.39 1193.22 2810.06 Q1193.22 2791.72 1181.35 2781.02 Q1169.47 2770.32 1149.14 2770.32 Q1139.62 2770.32 1130.1 2772.44 Q1120.69 2774.56 1110.82 2779.02 L1110.82 2690.86 Z" fill="#000000" fill-rule="evenodd" fill-opacity="1" /><path clip-path="url(#clip670)" d="M 0 0 M351.824 778.155 Q372.802 782.64 384.521 796.818 Q396.384 810.996 396.384 831.829 Q396.384 863.802 374.394 881.308 Q352.403 898.814 311.894 898.814 Q298.295 898.814 283.827 896.065 Q269.504 893.461 254.169 888.108 L254.169 859.896 Q266.321 866.985 280.789 870.602 Q295.256 874.219 311.026 874.219 Q338.514 874.219 352.837 863.368 Q367.305 852.518 367.305 831.829 Q367.305 812.732 353.85 802.026 Q340.54 791.175 316.668 791.175 L291.495 791.175 L291.495 767.159 L317.826 767.159 Q339.382 767.159 350.812 758.624 Q362.241 749.943 362.241 733.739 Q362.241 717.102 350.378 708.277 Q338.659 699.307 316.668 699.307 Q304.66 699.307 290.916 701.911 Q277.172 704.515 260.679 710.013 L260.679 683.971 Q277.317 679.342 291.784 677.027 Q306.396 674.712 319.273 674.712 Q352.548 674.712 371.934 689.903 Q391.321 704.949 391.321 730.701 Q391.321 748.641 381.049 761.083 Q370.777 773.38 351.824 778.155 Z" fill="#000000" fill-rule="evenodd" fill-opacity="1" /><path clip-path="url(#clip670)" d="M 0 0 M604.138 735.476 L538.021 801.881 L604.138 867.998 L586.922 885.504 L520.516 819.098 L454.11 885.504 L437.038 867.998 L503.01 801.881 L437.038 735.476 L454.11 717.97 L520.516 784.376 L586.922 717.97 L604.138 735.476 Z" fill="#000000" fill-rule="evenodd" fill-opacity="1" /><path clip-path="url(#clip670)" d="M 0 0 M640.885 870.023 L688.628 870.023 L688.628 705.238 L636.69 715.655 L636.69 689.035 L688.339 678.618 L717.563 678.618 L717.563 870.023 L765.306 870.023 L765.306 894.618 L640.885 894.618 L640.885 870.023 Z" fill="#000000" fill-rule="evenodd" fill-opacity="1" /><path clip-path="url(#clip670)" d="M 0 0 M859.49 697.86 Q836.92 697.86 825.491 720.14 Q814.206 742.275 814.206 786.835 Q814.206 831.251 825.491 853.53 Q836.92 875.666 859.49 875.666 Q882.204 875.666 893.488 853.53 Q904.918 831.251 904.918 786.835 Q904.918 742.275 893.488 720.14 Q882.204 697.86 859.49 697.86 M859.49 674.712 Q895.803 674.712 914.9 703.502 Q934.142 732.148 934.142 786.835 Q934.142 841.378 914.9 870.168 Q895.803 898.814 859.49 898.814 Q823.176 898.814 803.934 870.168 Q784.837 841.378 784.837 786.835 Q784.837 732.148 803.934 703.502 Q823.176 674.712 859.49 674.712 Z" fill="#000000" fill-rule="evenodd" fill-opacity="1" /><path clip-path="url(#clip670)" d="M 0 0 M934.142 637.845 L1084.84 637.845 L1084.84 657.829 L934.142 657.829 L934.142 637.845 Z" fill="#000000" fill-rule="evenodd" fill-opacity="1" /><path clip-path="url(#clip670)" d="M 0 0 M1110.82 547.803 L1204.03 547.803 L1204.03 567.786 L1132.56 567.786 L1132.56 610.809 Q1137.74 609.046 1142.91 608.223 Q1148.08 607.283 1153.25 607.283 Q1182.64 607.283 1199.8 623.387 Q1216.96 639.491 1216.96 666.997 Q1216.96 695.327 1199.33 711.078 Q1181.7 726.712 1149.61 726.712 Q1138.56 726.712 1127.04 724.831 Q1115.64 722.951 1103.41 719.189 L1103.41 695.327 Q1113.99 701.087 1125.28 703.908 Q1136.56 706.729 1149.14 706.729 Q1169.47 706.729 1181.35 696.032 Q1193.22 685.335 1193.22 666.997 Q1193.22 648.66 1181.35 637.963 Q1169.47 627.266 1149.14 627.266 Q1139.62 627.266 1130.1 629.382 Q1120.69 631.498 1110.82 635.965 L1110.82 547.803 Z" fill="#000000" fill-rule="evenodd" fill-opacity="1" /><path clip-path="url(#clip670)" d="M 0 0 M-65.9936 4921.98 L-35.1778 4921.98 Q-48.922 4936.74 -55.7217 4953.52 Q-62.5214 4970.16 -62.5214 4988.97 Q-62.5214 5026 -39.8074 5045.68 Q-17.2381 5065.35 25.5857 5065.35 Q68.2649 5065.35 90.9789 5045.68 Q113.548 5026 113.548 4988.97 Q113.548 4970.16 106.749 4953.52 Q99.9488 4936.74 86.2046 4921.98 L116.731 4921.98 Q127.148 4937.32 132.356 4954.53 Q137.564 4971.61 137.564 4990.7 Q137.564 5039.75 107.617 5067.96 Q77.5241 5096.17 25.5857 5096.17 Q-26.4973 5096.17 -56.4451 5067.96 Q-86.5375 5039.75 -86.5375 4990.7 Q-86.5375 4971.32 -81.3292 4954.24 Q-76.2656 4937.03 -65.9936 4921.98 Z" fill="#000000" fill-rule="evenodd" fill-opacity="1" /><path clip-path="url(#clip670)" d="M 0 0 M51.9166 4820.42 Q51.9166 4852.68 59.2951 4865.12 Q66.6735 4877.57 84.4685 4877.57 Q98.6467 4877.57 107.038 4868.31 Q115.284 4858.9 115.284 4842.84 Q115.284 4820.71 99.6594 4807.4 Q83.8898 4793.94 57.8483 4793.94 L51.9166 4793.94 L51.9166 4820.42 M40.9213 4767.32 L133.369 4767.32 L133.369 4793.94 L108.774 4793.94 Q123.531 4803.06 130.62 4816.66 Q137.564 4830.26 137.564 4849.93 Q137.564 4874.82 123.675 4889.57 Q109.642 4904.19 86.2046 4904.19 Q58.861 4904.19 44.9722 4885.96 Q31.0834 4867.58 31.0834 4831.27 L31.0834 4793.94 L28.4792 4793.94 Q10.1055 4793.94 0.122915 4806.1 Q-10.0043 4818.1 -10.0043 4839.95 Q-10.0043 4853.84 -6.67682 4867.01 Q-3.34929 4880.17 3.30577 4892.32 L-21.289 4892.32 Q-26.9313 4877.71 -29.6802 4863.97 Q-32.5737 4850.22 -32.5737 4837.2 Q-32.5737 4802.05 -14.3446 4784.68 Q3.88447 4767.32 40.9213 4767.32 Z" fill="#000000" fill-rule="evenodd" fill-opacity="1" /><path clip-path="url(#clip670)" d="M 0 0 M2.43772 4613.24 Q-15.502 4603.26 -24.0378 4589.37 Q-32.5737 4575.48 -32.5737 4556.68 Q-32.5737 4531.36 -14.7786 4517.61 Q2.87174 4503.87 35.5683 4503.87 L133.369 4503.87 L133.369 4530.64 L36.4364 4530.64 Q13.1437 4530.64 1.85902 4538.88 Q-9.42564 4547.13 -9.42564 4564.06 Q-9.42564 4584.74 4.31849 4596.75 Q18.0626 4608.76 41.7894 4608.76 L133.369 4608.76 L133.369 4635.52 L36.4364 4635.52 Q12.999 4635.52 1.85902 4643.77 Q-9.42564 4652.02 -9.42564 4669.23 Q-9.42564 4689.63 4.46317 4701.64 Q18.2073 4713.65 41.7894 4713.65 L133.369 4713.65 L133.369 4740.41 L-28.6674 4740.41 L-28.6674 4713.65 L-3.49396 4713.65 Q-18.3955 4704.53 -25.4846 4691.8 Q-32.5737 4679.07 -32.5737 4661.57 Q-32.5737 4643.92 -23.6038 4631.62 Q-14.634 4619.18 2.43772 4613.24 Z" fill="#000000" fill-rule="evenodd" fill-opacity="1" /><path clip-path="url(#clip670)" d="M 0 0 M52.4953 4359.63 Q23.1263 4359.63 6.48862 4371.78 Q-10.2937 4383.79 -10.2937 4404.91 Q-10.2937 4426.04 6.48862 4438.19 Q23.1263 4450.2 52.4953 4450.2 Q81.8644 4450.2 98.6467 4438.19 Q115.284 4426.04 115.284 4404.91 Q115.284 4383.79 98.6467 4371.78 Q81.8644 4359.63 52.4953 4359.63 M-4.07266 4450.2 Q-18.5402 4441.8 -25.4846 4429.07 Q-32.5737 4416.2 -32.5737 4398.4 Q-32.5737 4368.89 -9.13629 4350.51 Q14.3011 4332 52.4953 4332 Q90.6896 4332 114.127 4350.51 Q137.564 4368.89 137.564 4398.4 Q137.564 4416.2 130.62 4429.07 Q123.531 4441.8 109.063 4450.2 L133.369 4450.2 L133.369 4476.96 L-91.7458 4476.96 L-91.7458 4450.2 L-4.07266 4450.2 Z" fill="#000000" fill-rule="evenodd" fill-opacity="1" /><path clip-path="url(#clip670)" d="M 0 0 M-28.6674 4304.07 L-28.6674 4277.45 L133.369 4277.45 L133.369 4304.07 L-28.6674 4304.07 M-91.7458 4304.07 L-91.7458 4277.45 L-58.0365 4277.45 L-58.0365 4304.07 L-91.7458 4304.07 Z" fill="#000000" fill-rule="evenodd" fill-opacity="1" /><path clip-path="url(#clip670)" d="M 0 0 M-10.0043 4186.74 Q-10.0043 4208.15 6.77797 4220.6 Q23.4156 4233.04 52.4953 4233.04 Q81.575 4233.04 98.3573 4220.74 Q114.995 4208.3 114.995 4186.74 Q114.995 4165.48 98.2127 4153.03 Q81.4303 4140.59 52.4953 4140.59 Q23.705 4140.59 6.92265 4153.03 Q-10.0043 4165.48 -10.0043 4186.74 M-32.5737 4186.74 Q-32.5737 4152.02 -10.0043 4132.2 Q12.565 4112.38 52.4953 4112.38 Q92.281 4112.38 114.995 4132.2 Q137.564 4152.02 137.564 4186.74 Q137.564 4221.61 114.995 4241.43 Q92.281 4261.11 52.4953 4261.11 Q12.565 4261.11 -10.0043 4241.43 Q-32.5737 4221.61 -32.5737 4186.74 Z" fill="#000000" fill-rule="evenodd" fill-opacity="1" /><path clip-path="url(#clip670)" d="M 0 0 M45.6956 3851.67 L58.7164 3851.67 L58.7164 3974.07 Q86.2046 3972.33 100.672 3957.58 Q114.995 3942.68 114.995 3916.2 Q114.995 3900.86 111.233 3886.54 Q107.472 3872.07 99.9488 3857.9 L125.122 3857.9 Q131.199 3872.22 134.381 3887.27 Q137.564 3902.31 137.564 3917.79 Q137.564 3956.56 114.995 3979.28 Q92.4257 4001.85 53.9421 4001.85 Q14.1564 4001.85 -9.13629 3980.44 Q-32.5737 3958.88 -32.5737 3922.42 Q-32.5737 3889.72 -11.4511 3870.77 Q9.5268 3851.67 45.6956 3851.67 M37.8831 3878.3 Q16.0372 3878.58 3.01642 3890.59 Q-10.0043 3902.46 -10.0043 3922.13 Q-10.0043 3944.41 2.58239 3957.87 Q15.1691 3971.18 38.0278 3973.2 L37.8831 3878.3 Z" fill="#000000" fill-rule="evenodd" fill-opacity="1" /><path clip-path="url(#clip670)" d="M 0 0 M35.5683 3689.06 L133.369 3689.06 L133.369 3715.68 L36.4364 3715.68 Q13.433 3715.68 2.00369 3724.65 Q-9.42564 3733.62 -9.42564 3751.56 Q-9.42564 3773.12 4.31849 3785.56 Q18.0626 3798 41.7894 3798 L133.369 3798 L133.369 3824.77 L-28.6674 3824.77 L-28.6674 3798 L-3.49396 3798 Q-18.1062 3788.45 -25.3399 3775.58 Q-32.5737 3762.56 -32.5737 3745.63 Q-32.5737 3717.71 -15.2127 3703.38 Q2.00369 3689.06 35.5683 3689.06 Z" fill="#000000" fill-rule="evenodd" fill-opacity="1" /><path clip-path="url(#clip670)" d="M 0 0 M45.6956 3428.36 L58.7164 3428.36 L58.7164 3550.75 Q86.2046 3549.01 100.672 3534.26 Q114.995 3519.36 114.995 3492.88 Q114.995 3477.54 111.233 3463.22 Q107.472 3448.75 99.9488 3434.58 L125.122 3434.58 Q131.199 3448.9 134.381 3463.95 Q137.564 3478.99 137.564 3494.47 Q137.564 3533.24 114.995 3555.96 Q92.4257 3578.53 53.9421 3578.53 Q14.1564 3578.53 -9.13629 3557.12 Q-32.5737 3535.56 -32.5737 3499.1 Q-32.5737 3466.41 -11.4511 3447.45 Q9.5268 3428.36 45.6956 3428.36 M37.8831 3454.98 Q16.0372 3455.27 3.01642 3467.27 Q-10.0043 3479.14 -10.0043 3498.81 Q-10.0043 3521.09 2.58239 3534.55 Q15.1691 3547.86 38.0278 3549.88 L37.8831 3454.98 Z" fill="#000000" fill-rule="evenodd" fill-opacity="1" /><path clip-path="url(#clip670)" d="M 0 0 M35.5683 3265.74 L133.369 3265.74 L133.369 3292.36 L36.4364 3292.36 Q13.433 3292.36 2.00369 3301.33 Q-9.42564 3310.3 -9.42564 3328.24 Q-9.42564 3349.8 4.31849 3362.24 Q18.0626 3374.68 41.7894 3374.68 L133.369 3374.68 L133.369 3401.45 L-28.6674 3401.45 L-28.6674 3374.68 L-3.49396 3374.68 Q-18.1062 3365.13 -25.3399 3352.26 Q-32.5737 3339.24 -32.5737 3322.31 Q-32.5737 3294.39 -15.2127 3280.06 Q2.00369 3265.74 35.5683 3265.74 Z" fill="#000000" fill-rule="evenodd" fill-opacity="1" /><path clip-path="url(#clip670)" d="M 0 0 M45.6956 3099.22 L58.7164 3099.22 L58.7164 3221.61 Q86.2046 3219.88 100.672 3205.12 Q114.995 3190.22 114.995 3163.74 Q114.995 3148.41 111.233 3134.09 Q107.472 3119.62 99.9488 3105.44 L125.122 3105.44 Q131.199 3119.76 134.381 3134.81 Q137.564 3149.86 137.564 3165.34 Q137.564 3204.11 114.995 3226.82 Q92.4257 3249.39 53.9421 3249.39 Q14.1564 3249.39 -9.13629 3227.98 Q-32.5737 3206.42 -32.5737 3169.97 Q-32.5737 3137.27 -11.4511 3118.32 Q9.5268 3099.22 45.6956 3099.22 M37.8831 3125.84 Q16.0372 3126.13 3.01642 3138.14 Q-10.0043 3150 -10.0043 3169.68 Q-10.0043 3191.96 2.58239 3205.41 Q15.1691 3218.72 38.0278 3220.75 L37.8831 3125.84 Z" fill="#000000" fill-rule="evenodd" fill-opacity="1" /><path clip-path="url(#clip670)" d="M 0 0 M-3.78331 2977.4 Q-6.38747 2981.89 -7.54487 2987.24 Q-8.84694 2992.45 -8.84694 2998.81 Q-8.84694 3021.38 5.90992 3033.54 Q20.5221 3045.54 48.0104 3045.54 L133.369 3045.54 L133.369 3072.31 L-28.6674 3072.31 L-28.6674 3045.54 L-3.49396 3045.54 Q-18.2508 3037.15 -25.3399 3023.7 Q-32.5737 3010.24 -32.5737 2991 Q-32.5737 2988.25 -32.1396 2984.93 Q-31.8503 2981.6 -31.1269 2977.55 L-3.78331 2977.4 Z" fill="#000000" fill-rule="evenodd" fill-opacity="1" /><path clip-path="url(#clip670)" d="M 0 0 M50.4699 2848.06 Q21.5348 2848.06 5.62057 2860.07 Q-10.2937 2871.93 -10.2937 2893.49 Q-10.2937 2914.9 5.62057 2926.91 Q21.5348 2938.77 50.4699 2938.77 Q79.2602 2938.77 95.1745 2926.91 Q111.089 2914.9 111.089 2893.49 Q111.089 2871.93 95.1745 2860.07 Q79.2602 2848.06 50.4699 2848.06 M113.259 2821.44 Q154.636 2821.44 174.746 2839.82 Q195 2858.19 195 2896.1 Q195 2910.13 192.83 2922.57 Q190.805 2935.01 186.465 2946.73 L160.568 2946.73 Q166.933 2935.01 169.972 2923.58 Q173.01 2912.15 173.01 2900.29 Q173.01 2874.1 159.266 2861.08 Q145.666 2848.06 118.033 2848.06 L104.868 2848.06 Q119.191 2856.31 126.28 2869.19 Q133.369 2882.06 133.369 2900 Q133.369 2929.8 110.655 2948.03 Q87.9407 2966.26 50.4699 2966.26 Q12.8543 2966.26 -9.85967 2948.03 Q-32.5737 2929.8 -32.5737 2900 Q-32.5737 2882.06 -25.4846 2869.19 Q-18.3955 2856.31 -4.07266 2848.06 L-28.6674 2848.06 L-28.6674 2821.44 L113.259 2821.44 Z" fill="#000000" fill-rule="evenodd" fill-opacity="1" /><path clip-path="url(#clip670)" d="M 0 0 M-103.609 2760.1 L-103.609 2731.31 L-49.2113 2778.47 L-49.2113 2800.61 L-103.609 2760.1 M-28.6674 2793.52 L-28.6674 2766.9 L133.369 2766.9 L133.369 2793.52 L-28.6674 2793.52 M-32.5737 2780.21 L-32.5737 2780.21 Z" fill="#000000" fill-rule="evenodd" fill-opacity="1" /><path clip-path="url(#clip670)" d="M 0 0 M51.9166 2629.75 Q51.9166 2662.01 59.2951 2674.45 Q66.6735 2686.9 84.4685 2686.9 Q98.6467 2686.9 107.038 2677.64 Q115.284 2668.23 115.284 2652.17 Q115.284 2630.04 99.6594 2616.73 Q83.8898 2603.27 57.8483 2603.27 L51.9166 2603.27 L51.9166 2629.75 M40.9213 2576.65 L133.369 2576.65 L133.369 2603.27 L108.774 2603.27 Q123.531 2612.39 130.62 2625.99 Q137.564 2639.59 137.564 2659.26 Q137.564 2684.15 123.675 2698.9 Q109.642 2713.52 86.2046 2713.52 Q58.861 2713.52 44.9722 2695.29 Q31.0834 2676.91 31.0834 2640.6 L31.0834 2603.27 L28.4792 2603.27 Q10.1055 2603.27 0.122915 2615.43 Q-10.0043 2627.43 -10.0043 2649.28 Q-10.0043 2663.17 -6.67682 2676.33 Q-3.34929 2689.5 3.30577 2701.65 L-21.289 2701.65 Q-26.9313 2687.04 -29.6802 2673.3 Q-32.5737 2659.55 -32.5737 2646.53 Q-32.5737 2611.37 -14.3446 2594.01 Q3.88447 2576.65 40.9213 2576.65 Z" fill="#000000" fill-rule="evenodd" fill-opacity="1" /><path clip-path="url(#clip670)" d="M 0 0 M4150.67 59.8376 L4150.67 90.6534 Q4135.91 76.9093 4119.13 70.1096 Q4102.49 63.3098 4083.69 63.3098 Q4046.65 63.3098 4026.97 86.0238 Q4007.3 108.593 4007.3 151.417 Q4007.3 194.096 4026.97 216.81 Q4046.65 239.38 4083.69 239.38 Q4102.49 239.38 4119.13 232.58 Q4135.91 225.78 4150.67 212.036 L4150.67 242.562 Q4135.34 252.979 4118.12 258.187 Q4101.05 263.396 4081.95 263.396 Q4032.91 263.396 4004.69 233.448 Q3976.48 203.355 3976.48 151.417 Q3976.48 99.334 4004.69 69.3862 Q4032.91 39.2938 4081.95 39.2938 Q4101.34 39.2938 4118.41 44.5021 Q4135.62 49.5657 4150.67 59.8376 Z" fill="#000000" fill-rule="evenodd" fill-opacity="1" /><path clip-path="url(#clip670)" d="M 0 0 M4252.23 177.748 Q4219.97 177.748 4207.53 185.126 Q4195.09 192.505 4195.09 210.3 Q4195.09 224.478 4204.35 232.869 Q4213.75 241.116 4229.81 241.116 Q4251.94 241.116 4265.25 225.491 Q4278.71 209.721 4278.71 183.68 L4278.71 177.748 L4252.23 177.748 M4305.33 166.753 L4305.33 259.2 L4278.71 259.2 L4278.71 234.605 Q4269.59 249.362 4255.99 256.451 Q4242.4 263.396 4222.72 263.396 Q4197.84 263.396 4183.08 249.507 Q4168.47 235.473 4168.47 212.036 Q4168.47 184.692 4186.7 170.803 Q4205.07 156.915 4241.38 156.915 L4278.71 156.915 L4278.71 154.311 Q4278.71 135.937 4266.56 125.954 Q4254.55 115.827 4232.7 115.827 Q4218.81 115.827 4205.65 119.154 Q4192.48 122.482 4180.33 129.137 L4180.33 104.542 Q4194.94 98.8999 4208.69 96.1511 Q4222.43 93.2576 4235.45 93.2576 Q4270.61 93.2576 4287.97 111.487 Q4305.33 129.716 4305.33 166.753 Z" fill="#000000" fill-rule="evenodd" fill-opacity="1" /><path clip-path="url(#clip670)" d="M 0 0 M4459.41 128.269 Q4469.39 110.329 4483.28 101.793 Q4497.17 93.2576 4515.98 93.2576 Q4541.29 93.2576 4555.04 111.053 Q4568.78 128.703 4568.78 161.4 L4568.78 259.2 L4542.02 259.2 L4542.02 162.268 Q4542.02 138.975 4533.77 127.69 Q4525.52 116.406 4508.6 116.406 Q4487.91 116.406 4475.9 130.15 Q4463.89 143.894 4463.89 167.621 L4463.89 259.2 L4437.13 259.2 L4437.13 162.268 Q4437.13 138.83 4428.88 127.69 Q4420.63 116.406 4403.42 116.406 Q4383.02 116.406 4371.01 130.294 Q4359 144.039 4359 167.621 L4359 259.2 L4332.24 259.2 L4332.24 97.1638 L4359 97.1638 L4359 122.337 Q4368.12 107.436 4380.85 100.347 Q4393.58 93.2576 4411.09 93.2576 Q4428.74 93.2576 4441.03 102.227 Q4453.48 111.197 4459.41 128.269 Z" fill="#000000" fill-rule="evenodd" fill-opacity="1" /><path clip-path="url(#clip670)" d="M 0 0 M4713.02 178.327 Q4713.02 148.958 4700.87 132.32 Q4688.86 115.538 4667.74 115.538 Q4646.62 115.538 4634.46 132.32 Q4622.46 148.958 4622.46 178.327 Q4622.46 207.696 4634.46 224.478 Q4646.62 241.116 4667.74 241.116 Q4688.86 241.116 4700.87 224.478 Q4713.02 207.696 4713.02 178.327 M4622.46 121.759 Q4630.85 107.291 4643.58 100.347 Q4656.46 93.2576 4674.25 93.2576 Q4703.76 93.2576 4722.14 116.695 Q4740.66 140.132 4740.66 178.327 Q4740.66 216.521 4722.14 239.958 Q4703.76 263.396 4674.25 263.396 Q4656.46 263.396 4643.58 256.451 Q4630.85 249.362 4622.46 234.895 L4622.46 259.2 L4595.69 259.2 L4595.69 34.0855 L4622.46 34.0855 L4622.46 121.759 Z" fill="#000000" fill-rule="evenodd" fill-opacity="1" /><path clip-path="url(#clip670)" d="M 0 0 M4768.58 97.1638 L4795.2 97.1638 L4795.2 259.2 L4768.58 259.2 L4768.58 97.1638 M4768.58 34.0855 L4795.2 34.0855 L4795.2 67.7948 L4768.58 67.7948 L4768.58 34.0855 Z" fill="#000000" fill-rule="evenodd" fill-opacity="1" /><path clip-path="url(#clip670)" d="M 0 0 M4885.91 115.827 Q4864.5 115.827 4852.06 132.609 Q4839.61 149.247 4839.61 178.327 Q4839.61 207.406 4851.91 224.189 Q4864.35 240.826 4885.91 240.826 Q4907.18 240.826 4919.62 224.044 Q4932.06 207.262 4932.06 178.327 Q4932.06 149.536 4919.62 132.754 Q4907.18 115.827 4885.91 115.827 M4885.91 93.2576 Q4920.63 93.2576 4940.45 115.827 Q4960.27 138.396 4960.27 178.327 Q4960.27 218.112 4940.45 240.826 Q4920.63 263.396 4885.91 263.396 Q4851.04 263.396 4831.22 240.826 Q4811.55 218.112 4811.55 178.327 Q4811.55 138.396 4831.22 115.827 Q4851.04 93.2576 4885.91 93.2576 Z" fill="#000000" fill-rule="evenodd" fill-opacity="1" /><path clip-path="url(#clip670)" d="M 0 0 M5189 121.759 L5189 34.0855 L5215.62 34.0855 L5215.62 259.2 L5189 259.2 L5189 234.895 Q5180.61 249.362 5167.74 256.451 Q5155.01 263.396 5137.07 263.396 Q5107.7 263.396 5089.18 239.958 Q5070.8 216.521 5070.8 178.327 Q5070.8 140.132 5089.18 116.695 Q5107.7 93.2576 5137.07 93.2576 Q5155.01 93.2576 5167.74 100.347 Q5180.61 107.291 5189 121.759 M5098.29 178.327 Q5098.29 207.696 5110.3 224.478 Q5122.45 241.116 5143.58 241.116 Q5164.7 241.116 5176.85 224.478 Q5189 207.696 5189 178.327 Q5189 148.958 5176.85 132.32 Q5164.7 115.538 5143.58 115.538 Q5122.45 115.538 5110.3 132.32 Q5098.29 148.958 5098.29 178.327 Z" fill="#000000" fill-rule="evenodd" fill-opacity="1" /><path clip-path="url(#clip670)" d="M 0 0 M5382.15 171.527 L5382.15 184.548 L5259.75 184.548 Q5261.49 212.036 5276.24 226.503 Q5291.15 240.826 5317.62 240.826 Q5332.96 240.826 5347.28 237.065 Q5361.75 233.303 5375.92 225.78 L5375.92 250.954 Q5361.6 257.03 5346.56 260.213 Q5331.51 263.396 5316.03 263.396 Q5277.26 263.396 5254.54 240.826 Q5231.97 218.257 5231.97 179.773 Q5231.97 139.988 5253.38 116.695 Q5274.94 93.2576 5311.4 93.2576 Q5344.1 93.2576 5363.05 114.38 Q5382.15 135.358 5382.15 171.527 M5355.53 163.714 Q5355.24 141.868 5343.23 128.848 Q5331.36 115.827 5311.69 115.827 Q5289.41 115.827 5275.95 128.414 Q5262.64 141 5260.62 163.859 L5355.53 163.714 Z" fill="#000000" fill-rule="evenodd" fill-opacity="1" /><path clip-path="url(#clip670)" d="M 0 0 M5504.25 34.0855 L5530.87 34.0855 L5530.87 259.2 L5504.25 259.2 L5504.25 34.0855 Z" fill="#000000" fill-rule="evenodd" fill-opacity="1" /><path clip-path="url(#clip670)" d="M 0 0 M5632.43 177.748 Q5600.17 177.748 5587.73 185.126 Q5575.29 192.505 5575.29 210.3 Q5575.29 224.478 5584.55 232.869 Q5593.95 241.116 5610.01 241.116 Q5632.14 241.116 5645.45 225.491 Q5658.91 209.721 5658.91 183.68 L5658.91 177.748 L5632.43 177.748 M5685.53 166.753 L5685.53 259.2 L5658.91 259.2 L5658.91 234.605 Q5649.79 249.362 5636.2 256.451 Q5622.6 263.396 5602.92 263.396 Q5578.04 263.396 5563.28 249.507 Q5548.67 235.473 5548.67 212.036 Q5548.67 184.692 5566.9 170.803 Q5585.27 156.915 5621.58 156.915 L5658.91 156.915 L5658.91 154.311 Q5658.91 135.937 5646.76 125.954 Q5634.75 115.827 5612.9 115.827 Q5599.01 115.827 5585.85 119.154 Q5572.68 122.482 5560.53 129.137 L5560.53 104.542 Q5575.14 98.8999 5588.89 96.1511 Q5602.63 93.2576 5615.65 93.2576 Q5650.81 93.2576 5668.17 111.487 Q5685.53 129.716 5685.53 166.753 Z" fill="#000000" fill-rule="evenodd" fill-opacity="1" /><path clip-path="url(#clip670)" d="M 0 0 M5946.23 171.527 L5946.23 184.548 L5823.84 184.548 Q5825.58 212.036 5840.33 226.503 Q5855.23 240.826 5881.71 240.826 Q5897.04 240.826 5911.37 237.065 Q5925.84 233.303 5940.01 225.78 L5940.01 250.954 Q5925.69 257.03 5910.64 260.213 Q5895.6 263.396 5880.12 263.396 Q5841.34 263.396 5818.63 240.826 Q5796.06 218.257 5796.06 179.773 Q5796.06 139.988 5817.47 116.695 Q5839.03 93.2576 5875.49 93.2576 Q5908.18 93.2576 5927.14 114.38 Q5946.23 135.358 5946.23 171.527 M5919.61 163.714 Q5919.32 141.868 5907.32 128.848 Q5895.45 115.827 5875.78 115.827 Q5853.5 115.827 5840.04 128.414 Q5826.73 141 5824.71 163.859 L5919.61 163.714 Z" fill="#000000" fill-rule="evenodd" fill-opacity="1" /><path clip-path="url(#clip670)" d="M 0 0 M6108.85 161.4 L6108.85 259.2 L6082.23 259.2 L6082.23 162.268 Q6082.23 139.264 6073.26 127.835 Q6064.29 116.406 6046.35 116.406 Q6024.79 116.406 6012.35 130.15 Q5999.91 143.894 5999.91 167.621 L5999.91 259.2 L5973.14 259.2 L5973.14 97.1638 L5999.91 97.1638 L5999.91 122.337 Q6009.46 107.725 6022.33 100.491 Q6035.35 93.2576 6052.28 93.2576 Q6080.2 93.2576 6094.53 110.619 Q6108.85 127.835 6108.85 161.4 Z" fill="#000000" fill-rule="evenodd" fill-opacity="1" /><path clip-path="url(#clip670)" d="M 0 0 M6275.37 171.527 L6275.37 184.548 L6152.98 184.548 Q6154.71 212.036 6169.47 226.503 Q6184.37 240.826 6210.85 240.826 Q6226.18 240.826 6240.5 237.065 Q6254.97 233.303 6269.15 225.78 L6269.15 250.954 Q6254.83 257.03 6239.78 260.213 Q6224.73 263.396 6209.25 263.396 Q6170.48 263.396 6147.77 240.826 Q6125.2 218.257 6125.2 179.773 Q6125.2 139.988 6146.61 116.695 Q6168.17 93.2576 6204.62 93.2576 Q6237.32 93.2576 6256.27 114.38 Q6275.37 135.358 6275.37 171.527 M6248.75 163.714 Q6248.46 141.868 6236.45 128.848 Q6224.59 115.827 6204.91 115.827 Q6182.63 115.827 6169.18 128.414 Q6155.87 141 6153.84 163.859 L6248.75 163.714 Z" fill="#000000" fill-rule="evenodd" fill-opacity="1" /><path clip-path="url(#clip670)" d="M 0 0 M6397.19 122.048 Q6392.7 119.444 6387.35 118.286 Q6382.14 116.984 6375.77 116.984 Q6353.21 116.984 6341.05 131.741 Q6329.04 146.353 6329.04 173.842 L6329.04 259.2 L6302.28 259.2 L6302.28 97.1638 L6329.04 97.1638 L6329.04 122.337 Q6337.44 107.58 6350.89 100.491 Q6364.35 93.2576 6383.59 93.2576 Q6386.34 93.2576 6389.66 93.6916 Q6392.99 93.981 6397.04 94.7044 L6397.19 122.048 Z" fill="#000000" fill-rule="evenodd" fill-opacity="1" /><path clip-path="url(#clip670)" d="M 0 0 M6526.53 176.301 Q6526.53 147.366 6514.52 131.452 Q6502.65 115.538 6481.1 115.538 Q6459.69 115.538 6447.68 131.452 Q6435.81 147.366 6435.81 176.301 Q6435.81 205.091 6447.68 221.006 Q6459.69 236.92 6481.1 236.92 Q6502.65 236.92 6514.52 221.006 Q6526.53 205.091 6526.53 176.301 M6553.15 239.09 Q6553.15 280.467 6534.77 300.577 Q6516.4 320.832 6478.49 320.832 Q6464.46 320.832 6452.02 318.661 Q6439.58 316.636 6427.86 312.296 L6427.86 286.399 Q6439.58 292.765 6451.01 295.803 Q6462.44 298.841 6474.3 298.841 Q6500.48 298.841 6513.51 285.097 Q6526.53 271.497 6526.53 243.864 L6526.53 230.699 Q6518.28 245.022 6505.4 252.111 Q6492.53 259.2 6474.59 259.2 Q6444.78 259.2 6426.56 236.486 Q6408.33 213.772 6408.33 176.301 Q6408.33 138.686 6426.56 115.972 Q6444.78 93.2576 6474.59 93.2576 Q6492.53 93.2576 6505.4 100.347 Q6518.28 107.436 6526.53 121.759 L6526.53 97.1638 L6553.15 97.1638 L6553.15 239.09 Z" fill="#000000" fill-rule="evenodd" fill-opacity="1" /><path clip-path="url(#clip670)" d="M 0 0 M6614.49 22.2221 L6643.28 22.2221 L6596.12 76.62 L6573.98 76.62 L6614.49 22.2221 M6581.07 97.1638 L6607.69 97.1638 L6607.69 259.2 L6581.07 259.2 L6581.07 97.1638 M6594.38 93.2576 L6594.38 93.2576 Z" fill="#000000" fill-rule="evenodd" fill-opacity="1" /><path clip-path="url(#clip670)" d="M 0 0 M6744.84 177.748 Q6712.58 177.748 6700.14 185.126 Q6687.69 192.505 6687.69 210.3 Q6687.69 224.478 6696.95 232.869 Q6706.36 241.116 6722.42 241.116 Q6744.55 241.116 6757.86 225.491 Q6771.32 209.721 6771.32 183.68 L6771.32 177.748 L6744.84 177.748 M6797.94 166.753 L6797.94 259.2 L6771.32 259.2 L6771.32 234.605 Q6762.2 249.362 6748.6 256.451 Q6735 263.396 6715.33 263.396 Q6690.44 263.396 6675.69 249.507 Q6661.07 235.473 6661.07 212.036 Q6661.07 184.692 6679.3 170.803 Q6697.68 156.915 6733.99 156.915 L6771.32 156.915 L6771.32 154.311 Q6771.32 135.937 6759.16 125.954 Q6747.16 115.827 6725.31 115.827 Q6711.42 115.827 6698.26 119.154 Q6685.09 122.482 6672.94 129.137 L6672.94 104.542 Q6687.55 98.8999 6701.29 96.1511 Q6715.04 93.2576 6728.06 93.2576 Q6763.21 93.2576 6780.58 111.487 Q6797.94 129.716 6797.94 166.753 Z" fill="#000000" fill-rule="evenodd" fill-opacity="1" /><path clip-path="url(#clip670)" d="M 0 0 M7058.64 171.527 L7058.64 184.548 L6936.25 184.548 Q6937.98 212.036 6952.74 226.503 Q6967.64 240.826 6994.12 240.826 Q7009.45 240.826 7023.77 237.065 Q7038.24 233.303 7052.42 225.78 L7052.42 250.954 Q7038.1 257.03 7023.05 260.213 Q7008.01 263.396 6992.52 263.396 Q6953.75 263.396 6931.04 240.826 Q6908.47 218.257 6908.47 179.773 Q6908.47 139.988 6929.88 116.695 Q6951.44 93.2576 6987.9 93.2576 Q7020.59 93.2576 7039.54 114.38 Q7058.64 135.358 7058.64 171.527 M7032.02 163.714 Q7031.73 141.868 7019.72 128.848 Q7007.86 115.827 6988.18 115.827 Q6965.9 115.827 6952.45 128.414 Q6939.14 141 6937.11 163.859 L7032.02 163.714 Z" fill="#000000" fill-rule="evenodd" fill-opacity="1" /><path clip-path="url(#clip670)" d="M 0 0 M7221.26 161.4 L7221.26 259.2 L7194.64 259.2 L7194.64 162.268 Q7194.64 139.264 7185.67 127.835 Q7176.7 116.406 7158.76 116.406 Q7137.2 116.406 7124.76 130.15 Q7112.32 143.894 7112.32 167.621 L7112.32 259.2 L7085.55 259.2 L7085.55 97.1638 L7112.32 97.1638 L7112.32 122.337 Q7121.86 107.725 7134.74 100.491 Q7147.76 93.2576 7164.69 93.2576 Q7192.61 93.2576 7206.93 110.619 Q7221.26 127.835 7221.26 161.4 Z" fill="#000000" fill-rule="evenodd" fill-opacity="1" /><path clip-path="url(#clip670)" d="M 0 0 M7481.96 171.527 L7481.96 184.548 L7359.57 184.548 Q7361.3 212.036 7376.06 226.503 Q7390.96 240.826 7417.44 240.826 Q7432.77 240.826 7447.09 237.065 Q7461.56 233.303 7475.74 225.78 L7475.74 250.954 Q7461.42 257.03 7446.37 260.213 Q7431.32 263.396 7415.84 263.396 Q7377.07 263.396 7354.36 240.826 Q7331.79 218.257 7331.79 179.773 Q7331.79 139.988 7353.2 116.695 Q7374.76 93.2576 7411.21 93.2576 Q7443.91 93.2576 7462.86 114.38 Q7481.96 135.358 7481.96 171.527 M7455.34 163.714 Q7455.05 141.868 7443.04 128.848 Q7431.18 115.827 7411.5 115.827 Q7389.22 115.827 7375.77 128.414 Q7362.46 141 7360.43 163.859 L7455.34 163.714 Z" fill="#000000" fill-rule="evenodd" fill-opacity="1" /><path clip-path="url(#clip670)" d="M 0 0 M7509.88 34.0855 L7536.5 34.0855 L7536.5 259.2 L7509.88 259.2 L7509.88 34.0855 Z" fill="#000000" fill-rule="evenodd" fill-opacity="1" /><path clip-path="url(#clip670)" d="M 0 0 M7684.94 51.1571 L7684.94 97.1638 L7739.77 97.1638 L7739.77 117.852 L7684.94 117.852 L7684.94 205.815 Q7684.94 225.635 7690.29 231.278 Q7695.79 236.92 7712.43 236.92 L7739.77 236.92 L7739.77 259.2 L7712.43 259.2 Q7681.61 259.2 7669.89 247.771 Q7658.18 236.197 7658.18 205.815 L7658.18 117.852 L7638.64 117.852 L7638.64 97.1638 L7658.18 97.1638 L7658.18 51.1571 L7684.94 51.1571 Z" fill="#000000" fill-rule="evenodd" fill-opacity="1" /><path clip-path="url(#clip670)" d="M 0 0 M7767.69 97.1638 L7794.31 97.1638 L7794.31 259.2 L7767.69 259.2 L7767.69 97.1638 M7767.69 34.0855 L7794.31 34.0855 L7794.31 67.7948 L7767.69 67.7948 L7767.69 34.0855 Z" fill="#000000" fill-rule="evenodd" fill-opacity="1" /><path clip-path="url(#clip670)" d="M 0 0 M7960.84 171.527 L7960.84 184.548 L7838.44 184.548 Q7840.18 212.036 7854.93 226.503 Q7869.84 240.826 7896.31 240.826 Q7911.65 240.826 7925.97 237.065 Q7940.44 233.303 7954.61 225.78 L7954.61 250.954 Q7940.29 257.03 7925.25 260.213 Q7910.2 263.396 7894.72 263.396 Q7855.95 263.396 7833.23 240.826 Q7810.66 218.257 7810.66 179.773 Q7810.66 139.988 7832.07 116.695 Q7853.63 93.2576 7890.09 93.2576 Q7922.79 93.2576 7941.74 114.38 Q7960.84 135.358 7960.84 171.527 M7934.22 163.714 Q7933.93 141.868 7921.92 128.848 Q7910.05 115.827 7890.38 115.827 Q7868.1 115.827 7854.64 128.414 Q7841.33 141 7839.31 163.859 L7934.22 163.714 Z" fill="#000000" fill-rule="evenodd" fill-opacity="1" /><path clip-path="url(#clip670)" d="M 0 0 M8114.91 128.269 Q8124.9 110.329 8138.79 101.793 Q8152.67 93.2576 8171.48 93.2576 Q8196.8 93.2576 8210.55 111.053 Q8224.29 128.703 8224.29 161.4 L8224.29 259.2 L8197.52 259.2 L8197.52 162.268 Q8197.52 138.975 8189.28 127.69 Q8181.03 116.406 8164.1 116.406 Q8143.42 116.406 8131.41 130.15 Q8119.4 143.894 8119.4 167.621 L8119.4 259.2 L8092.63 259.2 L8092.63 162.268 Q8092.63 138.83 8084.39 127.69 Q8076.14 116.406 8058.93 116.406 Q8038.53 116.406 8026.52 130.294 Q8014.51 144.039 8014.51 167.621 L8014.51 259.2 L7987.75 259.2 L7987.75 97.1638 L8014.51 97.1638 L8014.51 122.337 Q8023.62 107.436 8036.36 100.347 Q8049.09 93.2576 8066.59 93.2576 Q8084.24 93.2576 8096.54 102.227 Q8108.98 111.197 8114.91 128.269 Z" fill="#000000" fill-rule="evenodd" fill-opacity="1" /><path clip-path="url(#clip670)" d="M 0 0 M8277.96 234.895 L8277.96 320.832 L8251.2 320.832 L8251.2 97.1638 L8277.96 97.1638 L8277.96 121.759 Q8286.35 107.291 8299.09 100.347 Q8311.96 93.2576 8329.76 93.2576 Q8359.27 93.2576 8377.64 116.695 Q8396.16 140.132 8396.16 178.327 Q8396.16 216.521 8377.64 239.958 Q8359.27 263.396 8329.76 263.396 Q8311.96 263.396 8299.09 256.451 Q8286.35 249.362 8277.96 234.895 M8368.53 178.327 Q8368.53 148.958 8356.38 132.32 Q8344.37 115.538 8323.25 115.538 Q8302.12 115.538 8289.97 132.32 Q8277.96 148.958 8277.96 178.327 Q8277.96 207.696 8289.97 224.478 Q8302.12 241.116 8323.25 241.116 Q8344.37 241.116 8356.38 224.478 Q8368.53 207.696 8368.53 178.327 Z" fill="#000000" fill-rule="evenodd" fill-opacity="1" /><path clip-path="url(#clip670)" d="M 0 0 M8486.87 115.827 Q8465.46 115.827 8453.02 132.609 Q8440.58 149.247 8440.58 178.327 Q8440.58 207.406 8452.88 224.189 Q8465.32 240.826 8486.87 240.826 Q8508.14 240.826 8520.58 224.044 Q8533.03 207.262 8533.03 178.327 Q8533.03 149.536 8520.58 132.754 Q8508.14 115.827 8486.87 115.827 M8486.87 93.2576 Q8521.6 93.2576 8541.42 115.827 Q8561.24 138.396 8561.24 178.327 Q8561.24 218.112 8541.42 240.826 Q8521.6 263.396 8486.87 263.396 Q8452.01 263.396 8432.19 240.826 Q8412.51 218.112 8412.51 178.327 Q8412.51 138.396 8432.19 115.827 Q8452.01 93.2576 8486.87 93.2576 Z" fill="#000000" fill-rule="evenodd" fill-opacity="1" /><polyline clip-path="url(#clip672)" style="stroke:#009af9; stroke-width:20; stroke-opacity:1; fill:none" points="
  1661.41,7175.5 1661.67,7175.5 1663.2,7175.5 1672.58,7175.5 1710.28,7175.5 1770.29,7175.55 1837.2,7175.62 1915.8,7177.91 1993.64,7177.05 2087.14,7173.36 
  2181.63,7147.14 2272.22,7147.12 2370.37,7121.01 2470.99,7150.37 2573.12,7115.64 2678.07,7126.04 2783.95,7047.13 2889.04,7055.99 2990.86,7001.35 3109.07,7103.89 
  3212.22,7119.5 3325.36,7007.45 3431.1,6989.17 3545.66,6694.84 3649.33,6712.32 3759.7,6619.04 3874.32,6418.66 3976.55,6361.26 4090.02,6177.79 4192.41,6224.1 
  4300.4,6189.24 4413.21,6247.76 4525.92,6128.62 4633.6,6090.94 4741.5,5993.19 4862.08,5398.36 4962.9,5406.36 5074.24,5281.52 5186,5312.01 5290.8,5246.85 
  5407.88,5147.51 5511.62,5189.24 5622.43,5131.11 5726.98,5119.96 5840.97,4862.72 5942.31,4877.19 6049.63,4803.31 6167.96,4785.47 6269.02,4781.77 6381.18,4643.42 
  6488.71,4701.77 6599.44,4630.1 6711.39,4693.11 6817.51,4673.65 6930.88,4516.62 7035.78,4435.51 7161.85,3516.93 7260.33,3539.65 7370.36,3477.75 7481,3572.73 
  7585.93,3555.63 7697.62,3468.28 7803.08,3466.62 7917.05,3251.25 8023.9,3268.39 8134.74,3145.87 8244.36,3094.75 8349.31,2994.85 8472.33,2755.3 8569.25,2776.42 
  8679.12,2723.73 8786.06,2736.83 8904.14,2404.76 9007.34,2408.3 9114.42,2348.86 9230.85,2008.25 9334.13,1974.97 9448.96,1714.4 9552.26,1751.1 9658.12,1692.49 
  9770.37,1781.94 9874.23,1777.28 9986.59,1674.38 10089.5,1620.29 10213.2,745.608 10310.5,758.266 10421.9,652.488 10532.2,683.285 10639.4,612.91 10752.9,494.911 
  10855.8,535.008 10876.3,535.008 
  "/>
<path clip-path="url(#clip670)" d="
M9422.99 1286.55 L10827.2 1286.55 L10827.2 530.553 L9422.99 530.553  Z
  " fill="#ffffff" fill-rule="evenodd" fill-opacity="1"/>
<polyline clip-path="url(#clip670)" style="stroke:#000000; stroke-width:4; stroke-opacity:1; fill:none" points="
  9422.99,1286.55 10827.2,1286.55 10827.2,530.553 9422.99,530.553 9422.99,1286.55 
  "/>
<polyline clip-path="url(#clip670)" style="stroke:#009af9; stroke-width:25; stroke-opacity:1; fill:none" points="
  9531.52,908.553 10182.7,908.553 
  "/>
<path clip-path="url(#clip670)" d="M 0 0 M10377.8 1031.6 Q10366.5 1060.53 10355.8 1069.36 Q10345.1 1078.19 10327.1 1078.19 L10305.8 1078.19 L10305.8 1055.91 L10321.5 1055.91 Q10332.5 1055.91 10338.5 1050.7 Q10344.6 1045.49 10352 1026.1 L10356.8 1013.95 L10291.2 854.517 L10319.4 854.517 L10370.1 981.253 L10420.7 854.517 L10448.9 854.517 L10377.8 1031.6 Z" fill="#000000" fill-rule="evenodd" fill-opacity="1" /><path clip-path="url(#clip670)" d="M 0 0 M10485.7 991.959 L10533.4 991.959 L10533.4 827.174 L10481.5 837.59 L10481.5 810.97 L10533.1 800.553 L10562.4 800.553 L10562.4 991.959 L10610.1 991.959 L10610.1 1016.55 L10485.7 1016.55 L10485.7 991.959 Z" fill="#000000" fill-rule="evenodd" fill-opacity="1" /></svg>
