<?xml version="1.0" encoding="utf-8"?>
<svg xmlns="http://www.w3.org/2000/svg" xmlns:xlink="http://www.w3.org/1999/xlink" width="600" height="400" viewBox="0 0 2400 1600">
<defs>
  <clipPath id="clip800">
    <rect x="0" y="0" width="2400" height="1600"/>
  </clipPath>
</defs>
<path clip-path="url(#clip800)" d="
M0 1600 L2400 1600 L2400 0 L0 0  Z
  " fill="#ffffff" fill-rule="evenodd" fill-opacity="1"/>
<defs>
  <clipPath id="clip801">
    <rect x="480" y="0" width="1681" height="1600"/>
  </clipPath>
</defs>
<path clip-path="url(#clip800)" d="
M185.846 1482.13 L2352.76 1482.13 L2352.76 149.392 L185.846 149.392  Z
  " fill="#ffffff" fill-rule="evenodd" fill-opacity="1"/>
<defs>
  <clipPath id="clip802">
    <rect x="185" y="149" width="2168" height="1334"/>
  </clipPath>
</defs>
<polyline clip-path="url(#clip802)" style="stroke:#000000; stroke-width:2; stroke-opacity:0.1; fill:none" points="
  677.543,1482.13 677.543,149.392 
  "/>
<polyline clip-path="url(#clip802)" style="stroke:#000000; stroke-width:2; stroke-opacity:0.1; fill:none" points="
  1215.5,1482.13 1215.5,149.392 
  "/>
<polyline clip-path="url(#clip802)" style="stroke:#000000; stroke-width:2; stroke-opacity:0.1; fill:none" points="
  1753.47,1482.13 1753.47,149.392 
  "/>
<polyline clip-path="url(#clip802)" style="stroke:#000000; stroke-width:2; stroke-opacity:0.1; fill:none" points="
  2291.43,1482.13 2291.43,149.392 
  "/>
<polyline clip-path="url(#clip800)" style="stroke:#000000; stroke-width:4; stroke-opacity:1; fill:none" points="
  185.846,1482.13 2352.76,1482.13 
  "/>
<polyline clip-path="url(#clip800)" style="stroke:#000000; stroke-width:4; stroke-opacity:1; fill:none" points="
  677.543,1482.13 677.543,1466.14 
  "/>
<polyline clip-path="url(#clip800)" style="stroke:#000000; stroke-width:4; stroke-opacity:1; fill:none" points="
  1215.5,1482.13 1215.5,1466.14 
  "/>
<polyline clip-path="url(#clip800)" style="stroke:#000000; stroke-width:4; stroke-opacity:1; fill:none" points="
  1753.47,1482.13 1753.47,1466.14 
  "/>
<polyline clip-path="url(#clip800)" style="stroke:#000000; stroke-width:4; stroke-opacity:1; fill:none" points="
  2291.43,1482.13 2291.43,1466.14 
  "/>
<path clip-path="url(#clip800)" d="M 0 0 M666.605 1509.1 L687.256 1509.1 L687.256 1513.53 L671.423 1513.53 L671.423 1523.06 Q672.569 1522.67 673.715 1522.49 Q674.861 1522.28 676.006 1522.28 Q682.517 1522.28 686.319 1525.85 Q690.121 1529.42 690.121 1535.51 Q690.121 1541.79 686.215 1545.28 Q682.308 1548.74 675.199 1548.74 Q672.751 1548.74 670.199 1548.32 Q667.673 1547.91 664.965 1547.07 L664.965 1541.79 Q667.309 1543.06 669.809 1543.69 Q672.309 1544.31 675.095 1544.31 Q679.6 1544.31 682.23 1541.94 Q684.861 1539.57 684.861 1535.51 Q684.861 1531.45 682.23 1529.08 Q679.6 1526.71 675.095 1526.71 Q672.986 1526.71 670.876 1527.18 Q668.793 1527.65 666.605 1528.64 L666.605 1509.1 Z" fill="#bebebe" fill-rule="evenodd" fill-opacity="1" /><path clip-path="url(#clip800)" d="M 0 0 M1189.49 1543.56 L1198.08 1543.56 L1198.08 1513.9 L1188.73 1515.77 L1188.73 1510.98 L1198.03 1509.1 L1203.29 1509.1 L1203.29 1543.56 L1211.88 1543.56 L1211.88 1547.98 L1189.49 1547.98 L1189.49 1543.56 Z" fill="#bebebe" fill-rule="evenodd" fill-opacity="1" /><path clip-path="url(#clip800)" d="M 0 0 M1228.84 1512.57 Q1224.78 1512.57 1222.72 1516.58 Q1220.69 1520.56 1220.69 1528.58 Q1220.69 1536.58 1222.72 1540.59 Q1224.78 1544.57 1228.84 1544.57 Q1232.93 1544.57 1234.96 1540.59 Q1237.01 1536.58 1237.01 1528.58 Q1237.01 1520.56 1234.96 1516.58 Q1232.93 1512.57 1228.84 1512.57 M1228.84 1508.4 Q1235.37 1508.4 1238.81 1513.58 Q1242.28 1518.74 1242.28 1528.58 Q1242.28 1538.4 1238.81 1543.58 Q1235.37 1548.74 1228.84 1548.74 Q1222.3 1548.74 1218.84 1543.58 Q1215.4 1538.4 1215.4 1528.58 Q1215.4 1518.74 1218.84 1513.58 Q1222.3 1508.4 1228.84 1508.4 Z" fill="#bebebe" fill-rule="evenodd" fill-opacity="1" /><path clip-path="url(#clip800)" d="M 0 0 M1728.01 1543.56 L1736.6 1543.56 L1736.6 1513.9 L1727.26 1515.77 L1727.26 1510.98 L1736.55 1509.1 L1741.81 1509.1 L1741.81 1543.56 L1750.41 1543.56 L1750.41 1547.98 L1728.01 1547.98 L1728.01 1543.56 Z" fill="#bebebe" fill-rule="evenodd" fill-opacity="1" /><path clip-path="url(#clip800)" d="M 0 0 M1756.16 1509.1 L1776.81 1509.1 L1776.81 1513.53 L1760.98 1513.53 L1760.98 1523.06 Q1762.13 1522.67 1763.27 1522.49 Q1764.42 1522.28 1765.56 1522.28 Q1772.07 1522.28 1775.88 1525.85 Q1779.68 1529.42 1779.68 1535.51 Q1779.68 1541.79 1775.77 1545.28 Q1771.86 1548.74 1764.76 1548.74 Q1762.31 1548.74 1759.76 1548.32 Q1757.23 1547.91 1754.52 1547.07 L1754.52 1541.79 Q1756.86 1543.06 1759.36 1543.69 Q1761.86 1544.31 1764.65 1544.31 Q1769.16 1544.31 1771.79 1541.94 Q1774.42 1539.57 1774.42 1535.51 Q1774.42 1531.45 1771.79 1529.08 Q1769.16 1526.71 1764.65 1526.71 Q1762.54 1526.71 1760.43 1527.18 Q1758.35 1527.65 1756.16 1528.64 L1756.16 1509.1 Z" fill="#bebebe" fill-rule="evenodd" fill-opacity="1" /><path clip-path="url(#clip800)" d="M 0 0 M2270.22 1543.56 L2288.58 1543.56 L2288.58 1547.98 L2263.89 1547.98 L2263.89 1543.56 Q2266.88 1540.46 2272.04 1535.25 Q2277.22 1530.02 2278.55 1528.5 Q2281.08 1525.67 2282.07 1523.71 Q2283.08 1521.73 2283.08 1519.83 Q2283.08 1516.73 2280.89 1514.78 Q2278.73 1512.83 2275.24 1512.83 Q2272.77 1512.83 2270.01 1513.69 Q2267.27 1514.55 2264.15 1516.29 L2264.15 1510.98 Q2267.33 1509.7 2270.09 1509.05 Q2272.85 1508.4 2275.14 1508.4 Q2281.18 1508.4 2284.77 1511.42 Q2288.37 1514.44 2288.37 1519.49 Q2288.37 1521.89 2287.46 1524.05 Q2286.57 1526.19 2284.2 1529.1 Q2283.55 1529.86 2280.06 1533.48 Q2276.57 1537.07 2270.22 1543.56 Z" fill="#bebebe" fill-rule="evenodd" fill-opacity="1" /><path clip-path="url(#clip800)" d="M 0 0 M2305.53 1512.57 Q2301.47 1512.57 2299.41 1516.58 Q2297.38 1520.56 2297.38 1528.58 Q2297.38 1536.58 2299.41 1540.59 Q2301.47 1544.57 2305.53 1544.57 Q2309.62 1544.57 2311.65 1540.59 Q2313.71 1536.58 2313.71 1528.58 Q2313.71 1520.56 2311.65 1516.58 Q2309.62 1512.57 2305.53 1512.57 M2305.53 1508.4 Q2312.07 1508.4 2315.5 1513.58 Q2318.97 1518.74 2318.97 1528.58 Q2318.97 1538.4 2315.5 1543.58 Q2312.07 1548.74 2305.53 1548.74 Q2298.99 1548.74 2295.53 1543.58 Q2292.09 1538.4 2292.09 1528.58 Q2292.09 1518.74 2295.53 1513.58 Q2298.99 1508.4 2305.53 1508.4 Z" fill="#bebebe" fill-rule="evenodd" fill-opacity="1" /><polyline clip-path="url(#clip802)" style="stroke:#000000; stroke-width:2; stroke-opacity:0.1; fill:none" points="
  185.846,1461.07 2352.76,1461.07 
  "/>
<polyline clip-path="url(#clip802)" style="stroke:#000000; stroke-width:2; stroke-opacity:0.1; fill:none" points="
  185.846,1135.03 2352.76,1135.03 
  "/>
<polyline clip-path="url(#clip802)" style="stroke:#000000; stroke-width:2; stroke-opacity:0.1; fill:none" points="
  185.846,808.986 2352.76,808.986 
  "/>
<polyline clip-path="url(#clip802)" style="stroke:#000000; stroke-width:2; stroke-opacity:0.1; fill:none" points="
  185.846,482.943 2352.76,482.943 
  "/>
<polyline clip-path="url(#clip802)" style="stroke:#000000; stroke-width:2; stroke-opacity:0.1; fill:none" points="
  185.846,156.9 2352.76,156.9 
  "/>
<polyline clip-path="url(#clip800)" style="stroke:#000000; stroke-width:4; stroke-opacity:1; fill:none" points="
  185.846,1482.13 185.846,149.392 
  "/>
<polyline clip-path="url(#clip800)" style="stroke:#000000; stroke-width:4; stroke-opacity:1; fill:none" points="
  185.846,1461.07 211.849,1461.07 
  "/>
<polyline clip-path="url(#clip800)" style="stroke:#000000; stroke-width:4; stroke-opacity:1; fill:none" points="
  185.846,1135.03 211.849,1135.03 
  "/>
<polyline clip-path="url(#clip800)" style="stroke:#000000; stroke-width:4; stroke-opacity:1; fill:none" points="
  185.846,808.986 211.849,808.986 
  "/>
<polyline clip-path="url(#clip800)" style="stroke:#000000; stroke-width:4; stroke-opacity:1; fill:none" points="
  185.846,482.943 211.849,482.943 
  "/>
<polyline clip-path="url(#clip800)" style="stroke:#000000; stroke-width:4; stroke-opacity:1; fill:none" points="
  185.846,156.9 211.849,156.9 
  "/>
<path clip-path="url(#clip800)" d="M 0 0 M64.4296 1445.09 Q60.3671 1445.09 58.3098 1449.11 Q56.2786 1453.09 56.2786 1461.11 Q56.2786 1469.11 58.3098 1473.12 Q60.3671 1477.1 64.4296 1477.1 Q68.5181 1477.1 70.5493 1473.12 Q72.6066 1469.11 72.6066 1461.11 Q72.6066 1453.09 70.5493 1449.11 Q68.5181 1445.09 64.4296 1445.09 M64.4296 1440.93 Q70.966 1440.93 74.4035 1446.11 Q77.867 1451.27 77.867 1461.11 Q77.867 1470.93 74.4035 1476.11 Q70.966 1481.27 64.4296 1481.27 Q57.8931 1481.27 54.4296 1476.11 Q50.9921 1470.93 50.9921 1461.11 Q50.9921 1451.27 54.4296 1446.11 Q57.8931 1440.93 64.4296 1440.93 Z" fill="#bebebe" fill-rule="evenodd" fill-opacity="1" /><path clip-path="url(#clip800)" d="M 0 0 M83.5701 1473.9 L89.0648 1473.9 L89.0648 1480.51 L83.5701 1480.51 L83.5701 1473.9 Z" fill="#bebebe" fill-rule="evenodd" fill-opacity="1" /><path clip-path="url(#clip800)" d="M 0 0 M106.018 1445.09 Q101.955 1445.09 99.8981 1449.11 Q97.8669 1453.09 97.8669 1461.11 Q97.8669 1469.11 99.8981 1473.12 Q101.955 1477.1 106.018 1477.1 Q110.106 1477.1 112.138 1473.12 Q114.195 1469.11 114.195 1461.11 Q114.195 1453.09 112.138 1449.11 Q110.106 1445.09 106.018 1445.09 M106.018 1440.93 Q112.554 1440.93 115.992 1446.11 Q119.455 1451.27 119.455 1461.11 Q119.455 1470.93 115.992 1476.11 Q112.554 1481.27 106.018 1481.27 Q99.4814 1481.27 96.0179 1476.11 Q92.5804 1470.93 92.5804 1461.11 Q92.5804 1451.27 96.0179 1446.11 Q99.4814 1440.93 106.018 1440.93 Z" fill="#bebebe" fill-rule="evenodd" fill-opacity="1" /><path clip-path="url(#clip800)" d="M 0 0 M136.408 1445.09 Q132.346 1445.09 130.289 1449.11 Q128.257 1453.09 128.257 1461.11 Q128.257 1469.11 130.289 1473.12 Q132.346 1477.1 136.408 1477.1 Q140.497 1477.1 142.528 1473.12 Q144.585 1469.11 144.585 1461.11 Q144.585 1453.09 142.528 1449.11 Q140.497 1445.09 136.408 1445.09 M136.408 1440.93 Q142.945 1440.93 146.382 1446.11 Q149.846 1451.27 149.846 1461.11 Q149.846 1470.93 146.382 1476.11 Q142.945 1481.27 136.408 1481.27 Q129.872 1481.27 126.408 1476.11 Q122.971 1470.93 122.971 1461.11 Q122.971 1451.27 126.408 1446.11 Q129.872 1440.93 136.408 1440.93 Z" fill="#bebebe" fill-rule="evenodd" fill-opacity="1" /><path clip-path="url(#clip800)" d="M 0 0 M67.3462 1119.05 Q63.2837 1119.05 61.2264 1123.06 Q59.1952 1127.05 59.1952 1135.07 Q59.1952 1143.06 61.2264 1147.07 Q63.2837 1151.06 67.3462 1151.06 Q71.4347 1151.06 73.466 1147.07 Q75.5232 1143.06 75.5232 1135.07 Q75.5232 1127.05 73.466 1123.06 Q71.4347 1119.05 67.3462 1119.05 M67.3462 1114.89 Q73.8826 1114.89 77.3201 1120.07 Q80.7836 1125.22 80.7836 1135.07 Q80.7836 1144.89 77.3201 1150.07 Q73.8826 1155.22 67.3462 1155.22 Q60.8098 1155.22 57.3463 1150.07 Q53.9088 1144.89 53.9088 1135.07 Q53.9088 1125.22 57.3463 1120.07 Q60.8098 1114.89 67.3462 1114.89 Z" fill="#bebebe" fill-rule="evenodd" fill-opacity="1" /><path clip-path="url(#clip800)" d="M 0 0 M86.4867 1147.85 L91.9815 1147.85 L91.9815 1154.47 L86.4867 1154.47 L86.4867 1147.85 Z" fill="#bebebe" fill-rule="evenodd" fill-opacity="1" /><path clip-path="url(#clip800)" d="M 0 0 M102.216 1150.04 L120.575 1150.04 L120.575 1154.47 L95.8877 1154.47 L95.8877 1150.04 Q98.8825 1146.94 104.039 1141.73 Q109.221 1136.5 110.549 1134.99 Q113.075 1132.15 114.065 1130.2 Q115.08 1128.22 115.08 1126.32 Q115.08 1123.22 112.893 1121.27 Q110.731 1119.31 107.242 1119.31 Q104.768 1119.31 102.007 1120.17 Q99.2731 1121.03 96.1481 1122.78 L96.1481 1117.46 Q99.3252 1116.19 102.086 1115.54 Q104.846 1114.89 107.138 1114.89 Q113.179 1114.89 116.773 1117.91 Q120.367 1120.93 120.367 1125.98 Q120.367 1128.37 119.455 1130.54 Q118.57 1132.67 116.2 1135.59 Q115.549 1136.34 112.06 1139.96 Q108.57 1143.56 102.216 1150.04 Z" fill="#bebebe" fill-rule="evenodd" fill-opacity="1" /><path clip-path="url(#clip800)" d="M 0 0 M126.33 1115.59 L146.981 1115.59 L146.981 1120.02 L131.148 1120.02 L131.148 1129.55 Q132.294 1129.16 133.44 1128.97 Q134.585 1128.77 135.731 1128.77 Q142.242 1128.77 146.044 1132.33 Q149.846 1135.9 149.846 1141.99 Q149.846 1148.27 145.94 1151.76 Q142.033 1155.22 134.924 1155.22 Q132.476 1155.22 129.924 1154.81 Q127.398 1154.39 124.69 1153.56 L124.69 1148.27 Q127.033 1149.55 129.533 1150.17 Q132.033 1150.8 134.82 1150.8 Q139.325 1150.8 141.955 1148.43 Q144.585 1146.06 144.585 1141.99 Q144.585 1137.93 141.955 1135.56 Q139.325 1133.19 134.82 1133.19 Q132.71 1133.19 130.601 1133.66 Q128.518 1134.13 126.33 1135.12 L126.33 1115.59 Z" fill="#bebebe" fill-rule="evenodd" fill-opacity="1" /><path clip-path="url(#clip800)" d="M 0 0 M65.5493 793.009 Q61.4869 793.009 59.4296 797.02 Q57.3983 801.004 57.3983 809.025 Q57.3983 817.02 59.4296 821.03 Q61.4869 825.014 65.5493 825.014 Q69.6379 825.014 71.6691 821.03 Q73.7264 817.02 73.7264 809.025 Q73.7264 801.004 71.6691 797.02 Q69.6379 793.009 65.5493 793.009 M65.5493 788.843 Q72.0858 788.843 75.5232 794.025 Q78.9868 799.181 78.9868 809.025 Q78.9868 818.842 75.5232 824.025 Q72.0858 829.181 65.5493 829.181 Q59.0129 829.181 55.5494 824.025 Q52.1119 818.842 52.1119 809.025 Q52.1119 799.181 55.5494 794.025 Q59.0129 788.843 65.5493 788.843 Z" fill="#bebebe" fill-rule="evenodd" fill-opacity="1" /><path clip-path="url(#clip800)" d="M 0 0 M84.6899 821.811 L90.1846 821.811 L90.1846 828.426 L84.6899 828.426 L84.6899 821.811 Z" fill="#bebebe" fill-rule="evenodd" fill-opacity="1" /><path clip-path="url(#clip800)" d="M 0 0 M95.9398 789.546 L116.591 789.546 L116.591 793.973 L100.757 793.973 L100.757 803.504 Q101.903 803.113 103.049 802.931 Q104.195 802.723 105.341 802.723 Q111.851 802.723 115.653 806.29 Q119.455 809.858 119.455 815.952 Q119.455 822.228 115.549 825.717 Q111.643 829.181 104.534 829.181 Q102.086 829.181 99.5335 828.764 Q97.0075 828.348 94.2992 827.514 L94.2992 822.228 Q96.6429 823.504 99.1429 824.129 Q101.643 824.754 104.429 824.754 Q108.935 824.754 111.565 822.384 Q114.195 820.014 114.195 815.952 Q114.195 811.889 111.565 809.52 Q108.935 807.15 104.429 807.15 Q102.32 807.15 100.211 807.619 Q98.1273 808.087 95.9398 809.077 L95.9398 789.546 Z" fill="#bebebe" fill-rule="evenodd" fill-opacity="1" /><path clip-path="url(#clip800)" d="M 0 0 M136.408 793.009 Q132.346 793.009 130.289 797.02 Q128.257 801.004 128.257 809.025 Q128.257 817.02 130.289 821.03 Q132.346 825.014 136.408 825.014 Q140.497 825.014 142.528 821.03 Q144.585 817.02 144.585 809.025 Q144.585 801.004 142.528 797.02 Q140.497 793.009 136.408 793.009 M136.408 788.843 Q142.945 788.843 146.382 794.025 Q149.846 799.181 149.846 809.025 Q149.846 818.842 146.382 824.025 Q142.945 829.181 136.408 829.181 Q129.872 829.181 126.408 824.025 Q122.971 818.842 122.971 809.025 Q122.971 799.181 126.408 794.025 Q129.872 788.843 136.408 788.843 Z" fill="#bebebe" fill-rule="evenodd" fill-opacity="1" /><path clip-path="url(#clip800)" d="M 0 0 M66.565 466.966 Q62.5025 466.966 60.4452 470.977 Q58.414 474.961 58.414 482.982 Q58.414 490.977 60.4452 494.987 Q62.5025 498.972 66.565 498.972 Q70.6535 498.972 72.6847 494.987 Q74.742 490.977 74.742 482.982 Q74.742 474.961 72.6847 470.977 Q70.6535 466.966 66.565 466.966 M66.565 462.8 Q73.1014 462.8 76.5389 467.982 Q80.0024 473.138 80.0024 482.982 Q80.0024 492.8 76.5389 497.982 Q73.1014 503.138 66.565 503.138 Q60.0285 503.138 56.565 497.982 Q53.1275 492.8 53.1275 482.982 Q53.1275 473.138 56.565 467.982 Q60.0285 462.8 66.565 462.8 Z" fill="#bebebe" fill-rule="evenodd" fill-opacity="1" /><path clip-path="url(#clip800)" d="M 0 0 M85.7055 495.768 L91.2002 495.768 L91.2002 502.383 L85.7055 502.383 L85.7055 495.768 Z" fill="#bebebe" fill-rule="evenodd" fill-opacity="1" /><path clip-path="url(#clip800)" d="M 0 0 M95.5752 463.503 L120.575 463.503 L120.575 465.743 L106.461 502.383 L100.966 502.383 L114.247 467.93 L95.5752 467.93 L95.5752 463.503 Z" fill="#bebebe" fill-rule="evenodd" fill-opacity="1" /><path clip-path="url(#clip800)" d="M 0 0 M126.33 463.503 L146.981 463.503 L146.981 467.93 L131.148 467.93 L131.148 477.461 Q132.294 477.071 133.44 476.888 Q134.585 476.68 135.731 476.68 Q142.242 476.68 146.044 480.248 Q149.846 483.815 149.846 489.909 Q149.846 496.185 145.94 499.675 Q142.033 503.138 134.924 503.138 Q132.476 503.138 129.924 502.722 Q127.398 502.305 124.69 501.472 L124.69 496.185 Q127.033 497.461 129.533 498.086 Q132.033 498.711 134.82 498.711 Q139.325 498.711 141.955 496.341 Q144.585 493.972 144.585 489.909 Q144.585 485.847 141.955 483.477 Q139.325 481.107 134.82 481.107 Q132.71 481.107 130.601 481.576 Q128.518 482.045 126.33 483.034 L126.33 463.503 Z" fill="#bebebe" fill-rule="evenodd" fill-opacity="1" /><path clip-path="url(#clip800)" d="M 0 0 M55.4713 171.913 L64.065 171.913 L64.065 142.252 L54.7161 144.127 L54.7161 139.335 L64.0129 137.46 L69.2733 137.46 L69.2733 171.913 L77.867 171.913 L77.867 176.34 L55.4713 176.34 L55.4713 171.913 Z" fill="#bebebe" fill-rule="evenodd" fill-opacity="1" /><path clip-path="url(#clip800)" d="M 0 0 M83.5701 169.726 L89.0648 169.726 L89.0648 176.34 L83.5701 176.34 L83.5701 169.726 Z" fill="#bebebe" fill-rule="evenodd" fill-opacity="1" /><path clip-path="url(#clip800)" d="M 0 0 M106.018 140.924 Q101.955 140.924 99.8981 144.934 Q97.8669 148.918 97.8669 156.939 Q97.8669 164.934 99.8981 168.944 Q101.955 172.929 106.018 172.929 Q110.106 172.929 112.138 168.944 Q114.195 164.934 114.195 156.939 Q114.195 148.918 112.138 144.934 Q110.106 140.924 106.018 140.924 M106.018 136.757 Q112.554 136.757 115.992 141.939 Q119.455 147.096 119.455 156.939 Q119.455 166.757 115.992 171.939 Q112.554 177.095 106.018 177.095 Q99.4814 177.095 96.0179 171.939 Q92.5804 166.757 92.5804 156.939 Q92.5804 147.096 96.0179 141.939 Q99.4814 136.757 106.018 136.757 Z" fill="#bebebe" fill-rule="evenodd" fill-opacity="1" /><path clip-path="url(#clip800)" d="M 0 0 M136.408 140.924 Q132.346 140.924 130.289 144.934 Q128.257 148.918 128.257 156.939 Q128.257 164.934 130.289 168.944 Q132.346 172.929 136.408 172.929 Q140.497 172.929 142.528 168.944 Q144.585 164.934 144.585 156.939 Q144.585 148.918 142.528 144.934 Q140.497 140.924 136.408 140.924 M136.408 136.757 Q142.945 136.757 146.382 141.939 Q149.846 147.096 149.846 156.939 Q149.846 166.757 146.382 171.939 Q142.945 177.095 136.408 177.095 Q129.872 177.095 126.408 171.939 Q122.971 166.757 122.971 156.939 Q122.971 147.096 126.408 141.939 Q129.872 136.757 136.408 136.757 Z" fill="#bebebe" fill-rule="evenodd" fill-opacity="1" /><path clip-path="url(#clip800)" d="M 0 0 M963.429 20.1156 L963.429 31.516 Q956.774 28.3332 950.871 26.7707 Q944.968 25.2082 939.47 25.2082 Q929.922 25.2082 924.714 28.9119 Q919.563 32.6156 919.563 39.4442 Q919.563 45.1734 922.977 48.1247 Q926.45 51.0182 936.056 52.8122 L943.116 54.259 Q956.195 56.7474 962.387 63.0552 Q968.637 69.3052 968.637 79.8375 Q968.637 92.3953 960.188 98.8768 Q951.797 105.358 935.535 105.358 Q929.401 105.358 922.457 103.969 Q915.57 102.58 908.163 99.8606 L908.163 87.8236 Q915.281 91.8166 922.109 93.8421 Q928.938 95.8675 935.535 95.8675 Q945.547 95.8675 950.987 91.9324 Q956.426 87.9972 956.426 80.7056 Q956.426 74.3399 952.491 70.7519 Q948.614 67.164 939.702 65.37 L932.584 63.9811 Q919.505 61.377 913.66 55.8215 Q907.816 50.2659 907.816 40.3702 Q907.816 28.9119 915.859 22.3147 Q923.961 15.7175 938.139 15.7175 Q944.216 15.7175 950.524 16.817 Q956.831 17.9166 963.429 20.1156 Z" fill="#bebebe" fill-rule="evenodd" fill-opacity="1" /><path clip-path="url(#clip800)" d="M 0 0 M1035.25 68.6107 L1035.25 73.819 L986.287 73.819 Q986.982 84.8144 992.884 90.6014 Q998.845 96.3305 1009.44 96.3305 Q1015.57 96.3305 1021.3 94.8259 Q1027.09 93.3213 1032.76 90.312 L1032.76 100.381 Q1027.03 102.812 1021.01 104.085 Q1014.99 105.358 1008.8 105.358 Q993.29 105.358 984.204 96.3305 Q975.176 87.3028 975.176 71.9093 Q975.176 55.9951 983.741 46.678 Q992.364 37.303 1006.95 37.303 Q1020.03 37.303 1027.61 45.7521 Q1035.25 54.1432 1035.25 68.6107 M1024.6 65.4858 Q1024.48 56.7474 1019.68 51.5391 Q1014.93 46.3308 1007.06 46.3308 Q998.151 46.3308 992.769 51.3655 Q987.445 56.4002 986.635 65.5436 L1024.6 65.4858 Z" fill="#bebebe" fill-rule="evenodd" fill-opacity="1" /><path clip-path="url(#clip800)" d="M 0 0 M1083.97 48.8192 Q1082.18 47.7775 1080.04 47.3146 Q1077.95 46.7937 1075.41 46.7937 Q1066.38 46.7937 1061.52 52.6965 Q1056.72 58.5414 1056.72 69.5367 L1056.72 103.68 L1046.01 103.68 L1046.01 38.8655 L1056.72 38.8655 L1056.72 48.9349 Q1060.07 43.0322 1065.45 40.1965 Q1070.84 37.303 1078.53 37.303 Q1079.63 37.303 1080.96 37.4767 Q1082.29 37.5924 1083.91 37.8817 L1083.97 48.8192 Z" fill="#bebebe" fill-rule="evenodd" fill-opacity="1" /><path clip-path="url(#clip800)" d="M 0 0 M1095.14 38.8655 L1105.79 38.8655 L1105.79 103.68 L1095.14 103.68 L1095.14 38.8655 M1095.14 13.6342 L1105.79 13.6342 L1105.79 27.1179 L1095.14 27.1179 L1095.14 13.6342 Z" fill="#bebebe" fill-rule="evenodd" fill-opacity="1" /><path clip-path="url(#clip800)" d="M 0 0 M1172.4 68.6107 L1172.4 73.819 L1123.44 73.819 Q1124.13 84.8144 1130.04 90.6014 Q1136 96.3305 1146.59 96.3305 Q1152.72 96.3305 1158.45 94.8259 Q1164.24 93.3213 1169.91 90.312 L1169.91 100.381 Q1164.18 102.812 1158.16 104.085 Q1152.14 105.358 1145.95 105.358 Q1130.44 105.358 1121.36 96.3305 Q1112.33 87.3028 1112.33 71.9093 Q1112.33 55.9951 1120.89 46.678 Q1129.52 37.303 1144.1 37.303 Q1157.18 37.303 1164.76 45.7521 Q1172.4 54.1432 1172.4 68.6107 M1161.75 65.4858 Q1161.63 56.7474 1156.83 51.5391 Q1152.09 46.3308 1144.21 46.3308 Q1135.3 46.3308 1129.92 51.3655 Q1124.6 56.4002 1123.79 65.5436 L1161.75 65.4858 Z" fill="#bebebe" fill-rule="evenodd" fill-opacity="1" /><path clip-path="url(#clip800)" d="M 0 0 M1231.31 17.28 L1231.31 49.3979 L1221.47 49.3979 L1221.47 17.28 L1231.31 17.28 Z" fill="#bebebe" fill-rule="evenodd" fill-opacity="1" /><path clip-path="url(#clip800)" d="M 0 0 M1283.8 40.7752 L1283.8 50.8446 Q1279.28 48.5298 1274.42 47.3724 Q1269.56 46.215 1264.35 46.215 Q1256.42 46.215 1252.43 48.6456 Q1248.5 51.0761 1248.5 55.9372 Q1248.5 59.6409 1251.33 61.7821 Q1254.17 63.8654 1262.73 65.7751 L1266.38 66.5853 Q1277.72 69.0158 1282.47 73.4718 Q1287.27 77.87 1287.27 85.7982 Q1287.27 94.8259 1280.09 100.092 Q1272.98 105.358 1260.48 105.358 Q1255.27 105.358 1249.6 104.317 Q1243.98 103.333 1237.73 101.307 L1237.73 90.312 Q1243.64 93.3791 1249.36 94.9416 Q1255.09 96.4462 1260.71 96.4462 Q1268.23 96.4462 1272.28 93.9 Q1276.33 91.2958 1276.33 86.6083 Q1276.33 82.2681 1273.38 79.9533 Q1270.49 77.6385 1260.59 75.4973 L1256.89 74.6292 Q1246.99 72.5459 1242.59 68.2635 Q1238.2 63.9233 1238.2 56.4002 Q1238.2 47.2567 1244.68 42.2799 Q1251.16 37.303 1263.08 37.303 Q1268.98 37.303 1274.19 38.1711 Q1279.4 39.0391 1283.8 40.7752 Z" fill="#bebebe" fill-rule="evenodd" fill-opacity="1" /><path clip-path="url(#clip800)" d="M 0 0 M1345.08 41.3539 L1345.08 51.3076 Q1340.57 48.8192 1336 47.6039 Q1331.48 46.3308 1326.85 46.3308 Q1316.49 46.3308 1310.76 52.928 Q1305.04 59.4673 1305.04 71.3306 Q1305.04 83.194 1310.76 89.7912 Q1316.49 96.3305 1326.85 96.3305 Q1331.48 96.3305 1336 95.1152 Q1340.57 93.8421 1345.08 91.3537 L1345.08 101.192 Q1340.63 103.275 1335.82 104.317 Q1331.08 105.358 1325.7 105.358 Q1311.05 105.358 1302.43 96.1569 Q1293.81 86.9556 1293.81 71.3306 Q1293.81 55.4742 1302.49 46.3886 Q1311.23 37.303 1326.39 37.303 Q1331.31 37.303 1336 38.3447 Q1340.68 39.3285 1345.08 41.3539 Z" fill="#bebebe" fill-rule="evenodd" fill-opacity="1" /><path clip-path="url(#clip800)" d="M 0 0 M1385.71 71.0992 Q1372.8 71.0992 1367.82 74.0505 Q1362.85 77.0019 1362.85 84.1199 Q1362.85 89.7912 1366.55 93.1476 Q1370.31 96.4462 1376.74 96.4462 Q1385.59 96.4462 1390.91 90.1963 Q1396.3 83.8884 1396.3 73.4718 L1396.3 71.0992 L1385.71 71.0992 M1406.94 66.701 L1406.94 103.68 L1396.3 103.68 L1396.3 93.8421 Q1392.65 99.7448 1387.21 102.58 Q1381.77 105.358 1373.9 105.358 Q1363.95 105.358 1358.04 99.8027 Q1352.2 94.1893 1352.2 84.8144 Q1352.2 73.8769 1359.49 68.3214 Q1366.84 62.7659 1381.37 62.7659 L1396.3 62.7659 L1396.3 61.7242 Q1396.3 54.3747 1391.44 50.3817 Q1386.63 46.3308 1377.89 46.3308 Q1372.34 46.3308 1367.07 47.6618 Q1361.81 48.9928 1356.95 51.6548 L1356.95 41.8169 Q1362.79 39.56 1368.29 38.4604 Q1373.79 37.303 1378.99 37.303 Q1393.06 37.303 1400 44.5947 Q1406.94 51.8863 1406.94 66.701 Z" fill="#bebebe" fill-rule="evenodd" fill-opacity="1" /><path clip-path="url(#clip800)" d="M 0 0 M1428.65 20.4629 L1428.65 38.8655 L1450.58 38.8655 L1450.58 47.141 L1428.65 47.141 L1428.65 82.3259 Q1428.65 90.2541 1430.79 92.5111 Q1432.99 94.768 1439.64 94.768 L1450.58 94.768 L1450.58 103.68 L1439.64 103.68 Q1427.32 103.68 1422.63 99.1083 Q1417.94 94.4787 1417.94 82.3259 L1417.94 47.141 L1410.13 47.141 L1410.13 38.8655 L1417.94 38.8655 L1417.94 20.4629 L1428.65 20.4629 Z" fill="#bebebe" fill-rule="evenodd" fill-opacity="1" /><path clip-path="url(#clip800)" d="M 0 0 M1472.28 20.4629 L1472.28 38.8655 L1494.21 38.8655 L1494.21 47.141 L1472.28 47.141 L1472.28 82.3259 Q1472.28 90.2541 1474.42 92.5111 Q1476.62 94.768 1483.28 94.768 L1494.21 94.768 L1494.21 103.68 L1483.28 103.68 Q1470.95 103.68 1466.26 99.1083 Q1461.57 94.4787 1461.57 82.3259 L1461.57 47.141 L1453.76 47.141 L1453.76 38.8655 L1461.57 38.8655 L1461.57 20.4629 L1472.28 20.4629 Z" fill="#bebebe" fill-rule="evenodd" fill-opacity="1" /><path clip-path="url(#clip800)" d="M 0 0 M1560.82 68.6107 L1560.82 73.819 L1511.86 73.819 Q1512.56 84.8144 1518.46 90.6014 Q1524.42 96.3305 1535.01 96.3305 Q1541.15 96.3305 1546.87 94.8259 Q1552.66 93.3213 1558.33 90.312 L1558.33 100.381 Q1552.6 102.812 1546.59 104.085 Q1540.57 105.358 1534.37 105.358 Q1518.87 105.358 1509.78 96.3305 Q1500.75 87.3028 1500.75 71.9093 Q1500.75 55.9951 1509.32 46.678 Q1517.94 37.303 1532.52 37.303 Q1545.6 37.303 1553.18 45.7521 Q1560.82 54.1432 1560.82 68.6107 M1550.17 65.4858 Q1550.06 56.7474 1545.25 51.5391 Q1540.51 46.3308 1532.64 46.3308 Q1523.73 46.3308 1518.34 51.3655 Q1513.02 56.4002 1512.21 65.5436 L1550.17 65.4858 Z" fill="#bebebe" fill-rule="evenodd" fill-opacity="1" /><path clip-path="url(#clip800)" d="M 0 0 M1609.55 48.8192 Q1607.75 47.7775 1605.61 47.3146 Q1603.53 46.7937 1600.98 46.7937 Q1591.96 46.7937 1587.09 52.6965 Q1582.29 58.5414 1582.29 69.5367 L1582.29 103.68 L1571.59 103.68 L1571.59 38.8655 L1582.29 38.8655 L1582.29 48.9349 Q1585.65 43.0322 1591.03 40.1965 Q1596.41 37.303 1604.11 37.303 Q1605.21 37.303 1606.54 37.4767 Q1607.87 37.5924 1609.49 37.8817 L1609.55 48.8192 Z" fill="#bebebe" fill-rule="evenodd" fill-opacity="1" /><path clip-path="url(#clip800)" d="M 0 0 M1630.79 17.28 L1630.79 49.3979 L1620.95 49.3979 L1620.95 17.28 L1630.79 17.28 Z" fill="#bebebe" fill-rule="evenodd" fill-opacity="1" /><path clip-path="url(#clip802)" d="M247.173 903.291 L244.353 911.403 L235.761 911.583 L242.613 916.779 L240.117 924.999 L247.173 920.091 L254.229 924.999 L251.733 916.779 L258.585 911.583 L249.993 911.403 L247.173 903.291 Z" fill="#ffa500" fill-rule="evenodd" fill-opacity="0.5" stroke="#ff0000" stroke-opacity="0.5" stroke-width="3.2"/>
<path clip-path="url(#clip802)" d="M354.766 1379.19 L351.946 1387.3 L343.354 1387.48 L350.206 1392.67 L347.71 1400.89 L354.766 1395.99 L361.822 1400.89 L359.326 1392.67 L366.178 1387.48 L357.586 1387.3 L354.766 1379.19 Z" fill="#ffa500" fill-rule="evenodd" fill-opacity="0.5" stroke="#ff0000" stroke-opacity="0.5" stroke-width="3.2"/>
<path clip-path="url(#clip802)" d="M462.358 1154.4 L459.538 1162.51 L450.946 1162.69 L457.798 1167.89 L455.302 1176.11 L462.358 1171.2 L469.414 1176.11 L466.918 1167.89 L473.77 1162.69 L465.178 1162.51 L462.358 1154.4 Z" fill="#ffa500" fill-rule="evenodd" fill-opacity="0.5" stroke="#ff0000" stroke-opacity="0.5" stroke-width="3.2"/>
<path clip-path="url(#clip802)" d="M569.95 968.671 L567.13 976.783 L558.538 976.963 L565.39 982.159 L562.894 990.379 L569.95 985.471 L577.006 990.379 L574.51 982.159 L581.362 976.963 L572.77 976.783 L569.95 968.671 Z" fill="#ffa500" fill-rule="evenodd" fill-opacity="0.5" stroke="#ff0000" stroke-opacity="0.5" stroke-width="3.2"/>
<path clip-path="url(#clip802)" d="M677.543 1145.27 L674.723 1153.38 L666.131 1153.56 L672.983 1158.76 L670.487 1166.98 L677.543 1162.07 L684.599 1166.98 L682.103 1158.76 L688.955 1153.56 L680.363 1153.38 L677.543 1145.27 Z" fill="#ffa500" fill-rule="evenodd" fill-opacity="0.5" stroke="#ff0000" stroke-opacity="0.5" stroke-width="3.2"/>
<path clip-path="url(#clip802)" d="M785.135 979.282 L782.315 987.394 L773.723 987.574 L780.575 992.77 L778.079 1000.99 L785.135 996.082 L792.191 1000.99 L789.695 992.77 L796.547 987.574 L787.955 987.394 L785.135 979.282 Z" fill="#ffa500" fill-rule="evenodd" fill-opacity="0.5" stroke="#ff0000" stroke-opacity="0.5" stroke-width="3.2"/>
<path clip-path="url(#clip802)" d="M892.728 566.574 L889.908 574.686 L881.316 574.866 L888.168 580.062 L885.672 588.282 L892.728 583.374 L899.784 588.282 L897.288 580.062 L904.14 574.866 L895.548 574.686 L892.728 566.574 Z" fill="#ffa500" fill-rule="evenodd" fill-opacity="0.5" stroke="#ff0000" stroke-opacity="0.5" stroke-width="3.2"/>
<path clip-path="url(#clip802)" d="M1000.32 280.75 L997.5 288.862 L988.908 289.042 L995.76 294.238 L993.264 302.458 L1000.32 297.55 L1007.38 302.458 L1004.88 294.238 L1011.73 289.042 L1003.14 288.862 L1000.32 280.75 Z" fill="#ffa500" fill-rule="evenodd" fill-opacity="0.5" stroke="#ff0000" stroke-opacity="0.5" stroke-width="3.2"/>
<path clip-path="url(#clip802)" d="M1107.91 269.435 L1105.09 277.547 L1096.5 277.727 L1103.35 282.923 L1100.86 291.143 L1107.91 286.235 L1114.97 291.143 L1112.47 282.923 L1119.32 277.727 L1110.73 277.547 L1107.91 269.435 Z" fill="#ffa500" fill-rule="evenodd" fill-opacity="0.5" stroke="#ff0000" stroke-opacity="0.5" stroke-width="3.2"/>
<path clip-path="url(#clip802)" d="M1215.5 431.177 L1212.68 439.289 L1204.09 439.469 L1210.94 444.665 L1208.45 452.885 L1215.5 447.977 L1222.56 452.885 L1220.06 444.665 L1226.92 439.469 L1218.32 439.289 L1215.5 431.177 Z" fill="#ffa500" fill-rule="evenodd" fill-opacity="0.5" stroke="#ff0000" stroke-opacity="0.5" stroke-width="3.2"/>
<path clip-path="url(#clip802)" d="M1323.1 906.098 L1320.28 914.21 L1311.69 914.39 L1318.54 919.586 L1316.04 927.806 L1323.1 922.898 L1330.15 927.806 L1327.66 919.586 L1334.51 914.39 L1325.92 914.21 L1323.1 906.098 Z" fill="#ffa500" fill-rule="evenodd" fill-opacity="0.5" stroke="#ff0000" stroke-opacity="0.5" stroke-width="3.2"/>
<path clip-path="url(#clip802)" d="M1430.69 941.48 L1427.87 949.592 L1419.28 949.772 L1426.13 954.968 L1423.63 963.188 L1430.69 958.28 L1437.75 963.188 L1435.25 954.968 L1442.1 949.772 L1433.51 949.592 L1430.69 941.48 Z" fill="#ffa500" fill-rule="evenodd" fill-opacity="0.5" stroke="#ff0000" stroke-opacity="0.5" stroke-width="3.2"/>
<path clip-path="url(#clip802)" d="M1538.28 1008.98 L1535.46 1017.09 L1526.87 1017.27 L1533.72 1022.47 L1531.23 1030.69 L1538.28 1025.78 L1545.34 1030.69 L1542.84 1022.47 L1549.69 1017.27 L1541.1 1017.09 L1538.28 1008.98 Z" fill="#ffa500" fill-rule="evenodd" fill-opacity="0.5" stroke="#ff0000" stroke-opacity="0.5" stroke-width="3.2"/>
<path clip-path="url(#clip802)" d="M1645.87 637.034 L1643.05 645.146 L1634.46 645.326 L1641.31 650.522 L1638.82 658.742 L1645.87 653.834 L1652.93 658.742 L1650.43 650.522 L1657.29 645.326 L1648.69 645.146 L1645.87 637.034 Z" fill="#ffa500" fill-rule="evenodd" fill-opacity="0.5" stroke="#ff0000" stroke-opacity="0.5" stroke-width="3.2"/>
<path clip-path="url(#clip802)" d="M1753.47 1078.26 L1750.65 1086.37 L1742.05 1086.55 L1748.91 1091.74 L1746.41 1099.96 L1753.47 1095.06 L1760.52 1099.96 L1758.03 1091.74 L1764.88 1086.55 L1756.29 1086.37 L1753.47 1078.26 Z" fill="#ffa500" fill-rule="evenodd" fill-opacity="0.5" stroke="#ff0000" stroke-opacity="0.5" stroke-width="3.2"/>
<path clip-path="url(#clip802)" d="M1861.06 316.602 L1858.24 324.714 L1849.65 324.894 L1856.5 330.09 L1854 338.31 L1861.06 333.402 L1868.11 338.31 L1865.62 330.09 L1872.47 324.894 L1863.88 324.714 L1861.06 316.602 Z" fill="#ffa500" fill-rule="evenodd" fill-opacity="0.5" stroke="#ff0000" stroke-opacity="0.5" stroke-width="3.2"/>
<path clip-path="url(#clip802)" d="M1968.65 1189.84 L1965.83 1197.95 L1957.24 1198.13 L1964.09 1203.32 L1961.6 1211.54 L1968.65 1206.64 L1975.71 1211.54 L1973.21 1203.32 L1980.06 1198.13 L1971.47 1197.95 L1968.65 1189.84 Z" fill="#ffa500" fill-rule="evenodd" fill-opacity="0.5" stroke="#ff0000" stroke-opacity="0.5" stroke-width="3.2"/>
<path clip-path="url(#clip802)" d="M2076.24 523.077 L2073.42 531.189 L2064.83 531.369 L2071.68 536.565 L2069.19 544.785 L2076.24 539.877 L2083.3 544.785 L2080.8 536.565 L2087.66 531.369 L2079.06 531.189 L2076.24 523.077 Z" fill="#ffa500" fill-rule="evenodd" fill-opacity="0.5" stroke="#ff0000" stroke-opacity="0.5" stroke-width="3.2"/>
<path clip-path="url(#clip802)" d="M2183.84 588.763 L2181.02 596.875 L2172.42 597.055 L2179.28 602.251 L2176.78 610.471 L2183.84 605.563 L2190.89 610.471 L2188.4 602.251 L2195.25 597.055 L2186.66 596.875 L2183.84 588.763 Z" fill="#ffa500" fill-rule="evenodd" fill-opacity="0.5" stroke="#ff0000" stroke-opacity="0.5" stroke-width="3.2"/>
<path clip-path="url(#clip802)" d="M2291.43 371.286 L2288.61 379.398 L2280.02 379.578 L2286.87 384.774 L2284.37 392.994 L2291.43 388.086 L2298.48 392.994 L2295.99 384.774 L2302.84 379.578 L2294.25 379.398 L2291.43 371.286 Z" fill="#ffa500" fill-rule="evenodd" fill-opacity="0.5" stroke="#ff0000" stroke-opacity="0.5" stroke-width="3.2"/>
<path clip-path="url(#clip802)" d="M247.173 629.172 L219.173 657.172 L247.173 685.172 L275.173 657.172 L247.173 629.172 Z" fill="#008000" fill-rule="evenodd" fill-opacity="1" stroke="#ff0000" stroke-opacity="1" stroke-width="3.2"/>
<path clip-path="url(#clip802)" d="M354.766 752.009 L326.766 780.009 L354.766 808.009 L382.766 780.009 L354.766 752.009 Z" fill="#008000" fill-rule="evenodd" fill-opacity="1" stroke="#ff0000" stroke-opacity="1" stroke-width="3.2"/>
<path clip-path="url(#clip802)" d="M462.358 1258.79 L434.358 1286.79 L462.358 1314.79 L490.358 1286.79 L462.358 1258.79 Z" fill="#008000" fill-rule="evenodd" fill-opacity="1" stroke="#ff0000" stroke-opacity="1" stroke-width="3.2"/>
<path clip-path="url(#clip802)" d="M569.95 1064.81 L541.95 1092.81 L569.95 1120.81 L597.95 1092.81 L569.95 1064.81 Z" fill="#008000" fill-rule="evenodd" fill-opacity="1" stroke="#ff0000" stroke-opacity="1" stroke-width="3.2"/>
<path clip-path="url(#clip802)" d="M677.543 476.159 L649.543 504.159 L677.543 532.159 L705.543 504.159 L677.543 476.159 Z" fill="#008000" fill-rule="evenodd" fill-opacity="1" stroke="#ff0000" stroke-opacity="1" stroke-width="3.2"/>
<path clip-path="url(#clip802)" d="M785.135 725.505 L757.135 753.505 L785.135 781.505 L813.135 753.505 L785.135 725.505 Z" fill="#008000" fill-rule="evenodd" fill-opacity="1" stroke="#ff0000" stroke-opacity="1" stroke-width="3.2"/>
<path clip-path="url(#clip802)" d="M892.728 408.237 L864.728 436.237 L892.728 464.237 L920.728 436.237 L892.728 408.237 Z" fill="#008000" fill-rule="evenodd" fill-opacity="1" stroke="#ff0000" stroke-opacity="1" stroke-width="3.2"/>
<path clip-path="url(#clip802)" d="M1000.32 870.364 L972.32 898.364 L1000.32 926.364 L1028.32 898.364 L1000.32 870.364 Z" fill="#008000" fill-rule="evenodd" fill-opacity="1" stroke="#ff0000" stroke-opacity="1" stroke-width="3.2"/>
<path clip-path="url(#clip802)" d="M1107.91 855.198 L1079.91 883.198 L1107.91 911.198 L1135.91 883.198 L1107.91 855.198 Z" fill="#008000" fill-rule="evenodd" fill-opacity="1" stroke="#ff0000" stroke-opacity="1" stroke-width="3.2"/>
<path clip-path="url(#clip802)" d="M1215.5 1339.39 L1187.5 1367.39 L1215.5 1395.39 L1243.5 1367.39 L1215.5 1339.39 Z" fill="#008000" fill-rule="evenodd" fill-opacity="1" stroke="#ff0000" stroke-opacity="1" stroke-width="3.2"/>
<path clip-path="url(#clip802)" d="M1323.1 472.774 L1295.1 500.774 L1323.1 528.774 L1351.1 500.774 L1323.1 472.774 Z" fill="#008000" fill-rule="evenodd" fill-opacity="1" stroke="#ff0000" stroke-opacity="1" stroke-width="3.2"/>
<path clip-path="url(#clip802)" d="M1430.69 1118.13 L1402.69 1146.13 L1430.69 1174.13 L1458.69 1146.13 L1430.69 1118.13 Z" fill="#008000" fill-rule="evenodd" fill-opacity="1" stroke="#ff0000" stroke-opacity="1" stroke-width="3.2"/>
<path clip-path="url(#clip802)" d="M1538.28 161.554 L1510.28 189.554 L1538.28 217.554 L1566.28 189.554 L1538.28 161.554 Z" fill="#008000" fill-rule="evenodd" fill-opacity="1" stroke="#ff0000" stroke-opacity="1" stroke-width="3.2"/>
<path clip-path="url(#clip802)" d="M1645.87 1075.23 L1617.87 1103.23 L1645.87 1131.23 L1673.87 1103.23 L1645.87 1075.23 Z" fill="#008000" fill-rule="evenodd" fill-opacity="1" stroke="#ff0000" stroke-opacity="1" stroke-width="3.2"/>
<path clip-path="url(#clip802)" d="M1753.47 743.798 L1725.47 771.798 L1753.47 799.798 L1781.47 771.798 L1753.47 743.798 Z" fill="#008000" fill-rule="evenodd" fill-opacity="1" stroke="#ff0000" stroke-opacity="1" stroke-width="3.2"/>
<path clip-path="url(#clip802)" d="M1861.06 560.068 L1833.06 588.068 L1861.06 616.068 L1889.06 588.068 L1861.06 560.068 Z" fill="#008000" fill-rule="evenodd" fill-opacity="1" stroke="#ff0000" stroke-opacity="1" stroke-width="3.2"/>
<path clip-path="url(#clip802)" d="M1968.65 281.482 L1940.65 309.482 L1968.65 337.482 L1996.65 309.482 L1968.65 281.482 Z" fill="#008000" fill-rule="evenodd" fill-opacity="1" stroke="#ff0000" stroke-opacity="1" stroke-width="3.2"/>
<path clip-path="url(#clip802)" d="M2076.24 317.473 L2048.24 345.473 L2076.24 373.473 L2104.24 345.473 L2076.24 317.473 Z" fill="#008000" fill-rule="evenodd" fill-opacity="1" stroke="#ff0000" stroke-opacity="1" stroke-width="3.2"/>
<path clip-path="url(#clip802)" d="M2183.84 413.492 L2155.84 441.492 L2183.84 469.492 L2211.84 441.492 L2183.84 413.492 Z" fill="#008000" fill-rule="evenodd" fill-opacity="1" stroke="#ff0000" stroke-opacity="1" stroke-width="3.2"/>
<path clip-path="url(#clip802)" d="M2291.43 1416.41 L2263.43 1444.41 L2291.43 1472.41 L2319.43 1444.41 L2291.43 1416.41 Z" fill="#008000" fill-rule="evenodd" fill-opacity="1" stroke="#ff0000" stroke-opacity="1" stroke-width="3.2"/>
<path clip-path="url(#clip802)" d="M208.773 187.111 L266.373 220.711 L266.373 153.511 L208.773 187.111 Z" fill="#00008b" fill-rule="evenodd" fill-opacity="0.2" stroke="#ff0000" stroke-opacity="0.2" stroke-width="3.2"/>
<path clip-path="url(#clip802)" d="M316.366 451.068 L373.966 484.668 L373.966 417.468 L316.366 451.068 Z" fill="#00008b" fill-rule="evenodd" fill-opacity="0.2" stroke="#ff0000" stroke-opacity="0.2" stroke-width="3.2"/>
<path clip-path="url(#clip802)" d="M423.958 330.522 L481.558 364.122 L481.558 296.922 L423.958 330.522 Z" fill="#00008b" fill-rule="evenodd" fill-opacity="0.2" stroke="#ff0000" stroke-opacity="0.2" stroke-width="3.2"/>
<path clip-path="url(#clip802)" d="M531.55 579.449 L589.15 613.049 L589.15 545.849 L531.55 579.449 Z" fill="#00008b" fill-rule="evenodd" fill-opacity="0.2" stroke="#ff0000" stroke-opacity="0.2" stroke-width="3.2"/>
<path clip-path="url(#clip802)" d="M639.143 642.745 L696.743 676.345 L696.743 609.145 L639.143 642.745 Z" fill="#00008b" fill-rule="evenodd" fill-opacity="0.2" stroke="#ff0000" stroke-opacity="0.2" stroke-width="3.2"/>
<path clip-path="url(#clip802)" d="M746.735 559.663 L804.335 593.263 L804.335 526.063 L746.735 559.663 Z" fill="#00008b" fill-rule="evenodd" fill-opacity="0.2" stroke="#ff0000" stroke-opacity="0.2" stroke-width="3.2"/>
<path clip-path="url(#clip802)" d="M854.328 996.268 L911.928 1029.87 L911.928 962.668 L854.328 996.268 Z" fill="#00008b" fill-rule="evenodd" fill-opacity="0.2" stroke="#ff0000" stroke-opacity="0.2" stroke-width="3.2"/>
<path clip-path="url(#clip802)" d="M961.92 358.102 L1019.52 391.702 L1019.52 324.502 L961.92 358.102 Z" fill="#00008b" fill-rule="evenodd" fill-opacity="0.2" stroke="#ff0000" stroke-opacity="0.2" stroke-width="3.2"/>
<path clip-path="url(#clip802)" d="M1069.51 1303.13 L1127.11 1336.73 L1127.11 1269.53 L1069.51 1303.13 Z" fill="#00008b" fill-rule="evenodd" fill-opacity="0.2" stroke="#ff0000" stroke-opacity="0.2" stroke-width="3.2"/>
<path clip-path="url(#clip802)" d="M1177.1 288.508 L1234.7 322.108 L1234.7 254.908 L1177.1 288.508 Z" fill="#00008b" fill-rule="evenodd" fill-opacity="0.2" stroke="#ff0000" stroke-opacity="0.2" stroke-width="3.2"/>
<path clip-path="url(#clip802)" d="M1284.7 1143.71 L1342.3 1177.31 L1342.3 1110.11 L1284.7 1143.71 Z" fill="#00008b" fill-rule="evenodd" fill-opacity="0.2" stroke="#ff0000" stroke-opacity="0.2" stroke-width="3.2"/>
<path clip-path="url(#clip802)" d="M1392.29 1404.2 L1449.89 1437.8 L1449.89 1370.6 L1392.29 1404.2 Z" fill="#00008b" fill-rule="evenodd" fill-opacity="0.2" stroke="#ff0000" stroke-opacity="0.2" stroke-width="3.2"/>
<path clip-path="url(#clip802)" d="M1499.88 263.284 L1557.48 296.884 L1557.48 229.684 L1499.88 263.284 Z" fill="#00008b" fill-rule="evenodd" fill-opacity="0.2" stroke="#ff0000" stroke-opacity="0.2" stroke-width="3.2"/>
<path clip-path="url(#clip802)" d="M1607.47 340.931 L1665.07 374.531 L1665.07 307.331 L1607.47 340.931 Z" fill="#00008b" fill-rule="evenodd" fill-opacity="0.2" stroke="#ff0000" stroke-opacity="0.2" stroke-width="3.2"/>
<path clip-path="url(#clip802)" d="M1715.07 1402.94 L1772.67 1436.54 L1772.67 1369.34 L1715.07 1402.94 Z" fill="#00008b" fill-rule="evenodd" fill-opacity="0.2" stroke="#ff0000" stroke-opacity="0.2" stroke-width="3.2"/>
<path clip-path="url(#clip802)" d="M1822.66 580.027 L1880.26 613.627 L1880.26 546.427 L1822.66 580.027 Z" fill="#00008b" fill-rule="evenodd" fill-opacity="0.2" stroke="#ff0000" stroke-opacity="0.2" stroke-width="3.2"/>
<path clip-path="url(#clip802)" d="M1930.25 1430.86 L1987.85 1464.46 L1987.85 1397.26 L1930.25 1430.86 Z" fill="#00008b" fill-rule="evenodd" fill-opacity="0.2" stroke="#ff0000" stroke-opacity="0.2" stroke-width="3.2"/>
<path clip-path="url(#clip802)" d="M2037.84 808.127 L2095.44 841.727 L2095.44 774.527 L2037.84 808.127 Z" fill="#00008b" fill-rule="evenodd" fill-opacity="0.2" stroke="#ff0000" stroke-opacity="0.2" stroke-width="3.2"/>
<path clip-path="url(#clip802)" d="M2145.44 198.566 L2203.04 232.166 L2203.04 164.966 L2145.44 198.566 Z" fill="#00008b" fill-rule="evenodd" fill-opacity="0.2" stroke="#ff0000" stroke-opacity="0.2" stroke-width="3.2"/>
<path clip-path="url(#clip802)" d="M2253.03 194.585 L2310.63 228.185 L2310.63 160.985 L2253.03 194.585 Z" fill="#00008b" fill-rule="evenodd" fill-opacity="0.2" stroke="#ff0000" stroke-opacity="0.2" stroke-width="3.2"/>
<path clip-path="url(#clip800)" d="
M1988.16 435.737 L2280.53 435.737 L2280.53 193.817 L1988.16 193.817  Z
  " fill="#ffffff" fill-rule="evenodd" fill-opacity="1"/>
<polyline clip-path="url(#clip800)" style="stroke:#000000; stroke-width:4; stroke-opacity:1; fill:none" points="
  1988.16,435.737 2280.53,435.737 2280.53,193.817 1988.16,193.817 1988.16,435.737 
  "/>
<path clip-path="url(#clip800)" d="M2084.47 228.697 L2078.45 246.002 L2060.12 246.386 L2074.74 257.471 L2069.42 275.007 L2084.47 264.537 L2099.52 275.007 L2094.2 257.471 L2108.81 246.386 L2090.48 246.002 L2084.47 228.697 Z" fill="#ffa500" fill-rule="evenodd" fill-opacity="0.5" stroke="#ff0000" stroke-opacity="0.5" stroke-width="6.82667"/>
<path clip-path="url(#clip800)" d="M 0 0 M2194.62 273.984 Q2192.81 278.614 2191.1 280.026 Q2189.39 281.438 2186.52 281.438 L2183.11 281.438 L2183.11 277.873 L2185.61 277.873 Q2187.37 277.873 2188.34 277.04 Q2189.32 276.206 2190.5 273.104 L2191.26 271.16 L2180.78 245.651 L2185.29 245.651 L2193.39 265.929 L2201.49 245.651 L2206.01 245.651 L2194.62 273.984 Z" fill="#bebebe" fill-rule="evenodd" fill-opacity="1" /><path clip-path="url(#clip800)" d="M 0 0 M2211.89 267.641 L2219.52 267.641 L2219.52 241.276 L2211.21 242.943 L2211.21 238.683 L2219.48 237.017 L2224.15 237.017 L2224.15 267.641 L2231.79 267.641 L2231.79 271.577 L2211.89 271.577 L2211.89 267.641 Z" fill="#bebebe" fill-rule="evenodd" fill-opacity="1" /><path clip-path="url(#clip800)" d="M2084.47 289.177 L2058.87 314.777 L2084.47 340.377 L2110.07 314.777 L2084.47 289.177 Z" fill="#008000" fill-rule="evenodd" fill-opacity="1" stroke="#ff0000" stroke-opacity="1" stroke-width="2.92571"/>
<path clip-path="url(#clip800)" d="M 0 0 M2194.62 334.464 Q2192.81 339.094 2191.1 340.506 Q2189.39 341.918 2186.52 341.918 L2183.11 341.918 L2183.11 338.353 L2185.61 338.353 Q2187.37 338.353 2188.34 337.52 Q2189.32 336.686 2190.5 333.584 L2191.26 331.64 L2180.78 306.131 L2185.29 306.131 L2193.39 326.409 L2201.49 306.131 L2206.01 306.131 L2194.62 334.464 Z" fill="#bebebe" fill-rule="evenodd" fill-opacity="1" /><path clip-path="url(#clip800)" d="M 0 0 M2215.1 328.121 L2231.42 328.121 L2231.42 332.057 L2209.48 332.057 L2209.48 328.121 Q2212.14 325.367 2216.72 320.737 Q2221.33 316.085 2222.51 314.742 Q2224.76 312.219 2225.64 310.483 Q2226.54 308.723 2226.54 307.034 Q2226.54 304.279 2224.59 302.543 Q2222.67 300.807 2219.57 300.807 Q2217.37 300.807 2214.92 301.571 Q2212.49 302.335 2209.71 303.886 L2209.71 299.163 Q2212.53 298.029 2214.99 297.45 Q2217.44 296.872 2219.48 296.872 Q2224.85 296.872 2228.04 299.557 Q2231.24 302.242 2231.24 306.733 Q2231.24 308.862 2230.43 310.784 Q2229.64 312.682 2227.53 315.274 Q2226.96 315.946 2223.85 319.163 Q2220.75 322.358 2215.1 328.121 Z" fill="#bebebe" fill-rule="evenodd" fill-opacity="1" /><path clip-path="url(#clip800)" d="M2063.99 375.257 L2094.71 393.177 L2094.71 357.337 L2063.99 375.257 Z" fill="#00008b" fill-rule="evenodd" fill-opacity="0.2" stroke="#ff0000" stroke-opacity="0.2" stroke-width="1.70667"/>
<path clip-path="url(#clip800)" d="M 0 0 M2194.62 394.944 Q2192.81 399.574 2191.1 400.986 Q2189.39 402.398 2186.52 402.398 L2183.11 402.398 L2183.11 398.833 L2185.61 398.833 Q2187.37 398.833 2188.34 398 Q2189.32 397.166 2190.5 394.064 L2191.26 392.12 L2180.78 366.611 L2185.29 366.611 L2193.39 386.889 L2201.49 366.611 L2206.01 366.611 L2194.62 394.944 Z" fill="#bebebe" fill-rule="evenodd" fill-opacity="1" /><path clip-path="url(#clip800)" d="M 0 0 M2225.24 373.902 Q2228.6 374.62 2230.47 376.889 Q2232.37 379.157 2232.37 382.49 Q2232.37 387.606 2228.85 390.407 Q2225.34 393.208 2218.85 393.208 Q2216.68 393.208 2214.36 392.768 Q2212.07 392.351 2209.62 391.495 L2209.62 386.981 Q2211.56 388.115 2213.88 388.694 Q2216.19 389.273 2218.71 389.273 Q2223.11 389.273 2225.4 387.537 Q2227.72 385.801 2227.72 382.49 Q2227.72 379.435 2225.57 377.722 Q2223.44 375.986 2219.62 375.986 L2215.59 375.986 L2215.59 372.143 L2219.8 372.143 Q2223.25 372.143 2225.08 370.778 Q2226.91 369.389 2226.91 366.796 Q2226.91 364.134 2225.01 362.722 Q2223.14 361.287 2219.62 361.287 Q2217.7 361.287 2215.5 361.703 Q2213.3 362.12 2210.66 363 L2210.66 358.833 Q2213.32 358.092 2215.64 357.722 Q2217.97 357.352 2220.03 357.352 Q2225.36 357.352 2228.46 359.782 Q2231.56 362.19 2231.56 366.31 Q2231.56 369.18 2229.92 371.171 Q2228.27 373.139 2225.24 373.902 Z" fill="#bebebe" fill-rule="evenodd" fill-opacity="1" /></svg>
