<?xml version="1.0" encoding="utf-8"?>
<svg xmlns="http://www.w3.org/2000/svg" xmlns:xlink="http://www.w3.org/1999/xlink" width="600" height="400" viewBox="0 0 2400 1600">
<defs>
  <clipPath id="clip170">
    <rect x="0" y="0" width="2400" height="1600"/>
  </clipPath>
</defs>
<path clip-path="url(#clip170)" d="
M0 1600 L2400 1600 L2400 0 L0 0  Z
  " fill="#ffffff" fill-rule="evenodd" fill-opacity="1"/>
<defs>
  <clipPath id="clip171">
    <rect x="480" y="0" width="1681" height="1600"/>
  </clipPath>
</defs>
<path clip-path="url(#clip170)" d="
M140.534 1482.13 L2352.76 1482.13 L2352.76 149.392 L140.534 149.392  Z
  " fill="#ffffff" fill-rule="evenodd" fill-opacity="1"/>
<defs>
  <clipPath id="clip172">
    <rect x="140" y="149" width="2213" height="1334"/>
  </clipPath>
</defs>
<polyline clip-path="url(#clip172)" style="stroke:#000000; stroke-width:2; stroke-opacity:0.1; fill:none" points="
  262.21,1482.13 262.21,149.392 
  "/>
<polyline clip-path="url(#clip172)" style="stroke:#000000; stroke-width:2; stroke-opacity:0.1; fill:none" points="
  655.984,1482.13 655.984,149.392 
  "/>
<polyline clip-path="url(#clip172)" style="stroke:#000000; stroke-width:2; stroke-opacity:0.1; fill:none" points="
  1049.76,1482.13 1049.76,149.392 
  "/>
<polyline clip-path="url(#clip172)" style="stroke:#000000; stroke-width:2; stroke-opacity:0.1; fill:none" points="
  1443.53,1482.13 1443.53,149.392 
  "/>
<polyline clip-path="url(#clip172)" style="stroke:#000000; stroke-width:2; stroke-opacity:0.1; fill:none" points="
  1837.31,1482.13 1837.31,149.392 
  "/>
<polyline clip-path="url(#clip172)" style="stroke:#000000; stroke-width:2; stroke-opacity:0.1; fill:none" points="
  2231.08,1482.13 2231.08,149.392 
  "/>
<polyline clip-path="url(#clip170)" style="stroke:#000000; stroke-width:4; stroke-opacity:1; fill:none" points="
  140.534,1482.13 2352.76,1482.13 
  "/>
<polyline clip-path="url(#clip170)" style="stroke:#000000; stroke-width:4; stroke-opacity:1; fill:none" points="
  262.21,1482.13 262.21,1466.14 
  "/>
<polyline clip-path="url(#clip170)" style="stroke:#000000; stroke-width:4; stroke-opacity:1; fill:none" points="
  655.984,1482.13 655.984,1466.14 
  "/>
<polyline clip-path="url(#clip170)" style="stroke:#000000; stroke-width:4; stroke-opacity:1; fill:none" points="
  1049.76,1482.13 1049.76,1466.14 
  "/>
<polyline clip-path="url(#clip170)" style="stroke:#000000; stroke-width:4; stroke-opacity:1; fill:none" points="
  1443.53,1482.13 1443.53,1466.14 
  "/>
<polyline clip-path="url(#clip170)" style="stroke:#000000; stroke-width:4; stroke-opacity:1; fill:none" points="
  1837.31,1482.13 1837.31,1466.14 
  "/>
<polyline clip-path="url(#clip170)" style="stroke:#000000; stroke-width:4; stroke-opacity:1; fill:none" points="
  2231.08,1482.13 2231.08,1466.14 
  "/>
<path clip-path="url(#clip170)" d="M 0 0 M262.21 1512.57 Q258.147 1512.57 256.09 1516.58 Q254.059 1520.56 254.059 1528.58 Q254.059 1536.58 256.09 1540.59 Q258.147 1544.57 262.21 1544.57 Q266.298 1544.57 268.329 1540.59 Q270.387 1536.58 270.387 1528.58 Q270.387 1520.56 268.329 1516.58 Q266.298 1512.57 262.21 1512.57 M262.21 1508.4 Q268.746 1508.4 272.184 1513.58 Q275.647 1518.74 275.647 1528.58 Q275.647 1538.4 272.184 1543.58 Q268.746 1548.74 262.21 1548.74 Q255.673 1548.74 252.21 1543.58 Q248.772 1538.4 248.772 1528.58 Q248.772 1518.74 252.21 1513.58 Q255.673 1508.4 262.21 1508.4 Z" fill="#bebebe" fill-rule="evenodd" fill-opacity="1" /><path clip-path="url(#clip170)" d="M 0 0 M645.046 1509.1 L665.697 1509.1 L665.697 1513.53 L649.864 1513.53 L649.864 1523.06 Q651.01 1522.67 652.156 1522.49 Q653.301 1522.28 654.447 1522.28 Q660.958 1522.28 664.76 1525.85 Q668.562 1529.42 668.562 1535.51 Q668.562 1541.79 664.656 1545.28 Q660.749 1548.74 653.64 1548.74 Q651.192 1548.74 648.64 1548.32 Q646.114 1547.91 643.406 1547.07 L643.406 1541.79 Q645.749 1543.06 648.249 1543.69 Q650.749 1544.31 653.536 1544.31 Q658.041 1544.31 660.671 1541.94 Q663.301 1539.57 663.301 1535.51 Q663.301 1531.45 660.671 1529.08 Q658.041 1526.71 653.536 1526.71 Q651.426 1526.71 649.317 1527.18 Q647.234 1527.65 645.046 1528.64 L645.046 1509.1 Z" fill="#bebebe" fill-rule="evenodd" fill-opacity="1" /><path clip-path="url(#clip170)" d="M 0 0 M1023.74 1543.56 L1032.34 1543.56 L1032.34 1513.9 L1022.99 1515.77 L1022.99 1510.98 L1032.28 1509.1 L1037.54 1509.1 L1037.54 1543.56 L1046.14 1543.56 L1046.14 1547.98 L1023.74 1547.98 L1023.74 1543.56 Z" fill="#bebebe" fill-rule="evenodd" fill-opacity="1" /><path clip-path="url(#clip170)" d="M 0 0 M1063.09 1512.57 Q1059.03 1512.57 1056.97 1516.58 Q1054.94 1520.56 1054.94 1528.58 Q1054.94 1536.58 1056.97 1540.59 Q1059.03 1544.57 1063.09 1544.57 Q1067.18 1544.57 1069.21 1540.59 Q1071.27 1536.58 1071.27 1528.58 Q1071.27 1520.56 1069.21 1516.58 Q1067.18 1512.57 1063.09 1512.57 M1063.09 1508.4 Q1069.63 1508.4 1073.06 1513.58 Q1076.53 1518.74 1076.53 1528.58 Q1076.53 1538.4 1073.06 1543.58 Q1069.63 1548.74 1063.09 1548.74 Q1056.55 1548.74 1053.09 1543.58 Q1049.65 1538.4 1049.65 1528.58 Q1049.65 1518.74 1053.09 1513.58 Q1056.55 1508.4 1063.09 1508.4 Z" fill="#bebebe" fill-rule="evenodd" fill-opacity="1" /><path clip-path="url(#clip170)" d="M 0 0 M1418.08 1543.56 L1426.67 1543.56 L1426.67 1513.9 L1417.32 1515.77 L1417.32 1510.98 L1426.62 1509.1 L1431.88 1509.1 L1431.88 1543.56 L1440.47 1543.56 L1440.47 1547.98 L1418.08 1547.98 L1418.08 1543.56 Z" fill="#bebebe" fill-rule="evenodd" fill-opacity="1" /><path clip-path="url(#clip170)" d="M 0 0 M1446.23 1509.1 L1466.88 1509.1 L1466.88 1513.53 L1451.04 1513.53 L1451.04 1523.06 Q1452.19 1522.67 1453.34 1522.49 Q1454.48 1522.28 1455.63 1522.28 Q1462.14 1522.28 1465.94 1525.85 Q1469.74 1529.42 1469.74 1535.51 Q1469.74 1541.79 1465.84 1545.28 Q1461.93 1548.74 1454.82 1548.74 Q1452.37 1548.74 1449.82 1548.32 Q1447.29 1547.91 1444.59 1547.07 L1444.59 1541.79 Q1446.93 1543.06 1449.43 1543.69 Q1451.93 1544.31 1454.72 1544.31 Q1459.22 1544.31 1461.85 1541.94 Q1464.48 1539.57 1464.48 1535.51 Q1464.48 1531.45 1461.85 1529.08 Q1459.22 1526.71 1454.72 1526.71 Q1452.61 1526.71 1450.5 1527.18 Q1448.41 1527.65 1446.23 1528.64 L1446.23 1509.1 Z" fill="#bebebe" fill-rule="evenodd" fill-opacity="1" /><path clip-path="url(#clip170)" d="M 0 0 M1816.09 1543.56 L1834.45 1543.56 L1834.45 1547.98 L1809.77 1547.98 L1809.77 1543.56 Q1812.76 1540.46 1817.92 1535.25 Q1823.1 1530.02 1824.43 1528.5 Q1826.95 1525.67 1827.94 1523.71 Q1828.96 1521.73 1828.96 1519.83 Q1828.96 1516.73 1826.77 1514.78 Q1824.61 1512.83 1821.12 1512.83 Q1818.65 1512.83 1815.89 1513.69 Q1813.15 1514.55 1810.03 1516.29 L1810.03 1510.98 Q1813.2 1509.7 1815.96 1509.05 Q1818.73 1508.4 1821.02 1508.4 Q1827.06 1508.4 1830.65 1511.42 Q1834.25 1514.44 1834.25 1519.49 Q1834.25 1521.89 1833.33 1524.05 Q1832.45 1526.19 1830.08 1529.1 Q1829.43 1529.86 1825.94 1533.48 Q1822.45 1537.07 1816.09 1543.56 Z" fill="#bebebe" fill-rule="evenodd" fill-opacity="1" /><path clip-path="url(#clip170)" d="M 0 0 M1851.41 1512.57 Q1847.34 1512.57 1845.29 1516.58 Q1843.26 1520.56 1843.26 1528.58 Q1843.26 1536.58 1845.29 1540.59 Q1847.34 1544.57 1851.41 1544.57 Q1855.5 1544.57 1857.53 1540.59 Q1859.58 1536.58 1859.58 1528.58 Q1859.58 1520.56 1857.53 1516.58 Q1855.5 1512.57 1851.41 1512.57 M1851.41 1508.4 Q1857.94 1508.4 1861.38 1513.58 Q1864.84 1518.74 1864.84 1528.58 Q1864.84 1538.4 1861.38 1543.58 Q1857.94 1548.74 1851.41 1548.74 Q1844.87 1548.74 1841.41 1543.58 Q1837.97 1538.4 1837.97 1528.58 Q1837.97 1518.74 1841.41 1513.58 Q1844.87 1508.4 1851.41 1508.4 Z" fill="#bebebe" fill-rule="evenodd" fill-opacity="1" /><path clip-path="url(#clip170)" d="M 0 0 M2210.43 1543.56 L2228.79 1543.56 L2228.79 1547.98 L2204.1 1547.98 L2204.1 1543.56 Q2207.1 1540.46 2212.25 1535.25 Q2217.43 1530.02 2218.76 1528.5 Q2221.29 1525.67 2222.28 1523.71 Q2223.29 1521.73 2223.29 1519.83 Q2223.29 1516.73 2221.11 1514.78 Q2218.94 1512.83 2215.45 1512.83 Q2212.98 1512.83 2210.22 1513.69 Q2207.49 1514.55 2204.36 1516.29 L2204.36 1510.98 Q2207.54 1509.7 2210.3 1509.05 Q2213.06 1508.4 2215.35 1508.4 Q2221.39 1508.4 2224.99 1511.42 Q2228.58 1514.44 2228.58 1519.49 Q2228.58 1521.89 2227.67 1524.05 Q2226.78 1526.19 2224.41 1529.1 Q2223.76 1529.86 2220.27 1533.48 Q2216.78 1537.07 2210.43 1543.56 Z" fill="#bebebe" fill-rule="evenodd" fill-opacity="1" /><path clip-path="url(#clip170)" d="M 0 0 M2234.54 1509.1 L2255.19 1509.1 L2255.19 1513.53 L2239.36 1513.53 L2239.36 1523.06 Q2240.51 1522.67 2241.65 1522.49 Q2242.8 1522.28 2243.94 1522.28 Q2250.45 1522.28 2254.26 1525.85 Q2258.06 1529.42 2258.06 1535.51 Q2258.06 1541.79 2254.15 1545.28 Q2250.25 1548.74 2243.14 1548.74 Q2240.69 1548.74 2238.14 1548.32 Q2235.61 1547.91 2232.9 1547.07 L2232.9 1541.79 Q2235.25 1543.06 2237.75 1543.69 Q2240.25 1544.31 2243.03 1544.31 Q2247.54 1544.31 2250.17 1541.94 Q2252.8 1539.57 2252.8 1535.51 Q2252.8 1531.45 2250.17 1529.08 Q2247.54 1526.71 2243.03 1526.71 Q2240.92 1526.71 2238.81 1527.18 Q2236.73 1527.65 2234.54 1528.64 L2234.54 1509.1 Z" fill="#bebebe" fill-rule="evenodd" fill-opacity="1" /><polyline clip-path="url(#clip172)" style="stroke:#000000; stroke-width:2; stroke-opacity:0.1; fill:none" points="
  140.534,1444.41 2352.76,1444.41 
  "/>
<polyline clip-path="url(#clip172)" style="stroke:#000000; stroke-width:2; stroke-opacity:0.1; fill:none" points="
  140.534,1095.16 2352.76,1095.16 
  "/>
<polyline clip-path="url(#clip172)" style="stroke:#000000; stroke-width:2; stroke-opacity:0.1; fill:none" points="
  140.534,745.91 2352.76,745.91 
  "/>
<polyline clip-path="url(#clip172)" style="stroke:#000000; stroke-width:2; stroke-opacity:0.1; fill:none" points="
  140.534,396.661 2352.76,396.661 
  "/>
<polyline clip-path="url(#clip170)" style="stroke:#000000; stroke-width:4; stroke-opacity:1; fill:none" points="
  140.534,1482.13 140.534,149.392 
  "/>
<polyline clip-path="url(#clip170)" style="stroke:#000000; stroke-width:4; stroke-opacity:1; fill:none" points="
  140.534,1444.41 167.08,1444.41 
  "/>
<polyline clip-path="url(#clip170)" style="stroke:#000000; stroke-width:4; stroke-opacity:1; fill:none" points="
  140.534,1095.16 167.08,1095.16 
  "/>
<polyline clip-path="url(#clip170)" style="stroke:#000000; stroke-width:4; stroke-opacity:1; fill:none" points="
  140.534,745.91 167.08,745.91 
  "/>
<polyline clip-path="url(#clip170)" style="stroke:#000000; stroke-width:4; stroke-opacity:1; fill:none" points="
  140.534,396.661 167.08,396.661 
  "/>
<path clip-path="url(#clip170)" d="M 0 0 M91.0961 1428.43 Q87.0336 1428.43 84.9763 1432.44 Q82.9451 1436.43 82.9451 1444.45 Q82.9451 1452.44 84.9763 1456.45 Q87.0336 1460.44 91.0961 1460.44 Q95.1846 1460.44 97.2158 1456.45 Q99.2731 1452.44 99.2731 1444.45 Q99.2731 1436.43 97.2158 1432.44 Q95.1846 1428.43 91.0961 1428.43 M91.0961 1424.27 Q97.6325 1424.27 101.07 1429.45 Q104.534 1434.6 104.534 1444.45 Q104.534 1454.27 101.07 1459.45 Q97.6325 1464.6 91.0961 1464.6 Q84.5597 1464.6 81.0961 1459.45 Q77.6586 1454.27 77.6586 1444.45 Q77.6586 1434.6 81.0961 1429.45 Q84.5597 1424.27 91.0961 1424.27 Z" fill="#bebebe" fill-rule="evenodd" fill-opacity="1" /><path clip-path="url(#clip170)" d="M 0 0 M81.018 1075.72 L101.669 1075.72 L101.669 1080.15 L85.8357 1080.15 L85.8357 1089.68 Q86.9815 1089.29 88.1273 1089.1 Q89.2732 1088.9 90.419 1088.9 Q96.9294 1088.9 100.731 1092.46 Q104.534 1096.03 104.534 1102.13 Q104.534 1108.4 100.627 1111.89 Q96.721 1115.35 89.6117 1115.35 Q87.1638 1115.35 84.6117 1114.94 Q82.0857 1114.52 79.3774 1113.69 L79.3774 1108.4 Q81.7211 1109.68 84.2211 1110.3 Q86.7211 1110.93 89.5075 1110.93 Q94.0127 1110.93 96.6429 1108.56 Q99.2731 1106.19 99.2731 1102.13 Q99.2731 1098.06 96.6429 1095.69 Q94.0127 1093.32 89.5075 1093.32 Q87.3982 1093.32 85.2888 1093.79 Q83.2055 1094.26 81.018 1095.25 L81.018 1075.72 Z" fill="#bebebe" fill-rule="evenodd" fill-opacity="1" /><path clip-path="url(#clip170)" d="M 0 0 M51.7473 760.923 L60.341 760.923 L60.341 731.262 L50.9921 733.137 L50.9921 728.345 L60.289 726.47 L65.5493 726.47 L65.5493 760.923 L74.143 760.923 L74.143 765.35 L51.7473 765.35 L51.7473 760.923 Z" fill="#bebebe" fill-rule="evenodd" fill-opacity="1" /><path clip-path="url(#clip170)" d="M 0 0 M91.0961 729.934 Q87.0336 729.934 84.9763 733.944 Q82.9451 737.928 82.9451 745.949 Q82.9451 753.944 84.9763 757.954 Q87.0336 761.939 91.0961 761.939 Q95.1846 761.939 97.2158 757.954 Q99.2731 753.944 99.2731 745.949 Q99.2731 737.928 97.2158 733.944 Q95.1846 729.934 91.0961 729.934 M91.0961 725.767 Q97.6325 725.767 101.07 730.949 Q104.534 736.105 104.534 745.949 Q104.534 755.767 101.07 760.949 Q97.6325 766.105 91.0961 766.105 Q84.5597 766.105 81.0961 760.949 Q77.6586 755.767 77.6586 745.949 Q77.6586 736.105 81.0961 730.949 Q84.5597 725.767 91.0961 725.767 Z" fill="#bebebe" fill-rule="evenodd" fill-opacity="1" /><path clip-path="url(#clip170)" d="M 0 0 M52.8671 411.674 L61.4608 411.674 L61.4608 382.012 L52.1119 383.887 L52.1119 379.096 L61.4087 377.221 L66.6691 377.221 L66.6691 411.674 L75.2628 411.674 L75.2628 416.101 L52.8671 416.101 L52.8671 411.674 Z" fill="#bebebe" fill-rule="evenodd" fill-opacity="1" /><path clip-path="url(#clip170)" d="M 0 0 M81.018 377.221 L101.669 377.221 L101.669 381.648 L85.8357 381.648 L85.8357 391.179 Q86.9815 390.788 88.1273 390.606 Q89.2732 390.398 90.419 390.398 Q96.9294 390.398 100.731 393.965 Q104.534 397.533 104.534 403.627 Q104.534 409.903 100.627 413.392 Q96.721 416.856 89.6117 416.856 Q87.1638 416.856 84.6117 416.439 Q82.0857 416.023 79.3774 415.189 L79.3774 409.903 Q81.7211 411.179 84.2211 411.804 Q86.7211 412.429 89.5075 412.429 Q94.0127 412.429 96.6429 410.059 Q99.2731 407.689 99.2731 403.627 Q99.2731 399.564 96.6429 397.195 Q94.0127 394.825 89.5075 394.825 Q87.3982 394.825 85.2888 395.294 Q83.2055 395.762 81.018 396.752 L81.018 377.221 Z" fill="#bebebe" fill-rule="evenodd" fill-opacity="1" /><path clip-path="url(#clip170)" d="M 0 0 M863.429 20.1156 L863.429 31.516 Q856.774 28.3332 850.871 26.7707 Q844.969 25.2082 839.471 25.2082 Q829.922 25.2082 824.714 28.9119 Q819.564 32.6156 819.564 39.4442 Q819.564 45.1734 822.978 48.1247 Q826.45 51.0182 836.057 52.8122 L843.117 54.259 Q856.195 56.7474 862.388 63.0552 Q868.637 69.3052 868.637 79.8375 Q868.637 92.3953 860.188 98.8768 Q851.797 105.358 835.536 105.358 Q829.402 105.358 822.457 103.969 Q815.571 102.58 808.163 99.8606 L808.163 87.8236 Q815.281 91.8166 822.11 93.8421 Q828.939 95.8675 835.536 95.8675 Q845.547 95.8675 850.987 91.9324 Q856.427 87.9972 856.427 80.7056 Q856.427 74.3399 852.492 70.7519 Q848.614 67.164 839.702 65.37 L832.584 63.9811 Q819.506 61.377 813.661 55.8215 Q807.816 50.2659 807.816 40.3702 Q807.816 28.9119 815.86 22.3147 Q823.962 15.7175 838.14 15.7175 Q844.216 15.7175 850.524 16.817 Q856.832 17.9166 863.429 20.1156 Z" fill="#bebebe" fill-rule="evenodd" fill-opacity="1" /><path clip-path="url(#clip170)" d="M 0 0 M935.246 68.6107 L935.246 73.819 L886.288 73.819 Q886.982 84.8144 892.885 90.6014 Q898.846 96.3305 909.436 96.3305 Q915.57 96.3305 921.299 94.8259 Q927.086 93.3213 932.757 90.312 L932.757 100.381 Q927.028 102.812 921.01 104.085 Q914.991 105.358 908.799 105.358 Q893.29 105.358 884.205 96.3305 Q875.177 87.3028 875.177 71.9093 Q875.177 55.9951 883.742 46.678 Q892.364 37.303 906.947 37.303 Q920.026 37.303 927.607 45.7521 Q935.246 54.1432 935.246 68.6107 M924.598 65.4858 Q924.482 56.7474 919.679 51.5391 Q914.934 46.3308 907.063 46.3308 Q898.151 46.3308 892.769 51.3655 Q887.445 56.4002 886.635 65.5436 L924.598 65.4858 Z" fill="#bebebe" fill-rule="evenodd" fill-opacity="1" /><path clip-path="url(#clip170)" d="M 0 0 M983.973 48.8192 Q982.179 47.7775 980.037 47.3146 Q977.954 46.7937 975.408 46.7937 Q966.38 46.7937 961.519 52.6965 Q956.716 58.5414 956.716 69.5367 L956.716 103.68 L946.01 103.68 L946.01 38.8655 L956.716 38.8655 L956.716 48.9349 Q960.072 43.0322 965.454 40.1965 Q970.836 37.303 978.533 37.303 Q979.632 37.303 980.963 37.4767 Q982.294 37.5924 983.915 37.8817 L983.973 48.8192 Z" fill="#bebebe" fill-rule="evenodd" fill-opacity="1" /><path clip-path="url(#clip170)" d="M 0 0 M995.141 38.8655 L1005.79 38.8655 L1005.79 103.68 L995.141 103.68 L995.141 38.8655 M995.141 13.6342 L1005.79 13.6342 L1005.79 27.1179 L995.141 27.1179 L995.141 13.6342 Z" fill="#bebebe" fill-rule="evenodd" fill-opacity="1" /><path clip-path="url(#clip170)" d="M 0 0 M1072.4 68.6107 L1072.4 73.819 L1023.44 73.819 Q1024.13 84.8144 1030.04 90.6014 Q1036 96.3305 1046.59 96.3305 Q1052.72 96.3305 1058.45 94.8259 Q1064.24 93.3213 1069.91 90.312 L1069.91 100.381 Q1064.18 102.812 1058.16 104.085 Q1052.14 105.358 1045.95 105.358 Q1030.44 105.358 1021.36 96.3305 Q1012.33 87.3028 1012.33 71.9093 Q1012.33 55.9951 1020.89 46.678 Q1029.52 37.303 1044.1 37.303 Q1057.18 37.303 1064.76 45.7521 Q1072.4 54.1432 1072.4 68.6107 M1061.75 65.4858 Q1061.63 56.7474 1056.83 51.5391 Q1052.09 46.3308 1044.22 46.3308 Q1035.3 46.3308 1029.92 51.3655 Q1024.6 56.4002 1023.79 65.5436 L1061.75 65.4858 Z" fill="#bebebe" fill-rule="evenodd" fill-opacity="1" /><path clip-path="url(#clip170)" d="M 0 0 M1131.31 17.28 L1131.31 49.3979 L1121.47 49.3979 L1121.47 17.28 L1131.31 17.28 Z" fill="#bebebe" fill-rule="evenodd" fill-opacity="1" /><path clip-path="url(#clip170)" d="M 0 0 M1196.36 64.5598 L1196.36 103.68 L1185.71 103.68 L1185.71 64.9071 Q1185.71 55.7057 1182.12 51.134 Q1178.53 46.5623 1171.36 46.5623 Q1162.73 46.5623 1157.76 52.0599 Q1152.78 57.5576 1152.78 67.0483 L1152.78 103.68 L1142.07 103.68 L1142.07 13.6342 L1152.78 13.6342 L1152.78 48.9349 Q1156.6 43.09 1161.75 40.1965 Q1166.96 37.303 1173.73 37.303 Q1184.9 37.303 1190.63 44.2474 Q1196.36 51.134 1196.36 64.5598 Z" fill="#bebebe" fill-rule="evenodd" fill-opacity="1" /><path clip-path="url(#clip170)" d="M 0 0 M1207.52 38.8655 L1218.17 38.8655 L1218.17 103.68 L1207.52 103.68 L1207.52 38.8655 M1207.52 13.6342 L1218.17 13.6342 L1218.17 27.1179 L1207.52 27.1179 L1207.52 13.6342 Z" fill="#bebebe" fill-rule="evenodd" fill-opacity="1" /><path clip-path="url(#clip170)" d="M 0 0 M1270.66 40.7752 L1270.66 50.8446 Q1266.15 48.5298 1261.29 47.3724 Q1256.42 46.215 1251.22 46.215 Q1243.29 46.215 1239.3 48.6456 Q1235.36 51.0761 1235.36 55.9372 Q1235.36 59.6409 1238.2 61.7821 Q1241.03 63.8654 1249.6 65.7751 L1253.24 66.5853 Q1264.58 69.0158 1269.33 73.4718 Q1274.13 77.87 1274.13 85.7982 Q1274.13 94.8259 1266.96 100.092 Q1259.84 105.358 1247.34 105.358 Q1242.13 105.358 1236.46 104.317 Q1230.85 103.333 1224.6 101.307 L1224.6 90.312 Q1230.5 93.3791 1236.23 94.9416 Q1241.96 96.4462 1247.57 96.4462 Q1255.09 96.4462 1259.14 93.9 Q1263.2 91.2958 1263.2 86.6083 Q1263.2 82.2681 1260.24 79.9533 Q1257.35 77.6385 1247.45 75.4973 L1243.75 74.6292 Q1233.86 72.5459 1229.46 68.2635 Q1225.06 63.9233 1225.06 56.4002 Q1225.06 47.2567 1231.54 42.2799 Q1238.02 37.303 1249.94 37.303 Q1255.85 37.303 1261.05 38.1711 Q1266.26 39.0391 1270.66 40.7752 Z" fill="#bebebe" fill-rule="evenodd" fill-opacity="1" /><path clip-path="url(#clip170)" d="M 0 0 M1295.83 20.4629 L1295.83 38.8655 L1317.77 38.8655 L1317.77 47.141 L1295.83 47.141 L1295.83 82.3259 Q1295.83 90.2541 1297.98 92.5111 Q1300.17 94.768 1306.83 94.768 L1317.77 94.768 L1317.77 103.68 L1306.83 103.68 Q1294.5 103.68 1289.82 99.1083 Q1285.13 94.4787 1285.13 82.3259 L1285.13 47.141 L1277.32 47.141 L1277.32 38.8655 L1285.13 38.8655 L1285.13 20.4629 L1295.83 20.4629 Z" fill="#bebebe" fill-rule="evenodd" fill-opacity="1" /><path clip-path="url(#clip170)" d="M 0 0 M1354.05 46.3308 Q1345.49 46.3308 1340.51 53.0437 Q1335.53 59.6988 1335.53 71.3306 Q1335.53 82.9625 1340.45 89.6754 Q1345.43 96.3305 1354.05 96.3305 Q1362.56 96.3305 1367.54 89.6176 Q1372.51 82.9046 1372.51 71.3306 Q1372.51 59.8145 1367.54 53.1016 Q1362.56 46.3308 1354.05 46.3308 M1354.05 37.303 Q1367.94 37.303 1375.87 46.3308 Q1383.8 55.3585 1383.8 71.3306 Q1383.8 87.2449 1375.87 96.3305 Q1367.94 105.358 1354.05 105.358 Q1340.1 105.358 1332.18 96.3305 Q1324.31 87.2449 1324.31 71.3306 Q1324.31 55.3585 1332.18 46.3308 Q1340.1 37.303 1354.05 37.303 Z" fill="#bebebe" fill-rule="evenodd" fill-opacity="1" /><path clip-path="url(#clip170)" d="M 0 0 M1437.62 70.5205 Q1437.62 58.9464 1432.81 52.5807 Q1428.07 46.215 1419.44 46.215 Q1410.88 46.215 1406.08 52.5807 Q1401.33 58.9464 1401.33 70.5205 Q1401.33 82.0366 1406.08 88.4023 Q1410.88 94.768 1419.44 94.768 Q1428.07 94.768 1432.81 88.4023 Q1437.62 82.0366 1437.62 70.5205 M1448.26 95.6361 Q1448.26 112.187 1440.91 120.231 Q1433.57 128.333 1418.4 128.333 Q1412.79 128.333 1407.81 127.465 Q1402.84 126.654 1398.15 124.918 L1398.15 114.56 Q1402.84 117.106 1407.41 118.321 Q1411.98 119.536 1416.72 119.536 Q1427.2 119.536 1432.41 114.039 Q1437.62 108.599 1437.62 97.5458 L1437.62 92.2796 Q1434.32 98.0087 1429.17 100.844 Q1424.02 103.68 1416.84 103.68 Q1404.92 103.68 1397.63 94.5944 Q1390.34 85.5088 1390.34 70.5205 Q1390.34 55.4742 1397.63 46.3886 Q1404.92 37.303 1416.84 37.303 Q1424.02 37.303 1429.17 40.1387 Q1434.32 42.9743 1437.62 48.7034 L1437.62 38.8655 L1448.26 38.8655 L1448.26 95.6361 Z" fill="#bebebe" fill-rule="evenodd" fill-opacity="1" /><path clip-path="url(#clip170)" d="M 0 0 M1496.99 48.8192 Q1495.2 47.7775 1493.06 47.3146 Q1490.97 46.7937 1488.43 46.7937 Q1479.4 46.7937 1474.54 52.6965 Q1469.73 58.5414 1469.73 69.5367 L1469.73 103.68 L1459.03 103.68 L1459.03 38.8655 L1469.73 38.8655 L1469.73 48.9349 Q1473.09 43.0322 1478.47 40.1965 Q1483.85 37.303 1491.55 37.303 Q1492.65 37.303 1493.98 37.4767 Q1495.31 37.5924 1496.93 37.8817 L1496.99 48.8192 Z" fill="#bebebe" fill-rule="evenodd" fill-opacity="1" /><path clip-path="url(#clip170)" d="M 0 0 M1537.62 71.0992 Q1524.71 71.0992 1519.73 74.0505 Q1514.76 77.0019 1514.76 84.1199 Q1514.76 89.7912 1518.46 93.1476 Q1522.22 96.4462 1528.65 96.4462 Q1537.5 96.4462 1542.82 90.1963 Q1548.21 83.8884 1548.21 73.4718 L1548.21 71.0992 L1537.62 71.0992 M1558.85 66.701 L1558.85 103.68 L1548.21 103.68 L1548.21 93.8421 Q1544.56 99.7448 1539.12 102.58 Q1533.68 105.358 1525.81 105.358 Q1515.86 105.358 1509.95 99.8027 Q1504.11 94.1893 1504.11 84.8144 Q1504.11 73.8769 1511.4 68.3214 Q1518.75 62.7659 1533.28 62.7659 L1548.21 62.7659 L1548.21 61.7242 Q1548.21 54.3747 1543.34 50.3817 Q1538.54 46.3308 1529.8 46.3308 Q1524.25 46.3308 1518.98 47.6618 Q1513.72 48.9928 1508.85 51.6548 L1508.85 41.8169 Q1514.7 39.56 1520.2 38.4604 Q1525.69 37.303 1530.9 37.303 Q1544.96 37.303 1551.91 44.5947 Q1558.85 51.8863 1558.85 66.701 Z" fill="#bebebe" fill-rule="evenodd" fill-opacity="1" /><path clip-path="url(#clip170)" d="M 0 0 M1620.49 51.3076 Q1624.48 44.1317 1630.03 40.7174 Q1635.59 37.303 1643.11 37.303 Q1653.24 37.303 1658.74 44.4211 Q1664.24 51.4812 1664.24 64.5598 L1664.24 103.68 L1653.53 103.68 L1653.53 64.9071 Q1653.53 55.59 1650.23 51.0761 Q1646.93 46.5623 1640.16 46.5623 Q1631.89 46.5623 1627.08 52.0599 Q1622.28 57.5576 1622.28 67.0483 L1622.28 103.68 L1611.57 103.68 L1611.57 64.9071 Q1611.57 55.5321 1608.27 51.0761 Q1604.98 46.5623 1598.09 46.5623 Q1589.93 46.5623 1585.13 52.1178 Q1580.32 57.6154 1580.32 67.0483 L1580.32 103.68 L1569.62 103.68 L1569.62 38.8655 L1580.32 38.8655 L1580.32 48.9349 Q1583.97 42.9743 1589.06 40.1387 Q1594.15 37.303 1601.16 37.303 Q1608.22 37.303 1613.14 40.891 Q1618.11 44.4789 1620.49 51.3076 Z" fill="#bebebe" fill-rule="evenodd" fill-opacity="1" /><path clip-path="url(#clip170)" d="M 0 0 M1685.47 17.28 L1685.47 49.3979 L1675.64 49.3979 L1675.64 17.28 L1685.47 17.28 Z" fill="#bebebe" fill-rule="evenodd" fill-opacity="1" /><path clip-path="url(#clip172)" d="
M262.21 536.36 L262.21 1444.41 L655.984 1444.41 L655.984 536.36 L262.21 536.36 L262.21 536.36  Z
  " fill="#e69f00" fill-rule="evenodd" fill-opacity="1"/>
<polyline clip-path="url(#clip172)" style="stroke:#000000; stroke-width:4; stroke-opacity:1; fill:none" points="
  262.21,536.36 262.21,1444.41 655.984,1444.41 655.984,536.36 262.21,536.36 
  "/>
<path clip-path="url(#clip172)" d="
M655.984 187.111 L655.984 1444.41 L1049.76 1444.41 L1049.76 187.111 L655.984 187.111 L655.984 187.111  Z
  " fill="#e69f00" fill-rule="evenodd" fill-opacity="1"/>
<polyline clip-path="url(#clip172)" style="stroke:#000000; stroke-width:4; stroke-opacity:1; fill:none" points="
  655.984,187.111 655.984,1444.41 1049.76,1444.41 1049.76,187.111 655.984,187.111 
  "/>
<path clip-path="url(#clip172)" d="
M1049.76 955.46 L1049.76 1444.41 L1443.53 1444.41 L1443.53 955.46 L1049.76 955.46 L1049.76 955.46  Z
  " fill="#e69f00" fill-rule="evenodd" fill-opacity="1"/>
<polyline clip-path="url(#clip172)" style="stroke:#000000; stroke-width:4; stroke-opacity:1; fill:none" points="
  1049.76,955.46 1049.76,1444.41 1443.53,1444.41 1443.53,955.46 1049.76,955.46 
  "/>
<path clip-path="url(#clip172)" d="
M1443.53 676.06 L1443.53 1444.41 L1837.31 1444.41 L1837.31 676.06 L1443.53 676.06 L1443.53 676.06  Z
  " fill="#e69f00" fill-rule="evenodd" fill-opacity="1"/>
<polyline clip-path="url(#clip172)" style="stroke:#000000; stroke-width:4; stroke-opacity:1; fill:none" points="
  1443.53,676.06 1443.53,1444.41 1837.31,1444.41 1837.31,676.06 1443.53,676.06 
  "/>
<path clip-path="url(#clip172)" d="
M1837.31 1374.56 L1837.31 1444.41 L2231.08 1444.41 L2231.08 1374.56 L1837.31 1374.56 L1837.31 1374.56  Z
  " fill="#e69f00" fill-rule="evenodd" fill-opacity="1"/>
<polyline clip-path="url(#clip172)" style="stroke:#000000; stroke-width:4; stroke-opacity:1; fill:none" points="
  1837.31,1374.56 1837.31,1444.41 2231.08,1444.41 2231.08,1374.56 1837.31,1374.56 
  "/>
<path clip-path="url(#clip170)" d="
M1982.19 314.777 L2279.02 314.777 L2279.02 193.817 L1982.19 193.817  Z
  " fill="#ffffff" fill-rule="evenodd" fill-opacity="1"/>
<polyline clip-path="url(#clip170)" style="stroke:#000000; stroke-width:4; stroke-opacity:1; fill:none" points="
  1982.19,314.777 2279.02,314.777 2279.02,193.817 1982.19,193.817 1982.19,314.777 
  "/>
<path clip-path="url(#clip170)" d="
M2006.77 278.489 L2154.26 278.489 L2154.26 230.105 L2006.77 230.105 L2006.77 278.489  Z
  " fill="#e69f00" fill-rule="evenodd" fill-opacity="1"/>
<polyline clip-path="url(#clip170)" style="stroke:#000000; stroke-width:4; stroke-opacity:1; fill:none" points="
  2006.77,278.489 2154.26,278.489 2154.26,230.105 2006.77,230.105 2006.77,278.489 
  "/>
<path clip-path="url(#clip170)" d="M 0 0 M2192.68 273.984 Q2190.87 278.614 2189.16 280.026 Q2187.45 281.438 2184.58 281.438 L2181.17 281.438 L2181.17 277.873 L2183.67 277.873 Q2185.43 277.873 2186.41 277.04 Q2187.38 276.206 2188.56 273.104 L2189.32 271.16 L2178.84 245.651 L2183.35 245.651 L2191.45 265.929 L2199.55 245.651 L2204.07 245.651 L2192.68 273.984 Z" fill="#bebebe" fill-rule="evenodd" fill-opacity="1" /><path clip-path="url(#clip170)" d="M 0 0 M2209.95 267.641 L2217.59 267.641 L2217.59 241.276 L2209.28 242.943 L2209.28 238.683 L2217.54 237.017 L2222.22 237.017 L2222.22 267.641 L2229.85 267.641 L2229.85 271.577 L2209.95 271.577 L2209.95 267.641 Z" fill="#bebebe" fill-rule="evenodd" fill-opacity="1" /></svg>
