<?xml version="1.0" encoding="utf-8"?>
<svg xmlns="http://www.w3.org/2000/svg" xmlns:xlink="http://www.w3.org/1999/xlink" width="600" height="400" viewBox="0 0 2400 1600">
<defs>
  <clipPath id="clip810">
    <rect x="0" y="0" width="2400" height="1600"/>
  </clipPath>
</defs>
<path clip-path="url(#clip810)" d="
M0 1600 L2400 1600 L2400 0 L0 0  Z
  " fill="#ffffff" fill-rule="evenodd" fill-opacity="1"/>
<defs>
  <clipPath id="clip811">
    <rect x="480" y="0" width="1681" height="1600"/>
  </clipPath>
</defs>
<path clip-path="url(#clip810)" d="
M145.716 1482.13 L2352.76 1482.13 L2352.76 149.392 L145.716 149.392  Z
  " fill="#ffffff" fill-rule="evenodd" fill-opacity="1"/>
<defs>
  <clipPath id="clip812">
    <rect x="145" y="149" width="2208" height="1334"/>
  </clipPath>
</defs>
<polyline clip-path="url(#clip812)" style="stroke:#000000; stroke-width:2; stroke-opacity:0.1; fill:none" points="
  495.367,1482.13 495.367,149.392 
  "/>
<polyline clip-path="url(#clip812)" style="stroke:#000000; stroke-width:2; stroke-opacity:0.1; fill:none" points="
  854.352,1482.13 854.352,149.392 
  "/>
<polyline clip-path="url(#clip812)" style="stroke:#000000; stroke-width:2; stroke-opacity:0.1; fill:none" points="
  1213.34,1482.13 1213.34,149.392 
  "/>
<polyline clip-path="url(#clip812)" style="stroke:#000000; stroke-width:2; stroke-opacity:0.1; fill:none" points="
  1572.32,1482.13 1572.32,149.392 
  "/>
<polyline clip-path="url(#clip812)" style="stroke:#000000; stroke-width:2; stroke-opacity:0.1; fill:none" points="
  1931.31,1482.13 1931.31,149.392 
  "/>
<polyline clip-path="url(#clip812)" style="stroke:#000000; stroke-width:2; stroke-opacity:0.1; fill:none" points="
  2290.29,1482.13 2290.29,149.392 
  "/>
<polyline clip-path="url(#clip810)" style="stroke:#000000; stroke-width:4; stroke-opacity:1; fill:none" points="
  145.716,1482.13 2352.76,1482.13 
  "/>
<polyline clip-path="url(#clip810)" style="stroke:#000000; stroke-width:4; stroke-opacity:1; fill:none" points="
  495.367,1482.13 495.367,1466.14 
  "/>
<polyline clip-path="url(#clip810)" style="stroke:#000000; stroke-width:4; stroke-opacity:1; fill:none" points="
  854.352,1482.13 854.352,1466.14 
  "/>
<polyline clip-path="url(#clip810)" style="stroke:#000000; stroke-width:4; stroke-opacity:1; fill:none" points="
  1213.34,1482.13 1213.34,1466.14 
  "/>
<polyline clip-path="url(#clip810)" style="stroke:#000000; stroke-width:4; stroke-opacity:1; fill:none" points="
  1572.32,1482.13 1572.32,1466.14 
  "/>
<polyline clip-path="url(#clip810)" style="stroke:#000000; stroke-width:4; stroke-opacity:1; fill:none" points="
  1931.31,1482.13 1931.31,1466.14 
  "/>
<polyline clip-path="url(#clip810)" style="stroke:#000000; stroke-width:4; stroke-opacity:1; fill:none" points="
  2290.29,1482.13 2290.29,1466.14 
  "/>
<path clip-path="url(#clip810)" d="M 0 0 M484.43 1509.1 L505.081 1509.1 L505.081 1513.53 L489.247 1513.53 L489.247 1523.06 Q490.393 1522.67 491.539 1522.49 Q492.685 1522.28 493.831 1522.28 Q500.341 1522.28 504.143 1525.85 Q507.945 1529.42 507.945 1535.51 Q507.945 1541.79 504.039 1545.28 Q500.133 1548.74 493.023 1548.74 Q490.576 1548.74 488.024 1548.32 Q485.497 1547.91 482.789 1547.07 L482.789 1541.79 Q485.133 1543.06 487.633 1543.69 Q490.133 1544.31 492.919 1544.31 Q497.424 1544.31 500.055 1541.94 Q502.685 1539.57 502.685 1535.51 Q502.685 1531.45 500.055 1529.08 Q497.424 1526.71 492.919 1526.71 Q490.81 1526.71 488.701 1527.18 Q486.617 1527.65 484.43 1528.64 L484.43 1509.1 Z" fill="#bebebe" fill-rule="evenodd" fill-opacity="1" /><path clip-path="url(#clip810)" d="M 0 0 M828.337 1543.56 L836.93 1543.56 L836.93 1513.9 L827.582 1515.77 L827.582 1510.98 L836.878 1509.1 L842.139 1509.1 L842.139 1543.56 L850.733 1543.56 L850.733 1547.98 L828.337 1547.98 L828.337 1543.56 Z" fill="#bebebe" fill-rule="evenodd" fill-opacity="1" /><path clip-path="url(#clip810)" d="M 0 0 M867.686 1512.57 Q863.623 1512.57 861.566 1516.58 Q859.535 1520.56 859.535 1528.58 Q859.535 1536.58 861.566 1540.59 Q863.623 1544.57 867.686 1544.57 Q871.774 1544.57 873.805 1540.59 Q875.863 1536.58 875.863 1528.58 Q875.863 1520.56 873.805 1516.58 Q871.774 1512.57 867.686 1512.57 M867.686 1508.4 Q874.222 1508.4 877.659 1513.58 Q881.123 1518.74 881.123 1528.58 Q881.123 1538.4 877.659 1543.58 Q874.222 1548.74 867.686 1548.74 Q861.149 1548.74 857.686 1543.58 Q854.248 1538.4 854.248 1528.58 Q854.248 1518.74 857.686 1513.58 Q861.149 1508.4 867.686 1508.4 Z" fill="#bebebe" fill-rule="evenodd" fill-opacity="1" /><path clip-path="url(#clip810)" d="M 0 0 M1187.88 1543.56 L1196.48 1543.56 L1196.48 1513.9 L1187.13 1515.77 L1187.13 1510.98 L1196.42 1509.1 L1201.68 1509.1 L1201.68 1543.56 L1210.28 1543.56 L1210.28 1547.98 L1187.88 1547.98 L1187.88 1543.56 Z" fill="#bebebe" fill-rule="evenodd" fill-opacity="1" /><path clip-path="url(#clip810)" d="M 0 0 M1216.03 1509.1 L1236.68 1509.1 L1236.68 1513.53 L1220.85 1513.53 L1220.85 1523.06 Q1222 1522.67 1223.14 1522.49 Q1224.29 1522.28 1225.43 1522.28 Q1231.94 1522.28 1235.75 1525.85 Q1239.55 1529.42 1239.55 1535.51 Q1239.55 1541.79 1235.64 1545.28 Q1231.74 1548.74 1224.63 1548.74 Q1222.18 1548.74 1219.63 1548.32 Q1217.1 1547.91 1214.39 1547.07 L1214.39 1541.79 Q1216.74 1543.06 1219.24 1543.69 Q1221.74 1544.31 1224.52 1544.31 Q1229.03 1544.31 1231.66 1541.94 Q1234.29 1539.57 1234.29 1535.51 Q1234.29 1531.45 1231.66 1529.08 Q1229.03 1526.71 1224.52 1526.71 Q1222.41 1526.71 1220.3 1527.18 Q1218.22 1527.65 1216.03 1528.64 L1216.03 1509.1 Z" fill="#bebebe" fill-rule="evenodd" fill-opacity="1" /><path clip-path="url(#clip810)" d="M 0 0 M1551.11 1543.56 L1569.47 1543.56 L1569.47 1547.98 L1544.78 1547.98 L1544.78 1543.56 Q1547.78 1540.46 1552.93 1535.25 Q1558.12 1530.02 1559.44 1528.5 Q1561.97 1525.67 1562.96 1523.71 Q1563.98 1521.73 1563.98 1519.83 Q1563.98 1516.73 1561.79 1514.78 Q1559.63 1512.83 1556.14 1512.83 Q1553.66 1512.83 1550.9 1513.69 Q1548.17 1514.55 1545.04 1516.29 L1545.04 1510.98 Q1548.22 1509.7 1550.98 1509.05 Q1553.74 1508.4 1556.03 1508.4 Q1562.08 1508.4 1565.67 1511.42 Q1569.26 1514.44 1569.26 1519.49 Q1569.26 1521.89 1568.35 1524.05 Q1567.47 1526.19 1565.1 1529.1 Q1564.44 1529.86 1560.96 1533.48 Q1557.47 1537.07 1551.11 1543.56 Z" fill="#bebebe" fill-rule="evenodd" fill-opacity="1" /><path clip-path="url(#clip810)" d="M 0 0 M1586.42 1512.57 Q1582.36 1512.57 1580.3 1516.58 Q1578.27 1520.56 1578.27 1528.58 Q1578.27 1536.58 1580.3 1540.59 Q1582.36 1544.57 1586.42 1544.57 Q1590.51 1544.57 1592.54 1540.59 Q1594.6 1536.58 1594.6 1528.58 Q1594.6 1520.56 1592.54 1516.58 Q1590.51 1512.57 1586.42 1512.57 M1586.42 1508.4 Q1592.96 1508.4 1596.4 1513.58 Q1599.86 1518.74 1599.86 1528.58 Q1599.86 1538.4 1596.4 1543.58 Q1592.96 1548.74 1586.42 1548.74 Q1579.89 1548.74 1576.42 1543.58 Q1572.99 1538.4 1572.99 1528.58 Q1572.99 1518.74 1576.42 1513.58 Q1579.89 1508.4 1586.42 1508.4 Z" fill="#bebebe" fill-rule="evenodd" fill-opacity="1" /><path clip-path="url(#clip810)" d="M 0 0 M1910.66 1543.56 L1929.02 1543.56 L1929.02 1547.98 L1904.33 1547.98 L1904.33 1543.56 Q1907.32 1540.46 1912.48 1535.25 Q1917.66 1530.02 1918.99 1528.5 Q1921.52 1525.67 1922.51 1523.71 Q1923.52 1521.73 1923.52 1519.83 Q1923.52 1516.73 1921.33 1514.78 Q1919.17 1512.83 1915.68 1512.83 Q1913.21 1512.83 1910.45 1513.69 Q1907.71 1514.55 1904.59 1516.29 L1904.59 1510.98 Q1907.77 1509.7 1910.53 1509.05 Q1913.29 1508.4 1915.58 1508.4 Q1921.62 1508.4 1925.21 1511.42 Q1928.81 1514.44 1928.81 1519.49 Q1928.81 1521.89 1927.9 1524.05 Q1927.01 1526.19 1924.64 1529.1 Q1923.99 1529.86 1920.5 1533.48 Q1917.01 1537.07 1910.66 1543.56 Z" fill="#bebebe" fill-rule="evenodd" fill-opacity="1" /><path clip-path="url(#clip810)" d="M 0 0 M1934.77 1509.1 L1955.42 1509.1 L1955.42 1513.53 L1939.59 1513.53 L1939.59 1523.06 Q1940.73 1522.67 1941.88 1522.49 Q1943.03 1522.28 1944.17 1522.28 Q1950.68 1522.28 1954.48 1525.85 Q1958.29 1529.42 1958.29 1535.51 Q1958.29 1541.79 1954.38 1545.28 Q1950.47 1548.74 1943.36 1548.74 Q1940.92 1548.74 1938.36 1548.32 Q1935.84 1547.91 1933.13 1547.07 L1933.13 1541.79 Q1935.47 1543.06 1937.97 1543.69 Q1940.47 1544.31 1943.26 1544.31 Q1947.77 1544.31 1950.4 1541.94 Q1953.03 1539.57 1953.03 1535.51 Q1953.03 1531.45 1950.4 1529.08 Q1947.77 1526.71 1943.26 1526.71 Q1941.15 1526.71 1939.04 1527.18 Q1936.96 1527.65 1934.77 1528.64 L1934.77 1509.1 Z" fill="#bebebe" fill-rule="evenodd" fill-opacity="1" /><path clip-path="url(#clip810)" d="M 0 0 M2279.88 1527.02 Q2283.65 1527.83 2285.76 1530.38 Q2287.9 1532.93 2287.9 1536.68 Q2287.9 1542.44 2283.94 1545.59 Q2279.98 1548.74 2272.69 1548.74 Q2270.24 1548.74 2267.64 1548.24 Q2265.06 1547.78 2262.3 1546.81 L2262.3 1541.73 Q2264.49 1543.01 2267.09 1543.66 Q2269.69 1544.31 2272.53 1544.31 Q2277.48 1544.31 2280.06 1542.36 Q2282.66 1540.41 2282.66 1536.68 Q2282.66 1533.24 2280.24 1531.32 Q2277.84 1529.36 2273.55 1529.36 L2269.02 1529.36 L2269.02 1525.04 L2273.76 1525.04 Q2277.64 1525.04 2279.69 1523.5 Q2281.75 1521.94 2281.75 1519.03 Q2281.75 1516.03 2279.62 1514.44 Q2277.51 1512.83 2273.55 1512.83 Q2271.39 1512.83 2268.91 1513.3 Q2266.44 1513.77 2263.47 1514.75 L2263.47 1510.07 Q2266.46 1509.23 2269.07 1508.82 Q2271.7 1508.4 2274.02 1508.4 Q2280.01 1508.4 2283.5 1511.14 Q2286.99 1513.84 2286.99 1518.48 Q2286.99 1521.71 2285.14 1523.95 Q2283.29 1526.16 2279.88 1527.02 Z" fill="#bebebe" fill-rule="evenodd" fill-opacity="1" /><path clip-path="url(#clip810)" d="M 0 0 M2304.85 1512.57 Q2300.79 1512.57 2298.73 1516.58 Q2296.7 1520.56 2296.7 1528.58 Q2296.7 1536.58 2298.73 1540.59 Q2300.79 1544.57 2304.85 1544.57 Q2308.94 1544.57 2310.97 1540.59 Q2313.03 1536.58 2313.03 1528.58 Q2313.03 1520.56 2310.97 1516.58 Q2308.94 1512.57 2304.85 1512.57 M2304.85 1508.4 Q2311.39 1508.4 2314.82 1513.58 Q2318.29 1518.74 2318.29 1528.58 Q2318.29 1538.4 2314.82 1543.58 Q2311.39 1548.74 2304.85 1548.74 Q2298.31 1548.74 2294.85 1543.58 Q2291.41 1538.4 2291.41 1528.58 Q2291.41 1518.74 2294.85 1513.58 Q2298.31 1508.4 2304.85 1508.4 Z" fill="#bebebe" fill-rule="evenodd" fill-opacity="1" /><polyline clip-path="url(#clip812)" style="stroke:#000000; stroke-width:2; stroke-opacity:0.1; fill:none" points="
  145.716,1227.63 2352.76,1227.63 
  "/>
<polyline clip-path="url(#clip812)" style="stroke:#000000; stroke-width:2; stroke-opacity:0.1; fill:none" points="
  145.716,938.599 2352.76,938.599 
  "/>
<polyline clip-path="url(#clip812)" style="stroke:#000000; stroke-width:2; stroke-opacity:0.1; fill:none" points="
  145.716,649.565 2352.76,649.565 
  "/>
<polyline clip-path="url(#clip812)" style="stroke:#000000; stroke-width:2; stroke-opacity:0.1; fill:none" points="
  145.716,360.531 2352.76,360.531 
  "/>
<polyline clip-path="url(#clip810)" style="stroke:#000000; stroke-width:4; stroke-opacity:1; fill:none" points="
  145.716,1482.13 145.716,149.392 
  "/>
<polyline clip-path="url(#clip810)" style="stroke:#000000; stroke-width:4; stroke-opacity:1; fill:none" points="
  145.716,1227.63 172.2,1227.63 
  "/>
<polyline clip-path="url(#clip810)" style="stroke:#000000; stroke-width:4; stroke-opacity:1; fill:none" points="
  145.716,938.599 172.2,938.599 
  "/>
<polyline clip-path="url(#clip810)" style="stroke:#000000; stroke-width:4; stroke-opacity:1; fill:none" points="
  145.716,649.565 172.2,649.565 
  "/>
<polyline clip-path="url(#clip810)" style="stroke:#000000; stroke-width:4; stroke-opacity:1; fill:none" points="
  145.716,360.531 172.2,360.531 
  "/>
<path clip-path="url(#clip810)" d="M 0 0 M60.966 1242.65 L79.3253 1242.65 L79.3253 1247.07 L54.6379 1247.07 L54.6379 1242.65 Q57.6327 1239.55 62.7889 1234.34 Q67.9712 1229.1 69.2993 1227.59 Q71.8253 1224.76 72.8149 1222.8 Q73.8305 1220.82 73.8305 1218.92 Q73.8305 1215.82 71.6431 1213.87 Q69.4816 1211.92 65.992 1211.92 Q63.5181 1211.92 60.7577 1212.78 Q58.0233 1213.64 54.8984 1215.38 L54.8984 1210.07 Q58.0754 1208.79 60.8358 1208.14 Q63.5962 1207.49 65.8879 1207.49 Q71.9295 1207.49 75.5232 1210.51 Q79.117 1213.53 79.117 1218.58 Q79.117 1220.98 78.2055 1223.14 Q77.3201 1225.28 74.9503 1228.19 Q74.2993 1228.95 70.8097 1232.57 Q67.3202 1236.16 60.966 1242.65 Z" fill="#bebebe" fill-rule="evenodd" fill-opacity="1" /><path clip-path="url(#clip810)" d="M 0 0 M96.2783 1211.66 Q92.2159 1211.66 90.1586 1215.67 Q88.1273 1219.65 88.1273 1227.67 Q88.1273 1235.67 90.1586 1239.68 Q92.2159 1243.66 96.2783 1243.66 Q100.367 1243.66 102.398 1239.68 Q104.455 1235.67 104.455 1227.67 Q104.455 1219.65 102.398 1215.67 Q100.367 1211.66 96.2783 1211.66 M96.2783 1207.49 Q102.815 1207.49 106.252 1212.67 Q109.716 1217.83 109.716 1227.67 Q109.716 1237.49 106.252 1242.67 Q102.815 1247.83 96.2783 1247.83 Q89.7419 1247.83 86.2784 1242.67 Q82.8409 1237.49 82.8409 1227.67 Q82.8409 1217.83 86.2784 1212.67 Q89.7419 1207.49 96.2783 1207.49 Z" fill="#bebebe" fill-rule="evenodd" fill-opacity="1" /><path clip-path="url(#clip810)" d="M 0 0 M68.5441 923.743 L55.2629 944.498 L68.5441 944.498 L68.5441 923.743 M67.1639 919.159 L73.7785 919.159 L73.7785 944.498 L79.3253 944.498 L79.3253 948.873 L73.7785 948.873 L73.7785 958.039 L68.5441 958.039 L68.5441 948.873 L50.9921 948.873 L50.9921 943.795 L67.1639 919.159 Z" fill="#bebebe" fill-rule="evenodd" fill-opacity="1" /><path clip-path="url(#clip810)" d="M 0 0 M96.2783 922.623 Q92.2159 922.623 90.1586 926.633 Q88.1273 930.618 88.1273 938.639 Q88.1273 946.633 90.1586 950.644 Q92.2159 954.628 96.2783 954.628 Q100.367 954.628 102.398 950.644 Q104.455 946.633 104.455 938.639 Q104.455 930.618 102.398 926.633 Q100.367 922.623 96.2783 922.623 M96.2783 918.456 Q102.815 918.456 106.252 923.639 Q109.716 928.795 109.716 938.639 Q109.716 948.456 106.252 953.638 Q102.815 958.795 96.2783 958.795 Q89.7419 958.795 86.2784 953.638 Q82.8409 948.456 82.8409 938.639 Q82.8409 928.795 86.2784 923.639 Q89.7419 918.456 96.2783 918.456 Z" fill="#bebebe" fill-rule="evenodd" fill-opacity="1" /><path clip-path="url(#clip810)" d="M 0 0 M66.3566 647.469 Q62.815 647.469 60.7317 649.891 Q58.6744 652.313 58.6744 656.532 Q58.6744 660.724 60.7317 663.172 Q62.815 665.594 66.3566 665.594 Q69.8983 665.594 71.9556 663.172 Q74.0389 660.724 74.0389 656.532 Q74.0389 652.313 71.9556 649.891 Q69.8983 647.469 66.3566 647.469 M76.7993 630.985 L76.7993 635.776 Q74.8201 634.839 72.7889 634.344 Q70.7837 633.849 68.8045 633.849 Q63.5962 633.849 60.8358 637.365 Q58.1015 640.881 57.7108 647.99 Q59.2473 645.724 61.565 644.526 Q63.8827 643.302 66.6691 643.302 Q72.5285 643.302 75.9139 646.87 Q79.3253 650.412 79.3253 656.532 Q79.3253 662.521 75.7837 666.141 Q72.242 669.761 66.3566 669.761 Q59.6119 669.761 56.0442 664.604 Q52.4765 659.422 52.4765 649.605 Q52.4765 640.386 56.8515 634.917 Q61.2264 629.422 68.5962 629.422 Q70.5754 629.422 72.5806 629.813 Q74.6118 630.204 76.7993 630.985 Z" fill="#bebebe" fill-rule="evenodd" fill-opacity="1" /><path clip-path="url(#clip810)" d="M 0 0 M96.2783 633.589 Q92.2159 633.589 90.1586 637.599 Q88.1273 641.584 88.1273 649.605 Q88.1273 657.599 90.1586 661.61 Q92.2159 665.594 96.2783 665.594 Q100.367 665.594 102.398 661.61 Q104.455 657.599 104.455 649.605 Q104.455 641.584 102.398 637.599 Q100.367 633.589 96.2783 633.589 M96.2783 629.422 Q102.815 629.422 106.252 634.605 Q109.716 639.761 109.716 649.605 Q109.716 659.422 106.252 664.604 Q102.815 669.761 96.2783 669.761 Q89.7419 669.761 86.2784 664.604 Q82.8409 659.422 82.8409 649.605 Q82.8409 639.761 86.2784 634.605 Q89.7419 629.422 96.2783 629.422 Z" fill="#bebebe" fill-rule="evenodd" fill-opacity="1" /><path clip-path="url(#clip810)" d="M 0 0 M65.992 361.508 Q62.2421 361.508 60.0806 363.513 Q57.9452 365.518 57.9452 369.034 Q57.9452 372.55 60.0806 374.555 Q62.2421 376.56 65.992 376.56 Q69.742 376.56 71.9035 374.555 Q74.0649 372.524 74.0649 369.034 Q74.0649 365.518 71.9035 363.513 Q69.7681 361.508 65.992 361.508 M60.7317 359.268 Q57.3463 358.435 55.4452 356.117 Q53.5702 353.8 53.5702 350.466 Q53.5702 345.805 56.8775 343.097 Q60.2108 340.388 65.992 340.388 Q71.7993 340.388 75.1066 343.097 Q78.4139 345.805 78.4139 350.466 Q78.4139 353.8 76.5128 356.117 Q74.6378 358.435 71.2785 359.268 Q75.0805 360.154 77.1899 362.732 Q79.3253 365.31 79.3253 369.034 Q79.3253 374.685 75.8618 377.706 Q72.4243 380.727 65.992 380.727 Q59.5598 380.727 56.0963 377.706 Q52.6588 374.685 52.6588 369.034 Q52.6588 365.31 54.7942 362.732 Q56.9296 360.154 60.7317 359.268 M58.8046 350.961 Q58.8046 353.982 60.6796 355.675 Q62.5806 357.367 65.992 357.367 Q69.3774 357.367 71.2785 355.675 Q73.2055 353.982 73.2055 350.961 Q73.2055 347.94 71.2785 346.248 Q69.3774 344.555 65.992 344.555 Q62.5806 344.555 60.6796 346.248 Q58.8046 347.94 58.8046 350.961 Z" fill="#bebebe" fill-rule="evenodd" fill-opacity="1" /><path clip-path="url(#clip810)" d="M 0 0 M96.2783 344.555 Q92.2159 344.555 90.1586 348.565 Q88.1273 352.55 88.1273 360.571 Q88.1273 368.565 90.1586 372.576 Q92.2159 376.56 96.2783 376.56 Q100.367 376.56 102.398 372.576 Q104.455 368.565 104.455 360.571 Q104.455 352.55 102.398 348.565 Q100.367 344.555 96.2783 344.555 M96.2783 340.388 Q102.815 340.388 106.252 345.571 Q109.716 350.727 109.716 360.571 Q109.716 370.388 106.252 375.57 Q102.815 380.727 96.2783 380.727 Q89.7419 380.727 86.2784 375.57 Q82.8409 370.388 82.8409 360.571 Q82.8409 350.727 86.2784 345.571 Q89.7419 340.388 96.2783 340.388 Z" fill="#bebebe" fill-rule="evenodd" fill-opacity="1" /><path clip-path="url(#clip810)" d="M 0 0 M1028.52 20.1156 L1028.52 31.516 Q1021.86 28.3332 1015.96 26.7707 Q1010.06 25.2082 1004.56 25.2082 Q995.013 25.2082 989.804 28.9119 Q984.654 32.6156 984.654 39.4442 Q984.654 45.1734 988.068 48.1247 Q991.54 51.0182 1001.15 52.8122 L1008.21 54.259 Q1021.29 56.7474 1027.48 63.0552 Q1033.73 69.3052 1033.73 79.8375 Q1033.73 92.3953 1025.28 98.8768 Q1016.89 105.358 1000.63 105.358 Q994.492 105.358 987.547 103.969 Q980.661 102.58 973.254 99.8606 L973.254 87.8236 Q980.372 91.8166 987.2 93.8421 Q994.029 95.8675 1000.63 95.8675 Q1010.64 95.8675 1016.08 91.9324 Q1021.52 87.9972 1021.52 80.7056 Q1021.52 74.3399 1017.58 70.7519 Q1013.7 67.164 1004.79 65.37 L997.675 63.9811 Q984.596 61.377 978.751 55.8215 Q972.906 50.2659 972.906 40.3702 Q972.906 28.9119 980.95 22.3147 Q989.052 15.7175 1003.23 15.7175 Q1009.31 15.7175 1015.61 16.817 Q1021.92 17.9166 1028.52 20.1156 Z" fill="#bebebe" fill-rule="evenodd" fill-opacity="1" /><path clip-path="url(#clip810)" d="M 0 0 M1100.34 68.6107 L1100.34 73.819 L1051.38 73.819 Q1052.07 84.8144 1057.98 90.6014 Q1063.94 96.3305 1074.53 96.3305 Q1080.66 96.3305 1086.39 94.8259 Q1092.18 93.3213 1097.85 90.312 L1097.85 100.381 Q1092.12 102.812 1086.1 104.085 Q1080.08 105.358 1073.89 105.358 Q1058.38 105.358 1049.29 96.3305 Q1040.27 87.3028 1040.27 71.9093 Q1040.27 55.9951 1048.83 46.678 Q1057.45 37.303 1072.04 37.303 Q1085.12 37.303 1092.7 45.7521 Q1100.34 54.1432 1100.34 68.6107 M1089.69 65.4858 Q1089.57 56.7474 1084.77 51.5391 Q1080.02 46.3308 1072.15 46.3308 Q1063.24 46.3308 1057.86 51.3655 Q1052.54 56.4002 1051.73 65.5436 L1089.69 65.4858 Z" fill="#bebebe" fill-rule="evenodd" fill-opacity="1" /><path clip-path="url(#clip810)" d="M 0 0 M1149.06 48.8192 Q1147.27 47.7775 1145.13 47.3146 Q1143.04 46.7937 1140.5 46.7937 Q1131.47 46.7937 1126.61 52.6965 Q1121.81 58.5414 1121.81 69.5367 L1121.81 103.68 L1111.1 103.68 L1111.1 38.8655 L1121.81 38.8655 L1121.81 48.9349 Q1125.16 43.0322 1130.54 40.1965 Q1135.93 37.303 1143.62 37.303 Q1144.72 37.303 1146.05 37.4767 Q1147.38 37.5924 1149 37.8817 L1149.06 48.8192 Z" fill="#bebebe" fill-rule="evenodd" fill-opacity="1" /><path clip-path="url(#clip810)" d="M 0 0 M1160.23 38.8655 L1170.88 38.8655 L1170.88 103.68 L1160.23 103.68 L1160.23 38.8655 M1160.23 13.6342 L1170.88 13.6342 L1170.88 27.1179 L1160.23 27.1179 L1160.23 13.6342 Z" fill="#bebebe" fill-rule="evenodd" fill-opacity="1" /><path clip-path="url(#clip810)" d="M 0 0 M1237.49 68.6107 L1237.49 73.819 L1188.53 73.819 Q1189.22 84.8144 1195.13 90.6014 Q1201.09 96.3305 1211.68 96.3305 Q1217.81 96.3305 1223.54 94.8259 Q1229.33 93.3213 1235 90.312 L1235 100.381 Q1229.27 102.812 1223.25 104.085 Q1217.23 105.358 1211.04 105.358 Q1195.53 105.358 1186.45 96.3305 Q1177.42 87.3028 1177.42 71.9093 Q1177.42 55.9951 1185.98 46.678 Q1194.61 37.303 1209.19 37.303 Q1222.27 37.303 1229.85 45.7521 Q1237.49 54.1432 1237.49 68.6107 M1226.84 65.4858 Q1226.72 56.7474 1221.92 51.5391 Q1217.18 46.3308 1209.31 46.3308 Q1200.39 46.3308 1195.01 51.3655 Q1189.69 56.4002 1188.88 65.5436 L1226.84 65.4858 Z" fill="#bebebe" fill-rule="evenodd" fill-opacity="1" /><path clip-path="url(#clip810)" d="M 0 0 M1296.4 8.88884 L1312.72 30.5322 L1303.87 30.5322 L1285 8.88884 L1296.4 8.88884 Z" fill="#bebebe" fill-rule="evenodd" fill-opacity="1" /><path clip-path="url(#clip810)" d="M 0 0 M1323.89 13.6342 L1334.54 13.6342 L1334.54 103.68 L1323.89 103.68 L1323.89 13.6342 Z" fill="#bebebe" fill-rule="evenodd" fill-opacity="1" /><path clip-path="url(#clip810)" d="M 0 0 M1345.71 38.8655 L1356.35 38.8655 L1356.35 103.68 L1345.71 103.68 L1345.71 38.8655 M1345.71 13.6342 L1356.35 13.6342 L1356.35 27.1179 L1345.71 27.1179 L1345.71 13.6342 Z" fill="#bebebe" fill-rule="evenodd" fill-opacity="1" /><path clip-path="url(#clip810)" d="M 0 0 M1421.4 64.5598 L1421.4 103.68 L1410.75 103.68 L1410.75 64.9071 Q1410.75 55.7057 1407.16 51.134 Q1403.58 46.5623 1396.4 46.5623 Q1387.78 46.5623 1382.8 52.0599 Q1377.82 57.5576 1377.82 67.0483 L1377.82 103.68 L1367.12 103.68 L1367.12 38.8655 L1377.82 38.8655 L1377.82 48.9349 Q1381.64 43.09 1386.79 40.1965 Q1392 37.303 1398.77 37.303 Q1409.94 37.303 1415.67 44.2474 Q1421.4 51.134 1421.4 64.5598 Z" fill="#bebebe" fill-rule="evenodd" fill-opacity="1" /><path clip-path="url(#clip810)" d="M 0 0 M1488.01 68.6107 L1488.01 73.819 L1439.05 73.819 Q1439.74 84.8144 1445.65 90.6014 Q1451.61 96.3305 1462.2 96.3305 Q1468.33 96.3305 1474.06 94.8259 Q1479.85 93.3213 1485.52 90.312 L1485.52 100.381 Q1479.79 102.812 1473.77 104.085 Q1467.75 105.358 1461.56 105.358 Q1446.05 105.358 1436.97 96.3305 Q1427.94 87.3028 1427.94 71.9093 Q1427.94 55.9951 1436.5 46.678 Q1445.13 37.303 1459.71 37.303 Q1472.79 37.303 1480.37 45.7521 Q1488.01 54.1432 1488.01 68.6107 M1477.36 65.4858 Q1477.24 56.7474 1472.44 51.5391 Q1467.7 46.3308 1459.82 46.3308 Q1450.91 46.3308 1445.53 51.3655 Q1440.21 56.4002 1439.4 65.5436 L1477.36 65.4858 Z" fill="#bebebe" fill-rule="evenodd" fill-opacity="1" /><path clip-path="url(#clip810)" d="M 0 0 M1509.25 8.88884 L1525.57 30.5322 L1516.71 30.5322 L1497.85 8.88884 L1509.25 8.88884 Z" fill="#bebebe" fill-rule="evenodd" fill-opacity="1" /><polyline clip-path="url(#clip812)" style="stroke:#0000ff; stroke-width:12; stroke-opacity:0.5; fill:none" stroke-dasharray="48, 24, 6, 24" points="
  208.179,259.37 279.976,1054.21 351.773,938.599 423.57,1328.8 495.367,591.759 567.164,1112.02 638.961,851.889 710.758,201.563 782.555,1083.12 854.352,591.759 
  926.149,981.955 997.946,331.628 1069.74,1155.37 1141.54,1314.34 1213.34,187.111 1285.13,505.048 1356.93,981.955 1428.73,1444.41 1500.53,533.952 1572.32,216.014 
  1644.12,201.563 1715.92,1213.18 1787.71,201.563 1859.51,505.048 1931.31,1083.12 2003.1,1039.76 2074.9,216.014 2146.7,230.466 2218.5,216.014 2290.29,1112.02 
  
  "/>
<circle clip-path="url(#clip812)" cx="208.179" cy="259.37" r="14" fill="#e69f00" fill-rule="evenodd" fill-opacity="1" stroke="#000000" stroke-opacity="1" stroke-width="3.2"/>
<circle clip-path="url(#clip812)" cx="279.976" cy="1054.21" r="14" fill="#e69f00" fill-rule="evenodd" fill-opacity="1" stroke="#000000" stroke-opacity="1" stroke-width="3.2"/>
<circle clip-path="url(#clip812)" cx="351.773" cy="938.599" r="14" fill="#e69f00" fill-rule="evenodd" fill-opacity="1" stroke="#000000" stroke-opacity="1" stroke-width="3.2"/>
<circle clip-path="url(#clip812)" cx="423.57" cy="1328.8" r="14" fill="#e69f00" fill-rule="evenodd" fill-opacity="1" stroke="#000000" stroke-opacity="1" stroke-width="3.2"/>
<circle clip-path="url(#clip812)" cx="495.367" cy="591.759" r="14" fill="#e69f00" fill-rule="evenodd" fill-opacity="1" stroke="#000000" stroke-opacity="1" stroke-width="3.2"/>
<circle clip-path="url(#clip812)" cx="567.164" cy="1112.02" r="14" fill="#e69f00" fill-rule="evenodd" fill-opacity="1" stroke="#000000" stroke-opacity="1" stroke-width="3.2"/>
<circle clip-path="url(#clip812)" cx="638.961" cy="851.889" r="14" fill="#e69f00" fill-rule="evenodd" fill-opacity="1" stroke="#000000" stroke-opacity="1" stroke-width="3.2"/>
<circle clip-path="url(#clip812)" cx="710.758" cy="201.563" r="14" fill="#e69f00" fill-rule="evenodd" fill-opacity="1" stroke="#000000" stroke-opacity="1" stroke-width="3.2"/>
<circle clip-path="url(#clip812)" cx="782.555" cy="1083.12" r="14" fill="#e69f00" fill-rule="evenodd" fill-opacity="1" stroke="#000000" stroke-opacity="1" stroke-width="3.2"/>
<circle clip-path="url(#clip812)" cx="854.352" cy="591.759" r="14" fill="#e69f00" fill-rule="evenodd" fill-opacity="1" stroke="#000000" stroke-opacity="1" stroke-width="3.2"/>
<circle clip-path="url(#clip812)" cx="926.149" cy="981.955" r="14" fill="#e69f00" fill-rule="evenodd" fill-opacity="1" stroke="#000000" stroke-opacity="1" stroke-width="3.2"/>
<circle clip-path="url(#clip812)" cx="997.946" cy="331.628" r="14" fill="#e69f00" fill-rule="evenodd" fill-opacity="1" stroke="#000000" stroke-opacity="1" stroke-width="3.2"/>
<circle clip-path="url(#clip812)" cx="1069.74" cy="1155.37" r="14" fill="#e69f00" fill-rule="evenodd" fill-opacity="1" stroke="#000000" stroke-opacity="1" stroke-width="3.2"/>
<circle clip-path="url(#clip812)" cx="1141.54" cy="1314.34" r="14" fill="#e69f00" fill-rule="evenodd" fill-opacity="1" stroke="#000000" stroke-opacity="1" stroke-width="3.2"/>
<circle clip-path="url(#clip812)" cx="1213.34" cy="187.111" r="14" fill="#e69f00" fill-rule="evenodd" fill-opacity="1" stroke="#000000" stroke-opacity="1" stroke-width="3.2"/>
<circle clip-path="url(#clip812)" cx="1285.13" cy="505.048" r="14" fill="#e69f00" fill-rule="evenodd" fill-opacity="1" stroke="#000000" stroke-opacity="1" stroke-width="3.2"/>
<circle clip-path="url(#clip812)" cx="1356.93" cy="981.955" r="14" fill="#e69f00" fill-rule="evenodd" fill-opacity="1" stroke="#000000" stroke-opacity="1" stroke-width="3.2"/>
<circle clip-path="url(#clip812)" cx="1428.73" cy="1444.41" r="14" fill="#e69f00" fill-rule="evenodd" fill-opacity="1" stroke="#000000" stroke-opacity="1" stroke-width="3.2"/>
<circle clip-path="url(#clip812)" cx="1500.53" cy="533.952" r="14" fill="#e69f00" fill-rule="evenodd" fill-opacity="1" stroke="#000000" stroke-opacity="1" stroke-width="3.2"/>
<circle clip-path="url(#clip812)" cx="1572.32" cy="216.014" r="14" fill="#e69f00" fill-rule="evenodd" fill-opacity="1" stroke="#000000" stroke-opacity="1" stroke-width="3.2"/>
<circle clip-path="url(#clip812)" cx="1644.12" cy="201.563" r="14" fill="#e69f00" fill-rule="evenodd" fill-opacity="1" stroke="#000000" stroke-opacity="1" stroke-width="3.2"/>
<circle clip-path="url(#clip812)" cx="1715.92" cy="1213.18" r="14" fill="#e69f00" fill-rule="evenodd" fill-opacity="1" stroke="#000000" stroke-opacity="1" stroke-width="3.2"/>
<circle clip-path="url(#clip812)" cx="1787.71" cy="201.563" r="14" fill="#e69f00" fill-rule="evenodd" fill-opacity="1" stroke="#000000" stroke-opacity="1" stroke-width="3.2"/>
<circle clip-path="url(#clip812)" cx="1859.51" cy="505.048" r="14" fill="#e69f00" fill-rule="evenodd" fill-opacity="1" stroke="#000000" stroke-opacity="1" stroke-width="3.2"/>
<circle clip-path="url(#clip812)" cx="1931.31" cy="1083.12" r="14" fill="#e69f00" fill-rule="evenodd" fill-opacity="1" stroke="#000000" stroke-opacity="1" stroke-width="3.2"/>
<circle clip-path="url(#clip812)" cx="2003.1" cy="1039.76" r="14" fill="#e69f00" fill-rule="evenodd" fill-opacity="1" stroke="#000000" stroke-opacity="1" stroke-width="3.2"/>
<circle clip-path="url(#clip812)" cx="2074.9" cy="216.014" r="14" fill="#e69f00" fill-rule="evenodd" fill-opacity="1" stroke="#000000" stroke-opacity="1" stroke-width="3.2"/>
<circle clip-path="url(#clip812)" cx="2146.7" cy="230.466" r="14" fill="#e69f00" fill-rule="evenodd" fill-opacity="1" stroke="#000000" stroke-opacity="1" stroke-width="3.2"/>
<circle clip-path="url(#clip812)" cx="2218.5" cy="216.014" r="14" fill="#e69f00" fill-rule="evenodd" fill-opacity="1" stroke="#000000" stroke-opacity="1" stroke-width="3.2"/>
<circle clip-path="url(#clip812)" cx="2290.29" cy="1112.02" r="14" fill="#e69f00" fill-rule="evenodd" fill-opacity="1" stroke="#000000" stroke-opacity="1" stroke-width="3.2"/>
<path clip-path="url(#clip810)" d="
M1982.94 314.777 L2279.19 314.777 L2279.19 193.817 L1982.94 193.817  Z
  " fill="#ffffff" fill-rule="evenodd" fill-opacity="1"/>
<polyline clip-path="url(#clip810)" style="stroke:#000000; stroke-width:4; stroke-opacity:1; fill:none" points="
  1982.94,314.777 2279.19,314.777 2279.19,193.817 1982.94,193.817 1982.94,314.777 
  "/>
<polyline clip-path="url(#clip810)" style="stroke:#0000ff; stroke-width:4; stroke-opacity:0.5; fill:none" stroke-dasharray="16, 8, 2, 8" points="
  2007.47,254.297 2154.6,254.297 
  "/>
<circle clip-path="url(#clip810)" cx="2081.03" cy="254.297" r="23" fill="#e69f00" fill-rule="evenodd" fill-opacity="1" stroke="#000000" stroke-opacity="1" stroke-width="5.12"/>
<path clip-path="url(#clip810)" d="M 0 0 M2192.97 273.984 Q2191.16 278.614 2189.45 280.026 Q2187.74 281.438 2184.87 281.438 L2181.46 281.438 L2181.46 277.873 L2183.96 277.873 Q2185.72 277.873 2186.69 277.04 Q2187.67 276.206 2188.85 273.104 L2189.61 271.16 L2179.12 245.651 L2183.64 245.651 L2191.74 265.929 L2199.84 245.651 L2204.36 245.651 L2192.97 273.984 Z" fill="#bebebe" fill-rule="evenodd" fill-opacity="1" /><path clip-path="url(#clip810)" d="M 0 0 M2210.24 267.641 L2217.87 267.641 L2217.87 241.276 L2209.56 242.943 L2209.56 238.683 L2217.83 237.017 L2222.5 237.017 L2222.5 267.641 L2230.14 267.641 L2230.14 271.577 L2210.24 271.577 L2210.24 267.641 Z" fill="#bebebe" fill-rule="evenodd" fill-opacity="1" /></svg>
