<?xml version="1.0" encoding="utf-8"?>
<svg xmlns="http://www.w3.org/2000/svg" xmlns:xlink="http://www.w3.org/1999/xlink" width="600" height="400" viewBox="0 0 2400 1600">
<defs>
  <clipPath id="clip380">
    <rect x="0" y="0" width="2400" height="1600"/>
  </clipPath>
</defs>
<path clip-path="url(#clip380)" d="
M0 1600 L2400 1600 L2400 0 L0 0  Z
  " fill="#ffffff" fill-rule="evenodd" fill-opacity="1"/>
<defs>
  <clipPath id="clip381">
    <rect x="480" y="0" width="1681" height="1600"/>
  </clipPath>
</defs>
<path clip-path="url(#clip380)" d="
M223.496 1486.45 L2352.76 1486.45 L2352.76 47.2441 L223.496 47.2441  Z
  " fill="#ffffff" fill-rule="evenodd" fill-opacity="1"/>
<defs>
  <clipPath id="clip382">
    <rect x="223" y="47" width="2130" height="1440"/>
  </clipPath>
</defs>
<polyline clip-path="url(#clip382)" style="stroke:#000000; stroke-width:2; stroke-opacity:0.1; fill:none" points="
  283.758,1486.45 283.758,47.2441 
  "/>
<polyline clip-path="url(#clip382)" style="stroke:#000000; stroke-width:2; stroke-opacity:0.1; fill:none" points="
  785.942,1486.45 785.942,47.2441 
  "/>
<polyline clip-path="url(#clip382)" style="stroke:#000000; stroke-width:2; stroke-opacity:0.1; fill:none" points="
  1288.13,1486.45 1288.13,47.2441 
  "/>
<polyline clip-path="url(#clip382)" style="stroke:#000000; stroke-width:2; stroke-opacity:0.1; fill:none" points="
  1790.31,1486.45 1790.31,47.2441 
  "/>
<polyline clip-path="url(#clip382)" style="stroke:#000000; stroke-width:2; stroke-opacity:0.1; fill:none" points="
  2292.49,1486.45 2292.49,47.2441 
  "/>
<polyline clip-path="url(#clip380)" style="stroke:#000000; stroke-width:4; stroke-opacity:1; fill:none" points="
  223.496,1486.45 2352.76,1486.45 
  "/>
<polyline clip-path="url(#clip380)" style="stroke:#000000; stroke-width:4; stroke-opacity:1; fill:none" points="
  283.758,1486.45 283.758,1469.18 
  "/>
<polyline clip-path="url(#clip380)" style="stroke:#000000; stroke-width:4; stroke-opacity:1; fill:none" points="
  785.942,1486.45 785.942,1469.18 
  "/>
<polyline clip-path="url(#clip380)" style="stroke:#000000; stroke-width:4; stroke-opacity:1; fill:none" points="
  1288.13,1486.45 1288.13,1469.18 
  "/>
<polyline clip-path="url(#clip380)" style="stroke:#000000; stroke-width:4; stroke-opacity:1; fill:none" points="
  1790.31,1486.45 1790.31,1469.18 
  "/>
<polyline clip-path="url(#clip380)" style="stroke:#000000; stroke-width:4; stroke-opacity:1; fill:none" points="
  2292.49,1486.45 2292.49,1469.18 
  "/>
<path clip-path="url(#clip380)" d="M 0 0 M242.52 1530.29 L272.196 1530.29 L272.196 1534.23 L242.52 1534.23 L242.52 1530.29 Z" fill="#000000" fill-rule="evenodd" fill-opacity="1" /><path clip-path="url(#clip380)" d="M 0 0 M278.075 1543.18 L285.714 1543.18 L285.714 1516.82 L277.404 1518.49 L277.404 1514.23 L285.668 1512.56 L290.344 1512.56 L290.344 1543.18 L297.983 1543.18 L297.983 1547.12 L278.075 1547.12 L278.075 1543.18 Z" fill="#000000" fill-rule="evenodd" fill-opacity="1" /><path clip-path="url(#clip380)" d="M 0 0 M313.052 1515.64 Q309.441 1515.64 307.612 1519.2 Q305.807 1522.75 305.807 1529.87 Q305.807 1536.98 307.612 1540.55 Q309.441 1544.09 313.052 1544.09 Q316.686 1544.09 318.492 1540.55 Q320.32 1536.98 320.32 1529.87 Q320.32 1522.75 318.492 1519.2 Q316.686 1515.64 313.052 1515.64 M313.052 1511.93 Q318.862 1511.93 321.918 1516.54 Q324.996 1521.12 324.996 1529.87 Q324.996 1538.6 321.918 1543.21 Q318.862 1547.79 313.052 1547.79 Q307.242 1547.79 304.163 1543.21 Q301.108 1538.6 301.108 1529.87 Q301.108 1521.12 304.163 1516.54 Q307.242 1511.93 313.052 1511.93 Z" fill="#000000" fill-rule="evenodd" fill-opacity="1" /><path clip-path="url(#clip380)" d="M 0 0 M758.095 1530.29 L787.771 1530.29 L787.771 1534.23 L758.095 1534.23 L758.095 1530.29 Z" fill="#000000" fill-rule="evenodd" fill-opacity="1" /><path clip-path="url(#clip380)" d="M 0 0 M792.886 1512.56 L811.243 1512.56 L811.243 1516.5 L797.169 1516.5 L797.169 1524.97 Q798.187 1524.62 799.206 1524.46 Q800.224 1524.27 801.243 1524.27 Q807.03 1524.27 810.409 1527.44 Q813.789 1530.62 813.789 1536.03 Q813.789 1541.61 810.317 1544.71 Q806.845 1547.79 800.525 1547.79 Q798.349 1547.79 796.081 1547.42 Q793.836 1547.05 791.428 1546.31 L791.428 1541.61 Q793.511 1542.74 795.734 1543.3 Q797.956 1543.86 800.433 1543.86 Q804.437 1543.86 806.775 1541.75 Q809.113 1539.64 809.113 1536.03 Q809.113 1532.42 806.775 1530.31 Q804.437 1528.21 800.433 1528.21 Q798.558 1528.21 796.683 1528.62 Q794.831 1529.04 792.886 1529.92 L792.886 1512.56 Z" fill="#000000" fill-rule="evenodd" fill-opacity="1" /><path clip-path="url(#clip380)" d="M 0 0 M1288.13 1515.64 Q1284.51 1515.64 1282.69 1519.2 Q1280.88 1522.75 1280.88 1529.87 Q1280.88 1536.98 1282.69 1540.55 Q1284.51 1544.09 1288.13 1544.09 Q1291.76 1544.09 1293.57 1540.55 Q1295.39 1536.98 1295.39 1529.87 Q1295.39 1522.75 1293.57 1519.2 Q1291.76 1515.64 1288.13 1515.64 M1288.13 1511.93 Q1293.94 1511.93 1296.99 1516.54 Q1300.07 1521.12 1300.07 1529.87 Q1300.07 1538.6 1296.99 1543.21 Q1293.94 1547.79 1288.13 1547.79 Q1282.32 1547.79 1279.24 1543.21 Q1276.18 1538.6 1276.18 1529.87 Q1276.18 1521.12 1279.24 1516.54 Q1282.32 1511.93 1288.13 1511.93 Z" fill="#000000" fill-rule="evenodd" fill-opacity="1" /><path clip-path="url(#clip380)" d="M 0 0 M1780.59 1512.56 L1798.94 1512.56 L1798.94 1516.5 L1784.87 1516.5 L1784.87 1524.97 Q1785.89 1524.62 1786.91 1524.46 Q1787.93 1524.27 1788.94 1524.27 Q1794.73 1524.27 1798.11 1527.44 Q1801.49 1530.62 1801.49 1536.03 Q1801.49 1541.61 1798.02 1544.71 Q1794.55 1547.79 1788.23 1547.79 Q1786.05 1547.79 1783.78 1547.42 Q1781.54 1547.05 1779.13 1546.31 L1779.13 1541.61 Q1781.21 1542.74 1783.43 1543.3 Q1785.66 1543.86 1788.13 1543.86 Q1792.14 1543.86 1794.48 1541.75 Q1796.81 1539.64 1796.81 1536.03 Q1796.81 1532.42 1794.48 1530.31 Q1792.14 1528.21 1788.13 1528.21 Q1786.26 1528.21 1784.38 1528.62 Q1782.53 1529.04 1780.59 1529.92 L1780.59 1512.56 Z" fill="#000000" fill-rule="evenodd" fill-opacity="1" /><path clip-path="url(#clip380)" d="M 0 0 M2269.37 1543.18 L2277.01 1543.18 L2277.01 1516.82 L2268.7 1518.49 L2268.7 1514.23 L2276.96 1512.56 L2281.64 1512.56 L2281.64 1543.18 L2289.28 1543.18 L2289.28 1547.12 L2269.37 1547.12 L2269.37 1543.18 Z" fill="#000000" fill-rule="evenodd" fill-opacity="1" /><path clip-path="url(#clip380)" d="M 0 0 M2304.35 1515.64 Q2300.73 1515.64 2298.91 1519.2 Q2297.1 1522.75 2297.1 1529.87 Q2297.1 1536.98 2298.91 1540.55 Q2300.73 1544.09 2304.35 1544.09 Q2307.98 1544.09 2309.79 1540.55 Q2311.61 1536.98 2311.61 1529.87 Q2311.61 1522.75 2309.79 1519.2 Q2307.98 1515.64 2304.35 1515.64 M2304.35 1511.93 Q2310.16 1511.93 2313.21 1516.54 Q2316.29 1521.12 2316.29 1529.87 Q2316.29 1538.6 2313.21 1543.21 Q2310.16 1547.79 2304.35 1547.79 Q2298.54 1547.79 2295.46 1543.21 Q2292.4 1538.6 2292.4 1529.87 Q2292.4 1521.12 2295.46 1516.54 Q2298.54 1511.93 2304.35 1511.93 Z" fill="#000000" fill-rule="evenodd" fill-opacity="1" /><polyline clip-path="url(#clip382)" style="stroke:#000000; stroke-width:2; stroke-opacity:0.1; fill:none" points="
  223.496,1445.72 2352.76,1445.72 
  "/>
<polyline clip-path="url(#clip382)" style="stroke:#000000; stroke-width:2; stroke-opacity:0.1; fill:none" points="
  223.496,1106.28 2352.76,1106.28 
  "/>
<polyline clip-path="url(#clip382)" style="stroke:#000000; stroke-width:2; stroke-opacity:0.1; fill:none" points="
  223.496,766.846 2352.76,766.846 
  "/>
<polyline clip-path="url(#clip382)" style="stroke:#000000; stroke-width:2; stroke-opacity:0.1; fill:none" points="
  223.496,427.411 2352.76,427.411 
  "/>
<polyline clip-path="url(#clip382)" style="stroke:#000000; stroke-width:2; stroke-opacity:0.1; fill:none" points="
  223.496,87.9763 2352.76,87.9763 
  "/>
<polyline clip-path="url(#clip380)" style="stroke:#000000; stroke-width:4; stroke-opacity:1; fill:none" points="
  223.496,1486.45 223.496,47.2441 
  "/>
<polyline clip-path="url(#clip380)" style="stroke:#000000; stroke-width:4; stroke-opacity:1; fill:none" points="
  223.496,1445.72 249.047,1445.72 
  "/>
<polyline clip-path="url(#clip380)" style="stroke:#000000; stroke-width:4; stroke-opacity:1; fill:none" points="
  223.496,1106.28 249.047,1106.28 
  "/>
<polyline clip-path="url(#clip380)" style="stroke:#000000; stroke-width:4; stroke-opacity:1; fill:none" points="
  223.496,766.846 249.047,766.846 
  "/>
<polyline clip-path="url(#clip380)" style="stroke:#000000; stroke-width:4; stroke-opacity:1; fill:none" points="
  223.496,427.411 249.047,427.411 
  "/>
<polyline clip-path="url(#clip380)" style="stroke:#000000; stroke-width:4; stroke-opacity:1; fill:none" points="
  223.496,87.9763 249.047,87.9763 
  "/>
<path clip-path="url(#clip380)" d="M 0 0 M50.9921 1446.17 L80.6679 1446.17 L80.6679 1450.1 L50.9921 1450.1 L50.9921 1446.17 Z" fill="#000000" fill-rule="evenodd" fill-opacity="1" /><path clip-path="url(#clip380)" d="M 0 0 M86.5475 1459.06 L94.1863 1459.06 L94.1863 1432.69 L85.8762 1434.36 L85.8762 1430.1 L94.14 1428.44 L98.8159 1428.44 L98.8159 1459.06 L106.455 1459.06 L106.455 1463 L86.5475 1463 L86.5475 1459.06 Z" fill="#000000" fill-rule="evenodd" fill-opacity="1" /><path clip-path="url(#clip380)" d="M 0 0 M121.524 1431.51 Q117.913 1431.51 116.084 1435.08 Q114.279 1438.62 114.279 1445.75 Q114.279 1452.86 116.084 1456.42 Q117.913 1459.96 121.524 1459.96 Q125.158 1459.96 126.964 1456.42 Q128.793 1452.86 128.793 1445.75 Q128.793 1438.62 126.964 1435.08 Q125.158 1431.51 121.524 1431.51 M121.524 1427.81 Q127.334 1427.81 130.39 1432.42 Q133.469 1437 133.469 1445.75 Q133.469 1454.48 130.39 1459.08 Q127.334 1463.67 121.524 1463.67 Q115.714 1463.67 112.635 1459.08 Q109.58 1454.48 109.58 1445.75 Q109.58 1437 112.635 1432.42 Q115.714 1427.81 121.524 1427.81 Z" fill="#000000" fill-rule="evenodd" fill-opacity="1" /><path clip-path="url(#clip380)" d="M 0 0 M148.538 1431.51 Q144.927 1431.51 143.098 1435.08 Q141.293 1438.62 141.293 1445.75 Q141.293 1452.86 143.098 1456.42 Q144.927 1459.96 148.538 1459.96 Q152.172 1459.96 153.978 1456.42 Q155.806 1452.86 155.806 1445.75 Q155.806 1438.62 153.978 1435.08 Q152.172 1431.51 148.538 1431.51 M148.538 1427.81 Q154.348 1427.81 157.404 1432.42 Q160.482 1437 160.482 1445.75 Q160.482 1454.48 157.404 1459.08 Q154.348 1463.67 148.538 1463.67 Q142.728 1463.67 139.649 1459.08 Q136.594 1454.48 136.594 1445.75 Q136.594 1437 139.649 1432.42 Q142.728 1427.81 148.538 1427.81 Z" fill="#000000" fill-rule="evenodd" fill-opacity="1" /><path clip-path="url(#clip380)" d="M 0 0 M175.552 1431.51 Q171.941 1431.51 170.112 1435.08 Q168.306 1438.62 168.306 1445.75 Q168.306 1452.86 170.112 1456.42 Q171.941 1459.96 175.552 1459.96 Q179.186 1459.96 180.991 1456.42 Q182.82 1452.86 182.82 1445.75 Q182.82 1438.62 180.991 1435.08 Q179.186 1431.51 175.552 1431.51 M175.552 1427.81 Q181.362 1427.81 184.417 1432.42 Q187.496 1437 187.496 1445.75 Q187.496 1454.48 184.417 1459.08 Q181.362 1463.67 175.552 1463.67 Q169.741 1463.67 166.663 1459.08 Q163.607 1454.48 163.607 1445.75 Q163.607 1437 166.663 1432.42 Q169.741 1427.81 175.552 1427.81 Z" fill="#000000" fill-rule="evenodd" fill-opacity="1" /><path clip-path="url(#clip380)" d="M 0 0 M77.7744 1106.73 L107.45 1106.73 L107.45 1110.67 L77.7744 1110.67 L77.7744 1106.73 Z" fill="#000000" fill-rule="evenodd" fill-opacity="1" /><path clip-path="url(#clip380)" d="M 0 0 M112.566 1089 L130.922 1089 L130.922 1092.94 L116.848 1092.94 L116.848 1101.41 Q117.867 1101.06 118.885 1100.9 Q119.904 1100.71 120.922 1100.71 Q126.709 1100.71 130.089 1103.89 Q133.469 1107.06 133.469 1112.47 Q133.469 1118.05 129.996 1121.15 Q126.524 1124.23 120.205 1124.23 Q118.029 1124.23 115.76 1123.86 Q113.515 1123.49 111.108 1122.75 L111.108 1118.05 Q113.191 1119.19 115.413 1119.74 Q117.635 1120.3 120.112 1120.3 Q124.117 1120.3 126.455 1118.19 Q128.793 1116.08 128.793 1112.47 Q128.793 1108.86 126.455 1106.76 Q124.117 1104.65 120.112 1104.65 Q118.237 1104.65 116.362 1105.07 Q114.51 1105.48 112.566 1106.36 L112.566 1089 Z" fill="#000000" fill-rule="evenodd" fill-opacity="1" /><path clip-path="url(#clip380)" d="M 0 0 M148.538 1092.08 Q144.927 1092.08 143.098 1095.64 Q141.293 1099.19 141.293 1106.32 Q141.293 1113.42 143.098 1116.99 Q144.927 1120.53 148.538 1120.53 Q152.172 1120.53 153.978 1116.99 Q155.806 1113.42 155.806 1106.32 Q155.806 1099.19 153.978 1095.64 Q152.172 1092.08 148.538 1092.08 M148.538 1088.38 Q154.348 1088.38 157.404 1092.98 Q160.482 1097.57 160.482 1106.32 Q160.482 1115.04 157.404 1119.65 Q154.348 1124.23 148.538 1124.23 Q142.728 1124.23 139.649 1119.65 Q136.594 1115.04 136.594 1106.32 Q136.594 1097.57 139.649 1092.98 Q142.728 1088.38 148.538 1088.38 Z" fill="#000000" fill-rule="evenodd" fill-opacity="1" /><path clip-path="url(#clip380)" d="M 0 0 M175.552 1092.08 Q171.941 1092.08 170.112 1095.64 Q168.306 1099.19 168.306 1106.32 Q168.306 1113.42 170.112 1116.99 Q171.941 1120.53 175.552 1120.53 Q179.186 1120.53 180.991 1116.99 Q182.82 1113.42 182.82 1106.32 Q182.82 1099.19 180.991 1095.64 Q179.186 1092.08 175.552 1092.08 M175.552 1088.38 Q181.362 1088.38 184.417 1092.98 Q187.496 1097.57 187.496 1106.32 Q187.496 1115.04 184.417 1119.65 Q181.362 1124.23 175.552 1124.23 Q169.741 1124.23 166.663 1119.65 Q163.607 1115.04 163.607 1106.32 Q163.607 1097.57 166.663 1092.98 Q169.741 1088.38 175.552 1088.38 Z" fill="#000000" fill-rule="evenodd" fill-opacity="1" /><path clip-path="url(#clip380)" d="M 0 0 M175.552 752.645 Q171.941 752.645 170.112 756.209 Q168.306 759.751 168.306 766.881 Q168.306 773.987 170.112 777.552 Q171.941 781.094 175.552 781.094 Q179.186 781.094 180.991 777.552 Q182.82 773.987 182.82 766.881 Q182.82 759.751 180.991 756.209 Q179.186 752.645 175.552 752.645 M175.552 748.941 Q181.362 748.941 184.417 753.547 Q187.496 758.131 187.496 766.881 Q187.496 775.608 184.417 780.214 Q181.362 784.797 175.552 784.797 Q169.741 784.797 166.663 780.214 Q163.607 775.608 163.607 766.881 Q163.607 758.131 166.663 753.547 Q169.741 748.941 175.552 748.941 Z" fill="#000000" fill-rule="evenodd" fill-opacity="1" /><path clip-path="url(#clip380)" d="M 0 0 M112.566 410.131 L130.922 410.131 L130.922 414.066 L116.848 414.066 L116.848 422.538 Q117.867 422.191 118.885 422.029 Q119.904 421.844 120.922 421.844 Q126.709 421.844 130.089 425.015 Q133.469 428.187 133.469 433.603 Q133.469 439.182 129.996 442.284 Q126.524 445.362 120.205 445.362 Q118.029 445.362 115.76 444.992 Q113.515 444.622 111.108 443.881 L111.108 439.182 Q113.191 440.316 115.413 440.872 Q117.635 441.427 120.112 441.427 Q124.117 441.427 126.455 439.321 Q128.793 437.214 128.793 433.603 Q128.793 429.992 126.455 427.886 Q124.117 425.779 120.112 425.779 Q118.237 425.779 116.362 426.196 Q114.51 426.613 112.566 427.492 L112.566 410.131 Z" fill="#000000" fill-rule="evenodd" fill-opacity="1" /><path clip-path="url(#clip380)" d="M 0 0 M148.538 413.21 Q144.927 413.21 143.098 416.775 Q141.293 420.316 141.293 427.446 Q141.293 434.552 143.098 438.117 Q144.927 441.659 148.538 441.659 Q152.172 441.659 153.978 438.117 Q155.806 434.552 155.806 427.446 Q155.806 420.316 153.978 416.775 Q152.172 413.21 148.538 413.21 M148.538 409.506 Q154.348 409.506 157.404 414.113 Q160.482 418.696 160.482 427.446 Q160.482 436.173 157.404 440.779 Q154.348 445.362 148.538 445.362 Q142.728 445.362 139.649 440.779 Q136.594 436.173 136.594 427.446 Q136.594 418.696 139.649 414.113 Q142.728 409.506 148.538 409.506 Z" fill="#000000" fill-rule="evenodd" fill-opacity="1" /><path clip-path="url(#clip380)" d="M 0 0 M175.552 413.21 Q171.941 413.21 170.112 416.775 Q168.306 420.316 168.306 427.446 Q168.306 434.552 170.112 438.117 Q171.941 441.659 175.552 441.659 Q179.186 441.659 180.991 438.117 Q182.82 434.552 182.82 427.446 Q182.82 420.316 180.991 416.775 Q179.186 413.21 175.552 413.21 M175.552 409.506 Q181.362 409.506 184.417 414.113 Q187.496 418.696 187.496 427.446 Q187.496 436.173 184.417 440.779 Q181.362 445.362 175.552 445.362 Q169.741 445.362 166.663 440.779 Q163.607 436.173 163.607 427.446 Q163.607 418.696 166.663 414.113 Q169.741 409.506 175.552 409.506 Z" fill="#000000" fill-rule="evenodd" fill-opacity="1" /><path clip-path="url(#clip380)" d="M 0 0 M86.5475 101.321 L94.1863 101.321 L94.1863 74.9555 L85.8762 76.6222 L85.8762 72.3629 L94.14 70.6963 L98.8159 70.6963 L98.8159 101.321 L106.455 101.321 L106.455 105.256 L86.5475 105.256 L86.5475 101.321 Z" fill="#000000" fill-rule="evenodd" fill-opacity="1" /><path clip-path="url(#clip380)" d="M 0 0 M121.524 73.775 Q117.913 73.775 116.084 77.3398 Q114.279 80.8814 114.279 88.011 Q114.279 95.1174 116.084 98.6822 Q117.913 102.224 121.524 102.224 Q125.158 102.224 126.964 98.6822 Q128.793 95.1174 128.793 88.011 Q128.793 80.8814 126.964 77.3398 Q125.158 73.775 121.524 73.775 M121.524 70.0713 Q127.334 70.0713 130.39 74.6777 Q133.469 79.261 133.469 88.011 Q133.469 96.7378 130.39 101.344 Q127.334 105.928 121.524 105.928 Q115.714 105.928 112.635 101.344 Q109.58 96.7378 109.58 88.011 Q109.58 79.261 112.635 74.6777 Q115.714 70.0713 121.524 70.0713 Z" fill="#000000" fill-rule="evenodd" fill-opacity="1" /><path clip-path="url(#clip380)" d="M 0 0 M148.538 73.775 Q144.927 73.775 143.098 77.3398 Q141.293 80.8814 141.293 88.011 Q141.293 95.1174 143.098 98.6822 Q144.927 102.224 148.538 102.224 Q152.172 102.224 153.978 98.6822 Q155.806 95.1174 155.806 88.011 Q155.806 80.8814 153.978 77.3398 Q152.172 73.775 148.538 73.775 M148.538 70.0713 Q154.348 70.0713 157.404 74.6777 Q160.482 79.261 160.482 88.011 Q160.482 96.7378 157.404 101.344 Q154.348 105.928 148.538 105.928 Q142.728 105.928 139.649 101.344 Q136.594 96.7378 136.594 88.011 Q136.594 79.261 139.649 74.6777 Q142.728 70.0713 148.538 70.0713 Z" fill="#000000" fill-rule="evenodd" fill-opacity="1" /><path clip-path="url(#clip380)" d="M 0 0 M175.552 73.775 Q171.941 73.775 170.112 77.3398 Q168.306 80.8814 168.306 88.011 Q168.306 95.1174 170.112 98.6822 Q171.941 102.224 175.552 102.224 Q179.186 102.224 180.991 98.6822 Q182.82 95.1174 182.82 88.011 Q182.82 80.8814 180.991 77.3398 Q179.186 73.775 175.552 73.775 M175.552 70.0713 Q181.362 70.0713 184.417 74.6777 Q187.496 79.261 187.496 88.011 Q187.496 96.7378 184.417 101.344 Q181.362 105.928 175.552 105.928 Q169.741 105.928 166.663 101.344 Q163.607 96.7378 163.607 88.011 Q163.607 79.261 166.663 74.6777 Q169.741 70.0713 175.552 70.0713 Z" fill="#000000" fill-rule="evenodd" fill-opacity="1" /><polyline clip-path="url(#clip382)" style="stroke:#e69f00; stroke-width:4; stroke-opacity:1; fill:none" points="
  283.758,698.959 293.802,700.31 303.845,701.647 313.889,702.971 323.933,704.281 333.976,705.578 344.02,706.861 354.064,708.131 364.108,709.386 374.151,710.629 
  384.195,711.858 394.239,713.073 404.282,714.274 414.326,715.462 424.37,716.637 434.413,717.798 444.457,718.945 454.501,720.079 464.544,721.199 474.588,722.305 
  484.632,723.398 494.675,724.478 504.719,725.544 514.763,726.596 524.806,727.634 534.85,728.66 544.894,729.671 554.937,730.669 564.981,731.653 575.025,732.624 
  585.068,733.581 595.112,734.525 605.156,735.455 615.199,736.372 625.243,737.274 635.287,738.164 645.331,739.039 655.374,739.902 665.418,740.75 675.462,741.585 
  685.505,742.407 695.549,743.215 705.593,744.009 715.636,744.79 725.68,745.557 735.724,746.31 745.767,747.05 755.811,747.777 765.855,748.489 775.898,749.189 
  785.942,749.874 795.986,750.546 806.029,751.205 816.073,751.85 826.117,752.481 836.16,753.099 846.204,753.703 856.248,754.294 866.291,754.871 876.335,755.434 
  886.379,755.984 896.422,756.52 906.466,757.043 916.51,757.552 926.554,758.048 936.597,758.53 946.641,758.998 956.685,759.453 966.728,759.894 976.772,760.322 
  986.816,760.736 996.859,761.137 1006.9,761.524 1016.95,761.897 1026.99,762.257 1037.03,762.603 1047.08,762.936 1057.12,763.255 1067.17,763.56 1077.21,763.852 
  1087.25,764.131 1097.3,764.395 1107.34,764.646 1117.38,764.884 1127.43,765.108 1137.47,765.319 1147.51,765.515 1157.56,765.699 1167.6,765.868 1177.65,766.025 
  1187.69,766.167 1197.73,766.296 1207.78,766.412 1217.82,766.513 1227.86,766.602 1237.91,766.676 1247.95,766.737 1257.99,766.785 1268.04,766.819 1278.08,766.839 
  1288.13,766.846 1298.17,766.839 1308.21,766.819 1318.26,766.785 1328.3,766.737 1338.34,766.676 1348.39,766.602 1358.43,766.513 1368.48,766.412 1378.52,766.296 
  1388.56,766.167 1398.61,766.025 1408.65,765.868 1418.69,765.699 1428.74,765.515 1438.78,765.319 1448.82,765.108 1458.87,764.884 1468.91,764.646 1478.96,764.395 
  1489,764.131 1499.04,763.852 1509.09,763.56 1519.13,763.255 1529.17,762.936 1539.22,762.603 1549.26,762.257 1559.31,761.897 1569.35,761.524 1579.39,761.137 
  1589.44,760.736 1599.48,760.322 1609.52,759.894 1619.57,759.453 1629.61,758.998 1639.65,758.53 1649.7,758.048 1659.74,757.552 1669.79,757.043 1679.83,756.52 
  1689.87,755.984 1699.92,755.434 1709.96,754.871 1720,754.294 1730.05,753.703 1740.09,753.099 1750.14,752.481 1760.18,751.85 1770.22,751.205 1780.27,750.546 
  1790.31,749.874 1800.35,749.189 1810.4,748.489 1820.44,747.777 1830.48,747.05 1840.53,746.31 1850.57,745.557 1860.62,744.79 1870.66,744.009 1880.7,743.215 
  1890.75,742.407 1900.79,741.585 1910.83,740.75 1920.88,739.902 1930.92,739.039 1940.97,738.164 1951.01,737.274 1961.05,736.372 1971.1,735.455 1981.14,734.525 
  1991.18,733.581 2001.23,732.624 2011.27,731.653 2021.31,730.669 2031.36,729.671 2041.4,728.66 2051.45,727.634 2061.49,726.596 2071.53,725.544 2081.58,724.478 
  2091.62,723.398 2101.66,722.305 2111.71,721.199 2121.75,720.079 2131.79,718.945 2141.84,717.798 2151.88,716.637 2161.93,715.462 2171.97,714.274 2182.01,713.073 
  2192.06,711.858 2202.1,710.629 2212.14,709.386 2222.19,708.131 2232.23,706.861 2242.28,705.578 2252.32,704.281 2262.36,702.971 2272.41,701.647 2282.45,700.31 
  2292.49,698.959 
  "/>
<polyline clip-path="url(#clip382)" style="stroke:#56b4e9; stroke-width:4; stroke-opacity:1; fill:none" points="
  283.758,1445.72 293.802,1425.55 303.845,1405.79 313.889,1386.43 323.933,1367.47 333.976,1348.89 344.02,1330.7 354.064,1312.9 364.108,1295.47 374.151,1278.42 
  384.195,1261.74 394.239,1245.43 404.282,1229.48 414.326,1213.88 424.37,1198.65 434.413,1183.76 444.457,1169.21 454.501,1155.01 464.544,1141.15 474.588,1127.63 
  484.632,1114.43 494.675,1101.56 504.719,1089 514.763,1076.77 524.806,1064.85 534.85,1053.24 544.894,1041.94 554.937,1030.94 564.981,1020.23 575.025,1009.82 
  585.068,999.698 595.112,989.861 605.156,980.304 615.199,971.025 625.243,962.018 635.287,953.281 645.331,944.808 655.374,936.595 665.418,928.64 675.462,920.937 
  685.505,913.482 695.549,906.272 705.593,899.302 715.636,892.568 725.68,886.066 735.724,879.793 745.767,873.744 755.811,867.914 765.855,862.3 775.898,856.899 
  785.942,851.705 795.986,846.714 806.029,841.924 816.073,837.328 826.117,832.924 836.16,828.708 846.204,824.675 856.248,820.821 866.291,817.142 876.335,813.634 
  886.379,810.294 896.422,807.116 906.466,804.097 916.51,801.233 926.554,798.519 936.597,795.953 946.641,793.528 956.685,791.243 966.728,789.091 976.772,787.07 
  986.816,785.175 996.859,783.403 1006.9,781.749 1016.95,780.208 1026.99,778.778 1037.03,777.453 1047.08,776.231 1057.12,775.106 1067.17,774.075 1077.21,773.133 
  1087.25,772.277 1097.3,771.502 1107.34,770.805 1117.38,770.181 1127.43,769.627 1137.47,769.137 1147.51,768.709 1157.56,768.337 1167.6,768.019 1177.65,767.75 
  1187.69,767.525 1197.73,767.341 1207.78,767.194 1217.82,767.079 1227.86,766.993 1237.91,766.931 1247.95,766.889 1257.99,766.864 1268.04,766.851 1278.08,766.847 
  1288.13,766.846 1298.17,766.845 1308.21,766.841 1318.26,766.828 1328.3,766.803 1338.34,766.761 1348.39,766.699 1358.43,766.613 1368.48,766.498 1378.52,766.351 
  1388.56,766.167 1398.61,765.942 1408.65,765.673 1418.69,765.355 1428.74,764.983 1438.78,764.555 1448.82,764.065 1458.87,763.511 1468.91,762.887 1478.96,762.19 
  1489,761.415 1499.04,760.559 1509.09,759.617 1519.13,758.586 1529.17,757.461 1539.22,756.239 1549.26,754.914 1559.31,753.484 1569.35,751.943 1579.39,750.289 
  1589.44,748.517 1599.48,746.622 1609.52,744.601 1619.57,742.449 1629.61,740.164 1639.65,737.739 1649.7,735.173 1659.74,732.459 1669.79,729.595 1679.83,726.576 
  1689.87,723.398 1699.92,720.058 1709.96,716.55 1720,712.871 1730.05,709.017 1740.09,704.984 1750.14,700.768 1760.18,696.364 1770.22,691.768 1780.27,686.978 
  1790.31,681.987 1800.35,676.793 1810.4,671.391 1820.44,665.778 1830.48,659.948 1840.53,653.899 1850.57,647.626 1860.62,641.124 1870.66,634.39 1880.7,627.42 
  1890.75,620.21 1900.79,612.755 1910.83,605.052 1920.88,597.097 1930.92,588.884 1940.97,580.411 1951.01,571.674 1961.05,562.667 1971.1,553.388 1981.14,543.831 
  1991.18,533.994 2001.23,523.871 2011.27,513.459 2021.31,502.754 2031.36,491.752 2041.4,480.448 2051.45,468.838 2061.49,456.92 2071.53,444.687 2081.58,432.137 
  2091.62,419.265 2101.66,406.067 2111.71,392.539 2121.75,378.677 2131.79,364.477 2141.84,349.935 2151.88,335.047 2161.93,319.808 2171.97,304.215 2182.01,288.264 
  2192.06,271.95 2202.1,255.269 2212.14,238.218 2222.19,220.792 2232.23,202.988 2242.28,184.8 2252.32,166.226 2262.36,147.26 2272.41,127.899 2282.45,108.139 
  2292.49,87.9763 
  "/>
<path clip-path="url(#clip380)" d="
M1994.18 276.658 L2281.78 276.658 L2281.78 95.2176 L1994.18 95.2176  Z
  " fill="#ffffff" fill-rule="evenodd" fill-opacity="1"/>
<polyline clip-path="url(#clip380)" style="stroke:#000000; stroke-width:4; stroke-opacity:1; fill:none" points="
  1994.18,276.658 2281.78,276.658 2281.78,95.2176 1994.18,95.2176 1994.18,276.658 
  "/>
<polyline clip-path="url(#clip380)" style="stroke:#e69f00; stroke-width:4; stroke-opacity:1; fill:none" points="
  2017.84,155.698 2159.79,155.698 
  "/>
<path clip-path="url(#clip380)" d="M 0 0 M2197.29 175.385 Q2195.48 180.015 2193.77 181.427 Q2192.06 182.839 2189.19 182.839 L2185.78 182.839 L2185.78 179.274 L2188.28 179.274 Q2190.04 179.274 2191.01 178.44 Q2191.99 177.607 2193.17 174.505 L2193.93 172.561 L2183.45 147.052 L2187.96 147.052 L2196.06 167.329 L2204.16 147.052 L2208.68 147.052 L2197.29 175.385 Z" fill="#000000" fill-rule="evenodd" fill-opacity="1" /><path clip-path="url(#clip380)" d="M 0 0 M2214.56 169.042 L2222.2 169.042 L2222.2 142.677 L2213.89 144.343 L2213.89 140.084 L2222.15 138.418 L2226.82 138.418 L2226.82 169.042 L2234.46 169.042 L2234.46 172.978 L2214.56 172.978 L2214.56 169.042 Z" fill="#000000" fill-rule="evenodd" fill-opacity="1" /><polyline clip-path="url(#clip380)" style="stroke:#56b4e9; stroke-width:4; stroke-opacity:1; fill:none" points="
  2017.84,216.178 2159.79,216.178 
  "/>
<path clip-path="url(#clip380)" d="M 0 0 M2197.29 235.865 Q2195.48 240.495 2193.77 241.907 Q2192.06 243.319 2189.19 243.319 L2185.78 243.319 L2185.78 239.754 L2188.28 239.754 Q2190.04 239.754 2191.01 238.92 Q2191.99 238.087 2193.17 234.985 L2193.93 233.041 L2183.45 207.532 L2187.96 207.532 L2196.06 227.809 L2204.16 207.532 L2208.68 207.532 L2197.29 235.865 Z" fill="#000000" fill-rule="evenodd" fill-opacity="1" /><path clip-path="url(#clip380)" d="M 0 0 M2217.77 229.522 L2234.09 229.522 L2234.09 233.458 L2212.15 233.458 L2212.15 229.522 Q2214.81 226.768 2219.39 222.138 Q2224 217.485 2225.18 216.143 Q2227.43 213.62 2228.31 211.884 Q2229.21 210.124 2229.21 208.435 Q2229.21 205.68 2227.26 203.944 Q2225.34 202.208 2222.24 202.208 Q2220.04 202.208 2217.59 202.972 Q2215.16 203.735 2212.38 205.286 L2212.38 200.564 Q2215.2 199.43 2217.66 198.851 Q2220.11 198.273 2222.15 198.273 Q2227.52 198.273 2230.71 200.958 Q2233.91 203.643 2233.91 208.134 Q2233.91 210.263 2233.1 212.185 Q2232.31 214.083 2230.2 216.675 Q2229.63 217.347 2226.52 220.564 Q2223.42 223.759 2217.77 229.522 Z" fill="#000000" fill-rule="evenodd" fill-opacity="1" /></svg>
