<?xml version="1.0" encoding="utf-8"?>
<svg xmlns="http://www.w3.org/2000/svg" xmlns:xlink="http://www.w3.org/1999/xlink" width="600" height="400" viewBox="0 0 2400 1600">
<defs>
  <clipPath id="clip010">
    <rect x="0" y="0" width="2400" height="1600"/>
  </clipPath>
</defs>
<path clip-path="url(#clip010)" d="
M0 1600 L2400 1600 L2400 0 L0 0  Z
  " fill="#ffffff" fill-rule="evenodd" fill-opacity="1"/>
<defs>
  <clipPath id="clip011">
    <rect x="480" y="0" width="1681" height="1600"/>
  </clipPath>
</defs>
<path clip-path="url(#clip010)" d="
M145.716 1482.13 L2352.76 1482.13 L2352.76 149.392 L145.716 149.392  Z
  " fill="#ffffff" fill-rule="evenodd" fill-opacity="1"/>
<defs>
  <clipPath id="clip012">
    <rect x="145" y="149" width="2208" height="1334"/>
  </clipPath>
</defs>
<polyline clip-path="url(#clip012)" style="stroke:#000000; stroke-width:2; stroke-opacity:0.1; fill:none" points="
  495.367,1482.13 495.367,149.392 
  "/>
<polyline clip-path="url(#clip012)" style="stroke:#000000; stroke-width:2; stroke-opacity:0.1; fill:none" points="
  854.352,1482.13 854.352,149.392 
  "/>
<polyline clip-path="url(#clip012)" style="stroke:#000000; stroke-width:2; stroke-opacity:0.1; fill:none" points="
  1213.34,1482.13 1213.34,149.392 
  "/>
<polyline clip-path="url(#clip012)" style="stroke:#000000; stroke-width:2; stroke-opacity:0.1; fill:none" points="
  1572.32,1482.13 1572.32,149.392 
  "/>
<polyline clip-path="url(#clip012)" style="stroke:#000000; stroke-width:2; stroke-opacity:0.1; fill:none" points="
  1931.31,1482.13 1931.31,149.392 
  "/>
<polyline clip-path="url(#clip012)" style="stroke:#000000; stroke-width:2; stroke-opacity:0.1; fill:none" points="
  2290.29,1482.13 2290.29,149.392 
  "/>
<polyline clip-path="url(#clip010)" style="stroke:#000000; stroke-width:4; stroke-opacity:1; fill:none" points="
  145.716,1482.13 2352.76,1482.13 
  "/>
<polyline clip-path="url(#clip010)" style="stroke:#000000; stroke-width:4; stroke-opacity:1; fill:none" points="
  495.367,1482.13 495.367,1466.14 
  "/>
<polyline clip-path="url(#clip010)" style="stroke:#000000; stroke-width:4; stroke-opacity:1; fill:none" points="
  854.352,1482.13 854.352,1466.14 
  "/>
<polyline clip-path="url(#clip010)" style="stroke:#000000; stroke-width:4; stroke-opacity:1; fill:none" points="
  1213.34,1482.13 1213.34,1466.14 
  "/>
<polyline clip-path="url(#clip010)" style="stroke:#000000; stroke-width:4; stroke-opacity:1; fill:none" points="
  1572.32,1482.13 1572.32,1466.14 
  "/>
<polyline clip-path="url(#clip010)" style="stroke:#000000; stroke-width:4; stroke-opacity:1; fill:none" points="
  1931.31,1482.13 1931.31,1466.14 
  "/>
<polyline clip-path="url(#clip010)" style="stroke:#000000; stroke-width:4; stroke-opacity:1; fill:none" points="
  2290.29,1482.13 2290.29,1466.14 
  "/>
<path clip-path="url(#clip010)" d="M 0 0 M484.43 1509.1 L505.081 1509.1 L505.081 1513.53 L489.247 1513.53 L489.247 1523.06 Q490.393 1522.67 491.539 1522.49 Q492.685 1522.28 493.831 1522.28 Q500.341 1522.28 504.143 1525.85 Q507.945 1529.42 507.945 1535.51 Q507.945 1541.79 504.039 1545.28 Q500.133 1548.74 493.023 1548.74 Q490.576 1548.74 488.024 1548.32 Q485.497 1547.91 482.789 1547.07 L482.789 1541.79 Q485.133 1543.06 487.633 1543.69 Q490.133 1544.31 492.919 1544.31 Q497.424 1544.31 500.055 1541.94 Q502.685 1539.57 502.685 1535.51 Q502.685 1531.45 500.055 1529.08 Q497.424 1526.71 492.919 1526.71 Q490.81 1526.71 488.701 1527.18 Q486.617 1527.65 484.43 1528.64 L484.43 1509.1 Z" fill="#bebebe" fill-rule="evenodd" fill-opacity="1" /><path clip-path="url(#clip010)" d="M 0 0 M828.337 1543.56 L836.93 1543.56 L836.93 1513.9 L827.582 1515.77 L827.582 1510.98 L836.878 1509.1 L842.139 1509.1 L842.139 1543.56 L850.733 1543.56 L850.733 1547.98 L828.337 1547.98 L828.337 1543.56 Z" fill="#bebebe" fill-rule="evenodd" fill-opacity="1" /><path clip-path="url(#clip010)" d="M 0 0 M867.686 1512.57 Q863.623 1512.57 861.566 1516.58 Q859.535 1520.56 859.535 1528.58 Q859.535 1536.58 861.566 1540.59 Q863.623 1544.57 867.686 1544.57 Q871.774 1544.57 873.805 1540.59 Q875.863 1536.58 875.863 1528.58 Q875.863 1520.56 873.805 1516.58 Q871.774 1512.57 867.686 1512.57 M867.686 1508.4 Q874.222 1508.4 877.659 1513.58 Q881.123 1518.74 881.123 1528.58 Q881.123 1538.4 877.659 1543.58 Q874.222 1548.74 867.686 1548.74 Q861.149 1548.74 857.686 1543.58 Q854.248 1538.4 854.248 1528.58 Q854.248 1518.74 857.686 1513.58 Q861.149 1508.4 867.686 1508.4 Z" fill="#bebebe" fill-rule="evenodd" fill-opacity="1" /><path clip-path="url(#clip010)" d="M 0 0 M1187.88 1543.56 L1196.48 1543.56 L1196.48 1513.9 L1187.13 1515.77 L1187.13 1510.98 L1196.42 1509.1 L1201.68 1509.1 L1201.68 1543.56 L1210.28 1543.56 L1210.28 1547.98 L1187.88 1547.98 L1187.88 1543.56 Z" fill="#bebebe" fill-rule="evenodd" fill-opacity="1" /><path clip-path="url(#clip010)" d="M 0 0 M1216.03 1509.1 L1236.68 1509.1 L1236.68 1513.53 L1220.85 1513.53 L1220.85 1523.06 Q1222 1522.67 1223.14 1522.49 Q1224.29 1522.28 1225.43 1522.28 Q1231.94 1522.28 1235.75 1525.85 Q1239.55 1529.42 1239.55 1535.51 Q1239.55 1541.79 1235.64 1545.28 Q1231.74 1548.74 1224.63 1548.74 Q1222.18 1548.74 1219.63 1548.32 Q1217.1 1547.91 1214.39 1547.07 L1214.39 1541.79 Q1216.74 1543.06 1219.24 1543.69 Q1221.74 1544.31 1224.52 1544.31 Q1229.03 1544.31 1231.66 1541.94 Q1234.29 1539.57 1234.29 1535.51 Q1234.29 1531.45 1231.66 1529.08 Q1229.03 1526.71 1224.52 1526.71 Q1222.41 1526.71 1220.3 1527.18 Q1218.22 1527.65 1216.03 1528.64 L1216.03 1509.1 Z" fill="#bebebe" fill-rule="evenodd" fill-opacity="1" /><path clip-path="url(#clip010)" d="M 0 0 M1551.11 1543.56 L1569.47 1543.56 L1569.47 1547.98 L1544.78 1547.98 L1544.78 1543.56 Q1547.78 1540.46 1552.93 1535.25 Q1558.12 1530.02 1559.44 1528.5 Q1561.97 1525.67 1562.96 1523.71 Q1563.98 1521.73 1563.98 1519.83 Q1563.98 1516.73 1561.79 1514.78 Q1559.63 1512.83 1556.14 1512.83 Q1553.66 1512.83 1550.9 1513.69 Q1548.17 1514.55 1545.04 1516.29 L1545.04 1510.98 Q1548.22 1509.7 1550.98 1509.05 Q1553.74 1508.4 1556.03 1508.4 Q1562.08 1508.4 1565.67 1511.42 Q1569.26 1514.44 1569.26 1519.49 Q1569.26 1521.89 1568.35 1524.05 Q1567.47 1526.19 1565.1 1529.1 Q1564.44 1529.86 1560.96 1533.48 Q1557.47 1537.07 1551.11 1543.56 Z" fill="#bebebe" fill-rule="evenodd" fill-opacity="1" /><path clip-path="url(#clip010)" d="M 0 0 M1586.42 1512.57 Q1582.36 1512.57 1580.3 1516.58 Q1578.27 1520.56 1578.27 1528.58 Q1578.27 1536.58 1580.3 1540.59 Q1582.36 1544.57 1586.42 1544.57 Q1590.51 1544.57 1592.54 1540.59 Q1594.6 1536.58 1594.6 1528.58 Q1594.6 1520.56 1592.54 1516.58 Q1590.51 1512.57 1586.42 1512.57 M1586.42 1508.4 Q1592.96 1508.4 1596.4 1513.58 Q1599.86 1518.74 1599.86 1528.58 Q1599.86 1538.4 1596.4 1543.58 Q1592.96 1548.74 1586.42 1548.74 Q1579.89 1548.74 1576.42 1543.58 Q1572.99 1538.4 1572.99 1528.58 Q1572.99 1518.74 1576.42 1513.58 Q1579.89 1508.4 1586.42 1508.4 Z" fill="#bebebe" fill-rule="evenodd" fill-opacity="1" /><path clip-path="url(#clip010)" d="M 0 0 M1910.66 1543.56 L1929.02 1543.56 L1929.02 1547.98 L1904.33 1547.98 L1904.33 1543.56 Q1907.32 1540.46 1912.48 1535.25 Q1917.66 1530.02 1918.99 1528.5 Q1921.52 1525.67 1922.51 1523.71 Q1923.52 1521.73 1923.52 1519.83 Q1923.52 1516.73 1921.33 1514.78 Q1919.17 1512.83 1915.68 1512.83 Q1913.21 1512.83 1910.45 1513.69 Q1907.71 1514.55 1904.59 1516.29 L1904.59 1510.98 Q1907.77 1509.7 1910.53 1509.05 Q1913.29 1508.4 1915.58 1508.4 Q1921.62 1508.4 1925.21 1511.42 Q1928.81 1514.44 1928.81 1519.49 Q1928.81 1521.89 1927.9 1524.05 Q1927.01 1526.19 1924.64 1529.1 Q1923.99 1529.86 1920.5 1533.48 Q1917.01 1537.07 1910.66 1543.56 Z" fill="#bebebe" fill-rule="evenodd" fill-opacity="1" /><path clip-path="url(#clip010)" d="M 0 0 M1934.77 1509.1 L1955.42 1509.1 L1955.42 1513.53 L1939.59 1513.53 L1939.59 1523.06 Q1940.73 1522.67 1941.88 1522.49 Q1943.03 1522.28 1944.17 1522.28 Q1950.68 1522.28 1954.48 1525.85 Q1958.29 1529.42 1958.29 1535.51 Q1958.29 1541.79 1954.38 1545.28 Q1950.47 1548.74 1943.36 1548.74 Q1940.92 1548.74 1938.36 1548.32 Q1935.84 1547.91 1933.13 1547.07 L1933.13 1541.79 Q1935.47 1543.06 1937.97 1543.69 Q1940.47 1544.31 1943.26 1544.31 Q1947.77 1544.31 1950.4 1541.94 Q1953.03 1539.57 1953.03 1535.51 Q1953.03 1531.45 1950.4 1529.08 Q1947.77 1526.71 1943.26 1526.71 Q1941.15 1526.71 1939.04 1527.18 Q1936.96 1527.65 1934.77 1528.64 L1934.77 1509.1 Z" fill="#bebebe" fill-rule="evenodd" fill-opacity="1" /><path clip-path="url(#clip010)" d="M 0 0 M2279.88 1527.02 Q2283.65 1527.83 2285.76 1530.38 Q2287.9 1532.93 2287.9 1536.68 Q2287.9 1542.44 2283.94 1545.59 Q2279.98 1548.74 2272.69 1548.74 Q2270.24 1548.74 2267.64 1548.24 Q2265.06 1547.78 2262.3 1546.81 L2262.3 1541.73 Q2264.49 1543.01 2267.09 1543.66 Q2269.69 1544.31 2272.53 1544.31 Q2277.48 1544.31 2280.06 1542.36 Q2282.66 1540.41 2282.66 1536.68 Q2282.66 1533.24 2280.24 1531.32 Q2277.84 1529.36 2273.55 1529.36 L2269.02 1529.36 L2269.02 1525.04 L2273.76 1525.04 Q2277.64 1525.04 2279.69 1523.5 Q2281.75 1521.94 2281.75 1519.03 Q2281.75 1516.03 2279.62 1514.44 Q2277.51 1512.83 2273.55 1512.83 Q2271.39 1512.83 2268.91 1513.3 Q2266.44 1513.77 2263.47 1514.75 L2263.47 1510.07 Q2266.46 1509.23 2269.07 1508.82 Q2271.7 1508.4 2274.02 1508.4 Q2280.01 1508.4 2283.5 1511.14 Q2286.99 1513.84 2286.99 1518.48 Q2286.99 1521.71 2285.14 1523.95 Q2283.29 1526.16 2279.88 1527.02 Z" fill="#bebebe" fill-rule="evenodd" fill-opacity="1" /><path clip-path="url(#clip010)" d="M 0 0 M2304.85 1512.57 Q2300.79 1512.57 2298.73 1516.58 Q2296.7 1520.56 2296.7 1528.58 Q2296.7 1536.58 2298.73 1540.59 Q2300.79 1544.57 2304.85 1544.57 Q2308.94 1544.57 2310.97 1540.59 Q2313.03 1536.58 2313.03 1528.58 Q2313.03 1520.56 2310.97 1516.58 Q2308.94 1512.57 2304.85 1512.57 M2304.85 1508.4 Q2311.39 1508.4 2314.82 1513.58 Q2318.29 1518.74 2318.29 1528.58 Q2318.29 1538.4 2314.82 1543.58 Q2311.39 1548.74 2304.85 1548.74 Q2298.31 1548.74 2294.85 1543.58 Q2291.41 1538.4 2291.41 1528.58 Q2291.41 1518.74 2294.85 1513.58 Q2298.31 1508.4 2304.85 1508.4 Z" fill="#bebebe" fill-rule="evenodd" fill-opacity="1" /><polyline clip-path="url(#clip012)" style="stroke:#000000; stroke-width:2; stroke-opacity:0.1; fill:none" points="
  145.716,1472.04 2352.76,1472.04 
  "/>
<polyline clip-path="url(#clip012)" style="stroke:#000000; stroke-width:2; stroke-opacity:0.1; fill:none" points="
  145.716,1195.71 2352.76,1195.71 
  "/>
<polyline clip-path="url(#clip012)" style="stroke:#000000; stroke-width:2; stroke-opacity:0.1; fill:none" points="
  145.716,919.383 2352.76,919.383 
  "/>
<polyline clip-path="url(#clip012)" style="stroke:#000000; stroke-width:2; stroke-opacity:0.1; fill:none" points="
  145.716,643.054 2352.76,643.054 
  "/>
<polyline clip-path="url(#clip012)" style="stroke:#000000; stroke-width:2; stroke-opacity:0.1; fill:none" points="
  145.716,366.725 2352.76,366.725 
  "/>
<polyline clip-path="url(#clip010)" style="stroke:#000000; stroke-width:4; stroke-opacity:1; fill:none" points="
  145.716,1482.13 145.716,149.392 
  "/>
<polyline clip-path="url(#clip010)" style="stroke:#000000; stroke-width:4; stroke-opacity:1; fill:none" points="
  145.716,1472.04 172.2,1472.04 
  "/>
<polyline clip-path="url(#clip010)" style="stroke:#000000; stroke-width:4; stroke-opacity:1; fill:none" points="
  145.716,1195.71 172.2,1195.71 
  "/>
<polyline clip-path="url(#clip010)" style="stroke:#000000; stroke-width:4; stroke-opacity:1; fill:none" points="
  145.716,919.383 172.2,919.383 
  "/>
<polyline clip-path="url(#clip010)" style="stroke:#000000; stroke-width:4; stroke-opacity:1; fill:none" points="
  145.716,643.054 172.2,643.054 
  "/>
<polyline clip-path="url(#clip010)" style="stroke:#000000; stroke-width:4; stroke-opacity:1; fill:none" points="
  145.716,366.725 172.2,366.725 
  "/>
<path clip-path="url(#clip010)" d="M 0 0 M96.2783 1456.07 Q92.2159 1456.07 90.1586 1460.08 Q88.1273 1464.06 88.1273 1472.08 Q88.1273 1480.08 90.1586 1484.09 Q92.2159 1488.07 96.2783 1488.07 Q100.367 1488.07 102.398 1484.09 Q104.455 1480.08 104.455 1472.08 Q104.455 1464.06 102.398 1460.08 Q100.367 1456.07 96.2783 1456.07 M96.2783 1451.9 Q102.815 1451.9 106.252 1457.08 Q109.716 1462.24 109.716 1472.08 Q109.716 1481.9 106.252 1487.08 Q102.815 1492.24 96.2783 1492.24 Q89.7419 1492.24 86.2784 1487.08 Q82.8409 1481.9 82.8409 1472.08 Q82.8409 1462.24 86.2784 1457.08 Q89.7419 1451.9 96.2783 1451.9 Z" fill="#bebebe" fill-rule="evenodd" fill-opacity="1" /><path clip-path="url(#clip010)" d="M 0 0 M60.966 1210.73 L79.3253 1210.73 L79.3253 1215.15 L54.6379 1215.15 L54.6379 1210.73 Q57.6327 1207.63 62.7889 1202.42 Q67.9712 1197.18 69.2993 1195.67 Q71.8253 1192.84 72.8149 1190.88 Q73.8305 1188.9 73.8305 1187 Q73.8305 1183.9 71.6431 1181.95 Q69.4816 1180 65.992 1180 Q63.5181 1180 60.7577 1180.86 Q58.0233 1181.72 54.8984 1183.46 L54.8984 1178.15 Q58.0754 1176.87 60.8358 1176.22 Q63.5962 1175.57 65.8879 1175.57 Q71.9295 1175.57 75.5232 1178.59 Q79.117 1181.61 79.117 1186.66 Q79.117 1189.06 78.2055 1191.22 Q77.3201 1193.36 74.9503 1196.27 Q74.2993 1197.03 70.8097 1200.65 Q67.3202 1204.24 60.966 1210.73 Z" fill="#bebebe" fill-rule="evenodd" fill-opacity="1" /><path clip-path="url(#clip010)" d="M 0 0 M96.2783 1179.74 Q92.2159 1179.74 90.1586 1183.75 Q88.1273 1187.73 88.1273 1195.75 Q88.1273 1203.75 90.1586 1207.76 Q92.2159 1211.74 96.2783 1211.74 Q100.367 1211.74 102.398 1207.76 Q104.455 1203.75 104.455 1195.75 Q104.455 1187.73 102.398 1183.75 Q100.367 1179.74 96.2783 1179.74 M96.2783 1175.57 Q102.815 1175.57 106.252 1180.75 Q109.716 1185.91 109.716 1195.75 Q109.716 1205.57 106.252 1210.75 Q102.815 1215.91 96.2783 1215.91 Q89.7419 1215.91 86.2784 1210.75 Q82.8409 1205.57 82.8409 1195.75 Q82.8409 1185.91 86.2784 1180.75 Q89.7419 1175.57 96.2783 1175.57 Z" fill="#bebebe" fill-rule="evenodd" fill-opacity="1" /><path clip-path="url(#clip010)" d="M 0 0 M68.5441 904.527 L55.2629 925.282 L68.5441 925.282 L68.5441 904.527 M67.1639 899.943 L73.7785 899.943 L73.7785 925.282 L79.3253 925.282 L79.3253 929.657 L73.7785 929.657 L73.7785 938.823 L68.5441 938.823 L68.5441 929.657 L50.9921 929.657 L50.9921 924.579 L67.1639 899.943 Z" fill="#bebebe" fill-rule="evenodd" fill-opacity="1" /><path clip-path="url(#clip010)" d="M 0 0 M96.2783 903.407 Q92.2159 903.407 90.1586 907.417 Q88.1273 911.402 88.1273 919.423 Q88.1273 927.417 90.1586 931.428 Q92.2159 935.412 96.2783 935.412 Q100.367 935.412 102.398 931.428 Q104.455 927.417 104.455 919.423 Q104.455 911.402 102.398 907.417 Q100.367 903.407 96.2783 903.407 M96.2783 899.24 Q102.815 899.24 106.252 904.423 Q109.716 909.579 109.716 919.423 Q109.716 929.24 106.252 934.422 Q102.815 939.579 96.2783 939.579 Q89.7419 939.579 86.2784 934.422 Q82.8409 929.24 82.8409 919.423 Q82.8409 909.579 86.2784 904.423 Q89.7419 899.24 96.2783 899.24 Z" fill="#bebebe" fill-rule="evenodd" fill-opacity="1" /><path clip-path="url(#clip010)" d="M 0 0 M66.3566 640.958 Q62.815 640.958 60.7317 643.38 Q58.6744 645.802 58.6744 650.02 Q58.6744 654.213 60.7317 656.661 Q62.815 659.083 66.3566 659.083 Q69.8983 659.083 71.9556 656.661 Q74.0389 654.213 74.0389 650.02 Q74.0389 645.802 71.9556 643.38 Q69.8983 640.958 66.3566 640.958 M76.7993 624.474 L76.7993 629.265 Q74.8201 628.328 72.7889 627.833 Q70.7837 627.338 68.8045 627.338 Q63.5962 627.338 60.8358 630.854 Q58.1015 634.369 57.7108 641.479 Q59.2473 639.213 61.565 638.015 Q63.8827 636.791 66.6691 636.791 Q72.5285 636.791 75.9139 640.359 Q79.3253 643.901 79.3253 650.02 Q79.3253 656.01 75.7837 659.63 Q72.242 663.249 66.3566 663.249 Q59.6119 663.249 56.0442 658.093 Q52.4765 652.911 52.4765 643.093 Q52.4765 633.875 56.8515 628.406 Q61.2264 622.911 68.5962 622.911 Q70.5754 622.911 72.5806 623.302 Q74.6118 623.692 76.7993 624.474 Z" fill="#bebebe" fill-rule="evenodd" fill-opacity="1" /><path clip-path="url(#clip010)" d="M 0 0 M96.2783 627.078 Q92.2159 627.078 90.1586 631.088 Q88.1273 635.073 88.1273 643.093 Q88.1273 651.088 90.1586 655.098 Q92.2159 659.083 96.2783 659.083 Q100.367 659.083 102.398 655.098 Q104.455 651.088 104.455 643.093 Q104.455 635.073 102.398 631.088 Q100.367 627.078 96.2783 627.078 M96.2783 622.911 Q102.815 622.911 106.252 628.093 Q109.716 633.25 109.716 643.093 Q109.716 652.911 106.252 658.093 Q102.815 663.249 96.2783 663.249 Q89.7419 663.249 86.2784 658.093 Q82.8409 652.911 82.8409 643.093 Q82.8409 633.25 86.2784 628.093 Q89.7419 622.911 96.2783 622.911 Z" fill="#bebebe" fill-rule="evenodd" fill-opacity="1" /><path clip-path="url(#clip010)" d="M 0 0 M65.992 367.702 Q62.2421 367.702 60.0806 369.707 Q57.9452 371.712 57.9452 375.228 Q57.9452 378.743 60.0806 380.748 Q62.2421 382.754 65.992 382.754 Q69.742 382.754 71.9035 380.748 Q74.0649 378.717 74.0649 375.228 Q74.0649 371.712 71.9035 369.707 Q69.7681 367.702 65.992 367.702 M60.7317 365.462 Q57.3463 364.629 55.4452 362.311 Q53.5702 359.993 53.5702 356.66 Q53.5702 351.999 56.8775 349.29 Q60.2108 346.582 65.992 346.582 Q71.7993 346.582 75.1066 349.29 Q78.4139 351.999 78.4139 356.66 Q78.4139 359.993 76.5128 362.311 Q74.6378 364.629 71.2785 365.462 Q75.0805 366.347 77.1899 368.926 Q79.3253 371.504 79.3253 375.228 Q79.3253 380.879 75.8618 383.899 Q72.4243 386.92 65.992 386.92 Q59.5598 386.92 56.0963 383.899 Q52.6588 380.879 52.6588 375.228 Q52.6588 371.504 54.7942 368.926 Q56.9296 366.347 60.7317 365.462 M58.8046 357.155 Q58.8046 360.176 60.6796 361.868 Q62.5806 363.561 65.992 363.561 Q69.3774 363.561 71.2785 361.868 Q73.2055 360.176 73.2055 357.155 Q73.2055 354.134 71.2785 352.441 Q69.3774 350.749 65.992 350.749 Q62.5806 350.749 60.6796 352.441 Q58.8046 354.134 58.8046 357.155 Z" fill="#bebebe" fill-rule="evenodd" fill-opacity="1" /><path clip-path="url(#clip010)" d="M 0 0 M96.2783 350.749 Q92.2159 350.749 90.1586 354.759 Q88.1273 358.743 88.1273 366.764 Q88.1273 374.759 90.1586 378.769 Q92.2159 382.754 96.2783 382.754 Q100.367 382.754 102.398 378.769 Q104.455 374.759 104.455 366.764 Q104.455 358.743 102.398 354.759 Q100.367 350.749 96.2783 350.749 M96.2783 346.582 Q102.815 346.582 106.252 351.764 Q109.716 356.92 109.716 366.764 Q109.716 376.582 106.252 381.764 Q102.815 386.92 96.2783 386.92 Q89.7419 386.92 86.2784 381.764 Q82.8409 376.582 82.8409 366.764 Q82.8409 356.92 86.2784 351.764 Q89.7419 346.582 96.2783 346.582 Z" fill="#bebebe" fill-rule="evenodd" fill-opacity="1" /><path clip-path="url(#clip010)" d="M 0 0 M1028.52 20.1156 L1028.52 31.516 Q1021.86 28.3332 1015.96 26.7707 Q1010.06 25.2082 1004.56 25.2082 Q995.013 25.2082 989.804 28.9119 Q984.654 32.6156 984.654 39.4442 Q984.654 45.1734 988.068 48.1247 Q991.54 51.0182 1001.15 52.8122 L1008.21 54.259 Q1021.29 56.7474 1027.48 63.0552 Q1033.73 69.3052 1033.73 79.8375 Q1033.73 92.3953 1025.28 98.8768 Q1016.89 105.358 1000.63 105.358 Q994.492 105.358 987.547 103.969 Q980.661 102.58 973.254 99.8606 L973.254 87.8236 Q980.372 91.8166 987.2 93.8421 Q994.029 95.8675 1000.63 95.8675 Q1010.64 95.8675 1016.08 91.9324 Q1021.52 87.9972 1021.52 80.7056 Q1021.52 74.3399 1017.58 70.7519 Q1013.7 67.164 1004.79 65.37 L997.675 63.9811 Q984.596 61.377 978.751 55.8215 Q972.906 50.2659 972.906 40.3702 Q972.906 28.9119 980.95 22.3147 Q989.052 15.7175 1003.23 15.7175 Q1009.31 15.7175 1015.61 16.817 Q1021.92 17.9166 1028.52 20.1156 Z" fill="#bebebe" fill-rule="evenodd" fill-opacity="1" /><path clip-path="url(#clip010)" d="M 0 0 M1100.34 68.6107 L1100.34 73.819 L1051.38 73.819 Q1052.07 84.8144 1057.98 90.6014 Q1063.94 96.3305 1074.53 96.3305 Q1080.66 96.3305 1086.39 94.8259 Q1092.18 93.3213 1097.85 90.312 L1097.85 100.381 Q1092.12 102.812 1086.1 104.085 Q1080.08 105.358 1073.89 105.358 Q1058.38 105.358 1049.29 96.3305 Q1040.27 87.3028 1040.27 71.9093 Q1040.27 55.9951 1048.83 46.678 Q1057.45 37.303 1072.04 37.303 Q1085.12 37.303 1092.7 45.7521 Q1100.34 54.1432 1100.34 68.6107 M1089.69 65.4858 Q1089.57 56.7474 1084.77 51.5391 Q1080.02 46.3308 1072.15 46.3308 Q1063.24 46.3308 1057.86 51.3655 Q1052.54 56.4002 1051.73 65.5436 L1089.69 65.4858 Z" fill="#bebebe" fill-rule="evenodd" fill-opacity="1" /><path clip-path="url(#clip010)" d="M 0 0 M1149.06 48.8192 Q1147.27 47.7775 1145.13 47.3146 Q1143.04 46.7937 1140.5 46.7937 Q1131.47 46.7937 1126.61 52.6965 Q1121.81 58.5414 1121.81 69.5367 L1121.81 103.68 L1111.1 103.68 L1111.1 38.8655 L1121.81 38.8655 L1121.81 48.9349 Q1125.16 43.0322 1130.54 40.1965 Q1135.93 37.303 1143.62 37.303 Q1144.72 37.303 1146.05 37.4767 Q1147.38 37.5924 1149 37.8817 L1149.06 48.8192 Z" fill="#bebebe" fill-rule="evenodd" fill-opacity="1" /><path clip-path="url(#clip010)" d="M 0 0 M1160.23 38.8655 L1170.88 38.8655 L1170.88 103.68 L1160.23 103.68 L1160.23 38.8655 M1160.23 13.6342 L1170.88 13.6342 L1170.88 27.1179 L1160.23 27.1179 L1160.23 13.6342 Z" fill="#bebebe" fill-rule="evenodd" fill-opacity="1" /><path clip-path="url(#clip010)" d="M 0 0 M1237.49 68.6107 L1237.49 73.819 L1188.53 73.819 Q1189.22 84.8144 1195.13 90.6014 Q1201.09 96.3305 1211.68 96.3305 Q1217.81 96.3305 1223.54 94.8259 Q1229.33 93.3213 1235 90.312 L1235 100.381 Q1229.27 102.812 1223.25 104.085 Q1217.23 105.358 1211.04 105.358 Q1195.53 105.358 1186.45 96.3305 Q1177.42 87.3028 1177.42 71.9093 Q1177.42 55.9951 1185.98 46.678 Q1194.61 37.303 1209.19 37.303 Q1222.27 37.303 1229.85 45.7521 Q1237.49 54.1432 1237.49 68.6107 M1226.84 65.4858 Q1226.72 56.7474 1221.92 51.5391 Q1217.18 46.3308 1209.31 46.3308 Q1200.39 46.3308 1195.01 51.3655 Q1189.69 56.4002 1188.88 65.5436 L1226.84 65.4858 Z" fill="#bebebe" fill-rule="evenodd" fill-opacity="1" /><path clip-path="url(#clip010)" d="M 0 0 M1296.4 8.88884 L1312.72 30.5322 L1303.87 30.5322 L1285 8.88884 L1296.4 8.88884 Z" fill="#bebebe" fill-rule="evenodd" fill-opacity="1" /><path clip-path="url(#clip010)" d="M 0 0 M1323.89 13.6342 L1334.54 13.6342 L1334.54 103.68 L1323.89 103.68 L1323.89 13.6342 Z" fill="#bebebe" fill-rule="evenodd" fill-opacity="1" /><path clip-path="url(#clip010)" d="M 0 0 M1345.71 38.8655 L1356.35 38.8655 L1356.35 103.68 L1345.71 103.68 L1345.71 38.8655 M1345.71 13.6342 L1356.35 13.6342 L1356.35 27.1179 L1345.71 27.1179 L1345.71 13.6342 Z" fill="#bebebe" fill-rule="evenodd" fill-opacity="1" /><path clip-path="url(#clip010)" d="M 0 0 M1421.4 64.5598 L1421.4 103.68 L1410.75 103.68 L1410.75 64.9071 Q1410.75 55.7057 1407.16 51.134 Q1403.58 46.5623 1396.4 46.5623 Q1387.78 46.5623 1382.8 52.0599 Q1377.82 57.5576 1377.82 67.0483 L1377.82 103.68 L1367.12 103.68 L1367.12 38.8655 L1377.82 38.8655 L1377.82 48.9349 Q1381.64 43.09 1386.79 40.1965 Q1392 37.303 1398.77 37.303 Q1409.94 37.303 1415.67 44.2474 Q1421.4 51.134 1421.4 64.5598 Z" fill="#bebebe" fill-rule="evenodd" fill-opacity="1" /><path clip-path="url(#clip010)" d="M 0 0 M1488.01 68.6107 L1488.01 73.819 L1439.05 73.819 Q1439.74 84.8144 1445.65 90.6014 Q1451.61 96.3305 1462.2 96.3305 Q1468.33 96.3305 1474.06 94.8259 Q1479.85 93.3213 1485.52 90.312 L1485.52 100.381 Q1479.79 102.812 1473.77 104.085 Q1467.75 105.358 1461.56 105.358 Q1446.05 105.358 1436.97 96.3305 Q1427.94 87.3028 1427.94 71.9093 Q1427.94 55.9951 1436.5 46.678 Q1445.13 37.303 1459.71 37.303 Q1472.79 37.303 1480.37 45.7521 Q1488.01 54.1432 1488.01 68.6107 M1477.36 65.4858 Q1477.24 56.7474 1472.44 51.5391 Q1467.7 46.3308 1459.82 46.3308 Q1450.91 46.3308 1445.53 51.3655 Q1440.21 56.4002 1439.4 65.5436 L1477.36 65.4858 Z" fill="#bebebe" fill-rule="evenodd" fill-opacity="1" /><path clip-path="url(#clip010)" d="M 0 0 M1509.25 8.88884 L1525.57 30.5322 L1516.71 30.5322 L1497.85 8.88884 L1509.25 8.88884 Z" fill="#bebebe" fill-rule="evenodd" fill-opacity="1" /><polyline clip-path="url(#clip012)" style="stroke:#e69f00; stroke-width:4; stroke-opacity:1; fill:none" points="
  208.179,1016.1 279.976,1112.81 351.773,1347.69 423.57,311.459 495.367,1237.16 567.164,1278.61 638.961,546.339 710.758,712.137 782.555,297.643 854.352,187.111 
  926.149,767.402 997.946,352.909 1069.74,408.174 1141.54,1112.81 1213.34,933.2 1285.13,435.807 1356.93,864.118 1428.73,601.605 1500.53,1292.43 1572.32,1389.14 
  1644.12,449.624 1715.92,1444.41 1787.71,1126.63 1859.51,670.687 1931.31,1237.16 2003.1,394.358 2074.9,394.358 2146.7,394.358 2218.5,477.257 2290.29,463.44 
  
  "/>
<path clip-path="url(#clip010)" d="
M1982.94 314.777 L2279.19 314.777 L2279.19 193.817 L1982.94 193.817  Z
  " fill="#ffffff" fill-rule="evenodd" fill-opacity="1"/>
<polyline clip-path="url(#clip010)" style="stroke:#000000; stroke-width:4; stroke-opacity:1; fill:none" points="
  1982.94,314.777 2279.19,314.777 2279.19,193.817 1982.94,193.817 1982.94,314.777 
  "/>
<polyline clip-path="url(#clip010)" style="stroke:#e69f00; stroke-width:4; stroke-opacity:1; fill:none" points="
  2007.47,254.297 2154.6,254.297 
  "/>
<path clip-path="url(#clip010)" d="M 0 0 M2192.97 273.984 Q2191.16 278.614 2189.45 280.026 Q2187.74 281.438 2184.87 281.438 L2181.46 281.438 L2181.46 277.873 L2183.96 277.873 Q2185.72 277.873 2186.69 277.04 Q2187.67 276.206 2188.85 273.104 L2189.61 271.16 L2179.12 245.651 L2183.64 245.651 L2191.74 265.929 L2199.84 245.651 L2204.36 245.651 L2192.97 273.984 Z" fill="#bebebe" fill-rule="evenodd" fill-opacity="1" /><path clip-path="url(#clip010)" d="M 0 0 M2210.24 267.641 L2217.87 267.641 L2217.87 241.276 L2209.56 242.943 L2209.56 238.683 L2217.83 237.017 L2222.5 237.017 L2222.5 267.641 L2230.14 267.641 L2230.14 271.577 L2210.24 271.577 L2210.24 267.641 Z" fill="#bebebe" fill-rule="evenodd" fill-opacity="1" /></svg>
