<?xml version="1.0" encoding="utf-8"?>
<svg xmlns="http://www.w3.org/2000/svg" xmlns:xlink="http://www.w3.org/1999/xlink" width="600" height="400" viewBox="0 0 2400 1600">
<defs>
  <clipPath id="clip120">
    <rect x="0" y="0" width="2400" height="1600"/>
  </clipPath>
</defs>
<path clip-path="url(#clip120)" d="
M0 1600 L2400 1600 L2400 0 L0 0  Z
  " fill="#ffffff" fill-rule="evenodd" fill-opacity="1"/>
<defs>
  <clipPath id="clip121">
    <rect x="480" y="0" width="1681" height="1600"/>
  </clipPath>
</defs>
<path clip-path="url(#clip120)" d="
M161.598 1486.45 L2352.76 1486.45 L2352.76 47.2441 L161.598 47.2441  Z
  " fill="#ffffff" fill-rule="evenodd" fill-opacity="1"/>
<defs>
  <clipPath id="clip122">
    <rect x="161" y="47" width="2192" height="1440"/>
  </clipPath>
</defs>
<polyline clip-path="url(#clip122)" style="stroke:#000000; stroke-width:2; stroke-opacity:0.1; fill:none" points="
  223.612,1486.45 223.612,47.2441 
  "/>
<polyline clip-path="url(#clip122)" style="stroke:#000000; stroke-width:2; stroke-opacity:0.1; fill:none" points="
  740.395,1486.45 740.395,47.2441 
  "/>
<polyline clip-path="url(#clip122)" style="stroke:#000000; stroke-width:2; stroke-opacity:0.1; fill:none" points="
  1257.18,1486.45 1257.18,47.2441 
  "/>
<polyline clip-path="url(#clip122)" style="stroke:#000000; stroke-width:2; stroke-opacity:0.1; fill:none" points="
  1773.96,1486.45 1773.96,47.2441 
  "/>
<polyline clip-path="url(#clip122)" style="stroke:#000000; stroke-width:2; stroke-opacity:0.1; fill:none" points="
  2290.74,1486.45 2290.74,47.2441 
  "/>
<polyline clip-path="url(#clip120)" style="stroke:#000000; stroke-width:4; stroke-opacity:1; fill:none" points="
  161.598,1486.45 2352.76,1486.45 
  "/>
<polyline clip-path="url(#clip120)" style="stroke:#000000; stroke-width:4; stroke-opacity:1; fill:none" points="
  223.612,1486.45 223.612,1469.18 
  "/>
<polyline clip-path="url(#clip120)" style="stroke:#000000; stroke-width:4; stroke-opacity:1; fill:none" points="
  740.395,1486.45 740.395,1469.18 
  "/>
<polyline clip-path="url(#clip120)" style="stroke:#000000; stroke-width:4; stroke-opacity:1; fill:none" points="
  1257.18,1486.45 1257.18,1469.18 
  "/>
<polyline clip-path="url(#clip120)" style="stroke:#000000; stroke-width:4; stroke-opacity:1; fill:none" points="
  1773.96,1486.45 1773.96,1469.18 
  "/>
<polyline clip-path="url(#clip120)" style="stroke:#000000; stroke-width:4; stroke-opacity:1; fill:none" points="
  2290.74,1486.45 2290.74,1469.18 
  "/>
<path clip-path="url(#clip120)" d="M 0 0 M182.374 1530.29 L212.05 1530.29 L212.05 1534.23 L182.374 1534.23 L182.374 1530.29 Z" fill="#000000" fill-rule="evenodd" fill-opacity="1" /><path clip-path="url(#clip120)" d="M 0 0 M217.929 1543.18 L225.568 1543.18 L225.568 1516.82 L217.258 1518.49 L217.258 1514.23 L225.522 1512.56 L230.198 1512.56 L230.198 1543.18 L237.837 1543.18 L237.837 1547.12 L217.929 1547.12 L217.929 1543.18 Z" fill="#000000" fill-rule="evenodd" fill-opacity="1" /><path clip-path="url(#clip120)" d="M 0 0 M252.906 1515.64 Q249.295 1515.64 247.466 1519.2 Q245.661 1522.75 245.661 1529.87 Q245.661 1536.98 247.466 1540.55 Q249.295 1544.09 252.906 1544.09 Q256.54 1544.09 258.346 1540.55 Q260.174 1536.98 260.174 1529.87 Q260.174 1522.75 258.346 1519.2 Q256.54 1515.64 252.906 1515.64 M252.906 1511.93 Q258.716 1511.93 261.772 1516.54 Q264.85 1521.12 264.85 1529.87 Q264.85 1538.6 261.772 1543.21 Q258.716 1547.79 252.906 1547.79 Q247.096 1547.79 244.017 1543.21 Q240.962 1538.6 240.962 1529.87 Q240.962 1521.12 244.017 1516.54 Q247.096 1511.93 252.906 1511.93 Z" fill="#000000" fill-rule="evenodd" fill-opacity="1" /><path clip-path="url(#clip120)" d="M 0 0 M712.548 1530.29 L742.223 1530.29 L742.223 1534.23 L712.548 1534.23 L712.548 1530.29 Z" fill="#000000" fill-rule="evenodd" fill-opacity="1" /><path clip-path="url(#clip120)" d="M 0 0 M747.339 1512.56 L765.695 1512.56 L765.695 1516.5 L751.621 1516.5 L751.621 1524.97 Q752.64 1524.62 753.658 1524.46 Q754.677 1524.27 755.695 1524.27 Q761.482 1524.27 764.862 1527.44 Q768.242 1530.62 768.242 1536.03 Q768.242 1541.61 764.769 1544.71 Q761.297 1547.79 754.978 1547.79 Q752.802 1547.79 750.533 1547.42 Q748.288 1547.05 745.881 1546.31 L745.881 1541.61 Q747.964 1542.74 750.186 1543.3 Q752.408 1543.86 754.885 1543.86 Q758.89 1543.86 761.228 1541.75 Q763.566 1539.64 763.566 1536.03 Q763.566 1532.42 761.228 1530.31 Q758.89 1528.21 754.885 1528.21 Q753.01 1528.21 751.135 1528.62 Q749.283 1529.04 747.339 1529.92 L747.339 1512.56 Z" fill="#000000" fill-rule="evenodd" fill-opacity="1" /><path clip-path="url(#clip120)" d="M 0 0 M1257.18 1515.64 Q1253.57 1515.64 1251.74 1519.2 Q1249.93 1522.75 1249.93 1529.87 Q1249.93 1536.98 1251.74 1540.55 Q1253.57 1544.09 1257.18 1544.09 Q1260.81 1544.09 1262.62 1540.55 Q1264.45 1536.98 1264.45 1529.87 Q1264.45 1522.75 1262.62 1519.2 Q1260.81 1515.64 1257.18 1515.64 M1257.18 1511.93 Q1262.99 1511.93 1266.04 1516.54 Q1269.12 1521.12 1269.12 1529.87 Q1269.12 1538.6 1266.04 1543.21 Q1262.99 1547.79 1257.18 1547.79 Q1251.37 1547.79 1248.29 1543.21 Q1245.23 1538.6 1245.23 1529.87 Q1245.23 1521.12 1248.29 1516.54 Q1251.37 1511.93 1257.18 1511.93 Z" fill="#000000" fill-rule="evenodd" fill-opacity="1" /><path clip-path="url(#clip120)" d="M 0 0 M1764.24 1512.56 L1782.59 1512.56 L1782.59 1516.5 L1768.52 1516.5 L1768.52 1524.97 Q1769.54 1524.62 1770.56 1524.46 Q1771.58 1524.27 1772.59 1524.27 Q1778.38 1524.27 1781.76 1527.44 Q1785.14 1530.62 1785.14 1536.03 Q1785.14 1541.61 1781.67 1544.71 Q1778.2 1547.79 1771.88 1547.79 Q1769.7 1547.79 1767.43 1547.42 Q1765.19 1547.05 1762.78 1546.31 L1762.78 1541.61 Q1764.86 1542.74 1767.08 1543.3 Q1769.31 1543.86 1771.78 1543.86 Q1775.79 1543.86 1778.13 1541.75 Q1780.46 1539.64 1780.46 1536.03 Q1780.46 1532.42 1778.13 1530.31 Q1775.79 1528.21 1771.78 1528.21 Q1769.91 1528.21 1768.03 1528.62 Q1766.18 1529.04 1764.24 1529.92 L1764.24 1512.56 Z" fill="#000000" fill-rule="evenodd" fill-opacity="1" /><path clip-path="url(#clip120)" d="M 0 0 M2267.62 1543.18 L2275.26 1543.18 L2275.26 1516.82 L2266.95 1518.49 L2266.95 1514.23 L2275.21 1512.56 L2279.89 1512.56 L2279.89 1543.18 L2287.52 1543.18 L2287.52 1547.12 L2267.62 1547.12 L2267.62 1543.18 Z" fill="#000000" fill-rule="evenodd" fill-opacity="1" /><path clip-path="url(#clip120)" d="M 0 0 M2302.59 1515.64 Q2298.98 1515.64 2297.15 1519.2 Q2295.35 1522.75 2295.35 1529.87 Q2295.35 1536.98 2297.15 1540.55 Q2298.98 1544.09 2302.59 1544.09 Q2306.23 1544.09 2308.03 1540.55 Q2309.86 1536.98 2309.86 1529.87 Q2309.86 1522.75 2308.03 1519.2 Q2306.23 1515.64 2302.59 1515.64 M2302.59 1511.93 Q2308.4 1511.93 2311.46 1516.54 Q2314.54 1521.12 2314.54 1529.87 Q2314.54 1538.6 2311.46 1543.21 Q2308.4 1547.79 2302.59 1547.79 Q2296.78 1547.79 2293.7 1543.21 Q2290.65 1538.6 2290.65 1529.87 Q2290.65 1521.12 2293.7 1516.54 Q2296.78 1511.93 2302.59 1511.93 Z" fill="#000000" fill-rule="evenodd" fill-opacity="1" /><polyline clip-path="url(#clip122)" style="stroke:#000000; stroke-width:2; stroke-opacity:0.1; fill:none" points="
  161.598,1445.72 2352.76,1445.72 
  "/>
<polyline clip-path="url(#clip122)" style="stroke:#000000; stroke-width:2; stroke-opacity:0.1; fill:none" points="
  161.598,1106.28 2352.76,1106.28 
  "/>
<polyline clip-path="url(#clip122)" style="stroke:#000000; stroke-width:2; stroke-opacity:0.1; fill:none" points="
  161.598,766.846 2352.76,766.846 
  "/>
<polyline clip-path="url(#clip122)" style="stroke:#000000; stroke-width:2; stroke-opacity:0.1; fill:none" points="
  161.598,427.411 2352.76,427.411 
  "/>
<polyline clip-path="url(#clip122)" style="stroke:#000000; stroke-width:2; stroke-opacity:0.1; fill:none" points="
  161.598,87.9763 2352.76,87.9763 
  "/>
<polyline clip-path="url(#clip120)" style="stroke:#000000; stroke-width:4; stroke-opacity:1; fill:none" points="
  161.598,1486.45 161.598,47.2441 
  "/>
<polyline clip-path="url(#clip120)" style="stroke:#000000; stroke-width:4; stroke-opacity:1; fill:none" points="
  161.598,1445.72 187.892,1445.72 
  "/>
<polyline clip-path="url(#clip120)" style="stroke:#000000; stroke-width:4; stroke-opacity:1; fill:none" points="
  161.598,1106.28 187.892,1106.28 
  "/>
<polyline clip-path="url(#clip120)" style="stroke:#000000; stroke-width:4; stroke-opacity:1; fill:none" points="
  161.598,766.846 187.892,766.846 
  "/>
<polyline clip-path="url(#clip120)" style="stroke:#000000; stroke-width:4; stroke-opacity:1; fill:none" points="
  161.598,427.411 187.892,427.411 
  "/>
<polyline clip-path="url(#clip120)" style="stroke:#000000; stroke-width:4; stroke-opacity:1; fill:none" points="
  161.598,87.9763 187.892,87.9763 
  "/>
<path clip-path="url(#clip120)" d="M 0 0 M113.654 1431.51 Q110.043 1431.51 108.214 1435.08 Q106.408 1438.62 106.408 1445.75 Q106.408 1452.86 108.214 1456.42 Q110.043 1459.96 113.654 1459.96 Q117.288 1459.96 119.094 1456.42 Q120.922 1452.86 120.922 1445.75 Q120.922 1438.62 119.094 1435.08 Q117.288 1431.51 113.654 1431.51 M113.654 1427.81 Q119.464 1427.81 122.52 1432.42 Q125.598 1437 125.598 1445.75 Q125.598 1454.48 122.52 1459.08 Q119.464 1463.67 113.654 1463.67 Q107.844 1463.67 104.765 1459.08 Q101.709 1454.48 101.709 1445.75 Q101.709 1437 104.765 1432.42 Q107.844 1427.81 113.654 1427.81 Z" fill="#000000" fill-rule="evenodd" fill-opacity="1" /><path clip-path="url(#clip120)" d="M 0 0 M83.2605 1119.63 L99.5798 1119.63 L99.5798 1123.56 L77.6355 1123.56 L77.6355 1119.63 Q80.2975 1116.87 84.8808 1112.24 Q89.4873 1107.59 90.6678 1106.25 Q92.9132 1103.72 93.7928 1101.99 Q94.6956 1100.23 94.6956 1098.54 Q94.6956 1095.78 92.7512 1094.05 Q90.8299 1092.31 87.728 1092.31 Q85.529 1092.31 83.0753 1093.07 Q80.6447 1093.84 77.867 1095.39 L77.867 1090.67 Q80.691 1089.53 83.1447 1088.95 Q85.5984 1088.38 87.6354 1088.38 Q93.0058 1088.38 96.2002 1091.06 Q99.3946 1093.75 99.3946 1098.24 Q99.3946 1100.37 98.5845 1102.29 Q97.7974 1104.19 95.691 1106.78 Q95.1123 1107.45 92.0104 1110.67 Q88.9086 1113.86 83.2605 1119.63 Z" fill="#000000" fill-rule="evenodd" fill-opacity="1" /><path clip-path="url(#clip120)" d="M 0 0 M104.696 1089 L123.052 1089 L123.052 1092.94 L108.978 1092.94 L108.978 1101.41 Q109.996 1101.06 111.015 1100.9 Q112.033 1100.71 113.052 1100.71 Q118.839 1100.71 122.219 1103.89 Q125.598 1107.06 125.598 1112.47 Q125.598 1118.05 122.126 1121.15 Q118.654 1124.23 112.334 1124.23 Q110.158 1124.23 107.89 1123.86 Q105.645 1123.49 103.237 1122.75 L103.237 1118.05 Q105.321 1119.19 107.543 1119.74 Q109.765 1120.3 112.242 1120.3 Q116.246 1120.3 118.584 1118.19 Q120.922 1116.08 120.922 1112.47 Q120.922 1108.86 118.584 1106.76 Q116.246 1104.65 112.242 1104.65 Q110.367 1104.65 108.492 1105.07 Q106.64 1105.48 104.696 1106.36 L104.696 1089 Z" fill="#000000" fill-rule="evenodd" fill-opacity="1" /><path clip-path="url(#clip120)" d="M 0 0 M77.6818 749.566 L96.0382 749.566 L96.0382 753.501 L81.9642 753.501 L81.9642 761.973 Q82.9827 761.626 84.0012 761.464 Q85.0197 761.279 86.0382 761.279 Q91.8252 761.279 95.2049 764.45 Q98.5845 767.621 98.5845 773.038 Q98.5845 778.617 95.1123 781.719 Q91.6401 784.797 85.3206 784.797 Q83.1447 784.797 80.8762 784.427 Q78.6309 784.057 76.2235 783.316 L76.2235 778.617 Q78.3068 779.751 80.529 780.307 Q82.7512 780.862 85.2281 780.862 Q89.2327 780.862 91.5706 778.756 Q93.9086 776.649 93.9086 773.038 Q93.9086 769.427 91.5706 767.321 Q89.2327 765.214 85.2281 765.214 Q83.3531 765.214 81.4781 765.631 Q79.6262 766.047 77.6818 766.927 L77.6818 749.566 Z" fill="#000000" fill-rule="evenodd" fill-opacity="1" /><path clip-path="url(#clip120)" d="M 0 0 M113.654 752.645 Q110.043 752.645 108.214 756.209 Q106.408 759.751 106.408 766.881 Q106.408 773.987 108.214 777.552 Q110.043 781.094 113.654 781.094 Q117.288 781.094 119.094 777.552 Q120.922 773.987 120.922 766.881 Q120.922 759.751 119.094 756.209 Q117.288 752.645 113.654 752.645 M113.654 748.941 Q119.464 748.941 122.52 753.547 Q125.598 758.131 125.598 766.881 Q125.598 775.608 122.52 780.214 Q119.464 784.797 113.654 784.797 Q107.844 784.797 104.765 780.214 Q101.709 775.608 101.709 766.881 Q101.709 758.131 104.765 753.547 Q107.844 748.941 113.654 748.941 Z" fill="#000000" fill-rule="evenodd" fill-opacity="1" /><path clip-path="url(#clip120)" d="M 0 0 M77.3577 410.131 L99.5798 410.131 L99.5798 412.122 L87.0336 444.691 L82.1494 444.691 L93.9549 414.066 L77.3577 414.066 L77.3577 410.131 Z" fill="#000000" fill-rule="evenodd" fill-opacity="1" /><path clip-path="url(#clip120)" d="M 0 0 M104.696 410.131 L123.052 410.131 L123.052 414.066 L108.978 414.066 L108.978 422.538 Q109.996 422.191 111.015 422.029 Q112.033 421.844 113.052 421.844 Q118.839 421.844 122.219 425.015 Q125.598 428.187 125.598 433.603 Q125.598 439.182 122.126 442.284 Q118.654 445.362 112.334 445.362 Q110.158 445.362 107.89 444.992 Q105.645 444.622 103.237 443.881 L103.237 439.182 Q105.321 440.316 107.543 440.872 Q109.765 441.427 112.242 441.427 Q116.246 441.427 118.584 439.321 Q120.922 437.214 120.922 433.603 Q120.922 429.992 118.584 427.886 Q116.246 425.779 112.242 425.779 Q110.367 425.779 108.492 426.196 Q106.64 426.613 104.696 427.492 L104.696 410.131 Z" fill="#000000" fill-rule="evenodd" fill-opacity="1" /><path clip-path="url(#clip120)" d="M 0 0 M51.6634 101.321 L59.3023 101.321 L59.3023 74.9555 L50.9921 76.6222 L50.9921 72.3629 L59.256 70.6963 L63.9319 70.6963 L63.9319 101.321 L71.5707 101.321 L71.5707 105.256 L51.6634 105.256 L51.6634 101.321 Z" fill="#000000" fill-rule="evenodd" fill-opacity="1" /><path clip-path="url(#clip120)" d="M 0 0 M86.6401 73.775 Q83.029 73.775 81.2003 77.3398 Q79.3948 80.8814 79.3948 88.011 Q79.3948 95.1174 81.2003 98.6822 Q83.029 102.224 86.6401 102.224 Q90.2743 102.224 92.0799 98.6822 Q93.9086 95.1174 93.9086 88.011 Q93.9086 80.8814 92.0799 77.3398 Q90.2743 73.775 86.6401 73.775 M86.6401 70.0713 Q92.4502 70.0713 95.5058 74.6777 Q98.5845 79.261 98.5845 88.011 Q98.5845 96.7378 95.5058 101.344 Q92.4502 105.928 86.6401 105.928 Q80.8299 105.928 77.7512 101.344 Q74.6957 96.7378 74.6957 88.011 Q74.6957 79.261 77.7512 74.6777 Q80.8299 70.0713 86.6401 70.0713 Z" fill="#000000" fill-rule="evenodd" fill-opacity="1" /><path clip-path="url(#clip120)" d="M 0 0 M113.654 73.775 Q110.043 73.775 108.214 77.3398 Q106.408 80.8814 106.408 88.011 Q106.408 95.1174 108.214 98.6822 Q110.043 102.224 113.654 102.224 Q117.288 102.224 119.094 98.6822 Q120.922 95.1174 120.922 88.011 Q120.922 80.8814 119.094 77.3398 Q117.288 73.775 113.654 73.775 M113.654 70.0713 Q119.464 70.0713 122.52 74.6777 Q125.598 79.261 125.598 88.011 Q125.598 96.7378 122.52 101.344 Q119.464 105.928 113.654 105.928 Q107.844 105.928 104.765 101.344 Q101.709 96.7378 101.709 88.011 Q101.709 79.261 104.765 74.6777 Q107.844 70.0713 113.654 70.0713 Z" fill="#000000" fill-rule="evenodd" fill-opacity="1" /><polyline clip-path="url(#clip122)" style="stroke:#e69f00; stroke-width:4; stroke-opacity:1; fill:none" points="
  223.612,87.9763 233.948,114.995 244.283,141.743 254.619,168.219 264.955,194.423 275.29,220.356 285.626,246.017 295.962,271.407 306.297,296.525 316.633,321.372 
  326.969,345.947 337.304,370.25 347.64,394.282 357.976,418.043 368.311,441.532 378.647,464.749 388.982,487.695 399.318,510.369 409.654,532.772 419.989,554.903 
  430.325,576.762 440.661,598.351 450.996,619.667 461.332,640.712 471.668,661.485 482.003,681.987 492.339,702.218 502.675,722.176 513.01,741.864 523.346,761.279 
  533.682,780.423 544.017,799.296 554.353,817.897 564.689,836.226 575.024,854.284 585.36,872.071 595.695,889.586 606.031,906.829 616.367,923.801 626.702,940.501 
  637.038,956.93 647.374,973.087 657.709,988.972 668.045,1004.59 678.381,1019.93 688.716,1035 699.052,1049.8 709.388,1064.33 719.723,1078.58 730.059,1092.57 
  740.395,1106.28 750.73,1119.72 761.066,1132.89 771.402,1145.79 781.737,1158.42 792.073,1170.77 802.408,1182.86 812.744,1194.67 823.08,1206.21 833.415,1217.48 
  843.751,1228.48 854.087,1239.2 864.422,1249.66 874.758,1259.84 885.094,1269.75 895.429,1279.39 905.765,1288.76 916.101,1297.86 926.436,1306.68 936.772,1315.24 
  947.108,1323.52 957.443,1331.53 967.779,1339.27 978.115,1346.74 988.45,1353.93 998.786,1360.86 1009.12,1367.51 1019.46,1373.89 1029.79,1380 1040.13,1385.84 
  1050.46,1391.41 1060.8,1396.7 1071.14,1401.72 1081.47,1406.48 1091.81,1410.96 1102.14,1415.17 1112.48,1419.1 1122.81,1422.77 1133.15,1426.16 1143.48,1429.29 
  1153.82,1432.14 1164.16,1434.72 1174.49,1437.03 1184.83,1439.06 1195.16,1440.83 1205.5,1442.32 1215.83,1443.54 1226.17,1444.49 1236.51,1445.17 1246.84,1445.58 
  1257.18,1445.72 1267.51,1445.58 1277.85,1445.17 1288.18,1444.49 1298.52,1443.54 1308.86,1442.32 1319.19,1440.83 1329.53,1439.06 1339.86,1437.03 1350.2,1434.72 
  1360.53,1432.14 1370.87,1429.29 1381.2,1426.16 1391.54,1422.77 1401.88,1419.1 1412.21,1415.17 1422.55,1410.96 1432.88,1406.48 1443.22,1401.72 1453.55,1396.7 
  1463.89,1391.41 1474.23,1385.84 1484.56,1380 1494.9,1373.89 1505.23,1367.51 1515.57,1360.86 1525.9,1353.93 1536.24,1346.74 1546.58,1339.27 1556.91,1331.53 
  1567.25,1323.52 1577.58,1315.24 1587.92,1306.68 1598.25,1297.86 1608.59,1288.76 1618.92,1279.39 1629.26,1269.75 1639.6,1259.84 1649.93,1249.66 1660.27,1239.2 
  1670.6,1228.48 1680.94,1217.48 1691.27,1206.21 1701.61,1194.67 1711.95,1182.86 1722.28,1170.77 1732.62,1158.42 1742.95,1145.79 1753.29,1132.89 1763.62,1119.72 
  1773.96,1106.28 1784.3,1092.57 1794.63,1078.58 1804.97,1064.33 1815.3,1049.8 1825.64,1035 1835.97,1019.93 1846.31,1004.59 1856.64,988.972 1866.98,973.087 
  1877.32,956.93 1887.65,940.501 1897.99,923.801 1908.32,906.829 1918.66,889.586 1928.99,872.071 1939.33,854.284 1949.67,836.226 1960,817.897 1970.34,799.296 
  1980.67,780.423 1991.01,761.279 2001.34,741.864 2011.68,722.176 2022.02,702.218 2032.35,681.987 2042.69,661.485 2053.02,640.712 2063.36,619.667 2073.69,598.351 
  2084.03,576.762 2094.36,554.903 2104.7,532.772 2115.04,510.369 2125.37,487.695 2135.71,464.749 2146.04,441.532 2156.38,418.043 2166.71,394.282 2177.05,370.25 
  2187.39,345.947 2197.72,321.372 2208.06,296.525 2218.39,271.407 2228.73,246.017 2239.06,220.356 2249.4,194.423 2259.74,168.219 2270.07,141.743 2280.41,114.995 
  2290.74,87.9763 
  "/>
<path clip-path="url(#clip120)" d="
M1985.24 216.178 L2279.72 216.178 L2279.72 95.2176 L1985.24 95.2176  Z
  " fill="#ffffff" fill-rule="evenodd" fill-opacity="1"/>
<polyline clip-path="url(#clip120)" style="stroke:#000000; stroke-width:4; stroke-opacity:1; fill:none" points="
  1985.24,216.178 2279.72,216.178 2279.72,95.2176 1985.24,95.2176 1985.24,216.178 
  "/>
<polyline clip-path="url(#clip120)" style="stroke:#e69f00; stroke-width:4; stroke-opacity:1; fill:none" points="
  2009.58,155.698 2155.66,155.698 
  "/>
<path clip-path="url(#clip120)" d="M 0 0 M2193.85 175.385 Q2192.04 180.015 2190.33 181.427 Q2188.62 182.839 2185.75 182.839 L2182.34 182.839 L2182.34 179.274 L2184.84 179.274 Q2186.6 179.274 2187.58 178.44 Q2188.55 177.607 2189.73 174.505 L2190.49 172.561 L2180.01 147.052 L2184.52 147.052 L2192.62 167.329 L2200.72 147.052 L2205.24 147.052 L2193.85 175.385 Z" fill="#000000" fill-rule="evenodd" fill-opacity="1" /><path clip-path="url(#clip120)" d="M 0 0 M2211.12 169.042 L2218.76 169.042 L2218.76 142.677 L2210.45 144.343 L2210.45 140.084 L2218.71 138.418 L2223.39 138.418 L2223.39 169.042 L2231.02 169.042 L2231.02 172.978 L2211.12 172.978 L2211.12 169.042 Z" fill="#000000" fill-rule="evenodd" fill-opacity="1" /></svg>
