<?xml version="1.0" encoding="utf-8"?>
<svg xmlns="http://www.w3.org/2000/svg" xmlns:xlink="http://www.w3.org/1999/xlink" width="600" height="400" viewBox="0 0 2400 1600">
<defs>
  <clipPath id="clip890">
    <rect x="0" y="0" width="2400" height="1600"/>
  </clipPath>
</defs>
<path clip-path="url(#clip890)" d="
M0 1600 L2400 1600 L2400 0 L0 0  Z
  " fill="#ffffff" fill-rule="evenodd" fill-opacity="1"/>
<defs>
  <clipPath id="clip891">
    <rect x="480" y="0" width="1681" height="1600"/>
  </clipPath>
</defs>
<path clip-path="url(#clip890)" d="
M185.846 1482.13 L2352.76 1482.13 L2352.76 149.392 L185.846 149.392  Z
  " fill="#ffffff" fill-rule="evenodd" fill-opacity="1"/>
<defs>
  <clipPath id="clip892">
    <rect x="185" y="149" width="2168" height="1334"/>
  </clipPath>
</defs>
<polyline clip-path="url(#clip892)" style="stroke:#000000; stroke-width:2; stroke-opacity:0.1; fill:none" points="
  677.543,1482.13 677.543,149.392 
  "/>
<polyline clip-path="url(#clip892)" style="stroke:#000000; stroke-width:2; stroke-opacity:0.1; fill:none" points="
  1215.5,1482.13 1215.5,149.392 
  "/>
<polyline clip-path="url(#clip892)" style="stroke:#000000; stroke-width:2; stroke-opacity:0.1; fill:none" points="
  1753.47,1482.13 1753.47,149.392 
  "/>
<polyline clip-path="url(#clip892)" style="stroke:#000000; stroke-width:2; stroke-opacity:0.1; fill:none" points="
  2291.43,1482.13 2291.43,149.392 
  "/>
<polyline clip-path="url(#clip890)" style="stroke:#000000; stroke-width:4; stroke-opacity:1; fill:none" points="
  185.846,1482.13 2352.76,1482.13 
  "/>
<polyline clip-path="url(#clip890)" style="stroke:#000000; stroke-width:4; stroke-opacity:1; fill:none" points="
  677.543,1482.13 677.543,1466.14 
  "/>
<polyline clip-path="url(#clip890)" style="stroke:#000000; stroke-width:4; stroke-opacity:1; fill:none" points="
  1215.5,1482.13 1215.5,1466.14 
  "/>
<polyline clip-path="url(#clip890)" style="stroke:#000000; stroke-width:4; stroke-opacity:1; fill:none" points="
  1753.47,1482.13 1753.47,1466.14 
  "/>
<polyline clip-path="url(#clip890)" style="stroke:#000000; stroke-width:4; stroke-opacity:1; fill:none" points="
  2291.43,1482.13 2291.43,1466.14 
  "/>
<path clip-path="url(#clip890)" d="M 0 0 M666.605 1509.1 L687.256 1509.1 L687.256 1513.53 L671.423 1513.53 L671.423 1523.06 Q672.569 1522.67 673.715 1522.49 Q674.861 1522.28 676.006 1522.28 Q682.517 1522.28 686.319 1525.85 Q690.121 1529.42 690.121 1535.51 Q690.121 1541.79 686.215 1545.28 Q682.308 1548.74 675.199 1548.74 Q672.751 1548.74 670.199 1548.32 Q667.673 1547.91 664.965 1547.07 L664.965 1541.79 Q667.309 1543.06 669.809 1543.69 Q672.309 1544.31 675.095 1544.31 Q679.6 1544.31 682.23 1541.94 Q684.861 1539.57 684.861 1535.51 Q684.861 1531.45 682.23 1529.08 Q679.6 1526.71 675.095 1526.71 Q672.986 1526.71 670.876 1527.18 Q668.793 1527.65 666.605 1528.64 L666.605 1509.1 Z" fill="#bebebe" fill-rule="evenodd" fill-opacity="1" /><path clip-path="url(#clip890)" d="M 0 0 M1189.49 1543.56 L1198.08 1543.56 L1198.08 1513.9 L1188.73 1515.77 L1188.73 1510.98 L1198.03 1509.1 L1203.29 1509.1 L1203.29 1543.56 L1211.88 1543.56 L1211.88 1547.98 L1189.49 1547.98 L1189.49 1543.56 Z" fill="#bebebe" fill-rule="evenodd" fill-opacity="1" /><path clip-path="url(#clip890)" d="M 0 0 M1228.84 1512.57 Q1224.78 1512.57 1222.72 1516.58 Q1220.69 1520.56 1220.69 1528.58 Q1220.69 1536.58 1222.72 1540.59 Q1224.78 1544.57 1228.84 1544.57 Q1232.93 1544.57 1234.96 1540.59 Q1237.01 1536.58 1237.01 1528.58 Q1237.01 1520.56 1234.96 1516.58 Q1232.93 1512.57 1228.84 1512.57 M1228.84 1508.4 Q1235.37 1508.4 1238.81 1513.58 Q1242.28 1518.74 1242.28 1528.58 Q1242.28 1538.4 1238.81 1543.58 Q1235.37 1548.74 1228.84 1548.74 Q1222.3 1548.74 1218.84 1543.58 Q1215.4 1538.4 1215.4 1528.58 Q1215.4 1518.74 1218.84 1513.58 Q1222.3 1508.4 1228.84 1508.4 Z" fill="#bebebe" fill-rule="evenodd" fill-opacity="1" /><path clip-path="url(#clip890)" d="M 0 0 M1728.01 1543.56 L1736.6 1543.56 L1736.6 1513.9 L1727.26 1515.77 L1727.26 1510.98 L1736.55 1509.1 L1741.81 1509.1 L1741.81 1543.56 L1750.41 1543.56 L1750.41 1547.98 L1728.01 1547.98 L1728.01 1543.56 Z" fill="#bebebe" fill-rule="evenodd" fill-opacity="1" /><path clip-path="url(#clip890)" d="M 0 0 M1756.16 1509.1 L1776.81 1509.1 L1776.81 1513.53 L1760.98 1513.53 L1760.98 1523.06 Q1762.13 1522.67 1763.27 1522.49 Q1764.42 1522.28 1765.56 1522.28 Q1772.07 1522.28 1775.88 1525.85 Q1779.68 1529.42 1779.68 1535.51 Q1779.68 1541.79 1775.77 1545.28 Q1771.86 1548.74 1764.76 1548.74 Q1762.31 1548.74 1759.76 1548.32 Q1757.23 1547.91 1754.52 1547.07 L1754.52 1541.79 Q1756.86 1543.06 1759.36 1543.69 Q1761.86 1544.31 1764.65 1544.31 Q1769.16 1544.31 1771.79 1541.94 Q1774.42 1539.57 1774.42 1535.51 Q1774.42 1531.45 1771.79 1529.08 Q1769.16 1526.71 1764.65 1526.71 Q1762.54 1526.71 1760.43 1527.18 Q1758.35 1527.65 1756.16 1528.64 L1756.16 1509.1 Z" fill="#bebebe" fill-rule="evenodd" fill-opacity="1" /><path clip-path="url(#clip890)" d="M 0 0 M2270.22 1543.56 L2288.58 1543.56 L2288.58 1547.98 L2263.89 1547.98 L2263.89 1543.56 Q2266.88 1540.46 2272.04 1535.25 Q2277.22 1530.02 2278.55 1528.5 Q2281.08 1525.67 2282.07 1523.71 Q2283.08 1521.73 2283.08 1519.83 Q2283.08 1516.73 2280.89 1514.78 Q2278.73 1512.83 2275.24 1512.83 Q2272.77 1512.83 2270.01 1513.69 Q2267.27 1514.55 2264.15 1516.29 L2264.15 1510.98 Q2267.33 1509.7 2270.09 1509.05 Q2272.85 1508.4 2275.14 1508.4 Q2281.18 1508.4 2284.77 1511.42 Q2288.37 1514.44 2288.37 1519.49 Q2288.37 1521.89 2287.46 1524.05 Q2286.57 1526.19 2284.2 1529.1 Q2283.55 1529.86 2280.06 1533.48 Q2276.57 1537.07 2270.22 1543.56 Z" fill="#bebebe" fill-rule="evenodd" fill-opacity="1" /><path clip-path="url(#clip890)" d="M 0 0 M2305.53 1512.57 Q2301.47 1512.57 2299.41 1516.58 Q2297.38 1520.56 2297.38 1528.58 Q2297.38 1536.58 2299.41 1540.59 Q2301.47 1544.57 2305.53 1544.57 Q2309.62 1544.57 2311.65 1540.59 Q2313.71 1536.58 2313.71 1528.58 Q2313.71 1520.56 2311.65 1516.58 Q2309.62 1512.57 2305.53 1512.57 M2305.53 1508.4 Q2312.07 1508.4 2315.5 1513.58 Q2318.97 1518.74 2318.97 1528.58 Q2318.97 1538.4 2315.5 1543.58 Q2312.07 1548.74 2305.53 1548.74 Q2298.99 1548.74 2295.53 1543.58 Q2292.09 1538.4 2292.09 1528.58 Q2292.09 1518.74 2295.53 1513.58 Q2298.99 1508.4 2305.53 1508.4 Z" fill="#bebebe" fill-rule="evenodd" fill-opacity="1" /><polyline clip-path="url(#clip892)" style="stroke:#000000; stroke-width:2; stroke-opacity:0.1; fill:none" points="
  185.846,1455.32 2352.76,1455.32 
  "/>
<polyline clip-path="url(#clip892)" style="stroke:#000000; stroke-width:2; stroke-opacity:0.1; fill:none" points="
  185.846,1137.47 2352.76,1137.47 
  "/>
<polyline clip-path="url(#clip892)" style="stroke:#000000; stroke-width:2; stroke-opacity:0.1; fill:none" points="
  185.846,819.614 2352.76,819.614 
  "/>
<polyline clip-path="url(#clip892)" style="stroke:#000000; stroke-width:2; stroke-opacity:0.1; fill:none" points="
  185.846,501.76 2352.76,501.76 
  "/>
<polyline clip-path="url(#clip892)" style="stroke:#000000; stroke-width:2; stroke-opacity:0.1; fill:none" points="
  185.846,183.906 2352.76,183.906 
  "/>
<polyline clip-path="url(#clip890)" style="stroke:#000000; stroke-width:4; stroke-opacity:1; fill:none" points="
  185.846,1482.13 185.846,149.392 
  "/>
<polyline clip-path="url(#clip890)" style="stroke:#000000; stroke-width:4; stroke-opacity:1; fill:none" points="
  185.846,1455.32 211.849,1455.32 
  "/>
<polyline clip-path="url(#clip890)" style="stroke:#000000; stroke-width:4; stroke-opacity:1; fill:none" points="
  185.846,1137.47 211.849,1137.47 
  "/>
<polyline clip-path="url(#clip890)" style="stroke:#000000; stroke-width:4; stroke-opacity:1; fill:none" points="
  185.846,819.614 211.849,819.614 
  "/>
<polyline clip-path="url(#clip890)" style="stroke:#000000; stroke-width:4; stroke-opacity:1; fill:none" points="
  185.846,501.76 211.849,501.76 
  "/>
<polyline clip-path="url(#clip890)" style="stroke:#000000; stroke-width:4; stroke-opacity:1; fill:none" points="
  185.846,183.906 211.849,183.906 
  "/>
<path clip-path="url(#clip890)" d="M 0 0 M64.4296 1439.35 Q60.3671 1439.35 58.3098 1443.36 Q56.2786 1447.34 56.2786 1455.36 Q56.2786 1463.36 58.3098 1467.37 Q60.3671 1471.35 64.4296 1471.35 Q68.5181 1471.35 70.5493 1467.37 Q72.6066 1463.36 72.6066 1455.36 Q72.6066 1447.34 70.5493 1443.36 Q68.5181 1439.35 64.4296 1439.35 M64.4296 1435.18 Q70.966 1435.18 74.4035 1440.36 Q77.867 1445.52 77.867 1455.36 Q77.867 1465.18 74.4035 1470.36 Q70.966 1475.52 64.4296 1475.52 Q57.8931 1475.52 54.4296 1470.36 Q50.9921 1465.18 50.9921 1455.36 Q50.9921 1445.52 54.4296 1440.36 Q57.8931 1435.18 64.4296 1435.18 Z" fill="#bebebe" fill-rule="evenodd" fill-opacity="1" /><path clip-path="url(#clip890)" d="M 0 0 M83.5701 1468.15 L89.0648 1468.15 L89.0648 1474.76 L83.5701 1474.76 L83.5701 1468.15 Z" fill="#bebebe" fill-rule="evenodd" fill-opacity="1" /><path clip-path="url(#clip890)" d="M 0 0 M106.018 1439.35 Q101.955 1439.35 99.8981 1443.36 Q97.8669 1447.34 97.8669 1455.36 Q97.8669 1463.36 99.8981 1467.37 Q101.955 1471.35 106.018 1471.35 Q110.106 1471.35 112.138 1467.37 Q114.195 1463.36 114.195 1455.36 Q114.195 1447.34 112.138 1443.36 Q110.106 1439.35 106.018 1439.35 M106.018 1435.18 Q112.554 1435.18 115.992 1440.36 Q119.455 1445.52 119.455 1455.36 Q119.455 1465.18 115.992 1470.36 Q112.554 1475.52 106.018 1475.52 Q99.4814 1475.52 96.0179 1470.36 Q92.5804 1465.18 92.5804 1455.36 Q92.5804 1445.52 96.0179 1440.36 Q99.4814 1435.18 106.018 1435.18 Z" fill="#bebebe" fill-rule="evenodd" fill-opacity="1" /><path clip-path="url(#clip890)" d="M 0 0 M136.408 1439.35 Q132.346 1439.35 130.289 1443.36 Q128.257 1447.34 128.257 1455.36 Q128.257 1463.36 130.289 1467.37 Q132.346 1471.35 136.408 1471.35 Q140.497 1471.35 142.528 1467.37 Q144.585 1463.36 144.585 1455.36 Q144.585 1447.34 142.528 1443.36 Q140.497 1439.35 136.408 1439.35 M136.408 1435.18 Q142.945 1435.18 146.382 1440.36 Q149.846 1445.52 149.846 1455.36 Q149.846 1465.18 146.382 1470.36 Q142.945 1475.52 136.408 1475.52 Q129.872 1475.52 126.408 1470.36 Q122.971 1465.18 122.971 1455.36 Q122.971 1445.52 126.408 1440.36 Q129.872 1435.18 136.408 1435.18 Z" fill="#bebebe" fill-rule="evenodd" fill-opacity="1" /><path clip-path="url(#clip890)" d="M 0 0 M67.3462 1121.49 Q63.2837 1121.49 61.2264 1125.5 Q59.1952 1129.49 59.1952 1137.51 Q59.1952 1145.5 61.2264 1149.51 Q63.2837 1153.5 67.3462 1153.5 Q71.4347 1153.5 73.466 1149.51 Q75.5232 1145.5 75.5232 1137.51 Q75.5232 1129.49 73.466 1125.5 Q71.4347 1121.49 67.3462 1121.49 M67.3462 1117.32 Q73.8826 1117.32 77.3201 1122.51 Q80.7836 1127.66 80.7836 1137.51 Q80.7836 1147.32 77.3201 1152.51 Q73.8826 1157.66 67.3462 1157.66 Q60.8098 1157.66 57.3463 1152.51 Q53.9088 1147.32 53.9088 1137.51 Q53.9088 1127.66 57.3463 1122.51 Q60.8098 1117.32 67.3462 1117.32 Z" fill="#bebebe" fill-rule="evenodd" fill-opacity="1" /><path clip-path="url(#clip890)" d="M 0 0 M86.4867 1150.29 L91.9815 1150.29 L91.9815 1156.91 L86.4867 1156.91 L86.4867 1150.29 Z" fill="#bebebe" fill-rule="evenodd" fill-opacity="1" /><path clip-path="url(#clip890)" d="M 0 0 M102.216 1152.48 L120.575 1152.48 L120.575 1156.91 L95.8877 1156.91 L95.8877 1152.48 Q98.8825 1149.38 104.039 1144.17 Q109.221 1138.94 110.549 1137.43 Q113.075 1134.59 114.065 1132.64 Q115.08 1130.66 115.08 1128.76 Q115.08 1125.66 112.893 1123.7 Q110.731 1121.75 107.242 1121.75 Q104.768 1121.75 102.007 1122.61 Q99.2731 1123.47 96.1481 1125.22 L96.1481 1119.9 Q99.3252 1118.63 102.086 1117.98 Q104.846 1117.32 107.138 1117.32 Q113.179 1117.32 116.773 1120.35 Q120.367 1123.37 120.367 1128.42 Q120.367 1130.81 119.455 1132.98 Q118.57 1135.11 116.2 1138.03 Q115.549 1138.78 112.06 1142.4 Q108.57 1146 102.216 1152.48 Z" fill="#bebebe" fill-rule="evenodd" fill-opacity="1" /><path clip-path="url(#clip890)" d="M 0 0 M126.33 1118.03 L146.981 1118.03 L146.981 1122.45 L131.148 1122.45 L131.148 1131.99 Q132.294 1131.6 133.44 1131.41 Q134.585 1131.2 135.731 1131.2 Q142.242 1131.2 146.044 1134.77 Q149.846 1138.34 149.846 1144.43 Q149.846 1150.71 145.94 1154.2 Q142.033 1157.66 134.924 1157.66 Q132.476 1157.66 129.924 1157.25 Q127.398 1156.83 124.69 1156 L124.69 1150.71 Q127.033 1151.99 129.533 1152.61 Q132.033 1153.24 134.82 1153.24 Q139.325 1153.24 141.955 1150.87 Q144.585 1148.5 144.585 1144.43 Q144.585 1140.37 141.955 1138 Q139.325 1135.63 134.82 1135.63 Q132.71 1135.63 130.601 1136.1 Q128.518 1136.57 126.33 1137.56 L126.33 1118.03 Z" fill="#bebebe" fill-rule="evenodd" fill-opacity="1" /><path clip-path="url(#clip890)" d="M 0 0 M65.5493 803.637 Q61.4869 803.637 59.4296 807.648 Q57.3983 811.632 57.3983 819.653 Q57.3983 827.647 59.4296 831.658 Q61.4869 835.642 65.5493 835.642 Q69.6379 835.642 71.6691 831.658 Q73.7264 827.647 73.7264 819.653 Q73.7264 811.632 71.6691 807.648 Q69.6379 803.637 65.5493 803.637 M65.5493 799.471 Q72.0858 799.471 75.5232 804.653 Q78.9868 809.809 78.9868 819.653 Q78.9868 829.47 75.5232 834.653 Q72.0858 839.809 65.5493 839.809 Q59.0129 839.809 55.5494 834.653 Q52.1119 829.47 52.1119 819.653 Q52.1119 809.809 55.5494 804.653 Q59.0129 799.471 65.5493 799.471 Z" fill="#bebebe" fill-rule="evenodd" fill-opacity="1" /><path clip-path="url(#clip890)" d="M 0 0 M84.6899 832.439 L90.1846 832.439 L90.1846 839.054 L84.6899 839.054 L84.6899 832.439 Z" fill="#bebebe" fill-rule="evenodd" fill-opacity="1" /><path clip-path="url(#clip890)" d="M 0 0 M95.9398 800.174 L116.591 800.174 L116.591 804.601 L100.757 804.601 L100.757 814.132 Q101.903 813.741 103.049 813.559 Q104.195 813.351 105.341 813.351 Q111.851 813.351 115.653 816.918 Q119.455 820.486 119.455 826.58 Q119.455 832.856 115.549 836.345 Q111.643 839.809 104.534 839.809 Q102.086 839.809 99.5335 839.392 Q97.0075 838.975 94.2992 838.142 L94.2992 832.856 Q96.6429 834.132 99.1429 834.757 Q101.643 835.382 104.429 835.382 Q108.935 835.382 111.565 833.012 Q114.195 830.642 114.195 826.58 Q114.195 822.517 111.565 820.147 Q108.935 817.778 104.429 817.778 Q102.32 817.778 100.211 818.246 Q98.1273 818.715 95.9398 819.705 L95.9398 800.174 Z" fill="#bebebe" fill-rule="evenodd" fill-opacity="1" /><path clip-path="url(#clip890)" d="M 0 0 M136.408 803.637 Q132.346 803.637 130.289 807.648 Q128.257 811.632 128.257 819.653 Q128.257 827.647 130.289 831.658 Q132.346 835.642 136.408 835.642 Q140.497 835.642 142.528 831.658 Q144.585 827.647 144.585 819.653 Q144.585 811.632 142.528 807.648 Q140.497 803.637 136.408 803.637 M136.408 799.471 Q142.945 799.471 146.382 804.653 Q149.846 809.809 149.846 819.653 Q149.846 829.47 146.382 834.653 Q142.945 839.809 136.408 839.809 Q129.872 839.809 126.408 834.653 Q122.971 829.47 122.971 819.653 Q122.971 809.809 126.408 804.653 Q129.872 799.471 136.408 799.471 Z" fill="#bebebe" fill-rule="evenodd" fill-opacity="1" /><path clip-path="url(#clip890)" d="M 0 0 M66.565 485.783 Q62.5025 485.783 60.4452 489.794 Q58.414 493.778 58.414 501.799 Q58.414 509.793 60.4452 513.804 Q62.5025 517.788 66.565 517.788 Q70.6535 517.788 72.6847 513.804 Q74.742 509.793 74.742 501.799 Q74.742 493.778 72.6847 489.794 Q70.6535 485.783 66.565 485.783 M66.565 481.617 Q73.1014 481.617 76.5389 486.799 Q80.0024 491.955 80.0024 501.799 Q80.0024 511.616 76.5389 516.799 Q73.1014 521.955 66.565 521.955 Q60.0285 521.955 56.565 516.799 Q53.1275 511.616 53.1275 501.799 Q53.1275 491.955 56.565 486.799 Q60.0285 481.617 66.565 481.617 Z" fill="#bebebe" fill-rule="evenodd" fill-opacity="1" /><path clip-path="url(#clip890)" d="M 0 0 M85.7055 514.585 L91.2002 514.585 L91.2002 521.2 L85.7055 521.2 L85.7055 514.585 Z" fill="#bebebe" fill-rule="evenodd" fill-opacity="1" /><path clip-path="url(#clip890)" d="M 0 0 M95.5752 482.32 L120.575 482.32 L120.575 484.559 L106.461 521.2 L100.966 521.2 L114.247 486.747 L95.5752 486.747 L95.5752 482.32 Z" fill="#bebebe" fill-rule="evenodd" fill-opacity="1" /><path clip-path="url(#clip890)" d="M 0 0 M126.33 482.32 L146.981 482.32 L146.981 486.747 L131.148 486.747 L131.148 496.278 Q132.294 495.887 133.44 495.705 Q134.585 495.497 135.731 495.497 Q142.242 495.497 146.044 499.064 Q149.846 502.632 149.846 508.726 Q149.846 515.002 145.94 518.491 Q142.033 521.955 134.924 521.955 Q132.476 521.955 129.924 521.538 Q127.398 521.122 124.69 520.288 L124.69 515.002 Q127.033 516.278 129.533 516.903 Q132.033 517.528 134.82 517.528 Q139.325 517.528 141.955 515.158 Q144.585 512.788 144.585 508.726 Q144.585 504.663 141.955 502.294 Q139.325 499.924 134.82 499.924 Q132.71 499.924 130.601 500.392 Q128.518 500.861 126.33 501.851 L126.33 482.32 Z" fill="#bebebe" fill-rule="evenodd" fill-opacity="1" /><path clip-path="url(#clip890)" d="M 0 0 M55.4713 198.919 L64.065 198.919 L64.065 169.257 L54.7161 171.132 L54.7161 166.341 L64.0129 164.466 L69.2733 164.466 L69.2733 198.919 L77.867 198.919 L77.867 203.346 L55.4713 203.346 L55.4713 198.919 Z" fill="#bebebe" fill-rule="evenodd" fill-opacity="1" /><path clip-path="url(#clip890)" d="M 0 0 M83.5701 196.731 L89.0648 196.731 L89.0648 203.346 L83.5701 203.346 L83.5701 196.731 Z" fill="#bebebe" fill-rule="evenodd" fill-opacity="1" /><path clip-path="url(#clip890)" d="M 0 0 M106.018 167.929 Q101.955 167.929 99.8981 171.94 Q97.8669 175.924 97.8669 183.945 Q97.8669 191.94 99.8981 195.95 Q101.955 199.934 106.018 199.934 Q110.106 199.934 112.138 195.95 Q114.195 191.94 114.195 183.945 Q114.195 175.924 112.138 171.94 Q110.106 167.929 106.018 167.929 M106.018 163.763 Q112.554 163.763 115.992 168.945 Q119.455 174.101 119.455 183.945 Q119.455 193.762 115.992 198.945 Q112.554 204.101 106.018 204.101 Q99.4814 204.101 96.0179 198.945 Q92.5804 193.762 92.5804 183.945 Q92.5804 174.101 96.0179 168.945 Q99.4814 163.763 106.018 163.763 Z" fill="#bebebe" fill-rule="evenodd" fill-opacity="1" /><path clip-path="url(#clip890)" d="M 0 0 M136.408 167.929 Q132.346 167.929 130.289 171.94 Q128.257 175.924 128.257 183.945 Q128.257 191.94 130.289 195.95 Q132.346 199.934 136.408 199.934 Q140.497 199.934 142.528 195.95 Q144.585 191.94 144.585 183.945 Q144.585 175.924 142.528 171.94 Q140.497 167.929 136.408 167.929 M136.408 163.763 Q142.945 163.763 146.382 168.945 Q149.846 174.101 149.846 183.945 Q149.846 193.762 146.382 198.945 Q142.945 204.101 136.408 204.101 Q129.872 204.101 126.408 198.945 Q122.971 193.762 122.971 183.945 Q122.971 174.101 126.408 168.945 Q129.872 163.763 136.408 163.763 Z" fill="#bebebe" fill-rule="evenodd" fill-opacity="1" /><path clip-path="url(#clip890)" d="M 0 0 M963.429 20.1156 L963.429 31.516 Q956.774 28.3332 950.871 26.7707 Q944.968 25.2082 939.47 25.2082 Q929.922 25.2082 924.714 28.9119 Q919.563 32.6156 919.563 39.4442 Q919.563 45.1734 922.977 48.1247 Q926.45 51.0182 936.056 52.8122 L943.116 54.259 Q956.195 56.7474 962.387 63.0552 Q968.637 69.3052 968.637 79.8375 Q968.637 92.3953 960.188 98.8768 Q951.797 105.358 935.535 105.358 Q929.401 105.358 922.457 103.969 Q915.57 102.58 908.163 99.8606 L908.163 87.8236 Q915.281 91.8166 922.109 93.8421 Q928.938 95.8675 935.535 95.8675 Q945.547 95.8675 950.987 91.9324 Q956.426 87.9972 956.426 80.7056 Q956.426 74.3399 952.491 70.7519 Q948.614 67.164 939.702 65.37 L932.584 63.9811 Q919.505 61.377 913.66 55.8215 Q907.816 50.2659 907.816 40.3702 Q907.816 28.9119 915.859 22.3147 Q923.961 15.7175 938.139 15.7175 Q944.216 15.7175 950.524 16.817 Q956.831 17.9166 963.429 20.1156 Z" fill="#bebebe" fill-rule="evenodd" fill-opacity="1" /><path clip-path="url(#clip890)" d="M 0 0 M1035.25 68.6107 L1035.25 73.819 L986.287 73.819 Q986.982 84.8144 992.884 90.6014 Q998.845 96.3305 1009.44 96.3305 Q1015.57 96.3305 1021.3 94.8259 Q1027.09 93.3213 1032.76 90.312 L1032.76 100.381 Q1027.03 102.812 1021.01 104.085 Q1014.99 105.358 1008.8 105.358 Q993.29 105.358 984.204 96.3305 Q975.176 87.3028 975.176 71.9093 Q975.176 55.9951 983.741 46.678 Q992.364 37.303 1006.95 37.303 Q1020.03 37.303 1027.61 45.7521 Q1035.25 54.1432 1035.25 68.6107 M1024.6 65.4858 Q1024.48 56.7474 1019.68 51.5391 Q1014.93 46.3308 1007.06 46.3308 Q998.151 46.3308 992.769 51.3655 Q987.445 56.4002 986.635 65.5436 L1024.6 65.4858 Z" fill="#bebebe" fill-rule="evenodd" fill-opacity="1" /><path clip-path="url(#clip890)" d="M 0 0 M1083.97 48.8192 Q1082.18 47.7775 1080.04 47.3146 Q1077.95 46.7937 1075.41 46.7937 Q1066.38 46.7937 1061.52 52.6965 Q1056.72 58.5414 1056.72 69.5367 L1056.72 103.68 L1046.01 103.68 L1046.01 38.8655 L1056.72 38.8655 L1056.72 48.9349 Q1060.07 43.0322 1065.45 40.1965 Q1070.84 37.303 1078.53 37.303 Q1079.63 37.303 1080.96 37.4767 Q1082.29 37.5924 1083.91 37.8817 L1083.97 48.8192 Z" fill="#bebebe" fill-rule="evenodd" fill-opacity="1" /><path clip-path="url(#clip890)" d="M 0 0 M1095.14 38.8655 L1105.79 38.8655 L1105.79 103.68 L1095.14 103.68 L1095.14 38.8655 M1095.14 13.6342 L1105.79 13.6342 L1105.79 27.1179 L1095.14 27.1179 L1095.14 13.6342 Z" fill="#bebebe" fill-rule="evenodd" fill-opacity="1" /><path clip-path="url(#clip890)" d="M 0 0 M1172.4 68.6107 L1172.4 73.819 L1123.44 73.819 Q1124.13 84.8144 1130.04 90.6014 Q1136 96.3305 1146.59 96.3305 Q1152.72 96.3305 1158.45 94.8259 Q1164.24 93.3213 1169.91 90.312 L1169.91 100.381 Q1164.18 102.812 1158.16 104.085 Q1152.14 105.358 1145.95 105.358 Q1130.44 105.358 1121.36 96.3305 Q1112.33 87.3028 1112.33 71.9093 Q1112.33 55.9951 1120.89 46.678 Q1129.52 37.303 1144.1 37.303 Q1157.18 37.303 1164.76 45.7521 Q1172.4 54.1432 1172.4 68.6107 M1161.75 65.4858 Q1161.63 56.7474 1156.83 51.5391 Q1152.09 46.3308 1144.21 46.3308 Q1135.3 46.3308 1129.92 51.3655 Q1124.6 56.4002 1123.79 65.5436 L1161.75 65.4858 Z" fill="#bebebe" fill-rule="evenodd" fill-opacity="1" /><path clip-path="url(#clip890)" d="M 0 0 M1231.31 17.28 L1231.31 49.3979 L1221.47 49.3979 L1221.47 17.28 L1231.31 17.28 Z" fill="#bebebe" fill-rule="evenodd" fill-opacity="1" /><path clip-path="url(#clip890)" d="M 0 0 M1283.8 40.7752 L1283.8 50.8446 Q1279.28 48.5298 1274.42 47.3724 Q1269.56 46.215 1264.35 46.215 Q1256.42 46.215 1252.43 48.6456 Q1248.5 51.0761 1248.5 55.9372 Q1248.5 59.6409 1251.33 61.7821 Q1254.17 63.8654 1262.73 65.7751 L1266.38 66.5853 Q1277.72 69.0158 1282.47 73.4718 Q1287.27 77.87 1287.27 85.7982 Q1287.27 94.8259 1280.09 100.092 Q1272.98 105.358 1260.48 105.358 Q1255.27 105.358 1249.6 104.317 Q1243.98 103.333 1237.73 101.307 L1237.73 90.312 Q1243.64 93.3791 1249.36 94.9416 Q1255.09 96.4462 1260.71 96.4462 Q1268.23 96.4462 1272.28 93.9 Q1276.33 91.2958 1276.33 86.6083 Q1276.33 82.2681 1273.38 79.9533 Q1270.49 77.6385 1260.59 75.4973 L1256.89 74.6292 Q1246.99 72.5459 1242.59 68.2635 Q1238.2 63.9233 1238.2 56.4002 Q1238.2 47.2567 1244.68 42.2799 Q1251.16 37.303 1263.08 37.303 Q1268.98 37.303 1274.19 38.1711 Q1279.4 39.0391 1283.8 40.7752 Z" fill="#bebebe" fill-rule="evenodd" fill-opacity="1" /><path clip-path="url(#clip890)" d="M 0 0 M1345.08 41.3539 L1345.08 51.3076 Q1340.57 48.8192 1336 47.6039 Q1331.48 46.3308 1326.85 46.3308 Q1316.49 46.3308 1310.76 52.928 Q1305.04 59.4673 1305.04 71.3306 Q1305.04 83.194 1310.76 89.7912 Q1316.49 96.3305 1326.85 96.3305 Q1331.48 96.3305 1336 95.1152 Q1340.57 93.8421 1345.08 91.3537 L1345.08 101.192 Q1340.63 103.275 1335.82 104.317 Q1331.08 105.358 1325.7 105.358 Q1311.05 105.358 1302.43 96.1569 Q1293.81 86.9556 1293.81 71.3306 Q1293.81 55.4742 1302.49 46.3886 Q1311.23 37.303 1326.39 37.303 Q1331.31 37.303 1336 38.3447 Q1340.68 39.3285 1345.08 41.3539 Z" fill="#bebebe" fill-rule="evenodd" fill-opacity="1" /><path clip-path="url(#clip890)" d="M 0 0 M1385.71 71.0992 Q1372.8 71.0992 1367.82 74.0505 Q1362.85 77.0019 1362.85 84.1199 Q1362.85 89.7912 1366.55 93.1476 Q1370.31 96.4462 1376.74 96.4462 Q1385.59 96.4462 1390.91 90.1963 Q1396.3 83.8884 1396.3 73.4718 L1396.3 71.0992 L1385.71 71.0992 M1406.94 66.701 L1406.94 103.68 L1396.3 103.68 L1396.3 93.8421 Q1392.65 99.7448 1387.21 102.58 Q1381.77 105.358 1373.9 105.358 Q1363.95 105.358 1358.04 99.8027 Q1352.2 94.1893 1352.2 84.8144 Q1352.2 73.8769 1359.49 68.3214 Q1366.84 62.7659 1381.37 62.7659 L1396.3 62.7659 L1396.3 61.7242 Q1396.3 54.3747 1391.44 50.3817 Q1386.63 46.3308 1377.89 46.3308 Q1372.34 46.3308 1367.07 47.6618 Q1361.81 48.9928 1356.95 51.6548 L1356.95 41.8169 Q1362.79 39.56 1368.29 38.4604 Q1373.79 37.303 1378.99 37.303 Q1393.06 37.303 1400 44.5947 Q1406.94 51.8863 1406.94 66.701 Z" fill="#bebebe" fill-rule="evenodd" fill-opacity="1" /><path clip-path="url(#clip890)" d="M 0 0 M1428.65 20.4629 L1428.65 38.8655 L1450.58 38.8655 L1450.58 47.141 L1428.65 47.141 L1428.65 82.3259 Q1428.65 90.2541 1430.79 92.5111 Q1432.99 94.768 1439.64 94.768 L1450.58 94.768 L1450.58 103.68 L1439.64 103.68 Q1427.32 103.68 1422.63 99.1083 Q1417.94 94.4787 1417.94 82.3259 L1417.94 47.141 L1410.13 47.141 L1410.13 38.8655 L1417.94 38.8655 L1417.94 20.4629 L1428.65 20.4629 Z" fill="#bebebe" fill-rule="evenodd" fill-opacity="1" /><path clip-path="url(#clip890)" d="M 0 0 M1472.28 20.4629 L1472.28 38.8655 L1494.21 38.8655 L1494.21 47.141 L1472.28 47.141 L1472.28 82.3259 Q1472.28 90.2541 1474.42 92.5111 Q1476.62 94.768 1483.28 94.768 L1494.21 94.768 L1494.21 103.68 L1483.28 103.68 Q1470.95 103.68 1466.26 99.1083 Q1461.57 94.4787 1461.57 82.3259 L1461.57 47.141 L1453.76 47.141 L1453.76 38.8655 L1461.57 38.8655 L1461.57 20.4629 L1472.28 20.4629 Z" fill="#bebebe" fill-rule="evenodd" fill-opacity="1" /><path clip-path="url(#clip890)" d="M 0 0 M1560.82 68.6107 L1560.82 73.819 L1511.86 73.819 Q1512.56 84.8144 1518.46 90.6014 Q1524.42 96.3305 1535.01 96.3305 Q1541.15 96.3305 1546.87 94.8259 Q1552.66 93.3213 1558.33 90.312 L1558.33 100.381 Q1552.6 102.812 1546.59 104.085 Q1540.57 105.358 1534.37 105.358 Q1518.87 105.358 1509.78 96.3305 Q1500.75 87.3028 1500.75 71.9093 Q1500.75 55.9951 1509.32 46.678 Q1517.94 37.303 1532.52 37.303 Q1545.6 37.303 1553.18 45.7521 Q1560.82 54.1432 1560.82 68.6107 M1550.17 65.4858 Q1550.06 56.7474 1545.25 51.5391 Q1540.51 46.3308 1532.64 46.3308 Q1523.73 46.3308 1518.34 51.3655 Q1513.02 56.4002 1512.21 65.5436 L1550.17 65.4858 Z" fill="#bebebe" fill-rule="evenodd" fill-opacity="1" /><path clip-path="url(#clip890)" d="M 0 0 M1609.55 48.8192 Q1607.75 47.7775 1605.61 47.3146 Q1603.53 46.7937 1600.98 46.7937 Q1591.96 46.7937 1587.09 52.6965 Q1582.29 58.5414 1582.29 69.5367 L1582.29 103.68 L1571.59 103.68 L1571.59 38.8655 L1582.29 38.8655 L1582.29 48.9349 Q1585.65 43.0322 1591.03 40.1965 Q1596.41 37.303 1604.11 37.303 Q1605.21 37.303 1606.54 37.4767 Q1607.87 37.5924 1609.49 37.8817 L1609.55 48.8192 Z" fill="#bebebe" fill-rule="evenodd" fill-opacity="1" /><path clip-path="url(#clip890)" d="M 0 0 M1630.79 17.28 L1630.79 49.3979 L1620.95 49.3979 L1620.95 17.28 L1630.79 17.28 Z" fill="#bebebe" fill-rule="evenodd" fill-opacity="1" /><path clip-path="url(#clip892)" d="M247.173 1016.56 L244.353 1024.67 L235.761 1024.85 L242.613 1030.05 L240.117 1038.27 L247.173 1033.36 L254.229 1038.27 L251.733 1030.05 L258.585 1024.85 L249.993 1024.67 L247.173 1016.56 Z" fill="#ffa500" fill-rule="evenodd" fill-opacity="0.5" stroke="#ff0000" stroke-opacity="0.5" stroke-width="3.2"/>
<path clip-path="url(#clip892)" d="M354.766 274.145 L351.946 282.257 L343.354 282.437 L350.206 287.633 L347.71 295.853 L354.766 290.945 L361.822 295.853 L359.326 287.633 L366.178 282.437 L357.586 282.257 L354.766 274.145 Z" fill="#ffa500" fill-rule="evenodd" fill-opacity="0.5" stroke="#ff0000" stroke-opacity="0.5" stroke-width="3.2"/>
<path clip-path="url(#clip892)" d="M462.358 356.146 L459.538 364.258 L450.946 364.438 L457.798 369.634 L455.302 377.854 L462.358 372.946 L469.414 377.854 L466.918 369.634 L473.77 364.438 L465.178 364.258 L462.358 356.146 Z" fill="#ffa500" fill-rule="evenodd" fill-opacity="0.5" stroke="#ff0000" stroke-opacity="0.5" stroke-width="3.2"/>
<path clip-path="url(#clip892)" d="M569.95 490.47 L567.13 498.582 L558.538 498.762 L565.39 503.958 L562.894 512.178 L569.95 507.27 L577.006 512.178 L574.51 503.958 L581.362 498.762 L572.77 498.582 L569.95 490.47 Z" fill="#ffa500" fill-rule="evenodd" fill-opacity="0.5" stroke="#ff0000" stroke-opacity="0.5" stroke-width="3.2"/>
<path clip-path="url(#clip892)" d="M677.543 337.45 L674.723 345.562 L666.131 345.742 L672.983 350.938 L670.487 359.158 L677.543 354.25 L684.599 359.158 L682.103 350.938 L688.955 345.742 L680.363 345.562 L677.543 337.45 Z" fill="#ffa500" fill-rule="evenodd" fill-opacity="0.5" stroke="#ff0000" stroke-opacity="0.5" stroke-width="3.2"/>
<path clip-path="url(#clip892)" d="M785.135 1383.46 L782.315 1391.57 L773.723 1391.75 L780.575 1396.94 L778.079 1405.16 L785.135 1400.26 L792.191 1405.16 L789.695 1396.94 L796.547 1391.75 L787.955 1391.57 L785.135 1383.46 Z" fill="#ffa500" fill-rule="evenodd" fill-opacity="0.5" stroke="#ff0000" stroke-opacity="0.5" stroke-width="3.2"/>
<path clip-path="url(#clip892)" d="M892.728 1427.84 L889.908 1435.95 L881.316 1436.13 L888.168 1441.32 L885.672 1449.54 L892.728 1444.64 L899.784 1449.54 L897.288 1441.32 L904.14 1436.13 L895.548 1435.95 L892.728 1427.84 Z" fill="#ffa500" fill-rule="evenodd" fill-opacity="0.5" stroke="#ff0000" stroke-opacity="0.5" stroke-width="3.2"/>
<path clip-path="url(#clip892)" d="M1000.32 1261.99 L997.5 1270.1 L988.908 1270.28 L995.76 1275.48 L993.264 1283.7 L1000.32 1278.79 L1007.38 1283.7 L1004.88 1275.48 L1011.73 1270.28 L1003.14 1270.1 L1000.32 1261.99 Z" fill="#ffa500" fill-rule="evenodd" fill-opacity="0.5" stroke="#ff0000" stroke-opacity="0.5" stroke-width="3.2"/>
<path clip-path="url(#clip892)" d="M1107.91 1432.41 L1105.09 1440.52 L1096.5 1440.7 L1103.35 1445.9 L1100.86 1454.12 L1107.91 1449.21 L1114.97 1454.12 L1112.47 1445.9 L1119.32 1440.7 L1110.73 1440.52 L1107.91 1432.41 Z" fill="#ffa500" fill-rule="evenodd" fill-opacity="0.5" stroke="#ff0000" stroke-opacity="0.5" stroke-width="3.2"/>
<path clip-path="url(#clip892)" d="M1215.5 1347.31 L1212.68 1355.42 L1204.09 1355.6 L1210.94 1360.8 L1208.45 1369.02 L1215.5 1364.11 L1222.56 1369.02 L1220.06 1360.8 L1226.92 1355.6 L1218.32 1355.42 L1215.5 1347.31 Z" fill="#ffa500" fill-rule="evenodd" fill-opacity="0.5" stroke="#ff0000" stroke-opacity="0.5" stroke-width="3.2"/>
<path clip-path="url(#clip892)" d="M1323.1 326.588 L1320.28 334.7 L1311.69 334.88 L1318.54 340.076 L1316.04 348.296 L1323.1 343.388 L1330.15 348.296 L1327.66 340.076 L1334.51 334.88 L1325.92 334.7 L1323.1 326.588 Z" fill="#ffa500" fill-rule="evenodd" fill-opacity="0.5" stroke="#ff0000" stroke-opacity="0.5" stroke-width="3.2"/>
<path clip-path="url(#clip892)" d="M1430.69 695.922 L1427.87 704.034 L1419.28 704.214 L1426.13 709.41 L1423.63 717.63 L1430.69 712.722 L1437.75 717.63 L1435.25 709.41 L1442.1 704.214 L1433.51 704.034 L1430.69 695.922 Z" fill="#ffa500" fill-rule="evenodd" fill-opacity="0.5" stroke="#ff0000" stroke-opacity="0.5" stroke-width="3.2"/>
<path clip-path="url(#clip892)" d="M1538.28 334.566 L1535.46 342.678 L1526.87 342.858 L1533.72 348.054 L1531.23 356.274 L1538.28 351.366 L1545.34 356.274 L1542.84 348.054 L1549.69 342.858 L1541.1 342.678 L1538.28 334.566 Z" fill="#ffa500" fill-rule="evenodd" fill-opacity="0.5" stroke="#ff0000" stroke-opacity="0.5" stroke-width="3.2"/>
<path clip-path="url(#clip892)" d="M1645.87 1335.69 L1643.05 1343.81 L1634.46 1343.99 L1641.31 1349.18 L1638.82 1357.4 L1645.87 1352.49 L1652.93 1357.4 L1650.43 1349.18 L1657.29 1343.99 L1648.69 1343.81 L1645.87 1335.69 Z" fill="#ffa500" fill-rule="evenodd" fill-opacity="0.5" stroke="#ff0000" stroke-opacity="0.5" stroke-width="3.2"/>
<path clip-path="url(#clip892)" d="M1753.47 427.408 L1750.65 435.52 L1742.05 435.7 L1748.91 440.896 L1746.41 449.116 L1753.47 444.208 L1760.52 449.116 L1758.03 440.896 L1764.88 435.7 L1756.29 435.52 L1753.47 427.408 Z" fill="#ffa500" fill-rule="evenodd" fill-opacity="0.5" stroke="#ff0000" stroke-opacity="0.5" stroke-width="3.2"/>
<path clip-path="url(#clip892)" d="M1861.06 518.589 L1858.24 526.701 L1849.65 526.881 L1856.5 532.077 L1854 540.297 L1861.06 535.389 L1868.11 540.297 L1865.62 532.077 L1872.47 526.881 L1863.88 526.701 L1861.06 518.589 Z" fill="#ffa500" fill-rule="evenodd" fill-opacity="0.5" stroke="#ff0000" stroke-opacity="0.5" stroke-width="3.2"/>
<path clip-path="url(#clip892)" d="M1968.65 570.672 L1965.83 578.784 L1957.24 578.964 L1964.09 584.16 L1961.6 592.38 L1968.65 587.472 L1975.71 592.38 L1973.21 584.16 L1980.06 578.964 L1971.47 578.784 L1968.65 570.672 Z" fill="#ffa500" fill-rule="evenodd" fill-opacity="0.5" stroke="#ff0000" stroke-opacity="0.5" stroke-width="3.2"/>
<path clip-path="url(#clip892)" d="M2076.24 1082.79 L2073.42 1090.9 L2064.83 1091.08 L2071.68 1096.28 L2069.19 1104.5 L2076.24 1099.59 L2083.3 1104.5 L2080.8 1096.28 L2087.66 1091.08 L2079.06 1090.9 L2076.24 1082.79 Z" fill="#ffa500" fill-rule="evenodd" fill-opacity="0.5" stroke="#ff0000" stroke-opacity="0.5" stroke-width="3.2"/>
<path clip-path="url(#clip892)" d="M2183.84 1269.28 L2181.02 1277.4 L2172.42 1277.58 L2179.28 1282.77 L2176.78 1290.99 L2183.84 1286.08 L2190.89 1290.99 L2188.4 1282.77 L2195.25 1277.58 L2186.66 1277.4 L2183.84 1269.28 Z" fill="#ffa500" fill-rule="evenodd" fill-opacity="0.5" stroke="#ff0000" stroke-opacity="0.5" stroke-width="3.2"/>
<path clip-path="url(#clip892)" d="M2291.43 446.764 L2288.61 454.876 L2280.02 455.056 L2286.87 460.252 L2284.37 468.472 L2291.43 463.564 L2298.48 468.472 L2295.99 460.252 L2302.84 455.056 L2294.25 454.876 L2291.43 446.764 Z" fill="#ffa500" fill-rule="evenodd" fill-opacity="0.5" stroke="#ff0000" stroke-opacity="0.5" stroke-width="3.2"/>
<path clip-path="url(#clip892)" d="M247.173 1040.89 L219.173 1068.89 L247.173 1096.89 L275.173 1068.89 L247.173 1040.89 Z" fill="#008000" fill-rule="evenodd" fill-opacity="1" stroke="#ff0000" stroke-opacity="1" stroke-width="3.2"/>
<path clip-path="url(#clip892)" d="M354.766 748.724 L326.766 776.724 L354.766 804.724 L382.766 776.724 L354.766 748.724 Z" fill="#008000" fill-rule="evenodd" fill-opacity="1" stroke="#ff0000" stroke-opacity="1" stroke-width="3.2"/>
<path clip-path="url(#clip892)" d="M462.358 457.921 L434.358 485.921 L462.358 513.921 L490.358 485.921 L462.358 457.921 Z" fill="#008000" fill-rule="evenodd" fill-opacity="1" stroke="#ff0000" stroke-opacity="1" stroke-width="3.2"/>
<path clip-path="url(#clip892)" d="M569.95 371.509 L541.95 399.509 L569.95 427.509 L597.95 399.509 L569.95 371.509 Z" fill="#008000" fill-rule="evenodd" fill-opacity="1" stroke="#ff0000" stroke-opacity="1" stroke-width="3.2"/>
<path clip-path="url(#clip892)" d="M677.543 649.238 L649.543 677.238 L677.543 705.238 L705.543 677.238 L677.543 649.238 Z" fill="#008000" fill-rule="evenodd" fill-opacity="1" stroke="#ff0000" stroke-opacity="1" stroke-width="3.2"/>
<path clip-path="url(#clip892)" d="M785.135 1048.88 L757.135 1076.88 L785.135 1104.88 L813.135 1076.88 L785.135 1048.88 Z" fill="#008000" fill-rule="evenodd" fill-opacity="1" stroke="#ff0000" stroke-opacity="1" stroke-width="3.2"/>
<path clip-path="url(#clip892)" d="M892.728 1318.81 L864.728 1346.81 L892.728 1374.81 L920.728 1346.81 L892.728 1318.81 Z" fill="#008000" fill-rule="evenodd" fill-opacity="1" stroke="#ff0000" stroke-opacity="1" stroke-width="3.2"/>
<path clip-path="url(#clip892)" d="M1000.32 867.389 L972.32 895.389 L1000.32 923.389 L1028.32 895.389 L1000.32 867.389 Z" fill="#008000" fill-rule="evenodd" fill-opacity="1" stroke="#ff0000" stroke-opacity="1" stroke-width="3.2"/>
<path clip-path="url(#clip892)" d="M1107.91 867.2 L1079.91 895.2 L1107.91 923.2 L1135.91 895.2 L1107.91 867.2 Z" fill="#008000" fill-rule="evenodd" fill-opacity="1" stroke="#ff0000" stroke-opacity="1" stroke-width="3.2"/>
<path clip-path="url(#clip892)" d="M1215.5 544.209 L1187.5 572.209 L1215.5 600.209 L1243.5 572.209 L1215.5 544.209 Z" fill="#008000" fill-rule="evenodd" fill-opacity="1" stroke="#ff0000" stroke-opacity="1" stroke-width="3.2"/>
<path clip-path="url(#clip892)" d="M1323.1 365.891 L1295.1 393.891 L1323.1 421.891 L1351.1 393.891 L1323.1 365.891 Z" fill="#008000" fill-rule="evenodd" fill-opacity="1" stroke="#ff0000" stroke-opacity="1" stroke-width="3.2"/>
<path clip-path="url(#clip892)" d="M1430.69 346.676 L1402.69 374.676 L1430.69 402.676 L1458.69 374.676 L1430.69 346.676 Z" fill="#008000" fill-rule="evenodd" fill-opacity="1" stroke="#ff0000" stroke-opacity="1" stroke-width="3.2"/>
<path clip-path="url(#clip892)" d="M1538.28 840.261 L1510.28 868.261 L1538.28 896.261 L1566.28 868.261 L1538.28 840.261 Z" fill="#008000" fill-rule="evenodd" fill-opacity="1" stroke="#ff0000" stroke-opacity="1" stroke-width="3.2"/>
<path clip-path="url(#clip892)" d="M1645.87 1246.83 L1617.87 1274.83 L1645.87 1302.83 L1673.87 1274.83 L1645.87 1246.83 Z" fill="#008000" fill-rule="evenodd" fill-opacity="1" stroke="#ff0000" stroke-opacity="1" stroke-width="3.2"/>
<path clip-path="url(#clip892)" d="M1753.47 763.549 L1725.47 791.549 L1753.47 819.549 L1781.47 791.549 L1753.47 763.549 Z" fill="#008000" fill-rule="evenodd" fill-opacity="1" stroke="#ff0000" stroke-opacity="1" stroke-width="3.2"/>
<path clip-path="url(#clip892)" d="M1861.06 159.111 L1833.06 187.111 L1861.06 215.111 L1889.06 187.111 L1861.06 159.111 Z" fill="#008000" fill-rule="evenodd" fill-opacity="1" stroke="#ff0000" stroke-opacity="1" stroke-width="3.2"/>
<path clip-path="url(#clip892)" d="M1968.65 727.083 L1940.65 755.083 L1968.65 783.083 L1996.65 755.083 L1968.65 727.083 Z" fill="#008000" fill-rule="evenodd" fill-opacity="1" stroke="#ff0000" stroke-opacity="1" stroke-width="3.2"/>
<path clip-path="url(#clip892)" d="M2076.24 1166.69 L2048.24 1194.69 L2076.24 1222.69 L2104.24 1194.69 L2076.24 1166.69 Z" fill="#008000" fill-rule="evenodd" fill-opacity="1" stroke="#ff0000" stroke-opacity="1" stroke-width="3.2"/>
<path clip-path="url(#clip892)" d="M2183.84 888.016 L2155.84 916.016 L2183.84 944.016 L2211.84 916.016 L2183.84 888.016 Z" fill="#008000" fill-rule="evenodd" fill-opacity="1" stroke="#ff0000" stroke-opacity="1" stroke-width="3.2"/>
<path clip-path="url(#clip892)" d="M2291.43 860.43 L2263.43 888.43 L2291.43 916.43 L2319.43 888.43 L2291.43 860.43 Z" fill="#008000" fill-rule="evenodd" fill-opacity="1" stroke="#ff0000" stroke-opacity="1" stroke-width="3.2"/>
<path clip-path="url(#clip892)" d="M208.773 227.643 L266.373 261.243 L266.373 194.043 L208.773 227.643 Z" fill="#00008b" fill-rule="evenodd" fill-opacity="0.2" stroke="#ff0000" stroke-opacity="0.2" stroke-width="3.2"/>
<path clip-path="url(#clip892)" d="M316.366 1162.52 L373.966 1196.12 L373.966 1128.92 L316.366 1162.52 Z" fill="#00008b" fill-rule="evenodd" fill-opacity="0.2" stroke="#ff0000" stroke-opacity="0.2" stroke-width="3.2"/>
<path clip-path="url(#clip892)" d="M423.958 1399.3 L481.558 1432.9 L481.558 1365.7 L423.958 1399.3 Z" fill="#00008b" fill-rule="evenodd" fill-opacity="0.2" stroke="#ff0000" stroke-opacity="0.2" stroke-width="3.2"/>
<path clip-path="url(#clip892)" d="M531.55 396.17 L589.15 429.77 L589.15 362.57 L531.55 396.17 Z" fill="#00008b" fill-rule="evenodd" fill-opacity="0.2" stroke="#ff0000" stroke-opacity="0.2" stroke-width="3.2"/>
<path clip-path="url(#clip892)" d="M639.143 1201.77 L696.743 1235.37 L696.743 1168.17 L639.143 1201.77 Z" fill="#00008b" fill-rule="evenodd" fill-opacity="0.2" stroke="#ff0000" stroke-opacity="0.2" stroke-width="3.2"/>
<path clip-path="url(#clip892)" d="M746.735 427.952 L804.335 461.552 L804.335 394.352 L746.735 427.952 Z" fill="#00008b" fill-rule="evenodd" fill-opacity="0.2" stroke="#ff0000" stroke-opacity="0.2" stroke-width="3.2"/>
<path clip-path="url(#clip892)" d="M854.328 1127.11 L911.928 1160.71 L911.928 1093.51 L854.328 1127.11 Z" fill="#00008b" fill-rule="evenodd" fill-opacity="0.2" stroke="#ff0000" stroke-opacity="0.2" stroke-width="3.2"/>
<path clip-path="url(#clip892)" d="M961.92 368.596 L1019.52 402.196 L1019.52 334.996 L961.92 368.596 Z" fill="#00008b" fill-rule="evenodd" fill-opacity="0.2" stroke="#ff0000" stroke-opacity="0.2" stroke-width="3.2"/>
<path clip-path="url(#clip892)" d="M1069.51 564.395 L1127.11 597.995 L1127.11 530.795 L1069.51 564.395 Z" fill="#00008b" fill-rule="evenodd" fill-opacity="0.2" stroke="#ff0000" stroke-opacity="0.2" stroke-width="3.2"/>
<path clip-path="url(#clip892)" d="M1177.1 377.626 L1234.7 411.226 L1234.7 344.026 L1177.1 377.626 Z" fill="#00008b" fill-rule="evenodd" fill-opacity="0.2" stroke="#ff0000" stroke-opacity="0.2" stroke-width="3.2"/>
<path clip-path="url(#clip892)" d="M1284.7 1179.38 L1342.3 1212.98 L1342.3 1145.78 L1284.7 1179.38 Z" fill="#00008b" fill-rule="evenodd" fill-opacity="0.2" stroke="#ff0000" stroke-opacity="0.2" stroke-width="3.2"/>
<path clip-path="url(#clip892)" d="M1392.29 867.999 L1449.89 901.599 L1449.89 834.399 L1392.29 867.999 Z" fill="#00008b" fill-rule="evenodd" fill-opacity="0.2" stroke="#ff0000" stroke-opacity="0.2" stroke-width="3.2"/>
<path clip-path="url(#clip892)" d="M1499.88 936.476 L1557.48 970.076 L1557.48 902.876 L1499.88 936.476 Z" fill="#00008b" fill-rule="evenodd" fill-opacity="0.2" stroke="#ff0000" stroke-opacity="0.2" stroke-width="3.2"/>
<path clip-path="url(#clip892)" d="M1607.47 1059.22 L1665.07 1092.82 L1665.07 1025.62 L1607.47 1059.22 Z" fill="#00008b" fill-rule="evenodd" fill-opacity="0.2" stroke="#ff0000" stroke-opacity="0.2" stroke-width="3.2"/>
<path clip-path="url(#clip892)" d="M1715.07 190.564 L1772.67 224.164 L1772.67 156.964 L1715.07 190.564 Z" fill="#00008b" fill-rule="evenodd" fill-opacity="0.2" stroke="#ff0000" stroke-opacity="0.2" stroke-width="3.2"/>
<path clip-path="url(#clip892)" d="M1822.66 578.21 L1880.26 611.81 L1880.26 544.61 L1822.66 578.21 Z" fill="#00008b" fill-rule="evenodd" fill-opacity="0.2" stroke="#ff0000" stroke-opacity="0.2" stroke-width="3.2"/>
<path clip-path="url(#clip892)" d="M1930.25 451.623 L1987.85 485.223 L1987.85 418.023 L1930.25 451.623 Z" fill="#00008b" fill-rule="evenodd" fill-opacity="0.2" stroke="#ff0000" stroke-opacity="0.2" stroke-width="3.2"/>
<path clip-path="url(#clip892)" d="M2037.84 419.017 L2095.44 452.617 L2095.44 385.417 L2037.84 419.017 Z" fill="#00008b" fill-rule="evenodd" fill-opacity="0.2" stroke="#ff0000" stroke-opacity="0.2" stroke-width="3.2"/>
<path clip-path="url(#clip892)" d="M2145.44 423.393 L2203.04 456.993 L2203.04 389.793 L2145.44 423.393 Z" fill="#00008b" fill-rule="evenodd" fill-opacity="0.2" stroke="#ff0000" stroke-opacity="0.2" stroke-width="3.2"/>
<path clip-path="url(#clip892)" d="M2253.03 836.998 L2310.63 870.598 L2310.63 803.398 L2253.03 836.998 Z" fill="#00008b" fill-rule="evenodd" fill-opacity="0.2" stroke="#ff0000" stroke-opacity="0.2" stroke-width="3.2"/>
<path clip-path="url(#clip890)" d="
M1988.16 435.737 L2280.53 435.737 L2280.53 193.817 L1988.16 193.817  Z
  " fill="#ffffff" fill-rule="evenodd" fill-opacity="1"/>
<polyline clip-path="url(#clip890)" style="stroke:#000000; stroke-width:4; stroke-opacity:1; fill:none" points="
  1988.16,435.737 2280.53,435.737 2280.53,193.817 1988.16,193.817 1988.16,435.737 
  "/>
<path clip-path="url(#clip890)" d="M2084.47 228.697 L2078.45 246.002 L2060.12 246.386 L2074.74 257.471 L2069.42 275.007 L2084.47 264.537 L2099.52 275.007 L2094.2 257.471 L2108.81 246.386 L2090.48 246.002 L2084.47 228.697 Z" fill="#ffa500" fill-rule="evenodd" fill-opacity="0.5" stroke="#ff0000" stroke-opacity="0.5" stroke-width="6.82667"/>
<path clip-path="url(#clip890)" d="M 0 0 M2194.62 273.984 Q2192.81 278.614 2191.1 280.026 Q2189.39 281.438 2186.52 281.438 L2183.11 281.438 L2183.11 277.873 L2185.61 277.873 Q2187.37 277.873 2188.34 277.04 Q2189.32 276.206 2190.5 273.104 L2191.26 271.16 L2180.78 245.651 L2185.29 245.651 L2193.39 265.929 L2201.49 245.651 L2206.01 245.651 L2194.62 273.984 Z" fill="#bebebe" fill-rule="evenodd" fill-opacity="1" /><path clip-path="url(#clip890)" d="M 0 0 M2211.89 267.641 L2219.52 267.641 L2219.52 241.276 L2211.21 242.943 L2211.21 238.683 L2219.48 237.017 L2224.15 237.017 L2224.15 267.641 L2231.79 267.641 L2231.79 271.577 L2211.89 271.577 L2211.89 267.641 Z" fill="#bebebe" fill-rule="evenodd" fill-opacity="1" /><path clip-path="url(#clip890)" d="M2084.47 289.177 L2058.87 314.777 L2084.47 340.377 L2110.07 314.777 L2084.47 289.177 Z" fill="#008000" fill-rule="evenodd" fill-opacity="1" stroke="#ff0000" stroke-opacity="1" stroke-width="2.92571"/>
<path clip-path="url(#clip890)" d="M 0 0 M2194.62 334.464 Q2192.81 339.094 2191.1 340.506 Q2189.39 341.918 2186.52 341.918 L2183.11 341.918 L2183.11 338.353 L2185.61 338.353 Q2187.37 338.353 2188.34 337.52 Q2189.32 336.686 2190.5 333.584 L2191.26 331.64 L2180.78 306.131 L2185.29 306.131 L2193.39 326.409 L2201.49 306.131 L2206.01 306.131 L2194.62 334.464 Z" fill="#bebebe" fill-rule="evenodd" fill-opacity="1" /><path clip-path="url(#clip890)" d="M 0 0 M2215.1 328.121 L2231.42 328.121 L2231.42 332.057 L2209.48 332.057 L2209.48 328.121 Q2212.14 325.367 2216.72 320.737 Q2221.33 316.085 2222.51 314.742 Q2224.76 312.219 2225.64 310.483 Q2226.54 308.723 2226.54 307.034 Q2226.54 304.279 2224.59 302.543 Q2222.67 300.807 2219.57 300.807 Q2217.37 300.807 2214.92 301.571 Q2212.49 302.335 2209.71 303.886 L2209.71 299.163 Q2212.53 298.029 2214.99 297.45 Q2217.44 296.872 2219.48 296.872 Q2224.85 296.872 2228.04 299.557 Q2231.24 302.242 2231.24 306.733 Q2231.24 308.862 2230.43 310.784 Q2229.64 312.682 2227.53 315.274 Q2226.96 315.946 2223.85 319.163 Q2220.75 322.358 2215.1 328.121 Z" fill="#bebebe" fill-rule="evenodd" fill-opacity="1" /><path clip-path="url(#clip890)" d="M2063.99 375.257 L2094.71 393.177 L2094.71 357.337 L2063.99 375.257 Z" fill="#00008b" fill-rule="evenodd" fill-opacity="0.2" stroke="#ff0000" stroke-opacity="0.2" stroke-width="1.70667"/>
<path clip-path="url(#clip890)" d="M 0 0 M2194.62 394.944 Q2192.81 399.574 2191.1 400.986 Q2189.39 402.398 2186.52 402.398 L2183.11 402.398 L2183.11 398.833 L2185.61 398.833 Q2187.37 398.833 2188.34 398 Q2189.32 397.166 2190.5 394.064 L2191.26 392.12 L2180.78 366.611 L2185.29 366.611 L2193.39 386.889 L2201.49 366.611 L2206.01 366.611 L2194.62 394.944 Z" fill="#bebebe" fill-rule="evenodd" fill-opacity="1" /><path clip-path="url(#clip890)" d="M 0 0 M2225.24 373.902 Q2228.6 374.62 2230.47 376.889 Q2232.37 379.157 2232.37 382.49 Q2232.37 387.606 2228.85 390.407 Q2225.34 393.208 2218.85 393.208 Q2216.68 393.208 2214.36 392.768 Q2212.07 392.351 2209.62 391.495 L2209.62 386.981 Q2211.56 388.115 2213.88 388.694 Q2216.19 389.273 2218.71 389.273 Q2223.11 389.273 2225.4 387.537 Q2227.72 385.801 2227.72 382.49 Q2227.72 379.435 2225.57 377.722 Q2223.44 375.986 2219.62 375.986 L2215.59 375.986 L2215.59 372.143 L2219.8 372.143 Q2223.25 372.143 2225.08 370.778 Q2226.91 369.389 2226.91 366.796 Q2226.91 364.134 2225.01 362.722 Q2223.14 361.287 2219.62 361.287 Q2217.7 361.287 2215.5 361.703 Q2213.3 362.12 2210.66 363 L2210.66 358.833 Q2213.32 358.092 2215.64 357.722 Q2217.97 357.352 2220.03 357.352 Q2225.36 357.352 2228.46 359.782 Q2231.56 362.19 2231.56 366.31 Q2231.56 369.18 2229.92 371.171 Q2228.27 373.139 2225.24 373.902 Z" fill="#bebebe" fill-rule="evenodd" fill-opacity="1" /></svg>
