<?xml version="1.0" encoding="utf-8"?>
<svg xmlns="http://www.w3.org/2000/svg" xmlns:xlink="http://www.w3.org/1999/xlink" width="600" height="400" viewBox="0 0 2400 1600">
<defs>
  <clipPath id="clip870">
    <rect x="0" y="0" width="2400" height="1600"/>
  </clipPath>
</defs>
<path clip-path="url(#clip870)" d="
M0 1600 L2400 1600 L2400 0 L0 0  Z
  " fill="#ffffff" fill-rule="evenodd" fill-opacity="1"/>
<defs>
  <clipPath id="clip871">
    <rect x="480" y="0" width="1681" height="1600"/>
  </clipPath>
</defs>
<path clip-path="url(#clip870)" d="
M112.177 1486.45 L2352.76 1486.45 L2352.76 47.2441 L112.177 47.2441  Z
  " fill="#ffffff" fill-rule="evenodd" fill-opacity="1"/>
<defs>
  <clipPath id="clip872">
    <rect x="112" y="47" width="2242" height="1440"/>
  </clipPath>
</defs>
<polyline clip-path="url(#clip872)" style="stroke:#000000; stroke-width:2; stroke-opacity:0.1; fill:none" points="
  410.451,1486.45 410.451,47.2441 
  "/>
<polyline clip-path="url(#clip872)" style="stroke:#000000; stroke-width:2; stroke-opacity:0.1; fill:none" points="
  880.174,1486.45 880.174,47.2441 
  "/>
<polyline clip-path="url(#clip872)" style="stroke:#000000; stroke-width:2; stroke-opacity:0.1; fill:none" points="
  1349.9,1486.45 1349.9,47.2441 
  "/>
<polyline clip-path="url(#clip872)" style="stroke:#000000; stroke-width:2; stroke-opacity:0.1; fill:none" points="
  1819.62,1486.45 1819.62,47.2441 
  "/>
<polyline clip-path="url(#clip872)" style="stroke:#000000; stroke-width:2; stroke-opacity:0.1; fill:none" points="
  2289.34,1486.45 2289.34,47.2441 
  "/>
<polyline clip-path="url(#clip870)" style="stroke:#000000; stroke-width:4; stroke-opacity:1; fill:none" points="
  112.177,1486.45 2352.76,1486.45 
  "/>
<polyline clip-path="url(#clip870)" style="stroke:#000000; stroke-width:4; stroke-opacity:1; fill:none" points="
  410.451,1486.45 410.451,1469.18 
  "/>
<polyline clip-path="url(#clip870)" style="stroke:#000000; stroke-width:4; stroke-opacity:1; fill:none" points="
  880.174,1486.45 880.174,1469.18 
  "/>
<polyline clip-path="url(#clip870)" style="stroke:#000000; stroke-width:4; stroke-opacity:1; fill:none" points="
  1349.9,1486.45 1349.9,1469.18 
  "/>
<polyline clip-path="url(#clip870)" style="stroke:#000000; stroke-width:4; stroke-opacity:1; fill:none" points="
  1819.62,1486.45 1819.62,1469.18 
  "/>
<polyline clip-path="url(#clip870)" style="stroke:#000000; stroke-width:4; stroke-opacity:1; fill:none" points="
  2289.34,1486.45 2289.34,1469.18 
  "/>
<path clip-path="url(#clip870)" d="M 0 0 M405.104 1543.18 L421.423 1543.18 L421.423 1547.12 L399.479 1547.12 L399.479 1543.18 Q402.141 1540.43 406.724 1535.8 Q411.331 1531.15 412.511 1529.81 Q414.757 1527.28 415.636 1525.55 Q416.539 1523.79 416.539 1522.1 Q416.539 1519.34 414.595 1517.61 Q412.673 1515.87 409.572 1515.87 Q407.373 1515.87 404.919 1516.63 Q402.488 1517.4 399.711 1518.95 L399.711 1514.23 Q402.535 1513.09 404.988 1512.51 Q407.442 1511.93 409.479 1511.93 Q414.849 1511.93 418.044 1514.62 Q421.238 1517.31 421.238 1521.8 Q421.238 1523.93 420.428 1525.85 Q419.641 1527.74 417.535 1530.34 Q416.956 1531.01 413.854 1534.23 Q410.752 1537.42 405.104 1543.18 Z" fill="#000000" fill-rule="evenodd" fill-opacity="1" /><path clip-path="url(#clip870)" d="M 0 0 M883.184 1516.63 L871.378 1535.08 L883.184 1535.08 L883.184 1516.63 M881.957 1512.56 L887.836 1512.56 L887.836 1535.08 L892.767 1535.08 L892.767 1538.97 L887.836 1538.97 L887.836 1547.12 L883.184 1547.12 L883.184 1538.97 L867.582 1538.97 L867.582 1534.46 L881.957 1512.56 Z" fill="#000000" fill-rule="evenodd" fill-opacity="1" /><path clip-path="url(#clip870)" d="M 0 0 M1350.3 1527.98 Q1347.15 1527.98 1345.3 1530.13 Q1343.47 1532.28 1343.47 1536.03 Q1343.47 1539.76 1345.3 1541.93 Q1347.15 1544.09 1350.3 1544.09 Q1353.45 1544.09 1355.28 1541.93 Q1357.13 1539.76 1357.13 1536.03 Q1357.13 1532.28 1355.28 1530.13 Q1353.45 1527.98 1350.3 1527.98 M1359.58 1513.32 L1359.58 1517.58 Q1357.83 1516.75 1356.02 1516.31 Q1354.24 1515.87 1352.48 1515.87 Q1347.85 1515.87 1345.4 1519 Q1342.96 1522.12 1342.62 1528.44 Q1343.98 1526.43 1346.04 1525.36 Q1348.1 1524.27 1350.58 1524.27 Q1355.79 1524.27 1358.8 1527.44 Q1361.83 1530.59 1361.83 1536.03 Q1361.83 1541.36 1358.68 1544.57 Q1355.53 1547.79 1350.3 1547.79 Q1344.31 1547.79 1341.14 1543.21 Q1337.96 1538.6 1337.96 1529.87 Q1337.96 1521.68 1341.85 1516.82 Q1345.74 1511.93 1352.29 1511.93 Q1354.05 1511.93 1355.83 1512.28 Q1357.64 1512.63 1359.58 1513.32 Z" fill="#000000" fill-rule="evenodd" fill-opacity="1" /><path clip-path="url(#clip870)" d="M 0 0 M1819.62 1530.71 Q1816.29 1530.71 1814.37 1532.49 Q1812.47 1534.27 1812.47 1537.4 Q1812.47 1540.52 1814.37 1542.31 Q1816.29 1544.09 1819.62 1544.09 Q1822.95 1544.09 1824.87 1542.31 Q1826.8 1540.5 1826.8 1537.4 Q1826.8 1534.27 1824.87 1532.49 Q1822.98 1530.71 1819.62 1530.71 M1814.94 1528.72 Q1811.94 1527.98 1810.25 1525.92 Q1808.58 1523.86 1808.58 1520.89 Q1808.58 1516.75 1811.52 1514.34 Q1814.48 1511.93 1819.62 1511.93 Q1824.78 1511.93 1827.72 1514.34 Q1830.66 1516.75 1830.66 1520.89 Q1830.66 1523.86 1828.97 1525.92 Q1827.31 1527.98 1824.32 1528.72 Q1827.7 1529.5 1829.57 1531.8 Q1831.47 1534.09 1831.47 1537.4 Q1831.47 1542.42 1828.39 1545.11 Q1825.34 1547.79 1819.62 1547.79 Q1813.9 1547.79 1810.82 1545.11 Q1807.77 1542.42 1807.77 1537.4 Q1807.77 1534.09 1809.67 1531.8 Q1811.56 1529.5 1814.94 1528.72 M1813.23 1521.33 Q1813.23 1524.02 1814.9 1525.52 Q1816.59 1527.03 1819.62 1527.03 Q1822.63 1527.03 1824.32 1525.52 Q1826.03 1524.02 1826.03 1521.33 Q1826.03 1518.65 1824.32 1517.14 Q1822.63 1515.64 1819.62 1515.64 Q1816.59 1515.64 1814.9 1517.14 Q1813.23 1518.65 1813.23 1521.33 Z" fill="#000000" fill-rule="evenodd" fill-opacity="1" /><path clip-path="url(#clip870)" d="M 0 0 M2266.22 1543.18 L2273.86 1543.18 L2273.86 1516.82 L2265.55 1518.49 L2265.55 1514.23 L2273.81 1512.56 L2278.49 1512.56 L2278.49 1543.18 L2286.13 1543.18 L2286.13 1547.12 L2266.22 1547.12 L2266.22 1543.18 Z" fill="#000000" fill-rule="evenodd" fill-opacity="1" /><path clip-path="url(#clip870)" d="M 0 0 M2301.2 1515.64 Q2297.58 1515.64 2295.76 1519.2 Q2293.95 1522.75 2293.95 1529.87 Q2293.95 1536.98 2295.76 1540.55 Q2297.58 1544.09 2301.2 1544.09 Q2304.83 1544.09 2306.63 1540.55 Q2308.46 1536.98 2308.46 1529.87 Q2308.46 1522.75 2306.63 1519.2 Q2304.83 1515.64 2301.2 1515.64 M2301.2 1511.93 Q2307.01 1511.93 2310.06 1516.54 Q2313.14 1521.12 2313.14 1529.87 Q2313.14 1538.6 2310.06 1543.21 Q2307.01 1547.79 2301.2 1547.79 Q2295.38 1547.79 2292.31 1543.21 Q2289.25 1538.6 2289.25 1529.87 Q2289.25 1521.12 2292.31 1516.54 Q2295.38 1511.93 2301.2 1511.93 Z" fill="#000000" fill-rule="evenodd" fill-opacity="1" /><polyline clip-path="url(#clip872)" style="stroke:#000000; stroke-width:2; stroke-opacity:0.1; fill:none" points="
  112.177,1452.43 2352.76,1452.43 
  "/>
<polyline clip-path="url(#clip872)" style="stroke:#000000; stroke-width:2; stroke-opacity:0.1; fill:none" points="
  112.177,1167.38 2352.76,1167.38 
  "/>
<polyline clip-path="url(#clip872)" style="stroke:#000000; stroke-width:2; stroke-opacity:0.1; fill:none" points="
  112.177,882.33 2352.76,882.33 
  "/>
<polyline clip-path="url(#clip872)" style="stroke:#000000; stroke-width:2; stroke-opacity:0.1; fill:none" points="
  112.177,597.279 2352.76,597.279 
  "/>
<polyline clip-path="url(#clip872)" style="stroke:#000000; stroke-width:2; stroke-opacity:0.1; fill:none" points="
  112.177,312.229 2352.76,312.229 
  "/>
<polyline clip-path="url(#clip870)" style="stroke:#000000; stroke-width:4; stroke-opacity:1; fill:none" points="
  112.177,1486.45 112.177,47.2441 
  "/>
<polyline clip-path="url(#clip870)" style="stroke:#000000; stroke-width:4; stroke-opacity:1; fill:none" points="
  112.177,1452.43 139.064,1452.43 
  "/>
<polyline clip-path="url(#clip870)" style="stroke:#000000; stroke-width:4; stroke-opacity:1; fill:none" points="
  112.177,1167.38 139.064,1167.38 
  "/>
<polyline clip-path="url(#clip870)" style="stroke:#000000; stroke-width:4; stroke-opacity:1; fill:none" points="
  112.177,882.33 139.064,882.33 
  "/>
<polyline clip-path="url(#clip870)" style="stroke:#000000; stroke-width:4; stroke-opacity:1; fill:none" points="
  112.177,597.279 139.064,597.279 
  "/>
<polyline clip-path="url(#clip870)" style="stroke:#000000; stroke-width:4; stroke-opacity:1; fill:none" points="
  112.177,312.229 139.064,312.229 
  "/>
<path clip-path="url(#clip870)" d="M 0 0 M64.2328 1438.23 Q60.6217 1438.23 58.793 1441.79 Q56.9875 1445.34 56.9875 1452.47 Q56.9875 1459.57 58.793 1463.14 Q60.6217 1466.68 64.2328 1466.68 Q67.867 1466.68 69.6726 1463.14 Q71.5013 1459.57 71.5013 1452.47 Q71.5013 1445.34 69.6726 1441.79 Q67.867 1438.23 64.2328 1438.23 M64.2328 1434.53 Q70.0429 1434.53 73.0985 1439.13 Q76.1772 1443.72 76.1772 1452.47 Q76.1772 1461.19 73.0985 1465.8 Q70.0429 1470.38 64.2328 1470.38 Q58.4226 1470.38 55.344 1465.8 Q52.2884 1461.19 52.2884 1452.47 Q52.2884 1443.72 55.344 1439.13 Q58.4226 1434.53 64.2328 1434.53 Z" fill="#000000" fill-rule="evenodd" fill-opacity="1" /><path clip-path="url(#clip870)" d="M 0 0 M59.8578 1180.73 L76.1772 1180.73 L76.1772 1184.66 L54.2328 1184.66 L54.2328 1180.73 Q56.8949 1177.97 61.4782 1173.34 Q66.0846 1168.69 67.2652 1167.35 Q69.5105 1164.82 70.3902 1163.09 Q71.2929 1161.33 71.2929 1159.64 Q71.2929 1156.88 69.3485 1155.15 Q67.4272 1153.41 64.3254 1153.41 Q62.1263 1153.41 59.6726 1154.17 Q57.2421 1154.94 54.4643 1156.49 L54.4643 1151.77 Q57.2884 1150.63 59.7421 1150.05 Q62.1958 1149.48 64.2328 1149.48 Q69.6031 1149.48 72.7976 1152.16 Q75.992 1154.85 75.992 1159.34 Q75.992 1161.47 75.1818 1163.39 Q74.3948 1165.29 72.2883 1167.88 Q71.7096 1168.55 68.6078 1171.77 Q65.5059 1174.96 59.8578 1180.73 Z" fill="#000000" fill-rule="evenodd" fill-opacity="1" /><path clip-path="url(#clip870)" d="M 0 0 M66.5939 869.124 L54.7884 887.573 L66.5939 887.573 L66.5939 869.124 M65.367 865.05 L71.2466 865.05 L71.2466 887.573 L76.1772 887.573 L76.1772 891.462 L71.2466 891.462 L71.2466 899.61 L66.5939 899.61 L66.5939 891.462 L50.9921 891.462 L50.9921 886.948 L65.367 865.05 Z" fill="#000000" fill-rule="evenodd" fill-opacity="1" /><path clip-path="url(#clip870)" d="M 0 0 M64.6495 595.416 Q61.5013 595.416 59.6495 597.569 Q57.8208 599.722 57.8208 603.472 Q57.8208 607.198 59.6495 609.374 Q61.5013 611.527 64.6495 611.527 Q67.7976 611.527 69.6263 609.374 Q71.4781 607.198 71.4781 603.472 Q71.4781 599.722 69.6263 597.569 Q67.7976 595.416 64.6495 595.416 M73.9318 580.763 L73.9318 585.023 Q72.1726 584.189 70.367 583.749 Q68.5846 583.31 66.8254 583.31 Q62.1958 583.31 59.7421 586.435 Q57.3115 589.56 56.9643 595.879 Q58.33 593.865 60.3902 592.8 Q62.4504 591.712 64.9272 591.712 Q70.1355 591.712 73.1448 594.884 Q76.1772 598.032 76.1772 603.472 Q76.1772 608.796 73.029 612.013 Q69.8809 615.231 64.6495 615.231 Q58.6541 615.231 55.4828 610.647 Q52.3116 606.041 52.3116 597.314 Q52.3116 589.12 56.2004 584.259 Q60.0893 579.374 66.6402 579.374 Q68.3994 579.374 70.1818 579.722 Q71.9874 580.069 73.9318 580.763 Z" fill="#000000" fill-rule="evenodd" fill-opacity="1" /><path clip-path="url(#clip870)" d="M 0 0 M64.3254 313.097 Q60.9921 313.097 59.0708 314.879 Q57.1726 316.662 57.1726 319.787 Q57.1726 322.912 59.0708 324.694 Q60.9921 326.477 64.3254 326.477 Q67.6587 326.477 69.58 324.694 Q71.5013 322.889 71.5013 319.787 Q71.5013 316.662 69.58 314.879 Q67.6819 313.097 64.3254 313.097 M59.6495 311.106 Q56.6402 310.366 54.9504 308.305 Q53.2838 306.245 53.2838 303.282 Q53.2838 299.139 56.2236 296.731 Q59.1865 294.324 64.3254 294.324 Q69.4874 294.324 72.4272 296.731 Q75.367 299.139 75.367 303.282 Q75.367 306.245 73.6772 308.305 Q72.0105 310.366 69.0244 311.106 Q72.404 311.893 74.279 314.185 Q76.1772 316.477 76.1772 319.787 Q76.1772 324.81 73.0985 327.495 Q70.0429 330.18 64.3254 330.18 Q58.6078 330.18 55.5291 327.495 Q52.4736 324.81 52.4736 319.787 Q52.4736 316.477 54.3717 314.185 Q56.2699 311.893 59.6495 311.106 M57.9365 303.722 Q57.9365 306.407 59.6032 307.912 Q61.293 309.416 64.3254 309.416 Q67.3346 309.416 69.0244 307.912 Q70.7374 306.407 70.7374 303.722 Q70.7374 301.037 69.0244 299.532 Q67.3346 298.028 64.3254 298.028 Q61.293 298.028 59.6032 299.532 Q57.9365 301.037 57.9365 303.722 Z" fill="#000000" fill-rule="evenodd" fill-opacity="1" /><polyline clip-path="url(#clip872)" style="stroke:#009af9; stroke-width:4; stroke-opacity:1; fill:none" points="
  175.59,1195.56 410.451,891.333 645.313,1445.72 880.174,92.0295 1115.04,744.418 1349.9,203.484 1584.76,1276.49 1819.62,492.352 2054.48,473.137 2289.34,576.522 
  
  "/>
<polyline clip-path="url(#clip872)" style="stroke:#e26f46; stroke-width:4; stroke-opacity:1; fill:none" points="
  175.59,1438.25 410.451,1122.14 645.313,447.887 880.174,1305.22 1115.04,1099.23 1349.9,87.9763 1584.76,753.643 1819.62,427.332 2054.48,1097.66 2289.34,537.945 
  
  "/>
<path clip-path="url(#clip870)" d="
M2005.92 276.658 L2278.07 276.658 L2278.07 95.2176 L2005.92 95.2176  Z
  " fill="#ffffff" fill-rule="evenodd" fill-opacity="1"/>
<polyline clip-path="url(#clip870)" style="stroke:#000000; stroke-width:4; stroke-opacity:1; fill:none" points="
  2005.92,276.658 2278.07,276.658 2278.07,95.2176 2005.92,95.2176 2005.92,276.658 
  "/>
<polyline clip-path="url(#clip870)" style="stroke:#009af9; stroke-width:4; stroke-opacity:1; fill:none" points="
  2030.82,155.698 2180.19,155.698 
  "/>
<path clip-path="url(#clip870)" d="M 0 0 M2223.86 160.038 Q2223.86 155.339 2221.91 152.677 Q2219.99 149.992 2216.61 149.992 Q2213.23 149.992 2211.29 152.677 Q2209.37 155.339 2209.37 160.038 Q2209.37 164.737 2211.29 167.422 Q2213.23 170.084 2216.61 170.084 Q2219.99 170.084 2221.91 167.422 Q2223.86 164.737 2223.86 160.038 M2209.37 150.987 Q2210.71 148.672 2212.75 147.561 Q2214.81 146.427 2217.65 146.427 Q2222.38 146.427 2225.32 150.177 Q2228.28 153.927 2228.28 160.038 Q2228.28 166.149 2225.32 169.899 Q2222.38 173.649 2217.65 173.649 Q2214.81 173.649 2212.75 172.538 Q2210.71 171.403 2209.37 169.089 L2209.37 172.978 L2205.08 172.978 L2205.08 136.959 L2209.37 136.959 L2209.37 150.987 Z" fill="#000000" fill-rule="evenodd" fill-opacity="1" /><polyline clip-path="url(#clip870)" style="stroke:#e26f46; stroke-width:4; stroke-opacity:1; fill:none" points="
  2030.82,216.178 2180.19,216.178 
  "/>
<path clip-path="url(#clip870)" d="M 0 0 M2225.59 208.527 L2225.59 212.509 Q2223.79 211.513 2221.96 211.027 Q2220.15 210.518 2218.3 210.518 Q2214.16 210.518 2211.87 213.157 Q2209.58 215.772 2209.58 220.518 Q2209.58 225.263 2211.87 227.902 Q2214.16 230.518 2218.3 230.518 Q2220.15 230.518 2221.96 230.032 Q2223.79 229.522 2225.59 228.527 L2225.59 232.462 Q2223.81 233.296 2221.89 233.712 Q2219.99 234.129 2217.84 234.129 Q2211.98 234.129 2208.53 230.448 Q2205.08 226.768 2205.08 220.518 Q2205.08 214.175 2208.56 210.541 Q2212.05 206.907 2218.12 206.907 Q2220.08 206.907 2221.96 207.323 Q2223.83 207.717 2225.59 208.527 Z" fill="#000000" fill-rule="evenodd" fill-opacity="1" /></svg>
