<?xml version="1.0" encoding="utf-8"?>
<svg xmlns="http://www.w3.org/2000/svg" xmlns:xlink="http://www.w3.org/1999/xlink" width="600" height="400" viewBox="0 0 2400 1600">
<defs>
  <clipPath id="clip950">
    <rect x="0" y="0" width="2400" height="1600"/>
  </clipPath>
</defs>
<path clip-path="url(#clip950)" d="
M0 1600 L2400 1600 L2400 0 L0 0  Z
  " fill="#ffffff" fill-rule="evenodd" fill-opacity="1"/>
<defs>
  <clipPath id="clip951">
    <rect x="480" y="0" width="1681" height="1600"/>
  </clipPath>
</defs>
<path clip-path="url(#clip950)" d="
M171.552 1486.45 L2352.76 1486.45 L2352.76 47.2441 L171.552 47.2441  Z
  " fill="#ffffff" fill-rule="evenodd" fill-opacity="1"/>
<defs>
  <clipPath id="clip952">
    <rect x="171" y="47" width="2182" height="1440"/>
  </clipPath>
</defs>
<polyline clip-path="url(#clip952)" style="stroke:#000000; stroke-width:2; stroke-opacity:0.1; fill:none" points="
  461.922,1486.45 461.922,47.2441 
  "/>
<polyline clip-path="url(#clip952)" style="stroke:#000000; stroke-width:2; stroke-opacity:0.1; fill:none" points="
  919.197,1486.45 919.197,47.2441 
  "/>
<polyline clip-path="url(#clip952)" style="stroke:#000000; stroke-width:2; stroke-opacity:0.1; fill:none" points="
  1376.47,1486.45 1376.47,47.2441 
  "/>
<polyline clip-path="url(#clip952)" style="stroke:#000000; stroke-width:2; stroke-opacity:0.1; fill:none" points="
  1833.75,1486.45 1833.75,47.2441 
  "/>
<polyline clip-path="url(#clip952)" style="stroke:#000000; stroke-width:2; stroke-opacity:0.1; fill:none" points="
  2291.02,1486.45 2291.02,47.2441 
  "/>
<polyline clip-path="url(#clip950)" style="stroke:#000000; stroke-width:4; stroke-opacity:1; fill:none" points="
  171.552,1486.45 2352.76,1486.45 
  "/>
<polyline clip-path="url(#clip950)" style="stroke:#000000; stroke-width:4; stroke-opacity:1; fill:none" points="
  461.922,1486.45 461.922,1469.18 
  "/>
<polyline clip-path="url(#clip950)" style="stroke:#000000; stroke-width:4; stroke-opacity:1; fill:none" points="
  919.197,1486.45 919.197,1469.18 
  "/>
<polyline clip-path="url(#clip950)" style="stroke:#000000; stroke-width:4; stroke-opacity:1; fill:none" points="
  1376.47,1486.45 1376.47,1469.18 
  "/>
<polyline clip-path="url(#clip950)" style="stroke:#000000; stroke-width:4; stroke-opacity:1; fill:none" points="
  1833.75,1486.45 1833.75,1469.18 
  "/>
<polyline clip-path="url(#clip950)" style="stroke:#000000; stroke-width:4; stroke-opacity:1; fill:none" points="
  2291.02,1486.45 2291.02,1469.18 
  "/>
<path clip-path="url(#clip950)" d="M 0 0 M456.575 1543.18 L472.894 1543.18 L472.894 1547.12 L450.95 1547.12 L450.95 1543.18 Q453.612 1540.43 458.195 1535.8 Q462.801 1531.15 463.982 1529.81 Q466.227 1527.28 467.107 1525.55 Q468.01 1523.79 468.01 1522.1 Q468.01 1519.34 466.065 1517.61 Q464.144 1515.87 461.042 1515.87 Q458.843 1515.87 456.389 1516.63 Q453.959 1517.4 451.181 1518.95 L451.181 1514.23 Q454.005 1513.09 456.459 1512.51 Q458.913 1511.93 460.95 1511.93 Q466.32 1511.93 469.514 1514.62 Q472.709 1517.31 472.709 1521.8 Q472.709 1523.93 471.899 1525.85 Q471.112 1527.74 469.005 1530.34 Q468.426 1531.01 465.325 1534.23 Q462.223 1537.42 456.575 1543.18 Z" fill="#000000" fill-rule="evenodd" fill-opacity="1" /><path clip-path="url(#clip950)" d="M 0 0 M922.207 1516.63 L910.401 1535.08 L922.207 1535.08 L922.207 1516.63 M920.98 1512.56 L926.859 1512.56 L926.859 1535.08 L931.79 1535.08 L931.79 1538.97 L926.859 1538.97 L926.859 1547.12 L922.207 1547.12 L922.207 1538.97 L906.605 1538.97 L906.605 1534.46 L920.98 1512.56 Z" fill="#000000" fill-rule="evenodd" fill-opacity="1" /><path clip-path="url(#clip950)" d="M 0 0 M1376.88 1527.98 Q1373.73 1527.98 1371.88 1530.13 Q1370.05 1532.28 1370.05 1536.03 Q1370.05 1539.76 1371.88 1541.93 Q1373.73 1544.09 1376.88 1544.09 Q1380.03 1544.09 1381.85 1541.93 Q1383.71 1539.76 1383.71 1536.03 Q1383.71 1532.28 1381.85 1530.13 Q1380.03 1527.98 1376.88 1527.98 M1386.16 1513.32 L1386.16 1517.58 Q1384.4 1516.75 1382.6 1516.31 Q1380.81 1515.87 1379.05 1515.87 Q1374.42 1515.87 1371.97 1519 Q1369.54 1522.12 1369.19 1528.44 Q1370.56 1526.43 1372.62 1525.36 Q1374.68 1524.27 1377.16 1524.27 Q1382.36 1524.27 1385.37 1527.44 Q1388.41 1530.59 1388.41 1536.03 Q1388.41 1541.36 1385.26 1544.57 Q1382.11 1547.79 1376.88 1547.79 Q1370.88 1547.79 1367.71 1543.21 Q1364.54 1538.6 1364.54 1529.87 Q1364.54 1521.68 1368.43 1516.82 Q1372.32 1511.93 1378.87 1511.93 Q1380.63 1511.93 1382.41 1512.28 Q1384.22 1512.63 1386.16 1513.32 Z" fill="#000000" fill-rule="evenodd" fill-opacity="1" /><path clip-path="url(#clip950)" d="M 0 0 M1833.75 1530.71 Q1830.41 1530.71 1828.49 1532.49 Q1826.6 1534.27 1826.6 1537.4 Q1826.6 1540.52 1828.49 1542.31 Q1830.41 1544.09 1833.75 1544.09 Q1837.08 1544.09 1839 1542.31 Q1840.92 1540.5 1840.92 1537.4 Q1840.92 1534.27 1839 1532.49 Q1837.1 1530.71 1833.75 1530.71 M1829.07 1528.72 Q1826.06 1527.98 1824.37 1525.92 Q1822.71 1523.86 1822.71 1520.89 Q1822.71 1516.75 1825.65 1514.34 Q1828.61 1511.93 1833.75 1511.93 Q1838.91 1511.93 1841.85 1514.34 Q1844.79 1516.75 1844.79 1520.89 Q1844.79 1523.86 1843.1 1525.92 Q1841.43 1527.98 1838.45 1528.72 Q1841.83 1529.5 1843.7 1531.8 Q1845.6 1534.09 1845.6 1537.4 Q1845.6 1542.42 1842.52 1545.11 Q1839.47 1547.79 1833.75 1547.79 Q1828.03 1547.79 1824.95 1545.11 Q1821.9 1542.42 1821.9 1537.4 Q1821.9 1534.09 1823.79 1531.8 Q1825.69 1529.5 1829.07 1528.72 M1827.36 1521.33 Q1827.36 1524.02 1829.03 1525.52 Q1830.72 1527.03 1833.75 1527.03 Q1836.76 1527.03 1838.45 1525.52 Q1840.16 1524.02 1840.16 1521.33 Q1840.16 1518.65 1838.45 1517.14 Q1836.76 1515.64 1833.75 1515.64 Q1830.72 1515.64 1829.03 1517.14 Q1827.36 1518.65 1827.36 1521.33 Z" fill="#000000" fill-rule="evenodd" fill-opacity="1" /><path clip-path="url(#clip950)" d="M 0 0 M2267.9 1543.18 L2275.54 1543.18 L2275.54 1516.82 L2267.23 1518.49 L2267.23 1514.23 L2275.49 1512.56 L2280.17 1512.56 L2280.17 1543.18 L2287.81 1543.18 L2287.81 1547.12 L2267.9 1547.12 L2267.9 1543.18 Z" fill="#000000" fill-rule="evenodd" fill-opacity="1" /><path clip-path="url(#clip950)" d="M 0 0 M2302.88 1515.64 Q2299.26 1515.64 2297.44 1519.2 Q2295.63 1522.75 2295.63 1529.87 Q2295.63 1536.98 2297.44 1540.55 Q2299.26 1544.09 2302.88 1544.09 Q2306.51 1544.09 2308.32 1540.55 Q2310.14 1536.98 2310.14 1529.87 Q2310.14 1522.75 2308.32 1519.2 Q2306.51 1515.64 2302.88 1515.64 M2302.88 1511.93 Q2308.69 1511.93 2311.74 1516.54 Q2314.82 1521.12 2314.82 1529.87 Q2314.82 1538.6 2311.74 1543.21 Q2308.69 1547.79 2302.88 1547.79 Q2297.07 1547.79 2293.99 1543.21 Q2290.93 1538.6 2290.93 1529.87 Q2290.93 1521.12 2293.99 1516.54 Q2297.07 1511.93 2302.88 1511.93 Z" fill="#000000" fill-rule="evenodd" fill-opacity="1" /><polyline clip-path="url(#clip952)" style="stroke:#000000; stroke-width:2; stroke-opacity:0.1; fill:none" points="
  171.552,1462.12 2352.76,1462.12 
  "/>
<polyline clip-path="url(#clip952)" style="stroke:#000000; stroke-width:2; stroke-opacity:0.1; fill:none" points="
  171.552,1114.13 2352.76,1114.13 
  "/>
<polyline clip-path="url(#clip952)" style="stroke:#000000; stroke-width:2; stroke-opacity:0.1; fill:none" points="
  171.552,766.14 2352.76,766.14 
  "/>
<polyline clip-path="url(#clip952)" style="stroke:#000000; stroke-width:2; stroke-opacity:0.1; fill:none" points="
  171.552,418.152 2352.76,418.152 
  "/>
<polyline clip-path="url(#clip952)" style="stroke:#000000; stroke-width:2; stroke-opacity:0.1; fill:none" points="
  171.552,70.1647 2352.76,70.1647 
  "/>
<polyline clip-path="url(#clip950)" style="stroke:#000000; stroke-width:4; stroke-opacity:1; fill:none" points="
  171.552,1486.45 171.552,47.2441 
  "/>
<polyline clip-path="url(#clip950)" style="stroke:#000000; stroke-width:4; stroke-opacity:1; fill:none" points="
  171.552,1462.12 197.726,1462.12 
  "/>
<polyline clip-path="url(#clip950)" style="stroke:#000000; stroke-width:4; stroke-opacity:1; fill:none" points="
  171.552,1114.13 197.726,1114.13 
  "/>
<polyline clip-path="url(#clip950)" style="stroke:#000000; stroke-width:4; stroke-opacity:1; fill:none" points="
  171.552,766.14 197.726,766.14 
  "/>
<polyline clip-path="url(#clip950)" style="stroke:#000000; stroke-width:4; stroke-opacity:1; fill:none" points="
  171.552,418.152 197.726,418.152 
  "/>
<polyline clip-path="url(#clip950)" style="stroke:#000000; stroke-width:4; stroke-opacity:1; fill:none" points="
  171.552,70.1647 197.726,70.1647 
  "/>
<path clip-path="url(#clip950)" d="M 0 0 M86.6401 1447.91 Q83.029 1447.91 81.2003 1451.48 Q79.3948 1455.02 79.3948 1462.15 Q79.3948 1469.26 81.2003 1472.82 Q83.029 1476.36 86.6401 1476.36 Q90.2743 1476.36 92.0799 1472.82 Q93.9086 1469.26 93.9086 1462.15 Q93.9086 1455.02 92.0799 1451.48 Q90.2743 1447.91 86.6401 1447.91 M86.6401 1444.21 Q92.4502 1444.21 95.5058 1448.82 Q98.5845 1453.4 98.5845 1462.15 Q98.5845 1470.88 95.5058 1475.48 Q92.4502 1480.07 86.6401 1480.07 Q80.8299 1480.07 77.7512 1475.48 Q74.6957 1470.88 74.6957 1462.15 Q74.6957 1453.4 77.7512 1448.82 Q80.8299 1444.21 86.6401 1444.21 Z" fill="#000000" fill-rule="evenodd" fill-opacity="1" /><path clip-path="url(#clip950)" d="M 0 0 M103.654 1473.52 L108.538 1473.52 L108.538 1479.4 L103.654 1479.4 L103.654 1473.52 Z" fill="#000000" fill-rule="evenodd" fill-opacity="1" /><path clip-path="url(#clip950)" d="M 0 0 M123.607 1447.91 Q119.996 1447.91 118.168 1451.48 Q116.362 1455.02 116.362 1462.15 Q116.362 1469.26 118.168 1472.82 Q119.996 1476.36 123.607 1476.36 Q127.242 1476.36 129.047 1472.82 Q130.876 1469.26 130.876 1462.15 Q130.876 1455.02 129.047 1451.48 Q127.242 1447.91 123.607 1447.91 M123.607 1444.21 Q129.418 1444.21 132.473 1448.82 Q135.552 1453.4 135.552 1462.15 Q135.552 1470.88 132.473 1475.48 Q129.418 1480.07 123.607 1480.07 Q117.797 1480.07 114.719 1475.48 Q111.663 1470.88 111.663 1462.15 Q111.663 1453.4 114.719 1448.82 Q117.797 1444.21 123.607 1444.21 Z" fill="#000000" fill-rule="evenodd" fill-opacity="1" /><path clip-path="url(#clip950)" d="M 0 0 M83.2605 1127.47 L99.5798 1127.47 L99.5798 1131.41 L77.6355 1131.41 L77.6355 1127.47 Q80.2975 1124.72 84.8808 1120.09 Q89.4873 1115.44 90.6678 1114.09 Q92.9132 1111.57 93.7928 1109.83 Q94.6956 1108.07 94.6956 1106.39 Q94.6956 1103.63 92.7512 1101.89 Q90.8299 1100.16 87.728 1100.16 Q85.529 1100.16 83.0753 1100.92 Q80.6447 1101.69 77.867 1103.24 L77.867 1098.51 Q80.691 1097.38 83.1447 1096.8 Q85.5984 1096.22 87.6354 1096.22 Q93.0058 1096.22 96.2002 1098.91 Q99.3946 1101.59 99.3946 1106.08 Q99.3946 1108.21 98.5845 1110.14 Q97.7974 1112.03 95.691 1114.63 Q95.1123 1115.3 92.0104 1118.51 Q88.9086 1121.71 83.2605 1127.47 Z" fill="#000000" fill-rule="evenodd" fill-opacity="1" /><path clip-path="url(#clip950)" d="M 0 0 M104.649 1125.53 L109.533 1125.53 L109.533 1131.41 L104.649 1131.41 L104.649 1125.53 Z" fill="#000000" fill-rule="evenodd" fill-opacity="1" /><path clip-path="url(#clip950)" d="M 0 0 M114.649 1096.85 L133.006 1096.85 L133.006 1100.78 L118.932 1100.78 L118.932 1109.26 Q119.95 1108.91 120.969 1108.75 Q121.987 1108.56 123.006 1108.56 Q128.793 1108.56 132.172 1111.73 Q135.552 1114.9 135.552 1120.32 Q135.552 1125.9 132.08 1129 Q128.607 1132.08 122.288 1132.08 Q120.112 1132.08 117.844 1131.71 Q115.598 1131.34 113.191 1130.6 L113.191 1125.9 Q115.274 1127.03 117.496 1127.59 Q119.719 1128.14 122.195 1128.14 Q126.2 1128.14 128.538 1126.04 Q130.876 1123.93 130.876 1120.32 Q130.876 1116.71 128.538 1114.6 Q126.2 1112.5 122.195 1112.5 Q120.32 1112.5 118.445 1112.91 Q116.594 1113.33 114.649 1114.21 L114.649 1096.85 Z" fill="#000000" fill-rule="evenodd" fill-opacity="1" /><path clip-path="url(#clip950)" d="M 0 0 M77.6818 748.86 L96.0382 748.86 L96.0382 752.795 L81.9642 752.795 L81.9642 761.268 Q82.9827 760.92 84.0012 760.758 Q85.0197 760.573 86.0382 760.573 Q91.8252 760.573 95.2049 763.744 Q98.5845 766.916 98.5845 772.332 Q98.5845 777.911 95.1123 781.013 Q91.6401 784.092 85.3206 784.092 Q83.1447 784.092 80.8762 783.721 Q78.6309 783.351 76.2235 782.61 L76.2235 777.911 Q78.3068 779.045 80.529 779.601 Q82.7512 780.156 85.2281 780.156 Q89.2327 780.156 91.5706 778.05 Q93.9086 775.943 93.9086 772.332 Q93.9086 768.721 91.5706 766.615 Q89.2327 764.508 85.2281 764.508 Q83.3531 764.508 81.4781 764.925 Q79.6262 765.342 77.6818 766.221 L77.6818 748.86 Z" fill="#000000" fill-rule="evenodd" fill-opacity="1" /><path clip-path="url(#clip950)" d="M 0 0 M103.654 777.541 L108.538 777.541 L108.538 783.42 L103.654 783.42 L103.654 777.541 Z" fill="#000000" fill-rule="evenodd" fill-opacity="1" /><path clip-path="url(#clip950)" d="M 0 0 M123.607 751.939 Q119.996 751.939 118.168 755.504 Q116.362 759.045 116.362 766.175 Q116.362 773.281 118.168 776.846 Q119.996 780.388 123.607 780.388 Q127.242 780.388 129.047 776.846 Q130.876 773.281 130.876 766.175 Q130.876 759.045 129.047 755.504 Q127.242 751.939 123.607 751.939 M123.607 748.235 Q129.418 748.235 132.473 752.842 Q135.552 757.425 135.552 766.175 Q135.552 774.902 132.473 779.508 Q129.418 784.092 123.607 784.092 Q117.797 784.092 114.719 779.508 Q111.663 774.902 111.663 766.175 Q111.663 757.425 114.719 752.842 Q117.797 748.235 123.607 748.235 Z" fill="#000000" fill-rule="evenodd" fill-opacity="1" /><path clip-path="url(#clip950)" d="M 0 0 M77.3577 400.872 L99.5798 400.872 L99.5798 402.863 L87.0336 435.432 L82.1494 435.432 L93.9549 404.808 L77.3577 404.808 L77.3577 400.872 Z" fill="#000000" fill-rule="evenodd" fill-opacity="1" /><path clip-path="url(#clip950)" d="M 0 0 M104.649 429.553 L109.533 429.553 L109.533 435.432 L104.649 435.432 L104.649 429.553 Z" fill="#000000" fill-rule="evenodd" fill-opacity="1" /><path clip-path="url(#clip950)" d="M 0 0 M114.649 400.872 L133.006 400.872 L133.006 404.808 L118.932 404.808 L118.932 413.28 Q119.95 412.933 120.969 412.771 Q121.987 412.585 123.006 412.585 Q128.793 412.585 132.172 415.757 Q135.552 418.928 135.552 424.345 Q135.552 429.923 132.08 433.025 Q128.607 436.104 122.288 436.104 Q120.112 436.104 117.844 435.733 Q115.598 435.363 113.191 434.622 L113.191 429.923 Q115.274 431.057 117.496 431.613 Q119.719 432.169 122.195 432.169 Q126.2 432.169 128.538 430.062 Q130.876 427.956 130.876 424.345 Q130.876 420.733 128.538 418.627 Q126.2 416.521 122.195 416.521 Q120.32 416.521 118.445 416.937 Q116.594 417.354 114.649 418.233 L114.649 400.872 Z" fill="#000000" fill-rule="evenodd" fill-opacity="1" /><path clip-path="url(#clip950)" d="M 0 0 M51.6634 83.5095 L59.3023 83.5095 L59.3023 57.1439 L50.9921 58.8106 L50.9921 54.5513 L59.256 52.8847 L63.9319 52.8847 L63.9319 83.5095 L71.5707 83.5095 L71.5707 87.4447 L51.6634 87.4447 L51.6634 83.5095 Z" fill="#000000" fill-rule="evenodd" fill-opacity="1" /><path clip-path="url(#clip950)" d="M 0 0 M86.6401 55.9634 Q83.029 55.9634 81.2003 59.5282 Q79.3948 63.0698 79.3948 70.1994 Q79.3948 77.3058 81.2003 80.8706 Q83.029 84.4123 86.6401 84.4123 Q90.2743 84.4123 92.0799 80.8706 Q93.9086 77.3058 93.9086 70.1994 Q93.9086 63.0698 92.0799 59.5282 Q90.2743 55.9634 86.6401 55.9634 M86.6401 52.2597 Q92.4502 52.2597 95.5058 56.8661 Q98.5845 61.4494 98.5845 70.1994 Q98.5845 78.9262 95.5058 83.5327 Q92.4502 88.116 86.6401 88.116 Q80.8299 88.116 77.7512 83.5327 Q74.6957 78.9262 74.6957 70.1994 Q74.6957 61.4494 77.7512 56.8661 Q80.8299 52.2597 86.6401 52.2597 Z" fill="#000000" fill-rule="evenodd" fill-opacity="1" /><path clip-path="url(#clip950)" d="M 0 0 M103.654 81.5651 L108.538 81.5651 L108.538 87.4447 L103.654 87.4447 L103.654 81.5651 Z" fill="#000000" fill-rule="evenodd" fill-opacity="1" /><path clip-path="url(#clip950)" d="M 0 0 M123.607 55.9634 Q119.996 55.9634 118.168 59.5282 Q116.362 63.0698 116.362 70.1994 Q116.362 77.3058 118.168 80.8706 Q119.996 84.4123 123.607 84.4123 Q127.242 84.4123 129.047 80.8706 Q130.876 77.3058 130.876 70.1994 Q130.876 63.0698 129.047 59.5282 Q127.242 55.9634 123.607 55.9634 M123.607 52.2597 Q129.418 52.2597 132.473 56.8661 Q135.552 61.4494 135.552 70.1994 Q135.552 78.9262 132.473 83.5327 Q129.418 88.116 123.607 88.116 Q117.797 88.116 114.719 83.5327 Q111.663 78.9262 111.663 70.1994 Q111.663 61.4494 114.719 56.8661 Q117.797 52.2597 123.607 52.2597 Z" fill="#000000" fill-rule="evenodd" fill-opacity="1" /><polyline clip-path="url(#clip952)" style="stroke:#009af9; stroke-width:4; stroke-opacity:1; fill:none" points="
  233.284,331.099 461.922,1320.12 690.56,1327.41 919.197,249.4 1147.84,551.943 1376.47,303.113 1605.11,780.768 1833.75,87.9763 2062.39,296.796 2291.02,1092.94 
  
  "/>
<polyline clip-path="url(#clip952)" style="stroke:#e26f46; stroke-width:4; stroke-opacity:1; fill:none" points="
  233.284,168.91 461.922,1257.75 690.56,423.706 919.197,544.507 1147.84,1021.92 1376.47,306.485 1605.11,1413.55 1833.75,1179.05 2062.39,1445.72 2291.02,561.928 
  
  "/>
<path clip-path="url(#clip950)" d="
M2014.5 276.658 L2280.05 276.658 L2280.05 95.2176 L2014.5 95.2176  Z
  " fill="#ffffff" fill-rule="evenodd" fill-opacity="1"/>
<polyline clip-path="url(#clip950)" style="stroke:#000000; stroke-width:4; stroke-opacity:1; fill:none" points="
  2014.5,276.658 2280.05,276.658 2280.05,95.2176 2014.5,95.2176 2014.5,276.658 
  "/>
<polyline clip-path="url(#clip950)" style="stroke:#009af9; stroke-width:4; stroke-opacity:1; fill:none" points="
  2038.73,155.698 2184.15,155.698 
  "/>
<path clip-path="url(#clip950)" d="M 0 0 M2227.16 160.038 Q2227.16 155.339 2225.21 152.677 Q2223.29 149.992 2219.91 149.992 Q2216.53 149.992 2214.59 152.677 Q2212.67 155.339 2212.67 160.038 Q2212.67 164.737 2214.59 167.422 Q2216.53 170.084 2219.91 170.084 Q2223.29 170.084 2225.21 167.422 Q2227.16 164.737 2227.16 160.038 M2212.67 150.987 Q2214.01 148.672 2216.05 147.561 Q2218.11 146.427 2220.95 146.427 Q2225.68 146.427 2228.61 150.177 Q2231.58 153.927 2231.58 160.038 Q2231.58 166.149 2228.61 169.899 Q2225.68 173.649 2220.95 173.649 Q2218.11 173.649 2216.05 172.538 Q2214.01 171.403 2212.67 169.089 L2212.67 172.978 L2208.38 172.978 L2208.38 136.959 L2212.67 136.959 L2212.67 150.987 Z" fill="#000000" fill-rule="evenodd" fill-opacity="1" /><polyline clip-path="url(#clip950)" style="stroke:#e26f46; stroke-width:4; stroke-opacity:1; fill:none" points="
  2038.73,216.178 2184.15,216.178 
  "/>
<path clip-path="url(#clip950)" d="M 0 0 M2228.89 208.527 L2228.89 212.509 Q2227.09 211.513 2225.26 211.027 Q2223.45 210.518 2221.6 210.518 Q2217.46 210.518 2215.17 213.157 Q2212.87 215.772 2212.87 220.518 Q2212.87 225.263 2215.17 227.902 Q2217.46 230.518 2221.6 230.518 Q2223.45 230.518 2225.26 230.032 Q2227.09 229.522 2228.89 228.527 L2228.89 232.462 Q2227.11 233.296 2225.19 233.712 Q2223.29 234.129 2221.14 234.129 Q2215.28 234.129 2211.83 230.448 Q2208.38 226.768 2208.38 220.518 Q2208.38 214.175 2211.86 210.541 Q2215.35 206.907 2221.42 206.907 Q2223.38 206.907 2225.26 207.323 Q2227.13 207.717 2228.89 208.527 Z" fill="#000000" fill-rule="evenodd" fill-opacity="1" /></svg>
