<?xml version="1.0" encoding="utf-8"?>
<svg xmlns="http://www.w3.org/2000/svg" xmlns:xlink="http://www.w3.org/1999/xlink" width="600" height="400" viewBox="0 0 2400 1600">
<defs>
  <clipPath id="clip210">
    <rect x="0" y="0" width="2400" height="1600"/>
  </clipPath>
</defs>
<path clip-path="url(#clip210)" d="
M0 1600 L2400 1600 L2400 0 L0 0  Z
  " fill="#ffffff" fill-rule="evenodd" fill-opacity="1"/>
<defs>
  <clipPath id="clip211">
    <rect x="480" y="0" width="1681" height="1600"/>
  </clipPath>
</defs>
<path clip-path="url(#clip210)" d="
M186.393 1482.13 L2352.76 1482.13 L2352.76 149.392 L186.393 149.392  Z
  " fill="#ffffff" fill-rule="evenodd" fill-opacity="1"/>
<defs>
  <clipPath id="clip212">
    <rect x="186" y="149" width="2167" height="1334"/>
  </clipPath>
</defs>
<polyline clip-path="url(#clip212)" style="stroke:#000000; stroke-width:2; stroke-opacity:0.1; fill:none" points="
  443.265,1482.13 443.265,149.392 
  "/>
<polyline clip-path="url(#clip212)" style="stroke:#000000; stroke-width:2; stroke-opacity:0.1; fill:none" points="
  535.077,1482.13 535.077,149.392 
  "/>
<polyline clip-path="url(#clip212)" style="stroke:#000000; stroke-width:2; stroke-opacity:0.1; fill:none" points="
  626.889,1482.13 626.889,149.392 
  "/>
<polyline clip-path="url(#clip212)" style="stroke:#000000; stroke-width:2; stroke-opacity:0.1; fill:none" points="
  718.701,1482.13 718.701,149.392 
  "/>
<polyline clip-path="url(#clip212)" style="stroke:#000000; stroke-width:2; stroke-opacity:0.1; fill:none" points="
  810.513,1482.13 810.513,149.392 
  "/>
<polyline clip-path="url(#clip212)" style="stroke:#000000; stroke-width:2; stroke-opacity:0.1; fill:none" points="
  902.326,1482.13 902.326,149.392 
  "/>
<polyline clip-path="url(#clip212)" style="stroke:#000000; stroke-width:2; stroke-opacity:0.1; fill:none" points="
  994.138,1482.13 994.138,149.392 
  "/>
<polyline clip-path="url(#clip212)" style="stroke:#000000; stroke-width:2; stroke-opacity:0.1; fill:none" points="
  1085.95,1482.13 1085.95,149.392 
  "/>
<polyline clip-path="url(#clip212)" style="stroke:#000000; stroke-width:2; stroke-opacity:0.1; fill:none" points="
  1177.76,1482.13 1177.76,149.392 
  "/>
<polyline clip-path="url(#clip212)" style="stroke:#000000; stroke-width:2; stroke-opacity:0.1; fill:none" points="
  1269.57,1482.13 1269.57,149.392 
  "/>
<polyline clip-path="url(#clip212)" style="stroke:#000000; stroke-width:2; stroke-opacity:0.1; fill:none" points="
  1361.39,1482.13 1361.39,149.392 
  "/>
<polyline clip-path="url(#clip212)" style="stroke:#000000; stroke-width:2; stroke-opacity:0.1; fill:none" points="
  1453.2,1482.13 1453.2,149.392 
  "/>
<polyline clip-path="url(#clip212)" style="stroke:#000000; stroke-width:2; stroke-opacity:0.1; fill:none" points="
  1545.01,1482.13 1545.01,149.392 
  "/>
<polyline clip-path="url(#clip212)" style="stroke:#000000; stroke-width:2; stroke-opacity:0.1; fill:none" points="
  1636.82,1482.13 1636.82,149.392 
  "/>
<polyline clip-path="url(#clip212)" style="stroke:#000000; stroke-width:2; stroke-opacity:0.1; fill:none" points="
  1728.64,1482.13 1728.64,149.392 
  "/>
<polyline clip-path="url(#clip212)" style="stroke:#000000; stroke-width:2; stroke-opacity:0.1; fill:none" points="
  1820.45,1482.13 1820.45,149.392 
  "/>
<polyline clip-path="url(#clip212)" style="stroke:#000000; stroke-width:2; stroke-opacity:0.1; fill:none" points="
  1912.26,1482.13 1912.26,149.392 
  "/>
<polyline clip-path="url(#clip212)" style="stroke:#000000; stroke-width:2; stroke-opacity:0.1; fill:none" points="
  2004.07,1482.13 2004.07,149.392 
  "/>
<polyline clip-path="url(#clip212)" style="stroke:#000000; stroke-width:2; stroke-opacity:0.1; fill:none" points="
  2095.88,1482.13 2095.88,149.392 
  "/>
<polyline clip-path="url(#clip212)" style="stroke:#000000; stroke-width:2; stroke-opacity:0.1; fill:none" points="
  2187.7,1482.13 2187.7,149.392 
  "/>
<polyline clip-path="url(#clip212)" style="stroke:#000000; stroke-width:2; stroke-opacity:0.1; fill:none" points="
  2279.51,1482.13 2279.51,149.392 
  "/>
<polyline clip-path="url(#clip210)" style="stroke:#000000; stroke-width:4; stroke-opacity:1; fill:none" points="
  186.393,1482.13 2352.76,1482.13 
  "/>
<polyline clip-path="url(#clip210)" style="stroke:#000000; stroke-width:4; stroke-opacity:1; fill:none" points="
  443.265,1482.13 443.265,1466.14 
  "/>
<polyline clip-path="url(#clip210)" style="stroke:#000000; stroke-width:4; stroke-opacity:1; fill:none" points="
  535.077,1482.13 535.077,1466.14 
  "/>
<polyline clip-path="url(#clip210)" style="stroke:#000000; stroke-width:4; stroke-opacity:1; fill:none" points="
  626.889,1482.13 626.889,1466.14 
  "/>
<polyline clip-path="url(#clip210)" style="stroke:#000000; stroke-width:4; stroke-opacity:1; fill:none" points="
  718.701,1482.13 718.701,1466.14 
  "/>
<polyline clip-path="url(#clip210)" style="stroke:#000000; stroke-width:4; stroke-opacity:1; fill:none" points="
  810.513,1482.13 810.513,1466.14 
  "/>
<polyline clip-path="url(#clip210)" style="stroke:#000000; stroke-width:4; stroke-opacity:1; fill:none" points="
  902.326,1482.13 902.326,1466.14 
  "/>
<polyline clip-path="url(#clip210)" style="stroke:#000000; stroke-width:4; stroke-opacity:1; fill:none" points="
  994.138,1482.13 994.138,1466.14 
  "/>
<polyline clip-path="url(#clip210)" style="stroke:#000000; stroke-width:4; stroke-opacity:1; fill:none" points="
  1085.95,1482.13 1085.95,1466.14 
  "/>
<polyline clip-path="url(#clip210)" style="stroke:#000000; stroke-width:4; stroke-opacity:1; fill:none" points="
  1177.76,1482.13 1177.76,1466.14 
  "/>
<polyline clip-path="url(#clip210)" style="stroke:#000000; stroke-width:4; stroke-opacity:1; fill:none" points="
  1269.57,1482.13 1269.57,1466.14 
  "/>
<polyline clip-path="url(#clip210)" style="stroke:#000000; stroke-width:4; stroke-opacity:1; fill:none" points="
  1361.39,1482.13 1361.39,1466.14 
  "/>
<polyline clip-path="url(#clip210)" style="stroke:#000000; stroke-width:4; stroke-opacity:1; fill:none" points="
  1453.2,1482.13 1453.2,1466.14 
  "/>
<polyline clip-path="url(#clip210)" style="stroke:#000000; stroke-width:4; stroke-opacity:1; fill:none" points="
  1545.01,1482.13 1545.01,1466.14 
  "/>
<polyline clip-path="url(#clip210)" style="stroke:#000000; stroke-width:4; stroke-opacity:1; fill:none" points="
  1636.82,1482.13 1636.82,1466.14 
  "/>
<polyline clip-path="url(#clip210)" style="stroke:#000000; stroke-width:4; stroke-opacity:1; fill:none" points="
  1728.64,1482.13 1728.64,1466.14 
  "/>
<polyline clip-path="url(#clip210)" style="stroke:#000000; stroke-width:4; stroke-opacity:1; fill:none" points="
  1820.45,1482.13 1820.45,1466.14 
  "/>
<polyline clip-path="url(#clip210)" style="stroke:#000000; stroke-width:4; stroke-opacity:1; fill:none" points="
  1912.26,1482.13 1912.26,1466.14 
  "/>
<polyline clip-path="url(#clip210)" style="stroke:#000000; stroke-width:4; stroke-opacity:1; fill:none" points="
  2004.07,1482.13 2004.07,1466.14 
  "/>
<polyline clip-path="url(#clip210)" style="stroke:#000000; stroke-width:4; stroke-opacity:1; fill:none" points="
  2095.88,1482.13 2095.88,1466.14 
  "/>
<polyline clip-path="url(#clip210)" style="stroke:#000000; stroke-width:4; stroke-opacity:1; fill:none" points="
  2187.7,1482.13 2187.7,1466.14 
  "/>
<polyline clip-path="url(#clip210)" style="stroke:#000000; stroke-width:4; stroke-opacity:1; fill:none" points="
  2279.51,1482.13 2279.51,1466.14 
  "/>
<path clip-path="url(#clip210)" d="M 0 0 M432.444 1543.56 L441.038 1543.56 L441.038 1513.9 L431.689 1515.77 L431.689 1510.98 L440.986 1509.1 L446.246 1509.1 L446.246 1543.56 L454.84 1543.56 L454.84 1547.98 L432.444 1547.98 L432.444 1543.56 Z" fill="#bebebe" fill-rule="evenodd" fill-opacity="1" /><path clip-path="url(#clip210)" d="M 0 0 M529.061 1543.56 L547.421 1543.56 L547.421 1547.98 L522.733 1547.98 L522.733 1543.56 Q525.728 1540.46 530.884 1535.25 Q536.066 1530.02 537.395 1528.5 Q539.921 1525.67 540.91 1523.71 Q541.926 1521.73 541.926 1519.83 Q541.926 1516.73 539.738 1514.78 Q537.577 1512.83 534.087 1512.83 Q531.613 1512.83 528.853 1513.69 Q526.119 1514.55 522.994 1516.29 L522.994 1510.98 Q526.171 1509.7 528.931 1509.05 Q531.692 1508.4 533.983 1508.4 Q540.025 1508.4 543.619 1511.42 Q547.212 1514.44 547.212 1519.49 Q547.212 1521.89 546.301 1524.05 Q545.415 1526.19 543.046 1529.1 Q542.395 1529.86 538.905 1533.48 Q535.415 1537.07 529.061 1543.56 Z" fill="#bebebe" fill-rule="evenodd" fill-opacity="1" /><path clip-path="url(#clip210)" d="M 0 0 M631.668 1527.02 Q635.444 1527.83 637.553 1530.38 Q639.688 1532.93 639.688 1536.68 Q639.688 1542.44 635.73 1545.59 Q631.772 1548.74 624.48 1548.74 Q622.032 1548.74 619.428 1548.24 Q616.85 1547.78 614.09 1546.81 L614.09 1541.73 Q616.277 1543.01 618.881 1543.66 Q621.485 1544.31 624.324 1544.31 Q629.272 1544.31 631.85 1542.36 Q634.454 1540.41 634.454 1536.68 Q634.454 1533.24 632.032 1531.32 Q629.636 1529.36 625.34 1529.36 L620.808 1529.36 L620.808 1525.04 L625.548 1525.04 Q629.428 1525.04 631.485 1523.5 Q633.543 1521.94 633.543 1519.03 Q633.543 1516.03 631.407 1514.44 Q629.298 1512.83 625.34 1512.83 Q623.178 1512.83 620.704 1513.3 Q618.23 1513.77 615.262 1514.75 L615.262 1510.07 Q618.256 1509.23 620.86 1508.82 Q623.491 1508.4 625.808 1508.4 Q631.798 1508.4 635.287 1511.14 Q638.777 1513.84 638.777 1518.48 Q638.777 1521.71 636.928 1523.95 Q635.079 1526.16 631.668 1527.02 Z" fill="#bebebe" fill-rule="evenodd" fill-opacity="1" /><path clip-path="url(#clip210)" d="M 0 0 M722.087 1513.69 L708.805 1534.44 L722.087 1534.44 L722.087 1513.69 M720.706 1509.1 L727.321 1509.1 L727.321 1534.44 L732.868 1534.44 L732.868 1538.82 L727.321 1538.82 L727.321 1547.98 L722.087 1547.98 L722.087 1538.82 L704.535 1538.82 L704.535 1533.74 L720.706 1509.1 Z" fill="#bebebe" fill-rule="evenodd" fill-opacity="1" /><path clip-path="url(#clip210)" d="M 0 0 M799.576 1509.1 L820.227 1509.1 L820.227 1513.53 L804.394 1513.53 L804.394 1523.06 Q805.539 1522.67 806.685 1522.49 Q807.831 1522.28 808.977 1522.28 Q815.487 1522.28 819.289 1525.85 Q823.091 1529.42 823.091 1535.51 Q823.091 1541.79 819.185 1545.28 Q815.279 1548.74 808.17 1548.74 Q805.722 1548.74 803.17 1548.32 Q800.644 1547.91 797.935 1547.07 L797.935 1541.79 Q800.279 1543.06 802.779 1543.69 Q805.279 1544.31 808.066 1544.31 Q812.571 1544.31 815.201 1541.94 Q817.831 1539.57 817.831 1535.51 Q817.831 1531.45 815.201 1529.08 Q812.571 1526.71 808.066 1526.71 Q805.956 1526.71 803.847 1527.18 Q801.763 1527.65 799.576 1528.64 L799.576 1509.1 Z" fill="#bebebe" fill-rule="evenodd" fill-opacity="1" /><path clip-path="url(#clip210)" d="M 0 0 M902.781 1526.45 Q899.24 1526.45 897.156 1528.87 Q895.099 1531.29 895.099 1535.51 Q895.099 1539.7 897.156 1542.15 Q899.24 1544.57 902.781 1544.57 Q906.323 1544.57 908.38 1542.15 Q910.464 1539.7 910.464 1535.51 Q910.464 1531.29 908.38 1528.87 Q906.323 1526.45 902.781 1526.45 M913.224 1509.96 L913.224 1514.75 Q911.245 1513.82 909.214 1513.32 Q907.208 1512.83 905.229 1512.83 Q900.021 1512.83 897.261 1516.34 Q894.526 1519.86 894.136 1526.97 Q895.672 1524.7 897.99 1523.5 Q900.307 1522.28 903.094 1522.28 Q908.953 1522.28 912.339 1525.85 Q915.75 1529.39 915.75 1535.51 Q915.75 1541.5 912.208 1545.12 Q908.667 1548.74 902.781 1548.74 Q896.037 1548.74 892.469 1543.58 Q888.901 1538.4 888.901 1528.58 Q888.901 1519.36 893.276 1513.9 Q897.651 1508.4 905.021 1508.4 Q907 1508.4 909.005 1508.79 Q911.036 1509.18 913.224 1509.96 Z" fill="#bebebe" fill-rule="evenodd" fill-opacity="1" /><path clip-path="url(#clip210)" d="M 0 0 M981.638 1509.1 L1006.64 1509.1 L1006.64 1511.34 L992.523 1547.98 L987.028 1547.98 L1000.31 1513.53 L981.638 1513.53 L981.638 1509.1 Z" fill="#bebebe" fill-rule="evenodd" fill-opacity="1" /><path clip-path="url(#clip210)" d="M 0 0 M1085.95 1529.52 Q1082.2 1529.52 1080.04 1531.53 Q1077.9 1533.53 1077.9 1537.05 Q1077.9 1540.56 1080.04 1542.57 Q1082.2 1544.57 1085.95 1544.57 Q1089.7 1544.57 1091.86 1542.57 Q1094.02 1540.54 1094.02 1537.05 Q1094.02 1533.53 1091.86 1531.53 Q1089.73 1529.52 1085.95 1529.52 M1080.69 1527.28 Q1077.3 1526.45 1075.4 1524.13 Q1073.53 1521.81 1073.53 1518.48 Q1073.53 1513.82 1076.84 1511.11 Q1080.17 1508.4 1085.95 1508.4 Q1091.76 1508.4 1095.06 1511.11 Q1098.37 1513.82 1098.37 1518.48 Q1098.37 1521.81 1096.47 1524.13 Q1094.6 1526.45 1091.24 1527.28 Q1095.04 1528.17 1097.15 1530.74 Q1099.28 1533.32 1099.28 1537.05 Q1099.28 1542.7 1095.82 1545.72 Q1092.38 1548.74 1085.95 1548.74 Q1079.52 1548.74 1076.05 1545.72 Q1072.62 1542.7 1072.62 1537.05 Q1072.62 1533.32 1074.75 1530.74 Q1076.89 1528.17 1080.69 1527.28 M1078.76 1518.97 Q1078.76 1521.99 1080.64 1523.69 Q1082.54 1525.38 1085.95 1525.38 Q1089.34 1525.38 1091.24 1523.69 Q1093.16 1521.99 1093.16 1518.97 Q1093.16 1515.95 1091.24 1514.26 Q1089.34 1512.57 1085.95 1512.57 Q1082.54 1512.57 1080.64 1514.26 Q1078.76 1515.95 1078.76 1518.97 Z" fill="#bebebe" fill-rule="evenodd" fill-opacity="1" /><path clip-path="url(#clip210)" d="M 0 0 M1166.85 1547.18 L1166.85 1542.38 Q1168.83 1543.32 1170.86 1543.82 Q1172.89 1544.31 1174.85 1544.31 Q1180.05 1544.31 1182.79 1540.82 Q1185.55 1537.31 1185.94 1530.17 Q1184.43 1532.41 1182.11 1533.61 Q1179.79 1534.81 1176.98 1534.81 Q1171.15 1534.81 1167.74 1531.29 Q1164.35 1527.75 1164.35 1521.63 Q1164.35 1515.64 1167.89 1512.02 Q1171.43 1508.4 1177.32 1508.4 Q1184.06 1508.4 1187.61 1513.58 Q1191.17 1518.74 1191.17 1528.58 Q1191.17 1537.78 1186.8 1543.27 Q1182.45 1548.74 1175.08 1548.74 Q1173.1 1548.74 1171.07 1548.35 Q1169.04 1547.96 1166.85 1547.18 M1177.32 1530.69 Q1180.86 1530.69 1182.92 1528.27 Q1185 1525.85 1185 1521.63 Q1185 1517.44 1182.92 1515.02 Q1180.86 1512.57 1177.32 1512.57 Q1173.78 1512.57 1171.69 1515.02 Q1169.64 1517.44 1169.64 1521.63 Q1169.64 1525.85 1171.69 1528.27 Q1173.78 1530.69 1177.32 1530.69 Z" fill="#bebebe" fill-rule="evenodd" fill-opacity="1" /><path clip-path="url(#clip210)" d="M 0 0 M1243.56 1543.56 L1252.15 1543.56 L1252.15 1513.9 L1242.8 1515.77 L1242.8 1510.98 L1252.1 1509.1 L1257.36 1509.1 L1257.36 1543.56 L1265.95 1543.56 L1265.95 1547.98 L1243.56 1547.98 L1243.56 1543.56 Z" fill="#bebebe" fill-rule="evenodd" fill-opacity="1" /><path clip-path="url(#clip210)" d="M 0 0 M1282.91 1512.57 Q1278.85 1512.57 1276.79 1516.58 Q1274.76 1520.56 1274.76 1528.58 Q1274.76 1536.58 1276.79 1540.59 Q1278.85 1544.57 1282.91 1544.57 Q1287 1544.57 1289.03 1540.59 Q1291.08 1536.58 1291.08 1528.58 Q1291.08 1520.56 1289.03 1516.58 Q1287 1512.57 1282.91 1512.57 M1282.91 1508.4 Q1289.44 1508.4 1292.88 1513.58 Q1296.34 1518.74 1296.34 1528.58 Q1296.34 1538.4 1292.88 1543.58 Q1289.44 1548.74 1282.91 1548.74 Q1276.37 1548.74 1272.91 1543.58 Q1269.47 1538.4 1269.47 1528.58 Q1269.47 1518.74 1272.91 1513.58 Q1276.37 1508.4 1282.91 1508.4 Z" fill="#bebebe" fill-rule="evenodd" fill-opacity="1" /><path clip-path="url(#clip210)" d="M 0 0 M1336.06 1543.56 L1344.65 1543.56 L1344.65 1513.9 L1335.31 1515.77 L1335.31 1510.98 L1344.6 1509.1 L1349.86 1509.1 L1349.86 1543.56 L1358.46 1543.56 L1358.46 1547.98 L1336.06 1547.98 L1336.06 1543.56 Z" fill="#bebebe" fill-rule="evenodd" fill-opacity="1" /><path clip-path="url(#clip210)" d="M 0 0 M1365.07 1543.56 L1373.67 1543.56 L1373.67 1513.9 L1364.32 1515.77 L1364.32 1510.98 L1373.61 1509.1 L1378.87 1509.1 L1378.87 1543.56 L1387.47 1543.56 L1387.47 1547.98 L1365.07 1547.98 L1365.07 1543.56 Z" fill="#bebebe" fill-rule="evenodd" fill-opacity="1" /><path clip-path="url(#clip210)" d="M 0 0 M1428.08 1543.56 L1436.68 1543.56 L1436.68 1513.9 L1427.33 1515.77 L1427.33 1510.98 L1436.62 1509.1 L1441.88 1509.1 L1441.88 1543.56 L1450.48 1543.56 L1450.48 1547.98 L1428.08 1547.98 L1428.08 1543.56 Z" fill="#bebebe" fill-rule="evenodd" fill-opacity="1" /><path clip-path="url(#clip210)" d="M 0 0 M1460.71 1543.56 L1479.07 1543.56 L1479.07 1547.98 L1454.38 1547.98 L1454.38 1543.56 Q1457.38 1540.46 1462.53 1535.25 Q1467.72 1530.02 1469.04 1528.5 Q1471.57 1525.67 1472.56 1523.71 Q1473.58 1521.73 1473.58 1519.83 Q1473.58 1516.73 1471.39 1514.78 Q1469.23 1512.83 1465.74 1512.83 Q1463.26 1512.83 1460.5 1513.69 Q1457.77 1514.55 1454.64 1516.29 L1454.64 1510.98 Q1457.82 1509.7 1460.58 1509.05 Q1463.34 1508.4 1465.63 1508.4 Q1471.68 1508.4 1475.27 1511.42 Q1478.86 1514.44 1478.86 1519.49 Q1478.86 1521.89 1477.95 1524.05 Q1477.07 1526.19 1474.7 1529.1 Q1474.04 1529.86 1470.56 1533.48 Q1467.07 1537.07 1460.71 1543.56 Z" fill="#bebebe" fill-rule="evenodd" fill-opacity="1" /><path clip-path="url(#clip210)" d="M 0 0 M1519.36 1543.56 L1527.95 1543.56 L1527.95 1513.9 L1518.6 1515.77 L1518.6 1510.98 L1527.9 1509.1 L1533.16 1509.1 L1533.16 1543.56 L1541.76 1543.56 L1541.76 1547.98 L1519.36 1547.98 L1519.36 1543.56 Z" fill="#bebebe" fill-rule="evenodd" fill-opacity="1" /><path clip-path="url(#clip210)" d="M 0 0 M1563.4 1527.02 Q1567.17 1527.83 1569.28 1530.38 Q1571.42 1532.93 1571.42 1536.68 Q1571.42 1542.44 1567.46 1545.59 Q1563.5 1548.74 1556.21 1548.74 Q1553.76 1548.74 1551.16 1548.24 Q1548.58 1547.78 1545.82 1546.81 L1545.82 1541.73 Q1548.01 1543.01 1550.61 1543.66 Q1553.21 1544.31 1556.05 1544.31 Q1561 1544.31 1563.58 1542.36 Q1566.18 1540.41 1566.18 1536.68 Q1566.18 1533.24 1563.76 1531.32 Q1561.36 1529.36 1557.07 1529.36 L1552.54 1529.36 L1552.54 1525.04 L1557.28 1525.04 Q1561.16 1525.04 1563.21 1523.5 Q1565.27 1521.94 1565.27 1519.03 Q1565.27 1516.03 1563.14 1514.44 Q1561.03 1512.83 1557.07 1512.83 Q1554.91 1512.83 1552.43 1513.3 Q1549.96 1513.77 1546.99 1514.75 L1546.99 1510.07 Q1549.98 1509.23 1552.59 1508.82 Q1555.22 1508.4 1557.54 1508.4 Q1563.53 1508.4 1567.02 1511.14 Q1570.51 1513.84 1570.51 1518.48 Q1570.51 1521.71 1568.66 1523.95 Q1566.81 1526.16 1563.4 1527.02 Z" fill="#bebebe" fill-rule="evenodd" fill-opacity="1" /><path clip-path="url(#clip210)" d="M 0 0 M1610.53 1543.56 L1619.13 1543.56 L1619.13 1513.9 L1609.78 1515.77 L1609.78 1510.98 L1619.08 1509.1 L1624.34 1509.1 L1624.34 1543.56 L1632.93 1543.56 L1632.93 1547.98 L1610.53 1547.98 L1610.53 1543.56 Z" fill="#bebebe" fill-rule="evenodd" fill-opacity="1" /><path clip-path="url(#clip210)" d="M 0 0 M1653.09 1513.69 L1639.8 1534.44 L1653.09 1534.44 L1653.09 1513.69 M1651.71 1509.1 L1658.32 1509.1 L1658.32 1534.44 L1663.87 1534.44 L1663.87 1538.82 L1658.32 1538.82 L1658.32 1547.98 L1653.09 1547.98 L1653.09 1538.82 L1635.53 1538.82 L1635.53 1533.74 L1651.71 1509.1 Z" fill="#bebebe" fill-rule="evenodd" fill-opacity="1" /><path clip-path="url(#clip210)" d="M 0 0 M1703.18 1543.56 L1711.77 1543.56 L1711.77 1513.9 L1702.42 1515.77 L1702.42 1510.98 L1711.72 1509.1 L1716.98 1509.1 L1716.98 1543.56 L1725.58 1543.56 L1725.58 1547.98 L1703.18 1547.98 L1703.18 1543.56 Z" fill="#bebebe" fill-rule="evenodd" fill-opacity="1" /><path clip-path="url(#clip210)" d="M 0 0 M1731.33 1509.1 L1751.98 1509.1 L1751.98 1513.53 L1736.15 1513.53 L1736.15 1523.06 Q1737.29 1522.67 1738.44 1522.49 Q1739.59 1522.28 1740.73 1522.28 Q1747.24 1522.28 1751.04 1525.85 Q1754.85 1529.42 1754.85 1535.51 Q1754.85 1541.79 1750.94 1545.28 Q1747.03 1548.74 1739.92 1548.74 Q1737.48 1548.74 1734.92 1548.32 Q1732.4 1547.91 1729.69 1547.07 L1729.69 1541.79 Q1732.03 1543.06 1734.53 1543.69 Q1737.03 1544.31 1739.82 1544.31 Q1744.33 1544.31 1746.96 1541.94 Q1749.59 1539.57 1749.59 1535.51 Q1749.59 1531.45 1746.96 1529.08 Q1744.33 1526.71 1739.82 1526.71 Q1737.71 1526.71 1735.6 1527.18 Q1733.52 1527.65 1731.33 1528.64 L1731.33 1509.1 Z" fill="#bebebe" fill-rule="evenodd" fill-opacity="1" /><path clip-path="url(#clip210)" d="M 0 0 M1794.34 1543.56 L1802.93 1543.56 L1802.93 1513.9 L1793.59 1515.77 L1793.59 1510.98 L1802.88 1509.1 L1808.14 1509.1 L1808.14 1543.56 L1816.74 1543.56 L1816.74 1547.98 L1794.34 1547.98 L1794.34 1543.56 Z" fill="#bebebe" fill-rule="evenodd" fill-opacity="1" /><path clip-path="url(#clip210)" d="M 0 0 M1834.34 1526.45 Q1830.8 1526.45 1828.72 1528.87 Q1826.66 1531.29 1826.66 1535.51 Q1826.66 1539.7 1828.72 1542.15 Q1830.8 1544.57 1834.34 1544.57 Q1837.88 1544.57 1839.94 1542.15 Q1842.02 1539.7 1842.02 1535.51 Q1842.02 1531.29 1839.94 1528.87 Q1837.88 1526.45 1834.34 1526.45 M1844.78 1509.96 L1844.78 1514.75 Q1842.8 1513.82 1840.77 1513.32 Q1838.77 1512.83 1836.79 1512.83 Q1831.58 1512.83 1828.82 1516.34 Q1826.09 1519.86 1825.69 1526.97 Q1827.23 1524.7 1829.55 1523.5 Q1831.87 1522.28 1834.65 1522.28 Q1840.51 1522.28 1843.9 1525.85 Q1847.31 1529.39 1847.31 1535.51 Q1847.31 1541.5 1843.77 1545.12 Q1840.23 1548.74 1834.34 1548.74 Q1827.6 1548.74 1824.03 1543.58 Q1820.46 1538.4 1820.46 1528.58 Q1820.46 1519.36 1824.84 1513.9 Q1829.21 1508.4 1836.58 1508.4 Q1838.56 1508.4 1840.56 1508.79 Q1842.6 1509.18 1844.78 1509.96 Z" fill="#bebebe" fill-rule="evenodd" fill-opacity="1" /><path clip-path="url(#clip210)" d="M 0 0 M1886.75 1543.56 L1895.35 1543.56 L1895.35 1513.9 L1886 1515.77 L1886 1510.98 L1895.29 1509.1 L1900.55 1509.1 L1900.55 1543.56 L1909.15 1543.56 L1909.15 1547.98 L1886.75 1547.98 L1886.75 1543.56 Z" fill="#bebebe" fill-rule="evenodd" fill-opacity="1" /><path clip-path="url(#clip210)" d="M 0 0 M1913.52 1509.1 L1938.52 1509.1 L1938.52 1511.34 L1924.41 1547.98 L1918.91 1547.98 L1932.19 1513.53 L1913.52 1513.53 L1913.52 1509.1 Z" fill="#bebebe" fill-rule="evenodd" fill-opacity="1" /><path clip-path="url(#clip210)" d="M 0 0 M1978.11 1543.56 L1986.7 1543.56 L1986.7 1513.9 L1977.35 1515.77 L1977.35 1510.98 L1986.65 1509.1 L1991.91 1509.1 L1991.91 1543.56 L2000.5 1543.56 L2000.5 1547.98 L1978.11 1547.98 L1978.11 1543.56 Z" fill="#bebebe" fill-rule="evenodd" fill-opacity="1" /><path clip-path="url(#clip210)" d="M 0 0 M2017.46 1529.52 Q2013.71 1529.52 2011.55 1531.53 Q2009.41 1533.53 2009.41 1537.05 Q2009.41 1540.56 2011.55 1542.57 Q2013.71 1544.57 2017.46 1544.57 Q2021.21 1544.57 2023.37 1542.57 Q2025.53 1540.54 2025.53 1537.05 Q2025.53 1533.53 2023.37 1531.53 Q2021.23 1529.52 2017.46 1529.52 M2012.2 1527.28 Q2008.81 1526.45 2006.91 1524.13 Q2005.04 1521.81 2005.04 1518.48 Q2005.04 1513.82 2008.34 1511.11 Q2011.68 1508.4 2017.46 1508.4 Q2023.26 1508.4 2026.57 1511.11 Q2029.88 1513.82 2029.88 1518.48 Q2029.88 1521.81 2027.98 1524.13 Q2026.1 1526.45 2022.74 1527.28 Q2026.55 1528.17 2028.65 1530.74 Q2030.79 1533.32 2030.79 1537.05 Q2030.79 1542.7 2027.33 1545.72 Q2023.89 1548.74 2017.46 1548.74 Q2011.02 1548.74 2007.56 1545.72 Q2004.12 1542.7 2004.12 1537.05 Q2004.12 1533.32 2006.26 1530.74 Q2008.39 1528.17 2012.2 1527.28 M2010.27 1518.97 Q2010.27 1521.99 2012.14 1523.69 Q2014.05 1525.38 2017.46 1525.38 Q2020.84 1525.38 2022.74 1523.69 Q2024.67 1521.99 2024.67 1518.97 Q2024.67 1515.95 2022.74 1514.26 Q2020.84 1512.57 2017.46 1512.57 Q2014.05 1512.57 2012.14 1514.26 Q2010.27 1515.95 2010.27 1518.97 Z" fill="#bebebe" fill-rule="evenodd" fill-opacity="1" /><path clip-path="url(#clip210)" d="M 0 0 M2069.97 1543.56 L2078.57 1543.56 L2078.57 1513.9 L2069.22 1515.77 L2069.22 1510.98 L2078.51 1509.1 L2083.77 1509.1 L2083.77 1543.56 L2092.37 1543.56 L2092.37 1547.98 L2069.97 1547.98 L2069.97 1543.56 Z" fill="#bebebe" fill-rule="evenodd" fill-opacity="1" /><path clip-path="url(#clip210)" d="M 0 0 M2098.23 1547.18 L2098.23 1542.38 Q2100.21 1543.32 2102.24 1543.82 Q2104.27 1544.31 2106.22 1544.31 Q2111.43 1544.31 2114.16 1540.82 Q2116.93 1537.31 2117.32 1530.17 Q2115.81 1532.41 2113.49 1533.61 Q2111.17 1534.81 2108.36 1534.81 Q2102.52 1534.81 2099.11 1531.29 Q2095.73 1527.75 2095.73 1521.63 Q2095.73 1515.64 2099.27 1512.02 Q2102.81 1508.4 2108.7 1508.4 Q2115.44 1508.4 2118.98 1513.58 Q2122.55 1518.74 2122.55 1528.58 Q2122.55 1537.78 2118.18 1543.27 Q2113.83 1548.74 2106.46 1548.74 Q2104.48 1548.74 2102.45 1548.35 Q2100.42 1547.96 2098.23 1547.18 M2108.7 1530.69 Q2112.24 1530.69 2114.3 1528.27 Q2116.38 1525.85 2116.38 1521.63 Q2116.38 1517.44 2114.3 1515.02 Q2112.24 1512.57 2108.7 1512.57 Q2105.15 1512.57 2103.07 1515.02 Q2101.01 1517.44 2101.01 1521.63 Q2101.01 1525.85 2103.07 1528.27 Q2105.15 1530.69 2108.7 1530.69 Z" fill="#bebebe" fill-rule="evenodd" fill-opacity="1" /><path clip-path="url(#clip210)" d="M 0 0 M2166.49 1543.56 L2184.84 1543.56 L2184.84 1547.98 L2160.16 1547.98 L2160.16 1543.56 Q2163.15 1540.46 2168.31 1535.25 Q2173.49 1530.02 2174.82 1528.5 Q2177.34 1525.67 2178.33 1523.71 Q2179.35 1521.73 2179.35 1519.83 Q2179.35 1516.73 2177.16 1514.78 Q2175 1512.83 2171.51 1512.83 Q2169.04 1512.83 2166.28 1513.69 Q2163.54 1514.55 2160.42 1516.29 L2160.42 1510.98 Q2163.59 1509.7 2166.35 1509.05 Q2169.12 1508.4 2171.41 1508.4 Q2177.45 1508.4 2181.04 1511.42 Q2184.64 1514.44 2184.64 1519.49 Q2184.64 1521.89 2183.72 1524.05 Q2182.84 1526.19 2180.47 1529.1 Q2179.82 1529.86 2176.33 1533.48 Q2172.84 1537.07 2166.49 1543.56 Z" fill="#bebebe" fill-rule="evenodd" fill-opacity="1" /><path clip-path="url(#clip210)" d="M 0 0 M2201.8 1512.57 Q2197.73 1512.57 2195.68 1516.58 Q2193.65 1520.56 2193.65 1528.58 Q2193.65 1536.58 2195.68 1540.59 Q2197.73 1544.57 2201.8 1544.57 Q2205.89 1544.57 2207.92 1540.59 Q2209.97 1536.58 2209.97 1528.58 Q2209.97 1520.56 2207.92 1516.58 Q2205.89 1512.57 2201.8 1512.57 M2201.8 1508.4 Q2208.33 1508.4 2211.77 1513.58 Q2215.23 1518.74 2215.23 1528.58 Q2215.23 1538.4 2211.77 1543.58 Q2208.33 1548.74 2201.8 1548.74 Q2195.26 1548.74 2191.8 1543.58 Q2188.36 1538.4 2188.36 1528.58 Q2188.36 1518.74 2191.8 1513.58 Q2195.26 1508.4 2201.8 1508.4 Z" fill="#bebebe" fill-rule="evenodd" fill-opacity="1" /><polyline clip-path="url(#clip212)" style="stroke:#000000; stroke-width:2; stroke-opacity:0.1; fill:none" points="
  186.393,1444.41 2352.76,1444.41 
  "/>
<polyline clip-path="url(#clip212)" style="stroke:#000000; stroke-width:2; stroke-opacity:0.1; fill:none" points="
  186.393,1250.98 2352.76,1250.98 
  "/>
<polyline clip-path="url(#clip212)" style="stroke:#000000; stroke-width:2; stroke-opacity:0.1; fill:none" points="
  186.393,1057.55 2352.76,1057.55 
  "/>
<polyline clip-path="url(#clip212)" style="stroke:#000000; stroke-width:2; stroke-opacity:0.1; fill:none" points="
  186.393,864.118 2352.76,864.118 
  "/>
<polyline clip-path="url(#clip212)" style="stroke:#000000; stroke-width:2; stroke-opacity:0.1; fill:none" points="
  186.393,670.687 2352.76,670.687 
  "/>
<polyline clip-path="url(#clip212)" style="stroke:#000000; stroke-width:2; stroke-opacity:0.1; fill:none" points="
  186.393,477.257 2352.76,477.257 
  "/>
<polyline clip-path="url(#clip212)" style="stroke:#000000; stroke-width:2; stroke-opacity:0.1; fill:none" points="
  186.393,283.826 2352.76,283.826 
  "/>
<polyline clip-path="url(#clip210)" style="stroke:#000000; stroke-width:4; stroke-opacity:1; fill:none" points="
  186.393,1482.13 186.393,149.392 
  "/>
<polyline clip-path="url(#clip210)" style="stroke:#000000; stroke-width:4; stroke-opacity:1; fill:none" points="
  186.393,1444.41 212.389,1444.41 
  "/>
<polyline clip-path="url(#clip210)" style="stroke:#000000; stroke-width:4; stroke-opacity:1; fill:none" points="
  186.393,1250.98 212.389,1250.98 
  "/>
<polyline clip-path="url(#clip210)" style="stroke:#000000; stroke-width:4; stroke-opacity:1; fill:none" points="
  186.393,1057.55 212.389,1057.55 
  "/>
<polyline clip-path="url(#clip210)" style="stroke:#000000; stroke-width:4; stroke-opacity:1; fill:none" points="
  186.393,864.118 212.389,864.118 
  "/>
<polyline clip-path="url(#clip210)" style="stroke:#000000; stroke-width:4; stroke-opacity:1; fill:none" points="
  186.393,670.687 212.389,670.687 
  "/>
<polyline clip-path="url(#clip210)" style="stroke:#000000; stroke-width:4; stroke-opacity:1; fill:none" points="
  186.393,477.257 212.389,477.257 
  "/>
<polyline clip-path="url(#clip210)" style="stroke:#000000; stroke-width:4; stroke-opacity:1; fill:none" points="
  186.393,283.826 212.389,283.826 
  "/>
<path clip-path="url(#clip210)" d="M 0 0 M64.9764 1428.43 Q60.9139 1428.43 58.8567 1432.44 Q56.8254 1436.43 56.8254 1444.45 Q56.8254 1452.44 58.8567 1456.45 Q60.9139 1460.44 64.9764 1460.44 Q69.0649 1460.44 71.0962 1456.45 Q73.1535 1452.44 73.1535 1444.45 Q73.1535 1436.43 71.0962 1432.44 Q69.0649 1428.43 64.9764 1428.43 M64.9764 1424.27 Q71.5128 1424.27 74.9503 1429.45 Q78.4139 1434.6 78.4139 1444.45 Q78.4139 1454.27 74.9503 1459.45 Q71.5128 1464.6 64.9764 1464.6 Q58.44 1464.6 54.9765 1459.45 Q51.539 1454.27 51.539 1444.45 Q51.539 1434.6 54.9765 1429.45 Q58.44 1424.27 64.9764 1424.27 Z" fill="#bebebe" fill-rule="evenodd" fill-opacity="1" /><path clip-path="url(#clip210)" d="M 0 0 M84.1169 1457.23 L89.6117 1457.23 L89.6117 1463.85 L84.1169 1463.85 L84.1169 1457.23 Z" fill="#bebebe" fill-rule="evenodd" fill-opacity="1" /><path clip-path="url(#clip210)" d="M 0 0 M106.565 1428.43 Q102.502 1428.43 100.445 1432.44 Q98.4137 1436.43 98.4137 1444.45 Q98.4137 1452.44 100.445 1456.45 Q102.502 1460.44 106.565 1460.44 Q110.653 1460.44 112.685 1456.45 Q114.742 1452.44 114.742 1444.45 Q114.742 1436.43 112.685 1432.44 Q110.653 1428.43 106.565 1428.43 M106.565 1424.27 Q113.101 1424.27 116.539 1429.45 Q120.002 1434.6 120.002 1444.45 Q120.002 1454.27 116.539 1459.45 Q113.101 1464.6 106.565 1464.6 Q100.028 1464.6 96.5648 1459.45 Q93.1273 1454.27 93.1273 1444.45 Q93.1273 1434.6 96.5648 1429.45 Q100.028 1424.27 106.565 1424.27 Z" fill="#bebebe" fill-rule="evenodd" fill-opacity="1" /><path clip-path="url(#clip210)" d="M 0 0 M136.955 1428.43 Q132.893 1428.43 130.835 1432.44 Q128.804 1436.43 128.804 1444.45 Q128.804 1452.44 130.835 1456.45 Q132.893 1460.44 136.955 1460.44 Q141.044 1460.44 143.075 1456.45 Q145.132 1452.44 145.132 1444.45 Q145.132 1436.43 143.075 1432.44 Q141.044 1428.43 136.955 1428.43 M136.955 1424.27 Q143.492 1424.27 146.929 1429.45 Q150.393 1434.6 150.393 1444.45 Q150.393 1454.27 146.929 1459.45 Q143.492 1464.6 136.955 1464.6 Q130.419 1464.6 126.955 1459.45 Q123.518 1454.27 123.518 1444.45 Q123.518 1434.6 126.955 1429.45 Q130.419 1424.27 136.955 1424.27 Z" fill="#bebebe" fill-rule="evenodd" fill-opacity="1" /><path clip-path="url(#clip210)" d="M 0 0 M66.7733 1235 Q62.7108 1235 60.6535 1239.01 Q58.6223 1243 58.6223 1251.02 Q58.6223 1259.01 60.6535 1263.02 Q62.7108 1267.01 66.7733 1267.01 Q70.8618 1267.01 72.8931 1263.02 Q74.9503 1259.01 74.9503 1251.02 Q74.9503 1243 72.8931 1239.01 Q70.8618 1235 66.7733 1235 M66.7733 1230.84 Q73.3097 1230.84 76.7472 1236.02 Q80.2107 1241.17 80.2107 1251.02 Q80.2107 1260.84 76.7472 1266.02 Q73.3097 1271.17 66.7733 1271.17 Q60.2369 1271.17 56.7733 1266.02 Q53.3359 1260.84 53.3359 1251.02 Q53.3359 1241.17 56.7733 1236.02 Q60.2369 1230.84 66.7733 1230.84 Z" fill="#bebebe" fill-rule="evenodd" fill-opacity="1" /><path clip-path="url(#clip210)" d="M 0 0 M85.9138 1263.8 L91.4086 1263.8 L91.4086 1270.42 L85.9138 1270.42 L85.9138 1263.8 Z" fill="#bebebe" fill-rule="evenodd" fill-opacity="1" /><path clip-path="url(#clip210)" d="M 0 0 M108.362 1235 Q104.299 1235 102.242 1239.01 Q100.211 1243 100.211 1251.02 Q100.211 1259.01 102.242 1263.02 Q104.299 1267.01 108.362 1267.01 Q112.45 1267.01 114.481 1263.02 Q116.539 1259.01 116.539 1251.02 Q116.539 1243 114.481 1239.01 Q112.45 1235 108.362 1235 M108.362 1230.84 Q114.898 1230.84 118.336 1236.02 Q121.799 1241.17 121.799 1251.02 Q121.799 1260.84 118.336 1266.02 Q114.898 1271.17 108.362 1271.17 Q101.825 1271.17 98.3617 1266.02 Q94.9242 1260.84 94.9242 1251.02 Q94.9242 1241.17 98.3617 1236.02 Q101.825 1230.84 108.362 1230.84 Z" fill="#bebebe" fill-rule="evenodd" fill-opacity="1" /><path clip-path="url(#clip210)" d="M 0 0 M132.033 1265.99 L150.393 1265.99 L150.393 1270.42 L125.705 1270.42 L125.705 1265.99 Q128.7 1262.89 133.856 1257.68 Q139.039 1252.45 140.367 1250.94 Q142.893 1248.1 143.882 1246.15 Q144.898 1244.17 144.898 1242.27 Q144.898 1239.17 142.71 1237.22 Q140.549 1235.26 137.059 1235.26 Q134.585 1235.26 131.825 1236.12 Q129.091 1236.98 125.966 1238.73 L125.966 1233.41 Q129.143 1232.14 131.903 1231.49 Q134.664 1230.84 136.955 1230.84 Q142.997 1230.84 146.591 1233.86 Q150.184 1236.88 150.184 1241.93 Q150.184 1244.32 149.273 1246.49 Q148.387 1248.62 146.018 1251.54 Q145.367 1252.29 141.877 1255.91 Q138.387 1259.51 132.033 1265.99 Z" fill="#bebebe" fill-rule="evenodd" fill-opacity="1" /><path clip-path="url(#clip210)" d="M 0 0 M64.4296 1041.57 Q60.3671 1041.57 58.3098 1045.58 Q56.2786 1049.57 56.2786 1057.59 Q56.2786 1065.58 58.3098 1069.59 Q60.3671 1073.58 64.4296 1073.58 Q68.5181 1073.58 70.5493 1069.59 Q72.6066 1065.58 72.6066 1057.59 Q72.6066 1049.57 70.5493 1045.58 Q68.5181 1041.57 64.4296 1041.57 M64.4296 1037.4 Q70.966 1037.4 74.4035 1042.59 Q77.867 1047.74 77.867 1057.59 Q77.867 1067.4 74.4035 1072.59 Q70.966 1077.74 64.4296 1077.74 Q57.8931 1077.74 54.4296 1072.59 Q50.9921 1067.4 50.9921 1057.59 Q50.9921 1047.74 54.4296 1042.59 Q57.8931 1037.4 64.4296 1037.4 Z" fill="#bebebe" fill-rule="evenodd" fill-opacity="1" /><path clip-path="url(#clip210)" d="M 0 0 M83.5701 1070.37 L89.0648 1070.37 L89.0648 1076.99 L83.5701 1076.99 L83.5701 1070.37 Z" fill="#bebebe" fill-rule="evenodd" fill-opacity="1" /><path clip-path="url(#clip210)" d="M 0 0 M106.018 1041.57 Q101.955 1041.57 99.8981 1045.58 Q97.8669 1049.57 97.8669 1057.59 Q97.8669 1065.58 99.8981 1069.59 Q101.955 1073.58 106.018 1073.58 Q110.106 1073.58 112.138 1069.59 Q114.195 1065.58 114.195 1057.59 Q114.195 1049.57 112.138 1045.58 Q110.106 1041.57 106.018 1041.57 M106.018 1037.4 Q112.554 1037.4 115.992 1042.59 Q119.455 1047.74 119.455 1057.59 Q119.455 1067.4 115.992 1072.59 Q112.554 1077.74 106.018 1077.74 Q99.4814 1077.74 96.0179 1072.59 Q92.5804 1067.4 92.5804 1057.59 Q92.5804 1047.74 96.0179 1042.59 Q99.4814 1037.4 106.018 1037.4 Z" fill="#bebebe" fill-rule="evenodd" fill-opacity="1" /><path clip-path="url(#clip210)" d="M 0 0 M139.611 1042.69 L126.33 1063.45 L139.611 1063.45 L139.611 1042.69 M138.231 1038.11 L144.846 1038.11 L144.846 1063.45 L150.393 1063.45 L150.393 1067.82 L144.846 1067.82 L144.846 1076.99 L139.611 1076.99 L139.611 1067.82 L122.059 1067.82 L122.059 1062.74 L138.231 1038.11 Z" fill="#bebebe" fill-rule="evenodd" fill-opacity="1" /><path clip-path="url(#clip210)" d="M 0 0 M64.7941 848.141 Q60.7317 848.141 58.6744 852.152 Q56.6431 856.136 56.6431 864.157 Q56.6431 872.151 58.6744 876.162 Q60.7317 880.146 64.7941 880.146 Q68.8827 880.146 70.9139 876.162 Q72.9712 872.151 72.9712 864.157 Q72.9712 856.136 70.9139 852.152 Q68.8827 848.141 64.7941 848.141 M64.7941 843.974 Q71.3306 843.974 74.768 849.157 Q78.2316 854.313 78.2316 864.157 Q78.2316 873.974 74.768 879.157 Q71.3306 884.313 64.7941 884.313 Q58.2577 884.313 54.7942 879.157 Q51.3567 873.974 51.3567 864.157 Q51.3567 854.313 54.7942 849.157 Q58.2577 843.974 64.7941 843.974 Z" fill="#bebebe" fill-rule="evenodd" fill-opacity="1" /><path clip-path="url(#clip210)" d="M 0 0 M83.9347 876.943 L89.4294 876.943 L89.4294 883.558 L83.9347 883.558 L83.9347 876.943 Z" fill="#bebebe" fill-rule="evenodd" fill-opacity="1" /><path clip-path="url(#clip210)" d="M 0 0 M106.382 848.141 Q102.32 848.141 100.263 852.152 Q98.2315 856.136 98.2315 864.157 Q98.2315 872.151 100.263 876.162 Q102.32 880.146 106.382 880.146 Q110.471 880.146 112.502 876.162 Q114.559 872.151 114.559 864.157 Q114.559 856.136 112.502 852.152 Q110.471 848.141 106.382 848.141 M106.382 843.974 Q112.919 843.974 116.356 849.157 Q119.82 854.313 119.82 864.157 Q119.82 873.974 116.356 879.157 Q112.919 884.313 106.382 884.313 Q99.846 884.313 96.3825 879.157 Q92.945 873.974 92.945 864.157 Q92.945 854.313 96.3825 849.157 Q99.846 843.974 106.382 843.974 Z" fill="#bebebe" fill-rule="evenodd" fill-opacity="1" /><path clip-path="url(#clip210)" d="M 0 0 M137.424 862.021 Q133.882 862.021 131.799 864.443 Q129.742 866.865 129.742 871.084 Q129.742 875.276 131.799 877.724 Q133.882 880.146 137.424 880.146 Q140.966 880.146 143.023 877.724 Q145.106 875.276 145.106 871.084 Q145.106 866.865 143.023 864.443 Q140.966 862.021 137.424 862.021 M147.867 845.537 L147.867 850.329 Q145.887 849.391 143.856 848.896 Q141.851 848.402 139.872 848.402 Q134.664 848.402 131.903 851.917 Q129.169 855.433 128.778 862.542 Q130.315 860.276 132.632 859.079 Q134.95 857.855 137.736 857.855 Q143.596 857.855 146.981 861.422 Q150.393 864.964 150.393 871.084 Q150.393 877.073 146.851 880.693 Q143.309 884.313 137.424 884.313 Q130.679 884.313 127.112 879.157 Q123.544 873.974 123.544 864.157 Q123.544 854.938 127.919 849.469 Q132.294 843.974 139.664 843.974 Q141.643 843.974 143.648 844.365 Q145.679 844.756 147.867 845.537 Z" fill="#bebebe" fill-rule="evenodd" fill-opacity="1" /><path clip-path="url(#clip210)" d="M 0 0 M65.0806 654.711 Q61.0181 654.711 58.9608 658.721 Q56.9296 662.705 56.9296 670.726 Q56.9296 678.721 58.9608 682.731 Q61.0181 686.716 65.0806 686.716 Q69.1691 686.716 71.2004 682.731 Q73.2576 678.721 73.2576 670.726 Q73.2576 662.705 71.2004 658.721 Q69.1691 654.711 65.0806 654.711 M65.0806 650.544 Q71.617 650.544 75.0545 655.726 Q78.518 660.883 78.518 670.726 Q78.518 680.544 75.0545 685.726 Q71.617 690.882 65.0806 690.882 Q58.5442 690.882 55.0806 685.726 Q51.6432 680.544 51.6432 670.726 Q51.6432 660.883 55.0806 655.726 Q58.5442 650.544 65.0806 650.544 Z" fill="#bebebe" fill-rule="evenodd" fill-opacity="1" /><path clip-path="url(#clip210)" d="M 0 0 M84.2211 683.513 L89.7159 683.513 L89.7159 690.127 L84.2211 690.127 L84.2211 683.513 Z" fill="#bebebe" fill-rule="evenodd" fill-opacity="1" /><path clip-path="url(#clip210)" d="M 0 0 M106.669 654.711 Q102.606 654.711 100.549 658.721 Q98.5179 662.705 98.5179 670.726 Q98.5179 678.721 100.549 682.731 Q102.606 686.716 106.669 686.716 Q110.757 686.716 112.789 682.731 Q114.846 678.721 114.846 670.726 Q114.846 662.705 112.789 658.721 Q110.757 654.711 106.669 654.711 M106.669 650.544 Q113.205 650.544 116.643 655.726 Q120.106 660.883 120.106 670.726 Q120.106 680.544 116.643 685.726 Q113.205 690.882 106.669 690.882 Q100.132 690.882 96.669 685.726 Q93.2315 680.544 93.2315 670.726 Q93.2315 660.883 96.669 655.726 Q100.132 650.544 106.669 650.544 Z" fill="#bebebe" fill-rule="evenodd" fill-opacity="1" /><path clip-path="url(#clip210)" d="M 0 0 M137.059 671.664 Q133.309 671.664 131.148 673.669 Q129.013 675.674 129.013 679.19 Q129.013 682.705 131.148 684.711 Q133.309 686.716 137.059 686.716 Q140.809 686.716 142.971 684.711 Q145.132 682.679 145.132 679.19 Q145.132 675.674 142.971 673.669 Q140.835 671.664 137.059 671.664 M131.799 669.424 Q128.414 668.591 126.513 666.273 Q124.638 663.955 124.638 660.622 Q124.638 655.961 127.945 653.252 Q131.278 650.544 137.059 650.544 Q142.867 650.544 146.174 653.252 Q149.481 655.961 149.481 660.622 Q149.481 663.955 147.58 666.273 Q145.705 668.591 142.346 669.424 Q146.148 670.31 148.257 672.888 Q150.393 675.466 150.393 679.19 Q150.393 684.841 146.929 687.862 Q143.492 690.882 137.059 690.882 Q130.627 690.882 127.164 687.862 Q123.726 684.841 123.726 679.19 Q123.726 675.466 125.862 672.888 Q127.997 670.31 131.799 669.424 M129.872 661.117 Q129.872 664.138 131.747 665.83 Q133.648 667.523 137.059 667.523 Q140.445 667.523 142.346 665.83 Q144.273 664.138 144.273 661.117 Q144.273 658.096 142.346 656.403 Q140.445 654.711 137.059 654.711 Q133.648 654.711 131.747 656.403 Q129.872 658.096 129.872 661.117 Z" fill="#bebebe" fill-rule="evenodd" fill-opacity="1" /><path clip-path="url(#clip210)" d="M 0 0 M66.3566 461.28 Q62.2941 461.28 60.2369 465.291 Q58.2056 469.275 58.2056 477.296 Q58.2056 485.291 60.2369 489.301 Q62.2941 493.285 66.3566 493.285 Q70.4451 493.285 72.4764 489.301 Q74.5337 485.291 74.5337 477.296 Q74.5337 469.275 72.4764 465.291 Q70.4451 461.28 66.3566 461.28 M66.3566 457.114 Q72.8931 457.114 76.3305 462.296 Q79.7941 467.452 79.7941 477.296 Q79.7941 487.113 76.3305 492.296 Q72.8931 497.452 66.3566 497.452 Q59.8202 497.452 56.3567 492.296 Q52.9192 487.113 52.9192 477.296 Q52.9192 467.452 56.3567 462.296 Q59.8202 457.114 66.3566 457.114 Z" fill="#bebebe" fill-rule="evenodd" fill-opacity="1" /><path clip-path="url(#clip210)" d="M 0 0 M85.4971 490.082 L90.9919 490.082 L90.9919 496.697 L85.4971 496.697 L85.4971 490.082 Z" fill="#bebebe" fill-rule="evenodd" fill-opacity="1" /><path clip-path="url(#clip210)" d="M 0 0 M97.6065 492.27 L106.2 492.27 L106.2 462.608 L96.8513 464.483 L96.8513 459.692 L106.148 457.817 L111.408 457.817 L111.408 492.27 L120.002 492.27 L120.002 496.697 L97.6065 496.697 L97.6065 492.27 Z" fill="#bebebe" fill-rule="evenodd" fill-opacity="1" /><path clip-path="url(#clip210)" d="M 0 0 M136.955 461.28 Q132.893 461.28 130.835 465.291 Q128.804 469.275 128.804 477.296 Q128.804 485.291 130.835 489.301 Q132.893 493.285 136.955 493.285 Q141.044 493.285 143.075 489.301 Q145.132 485.291 145.132 477.296 Q145.132 469.275 143.075 465.291 Q141.044 461.28 136.955 461.28 M136.955 457.114 Q143.492 457.114 146.929 462.296 Q150.393 467.452 150.393 477.296 Q150.393 487.113 146.929 492.296 Q143.492 497.452 136.955 497.452 Q130.419 497.452 126.955 492.296 Q123.518 487.113 123.518 477.296 Q123.518 467.452 126.955 462.296 Q130.419 457.114 136.955 457.114 Z" fill="#bebebe" fill-rule="evenodd" fill-opacity="1" /><path clip-path="url(#clip210)" d="M 0 0 M68.1535 267.85 Q64.091 267.85 62.0337 271.86 Q60.0025 275.845 60.0025 283.865 Q60.0025 291.86 62.0337 295.87 Q64.091 299.855 68.1535 299.855 Q72.242 299.855 74.2733 295.87 Q76.3305 291.86 76.3305 283.865 Q76.3305 275.845 74.2733 271.86 Q72.242 267.85 68.1535 267.85 M68.1535 263.683 Q74.6899 263.683 78.1274 268.865 Q81.5909 274.022 81.5909 283.865 Q81.5909 293.683 78.1274 298.865 Q74.6899 304.021 68.1535 304.021 Q61.6171 304.021 58.1535 298.865 Q54.7161 293.683 54.7161 283.865 Q54.7161 274.022 58.1535 268.865 Q61.6171 263.683 68.1535 263.683 Z" fill="#bebebe" fill-rule="evenodd" fill-opacity="1" /><path clip-path="url(#clip210)" d="M 0 0 M87.294 296.652 L92.7888 296.652 L92.7888 303.266 L87.294 303.266 L87.294 296.652 Z" fill="#bebebe" fill-rule="evenodd" fill-opacity="1" /><path clip-path="url(#clip210)" d="M 0 0 M99.4033 298.839 L107.997 298.839 L107.997 269.178 L98.6481 271.053 L98.6481 266.261 L107.945 264.386 L113.205 264.386 L113.205 298.839 L121.799 298.839 L121.799 303.266 L99.4033 303.266 L99.4033 298.839 Z" fill="#bebebe" fill-rule="evenodd" fill-opacity="1" /><path clip-path="url(#clip210)" d="M 0 0 M132.033 298.839 L150.393 298.839 L150.393 303.266 L125.705 303.266 L125.705 298.839 Q128.7 295.74 133.856 290.532 Q139.039 285.298 140.367 283.787 Q142.893 280.949 143.882 278.996 Q144.898 277.016 144.898 275.115 Q144.898 272.016 142.71 270.063 Q140.549 268.11 137.059 268.11 Q134.585 268.11 131.825 268.97 Q129.091 269.829 125.966 271.574 L125.966 266.261 Q129.143 264.985 131.903 264.334 Q134.664 263.683 136.955 263.683 Q142.997 263.683 146.591 266.704 Q150.184 269.725 150.184 274.777 Q150.184 277.173 149.273 279.334 Q148.387 281.47 146.018 284.386 Q145.367 285.141 141.877 288.761 Q138.387 292.355 132.033 298.839 Z" fill="#bebebe" fill-rule="evenodd" fill-opacity="1" /><path clip-path="url(#clip210)" d="M 0 0 M886.359 20.1156 L886.359 31.516 Q879.704 28.3332 873.801 26.7707 Q867.898 25.2082 862.401 25.2082 Q852.852 25.2082 847.644 28.9119 Q842.493 32.6156 842.493 39.4442 Q842.493 45.1734 845.908 48.1247 Q849.38 51.0182 858.986 52.8122 L866.046 54.259 Q879.125 56.7474 885.317 63.0552 Q891.567 69.3052 891.567 79.8375 Q891.567 92.3953 883.118 98.8768 Q874.727 105.358 858.465 105.358 Q852.331 105.358 845.387 103.969 Q838.5 102.58 831.093 99.8606 L831.093 87.8236 Q838.211 91.8166 845.04 93.8421 Q851.868 95.8675 858.465 95.8675 Q868.477 95.8675 873.917 91.9324 Q879.356 87.9972 879.356 80.7056 Q879.356 74.3399 875.421 70.7519 Q871.544 67.164 862.632 65.37 L855.514 63.9811 Q842.435 61.377 836.59 55.8215 Q830.746 50.2659 830.746 40.3702 Q830.746 28.9119 838.79 22.3147 Q846.891 15.7175 861.07 15.7175 Q867.146 15.7175 873.454 16.817 Q879.762 17.9166 886.359 20.1156 Z" fill="#bebebe" fill-rule="evenodd" fill-opacity="1" /><path clip-path="url(#clip210)" d="M 0 0 M958.175 68.6107 L958.175 73.819 L909.217 73.819 Q909.912 84.8144 915.815 90.6014 Q921.775 96.3305 932.365 96.3305 Q938.5 96.3305 944.229 94.8259 Q950.016 93.3213 955.687 90.312 L955.687 100.381 Q949.958 102.812 943.939 104.085 Q937.921 105.358 931.729 105.358 Q916.22 105.358 907.134 96.3305 Q898.106 87.3028 898.106 71.9093 Q898.106 55.9951 906.671 46.678 Q915.294 37.303 929.877 37.303 Q942.956 37.303 950.537 45.7521 Q958.175 54.1432 958.175 68.6107 M947.527 65.4858 Q947.412 56.7474 942.608 51.5391 Q937.863 46.3308 929.993 46.3308 Q921.081 46.3308 915.699 51.3655 Q910.375 56.4002 909.565 65.5436 L947.527 65.4858 Z" fill="#bebebe" fill-rule="evenodd" fill-opacity="1" /><path clip-path="url(#clip210)" d="M 0 0 M1006.9 48.8192 Q1005.11 47.7775 1002.97 47.3146 Q1000.88 46.7937 998.337 46.7937 Q989.31 46.7937 984.448 52.6965 Q979.645 58.5414 979.645 69.5367 L979.645 103.68 L968.939 103.68 L968.939 38.8655 L979.645 38.8655 L979.645 48.9349 Q983.002 43.0322 988.384 40.1965 Q993.766 37.303 1001.46 37.303 Q1002.56 37.303 1003.89 37.4767 Q1005.22 37.5924 1006.84 37.8817 L1006.9 48.8192 Z" fill="#bebebe" fill-rule="evenodd" fill-opacity="1" /><path clip-path="url(#clip210)" d="M 0 0 M1018.07 38.8655 L1028.72 38.8655 L1028.72 103.68 L1018.07 103.68 L1018.07 38.8655 M1018.07 13.6342 L1028.72 13.6342 L1028.72 27.1179 L1018.07 27.1179 L1018.07 13.6342 Z" fill="#bebebe" fill-rule="evenodd" fill-opacity="1" /><path clip-path="url(#clip210)" d="M 0 0 M1095.33 68.6107 L1095.33 73.819 L1046.37 73.819 Q1047.06 84.8144 1052.97 90.6014 Q1058.93 96.3305 1069.52 96.3305 Q1075.65 96.3305 1081.38 94.8259 Q1087.17 93.3213 1092.84 90.312 L1092.84 100.381 Q1087.11 102.812 1081.09 104.085 Q1075.07 105.358 1068.88 105.358 Q1053.37 105.358 1044.29 96.3305 Q1035.26 87.3028 1035.26 71.9093 Q1035.26 55.9951 1043.82 46.678 Q1052.45 37.303 1067.03 37.303 Q1080.11 37.303 1087.69 45.7521 Q1095.33 54.1432 1095.33 68.6107 M1084.68 65.4858 Q1084.56 56.7474 1079.76 51.5391 Q1075.02 46.3308 1067.14 46.3308 Q1058.23 46.3308 1052.85 51.3655 Q1047.53 56.4002 1046.72 65.5436 L1084.68 65.4858 Z" fill="#bebebe" fill-rule="evenodd" fill-opacity="1" /><path clip-path="url(#clip210)" d="M 0 0 M1154.24 17.28 L1154.24 49.3979 L1144.4 49.3979 L1144.4 17.28 L1154.24 17.28 Z" fill="#bebebe" fill-rule="evenodd" fill-opacity="1" /><path clip-path="url(#clip210)" d="M 0 0 M1219.29 64.5598 L1219.29 103.68 L1208.64 103.68 L1208.64 64.9071 Q1208.64 55.7057 1205.05 51.134 Q1201.46 46.5623 1194.29 46.5623 Q1185.66 46.5623 1180.69 52.0599 Q1175.71 57.5576 1175.71 67.0483 L1175.71 103.68 L1165 103.68 L1165 13.6342 L1175.71 13.6342 L1175.71 48.9349 Q1179.53 43.09 1184.68 40.1965 Q1189.89 37.303 1196.66 37.303 Q1207.83 37.303 1213.56 44.2474 Q1219.29 51.134 1219.29 64.5598 Z" fill="#bebebe" fill-rule="evenodd" fill-opacity="1" /><path clip-path="url(#clip210)" d="M 0 0 M1230.45 38.8655 L1241.1 38.8655 L1241.1 103.68 L1230.45 103.68 L1230.45 38.8655 M1230.45 13.6342 L1241.1 13.6342 L1241.1 27.1179 L1230.45 27.1179 L1230.45 13.6342 Z" fill="#bebebe" fill-rule="evenodd" fill-opacity="1" /><path clip-path="url(#clip210)" d="M 0 0 M1293.59 40.7752 L1293.59 50.8446 Q1289.08 48.5298 1284.22 47.3724 Q1279.35 46.215 1274.15 46.215 Q1266.22 46.215 1262.22 48.6456 Q1258.29 51.0761 1258.29 55.9372 Q1258.29 59.6409 1261.13 61.7821 Q1263.96 63.8654 1272.53 65.7751 L1276.17 66.5853 Q1287.51 69.0158 1292.26 73.4718 Q1297.06 77.87 1297.06 85.7982 Q1297.06 94.8259 1289.89 100.092 Q1282.77 105.358 1270.27 105.358 Q1265.06 105.358 1259.39 104.317 Q1253.78 103.333 1247.53 101.307 L1247.53 90.312 Q1253.43 93.3791 1259.16 94.9416 Q1264.89 96.4462 1270.5 96.4462 Q1278.02 96.4462 1282.07 93.9 Q1286.13 91.2958 1286.13 86.6083 Q1286.13 82.2681 1283.17 79.9533 Q1280.28 77.6385 1270.38 75.4973 L1266.68 74.6292 Q1256.78 72.5459 1252.39 68.2635 Q1247.99 63.9233 1247.99 56.4002 Q1247.99 47.2567 1254.47 42.2799 Q1260.95 37.303 1272.87 37.303 Q1278.78 37.303 1283.98 38.1711 Q1289.19 39.0391 1293.59 40.7752 Z" fill="#bebebe" fill-rule="evenodd" fill-opacity="1" /><path clip-path="url(#clip210)" d="M 0 0 M1318.76 20.4629 L1318.76 38.8655 L1340.7 38.8655 L1340.7 47.141 L1318.76 47.141 L1318.76 82.3259 Q1318.76 90.2541 1320.91 92.5111 Q1323.1 94.768 1329.76 94.768 L1340.7 94.768 L1340.7 103.68 L1329.76 103.68 Q1317.43 103.68 1312.75 99.1083 Q1308.06 94.4787 1308.06 82.3259 L1308.06 47.141 L1300.25 47.141 L1300.25 38.8655 L1308.06 38.8655 L1308.06 20.4629 L1318.76 20.4629 Z" fill="#bebebe" fill-rule="evenodd" fill-opacity="1" /><path clip-path="url(#clip210)" d="M 0 0 M1376.98 46.3308 Q1368.42 46.3308 1363.44 53.0437 Q1358.46 59.6988 1358.46 71.3306 Q1358.46 82.9625 1363.38 89.6754 Q1368.36 96.3305 1376.98 96.3305 Q1385.49 96.3305 1390.46 89.6176 Q1395.44 82.9046 1395.44 71.3306 Q1395.44 59.8145 1390.46 53.1016 Q1385.49 46.3308 1376.98 46.3308 M1376.98 37.303 Q1390.87 37.303 1398.8 46.3308 Q1406.73 55.3585 1406.73 71.3306 Q1406.73 87.2449 1398.8 96.3305 Q1390.87 105.358 1376.98 105.358 Q1363.03 105.358 1355.11 96.3305 Q1347.24 87.2449 1347.24 71.3306 Q1347.24 55.3585 1355.11 46.3308 Q1363.03 37.303 1376.98 37.303 Z" fill="#bebebe" fill-rule="evenodd" fill-opacity="1" /><path clip-path="url(#clip210)" d="M 0 0 M1460.55 70.5205 Q1460.55 58.9464 1455.74 52.5807 Q1451 46.215 1442.37 46.215 Q1433.81 46.215 1429.01 52.5807 Q1424.26 58.9464 1424.26 70.5205 Q1424.26 82.0366 1429.01 88.4023 Q1433.81 94.768 1442.37 94.768 Q1451 94.768 1455.74 88.4023 Q1460.55 82.0366 1460.55 70.5205 M1471.19 95.6361 Q1471.19 112.187 1463.84 120.231 Q1456.49 128.333 1441.33 128.333 Q1435.72 128.333 1430.74 127.465 Q1425.77 126.654 1421.08 124.918 L1421.08 114.56 Q1425.77 117.106 1430.34 118.321 Q1434.91 119.536 1439.65 119.536 Q1450.13 119.536 1455.34 114.039 Q1460.55 108.599 1460.55 97.5458 L1460.55 92.2796 Q1457.25 98.0087 1452.1 100.844 Q1446.95 103.68 1439.77 103.68 Q1427.85 103.68 1420.56 94.5944 Q1413.27 85.5088 1413.27 70.5205 Q1413.27 55.4742 1420.56 46.3886 Q1427.85 37.303 1439.77 37.303 Q1446.95 37.303 1452.1 40.1387 Q1457.25 42.9743 1460.55 48.7034 L1460.55 38.8655 L1471.19 38.8655 L1471.19 95.6361 Z" fill="#bebebe" fill-rule="evenodd" fill-opacity="1" /><path clip-path="url(#clip210)" d="M 0 0 M1519.92 48.8192 Q1518.13 47.7775 1515.98 47.3146 Q1513.9 46.7937 1511.36 46.7937 Q1502.33 46.7937 1497.47 52.6965 Q1492.66 58.5414 1492.66 69.5367 L1492.66 103.68 L1481.96 103.68 L1481.96 38.8655 L1492.66 38.8655 L1492.66 48.9349 Q1496.02 43.0322 1501.4 40.1965 Q1506.78 37.303 1514.48 37.303 Q1515.58 37.303 1516.91 37.4767 Q1518.24 37.5924 1519.86 37.8817 L1519.92 48.8192 Z" fill="#bebebe" fill-rule="evenodd" fill-opacity="1" /><path clip-path="url(#clip210)" d="M 0 0 M1560.54 71.0992 Q1547.64 71.0992 1542.66 74.0505 Q1537.69 77.0019 1537.69 84.1199 Q1537.69 89.7912 1541.39 93.1476 Q1545.15 96.4462 1551.58 96.4462 Q1560.43 96.4462 1565.75 90.1963 Q1571.14 83.8884 1571.14 73.4718 L1571.14 71.0992 L1560.54 71.0992 M1581.78 66.701 L1581.78 103.68 L1571.14 103.68 L1571.14 93.8421 Q1567.49 99.7448 1562.05 102.58 Q1556.61 105.358 1548.74 105.358 Q1538.79 105.358 1532.88 99.8027 Q1527.04 94.1893 1527.04 84.8144 Q1527.04 73.8769 1534.33 68.3214 Q1541.68 62.7659 1556.2 62.7659 L1571.14 62.7659 L1571.14 61.7242 Q1571.14 54.3747 1566.27 50.3817 Q1561.47 46.3308 1552.73 46.3308 Q1547.18 46.3308 1541.91 47.6618 Q1536.64 48.9928 1531.78 51.6548 L1531.78 41.8169 Q1537.63 39.56 1543.13 38.4604 Q1548.62 37.303 1553.83 37.303 Q1567.89 37.303 1574.84 44.5947 Q1581.78 51.8863 1581.78 66.701 Z" fill="#bebebe" fill-rule="evenodd" fill-opacity="1" /><path clip-path="url(#clip210)" d="M 0 0 M1643.41 51.3076 Q1647.41 44.1317 1652.96 40.7174 Q1658.52 37.303 1666.04 37.303 Q1676.17 37.303 1681.67 44.4211 Q1687.16 51.4812 1687.16 64.5598 L1687.16 103.68 L1676.46 103.68 L1676.46 64.9071 Q1676.46 55.59 1673.16 51.0761 Q1669.86 46.5623 1663.09 46.5623 Q1654.82 46.5623 1650.01 52.0599 Q1645.21 57.5576 1645.21 67.0483 L1645.21 103.68 L1634.5 103.68 L1634.5 64.9071 Q1634.5 55.5321 1631.2 51.0761 Q1627.91 46.5623 1621.02 46.5623 Q1612.86 46.5623 1608.06 52.1178 Q1603.25 57.6154 1603.25 67.0483 L1603.25 103.68 L1592.55 103.68 L1592.55 38.8655 L1603.25 38.8655 L1603.25 48.9349 Q1606.9 42.9743 1611.99 40.1387 Q1617.08 37.303 1624.09 37.303 Q1631.15 37.303 1636.07 40.891 Q1641.04 44.4789 1643.41 51.3076 Z" fill="#bebebe" fill-rule="evenodd" fill-opacity="1" /><path clip-path="url(#clip210)" d="M 0 0 M1708.4 17.28 L1708.4 49.3979 L1698.57 49.3979 L1698.57 17.28 L1708.4 17.28 Z" fill="#bebebe" fill-rule="evenodd" fill-opacity="1" /><path clip-path="url(#clip212)" d="
M305.546 1444.41 L305.546 1444.41 L397.359 1444.41 L397.359 1444.41 L305.546 1444.41 L305.546 1444.41  Z
  " fill="#ff0000" fill-rule="evenodd" fill-opacity="1"/>
<polyline clip-path="url(#clip212)" style="stroke:#000000; stroke-width:4; stroke-opacity:1; fill:none" points="
  305.546,1444.41 305.546,1444.41 397.359,1444.41 305.546,1444.41 
  "/>
<path clip-path="url(#clip212)" d="
M397.359 1057.55 L397.359 1444.41 L489.171 1444.41 L489.171 1057.55 L397.359 1057.55 L397.359 1057.55  Z
  " fill="#ffa500" fill-rule="evenodd" fill-opacity="1"/>
<polyline clip-path="url(#clip212)" style="stroke:#000000; stroke-width:4; stroke-opacity:1; fill:none" points="
  397.359,1057.55 397.359,1444.41 489.171,1444.41 489.171,1057.55 397.359,1057.55 
  "/>
<path clip-path="url(#clip212)" d="
M489.171 1057.55 L489.171 1444.41 L580.983 1444.41 L580.983 1057.55 L489.171 1057.55 L489.171 1057.55  Z
  " fill="#008000" fill-rule="evenodd" fill-opacity="1"/>
<polyline clip-path="url(#clip212)" style="stroke:#000000; stroke-width:4; stroke-opacity:1; fill:none" points="
  489.171,1057.55 489.171,1444.41 580.983,1444.41 580.983,1057.55 489.171,1057.55 
  "/>
<path clip-path="url(#clip212)" d="
M580.983 1250.98 L580.983 1444.41 L672.795 1444.41 L672.795 1250.98 L580.983 1250.98 L580.983 1250.98  Z
  " fill="#ff0000" fill-rule="evenodd" fill-opacity="1"/>
<polyline clip-path="url(#clip212)" style="stroke:#000000; stroke-width:4; stroke-opacity:1; fill:none" points="
  580.983,1250.98 580.983,1444.41 672.795,1444.41 672.795,1250.98 580.983,1250.98 
  "/>
<path clip-path="url(#clip212)" d="
M672.795 1154.26 L672.795 1444.41 L764.607 1444.41 L764.607 1154.26 L672.795 1154.26 L672.795 1154.26  Z
  " fill="#ffa500" fill-rule="evenodd" fill-opacity="1"/>
<polyline clip-path="url(#clip212)" style="stroke:#000000; stroke-width:4; stroke-opacity:1; fill:none" points="
  672.795,1154.26 672.795,1444.41 764.607,1444.41 764.607,1154.26 672.795,1154.26 
  "/>
<path clip-path="url(#clip212)" d="
M764.607 960.833 L764.607 1444.41 L856.419 1444.41 L856.419 960.833 L764.607 960.833 L764.607 960.833  Z
  " fill="#008000" fill-rule="evenodd" fill-opacity="1"/>
<polyline clip-path="url(#clip212)" style="stroke:#000000; stroke-width:4; stroke-opacity:1; fill:none" points="
  764.607,960.833 764.607,1444.41 856.419,1444.41 856.419,960.833 764.607,960.833 
  "/>
<path clip-path="url(#clip212)" d="
M856.419 1154.26 L856.419 1444.41 L948.232 1444.41 L948.232 1154.26 L856.419 1154.26 L856.419 1154.26  Z
  " fill="#ff0000" fill-rule="evenodd" fill-opacity="1"/>
<polyline clip-path="url(#clip212)" style="stroke:#000000; stroke-width:4; stroke-opacity:1; fill:none" points="
  856.419,1154.26 856.419,1444.41 948.232,1444.41 948.232,1154.26 856.419,1154.26 
  "/>
<path clip-path="url(#clip212)" d="
M948.232 670.687 L948.232 1444.41 L1040.04 1444.41 L1040.04 670.687 L948.232 670.687 L948.232 670.687  Z
  " fill="#ffa500" fill-rule="evenodd" fill-opacity="1"/>
<polyline clip-path="url(#clip212)" style="stroke:#000000; stroke-width:4; stroke-opacity:1; fill:none" points="
  948.232,670.687 948.232,1444.41 1040.04,1444.41 1040.04,670.687 948.232,670.687 
  "/>
<path clip-path="url(#clip212)" d="
M1040.04 1347.69 L1040.04 1444.41 L1131.86 1444.41 L1131.86 1347.69 L1040.04 1347.69 L1040.04 1347.69  Z
  " fill="#008000" fill-rule="evenodd" fill-opacity="1"/>
<polyline clip-path="url(#clip212)" style="stroke:#000000; stroke-width:4; stroke-opacity:1; fill:none" points="
  1040.04,1347.69 1040.04,1444.41 1131.86,1444.41 1131.86,1347.69 1040.04,1347.69 
  "/>
<path clip-path="url(#clip212)" d="
M1131.86 670.687 L1131.86 1444.41 L1223.67 1444.41 L1223.67 670.687 L1131.86 670.687 L1131.86 670.687  Z
  " fill="#ff0000" fill-rule="evenodd" fill-opacity="1"/>
<polyline clip-path="url(#clip212)" style="stroke:#000000; stroke-width:4; stroke-opacity:1; fill:none" points="
  1131.86,670.687 1131.86,1444.41 1223.67,1444.41 1223.67,670.687 1131.86,670.687 
  "/>
<path clip-path="url(#clip212)" d="
M1223.67 960.833 L1223.67 1444.41 L1315.48 1444.41 L1315.48 960.833 L1223.67 960.833 L1223.67 960.833  Z
  " fill="#ffa500" fill-rule="evenodd" fill-opacity="1"/>
<polyline clip-path="url(#clip212)" style="stroke:#000000; stroke-width:4; stroke-opacity:1; fill:none" points="
  1223.67,960.833 1223.67,1444.41 1315.48,1444.41 1315.48,960.833 1223.67,960.833 
  "/>
<path clip-path="url(#clip212)" d="
M1315.48 187.111 L1315.48 1444.41 L1407.29 1444.41 L1407.29 187.111 L1315.48 187.111 L1315.48 187.111  Z
  " fill="#008000" fill-rule="evenodd" fill-opacity="1"/>
<polyline clip-path="url(#clip212)" style="stroke:#000000; stroke-width:4; stroke-opacity:1; fill:none" points="
  1315.48,187.111 1315.48,1444.41 1407.29,1444.41 1407.29,187.111 1315.48,187.111 
  "/>
<path clip-path="url(#clip212)" d="
M1407.29 767.402 L1407.29 1444.41 L1499.1 1444.41 L1499.1 767.402 L1407.29 767.402 L1407.29 767.402  Z
  " fill="#ff0000" fill-rule="evenodd" fill-opacity="1"/>
<polyline clip-path="url(#clip212)" style="stroke:#000000; stroke-width:4; stroke-opacity:1; fill:none" points="
  1407.29,767.402 1407.29,1444.41 1499.1,1444.41 1499.1,767.402 1407.29,767.402 
  "/>
<path clip-path="url(#clip212)" d="
M1499.1 1154.26 L1499.1 1444.41 L1590.92 1444.41 L1590.92 1154.26 L1499.1 1154.26 L1499.1 1154.26  Z
  " fill="#ffa500" fill-rule="evenodd" fill-opacity="1"/>
<polyline clip-path="url(#clip212)" style="stroke:#000000; stroke-width:4; stroke-opacity:1; fill:none" points="
  1499.1,1154.26 1499.1,1444.41 1590.92,1444.41 1590.92,1154.26 1499.1,1154.26 
  "/>
<path clip-path="url(#clip212)" d="
M1590.92 1250.98 L1590.92 1444.41 L1682.73 1444.41 L1682.73 1250.98 L1590.92 1250.98 L1590.92 1250.98  Z
  " fill="#008000" fill-rule="evenodd" fill-opacity="1"/>
<polyline clip-path="url(#clip212)" style="stroke:#000000; stroke-width:4; stroke-opacity:1; fill:none" points="
  1590.92,1250.98 1590.92,1444.41 1682.73,1444.41 1682.73,1250.98 1590.92,1250.98 
  "/>
<path clip-path="url(#clip212)" d="
M1682.73 670.687 L1682.73 1444.41 L1774.54 1444.41 L1774.54 670.687 L1682.73 670.687 L1682.73 670.687  Z
  " fill="#ff0000" fill-rule="evenodd" fill-opacity="1"/>
<polyline clip-path="url(#clip212)" style="stroke:#000000; stroke-width:4; stroke-opacity:1; fill:none" points="
  1682.73,670.687 1682.73,1444.41 1774.54,1444.41 1774.54,670.687 1682.73,670.687 
  "/>
<path clip-path="url(#clip212)" d="
M1774.54 1250.98 L1774.54 1444.41 L1866.35 1444.41 L1866.35 1250.98 L1774.54 1250.98 L1774.54 1250.98  Z
  " fill="#ffa500" fill-rule="evenodd" fill-opacity="1"/>
<polyline clip-path="url(#clip212)" style="stroke:#000000; stroke-width:4; stroke-opacity:1; fill:none" points="
  1774.54,1250.98 1774.54,1444.41 1866.35,1444.41 1866.35,1250.98 1774.54,1250.98 
  "/>
<path clip-path="url(#clip212)" d="
M1866.35 864.118 L1866.35 1444.41 L1958.17 1444.41 L1958.17 864.118 L1866.35 864.118 L1866.35 864.118  Z
  " fill="#008000" fill-rule="evenodd" fill-opacity="1"/>
<polyline clip-path="url(#clip212)" style="stroke:#000000; stroke-width:4; stroke-opacity:1; fill:none" points="
  1866.35,864.118 1866.35,1444.41 1958.17,1444.41 1958.17,864.118 1866.35,864.118 
  "/>
<path clip-path="url(#clip212)" d="
M1958.17 864.118 L1958.17 1444.41 L2049.98 1444.41 L2049.98 864.118 L1958.17 864.118 L1958.17 864.118  Z
  " fill="#ff0000" fill-rule="evenodd" fill-opacity="1"/>
<polyline clip-path="url(#clip212)" style="stroke:#000000; stroke-width:4; stroke-opacity:1; fill:none" points="
  1958.17,864.118 1958.17,1444.41 2049.98,1444.41 2049.98,864.118 1958.17,864.118 
  "/>
<path clip-path="url(#clip212)" d="
M2049.98 960.833 L2049.98 1444.41 L2141.79 1444.41 L2141.79 960.833 L2049.98 960.833 L2049.98 960.833  Z
  " fill="#ffa500" fill-rule="evenodd" fill-opacity="1"/>
<polyline clip-path="url(#clip212)" style="stroke:#000000; stroke-width:4; stroke-opacity:1; fill:none" points="
  2049.98,960.833 2049.98,1444.41 2141.79,1444.41 2141.79,960.833 2049.98,960.833 
  "/>
<path clip-path="url(#clip212)" d="
M2141.79 960.833 L2141.79 1444.41 L2233.6 1444.41 L2233.6 960.833 L2141.79 960.833 L2141.79 960.833  Z
  " fill="#008000" fill-rule="evenodd" fill-opacity="1"/>
<polyline clip-path="url(#clip212)" style="stroke:#000000; stroke-width:4; stroke-opacity:1; fill:none" points="
  2141.79,960.833 2141.79,1444.41 2233.6,1444.41 2233.6,960.833 2141.79,960.833 
  "/>
</svg>
