<?xml version="1.0" encoding="utf-8"?>
<svg xmlns="http://www.w3.org/2000/svg" xmlns:xlink="http://www.w3.org/1999/xlink" width="600" height="400" viewBox="0 0 2400 1600">
<defs>
  <clipPath id="clip510">
    <rect x="0" y="0" width="2400" height="1600"/>
  </clipPath>
</defs>
<path clip-path="url(#clip510)" d="
M0 1600 L2400 1600 L2400 0 L0 0  Z
  " fill="#ffffff" fill-rule="evenodd" fill-opacity="1"/>
<defs>
  <clipPath id="clip511">
    <rect x="480" y="0" width="1681" height="1600"/>
  </clipPath>
</defs>
<path clip-path="url(#clip510)" d="
M216.236 1482.13 L2352.76 1482.13 L2352.76 149.392 L216.236 149.392  Z
  " fill="#ffffff" fill-rule="evenodd" fill-opacity="1"/>
<defs>
  <clipPath id="clip512">
    <rect x="216" y="149" width="2138" height="1334"/>
  </clipPath>
</defs>
<polyline clip-path="url(#clip512)" style="stroke:#000000; stroke-width:2; stroke-opacity:0.1; fill:none" points="
  469.57,1482.13 469.57,149.392 
  "/>
<polyline clip-path="url(#clip512)" style="stroke:#000000; stroke-width:2; stroke-opacity:0.1; fill:none" points="
  560.117,1482.13 560.117,149.392 
  "/>
<polyline clip-path="url(#clip512)" style="stroke:#000000; stroke-width:2; stroke-opacity:0.1; fill:none" points="
  650.664,1482.13 650.664,149.392 
  "/>
<polyline clip-path="url(#clip512)" style="stroke:#000000; stroke-width:2; stroke-opacity:0.1; fill:none" points="
  741.212,1482.13 741.212,149.392 
  "/>
<polyline clip-path="url(#clip512)" style="stroke:#000000; stroke-width:2; stroke-opacity:0.1; fill:none" points="
  831.759,1482.13 831.759,149.392 
  "/>
<polyline clip-path="url(#clip512)" style="stroke:#000000; stroke-width:2; stroke-opacity:0.1; fill:none" points="
  922.307,1482.13 922.307,149.392 
  "/>
<polyline clip-path="url(#clip512)" style="stroke:#000000; stroke-width:2; stroke-opacity:0.1; fill:none" points="
  1012.85,1482.13 1012.85,149.392 
  "/>
<polyline clip-path="url(#clip512)" style="stroke:#000000; stroke-width:2; stroke-opacity:0.1; fill:none" points="
  1103.4,1482.13 1103.4,149.392 
  "/>
<polyline clip-path="url(#clip512)" style="stroke:#000000; stroke-width:2; stroke-opacity:0.1; fill:none" points="
  1193.95,1482.13 1193.95,149.392 
  "/>
<polyline clip-path="url(#clip512)" style="stroke:#000000; stroke-width:2; stroke-opacity:0.1; fill:none" points="
  1284.5,1482.13 1284.5,149.392 
  "/>
<polyline clip-path="url(#clip512)" style="stroke:#000000; stroke-width:2; stroke-opacity:0.1; fill:none" points="
  1375.04,1482.13 1375.04,149.392 
  "/>
<polyline clip-path="url(#clip512)" style="stroke:#000000; stroke-width:2; stroke-opacity:0.1; fill:none" points="
  1465.59,1482.13 1465.59,149.392 
  "/>
<polyline clip-path="url(#clip512)" style="stroke:#000000; stroke-width:2; stroke-opacity:0.1; fill:none" points="
  1556.14,1482.13 1556.14,149.392 
  "/>
<polyline clip-path="url(#clip512)" style="stroke:#000000; stroke-width:2; stroke-opacity:0.1; fill:none" points="
  1646.69,1482.13 1646.69,149.392 
  "/>
<polyline clip-path="url(#clip512)" style="stroke:#000000; stroke-width:2; stroke-opacity:0.1; fill:none" points="
  1737.23,1482.13 1737.23,149.392 
  "/>
<polyline clip-path="url(#clip512)" style="stroke:#000000; stroke-width:2; stroke-opacity:0.1; fill:none" points="
  1827.78,1482.13 1827.78,149.392 
  "/>
<polyline clip-path="url(#clip512)" style="stroke:#000000; stroke-width:2; stroke-opacity:0.1; fill:none" points="
  1918.33,1482.13 1918.33,149.392 
  "/>
<polyline clip-path="url(#clip512)" style="stroke:#000000; stroke-width:2; stroke-opacity:0.1; fill:none" points="
  2008.88,1482.13 2008.88,149.392 
  "/>
<polyline clip-path="url(#clip512)" style="stroke:#000000; stroke-width:2; stroke-opacity:0.1; fill:none" points="
  2099.42,1482.13 2099.42,149.392 
  "/>
<polyline clip-path="url(#clip512)" style="stroke:#000000; stroke-width:2; stroke-opacity:0.1; fill:none" points="
  2189.97,1482.13 2189.97,149.392 
  "/>
<polyline clip-path="url(#clip512)" style="stroke:#000000; stroke-width:2; stroke-opacity:0.1; fill:none" points="
  2280.52,1482.13 2280.52,149.392 
  "/>
<polyline clip-path="url(#clip510)" style="stroke:#000000; stroke-width:4; stroke-opacity:1; fill:none" points="
  216.236,1482.13 2352.76,1482.13 
  "/>
<polyline clip-path="url(#clip510)" style="stroke:#000000; stroke-width:4; stroke-opacity:1; fill:none" points="
  469.57,1482.13 469.57,1466.14 
  "/>
<polyline clip-path="url(#clip510)" style="stroke:#000000; stroke-width:4; stroke-opacity:1; fill:none" points="
  560.117,1482.13 560.117,1466.14 
  "/>
<polyline clip-path="url(#clip510)" style="stroke:#000000; stroke-width:4; stroke-opacity:1; fill:none" points="
  650.664,1482.13 650.664,1466.14 
  "/>
<polyline clip-path="url(#clip510)" style="stroke:#000000; stroke-width:4; stroke-opacity:1; fill:none" points="
  741.212,1482.13 741.212,1466.14 
  "/>
<polyline clip-path="url(#clip510)" style="stroke:#000000; stroke-width:4; stroke-opacity:1; fill:none" points="
  831.759,1482.13 831.759,1466.14 
  "/>
<polyline clip-path="url(#clip510)" style="stroke:#000000; stroke-width:4; stroke-opacity:1; fill:none" points="
  922.307,1482.13 922.307,1466.14 
  "/>
<polyline clip-path="url(#clip510)" style="stroke:#000000; stroke-width:4; stroke-opacity:1; fill:none" points="
  1012.85,1482.13 1012.85,1466.14 
  "/>
<polyline clip-path="url(#clip510)" style="stroke:#000000; stroke-width:4; stroke-opacity:1; fill:none" points="
  1103.4,1482.13 1103.4,1466.14 
  "/>
<polyline clip-path="url(#clip510)" style="stroke:#000000; stroke-width:4; stroke-opacity:1; fill:none" points="
  1193.95,1482.13 1193.95,1466.14 
  "/>
<polyline clip-path="url(#clip510)" style="stroke:#000000; stroke-width:4; stroke-opacity:1; fill:none" points="
  1284.5,1482.13 1284.5,1466.14 
  "/>
<polyline clip-path="url(#clip510)" style="stroke:#000000; stroke-width:4; stroke-opacity:1; fill:none" points="
  1375.04,1482.13 1375.04,1466.14 
  "/>
<polyline clip-path="url(#clip510)" style="stroke:#000000; stroke-width:4; stroke-opacity:1; fill:none" points="
  1465.59,1482.13 1465.59,1466.14 
  "/>
<polyline clip-path="url(#clip510)" style="stroke:#000000; stroke-width:4; stroke-opacity:1; fill:none" points="
  1556.14,1482.13 1556.14,1466.14 
  "/>
<polyline clip-path="url(#clip510)" style="stroke:#000000; stroke-width:4; stroke-opacity:1; fill:none" points="
  1646.69,1482.13 1646.69,1466.14 
  "/>
<polyline clip-path="url(#clip510)" style="stroke:#000000; stroke-width:4; stroke-opacity:1; fill:none" points="
  1737.23,1482.13 1737.23,1466.14 
  "/>
<polyline clip-path="url(#clip510)" style="stroke:#000000; stroke-width:4; stroke-opacity:1; fill:none" points="
  1827.78,1482.13 1827.78,1466.14 
  "/>
<polyline clip-path="url(#clip510)" style="stroke:#000000; stroke-width:4; stroke-opacity:1; fill:none" points="
  1918.33,1482.13 1918.33,1466.14 
  "/>
<polyline clip-path="url(#clip510)" style="stroke:#000000; stroke-width:4; stroke-opacity:1; fill:none" points="
  2008.88,1482.13 2008.88,1466.14 
  "/>
<polyline clip-path="url(#clip510)" style="stroke:#000000; stroke-width:4; stroke-opacity:1; fill:none" points="
  2099.42,1482.13 2099.42,1466.14 
  "/>
<polyline clip-path="url(#clip510)" style="stroke:#000000; stroke-width:4; stroke-opacity:1; fill:none" points="
  2189.97,1482.13 2189.97,1466.14 
  "/>
<polyline clip-path="url(#clip510)" style="stroke:#000000; stroke-width:4; stroke-opacity:1; fill:none" points="
  2280.52,1482.13 2280.52,1466.14 
  "/>
<path clip-path="url(#clip510)" d="M 0 0 M458.749 1543.56 L467.343 1543.56 L467.343 1513.9 L457.994 1515.77 L457.994 1510.98 L467.291 1509.1 L472.551 1509.1 L472.551 1543.56 L481.145 1543.56 L481.145 1547.98 L458.749 1547.98 L458.749 1543.56 Z" fill="#bebebe" fill-rule="evenodd" fill-opacity="1" /><path clip-path="url(#clip510)" d="M 0 0 M554.101 1543.56 L572.461 1543.56 L572.461 1547.98 L547.773 1547.98 L547.773 1543.56 Q550.768 1540.46 555.924 1535.25 Q561.107 1530.02 562.435 1528.5 Q564.961 1525.67 565.95 1523.71 Q566.966 1521.73 566.966 1519.83 Q566.966 1516.73 564.778 1514.78 Q562.617 1512.83 559.127 1512.83 Q556.654 1512.83 553.893 1513.69 Q551.159 1514.55 548.034 1516.29 L548.034 1510.98 Q551.211 1509.7 553.971 1509.05 Q556.732 1508.4 559.023 1508.4 Q565.065 1508.4 568.659 1511.42 Q572.252 1514.44 572.252 1519.49 Q572.252 1521.89 571.341 1524.05 Q570.456 1526.19 568.086 1529.1 Q567.435 1529.86 563.945 1533.48 Q560.456 1537.07 554.101 1543.56 Z" fill="#bebebe" fill-rule="evenodd" fill-opacity="1" /><path clip-path="url(#clip510)" d="M 0 0 M655.443 1527.02 Q659.219 1527.83 661.328 1530.38 Q663.464 1532.93 663.464 1536.68 Q663.464 1542.44 659.506 1545.59 Q655.547 1548.74 648.256 1548.74 Q645.808 1548.74 643.204 1548.24 Q640.625 1547.78 637.865 1546.81 L637.865 1541.73 Q640.053 1543.01 642.657 1543.66 Q645.261 1544.31 648.099 1544.31 Q653.047 1544.31 655.625 1542.36 Q658.229 1540.41 658.229 1536.68 Q658.229 1533.24 655.808 1531.32 Q653.412 1529.36 649.115 1529.36 L644.584 1529.36 L644.584 1525.04 L649.323 1525.04 Q653.203 1525.04 655.261 1523.5 Q657.318 1521.94 657.318 1519.03 Q657.318 1516.03 655.183 1514.44 Q653.073 1512.83 649.115 1512.83 Q646.954 1512.83 644.48 1513.3 Q642.006 1513.77 639.037 1514.75 L639.037 1510.07 Q642.032 1509.23 644.636 1508.82 Q647.266 1508.4 649.584 1508.4 Q655.573 1508.4 659.063 1511.14 Q662.552 1513.84 662.552 1518.48 Q662.552 1521.71 660.703 1523.95 Q658.854 1526.16 655.443 1527.02 Z" fill="#bebebe" fill-rule="evenodd" fill-opacity="1" /><path clip-path="url(#clip510)" d="M 0 0 M744.597 1513.69 L731.316 1534.44 L744.597 1534.44 L744.597 1513.69 M743.217 1509.1 L749.832 1509.1 L749.832 1534.44 L755.378 1534.44 L755.378 1538.82 L749.832 1538.82 L749.832 1547.98 L744.597 1547.98 L744.597 1538.82 L727.045 1538.82 L727.045 1533.74 L743.217 1509.1 Z" fill="#bebebe" fill-rule="evenodd" fill-opacity="1" /><path clip-path="url(#clip510)" d="M 0 0 M820.822 1509.1 L841.473 1509.1 L841.473 1513.53 L825.639 1513.53 L825.639 1523.06 Q826.785 1522.67 827.931 1522.49 Q829.077 1522.28 830.223 1522.28 Q836.733 1522.28 840.535 1525.85 Q844.337 1529.42 844.337 1535.51 Q844.337 1541.79 840.431 1545.28 Q836.525 1548.74 829.415 1548.74 Q826.968 1548.74 824.415 1548.32 Q821.889 1547.91 819.181 1547.07 L819.181 1541.79 Q821.525 1543.06 824.025 1543.69 Q826.525 1544.31 829.311 1544.31 Q833.816 1544.31 836.447 1541.94 Q839.077 1539.57 839.077 1535.51 Q839.077 1531.45 836.447 1529.08 Q833.816 1526.71 829.311 1526.71 Q827.202 1526.71 825.093 1527.18 Q823.009 1527.65 820.822 1528.64 L820.822 1509.1 Z" fill="#bebebe" fill-rule="evenodd" fill-opacity="1" /><path clip-path="url(#clip510)" d="M 0 0 M922.762 1526.45 Q919.221 1526.45 917.137 1528.87 Q915.08 1531.29 915.08 1535.51 Q915.08 1539.7 917.137 1542.15 Q919.221 1544.57 922.762 1544.57 Q926.304 1544.57 928.361 1542.15 Q930.445 1539.7 930.445 1535.51 Q930.445 1531.29 928.361 1528.87 Q926.304 1526.45 922.762 1526.45 M933.205 1509.96 L933.205 1514.75 Q931.226 1513.82 929.195 1513.32 Q927.189 1512.83 925.21 1512.83 Q920.002 1512.83 917.241 1516.34 Q914.507 1519.86 914.116 1526.97 Q915.653 1524.7 917.971 1523.5 Q920.288 1522.28 923.075 1522.28 Q928.934 1522.28 932.32 1525.85 Q935.731 1529.39 935.731 1535.51 Q935.731 1541.5 932.189 1545.12 Q928.648 1548.74 922.762 1548.74 Q916.018 1548.74 912.45 1543.58 Q908.882 1538.4 908.882 1528.58 Q908.882 1519.36 913.257 1513.9 Q917.632 1508.4 925.002 1508.4 Q926.981 1508.4 928.986 1508.79 Q931.017 1509.18 933.205 1509.96 Z" fill="#bebebe" fill-rule="evenodd" fill-opacity="1" /><path clip-path="url(#clip510)" d="M 0 0 M1000.35 1509.1 L1025.35 1509.1 L1025.35 1511.34 L1011.24 1547.98 L1005.74 1547.98 L1019.03 1513.53 L1000.35 1513.53 L1000.35 1509.1 Z" fill="#bebebe" fill-rule="evenodd" fill-opacity="1" /><path clip-path="url(#clip510)" d="M 0 0 M1103.4 1529.52 Q1099.65 1529.52 1097.49 1531.53 Q1095.35 1533.53 1095.35 1537.05 Q1095.35 1540.56 1097.49 1542.57 Q1099.65 1544.57 1103.4 1544.57 Q1107.15 1544.57 1109.31 1542.57 Q1111.47 1540.54 1111.47 1537.05 Q1111.47 1533.53 1109.31 1531.53 Q1107.18 1529.52 1103.4 1529.52 M1098.14 1527.28 Q1094.76 1526.45 1092.85 1524.13 Q1090.98 1521.81 1090.98 1518.48 Q1090.98 1513.82 1094.29 1511.11 Q1097.62 1508.4 1103.4 1508.4 Q1109.21 1508.4 1112.52 1511.11 Q1115.82 1513.82 1115.82 1518.48 Q1115.82 1521.81 1113.92 1524.13 Q1112.05 1526.45 1108.69 1527.28 Q1112.49 1528.17 1114.6 1530.74 Q1116.73 1533.32 1116.73 1537.05 Q1116.73 1542.7 1113.27 1545.72 Q1109.83 1548.74 1103.4 1548.74 Q1096.97 1548.74 1093.51 1545.72 Q1090.07 1542.7 1090.07 1537.05 Q1090.07 1533.32 1092.2 1530.74 Q1094.34 1528.17 1098.14 1527.28 M1096.21 1518.97 Q1096.21 1521.99 1098.09 1523.69 Q1099.99 1525.38 1103.4 1525.38 Q1106.79 1525.38 1108.69 1523.69 Q1110.61 1521.99 1110.61 1518.97 Q1110.61 1515.95 1108.69 1514.26 Q1106.79 1512.57 1103.4 1512.57 Q1099.99 1512.57 1098.09 1514.26 Q1096.21 1515.95 1096.21 1518.97 Z" fill="#bebebe" fill-rule="evenodd" fill-opacity="1" /><path clip-path="url(#clip510)" d="M 0 0 M1183.04 1547.18 L1183.04 1542.38 Q1185.02 1543.32 1187.05 1543.82 Q1189.08 1544.31 1191.03 1544.31 Q1196.24 1544.31 1198.97 1540.82 Q1201.74 1537.31 1202.13 1530.17 Q1200.62 1532.41 1198.3 1533.61 Q1195.98 1534.81 1193.17 1534.81 Q1187.33 1534.81 1183.92 1531.29 Q1180.54 1527.75 1180.54 1521.63 Q1180.54 1515.64 1184.08 1512.02 Q1187.62 1508.4 1193.51 1508.4 Q1200.25 1508.4 1203.79 1513.58 Q1207.36 1518.74 1207.36 1528.58 Q1207.36 1537.78 1202.99 1543.27 Q1198.64 1548.74 1191.27 1548.74 Q1189.29 1548.74 1187.26 1548.35 Q1185.22 1547.96 1183.04 1547.18 M1193.51 1530.69 Q1197.05 1530.69 1199.1 1528.27 Q1201.19 1525.85 1201.19 1521.63 Q1201.19 1517.44 1199.1 1515.02 Q1197.05 1512.57 1193.51 1512.57 Q1189.96 1512.57 1187.88 1515.02 Q1185.82 1517.44 1185.82 1521.63 Q1185.82 1525.85 1187.88 1528.27 Q1189.96 1530.69 1193.51 1530.69 Z" fill="#bebebe" fill-rule="evenodd" fill-opacity="1" /><path clip-path="url(#clip510)" d="M 0 0 M1258.48 1543.56 L1267.07 1543.56 L1267.07 1513.9 L1257.73 1515.77 L1257.73 1510.98 L1267.02 1509.1 L1272.28 1509.1 L1272.28 1543.56 L1280.88 1543.56 L1280.88 1547.98 L1258.48 1547.98 L1258.48 1543.56 Z" fill="#bebebe" fill-rule="evenodd" fill-opacity="1" /><path clip-path="url(#clip510)" d="M 0 0 M1297.83 1512.57 Q1293.77 1512.57 1291.71 1516.58 Q1289.68 1520.56 1289.68 1528.58 Q1289.68 1536.58 1291.71 1540.59 Q1293.77 1544.57 1297.83 1544.57 Q1301.92 1544.57 1303.95 1540.59 Q1306.01 1536.58 1306.01 1528.58 Q1306.01 1520.56 1303.95 1516.58 Q1301.92 1512.57 1297.83 1512.57 M1297.83 1508.4 Q1304.37 1508.4 1307.8 1513.58 Q1311.27 1518.74 1311.27 1528.58 Q1311.27 1538.4 1307.8 1543.58 Q1304.37 1548.74 1297.83 1548.74 Q1291.29 1548.74 1287.83 1543.58 Q1284.39 1538.4 1284.39 1528.58 Q1284.39 1518.74 1287.83 1513.58 Q1291.29 1508.4 1297.83 1508.4 Z" fill="#bebebe" fill-rule="evenodd" fill-opacity="1" /><path clip-path="url(#clip510)" d="M 0 0 M1349.72 1543.56 L1358.31 1543.56 L1358.31 1513.9 L1348.96 1515.77 L1348.96 1510.98 L1358.26 1509.1 L1363.52 1509.1 L1363.52 1543.56 L1372.11 1543.56 L1372.11 1547.98 L1349.72 1547.98 L1349.72 1543.56 Z" fill="#bebebe" fill-rule="evenodd" fill-opacity="1" /><path clip-path="url(#clip510)" d="M 0 0 M1378.73 1543.56 L1387.32 1543.56 L1387.32 1513.9 L1377.97 1515.77 L1377.97 1510.98 L1387.27 1509.1 L1392.53 1509.1 L1392.53 1543.56 L1401.12 1543.56 L1401.12 1547.98 L1378.73 1547.98 L1378.73 1543.56 Z" fill="#bebebe" fill-rule="evenodd" fill-opacity="1" /><path clip-path="url(#clip510)" d="M 0 0 M1440.47 1543.56 L1449.07 1543.56 L1449.07 1513.9 L1439.72 1515.77 L1439.72 1510.98 L1449.02 1509.1 L1454.28 1509.1 L1454.28 1543.56 L1462.87 1543.56 L1462.87 1547.98 L1440.47 1547.98 L1440.47 1543.56 Z" fill="#bebebe" fill-rule="evenodd" fill-opacity="1" /><path clip-path="url(#clip510)" d="M 0 0 M1473.1 1543.56 L1491.46 1543.56 L1491.46 1547.98 L1466.78 1547.98 L1466.78 1543.56 Q1469.77 1540.46 1474.93 1535.25 Q1480.11 1530.02 1481.44 1528.5 Q1483.96 1525.67 1484.95 1523.71 Q1485.97 1521.73 1485.97 1519.83 Q1485.97 1516.73 1483.78 1514.78 Q1481.62 1512.83 1478.13 1512.83 Q1475.66 1512.83 1472.9 1513.69 Q1470.16 1514.55 1467.04 1516.29 L1467.04 1510.98 Q1470.21 1509.7 1472.97 1509.05 Q1475.73 1508.4 1478.03 1508.4 Q1484.07 1508.4 1487.66 1511.42 Q1491.25 1514.44 1491.25 1519.49 Q1491.25 1521.89 1490.34 1524.05 Q1489.46 1526.19 1487.09 1529.1 Q1486.44 1529.86 1482.95 1533.48 Q1479.46 1537.07 1473.1 1543.56 Z" fill="#bebebe" fill-rule="evenodd" fill-opacity="1" /><path clip-path="url(#clip510)" d="M 0 0 M1530.49 1543.56 L1539.08 1543.56 L1539.08 1513.9 L1529.73 1515.77 L1529.73 1510.98 L1539.03 1509.1 L1544.29 1509.1 L1544.29 1543.56 L1552.88 1543.56 L1552.88 1547.98 L1530.49 1547.98 L1530.49 1543.56 Z" fill="#bebebe" fill-rule="evenodd" fill-opacity="1" /><path clip-path="url(#clip510)" d="M 0 0 M1574.52 1527.02 Q1578.3 1527.83 1580.41 1530.38 Q1582.54 1532.93 1582.54 1536.68 Q1582.54 1542.44 1578.59 1545.59 Q1574.63 1548.74 1567.34 1548.74 Q1564.89 1548.74 1562.28 1548.24 Q1559.71 1547.78 1556.95 1546.81 L1556.95 1541.73 Q1559.13 1543.01 1561.74 1543.66 Q1564.34 1544.31 1567.18 1544.31 Q1572.13 1544.31 1574.71 1542.36 Q1577.31 1540.41 1577.31 1536.68 Q1577.31 1533.24 1574.89 1531.32 Q1572.49 1529.36 1568.2 1529.36 L1563.66 1529.36 L1563.66 1525.04 L1568.4 1525.04 Q1572.28 1525.04 1574.34 1523.5 Q1576.4 1521.94 1576.4 1519.03 Q1576.4 1516.03 1574.26 1514.44 Q1572.15 1512.83 1568.2 1512.83 Q1566.03 1512.83 1563.56 1513.3 Q1561.09 1513.77 1558.12 1514.75 L1558.12 1510.07 Q1561.11 1509.23 1563.72 1508.82 Q1566.35 1508.4 1568.66 1508.4 Q1574.65 1508.4 1578.14 1511.14 Q1581.63 1513.84 1581.63 1518.48 Q1581.63 1521.71 1579.78 1523.95 Q1577.93 1526.16 1574.52 1527.02 Z" fill="#bebebe" fill-rule="evenodd" fill-opacity="1" /><path clip-path="url(#clip510)" d="M 0 0 M1620.4 1543.56 L1628.99 1543.56 L1628.99 1513.9 L1619.64 1515.77 L1619.64 1510.98 L1628.94 1509.1 L1634.2 1509.1 L1634.2 1543.56 L1642.79 1543.56 L1642.79 1547.98 L1620.4 1547.98 L1620.4 1543.56 Z" fill="#bebebe" fill-rule="evenodd" fill-opacity="1" /><path clip-path="url(#clip510)" d="M 0 0 M1662.95 1513.69 L1649.67 1534.44 L1662.95 1534.44 L1662.95 1513.69 M1661.57 1509.1 L1668.18 1509.1 L1668.18 1534.44 L1673.73 1534.44 L1673.73 1538.82 L1668.18 1538.82 L1668.18 1547.98 L1662.95 1547.98 L1662.95 1538.82 L1645.4 1538.82 L1645.4 1533.74 L1661.57 1509.1 Z" fill="#bebebe" fill-rule="evenodd" fill-opacity="1" /><path clip-path="url(#clip510)" d="M 0 0 M1711.78 1543.56 L1720.37 1543.56 L1720.37 1513.9 L1711.02 1515.77 L1711.02 1510.98 L1720.32 1509.1 L1725.58 1509.1 L1725.58 1543.56 L1734.17 1543.56 L1734.17 1547.98 L1711.78 1547.98 L1711.78 1543.56 Z" fill="#bebebe" fill-rule="evenodd" fill-opacity="1" /><path clip-path="url(#clip510)" d="M 0 0 M1739.93 1509.1 L1760.58 1509.1 L1760.58 1513.53 L1744.75 1513.53 L1744.75 1523.06 Q1745.89 1522.67 1747.04 1522.49 Q1748.18 1522.28 1749.33 1522.28 Q1755.84 1522.28 1759.64 1525.85 Q1763.44 1529.42 1763.44 1535.51 Q1763.44 1541.79 1759.54 1545.28 Q1755.63 1548.74 1748.52 1548.74 Q1746.07 1548.74 1743.52 1548.32 Q1741 1547.91 1738.29 1547.07 L1738.29 1541.79 Q1740.63 1543.06 1743.13 1543.69 Q1745.63 1544.31 1748.42 1544.31 Q1752.92 1544.31 1755.55 1541.94 Q1758.18 1539.57 1758.18 1535.51 Q1758.18 1531.45 1755.55 1529.08 Q1752.92 1526.71 1748.42 1526.71 Q1746.31 1526.71 1744.2 1527.18 Q1742.12 1527.65 1739.93 1528.64 L1739.93 1509.1 Z" fill="#bebebe" fill-rule="evenodd" fill-opacity="1" /><path clip-path="url(#clip510)" d="M 0 0 M1801.67 1543.56 L1810.27 1543.56 L1810.27 1513.9 L1800.92 1515.77 L1800.92 1510.98 L1810.22 1509.1 L1815.48 1509.1 L1815.48 1543.56 L1824.07 1543.56 L1824.07 1547.98 L1801.67 1547.98 L1801.67 1543.56 Z" fill="#bebebe" fill-rule="evenodd" fill-opacity="1" /><path clip-path="url(#clip510)" d="M 0 0 M1841.67 1526.45 Q1838.13 1526.45 1836.05 1528.87 Q1833.99 1531.29 1833.99 1535.51 Q1833.99 1539.7 1836.05 1542.15 Q1838.13 1544.57 1841.67 1544.57 Q1845.22 1544.57 1847.27 1542.15 Q1849.36 1539.7 1849.36 1535.51 Q1849.36 1531.29 1847.27 1528.87 Q1845.22 1526.45 1841.67 1526.45 M1852.12 1509.96 L1852.12 1514.75 Q1850.14 1513.82 1848.11 1513.32 Q1846.1 1512.83 1844.12 1512.83 Q1838.91 1512.83 1836.15 1516.34 Q1833.42 1519.86 1833.03 1526.97 Q1834.56 1524.7 1836.88 1523.5 Q1839.2 1522.28 1841.99 1522.28 Q1847.85 1522.28 1851.23 1525.85 Q1854.64 1529.39 1854.64 1535.51 Q1854.64 1541.5 1851.1 1545.12 Q1847.56 1548.74 1841.67 1548.74 Q1834.93 1548.74 1831.36 1543.58 Q1827.79 1538.4 1827.79 1528.58 Q1827.79 1519.36 1832.17 1513.9 Q1836.54 1508.4 1843.91 1508.4 Q1845.89 1508.4 1847.9 1508.79 Q1849.93 1509.18 1852.12 1509.96 Z" fill="#bebebe" fill-rule="evenodd" fill-opacity="1" /><path clip-path="url(#clip510)" d="M 0 0 M1892.82 1543.56 L1901.41 1543.56 L1901.41 1513.9 L1892.06 1515.77 L1892.06 1510.98 L1901.36 1509.1 L1906.62 1509.1 L1906.62 1543.56 L1915.22 1543.56 L1915.22 1547.98 L1892.82 1547.98 L1892.82 1543.56 Z" fill="#bebebe" fill-rule="evenodd" fill-opacity="1" /><path clip-path="url(#clip510)" d="M 0 0 M1919.59 1509.1 L1944.59 1509.1 L1944.59 1511.34 L1930.48 1547.98 L1924.98 1547.98 L1938.26 1513.53 L1919.59 1513.53 L1919.59 1509.1 Z" fill="#bebebe" fill-rule="evenodd" fill-opacity="1" /><path clip-path="url(#clip510)" d="M 0 0 M1982.91 1543.56 L1991.51 1543.56 L1991.51 1513.9 L1982.16 1515.77 L1982.16 1510.98 L1991.45 1509.1 L1996.71 1509.1 L1996.71 1543.56 L2005.31 1543.56 L2005.31 1547.98 L1982.91 1547.98 L1982.91 1543.56 Z" fill="#bebebe" fill-rule="evenodd" fill-opacity="1" /><path clip-path="url(#clip510)" d="M 0 0 M2022.26 1529.52 Q2018.51 1529.52 2016.35 1531.53 Q2014.21 1533.53 2014.21 1537.05 Q2014.21 1540.56 2016.35 1542.57 Q2018.51 1544.57 2022.26 1544.57 Q2026.01 1544.57 2028.17 1542.57 Q2030.33 1540.54 2030.33 1537.05 Q2030.33 1533.53 2028.17 1531.53 Q2026.04 1529.52 2022.26 1529.52 M2017 1527.28 Q2013.61 1526.45 2011.71 1524.13 Q2009.84 1521.81 2009.84 1518.48 Q2009.84 1513.82 2013.15 1511.11 Q2016.48 1508.4 2022.26 1508.4 Q2028.07 1508.4 2031.37 1511.11 Q2034.68 1513.82 2034.68 1518.48 Q2034.68 1521.81 2032.78 1524.13 Q2030.91 1526.45 2027.55 1527.28 Q2031.35 1528.17 2033.46 1530.74 Q2035.59 1533.32 2035.59 1537.05 Q2035.59 1542.7 2032.13 1545.72 Q2028.69 1548.74 2022.26 1548.74 Q2015.83 1548.74 2012.36 1545.72 Q2008.93 1542.7 2008.93 1537.05 Q2008.93 1533.32 2011.06 1530.74 Q2013.2 1528.17 2017 1527.28 M2015.07 1518.97 Q2015.07 1521.99 2016.95 1523.69 Q2018.85 1525.38 2022.26 1525.38 Q2025.65 1525.38 2027.55 1523.69 Q2029.47 1521.99 2029.47 1518.97 Q2029.47 1515.95 2027.55 1514.26 Q2025.65 1512.57 2022.26 1512.57 Q2018.85 1512.57 2016.95 1514.26 Q2015.07 1515.95 2015.07 1518.97 Z" fill="#bebebe" fill-rule="evenodd" fill-opacity="1" /><path clip-path="url(#clip510)" d="M 0 0 M2073.51 1543.56 L2082.1 1543.56 L2082.1 1513.9 L2072.76 1515.77 L2072.76 1510.98 L2082.05 1509.1 L2087.31 1509.1 L2087.31 1543.56 L2095.91 1543.56 L2095.91 1547.98 L2073.51 1547.98 L2073.51 1543.56 Z" fill="#bebebe" fill-rule="evenodd" fill-opacity="1" /><path clip-path="url(#clip510)" d="M 0 0 M2101.77 1547.18 L2101.77 1542.38 Q2103.75 1543.32 2105.78 1543.82 Q2107.81 1544.31 2109.76 1544.31 Q2114.97 1544.31 2117.7 1540.82 Q2120.46 1537.31 2120.85 1530.17 Q2119.34 1532.41 2117.03 1533.61 Q2114.71 1534.81 2111.9 1534.81 Q2106.06 1534.81 2102.65 1531.29 Q2099.27 1527.75 2099.27 1521.63 Q2099.27 1515.64 2102.81 1512.02 Q2106.35 1508.4 2112.23 1508.4 Q2118.98 1508.4 2122.52 1513.58 Q2126.09 1518.74 2126.09 1528.58 Q2126.09 1537.78 2121.71 1543.27 Q2117.37 1548.74 2110 1548.74 Q2108.02 1548.74 2105.98 1548.35 Q2103.95 1547.96 2101.77 1547.18 M2112.23 1530.69 Q2115.78 1530.69 2117.83 1528.27 Q2119.92 1525.85 2119.92 1521.63 Q2119.92 1517.44 2117.83 1515.02 Q2115.78 1512.57 2112.23 1512.57 Q2108.69 1512.57 2106.61 1515.02 Q2104.55 1517.44 2104.55 1521.63 Q2104.55 1525.85 2106.61 1528.27 Q2108.69 1530.69 2112.23 1530.69 Z" fill="#bebebe" fill-rule="evenodd" fill-opacity="1" /><path clip-path="url(#clip510)" d="M 0 0 M2168.76 1543.56 L2187.12 1543.56 L2187.12 1547.98 L2162.43 1547.98 L2162.43 1543.56 Q2165.43 1540.46 2170.58 1535.25 Q2175.76 1530.02 2177.09 1528.5 Q2179.62 1525.67 2180.61 1523.71 Q2181.62 1521.73 2181.62 1519.83 Q2181.62 1516.73 2179.44 1514.78 Q2177.27 1512.83 2173.79 1512.83 Q2171.31 1512.83 2168.55 1513.69 Q2165.82 1514.55 2162.69 1516.29 L2162.69 1510.98 Q2165.87 1509.7 2168.63 1509.05 Q2171.39 1508.4 2173.68 1508.4 Q2179.72 1508.4 2183.32 1511.42 Q2186.91 1514.44 2186.91 1519.49 Q2186.91 1521.89 2186 1524.05 Q2185.11 1526.19 2182.74 1529.1 Q2182.09 1529.86 2178.6 1533.48 Q2175.11 1537.07 2168.76 1543.56 Z" fill="#bebebe" fill-rule="evenodd" fill-opacity="1" /><path clip-path="url(#clip510)" d="M 0 0 M2204.07 1512.57 Q2200.01 1512.57 2197.95 1516.58 Q2195.92 1520.56 2195.92 1528.58 Q2195.92 1536.58 2197.95 1540.59 Q2200.01 1544.57 2204.07 1544.57 Q2208.16 1544.57 2210.19 1540.59 Q2212.25 1536.58 2212.25 1528.58 Q2212.25 1520.56 2210.19 1516.58 Q2208.16 1512.57 2204.07 1512.57 M2204.07 1508.4 Q2210.61 1508.4 2214.05 1513.58 Q2217.51 1518.74 2217.51 1528.58 Q2217.51 1538.4 2214.05 1543.58 Q2210.61 1548.74 2204.07 1548.74 Q2197.53 1548.74 2194.07 1543.58 Q2190.63 1538.4 2190.63 1528.58 Q2190.63 1518.74 2194.07 1513.58 Q2197.53 1508.4 2204.07 1508.4 Z" fill="#bebebe" fill-rule="evenodd" fill-opacity="1" /><polyline clip-path="url(#clip512)" style="stroke:#000000; stroke-width:2; stroke-opacity:0.1; fill:none" points="
  216.236,1444.41 2352.76,1444.41 
  "/>
<polyline clip-path="url(#clip512)" style="stroke:#000000; stroke-width:2; stroke-opacity:0.1; fill:none" points="
  216.236,1130.08 2352.76,1130.08 
  "/>
<polyline clip-path="url(#clip512)" style="stroke:#000000; stroke-width:2; stroke-opacity:0.1; fill:none" points="
  216.236,815.76 2352.76,815.76 
  "/>
<polyline clip-path="url(#clip512)" style="stroke:#000000; stroke-width:2; stroke-opacity:0.1; fill:none" points="
  216.236,501.436 2352.76,501.436 
  "/>
<polyline clip-path="url(#clip512)" style="stroke:#000000; stroke-width:2; stroke-opacity:0.1; fill:none" points="
  216.236,187.111 2352.76,187.111 
  "/>
<polyline clip-path="url(#clip510)" style="stroke:#000000; stroke-width:4; stroke-opacity:1; fill:none" points="
  216.236,1482.13 216.236,149.392 
  "/>
<polyline clip-path="url(#clip510)" style="stroke:#000000; stroke-width:4; stroke-opacity:1; fill:none" points="
  216.236,1444.41 241.874,1444.41 
  "/>
<polyline clip-path="url(#clip510)" style="stroke:#000000; stroke-width:4; stroke-opacity:1; fill:none" points="
  216.236,1130.08 241.874,1130.08 
  "/>
<polyline clip-path="url(#clip510)" style="stroke:#000000; stroke-width:4; stroke-opacity:1; fill:none" points="
  216.236,815.76 241.874,815.76 
  "/>
<polyline clip-path="url(#clip510)" style="stroke:#000000; stroke-width:4; stroke-opacity:1; fill:none" points="
  216.236,501.436 241.874,501.436 
  "/>
<polyline clip-path="url(#clip510)" style="stroke:#000000; stroke-width:4; stroke-opacity:1; fill:none" points="
  216.236,187.111 241.874,187.111 
  "/>
<path clip-path="url(#clip510)" d="M 0 0 M64.4296 1428.43 Q60.3671 1428.43 58.3098 1432.44 Q56.2786 1436.43 56.2786 1444.45 Q56.2786 1452.44 58.3098 1456.45 Q60.3671 1460.44 64.4296 1460.44 Q68.5181 1460.44 70.5493 1456.45 Q72.6066 1452.44 72.6066 1444.45 Q72.6066 1436.43 70.5493 1432.44 Q68.5181 1428.43 64.4296 1428.43 M64.4296 1424.27 Q70.966 1424.27 74.4035 1429.45 Q77.867 1434.6 77.867 1444.45 Q77.867 1454.27 74.4035 1459.45 Q70.966 1464.6 64.4296 1464.6 Q57.8931 1464.6 54.4296 1459.45 Q50.9921 1454.27 50.9921 1444.45 Q50.9921 1434.6 54.4296 1429.45 Q57.8931 1424.27 64.4296 1424.27 Z" fill="#bebebe" fill-rule="evenodd" fill-opacity="1" /><path clip-path="url(#clip510)" d="M 0 0 M83.5701 1457.23 L89.0648 1457.23 L89.0648 1463.85 L83.5701 1463.85 L83.5701 1457.23 Z" fill="#bebebe" fill-rule="evenodd" fill-opacity="1" /><path clip-path="url(#clip510)" d="M 0 0 M106.018 1428.43 Q101.955 1428.43 99.8981 1432.44 Q97.8669 1436.43 97.8669 1444.45 Q97.8669 1452.44 99.8981 1456.45 Q101.955 1460.44 106.018 1460.44 Q110.106 1460.44 112.138 1456.45 Q114.195 1452.44 114.195 1444.45 Q114.195 1436.43 112.138 1432.44 Q110.106 1428.43 106.018 1428.43 M106.018 1424.27 Q112.554 1424.27 115.992 1429.45 Q119.455 1434.6 119.455 1444.45 Q119.455 1454.27 115.992 1459.45 Q112.554 1464.6 106.018 1464.6 Q99.4814 1464.6 96.0179 1459.45 Q92.5804 1454.27 92.5804 1444.45 Q92.5804 1434.6 96.0179 1429.45 Q99.4814 1424.27 106.018 1424.27 Z" fill="#bebebe" fill-rule="evenodd" fill-opacity="1" /><path clip-path="url(#clip510)" d="M 0 0 M136.408 1428.43 Q132.346 1428.43 130.289 1432.44 Q128.257 1436.43 128.257 1444.45 Q128.257 1452.44 130.289 1456.45 Q132.346 1460.44 136.408 1460.44 Q140.497 1460.44 142.528 1456.45 Q144.585 1452.44 144.585 1444.45 Q144.585 1436.43 142.528 1432.44 Q140.497 1428.43 136.408 1428.43 M136.408 1424.27 Q142.945 1424.27 146.382 1429.45 Q149.846 1434.6 149.846 1444.45 Q149.846 1454.27 146.382 1459.45 Q142.945 1464.6 136.408 1464.6 Q129.872 1464.6 126.408 1459.45 Q122.971 1454.27 122.971 1444.45 Q122.971 1434.6 126.408 1429.45 Q129.872 1424.27 136.408 1424.27 Z" fill="#bebebe" fill-rule="evenodd" fill-opacity="1" /><path clip-path="url(#clip510)" d="M 0 0 M166.799 1428.43 Q162.736 1428.43 160.679 1432.44 Q158.648 1436.43 158.648 1444.45 Q158.648 1452.44 160.679 1456.45 Q162.736 1460.44 166.799 1460.44 Q170.887 1460.44 172.919 1456.45 Q174.976 1452.44 174.976 1444.45 Q174.976 1436.43 172.919 1432.44 Q170.887 1428.43 166.799 1428.43 M166.799 1424.27 Q173.335 1424.27 176.773 1429.45 Q180.236 1434.6 180.236 1444.45 Q180.236 1454.27 176.773 1459.45 Q173.335 1464.6 166.799 1464.6 Q160.262 1464.6 156.799 1459.45 Q153.361 1454.27 153.361 1444.45 Q153.361 1434.6 156.799 1429.45 Q160.262 1424.27 166.799 1424.27 Z" fill="#bebebe" fill-rule="evenodd" fill-opacity="1" /><path clip-path="url(#clip510)" d="M 0 0 M67.3462 1114.11 Q63.2837 1114.11 61.2264 1118.12 Q59.1952 1122.1 59.1952 1130.12 Q59.1952 1138.12 61.2264 1142.13 Q63.2837 1146.11 67.3462 1146.11 Q71.4347 1146.11 73.466 1142.13 Q75.5232 1138.12 75.5232 1130.12 Q75.5232 1122.1 73.466 1118.12 Q71.4347 1114.11 67.3462 1114.11 M67.3462 1109.94 Q73.8826 1109.94 77.3201 1115.12 Q80.7836 1120.28 80.7836 1130.12 Q80.7836 1139.94 77.3201 1145.12 Q73.8826 1150.28 67.3462 1150.28 Q60.8098 1150.28 57.3463 1145.12 Q53.9088 1139.94 53.9088 1130.12 Q53.9088 1120.28 57.3463 1115.12 Q60.8098 1109.94 67.3462 1109.94 Z" fill="#bebebe" fill-rule="evenodd" fill-opacity="1" /><path clip-path="url(#clip510)" d="M 0 0 M86.4867 1142.91 L91.9815 1142.91 L91.9815 1149.52 L86.4867 1149.52 L86.4867 1142.91 Z" fill="#bebebe" fill-rule="evenodd" fill-opacity="1" /><path clip-path="url(#clip510)" d="M 0 0 M108.935 1114.11 Q104.872 1114.11 102.815 1118.12 Q100.784 1122.1 100.784 1130.12 Q100.784 1138.12 102.815 1142.13 Q104.872 1146.11 108.935 1146.11 Q113.023 1146.11 115.054 1142.13 Q117.112 1138.12 117.112 1130.12 Q117.112 1122.1 115.054 1118.12 Q113.023 1114.11 108.935 1114.11 M108.935 1109.94 Q115.471 1109.94 118.908 1115.12 Q122.372 1120.28 122.372 1130.12 Q122.372 1139.94 118.908 1145.12 Q115.471 1150.28 108.935 1150.28 Q102.398 1150.28 98.9346 1145.12 Q95.4971 1139.94 95.4971 1130.12 Q95.4971 1120.28 98.9346 1115.12 Q102.398 1109.94 108.935 1109.94 Z" fill="#bebebe" fill-rule="evenodd" fill-opacity="1" /><path clip-path="url(#clip510)" d="M 0 0 M132.606 1145.1 L150.966 1145.1 L150.966 1149.52 L126.278 1149.52 L126.278 1145.1 Q129.273 1142 134.429 1136.79 Q139.611 1131.56 140.94 1130.05 Q143.466 1127.21 144.455 1125.25 Q145.471 1123.27 145.471 1121.37 Q145.471 1118.27 143.283 1116.32 Q141.122 1114.37 137.632 1114.37 Q135.158 1114.37 132.398 1115.23 Q129.664 1116.09 126.539 1117.83 L126.539 1112.52 Q129.716 1111.24 132.476 1110.59 Q135.236 1109.94 137.528 1109.94 Q143.57 1109.94 147.163 1112.96 Q150.757 1115.98 150.757 1121.04 Q150.757 1123.43 149.846 1125.59 Q148.96 1127.73 146.591 1130.64 Q145.94 1131.4 142.45 1135.02 Q138.96 1138.61 132.606 1145.1 Z" fill="#bebebe" fill-rule="evenodd" fill-opacity="1" /><path clip-path="url(#clip510)" d="M 0 0 M156.721 1110.64 L177.372 1110.64 L177.372 1115.07 L161.538 1115.07 L161.538 1124.6 Q162.684 1124.21 163.83 1124.03 Q164.976 1123.82 166.122 1123.82 Q172.632 1123.82 176.434 1127.39 Q180.236 1130.96 180.236 1137.05 Q180.236 1143.33 176.33 1146.82 Q172.424 1150.28 165.314 1150.28 Q162.867 1150.28 160.314 1149.86 Q157.788 1149.45 155.08 1148.61 L155.08 1143.33 Q157.424 1144.6 159.924 1145.23 Q162.424 1145.85 165.21 1145.85 Q169.715 1145.85 172.346 1143.48 Q174.976 1141.11 174.976 1137.05 Q174.976 1132.99 172.346 1130.62 Q169.715 1128.25 165.21 1128.25 Q163.101 1128.25 160.992 1128.72 Q158.908 1129.19 156.721 1130.18 L156.721 1110.64 Z" fill="#bebebe" fill-rule="evenodd" fill-opacity="1" /><path clip-path="url(#clip510)" d="M 0 0 M65.5493 799.784 Q61.4869 799.784 59.4296 803.794 Q57.3983 807.778 57.3983 815.799 Q57.3983 823.794 59.4296 827.804 Q61.4869 831.789 65.5493 831.789 Q69.6379 831.789 71.6691 827.804 Q73.7264 823.794 73.7264 815.799 Q73.7264 807.778 71.6691 803.794 Q69.6379 799.784 65.5493 799.784 M65.5493 795.617 Q72.0858 795.617 75.5232 800.799 Q78.9868 805.955 78.9868 815.799 Q78.9868 825.617 75.5232 830.799 Q72.0858 835.955 65.5493 835.955 Q59.0129 835.955 55.5494 830.799 Q52.1119 825.617 52.1119 815.799 Q52.1119 805.955 55.5494 800.799 Q59.0129 795.617 65.5493 795.617 Z" fill="#bebebe" fill-rule="evenodd" fill-opacity="1" /><path clip-path="url(#clip510)" d="M 0 0 M84.6899 828.585 L90.1846 828.585 L90.1846 835.2 L84.6899 835.2 L84.6899 828.585 Z" fill="#bebebe" fill-rule="evenodd" fill-opacity="1" /><path clip-path="url(#clip510)" d="M 0 0 M107.138 799.784 Q103.075 799.784 101.018 803.794 Q98.9867 807.778 98.9867 815.799 Q98.9867 823.794 101.018 827.804 Q103.075 831.789 107.138 831.789 Q111.226 831.789 113.257 827.804 Q115.315 823.794 115.315 815.799 Q115.315 807.778 113.257 803.794 Q111.226 799.784 107.138 799.784 M107.138 795.617 Q113.674 795.617 117.112 800.799 Q120.575 805.955 120.575 815.799 Q120.575 825.617 117.112 830.799 Q113.674 835.955 107.138 835.955 Q100.601 835.955 97.1377 830.799 Q93.7002 825.617 93.7002 815.799 Q93.7002 805.955 97.1377 800.799 Q100.601 795.617 107.138 795.617 Z" fill="#bebebe" fill-rule="evenodd" fill-opacity="1" /><path clip-path="url(#clip510)" d="M 0 0 M126.33 796.32 L146.981 796.32 L146.981 800.747 L131.148 800.747 L131.148 810.278 Q132.294 809.888 133.44 809.705 Q134.585 809.497 135.731 809.497 Q142.242 809.497 146.044 813.065 Q149.846 816.632 149.846 822.726 Q149.846 829.002 145.94 832.492 Q142.033 835.955 134.924 835.955 Q132.476 835.955 129.924 835.539 Q127.398 835.122 124.69 834.289 L124.69 829.002 Q127.033 830.278 129.533 830.903 Q132.033 831.528 134.82 831.528 Q139.325 831.528 141.955 829.158 Q144.585 826.789 144.585 822.726 Q144.585 818.664 141.955 816.294 Q139.325 813.924 134.82 813.924 Q132.71 813.924 130.601 814.393 Q128.518 814.862 126.33 815.851 L126.33 796.32 Z" fill="#bebebe" fill-rule="evenodd" fill-opacity="1" /><path clip-path="url(#clip510)" d="M 0 0 M166.799 799.784 Q162.736 799.784 160.679 803.794 Q158.648 807.778 158.648 815.799 Q158.648 823.794 160.679 827.804 Q162.736 831.789 166.799 831.789 Q170.887 831.789 172.919 827.804 Q174.976 823.794 174.976 815.799 Q174.976 807.778 172.919 803.794 Q170.887 799.784 166.799 799.784 M166.799 795.617 Q173.335 795.617 176.773 800.799 Q180.236 805.955 180.236 815.799 Q180.236 825.617 176.773 830.799 Q173.335 835.955 166.799 835.955 Q160.262 835.955 156.799 830.799 Q153.361 825.617 153.361 815.799 Q153.361 805.955 156.799 800.799 Q160.262 795.617 166.799 795.617 Z" fill="#bebebe" fill-rule="evenodd" fill-opacity="1" /><path clip-path="url(#clip510)" d="M 0 0 M66.565 485.459 Q62.5025 485.459 60.4452 489.469 Q58.414 493.454 58.414 501.475 Q58.414 509.469 60.4452 513.48 Q62.5025 517.464 66.565 517.464 Q70.6535 517.464 72.6847 513.48 Q74.742 509.469 74.742 501.475 Q74.742 493.454 72.6847 489.469 Q70.6535 485.459 66.565 485.459 M66.565 481.292 Q73.1014 481.292 76.5389 486.475 Q80.0024 491.631 80.0024 501.475 Q80.0024 511.292 76.5389 516.475 Q73.1014 521.631 66.565 521.631 Q60.0285 521.631 56.565 516.475 Q53.1275 511.292 53.1275 501.475 Q53.1275 491.631 56.565 486.475 Q60.0285 481.292 66.565 481.292 Z" fill="#bebebe" fill-rule="evenodd" fill-opacity="1" /><path clip-path="url(#clip510)" d="M 0 0 M85.7055 514.261 L91.2002 514.261 L91.2002 520.876 L85.7055 520.876 L85.7055 514.261 Z" fill="#bebebe" fill-rule="evenodd" fill-opacity="1" /><path clip-path="url(#clip510)" d="M 0 0 M108.153 485.459 Q104.091 485.459 102.034 489.469 Q100.002 493.454 100.002 501.475 Q100.002 509.469 102.034 513.48 Q104.091 517.464 108.153 517.464 Q112.242 517.464 114.273 513.48 Q116.33 509.469 116.33 501.475 Q116.33 493.454 114.273 489.469 Q112.242 485.459 108.153 485.459 M108.153 481.292 Q114.69 481.292 118.127 486.475 Q121.591 491.631 121.591 501.475 Q121.591 511.292 118.127 516.475 Q114.69 521.631 108.153 521.631 Q101.617 521.631 98.1533 516.475 Q94.7159 511.292 94.7159 501.475 Q94.7159 491.631 98.1533 486.475 Q101.617 481.292 108.153 481.292 Z" fill="#bebebe" fill-rule="evenodd" fill-opacity="1" /><path clip-path="url(#clip510)" d="M 0 0 M125.966 481.996 L150.966 481.996 L150.966 484.235 L136.851 520.876 L131.356 520.876 L144.637 486.423 L125.966 486.423 L125.966 481.996 Z" fill="#bebebe" fill-rule="evenodd" fill-opacity="1" /><path clip-path="url(#clip510)" d="M 0 0 M156.721 481.996 L177.372 481.996 L177.372 486.423 L161.538 486.423 L161.538 495.954 Q162.684 495.563 163.83 495.381 Q164.976 495.173 166.122 495.173 Q172.632 495.173 176.434 498.74 Q180.236 502.308 180.236 508.402 Q180.236 514.678 176.33 518.167 Q172.424 521.631 165.314 521.631 Q162.867 521.631 160.314 521.214 Q157.788 520.797 155.08 519.964 L155.08 514.678 Q157.424 515.954 159.924 516.579 Q162.424 517.204 165.21 517.204 Q169.715 517.204 172.346 514.834 Q174.976 512.464 174.976 508.402 Q174.976 504.339 172.346 501.969 Q169.715 499.6 165.21 499.6 Q163.101 499.6 160.992 500.068 Q158.908 500.537 156.721 501.527 L156.721 481.996 Z" fill="#bebebe" fill-rule="evenodd" fill-opacity="1" /><path clip-path="url(#clip510)" d="M 0 0 M65.8098 171.135 Q61.7473 171.135 59.69 175.145 Q57.6588 179.129 57.6588 187.15 Q57.6588 195.145 59.69 199.155 Q61.7473 203.14 65.8098 203.14 Q69.8983 203.14 71.9295 199.155 Q73.9868 195.145 73.9868 187.15 Q73.9868 179.129 71.9295 175.145 Q69.8983 171.135 65.8098 171.135 M65.8098 166.968 Q72.3462 166.968 75.7837 172.15 Q79.2472 177.306 79.2472 187.15 Q79.2472 196.968 75.7837 202.15 Q72.3462 207.306 65.8098 207.306 Q59.2733 207.306 55.8098 202.15 Q52.3723 196.968 52.3723 187.15 Q52.3723 177.306 55.8098 172.15 Q59.2733 166.968 65.8098 166.968 Z" fill="#bebebe" fill-rule="evenodd" fill-opacity="1" /><path clip-path="url(#clip510)" d="M 0 0 M84.9503 199.937 L90.445 199.937 L90.445 206.551 L84.9503 206.551 L84.9503 199.937 Z" fill="#bebebe" fill-rule="evenodd" fill-opacity="1" /><path clip-path="url(#clip510)" d="M 0 0 M97.0596 202.124 L105.653 202.124 L105.653 172.463 L96.3044 174.338 L96.3044 169.546 L105.601 167.671 L110.862 167.671 L110.862 202.124 L119.455 202.124 L119.455 206.551 L97.0596 206.551 L97.0596 202.124 Z" fill="#bebebe" fill-rule="evenodd" fill-opacity="1" /><path clip-path="url(#clip510)" d="M 0 0 M136.408 171.135 Q132.346 171.135 130.289 175.145 Q128.257 179.129 128.257 187.15 Q128.257 195.145 130.289 199.155 Q132.346 203.14 136.408 203.14 Q140.497 203.14 142.528 199.155 Q144.585 195.145 144.585 187.15 Q144.585 179.129 142.528 175.145 Q140.497 171.135 136.408 171.135 M136.408 166.968 Q142.945 166.968 146.382 172.15 Q149.846 177.306 149.846 187.15 Q149.846 196.968 146.382 202.15 Q142.945 207.306 136.408 207.306 Q129.872 207.306 126.408 202.15 Q122.971 196.968 122.971 187.15 Q122.971 177.306 126.408 172.15 Q129.872 166.968 136.408 166.968 Z" fill="#bebebe" fill-rule="evenodd" fill-opacity="1" /><path clip-path="url(#clip510)" d="M 0 0 M166.799 171.135 Q162.736 171.135 160.679 175.145 Q158.648 179.129 158.648 187.15 Q158.648 195.145 160.679 199.155 Q162.736 203.14 166.799 203.14 Q170.887 203.14 172.919 199.155 Q174.976 195.145 174.976 187.15 Q174.976 179.129 172.919 175.145 Q170.887 171.135 166.799 171.135 M166.799 166.968 Q173.335 166.968 176.773 172.15 Q180.236 177.306 180.236 187.15 Q180.236 196.968 176.773 202.15 Q173.335 207.306 166.799 207.306 Q160.262 207.306 156.799 202.15 Q153.361 196.968 153.361 187.15 Q153.361 177.306 156.799 172.15 Q160.262 166.968 166.799 166.968 Z" fill="#bebebe" fill-rule="evenodd" fill-opacity="1" /><path clip-path="url(#clip510)" d="M 0 0 M901.281 20.1156 L901.281 31.516 Q894.625 28.3332 888.723 26.7707 Q882.82 25.2082 877.322 25.2082 Q867.774 25.2082 862.565 28.9119 Q857.415 32.6156 857.415 39.4442 Q857.415 45.1734 860.829 48.1247 Q864.302 51.0182 873.908 52.8122 L880.968 54.259 Q894.047 56.7474 900.239 63.0552 Q906.489 69.3052 906.489 79.8375 Q906.489 92.3953 898.04 98.8768 Q889.649 105.358 873.387 105.358 Q867.253 105.358 860.309 103.969 Q853.422 102.58 846.015 99.8606 L846.015 87.8236 Q853.133 91.8166 859.961 93.8421 Q866.79 95.8675 873.387 95.8675 Q883.399 95.8675 888.838 91.9324 Q894.278 87.9972 894.278 80.7056 Q894.278 74.3399 890.343 70.7519 Q886.466 67.164 877.554 65.37 L870.436 63.9811 Q857.357 61.377 851.512 55.8215 Q845.667 50.2659 845.667 40.3702 Q845.667 28.9119 853.711 22.3147 Q861.813 15.7175 875.991 15.7175 Q882.068 15.7175 888.376 16.817 Q894.683 17.9166 901.281 20.1156 Z" fill="#bebebe" fill-rule="evenodd" fill-opacity="1" /><path clip-path="url(#clip510)" d="M 0 0 M973.097 68.6107 L973.097 73.819 L924.139 73.819 Q924.834 84.8144 930.736 90.6014 Q936.697 96.3305 947.287 96.3305 Q953.421 96.3305 959.151 94.8259 Q964.938 93.3213 970.609 90.312 L970.609 100.381 Q964.88 102.812 958.861 104.085 Q952.843 105.358 946.651 105.358 Q931.141 105.358 922.056 96.3305 Q913.028 87.3028 913.028 71.9093 Q913.028 55.9951 921.593 46.678 Q930.216 37.303 944.799 37.303 Q957.877 37.303 965.458 45.7521 Q973.097 54.1432 973.097 68.6107 M962.449 65.4858 Q962.333 56.7474 957.53 51.5391 Q952.785 46.3308 944.915 46.3308 Q936.003 46.3308 930.621 51.3655 Q925.297 56.4002 924.486 65.5436 L962.449 65.4858 Z" fill="#bebebe" fill-rule="evenodd" fill-opacity="1" /><path clip-path="url(#clip510)" d="M 0 0 M1021.82 48.8192 Q1020.03 47.7775 1017.89 47.3146 Q1015.81 46.7937 1013.26 46.7937 Q1004.23 46.7937 999.37 52.6965 Q994.567 58.5414 994.567 69.5367 L994.567 103.68 L983.861 103.68 L983.861 38.8655 L994.567 38.8655 L994.567 48.9349 Q997.924 43.0322 1003.31 40.1965 Q1008.69 37.303 1016.38 37.303 Q1017.48 37.303 1018.81 37.4767 Q1020.15 37.5924 1021.77 37.8817 L1021.82 48.8192 Z" fill="#bebebe" fill-rule="evenodd" fill-opacity="1" /><path clip-path="url(#clip510)" d="M 0 0 M1032.99 38.8655 L1043.64 38.8655 L1043.64 103.68 L1032.99 103.68 L1032.99 38.8655 M1032.99 13.6342 L1043.64 13.6342 L1043.64 27.1179 L1032.99 27.1179 L1032.99 13.6342 Z" fill="#bebebe" fill-rule="evenodd" fill-opacity="1" /><path clip-path="url(#clip510)" d="M 0 0 M1110.25 68.6107 L1110.25 73.819 L1061.29 73.819 Q1061.99 84.8144 1067.89 90.6014 Q1073.85 96.3305 1084.44 96.3305 Q1090.57 96.3305 1096.3 94.8259 Q1102.09 93.3213 1107.76 90.312 L1107.76 100.381 Q1102.03 102.812 1096.01 104.085 Q1089.99 105.358 1083.8 105.358 Q1068.29 105.358 1059.21 96.3305 Q1050.18 87.3028 1050.18 71.9093 Q1050.18 55.9951 1058.74 46.678 Q1067.37 37.303 1081.95 37.303 Q1095.03 37.303 1102.61 45.7521 Q1110.25 54.1432 1110.25 68.6107 M1099.6 65.4858 Q1099.49 56.7474 1094.68 51.5391 Q1089.94 46.3308 1082.07 46.3308 Q1073.15 46.3308 1067.77 51.3655 Q1062.45 56.4002 1061.64 65.5436 L1099.6 65.4858 Z" fill="#bebebe" fill-rule="evenodd" fill-opacity="1" /><path clip-path="url(#clip510)" d="M 0 0 M1169.16 17.28 L1169.16 49.3979 L1159.32 49.3979 L1159.32 17.28 L1169.16 17.28 Z" fill="#bebebe" fill-rule="evenodd" fill-opacity="1" /><path clip-path="url(#clip510)" d="M 0 0 M1234.21 64.5598 L1234.21 103.68 L1223.56 103.68 L1223.56 64.9071 Q1223.56 55.7057 1219.97 51.134 Q1216.38 46.5623 1209.21 46.5623 Q1200.58 46.5623 1195.61 52.0599 Q1190.63 57.5576 1190.63 67.0483 L1190.63 103.68 L1179.92 103.68 L1179.92 13.6342 L1190.63 13.6342 L1190.63 48.9349 Q1194.45 43.09 1199.6 40.1965 Q1204.81 37.303 1211.58 37.303 Q1222.75 37.303 1228.48 44.2474 Q1234.21 51.134 1234.21 64.5598 Z" fill="#bebebe" fill-rule="evenodd" fill-opacity="1" /><path clip-path="url(#clip510)" d="M 0 0 M1245.38 38.8655 L1256.02 38.8655 L1256.02 103.68 L1245.38 103.68 L1245.38 38.8655 M1245.38 13.6342 L1256.02 13.6342 L1256.02 27.1179 L1245.38 27.1179 L1245.38 13.6342 Z" fill="#bebebe" fill-rule="evenodd" fill-opacity="1" /><path clip-path="url(#clip510)" d="M 0 0 M1308.51 40.7752 L1308.51 50.8446 Q1304 48.5298 1299.14 47.3724 Q1294.28 46.215 1289.07 46.215 Q1281.14 46.215 1277.15 48.6456 Q1273.21 51.0761 1273.21 55.9372 Q1273.21 59.6409 1276.05 61.7821 Q1278.88 63.8654 1287.45 65.7751 L1291.09 66.5853 Q1302.44 69.0158 1307.18 73.4718 Q1311.98 77.87 1311.98 85.7982 Q1311.98 94.8259 1304.81 100.092 Q1297.69 105.358 1285.19 105.358 Q1279.98 105.358 1274.31 104.317 Q1268.7 103.333 1262.45 101.307 L1262.45 90.312 Q1268.35 93.3791 1274.08 94.9416 Q1279.81 96.4462 1285.42 96.4462 Q1292.95 96.4462 1297 93.9 Q1301.05 91.2958 1301.05 86.6083 Q1301.05 82.2681 1298.1 79.9533 Q1295.2 77.6385 1285.31 75.4973 L1281.6 74.6292 Q1271.71 72.5459 1267.31 68.2635 Q1262.91 63.9233 1262.91 56.4002 Q1262.91 47.2567 1269.39 42.2799 Q1275.87 37.303 1287.79 37.303 Q1293.7 37.303 1298.91 38.1711 Q1304.11 39.0391 1308.51 40.7752 Z" fill="#bebebe" fill-rule="evenodd" fill-opacity="1" /><path clip-path="url(#clip510)" d="M 0 0 M1333.69 20.4629 L1333.69 38.8655 L1355.62 38.8655 L1355.62 47.141 L1333.69 47.141 L1333.69 82.3259 Q1333.69 90.2541 1335.83 92.5111 Q1338.03 94.768 1344.68 94.768 L1355.62 94.768 L1355.62 103.68 L1344.68 103.68 Q1332.35 103.68 1327.67 99.1083 Q1322.98 94.4787 1322.98 82.3259 L1322.98 47.141 L1315.17 47.141 L1315.17 38.8655 L1322.98 38.8655 L1322.98 20.4629 L1333.69 20.4629 Z" fill="#bebebe" fill-rule="evenodd" fill-opacity="1" /><path clip-path="url(#clip510)" d="M 0 0 M1391.9 46.3308 Q1383.34 46.3308 1378.36 53.0437 Q1373.38 59.6988 1373.38 71.3306 Q1373.38 82.9625 1378.3 89.6754 Q1383.28 96.3305 1391.9 96.3305 Q1400.41 96.3305 1405.39 89.6176 Q1410.36 82.9046 1410.36 71.3306 Q1410.36 59.8145 1405.39 53.1016 Q1400.41 46.3308 1391.9 46.3308 M1391.9 37.303 Q1405.79 37.303 1413.72 46.3308 Q1421.65 55.3585 1421.65 71.3306 Q1421.65 87.2449 1413.72 96.3305 Q1405.79 105.358 1391.9 105.358 Q1377.96 105.358 1370.03 96.3305 Q1362.16 87.2449 1362.16 71.3306 Q1362.16 55.3585 1370.03 46.3308 Q1377.96 37.303 1391.9 37.303 Z" fill="#bebebe" fill-rule="evenodd" fill-opacity="1" /><path clip-path="url(#clip510)" d="M 0 0 M1475.47 70.5205 Q1475.47 58.9464 1470.66 52.5807 Q1465.92 46.215 1457.3 46.215 Q1448.73 46.215 1443.93 52.5807 Q1439.18 58.9464 1439.18 70.5205 Q1439.18 82.0366 1443.93 88.4023 Q1448.73 94.768 1457.3 94.768 Q1465.92 94.768 1470.66 88.4023 Q1475.47 82.0366 1475.47 70.5205 M1486.12 95.6361 Q1486.12 112.187 1478.77 120.231 Q1471.42 128.333 1456.25 128.333 Q1450.64 128.333 1445.66 127.465 Q1440.69 126.654 1436 124.918 L1436 114.56 Q1440.69 117.106 1445.26 118.321 Q1449.83 119.536 1454.58 119.536 Q1465.05 119.536 1470.26 114.039 Q1475.47 108.599 1475.47 97.5458 L1475.47 92.2796 Q1472.17 98.0087 1467.02 100.844 Q1461.87 103.68 1454.69 103.68 Q1442.77 103.68 1435.48 94.5944 Q1428.19 85.5088 1428.19 70.5205 Q1428.19 55.4742 1435.48 46.3886 Q1442.77 37.303 1454.69 37.303 Q1461.87 37.303 1467.02 40.1387 Q1472.17 42.9743 1475.47 48.7034 L1475.47 38.8655 L1486.12 38.8655 L1486.12 95.6361 Z" fill="#bebebe" fill-rule="evenodd" fill-opacity="1" /><path clip-path="url(#clip510)" d="M 0 0 M1534.84 48.8192 Q1533.05 47.7775 1530.91 47.3146 Q1528.82 46.7937 1526.28 46.7937 Q1517.25 46.7937 1512.39 52.6965 Q1507.59 58.5414 1507.59 69.5367 L1507.59 103.68 L1496.88 103.68 L1496.88 38.8655 L1507.59 38.8655 L1507.59 48.9349 Q1510.94 43.0322 1516.32 40.1965 Q1521.71 37.303 1529.4 37.303 Q1530.5 37.303 1531.83 37.4767 Q1533.16 37.5924 1534.78 37.8817 L1534.84 48.8192 Z" fill="#bebebe" fill-rule="evenodd" fill-opacity="1" /><path clip-path="url(#clip510)" d="M 0 0 M1575.47 71.0992 Q1562.56 71.0992 1557.58 74.0505 Q1552.61 77.0019 1552.61 84.1199 Q1552.61 89.7912 1556.31 93.1476 Q1560.07 96.4462 1566.5 96.4462 Q1575.35 96.4462 1580.68 90.1963 Q1586.06 83.8884 1586.06 73.4718 L1586.06 71.0992 L1575.47 71.0992 M1596.71 66.701 L1596.71 103.68 L1586.06 103.68 L1586.06 93.8421 Q1582.41 99.7448 1576.97 102.58 Q1571.53 105.358 1563.66 105.358 Q1553.71 105.358 1547.8 99.8027 Q1541.96 94.1893 1541.96 84.8144 Q1541.96 73.8769 1549.25 68.3214 Q1556.6 62.7659 1571.13 62.7659 L1586.06 62.7659 L1586.06 61.7242 Q1586.06 54.3747 1581.2 50.3817 Q1576.39 46.3308 1567.65 46.3308 Q1562.1 46.3308 1556.83 47.6618 Q1551.57 48.9928 1546.71 51.6548 L1546.71 41.8169 Q1552.55 39.56 1558.05 38.4604 Q1563.55 37.303 1568.75 37.303 Q1582.82 37.303 1589.76 44.5947 Q1596.71 51.8863 1596.71 66.701 Z" fill="#bebebe" fill-rule="evenodd" fill-opacity="1" /><path clip-path="url(#clip510)" d="M 0 0 M1658.34 51.3076 Q1662.33 44.1317 1667.89 40.7174 Q1673.44 37.303 1680.96 37.303 Q1691.09 37.303 1696.59 44.4211 Q1702.09 51.4812 1702.09 64.5598 L1702.09 103.68 L1691.38 103.68 L1691.38 64.9071 Q1691.38 55.59 1688.08 51.0761 Q1684.78 46.5623 1678.01 46.5623 Q1669.74 46.5623 1664.93 52.0599 Q1660.13 57.5576 1660.13 67.0483 L1660.13 103.68 L1649.42 103.68 L1649.42 64.9071 Q1649.42 55.5321 1646.13 51.0761 Q1642.83 46.5623 1635.94 46.5623 Q1627.78 46.5623 1622.98 52.1178 Q1618.17 57.6154 1618.17 67.0483 L1618.17 103.68 L1607.47 103.68 L1607.47 38.8655 L1618.17 38.8655 L1618.17 48.9349 Q1621.82 42.9743 1626.91 40.1387 Q1632.01 37.303 1639.01 37.303 Q1646.07 37.303 1650.99 40.891 Q1655.96 44.4789 1658.34 51.3076 Z" fill="#bebebe" fill-rule="evenodd" fill-opacity="1" /><path clip-path="url(#clip510)" d="M 0 0 M1723.32 17.28 L1723.32 49.3979 L1713.49 49.3979 L1713.49 17.28 L1723.32 17.28 Z" fill="#bebebe" fill-rule="evenodd" fill-opacity="1" /><path clip-path="url(#clip512)" d="
M333.749 1444.41 L333.749 1444.41 L424.296 1444.41 L424.296 1444.41 L333.749 1444.41 L333.749 1444.41  Z
  " fill="#ff0000" fill-rule="evenodd" fill-opacity="1"/>
<polyline clip-path="url(#clip512)" style="stroke:#000000; stroke-width:4; stroke-opacity:1; fill:none" points="
  333.749,1444.41 333.749,1444.41 424.296,1444.41 333.749,1444.41 
  "/>
<path clip-path="url(#clip512)" d="
M424.296 1192.95 L424.296 1444.41 L514.843 1444.41 L514.843 1192.95 L424.296 1192.95 L424.296 1192.95  Z
  " fill="#ffa500" fill-rule="evenodd" fill-opacity="1"/>
<polyline clip-path="url(#clip512)" style="stroke:#000000; stroke-width:4; stroke-opacity:1; fill:none" points="
  424.296,1192.95 424.296,1444.41 514.843,1444.41 514.843,1192.95 424.296,1192.95 
  "/>
<path clip-path="url(#clip512)" d="
M514.843 312.841 L514.843 1444.41 L605.391 1444.41 L605.391 312.841 L514.843 312.841 L514.843 312.841  Z
  " fill="#008000" fill-rule="evenodd" fill-opacity="1"/>
<polyline clip-path="url(#clip512)" style="stroke:#000000; stroke-width:4; stroke-opacity:1; fill:none" points="
  514.843,312.841 514.843,1444.41 605.391,1444.41 605.391,312.841 514.843,312.841 
  "/>
<path clip-path="url(#clip512)" d="
M605.391 941.49 L605.391 1444.41 L695.938 1444.41 L695.938 941.49 L605.391 941.49 L605.391 941.49  Z
  " fill="#ff0000" fill-rule="evenodd" fill-opacity="1"/>
<polyline clip-path="url(#clip512)" style="stroke:#000000; stroke-width:4; stroke-opacity:1; fill:none" points="
  605.391,941.49 605.391,1444.41 695.938,1444.41 695.938,941.49 605.391,941.49 
  "/>
<path clip-path="url(#clip512)" d="
M695.938 941.49 L695.938 1444.41 L786.485 1444.41 L786.485 941.49 L695.938 941.49 L695.938 941.49  Z
  " fill="#ffa500" fill-rule="evenodd" fill-opacity="1"/>
<polyline clip-path="url(#clip512)" style="stroke:#000000; stroke-width:4; stroke-opacity:1; fill:none" points="
  695.938,941.49 695.938,1444.41 786.485,1444.41 786.485,941.49 695.938,941.49 
  "/>
<path clip-path="url(#clip512)" d="
M786.485 815.76 L786.485 1444.41 L877.033 1444.41 L877.033 815.76 L786.485 815.76 L786.485 815.76  Z
  " fill="#008000" fill-rule="evenodd" fill-opacity="1"/>
<polyline clip-path="url(#clip512)" style="stroke:#000000; stroke-width:4; stroke-opacity:1; fill:none" points="
  786.485,815.76 786.485,1444.41 877.033,1444.41 877.033,815.76 786.485,815.76 
  "/>
<path clip-path="url(#clip512)" d="
M877.033 1192.95 L877.033 1444.41 L967.58 1444.41 L967.58 1192.95 L877.033 1192.95 L877.033 1192.95  Z
  " fill="#ff0000" fill-rule="evenodd" fill-opacity="1"/>
<polyline clip-path="url(#clip512)" style="stroke:#000000; stroke-width:4; stroke-opacity:1; fill:none" points="
  877.033,1192.95 877.033,1444.41 967.58,1444.41 967.58,1192.95 877.033,1192.95 
  "/>
<path clip-path="url(#clip512)" d="
M967.58 564.3 L967.58 1444.41 L1058.13 1444.41 L1058.13 564.3 L967.58 564.3 L967.58 564.3  Z
  " fill="#ffa500" fill-rule="evenodd" fill-opacity="1"/>
<polyline clip-path="url(#clip512)" style="stroke:#000000; stroke-width:4; stroke-opacity:1; fill:none" points="
  967.58,564.3 967.58,1444.41 1058.13,1444.41 1058.13,564.3 967.58,564.3 
  "/>
<path clip-path="url(#clip512)" d="
M1058.13 312.841 L1058.13 1444.41 L1148.68 1444.41 L1148.68 312.841 L1058.13 312.841 L1058.13 312.841  Z
  " fill="#008000" fill-rule="evenodd" fill-opacity="1"/>
<polyline clip-path="url(#clip512)" style="stroke:#000000; stroke-width:4; stroke-opacity:1; fill:none" points="
  1058.13,312.841 1058.13,1444.41 1148.68,1444.41 1148.68,312.841 1058.13,312.841 
  "/>
<path clip-path="url(#clip512)" d="
M1148.68 564.3 L1148.68 1444.41 L1239.22 1444.41 L1239.22 564.3 L1148.68 564.3 L1148.68 564.3  Z
  " fill="#ff0000" fill-rule="evenodd" fill-opacity="1"/>
<polyline clip-path="url(#clip512)" style="stroke:#000000; stroke-width:4; stroke-opacity:1; fill:none" points="
  1148.68,564.3 1148.68,1444.41 1239.22,1444.41 1239.22,564.3 1148.68,564.3 
  "/>
<path clip-path="url(#clip512)" d="
M1239.22 941.49 L1239.22 1444.41 L1329.77 1444.41 L1329.77 941.49 L1239.22 941.49 L1239.22 941.49  Z
  " fill="#ffa500" fill-rule="evenodd" fill-opacity="1"/>
<polyline clip-path="url(#clip512)" style="stroke:#000000; stroke-width:4; stroke-opacity:1; fill:none" points="
  1239.22,941.49 1239.22,1444.41 1329.77,1444.41 1329.77,941.49 1239.22,941.49 
  "/>
<path clip-path="url(#clip512)" d="
M1329.77 941.49 L1329.77 1444.41 L1420.32 1444.41 L1420.32 941.49 L1329.77 941.49 L1329.77 941.49  Z
  " fill="#008000" fill-rule="evenodd" fill-opacity="1"/>
<polyline clip-path="url(#clip512)" style="stroke:#000000; stroke-width:4; stroke-opacity:1; fill:none" points="
  1329.77,941.49 1329.77,1444.41 1420.32,1444.41 1420.32,941.49 1329.77,941.49 
  "/>
<path clip-path="url(#clip512)" d="
M1420.32 815.76 L1420.32 1444.41 L1510.86 1444.41 L1510.86 815.76 L1420.32 815.76 L1420.32 815.76  Z
  " fill="#ff0000" fill-rule="evenodd" fill-opacity="1"/>
<polyline clip-path="url(#clip512)" style="stroke:#000000; stroke-width:4; stroke-opacity:1; fill:none" points="
  1420.32,815.76 1420.32,1444.41 1510.86,1444.41 1510.86,815.76 1420.32,815.76 
  "/>
<path clip-path="url(#clip512)" d="
M1510.86 815.76 L1510.86 1444.41 L1601.41 1444.41 L1601.41 815.76 L1510.86 815.76 L1510.86 815.76  Z
  " fill="#ffa500" fill-rule="evenodd" fill-opacity="1"/>
<polyline clip-path="url(#clip512)" style="stroke:#000000; stroke-width:4; stroke-opacity:1; fill:none" points="
  1510.86,815.76 1510.86,1444.41 1601.41,1444.41 1601.41,815.76 1510.86,815.76 
  "/>
<path clip-path="url(#clip512)" d="
M1601.41 187.111 L1601.41 1444.41 L1691.96 1444.41 L1691.96 187.111 L1601.41 187.111 L1601.41 187.111  Z
  " fill="#008000" fill-rule="evenodd" fill-opacity="1"/>
<polyline clip-path="url(#clip512)" style="stroke:#000000; stroke-width:4; stroke-opacity:1; fill:none" points="
  1601.41,187.111 1601.41,1444.41 1691.96,1444.41 1691.96,187.111 1601.41,187.111 
  "/>
<path clip-path="url(#clip512)" d="
M1691.96 1067.22 L1691.96 1444.41 L1782.51 1444.41 L1782.51 1067.22 L1691.96 1067.22 L1691.96 1067.22  Z
  " fill="#ff0000" fill-rule="evenodd" fill-opacity="1"/>
<polyline clip-path="url(#clip512)" style="stroke:#000000; stroke-width:4; stroke-opacity:1; fill:none" points="
  1691.96,1067.22 1691.96,1444.41 1782.51,1444.41 1782.51,1067.22 1691.96,1067.22 
  "/>
<path clip-path="url(#clip512)" d="
M1782.51 1067.22 L1782.51 1444.41 L1873.05 1444.41 L1873.05 1067.22 L1782.51 1067.22 L1782.51 1067.22  Z
  " fill="#ffa500" fill-rule="evenodd" fill-opacity="1"/>
<polyline clip-path="url(#clip512)" style="stroke:#000000; stroke-width:4; stroke-opacity:1; fill:none" points="
  1782.51,1067.22 1782.51,1444.41 1873.05,1444.41 1873.05,1067.22 1782.51,1067.22 
  "/>
<path clip-path="url(#clip512)" d="
M1873.05 1318.68 L1873.05 1444.41 L1963.6 1444.41 L1963.6 1318.68 L1873.05 1318.68 L1873.05 1318.68  Z
  " fill="#008000" fill-rule="evenodd" fill-opacity="1"/>
<polyline clip-path="url(#clip512)" style="stroke:#000000; stroke-width:4; stroke-opacity:1; fill:none" points="
  1873.05,1318.68 1873.05,1444.41 1963.6,1444.41 1963.6,1318.68 1873.05,1318.68 
  "/>
<path clip-path="url(#clip512)" d="
M1963.6 690.03 L1963.6 1444.41 L2054.15 1444.41 L2054.15 690.03 L1963.6 690.03 L1963.6 690.03  Z
  " fill="#ff0000" fill-rule="evenodd" fill-opacity="1"/>
<polyline clip-path="url(#clip512)" style="stroke:#000000; stroke-width:4; stroke-opacity:1; fill:none" points="
  1963.6,690.03 1963.6,1444.41 2054.15,1444.41 2054.15,690.03 1963.6,690.03 
  "/>
<path clip-path="url(#clip512)" d="
M2054.15 941.49 L2054.15 1444.41 L2144.7 1444.41 L2144.7 941.49 L2054.15 941.49 L2054.15 941.49  Z
  " fill="#ffa500" fill-rule="evenodd" fill-opacity="1"/>
<polyline clip-path="url(#clip512)" style="stroke:#000000; stroke-width:4; stroke-opacity:1; fill:none" points="
  2054.15,941.49 2054.15,1444.41 2144.7,1444.41 2144.7,941.49 2054.15,941.49 
  "/>
<path clip-path="url(#clip512)" d="
M2144.7 690.03 L2144.7 1444.41 L2235.24 1444.41 L2235.24 690.03 L2144.7 690.03 L2144.7 690.03  Z
  " fill="#008000" fill-rule="evenodd" fill-opacity="1"/>
<polyline clip-path="url(#clip512)" style="stroke:#000000; stroke-width:4; stroke-opacity:1; fill:none" points="
  2144.7,690.03 2144.7,1444.41 2235.24,1444.41 2235.24,690.03 2144.7,690.03 
  "/>
</svg>
