<?xml version="1.0" encoding="utf-8"?>
<svg xmlns="http://www.w3.org/2000/svg" xmlns:xlink="http://www.w3.org/1999/xlink" width="600" height="400" viewBox="0 0 2400 1600">
<defs>
  <clipPath id="clip720">
    <rect x="0" y="0" width="2400" height="1600"/>
  </clipPath>
</defs>
<path clip-path="url(#clip720)" d="
M0 1600 L2400 1600 L2400 0 L0 0  Z
  " fill="#ffffff" fill-rule="evenodd" fill-opacity="1"/>
<defs>
  <clipPath id="clip721">
    <rect x="480" y="0" width="1681" height="1600"/>
  </clipPath>
</defs>
<path clip-path="url(#clip720)" d="
M171.552 1486.45 L2352.76 1486.45 L2352.76 47.2441 L171.552 47.2441  Z
  " fill="#ffffff" fill-rule="evenodd" fill-opacity="1"/>
<defs>
  <clipPath id="clip722">
    <rect x="171" y="47" width="2182" height="1440"/>
  </clipPath>
</defs>
<polyline clip-path="url(#clip722)" style="stroke:#000000; stroke-width:2; stroke-opacity:0.1; fill:none" points="
  461.922,1486.45 461.922,47.2441 
  "/>
<polyline clip-path="url(#clip722)" style="stroke:#000000; stroke-width:2; stroke-opacity:0.1; fill:none" points="
  919.197,1486.45 919.197,47.2441 
  "/>
<polyline clip-path="url(#clip722)" style="stroke:#000000; stroke-width:2; stroke-opacity:0.1; fill:none" points="
  1376.47,1486.45 1376.47,47.2441 
  "/>
<polyline clip-path="url(#clip722)" style="stroke:#000000; stroke-width:2; stroke-opacity:0.1; fill:none" points="
  1833.75,1486.45 1833.75,47.2441 
  "/>
<polyline clip-path="url(#clip722)" style="stroke:#000000; stroke-width:2; stroke-opacity:0.1; fill:none" points="
  2291.02,1486.45 2291.02,47.2441 
  "/>
<polyline clip-path="url(#clip720)" style="stroke:#000000; stroke-width:4; stroke-opacity:1; fill:none" points="
  171.552,1486.45 2352.76,1486.45 
  "/>
<polyline clip-path="url(#clip720)" style="stroke:#000000; stroke-width:4; stroke-opacity:1; fill:none" points="
  461.922,1486.45 461.922,1469.18 
  "/>
<polyline clip-path="url(#clip720)" style="stroke:#000000; stroke-width:4; stroke-opacity:1; fill:none" points="
  919.197,1486.45 919.197,1469.18 
  "/>
<polyline clip-path="url(#clip720)" style="stroke:#000000; stroke-width:4; stroke-opacity:1; fill:none" points="
  1376.47,1486.45 1376.47,1469.18 
  "/>
<polyline clip-path="url(#clip720)" style="stroke:#000000; stroke-width:4; stroke-opacity:1; fill:none" points="
  1833.75,1486.45 1833.75,1469.18 
  "/>
<polyline clip-path="url(#clip720)" style="stroke:#000000; stroke-width:4; stroke-opacity:1; fill:none" points="
  2291.02,1486.45 2291.02,1469.18 
  "/>
<path clip-path="url(#clip720)" d="M 0 0 M456.575 1543.18 L472.894 1543.18 L472.894 1547.12 L450.95 1547.12 L450.95 1543.18 Q453.612 1540.43 458.195 1535.8 Q462.801 1531.15 463.982 1529.81 Q466.227 1527.28 467.107 1525.55 Q468.01 1523.79 468.01 1522.1 Q468.01 1519.34 466.065 1517.61 Q464.144 1515.87 461.042 1515.87 Q458.843 1515.87 456.389 1516.63 Q453.959 1517.4 451.181 1518.95 L451.181 1514.23 Q454.005 1513.09 456.459 1512.51 Q458.913 1511.93 460.95 1511.93 Q466.32 1511.93 469.514 1514.62 Q472.709 1517.31 472.709 1521.8 Q472.709 1523.93 471.899 1525.85 Q471.112 1527.74 469.005 1530.34 Q468.426 1531.01 465.325 1534.23 Q462.223 1537.42 456.575 1543.18 Z" fill="#000000" fill-rule="evenodd" fill-opacity="1" /><path clip-path="url(#clip720)" d="M 0 0 M922.207 1516.63 L910.401 1535.08 L922.207 1535.08 L922.207 1516.63 M920.98 1512.56 L926.859 1512.56 L926.859 1535.08 L931.79 1535.08 L931.79 1538.97 L926.859 1538.97 L926.859 1547.12 L922.207 1547.12 L922.207 1538.97 L906.605 1538.97 L906.605 1534.46 L920.98 1512.56 Z" fill="#000000" fill-rule="evenodd" fill-opacity="1" /><path clip-path="url(#clip720)" d="M 0 0 M1376.88 1527.98 Q1373.73 1527.98 1371.88 1530.13 Q1370.05 1532.28 1370.05 1536.03 Q1370.05 1539.76 1371.88 1541.93 Q1373.73 1544.09 1376.88 1544.09 Q1380.03 1544.09 1381.85 1541.93 Q1383.71 1539.76 1383.71 1536.03 Q1383.71 1532.28 1381.85 1530.13 Q1380.03 1527.98 1376.88 1527.98 M1386.16 1513.32 L1386.16 1517.58 Q1384.4 1516.75 1382.6 1516.31 Q1380.81 1515.87 1379.05 1515.87 Q1374.42 1515.87 1371.97 1519 Q1369.54 1522.12 1369.19 1528.44 Q1370.56 1526.43 1372.62 1525.36 Q1374.68 1524.27 1377.16 1524.27 Q1382.36 1524.27 1385.37 1527.44 Q1388.41 1530.59 1388.41 1536.03 Q1388.41 1541.36 1385.26 1544.57 Q1382.11 1547.79 1376.88 1547.79 Q1370.88 1547.79 1367.71 1543.21 Q1364.54 1538.6 1364.54 1529.87 Q1364.54 1521.68 1368.43 1516.82 Q1372.32 1511.93 1378.87 1511.93 Q1380.63 1511.93 1382.41 1512.28 Q1384.22 1512.63 1386.16 1513.32 Z" fill="#000000" fill-rule="evenodd" fill-opacity="1" /><path clip-path="url(#clip720)" d="M 0 0 M1833.75 1530.71 Q1830.41 1530.71 1828.49 1532.49 Q1826.6 1534.27 1826.6 1537.4 Q1826.6 1540.52 1828.49 1542.31 Q1830.41 1544.09 1833.75 1544.09 Q1837.08 1544.09 1839 1542.31 Q1840.92 1540.5 1840.92 1537.4 Q1840.92 1534.27 1839 1532.49 Q1837.1 1530.71 1833.75 1530.71 M1829.07 1528.72 Q1826.06 1527.98 1824.37 1525.92 Q1822.71 1523.86 1822.71 1520.89 Q1822.71 1516.75 1825.65 1514.34 Q1828.61 1511.93 1833.75 1511.93 Q1838.91 1511.93 1841.85 1514.34 Q1844.79 1516.75 1844.79 1520.89 Q1844.79 1523.86 1843.1 1525.92 Q1841.43 1527.98 1838.45 1528.72 Q1841.83 1529.5 1843.7 1531.8 Q1845.6 1534.09 1845.6 1537.4 Q1845.6 1542.42 1842.52 1545.11 Q1839.47 1547.79 1833.75 1547.79 Q1828.03 1547.79 1824.95 1545.11 Q1821.9 1542.42 1821.9 1537.4 Q1821.9 1534.09 1823.79 1531.8 Q1825.69 1529.5 1829.07 1528.72 M1827.36 1521.33 Q1827.36 1524.02 1829.03 1525.52 Q1830.72 1527.03 1833.75 1527.03 Q1836.76 1527.03 1838.45 1525.52 Q1840.16 1524.02 1840.16 1521.33 Q1840.16 1518.65 1838.45 1517.14 Q1836.76 1515.64 1833.75 1515.64 Q1830.72 1515.64 1829.03 1517.14 Q1827.36 1518.65 1827.36 1521.33 Z" fill="#000000" fill-rule="evenodd" fill-opacity="1" /><path clip-path="url(#clip720)" d="M 0 0 M2267.9 1543.18 L2275.54 1543.18 L2275.54 1516.82 L2267.23 1518.49 L2267.23 1514.23 L2275.49 1512.56 L2280.17 1512.56 L2280.17 1543.18 L2287.81 1543.18 L2287.81 1547.12 L2267.9 1547.12 L2267.9 1543.18 Z" fill="#000000" fill-rule="evenodd" fill-opacity="1" /><path clip-path="url(#clip720)" d="M 0 0 M2302.88 1515.64 Q2299.26 1515.64 2297.44 1519.2 Q2295.63 1522.75 2295.63 1529.87 Q2295.63 1536.98 2297.44 1540.55 Q2299.26 1544.09 2302.88 1544.09 Q2306.51 1544.09 2308.32 1540.55 Q2310.14 1536.98 2310.14 1529.87 Q2310.14 1522.75 2308.32 1519.2 Q2306.51 1515.64 2302.88 1515.64 M2302.88 1511.93 Q2308.69 1511.93 2311.74 1516.54 Q2314.82 1521.12 2314.82 1529.87 Q2314.82 1538.6 2311.74 1543.21 Q2308.69 1547.79 2302.88 1547.79 Q2297.07 1547.79 2293.99 1543.21 Q2290.93 1538.6 2290.93 1529.87 Q2290.93 1521.12 2293.99 1516.54 Q2297.07 1511.93 2302.88 1511.93 Z" fill="#000000" fill-rule="evenodd" fill-opacity="1" /><polyline clip-path="url(#clip722)" style="stroke:#000000; stroke-width:2; stroke-opacity:0.1; fill:none" points="
  171.552,1481.11 2352.76,1481.11 
  "/>
<polyline clip-path="url(#clip722)" style="stroke:#000000; stroke-width:2; stroke-opacity:0.1; fill:none" points="
  171.552,1127.6 2352.76,1127.6 
  "/>
<polyline clip-path="url(#clip722)" style="stroke:#000000; stroke-width:2; stroke-opacity:0.1; fill:none" points="
  171.552,774.095 2352.76,774.095 
  "/>
<polyline clip-path="url(#clip722)" style="stroke:#000000; stroke-width:2; stroke-opacity:0.1; fill:none" points="
  171.552,420.59 2352.76,420.59 
  "/>
<polyline clip-path="url(#clip722)" style="stroke:#000000; stroke-width:2; stroke-opacity:0.1; fill:none" points="
  171.552,67.0843 2352.76,67.0843 
  "/>
<polyline clip-path="url(#clip720)" style="stroke:#000000; stroke-width:4; stroke-opacity:1; fill:none" points="
  171.552,1486.45 171.552,47.2441 
  "/>
<polyline clip-path="url(#clip720)" style="stroke:#000000; stroke-width:4; stroke-opacity:1; fill:none" points="
  171.552,1481.11 197.726,1481.11 
  "/>
<polyline clip-path="url(#clip720)" style="stroke:#000000; stroke-width:4; stroke-opacity:1; fill:none" points="
  171.552,1127.6 197.726,1127.6 
  "/>
<polyline clip-path="url(#clip720)" style="stroke:#000000; stroke-width:4; stroke-opacity:1; fill:none" points="
  171.552,774.095 197.726,774.095 
  "/>
<polyline clip-path="url(#clip720)" style="stroke:#000000; stroke-width:4; stroke-opacity:1; fill:none" points="
  171.552,420.59 197.726,420.59 
  "/>
<polyline clip-path="url(#clip720)" style="stroke:#000000; stroke-width:4; stroke-opacity:1; fill:none" points="
  171.552,67.0843 197.726,67.0843 
  "/>
<path clip-path="url(#clip720)" d="M 0 0 M86.6401 1466.91 Q83.029 1466.91 81.2003 1470.47 Q79.3948 1474.01 79.3948 1481.14 Q79.3948 1488.25 81.2003 1491.81 Q83.029 1495.35 86.6401 1495.35 Q90.2743 1495.35 92.0799 1491.81 Q93.9086 1488.25 93.9086 1481.14 Q93.9086 1474.01 92.0799 1470.47 Q90.2743 1466.91 86.6401 1466.91 M86.6401 1463.2 Q92.4502 1463.2 95.5058 1467.81 Q98.5845 1472.39 98.5845 1481.14 Q98.5845 1489.87 95.5058 1494.47 Q92.4502 1499.06 86.6401 1499.06 Q80.8299 1499.06 77.7512 1494.47 Q74.6957 1489.87 74.6957 1481.14 Q74.6957 1472.39 77.7512 1467.81 Q80.8299 1463.2 86.6401 1463.2 Z" fill="#000000" fill-rule="evenodd" fill-opacity="1" /><path clip-path="url(#clip720)" d="M 0 0 M103.654 1492.51 L108.538 1492.51 L108.538 1498.39 L103.654 1498.39 L103.654 1492.51 Z" fill="#000000" fill-rule="evenodd" fill-opacity="1" /><path clip-path="url(#clip720)" d="M 0 0 M123.607 1466.91 Q119.996 1466.91 118.168 1470.47 Q116.362 1474.01 116.362 1481.14 Q116.362 1488.25 118.168 1491.81 Q119.996 1495.35 123.607 1495.35 Q127.242 1495.35 129.047 1491.81 Q130.876 1488.25 130.876 1481.14 Q130.876 1474.01 129.047 1470.47 Q127.242 1466.91 123.607 1466.91 M123.607 1463.2 Q129.418 1463.2 132.473 1467.81 Q135.552 1472.39 135.552 1481.14 Q135.552 1489.87 132.473 1494.47 Q129.418 1499.06 123.607 1499.06 Q117.797 1499.06 114.719 1494.47 Q111.663 1489.87 111.663 1481.14 Q111.663 1472.39 114.719 1467.81 Q117.797 1463.2 123.607 1463.2 Z" fill="#000000" fill-rule="evenodd" fill-opacity="1" /><path clip-path="url(#clip720)" d="M 0 0 M83.2605 1140.95 L99.5798 1140.95 L99.5798 1144.88 L77.6355 1144.88 L77.6355 1140.95 Q80.2975 1138.19 84.8808 1133.56 Q89.4873 1128.91 90.6678 1127.57 Q92.9132 1125.04 93.7928 1123.31 Q94.6956 1121.55 94.6956 1119.86 Q94.6956 1117.1 92.7512 1115.37 Q90.8299 1113.63 87.728 1113.63 Q85.529 1113.63 83.0753 1114.4 Q80.6447 1115.16 77.867 1116.71 L77.867 1111.99 Q80.691 1110.85 83.1447 1110.27 Q85.5984 1109.7 87.6354 1109.7 Q93.0058 1109.7 96.2002 1112.38 Q99.3946 1115.07 99.3946 1119.56 Q99.3946 1121.69 98.5845 1123.61 Q97.7974 1125.51 95.691 1128.1 Q95.1123 1128.77 92.0104 1131.99 Q88.9086 1135.18 83.2605 1140.95 Z" fill="#000000" fill-rule="evenodd" fill-opacity="1" /><path clip-path="url(#clip720)" d="M 0 0 M104.649 1139 L109.533 1139 L109.533 1144.88 L104.649 1144.88 L104.649 1139 Z" fill="#000000" fill-rule="evenodd" fill-opacity="1" /><path clip-path="url(#clip720)" d="M 0 0 M114.649 1110.32 L133.006 1110.32 L133.006 1114.26 L118.932 1114.26 L118.932 1122.73 Q119.95 1122.38 120.969 1122.22 Q121.987 1122.03 123.006 1122.03 Q128.793 1122.03 132.172 1125.21 Q135.552 1128.38 135.552 1133.79 Q135.552 1139.37 132.08 1142.47 Q128.607 1145.55 122.288 1145.55 Q120.112 1145.55 117.844 1145.18 Q115.598 1144.81 113.191 1144.07 L113.191 1139.37 Q115.274 1140.51 117.496 1141.06 Q119.719 1141.62 122.195 1141.62 Q126.2 1141.62 128.538 1139.51 Q130.876 1137.4 130.876 1133.79 Q130.876 1130.18 128.538 1128.08 Q126.2 1125.97 122.195 1125.97 Q120.32 1125.97 118.445 1126.39 Q116.594 1126.8 114.649 1127.68 L114.649 1110.32 Z" fill="#000000" fill-rule="evenodd" fill-opacity="1" /><path clip-path="url(#clip720)" d="M 0 0 M77.6818 756.815 L96.0382 756.815 L96.0382 760.751 L81.9642 760.751 L81.9642 769.223 Q82.9827 768.876 84.0012 768.714 Q85.0197 768.528 86.0382 768.528 Q91.8252 768.528 95.2049 771.7 Q98.5845 774.871 98.5845 780.288 Q98.5845 785.866 95.1123 788.968 Q91.6401 792.047 85.3206 792.047 Q83.1447 792.047 80.8762 791.676 Q78.6309 791.306 76.2235 790.565 L76.2235 785.866 Q78.3068 787.001 80.529 787.556 Q82.7512 788.112 85.2281 788.112 Q89.2327 788.112 91.5706 786.005 Q93.9086 783.899 93.9086 780.288 Q93.9086 776.676 91.5706 774.57 Q89.2327 772.464 85.2281 772.464 Q83.3531 772.464 81.4781 772.88 Q79.6262 773.297 77.6818 774.176 L77.6818 756.815 Z" fill="#000000" fill-rule="evenodd" fill-opacity="1" /><path clip-path="url(#clip720)" d="M 0 0 M103.654 785.496 L108.538 785.496 L108.538 791.375 L103.654 791.375 L103.654 785.496 Z" fill="#000000" fill-rule="evenodd" fill-opacity="1" /><path clip-path="url(#clip720)" d="M 0 0 M123.607 759.894 Q119.996 759.894 118.168 763.459 Q116.362 767.001 116.362 774.13 Q116.362 781.237 118.168 784.801 Q119.996 788.343 123.607 788.343 Q127.242 788.343 129.047 784.801 Q130.876 781.237 130.876 774.13 Q130.876 767.001 129.047 763.459 Q127.242 759.894 123.607 759.894 M123.607 756.19 Q129.418 756.19 132.473 760.797 Q135.552 765.38 135.552 774.13 Q135.552 782.857 132.473 787.463 Q129.418 792.047 123.607 792.047 Q117.797 792.047 114.719 787.463 Q111.663 782.857 111.663 774.13 Q111.663 765.38 114.719 760.797 Q117.797 756.19 123.607 756.19 Z" fill="#000000" fill-rule="evenodd" fill-opacity="1" /><path clip-path="url(#clip720)" d="M 0 0 M77.3577 403.31 L99.5798 403.31 L99.5798 405.301 L87.0336 437.87 L82.1494 437.87 L93.9549 407.245 L77.3577 407.245 L77.3577 403.31 Z" fill="#000000" fill-rule="evenodd" fill-opacity="1" /><path clip-path="url(#clip720)" d="M 0 0 M104.649 431.99 L109.533 431.99 L109.533 437.87 L104.649 437.87 L104.649 431.99 Z" fill="#000000" fill-rule="evenodd" fill-opacity="1" /><path clip-path="url(#clip720)" d="M 0 0 M114.649 403.31 L133.006 403.31 L133.006 407.245 L118.932 407.245 L118.932 415.717 Q119.95 415.37 120.969 415.208 Q121.987 415.023 123.006 415.023 Q128.793 415.023 132.172 418.194 Q135.552 421.365 135.552 426.782 Q135.552 432.361 132.08 435.463 Q128.607 438.541 122.288 438.541 Q120.112 438.541 117.844 438.171 Q115.598 437.8 113.191 437.06 L113.191 432.361 Q115.274 433.495 117.496 434.05 Q119.719 434.606 122.195 434.606 Q126.2 434.606 128.538 432.5 Q130.876 430.393 130.876 426.782 Q130.876 423.171 128.538 421.064 Q126.2 418.958 122.195 418.958 Q120.32 418.958 118.445 419.375 Q116.594 419.791 114.649 420.671 L114.649 403.31 Z" fill="#000000" fill-rule="evenodd" fill-opacity="1" /><path clip-path="url(#clip720)" d="M 0 0 M51.6634 80.4292 L59.3023 80.4292 L59.3023 54.0636 L50.9921 55.7302 L50.9921 51.471 L59.256 49.8043 L63.9319 49.8043 L63.9319 80.4292 L71.5707 80.4292 L71.5707 84.3643 L51.6634 84.3643 L51.6634 80.4292 Z" fill="#000000" fill-rule="evenodd" fill-opacity="1" /><path clip-path="url(#clip720)" d="M 0 0 M86.6401 52.883 Q83.029 52.883 81.2003 56.4478 Q79.3948 59.9895 79.3948 67.119 Q79.3948 74.2255 81.2003 77.7903 Q83.029 81.3319 86.6401 81.3319 Q90.2743 81.3319 92.0799 77.7903 Q93.9086 74.2255 93.9086 67.119 Q93.9086 59.9895 92.0799 56.4478 Q90.2743 52.883 86.6401 52.883 M86.6401 49.1793 Q92.4502 49.1793 95.5058 53.7858 Q98.5845 58.3691 98.5845 67.119 Q98.5845 75.8459 95.5058 80.4523 Q92.4502 85.0356 86.6401 85.0356 Q80.8299 85.0356 77.7512 80.4523 Q74.6957 75.8459 74.6957 67.119 Q74.6957 58.3691 77.7512 53.7858 Q80.8299 49.1793 86.6401 49.1793 Z" fill="#000000" fill-rule="evenodd" fill-opacity="1" /><path clip-path="url(#clip720)" d="M 0 0 M103.654 78.4847 L108.538 78.4847 L108.538 84.3643 L103.654 84.3643 L103.654 78.4847 Z" fill="#000000" fill-rule="evenodd" fill-opacity="1" /><path clip-path="url(#clip720)" d="M 0 0 M123.607 52.883 Q119.996 52.883 118.168 56.4478 Q116.362 59.9895 116.362 67.119 Q116.362 74.2255 118.168 77.7903 Q119.996 81.3319 123.607 81.3319 Q127.242 81.3319 129.047 77.7903 Q130.876 74.2255 130.876 67.119 Q130.876 59.9895 129.047 56.4478 Q127.242 52.883 123.607 52.883 M123.607 49.1793 Q129.418 49.1793 132.473 53.7858 Q135.552 58.3691 135.552 67.119 Q135.552 75.8459 132.473 80.4523 Q129.418 85.0356 123.607 85.0356 Q117.797 85.0356 114.719 80.4523 Q111.663 75.8459 111.663 67.119 Q111.663 58.3691 114.719 53.7858 Q117.797 49.1793 123.607 49.1793 Z" fill="#000000" fill-rule="evenodd" fill-opacity="1" /><polyline clip-path="url(#clip722)" style="stroke:#009af9; stroke-width:4; stroke-opacity:1; fill:none" points="
  233.284,99.9257 461.922,769.526 690.56,993.447 919.197,493.666 1147.84,256.776 1376.47,386.536 1605.11,87.9763 1833.75,1152.12 2062.39,1000.06 2291.02,323.111 
  
  "/>
<polyline clip-path="url(#clip722)" style="stroke:#e26f46; stroke-width:4; stroke-opacity:1; fill:none" points="
  233.284,1286.84 461.922,1290.85 690.56,1212.59 919.197,1110.27 1147.84,678.866 1376.47,1445.72 1605.11,678.812 1833.75,1291.59 2062.39,426.778 2291.02,816.12 
  
  "/>
<path clip-path="url(#clip720)" d="
M2014.5 276.658 L2280.05 276.658 L2280.05 95.2176 L2014.5 95.2176  Z
  " fill="#ffffff" fill-rule="evenodd" fill-opacity="1"/>
<polyline clip-path="url(#clip720)" style="stroke:#000000; stroke-width:4; stroke-opacity:1; fill:none" points="
  2014.5,276.658 2280.05,276.658 2280.05,95.2176 2014.5,95.2176 2014.5,276.658 
  "/>
<polyline clip-path="url(#clip720)" style="stroke:#009af9; stroke-width:4; stroke-opacity:1; fill:none" points="
  2038.73,155.698 2184.15,155.698 
  "/>
<path clip-path="url(#clip720)" d="M 0 0 M2227.16 160.038 Q2227.16 155.339 2225.21 152.677 Q2223.29 149.992 2219.91 149.992 Q2216.53 149.992 2214.59 152.677 Q2212.67 155.339 2212.67 160.038 Q2212.67 164.737 2214.59 167.422 Q2216.53 170.084 2219.91 170.084 Q2223.29 170.084 2225.21 167.422 Q2227.16 164.737 2227.16 160.038 M2212.67 150.987 Q2214.01 148.672 2216.05 147.561 Q2218.11 146.427 2220.95 146.427 Q2225.68 146.427 2228.61 150.177 Q2231.58 153.927 2231.58 160.038 Q2231.58 166.149 2228.61 169.899 Q2225.68 173.649 2220.95 173.649 Q2218.11 173.649 2216.05 172.538 Q2214.01 171.403 2212.67 169.089 L2212.67 172.978 L2208.38 172.978 L2208.38 136.959 L2212.67 136.959 L2212.67 150.987 Z" fill="#000000" fill-rule="evenodd" fill-opacity="1" /><polyline clip-path="url(#clip720)" style="stroke:#e26f46; stroke-width:4; stroke-opacity:1; fill:none" points="
  2038.73,216.178 2184.15,216.178 
  "/>
<path clip-path="url(#clip720)" d="M 0 0 M2228.89 208.527 L2228.89 212.509 Q2227.09 211.513 2225.26 211.027 Q2223.45 210.518 2221.6 210.518 Q2217.46 210.518 2215.17 213.157 Q2212.87 215.772 2212.87 220.518 Q2212.87 225.263 2215.17 227.902 Q2217.46 230.518 2221.6 230.518 Q2223.45 230.518 2225.26 230.032 Q2227.09 229.522 2228.89 228.527 L2228.89 232.462 Q2227.11 233.296 2225.19 233.712 Q2223.29 234.129 2221.14 234.129 Q2215.28 234.129 2211.83 230.448 Q2208.38 226.768 2208.38 220.518 Q2208.38 214.175 2211.86 210.541 Q2215.35 206.907 2221.42 206.907 Q2223.38 206.907 2225.26 207.323 Q2227.13 207.717 2228.89 208.527 Z" fill="#000000" fill-rule="evenodd" fill-opacity="1" /></svg>
