<?xml version="1.0" encoding="utf-8"?>
<svg xmlns="http://www.w3.org/2000/svg" xmlns:xlink="http://www.w3.org/1999/xlink" width="600" height="400" viewBox="0 0 2400 1600">
<defs>
  <clipPath id="clip900">
    <rect x="0" y="0" width="2400" height="1600"/>
  </clipPath>
</defs>
<path clip-path="url(#clip900)" d="
M0 1600 L2400 1600 L2400 0 L0 0  Z
  " fill="#ffffff" fill-rule="evenodd" fill-opacity="1"/>
<defs>
  <clipPath id="clip901">
    <rect x="480" y="0" width="1681" height="1600"/>
  </clipPath>
</defs>
<path clip-path="url(#clip900)" d="
M185.846 1482.13 L2352.76 1482.13 L2352.76 149.392 L185.846 149.392  Z
  " fill="#ffffff" fill-rule="evenodd" fill-opacity="1"/>
<defs>
  <clipPath id="clip902">
    <rect x="185" y="149" width="2168" height="1334"/>
  </clipPath>
</defs>
<polyline clip-path="url(#clip902)" style="stroke:#000000; stroke-width:2; stroke-opacity:0.1; fill:none" points="
  677.543,1482.13 677.543,149.392 
  "/>
<polyline clip-path="url(#clip902)" style="stroke:#000000; stroke-width:2; stroke-opacity:0.1; fill:none" points="
  1215.5,1482.13 1215.5,149.392 
  "/>
<polyline clip-path="url(#clip902)" style="stroke:#000000; stroke-width:2; stroke-opacity:0.1; fill:none" points="
  1753.47,1482.13 1753.47,149.392 
  "/>
<polyline clip-path="url(#clip902)" style="stroke:#000000; stroke-width:2; stroke-opacity:0.1; fill:none" points="
  2291.43,1482.13 2291.43,149.392 
  "/>
<polyline clip-path="url(#clip900)" style="stroke:#000000; stroke-width:4; stroke-opacity:1; fill:none" points="
  185.846,1482.13 2352.76,1482.13 
  "/>
<polyline clip-path="url(#clip900)" style="stroke:#000000; stroke-width:4; stroke-opacity:1; fill:none" points="
  677.543,1482.13 677.543,1466.14 
  "/>
<polyline clip-path="url(#clip900)" style="stroke:#000000; stroke-width:4; stroke-opacity:1; fill:none" points="
  1215.5,1482.13 1215.5,1466.14 
  "/>
<polyline clip-path="url(#clip900)" style="stroke:#000000; stroke-width:4; stroke-opacity:1; fill:none" points="
  1753.47,1482.13 1753.47,1466.14 
  "/>
<polyline clip-path="url(#clip900)" style="stroke:#000000; stroke-width:4; stroke-opacity:1; fill:none" points="
  2291.43,1482.13 2291.43,1466.14 
  "/>
<path clip-path="url(#clip900)" d="M 0 0 M666.605 1509.1 L687.256 1509.1 L687.256 1513.53 L671.423 1513.53 L671.423 1523.06 Q672.569 1522.67 673.715 1522.49 Q674.861 1522.28 676.006 1522.28 Q682.517 1522.28 686.319 1525.85 Q690.121 1529.42 690.121 1535.51 Q690.121 1541.79 686.215 1545.28 Q682.308 1548.74 675.199 1548.74 Q672.751 1548.74 670.199 1548.32 Q667.673 1547.91 664.965 1547.07 L664.965 1541.79 Q667.309 1543.06 669.809 1543.69 Q672.309 1544.31 675.095 1544.31 Q679.6 1544.31 682.23 1541.94 Q684.861 1539.57 684.861 1535.51 Q684.861 1531.45 682.23 1529.08 Q679.6 1526.71 675.095 1526.71 Q672.986 1526.71 670.876 1527.18 Q668.793 1527.65 666.605 1528.64 L666.605 1509.1 Z" fill="#bebebe" fill-rule="evenodd" fill-opacity="1" /><path clip-path="url(#clip900)" d="M 0 0 M1189.49 1543.56 L1198.08 1543.56 L1198.08 1513.9 L1188.73 1515.77 L1188.73 1510.98 L1198.03 1509.1 L1203.29 1509.1 L1203.29 1543.56 L1211.88 1543.56 L1211.88 1547.98 L1189.49 1547.98 L1189.49 1543.56 Z" fill="#bebebe" fill-rule="evenodd" fill-opacity="1" /><path clip-path="url(#clip900)" d="M 0 0 M1228.84 1512.57 Q1224.78 1512.57 1222.72 1516.58 Q1220.69 1520.56 1220.69 1528.58 Q1220.69 1536.58 1222.72 1540.59 Q1224.78 1544.57 1228.84 1544.57 Q1232.93 1544.57 1234.96 1540.59 Q1237.01 1536.58 1237.01 1528.58 Q1237.01 1520.56 1234.96 1516.58 Q1232.93 1512.57 1228.84 1512.57 M1228.84 1508.4 Q1235.37 1508.4 1238.81 1513.58 Q1242.28 1518.74 1242.28 1528.58 Q1242.28 1538.4 1238.81 1543.58 Q1235.37 1548.74 1228.84 1548.74 Q1222.3 1548.74 1218.84 1543.58 Q1215.4 1538.4 1215.4 1528.58 Q1215.4 1518.74 1218.84 1513.58 Q1222.3 1508.4 1228.84 1508.4 Z" fill="#bebebe" fill-rule="evenodd" fill-opacity="1" /><path clip-path="url(#clip900)" d="M 0 0 M1728.01 1543.56 L1736.6 1543.56 L1736.6 1513.9 L1727.26 1515.77 L1727.26 1510.98 L1736.55 1509.1 L1741.81 1509.1 L1741.81 1543.56 L1750.41 1543.56 L1750.41 1547.98 L1728.01 1547.98 L1728.01 1543.56 Z" fill="#bebebe" fill-rule="evenodd" fill-opacity="1" /><path clip-path="url(#clip900)" d="M 0 0 M1756.16 1509.1 L1776.81 1509.1 L1776.81 1513.53 L1760.98 1513.53 L1760.98 1523.06 Q1762.13 1522.67 1763.27 1522.49 Q1764.42 1522.28 1765.56 1522.28 Q1772.07 1522.28 1775.88 1525.85 Q1779.68 1529.42 1779.68 1535.51 Q1779.68 1541.79 1775.77 1545.28 Q1771.86 1548.74 1764.76 1548.74 Q1762.31 1548.74 1759.76 1548.32 Q1757.23 1547.91 1754.52 1547.07 L1754.52 1541.79 Q1756.86 1543.06 1759.36 1543.69 Q1761.86 1544.31 1764.65 1544.31 Q1769.16 1544.31 1771.79 1541.94 Q1774.42 1539.57 1774.42 1535.51 Q1774.42 1531.45 1771.79 1529.08 Q1769.16 1526.71 1764.65 1526.71 Q1762.54 1526.71 1760.43 1527.18 Q1758.35 1527.65 1756.16 1528.64 L1756.16 1509.1 Z" fill="#bebebe" fill-rule="evenodd" fill-opacity="1" /><path clip-path="url(#clip900)" d="M 0 0 M2270.22 1543.56 L2288.58 1543.56 L2288.58 1547.98 L2263.89 1547.98 L2263.89 1543.56 Q2266.88 1540.46 2272.04 1535.25 Q2277.22 1530.02 2278.55 1528.5 Q2281.08 1525.67 2282.07 1523.71 Q2283.08 1521.73 2283.08 1519.83 Q2283.08 1516.73 2280.89 1514.78 Q2278.73 1512.83 2275.24 1512.83 Q2272.77 1512.83 2270.01 1513.69 Q2267.27 1514.55 2264.15 1516.29 L2264.15 1510.98 Q2267.33 1509.7 2270.09 1509.05 Q2272.85 1508.4 2275.14 1508.4 Q2281.18 1508.4 2284.77 1511.42 Q2288.37 1514.44 2288.37 1519.49 Q2288.37 1521.89 2287.46 1524.05 Q2286.57 1526.19 2284.2 1529.1 Q2283.55 1529.86 2280.06 1533.48 Q2276.57 1537.07 2270.22 1543.56 Z" fill="#bebebe" fill-rule="evenodd" fill-opacity="1" /><path clip-path="url(#clip900)" d="M 0 0 M2305.53 1512.57 Q2301.47 1512.57 2299.41 1516.58 Q2297.38 1520.56 2297.38 1528.58 Q2297.38 1536.58 2299.41 1540.59 Q2301.47 1544.57 2305.53 1544.57 Q2309.62 1544.57 2311.65 1540.59 Q2313.71 1536.58 2313.71 1528.58 Q2313.71 1520.56 2311.65 1516.58 Q2309.62 1512.57 2305.53 1512.57 M2305.53 1508.4 Q2312.07 1508.4 2315.5 1513.58 Q2318.97 1518.74 2318.97 1528.58 Q2318.97 1538.4 2315.5 1543.58 Q2312.07 1548.74 2305.53 1548.74 Q2298.99 1548.74 2295.53 1543.58 Q2292.09 1538.4 2292.09 1528.58 Q2292.09 1518.74 2295.53 1513.58 Q2298.99 1508.4 2305.53 1508.4 Z" fill="#bebebe" fill-rule="evenodd" fill-opacity="1" /><polyline clip-path="url(#clip902)" style="stroke:#000000; stroke-width:2; stroke-opacity:0.1; fill:none" points="
  185.846,1452.62 2352.76,1452.62 
  "/>
<polyline clip-path="url(#clip902)" style="stroke:#000000; stroke-width:2; stroke-opacity:0.1; fill:none" points="
  185.846,1134.53 2352.76,1134.53 
  "/>
<polyline clip-path="url(#clip902)" style="stroke:#000000; stroke-width:2; stroke-opacity:0.1; fill:none" points="
  185.846,816.438 2352.76,816.438 
  "/>
<polyline clip-path="url(#clip902)" style="stroke:#000000; stroke-width:2; stroke-opacity:0.1; fill:none" points="
  185.846,498.344 2352.76,498.344 
  "/>
<polyline clip-path="url(#clip902)" style="stroke:#000000; stroke-width:2; stroke-opacity:0.1; fill:none" points="
  185.846,180.25 2352.76,180.25 
  "/>
<polyline clip-path="url(#clip900)" style="stroke:#000000; stroke-width:4; stroke-opacity:1; fill:none" points="
  185.846,1482.13 185.846,149.392 
  "/>
<polyline clip-path="url(#clip900)" style="stroke:#000000; stroke-width:4; stroke-opacity:1; fill:none" points="
  185.846,1452.62 211.849,1452.62 
  "/>
<polyline clip-path="url(#clip900)" style="stroke:#000000; stroke-width:4; stroke-opacity:1; fill:none" points="
  185.846,1134.53 211.849,1134.53 
  "/>
<polyline clip-path="url(#clip900)" style="stroke:#000000; stroke-width:4; stroke-opacity:1; fill:none" points="
  185.846,816.438 211.849,816.438 
  "/>
<polyline clip-path="url(#clip900)" style="stroke:#000000; stroke-width:4; stroke-opacity:1; fill:none" points="
  185.846,498.344 211.849,498.344 
  "/>
<polyline clip-path="url(#clip900)" style="stroke:#000000; stroke-width:4; stroke-opacity:1; fill:none" points="
  185.846,180.25 211.849,180.25 
  "/>
<path clip-path="url(#clip900)" d="M 0 0 M64.4296 1436.65 Q60.3671 1436.65 58.3098 1440.66 Q56.2786 1444.64 56.2786 1452.66 Q56.2786 1460.66 58.3098 1464.67 Q60.3671 1468.65 64.4296 1468.65 Q68.5181 1468.65 70.5493 1464.67 Q72.6066 1460.66 72.6066 1452.66 Q72.6066 1444.64 70.5493 1440.66 Q68.5181 1436.65 64.4296 1436.65 M64.4296 1432.48 Q70.966 1432.48 74.4035 1437.66 Q77.867 1442.82 77.867 1452.66 Q77.867 1462.48 74.4035 1467.66 Q70.966 1472.82 64.4296 1472.82 Q57.8931 1472.82 54.4296 1467.66 Q50.9921 1462.48 50.9921 1452.66 Q50.9921 1442.82 54.4296 1437.66 Q57.8931 1432.48 64.4296 1432.48 Z" fill="#bebebe" fill-rule="evenodd" fill-opacity="1" /><path clip-path="url(#clip900)" d="M 0 0 M83.5701 1465.45 L89.0648 1465.45 L89.0648 1472.06 L83.5701 1472.06 L83.5701 1465.45 Z" fill="#bebebe" fill-rule="evenodd" fill-opacity="1" /><path clip-path="url(#clip900)" d="M 0 0 M106.018 1436.65 Q101.955 1436.65 99.8981 1440.66 Q97.8669 1444.64 97.8669 1452.66 Q97.8669 1460.66 99.8981 1464.67 Q101.955 1468.65 106.018 1468.65 Q110.106 1468.65 112.138 1464.67 Q114.195 1460.66 114.195 1452.66 Q114.195 1444.64 112.138 1440.66 Q110.106 1436.65 106.018 1436.65 M106.018 1432.48 Q112.554 1432.48 115.992 1437.66 Q119.455 1442.82 119.455 1452.66 Q119.455 1462.48 115.992 1467.66 Q112.554 1472.82 106.018 1472.82 Q99.4814 1472.82 96.0179 1467.66 Q92.5804 1462.48 92.5804 1452.66 Q92.5804 1442.82 96.0179 1437.66 Q99.4814 1432.48 106.018 1432.48 Z" fill="#bebebe" fill-rule="evenodd" fill-opacity="1" /><path clip-path="url(#clip900)" d="M 0 0 M136.408 1436.65 Q132.346 1436.65 130.289 1440.66 Q128.257 1444.64 128.257 1452.66 Q128.257 1460.66 130.289 1464.67 Q132.346 1468.65 136.408 1468.65 Q140.497 1468.65 142.528 1464.67 Q144.585 1460.66 144.585 1452.66 Q144.585 1444.64 142.528 1440.66 Q140.497 1436.65 136.408 1436.65 M136.408 1432.48 Q142.945 1432.48 146.382 1437.66 Q149.846 1442.82 149.846 1452.66 Q149.846 1462.48 146.382 1467.66 Q142.945 1472.82 136.408 1472.82 Q129.872 1472.82 126.408 1467.66 Q122.971 1462.48 122.971 1452.66 Q122.971 1442.82 126.408 1437.66 Q129.872 1432.48 136.408 1432.48 Z" fill="#bebebe" fill-rule="evenodd" fill-opacity="1" /><path clip-path="url(#clip900)" d="M 0 0 M67.3462 1118.55 Q63.2837 1118.55 61.2264 1122.56 Q59.1952 1126.55 59.1952 1134.57 Q59.1952 1142.56 61.2264 1146.58 Q63.2837 1150.56 67.3462 1150.56 Q71.4347 1150.56 73.466 1146.58 Q75.5232 1142.56 75.5232 1134.57 Q75.5232 1126.55 73.466 1122.56 Q71.4347 1118.55 67.3462 1118.55 M67.3462 1114.39 Q73.8826 1114.39 77.3201 1119.57 Q80.7836 1124.73 80.7836 1134.57 Q80.7836 1144.39 77.3201 1149.57 Q73.8826 1154.73 67.3462 1154.73 Q60.8098 1154.73 57.3463 1149.57 Q53.9088 1144.39 53.9088 1134.57 Q53.9088 1124.73 57.3463 1119.57 Q60.8098 1114.39 67.3462 1114.39 Z" fill="#bebebe" fill-rule="evenodd" fill-opacity="1" /><path clip-path="url(#clip900)" d="M 0 0 M86.4867 1147.36 L91.9815 1147.36 L91.9815 1153.97 L86.4867 1153.97 L86.4867 1147.36 Z" fill="#bebebe" fill-rule="evenodd" fill-opacity="1" /><path clip-path="url(#clip900)" d="M 0 0 M102.216 1149.54 L120.575 1149.54 L120.575 1153.97 L95.8877 1153.97 L95.8877 1149.54 Q98.8825 1146.45 104.039 1141.24 Q109.221 1136 110.549 1134.49 Q113.075 1131.65 114.065 1129.7 Q115.08 1127.72 115.08 1125.82 Q115.08 1122.72 112.893 1120.77 Q110.731 1118.82 107.242 1118.82 Q104.768 1118.82 102.007 1119.67 Q99.2731 1120.53 96.1481 1122.28 L96.1481 1116.97 Q99.3252 1115.69 102.086 1115.04 Q104.846 1114.39 107.138 1114.39 Q113.179 1114.39 116.773 1117.41 Q120.367 1120.43 120.367 1125.48 Q120.367 1127.88 119.455 1130.04 Q118.57 1132.17 116.2 1135.09 Q115.549 1135.85 112.06 1139.47 Q108.57 1143.06 102.216 1149.54 Z" fill="#bebebe" fill-rule="evenodd" fill-opacity="1" /><path clip-path="url(#clip900)" d="M 0 0 M126.33 1115.09 L146.981 1115.09 L146.981 1119.52 L131.148 1119.52 L131.148 1129.05 Q132.294 1128.66 133.44 1128.48 Q134.585 1128.27 135.731 1128.27 Q142.242 1128.27 146.044 1131.84 Q149.846 1135.4 149.846 1141.5 Q149.846 1147.77 145.94 1151.26 Q142.033 1154.73 134.924 1154.73 Q132.476 1154.73 129.924 1154.31 Q127.398 1153.89 124.69 1153.06 L124.69 1147.77 Q127.033 1149.05 129.533 1149.67 Q132.033 1150.3 134.82 1150.3 Q139.325 1150.3 141.955 1147.93 Q144.585 1145.56 144.585 1141.5 Q144.585 1137.43 141.955 1135.06 Q139.325 1132.7 134.82 1132.7 Q132.71 1132.7 130.601 1133.16 Q128.518 1133.63 126.33 1134.62 L126.33 1115.09 Z" fill="#bebebe" fill-rule="evenodd" fill-opacity="1" /><path clip-path="url(#clip900)" d="M 0 0 M65.5493 800.461 Q61.4869 800.461 59.4296 804.471 Q57.3983 808.456 57.3983 816.477 Q57.3983 824.471 59.4296 828.482 Q61.4869 832.466 65.5493 832.466 Q69.6379 832.466 71.6691 828.482 Q73.7264 824.471 73.7264 816.477 Q73.7264 808.456 71.6691 804.471 Q69.6379 800.461 65.5493 800.461 M65.5493 796.294 Q72.0858 796.294 75.5232 801.477 Q78.9868 806.633 78.9868 816.477 Q78.9868 826.294 75.5232 831.477 Q72.0858 836.633 65.5493 836.633 Q59.0129 836.633 55.5494 831.477 Q52.1119 826.294 52.1119 816.477 Q52.1119 806.633 55.5494 801.477 Q59.0129 796.294 65.5493 796.294 Z" fill="#bebebe" fill-rule="evenodd" fill-opacity="1" /><path clip-path="url(#clip900)" d="M 0 0 M84.6899 829.263 L90.1846 829.263 L90.1846 835.878 L84.6899 835.878 L84.6899 829.263 Z" fill="#bebebe" fill-rule="evenodd" fill-opacity="1" /><path clip-path="url(#clip900)" d="M 0 0 M95.9398 796.998 L116.591 796.998 L116.591 801.425 L100.757 801.425 L100.757 810.956 Q101.903 810.565 103.049 810.383 Q104.195 810.175 105.341 810.175 Q111.851 810.175 115.653 813.742 Q119.455 817.31 119.455 823.404 Q119.455 829.68 115.549 833.169 Q111.643 836.633 104.534 836.633 Q102.086 836.633 99.5335 836.216 Q97.0075 835.799 94.2992 834.966 L94.2992 829.68 Q96.6429 830.956 99.1429 831.581 Q101.643 832.206 104.429 832.206 Q108.935 832.206 111.565 829.836 Q114.195 827.466 114.195 823.404 Q114.195 819.341 111.565 816.971 Q108.935 814.602 104.429 814.602 Q102.32 814.602 100.211 815.07 Q98.1273 815.539 95.9398 816.529 L95.9398 796.998 Z" fill="#bebebe" fill-rule="evenodd" fill-opacity="1" /><path clip-path="url(#clip900)" d="M 0 0 M136.408 800.461 Q132.346 800.461 130.289 804.471 Q128.257 808.456 128.257 816.477 Q128.257 824.471 130.289 828.482 Q132.346 832.466 136.408 832.466 Q140.497 832.466 142.528 828.482 Q144.585 824.471 144.585 816.477 Q144.585 808.456 142.528 804.471 Q140.497 800.461 136.408 800.461 M136.408 796.294 Q142.945 796.294 146.382 801.477 Q149.846 806.633 149.846 816.477 Q149.846 826.294 146.382 831.477 Q142.945 836.633 136.408 836.633 Q129.872 836.633 126.408 831.477 Q122.971 826.294 122.971 816.477 Q122.971 806.633 126.408 801.477 Q129.872 796.294 136.408 796.294 Z" fill="#bebebe" fill-rule="evenodd" fill-opacity="1" /><path clip-path="url(#clip900)" d="M 0 0 M66.565 482.368 Q62.5025 482.368 60.4452 486.378 Q58.414 490.362 58.414 498.383 Q58.414 506.378 60.4452 510.388 Q62.5025 514.373 66.565 514.373 Q70.6535 514.373 72.6847 510.388 Q74.742 506.378 74.742 498.383 Q74.742 490.362 72.6847 486.378 Q70.6535 482.368 66.565 482.368 M66.565 478.201 Q73.1014 478.201 76.5389 483.383 Q80.0024 488.539 80.0024 498.383 Q80.0024 508.201 76.5389 513.383 Q73.1014 518.539 66.565 518.539 Q60.0285 518.539 56.565 513.383 Q53.1275 508.201 53.1275 498.383 Q53.1275 488.539 56.565 483.383 Q60.0285 478.201 66.565 478.201 Z" fill="#bebebe" fill-rule="evenodd" fill-opacity="1" /><path clip-path="url(#clip900)" d="M 0 0 M85.7055 511.169 L91.2002 511.169 L91.2002 517.784 L85.7055 517.784 L85.7055 511.169 Z" fill="#bebebe" fill-rule="evenodd" fill-opacity="1" /><path clip-path="url(#clip900)" d="M 0 0 M95.5752 478.904 L120.575 478.904 L120.575 481.144 L106.461 517.784 L100.966 517.784 L114.247 483.331 L95.5752 483.331 L95.5752 478.904 Z" fill="#bebebe" fill-rule="evenodd" fill-opacity="1" /><path clip-path="url(#clip900)" d="M 0 0 M126.33 478.904 L146.981 478.904 L146.981 483.331 L131.148 483.331 L131.148 492.862 Q132.294 492.472 133.44 492.289 Q134.585 492.081 135.731 492.081 Q142.242 492.081 146.044 495.649 Q149.846 499.216 149.846 505.31 Q149.846 511.586 145.94 515.076 Q142.033 518.539 134.924 518.539 Q132.476 518.539 129.924 518.123 Q127.398 517.706 124.69 516.873 L124.69 511.586 Q127.033 512.862 129.533 513.487 Q132.033 514.112 134.82 514.112 Q139.325 514.112 141.955 511.742 Q144.585 509.373 144.585 505.31 Q144.585 501.248 141.955 498.878 Q139.325 496.508 134.82 496.508 Q132.71 496.508 130.601 496.977 Q128.518 497.446 126.33 498.435 L126.33 478.904 Z" fill="#bebebe" fill-rule="evenodd" fill-opacity="1" /><path clip-path="url(#clip900)" d="M 0 0 M55.4713 195.263 L64.065 195.263 L64.065 165.602 L54.7161 167.477 L54.7161 162.685 L64.0129 160.81 L69.2733 160.81 L69.2733 195.263 L77.867 195.263 L77.867 199.69 L55.4713 199.69 L55.4713 195.263 Z" fill="#bebebe" fill-rule="evenodd" fill-opacity="1" /><path clip-path="url(#clip900)" d="M 0 0 M83.5701 193.076 L89.0648 193.076 L89.0648 199.69 L83.5701 199.69 L83.5701 193.076 Z" fill="#bebebe" fill-rule="evenodd" fill-opacity="1" /><path clip-path="url(#clip900)" d="M 0 0 M106.018 164.274 Q101.955 164.274 99.8981 168.284 Q97.8669 172.269 97.8669 180.29 Q97.8669 188.284 99.8981 192.295 Q101.955 196.279 106.018 196.279 Q110.106 196.279 112.138 192.295 Q114.195 188.284 114.195 180.29 Q114.195 172.269 112.138 168.284 Q110.106 164.274 106.018 164.274 M106.018 160.107 Q112.554 160.107 115.992 165.29 Q119.455 170.446 119.455 180.29 Q119.455 190.107 115.992 195.289 Q112.554 200.446 106.018 200.446 Q99.4814 200.446 96.0179 195.289 Q92.5804 190.107 92.5804 180.29 Q92.5804 170.446 96.0179 165.29 Q99.4814 160.107 106.018 160.107 Z" fill="#bebebe" fill-rule="evenodd" fill-opacity="1" /><path clip-path="url(#clip900)" d="M 0 0 M136.408 164.274 Q132.346 164.274 130.289 168.284 Q128.257 172.269 128.257 180.29 Q128.257 188.284 130.289 192.295 Q132.346 196.279 136.408 196.279 Q140.497 196.279 142.528 192.295 Q144.585 188.284 144.585 180.29 Q144.585 172.269 142.528 168.284 Q140.497 164.274 136.408 164.274 M136.408 160.107 Q142.945 160.107 146.382 165.29 Q149.846 170.446 149.846 180.29 Q149.846 190.107 146.382 195.289 Q142.945 200.446 136.408 200.446 Q129.872 200.446 126.408 195.289 Q122.971 190.107 122.971 180.29 Q122.971 170.446 126.408 165.29 Q129.872 160.107 136.408 160.107 Z" fill="#bebebe" fill-rule="evenodd" fill-opacity="1" /><path clip-path="url(#clip900)" d="M 0 0 M963.429 20.1156 L963.429 31.516 Q956.774 28.3332 950.871 26.7707 Q944.968 25.2082 939.47 25.2082 Q929.922 25.2082 924.714 28.9119 Q919.563 32.6156 919.563 39.4442 Q919.563 45.1734 922.977 48.1247 Q926.45 51.0182 936.056 52.8122 L943.116 54.259 Q956.195 56.7474 962.387 63.0552 Q968.637 69.3052 968.637 79.8375 Q968.637 92.3953 960.188 98.8768 Q951.797 105.358 935.535 105.358 Q929.401 105.358 922.457 103.969 Q915.57 102.58 908.163 99.8606 L908.163 87.8236 Q915.281 91.8166 922.109 93.8421 Q928.938 95.8675 935.535 95.8675 Q945.547 95.8675 950.987 91.9324 Q956.426 87.9972 956.426 80.7056 Q956.426 74.3399 952.491 70.7519 Q948.614 67.164 939.702 65.37 L932.584 63.9811 Q919.505 61.377 913.66 55.8215 Q907.816 50.2659 907.816 40.3702 Q907.816 28.9119 915.859 22.3147 Q923.961 15.7175 938.139 15.7175 Q944.216 15.7175 950.524 16.817 Q956.831 17.9166 963.429 20.1156 Z" fill="#bebebe" fill-rule="evenodd" fill-opacity="1" /><path clip-path="url(#clip900)" d="M 0 0 M1035.25 68.6107 L1035.25 73.819 L986.287 73.819 Q986.982 84.8144 992.884 90.6014 Q998.845 96.3305 1009.44 96.3305 Q1015.57 96.3305 1021.3 94.8259 Q1027.09 93.3213 1032.76 90.312 L1032.76 100.381 Q1027.03 102.812 1021.01 104.085 Q1014.99 105.358 1008.8 105.358 Q993.29 105.358 984.204 96.3305 Q975.176 87.3028 975.176 71.9093 Q975.176 55.9951 983.741 46.678 Q992.364 37.303 1006.95 37.303 Q1020.03 37.303 1027.61 45.7521 Q1035.25 54.1432 1035.25 68.6107 M1024.6 65.4858 Q1024.48 56.7474 1019.68 51.5391 Q1014.93 46.3308 1007.06 46.3308 Q998.151 46.3308 992.769 51.3655 Q987.445 56.4002 986.635 65.5436 L1024.6 65.4858 Z" fill="#bebebe" fill-rule="evenodd" fill-opacity="1" /><path clip-path="url(#clip900)" d="M 0 0 M1083.97 48.8192 Q1082.18 47.7775 1080.04 47.3146 Q1077.95 46.7937 1075.41 46.7937 Q1066.38 46.7937 1061.52 52.6965 Q1056.72 58.5414 1056.72 69.5367 L1056.72 103.68 L1046.01 103.68 L1046.01 38.8655 L1056.72 38.8655 L1056.72 48.9349 Q1060.07 43.0322 1065.45 40.1965 Q1070.84 37.303 1078.53 37.303 Q1079.63 37.303 1080.96 37.4767 Q1082.29 37.5924 1083.91 37.8817 L1083.97 48.8192 Z" fill="#bebebe" fill-rule="evenodd" fill-opacity="1" /><path clip-path="url(#clip900)" d="M 0 0 M1095.14 38.8655 L1105.79 38.8655 L1105.79 103.68 L1095.14 103.68 L1095.14 38.8655 M1095.14 13.6342 L1105.79 13.6342 L1105.79 27.1179 L1095.14 27.1179 L1095.14 13.6342 Z" fill="#bebebe" fill-rule="evenodd" fill-opacity="1" /><path clip-path="url(#clip900)" d="M 0 0 M1172.4 68.6107 L1172.4 73.819 L1123.44 73.819 Q1124.13 84.8144 1130.04 90.6014 Q1136 96.3305 1146.59 96.3305 Q1152.72 96.3305 1158.45 94.8259 Q1164.24 93.3213 1169.91 90.312 L1169.91 100.381 Q1164.18 102.812 1158.16 104.085 Q1152.14 105.358 1145.95 105.358 Q1130.44 105.358 1121.36 96.3305 Q1112.33 87.3028 1112.33 71.9093 Q1112.33 55.9951 1120.89 46.678 Q1129.52 37.303 1144.1 37.303 Q1157.18 37.303 1164.76 45.7521 Q1172.4 54.1432 1172.4 68.6107 M1161.75 65.4858 Q1161.63 56.7474 1156.83 51.5391 Q1152.09 46.3308 1144.21 46.3308 Q1135.3 46.3308 1129.92 51.3655 Q1124.6 56.4002 1123.79 65.5436 L1161.75 65.4858 Z" fill="#bebebe" fill-rule="evenodd" fill-opacity="1" /><path clip-path="url(#clip900)" d="M 0 0 M1231.31 17.28 L1231.31 49.3979 L1221.47 49.3979 L1221.47 17.28 L1231.31 17.28 Z" fill="#bebebe" fill-rule="evenodd" fill-opacity="1" /><path clip-path="url(#clip900)" d="M 0 0 M1283.8 40.7752 L1283.8 50.8446 Q1279.28 48.5298 1274.42 47.3724 Q1269.56 46.215 1264.35 46.215 Q1256.42 46.215 1252.43 48.6456 Q1248.5 51.0761 1248.5 55.9372 Q1248.5 59.6409 1251.33 61.7821 Q1254.17 63.8654 1262.73 65.7751 L1266.38 66.5853 Q1277.72 69.0158 1282.47 73.4718 Q1287.27 77.87 1287.27 85.7982 Q1287.27 94.8259 1280.09 100.092 Q1272.98 105.358 1260.48 105.358 Q1255.27 105.358 1249.6 104.317 Q1243.98 103.333 1237.73 101.307 L1237.73 90.312 Q1243.64 93.3791 1249.36 94.9416 Q1255.09 96.4462 1260.71 96.4462 Q1268.23 96.4462 1272.28 93.9 Q1276.33 91.2958 1276.33 86.6083 Q1276.33 82.2681 1273.38 79.9533 Q1270.49 77.6385 1260.59 75.4973 L1256.89 74.6292 Q1246.99 72.5459 1242.59 68.2635 Q1238.2 63.9233 1238.2 56.4002 Q1238.2 47.2567 1244.68 42.2799 Q1251.16 37.303 1263.08 37.303 Q1268.98 37.303 1274.19 38.1711 Q1279.4 39.0391 1283.8 40.7752 Z" fill="#bebebe" fill-rule="evenodd" fill-opacity="1" /><path clip-path="url(#clip900)" d="M 0 0 M1345.08 41.3539 L1345.08 51.3076 Q1340.57 48.8192 1336 47.6039 Q1331.48 46.3308 1326.85 46.3308 Q1316.49 46.3308 1310.76 52.928 Q1305.04 59.4673 1305.04 71.3306 Q1305.04 83.194 1310.76 89.7912 Q1316.49 96.3305 1326.85 96.3305 Q1331.48 96.3305 1336 95.1152 Q1340.57 93.8421 1345.08 91.3537 L1345.08 101.192 Q1340.63 103.275 1335.82 104.317 Q1331.08 105.358 1325.7 105.358 Q1311.05 105.358 1302.43 96.1569 Q1293.81 86.9556 1293.81 71.3306 Q1293.81 55.4742 1302.49 46.3886 Q1311.23 37.303 1326.39 37.303 Q1331.31 37.303 1336 38.3447 Q1340.68 39.3285 1345.08 41.3539 Z" fill="#bebebe" fill-rule="evenodd" fill-opacity="1" /><path clip-path="url(#clip900)" d="M 0 0 M1385.71 71.0992 Q1372.8 71.0992 1367.82 74.0505 Q1362.85 77.0019 1362.85 84.1199 Q1362.85 89.7912 1366.55 93.1476 Q1370.31 96.4462 1376.74 96.4462 Q1385.59 96.4462 1390.91 90.1963 Q1396.3 83.8884 1396.3 73.4718 L1396.3 71.0992 L1385.71 71.0992 M1406.94 66.701 L1406.94 103.68 L1396.3 103.68 L1396.3 93.8421 Q1392.65 99.7448 1387.21 102.58 Q1381.77 105.358 1373.9 105.358 Q1363.95 105.358 1358.04 99.8027 Q1352.2 94.1893 1352.2 84.8144 Q1352.2 73.8769 1359.49 68.3214 Q1366.84 62.7659 1381.37 62.7659 L1396.3 62.7659 L1396.3 61.7242 Q1396.3 54.3747 1391.44 50.3817 Q1386.63 46.3308 1377.89 46.3308 Q1372.34 46.3308 1367.07 47.6618 Q1361.81 48.9928 1356.95 51.6548 L1356.95 41.8169 Q1362.79 39.56 1368.29 38.4604 Q1373.79 37.303 1378.99 37.303 Q1393.06 37.303 1400 44.5947 Q1406.94 51.8863 1406.94 66.701 Z" fill="#bebebe" fill-rule="evenodd" fill-opacity="1" /><path clip-path="url(#clip900)" d="M 0 0 M1428.65 20.4629 L1428.65 38.8655 L1450.58 38.8655 L1450.58 47.141 L1428.65 47.141 L1428.65 82.3259 Q1428.65 90.2541 1430.79 92.5111 Q1432.99 94.768 1439.64 94.768 L1450.58 94.768 L1450.58 103.68 L1439.64 103.68 Q1427.32 103.68 1422.63 99.1083 Q1417.94 94.4787 1417.94 82.3259 L1417.94 47.141 L1410.13 47.141 L1410.13 38.8655 L1417.94 38.8655 L1417.94 20.4629 L1428.65 20.4629 Z" fill="#bebebe" fill-rule="evenodd" fill-opacity="1" /><path clip-path="url(#clip900)" d="M 0 0 M1472.28 20.4629 L1472.28 38.8655 L1494.21 38.8655 L1494.21 47.141 L1472.28 47.141 L1472.28 82.3259 Q1472.28 90.2541 1474.42 92.5111 Q1476.62 94.768 1483.28 94.768 L1494.21 94.768 L1494.21 103.68 L1483.28 103.68 Q1470.95 103.68 1466.26 99.1083 Q1461.57 94.4787 1461.57 82.3259 L1461.57 47.141 L1453.76 47.141 L1453.76 38.8655 L1461.57 38.8655 L1461.57 20.4629 L1472.28 20.4629 Z" fill="#bebebe" fill-rule="evenodd" fill-opacity="1" /><path clip-path="url(#clip900)" d="M 0 0 M1560.82 68.6107 L1560.82 73.819 L1511.86 73.819 Q1512.56 84.8144 1518.46 90.6014 Q1524.42 96.3305 1535.01 96.3305 Q1541.15 96.3305 1546.87 94.8259 Q1552.66 93.3213 1558.33 90.312 L1558.33 100.381 Q1552.6 102.812 1546.59 104.085 Q1540.57 105.358 1534.37 105.358 Q1518.87 105.358 1509.78 96.3305 Q1500.75 87.3028 1500.75 71.9093 Q1500.75 55.9951 1509.32 46.678 Q1517.94 37.303 1532.52 37.303 Q1545.6 37.303 1553.18 45.7521 Q1560.82 54.1432 1560.82 68.6107 M1550.17 65.4858 Q1550.06 56.7474 1545.25 51.5391 Q1540.51 46.3308 1532.64 46.3308 Q1523.73 46.3308 1518.34 51.3655 Q1513.02 56.4002 1512.21 65.5436 L1550.17 65.4858 Z" fill="#bebebe" fill-rule="evenodd" fill-opacity="1" /><path clip-path="url(#clip900)" d="M 0 0 M1609.55 48.8192 Q1607.75 47.7775 1605.61 47.3146 Q1603.53 46.7937 1600.98 46.7937 Q1591.96 46.7937 1587.09 52.6965 Q1582.29 58.5414 1582.29 69.5367 L1582.29 103.68 L1571.59 103.68 L1571.59 38.8655 L1582.29 38.8655 L1582.29 48.9349 Q1585.65 43.0322 1591.03 40.1965 Q1596.41 37.303 1604.11 37.303 Q1605.21 37.303 1606.54 37.4767 Q1607.87 37.5924 1609.49 37.8817 L1609.55 48.8192 Z" fill="#bebebe" fill-rule="evenodd" fill-opacity="1" /><path clip-path="url(#clip900)" d="M 0 0 M1630.79 17.28 L1630.79 49.3979 L1620.95 49.3979 L1620.95 17.28 L1630.79 17.28 Z" fill="#bebebe" fill-rule="evenodd" fill-opacity="1" /><path clip-path="url(#clip902)" d="M247.173 487.679 L244.353 495.791 L235.761 495.971 L242.613 501.167 L240.117 509.387 L247.173 504.479 L254.229 509.387 L251.733 501.167 L258.585 495.971 L249.993 495.791 L247.173 487.679 Z" fill="#ffa500" fill-rule="evenodd" fill-opacity="0.5" stroke="#ff0000" stroke-opacity="0.5" stroke-width="3.2"/>
<path clip-path="url(#clip902)" d="M354.766 735.887 L351.946 743.999 L343.354 744.179 L350.206 749.375 L347.71 757.595 L354.766 752.687 L361.822 757.595 L359.326 749.375 L366.178 744.179 L357.586 743.999 L354.766 735.887 Z" fill="#ffa500" fill-rule="evenodd" fill-opacity="0.5" stroke="#ff0000" stroke-opacity="0.5" stroke-width="3.2"/>
<path clip-path="url(#clip902)" d="M462.358 229.763 L459.538 237.875 L450.946 238.055 L457.798 243.251 L455.302 251.471 L462.358 246.563 L469.414 251.471 L466.918 243.251 L473.77 238.055 L465.178 237.875 L462.358 229.763 Z" fill="#ffa500" fill-rule="evenodd" fill-opacity="0.5" stroke="#ff0000" stroke-opacity="0.5" stroke-width="3.2"/>
<path clip-path="url(#clip902)" d="M569.95 1240.36 L567.13 1248.47 L558.538 1248.65 L565.39 1253.85 L562.894 1262.07 L569.95 1257.16 L577.006 1262.07 L574.51 1253.85 L581.362 1248.65 L572.77 1248.47 L569.95 1240.36 Z" fill="#ffa500" fill-rule="evenodd" fill-opacity="0.5" stroke="#ff0000" stroke-opacity="0.5" stroke-width="3.2"/>
<path clip-path="url(#clip902)" d="M677.543 514.003 L674.723 522.115 L666.131 522.295 L672.983 527.491 L670.487 535.711 L677.543 530.803 L684.599 535.711 L682.103 527.491 L688.955 522.295 L680.363 522.115 L677.543 514.003 Z" fill="#ffa500" fill-rule="evenodd" fill-opacity="0.5" stroke="#ff0000" stroke-opacity="0.5" stroke-width="3.2"/>
<path clip-path="url(#clip902)" d="M785.135 822.415 L782.315 830.527 L773.723 830.707 L780.575 835.903 L778.079 844.123 L785.135 839.215 L792.191 844.123 L789.695 835.903 L796.547 830.707 L787.955 830.527 L785.135 822.415 Z" fill="#ffa500" fill-rule="evenodd" fill-opacity="0.5" stroke="#ff0000" stroke-opacity="0.5" stroke-width="3.2"/>
<path clip-path="url(#clip902)" d="M892.728 309.399 L889.908 317.511 L881.316 317.691 L888.168 322.887 L885.672 331.107 L892.728 326.199 L899.784 331.107 L897.288 322.887 L904.14 317.691 L895.548 317.511 L892.728 309.399 Z" fill="#ffa500" fill-rule="evenodd" fill-opacity="0.5" stroke="#ff0000" stroke-opacity="0.5" stroke-width="3.2"/>
<path clip-path="url(#clip902)" d="M1000.32 468.17 L997.5 476.282 L988.908 476.462 L995.76 481.658 L993.264 489.878 L1000.32 484.97 L1007.38 489.878 L1004.88 481.658 L1011.73 476.462 L1003.14 476.282 L1000.32 468.17 Z" fill="#ffa500" fill-rule="evenodd" fill-opacity="0.5" stroke="#ff0000" stroke-opacity="0.5" stroke-width="3.2"/>
<path clip-path="url(#clip902)" d="M1107.91 1189.92 L1105.09 1198.03 L1096.5 1198.21 L1103.35 1203.41 L1100.86 1211.63 L1107.91 1206.72 L1114.97 1211.63 L1112.47 1203.41 L1119.32 1198.21 L1110.73 1198.03 L1107.91 1189.92 Z" fill="#ffa500" fill-rule="evenodd" fill-opacity="0.5" stroke="#ff0000" stroke-opacity="0.5" stroke-width="3.2"/>
<path clip-path="url(#clip902)" d="M1215.5 1058.77 L1212.68 1066.88 L1204.09 1067.06 L1210.94 1072.26 L1208.45 1080.48 L1215.5 1075.57 L1222.56 1080.48 L1220.06 1072.26 L1226.92 1067.06 L1218.32 1066.88 L1215.5 1058.77 Z" fill="#ffa500" fill-rule="evenodd" fill-opacity="0.5" stroke="#ff0000" stroke-opacity="0.5" stroke-width="3.2"/>
<path clip-path="url(#clip902)" d="M1323.1 562.202 L1320.28 570.314 L1311.69 570.494 L1318.54 575.69 L1316.04 583.91 L1323.1 579.002 L1330.15 583.91 L1327.66 575.69 L1334.51 570.494 L1325.92 570.314 L1323.1 562.202 Z" fill="#ffa500" fill-rule="evenodd" fill-opacity="0.5" stroke="#ff0000" stroke-opacity="0.5" stroke-width="3.2"/>
<path clip-path="url(#clip902)" d="M1430.69 774.643 L1427.87 782.755 L1419.28 782.935 L1426.13 788.131 L1423.63 796.351 L1430.69 791.443 L1437.75 796.351 L1435.25 788.131 L1442.1 782.935 L1433.51 782.755 L1430.69 774.643 Z" fill="#ffa500" fill-rule="evenodd" fill-opacity="0.5" stroke="#ff0000" stroke-opacity="0.5" stroke-width="3.2"/>
<path clip-path="url(#clip902)" d="M1538.28 1398.36 L1535.46 1406.47 L1526.87 1406.65 L1533.72 1411.85 L1531.23 1420.07 L1538.28 1415.16 L1545.34 1420.07 L1542.84 1411.85 L1549.69 1406.65 L1541.1 1406.47 L1538.28 1398.36 Z" fill="#ffa500" fill-rule="evenodd" fill-opacity="0.5" stroke="#ff0000" stroke-opacity="0.5" stroke-width="3.2"/>
<path clip-path="url(#clip902)" d="M1645.87 636.353 L1643.05 644.465 L1634.46 644.645 L1641.31 649.841 L1638.82 658.061 L1645.87 653.153 L1652.93 658.061 L1650.43 649.841 L1657.29 644.645 L1648.69 644.465 L1645.87 636.353 Z" fill="#ffa500" fill-rule="evenodd" fill-opacity="0.5" stroke="#ff0000" stroke-opacity="0.5" stroke-width="3.2"/>
<path clip-path="url(#clip902)" d="M1753.47 960.697 L1750.65 968.809 L1742.05 968.989 L1748.91 974.185 L1746.41 982.405 L1753.47 977.497 L1760.52 982.405 L1758.03 974.185 L1764.88 968.989 L1756.29 968.809 L1753.47 960.697 Z" fill="#ffa500" fill-rule="evenodd" fill-opacity="0.5" stroke="#ff0000" stroke-opacity="0.5" stroke-width="3.2"/>
<path clip-path="url(#clip902)" d="M1861.06 1180.87 L1858.24 1188.98 L1849.65 1189.16 L1856.5 1194.35 L1854 1202.57 L1861.06 1197.67 L1868.11 1202.57 L1865.62 1194.35 L1872.47 1189.16 L1863.88 1188.98 L1861.06 1180.87 Z" fill="#ffa500" fill-rule="evenodd" fill-opacity="0.5" stroke="#ff0000" stroke-opacity="0.5" stroke-width="3.2"/>
<path clip-path="url(#clip902)" d="M1968.65 470.935 L1965.83 479.047 L1957.24 479.227 L1964.09 484.423 L1961.6 492.643 L1968.65 487.735 L1975.71 492.643 L1973.21 484.423 L1980.06 479.227 L1971.47 479.047 L1968.65 470.935 Z" fill="#ffa500" fill-rule="evenodd" fill-opacity="0.5" stroke="#ff0000" stroke-opacity="0.5" stroke-width="3.2"/>
<path clip-path="url(#clip902)" d="M2076.24 657.753 L2073.42 665.865 L2064.83 666.045 L2071.68 671.241 L2069.19 679.461 L2076.24 674.553 L2083.3 679.461 L2080.8 671.241 L2087.66 666.045 L2079.06 665.865 L2076.24 657.753 Z" fill="#ffa500" fill-rule="evenodd" fill-opacity="0.5" stroke="#ff0000" stroke-opacity="0.5" stroke-width="3.2"/>
<path clip-path="url(#clip902)" d="M2183.84 274.549 L2181.02 282.661 L2172.42 282.841 L2179.28 288.037 L2176.78 296.257 L2183.84 291.349 L2190.89 296.257 L2188.4 288.037 L2195.25 282.841 L2186.66 282.661 L2183.84 274.549 Z" fill="#ffa500" fill-rule="evenodd" fill-opacity="0.5" stroke="#ff0000" stroke-opacity="0.5" stroke-width="3.2"/>
<path clip-path="url(#clip902)" d="M2291.43 175.111 L2288.61 183.223 L2280.02 183.403 L2286.87 188.599 L2284.37 196.819 L2291.43 191.911 L2298.48 196.819 L2295.99 188.599 L2302.84 183.403 L2294.25 183.223 L2291.43 175.111 Z" fill="#ffa500" fill-rule="evenodd" fill-opacity="0.5" stroke="#ff0000" stroke-opacity="0.5" stroke-width="3.2"/>
<path clip-path="url(#clip902)" d="M247.173 373.535 L219.173 401.535 L247.173 429.535 L275.173 401.535 L247.173 373.535 Z" fill="#008000" fill-rule="evenodd" fill-opacity="1" stroke="#ff0000" stroke-opacity="1" stroke-width="3.2"/>
<path clip-path="url(#clip902)" d="M354.766 1039.99 L326.766 1067.99 L354.766 1095.99 L382.766 1067.99 L354.766 1039.99 Z" fill="#008000" fill-rule="evenodd" fill-opacity="1" stroke="#ff0000" stroke-opacity="1" stroke-width="3.2"/>
<path clip-path="url(#clip902)" d="M462.358 895.001 L434.358 923.001 L462.358 951.001 L490.358 923.001 L462.358 895.001 Z" fill="#008000" fill-rule="evenodd" fill-opacity="1" stroke="#ff0000" stroke-opacity="1" stroke-width="3.2"/>
<path clip-path="url(#clip902)" d="M569.95 417.916 L541.95 445.916 L569.95 473.916 L597.95 445.916 L569.95 417.916 Z" fill="#008000" fill-rule="evenodd" fill-opacity="1" stroke="#ff0000" stroke-opacity="1" stroke-width="3.2"/>
<path clip-path="url(#clip902)" d="M677.543 918.425 L649.543 946.425 L677.543 974.425 L705.543 946.425 L677.543 918.425 Z" fill="#008000" fill-rule="evenodd" fill-opacity="1" stroke="#ff0000" stroke-opacity="1" stroke-width="3.2"/>
<path clip-path="url(#clip902)" d="M785.135 1074.74 L757.135 1102.74 L785.135 1130.74 L813.135 1102.74 L785.135 1074.74 Z" fill="#008000" fill-rule="evenodd" fill-opacity="1" stroke="#ff0000" stroke-opacity="1" stroke-width="3.2"/>
<path clip-path="url(#clip902)" d="M892.728 1050.21 L864.728 1078.21 L892.728 1106.21 L920.728 1078.21 L892.728 1050.21 Z" fill="#008000" fill-rule="evenodd" fill-opacity="1" stroke="#ff0000" stroke-opacity="1" stroke-width="3.2"/>
<path clip-path="url(#clip902)" d="M1000.32 163.781 L972.32 191.781 L1000.32 219.781 L1028.32 191.781 L1000.32 163.781 Z" fill="#008000" fill-rule="evenodd" fill-opacity="1" stroke="#ff0000" stroke-opacity="1" stroke-width="3.2"/>
<path clip-path="url(#clip902)" d="M1107.91 280.859 L1079.91 308.859 L1107.91 336.859 L1135.91 308.859 L1107.91 280.859 Z" fill="#008000" fill-rule="evenodd" fill-opacity="1" stroke="#ff0000" stroke-opacity="1" stroke-width="3.2"/>
<path clip-path="url(#clip902)" d="M1215.5 632.817 L1187.5 660.817 L1215.5 688.817 L1243.5 660.817 L1215.5 632.817 Z" fill="#008000" fill-rule="evenodd" fill-opacity="1" stroke="#ff0000" stroke-opacity="1" stroke-width="3.2"/>
<path clip-path="url(#clip902)" d="M1323.1 221.488 L1295.1 249.488 L1323.1 277.488 L1351.1 249.488 L1323.1 221.488 Z" fill="#008000" fill-rule="evenodd" fill-opacity="1" stroke="#ff0000" stroke-opacity="1" stroke-width="3.2"/>
<path clip-path="url(#clip902)" d="M1430.69 1315.57 L1402.69 1343.57 L1430.69 1371.57 L1458.69 1343.57 L1430.69 1315.57 Z" fill="#008000" fill-rule="evenodd" fill-opacity="1" stroke="#ff0000" stroke-opacity="1" stroke-width="3.2"/>
<path clip-path="url(#clip902)" d="M1538.28 503.76 L1510.28 531.76 L1538.28 559.76 L1566.28 531.76 L1538.28 503.76 Z" fill="#008000" fill-rule="evenodd" fill-opacity="1" stroke="#ff0000" stroke-opacity="1" stroke-width="3.2"/>
<path clip-path="url(#clip902)" d="M1645.87 191.708 L1617.87 219.708 L1645.87 247.708 L1673.87 219.708 L1645.87 191.708 Z" fill="#008000" fill-rule="evenodd" fill-opacity="1" stroke="#ff0000" stroke-opacity="1" stroke-width="3.2"/>
<path clip-path="url(#clip902)" d="M1753.47 1099.8 L1725.47 1127.8 L1753.47 1155.8 L1781.47 1127.8 L1753.47 1099.8 Z" fill="#008000" fill-rule="evenodd" fill-opacity="1" stroke="#ff0000" stroke-opacity="1" stroke-width="3.2"/>
<path clip-path="url(#clip902)" d="M1861.06 372.819 L1833.06 400.819 L1861.06 428.819 L1889.06 400.819 L1861.06 372.819 Z" fill="#008000" fill-rule="evenodd" fill-opacity="1" stroke="#ff0000" stroke-opacity="1" stroke-width="3.2"/>
<path clip-path="url(#clip902)" d="M1968.65 374.187 L1940.65 402.187 L1968.65 430.187 L1996.65 402.187 L1968.65 374.187 Z" fill="#008000" fill-rule="evenodd" fill-opacity="1" stroke="#ff0000" stroke-opacity="1" stroke-width="3.2"/>
<path clip-path="url(#clip902)" d="M2076.24 964.847 L2048.24 992.847 L2076.24 1020.85 L2104.24 992.847 L2076.24 964.847 Z" fill="#008000" fill-rule="evenodd" fill-opacity="1" stroke="#ff0000" stroke-opacity="1" stroke-width="3.2"/>
<path clip-path="url(#clip902)" d="M2183.84 857.473 L2155.84 885.473 L2183.84 913.473 L2211.84 885.473 L2183.84 857.473 Z" fill="#008000" fill-rule="evenodd" fill-opacity="1" stroke="#ff0000" stroke-opacity="1" stroke-width="3.2"/>
<path clip-path="url(#clip902)" d="M2291.43 923.828 L2263.43 951.828 L2291.43 979.828 L2319.43 951.828 L2291.43 923.828 Z" fill="#008000" fill-rule="evenodd" fill-opacity="1" stroke="#ff0000" stroke-opacity="1" stroke-width="3.2"/>
<path clip-path="url(#clip902)" d="M208.773 743.57 L266.373 777.17 L266.373 709.97 L208.773 743.57 Z" fill="#00008b" fill-rule="evenodd" fill-opacity="0.2" stroke="#ff0000" stroke-opacity="0.2" stroke-width="3.2"/>
<path clip-path="url(#clip902)" d="M316.366 1009.5 L373.966 1043.1 L373.966 975.896 L316.366 1009.5 Z" fill="#00008b" fill-rule="evenodd" fill-opacity="0.2" stroke="#ff0000" stroke-opacity="0.2" stroke-width="3.2"/>
<path clip-path="url(#clip902)" d="M423.958 511.227 L481.558 544.827 L481.558 477.627 L423.958 511.227 Z" fill="#00008b" fill-rule="evenodd" fill-opacity="0.2" stroke="#ff0000" stroke-opacity="0.2" stroke-width="3.2"/>
<path clip-path="url(#clip902)" d="M531.55 1105.63 L589.15 1139.23 L589.15 1072.03 L531.55 1105.63 Z" fill="#00008b" fill-rule="evenodd" fill-opacity="0.2" stroke="#ff0000" stroke-opacity="0.2" stroke-width="3.2"/>
<path clip-path="url(#clip902)" d="M639.143 1213.74 L696.743 1247.34 L696.743 1180.14 L639.143 1213.74 Z" fill="#00008b" fill-rule="evenodd" fill-opacity="0.2" stroke="#ff0000" stroke-opacity="0.2" stroke-width="3.2"/>
<path clip-path="url(#clip902)" d="M746.735 1221.14 L804.335 1254.74 L804.335 1187.54 L746.735 1221.14 Z" fill="#00008b" fill-rule="evenodd" fill-opacity="0.2" stroke="#ff0000" stroke-opacity="0.2" stroke-width="3.2"/>
<path clip-path="url(#clip902)" d="M854.328 760.072 L911.928 793.672 L911.928 726.472 L854.328 760.072 Z" fill="#00008b" fill-rule="evenodd" fill-opacity="0.2" stroke="#ff0000" stroke-opacity="0.2" stroke-width="3.2"/>
<path clip-path="url(#clip902)" d="M961.92 622.261 L1019.52 655.861 L1019.52 588.661 L961.92 622.261 Z" fill="#00008b" fill-rule="evenodd" fill-opacity="0.2" stroke="#ff0000" stroke-opacity="0.2" stroke-width="3.2"/>
<path clip-path="url(#clip902)" d="M1069.51 207.278 L1127.11 240.878 L1127.11 173.678 L1069.51 207.278 Z" fill="#00008b" fill-rule="evenodd" fill-opacity="0.2" stroke="#ff0000" stroke-opacity="0.2" stroke-width="3.2"/>
<path clip-path="url(#clip902)" d="M1177.1 1444.41 L1234.7 1478.01 L1234.7 1410.81 L1177.1 1444.41 Z" fill="#00008b" fill-rule="evenodd" fill-opacity="0.2" stroke="#ff0000" stroke-opacity="0.2" stroke-width="3.2"/>
<path clip-path="url(#clip902)" d="M1284.7 588.528 L1342.3 622.128 L1342.3 554.928 L1284.7 588.528 Z" fill="#00008b" fill-rule="evenodd" fill-opacity="0.2" stroke="#ff0000" stroke-opacity="0.2" stroke-width="3.2"/>
<path clip-path="url(#clip902)" d="M1392.29 1209.71 L1449.89 1243.31 L1449.89 1176.11 L1392.29 1209.71 Z" fill="#00008b" fill-rule="evenodd" fill-opacity="0.2" stroke="#ff0000" stroke-opacity="0.2" stroke-width="3.2"/>
<path clip-path="url(#clip902)" d="M1499.88 989.39 L1557.48 1022.99 L1557.48 955.79 L1499.88 989.39 Z" fill="#00008b" fill-rule="evenodd" fill-opacity="0.2" stroke="#ff0000" stroke-opacity="0.2" stroke-width="3.2"/>
<path clip-path="url(#clip902)" d="M1607.47 750.653 L1665.07 784.253 L1665.07 717.053 L1607.47 750.653 Z" fill="#00008b" fill-rule="evenodd" fill-opacity="0.2" stroke="#ff0000" stroke-opacity="0.2" stroke-width="3.2"/>
<path clip-path="url(#clip902)" d="M1715.07 1088.19 L1772.67 1121.79 L1772.67 1054.59 L1715.07 1088.19 Z" fill="#00008b" fill-rule="evenodd" fill-opacity="0.2" stroke="#ff0000" stroke-opacity="0.2" stroke-width="3.2"/>
<path clip-path="url(#clip902)" d="M1822.66 295.583 L1880.26 329.183 L1880.26 261.983 L1822.66 295.583 Z" fill="#00008b" fill-rule="evenodd" fill-opacity="0.2" stroke="#ff0000" stroke-opacity="0.2" stroke-width="3.2"/>
<path clip-path="url(#clip902)" d="M1930.25 1116.07 L1987.85 1149.67 L1987.85 1082.47 L1930.25 1116.07 Z" fill="#00008b" fill-rule="evenodd" fill-opacity="0.2" stroke="#ff0000" stroke-opacity="0.2" stroke-width="3.2"/>
<path clip-path="url(#clip902)" d="M2037.84 808.122 L2095.44 841.722 L2095.44 774.522 L2037.84 808.122 Z" fill="#00008b" fill-rule="evenodd" fill-opacity="0.2" stroke="#ff0000" stroke-opacity="0.2" stroke-width="3.2"/>
<path clip-path="url(#clip902)" d="M2145.44 829.333 L2203.04 862.933 L2203.04 795.733 L2145.44 829.333 Z" fill="#00008b" fill-rule="evenodd" fill-opacity="0.2" stroke="#ff0000" stroke-opacity="0.2" stroke-width="3.2"/>
<path clip-path="url(#clip902)" d="M2253.03 221.356 L2310.63 254.956 L2310.63 187.756 L2253.03 221.356 Z" fill="#00008b" fill-rule="evenodd" fill-opacity="0.2" stroke="#ff0000" stroke-opacity="0.2" stroke-width="3.2"/>
<path clip-path="url(#clip900)" d="
M1988.16 435.737 L2280.53 435.737 L2280.53 193.817 L1988.16 193.817  Z
  " fill="#ffffff" fill-rule="evenodd" fill-opacity="1"/>
<polyline clip-path="url(#clip900)" style="stroke:#000000; stroke-width:4; stroke-opacity:1; fill:none" points="
  1988.16,435.737 2280.53,435.737 2280.53,193.817 1988.16,193.817 1988.16,435.737 
  "/>
<path clip-path="url(#clip900)" d="M2084.47 228.697 L2078.45 246.002 L2060.12 246.386 L2074.74 257.471 L2069.42 275.007 L2084.47 264.537 L2099.52 275.007 L2094.2 257.471 L2108.81 246.386 L2090.48 246.002 L2084.47 228.697 Z" fill="#ffa500" fill-rule="evenodd" fill-opacity="0.5" stroke="#ff0000" stroke-opacity="0.5" stroke-width="6.82667"/>
<path clip-path="url(#clip900)" d="M 0 0 M2194.62 273.984 Q2192.81 278.614 2191.1 280.026 Q2189.39 281.438 2186.52 281.438 L2183.11 281.438 L2183.11 277.873 L2185.61 277.873 Q2187.37 277.873 2188.34 277.04 Q2189.32 276.206 2190.5 273.104 L2191.26 271.16 L2180.78 245.651 L2185.29 245.651 L2193.39 265.929 L2201.49 245.651 L2206.01 245.651 L2194.62 273.984 Z" fill="#bebebe" fill-rule="evenodd" fill-opacity="1" /><path clip-path="url(#clip900)" d="M 0 0 M2211.89 267.641 L2219.52 267.641 L2219.52 241.276 L2211.21 242.943 L2211.21 238.683 L2219.48 237.017 L2224.15 237.017 L2224.15 267.641 L2231.79 267.641 L2231.79 271.577 L2211.89 271.577 L2211.89 267.641 Z" fill="#bebebe" fill-rule="evenodd" fill-opacity="1" /><path clip-path="url(#clip900)" d="M2084.47 289.177 L2058.87 314.777 L2084.47 340.377 L2110.07 314.777 L2084.47 289.177 Z" fill="#008000" fill-rule="evenodd" fill-opacity="1" stroke="#ff0000" stroke-opacity="1" stroke-width="2.92571"/>
<path clip-path="url(#clip900)" d="M 0 0 M2194.62 334.464 Q2192.81 339.094 2191.1 340.506 Q2189.39 341.918 2186.52 341.918 L2183.11 341.918 L2183.11 338.353 L2185.61 338.353 Q2187.37 338.353 2188.34 337.52 Q2189.32 336.686 2190.5 333.584 L2191.26 331.64 L2180.78 306.131 L2185.29 306.131 L2193.39 326.409 L2201.49 306.131 L2206.01 306.131 L2194.62 334.464 Z" fill="#bebebe" fill-rule="evenodd" fill-opacity="1" /><path clip-path="url(#clip900)" d="M 0 0 M2215.1 328.121 L2231.42 328.121 L2231.42 332.057 L2209.48 332.057 L2209.48 328.121 Q2212.14 325.367 2216.72 320.737 Q2221.33 316.085 2222.51 314.742 Q2224.76 312.219 2225.64 310.483 Q2226.54 308.723 2226.54 307.034 Q2226.54 304.279 2224.59 302.543 Q2222.67 300.807 2219.57 300.807 Q2217.37 300.807 2214.92 301.571 Q2212.49 302.335 2209.71 303.886 L2209.71 299.163 Q2212.53 298.029 2214.99 297.45 Q2217.44 296.872 2219.48 296.872 Q2224.85 296.872 2228.04 299.557 Q2231.24 302.242 2231.24 306.733 Q2231.24 308.862 2230.43 310.784 Q2229.64 312.682 2227.53 315.274 Q2226.96 315.946 2223.85 319.163 Q2220.75 322.358 2215.1 328.121 Z" fill="#bebebe" fill-rule="evenodd" fill-opacity="1" /><path clip-path="url(#clip900)" d="M2063.99 375.257 L2094.71 393.177 L2094.71 357.337 L2063.99 375.257 Z" fill="#00008b" fill-rule="evenodd" fill-opacity="0.2" stroke="#ff0000" stroke-opacity="0.2" stroke-width="1.70667"/>
<path clip-path="url(#clip900)" d="M 0 0 M2194.62 394.944 Q2192.81 399.574 2191.1 400.986 Q2189.39 402.398 2186.52 402.398 L2183.11 402.398 L2183.11 398.833 L2185.61 398.833 Q2187.37 398.833 2188.34 398 Q2189.32 397.166 2190.5 394.064 L2191.26 392.12 L2180.78 366.611 L2185.29 366.611 L2193.39 386.889 L2201.49 366.611 L2206.01 366.611 L2194.62 394.944 Z" fill="#bebebe" fill-rule="evenodd" fill-opacity="1" /><path clip-path="url(#clip900)" d="M 0 0 M2225.24 373.902 Q2228.6 374.62 2230.47 376.889 Q2232.37 379.157 2232.37 382.49 Q2232.37 387.606 2228.85 390.407 Q2225.34 393.208 2218.85 393.208 Q2216.68 393.208 2214.36 392.768 Q2212.07 392.351 2209.62 391.495 L2209.62 386.981 Q2211.56 388.115 2213.88 388.694 Q2216.19 389.273 2218.71 389.273 Q2223.11 389.273 2225.4 387.537 Q2227.72 385.801 2227.72 382.49 Q2227.72 379.435 2225.57 377.722 Q2223.44 375.986 2219.62 375.986 L2215.59 375.986 L2215.59 372.143 L2219.8 372.143 Q2223.25 372.143 2225.08 370.778 Q2226.91 369.389 2226.91 366.796 Q2226.91 364.134 2225.01 362.722 Q2223.14 361.287 2219.62 361.287 Q2217.7 361.287 2215.5 361.703 Q2213.3 362.12 2210.66 363 L2210.66 358.833 Q2213.32 358.092 2215.64 357.722 Q2217.97 357.352 2220.03 357.352 Q2225.36 357.352 2228.46 359.782 Q2231.56 362.19 2231.56 366.31 Q2231.56 369.18 2229.92 371.171 Q2228.27 373.139 2225.24 373.902 Z" fill="#bebebe" fill-rule="evenodd" fill-opacity="1" /></svg>
