<?xml version="1.0" encoding="utf-8"?>
<svg xmlns="http://www.w3.org/2000/svg" xmlns:xlink="http://www.w3.org/1999/xlink" width="600" height="400" viewBox="0 0 2400 1600">
<defs>
  <clipPath id="clip980">
    <rect x="0" y="0" width="2400" height="1600"/>
  </clipPath>
</defs>
<path clip-path="url(#clip980)" d="
M0 1600 L2400 1600 L2400 0 L0 0  Z
  " fill="#ffffff" fill-rule="evenodd" fill-opacity="1"/>
<defs>
  <clipPath id="clip981">
    <rect x="480" y="0" width="1681" height="1600"/>
  </clipPath>
</defs>
<defs>
  <clipPath id="clip982">
    <rect x="179" y="47" width="2174" height="1440"/>
  </clipPath>
</defs>
<path clip-path="url(#clip980)" d="
M179.654 1486.45 L2352.76 1486.45 L2352.76 47.2441 L179.654 47.2441  Z
  " fill="#ffffff" fill-rule="evenodd" fill-opacity="1"/>
<polyline clip-path="url(#clip982)" style="stroke:#000000; stroke-width:2; stroke-opacity:0.1; fill:none" points="
  451.609,1486.45 451.609,47.2441 
  "/>
<polyline clip-path="url(#clip982)" style="stroke:#000000; stroke-width:2; stroke-opacity:0.1; fill:none" points="
  861.628,1486.45 861.628,47.2441 
  "/>
<polyline clip-path="url(#clip982)" style="stroke:#000000; stroke-width:2; stroke-opacity:0.1; fill:none" points="
  1271.65,1486.45 1271.65,47.2441 
  "/>
<polyline clip-path="url(#clip982)" style="stroke:#000000; stroke-width:2; stroke-opacity:0.1; fill:none" points="
  1681.67,1486.45 1681.67,47.2441 
  "/>
<polyline clip-path="url(#clip982)" style="stroke:#000000; stroke-width:2; stroke-opacity:0.1; fill:none" points="
  2091.69,1486.45 2091.69,47.2441 
  "/>
<polyline clip-path="url(#clip980)" style="stroke:#000000; stroke-width:4; stroke-opacity:1; fill:none" points="
  179.654,1486.45 2352.76,1486.45 
  "/>
<polyline clip-path="url(#clip980)" style="stroke:#000000; stroke-width:4; stroke-opacity:1; fill:none" points="
  451.609,1486.45 451.609,1469.18 
  "/>
<polyline clip-path="url(#clip980)" style="stroke:#000000; stroke-width:4; stroke-opacity:1; fill:none" points="
  861.628,1486.45 861.628,1469.18 
  "/>
<polyline clip-path="url(#clip980)" style="stroke:#000000; stroke-width:4; stroke-opacity:1; fill:none" points="
  1271.65,1486.45 1271.65,1469.18 
  "/>
<polyline clip-path="url(#clip980)" style="stroke:#000000; stroke-width:4; stroke-opacity:1; fill:none" points="
  1681.67,1486.45 1681.67,1469.18 
  "/>
<polyline clip-path="url(#clip980)" style="stroke:#000000; stroke-width:4; stroke-opacity:1; fill:none" points="
  2091.69,1486.45 2091.69,1469.18 
  "/>
<path clip-path="url(#clip980)" d="M 0 0 M405.278 1530.29 L434.954 1530.29 L434.954 1534.23 L405.278 1534.23 L405.278 1530.29 Z" fill="#000000" fill-rule="evenodd" fill-opacity="1" /><path clip-path="url(#clip980)" d="M 0 0 M440.07 1512.56 L458.426 1512.56 L458.426 1516.5 L444.352 1516.5 L444.352 1524.97 Q445.37 1524.62 446.389 1524.46 Q447.407 1524.27 448.426 1524.27 Q454.213 1524.27 457.593 1527.44 Q460.972 1530.62 460.972 1536.03 Q460.972 1541.61 457.5 1544.71 Q454.028 1547.79 447.708 1547.79 Q445.532 1547.79 443.264 1547.42 Q441.019 1547.05 438.611 1546.31 L438.611 1541.61 Q440.695 1542.74 442.917 1543.3 Q445.139 1543.86 447.616 1543.86 Q451.62 1543.86 453.958 1541.75 Q456.296 1539.64 456.296 1536.03 Q456.296 1532.42 453.958 1530.31 Q451.62 1528.21 447.616 1528.21 Q445.741 1528.21 443.866 1528.62 Q442.014 1529.04 440.07 1529.92 L440.07 1512.56 Z" fill="#000000" fill-rule="evenodd" fill-opacity="1" /><path clip-path="url(#clip980)" d="M 0 0 M466.042 1541.24 L470.926 1541.24 L470.926 1547.12 L466.042 1547.12 L466.042 1541.24 Z" fill="#000000" fill-rule="evenodd" fill-opacity="1" /><path clip-path="url(#clip980)" d="M 0 0 M485.995 1515.64 Q482.384 1515.64 480.555 1519.2 Q478.75 1522.75 478.75 1529.87 Q478.75 1536.98 480.555 1540.55 Q482.384 1544.09 485.995 1544.09 Q489.629 1544.09 491.435 1540.55 Q493.264 1536.98 493.264 1529.87 Q493.264 1522.75 491.435 1519.2 Q489.629 1515.64 485.995 1515.64 M485.995 1511.93 Q491.805 1511.93 494.861 1516.54 Q497.94 1521.12 497.94 1529.87 Q497.94 1538.6 494.861 1543.21 Q491.805 1547.79 485.995 1547.79 Q480.185 1547.79 477.106 1543.21 Q474.051 1538.6 474.051 1529.87 Q474.051 1521.12 477.106 1516.54 Q480.185 1511.93 485.995 1511.93 Z" fill="#000000" fill-rule="evenodd" fill-opacity="1" /><path clip-path="url(#clip980)" d="M 0 0 M816.096 1530.29 L845.772 1530.29 L845.772 1534.23 L816.096 1534.23 L816.096 1530.29 Z" fill="#000000" fill-rule="evenodd" fill-opacity="1" /><path clip-path="url(#clip980)" d="M 0 0 M854.869 1543.18 L871.188 1543.18 L871.188 1547.12 L849.244 1547.12 L849.244 1543.18 Q851.906 1540.43 856.489 1535.8 Q861.096 1531.15 862.276 1529.81 Q864.522 1527.28 865.401 1525.55 Q866.304 1523.79 866.304 1522.1 Q866.304 1519.34 864.36 1517.61 Q862.438 1515.87 859.336 1515.87 Q857.137 1515.87 854.684 1516.63 Q852.253 1517.4 849.475 1518.95 L849.475 1514.23 Q852.299 1513.09 854.753 1512.51 Q857.207 1511.93 859.244 1511.93 Q864.614 1511.93 867.809 1514.62 Q871.003 1517.31 871.003 1521.8 Q871.003 1523.93 870.193 1525.85 Q869.406 1527.74 867.299 1530.34 Q866.721 1531.01 863.619 1534.23 Q860.517 1537.42 854.869 1543.18 Z" fill="#000000" fill-rule="evenodd" fill-opacity="1" /><path clip-path="url(#clip980)" d="M 0 0 M876.258 1541.24 L881.142 1541.24 L881.142 1547.12 L876.258 1547.12 L876.258 1541.24 Z" fill="#000000" fill-rule="evenodd" fill-opacity="1" /><path clip-path="url(#clip980)" d="M 0 0 M886.258 1512.56 L904.614 1512.56 L904.614 1516.5 L890.54 1516.5 L890.54 1524.97 Q891.559 1524.62 892.577 1524.46 Q893.596 1524.27 894.614 1524.27 Q900.401 1524.27 903.781 1527.44 Q907.16 1530.62 907.16 1536.03 Q907.16 1541.61 903.688 1544.71 Q900.216 1547.79 893.896 1547.79 Q891.721 1547.79 889.452 1547.42 Q887.207 1547.05 884.799 1546.31 L884.799 1541.61 Q886.883 1542.74 889.105 1543.3 Q891.327 1543.86 893.804 1543.86 Q897.809 1543.86 900.146 1541.75 Q902.484 1539.64 902.484 1536.03 Q902.484 1532.42 900.146 1530.31 Q897.809 1528.21 893.804 1528.21 Q891.929 1528.21 890.054 1528.62 Q888.202 1529.04 886.258 1529.92 L886.258 1512.56 Z" fill="#000000" fill-rule="evenodd" fill-opacity="1" /><path clip-path="url(#clip980)" d="M 0 0 M1253.16 1515.64 Q1249.55 1515.64 1247.72 1519.2 Q1245.92 1522.75 1245.92 1529.87 Q1245.92 1536.98 1247.72 1540.55 Q1249.55 1544.09 1253.16 1544.09 Q1256.8 1544.09 1258.6 1540.55 Q1260.43 1536.98 1260.43 1529.87 Q1260.43 1522.75 1258.6 1519.2 Q1256.8 1515.64 1253.16 1515.64 M1253.16 1511.93 Q1258.97 1511.93 1262.03 1516.54 Q1265.11 1521.12 1265.11 1529.87 Q1265.11 1538.6 1262.03 1543.21 Q1258.97 1547.79 1253.16 1547.79 Q1247.35 1547.79 1244.27 1543.21 Q1241.22 1538.6 1241.22 1529.87 Q1241.22 1521.12 1244.27 1516.54 Q1247.35 1511.93 1253.16 1511.93 Z" fill="#000000" fill-rule="evenodd" fill-opacity="1" /><path clip-path="url(#clip980)" d="M 0 0 M1270.18 1541.24 L1275.06 1541.24 L1275.06 1547.12 L1270.18 1547.12 L1270.18 1541.24 Z" fill="#000000" fill-rule="evenodd" fill-opacity="1" /><path clip-path="url(#clip980)" d="M 0 0 M1290.13 1515.64 Q1286.52 1515.64 1284.69 1519.2 Q1282.89 1522.75 1282.89 1529.87 Q1282.89 1536.98 1284.69 1540.55 Q1286.52 1544.09 1290.13 1544.09 Q1293.77 1544.09 1295.57 1540.55 Q1297.4 1536.98 1297.4 1529.87 Q1297.4 1522.75 1295.57 1519.2 Q1293.77 1515.64 1290.13 1515.64 M1290.13 1511.93 Q1295.94 1511.93 1299 1516.54 Q1302.08 1521.12 1302.08 1529.87 Q1302.08 1538.6 1299 1543.21 Q1295.94 1547.79 1290.13 1547.79 Q1284.32 1547.79 1281.24 1543.21 Q1278.19 1538.6 1278.19 1529.87 Q1278.19 1521.12 1281.24 1516.54 Q1284.32 1511.93 1290.13 1511.93 Z" fill="#000000" fill-rule="evenodd" fill-opacity="1" /><path clip-path="url(#clip980)" d="M 0 0 M1658.33 1543.18 L1674.65 1543.18 L1674.65 1547.12 L1652.71 1547.12 L1652.71 1543.18 Q1655.37 1540.43 1659.95 1535.8 Q1664.56 1531.15 1665.74 1529.81 Q1667.99 1527.28 1668.87 1525.55 Q1669.77 1523.79 1669.77 1522.1 Q1669.77 1519.34 1667.82 1517.61 Q1665.9 1515.87 1662.8 1515.87 Q1660.6 1515.87 1658.15 1516.63 Q1655.72 1517.4 1652.94 1518.95 L1652.94 1514.23 Q1655.76 1513.09 1658.22 1512.51 Q1660.67 1511.93 1662.71 1511.93 Q1668.08 1511.93 1671.27 1514.62 Q1674.47 1517.31 1674.47 1521.8 Q1674.47 1523.93 1673.66 1525.85 Q1672.87 1527.74 1670.76 1530.34 Q1670.19 1531.01 1667.08 1534.23 Q1663.98 1537.42 1658.33 1543.18 Z" fill="#000000" fill-rule="evenodd" fill-opacity="1" /><path clip-path="url(#clip980)" d="M 0 0 M1679.72 1541.24 L1684.61 1541.24 L1684.61 1547.12 L1679.72 1547.12 L1679.72 1541.24 Z" fill="#000000" fill-rule="evenodd" fill-opacity="1" /><path clip-path="url(#clip980)" d="M 0 0 M1689.72 1512.56 L1708.08 1512.56 L1708.08 1516.5 L1694 1516.5 L1694 1524.97 Q1695.02 1524.62 1696.04 1524.46 Q1697.06 1524.27 1698.08 1524.27 Q1703.87 1524.27 1707.25 1527.44 Q1710.62 1530.62 1710.62 1536.03 Q1710.62 1541.61 1707.15 1544.71 Q1703.68 1547.79 1697.36 1547.79 Q1695.19 1547.79 1692.92 1547.42 Q1690.67 1547.05 1688.26 1546.31 L1688.26 1541.61 Q1690.35 1542.74 1692.57 1543.3 Q1694.79 1543.86 1697.27 1543.86 Q1701.27 1543.86 1703.61 1541.75 Q1705.95 1539.64 1705.95 1536.03 Q1705.95 1532.42 1703.61 1530.31 Q1701.27 1528.21 1697.27 1528.21 Q1695.39 1528.21 1693.52 1528.62 Q1691.67 1529.04 1689.72 1529.92 L1689.72 1512.56 Z" fill="#000000" fill-rule="evenodd" fill-opacity="1" /><path clip-path="url(#clip980)" d="M 0 0 M2063.48 1512.56 L2081.84 1512.56 L2081.84 1516.5 L2067.76 1516.5 L2067.76 1524.97 Q2068.78 1524.62 2069.8 1524.46 Q2070.82 1524.27 2071.84 1524.27 Q2077.62 1524.27 2081 1527.44 Q2084.38 1530.62 2084.38 1536.03 Q2084.38 1541.61 2080.91 1544.71 Q2077.44 1547.79 2071.12 1547.79 Q2068.94 1547.79 2066.67 1547.42 Q2064.43 1547.05 2062.02 1546.31 L2062.02 1541.61 Q2064.11 1542.74 2066.33 1543.3 Q2068.55 1543.86 2071.03 1543.86 Q2075.03 1543.86 2077.37 1541.75 Q2079.71 1539.64 2079.71 1536.03 Q2079.71 1532.42 2077.37 1530.31 Q2075.03 1528.21 2071.03 1528.21 Q2069.15 1528.21 2067.28 1528.62 Q2065.42 1529.04 2063.48 1529.92 L2063.48 1512.56 Z" fill="#000000" fill-rule="evenodd" fill-opacity="1" /><path clip-path="url(#clip980)" d="M 0 0 M2089.45 1541.24 L2094.34 1541.24 L2094.34 1547.12 L2089.45 1547.12 L2089.45 1541.24 Z" fill="#000000" fill-rule="evenodd" fill-opacity="1" /><path clip-path="url(#clip980)" d="M 0 0 M2109.41 1515.64 Q2105.79 1515.64 2103.97 1519.2 Q2102.16 1522.75 2102.16 1529.87 Q2102.16 1536.98 2103.97 1540.55 Q2105.79 1544.09 2109.41 1544.09 Q2113.04 1544.09 2114.85 1540.55 Q2116.67 1536.98 2116.67 1529.87 Q2116.67 1522.75 2114.85 1519.2 Q2113.04 1515.64 2109.41 1515.64 M2109.41 1511.93 Q2115.22 1511.93 2118.27 1516.54 Q2121.35 1521.12 2121.35 1529.87 Q2121.35 1538.6 2118.27 1543.21 Q2115.22 1547.79 2109.41 1547.79 Q2103.6 1547.79 2100.52 1543.21 Q2097.46 1538.6 2097.46 1529.87 Q2097.46 1521.12 2100.52 1516.54 Q2103.6 1511.93 2109.41 1511.93 Z" fill="#000000" fill-rule="evenodd" fill-opacity="1" /><polyline clip-path="url(#clip982)" style="stroke:#000000; stroke-width:2; stroke-opacity:0.1; fill:none" points="
  179.654,1445.72 2352.76,1445.72 
  "/>
<polyline clip-path="url(#clip982)" style="stroke:#000000; stroke-width:2; stroke-opacity:0.1; fill:none" points="
  179.654,1106.29 2352.76,1106.29 
  "/>
<polyline clip-path="url(#clip982)" style="stroke:#000000; stroke-width:2; stroke-opacity:0.1; fill:none" points="
  179.654,766.849 2352.76,766.849 
  "/>
<polyline clip-path="url(#clip982)" style="stroke:#000000; stroke-width:2; stroke-opacity:0.1; fill:none" points="
  179.654,427.413 2352.76,427.413 
  "/>
<polyline clip-path="url(#clip982)" style="stroke:#000000; stroke-width:2; stroke-opacity:0.1; fill:none" points="
  179.654,87.9763 2352.76,87.9763 
  "/>
<polyline clip-path="url(#clip980)" style="stroke:#000000; stroke-width:4; stroke-opacity:1; fill:none" points="
  179.654,1486.45 179.654,47.2441 
  "/>
<polyline clip-path="url(#clip980)" style="stroke:#000000; stroke-width:4; stroke-opacity:1; fill:none" points="
  179.654,1445.72 205.731,1445.72 
  "/>
<polyline clip-path="url(#clip980)" style="stroke:#000000; stroke-width:4; stroke-opacity:1; fill:none" points="
  179.654,1106.29 205.731,1106.29 
  "/>
<polyline clip-path="url(#clip980)" style="stroke:#000000; stroke-width:4; stroke-opacity:1; fill:none" points="
  179.654,766.849 205.731,766.849 
  "/>
<polyline clip-path="url(#clip980)" style="stroke:#000000; stroke-width:4; stroke-opacity:1; fill:none" points="
  179.654,427.413 205.731,427.413 
  "/>
<polyline clip-path="url(#clip980)" style="stroke:#000000; stroke-width:4; stroke-opacity:1; fill:none" points="
  179.654,87.9763 205.731,87.9763 
  "/>
<path clip-path="url(#clip980)" d="M 0 0 M51.2236 1446.17 L80.8994 1446.17 L80.8994 1450.11 L51.2236 1450.11 L51.2236 1446.17 Z" fill="#000000" fill-rule="evenodd" fill-opacity="1" /><path clip-path="url(#clip980)" d="M 0 0 M86.779 1459.07 L94.4178 1459.07 L94.4178 1432.7 L86.1077 1434.37 L86.1077 1430.11 L94.3715 1428.44 L99.0474 1428.44 L99.0474 1459.07 L106.686 1459.07 L106.686 1463 L86.779 1463 L86.779 1459.07 Z" fill="#000000" fill-rule="evenodd" fill-opacity="1" /><path clip-path="url(#clip980)" d="M 0 0 M111.756 1457.12 L116.64 1457.12 L116.64 1463 L111.756 1463 L111.756 1457.12 Z" fill="#000000" fill-rule="evenodd" fill-opacity="1" /><path clip-path="url(#clip980)" d="M 0 0 M131.709 1431.52 Q128.098 1431.52 126.27 1435.09 Q124.464 1438.63 124.464 1445.76 Q124.464 1452.86 126.27 1456.43 Q128.098 1459.97 131.709 1459.97 Q135.344 1459.97 137.149 1456.43 Q138.978 1452.86 138.978 1445.76 Q138.978 1438.63 137.149 1435.09 Q135.344 1431.52 131.709 1431.52 M131.709 1427.82 Q137.519 1427.82 140.575 1432.42 Q143.654 1437.01 143.654 1445.76 Q143.654 1454.48 140.575 1459.09 Q137.519 1463.67 131.709 1463.67 Q125.899 1463.67 122.82 1459.09 Q119.765 1454.48 119.765 1445.76 Q119.765 1437.01 122.82 1432.42 Q125.899 1427.82 131.709 1427.82 Z" fill="#000000" fill-rule="evenodd" fill-opacity="1" /><path clip-path="url(#clip980)" d="M 0 0 M50.9921 1106.74 L80.6679 1106.74 L80.6679 1110.67 L50.9921 1110.67 L50.9921 1106.74 Z" fill="#000000" fill-rule="evenodd" fill-opacity="1" /><path clip-path="url(#clip980)" d="M 0 0 M95.7373 1092.08 Q92.1262 1092.08 90.2975 1095.65 Q88.4919 1099.19 88.4919 1106.32 Q88.4919 1113.43 90.2975 1116.99 Q92.1262 1120.53 95.7373 1120.53 Q99.3715 1120.53 101.177 1116.99 Q103.006 1113.43 103.006 1106.32 Q103.006 1099.19 101.177 1095.65 Q99.3715 1092.08 95.7373 1092.08 M95.7373 1088.38 Q101.547 1088.38 104.603 1092.99 Q107.682 1097.57 107.682 1106.32 Q107.682 1115.05 104.603 1119.65 Q101.547 1124.24 95.7373 1124.24 Q89.9271 1124.24 86.8484 1119.65 Q83.7929 1115.05 83.7929 1106.32 Q83.7929 1097.57 86.8484 1092.99 Q89.9271 1088.38 95.7373 1088.38 Z" fill="#000000" fill-rule="evenodd" fill-opacity="1" /><path clip-path="url(#clip980)" d="M 0 0 M112.751 1117.69 L117.635 1117.69 L117.635 1123.57 L112.751 1123.57 L112.751 1117.69 Z" fill="#000000" fill-rule="evenodd" fill-opacity="1" /><path clip-path="url(#clip980)" d="M 0 0 M122.751 1089.01 L141.107 1089.01 L141.107 1092.94 L127.033 1092.94 L127.033 1101.41 Q128.052 1101.07 129.07 1100.9 Q130.089 1100.72 131.107 1100.72 Q136.894 1100.72 140.274 1103.89 Q143.654 1107.06 143.654 1112.48 Q143.654 1118.06 140.181 1121.16 Q136.709 1124.24 130.39 1124.24 Q128.214 1124.24 125.945 1123.87 Q123.7 1123.5 121.293 1122.76 L121.293 1118.06 Q123.376 1119.19 125.598 1119.75 Q127.82 1120.3 130.297 1120.3 Q134.302 1120.3 136.64 1118.2 Q138.978 1116.09 138.978 1112.48 Q138.978 1108.87 136.64 1106.76 Q134.302 1104.65 130.297 1104.65 Q128.422 1104.65 126.547 1105.07 Q124.695 1105.49 122.751 1106.37 L122.751 1089.01 Z" fill="#000000" fill-rule="evenodd" fill-opacity="1" /><path clip-path="url(#clip980)" d="M 0 0 M94.7419 752.648 Q91.1308 752.648 89.3021 756.213 Q87.4966 759.754 87.4966 766.884 Q87.4966 773.99 89.3021 777.555 Q91.1308 781.097 94.7419 781.097 Q98.3761 781.097 100.182 777.555 Q102.01 773.99 102.01 766.884 Q102.01 759.754 100.182 756.213 Q98.3761 752.648 94.7419 752.648 M94.7419 748.944 Q100.552 748.944 103.608 753.551 Q106.686 758.134 106.686 766.884 Q106.686 775.611 103.608 780.217 Q100.552 784.801 94.7419 784.801 Q88.9317 784.801 85.8531 780.217 Q82.7975 775.611 82.7975 766.884 Q82.7975 758.134 85.8531 753.551 Q88.9317 748.944 94.7419 748.944 Z" fill="#000000" fill-rule="evenodd" fill-opacity="1" /><path clip-path="url(#clip980)" d="M 0 0 M111.756 778.25 L116.64 778.25 L116.64 784.129 L111.756 784.129 L111.756 778.25 Z" fill="#000000" fill-rule="evenodd" fill-opacity="1" /><path clip-path="url(#clip980)" d="M 0 0 M131.709 752.648 Q128.098 752.648 126.27 756.213 Q124.464 759.754 124.464 766.884 Q124.464 773.99 126.27 777.555 Q128.098 781.097 131.709 781.097 Q135.344 781.097 137.149 777.555 Q138.978 773.99 138.978 766.884 Q138.978 759.754 137.149 756.213 Q135.344 752.648 131.709 752.648 M131.709 748.944 Q137.519 748.944 140.575 753.551 Q143.654 758.134 143.654 766.884 Q143.654 775.611 140.575 780.217 Q137.519 784.801 131.709 784.801 Q125.899 784.801 122.82 780.217 Q119.765 775.611 119.765 766.884 Q119.765 758.134 122.82 753.551 Q125.899 748.944 131.709 748.944 Z" fill="#000000" fill-rule="evenodd" fill-opacity="1" /><path clip-path="url(#clip980)" d="M 0 0 M95.7373 413.211 Q92.1262 413.211 90.2975 416.776 Q88.4919 420.318 88.4919 427.448 Q88.4919 434.554 90.2975 438.119 Q92.1262 441.66 95.7373 441.66 Q99.3715 441.66 101.177 438.119 Q103.006 434.554 103.006 427.448 Q103.006 420.318 101.177 416.776 Q99.3715 413.211 95.7373 413.211 M95.7373 409.508 Q101.547 409.508 104.603 414.114 Q107.682 418.698 107.682 427.448 Q107.682 436.174 104.603 440.781 Q101.547 445.364 95.7373 445.364 Q89.9271 445.364 86.8484 440.781 Q83.7929 436.174 83.7929 427.448 Q83.7929 418.698 86.8484 414.114 Q89.9271 409.508 95.7373 409.508 Z" fill="#000000" fill-rule="evenodd" fill-opacity="1" /><path clip-path="url(#clip980)" d="M 0 0 M112.751 438.813 L117.635 438.813 L117.635 444.693 L112.751 444.693 L112.751 438.813 Z" fill="#000000" fill-rule="evenodd" fill-opacity="1" /><path clip-path="url(#clip980)" d="M 0 0 M122.751 410.133 L141.107 410.133 L141.107 414.068 L127.033 414.068 L127.033 422.54 Q128.052 422.193 129.07 422.031 Q130.089 421.846 131.107 421.846 Q136.894 421.846 140.274 425.017 Q143.654 428.188 143.654 433.605 Q143.654 439.184 140.181 442.285 Q136.709 445.364 130.39 445.364 Q128.214 445.364 125.945 444.994 Q123.7 444.623 121.293 443.883 L121.293 439.184 Q123.376 440.318 125.598 440.873 Q127.82 441.429 130.297 441.429 Q134.302 441.429 136.64 439.322 Q138.978 437.216 138.978 433.605 Q138.978 429.994 136.64 427.887 Q134.302 425.781 130.297 425.781 Q128.422 425.781 126.547 426.198 Q124.695 426.614 122.751 427.494 L122.751 410.133 Z" fill="#000000" fill-rule="evenodd" fill-opacity="1" /><path clip-path="url(#clip980)" d="M 0 0 M86.779 101.321 L94.4178 101.321 L94.4178 74.9555 L86.1077 76.6222 L86.1077 72.3629 L94.3715 70.6963 L99.0474 70.6963 L99.0474 101.321 L106.686 101.321 L106.686 105.256 L86.779 105.256 L86.779 101.321 Z" fill="#000000" fill-rule="evenodd" fill-opacity="1" /><path clip-path="url(#clip980)" d="M 0 0 M111.756 99.3767 L116.64 99.3767 L116.64 105.256 L111.756 105.256 L111.756 99.3767 Z" fill="#000000" fill-rule="evenodd" fill-opacity="1" /><path clip-path="url(#clip980)" d="M 0 0 M131.709 73.775 Q128.098 73.775 126.27 77.3398 Q124.464 80.8814 124.464 88.011 Q124.464 95.1174 126.27 98.6822 Q128.098 102.224 131.709 102.224 Q135.344 102.224 137.149 98.6822 Q138.978 95.1174 138.978 88.011 Q138.978 80.8814 137.149 77.3398 Q135.344 73.775 131.709 73.775 M131.709 70.0713 Q137.519 70.0713 140.575 74.6777 Q143.654 79.261 143.654 88.011 Q143.654 96.7378 140.575 101.344 Q137.519 105.928 131.709 105.928 Q125.899 105.928 122.82 101.344 Q119.765 96.7378 119.765 88.011 Q119.765 79.261 122.82 74.6777 Q125.899 70.0713 131.709 70.0713 Z" fill="#000000" fill-rule="evenodd" fill-opacity="1" /><polyline clip-path="url(#clip982)" style="stroke:#e69f00; stroke-width:4; stroke-opacity:1; fill:none" points="
  241.157,766.849 257.557,699.075 273.958,631.978 290.359,566.229 306.76,502.484 323.16,441.38 339.561,383.529 355.962,329.507 372.363,279.856 388.764,235.07 
  405.164,195.597 421.565,161.833 437.966,134.113 454.367,112.716 470.767,97.8541 487.168,89.6769 503.569,88.2657 519.97,93.6348 536.37,105.73 552.771,124.432 
  569.172,149.552 585.573,180.84 601.974,217.983 618.374,260.61 634.775,308.296 651.176,360.563 667.577,416.889 683.977,476.713 700.378,539.435 716.779,604.429 
  733.18,671.047 749.58,738.621 765.981,806.478 782.382,873.939 798.783,940.329 815.184,1004.99 831.584,1067.26 847.985,1126.54 864.386,1182.22 880.787,1233.76 
  897.187,1280.62 913.588,1322.36 929.989,1358.54 946.39,1388.81 962.791,1412.87 979.191,1430.47 995.592,1441.44 1011.99,1445.67 1028.39,1443.12 1044.79,1433.81 
  1061.2,1417.84 1077.6,1395.36 1094,1366.6 1110.4,1331.85 1126.8,1291.46 1143.2,1245.82 1159.6,1195.4 1176,1140.69 1192.4,1082.26 1208.8,1020.66 
  1225.2,956.537 1241.6,890.515 1258,823.256 1274.41,755.435 1290.81,687.727 1307.21,620.81 1323.61,555.352 1340.01,492.008 1356.41,431.409 1372.81,374.162 
  1389.21,320.839 1405.61,271.972 1422.01,228.05 1438.41,189.511 1454.81,156.741 1471.21,130.066 1487.62,109.755 1504.02,96.0085 1520.42,88.9652 1536.82,88.695 
  1553.22,95.2007 1569.62,108.417 1586.02,128.213 1602.42,154.389 1618.82,186.685 1635.22,224.778 1651.62,268.287 1668.02,316.777 1684.42,369.765 1700.83,426.72 
  1717.23,487.073 1733.63,550.222 1750.03,615.535 1766.43,682.361 1782.83,750.03 1799.23,817.867 1815.63,885.195 1832.03,951.34 1848.43,1015.64 1864.83,1077.46 
  1881.23,1136.17 1897.63,1191.19 1914.04,1241.98 1930.44,1288.01 1946.84,1328.84 1963.24,1364.05 1979.64,1393.3 1996.04,1416.28 2012.44,1432.78 2028.84,1442.62 
  2045.24,1445.72 2061.64,1442.02 2078.04,1431.59 2094.44,1414.51 2110.84,1390.96 2127.25,1361.17 2143.65,1325.45 2160.05,1284.14 2176.45,1237.66 2192.85,1186.49 
  2209.25,1131.11 2225.65,1072.1 2242.05,1010.04 2258.45,945.55 2274.85,879.274 2291.25,811.873 
  "/>
<polyline clip-path="url(#clip982)" style="stroke:#56b4e9; stroke-width:4; stroke-opacity:1; fill:none" points="
  241.157,87.9763 257.557,91.3678 273.958,101.509 290.359,118.297 306.76,141.566 323.16,171.082 339.561,206.551 355.962,247.619 372.363,293.874 388.764,344.855 
  405.164,400.053 421.565,458.915 437.966,520.854 454.367,585.252 470.767,651.463 487.168,718.828 503.569,786.672 519.97,854.318 536.37,921.091 552.771,986.322 
  569.172,1049.36 585.573,1109.58 601.974,1166.37 618.374,1219.17 634.775,1267.45 651.176,1310.72 667.577,1348.57 683.977,1380.6 700.378,1406.5 716.779,1426.01 
  733.18,1438.93 749.58,1445.14 765.981,1444.56 782.382,1437.22 798.783,1423.18 815.184,1402.58 831.584,1375.63 847.985,1342.6 864.386,1303.82 880.787,1259.67 
  897.187,1210.59 913.588,1157.08 929.989,1099.67 946.39,1038.94 962.791,975.489 979.191,909.953 995.592,842.987 1011.99,775.26 1028.39,707.449 1044.79,640.231 
  1061.2,574.279 1077.6,510.25 1094,448.786 1110.4,390.5 1126.8,335.973 1143.2,285.753 1159.6,240.339 1176,200.185 1192.4,165.694 1208.8,137.209 
  1225.2,115.016 1241.6,99.3349 1258,90.3238 1274.41,88.0722 1290.81,92.6029 1307.21,103.87 1323.61,121.762 1340.01,146.099 1356.41,176.639 1372.81,213.076 
  1389.21,255.045 1405.61,302.129 1422.01,353.856 1438.41,409.709 1454.81,469.131 1471.21,531.528 1487.62,596.276 1504.02,662.728 1520.42,730.22 1536.82,798.079 
  1553.22,865.625 1569.62,932.185 1586.02,997.092 1602.42,1059.7 1618.82,1119.38 1635.22,1175.54 1651.62,1227.61 1668.02,1275.09 1684.42,1317.48 1700.83,1354.37 
  1717.23,1385.39 1733.63,1410.23 1750.03,1428.64 1766.43,1440.44 1782.83,1445.51 1799.23,1443.8 1815.63,1435.33 1832.03,1420.17 1848.43,1398.49 1864.83,1370.5 
  1881.23,1336.47 1897.63,1296.76 1914.04,1251.74 1930.44,1201.89 1946.84,1147.69 1963.24,1089.68 1979.64,1028.45 1996.04,964.598 2012.44,898.775 2028.84,831.633 
  2045.24,763.845 2061.64,696.086 2078.04,629.035 2094.44,563.36 2110.84,499.719 2127.25,438.747 2143.65,381.053 2160.05,327.214 2176.45,277.767 2192.85,233.207 
  2209.25,193.98 2225.65,160.476 2242.05,133.031 2258.45,111.918 2274.85,97.35 2291.25,89.471 
  "/>
<path clip-path="url(#clip980)" d="
M1658.14 322.018 L2280.32 322.018 L2280.32 95.2176 L1658.14 95.2176  Z
  " fill="#ffffff" fill-rule="evenodd" fill-opacity="1"/>
<polyline clip-path="url(#clip980)" style="stroke:#000000; stroke-width:4; stroke-opacity:1; fill:none" points="
  1658.14,322.018 2280.32,322.018 2280.32,95.2176 1658.14,95.2176 1658.14,322.018 
  "/>
<polyline clip-path="url(#clip980)" style="stroke:#e69f00; stroke-width:5; stroke-opacity:1; fill:none" points="
  1682.29,170.818 1827.16,170.818 
  "/>
<path clip-path="url(#clip980)" d="M 0 0 M1881.2 140.494 Q1881.2 142.104 1880.18 143.1 Q1879.18 144.095 1877.92 144.095 Q1877.01 144.095 1876.34 143.539 Q1875.7 142.983 1875.7 142.016 Q1875.7 141.021 1876.46 139.967 Q1877.22 138.913 1878.95 138.767 Q1877.8 137.683 1875.99 137.683 Q1875.08 137.683 1874.32 138.269 Q1873.59 138.825 1873.18 139.733 Q1872.74 140.67 1871.74 145.969 Q1871.42 147.696 1871.13 149.365 Q1870.84 151.034 1870.48 152.791 L1875.46 152.791 Q1876.11 152.791 1876.37 152.82 Q1876.63 152.849 1876.84 152.996 Q1877.07 153.142 1877.07 153.464 Q1877.07 154.284 1876.69 154.489 Q1876.34 154.665 1875.29 154.665 L1870.13 154.665 L1866.53 173.666 Q1866.44 174.222 1866.06 175.979 Q1865.71 177.706 1864.86 180.546 Q1864.01 183.416 1863.17 185.114 Q1862.7 186.08 1862.08 186.988 Q1861.5 187.924 1860.65 188.861 Q1859.8 189.798 1858.69 190.355 Q1857.57 190.94 1856.4 190.94 Q1854.41 190.94 1852.86 189.828 Q1851.31 188.715 1851.31 186.812 Q1851.31 185.202 1852.3 184.206 Q1853.33 183.211 1854.59 183.211 Q1855.49 183.211 1856.14 183.767 Q1856.81 184.323 1856.81 185.289 Q1856.81 185.699 1856.67 186.168 Q1856.52 186.636 1856.2 187.163 Q1855.87 187.72 1855.17 188.1 Q1854.47 188.481 1853.5 188.539 Q1854.65 189.623 1856.4 189.623 Q1856.96 189.623 1857.46 189.388 Q1857.95 189.183 1858.36 188.656 Q1858.8 188.129 1859.12 187.602 Q1859.45 187.105 1859.77 186.139 Q1860.09 185.202 1860.3 184.499 Q1860.5 183.796 1860.76 182.537 Q1861.06 181.278 1861.2 180.517 Q1861.35 179.785 1861.61 178.351 L1866.09 154.665 L1862.14 154.665 Q1861.44 154.665 1861.14 154.635 Q1860.88 154.606 1860.68 154.46 Q1860.47 154.284 1860.47 153.933 Q1860.47 153.376 1860.71 153.142 Q1860.97 152.879 1861.26 152.849 Q1861.55 152.791 1862.26 152.791 L1866.41 152.791 Q1867.82 145.383 1868.38 143.393 Q1869.02 141.285 1870.02 139.821 Q1871.01 138.327 1872.12 137.625 Q1873.24 136.922 1874.14 136.659 Q1875.08 136.366 1875.99 136.366 Q1878.04 136.366 1879.62 137.478 Q1881.2 138.562 1881.2 140.494 Z" fill="#808080" fill-rule="evenodd" fill-opacity="1" /><path clip-path="url(#clip980)" d="M 0 0 M1887.3 183.284 L1887.3 181.972 Q1892.34 181.972 1894.95 179.287 Q1895.66 179.287 1895.79 179.451 Q1895.91 179.615 1895.91 180.373 L1895.91 203.922 Q1895.91 205.172 1896.52 205.561 Q1897.14 205.951 1899.82 205.951 L1901.16 205.951 L1901.16 207.242 Q1899.68 207.119 1894.35 207.119 Q1889.02 207.119 1887.57 207.242 L1887.57 205.951 L1888.9 205.951 Q1891.54 205.951 1892.18 205.582 Q1892.81 205.192 1892.81 203.922 L1892.81 182.177 Q1890.62 183.284 1887.3 183.284 Z" fill="#808080" fill-rule="evenodd" fill-opacity="1" /><path clip-path="url(#clip980)" d="M 0 0 M1907.42 163.653 Q1907.42 153.523 1911.19 145.354 Q1912.8 141.929 1915.06 139.059 Q1917.31 136.19 1918.81 134.931 Q1920.3 133.672 1920.71 133.672 Q1921.29 133.672 1921.32 134.258 Q1921.32 134.551 1920.53 135.283 Q1910.87 145.12 1910.9 163.653 Q1910.9 182.245 1920.3 191.701 Q1921.32 192.726 1921.32 193.048 Q1921.32 193.634 1920.71 193.634 Q1920.3 193.634 1918.86 192.433 Q1917.43 191.233 1915.2 188.481 Q1912.98 185.729 1911.37 182.362 Q1907.42 174.193 1907.42 163.653 Z" fill="#808080" fill-rule="evenodd" fill-opacity="1" /><path clip-path="url(#clip980)" d="M 0 0 M1960.3 156.099 Q1960.3 157.739 1959.28 158.676 Q1958.25 159.583 1957.08 159.583 Q1955.97 159.583 1955.38 158.939 Q1954.8 158.295 1954.8 157.475 Q1954.8 156.363 1955.62 155.397 Q1956.44 154.43 1957.66 154.225 Q1956.46 153.464 1954.68 153.464 Q1953.51 153.464 1952.48 154.079 Q1951.49 154.694 1950.87 155.484 Q1950.29 156.275 1949.76 157.417 Q1949.26 158.529 1949.06 159.203 Q1948.88 159.847 1948.74 160.549 L1946.69 168.747 Q1945.69 172.641 1945.69 174.017 Q1945.69 175.716 1946.51 176.857 Q1947.33 177.97 1948.97 177.97 Q1949.61 177.97 1950.35 177.794 Q1951.08 177.589 1952.01 177.062 Q1952.98 176.506 1953.83 175.686 Q1954.71 174.837 1955.56 173.403 Q1956.41 171.968 1956.96 170.123 Q1957.14 169.479 1957.72 169.479 Q1958.46 169.479 1958.46 170.065 Q1958.46 170.563 1958.05 171.617 Q1957.66 172.641 1956.82 173.988 Q1956 175.306 1954.91 176.506 Q1953.83 177.677 1952.22 178.497 Q1950.61 179.317 1948.85 179.317 Q1946.33 179.317 1944.67 177.97 Q1943 176.623 1942.38 174.749 Q1942.24 175.013 1942.03 175.364 Q1941.83 175.716 1941.21 176.506 Q1940.62 177.267 1939.95 177.853 Q1939.28 178.409 1938.22 178.848 Q1937.2 179.317 1936.09 179.317 Q1934.68 179.317 1933.42 178.907 Q1932.19 178.497 1931.31 177.56 Q1930.44 176.623 1930.44 175.335 Q1930.44 173.9 1931.4 172.905 Q1932.4 171.88 1933.74 171.88 Q1934.59 171.88 1935.27 172.378 Q1935.97 172.876 1935.97 173.959 Q1935.97 175.159 1935.15 176.067 Q1934.33 176.974 1933.16 177.209 Q1934.36 177.97 1936.15 177.97 Q1938.08 177.97 1939.6 176.272 Q1941.12 174.574 1941.85 171.734 Q1943.67 164.912 1944.37 161.867 Q1945.08 158.793 1945.08 157.475 Q1945.08 156.246 1944.75 155.397 Q1944.43 154.547 1943.87 154.167 Q1943.35 153.757 1942.85 153.611 Q1942.38 153.464 1941.85 153.464 Q1940.98 153.464 1939.98 153.816 Q1939.01 154.167 1937.84 154.987 Q1936.7 155.777 1935.62 157.417 Q1934.54 159.056 1933.8 161.311 Q1933.66 161.984 1933.01 161.984 Q1932.31 161.955 1932.31 161.369 Q1932.31 160.872 1932.69 159.847 Q1933.1 158.793 1933.92 157.475 Q1934.77 156.158 1935.85 154.987 Q1936.97 153.786 1938.58 152.966 Q1940.22 152.147 1941.97 152.147 Q1942.76 152.147 1943.52 152.322 Q1944.31 152.469 1945.25 152.908 Q1946.22 153.347 1947.07 154.313 Q1947.92 155.279 1948.44 156.685 Q1948.79 156.011 1949.26 155.367 Q1949.76 154.723 1950.52 153.933 Q1951.31 153.113 1952.39 152.644 Q1953.51 152.147 1954.74 152.147 Q1955.94 152.147 1957.11 152.469 Q1958.28 152.762 1959.28 153.728 Q1960.3 154.665 1960.3 156.099 Z" fill="#808080" fill-rule="evenodd" fill-opacity="1" /><path clip-path="url(#clip980)" d="M 0 0 M1964.39 193.048 Q1964.39 192.755 1965.15 192.023 Q1974.81 182.186 1974.81 163.653 Q1974.81 145.061 1965.53 135.663 Q1964.39 134.58 1964.39 134.258 Q1964.39 133.672 1964.97 133.672 Q1965.38 133.672 1966.82 134.873 Q1968.28 136.073 1970.48 138.825 Q1972.7 141.577 1974.34 144.944 Q1978.29 153.113 1978.29 163.653 Q1978.29 173.783 1974.52 181.952 Q1972.91 185.377 1970.65 188.247 Q1968.4 191.116 1966.9 192.375 Q1965.41 193.634 1964.97 193.634 Q1964.39 193.634 1964.39 193.048 Z" fill="#808080" fill-rule="evenodd" fill-opacity="1" /><path clip-path="url(#clip980)" d="M 0 0 M2004.04 169.538 Q2004.1 168.806 2005.24 168.806 L2041.98 168.806 Q2043.71 168.806 2043.74 169.479 Q2043.74 170.211 2042.1 170.182 L2005.65 170.182 Q2004.04 170.211 2004.04 169.538 M2004.04 157.827 Q2004.04 157.095 2005.3 157.124 L2041.92 157.124 Q2043.71 157.124 2043.74 157.827 Q2043.74 158.5 2042.22 158.5 L2005.24 158.5 Q2004.04 158.5 2004.04 157.827 Z" fill="#808080" fill-rule="evenodd" fill-opacity="1" /><path clip-path="url(#clip980)" d="M 0 0 M2088.93 157.3 Q2088.93 158.939 2088.11 159.818 Q2087.29 160.667 2086.18 160.667 Q2085.27 160.667 2084.77 160.14 Q2084.31 159.613 2084.31 158.91 Q2084.31 157.885 2085.13 157.065 Q2085.97 156.246 2087.2 156.216 Q2086.79 155.133 2085.71 154.489 Q2084.63 153.816 2083.66 153.64 Q2082.72 153.464 2081.79 153.464 Q2079.94 153.464 2078.54 154.05 Q2077.13 154.635 2076.43 155.543 Q2075.73 156.421 2075.41 157.27 Q2075.08 158.119 2075.08 158.851 Q2075.08 159.495 2075.23 160.022 Q2075.41 160.52 2075.81 160.901 Q2076.22 161.252 2076.52 161.486 Q2076.84 161.721 2077.54 161.926 Q2078.25 162.131 2078.54 162.218 Q2078.83 162.277 2079.65 162.453 Q2081.35 162.804 2082.11 163.009 Q2082.87 163.185 2083.87 163.682 Q2084.89 164.18 2085.65 164.97 Q2087.5 166.815 2087.5 169.362 Q2087.5 170.299 2087.17 171.441 Q2086.88 172.583 2086.03 174.017 Q2085.18 175.452 2083.9 176.594 Q2082.61 177.736 2080.38 178.526 Q2078.19 179.317 2075.43 179.317 Q2071.6 179.317 2069.23 177.706 Q2066.86 176.067 2066.86 173.49 Q2066.86 171.617 2067.88 170.592 Q2068.91 169.538 2070.22 169.538 Q2071.22 169.538 2071.83 170.094 Q2072.45 170.621 2072.45 171.617 Q2072.45 172.963 2071.36 173.988 Q2070.28 175.013 2068.67 174.808 Q2070.05 177.97 2075.49 177.97 Q2077.54 177.97 2079.12 177.443 Q2080.73 176.887 2081.61 176.125 Q2082.52 175.335 2083.11 174.369 Q2083.69 173.403 2083.87 172.671 Q2084.07 171.939 2084.07 171.382 Q2084.07 170.416 2083.69 169.684 Q2083.31 168.952 2082.78 168.542 Q2082.29 168.103 2081.32 167.752 Q2080.38 167.371 2079.71 167.225 Q2079.04 167.079 2077.84 166.844 Q2077.28 166.727 2076.93 166.669 Q2076.58 166.581 2075.84 166.347 Q2075.14 166.083 2074.64 165.82 Q2074.18 165.556 2073.56 165.088 Q2072.95 164.619 2072.57 164.063 Q2072.18 163.507 2071.92 162.687 Q2071.66 161.867 2071.66 160.901 Q2071.66 160.022 2071.92 158.968 Q2072.21 157.914 2072.95 156.685 Q2073.71 155.455 2074.79 154.46 Q2075.87 153.464 2077.69 152.82 Q2079.53 152.147 2081.79 152.147 Q2085.07 152.147 2087 153.669 Q2088.93 155.162 2088.93 157.3 Z" fill="#808080" fill-rule="evenodd" fill-opacity="1" /><path clip-path="url(#clip980)" d="M 0 0 M2110 141.167 Q2110 142.456 2108.95 143.422 Q2107.92 144.359 2106.81 144.359 Q2105.78 144.359 2105.14 143.744 Q2104.53 143.1 2104.53 142.192 Q2104.53 140.992 2105.55 139.996 Q2106.57 139.001 2107.78 139.001 Q2108.77 139.001 2109.39 139.616 Q2110 140.231 2110 141.167 M2110.53 170.065 Q2110.53 170.299 2110.26 171.236 Q2110 172.144 2109.36 173.549 Q2108.74 174.925 2107.89 176.213 Q2107.04 177.501 2105.64 178.409 Q2104.26 179.317 2102.68 179.317 Q2100.54 179.317 2099.14 177.911 Q2097.76 176.506 2097.76 174.398 Q2097.76 173.256 2099.14 169.596 Q2103.12 158.939 2103.27 158.5 Q2103.94 156.831 2103.94 155.367 Q2103.94 154.694 2103.79 154.284 Q2103.65 153.845 2103.35 153.698 Q2103.06 153.523 2102.89 153.493 Q2102.74 153.464 2102.45 153.464 Q2100.72 153.464 2099.11 155.221 Q2097.5 156.978 2096.39 160.901 Q2096.15 161.633 2096.01 161.808 Q2095.86 161.984 2095.42 161.984 Q2094.69 161.955 2094.69 161.369 Q2094.69 161.194 2094.89 160.52 Q2095.1 159.818 2095.48 158.764 Q2095.86 157.68 2096.53 156.568 Q2097.21 155.426 2098.03 154.43 Q2098.87 153.435 2100.08 152.791 Q2101.28 152.147 2102.62 152.147 Q2104.82 152.147 2106.16 153.581 Q2107.54 154.987 2107.54 157.065 Q2107.54 158.207 2106.75 160.227 Q2105.78 162.862 2105.43 163.712 L2103.09 170.006 Q2102.24 172.29 2101.98 172.993 Q2101.74 173.666 2101.54 174.486 Q2101.36 175.276 2101.36 176.008 Q2101.36 177.033 2101.69 177.501 Q2102.04 177.97 2102.8 177.97 Q2104.91 177.97 2106.46 175.891 Q2108.01 173.783 2108.92 170.563 Q2108.95 170.475 2108.98 170.328 Q2109.21 169.596 2109.44 169.509 Q2109.56 169.479 2109.8 169.479 Q2110.53 169.479 2110.53 170.065 Z" fill="#808080" fill-rule="evenodd" fill-opacity="1" /><path clip-path="url(#clip980)" d="M 0 0 M2147.65 170.065 Q2147.65 170.299 2147.39 171.207 Q2147.13 172.114 2146.48 173.52 Q2145.87 174.925 2145.02 176.213 Q2144.17 177.472 2142.77 178.409 Q2141.39 179.317 2139.81 179.317 Q2137.7 179.317 2136.29 177.911 Q2134.89 176.506 2134.89 174.398 Q2134.89 173.227 2135.5 171.617 Q2139.4 161.223 2139.4 157.651 Q2139.4 153.464 2136.15 153.464 Q2134.54 153.464 2133.02 154.079 Q2131.52 154.665 2130.5 155.484 Q2129.47 156.304 2128.54 157.446 Q2127.63 158.559 2127.16 159.32 Q2126.72 160.052 2126.37 160.784 L2125.61 163.77 Q2125.43 164.59 2124.58 167.781 L2123.27 173.198 Q2122.33 177.238 2122.12 177.619 Q2121.83 178.438 2121.19 178.878 Q2120.54 179.317 2119.9 179.317 Q2119.17 179.317 2118.67 178.878 Q2118.17 178.438 2118.17 177.677 Q2118.17 177.56 2118.26 177.121 Q2118.35 176.682 2118.49 176.067 Q2118.64 175.452 2118.7 175.101 L2122.18 161.252 Q2122.83 158.734 2122.97 157.944 Q2123.15 157.124 2123.15 156.216 Q2123.15 153.464 2121.28 153.464 Q2119.75 153.464 2118.76 155.279 Q2117.76 157.095 2116.91 160.608 Q2116.65 161.574 2116.47 161.779 Q2116.33 161.984 2115.89 161.984 Q2115.16 161.955 2115.16 161.369 Q2115.16 161.223 2115.39 160.257 Q2115.62 159.291 2116.06 157.914 Q2116.53 156.509 2116.97 155.572 Q2117.35 154.87 2117.56 154.547 Q2117.79 154.196 2118.35 153.523 Q2118.93 152.82 2119.69 152.498 Q2120.48 152.147 2121.45 152.147 Q2123.62 152.147 2125.2 153.552 Q2126.78 154.928 2126.98 157.358 Q2130.88 152.147 2136.32 152.147 Q2139.54 152.147 2141.39 153.845 Q2143.23 155.543 2143.23 158.559 Q2143.23 159.261 2143.09 160.169 Q2142.97 161.047 2142.68 162.16 Q2142.41 163.272 2142.18 164.121 Q2141.95 164.97 2141.48 166.347 Q2141.01 167.693 2140.8 168.279 Q2140.6 168.864 2140.1 170.241 Q2139.63 171.587 2139.57 171.734 Q2138.49 174.457 2138.49 176.008 Q2138.49 177.033 2138.81 177.501 Q2139.16 177.97 2139.93 177.97 Q2141.97 177.97 2143.5 175.95 Q2145.05 173.9 2146.04 170.563 Q2146.28 169.831 2146.4 169.655 Q2146.54 169.479 2146.95 169.479 Q2147.65 169.479 2147.65 170.065 Z" fill="#808080" fill-rule="evenodd" fill-opacity="1" /><path clip-path="url(#clip980)" d="M 0 0 M2150.76 163.653 Q2150.76 153.523 2154.53 145.354 Q2156.15 141.929 2158.4 139.059 Q2160.65 136.19 2162.15 134.931 Q2163.64 133.672 2164.05 133.672 Q2164.64 133.672 2164.66 134.258 Q2164.66 134.551 2163.87 135.283 Q2154.21 145.12 2154.24 163.653 Q2154.24 182.245 2163.64 191.701 Q2164.66 192.726 2164.66 193.048 Q2164.66 193.634 2164.05 193.634 Q2163.64 193.634 2162.21 192.433 Q2160.77 191.233 2158.55 188.481 Q2156.32 185.729 2154.71 182.362 Q2150.76 174.193 2150.76 163.653 Z" fill="#808080" fill-rule="evenodd" fill-opacity="1" /><path clip-path="url(#clip980)" d="M 0 0 M2203.64 156.099 Q2203.64 157.739 2202.62 158.676 Q2201.59 159.583 2200.42 159.583 Q2199.31 159.583 2198.72 158.939 Q2198.14 158.295 2198.14 157.475 Q2198.14 156.363 2198.96 155.397 Q2199.78 154.43 2201.01 154.225 Q2199.81 153.464 2198.02 153.464 Q2196.85 153.464 2195.82 154.079 Q2194.83 154.694 2194.21 155.484 Q2193.63 156.275 2193.1 157.417 Q2192.6 158.529 2192.4 159.203 Q2192.22 159.847 2192.08 160.549 L2190.03 168.747 Q2189.03 172.641 2189.03 174.017 Q2189.03 175.716 2189.85 176.857 Q2190.67 177.97 2192.31 177.97 Q2192.95 177.97 2193.69 177.794 Q2194.42 177.589 2195.36 177.062 Q2196.32 176.506 2197.17 175.686 Q2198.05 174.837 2198.9 173.403 Q2199.75 171.968 2200.3 170.123 Q2200.48 169.479 2201.06 169.479 Q2201.8 169.479 2201.8 170.065 Q2201.8 170.563 2201.39 171.617 Q2201.01 172.641 2200.16 173.988 Q2199.34 175.306 2198.25 176.506 Q2197.17 177.677 2195.56 178.497 Q2193.95 179.317 2192.19 179.317 Q2189.68 179.317 2188.01 177.97 Q2186.34 176.623 2185.72 174.749 Q2185.58 175.013 2185.37 175.364 Q2185.17 175.716 2184.55 176.506 Q2183.97 177.267 2183.29 177.853 Q2182.62 178.409 2181.57 178.848 Q2180.54 179.317 2179.43 179.317 Q2178.02 179.317 2176.76 178.907 Q2175.53 178.497 2174.66 177.56 Q2173.78 176.623 2173.78 175.335 Q2173.78 173.9 2174.74 172.905 Q2175.74 171.88 2177.09 171.88 Q2177.93 171.88 2178.61 172.378 Q2179.31 172.876 2179.31 173.959 Q2179.31 175.159 2178.49 176.067 Q2177.67 176.974 2176.5 177.209 Q2177.7 177.97 2179.49 177.97 Q2181.42 177.97 2182.94 176.272 Q2184.46 174.574 2185.2 171.734 Q2187.01 164.912 2187.71 161.867 Q2188.42 158.793 2188.42 157.475 Q2188.42 156.246 2188.09 155.397 Q2187.77 154.547 2187.22 154.167 Q2186.69 153.757 2186.19 153.611 Q2185.72 153.464 2185.2 153.464 Q2184.32 153.464 2183.32 153.816 Q2182.36 154.167 2181.18 154.987 Q2180.04 155.777 2178.96 157.417 Q2177.88 159.056 2177.14 161.311 Q2177 161.984 2176.35 161.984 Q2175.65 161.955 2175.65 161.369 Q2175.65 160.872 2176.03 159.847 Q2176.44 158.793 2177.26 157.475 Q2178.11 156.158 2179.19 154.987 Q2180.31 153.786 2181.92 152.966 Q2183.56 152.147 2185.31 152.147 Q2186.1 152.147 2186.86 152.322 Q2187.66 152.469 2188.59 152.908 Q2189.56 153.347 2190.41 154.313 Q2191.26 155.279 2191.78 156.685 Q2192.13 156.011 2192.6 155.367 Q2193.1 154.723 2193.86 153.933 Q2194.65 153.113 2195.74 152.644 Q2196.85 152.147 2198.08 152.147 Q2199.28 152.147 2200.45 152.469 Q2201.62 152.762 2202.62 153.728 Q2203.64 154.665 2203.64 156.099 Z" fill="#808080" fill-rule="evenodd" fill-opacity="1" /><path clip-path="url(#clip980)" d="M 0 0 M2207.73 193.048 Q2207.73 192.755 2208.49 192.023 Q2218.15 182.186 2218.15 163.653 Q2218.15 145.061 2208.87 135.663 Q2207.73 134.58 2207.73 134.258 Q2207.73 133.672 2208.31 133.672 Q2208.72 133.672 2210.16 134.873 Q2211.62 136.073 2213.82 138.825 Q2216.04 141.577 2217.68 144.944 Q2221.63 153.113 2221.63 163.653 Q2221.63 173.783 2217.86 181.952 Q2216.25 185.377 2213.99 188.247 Q2211.74 191.116 2210.24 192.375 Q2208.75 193.634 2208.31 193.634 Q2207.73 193.634 2207.73 193.048 Z" fill="#808080" fill-rule="evenodd" fill-opacity="1" /><polyline clip-path="url(#clip980)" style="stroke:#56b4e9; stroke-width:5; stroke-opacity:1; fill:none" points="
  1682.29,246.418 1827.16,246.418 
  "/>
<path clip-path="url(#clip980)" d="M 0 0 M1881.2 216.094 Q1881.2 217.704 1880.18 218.7 Q1879.18 219.695 1877.92 219.695 Q1877.01 219.695 1876.34 219.139 Q1875.7 218.583 1875.7 217.616 Q1875.7 216.621 1876.46 215.567 Q1877.22 214.513 1878.95 214.367 Q1877.8 213.283 1875.99 213.283 Q1875.08 213.283 1874.32 213.869 Q1873.59 214.425 1873.18 215.333 Q1872.74 216.27 1871.74 221.569 Q1871.42 223.296 1871.13 224.965 Q1870.84 226.634 1870.48 228.391 L1875.46 228.391 Q1876.11 228.391 1876.37 228.42 Q1876.63 228.449 1876.84 228.596 Q1877.07 228.742 1877.07 229.064 Q1877.07 229.884 1876.69 230.089 Q1876.34 230.265 1875.29 230.265 L1870.13 230.265 L1866.53 249.266 Q1866.44 249.822 1866.06 251.579 Q1865.71 253.306 1864.86 256.146 Q1864.01 259.016 1863.17 260.714 Q1862.7 261.68 1862.08 262.588 Q1861.5 263.524 1860.65 264.461 Q1859.8 265.398 1858.69 265.955 Q1857.57 266.54 1856.4 266.54 Q1854.41 266.54 1852.86 265.428 Q1851.31 264.315 1851.31 262.412 Q1851.31 260.802 1852.3 259.806 Q1853.33 258.811 1854.59 258.811 Q1855.49 258.811 1856.14 259.367 Q1856.81 259.923 1856.81 260.889 Q1856.81 261.299 1856.67 261.768 Q1856.52 262.236 1856.2 262.763 Q1855.87 263.32 1855.17 263.7 Q1854.47 264.081 1853.5 264.139 Q1854.65 265.223 1856.4 265.223 Q1856.96 265.223 1857.46 264.988 Q1857.95 264.783 1858.36 264.256 Q1858.8 263.729 1859.12 263.202 Q1859.45 262.705 1859.77 261.739 Q1860.09 260.802 1860.3 260.099 Q1860.5 259.396 1860.76 258.137 Q1861.06 256.878 1861.2 256.117 Q1861.35 255.385 1861.61 253.951 L1866.09 230.265 L1862.14 230.265 Q1861.44 230.265 1861.14 230.235 Q1860.88 230.206 1860.68 230.06 Q1860.47 229.884 1860.47 229.533 Q1860.47 228.976 1860.71 228.742 Q1860.97 228.479 1861.26 228.449 Q1861.55 228.391 1862.26 228.391 L1866.41 228.391 Q1867.82 220.983 1868.38 218.993 Q1869.02 216.885 1870.02 215.421 Q1871.01 213.927 1872.12 213.225 Q1873.24 212.522 1874.14 212.259 Q1875.08 211.966 1875.99 211.966 Q1878.04 211.966 1879.62 213.078 Q1881.2 214.162 1881.2 216.094 Z" fill="#808080" fill-rule="evenodd" fill-opacity="1" /><path clip-path="url(#clip980)" d="M 0 0 M1887.3 282.842 Q1887.3 282.083 1887.36 281.858 Q1887.44 281.633 1887.77 281.284 L1895.83 272.308 Q1900.23 267.348 1900.23 263.023 Q1900.23 260.216 1898.76 258.207 Q1897.3 256.199 1894.62 256.199 Q1892.77 256.199 1891.22 257.326 Q1889.66 258.453 1888.94 260.462 Q1889.06 260.421 1889.49 260.421 Q1890.54 260.421 1891.11 261.076 Q1891.71 261.732 1891.71 262.614 Q1891.71 263.741 1890.97 264.294 Q1890.25 264.827 1889.54 264.827 Q1889.25 264.827 1888.86 264.766 Q1888.49 264.704 1887.9 264.13 Q1887.3 263.536 1887.3 262.491 Q1887.3 259.56 1889.51 257.223 Q1891.75 254.887 1895.15 254.887 Q1899 254.887 1901.52 257.182 Q1904.07 259.457 1904.07 263.023 Q1904.07 264.274 1903.68 265.421 Q1903.31 266.549 1902.8 267.43 Q1902.3 268.311 1900.95 269.725 Q1899.6 271.139 1898.51 272.144 Q1897.43 273.148 1894.99 275.279 L1890.54 279.604 L1898.1 279.604 Q1901.79 279.604 1902.08 279.276 Q1902.49 278.681 1903 275.546 L1904.07 275.546 L1902.88 282.842 L1887.3 282.842 Z" fill="#808080" fill-rule="evenodd" fill-opacity="1" /><path clip-path="url(#clip980)" d="M 0 0 M1910.29 239.253 Q1910.29 229.123 1914.07 220.954 Q1915.68 217.529 1917.93 214.659 Q1920.19 211.79 1921.68 210.531 Q1923.18 209.272 1923.59 209.272 Q1924.17 209.272 1924.2 209.858 Q1924.2 210.151 1923.41 210.883 Q1913.75 220.72 1913.78 239.253 Q1913.78 257.845 1923.18 267.301 Q1924.2 268.326 1924.2 268.648 Q1924.2 269.234 1923.59 269.234 Q1923.18 269.234 1921.74 268.033 Q1920.31 266.833 1918.08 264.081 Q1915.86 261.329 1914.25 257.962 Q1910.29 249.793 1910.29 239.253 Z" fill="#808080" fill-rule="evenodd" fill-opacity="1" /><path clip-path="url(#clip980)" d="M 0 0 M1963.18 231.699 Q1963.18 233.339 1962.15 234.276 Q1961.13 235.183 1959.96 235.183 Q1958.84 235.183 1958.26 234.539 Q1957.67 233.895 1957.67 233.075 Q1957.67 231.963 1958.49 230.997 Q1959.31 230.03 1960.54 229.825 Q1959.34 229.064 1957.56 229.064 Q1956.38 229.064 1955.36 229.679 Q1954.36 230.294 1953.75 231.084 Q1953.16 231.875 1952.64 233.017 Q1952.14 234.129 1951.93 234.803 Q1951.76 235.447 1951.61 236.149 L1949.56 244.347 Q1948.57 248.241 1948.57 249.617 Q1948.57 251.316 1949.39 252.457 Q1950.21 253.57 1951.85 253.57 Q1952.49 253.57 1953.22 253.394 Q1953.95 253.189 1954.89 252.662 Q1955.86 252.106 1956.71 251.286 Q1957.58 250.437 1958.43 249.003 Q1959.28 247.568 1959.84 245.723 Q1960.01 245.079 1960.6 245.079 Q1961.33 245.079 1961.33 245.665 Q1961.33 246.163 1960.92 247.217 Q1960.54 248.241 1959.69 249.588 Q1958.87 250.906 1957.79 252.106 Q1956.71 253.277 1955.1 254.097 Q1953.49 254.917 1951.73 254.917 Q1949.21 254.917 1947.54 253.57 Q1945.87 252.223 1945.26 250.349 Q1945.11 250.613 1944.91 250.964 Q1944.7 251.316 1944.09 252.106 Q1943.5 252.867 1942.83 253.453 Q1942.15 254.009 1941.1 254.448 Q1940.08 254.917 1938.96 254.917 Q1937.56 254.917 1936.3 254.507 Q1935.07 254.097 1934.19 253.16 Q1933.31 252.223 1933.31 250.935 Q1933.31 249.5 1934.28 248.505 Q1935.27 247.48 1936.62 247.48 Q1937.47 247.48 1938.14 247.978 Q1938.85 248.476 1938.85 249.559 Q1938.85 250.759 1938.03 251.667 Q1937.21 252.574 1936.04 252.809 Q1937.24 253.57 1939.02 253.57 Q1940.95 253.57 1942.48 251.872 Q1944 250.174 1944.73 247.334 Q1946.55 240.512 1947.25 237.467 Q1947.95 234.393 1947.95 233.075 Q1947.95 231.846 1947.63 230.997 Q1947.31 230.147 1946.75 229.767 Q1946.22 229.357 1945.73 229.211 Q1945.26 229.064 1944.73 229.064 Q1943.85 229.064 1942.86 229.416 Q1941.89 229.767 1940.72 230.587 Q1939.58 231.377 1938.5 233.017 Q1937.41 234.656 1936.68 236.911 Q1936.53 237.584 1935.89 237.584 Q1935.19 237.555 1935.19 236.969 Q1935.19 236.472 1935.57 235.447 Q1935.98 234.393 1936.8 233.075 Q1937.65 231.758 1938.73 230.587 Q1939.84 229.386 1941.45 228.566 Q1943.09 227.747 1944.85 227.747 Q1945.64 227.747 1946.4 227.922 Q1947.19 228.069 1948.13 228.508 Q1949.09 228.947 1949.94 229.913 Q1950.79 230.879 1951.32 232.285 Q1951.67 231.611 1952.14 230.967 Q1952.64 230.323 1953.4 229.533 Q1954.19 228.713 1955.27 228.244 Q1956.38 227.747 1957.61 227.747 Q1958.81 227.747 1959.99 228.069 Q1961.16 228.362 1962.15 229.328 Q1963.18 230.265 1963.18 231.699 Z" fill="#808080" fill-rule="evenodd" fill-opacity="1" /><path clip-path="url(#clip980)" d="M 0 0 M1967.26 268.648 Q1967.26 268.355 1968.02 267.623 Q1977.69 257.786 1977.69 239.253 Q1977.69 220.661 1968.4 211.263 Q1967.26 210.18 1967.26 209.858 Q1967.26 209.272 1967.85 209.272 Q1968.26 209.272 1969.69 210.473 Q1971.16 211.673 1973.35 214.425 Q1975.58 217.177 1977.22 220.544 Q1981.17 228.713 1981.17 239.253 Q1981.17 249.383 1977.39 257.552 Q1975.78 260.977 1973.53 263.847 Q1971.27 266.716 1969.78 267.975 Q1968.29 269.234 1967.85 269.234 Q1967.26 269.234 1967.26 268.648 Z" fill="#808080" fill-rule="evenodd" fill-opacity="1" /><path clip-path="url(#clip980)" d="M 0 0 M2006.92 245.138 Q2006.97 244.406 2008.12 244.406 L2044.86 244.406 Q2046.59 244.406 2046.62 245.079 Q2046.62 245.811 2044.98 245.782 L2008.53 245.782 Q2006.92 245.811 2006.92 245.138 M2006.92 233.427 Q2006.92 232.695 2008.17 232.724 L2044.8 232.724 Q2046.59 232.724 2046.62 233.427 Q2046.62 234.1 2045.09 234.1 L2008.12 234.1 Q2006.92 234.1 2006.92 233.427 Z" fill="#808080" fill-rule="evenodd" fill-opacity="1" /><path clip-path="url(#clip980)" d="M 0 0 M2092.83 247.304 Q2093.07 247.568 2093.07 247.831 Q2093.07 248.095 2092.48 248.856 Q2091.93 249.617 2090.72 250.642 Q2089.52 251.667 2087.97 252.633 Q2086.42 253.599 2084.14 254.243 Q2081.85 254.917 2079.45 254.917 Q2074.97 254.917 2072.34 251.96 Q2069.73 249.003 2069.73 244.757 Q2069.73 240.629 2072.05 236.677 Q2074.36 232.695 2078.11 230.235 Q2081.85 227.747 2085.81 227.747 Q2088.94 227.747 2090.9 229.211 Q2092.86 230.675 2092.86 232.9 Q2092.86 234.627 2091.87 235.681 Q2090.87 236.735 2089.52 236.735 Q2088.59 236.735 2087.94 236.208 Q2087.3 235.652 2087.3 234.627 Q2087.3 233.31 2088.38 232.285 Q2088.79 231.875 2089.26 231.699 Q2089.76 231.494 2090.05 231.494 Q2090.34 231.465 2091.02 231.465 Q2090.4 230.323 2088.94 229.708 Q2087.5 229.064 2085.86 229.064 Q2083.43 229.064 2081.12 230.762 Q2078.81 232.431 2077.4 235.066 Q2076 237.643 2075.09 241.302 Q2074.18 244.933 2074.18 247.041 Q2074.18 249.939 2075.53 251.755 Q2076.88 253.57 2079.57 253.57 Q2080.1 253.57 2080.65 253.541 Q2081.24 253.511 2082.7 253.189 Q2084.2 252.867 2085.51 252.311 Q2086.83 251.755 2088.5 250.554 Q2090.2 249.325 2091.54 247.656 Q2092.01 247.041 2092.34 247.041 Q2092.6 247.041 2092.83 247.304 Z" fill="#808080" fill-rule="evenodd" fill-opacity="1" /><path clip-path="url(#clip980)" d="M 0 0 M2121.1 237.877 Q2121.1 241.068 2119.69 244.23 Q2118.29 247.363 2116.03 249.705 Q2113.81 252.018 2110.88 253.482 Q2107.95 254.917 2105.02 254.917 Q2100.84 254.917 2098.11 252.077 Q2095.42 249.208 2095.42 244.757 Q2095.42 240.6 2097.73 236.647 Q2100.07 232.665 2103.82 230.206 Q2107.57 227.747 2111.49 227.747 Q2115.62 227.747 2118.34 230.528 Q2121.1 233.31 2121.1 237.877 M2116.7 235.535 Q2116.7 232.695 2115.33 230.879 Q2113.95 229.064 2111.43 229.064 Q2110.7 229.064 2109.85 229.298 Q2109 229.503 2107.89 230.06 Q2106.81 230.616 2105.58 231.787 Q2104.38 232.929 2103.32 234.568 Q2101.95 236.735 2100.89 240.717 Q2099.87 244.669 2099.87 247.041 Q2099.87 250.32 2101.39 251.96 Q2102.91 253.57 2105.08 253.57 Q2107.19 253.57 2109.41 252.106 Q2111.67 250.613 2113.22 248.066 Q2114.77 245.431 2115.74 241.566 Q2116.7 237.672 2116.7 235.535 Z" fill="#808080" fill-rule="evenodd" fill-opacity="1" /><path clip-path="url(#clip980)" d="M 0 0 M2146.28 232.9 Q2146.28 234.539 2145.46 235.418 Q2144.64 236.267 2143.53 236.267 Q2142.62 236.267 2142.13 235.74 Q2141.66 235.213 2141.66 234.51 Q2141.66 233.485 2142.48 232.665 Q2143.33 231.846 2144.56 231.816 Q2144.15 230.733 2143.06 230.089 Q2141.98 229.416 2141.01 229.24 Q2140.08 229.064 2139.14 229.064 Q2137.3 229.064 2135.89 229.65 Q2134.48 230.235 2133.78 231.143 Q2133.08 232.021 2132.76 232.87 Q2132.44 233.719 2132.44 234.451 Q2132.44 235.095 2132.58 235.622 Q2132.76 236.12 2133.17 236.501 Q2133.58 236.852 2133.87 237.086 Q2134.19 237.321 2134.89 237.526 Q2135.6 237.731 2135.89 237.818 Q2136.18 237.877 2137 238.053 Q2138.7 238.404 2139.46 238.609 Q2140.22 238.785 2141.22 239.282 Q2142.24 239.78 2143 240.57 Q2144.85 242.415 2144.85 244.962 Q2144.85 245.899 2144.53 247.041 Q2144.23 248.183 2143.39 249.617 Q2142.54 251.052 2141.25 252.194 Q2139.96 253.336 2137.73 254.126 Q2135.54 254.917 2132.79 254.917 Q2128.95 254.917 2126.58 253.306 Q2124.21 251.667 2124.21 249.09 Q2124.21 247.217 2125.23 246.192 Q2126.26 245.138 2127.57 245.138 Q2128.57 245.138 2129.19 245.694 Q2129.8 246.221 2129.8 247.217 Q2129.8 248.563 2128.72 249.588 Q2127.63 250.613 2126.02 250.408 Q2127.4 253.57 2132.84 253.57 Q2134.89 253.57 2136.48 253.043 Q2138.09 252.487 2138.96 251.725 Q2139.87 250.935 2140.46 249.969 Q2141.04 249.003 2141.22 248.271 Q2141.42 247.539 2141.42 246.982 Q2141.42 246.016 2141.04 245.284 Q2140.66 244.552 2140.14 244.142 Q2139.64 243.703 2138.67 243.352 Q2137.73 242.971 2137.06 242.825 Q2136.39 242.679 2135.19 242.444 Q2134.63 242.327 2134.28 242.269 Q2133.93 242.181 2133.2 241.947 Q2132.49 241.683 2132 241.42 Q2131.53 241.156 2130.91 240.688 Q2130.3 240.219 2129.92 239.663 Q2129.54 239.107 2129.27 238.287 Q2129.01 237.467 2129.01 236.501 Q2129.01 235.622 2129.27 234.568 Q2129.57 233.514 2130.3 232.285 Q2131.06 231.055 2132.14 230.06 Q2133.23 229.064 2135.04 228.42 Q2136.89 227.747 2139.14 227.747 Q2142.42 227.747 2144.35 229.269 Q2146.28 230.762 2146.28 232.9 Z" fill="#808080" fill-rule="evenodd" fill-opacity="1" /><path clip-path="url(#clip980)" d="M 0 0 M2152.04 239.253 Q2152.04 229.123 2155.82 220.954 Q2157.43 217.529 2159.68 214.659 Q2161.94 211.79 2163.43 210.531 Q2164.92 209.272 2165.33 209.272 Q2165.92 209.272 2165.95 209.858 Q2165.95 210.151 2165.16 210.883 Q2155.49 220.72 2155.52 239.253 Q2155.52 257.845 2164.92 267.301 Q2165.95 268.326 2165.95 268.648 Q2165.95 269.234 2165.33 269.234 Q2164.92 269.234 2163.49 268.033 Q2162.05 266.833 2159.83 264.081 Q2157.6 261.329 2155.99 257.962 Q2152.04 249.793 2152.04 239.253 Z" fill="#808080" fill-rule="evenodd" fill-opacity="1" /><path clip-path="url(#clip980)" d="M 0 0 M2204.92 231.699 Q2204.92 233.339 2203.9 234.276 Q2202.87 235.183 2201.7 235.183 Q2200.59 235.183 2200 234.539 Q2199.42 233.895 2199.42 233.075 Q2199.42 231.963 2200.24 230.997 Q2201.06 230.03 2202.29 229.825 Q2201.09 229.064 2199.3 229.064 Q2198.13 229.064 2197.11 229.679 Q2196.11 230.294 2195.5 231.084 Q2194.91 231.875 2194.38 233.017 Q2193.89 234.129 2193.68 234.803 Q2193.5 235.447 2193.36 236.149 L2191.31 244.347 Q2190.31 248.241 2190.31 249.617 Q2190.31 251.316 2191.13 252.457 Q2191.95 253.57 2193.59 253.57 Q2194.24 253.57 2194.97 253.394 Q2195.7 253.189 2196.64 252.662 Q2197.6 252.106 2198.45 251.286 Q2199.33 250.437 2200.18 249.003 Q2201.03 247.568 2201.59 245.723 Q2201.76 245.079 2202.35 245.079 Q2203.08 245.079 2203.08 245.665 Q2203.08 246.163 2202.67 247.217 Q2202.29 248.241 2201.44 249.588 Q2200.62 250.906 2199.54 252.106 Q2198.45 253.277 2196.84 254.097 Q2195.23 254.917 2193.48 254.917 Q2190.96 254.917 2189.29 253.57 Q2187.62 252.223 2187 250.349 Q2186.86 250.613 2186.65 250.964 Q2186.45 251.316 2185.83 252.106 Q2185.25 252.867 2184.57 253.453 Q2183.9 254.009 2182.85 254.448 Q2181.82 254.917 2180.71 254.917 Q2179.3 254.917 2178.05 254.507 Q2176.82 254.097 2175.94 253.16 Q2175.06 252.223 2175.06 250.935 Q2175.06 249.5 2176.03 248.505 Q2177.02 247.48 2178.37 247.48 Q2179.22 247.48 2179.89 247.978 Q2180.59 248.476 2180.59 249.559 Q2180.59 250.759 2179.77 251.667 Q2178.95 252.574 2177.78 252.809 Q2178.98 253.57 2180.77 253.57 Q2182.7 253.57 2184.22 251.872 Q2185.75 250.174 2186.48 247.334 Q2188.29 240.512 2189 237.467 Q2189.7 234.393 2189.7 233.075 Q2189.7 231.846 2189.38 230.997 Q2189.05 230.147 2188.5 229.767 Q2187.97 229.357 2187.47 229.211 Q2187 229.064 2186.48 229.064 Q2185.6 229.064 2184.6 229.416 Q2183.64 229.767 2182.47 230.587 Q2181.32 231.377 2180.24 233.017 Q2179.16 234.656 2178.43 236.911 Q2178.28 237.584 2177.64 237.584 Q2176.93 237.555 2176.93 236.969 Q2176.93 236.472 2177.31 235.447 Q2177.72 234.393 2178.54 233.075 Q2179.39 231.758 2180.48 230.587 Q2181.59 229.386 2183.2 228.566 Q2184.84 227.747 2186.59 227.747 Q2187.39 227.747 2188.15 227.922 Q2188.94 228.069 2189.87 228.508 Q2190.84 228.947 2191.69 229.913 Q2192.54 230.879 2193.07 232.285 Q2193.42 231.611 2193.89 230.967 Q2194.38 230.323 2195.14 229.533 Q2195.93 228.713 2197.02 228.244 Q2198.13 227.747 2199.36 227.747 Q2200.56 227.747 2201.73 228.069 Q2202.9 228.362 2203.9 229.328 Q2204.92 230.265 2204.92 231.699 Z" fill="#808080" fill-rule="evenodd" fill-opacity="1" /><path clip-path="url(#clip980)" d="M 0 0 M2209.01 268.648 Q2209.01 268.355 2209.77 267.623 Q2219.43 257.786 2219.43 239.253 Q2219.43 220.661 2210.15 211.263 Q2209.01 210.18 2209.01 209.858 Q2209.01 209.272 2209.59 209.272 Q2210 209.272 2211.44 210.473 Q2212.9 211.673 2215.1 214.425 Q2217.32 217.177 2218.96 220.544 Q2222.92 228.713 2222.92 239.253 Q2222.92 249.383 2219.14 257.552 Q2217.53 260.977 2215.27 263.847 Q2213.02 266.716 2211.53 267.975 Q2210.03 269.234 2209.59 269.234 Q2209.01 269.234 2209.01 268.648 Z" fill="#808080" fill-rule="evenodd" fill-opacity="1" /></svg>
