<?xml version="1.0" encoding="utf-8"?>
<svg xmlns="http://www.w3.org/2000/svg" xmlns:xlink="http://www.w3.org/1999/xlink" width="600" height="400" viewBox="0 0 2400 1600">
<defs>
  <clipPath id="clip170">
    <rect x="0" y="0" width="2400" height="1600"/>
  </clipPath>
</defs>
<path clip-path="url(#clip170)" d="
M0 1600 L2400 1600 L2400 0 L0 0  Z
  " fill="#ffffff" fill-rule="evenodd" fill-opacity="1"/>
<defs>
  <clipPath id="clip171">
    <rect x="480" y="0" width="1681" height="1600"/>
  </clipPath>
</defs>
<path clip-path="url(#clip170)" d="
M142.07 1482.13 L2352.76 1482.13 L2352.76 149.392 L142.07 149.392  Z
  " fill="#ffffff" fill-rule="evenodd" fill-opacity="1"/>
<defs>
  <clipPath id="clip172">
    <rect x="142" y="149" width="2212" height="1334"/>
  </clipPath>
</defs>
<polyline clip-path="url(#clip172)" style="stroke:#000000; stroke-width:2; stroke-opacity:0.1; fill:none" points="
  263.662,1482.13 263.662,149.392 
  "/>
<polyline clip-path="url(#clip172)" style="stroke:#000000; stroke-width:2; stroke-opacity:0.1; fill:none" points="
  919.496,1482.13 919.496,149.392 
  "/>
<polyline clip-path="url(#clip172)" style="stroke:#000000; stroke-width:2; stroke-opacity:0.1; fill:none" points="
  1575.33,1482.13 1575.33,149.392 
  "/>
<polyline clip-path="url(#clip172)" style="stroke:#000000; stroke-width:2; stroke-opacity:0.1; fill:none" points="
  2231.16,1482.13 2231.16,149.392 
  "/>
<polyline clip-path="url(#clip170)" style="stroke:#000000; stroke-width:4; stroke-opacity:1; fill:none" points="
  142.07,1482.13 2352.76,1482.13 
  "/>
<polyline clip-path="url(#clip170)" style="stroke:#000000; stroke-width:4; stroke-opacity:1; fill:none" points="
  263.662,1482.13 263.662,1466.14 
  "/>
<polyline clip-path="url(#clip170)" style="stroke:#000000; stroke-width:4; stroke-opacity:1; fill:none" points="
  919.496,1482.13 919.496,1466.14 
  "/>
<polyline clip-path="url(#clip170)" style="stroke:#000000; stroke-width:4; stroke-opacity:1; fill:none" points="
  1575.33,1482.13 1575.33,1466.14 
  "/>
<polyline clip-path="url(#clip170)" style="stroke:#000000; stroke-width:4; stroke-opacity:1; fill:none" points="
  2231.16,1482.13 2231.16,1466.14 
  "/>
<path clip-path="url(#clip170)" d="M 0 0 M263.662 1512.57 Q259.599 1512.57 257.542 1516.58 Q255.511 1520.56 255.511 1528.58 Q255.511 1536.58 257.542 1540.59 Q259.599 1544.57 263.662 1544.57 Q267.75 1544.57 269.781 1540.59 Q271.839 1536.58 271.839 1528.58 Q271.839 1520.56 269.781 1516.58 Q267.75 1512.57 263.662 1512.57 M263.662 1508.4 Q270.198 1508.4 273.636 1513.58 Q277.099 1518.74 277.099 1528.58 Q277.099 1538.4 273.636 1543.58 Q270.198 1548.74 263.662 1548.74 Q257.125 1548.74 253.662 1543.58 Q250.224 1538.4 250.224 1528.58 Q250.224 1518.74 253.662 1513.58 Q257.125 1508.4 263.662 1508.4 Z" fill="#bebebe" fill-rule="evenodd" fill-opacity="1" /><path clip-path="url(#clip170)" d="M 0 0 M893.48 1543.56 L902.074 1543.56 L902.074 1513.9 L892.725 1515.77 L892.725 1510.98 L902.022 1509.1 L907.282 1509.1 L907.282 1543.56 L915.876 1543.56 L915.876 1547.98 L893.48 1547.98 L893.48 1543.56 Z" fill="#bebebe" fill-rule="evenodd" fill-opacity="1" /><path clip-path="url(#clip170)" d="M 0 0 M932.829 1512.57 Q928.767 1512.57 926.709 1516.58 Q924.678 1520.56 924.678 1528.58 Q924.678 1536.58 926.709 1540.59 Q928.767 1544.57 932.829 1544.57 Q936.918 1544.57 938.949 1540.59 Q941.006 1536.58 941.006 1528.58 Q941.006 1520.56 938.949 1516.58 Q936.918 1512.57 932.829 1512.57 M932.829 1508.4 Q939.366 1508.4 942.803 1513.58 Q946.267 1518.74 946.267 1528.58 Q946.267 1538.4 942.803 1543.58 Q939.366 1548.74 932.829 1548.74 Q926.293 1548.74 922.829 1543.58 Q919.392 1538.4 919.392 1528.58 Q919.392 1518.74 922.829 1513.58 Q926.293 1508.4 932.829 1508.4 Z" fill="#bebebe" fill-rule="evenodd" fill-opacity="1" /><path clip-path="url(#clip170)" d="M 0 0 M1554.12 1543.56 L1572.48 1543.56 L1572.48 1547.98 L1547.79 1547.98 L1547.79 1543.56 Q1550.79 1540.46 1555.94 1535.25 Q1561.12 1530.02 1562.45 1528.5 Q1564.98 1525.67 1565.97 1523.71 Q1566.98 1521.73 1566.98 1519.83 Q1566.98 1516.73 1564.8 1514.78 Q1562.63 1512.83 1559.15 1512.83 Q1556.67 1512.83 1553.91 1513.69 Q1551.18 1514.55 1548.05 1516.29 L1548.05 1510.98 Q1551.23 1509.7 1553.99 1509.05 Q1556.75 1508.4 1559.04 1508.4 Q1565.08 1508.4 1568.68 1511.42 Q1572.27 1514.44 1572.27 1519.49 Q1572.27 1521.89 1571.36 1524.05 Q1570.47 1526.19 1568.1 1529.1 Q1567.45 1529.86 1563.96 1533.48 Q1560.47 1537.07 1554.12 1543.56 Z" fill="#bebebe" fill-rule="evenodd" fill-opacity="1" /><path clip-path="url(#clip170)" d="M 0 0 M1589.43 1512.57 Q1585.37 1512.57 1583.31 1516.58 Q1581.28 1520.56 1581.28 1528.58 Q1581.28 1536.58 1583.31 1540.59 Q1585.37 1544.57 1589.43 1544.57 Q1593.52 1544.57 1595.55 1540.59 Q1597.61 1536.58 1597.61 1528.58 Q1597.61 1520.56 1595.55 1516.58 Q1593.52 1512.57 1589.43 1512.57 M1589.43 1508.4 Q1595.97 1508.4 1599.41 1513.58 Q1602.87 1518.74 1602.87 1528.58 Q1602.87 1538.4 1599.41 1543.58 Q1595.97 1548.74 1589.43 1548.74 Q1582.9 1548.74 1579.43 1543.58 Q1575.99 1538.4 1575.99 1528.58 Q1575.99 1518.74 1579.43 1513.58 Q1582.9 1508.4 1589.43 1508.4 Z" fill="#bebebe" fill-rule="evenodd" fill-opacity="1" /><path clip-path="url(#clip170)" d="M 0 0 M2220.75 1527.02 Q2224.52 1527.83 2226.63 1530.38 Q2228.77 1532.93 2228.77 1536.68 Q2228.77 1542.44 2224.81 1545.59 Q2220.85 1548.74 2213.56 1548.74 Q2211.11 1548.74 2208.51 1548.24 Q2205.93 1547.78 2203.17 1546.81 L2203.17 1541.73 Q2205.36 1543.01 2207.96 1543.66 Q2210.57 1544.31 2213.4 1544.31 Q2218.35 1544.31 2220.93 1542.36 Q2223.53 1540.41 2223.53 1536.68 Q2223.53 1533.24 2221.11 1531.32 Q2218.72 1529.36 2214.42 1529.36 L2209.89 1529.36 L2209.89 1525.04 L2214.63 1525.04 Q2218.51 1525.04 2220.57 1523.5 Q2222.62 1521.94 2222.62 1519.03 Q2222.62 1516.03 2220.49 1514.44 Q2218.38 1512.83 2214.42 1512.83 Q2212.26 1512.83 2209.78 1513.3 Q2207.31 1513.77 2204.34 1514.75 L2204.34 1510.07 Q2207.34 1509.23 2209.94 1508.82 Q2212.57 1508.4 2214.89 1508.4 Q2220.88 1508.4 2224.37 1511.14 Q2227.86 1513.84 2227.86 1518.48 Q2227.86 1521.71 2226.01 1523.95 Q2224.16 1526.16 2220.75 1527.02 Z" fill="#bebebe" fill-rule="evenodd" fill-opacity="1" /><path clip-path="url(#clip170)" d="M 0 0 M2245.72 1512.57 Q2241.66 1512.57 2239.6 1516.58 Q2237.57 1520.56 2237.57 1528.58 Q2237.57 1536.58 2239.6 1540.59 Q2241.66 1544.57 2245.72 1544.57 Q2249.81 1544.57 2251.84 1540.59 Q2253.9 1536.58 2253.9 1528.58 Q2253.9 1520.56 2251.84 1516.58 Q2249.81 1512.57 2245.72 1512.57 M2245.72 1508.4 Q2252.26 1508.4 2255.7 1513.58 Q2259.16 1518.74 2259.16 1528.58 Q2259.16 1538.4 2255.7 1543.58 Q2252.26 1548.74 2245.72 1548.74 Q2239.19 1548.74 2235.72 1543.58 Q2232.28 1538.4 2232.28 1528.58 Q2232.28 1518.74 2235.72 1513.58 Q2239.19 1508.4 2245.72 1508.4 Z" fill="#bebebe" fill-rule="evenodd" fill-opacity="1" /><polyline clip-path="url(#clip172)" style="stroke:#000000; stroke-width:2; stroke-opacity:0.1; fill:none" points="
  142.07,1444.41 2352.76,1444.41 
  "/>
<polyline clip-path="url(#clip172)" style="stroke:#000000; stroke-width:2; stroke-opacity:0.1; fill:none" points="
  142.07,1219.89 2352.76,1219.89 
  "/>
<polyline clip-path="url(#clip172)" style="stroke:#000000; stroke-width:2; stroke-opacity:0.1; fill:none" points="
  142.07,995.374 2352.76,995.374 
  "/>
<polyline clip-path="url(#clip172)" style="stroke:#000000; stroke-width:2; stroke-opacity:0.1; fill:none" points="
  142.07,770.857 2352.76,770.857 
  "/>
<polyline clip-path="url(#clip172)" style="stroke:#000000; stroke-width:2; stroke-opacity:0.1; fill:none" points="
  142.07,546.339 2352.76,546.339 
  "/>
<polyline clip-path="url(#clip172)" style="stroke:#000000; stroke-width:2; stroke-opacity:0.1; fill:none" points="
  142.07,321.822 2352.76,321.822 
  "/>
<polyline clip-path="url(#clip170)" style="stroke:#000000; stroke-width:4; stroke-opacity:1; fill:none" points="
  142.07,1482.13 142.07,149.392 
  "/>
<polyline clip-path="url(#clip170)" style="stroke:#000000; stroke-width:4; stroke-opacity:1; fill:none" points="
  142.07,1444.41 168.598,1444.41 
  "/>
<polyline clip-path="url(#clip170)" style="stroke:#000000; stroke-width:4; stroke-opacity:1; fill:none" points="
  142.07,1219.89 168.598,1219.89 
  "/>
<polyline clip-path="url(#clip170)" style="stroke:#000000; stroke-width:4; stroke-opacity:1; fill:none" points="
  142.07,995.374 168.598,995.374 
  "/>
<polyline clip-path="url(#clip170)" style="stroke:#000000; stroke-width:4; stroke-opacity:1; fill:none" points="
  142.07,770.857 168.598,770.857 
  "/>
<polyline clip-path="url(#clip170)" style="stroke:#000000; stroke-width:4; stroke-opacity:1; fill:none" points="
  142.07,546.339 168.598,546.339 
  "/>
<polyline clip-path="url(#clip170)" style="stroke:#000000; stroke-width:4; stroke-opacity:1; fill:none" points="
  142.07,321.822 168.598,321.822 
  "/>
<path clip-path="url(#clip170)" d="M 0 0 M92.6325 1428.43 Q88.57 1428.43 86.5128 1432.44 Q84.4815 1436.43 84.4815 1444.45 Q84.4815 1452.44 86.5128 1456.45 Q88.57 1460.44 92.6325 1460.44 Q96.721 1460.44 98.7523 1456.45 Q100.81 1452.44 100.81 1444.45 Q100.81 1436.43 98.7523 1432.44 Q96.721 1428.43 92.6325 1428.43 M92.6325 1424.27 Q99.169 1424.27 102.606 1429.45 Q106.07 1434.6 106.07 1444.45 Q106.07 1454.27 102.606 1459.45 Q99.169 1464.6 92.6325 1464.6 Q86.0961 1464.6 82.6326 1459.45 Q79.1951 1454.27 79.1951 1444.45 Q79.1951 1434.6 82.6326 1429.45 Q86.0961 1424.27 92.6325 1424.27 Z" fill="#bebebe" fill-rule="evenodd" fill-opacity="1" /><path clip-path="url(#clip170)" d="M 0 0 M82.5545 1200.45 L103.205 1200.45 L103.205 1204.88 L87.3721 1204.88 L87.3721 1214.41 Q88.518 1214.02 89.6638 1213.84 Q90.8096 1213.63 91.9554 1213.63 Q98.4658 1213.63 102.268 1217.2 Q106.07 1220.76 106.07 1226.86 Q106.07 1233.13 102.164 1236.62 Q98.2575 1240.09 91.1482 1240.09 Q88.7003 1240.09 86.1482 1239.67 Q83.6222 1239.25 80.9138 1238.42 L80.9138 1233.13 Q83.2576 1234.41 85.7576 1235.03 Q88.2576 1235.66 91.044 1235.66 Q95.5492 1235.66 98.1794 1233.29 Q100.81 1230.92 100.81 1226.86 Q100.81 1222.8 98.1794 1220.43 Q95.5492 1218.06 91.044 1218.06 Q88.9346 1218.06 86.8253 1218.52 Q84.7419 1218.99 82.5545 1219.98 L82.5545 1200.45 Z" fill="#bebebe" fill-rule="evenodd" fill-opacity="1" /><path clip-path="url(#clip170)" d="M 0 0 M53.2838 1010.39 L61.8775 1010.39 L61.8775 980.726 L52.5286 982.601 L52.5286 977.809 L61.8254 975.934 L67.0858 975.934 L67.0858 1010.39 L75.6795 1010.39 L75.6795 1014.81 L53.2838 1014.81 L53.2838 1010.39 Z" fill="#bebebe" fill-rule="evenodd" fill-opacity="1" /><path clip-path="url(#clip170)" d="M 0 0 M92.6325 979.398 Q88.57 979.398 86.5128 983.408 Q84.4815 987.392 84.4815 995.413 Q84.4815 1003.41 86.5128 1007.42 Q88.57 1011.4 92.6325 1011.4 Q96.721 1011.4 98.7523 1007.42 Q100.81 1003.41 100.81 995.413 Q100.81 987.392 98.7523 983.408 Q96.721 979.398 92.6325 979.398 M92.6325 975.231 Q99.169 975.231 102.606 980.413 Q106.07 985.569 106.07 995.413 Q106.07 1005.23 102.606 1010.41 Q99.169 1015.57 92.6325 1015.57 Q86.0961 1015.57 82.6326 1010.41 Q79.1951 1005.23 79.1951 995.413 Q79.1951 985.569 82.6326 980.413 Q86.0961 975.231 92.6325 975.231 Z" fill="#bebebe" fill-rule="evenodd" fill-opacity="1" /><path clip-path="url(#clip170)" d="M 0 0 M54.4036 785.869 L62.9973 785.869 L62.9973 756.208 L53.6484 758.083 L53.6484 753.291 L62.9452 751.417 L68.2056 751.417 L68.2056 785.869 L76.7993 785.869 L76.7993 790.297 L54.4036 790.297 L54.4036 785.869 Z" fill="#bebebe" fill-rule="evenodd" fill-opacity="1" /><path clip-path="url(#clip170)" d="M 0 0 M82.5545 751.417 L103.205 751.417 L103.205 755.844 L87.3721 755.844 L87.3721 765.375 Q88.518 764.984 89.6638 764.802 Q90.8096 764.594 91.9554 764.594 Q98.4658 764.594 102.268 768.161 Q106.07 771.729 106.07 777.823 Q106.07 784.099 102.164 787.588 Q98.2575 791.052 91.1482 791.052 Q88.7003 791.052 86.1482 790.635 Q83.6222 790.218 80.9138 789.385 L80.9138 784.099 Q83.2576 785.375 85.7576 786 Q88.2576 786.625 91.044 786.625 Q95.5492 786.625 98.1794 784.255 Q100.81 781.885 100.81 777.823 Q100.81 773.76 98.1794 771.39 Q95.5492 769.021 91.044 769.021 Q88.9346 769.021 86.8253 769.489 Q84.7419 769.958 82.5545 770.948 L82.5545 751.417 Z" fill="#bebebe" fill-rule="evenodd" fill-opacity="1" /><path clip-path="url(#clip170)" d="M 0 0 M57.3202 561.352 L75.6795 561.352 L75.6795 565.779 L50.9921 565.779 L50.9921 561.352 Q53.9869 558.253 59.1431 553.045 Q64.3254 547.81 65.6535 546.3 Q68.1795 543.461 69.1691 541.508 Q70.1847 539.529 70.1847 537.628 Q70.1847 534.529 67.9972 532.576 Q65.8358 530.623 62.3462 530.623 Q59.8723 530.623 57.1119 531.482 Q54.3775 532.342 51.2525 534.086 L51.2525 528.774 Q54.4296 527.498 57.19 526.847 Q59.9504 526.196 62.2421 526.196 Q68.2837 526.196 71.8774 529.217 Q75.4712 532.238 75.4712 537.29 Q75.4712 539.685 74.5597 541.847 Q73.6743 543.982 71.3045 546.899 Q70.6535 547.654 67.1639 551.274 Q63.6743 554.868 57.3202 561.352 Z" fill="#bebebe" fill-rule="evenodd" fill-opacity="1" /><path clip-path="url(#clip170)" d="M 0 0 M92.6325 530.363 Q88.57 530.363 86.5128 534.373 Q84.4815 538.357 84.4815 546.378 Q84.4815 554.373 86.5128 558.383 Q88.57 562.368 92.6325 562.368 Q96.721 562.368 98.7523 558.383 Q100.81 554.373 100.81 546.378 Q100.81 538.357 98.7523 534.373 Q96.721 530.363 92.6325 530.363 M92.6325 526.196 Q99.169 526.196 102.606 531.378 Q106.07 536.534 106.07 546.378 Q106.07 556.196 102.606 561.378 Q99.169 566.534 92.6325 566.534 Q86.0961 566.534 82.6326 561.378 Q79.1951 556.196 79.1951 546.378 Q79.1951 536.534 82.6326 531.378 Q86.0961 526.196 92.6325 526.196 Z" fill="#bebebe" fill-rule="evenodd" fill-opacity="1" /><path clip-path="url(#clip170)" d="M 0 0 M58.44 336.834 L76.7993 336.834 L76.7993 341.262 L52.1119 341.262 L52.1119 336.834 Q55.1067 333.736 60.2629 328.527 Q65.4452 323.293 66.7733 321.782 Q69.2993 318.944 70.2889 316.991 Q71.3045 315.012 71.3045 313.111 Q71.3045 310.012 69.117 308.059 Q66.9556 306.105 63.466 306.105 Q60.9921 306.105 58.2317 306.965 Q55.4973 307.824 52.3723 309.569 L52.3723 304.257 Q55.5494 302.981 58.3098 302.329 Q61.0702 301.678 63.3619 301.678 Q69.4035 301.678 72.9972 304.699 Q76.5909 307.72 76.5909 312.772 Q76.5909 315.168 75.6795 317.329 Q74.7941 319.465 72.4243 322.381 Q71.7733 323.137 68.2837 326.756 Q64.7941 330.35 58.44 336.834 Z" fill="#bebebe" fill-rule="evenodd" fill-opacity="1" /><path clip-path="url(#clip170)" d="M 0 0 M82.5545 302.382 L103.205 302.382 L103.205 306.809 L87.3721 306.809 L87.3721 316.34 Q88.518 315.949 89.6638 315.767 Q90.8096 315.559 91.9554 315.559 Q98.4658 315.559 102.268 319.126 Q106.07 322.694 106.07 328.788 Q106.07 335.064 102.164 338.553 Q98.2575 342.017 91.1482 342.017 Q88.7003 342.017 86.1482 341.6 Q83.6222 341.183 80.9138 340.35 L80.9138 335.064 Q83.2576 336.34 85.7576 336.965 Q88.2576 337.59 91.044 337.59 Q95.5492 337.59 98.1794 335.22 Q100.81 332.85 100.81 328.788 Q100.81 324.725 98.1794 322.355 Q95.5492 319.986 91.044 319.986 Q88.9346 319.986 86.8253 320.454 Q84.7419 320.923 82.5545 321.913 L82.5545 302.382 Z" fill="#bebebe" fill-rule="evenodd" fill-opacity="1" /><path clip-path="url(#clip170)" d="M 0 0 M864.197 20.1156 L864.197 31.516 Q857.542 28.3332 851.64 26.7707 Q845.737 25.2082 840.239 25.2082 Q830.691 25.2082 825.482 28.9119 Q820.332 32.6156 820.332 39.4442 Q820.332 45.1734 823.746 48.1247 Q827.218 51.0182 836.825 52.8122 L843.885 54.259 Q856.964 56.7474 863.156 63.0552 Q869.406 69.3052 869.406 79.8375 Q869.406 92.3953 860.957 98.8768 Q852.566 105.358 836.304 105.358 Q830.17 105.358 823.225 103.969 Q816.339 102.58 808.931 99.8606 L808.931 87.8236 Q816.05 91.8166 822.878 93.8421 Q829.707 95.8675 836.304 95.8675 Q846.316 95.8675 851.755 91.9324 Q857.195 87.9972 857.195 80.7056 Q857.195 74.3399 853.26 70.7519 Q849.383 67.164 840.471 65.37 L833.353 63.9811 Q820.274 61.377 814.429 55.8215 Q808.584 50.2659 808.584 40.3702 Q808.584 28.9119 816.628 22.3147 Q824.73 15.7175 838.908 15.7175 Q844.985 15.7175 851.292 16.817 Q857.6 17.9166 864.197 20.1156 Z" fill="#bebebe" fill-rule="evenodd" fill-opacity="1" /><path clip-path="url(#clip170)" d="M 0 0 M936.014 68.6107 L936.014 73.819 L887.056 73.819 Q887.751 84.8144 893.653 90.6014 Q899.614 96.3305 910.204 96.3305 Q916.338 96.3305 922.067 94.8259 Q927.854 93.3213 933.526 90.312 L933.526 100.381 Q927.797 102.812 921.778 104.085 Q915.76 105.358 909.568 105.358 Q894.058 105.358 884.973 96.3305 Q875.945 87.3028 875.945 71.9093 Q875.945 55.9951 884.51 46.678 Q893.132 37.303 907.716 37.303 Q920.794 37.303 928.375 45.7521 Q936.014 54.1432 936.014 68.6107 M925.366 65.4858 Q925.25 56.7474 920.447 51.5391 Q915.702 46.3308 907.831 46.3308 Q898.919 46.3308 893.538 51.3655 Q888.213 56.4002 887.403 65.5436 L925.366 65.4858 Z" fill="#bebebe" fill-rule="evenodd" fill-opacity="1" /><path clip-path="url(#clip170)" d="M 0 0 M984.741 48.8192 Q982.947 47.7775 980.806 47.3146 Q978.722 46.7937 976.176 46.7937 Q967.148 46.7937 962.287 52.6965 Q957.484 58.5414 957.484 69.5367 L957.484 103.68 L946.778 103.68 L946.778 38.8655 L957.484 38.8655 L957.484 48.9349 Q960.84 43.0322 966.222 40.1965 Q971.604 37.303 979.301 37.303 Q980.4 37.303 981.731 37.4767 Q983.062 37.5924 984.683 37.8817 L984.741 48.8192 Z" fill="#bebebe" fill-rule="evenodd" fill-opacity="1" /><path clip-path="url(#clip170)" d="M 0 0 M995.91 38.8655 L1006.56 38.8655 L1006.56 103.68 L995.91 103.68 L995.91 38.8655 M995.91 13.6342 L1006.56 13.6342 L1006.56 27.1179 L995.91 27.1179 L995.91 13.6342 Z" fill="#bebebe" fill-rule="evenodd" fill-opacity="1" /><path clip-path="url(#clip170)" d="M 0 0 M1073.17 68.6107 L1073.17 73.819 L1024.21 73.819 Q1024.9 84.8144 1030.81 90.6014 Q1036.77 96.3305 1047.36 96.3305 Q1053.49 96.3305 1059.22 94.8259 Q1065.01 93.3213 1070.68 90.312 L1070.68 100.381 Q1064.95 102.812 1058.93 104.085 Q1052.91 105.358 1046.72 105.358 Q1031.21 105.358 1022.12 96.3305 Q1013.1 87.3028 1013.1 71.9093 Q1013.1 55.9951 1021.66 46.678 Q1030.28 37.303 1044.87 37.303 Q1057.95 37.303 1065.53 45.7521 Q1073.17 54.1432 1073.17 68.6107 M1062.52 65.4858 Q1062.4 56.7474 1057.6 51.5391 Q1052.85 46.3308 1044.98 46.3308 Q1036.07 46.3308 1030.69 51.3655 Q1025.37 56.4002 1024.56 65.5436 L1062.52 65.4858 Z" fill="#bebebe" fill-rule="evenodd" fill-opacity="1" /><path clip-path="url(#clip170)" d="M 0 0 M1132.08 17.28 L1132.08 49.3979 L1122.24 49.3979 L1122.24 17.28 L1132.08 17.28 Z" fill="#bebebe" fill-rule="evenodd" fill-opacity="1" /><path clip-path="url(#clip170)" d="M 0 0 M1197.12 64.5598 L1197.12 103.68 L1186.48 103.68 L1186.48 64.9071 Q1186.48 55.7057 1182.89 51.134 Q1179.3 46.5623 1172.12 46.5623 Q1163.5 46.5623 1158.52 52.0599 Q1153.55 57.5576 1153.55 67.0483 L1153.55 103.68 L1142.84 103.68 L1142.84 13.6342 L1153.55 13.6342 L1153.55 48.9349 Q1157.37 43.09 1162.52 40.1965 Q1167.73 37.303 1174.5 37.303 Q1185.67 37.303 1191.39 44.2474 Q1197.12 51.134 1197.12 64.5598 Z" fill="#bebebe" fill-rule="evenodd" fill-opacity="1" /><path clip-path="url(#clip170)" d="M 0 0 M1208.29 38.8655 L1218.94 38.8655 L1218.94 103.68 L1208.29 103.68 L1208.29 38.8655 M1208.29 13.6342 L1218.94 13.6342 L1218.94 27.1179 L1208.29 27.1179 L1208.29 13.6342 Z" fill="#bebebe" fill-rule="evenodd" fill-opacity="1" /><path clip-path="url(#clip170)" d="M 0 0 M1271.43 40.7752 L1271.43 50.8446 Q1266.92 48.5298 1262.05 47.3724 Q1257.19 46.215 1251.98 46.215 Q1244.06 46.215 1240.06 48.6456 Q1236.13 51.0761 1236.13 55.9372 Q1236.13 59.6409 1238.96 61.7821 Q1241.8 63.8654 1250.36 65.7751 L1254.01 66.5853 Q1265.35 69.0158 1270.1 73.4718 Q1274.9 77.87 1274.9 85.7982 Q1274.9 94.8259 1267.73 100.092 Q1260.61 105.358 1248.11 105.358 Q1242.9 105.358 1237.23 104.317 Q1231.61 103.333 1225.36 101.307 L1225.36 90.312 Q1231.27 93.3791 1237 94.9416 Q1242.73 96.4462 1248.34 96.4462 Q1255.86 96.4462 1259.91 93.9 Q1263.96 91.2958 1263.96 86.6083 Q1263.96 82.2681 1261.01 79.9533 Q1258.12 77.6385 1248.22 75.4973 L1244.52 74.6292 Q1234.62 72.5459 1230.23 68.2635 Q1225.83 63.9233 1225.83 56.4002 Q1225.83 47.2567 1232.31 42.2799 Q1238.79 37.303 1250.71 37.303 Q1256.61 37.303 1261.82 38.1711 Q1267.03 39.0391 1271.43 40.7752 Z" fill="#bebebe" fill-rule="evenodd" fill-opacity="1" /><path clip-path="url(#clip170)" d="M 0 0 M1296.6 20.4629 L1296.6 38.8655 L1318.54 38.8655 L1318.54 47.141 L1296.6 47.141 L1296.6 82.3259 Q1296.6 90.2541 1298.74 92.5111 Q1300.94 94.768 1307.6 94.768 L1318.54 94.768 L1318.54 103.68 L1307.6 103.68 Q1295.27 103.68 1290.58 99.1083 Q1285.9 94.4787 1285.9 82.3259 L1285.9 47.141 L1278.08 47.141 L1278.08 38.8655 L1285.9 38.8655 L1285.9 20.4629 L1296.6 20.4629 Z" fill="#bebebe" fill-rule="evenodd" fill-opacity="1" /><path clip-path="url(#clip170)" d="M 0 0 M1354.82 46.3308 Q1346.25 46.3308 1341.28 53.0437 Q1336.3 59.6988 1336.3 71.3306 Q1336.3 82.9625 1341.22 89.6754 Q1346.2 96.3305 1354.82 96.3305 Q1363.33 96.3305 1368.3 89.6176 Q1373.28 82.9046 1373.28 71.3306 Q1373.28 59.8145 1368.3 53.1016 Q1363.33 46.3308 1354.82 46.3308 M1354.82 37.303 Q1368.71 37.303 1376.64 46.3308 Q1384.56 55.3585 1384.56 71.3306 Q1384.56 87.2449 1376.64 96.3305 Q1368.71 105.358 1354.82 105.358 Q1340.87 105.358 1332.94 96.3305 Q1325.07 87.2449 1325.07 71.3306 Q1325.07 55.3585 1332.94 46.3308 Q1340.87 37.303 1354.82 37.303 Z" fill="#bebebe" fill-rule="evenodd" fill-opacity="1" /><path clip-path="url(#clip170)" d="M 0 0 M1438.38 70.5205 Q1438.38 58.9464 1433.58 52.5807 Q1428.84 46.215 1420.21 46.215 Q1411.65 46.215 1406.84 52.5807 Q1402.1 58.9464 1402.1 70.5205 Q1402.1 82.0366 1406.84 88.4023 Q1411.65 94.768 1420.21 94.768 Q1428.84 94.768 1433.58 88.4023 Q1438.38 82.0366 1438.38 70.5205 M1449.03 95.6361 Q1449.03 112.187 1441.68 120.231 Q1434.33 128.333 1419.17 128.333 Q1413.56 128.333 1408.58 127.465 Q1403.6 126.654 1398.92 124.918 L1398.92 114.56 Q1403.6 117.106 1408.18 118.321 Q1412.75 119.536 1417.49 119.536 Q1427.97 119.536 1433.18 114.039 Q1438.38 108.599 1438.38 97.5458 L1438.38 92.2796 Q1435.09 98.0087 1429.94 100.844 Q1424.78 103.68 1417.61 103.68 Q1405.69 103.68 1398.4 94.5944 Q1391.1 85.5088 1391.1 70.5205 Q1391.1 55.4742 1398.4 46.3886 Q1405.69 37.303 1417.61 37.303 Q1424.78 37.303 1429.94 40.1387 Q1435.09 42.9743 1438.38 48.7034 L1438.38 38.8655 L1449.03 38.8655 L1449.03 95.6361 Z" fill="#bebebe" fill-rule="evenodd" fill-opacity="1" /><path clip-path="url(#clip170)" d="M 0 0 M1497.76 48.8192 Q1495.96 47.7775 1493.82 47.3146 Q1491.74 46.7937 1489.19 46.7937 Q1480.17 46.7937 1475.31 52.6965 Q1470.5 58.5414 1470.5 69.5367 L1470.5 103.68 L1459.8 103.68 L1459.8 38.8655 L1470.5 38.8655 L1470.5 48.9349 Q1473.86 43.0322 1479.24 40.1965 Q1484.62 37.303 1492.32 37.303 Q1493.42 37.303 1494.75 37.4767 Q1496.08 37.5924 1497.7 37.8817 L1497.76 48.8192 Z" fill="#bebebe" fill-rule="evenodd" fill-opacity="1" /><path clip-path="url(#clip170)" d="M 0 0 M1538.38 71.0992 Q1525.48 71.0992 1520.5 74.0505 Q1515.52 77.0019 1515.52 84.1199 Q1515.52 89.7912 1519.23 93.1476 Q1522.99 96.4462 1529.41 96.4462 Q1538.27 96.4462 1543.59 90.1963 Q1548.97 83.8884 1548.97 73.4718 L1548.97 71.0992 L1538.38 71.0992 M1559.62 66.701 L1559.62 103.68 L1548.97 103.68 L1548.97 93.8421 Q1545.33 99.7448 1539.89 102.58 Q1534.45 105.358 1526.58 105.358 Q1516.62 105.358 1510.72 99.8027 Q1504.88 94.1893 1504.88 84.8144 Q1504.88 73.8769 1512.17 68.3214 Q1519.52 62.7659 1534.04 62.7659 L1548.97 62.7659 L1548.97 61.7242 Q1548.97 54.3747 1544.11 50.3817 Q1539.31 46.3308 1530.57 46.3308 Q1525.02 46.3308 1519.75 47.6618 Q1514.48 48.9928 1509.62 51.6548 L1509.62 41.8169 Q1515.47 39.56 1520.96 38.4604 Q1526.46 37.303 1531.67 37.303 Q1545.73 37.303 1552.68 44.5947 Q1559.62 51.8863 1559.62 66.701 Z" fill="#bebebe" fill-rule="evenodd" fill-opacity="1" /><path clip-path="url(#clip170)" d="M 0 0 M1621.25 51.3076 Q1625.25 44.1317 1630.8 40.7174 Q1636.36 37.303 1643.88 37.303 Q1654.01 37.303 1659.51 44.4211 Q1665 51.4812 1665 64.5598 L1665 103.68 L1654.3 103.68 L1654.3 64.9071 Q1654.3 55.59 1651 51.0761 Q1647.7 46.5623 1640.93 46.5623 Q1632.65 46.5623 1627.85 52.0599 Q1623.05 57.5576 1623.05 67.0483 L1623.05 103.68 L1612.34 103.68 L1612.34 64.9071 Q1612.34 55.5321 1609.04 51.0761 Q1605.74 46.5623 1598.86 46.5623 Q1590.7 46.5623 1585.89 52.1178 Q1581.09 57.6154 1581.09 67.0483 L1581.09 103.68 L1570.39 103.68 L1570.39 38.8655 L1581.09 38.8655 L1581.09 48.9349 Q1584.74 42.9743 1589.83 40.1387 Q1594.92 37.303 1601.92 37.303 Q1608.99 37.303 1613.9 40.891 Q1618.88 44.4789 1621.25 51.3076 Z" fill="#bebebe" fill-rule="evenodd" fill-opacity="1" /><path clip-path="url(#clip170)" d="M 0 0 M1686.24 17.28 L1686.24 49.3979 L1676.4 49.3979 L1676.4 17.28 L1686.24 17.28 Z" fill="#bebebe" fill-rule="evenodd" fill-opacity="1" /><path clip-path="url(#clip172)" d="
M263.662 546.339 L263.662 1444.41 L919.496 1444.41 L919.496 546.339 L263.662 546.339 L263.662 546.339  Z
  " fill="#e69f00" fill-rule="evenodd" fill-opacity="1"/>
<polyline clip-path="url(#clip172)" style="stroke:#000000; stroke-width:4; stroke-opacity:1; fill:none" points="
  263.662,546.339 263.662,1444.41 919.496,1444.41 919.496,546.339 263.662,546.339 
  "/>
<path clip-path="url(#clip172)" d="
M919.496 187.111 L919.496 1444.41 L1575.33 1444.41 L1575.33 187.111 L919.496 187.111 L919.496 187.111  Z
  " fill="#e69f00" fill-rule="evenodd" fill-opacity="1"/>
<polyline clip-path="url(#clip172)" style="stroke:#000000; stroke-width:4; stroke-opacity:1; fill:none" points="
  919.496,187.111 919.496,1444.41 1575.33,1444.41 1575.33,187.111 919.496,187.111 
  "/>
<path clip-path="url(#clip172)" d="
M1575.33 1354.6 L1575.33 1444.41 L2231.16 1444.41 L2231.16 1354.6 L1575.33 1354.6 L1575.33 1354.6  Z
  " fill="#e69f00" fill-rule="evenodd" fill-opacity="1"/>
<polyline clip-path="url(#clip172)" style="stroke:#000000; stroke-width:4; stroke-opacity:1; fill:none" points="
  1575.33,1354.6 1575.33,1444.41 2231.16,1444.41 2231.16,1354.6 1575.33,1354.6 
  "/>
<path clip-path="url(#clip170)" d="
M1982.42 314.777 L2279.07 314.777 L2279.07 193.817 L1982.42 193.817  Z
  " fill="#ffffff" fill-rule="evenodd" fill-opacity="1"/>
<polyline clip-path="url(#clip170)" style="stroke:#000000; stroke-width:4; stroke-opacity:1; fill:none" points="
  1982.42,314.777 2279.07,314.777 2279.07,193.817 1982.42,193.817 1982.42,314.777 
  "/>
<path clip-path="url(#clip170)" d="
M2006.98 278.489 L2154.36 278.489 L2154.36 230.105 L2006.98 230.105 L2006.98 278.489  Z
  " fill="#e69f00" fill-rule="evenodd" fill-opacity="1"/>
<polyline clip-path="url(#clip170)" style="stroke:#000000; stroke-width:4; stroke-opacity:1; fill:none" points="
  2006.98,278.489 2154.36,278.489 2154.36,230.105 2006.98,230.105 2006.98,278.489 
  "/>
<path clip-path="url(#clip170)" d="M 0 0 M2192.76 273.984 Q2190.96 278.614 2189.25 280.026 Q2187.53 281.438 2184.66 281.438 L2181.26 281.438 L2181.26 277.873 L2183.76 277.873 Q2185.52 277.873 2186.49 277.04 Q2187.46 276.206 2188.64 273.104 L2189.41 271.16 L2178.92 245.651 L2183.44 245.651 L2191.54 265.929 L2199.64 245.651 L2204.15 245.651 L2192.76 273.984 Z" fill="#bebebe" fill-rule="evenodd" fill-opacity="1" /><path clip-path="url(#clip170)" d="M 0 0 M2210.03 267.641 L2217.67 267.641 L2217.67 241.276 L2209.36 242.943 L2209.36 238.683 L2217.63 237.017 L2222.3 237.017 L2222.3 267.641 L2229.94 267.641 L2229.94 271.577 L2210.03 271.577 L2210.03 267.641 Z" fill="#bebebe" fill-rule="evenodd" fill-opacity="1" /></svg>
