<?xml version="1.0" encoding="utf-8"?>
<svg xmlns="http://www.w3.org/2000/svg" xmlns:xlink="http://www.w3.org/1999/xlink" width="600" height="400" viewBox="0 0 2400 1600">
<defs>
  <clipPath id="clip130">
    <rect x="0" y="0" width="2400" height="1600"/>
  </clipPath>
</defs>
<path clip-path="url(#clip130)" d="
M0 1600 L2400 1600 L2400 0 L0 0  Z
  " fill="#ffffff" fill-rule="evenodd" fill-opacity="1"/>
<defs>
  <clipPath id="clip131">
    <rect x="480" y="0" width="1681" height="1600"/>
  </clipPath>
</defs>
<path clip-path="url(#clip130)" d="
M185.846 1482.13 L2352.76 1482.13 L2352.76 149.392 L185.846 149.392  Z
  " fill="#ffffff" fill-rule="evenodd" fill-opacity="1"/>
<defs>
  <clipPath id="clip132">
    <rect x="185" y="149" width="2168" height="1334"/>
  </clipPath>
</defs>
<polyline clip-path="url(#clip132)" style="stroke:#000000; stroke-width:2; stroke-opacity:0.1; fill:none" points="
  677.543,1482.13 677.543,149.392 
  "/>
<polyline clip-path="url(#clip132)" style="stroke:#000000; stroke-width:2; stroke-opacity:0.1; fill:none" points="
  1215.5,1482.13 1215.5,149.392 
  "/>
<polyline clip-path="url(#clip132)" style="stroke:#000000; stroke-width:2; stroke-opacity:0.1; fill:none" points="
  1753.47,1482.13 1753.47,149.392 
  "/>
<polyline clip-path="url(#clip132)" style="stroke:#000000; stroke-width:2; stroke-opacity:0.1; fill:none" points="
  2291.43,1482.13 2291.43,149.392 
  "/>
<polyline clip-path="url(#clip130)" style="stroke:#000000; stroke-width:4; stroke-opacity:1; fill:none" points="
  185.846,1482.13 2352.76,1482.13 
  "/>
<polyline clip-path="url(#clip130)" style="stroke:#000000; stroke-width:4; stroke-opacity:1; fill:none" points="
  677.543,1482.13 677.543,1466.14 
  "/>
<polyline clip-path="url(#clip130)" style="stroke:#000000; stroke-width:4; stroke-opacity:1; fill:none" points="
  1215.5,1482.13 1215.5,1466.14 
  "/>
<polyline clip-path="url(#clip130)" style="stroke:#000000; stroke-width:4; stroke-opacity:1; fill:none" points="
  1753.47,1482.13 1753.47,1466.14 
  "/>
<polyline clip-path="url(#clip130)" style="stroke:#000000; stroke-width:4; stroke-opacity:1; fill:none" points="
  2291.43,1482.13 2291.43,1466.14 
  "/>
<path clip-path="url(#clip130)" d="M 0 0 M666.605 1509.1 L687.256 1509.1 L687.256 1513.53 L671.423 1513.53 L671.423 1523.06 Q672.569 1522.67 673.715 1522.49 Q674.861 1522.28 676.006 1522.28 Q682.517 1522.28 686.319 1525.85 Q690.121 1529.42 690.121 1535.51 Q690.121 1541.79 686.215 1545.28 Q682.308 1548.74 675.199 1548.74 Q672.751 1548.74 670.199 1548.32 Q667.673 1547.91 664.965 1547.07 L664.965 1541.79 Q667.309 1543.06 669.809 1543.69 Q672.309 1544.31 675.095 1544.31 Q679.6 1544.31 682.23 1541.94 Q684.861 1539.57 684.861 1535.51 Q684.861 1531.45 682.23 1529.08 Q679.6 1526.71 675.095 1526.71 Q672.986 1526.71 670.876 1527.18 Q668.793 1527.65 666.605 1528.64 L666.605 1509.1 Z" fill="#bebebe" fill-rule="evenodd" fill-opacity="1" /><path clip-path="url(#clip130)" d="M 0 0 M1189.49 1543.56 L1198.08 1543.56 L1198.08 1513.9 L1188.73 1515.77 L1188.73 1510.98 L1198.03 1509.1 L1203.29 1509.1 L1203.29 1543.56 L1211.88 1543.56 L1211.88 1547.98 L1189.49 1547.98 L1189.49 1543.56 Z" fill="#bebebe" fill-rule="evenodd" fill-opacity="1" /><path clip-path="url(#clip130)" d="M 0 0 M1228.84 1512.57 Q1224.78 1512.57 1222.72 1516.58 Q1220.69 1520.56 1220.69 1528.58 Q1220.69 1536.58 1222.72 1540.59 Q1224.78 1544.57 1228.84 1544.57 Q1232.93 1544.57 1234.96 1540.59 Q1237.01 1536.58 1237.01 1528.58 Q1237.01 1520.56 1234.96 1516.58 Q1232.93 1512.57 1228.84 1512.57 M1228.84 1508.4 Q1235.37 1508.4 1238.81 1513.58 Q1242.28 1518.74 1242.28 1528.58 Q1242.28 1538.4 1238.81 1543.58 Q1235.37 1548.74 1228.84 1548.74 Q1222.3 1548.74 1218.84 1543.58 Q1215.4 1538.4 1215.4 1528.58 Q1215.4 1518.74 1218.84 1513.58 Q1222.3 1508.4 1228.84 1508.4 Z" fill="#bebebe" fill-rule="evenodd" fill-opacity="1" /><path clip-path="url(#clip130)" d="M 0 0 M1728.01 1543.56 L1736.6 1543.56 L1736.6 1513.9 L1727.26 1515.77 L1727.26 1510.98 L1736.55 1509.1 L1741.81 1509.1 L1741.81 1543.56 L1750.41 1543.56 L1750.41 1547.98 L1728.01 1547.98 L1728.01 1543.56 Z" fill="#bebebe" fill-rule="evenodd" fill-opacity="1" /><path clip-path="url(#clip130)" d="M 0 0 M1756.16 1509.1 L1776.81 1509.1 L1776.81 1513.53 L1760.98 1513.53 L1760.98 1523.06 Q1762.13 1522.67 1763.27 1522.49 Q1764.42 1522.28 1765.56 1522.28 Q1772.07 1522.28 1775.88 1525.85 Q1779.68 1529.42 1779.68 1535.51 Q1779.68 1541.79 1775.77 1545.28 Q1771.86 1548.74 1764.76 1548.74 Q1762.31 1548.74 1759.76 1548.32 Q1757.23 1547.91 1754.52 1547.07 L1754.52 1541.79 Q1756.86 1543.06 1759.36 1543.69 Q1761.86 1544.31 1764.65 1544.31 Q1769.16 1544.31 1771.79 1541.94 Q1774.42 1539.57 1774.42 1535.51 Q1774.42 1531.45 1771.79 1529.08 Q1769.16 1526.71 1764.65 1526.71 Q1762.54 1526.71 1760.43 1527.18 Q1758.35 1527.65 1756.16 1528.64 L1756.16 1509.1 Z" fill="#bebebe" fill-rule="evenodd" fill-opacity="1" /><path clip-path="url(#clip130)" d="M 0 0 M2270.22 1543.56 L2288.58 1543.56 L2288.58 1547.98 L2263.89 1547.98 L2263.89 1543.56 Q2266.88 1540.46 2272.04 1535.25 Q2277.22 1530.02 2278.55 1528.5 Q2281.08 1525.67 2282.07 1523.71 Q2283.08 1521.73 2283.08 1519.83 Q2283.08 1516.73 2280.89 1514.78 Q2278.73 1512.83 2275.24 1512.83 Q2272.77 1512.83 2270.01 1513.69 Q2267.27 1514.55 2264.15 1516.29 L2264.15 1510.98 Q2267.33 1509.7 2270.09 1509.05 Q2272.85 1508.4 2275.14 1508.4 Q2281.18 1508.4 2284.77 1511.42 Q2288.37 1514.44 2288.37 1519.49 Q2288.37 1521.89 2287.46 1524.05 Q2286.57 1526.19 2284.2 1529.1 Q2283.55 1529.86 2280.06 1533.48 Q2276.57 1537.07 2270.22 1543.56 Z" fill="#bebebe" fill-rule="evenodd" fill-opacity="1" /><path clip-path="url(#clip130)" d="M 0 0 M2305.53 1512.57 Q2301.47 1512.57 2299.41 1516.58 Q2297.38 1520.56 2297.38 1528.58 Q2297.38 1536.58 2299.41 1540.59 Q2301.47 1544.57 2305.53 1544.57 Q2309.62 1544.57 2311.65 1540.59 Q2313.71 1536.58 2313.71 1528.58 Q2313.71 1520.56 2311.65 1516.58 Q2309.62 1512.57 2305.53 1512.57 M2305.53 1508.4 Q2312.07 1508.4 2315.5 1513.58 Q2318.97 1518.74 2318.97 1528.58 Q2318.97 1538.4 2315.5 1543.58 Q2312.07 1548.74 2305.53 1548.74 Q2298.99 1548.74 2295.53 1543.58 Q2292.09 1538.4 2292.09 1528.58 Q2292.09 1518.74 2295.53 1513.58 Q2298.99 1508.4 2305.53 1508.4 Z" fill="#bebebe" fill-rule="evenodd" fill-opacity="1" /><polyline clip-path="url(#clip132)" style="stroke:#000000; stroke-width:2; stroke-opacity:0.1; fill:none" points="
  185.846,1460.06 2352.76,1460.06 
  "/>
<polyline clip-path="url(#clip132)" style="stroke:#000000; stroke-width:2; stroke-opacity:0.1; fill:none" points="
  185.846,1140.62 2352.76,1140.62 
  "/>
<polyline clip-path="url(#clip132)" style="stroke:#000000; stroke-width:2; stroke-opacity:0.1; fill:none" points="
  185.846,821.175 2352.76,821.175 
  "/>
<polyline clip-path="url(#clip132)" style="stroke:#000000; stroke-width:2; stroke-opacity:0.1; fill:none" points="
  185.846,501.732 2352.76,501.732 
  "/>
<polyline clip-path="url(#clip132)" style="stroke:#000000; stroke-width:2; stroke-opacity:0.1; fill:none" points="
  185.846,182.29 2352.76,182.29 
  "/>
<polyline clip-path="url(#clip130)" style="stroke:#000000; stroke-width:4; stroke-opacity:1; fill:none" points="
  185.846,1482.13 185.846,149.392 
  "/>
<polyline clip-path="url(#clip130)" style="stroke:#000000; stroke-width:4; stroke-opacity:1; fill:none" points="
  185.846,1460.06 211.849,1460.06 
  "/>
<polyline clip-path="url(#clip130)" style="stroke:#000000; stroke-width:4; stroke-opacity:1; fill:none" points="
  185.846,1140.62 211.849,1140.62 
  "/>
<polyline clip-path="url(#clip130)" style="stroke:#000000; stroke-width:4; stroke-opacity:1; fill:none" points="
  185.846,821.175 211.849,821.175 
  "/>
<polyline clip-path="url(#clip130)" style="stroke:#000000; stroke-width:4; stroke-opacity:1; fill:none" points="
  185.846,501.732 211.849,501.732 
  "/>
<polyline clip-path="url(#clip130)" style="stroke:#000000; stroke-width:4; stroke-opacity:1; fill:none" points="
  185.846,182.29 211.849,182.29 
  "/>
<path clip-path="url(#clip130)" d="M 0 0 M64.4296 1444.08 Q60.3671 1444.08 58.3098 1448.09 Q56.2786 1452.08 56.2786 1460.1 Q56.2786 1468.09 58.3098 1472.1 Q60.3671 1476.09 64.4296 1476.09 Q68.5181 1476.09 70.5493 1472.1 Q72.6066 1468.09 72.6066 1460.1 Q72.6066 1452.08 70.5493 1448.09 Q68.5181 1444.08 64.4296 1444.08 M64.4296 1439.92 Q70.966 1439.92 74.4035 1445.1 Q77.867 1450.25 77.867 1460.1 Q77.867 1469.92 74.4035 1475.1 Q70.966 1480.25 64.4296 1480.25 Q57.8931 1480.25 54.4296 1475.1 Q50.9921 1469.92 50.9921 1460.1 Q50.9921 1450.25 54.4296 1445.1 Q57.8931 1439.92 64.4296 1439.92 Z" fill="#bebebe" fill-rule="evenodd" fill-opacity="1" /><path clip-path="url(#clip130)" d="M 0 0 M83.5701 1472.88 L89.0648 1472.88 L89.0648 1479.5 L83.5701 1479.5 L83.5701 1472.88 Z" fill="#bebebe" fill-rule="evenodd" fill-opacity="1" /><path clip-path="url(#clip130)" d="M 0 0 M106.018 1444.08 Q101.955 1444.08 99.8981 1448.09 Q97.8669 1452.08 97.8669 1460.1 Q97.8669 1468.09 99.8981 1472.1 Q101.955 1476.09 106.018 1476.09 Q110.106 1476.09 112.138 1472.1 Q114.195 1468.09 114.195 1460.1 Q114.195 1452.08 112.138 1448.09 Q110.106 1444.08 106.018 1444.08 M106.018 1439.92 Q112.554 1439.92 115.992 1445.1 Q119.455 1450.25 119.455 1460.1 Q119.455 1469.92 115.992 1475.1 Q112.554 1480.25 106.018 1480.25 Q99.4814 1480.25 96.0179 1475.1 Q92.5804 1469.92 92.5804 1460.1 Q92.5804 1450.25 96.0179 1445.1 Q99.4814 1439.92 106.018 1439.92 Z" fill="#bebebe" fill-rule="evenodd" fill-opacity="1" /><path clip-path="url(#clip130)" d="M 0 0 M136.408 1444.08 Q132.346 1444.08 130.289 1448.09 Q128.257 1452.08 128.257 1460.1 Q128.257 1468.09 130.289 1472.1 Q132.346 1476.09 136.408 1476.09 Q140.497 1476.09 142.528 1472.1 Q144.585 1468.09 144.585 1460.1 Q144.585 1452.08 142.528 1448.09 Q140.497 1444.08 136.408 1444.08 M136.408 1439.92 Q142.945 1439.92 146.382 1445.1 Q149.846 1450.25 149.846 1460.1 Q149.846 1469.92 146.382 1475.1 Q142.945 1480.25 136.408 1480.25 Q129.872 1480.25 126.408 1475.1 Q122.971 1469.92 122.971 1460.1 Q122.971 1450.25 126.408 1445.1 Q129.872 1439.92 136.408 1439.92 Z" fill="#bebebe" fill-rule="evenodd" fill-opacity="1" /><path clip-path="url(#clip130)" d="M 0 0 M67.3462 1124.64 Q63.2837 1124.64 61.2264 1128.65 Q59.1952 1132.64 59.1952 1140.66 Q59.1952 1148.65 61.2264 1152.66 Q63.2837 1156.65 67.3462 1156.65 Q71.4347 1156.65 73.466 1152.66 Q75.5232 1148.65 75.5232 1140.66 Q75.5232 1132.64 73.466 1128.65 Q71.4347 1124.64 67.3462 1124.64 M67.3462 1120.47 Q73.8826 1120.47 77.3201 1125.66 Q80.7836 1130.81 80.7836 1140.66 Q80.7836 1150.47 77.3201 1155.66 Q73.8826 1160.81 67.3462 1160.81 Q60.8098 1160.81 57.3463 1155.66 Q53.9088 1150.47 53.9088 1140.66 Q53.9088 1130.81 57.3463 1125.66 Q60.8098 1120.47 67.3462 1120.47 Z" fill="#bebebe" fill-rule="evenodd" fill-opacity="1" /><path clip-path="url(#clip130)" d="M 0 0 M86.4867 1153.44 L91.9815 1153.44 L91.9815 1160.06 L86.4867 1160.06 L86.4867 1153.44 Z" fill="#bebebe" fill-rule="evenodd" fill-opacity="1" /><path clip-path="url(#clip130)" d="M 0 0 M102.216 1155.63 L120.575 1155.63 L120.575 1160.06 L95.8877 1160.06 L95.8877 1155.63 Q98.8825 1152.53 104.039 1147.32 Q109.221 1142.09 110.549 1140.58 Q113.075 1137.74 114.065 1135.79 Q115.08 1133.81 115.08 1131.91 Q115.08 1128.81 112.893 1126.85 Q110.731 1124.9 107.242 1124.9 Q104.768 1124.9 102.007 1125.76 Q99.2731 1126.62 96.1481 1128.36 L96.1481 1123.05 Q99.3252 1121.78 102.086 1121.12 Q104.846 1120.47 107.138 1120.47 Q113.179 1120.47 116.773 1123.49 Q120.367 1126.52 120.367 1131.57 Q120.367 1133.96 119.455 1136.12 Q118.57 1138.26 116.2 1141.18 Q115.549 1141.93 112.06 1145.55 Q108.57 1149.15 102.216 1155.63 Z" fill="#bebebe" fill-rule="evenodd" fill-opacity="1" /><path clip-path="url(#clip130)" d="M 0 0 M126.33 1121.18 L146.981 1121.18 L146.981 1125.6 L131.148 1125.6 L131.148 1135.14 Q132.294 1134.74 133.44 1134.56 Q134.585 1134.35 135.731 1134.35 Q142.242 1134.35 146.044 1137.92 Q149.846 1141.49 149.846 1147.58 Q149.846 1153.86 145.94 1157.35 Q142.033 1160.81 134.924 1160.81 Q132.476 1160.81 129.924 1160.4 Q127.398 1159.98 124.69 1159.15 L124.69 1153.86 Q127.033 1155.14 129.533 1155.76 Q132.033 1156.39 134.82 1156.39 Q139.325 1156.39 141.955 1154.02 Q144.585 1151.65 144.585 1147.58 Q144.585 1143.52 141.955 1141.15 Q139.325 1138.78 134.82 1138.78 Q132.71 1138.78 130.601 1139.25 Q128.518 1139.72 126.33 1140.71 L126.33 1121.18 Z" fill="#bebebe" fill-rule="evenodd" fill-opacity="1" /><path clip-path="url(#clip130)" d="M 0 0 M65.5493 805.198 Q61.4869 805.198 59.4296 809.208 Q57.3983 813.193 57.3983 821.214 Q57.3983 829.208 59.4296 833.219 Q61.4869 837.203 65.5493 837.203 Q69.6379 837.203 71.6691 833.219 Q73.7264 829.208 73.7264 821.214 Q73.7264 813.193 71.6691 809.208 Q69.6379 805.198 65.5493 805.198 M65.5493 801.031 Q72.0858 801.031 75.5232 806.214 Q78.9868 811.37 78.9868 821.214 Q78.9868 831.031 75.5232 836.213 Q72.0858 841.37 65.5493 841.37 Q59.0129 841.37 55.5494 836.213 Q52.1119 831.031 52.1119 821.214 Q52.1119 811.37 55.5494 806.214 Q59.0129 801.031 65.5493 801.031 Z" fill="#bebebe" fill-rule="evenodd" fill-opacity="1" /><path clip-path="url(#clip130)" d="M 0 0 M84.6899 834 L90.1846 834 L90.1846 840.615 L84.6899 840.615 L84.6899 834 Z" fill="#bebebe" fill-rule="evenodd" fill-opacity="1" /><path clip-path="url(#clip130)" d="M 0 0 M95.9398 801.735 L116.591 801.735 L116.591 806.162 L100.757 806.162 L100.757 815.693 Q101.903 815.302 103.049 815.12 Q104.195 814.912 105.341 814.912 Q111.851 814.912 115.653 818.479 Q119.455 822.047 119.455 828.141 Q119.455 834.417 115.549 837.906 Q111.643 841.37 104.534 841.37 Q102.086 841.37 99.5335 840.953 Q97.0075 840.536 94.2992 839.703 L94.2992 834.417 Q96.6429 835.693 99.1429 836.318 Q101.643 836.943 104.429 836.943 Q108.935 836.943 111.565 834.573 Q114.195 832.203 114.195 828.141 Q114.195 824.078 111.565 821.708 Q108.935 819.339 104.429 819.339 Q102.32 819.339 100.211 819.807 Q98.1273 820.276 95.9398 821.266 L95.9398 801.735 Z" fill="#bebebe" fill-rule="evenodd" fill-opacity="1" /><path clip-path="url(#clip130)" d="M 0 0 M136.408 805.198 Q132.346 805.198 130.289 809.208 Q128.257 813.193 128.257 821.214 Q128.257 829.208 130.289 833.219 Q132.346 837.203 136.408 837.203 Q140.497 837.203 142.528 833.219 Q144.585 829.208 144.585 821.214 Q144.585 813.193 142.528 809.208 Q140.497 805.198 136.408 805.198 M136.408 801.031 Q142.945 801.031 146.382 806.214 Q149.846 811.37 149.846 821.214 Q149.846 831.031 146.382 836.213 Q142.945 841.37 136.408 841.37 Q129.872 841.37 126.408 836.213 Q122.971 831.031 122.971 821.214 Q122.971 811.37 126.408 806.214 Q129.872 801.031 136.408 801.031 Z" fill="#bebebe" fill-rule="evenodd" fill-opacity="1" /><path clip-path="url(#clip130)" d="M 0 0 M66.565 485.756 Q62.5025 485.756 60.4452 489.766 Q58.414 493.75 58.414 501.771 Q58.414 509.766 60.4452 513.776 Q62.5025 517.761 66.565 517.761 Q70.6535 517.761 72.6847 513.776 Q74.742 509.766 74.742 501.771 Q74.742 493.75 72.6847 489.766 Q70.6535 485.756 66.565 485.756 M66.565 481.589 Q73.1014 481.589 76.5389 486.771 Q80.0024 491.928 80.0024 501.771 Q80.0024 511.589 76.5389 516.771 Q73.1014 521.927 66.565 521.927 Q60.0285 521.927 56.565 516.771 Q53.1275 511.589 53.1275 501.771 Q53.1275 491.928 56.565 486.771 Q60.0285 481.589 66.565 481.589 Z" fill="#bebebe" fill-rule="evenodd" fill-opacity="1" /><path clip-path="url(#clip130)" d="M 0 0 M85.7055 514.558 L91.2002 514.558 L91.2002 521.172 L85.7055 521.172 L85.7055 514.558 Z" fill="#bebebe" fill-rule="evenodd" fill-opacity="1" /><path clip-path="url(#clip130)" d="M 0 0 M95.5752 482.292 L120.575 482.292 L120.575 484.532 L106.461 521.172 L100.966 521.172 L114.247 486.719 L95.5752 486.719 L95.5752 482.292 Z" fill="#bebebe" fill-rule="evenodd" fill-opacity="1" /><path clip-path="url(#clip130)" d="M 0 0 M126.33 482.292 L146.981 482.292 L146.981 486.719 L131.148 486.719 L131.148 496.25 Q132.294 495.86 133.44 495.677 Q134.585 495.469 135.731 495.469 Q142.242 495.469 146.044 499.037 Q149.846 502.605 149.846 508.698 Q149.846 514.974 145.94 518.464 Q142.033 521.927 134.924 521.927 Q132.476 521.927 129.924 521.511 Q127.398 521.094 124.69 520.261 L124.69 514.974 Q127.033 516.25 129.533 516.875 Q132.033 517.5 134.82 517.5 Q139.325 517.5 141.955 515.131 Q144.585 512.761 144.585 508.698 Q144.585 504.636 141.955 502.266 Q139.325 499.896 134.82 499.896 Q132.71 499.896 130.601 500.365 Q128.518 500.834 126.33 501.823 L126.33 482.292 Z" fill="#bebebe" fill-rule="evenodd" fill-opacity="1" /><path clip-path="url(#clip130)" d="M 0 0 M55.4713 197.303 L64.065 197.303 L64.065 167.641 L54.7161 169.516 L54.7161 164.725 L64.0129 162.85 L69.2733 162.85 L69.2733 197.303 L77.867 197.303 L77.867 201.73 L55.4713 201.73 L55.4713 197.303 Z" fill="#bebebe" fill-rule="evenodd" fill-opacity="1" /><path clip-path="url(#clip130)" d="M 0 0 M83.5701 195.115 L89.0648 195.115 L89.0648 201.73 L83.5701 201.73 L83.5701 195.115 Z" fill="#bebebe" fill-rule="evenodd" fill-opacity="1" /><path clip-path="url(#clip130)" d="M 0 0 M106.018 166.313 Q101.955 166.313 99.8981 170.324 Q97.8669 174.308 97.8669 182.329 Q97.8669 190.324 99.8981 194.334 Q101.955 198.318 106.018 198.318 Q110.106 198.318 112.138 194.334 Q114.195 190.324 114.195 182.329 Q114.195 174.308 112.138 170.324 Q110.106 166.313 106.018 166.313 M106.018 162.147 Q112.554 162.147 115.992 167.329 Q119.455 172.485 119.455 182.329 Q119.455 192.146 115.992 197.329 Q112.554 202.485 106.018 202.485 Q99.4814 202.485 96.0179 197.329 Q92.5804 192.146 92.5804 182.329 Q92.5804 172.485 96.0179 167.329 Q99.4814 162.147 106.018 162.147 Z" fill="#bebebe" fill-rule="evenodd" fill-opacity="1" /><path clip-path="url(#clip130)" d="M 0 0 M136.408 166.313 Q132.346 166.313 130.289 170.324 Q128.257 174.308 128.257 182.329 Q128.257 190.324 130.289 194.334 Q132.346 198.318 136.408 198.318 Q140.497 198.318 142.528 194.334 Q144.585 190.324 144.585 182.329 Q144.585 174.308 142.528 170.324 Q140.497 166.313 136.408 166.313 M136.408 162.147 Q142.945 162.147 146.382 167.329 Q149.846 172.485 149.846 182.329 Q149.846 192.146 146.382 197.329 Q142.945 202.485 136.408 202.485 Q129.872 202.485 126.408 197.329 Q122.971 192.146 122.971 182.329 Q122.971 172.485 126.408 167.329 Q129.872 162.147 136.408 162.147 Z" fill="#bebebe" fill-rule="evenodd" fill-opacity="1" /><path clip-path="url(#clip130)" d="M 0 0 M963.429 20.1156 L963.429 31.516 Q956.774 28.3332 950.871 26.7707 Q944.968 25.2082 939.47 25.2082 Q929.922 25.2082 924.714 28.9119 Q919.563 32.6156 919.563 39.4442 Q919.563 45.1734 922.977 48.1247 Q926.45 51.0182 936.056 52.8122 L943.116 54.259 Q956.195 56.7474 962.387 63.0552 Q968.637 69.3052 968.637 79.8375 Q968.637 92.3953 960.188 98.8768 Q951.797 105.358 935.535 105.358 Q929.401 105.358 922.457 103.969 Q915.57 102.58 908.163 99.8606 L908.163 87.8236 Q915.281 91.8166 922.109 93.8421 Q928.938 95.8675 935.535 95.8675 Q945.547 95.8675 950.987 91.9324 Q956.426 87.9972 956.426 80.7056 Q956.426 74.3399 952.491 70.7519 Q948.614 67.164 939.702 65.37 L932.584 63.9811 Q919.505 61.377 913.66 55.8215 Q907.816 50.2659 907.816 40.3702 Q907.816 28.9119 915.859 22.3147 Q923.961 15.7175 938.139 15.7175 Q944.216 15.7175 950.524 16.817 Q956.831 17.9166 963.429 20.1156 Z" fill="#bebebe" fill-rule="evenodd" fill-opacity="1" /><path clip-path="url(#clip130)" d="M 0 0 M1035.25 68.6107 L1035.25 73.819 L986.287 73.819 Q986.982 84.8144 992.884 90.6014 Q998.845 96.3305 1009.44 96.3305 Q1015.57 96.3305 1021.3 94.8259 Q1027.09 93.3213 1032.76 90.312 L1032.76 100.381 Q1027.03 102.812 1021.01 104.085 Q1014.99 105.358 1008.8 105.358 Q993.29 105.358 984.204 96.3305 Q975.176 87.3028 975.176 71.9093 Q975.176 55.9951 983.741 46.678 Q992.364 37.303 1006.95 37.303 Q1020.03 37.303 1027.61 45.7521 Q1035.25 54.1432 1035.25 68.6107 M1024.6 65.4858 Q1024.48 56.7474 1019.68 51.5391 Q1014.93 46.3308 1007.06 46.3308 Q998.151 46.3308 992.769 51.3655 Q987.445 56.4002 986.635 65.5436 L1024.6 65.4858 Z" fill="#bebebe" fill-rule="evenodd" fill-opacity="1" /><path clip-path="url(#clip130)" d="M 0 0 M1083.97 48.8192 Q1082.18 47.7775 1080.04 47.3146 Q1077.95 46.7937 1075.41 46.7937 Q1066.38 46.7937 1061.52 52.6965 Q1056.72 58.5414 1056.72 69.5367 L1056.72 103.68 L1046.01 103.68 L1046.01 38.8655 L1056.72 38.8655 L1056.72 48.9349 Q1060.07 43.0322 1065.45 40.1965 Q1070.84 37.303 1078.53 37.303 Q1079.63 37.303 1080.96 37.4767 Q1082.29 37.5924 1083.91 37.8817 L1083.97 48.8192 Z" fill="#bebebe" fill-rule="evenodd" fill-opacity="1" /><path clip-path="url(#clip130)" d="M 0 0 M1095.14 38.8655 L1105.79 38.8655 L1105.79 103.68 L1095.14 103.68 L1095.14 38.8655 M1095.14 13.6342 L1105.79 13.6342 L1105.79 27.1179 L1095.14 27.1179 L1095.14 13.6342 Z" fill="#bebebe" fill-rule="evenodd" fill-opacity="1" /><path clip-path="url(#clip130)" d="M 0 0 M1172.4 68.6107 L1172.4 73.819 L1123.44 73.819 Q1124.13 84.8144 1130.04 90.6014 Q1136 96.3305 1146.59 96.3305 Q1152.72 96.3305 1158.45 94.8259 Q1164.24 93.3213 1169.91 90.312 L1169.91 100.381 Q1164.18 102.812 1158.16 104.085 Q1152.14 105.358 1145.95 105.358 Q1130.44 105.358 1121.36 96.3305 Q1112.33 87.3028 1112.33 71.9093 Q1112.33 55.9951 1120.89 46.678 Q1129.52 37.303 1144.1 37.303 Q1157.18 37.303 1164.76 45.7521 Q1172.4 54.1432 1172.4 68.6107 M1161.75 65.4858 Q1161.63 56.7474 1156.83 51.5391 Q1152.09 46.3308 1144.21 46.3308 Q1135.3 46.3308 1129.92 51.3655 Q1124.6 56.4002 1123.79 65.5436 L1161.75 65.4858 Z" fill="#bebebe" fill-rule="evenodd" fill-opacity="1" /><path clip-path="url(#clip130)" d="M 0 0 M1231.31 17.28 L1231.31 49.3979 L1221.47 49.3979 L1221.47 17.28 L1231.31 17.28 Z" fill="#bebebe" fill-rule="evenodd" fill-opacity="1" /><path clip-path="url(#clip130)" d="M 0 0 M1283.8 40.7752 L1283.8 50.8446 Q1279.28 48.5298 1274.42 47.3724 Q1269.56 46.215 1264.35 46.215 Q1256.42 46.215 1252.43 48.6456 Q1248.5 51.0761 1248.5 55.9372 Q1248.5 59.6409 1251.33 61.7821 Q1254.17 63.8654 1262.73 65.7751 L1266.38 66.5853 Q1277.72 69.0158 1282.47 73.4718 Q1287.27 77.87 1287.27 85.7982 Q1287.27 94.8259 1280.09 100.092 Q1272.98 105.358 1260.48 105.358 Q1255.27 105.358 1249.6 104.317 Q1243.98 103.333 1237.73 101.307 L1237.73 90.312 Q1243.64 93.3791 1249.36 94.9416 Q1255.09 96.4462 1260.71 96.4462 Q1268.23 96.4462 1272.28 93.9 Q1276.33 91.2958 1276.33 86.6083 Q1276.33 82.2681 1273.38 79.9533 Q1270.49 77.6385 1260.59 75.4973 L1256.89 74.6292 Q1246.99 72.5459 1242.59 68.2635 Q1238.2 63.9233 1238.2 56.4002 Q1238.2 47.2567 1244.68 42.2799 Q1251.16 37.303 1263.08 37.303 Q1268.98 37.303 1274.19 38.1711 Q1279.4 39.0391 1283.8 40.7752 Z" fill="#bebebe" fill-rule="evenodd" fill-opacity="1" /><path clip-path="url(#clip130)" d="M 0 0 M1345.08 41.3539 L1345.08 51.3076 Q1340.57 48.8192 1336 47.6039 Q1331.48 46.3308 1326.85 46.3308 Q1316.49 46.3308 1310.76 52.928 Q1305.04 59.4673 1305.04 71.3306 Q1305.04 83.194 1310.76 89.7912 Q1316.49 96.3305 1326.85 96.3305 Q1331.48 96.3305 1336 95.1152 Q1340.57 93.8421 1345.08 91.3537 L1345.08 101.192 Q1340.63 103.275 1335.82 104.317 Q1331.08 105.358 1325.7 105.358 Q1311.05 105.358 1302.43 96.1569 Q1293.81 86.9556 1293.81 71.3306 Q1293.81 55.4742 1302.49 46.3886 Q1311.23 37.303 1326.39 37.303 Q1331.31 37.303 1336 38.3447 Q1340.68 39.3285 1345.08 41.3539 Z" fill="#bebebe" fill-rule="evenodd" fill-opacity="1" /><path clip-path="url(#clip130)" d="M 0 0 M1385.71 71.0992 Q1372.8 71.0992 1367.82 74.0505 Q1362.85 77.0019 1362.85 84.1199 Q1362.85 89.7912 1366.55 93.1476 Q1370.31 96.4462 1376.74 96.4462 Q1385.59 96.4462 1390.91 90.1963 Q1396.3 83.8884 1396.3 73.4718 L1396.3 71.0992 L1385.71 71.0992 M1406.94 66.701 L1406.94 103.68 L1396.3 103.68 L1396.3 93.8421 Q1392.65 99.7448 1387.21 102.58 Q1381.77 105.358 1373.9 105.358 Q1363.95 105.358 1358.04 99.8027 Q1352.2 94.1893 1352.2 84.8144 Q1352.2 73.8769 1359.49 68.3214 Q1366.84 62.7659 1381.37 62.7659 L1396.3 62.7659 L1396.3 61.7242 Q1396.3 54.3747 1391.44 50.3817 Q1386.63 46.3308 1377.89 46.3308 Q1372.34 46.3308 1367.07 47.6618 Q1361.81 48.9928 1356.95 51.6548 L1356.95 41.8169 Q1362.79 39.56 1368.29 38.4604 Q1373.79 37.303 1378.99 37.303 Q1393.06 37.303 1400 44.5947 Q1406.94 51.8863 1406.94 66.701 Z" fill="#bebebe" fill-rule="evenodd" fill-opacity="1" /><path clip-path="url(#clip130)" d="M 0 0 M1428.65 20.4629 L1428.65 38.8655 L1450.58 38.8655 L1450.58 47.141 L1428.65 47.141 L1428.65 82.3259 Q1428.65 90.2541 1430.79 92.5111 Q1432.99 94.768 1439.64 94.768 L1450.58 94.768 L1450.58 103.68 L1439.64 103.68 Q1427.32 103.68 1422.63 99.1083 Q1417.94 94.4787 1417.94 82.3259 L1417.94 47.141 L1410.13 47.141 L1410.13 38.8655 L1417.94 38.8655 L1417.94 20.4629 L1428.65 20.4629 Z" fill="#bebebe" fill-rule="evenodd" fill-opacity="1" /><path clip-path="url(#clip130)" d="M 0 0 M1472.28 20.4629 L1472.28 38.8655 L1494.21 38.8655 L1494.21 47.141 L1472.28 47.141 L1472.28 82.3259 Q1472.28 90.2541 1474.42 92.5111 Q1476.62 94.768 1483.28 94.768 L1494.21 94.768 L1494.21 103.68 L1483.28 103.68 Q1470.95 103.68 1466.26 99.1083 Q1461.57 94.4787 1461.57 82.3259 L1461.57 47.141 L1453.76 47.141 L1453.76 38.8655 L1461.57 38.8655 L1461.57 20.4629 L1472.28 20.4629 Z" fill="#bebebe" fill-rule="evenodd" fill-opacity="1" /><path clip-path="url(#clip130)" d="M 0 0 M1560.82 68.6107 L1560.82 73.819 L1511.86 73.819 Q1512.56 84.8144 1518.46 90.6014 Q1524.42 96.3305 1535.01 96.3305 Q1541.15 96.3305 1546.87 94.8259 Q1552.66 93.3213 1558.33 90.312 L1558.33 100.381 Q1552.6 102.812 1546.59 104.085 Q1540.57 105.358 1534.37 105.358 Q1518.87 105.358 1509.78 96.3305 Q1500.75 87.3028 1500.75 71.9093 Q1500.75 55.9951 1509.32 46.678 Q1517.94 37.303 1532.52 37.303 Q1545.6 37.303 1553.18 45.7521 Q1560.82 54.1432 1560.82 68.6107 M1550.17 65.4858 Q1550.06 56.7474 1545.25 51.5391 Q1540.51 46.3308 1532.64 46.3308 Q1523.73 46.3308 1518.34 51.3655 Q1513.02 56.4002 1512.21 65.5436 L1550.17 65.4858 Z" fill="#bebebe" fill-rule="evenodd" fill-opacity="1" /><path clip-path="url(#clip130)" d="M 0 0 M1609.55 48.8192 Q1607.75 47.7775 1605.61 47.3146 Q1603.53 46.7937 1600.98 46.7937 Q1591.96 46.7937 1587.09 52.6965 Q1582.29 58.5414 1582.29 69.5367 L1582.29 103.68 L1571.59 103.68 L1571.59 38.8655 L1582.29 38.8655 L1582.29 48.9349 Q1585.65 43.0322 1591.03 40.1965 Q1596.41 37.303 1604.11 37.303 Q1605.21 37.303 1606.54 37.4767 Q1607.87 37.5924 1609.49 37.8817 L1609.55 48.8192 Z" fill="#bebebe" fill-rule="evenodd" fill-opacity="1" /><path clip-path="url(#clip130)" d="M 0 0 M1630.79 17.28 L1630.79 49.3979 L1620.95 49.3979 L1620.95 17.28 L1630.79 17.28 Z" fill="#bebebe" fill-rule="evenodd" fill-opacity="1" /><path clip-path="url(#clip132)" d="M247.173 627.656 L244.353 635.768 L235.761 635.948 L242.613 641.144 L240.117 649.364 L247.173 644.456 L254.229 649.364 L251.733 641.144 L258.585 635.948 L249.993 635.768 L247.173 627.656 Z" fill="#ffa500" fill-rule="evenodd" fill-opacity="0.5" stroke="#ff0000" stroke-opacity="0.5" stroke-width="3.2"/>
<path clip-path="url(#clip132)" d="M354.766 694.76 L351.946 702.872 L343.354 703.052 L350.206 708.248 L347.71 716.468 L354.766 711.56 L361.822 716.468 L359.326 708.248 L366.178 703.052 L357.586 702.872 L354.766 694.76 Z" fill="#ffa500" fill-rule="evenodd" fill-opacity="0.5" stroke="#ff0000" stroke-opacity="0.5" stroke-width="3.2"/>
<path clip-path="url(#clip132)" d="M462.358 901.182 L459.538 909.294 L450.946 909.474 L457.798 914.67 L455.302 922.89 L462.358 917.982 L469.414 922.89 L466.918 914.67 L473.77 909.474 L465.178 909.294 L462.358 901.182 Z" fill="#ffa500" fill-rule="evenodd" fill-opacity="0.5" stroke="#ff0000" stroke-opacity="0.5" stroke-width="3.2"/>
<path clip-path="url(#clip132)" d="M569.95 999.467 L567.13 1007.58 L558.538 1007.76 L565.39 1012.96 L562.894 1021.18 L569.95 1016.27 L577.006 1021.18 L574.51 1012.96 L581.362 1007.76 L572.77 1007.58 L569.95 999.467 Z" fill="#ffa500" fill-rule="evenodd" fill-opacity="0.5" stroke="#ff0000" stroke-opacity="0.5" stroke-width="3.2"/>
<path clip-path="url(#clip132)" d="M677.543 1265.61 L674.723 1273.72 L666.131 1273.9 L672.983 1279.1 L670.487 1287.32 L677.543 1282.41 L684.599 1287.32 L682.103 1279.1 L688.955 1273.9 L680.363 1273.72 L677.543 1265.61 Z" fill="#ffa500" fill-rule="evenodd" fill-opacity="0.5" stroke="#ff0000" stroke-opacity="0.5" stroke-width="3.2"/>
<path clip-path="url(#clip132)" d="M785.135 452.414 L782.315 460.526 L773.723 460.706 L780.575 465.902 L778.079 474.122 L785.135 469.214 L792.191 474.122 L789.695 465.902 L796.547 460.706 L787.955 460.526 L785.135 452.414 Z" fill="#ffa500" fill-rule="evenodd" fill-opacity="0.5" stroke="#ff0000" stroke-opacity="0.5" stroke-width="3.2"/>
<path clip-path="url(#clip132)" d="M892.728 1137.06 L889.908 1145.17 L881.316 1145.35 L888.168 1150.55 L885.672 1158.77 L892.728 1153.86 L899.784 1158.77 L897.288 1150.55 L904.14 1145.35 L895.548 1145.17 L892.728 1137.06 Z" fill="#ffa500" fill-rule="evenodd" fill-opacity="0.5" stroke="#ff0000" stroke-opacity="0.5" stroke-width="3.2"/>
<path clip-path="url(#clip132)" d="M1000.32 1327.37 L997.5 1335.48 L988.908 1335.66 L995.76 1340.86 L993.264 1349.08 L1000.32 1344.17 L1007.38 1349.08 L1004.88 1340.86 L1011.73 1335.66 L1003.14 1335.48 L1000.32 1327.37 Z" fill="#ffa500" fill-rule="evenodd" fill-opacity="0.5" stroke="#ff0000" stroke-opacity="0.5" stroke-width="3.2"/>
<path clip-path="url(#clip132)" d="M1107.91 1144.45 L1105.09 1152.56 L1096.5 1152.74 L1103.35 1157.94 L1100.86 1166.16 L1107.91 1161.25 L1114.97 1166.16 L1112.47 1157.94 L1119.32 1152.74 L1110.73 1152.56 L1107.91 1144.45 Z" fill="#ffa500" fill-rule="evenodd" fill-opacity="0.5" stroke="#ff0000" stroke-opacity="0.5" stroke-width="3.2"/>
<path clip-path="url(#clip132)" d="M1215.5 1089.25 L1212.68 1097.36 L1204.09 1097.54 L1210.94 1102.73 L1208.45 1110.95 L1215.5 1106.05 L1222.56 1110.95 L1220.06 1102.73 L1226.92 1097.54 L1218.32 1097.36 L1215.5 1089.25 Z" fill="#ffa500" fill-rule="evenodd" fill-opacity="0.5" stroke="#ff0000" stroke-opacity="0.5" stroke-width="3.2"/>
<path clip-path="url(#clip132)" d="M1323.1 1432.41 L1320.28 1440.52 L1311.69 1440.7 L1318.54 1445.9 L1316.04 1454.12 L1323.1 1449.21 L1330.15 1454.12 L1327.66 1445.9 L1334.51 1440.7 L1325.92 1440.52 L1323.1 1432.41 Z" fill="#ffa500" fill-rule="evenodd" fill-opacity="0.5" stroke="#ff0000" stroke-opacity="0.5" stroke-width="3.2"/>
<path clip-path="url(#clip132)" d="M1430.69 272.666 L1427.87 280.778 L1419.28 280.958 L1426.13 286.154 L1423.63 294.374 L1430.69 289.466 L1437.75 294.374 L1435.25 286.154 L1442.1 280.958 L1433.51 280.778 L1430.69 272.666 Z" fill="#ffa500" fill-rule="evenodd" fill-opacity="0.5" stroke="#ff0000" stroke-opacity="0.5" stroke-width="3.2"/>
<path clip-path="url(#clip132)" d="M1538.28 575.329 L1535.46 583.441 L1526.87 583.621 L1533.72 588.817 L1531.23 597.037 L1538.28 592.129 L1545.34 597.037 L1542.84 588.817 L1549.69 583.621 L1541.1 583.441 L1538.28 575.329 Z" fill="#ffa500" fill-rule="evenodd" fill-opacity="0.5" stroke="#ff0000" stroke-opacity="0.5" stroke-width="3.2"/>
<path clip-path="url(#clip132)" d="M1645.87 232.36 L1643.05 240.472 L1634.46 240.652 L1641.31 245.848 L1638.82 254.068 L1645.87 249.16 L1652.93 254.068 L1650.43 245.848 L1657.29 240.652 L1648.69 240.472 L1645.87 232.36 Z" fill="#ffa500" fill-rule="evenodd" fill-opacity="0.5" stroke="#ff0000" stroke-opacity="0.5" stroke-width="3.2"/>
<path clip-path="url(#clip132)" d="M1753.47 1298.53 L1750.65 1306.64 L1742.05 1306.82 L1748.91 1312.01 L1746.41 1320.23 L1753.47 1315.33 L1760.52 1320.23 L1758.03 1312.01 L1764.88 1306.82 L1756.29 1306.64 L1753.47 1298.53 Z" fill="#ffa500" fill-rule="evenodd" fill-opacity="0.5" stroke="#ff0000" stroke-opacity="0.5" stroke-width="3.2"/>
<path clip-path="url(#clip132)" d="M1861.06 877.84 L1858.24 885.952 L1849.65 886.132 L1856.5 891.328 L1854 899.548 L1861.06 894.64 L1868.11 899.548 L1865.62 891.328 L1872.47 886.132 L1863.88 885.952 L1861.06 877.84 Z" fill="#ffa500" fill-rule="evenodd" fill-opacity="0.5" stroke="#ff0000" stroke-opacity="0.5" stroke-width="3.2"/>
<path clip-path="url(#clip132)" d="M1968.65 1360.56 L1965.83 1368.68 L1957.24 1368.86 L1964.09 1374.05 L1961.6 1382.27 L1968.65 1377.36 L1975.71 1382.27 L1973.21 1374.05 L1980.06 1368.86 L1971.47 1368.68 L1968.65 1360.56 Z" fill="#ffa500" fill-rule="evenodd" fill-opacity="0.5" stroke="#ff0000" stroke-opacity="0.5" stroke-width="3.2"/>
<path clip-path="url(#clip132)" d="M2076.24 506.292 L2073.42 514.404 L2064.83 514.584 L2071.68 519.78 L2069.19 528 L2076.24 523.092 L2083.3 528 L2080.8 519.78 L2087.66 514.584 L2079.06 514.404 L2076.24 506.292 Z" fill="#ffa500" fill-rule="evenodd" fill-opacity="0.5" stroke="#ff0000" stroke-opacity="0.5" stroke-width="3.2"/>
<path clip-path="url(#clip132)" d="M2183.84 1358.76 L2181.02 1366.87 L2172.42 1367.05 L2179.28 1372.25 L2176.78 1380.47 L2183.84 1375.56 L2190.89 1380.47 L2188.4 1372.25 L2195.25 1367.05 L2186.66 1366.87 L2183.84 1358.76 Z" fill="#ffa500" fill-rule="evenodd" fill-opacity="0.5" stroke="#ff0000" stroke-opacity="0.5" stroke-width="3.2"/>
<path clip-path="url(#clip132)" d="M2291.43 175.111 L2288.61 183.223 L2280.02 183.403 L2286.87 188.599 L2284.37 196.819 L2291.43 191.911 L2298.48 196.819 L2295.99 188.599 L2302.84 183.403 L2294.25 183.223 L2291.43 175.111 Z" fill="#ffa500" fill-rule="evenodd" fill-opacity="0.5" stroke="#ff0000" stroke-opacity="0.5" stroke-width="3.2"/>
<path clip-path="url(#clip132)" d="M247.173 356.945 L219.173 384.945 L247.173 412.945 L275.173 384.945 L247.173 356.945 Z" fill="#008000" fill-rule="evenodd" fill-opacity="1" stroke="#ff0000" stroke-opacity="1" stroke-width="3.2"/>
<path clip-path="url(#clip132)" d="M354.766 1168.1 L326.766 1196.1 L354.766 1224.1 L382.766 1196.1 L354.766 1168.1 Z" fill="#008000" fill-rule="evenodd" fill-opacity="1" stroke="#ff0000" stroke-opacity="1" stroke-width="3.2"/>
<path clip-path="url(#clip132)" d="M462.358 521.253 L434.358 549.253 L462.358 577.253 L490.358 549.253 L462.358 521.253 Z" fill="#008000" fill-rule="evenodd" fill-opacity="1" stroke="#ff0000" stroke-opacity="1" stroke-width="3.2"/>
<path clip-path="url(#clip132)" d="M569.95 927.974 L541.95 955.974 L569.95 983.974 L597.95 955.974 L569.95 927.974 Z" fill="#008000" fill-rule="evenodd" fill-opacity="1" stroke="#ff0000" stroke-opacity="1" stroke-width="3.2"/>
<path clip-path="url(#clip132)" d="M677.543 1002.2 L649.543 1030.2 L677.543 1058.2 L705.543 1030.2 L677.543 1002.2 Z" fill="#008000" fill-rule="evenodd" fill-opacity="1" stroke="#ff0000" stroke-opacity="1" stroke-width="3.2"/>
<path clip-path="url(#clip132)" d="M785.135 278.646 L757.135 306.646 L785.135 334.646 L813.135 306.646 L785.135 278.646 Z" fill="#008000" fill-rule="evenodd" fill-opacity="1" stroke="#ff0000" stroke-opacity="1" stroke-width="3.2"/>
<path clip-path="url(#clip132)" d="M892.728 684.26 L864.728 712.26 L892.728 740.26 L920.728 712.26 L892.728 684.26 Z" fill="#008000" fill-rule="evenodd" fill-opacity="1" stroke="#ff0000" stroke-opacity="1" stroke-width="3.2"/>
<path clip-path="url(#clip132)" d="M1000.32 406.113 L972.32 434.113 L1000.32 462.113 L1028.32 434.113 L1000.32 406.113 Z" fill="#008000" fill-rule="evenodd" fill-opacity="1" stroke="#ff0000" stroke-opacity="1" stroke-width="3.2"/>
<path clip-path="url(#clip132)" d="M1107.91 250.543 L1079.91 278.543 L1107.91 306.543 L1135.91 278.543 L1107.91 250.543 Z" fill="#008000" fill-rule="evenodd" fill-opacity="1" stroke="#ff0000" stroke-opacity="1" stroke-width="3.2"/>
<path clip-path="url(#clip132)" d="M1215.5 349.886 L1187.5 377.886 L1215.5 405.886 L1243.5 377.886 L1215.5 349.886 Z" fill="#008000" fill-rule="evenodd" fill-opacity="1" stroke="#ff0000" stroke-opacity="1" stroke-width="3.2"/>
<path clip-path="url(#clip132)" d="M1323.1 340.135 L1295.1 368.135 L1323.1 396.135 L1351.1 368.135 L1323.1 340.135 Z" fill="#008000" fill-rule="evenodd" fill-opacity="1" stroke="#ff0000" stroke-opacity="1" stroke-width="3.2"/>
<path clip-path="url(#clip132)" d="M1430.69 1240.86 L1402.69 1268.86 L1430.69 1296.86 L1458.69 1268.86 L1430.69 1240.86 Z" fill="#008000" fill-rule="evenodd" fill-opacity="1" stroke="#ff0000" stroke-opacity="1" stroke-width="3.2"/>
<path clip-path="url(#clip132)" d="M1538.28 235.813 L1510.28 263.813 L1538.28 291.813 L1566.28 263.813 L1538.28 235.813 Z" fill="#008000" fill-rule="evenodd" fill-opacity="1" stroke="#ff0000" stroke-opacity="1" stroke-width="3.2"/>
<path clip-path="url(#clip132)" d="M1645.87 202.662 L1617.87 230.662 L1645.87 258.662 L1673.87 230.662 L1645.87 202.662 Z" fill="#008000" fill-rule="evenodd" fill-opacity="1" stroke="#ff0000" stroke-opacity="1" stroke-width="3.2"/>
<path clip-path="url(#clip132)" d="M1753.47 174.511 L1725.47 202.511 L1753.47 230.511 L1781.47 202.511 L1753.47 174.511 Z" fill="#008000" fill-rule="evenodd" fill-opacity="1" stroke="#ff0000" stroke-opacity="1" stroke-width="3.2"/>
<path clip-path="url(#clip132)" d="M1861.06 1061.03 L1833.06 1089.03 L1861.06 1117.03 L1889.06 1089.03 L1861.06 1061.03 Z" fill="#008000" fill-rule="evenodd" fill-opacity="1" stroke="#ff0000" stroke-opacity="1" stroke-width="3.2"/>
<path clip-path="url(#clip132)" d="M1968.65 674.832 L1940.65 702.832 L1968.65 730.832 L1996.65 702.832 L1968.65 674.832 Z" fill="#008000" fill-rule="evenodd" fill-opacity="1" stroke="#ff0000" stroke-opacity="1" stroke-width="3.2"/>
<path clip-path="url(#clip132)" d="M2076.24 488.747 L2048.24 516.747 L2076.24 544.747 L2104.24 516.747 L2076.24 488.747 Z" fill="#008000" fill-rule="evenodd" fill-opacity="1" stroke="#ff0000" stroke-opacity="1" stroke-width="3.2"/>
<path clip-path="url(#clip132)" d="M2183.84 447.375 L2155.84 475.375 L2183.84 503.375 L2211.84 475.375 L2183.84 447.375 Z" fill="#008000" fill-rule="evenodd" fill-opacity="1" stroke="#ff0000" stroke-opacity="1" stroke-width="3.2"/>
<path clip-path="url(#clip132)" d="M2291.43 454.525 L2263.43 482.525 L2291.43 510.525 L2319.43 482.525 L2291.43 454.525 Z" fill="#008000" fill-rule="evenodd" fill-opacity="1" stroke="#ff0000" stroke-opacity="1" stroke-width="3.2"/>
<path clip-path="url(#clip132)" d="M208.773 865.934 L266.373 899.534 L266.373 832.334 L208.773 865.934 Z" fill="#00008b" fill-rule="evenodd" fill-opacity="0.2" stroke="#ff0000" stroke-opacity="0.2" stroke-width="3.2"/>
<path clip-path="url(#clip132)" d="M316.366 684.201 L373.966 717.801 L373.966 650.601 L316.366 684.201 Z" fill="#00008b" fill-rule="evenodd" fill-opacity="0.2" stroke="#ff0000" stroke-opacity="0.2" stroke-width="3.2"/>
<path clip-path="url(#clip132)" d="M423.958 679.815 L481.558 713.415 L481.558 646.215 L423.958 679.815 Z" fill="#00008b" fill-rule="evenodd" fill-opacity="0.2" stroke="#ff0000" stroke-opacity="0.2" stroke-width="3.2"/>
<path clip-path="url(#clip132)" d="M531.55 446.65 L589.15 480.25 L589.15 413.05 L531.55 446.65 Z" fill="#00008b" fill-rule="evenodd" fill-opacity="0.2" stroke="#ff0000" stroke-opacity="0.2" stroke-width="3.2"/>
<path clip-path="url(#clip132)" d="M639.143 225.865 L696.743 259.465 L696.743 192.265 L639.143 225.865 Z" fill="#00008b" fill-rule="evenodd" fill-opacity="0.2" stroke="#ff0000" stroke-opacity="0.2" stroke-width="3.2"/>
<path clip-path="url(#clip132)" d="M746.735 191.955 L804.335 225.555 L804.335 158.355 L746.735 191.955 Z" fill="#00008b" fill-rule="evenodd" fill-opacity="0.2" stroke="#ff0000" stroke-opacity="0.2" stroke-width="3.2"/>
<path clip-path="url(#clip132)" d="M854.328 1196.29 L911.928 1229.89 L911.928 1162.69 L854.328 1196.29 Z" fill="#00008b" fill-rule="evenodd" fill-opacity="0.2" stroke="#ff0000" stroke-opacity="0.2" stroke-width="3.2"/>
<path clip-path="url(#clip132)" d="M961.92 1152.03 L1019.52 1185.63 L1019.52 1118.43 L961.92 1152.03 Z" fill="#00008b" fill-rule="evenodd" fill-opacity="0.2" stroke="#ff0000" stroke-opacity="0.2" stroke-width="3.2"/>
<path clip-path="url(#clip132)" d="M1069.51 614.171 L1127.11 647.771 L1127.11 580.571 L1069.51 614.171 Z" fill="#00008b" fill-rule="evenodd" fill-opacity="0.2" stroke="#ff0000" stroke-opacity="0.2" stroke-width="3.2"/>
<path clip-path="url(#clip132)" d="M1177.1 947.098 L1234.7 980.698 L1234.7 913.498 L1177.1 947.098 Z" fill="#00008b" fill-rule="evenodd" fill-opacity="0.2" stroke="#ff0000" stroke-opacity="0.2" stroke-width="3.2"/>
<path clip-path="url(#clip132)" d="M1284.7 443.842 L1342.3 477.442 L1342.3 410.242 L1284.7 443.842 Z" fill="#00008b" fill-rule="evenodd" fill-opacity="0.2" stroke="#ff0000" stroke-opacity="0.2" stroke-width="3.2"/>
<path clip-path="url(#clip132)" d="M1392.29 897.899 L1449.89 931.499 L1449.89 864.299 L1392.29 897.899 Z" fill="#00008b" fill-rule="evenodd" fill-opacity="0.2" stroke="#ff0000" stroke-opacity="0.2" stroke-width="3.2"/>
<path clip-path="url(#clip132)" d="M1499.88 1035.32 L1557.48 1068.92 L1557.48 1001.72 L1499.88 1035.32 Z" fill="#00008b" fill-rule="evenodd" fill-opacity="0.2" stroke="#ff0000" stroke-opacity="0.2" stroke-width="3.2"/>
<path clip-path="url(#clip132)" d="M1607.47 787.845 L1665.07 821.445 L1665.07 754.245 L1607.47 787.845 Z" fill="#00008b" fill-rule="evenodd" fill-opacity="0.2" stroke="#ff0000" stroke-opacity="0.2" stroke-width="3.2"/>
<path clip-path="url(#clip132)" d="M1715.07 1075.94 L1772.67 1109.54 L1772.67 1042.34 L1715.07 1075.94 Z" fill="#00008b" fill-rule="evenodd" fill-opacity="0.2" stroke="#ff0000" stroke-opacity="0.2" stroke-width="3.2"/>
<path clip-path="url(#clip132)" d="M1822.66 915.96 L1880.26 949.56 L1880.26 882.36 L1822.66 915.96 Z" fill="#00008b" fill-rule="evenodd" fill-opacity="0.2" stroke="#ff0000" stroke-opacity="0.2" stroke-width="3.2"/>
<path clip-path="url(#clip132)" d="M1930.25 1227.31 L1987.85 1260.91 L1987.85 1193.71 L1930.25 1227.31 Z" fill="#00008b" fill-rule="evenodd" fill-opacity="0.2" stroke="#ff0000" stroke-opacity="0.2" stroke-width="3.2"/>
<path clip-path="url(#clip132)" d="M2037.84 1266.64 L2095.44 1300.24 L2095.44 1233.04 L2037.84 1266.64 Z" fill="#00008b" fill-rule="evenodd" fill-opacity="0.2" stroke="#ff0000" stroke-opacity="0.2" stroke-width="3.2"/>
<path clip-path="url(#clip132)" d="M2145.44 940.355 L2203.04 973.955 L2203.04 906.755 L2145.44 940.355 Z" fill="#00008b" fill-rule="evenodd" fill-opacity="0.2" stroke="#ff0000" stroke-opacity="0.2" stroke-width="3.2"/>
<path clip-path="url(#clip132)" d="M2253.03 371.744 L2310.63 405.344 L2310.63 338.144 L2253.03 371.744 Z" fill="#00008b" fill-rule="evenodd" fill-opacity="0.2" stroke="#ff0000" stroke-opacity="0.2" stroke-width="3.2"/>
<path clip-path="url(#clip130)" d="
M1988.16 435.737 L2280.53 435.737 L2280.53 193.817 L1988.16 193.817  Z
  " fill="#ffffff" fill-rule="evenodd" fill-opacity="1"/>
<polyline clip-path="url(#clip130)" style="stroke:#000000; stroke-width:4; stroke-opacity:1; fill:none" points="
  1988.16,435.737 2280.53,435.737 2280.53,193.817 1988.16,193.817 1988.16,435.737 
  "/>
<path clip-path="url(#clip130)" d="M2084.47 228.697 L2078.45 246.002 L2060.12 246.386 L2074.74 257.471 L2069.42 275.007 L2084.47 264.537 L2099.52 275.007 L2094.2 257.471 L2108.81 246.386 L2090.48 246.002 L2084.47 228.697 Z" fill="#ffa500" fill-rule="evenodd" fill-opacity="0.5" stroke="#ff0000" stroke-opacity="0.5" stroke-width="6.82667"/>
<path clip-path="url(#clip130)" d="M 0 0 M2194.62 273.984 Q2192.81 278.614 2191.1 280.026 Q2189.39 281.438 2186.52 281.438 L2183.11 281.438 L2183.11 277.873 L2185.61 277.873 Q2187.37 277.873 2188.34 277.04 Q2189.32 276.206 2190.5 273.104 L2191.26 271.16 L2180.78 245.651 L2185.29 245.651 L2193.39 265.929 L2201.49 245.651 L2206.01 245.651 L2194.62 273.984 Z" fill="#bebebe" fill-rule="evenodd" fill-opacity="1" /><path clip-path="url(#clip130)" d="M 0 0 M2211.89 267.641 L2219.52 267.641 L2219.52 241.276 L2211.21 242.943 L2211.21 238.683 L2219.48 237.017 L2224.15 237.017 L2224.15 267.641 L2231.79 267.641 L2231.79 271.577 L2211.89 271.577 L2211.89 267.641 Z" fill="#bebebe" fill-rule="evenodd" fill-opacity="1" /><path clip-path="url(#clip130)" d="M2084.47 289.177 L2058.87 314.777 L2084.47 340.377 L2110.07 314.777 L2084.47 289.177 Z" fill="#008000" fill-rule="evenodd" fill-opacity="1" stroke="#ff0000" stroke-opacity="1" stroke-width="2.92571"/>
<path clip-path="url(#clip130)" d="M 0 0 M2194.62 334.464 Q2192.81 339.094 2191.1 340.506 Q2189.39 341.918 2186.52 341.918 L2183.11 341.918 L2183.11 338.353 L2185.61 338.353 Q2187.37 338.353 2188.34 337.52 Q2189.32 336.686 2190.5 333.584 L2191.26 331.64 L2180.78 306.131 L2185.29 306.131 L2193.39 326.409 L2201.49 306.131 L2206.01 306.131 L2194.62 334.464 Z" fill="#bebebe" fill-rule="evenodd" fill-opacity="1" /><path clip-path="url(#clip130)" d="M 0 0 M2215.1 328.121 L2231.42 328.121 L2231.42 332.057 L2209.48 332.057 L2209.48 328.121 Q2212.14 325.367 2216.72 320.737 Q2221.33 316.085 2222.51 314.742 Q2224.76 312.219 2225.64 310.483 Q2226.54 308.723 2226.54 307.034 Q2226.54 304.279 2224.59 302.543 Q2222.67 300.807 2219.57 300.807 Q2217.37 300.807 2214.92 301.571 Q2212.49 302.335 2209.71 303.886 L2209.71 299.163 Q2212.53 298.029 2214.99 297.45 Q2217.44 296.872 2219.48 296.872 Q2224.85 296.872 2228.04 299.557 Q2231.24 302.242 2231.24 306.733 Q2231.24 308.862 2230.43 310.784 Q2229.64 312.682 2227.53 315.274 Q2226.96 315.946 2223.85 319.163 Q2220.75 322.358 2215.1 328.121 Z" fill="#bebebe" fill-rule="evenodd" fill-opacity="1" /><path clip-path="url(#clip130)" d="M2063.99 375.257 L2094.71 393.177 L2094.71 357.337 L2063.99 375.257 Z" fill="#00008b" fill-rule="evenodd" fill-opacity="0.2" stroke="#ff0000" stroke-opacity="0.2" stroke-width="1.70667"/>
<path clip-path="url(#clip130)" d="M 0 0 M2194.62 394.944 Q2192.81 399.574 2191.1 400.986 Q2189.39 402.398 2186.52 402.398 L2183.11 402.398 L2183.11 398.833 L2185.61 398.833 Q2187.37 398.833 2188.34 398 Q2189.32 397.166 2190.5 394.064 L2191.26 392.12 L2180.78 366.611 L2185.29 366.611 L2193.39 386.889 L2201.49 366.611 L2206.01 366.611 L2194.62 394.944 Z" fill="#bebebe" fill-rule="evenodd" fill-opacity="1" /><path clip-path="url(#clip130)" d="M 0 0 M2225.24 373.902 Q2228.6 374.62 2230.47 376.889 Q2232.37 379.157 2232.37 382.49 Q2232.37 387.606 2228.85 390.407 Q2225.34 393.208 2218.85 393.208 Q2216.68 393.208 2214.36 392.768 Q2212.07 392.351 2209.62 391.495 L2209.62 386.981 Q2211.56 388.115 2213.88 388.694 Q2216.19 389.273 2218.71 389.273 Q2223.11 389.273 2225.4 387.537 Q2227.72 385.801 2227.72 382.49 Q2227.72 379.435 2225.57 377.722 Q2223.44 375.986 2219.62 375.986 L2215.59 375.986 L2215.59 372.143 L2219.8 372.143 Q2223.25 372.143 2225.08 370.778 Q2226.91 369.389 2226.91 366.796 Q2226.91 364.134 2225.01 362.722 Q2223.14 361.287 2219.62 361.287 Q2217.7 361.287 2215.5 361.703 Q2213.3 362.12 2210.66 363 L2210.66 358.833 Q2213.32 358.092 2215.64 357.722 Q2217.97 357.352 2220.03 357.352 Q2225.36 357.352 2228.46 359.782 Q2231.56 362.19 2231.56 366.31 Q2231.56 369.18 2229.92 371.171 Q2228.27 373.139 2225.24 373.902 Z" fill="#bebebe" fill-rule="evenodd" fill-opacity="1" /></svg>
