<?xml version="1.0" encoding="utf-8"?>
<svg xmlns="http://www.w3.org/2000/svg" xmlns:xlink="http://www.w3.org/1999/xlink" width="600" height="400" viewBox="0 0 2400 1600">
<defs>
  <clipPath id="clip070">
    <rect x="0" y="0" width="2400" height="1600"/>
  </clipPath>
</defs>
<path clip-path="url(#clip070)" d="
M0 1600 L2400 1600 L2400 0 L0 0  Z
  " fill="#ffffff" fill-rule="evenodd" fill-opacity="1"/>
<defs>
  <clipPath id="clip071">
    <rect x="480" y="0" width="1681" height="1600"/>
  </clipPath>
</defs>
<path clip-path="url(#clip070)" d="
M170.924 1482.13 L2352.76 1482.13 L2352.76 149.392 L170.924 149.392  Z
  " fill="#ffffff" fill-rule="evenodd" fill-opacity="1"/>
<defs>
  <clipPath id="clip072">
    <rect x="170" y="149" width="2183" height="1334"/>
  </clipPath>
</defs>
<polyline clip-path="url(#clip072)" style="stroke:#000000; stroke-width:2; stroke-opacity:0.1; fill:none" points="
  516.582,1482.13 516.582,149.392 
  "/>
<polyline clip-path="url(#clip072)" style="stroke:#000000; stroke-width:2; stroke-opacity:0.1; fill:none" points="
  871.467,1482.13 871.467,149.392 
  "/>
<polyline clip-path="url(#clip072)" style="stroke:#000000; stroke-width:2; stroke-opacity:0.1; fill:none" points="
  1226.35,1482.13 1226.35,149.392 
  "/>
<polyline clip-path="url(#clip072)" style="stroke:#000000; stroke-width:2; stroke-opacity:0.1; fill:none" points="
  1581.24,1482.13 1581.24,149.392 
  "/>
<polyline clip-path="url(#clip072)" style="stroke:#000000; stroke-width:2; stroke-opacity:0.1; fill:none" points="
  1936.12,1482.13 1936.12,149.392 
  "/>
<polyline clip-path="url(#clip072)" style="stroke:#000000; stroke-width:2; stroke-opacity:0.1; fill:none" points="
  2291.01,1482.13 2291.01,149.392 
  "/>
<polyline clip-path="url(#clip070)" style="stroke:#000000; stroke-width:4; stroke-opacity:1; fill:none" points="
  170.924,1482.13 2352.76,1482.13 
  "/>
<polyline clip-path="url(#clip070)" style="stroke:#000000; stroke-width:4; stroke-opacity:1; fill:none" points="
  516.582,1482.13 516.582,1466.14 
  "/>
<polyline clip-path="url(#clip070)" style="stroke:#000000; stroke-width:4; stroke-opacity:1; fill:none" points="
  871.467,1482.13 871.467,1466.14 
  "/>
<polyline clip-path="url(#clip070)" style="stroke:#000000; stroke-width:4; stroke-opacity:1; fill:none" points="
  1226.35,1482.13 1226.35,1466.14 
  "/>
<polyline clip-path="url(#clip070)" style="stroke:#000000; stroke-width:4; stroke-opacity:1; fill:none" points="
  1581.24,1482.13 1581.24,1466.14 
  "/>
<polyline clip-path="url(#clip070)" style="stroke:#000000; stroke-width:4; stroke-opacity:1; fill:none" points="
  1936.12,1482.13 1936.12,1466.14 
  "/>
<polyline clip-path="url(#clip070)" style="stroke:#000000; stroke-width:4; stroke-opacity:1; fill:none" points="
  2291.01,1482.13 2291.01,1466.14 
  "/>
<path clip-path="url(#clip070)" d="M 0 0 M505.644 1509.1 L526.295 1509.1 L526.295 1513.53 L510.462 1513.53 L510.462 1523.06 Q511.608 1522.67 512.754 1522.49 Q513.9 1522.28 515.045 1522.28 Q521.556 1522.28 525.358 1525.85 Q529.16 1529.42 529.16 1535.51 Q529.16 1541.79 525.254 1545.28 Q521.347 1548.74 514.238 1548.74 Q511.79 1548.74 509.238 1548.32 Q506.712 1547.91 504.004 1547.07 L504.004 1541.79 Q506.347 1543.06 508.847 1543.69 Q511.347 1544.31 514.134 1544.31 Q518.639 1544.31 521.269 1541.94 Q523.899 1539.57 523.899 1535.51 Q523.899 1531.45 521.269 1529.08 Q518.639 1526.71 514.134 1526.71 Q512.025 1526.71 509.915 1527.18 Q507.832 1527.65 505.644 1528.64 L505.644 1509.1 Z" fill="#bebebe" fill-rule="evenodd" fill-opacity="1" /><path clip-path="url(#clip070)" d="M 0 0 M845.451 1543.56 L854.045 1543.56 L854.045 1513.9 L844.696 1515.77 L844.696 1510.98 L853.993 1509.1 L859.253 1509.1 L859.253 1543.56 L867.847 1543.56 L867.847 1547.98 L845.451 1547.98 L845.451 1543.56 Z" fill="#bebebe" fill-rule="evenodd" fill-opacity="1" /><path clip-path="url(#clip070)" d="M 0 0 M884.8 1512.57 Q880.737 1512.57 878.68 1516.58 Q876.649 1520.56 876.649 1528.58 Q876.649 1536.58 878.68 1540.59 Q880.737 1544.57 884.8 1544.57 Q888.888 1544.57 890.92 1540.59 Q892.977 1536.58 892.977 1528.58 Q892.977 1520.56 890.92 1516.58 Q888.888 1512.57 884.8 1512.57 M884.8 1508.4 Q891.336 1508.4 894.774 1513.58 Q898.237 1518.74 898.237 1528.58 Q898.237 1538.4 894.774 1543.58 Q891.336 1548.74 884.8 1548.74 Q878.263 1548.74 874.8 1543.58 Q871.362 1538.4 871.362 1528.58 Q871.362 1518.74 874.8 1513.58 Q878.263 1508.4 884.8 1508.4 Z" fill="#bebebe" fill-rule="evenodd" fill-opacity="1" /><path clip-path="url(#clip070)" d="M 0 0 M1200.9 1543.56 L1209.49 1543.56 L1209.49 1513.9 L1200.14 1515.77 L1200.14 1510.98 L1209.44 1509.1 L1214.7 1509.1 L1214.7 1543.56 L1223.29 1543.56 L1223.29 1547.98 L1200.9 1547.98 L1200.9 1543.56 Z" fill="#bebebe" fill-rule="evenodd" fill-opacity="1" /><path clip-path="url(#clip070)" d="M 0 0 M1229.05 1509.1 L1249.7 1509.1 L1249.7 1513.53 L1233.86 1513.53 L1233.86 1523.06 Q1235.01 1522.67 1236.16 1522.49 Q1237.3 1522.28 1238.45 1522.28 Q1244.96 1522.28 1248.76 1525.85 Q1252.56 1529.42 1252.56 1535.51 Q1252.56 1541.79 1248.66 1545.28 Q1244.75 1548.74 1237.64 1548.74 Q1235.19 1548.74 1232.64 1548.32 Q1230.11 1547.91 1227.41 1547.07 L1227.41 1541.79 Q1229.75 1543.06 1232.25 1543.69 Q1234.75 1544.31 1237.54 1544.31 Q1242.04 1544.31 1244.67 1541.94 Q1247.3 1539.57 1247.3 1535.51 Q1247.3 1531.45 1244.67 1529.08 Q1242.04 1526.71 1237.54 1526.71 Q1235.43 1526.71 1233.32 1527.18 Q1231.23 1527.65 1229.05 1528.64 L1229.05 1509.1 Z" fill="#bebebe" fill-rule="evenodd" fill-opacity="1" /><path clip-path="url(#clip070)" d="M 0 0 M1560.03 1543.56 L1578.38 1543.56 L1578.38 1547.98 L1553.7 1547.98 L1553.7 1543.56 Q1556.69 1540.46 1561.85 1535.25 Q1567.03 1530.02 1568.36 1528.5 Q1570.88 1525.67 1571.87 1523.71 Q1572.89 1521.73 1572.89 1519.83 Q1572.89 1516.73 1570.7 1514.78 Q1568.54 1512.83 1565.05 1512.83 Q1562.58 1512.83 1559.82 1513.69 Q1557.08 1514.55 1553.96 1516.29 L1553.96 1510.98 Q1557.13 1509.7 1559.9 1509.05 Q1562.66 1508.4 1564.95 1508.4 Q1570.99 1508.4 1574.58 1511.42 Q1578.18 1514.44 1578.18 1519.49 Q1578.18 1521.89 1577.26 1524.05 Q1576.38 1526.19 1574.01 1529.1 Q1573.36 1529.86 1569.87 1533.48 Q1566.38 1537.07 1560.03 1543.56 Z" fill="#bebebe" fill-rule="evenodd" fill-opacity="1" /><path clip-path="url(#clip070)" d="M 0 0 M1595.34 1512.57 Q1591.28 1512.57 1589.22 1516.58 Q1587.19 1520.56 1587.19 1528.58 Q1587.19 1536.58 1589.22 1540.59 Q1591.28 1544.57 1595.34 1544.57 Q1599.43 1544.57 1601.46 1540.59 Q1603.51 1536.58 1603.51 1528.58 Q1603.51 1520.56 1601.46 1516.58 Q1599.43 1512.57 1595.34 1512.57 M1595.34 1508.4 Q1601.87 1508.4 1605.31 1513.58 Q1608.78 1518.74 1608.78 1528.58 Q1608.78 1538.4 1605.31 1543.58 Q1601.87 1548.74 1595.34 1548.74 Q1588.8 1548.74 1585.34 1543.58 Q1581.9 1538.4 1581.9 1528.58 Q1581.9 1518.74 1585.34 1513.58 Q1588.8 1508.4 1595.34 1508.4 Z" fill="#bebebe" fill-rule="evenodd" fill-opacity="1" /><path clip-path="url(#clip070)" d="M 0 0 M1915.47 1543.56 L1933.83 1543.56 L1933.83 1547.98 L1909.14 1547.98 L1909.14 1543.56 Q1912.14 1540.46 1917.29 1535.25 Q1922.48 1530.02 1923.8 1528.5 Q1926.33 1525.67 1927.32 1523.71 Q1928.33 1521.73 1928.33 1519.83 Q1928.33 1516.73 1926.15 1514.78 Q1923.99 1512.83 1920.5 1512.83 Q1918.02 1512.83 1915.26 1513.69 Q1912.53 1514.55 1909.4 1516.29 L1909.4 1510.98 Q1912.58 1509.7 1915.34 1509.05 Q1918.1 1508.4 1920.39 1508.4 Q1926.43 1508.4 1930.03 1511.42 Q1933.62 1514.44 1933.62 1519.49 Q1933.62 1521.89 1932.71 1524.05 Q1931.82 1526.19 1929.45 1529.1 Q1928.8 1529.86 1925.31 1533.48 Q1921.82 1537.07 1915.47 1543.56 Z" fill="#bebebe" fill-rule="evenodd" fill-opacity="1" /><path clip-path="url(#clip070)" d="M 0 0 M1939.58 1509.1 L1960.24 1509.1 L1960.24 1513.53 L1944.4 1513.53 L1944.4 1523.06 Q1945.55 1522.67 1946.69 1522.49 Q1947.84 1522.28 1948.99 1522.28 Q1955.5 1522.28 1959.3 1525.85 Q1963.1 1529.42 1963.1 1535.51 Q1963.1 1541.79 1959.19 1545.28 Q1955.29 1548.74 1948.18 1548.74 Q1945.73 1548.74 1943.18 1548.32 Q1940.65 1547.91 1937.94 1547.07 L1937.94 1541.79 Q1940.29 1543.06 1942.79 1543.69 Q1945.29 1544.31 1948.07 1544.31 Q1952.58 1544.31 1955.21 1541.94 Q1957.84 1539.57 1957.84 1535.51 Q1957.84 1531.45 1955.21 1529.08 Q1952.58 1526.71 1948.07 1526.71 Q1945.96 1526.71 1943.86 1527.18 Q1941.77 1527.65 1939.58 1528.64 L1939.58 1509.1 Z" fill="#bebebe" fill-rule="evenodd" fill-opacity="1" /><path clip-path="url(#clip070)" d="M 0 0 M2280.59 1527.02 Q2284.37 1527.83 2286.47 1530.38 Q2288.61 1532.93 2288.61 1536.68 Q2288.61 1542.44 2284.65 1545.59 Q2280.69 1548.74 2273.4 1548.74 Q2270.95 1548.74 2268.35 1548.24 Q2265.77 1547.78 2263.01 1546.81 L2263.01 1541.73 Q2265.2 1543.01 2267.8 1543.66 Q2270.41 1544.31 2273.25 1544.31 Q2278.19 1544.31 2280.77 1542.36 Q2283.38 1540.41 2283.38 1536.68 Q2283.38 1533.24 2280.95 1531.32 Q2278.56 1529.36 2274.26 1529.36 L2269.73 1529.36 L2269.73 1525.04 L2274.47 1525.04 Q2278.35 1525.04 2280.41 1523.5 Q2282.46 1521.94 2282.46 1519.03 Q2282.46 1516.03 2280.33 1514.44 Q2278.22 1512.83 2274.26 1512.83 Q2272.1 1512.83 2269.63 1513.3 Q2267.15 1513.77 2264.18 1514.75 L2264.18 1510.07 Q2267.18 1509.23 2269.78 1508.82 Q2272.41 1508.4 2274.73 1508.4 Q2280.72 1508.4 2284.21 1511.14 Q2287.7 1513.84 2287.7 1518.48 Q2287.7 1521.71 2285.85 1523.95 Q2284 1526.16 2280.59 1527.02 Z" fill="#bebebe" fill-rule="evenodd" fill-opacity="1" /><path clip-path="url(#clip070)" d="M 0 0 M2305.56 1512.57 Q2301.5 1512.57 2299.44 1516.58 Q2297.41 1520.56 2297.41 1528.58 Q2297.41 1536.58 2299.44 1540.59 Q2301.5 1544.57 2305.56 1544.57 Q2309.65 1544.57 2311.68 1540.59 Q2313.74 1536.58 2313.74 1528.58 Q2313.74 1520.56 2311.68 1516.58 Q2309.65 1512.57 2305.56 1512.57 M2305.56 1508.4 Q2312.1 1508.4 2315.54 1513.58 Q2319 1518.74 2319 1528.58 Q2319 1538.4 2315.54 1543.58 Q2312.1 1548.74 2305.56 1548.74 Q2299.03 1548.74 2295.56 1543.58 Q2292.13 1538.4 2292.13 1528.58 Q2292.13 1518.74 2295.56 1513.58 Q2299.03 1508.4 2305.56 1508.4 Z" fill="#bebebe" fill-rule="evenodd" fill-opacity="1" /><polyline clip-path="url(#clip072)" style="stroke:#000000; stroke-width:2; stroke-opacity:0.1; fill:none" points="
  170.924,1224.06 2352.76,1224.06 
  "/>
<polyline clip-path="url(#clip072)" style="stroke:#000000; stroke-width:2; stroke-opacity:0.1; fill:none" points="
  170.924,964.821 2352.76,964.821 
  "/>
<polyline clip-path="url(#clip072)" style="stroke:#000000; stroke-width:2; stroke-opacity:0.1; fill:none" points="
  170.924,705.584 2352.76,705.584 
  "/>
<polyline clip-path="url(#clip072)" style="stroke:#000000; stroke-width:2; stroke-opacity:0.1; fill:none" points="
  170.924,446.348 2352.76,446.348 
  "/>
<polyline clip-path="url(#clip072)" style="stroke:#000000; stroke-width:2; stroke-opacity:0.1; fill:none" points="
  170.924,187.111 2352.76,187.111 
  "/>
<polyline clip-path="url(#clip070)" style="stroke:#000000; stroke-width:4; stroke-opacity:1; fill:none" points="
  170.924,1482.13 170.924,149.392 
  "/>
<polyline clip-path="url(#clip070)" style="stroke:#000000; stroke-width:4; stroke-opacity:1; fill:none" points="
  170.924,1224.06 197.106,1224.06 
  "/>
<polyline clip-path="url(#clip070)" style="stroke:#000000; stroke-width:4; stroke-opacity:1; fill:none" points="
  170.924,964.821 197.106,964.821 
  "/>
<polyline clip-path="url(#clip070)" style="stroke:#000000; stroke-width:4; stroke-opacity:1; fill:none" points="
  170.924,705.584 197.106,705.584 
  "/>
<polyline clip-path="url(#clip070)" style="stroke:#000000; stroke-width:4; stroke-opacity:1; fill:none" points="
  170.924,446.348 197.106,446.348 
  "/>
<polyline clip-path="url(#clip070)" style="stroke:#000000; stroke-width:4; stroke-opacity:1; fill:none" points="
  170.924,187.111 197.106,187.111 
  "/>
<path clip-path="url(#clip070)" d="M 0 0 M86.1742 1239.07 L104.534 1239.07 L104.534 1243.5 L79.8461 1243.5 L79.8461 1239.07 Q82.8409 1235.97 87.9971 1230.76 Q93.1794 1225.53 94.5075 1224.02 Q97.0335 1221.18 98.0231 1219.23 Q99.0387 1217.25 99.0387 1215.35 Q99.0387 1212.25 96.8513 1210.29 Q94.6898 1208.34 91.2002 1208.34 Q88.7263 1208.34 85.9659 1209.2 Q83.2315 1210.06 80.1066 1211.81 L80.1066 1206.49 Q83.2836 1205.22 86.044 1204.57 Q88.8044 1203.91 91.0961 1203.91 Q97.1377 1203.91 100.731 1206.94 Q104.325 1209.96 104.325 1215.01 Q104.325 1217.4 103.414 1219.57 Q102.528 1221.7 100.159 1224.62 Q99.5075 1225.37 96.0179 1228.99 Q92.5284 1232.59 86.1742 1239.07 Z" fill="#bebebe" fill-rule="evenodd" fill-opacity="1" /><path clip-path="url(#clip070)" d="M 0 0 M121.487 1208.08 Q117.424 1208.08 115.367 1212.09 Q113.336 1216.08 113.336 1224.1 Q113.336 1232.09 115.367 1236.1 Q117.424 1240.09 121.487 1240.09 Q125.575 1240.09 127.606 1236.1 Q129.664 1232.09 129.664 1224.1 Q129.664 1216.08 127.606 1212.09 Q125.575 1208.08 121.487 1208.08 M121.487 1203.91 Q128.023 1203.91 131.46 1209.1 Q134.924 1214.25 134.924 1224.1 Q134.924 1233.91 131.46 1239.1 Q128.023 1244.25 121.487 1244.25 Q114.95 1244.25 111.487 1239.1 Q108.049 1233.91 108.049 1224.1 Q108.049 1214.25 111.487 1209.1 Q114.95 1203.91 121.487 1203.91 Z" fill="#bebebe" fill-rule="evenodd" fill-opacity="1" /><path clip-path="url(#clip070)" d="M 0 0 M93.7523 949.964 L80.4711 970.719 L93.7523 970.719 L93.7523 949.964 M92.3721 945.381 L98.9867 945.381 L98.9867 970.719 L104.534 970.719 L104.534 975.094 L98.9867 975.094 L98.9867 984.261 L93.7523 984.261 L93.7523 975.094 L76.2003 975.094 L76.2003 970.016 L92.3721 945.381 Z" fill="#bebebe" fill-rule="evenodd" fill-opacity="1" /><path clip-path="url(#clip070)" d="M 0 0 M121.487 948.845 Q117.424 948.845 115.367 952.855 Q113.336 956.839 113.336 964.86 Q113.336 972.855 115.367 976.865 Q117.424 980.85 121.487 980.85 Q125.575 980.85 127.606 976.865 Q129.664 972.855 129.664 964.86 Q129.664 956.839 127.606 952.855 Q125.575 948.845 121.487 948.845 M121.487 944.678 Q128.023 944.678 131.46 949.86 Q134.924 955.016 134.924 964.86 Q134.924 974.678 131.46 979.86 Q128.023 985.016 121.487 985.016 Q114.95 985.016 111.487 979.86 Q108.049 974.678 108.049 964.86 Q108.049 955.016 111.487 949.86 Q114.95 944.678 121.487 944.678 Z" fill="#bebebe" fill-rule="evenodd" fill-opacity="1" /><path clip-path="url(#clip070)" d="M 0 0 M91.5648 703.488 Q88.0232 703.488 85.9399 705.91 Q83.8826 708.332 83.8826 712.551 Q83.8826 716.743 85.9399 719.191 Q88.0232 721.613 91.5648 721.613 Q95.1065 721.613 97.1638 719.191 Q99.2471 716.743 99.2471 712.551 Q99.2471 708.332 97.1638 705.91 Q95.1065 703.488 91.5648 703.488 M102.007 687.004 L102.007 691.795 Q100.028 690.858 97.9971 690.363 Q95.9919 689.868 94.0127 689.868 Q88.8044 689.868 86.044 693.384 Q83.3097 696.9 82.919 704.009 Q84.4555 701.743 86.7732 700.545 Q89.0909 699.321 91.8773 699.321 Q97.7367 699.321 101.122 702.889 Q104.534 706.431 104.534 712.551 Q104.534 718.54 100.992 722.16 Q97.4502 725.78 91.5648 725.78 Q84.8201 725.78 81.2524 720.623 Q77.6847 715.441 77.6847 705.623 Q77.6847 696.405 82.0597 690.936 Q86.4346 685.441 93.8044 685.441 Q95.7836 685.441 97.7888 685.832 Q99.82 686.223 102.007 687.004 Z" fill="#bebebe" fill-rule="evenodd" fill-opacity="1" /><path clip-path="url(#clip070)" d="M 0 0 M121.487 689.608 Q117.424 689.608 115.367 693.618 Q113.336 697.603 113.336 705.623 Q113.336 713.618 115.367 717.629 Q117.424 721.613 121.487 721.613 Q125.575 721.613 127.606 717.629 Q129.664 713.618 129.664 705.623 Q129.664 697.603 127.606 693.618 Q125.575 689.608 121.487 689.608 M121.487 685.441 Q128.023 685.441 131.46 690.624 Q134.924 695.78 134.924 705.623 Q134.924 715.441 131.46 720.623 Q128.023 725.78 121.487 725.78 Q114.95 725.78 111.487 720.623 Q108.049 715.441 108.049 705.623 Q108.049 695.78 111.487 690.624 Q114.95 685.441 121.487 685.441 Z" fill="#bebebe" fill-rule="evenodd" fill-opacity="1" /><path clip-path="url(#clip070)" d="M 0 0 M91.2002 447.324 Q87.4503 447.324 85.2888 449.329 Q83.1534 451.335 83.1534 454.85 Q83.1534 458.366 85.2888 460.371 Q87.4503 462.376 91.2002 462.376 Q94.9502 462.376 97.1117 460.371 Q99.2731 458.34 99.2731 454.85 Q99.2731 451.335 97.1117 449.329 Q94.9763 447.324 91.2002 447.324 M85.9399 445.085 Q82.5545 444.251 80.6534 441.934 Q78.7784 439.616 78.7784 436.283 Q78.7784 431.621 82.0857 428.913 Q85.419 426.205 91.2002 426.205 Q97.0075 426.205 100.315 428.913 Q103.622 431.621 103.622 436.283 Q103.622 439.616 101.721 441.934 Q99.846 444.251 96.4867 445.085 Q100.289 445.97 102.398 448.548 Q104.534 451.126 104.534 454.85 Q104.534 460.501 101.07 463.522 Q97.6325 466.543 91.2002 466.543 Q84.768 466.543 81.3045 463.522 Q77.867 460.501 77.867 454.85 Q77.867 451.126 80.0024 448.548 Q82.1378 445.97 85.9399 445.085 M84.0128 436.777 Q84.0128 439.798 85.8878 441.491 Q87.7888 443.184 91.2002 443.184 Q94.5856 443.184 96.4867 441.491 Q98.4137 439.798 98.4137 436.777 Q98.4137 433.757 96.4867 432.064 Q94.5856 430.371 91.2002 430.371 Q87.7888 430.371 85.8878 432.064 Q84.0128 433.757 84.0128 436.777 Z" fill="#bebebe" fill-rule="evenodd" fill-opacity="1" /><path clip-path="url(#clip070)" d="M 0 0 M121.487 430.371 Q117.424 430.371 115.367 434.382 Q113.336 438.366 113.336 446.387 Q113.336 454.382 115.367 458.392 Q117.424 462.376 121.487 462.376 Q125.575 462.376 127.606 458.392 Q129.664 454.382 129.664 446.387 Q129.664 438.366 127.606 434.382 Q125.575 430.371 121.487 430.371 M121.487 426.205 Q128.023 426.205 131.46 431.387 Q134.924 436.543 134.924 446.387 Q134.924 456.204 131.46 461.387 Q128.023 466.543 121.487 466.543 Q114.95 466.543 111.487 461.387 Q108.049 456.204 108.049 446.387 Q108.049 436.543 111.487 431.387 Q114.95 426.205 121.487 426.205 Z" fill="#bebebe" fill-rule="evenodd" fill-opacity="1" /><path clip-path="url(#clip070)" d="M 0 0 M51.7473 202.124 L60.341 202.124 L60.341 172.463 L50.9921 174.338 L50.9921 169.546 L60.289 167.671 L65.5493 167.671 L65.5493 202.124 L74.143 202.124 L74.143 206.551 L51.7473 206.551 L51.7473 202.124 Z" fill="#bebebe" fill-rule="evenodd" fill-opacity="1" /><path clip-path="url(#clip070)" d="M 0 0 M91.0961 171.135 Q87.0336 171.135 84.9763 175.145 Q82.9451 179.129 82.9451 187.15 Q82.9451 195.145 84.9763 199.155 Q87.0336 203.14 91.0961 203.14 Q95.1846 203.14 97.2158 199.155 Q99.2731 195.145 99.2731 187.15 Q99.2731 179.129 97.2158 175.145 Q95.1846 171.135 91.0961 171.135 M91.0961 166.968 Q97.6325 166.968 101.07 172.15 Q104.534 177.306 104.534 187.15 Q104.534 196.968 101.07 202.15 Q97.6325 207.306 91.0961 207.306 Q84.5597 207.306 81.0961 202.15 Q77.6586 196.968 77.6586 187.15 Q77.6586 177.306 81.0961 172.15 Q84.5597 166.968 91.0961 166.968 Z" fill="#bebebe" fill-rule="evenodd" fill-opacity="1" /><path clip-path="url(#clip070)" d="M 0 0 M121.487 171.135 Q117.424 171.135 115.367 175.145 Q113.336 179.129 113.336 187.15 Q113.336 195.145 115.367 199.155 Q117.424 203.14 121.487 203.14 Q125.575 203.14 127.606 199.155 Q129.664 195.145 129.664 187.15 Q129.664 179.129 127.606 175.145 Q125.575 171.135 121.487 171.135 M121.487 166.968 Q128.023 166.968 131.46 172.15 Q134.924 177.306 134.924 187.15 Q134.924 196.968 131.46 202.15 Q128.023 207.306 121.487 207.306 Q114.95 207.306 111.487 202.15 Q108.049 196.968 108.049 187.15 Q108.049 177.306 111.487 172.15 Q114.95 166.968 121.487 166.968 Z" fill="#bebebe" fill-rule="evenodd" fill-opacity="1" /><path clip-path="url(#clip070)" d="M 0 0 M1041.12 20.1156 L1041.12 31.516 Q1034.47 28.3332 1028.57 26.7707 Q1022.66 25.2082 1017.17 25.2082 Q1007.62 25.2082 1002.41 28.9119 Q997.258 32.6156 997.258 39.4442 Q997.258 45.1734 1000.67 48.1247 Q1004.14 51.0182 1013.75 52.8122 L1020.81 54.259 Q1033.89 56.7474 1040.08 63.0552 Q1046.33 69.3052 1046.33 79.8375 Q1046.33 92.3953 1037.88 98.8768 Q1029.49 105.358 1013.23 105.358 Q1007.1 105.358 1000.15 103.969 Q993.265 102.58 985.858 99.8606 L985.858 87.8236 Q992.976 91.8166 999.804 93.8421 Q1006.63 95.8675 1013.23 95.8675 Q1023.24 95.8675 1028.68 91.9324 Q1034.12 87.9972 1034.12 80.7056 Q1034.12 74.3399 1030.19 70.7519 Q1026.31 67.164 1017.4 65.37 L1010.28 63.9811 Q997.2 61.377 991.355 55.8215 Q985.51 50.2659 985.51 40.3702 Q985.51 28.9119 993.554 22.3147 Q1001.66 15.7175 1015.83 15.7175 Q1021.91 15.7175 1028.22 16.817 Q1034.53 17.9166 1041.12 20.1156 Z" fill="#bebebe" fill-rule="evenodd" fill-opacity="1" /><path clip-path="url(#clip070)" d="M 0 0 M1112.94 68.6107 L1112.94 73.819 L1063.98 73.819 Q1064.68 84.8144 1070.58 90.6014 Q1076.54 96.3305 1087.13 96.3305 Q1093.26 96.3305 1098.99 94.8259 Q1104.78 93.3213 1110.45 90.312 L1110.45 100.381 Q1104.72 102.812 1098.7 104.085 Q1092.69 105.358 1086.49 105.358 Q1070.98 105.358 1061.9 96.3305 Q1052.87 87.3028 1052.87 71.9093 Q1052.87 55.9951 1061.44 46.678 Q1070.06 37.303 1084.64 37.303 Q1097.72 37.303 1105.3 45.7521 Q1112.94 54.1432 1112.94 68.6107 M1102.29 65.4858 Q1102.18 56.7474 1097.37 51.5391 Q1092.63 46.3308 1084.76 46.3308 Q1075.85 46.3308 1070.46 51.3655 Q1065.14 56.4002 1064.33 65.5436 L1102.29 65.4858 Z" fill="#bebebe" fill-rule="evenodd" fill-opacity="1" /><path clip-path="url(#clip070)" d="M 0 0 M1161.67 48.8192 Q1159.87 47.7775 1157.73 47.3146 Q1155.65 46.7937 1153.1 46.7937 Q1144.07 46.7937 1139.21 52.6965 Q1134.41 58.5414 1134.41 69.5367 L1134.41 103.68 L1123.7 103.68 L1123.7 38.8655 L1134.41 38.8655 L1134.41 48.9349 Q1137.77 43.0322 1143.15 40.1965 Q1148.53 37.303 1156.23 37.303 Q1157.33 37.303 1158.66 37.4767 Q1159.99 37.5924 1161.61 37.8817 L1161.67 48.8192 Z" fill="#bebebe" fill-rule="evenodd" fill-opacity="1" /><path clip-path="url(#clip070)" d="M 0 0 M1172.84 38.8655 L1183.48 38.8655 L1183.48 103.68 L1172.84 103.68 L1172.84 38.8655 M1172.84 13.6342 L1183.48 13.6342 L1183.48 27.1179 L1172.84 27.1179 L1172.84 13.6342 Z" fill="#bebebe" fill-rule="evenodd" fill-opacity="1" /><path clip-path="url(#clip070)" d="M 0 0 M1250.09 68.6107 L1250.09 73.819 L1201.13 73.819 Q1201.83 84.8144 1207.73 90.6014 Q1213.69 96.3305 1224.28 96.3305 Q1230.42 96.3305 1236.15 94.8259 Q1241.93 93.3213 1247.6 90.312 L1247.6 100.381 Q1241.87 102.812 1235.86 104.085 Q1229.84 105.358 1223.65 105.358 Q1208.14 105.358 1199.05 96.3305 Q1190.02 87.3028 1190.02 71.9093 Q1190.02 55.9951 1198.59 46.678 Q1207.21 37.303 1221.79 37.303 Q1234.87 37.303 1242.45 45.7521 Q1250.09 54.1432 1250.09 68.6107 M1239.44 65.4858 Q1239.33 56.7474 1234.53 51.5391 Q1229.78 46.3308 1221.91 46.3308 Q1213 46.3308 1207.62 51.3655 Q1202.29 56.4002 1201.48 65.5436 L1239.44 65.4858 Z" fill="#bebebe" fill-rule="evenodd" fill-opacity="1" /><path clip-path="url(#clip070)" d="M 0 0 M1309 8.88884 L1325.32 30.5322 L1316.47 30.5322 L1297.6 8.88884 L1309 8.88884 Z" fill="#bebebe" fill-rule="evenodd" fill-opacity="1" /><path clip-path="url(#clip070)" d="M 0 0 M1336.49 13.6342 L1347.14 13.6342 L1347.14 103.68 L1336.49 103.68 L1336.49 13.6342 Z" fill="#bebebe" fill-rule="evenodd" fill-opacity="1" /><path clip-path="url(#clip070)" d="M 0 0 M1358.31 38.8655 L1368.96 38.8655 L1368.96 103.68 L1358.31 103.68 L1358.31 38.8655 M1358.31 13.6342 L1368.96 13.6342 L1368.96 27.1179 L1358.31 27.1179 L1358.31 13.6342 Z" fill="#bebebe" fill-rule="evenodd" fill-opacity="1" /><path clip-path="url(#clip070)" d="M 0 0 M1434 64.5598 L1434 103.68 L1423.36 103.68 L1423.36 64.9071 Q1423.36 55.7057 1419.77 51.134 Q1416.18 46.5623 1409 46.5623 Q1400.38 46.5623 1395.4 52.0599 Q1390.43 57.5576 1390.43 67.0483 L1390.43 103.68 L1379.72 103.68 L1379.72 38.8655 L1390.43 38.8655 L1390.43 48.9349 Q1394.25 43.09 1399.4 40.1965 Q1404.61 37.303 1411.38 37.303 Q1422.55 37.303 1428.27 44.2474 Q1434 51.134 1434 64.5598 Z" fill="#bebebe" fill-rule="evenodd" fill-opacity="1" /><path clip-path="url(#clip070)" d="M 0 0 M1500.61 68.6107 L1500.61 73.819 L1451.65 73.819 Q1452.35 84.8144 1458.25 90.6014 Q1464.21 96.3305 1474.8 96.3305 Q1480.94 96.3305 1486.67 94.8259 Q1492.45 93.3213 1498.12 90.312 L1498.12 100.381 Q1492.39 102.812 1486.38 104.085 Q1480.36 105.358 1474.17 105.358 Q1458.66 105.358 1449.57 96.3305 Q1440.54 87.3028 1440.54 71.9093 Q1440.54 55.9951 1449.11 46.678 Q1457.73 37.303 1472.31 37.303 Q1485.39 37.303 1492.97 45.7521 Q1500.61 54.1432 1500.61 68.6107 M1489.96 65.4858 Q1489.85 56.7474 1485.04 51.5391 Q1480.3 46.3308 1472.43 46.3308 Q1463.52 46.3308 1458.14 51.3655 Q1452.81 56.4002 1452 65.5436 L1489.96 65.4858 Z" fill="#bebebe" fill-rule="evenodd" fill-opacity="1" /><path clip-path="url(#clip070)" d="M 0 0 M1521.85 8.88884 L1538.17 30.5322 L1529.32 30.5322 L1510.45 8.88884 L1521.85 8.88884 Z" fill="#bebebe" fill-rule="evenodd" fill-opacity="1" /><polyline clip-path="url(#clip072)" style="stroke:#e69f00; stroke-width:4; stroke-opacity:1; fill:none" points="
  232.674,835.203 303.651,757.432 374.628,407.462 445.605,1366.64 516.582,951.859 587.559,1262.94 658.536,290.806 729.513,912.974 800.49,472.271 871.467,200.073 
  942.444,1172.21 1013.42,1327.75 1084.4,381.539 1155.37,783.355 1226.35,1444.41 1297.33,277.844 1368.31,1055.55 1439.28,187.111 1510.26,1327.75 1581.24,900.012 
  1652.21,1211.1 1723.19,316.729 1794.17,848.165 1865.14,1340.71 1936.12,731.508 2007.1,1340.71 2078.08,407.462 2149.05,1159.25 2220.03,1366.64 2291.01,238.958 
  
  "/>
<path clip-path="url(#clip070)" d="
M1986.58 314.777 L2280.03 314.777 L2280.03 193.817 L1986.58 193.817  Z
  " fill="#ffffff" fill-rule="evenodd" fill-opacity="1"/>
<polyline clip-path="url(#clip070)" style="stroke:#000000; stroke-width:4; stroke-opacity:1; fill:none" points="
  1986.58,314.777 2280.03,314.777 2280.03,193.817 1986.58,193.817 1986.58,314.777 
  "/>
<polyline clip-path="url(#clip070)" style="stroke:#e69f00; stroke-width:4; stroke-opacity:1; fill:none" points="
  2010.83,254.297 2156.28,254.297 
  "/>
<path clip-path="url(#clip070)" d="M 0 0 M2194.37 273.984 Q2192.56 278.614 2190.85 280.026 Q2189.14 281.438 2186.27 281.438 L2182.86 281.438 L2182.86 277.873 L2185.36 277.873 Q2187.12 277.873 2188.09 277.04 Q2189.07 276.206 2190.25 273.104 L2191.01 271.16 L2180.52 245.651 L2185.04 245.651 L2193.14 265.929 L2201.24 245.651 L2205.76 245.651 L2194.37 273.984 Z" fill="#bebebe" fill-rule="evenodd" fill-opacity="1" /><path clip-path="url(#clip070)" d="M 0 0 M2211.64 267.641 L2219.27 267.641 L2219.27 241.276 L2210.96 242.943 L2210.96 238.683 L2219.23 237.017 L2223.9 237.017 L2223.9 267.641 L2231.54 267.641 L2231.54 271.577 L2211.64 271.577 L2211.64 267.641 Z" fill="#bebebe" fill-rule="evenodd" fill-opacity="1" /></svg>
