<?xml version="1.0" encoding="utf-8"?>
<svg xmlns="http://www.w3.org/2000/svg" xmlns:xlink="http://www.w3.org/1999/xlink" width="600" height="400" viewBox="0 0 2400 1600">
<defs>
  <clipPath id="clip760">
    <rect x="0" y="0" width="2400" height="1600"/>
  </clipPath>
</defs>
<path clip-path="url(#clip760)" d="
M0 1600 L2400 1600 L2400 0 L0 0  Z
  " fill="#ffffff" fill-rule="evenodd" fill-opacity="1"/>
<defs>
  <clipPath id="clip761">
    <rect x="480" y="0" width="1681" height="1600"/>
  </clipPath>
</defs>
<path clip-path="url(#clip760)" d="
M185.846 1482.13 L2352.76 1482.13 L2352.76 149.392 L185.846 149.392  Z
  " fill="#ffffff" fill-rule="evenodd" fill-opacity="1"/>
<defs>
  <clipPath id="clip762">
    <rect x="185" y="149" width="2168" height="1334"/>
  </clipPath>
</defs>
<polyline clip-path="url(#clip762)" style="stroke:#000000; stroke-width:2; stroke-opacity:0.1; fill:none" points="
  677.543,1482.13 677.543,149.392 
  "/>
<polyline clip-path="url(#clip762)" style="stroke:#000000; stroke-width:2; stroke-opacity:0.1; fill:none" points="
  1215.5,1482.13 1215.5,149.392 
  "/>
<polyline clip-path="url(#clip762)" style="stroke:#000000; stroke-width:2; stroke-opacity:0.1; fill:none" points="
  1753.47,1482.13 1753.47,149.392 
  "/>
<polyline clip-path="url(#clip762)" style="stroke:#000000; stroke-width:2; stroke-opacity:0.1; fill:none" points="
  2291.43,1482.13 2291.43,149.392 
  "/>
<polyline clip-path="url(#clip760)" style="stroke:#000000; stroke-width:4; stroke-opacity:1; fill:none" points="
  185.846,1482.13 2352.76,1482.13 
  "/>
<polyline clip-path="url(#clip760)" style="stroke:#000000; stroke-width:4; stroke-opacity:1; fill:none" points="
  677.543,1482.13 677.543,1466.14 
  "/>
<polyline clip-path="url(#clip760)" style="stroke:#000000; stroke-width:4; stroke-opacity:1; fill:none" points="
  1215.5,1482.13 1215.5,1466.14 
  "/>
<polyline clip-path="url(#clip760)" style="stroke:#000000; stroke-width:4; stroke-opacity:1; fill:none" points="
  1753.47,1482.13 1753.47,1466.14 
  "/>
<polyline clip-path="url(#clip760)" style="stroke:#000000; stroke-width:4; stroke-opacity:1; fill:none" points="
  2291.43,1482.13 2291.43,1466.14 
  "/>
<path clip-path="url(#clip760)" d="M 0 0 M666.605 1509.1 L687.256 1509.1 L687.256 1513.53 L671.423 1513.53 L671.423 1523.06 Q672.569 1522.67 673.715 1522.49 Q674.861 1522.28 676.006 1522.28 Q682.517 1522.28 686.319 1525.85 Q690.121 1529.42 690.121 1535.51 Q690.121 1541.79 686.215 1545.28 Q682.308 1548.74 675.199 1548.74 Q672.751 1548.74 670.199 1548.32 Q667.673 1547.91 664.965 1547.07 L664.965 1541.79 Q667.309 1543.06 669.809 1543.69 Q672.309 1544.31 675.095 1544.31 Q679.6 1544.31 682.23 1541.94 Q684.861 1539.57 684.861 1535.51 Q684.861 1531.45 682.23 1529.08 Q679.6 1526.71 675.095 1526.71 Q672.986 1526.71 670.876 1527.18 Q668.793 1527.65 666.605 1528.64 L666.605 1509.1 Z" fill="#bebebe" fill-rule="evenodd" fill-opacity="1" /><path clip-path="url(#clip760)" d="M 0 0 M1189.49 1543.56 L1198.08 1543.56 L1198.08 1513.9 L1188.73 1515.77 L1188.73 1510.98 L1198.03 1509.1 L1203.29 1509.1 L1203.29 1543.56 L1211.88 1543.56 L1211.88 1547.98 L1189.49 1547.98 L1189.49 1543.56 Z" fill="#bebebe" fill-rule="evenodd" fill-opacity="1" /><path clip-path="url(#clip760)" d="M 0 0 M1228.84 1512.57 Q1224.78 1512.57 1222.72 1516.58 Q1220.69 1520.56 1220.69 1528.58 Q1220.69 1536.58 1222.72 1540.59 Q1224.78 1544.57 1228.84 1544.57 Q1232.93 1544.57 1234.96 1540.59 Q1237.01 1536.58 1237.01 1528.58 Q1237.01 1520.56 1234.96 1516.58 Q1232.93 1512.57 1228.84 1512.57 M1228.84 1508.4 Q1235.37 1508.4 1238.81 1513.58 Q1242.28 1518.74 1242.28 1528.58 Q1242.28 1538.4 1238.81 1543.58 Q1235.37 1548.74 1228.84 1548.74 Q1222.3 1548.74 1218.84 1543.58 Q1215.4 1538.4 1215.4 1528.58 Q1215.4 1518.74 1218.84 1513.58 Q1222.3 1508.4 1228.84 1508.4 Z" fill="#bebebe" fill-rule="evenodd" fill-opacity="1" /><path clip-path="url(#clip760)" d="M 0 0 M1728.01 1543.56 L1736.6 1543.56 L1736.6 1513.9 L1727.26 1515.77 L1727.26 1510.98 L1736.55 1509.1 L1741.81 1509.1 L1741.81 1543.56 L1750.41 1543.56 L1750.41 1547.98 L1728.01 1547.98 L1728.01 1543.56 Z" fill="#bebebe" fill-rule="evenodd" fill-opacity="1" /><path clip-path="url(#clip760)" d="M 0 0 M1756.16 1509.1 L1776.81 1509.1 L1776.81 1513.53 L1760.98 1513.53 L1760.98 1523.06 Q1762.13 1522.67 1763.27 1522.49 Q1764.42 1522.28 1765.56 1522.28 Q1772.07 1522.28 1775.88 1525.85 Q1779.68 1529.42 1779.68 1535.51 Q1779.68 1541.79 1775.77 1545.28 Q1771.86 1548.74 1764.76 1548.74 Q1762.31 1548.74 1759.76 1548.32 Q1757.23 1547.91 1754.52 1547.07 L1754.52 1541.79 Q1756.86 1543.06 1759.36 1543.69 Q1761.86 1544.31 1764.65 1544.31 Q1769.16 1544.31 1771.79 1541.94 Q1774.42 1539.57 1774.42 1535.51 Q1774.42 1531.45 1771.79 1529.08 Q1769.16 1526.71 1764.65 1526.71 Q1762.54 1526.71 1760.43 1527.18 Q1758.35 1527.65 1756.16 1528.64 L1756.16 1509.1 Z" fill="#bebebe" fill-rule="evenodd" fill-opacity="1" /><path clip-path="url(#clip760)" d="M 0 0 M2270.22 1543.56 L2288.58 1543.56 L2288.58 1547.98 L2263.89 1547.98 L2263.89 1543.56 Q2266.88 1540.46 2272.04 1535.25 Q2277.22 1530.02 2278.55 1528.5 Q2281.08 1525.67 2282.07 1523.71 Q2283.08 1521.73 2283.08 1519.83 Q2283.08 1516.73 2280.89 1514.78 Q2278.73 1512.83 2275.24 1512.83 Q2272.77 1512.83 2270.01 1513.69 Q2267.27 1514.55 2264.15 1516.29 L2264.15 1510.98 Q2267.33 1509.7 2270.09 1509.05 Q2272.85 1508.4 2275.14 1508.4 Q2281.18 1508.4 2284.77 1511.42 Q2288.37 1514.44 2288.37 1519.49 Q2288.37 1521.89 2287.46 1524.05 Q2286.57 1526.19 2284.2 1529.1 Q2283.55 1529.86 2280.06 1533.48 Q2276.57 1537.07 2270.22 1543.56 Z" fill="#bebebe" fill-rule="evenodd" fill-opacity="1" /><path clip-path="url(#clip760)" d="M 0 0 M2305.53 1512.57 Q2301.47 1512.57 2299.41 1516.58 Q2297.38 1520.56 2297.38 1528.58 Q2297.38 1536.58 2299.41 1540.59 Q2301.47 1544.57 2305.53 1544.57 Q2309.62 1544.57 2311.65 1540.59 Q2313.71 1536.58 2313.71 1528.58 Q2313.71 1520.56 2311.65 1516.58 Q2309.62 1512.57 2305.53 1512.57 M2305.53 1508.4 Q2312.07 1508.4 2315.5 1513.58 Q2318.97 1518.74 2318.97 1528.58 Q2318.97 1538.4 2315.5 1543.58 Q2312.07 1548.74 2305.53 1548.74 Q2298.99 1548.74 2295.53 1543.58 Q2292.09 1538.4 2292.09 1528.58 Q2292.09 1518.74 2295.53 1513.58 Q2298.99 1508.4 2305.53 1508.4 Z" fill="#bebebe" fill-rule="evenodd" fill-opacity="1" /><polyline clip-path="url(#clip762)" style="stroke:#000000; stroke-width:2; stroke-opacity:0.1; fill:none" points="
  185.846,1445.48 2352.76,1445.48 
  "/>
<polyline clip-path="url(#clip762)" style="stroke:#000000; stroke-width:2; stroke-opacity:0.1; fill:none" points="
  185.846,1128.33 2352.76,1128.33 
  "/>
<polyline clip-path="url(#clip762)" style="stroke:#000000; stroke-width:2; stroke-opacity:0.1; fill:none" points="
  185.846,811.184 2352.76,811.184 
  "/>
<polyline clip-path="url(#clip762)" style="stroke:#000000; stroke-width:2; stroke-opacity:0.1; fill:none" points="
  185.846,494.035 2352.76,494.035 
  "/>
<polyline clip-path="url(#clip762)" style="stroke:#000000; stroke-width:2; stroke-opacity:0.1; fill:none" points="
  185.846,176.887 2352.76,176.887 
  "/>
<polyline clip-path="url(#clip760)" style="stroke:#000000; stroke-width:4; stroke-opacity:1; fill:none" points="
  185.846,1482.13 185.846,149.392 
  "/>
<polyline clip-path="url(#clip760)" style="stroke:#000000; stroke-width:4; stroke-opacity:1; fill:none" points="
  185.846,1445.48 211.849,1445.48 
  "/>
<polyline clip-path="url(#clip760)" style="stroke:#000000; stroke-width:4; stroke-opacity:1; fill:none" points="
  185.846,1128.33 211.849,1128.33 
  "/>
<polyline clip-path="url(#clip760)" style="stroke:#000000; stroke-width:4; stroke-opacity:1; fill:none" points="
  185.846,811.184 211.849,811.184 
  "/>
<polyline clip-path="url(#clip760)" style="stroke:#000000; stroke-width:4; stroke-opacity:1; fill:none" points="
  185.846,494.035 211.849,494.035 
  "/>
<polyline clip-path="url(#clip760)" style="stroke:#000000; stroke-width:4; stroke-opacity:1; fill:none" points="
  185.846,176.887 211.849,176.887 
  "/>
<path clip-path="url(#clip760)" d="M 0 0 M64.4296 1429.5 Q60.3671 1429.5 58.3098 1433.52 Q56.2786 1437.5 56.2786 1445.52 Q56.2786 1453.52 58.3098 1457.53 Q60.3671 1461.51 64.4296 1461.51 Q68.5181 1461.51 70.5493 1457.53 Q72.6066 1453.52 72.6066 1445.52 Q72.6066 1437.5 70.5493 1433.52 Q68.5181 1429.5 64.4296 1429.5 M64.4296 1425.34 Q70.966 1425.34 74.4035 1430.52 Q77.867 1435.68 77.867 1445.52 Q77.867 1455.34 74.4035 1460.52 Q70.966 1465.68 64.4296 1465.68 Q57.8931 1465.68 54.4296 1460.52 Q50.9921 1455.34 50.9921 1445.52 Q50.9921 1435.68 54.4296 1430.52 Q57.8931 1425.34 64.4296 1425.34 Z" fill="#bebebe" fill-rule="evenodd" fill-opacity="1" /><path clip-path="url(#clip760)" d="M 0 0 M83.5701 1458.31 L89.0648 1458.31 L89.0648 1464.92 L83.5701 1464.92 L83.5701 1458.31 Z" fill="#bebebe" fill-rule="evenodd" fill-opacity="1" /><path clip-path="url(#clip760)" d="M 0 0 M106.018 1429.5 Q101.955 1429.5 99.8981 1433.52 Q97.8669 1437.5 97.8669 1445.52 Q97.8669 1453.52 99.8981 1457.53 Q101.955 1461.51 106.018 1461.51 Q110.106 1461.51 112.138 1457.53 Q114.195 1453.52 114.195 1445.52 Q114.195 1437.5 112.138 1433.52 Q110.106 1429.5 106.018 1429.5 M106.018 1425.34 Q112.554 1425.34 115.992 1430.52 Q119.455 1435.68 119.455 1445.52 Q119.455 1455.34 115.992 1460.52 Q112.554 1465.68 106.018 1465.68 Q99.4814 1465.68 96.0179 1460.52 Q92.5804 1455.34 92.5804 1445.52 Q92.5804 1435.68 96.0179 1430.52 Q99.4814 1425.34 106.018 1425.34 Z" fill="#bebebe" fill-rule="evenodd" fill-opacity="1" /><path clip-path="url(#clip760)" d="M 0 0 M136.408 1429.5 Q132.346 1429.5 130.289 1433.52 Q128.257 1437.5 128.257 1445.52 Q128.257 1453.52 130.289 1457.53 Q132.346 1461.51 136.408 1461.51 Q140.497 1461.51 142.528 1457.53 Q144.585 1453.52 144.585 1445.52 Q144.585 1437.5 142.528 1433.52 Q140.497 1429.5 136.408 1429.5 M136.408 1425.34 Q142.945 1425.34 146.382 1430.52 Q149.846 1435.68 149.846 1445.52 Q149.846 1455.34 146.382 1460.52 Q142.945 1465.68 136.408 1465.68 Q129.872 1465.68 126.408 1460.52 Q122.971 1455.34 122.971 1445.52 Q122.971 1435.68 126.408 1430.52 Q129.872 1425.34 136.408 1425.34 Z" fill="#bebebe" fill-rule="evenodd" fill-opacity="1" /><path clip-path="url(#clip760)" d="M 0 0 M67.3462 1112.36 Q63.2837 1112.36 61.2264 1116.37 Q59.1952 1120.35 59.1952 1128.37 Q59.1952 1136.37 61.2264 1140.38 Q63.2837 1144.36 67.3462 1144.36 Q71.4347 1144.36 73.466 1140.38 Q75.5232 1136.37 75.5232 1128.37 Q75.5232 1120.35 73.466 1116.37 Q71.4347 1112.36 67.3462 1112.36 M67.3462 1108.19 Q73.8826 1108.19 77.3201 1113.37 Q80.7836 1118.53 80.7836 1128.37 Q80.7836 1138.19 77.3201 1143.37 Q73.8826 1148.53 67.3462 1148.53 Q60.8098 1148.53 57.3463 1143.37 Q53.9088 1138.19 53.9088 1128.37 Q53.9088 1118.53 57.3463 1113.37 Q60.8098 1108.19 67.3462 1108.19 Z" fill="#bebebe" fill-rule="evenodd" fill-opacity="1" /><path clip-path="url(#clip760)" d="M 0 0 M86.4867 1141.16 L91.9815 1141.16 L91.9815 1147.77 L86.4867 1147.77 L86.4867 1141.16 Z" fill="#bebebe" fill-rule="evenodd" fill-opacity="1" /><path clip-path="url(#clip760)" d="M 0 0 M102.216 1143.35 L120.575 1143.35 L120.575 1147.77 L95.8877 1147.77 L95.8877 1143.35 Q98.8825 1140.25 104.039 1135.04 Q109.221 1129.8 110.549 1128.29 Q113.075 1125.46 114.065 1123.5 Q115.08 1121.52 115.08 1119.62 Q115.08 1116.52 112.893 1114.57 Q110.731 1112.62 107.242 1112.62 Q104.768 1112.62 102.007 1113.48 Q99.2731 1114.34 96.1481 1116.08 L96.1481 1110.77 Q99.3252 1109.49 102.086 1108.84 Q104.846 1108.19 107.138 1108.19 Q113.179 1108.19 116.773 1111.21 Q120.367 1114.23 120.367 1119.28 Q120.367 1121.68 119.455 1123.84 Q118.57 1125.98 116.2 1128.89 Q115.549 1129.65 112.06 1133.27 Q108.57 1136.86 102.216 1143.35 Z" fill="#bebebe" fill-rule="evenodd" fill-opacity="1" /><path clip-path="url(#clip760)" d="M 0 0 M126.33 1108.89 L146.981 1108.89 L146.981 1113.32 L131.148 1113.32 L131.148 1122.85 Q132.294 1122.46 133.44 1122.28 Q134.585 1122.07 135.731 1122.07 Q142.242 1122.07 146.044 1125.64 Q149.846 1129.21 149.846 1135.3 Q149.846 1141.57 145.94 1145.06 Q142.033 1148.53 134.924 1148.53 Q132.476 1148.53 129.924 1148.11 Q127.398 1147.69 124.69 1146.86 L124.69 1141.57 Q127.033 1142.85 129.533 1143.48 Q132.033 1144.1 134.82 1144.1 Q139.325 1144.1 141.955 1141.73 Q144.585 1139.36 144.585 1135.3 Q144.585 1131.24 141.955 1128.87 Q139.325 1126.5 134.82 1126.5 Q132.71 1126.5 130.601 1126.97 Q128.518 1127.43 126.33 1128.42 L126.33 1108.89 Z" fill="#bebebe" fill-rule="evenodd" fill-opacity="1" /><path clip-path="url(#clip760)" d="M 0 0 M65.5493 795.207 Q61.4869 795.207 59.4296 799.218 Q57.3983 803.202 57.3983 811.223 Q57.3983 819.218 59.4296 823.228 Q61.4869 827.213 65.5493 827.213 Q69.6379 827.213 71.6691 823.228 Q73.7264 819.218 73.7264 811.223 Q73.7264 803.202 71.6691 799.218 Q69.6379 795.207 65.5493 795.207 M65.5493 791.041 Q72.0858 791.041 75.5232 796.223 Q78.9868 801.379 78.9868 811.223 Q78.9868 821.041 75.5232 826.223 Q72.0858 831.379 65.5493 831.379 Q59.0129 831.379 55.5494 826.223 Q52.1119 821.041 52.1119 811.223 Q52.1119 801.379 55.5494 796.223 Q59.0129 791.041 65.5493 791.041 Z" fill="#bebebe" fill-rule="evenodd" fill-opacity="1" /><path clip-path="url(#clip760)" d="M 0 0 M84.6899 824.009 L90.1846 824.009 L90.1846 830.624 L84.6899 830.624 L84.6899 824.009 Z" fill="#bebebe" fill-rule="evenodd" fill-opacity="1" /><path clip-path="url(#clip760)" d="M 0 0 M95.9398 791.744 L116.591 791.744 L116.591 796.171 L100.757 796.171 L100.757 805.702 Q101.903 805.312 103.049 805.129 Q104.195 804.921 105.341 804.921 Q111.851 804.921 115.653 808.489 Q119.455 812.056 119.455 818.15 Q119.455 824.426 115.549 827.916 Q111.643 831.379 104.534 831.379 Q102.086 831.379 99.5335 830.963 Q97.0075 830.546 94.2992 829.713 L94.2992 824.426 Q96.6429 825.702 99.1429 826.327 Q101.643 826.952 104.429 826.952 Q108.935 826.952 111.565 824.582 Q114.195 822.213 114.195 818.15 Q114.195 814.088 111.565 811.718 Q108.935 809.348 104.429 809.348 Q102.32 809.348 100.211 809.817 Q98.1273 810.286 95.9398 811.275 L95.9398 791.744 Z" fill="#bebebe" fill-rule="evenodd" fill-opacity="1" /><path clip-path="url(#clip760)" d="M 0 0 M136.408 795.207 Q132.346 795.207 130.289 799.218 Q128.257 803.202 128.257 811.223 Q128.257 819.218 130.289 823.228 Q132.346 827.213 136.408 827.213 Q140.497 827.213 142.528 823.228 Q144.585 819.218 144.585 811.223 Q144.585 803.202 142.528 799.218 Q140.497 795.207 136.408 795.207 M136.408 791.041 Q142.945 791.041 146.382 796.223 Q149.846 801.379 149.846 811.223 Q149.846 821.041 146.382 826.223 Q142.945 831.379 136.408 831.379 Q129.872 831.379 126.408 826.223 Q122.971 821.041 122.971 811.223 Q122.971 801.379 126.408 796.223 Q129.872 791.041 136.408 791.041 Z" fill="#bebebe" fill-rule="evenodd" fill-opacity="1" /><path clip-path="url(#clip760)" d="M 0 0 M66.565 478.059 Q62.5025 478.059 60.4452 482.069 Q58.414 486.054 58.414 494.074 Q58.414 502.069 60.4452 506.08 Q62.5025 510.064 66.565 510.064 Q70.6535 510.064 72.6847 506.08 Q74.742 502.069 74.742 494.074 Q74.742 486.054 72.6847 482.069 Q70.6535 478.059 66.565 478.059 M66.565 473.892 Q73.1014 473.892 76.5389 479.074 Q80.0024 484.231 80.0024 494.074 Q80.0024 503.892 76.5389 509.074 Q73.1014 514.231 66.565 514.231 Q60.0285 514.231 56.565 509.074 Q53.1275 503.892 53.1275 494.074 Q53.1275 484.231 56.565 479.074 Q60.0285 473.892 66.565 473.892 Z" fill="#bebebe" fill-rule="evenodd" fill-opacity="1" /><path clip-path="url(#clip760)" d="M 0 0 M85.7055 506.861 L91.2002 506.861 L91.2002 513.475 L85.7055 513.475 L85.7055 506.861 Z" fill="#bebebe" fill-rule="evenodd" fill-opacity="1" /><path clip-path="url(#clip760)" d="M 0 0 M95.5752 474.595 L120.575 474.595 L120.575 476.835 L106.461 513.475 L100.966 513.475 L114.247 479.022 L95.5752 479.022 L95.5752 474.595 Z" fill="#bebebe" fill-rule="evenodd" fill-opacity="1" /><path clip-path="url(#clip760)" d="M 0 0 M126.33 474.595 L146.981 474.595 L146.981 479.022 L131.148 479.022 L131.148 488.554 Q132.294 488.163 133.44 487.981 Q134.585 487.772 135.731 487.772 Q142.242 487.772 146.044 491.34 Q149.846 494.908 149.846 501.001 Q149.846 507.277 145.94 510.767 Q142.033 514.231 134.924 514.231 Q132.476 514.231 129.924 513.814 Q127.398 513.397 124.69 512.564 L124.69 507.277 Q127.033 508.553 129.533 509.178 Q132.033 509.803 134.82 509.803 Q139.325 509.803 141.955 507.434 Q144.585 505.064 144.585 501.001 Q144.585 496.939 141.955 494.569 Q139.325 492.199 134.82 492.199 Q132.71 492.199 130.601 492.668 Q128.518 493.137 126.33 494.126 L126.33 474.595 Z" fill="#bebebe" fill-rule="evenodd" fill-opacity="1" /><path clip-path="url(#clip760)" d="M 0 0 M55.4713 191.9 L64.065 191.9 L64.065 162.238 L54.7161 164.113 L54.7161 159.322 L64.0129 157.447 L69.2733 157.447 L69.2733 191.9 L77.867 191.9 L77.867 196.327 L55.4713 196.327 L55.4713 191.9 Z" fill="#bebebe" fill-rule="evenodd" fill-opacity="1" /><path clip-path="url(#clip760)" d="M 0 0 M83.5701 189.712 L89.0648 189.712 L89.0648 196.327 L83.5701 196.327 L83.5701 189.712 Z" fill="#bebebe" fill-rule="evenodd" fill-opacity="1" /><path clip-path="url(#clip760)" d="M 0 0 M106.018 160.91 Q101.955 160.91 99.8981 164.921 Q97.8669 168.905 97.8669 176.926 Q97.8669 184.92 99.8981 188.931 Q101.955 192.915 106.018 192.915 Q110.106 192.915 112.138 188.931 Q114.195 184.92 114.195 176.926 Q114.195 168.905 112.138 164.921 Q110.106 160.91 106.018 160.91 M106.018 156.744 Q112.554 156.744 115.992 161.926 Q119.455 167.082 119.455 176.926 Q119.455 186.743 115.992 191.926 Q112.554 197.082 106.018 197.082 Q99.4814 197.082 96.0179 191.926 Q92.5804 186.743 92.5804 176.926 Q92.5804 167.082 96.0179 161.926 Q99.4814 156.744 106.018 156.744 Z" fill="#bebebe" fill-rule="evenodd" fill-opacity="1" /><path clip-path="url(#clip760)" d="M 0 0 M136.408 160.91 Q132.346 160.91 130.289 164.921 Q128.257 168.905 128.257 176.926 Q128.257 184.92 130.289 188.931 Q132.346 192.915 136.408 192.915 Q140.497 192.915 142.528 188.931 Q144.585 184.92 144.585 176.926 Q144.585 168.905 142.528 164.921 Q140.497 160.91 136.408 160.91 M136.408 156.744 Q142.945 156.744 146.382 161.926 Q149.846 167.082 149.846 176.926 Q149.846 186.743 146.382 191.926 Q142.945 197.082 136.408 197.082 Q129.872 197.082 126.408 191.926 Q122.971 186.743 122.971 176.926 Q122.971 167.082 126.408 161.926 Q129.872 156.744 136.408 156.744 Z" fill="#bebebe" fill-rule="evenodd" fill-opacity="1" /><path clip-path="url(#clip760)" d="M 0 0 M963.429 20.1156 L963.429 31.516 Q956.774 28.3332 950.871 26.7707 Q944.968 25.2082 939.47 25.2082 Q929.922 25.2082 924.714 28.9119 Q919.563 32.6156 919.563 39.4442 Q919.563 45.1734 922.977 48.1247 Q926.45 51.0182 936.056 52.8122 L943.116 54.259 Q956.195 56.7474 962.387 63.0552 Q968.637 69.3052 968.637 79.8375 Q968.637 92.3953 960.188 98.8768 Q951.797 105.358 935.535 105.358 Q929.401 105.358 922.457 103.969 Q915.57 102.58 908.163 99.8606 L908.163 87.8236 Q915.281 91.8166 922.109 93.8421 Q928.938 95.8675 935.535 95.8675 Q945.547 95.8675 950.987 91.9324 Q956.426 87.9972 956.426 80.7056 Q956.426 74.3399 952.491 70.7519 Q948.614 67.164 939.702 65.37 L932.584 63.9811 Q919.505 61.377 913.66 55.8215 Q907.816 50.2659 907.816 40.3702 Q907.816 28.9119 915.859 22.3147 Q923.961 15.7175 938.139 15.7175 Q944.216 15.7175 950.524 16.817 Q956.831 17.9166 963.429 20.1156 Z" fill="#bebebe" fill-rule="evenodd" fill-opacity="1" /><path clip-path="url(#clip760)" d="M 0 0 M1035.25 68.6107 L1035.25 73.819 L986.287 73.819 Q986.982 84.8144 992.884 90.6014 Q998.845 96.3305 1009.44 96.3305 Q1015.57 96.3305 1021.3 94.8259 Q1027.09 93.3213 1032.76 90.312 L1032.76 100.381 Q1027.03 102.812 1021.01 104.085 Q1014.99 105.358 1008.8 105.358 Q993.29 105.358 984.204 96.3305 Q975.176 87.3028 975.176 71.9093 Q975.176 55.9951 983.741 46.678 Q992.364 37.303 1006.95 37.303 Q1020.03 37.303 1027.61 45.7521 Q1035.25 54.1432 1035.25 68.6107 M1024.6 65.4858 Q1024.48 56.7474 1019.68 51.5391 Q1014.93 46.3308 1007.06 46.3308 Q998.151 46.3308 992.769 51.3655 Q987.445 56.4002 986.635 65.5436 L1024.6 65.4858 Z" fill="#bebebe" fill-rule="evenodd" fill-opacity="1" /><path clip-path="url(#clip760)" d="M 0 0 M1083.97 48.8192 Q1082.18 47.7775 1080.04 47.3146 Q1077.95 46.7937 1075.41 46.7937 Q1066.38 46.7937 1061.52 52.6965 Q1056.72 58.5414 1056.72 69.5367 L1056.72 103.68 L1046.01 103.68 L1046.01 38.8655 L1056.72 38.8655 L1056.72 48.9349 Q1060.07 43.0322 1065.45 40.1965 Q1070.84 37.303 1078.53 37.303 Q1079.63 37.303 1080.96 37.4767 Q1082.29 37.5924 1083.91 37.8817 L1083.97 48.8192 Z" fill="#bebebe" fill-rule="evenodd" fill-opacity="1" /><path clip-path="url(#clip760)" d="M 0 0 M1095.14 38.8655 L1105.79 38.8655 L1105.79 103.68 L1095.14 103.68 L1095.14 38.8655 M1095.14 13.6342 L1105.79 13.6342 L1105.79 27.1179 L1095.14 27.1179 L1095.14 13.6342 Z" fill="#bebebe" fill-rule="evenodd" fill-opacity="1" /><path clip-path="url(#clip760)" d="M 0 0 M1172.4 68.6107 L1172.4 73.819 L1123.44 73.819 Q1124.13 84.8144 1130.04 90.6014 Q1136 96.3305 1146.59 96.3305 Q1152.72 96.3305 1158.45 94.8259 Q1164.24 93.3213 1169.91 90.312 L1169.91 100.381 Q1164.18 102.812 1158.16 104.085 Q1152.14 105.358 1145.95 105.358 Q1130.44 105.358 1121.36 96.3305 Q1112.33 87.3028 1112.33 71.9093 Q1112.33 55.9951 1120.89 46.678 Q1129.52 37.303 1144.1 37.303 Q1157.18 37.303 1164.76 45.7521 Q1172.4 54.1432 1172.4 68.6107 M1161.75 65.4858 Q1161.63 56.7474 1156.83 51.5391 Q1152.09 46.3308 1144.21 46.3308 Q1135.3 46.3308 1129.92 51.3655 Q1124.6 56.4002 1123.79 65.5436 L1161.75 65.4858 Z" fill="#bebebe" fill-rule="evenodd" fill-opacity="1" /><path clip-path="url(#clip760)" d="M 0 0 M1231.31 17.28 L1231.31 49.3979 L1221.47 49.3979 L1221.47 17.28 L1231.31 17.28 Z" fill="#bebebe" fill-rule="evenodd" fill-opacity="1" /><path clip-path="url(#clip760)" d="M 0 0 M1283.8 40.7752 L1283.8 50.8446 Q1279.28 48.5298 1274.42 47.3724 Q1269.56 46.215 1264.35 46.215 Q1256.42 46.215 1252.43 48.6456 Q1248.5 51.0761 1248.5 55.9372 Q1248.5 59.6409 1251.33 61.7821 Q1254.17 63.8654 1262.73 65.7751 L1266.38 66.5853 Q1277.72 69.0158 1282.47 73.4718 Q1287.27 77.87 1287.27 85.7982 Q1287.27 94.8259 1280.09 100.092 Q1272.98 105.358 1260.48 105.358 Q1255.27 105.358 1249.6 104.317 Q1243.98 103.333 1237.73 101.307 L1237.73 90.312 Q1243.64 93.3791 1249.36 94.9416 Q1255.09 96.4462 1260.71 96.4462 Q1268.23 96.4462 1272.28 93.9 Q1276.33 91.2958 1276.33 86.6083 Q1276.33 82.2681 1273.38 79.9533 Q1270.49 77.6385 1260.59 75.4973 L1256.89 74.6292 Q1246.99 72.5459 1242.59 68.2635 Q1238.2 63.9233 1238.2 56.4002 Q1238.2 47.2567 1244.68 42.2799 Q1251.16 37.303 1263.08 37.303 Q1268.98 37.303 1274.19 38.1711 Q1279.4 39.0391 1283.8 40.7752 Z" fill="#bebebe" fill-rule="evenodd" fill-opacity="1" /><path clip-path="url(#clip760)" d="M 0 0 M1345.08 41.3539 L1345.08 51.3076 Q1340.57 48.8192 1336 47.6039 Q1331.48 46.3308 1326.85 46.3308 Q1316.49 46.3308 1310.76 52.928 Q1305.04 59.4673 1305.04 71.3306 Q1305.04 83.194 1310.76 89.7912 Q1316.49 96.3305 1326.85 96.3305 Q1331.48 96.3305 1336 95.1152 Q1340.57 93.8421 1345.08 91.3537 L1345.08 101.192 Q1340.63 103.275 1335.82 104.317 Q1331.08 105.358 1325.7 105.358 Q1311.05 105.358 1302.43 96.1569 Q1293.81 86.9556 1293.81 71.3306 Q1293.81 55.4742 1302.49 46.3886 Q1311.23 37.303 1326.39 37.303 Q1331.31 37.303 1336 38.3447 Q1340.68 39.3285 1345.08 41.3539 Z" fill="#bebebe" fill-rule="evenodd" fill-opacity="1" /><path clip-path="url(#clip760)" d="M 0 0 M1385.71 71.0992 Q1372.8 71.0992 1367.82 74.0505 Q1362.85 77.0019 1362.85 84.1199 Q1362.85 89.7912 1366.55 93.1476 Q1370.31 96.4462 1376.74 96.4462 Q1385.59 96.4462 1390.91 90.1963 Q1396.3 83.8884 1396.3 73.4718 L1396.3 71.0992 L1385.71 71.0992 M1406.94 66.701 L1406.94 103.68 L1396.3 103.68 L1396.3 93.8421 Q1392.65 99.7448 1387.21 102.58 Q1381.77 105.358 1373.9 105.358 Q1363.95 105.358 1358.04 99.8027 Q1352.2 94.1893 1352.2 84.8144 Q1352.2 73.8769 1359.49 68.3214 Q1366.84 62.7659 1381.37 62.7659 L1396.3 62.7659 L1396.3 61.7242 Q1396.3 54.3747 1391.44 50.3817 Q1386.63 46.3308 1377.89 46.3308 Q1372.34 46.3308 1367.07 47.6618 Q1361.81 48.9928 1356.95 51.6548 L1356.95 41.8169 Q1362.79 39.56 1368.29 38.4604 Q1373.79 37.303 1378.99 37.303 Q1393.06 37.303 1400 44.5947 Q1406.94 51.8863 1406.94 66.701 Z" fill="#bebebe" fill-rule="evenodd" fill-opacity="1" /><path clip-path="url(#clip760)" d="M 0 0 M1428.65 20.4629 L1428.65 38.8655 L1450.58 38.8655 L1450.58 47.141 L1428.65 47.141 L1428.65 82.3259 Q1428.65 90.2541 1430.79 92.5111 Q1432.99 94.768 1439.64 94.768 L1450.58 94.768 L1450.58 103.68 L1439.64 103.68 Q1427.32 103.68 1422.63 99.1083 Q1417.94 94.4787 1417.94 82.3259 L1417.94 47.141 L1410.13 47.141 L1410.13 38.8655 L1417.94 38.8655 L1417.94 20.4629 L1428.65 20.4629 Z" fill="#bebebe" fill-rule="evenodd" fill-opacity="1" /><path clip-path="url(#clip760)" d="M 0 0 M1472.28 20.4629 L1472.28 38.8655 L1494.21 38.8655 L1494.21 47.141 L1472.28 47.141 L1472.28 82.3259 Q1472.28 90.2541 1474.42 92.5111 Q1476.62 94.768 1483.28 94.768 L1494.21 94.768 L1494.21 103.68 L1483.28 103.68 Q1470.95 103.68 1466.26 99.1083 Q1461.57 94.4787 1461.57 82.3259 L1461.57 47.141 L1453.76 47.141 L1453.76 38.8655 L1461.57 38.8655 L1461.57 20.4629 L1472.28 20.4629 Z" fill="#bebebe" fill-rule="evenodd" fill-opacity="1" /><path clip-path="url(#clip760)" d="M 0 0 M1560.82 68.6107 L1560.82 73.819 L1511.86 73.819 Q1512.56 84.8144 1518.46 90.6014 Q1524.42 96.3305 1535.01 96.3305 Q1541.15 96.3305 1546.87 94.8259 Q1552.66 93.3213 1558.33 90.312 L1558.33 100.381 Q1552.6 102.812 1546.59 104.085 Q1540.57 105.358 1534.37 105.358 Q1518.87 105.358 1509.78 96.3305 Q1500.75 87.3028 1500.75 71.9093 Q1500.75 55.9951 1509.32 46.678 Q1517.94 37.303 1532.52 37.303 Q1545.6 37.303 1553.18 45.7521 Q1560.82 54.1432 1560.82 68.6107 M1550.17 65.4858 Q1550.06 56.7474 1545.25 51.5391 Q1540.51 46.3308 1532.64 46.3308 Q1523.73 46.3308 1518.34 51.3655 Q1513.02 56.4002 1512.21 65.5436 L1550.17 65.4858 Z" fill="#bebebe" fill-rule="evenodd" fill-opacity="1" /><path clip-path="url(#clip760)" d="M 0 0 M1609.55 48.8192 Q1607.75 47.7775 1605.61 47.3146 Q1603.53 46.7937 1600.98 46.7937 Q1591.96 46.7937 1587.09 52.6965 Q1582.29 58.5414 1582.29 69.5367 L1582.29 103.68 L1571.59 103.68 L1571.59 38.8655 L1582.29 38.8655 L1582.29 48.9349 Q1585.65 43.0322 1591.03 40.1965 Q1596.41 37.303 1604.11 37.303 Q1605.21 37.303 1606.54 37.4767 Q1607.87 37.5924 1609.49 37.8817 L1609.55 48.8192 Z" fill="#bebebe" fill-rule="evenodd" fill-opacity="1" /><path clip-path="url(#clip760)" d="M 0 0 M1630.79 17.28 L1630.79 49.3979 L1620.95 49.3979 L1620.95 17.28 L1630.79 17.28 Z" fill="#bebebe" fill-rule="evenodd" fill-opacity="1" /><path clip-path="url(#clip762)" d="M231.173 417.18 L231.173 449.18 L263.173 449.18 L263.173 417.18 L231.173 417.18 Z" fill="#e69f00" fill-rule="evenodd" fill-opacity="1" stroke="#000000" stroke-opacity="1" stroke-width="3.2"/>
<path clip-path="url(#clip762)" d="M338.766 1323.1 L338.766 1355.1 L370.766 1355.1 L370.766 1323.1 L338.766 1323.1 Z" fill="#e69f00" fill-rule="evenodd" fill-opacity="1" stroke="#000000" stroke-opacity="1" stroke-width="3.2"/>
<path clip-path="url(#clip762)" d="M446.358 549.217 L446.358 581.217 L478.358 581.217 L478.358 549.217 L446.358 549.217 Z" fill="#e69f00" fill-rule="evenodd" fill-opacity="1" stroke="#000000" stroke-opacity="1" stroke-width="3.2"/>
<path clip-path="url(#clip762)" d="M553.95 935.938 L553.95 967.938 L585.95 967.938 L585.95 935.938 L553.95 935.938 Z" fill="#e69f00" fill-rule="evenodd" fill-opacity="1" stroke="#000000" stroke-opacity="1" stroke-width="3.2"/>
<path clip-path="url(#clip762)" d="M661.543 931.372 L661.543 963.372 L693.543 963.372 L693.543 931.372 L661.543 931.372 Z" fill="#e69f00" fill-rule="evenodd" fill-opacity="1" stroke="#000000" stroke-opacity="1" stroke-width="3.2"/>
<path clip-path="url(#clip762)" d="M769.135 1261.52 L769.135 1293.52 L801.135 1293.52 L801.135 1261.52 L769.135 1261.52 Z" fill="#e69f00" fill-rule="evenodd" fill-opacity="1" stroke="#000000" stroke-opacity="1" stroke-width="3.2"/>
<path clip-path="url(#clip762)" d="M876.728 556.584 L876.728 588.584 L908.728 588.584 L908.728 556.584 L876.728 556.584 Z" fill="#e69f00" fill-rule="evenodd" fill-opacity="1" stroke="#000000" stroke-opacity="1" stroke-width="3.2"/>
<path clip-path="url(#clip762)" d="M984.32 778.583 L984.32 810.583 L1016.32 810.583 L1016.32 778.583 L984.32 778.583 Z" fill="#e69f00" fill-rule="evenodd" fill-opacity="1" stroke="#000000" stroke-opacity="1" stroke-width="3.2"/>
<path clip-path="url(#clip762)" d="M1091.91 473.363 L1091.91 505.363 L1123.91 505.363 L1123.91 473.363 L1091.91 473.363 Z" fill="#e69f00" fill-rule="evenodd" fill-opacity="1" stroke="#000000" stroke-opacity="1" stroke-width="3.2"/>
<path clip-path="url(#clip762)" d="M1199.5 298.848 L1199.5 330.848 L1231.5 330.848 L1231.5 298.848 L1199.5 298.848 Z" fill="#e69f00" fill-rule="evenodd" fill-opacity="1" stroke="#000000" stroke-opacity="1" stroke-width="3.2"/>
<path clip-path="url(#clip762)" d="M1307.1 1428.41 L1307.1 1460.41 L1339.1 1460.41 L1339.1 1428.41 L1307.1 1428.41 Z" fill="#e69f00" fill-rule="evenodd" fill-opacity="1" stroke="#000000" stroke-opacity="1" stroke-width="3.2"/>
<path clip-path="url(#clip762)" d="M1414.69 433.507 L1414.69 465.507 L1446.69 465.507 L1446.69 433.507 L1414.69 433.507 Z" fill="#e69f00" fill-rule="evenodd" fill-opacity="1" stroke="#000000" stroke-opacity="1" stroke-width="3.2"/>
<path clip-path="url(#clip762)" d="M1522.28 262.602 L1522.28 294.602 L1554.28 294.602 L1554.28 262.602 L1522.28 262.602 Z" fill="#e69f00" fill-rule="evenodd" fill-opacity="1" stroke="#000000" stroke-opacity="1" stroke-width="3.2"/>
<path clip-path="url(#clip762)" d="M1629.87 1230.04 L1629.87 1262.04 L1661.87 1262.04 L1661.87 1230.04 L1629.87 1230.04 Z" fill="#e69f00" fill-rule="evenodd" fill-opacity="1" stroke="#000000" stroke-opacity="1" stroke-width="3.2"/>
<path clip-path="url(#clip762)" d="M1737.47 804.746 L1737.47 836.746 L1769.47 836.746 L1769.47 804.746 L1737.47 804.746 Z" fill="#e69f00" fill-rule="evenodd" fill-opacity="1" stroke="#000000" stroke-opacity="1" stroke-width="3.2"/>
<path clip-path="url(#clip762)" d="M1845.06 665.164 L1845.06 697.164 L1877.06 697.164 L1877.06 665.164 L1845.06 665.164 Z" fill="#e69f00" fill-rule="evenodd" fill-opacity="1" stroke="#000000" stroke-opacity="1" stroke-width="3.2"/>
<path clip-path="url(#clip762)" d="M1952.65 1191.51 L1952.65 1223.51 L1984.65 1223.51 L1984.65 1191.51 L1952.65 1191.51 Z" fill="#e69f00" fill-rule="evenodd" fill-opacity="1" stroke="#000000" stroke-opacity="1" stroke-width="3.2"/>
<path clip-path="url(#clip762)" d="M2060.24 714.347 L2060.24 746.347 L2092.24 746.347 L2092.24 714.347 L2060.24 714.347 Z" fill="#e69f00" fill-rule="evenodd" fill-opacity="1" stroke="#000000" stroke-opacity="1" stroke-width="3.2"/>
<path clip-path="url(#clip762)" d="M2167.84 871.272 L2167.84 903.272 L2199.84 903.272 L2199.84 871.272 L2167.84 871.272 Z" fill="#e69f00" fill-rule="evenodd" fill-opacity="1" stroke="#000000" stroke-opacity="1" stroke-width="3.2"/>
<path clip-path="url(#clip762)" d="M2275.43 454.966 L2275.43 486.966 L2307.43 486.966 L2307.43 454.966 L2275.43 454.966 Z" fill="#e69f00" fill-rule="evenodd" fill-opacity="1" stroke="#000000" stroke-opacity="1" stroke-width="3.2"/>
<circle clip-path="url(#clip762)" cx="247.173" cy="1324.42" r="14" fill="#56b4e9" fill-rule="evenodd" fill-opacity="1" stroke="#000000" stroke-opacity="1" stroke-width="3.2"/>
<circle clip-path="url(#clip762)" cx="354.766" cy="1074.78" r="14" fill="#56b4e9" fill-rule="evenodd" fill-opacity="1" stroke="#000000" stroke-opacity="1" stroke-width="3.2"/>
<circle clip-path="url(#clip762)" cx="462.358" cy="617.839" r="14" fill="#56b4e9" fill-rule="evenodd" fill-opacity="1" stroke="#000000" stroke-opacity="1" stroke-width="3.2"/>
<circle clip-path="url(#clip762)" cx="569.95" cy="1072.86" r="14" fill="#56b4e9" fill-rule="evenodd" fill-opacity="1" stroke="#000000" stroke-opacity="1" stroke-width="3.2"/>
<circle clip-path="url(#clip762)" cx="677.543" cy="364.333" r="14" fill="#56b4e9" fill-rule="evenodd" fill-opacity="1" stroke="#000000" stroke-opacity="1" stroke-width="3.2"/>
<circle clip-path="url(#clip762)" cx="785.135" cy="923.895" r="14" fill="#56b4e9" fill-rule="evenodd" fill-opacity="1" stroke="#000000" stroke-opacity="1" stroke-width="3.2"/>
<circle clip-path="url(#clip762)" cx="892.728" cy="824.563" r="14" fill="#56b4e9" fill-rule="evenodd" fill-opacity="1" stroke="#000000" stroke-opacity="1" stroke-width="3.2"/>
<circle clip-path="url(#clip762)" cx="1000.32" cy="701.515" r="14" fill="#56b4e9" fill-rule="evenodd" fill-opacity="1" stroke="#000000" stroke-opacity="1" stroke-width="3.2"/>
<circle clip-path="url(#clip762)" cx="1107.91" cy="342.582" r="14" fill="#56b4e9" fill-rule="evenodd" fill-opacity="1" stroke="#000000" stroke-opacity="1" stroke-width="3.2"/>
<circle clip-path="url(#clip762)" cx="1215.5" cy="720.347" r="14" fill="#56b4e9" fill-rule="evenodd" fill-opacity="1" stroke="#000000" stroke-opacity="1" stroke-width="3.2"/>
<circle clip-path="url(#clip762)" cx="1323.1" cy="639.525" r="14" fill="#56b4e9" fill-rule="evenodd" fill-opacity="1" stroke="#000000" stroke-opacity="1" stroke-width="3.2"/>
<circle clip-path="url(#clip762)" cx="1430.69" cy="1379.76" r="14" fill="#56b4e9" fill-rule="evenodd" fill-opacity="1" stroke="#000000" stroke-opacity="1" stroke-width="3.2"/>
<circle clip-path="url(#clip762)" cx="1538.28" cy="1401.57" r="14" fill="#56b4e9" fill-rule="evenodd" fill-opacity="1" stroke="#000000" stroke-opacity="1" stroke-width="3.2"/>
<circle clip-path="url(#clip762)" cx="1645.87" cy="1042.05" r="14" fill="#56b4e9" fill-rule="evenodd" fill-opacity="1" stroke="#000000" stroke-opacity="1" stroke-width="3.2"/>
<circle clip-path="url(#clip762)" cx="1753.47" cy="1076.59" r="14" fill="#56b4e9" fill-rule="evenodd" fill-opacity="1" stroke="#000000" stroke-opacity="1" stroke-width="3.2"/>
<circle clip-path="url(#clip762)" cx="1861.06" cy="504.224" r="14" fill="#56b4e9" fill-rule="evenodd" fill-opacity="1" stroke="#000000" stroke-opacity="1" stroke-width="3.2"/>
<circle clip-path="url(#clip762)" cx="1968.65" cy="187.111" r="14" fill="#56b4e9" fill-rule="evenodd" fill-opacity="1" stroke="#000000" stroke-opacity="1" stroke-width="3.2"/>
<circle clip-path="url(#clip762)" cx="2076.24" cy="238.004" r="14" fill="#56b4e9" fill-rule="evenodd" fill-opacity="1" stroke="#000000" stroke-opacity="1" stroke-width="3.2"/>
<circle clip-path="url(#clip762)" cx="2183.84" cy="502.036" r="14" fill="#56b4e9" fill-rule="evenodd" fill-opacity="1" stroke="#000000" stroke-opacity="1" stroke-width="3.2"/>
<circle clip-path="url(#clip762)" cx="2291.43" cy="978.577" r="14" fill="#56b4e9" fill-rule="evenodd" fill-opacity="1" stroke="#000000" stroke-opacity="1" stroke-width="3.2"/>
<path clip-path="url(#clip762)" d="M247.173 396.388 L233.317 388.388 L233.317 372.388 L247.173 364.388 L261.029 372.388 L261.029 388.388 Z" fill="#009e73" fill-rule="evenodd" fill-opacity="1" stroke="#000000" stroke-opacity="1" stroke-width="3.2"/>
<path clip-path="url(#clip762)" d="M354.766 1077.4 L340.91 1069.4 L340.91 1053.4 L354.766 1045.4 L368.622 1053.4 L368.622 1069.4 Z" fill="#009e73" fill-rule="evenodd" fill-opacity="1" stroke="#000000" stroke-opacity="1" stroke-width="3.2"/>
<path clip-path="url(#clip762)" d="M462.358 385.92 L448.502 377.92 L448.502 361.92 L462.358 353.92 L476.214 361.92 L476.214 377.92 Z" fill="#009e73" fill-rule="evenodd" fill-opacity="1" stroke="#000000" stroke-opacity="1" stroke-width="3.2"/>
<path clip-path="url(#clip762)" d="M569.95 532.552 L556.094 524.552 L556.094 508.552 L569.95 500.552 L583.806 508.552 L583.806 524.552 Z" fill="#009e73" fill-rule="evenodd" fill-opacity="1" stroke="#000000" stroke-opacity="1" stroke-width="3.2"/>
<path clip-path="url(#clip762)" d="M677.543 1269.27 L663.687 1261.27 L663.687 1245.27 L677.543 1237.27 L691.399 1245.27 L691.399 1261.27 Z" fill="#009e73" fill-rule="evenodd" fill-opacity="1" stroke="#000000" stroke-opacity="1" stroke-width="3.2"/>
<path clip-path="url(#clip762)" d="M785.135 1140.7 L771.279 1132.7 L771.279 1116.7 L785.135 1108.7 L798.991 1116.7 L798.991 1132.7 Z" fill="#009e73" fill-rule="evenodd" fill-opacity="1" stroke="#000000" stroke-opacity="1" stroke-width="3.2"/>
<path clip-path="url(#clip762)" d="M892.728 1313.47 L878.872 1305.47 L878.872 1289.47 L892.728 1281.47 L906.584 1289.47 L906.584 1305.47 Z" fill="#009e73" fill-rule="evenodd" fill-opacity="1" stroke="#000000" stroke-opacity="1" stroke-width="3.2"/>
<path clip-path="url(#clip762)" d="M1000.32 399.388 L986.464 391.388 L986.464 375.388 L1000.32 367.388 L1014.18 375.388 L1014.18 391.388 Z" fill="#009e73" fill-rule="evenodd" fill-opacity="1" stroke="#000000" stroke-opacity="1" stroke-width="3.2"/>
<path clip-path="url(#clip762)" d="M1107.91 1180.99 L1094.06 1172.99 L1094.06 1156.99 L1107.91 1148.99 L1121.77 1156.99 L1121.77 1172.99 Z" fill="#009e73" fill-rule="evenodd" fill-opacity="1" stroke="#000000" stroke-opacity="1" stroke-width="3.2"/>
<path clip-path="url(#clip762)" d="M1215.5 1324.21 L1201.65 1316.21 L1201.65 1300.21 L1215.5 1292.21 L1229.36 1300.21 L1229.36 1316.21 Z" fill="#009e73" fill-rule="evenodd" fill-opacity="1" stroke="#000000" stroke-opacity="1" stroke-width="3.2"/>
<path clip-path="url(#clip762)" d="M1323.1 1328.25 L1309.24 1320.25 L1309.24 1304.25 L1323.1 1296.25 L1336.95 1304.25 L1336.95 1320.25 Z" fill="#009e73" fill-rule="evenodd" fill-opacity="1" stroke="#000000" stroke-opacity="1" stroke-width="3.2"/>
<path clip-path="url(#clip762)" d="M1430.69 1308.12 L1416.83 1300.12 L1416.83 1284.12 L1430.69 1276.12 L1444.55 1284.12 L1444.55 1300.12 Z" fill="#009e73" fill-rule="evenodd" fill-opacity="1" stroke="#000000" stroke-opacity="1" stroke-width="3.2"/>
<path clip-path="url(#clip762)" d="M1538.28 1154.06 L1524.43 1146.06 L1524.43 1130.06 L1538.28 1122.06 L1552.14 1130.06 L1552.14 1146.06 Z" fill="#009e73" fill-rule="evenodd" fill-opacity="1" stroke="#000000" stroke-opacity="1" stroke-width="3.2"/>
<path clip-path="url(#clip762)" d="M1645.87 826.713 L1632.02 818.713 L1632.02 802.713 L1645.87 794.713 L1659.73 802.713 L1659.73 818.713 Z" fill="#009e73" fill-rule="evenodd" fill-opacity="1" stroke="#000000" stroke-opacity="1" stroke-width="3.2"/>
<path clip-path="url(#clip762)" d="M1753.47 1048.9 L1739.61 1040.9 L1739.61 1024.9 L1753.47 1016.9 L1767.32 1024.9 L1767.32 1040.9 Z" fill="#009e73" fill-rule="evenodd" fill-opacity="1" stroke="#000000" stroke-opacity="1" stroke-width="3.2"/>
<path clip-path="url(#clip762)" d="M1861.06 332.416 L1847.2 324.416 L1847.2 308.416 L1861.06 300.416 L1874.91 308.416 L1874.91 324.416 Z" fill="#009e73" fill-rule="evenodd" fill-opacity="1" stroke="#000000" stroke-opacity="1" stroke-width="3.2"/>
<path clip-path="url(#clip762)" d="M1968.65 1301.8 L1954.8 1293.8 L1954.8 1277.8 L1968.65 1269.8 L1982.51 1277.8 L1982.51 1293.8 Z" fill="#009e73" fill-rule="evenodd" fill-opacity="1" stroke="#000000" stroke-opacity="1" stroke-width="3.2"/>
<path clip-path="url(#clip762)" d="M2076.24 349.437 L2062.39 341.437 L2062.39 325.437 L2076.24 317.437 L2090.1 325.437 L2090.1 341.437 Z" fill="#009e73" fill-rule="evenodd" fill-opacity="1" stroke="#000000" stroke-opacity="1" stroke-width="3.2"/>
<path clip-path="url(#clip762)" d="M2183.84 1099.34 L2169.98 1091.34 L2169.98 1075.34 L2183.84 1067.34 L2197.69 1075.34 L2197.69 1091.34 Z" fill="#009e73" fill-rule="evenodd" fill-opacity="1" stroke="#000000" stroke-opacity="1" stroke-width="3.2"/>
<path clip-path="url(#clip762)" d="M2291.43 1095.95 L2277.57 1087.95 L2277.57 1071.95 L2291.43 1063.95 L2305.28 1071.95 L2305.28 1087.95 Z" fill="#009e73" fill-rule="evenodd" fill-opacity="1" stroke="#000000" stroke-opacity="1" stroke-width="3.2"/>
<path clip-path="url(#clip760)" d="
M1988.16 435.737 L2280.53 435.737 L2280.53 193.817 L1988.16 193.817  Z
  " fill="#ffffff" fill-rule="evenodd" fill-opacity="1"/>
<polyline clip-path="url(#clip760)" style="stroke:#000000; stroke-width:4; stroke-opacity:1; fill:none" points="
  1988.16,435.737 2280.53,435.737 2280.53,193.817 1988.16,193.817 1988.16,435.737 
  "/>
<path clip-path="url(#clip760)" d="M2058.87 228.697 L2058.87 279.897 L2110.07 279.897 L2110.07 228.697 L2058.87 228.697 Z" fill="#e69f00" fill-rule="evenodd" fill-opacity="1" stroke="#000000" stroke-opacity="1" stroke-width="5.12"/>
<path clip-path="url(#clip760)" d="M 0 0 M2194.62 273.984 Q2192.81 278.614 2191.1 280.026 Q2189.39 281.438 2186.52 281.438 L2183.11 281.438 L2183.11 277.873 L2185.61 277.873 Q2187.37 277.873 2188.34 277.04 Q2189.32 276.206 2190.5 273.104 L2191.26 271.16 L2180.78 245.651 L2185.29 245.651 L2193.39 265.929 L2201.49 245.651 L2206.01 245.651 L2194.62 273.984 Z" fill="#bebebe" fill-rule="evenodd" fill-opacity="1" /><path clip-path="url(#clip760)" d="M 0 0 M2211.89 267.641 L2219.52 267.641 L2219.52 241.276 L2211.21 242.943 L2211.21 238.683 L2219.48 237.017 L2224.15 237.017 L2224.15 267.641 L2231.79 267.641 L2231.79 271.577 L2211.89 271.577 L2211.89 267.641 Z" fill="#bebebe" fill-rule="evenodd" fill-opacity="1" /><circle clip-path="url(#clip760)" cx="2084.47" cy="314.777" r="23" fill="#56b4e9" fill-rule="evenodd" fill-opacity="1" stroke="#000000" stroke-opacity="1" stroke-width="5.12"/>
<path clip-path="url(#clip760)" d="M 0 0 M2194.62 334.464 Q2192.81 339.094 2191.1 340.506 Q2189.39 341.918 2186.52 341.918 L2183.11 341.918 L2183.11 338.353 L2185.61 338.353 Q2187.37 338.353 2188.34 337.52 Q2189.32 336.686 2190.5 333.584 L2191.26 331.64 L2180.78 306.131 L2185.29 306.131 L2193.39 326.409 L2201.49 306.131 L2206.01 306.131 L2194.62 334.464 Z" fill="#bebebe" fill-rule="evenodd" fill-opacity="1" /><path clip-path="url(#clip760)" d="M 0 0 M2215.1 328.121 L2231.42 328.121 L2231.42 332.057 L2209.48 332.057 L2209.48 328.121 Q2212.14 325.367 2216.72 320.737 Q2221.33 316.085 2222.51 314.742 Q2224.76 312.219 2225.64 310.483 Q2226.54 308.723 2226.54 307.034 Q2226.54 304.279 2224.59 302.543 Q2222.67 300.807 2219.57 300.807 Q2217.37 300.807 2214.92 301.571 Q2212.49 302.335 2209.71 303.886 L2209.71 299.163 Q2212.53 298.029 2214.99 297.45 Q2217.44 296.872 2219.48 296.872 Q2224.85 296.872 2228.04 299.557 Q2231.24 302.242 2231.24 306.733 Q2231.24 308.862 2230.43 310.784 Q2229.64 312.682 2227.53 315.274 Q2226.96 315.946 2223.85 319.163 Q2220.75 322.358 2215.1 328.121 Z" fill="#bebebe" fill-rule="evenodd" fill-opacity="1" /><path clip-path="url(#clip760)" d="M2084.47 400.857 L2062.3 388.057 L2062.3 362.457 L2084.47 349.657 L2106.64 362.457 L2106.64 388.057 Z" fill="#009e73" fill-rule="evenodd" fill-opacity="1" stroke="#000000" stroke-opacity="1" stroke-width="5.12"/>
<path clip-path="url(#clip760)" d="M 0 0 M2194.62 394.944 Q2192.81 399.574 2191.1 400.986 Q2189.39 402.398 2186.52 402.398 L2183.11 402.398 L2183.11 398.833 L2185.61 398.833 Q2187.37 398.833 2188.34 398 Q2189.32 397.166 2190.5 394.064 L2191.26 392.12 L2180.78 366.611 L2185.29 366.611 L2193.39 386.889 L2201.49 366.611 L2206.01 366.611 L2194.62 394.944 Z" fill="#bebebe" fill-rule="evenodd" fill-opacity="1" /><path clip-path="url(#clip760)" d="M 0 0 M2225.24 373.902 Q2228.6 374.62 2230.47 376.889 Q2232.37 379.157 2232.37 382.49 Q2232.37 387.606 2228.85 390.407 Q2225.34 393.208 2218.85 393.208 Q2216.68 393.208 2214.36 392.768 Q2212.07 392.351 2209.62 391.495 L2209.62 386.981 Q2211.56 388.115 2213.88 388.694 Q2216.19 389.273 2218.71 389.273 Q2223.11 389.273 2225.4 387.537 Q2227.72 385.801 2227.72 382.49 Q2227.72 379.435 2225.57 377.722 Q2223.44 375.986 2219.62 375.986 L2215.59 375.986 L2215.59 372.143 L2219.8 372.143 Q2223.25 372.143 2225.08 370.778 Q2226.91 369.389 2226.91 366.796 Q2226.91 364.134 2225.01 362.722 Q2223.14 361.287 2219.62 361.287 Q2217.7 361.287 2215.5 361.703 Q2213.3 362.12 2210.66 363 L2210.66 358.833 Q2213.32 358.092 2215.64 357.722 Q2217.97 357.352 2220.03 357.352 Q2225.36 357.352 2228.46 359.782 Q2231.56 362.19 2231.56 366.31 Q2231.56 369.18 2229.92 371.171 Q2228.27 373.139 2225.24 373.902 Z" fill="#bebebe" fill-rule="evenodd" fill-opacity="1" /></svg>
