<?xml version="1.0" encoding="utf-8"?>
<svg xmlns="http://www.w3.org/2000/svg" xmlns:xlink="http://www.w3.org/1999/xlink" width="600" height="400" viewBox="0 0 2400 1600">
<defs>
  <clipPath id="clip010">
    <rect x="0" y="0" width="2400" height="1600"/>
  </clipPath>
</defs>
<path clip-path="url(#clip010)" d="
M0 1600 L2400 1600 L2400 0 L0 0  Z
  " fill="#ffffff" fill-rule="evenodd" fill-opacity="1"/>
<defs>
  <clipPath id="clip011">
    <rect x="480" y="0" width="1681" height="1600"/>
  </clipPath>
</defs>
<path clip-path="url(#clip010)" d="
M145.716 1482.13 L2352.76 1482.13 L2352.76 149.392 L145.716 149.392  Z
  " fill="#ffffff" fill-rule="evenodd" fill-opacity="1"/>
<defs>
  <clipPath id="clip012">
    <rect x="145" y="149" width="2208" height="1334"/>
  </clipPath>
</defs>
<polyline clip-path="url(#clip012)" style="stroke:#000000; stroke-width:2; stroke-opacity:0.1; fill:none" points="
  495.367,1482.13 495.367,149.392 
  "/>
<polyline clip-path="url(#clip012)" style="stroke:#000000; stroke-width:2; stroke-opacity:0.1; fill:none" points="
  854.352,1482.13 854.352,149.392 
  "/>
<polyline clip-path="url(#clip012)" style="stroke:#000000; stroke-width:2; stroke-opacity:0.1; fill:none" points="
  1213.34,1482.13 1213.34,149.392 
  "/>
<polyline clip-path="url(#clip012)" style="stroke:#000000; stroke-width:2; stroke-opacity:0.1; fill:none" points="
  1572.32,1482.13 1572.32,149.392 
  "/>
<polyline clip-path="url(#clip012)" style="stroke:#000000; stroke-width:2; stroke-opacity:0.1; fill:none" points="
  1931.31,1482.13 1931.31,149.392 
  "/>
<polyline clip-path="url(#clip012)" style="stroke:#000000; stroke-width:2; stroke-opacity:0.1; fill:none" points="
  2290.29,1482.13 2290.29,149.392 
  "/>
<polyline clip-path="url(#clip010)" style="stroke:#000000; stroke-width:4; stroke-opacity:1; fill:none" points="
  145.716,1482.13 2352.76,1482.13 
  "/>
<polyline clip-path="url(#clip010)" style="stroke:#000000; stroke-width:4; stroke-opacity:1; fill:none" points="
  495.367,1482.13 495.367,1466.14 
  "/>
<polyline clip-path="url(#clip010)" style="stroke:#000000; stroke-width:4; stroke-opacity:1; fill:none" points="
  854.352,1482.13 854.352,1466.14 
  "/>
<polyline clip-path="url(#clip010)" style="stroke:#000000; stroke-width:4; stroke-opacity:1; fill:none" points="
  1213.34,1482.13 1213.34,1466.14 
  "/>
<polyline clip-path="url(#clip010)" style="stroke:#000000; stroke-width:4; stroke-opacity:1; fill:none" points="
  1572.32,1482.13 1572.32,1466.14 
  "/>
<polyline clip-path="url(#clip010)" style="stroke:#000000; stroke-width:4; stroke-opacity:1; fill:none" points="
  1931.31,1482.13 1931.31,1466.14 
  "/>
<polyline clip-path="url(#clip010)" style="stroke:#000000; stroke-width:4; stroke-opacity:1; fill:none" points="
  2290.29,1482.13 2290.29,1466.14 
  "/>
<path clip-path="url(#clip010)" d="M 0 0 M484.43 1509.1 L505.081 1509.1 L505.081 1513.53 L489.247 1513.53 L489.247 1523.06 Q490.393 1522.67 491.539 1522.49 Q492.685 1522.28 493.831 1522.28 Q500.341 1522.28 504.143 1525.85 Q507.945 1529.42 507.945 1535.51 Q507.945 1541.79 504.039 1545.28 Q500.133 1548.74 493.023 1548.74 Q490.576 1548.74 488.024 1548.32 Q485.497 1547.91 482.789 1547.07 L482.789 1541.79 Q485.133 1543.06 487.633 1543.69 Q490.133 1544.31 492.919 1544.31 Q497.424 1544.31 500.055 1541.94 Q502.685 1539.57 502.685 1535.51 Q502.685 1531.45 500.055 1529.08 Q497.424 1526.71 492.919 1526.71 Q490.81 1526.71 488.701 1527.18 Q486.617 1527.65 484.43 1528.64 L484.43 1509.1 Z" fill="#bebebe" fill-rule="evenodd" fill-opacity="1" /><path clip-path="url(#clip010)" d="M 0 0 M828.337 1543.56 L836.93 1543.56 L836.93 1513.9 L827.582 1515.77 L827.582 1510.98 L836.878 1509.1 L842.139 1509.1 L842.139 1543.56 L850.733 1543.56 L850.733 1547.98 L828.337 1547.98 L828.337 1543.56 Z" fill="#bebebe" fill-rule="evenodd" fill-opacity="1" /><path clip-path="url(#clip010)" d="M 0 0 M867.686 1512.57 Q863.623 1512.57 861.566 1516.58 Q859.535 1520.56 859.535 1528.58 Q859.535 1536.58 861.566 1540.59 Q863.623 1544.57 867.686 1544.57 Q871.774 1544.57 873.805 1540.59 Q875.863 1536.58 875.863 1528.58 Q875.863 1520.56 873.805 1516.58 Q871.774 1512.57 867.686 1512.57 M867.686 1508.4 Q874.222 1508.4 877.659 1513.58 Q881.123 1518.74 881.123 1528.58 Q881.123 1538.4 877.659 1543.58 Q874.222 1548.74 867.686 1548.74 Q861.149 1548.74 857.686 1543.58 Q854.248 1538.4 854.248 1528.58 Q854.248 1518.74 857.686 1513.58 Q861.149 1508.4 867.686 1508.4 Z" fill="#bebebe" fill-rule="evenodd" fill-opacity="1" /><path clip-path="url(#clip010)" d="M 0 0 M1187.88 1543.56 L1196.48 1543.56 L1196.48 1513.9 L1187.13 1515.77 L1187.13 1510.98 L1196.42 1509.1 L1201.68 1509.1 L1201.68 1543.56 L1210.28 1543.56 L1210.28 1547.98 L1187.88 1547.98 L1187.88 1543.56 Z" fill="#bebebe" fill-rule="evenodd" fill-opacity="1" /><path clip-path="url(#clip010)" d="M 0 0 M1216.03 1509.1 L1236.68 1509.1 L1236.68 1513.53 L1220.85 1513.53 L1220.85 1523.06 Q1222 1522.67 1223.14 1522.49 Q1224.29 1522.28 1225.43 1522.28 Q1231.94 1522.28 1235.75 1525.85 Q1239.55 1529.42 1239.55 1535.51 Q1239.55 1541.79 1235.64 1545.28 Q1231.74 1548.74 1224.63 1548.74 Q1222.18 1548.74 1219.63 1548.32 Q1217.1 1547.91 1214.39 1547.07 L1214.39 1541.79 Q1216.74 1543.06 1219.24 1543.69 Q1221.74 1544.31 1224.52 1544.31 Q1229.03 1544.31 1231.66 1541.94 Q1234.29 1539.57 1234.29 1535.51 Q1234.29 1531.45 1231.66 1529.08 Q1229.03 1526.71 1224.52 1526.71 Q1222.41 1526.71 1220.3 1527.18 Q1218.22 1527.65 1216.03 1528.64 L1216.03 1509.1 Z" fill="#bebebe" fill-rule="evenodd" fill-opacity="1" /><path clip-path="url(#clip010)" d="M 0 0 M1551.11 1543.56 L1569.47 1543.56 L1569.47 1547.98 L1544.78 1547.98 L1544.78 1543.56 Q1547.78 1540.46 1552.93 1535.25 Q1558.12 1530.02 1559.44 1528.5 Q1561.97 1525.67 1562.96 1523.71 Q1563.98 1521.73 1563.98 1519.83 Q1563.98 1516.73 1561.79 1514.78 Q1559.63 1512.83 1556.14 1512.83 Q1553.66 1512.83 1550.9 1513.69 Q1548.17 1514.55 1545.04 1516.29 L1545.04 1510.98 Q1548.22 1509.7 1550.98 1509.05 Q1553.74 1508.4 1556.03 1508.4 Q1562.08 1508.4 1565.67 1511.42 Q1569.26 1514.44 1569.26 1519.49 Q1569.26 1521.89 1568.35 1524.05 Q1567.47 1526.19 1565.1 1529.1 Q1564.44 1529.86 1560.96 1533.48 Q1557.47 1537.07 1551.11 1543.56 Z" fill="#bebebe" fill-rule="evenodd" fill-opacity="1" /><path clip-path="url(#clip010)" d="M 0 0 M1586.42 1512.57 Q1582.36 1512.57 1580.3 1516.58 Q1578.27 1520.56 1578.27 1528.58 Q1578.27 1536.58 1580.3 1540.59 Q1582.36 1544.57 1586.42 1544.57 Q1590.51 1544.57 1592.54 1540.59 Q1594.6 1536.58 1594.6 1528.58 Q1594.6 1520.56 1592.54 1516.58 Q1590.51 1512.57 1586.42 1512.57 M1586.42 1508.4 Q1592.96 1508.4 1596.4 1513.58 Q1599.86 1518.74 1599.86 1528.58 Q1599.86 1538.4 1596.4 1543.58 Q1592.96 1548.74 1586.42 1548.74 Q1579.89 1548.74 1576.42 1543.58 Q1572.99 1538.4 1572.99 1528.58 Q1572.99 1518.74 1576.42 1513.58 Q1579.89 1508.4 1586.42 1508.4 Z" fill="#bebebe" fill-rule="evenodd" fill-opacity="1" /><path clip-path="url(#clip010)" d="M 0 0 M1910.66 1543.56 L1929.02 1543.56 L1929.02 1547.98 L1904.33 1547.98 L1904.33 1543.56 Q1907.32 1540.46 1912.48 1535.25 Q1917.66 1530.02 1918.99 1528.5 Q1921.52 1525.67 1922.51 1523.71 Q1923.52 1521.73 1923.52 1519.83 Q1923.52 1516.73 1921.33 1514.78 Q1919.17 1512.83 1915.68 1512.83 Q1913.21 1512.83 1910.45 1513.69 Q1907.71 1514.55 1904.59 1516.29 L1904.59 1510.98 Q1907.77 1509.7 1910.53 1509.05 Q1913.29 1508.4 1915.58 1508.4 Q1921.62 1508.4 1925.21 1511.42 Q1928.81 1514.44 1928.81 1519.49 Q1928.81 1521.89 1927.9 1524.05 Q1927.01 1526.19 1924.64 1529.1 Q1923.99 1529.86 1920.5 1533.48 Q1917.01 1537.07 1910.66 1543.56 Z" fill="#bebebe" fill-rule="evenodd" fill-opacity="1" /><path clip-path="url(#clip010)" d="M 0 0 M1934.77 1509.1 L1955.42 1509.1 L1955.42 1513.53 L1939.59 1513.53 L1939.59 1523.06 Q1940.73 1522.67 1941.88 1522.49 Q1943.03 1522.28 1944.17 1522.28 Q1950.68 1522.28 1954.48 1525.85 Q1958.29 1529.42 1958.29 1535.51 Q1958.29 1541.79 1954.38 1545.28 Q1950.47 1548.74 1943.36 1548.74 Q1940.92 1548.74 1938.36 1548.32 Q1935.84 1547.91 1933.13 1547.07 L1933.13 1541.79 Q1935.47 1543.06 1937.97 1543.69 Q1940.47 1544.31 1943.26 1544.31 Q1947.77 1544.31 1950.4 1541.94 Q1953.03 1539.57 1953.03 1535.51 Q1953.03 1531.45 1950.4 1529.08 Q1947.77 1526.71 1943.26 1526.71 Q1941.15 1526.71 1939.04 1527.18 Q1936.96 1527.65 1934.77 1528.64 L1934.77 1509.1 Z" fill="#bebebe" fill-rule="evenodd" fill-opacity="1" /><path clip-path="url(#clip010)" d="M 0 0 M2279.88 1527.02 Q2283.65 1527.83 2285.76 1530.38 Q2287.9 1532.93 2287.9 1536.68 Q2287.9 1542.44 2283.94 1545.59 Q2279.98 1548.74 2272.69 1548.74 Q2270.24 1548.74 2267.64 1548.24 Q2265.06 1547.78 2262.3 1546.81 L2262.3 1541.73 Q2264.49 1543.01 2267.09 1543.66 Q2269.69 1544.31 2272.53 1544.31 Q2277.48 1544.31 2280.06 1542.36 Q2282.66 1540.41 2282.66 1536.68 Q2282.66 1533.24 2280.24 1531.32 Q2277.84 1529.36 2273.55 1529.36 L2269.02 1529.36 L2269.02 1525.04 L2273.76 1525.04 Q2277.64 1525.04 2279.69 1523.5 Q2281.75 1521.94 2281.75 1519.03 Q2281.75 1516.03 2279.62 1514.44 Q2277.51 1512.83 2273.55 1512.83 Q2271.39 1512.83 2268.91 1513.3 Q2266.44 1513.77 2263.47 1514.75 L2263.47 1510.07 Q2266.46 1509.23 2269.07 1508.82 Q2271.7 1508.4 2274.02 1508.4 Q2280.01 1508.4 2283.5 1511.14 Q2286.99 1513.84 2286.99 1518.48 Q2286.99 1521.71 2285.14 1523.95 Q2283.29 1526.16 2279.88 1527.02 Z" fill="#bebebe" fill-rule="evenodd" fill-opacity="1" /><path clip-path="url(#clip010)" d="M 0 0 M2304.85 1512.57 Q2300.79 1512.57 2298.73 1516.58 Q2296.7 1520.56 2296.7 1528.58 Q2296.7 1536.58 2298.73 1540.59 Q2300.79 1544.57 2304.85 1544.57 Q2308.94 1544.57 2310.97 1540.59 Q2313.03 1536.58 2313.03 1528.58 Q2313.03 1520.56 2310.97 1516.58 Q2308.94 1512.57 2304.85 1512.57 M2304.85 1508.4 Q2311.39 1508.4 2314.82 1513.58 Q2318.29 1518.74 2318.29 1528.58 Q2318.29 1538.4 2314.82 1543.58 Q2311.39 1548.74 2304.85 1548.74 Q2298.31 1548.74 2294.85 1543.58 Q2291.41 1538.4 2291.41 1528.58 Q2291.41 1518.74 2294.85 1513.58 Q2298.31 1508.4 2304.85 1508.4 Z" fill="#bebebe" fill-rule="evenodd" fill-opacity="1" /><polyline clip-path="url(#clip012)" style="stroke:#000000; stroke-width:2; stroke-opacity:0.1; fill:none" points="
  145.716,1473.65 2352.76,1473.65 
  "/>
<polyline clip-path="url(#clip012)" style="stroke:#000000; stroke-width:2; stroke-opacity:0.1; fill:none" points="
  145.716,1181.25 2352.76,1181.25 
  "/>
<polyline clip-path="url(#clip012)" style="stroke:#000000; stroke-width:2; stroke-opacity:0.1; fill:none" points="
  145.716,888.859 2352.76,888.859 
  "/>
<polyline clip-path="url(#clip012)" style="stroke:#000000; stroke-width:2; stroke-opacity:0.1; fill:none" points="
  145.716,596.464 2352.76,596.464 
  "/>
<polyline clip-path="url(#clip012)" style="stroke:#000000; stroke-width:2; stroke-opacity:0.1; fill:none" points="
  145.716,304.069 2352.76,304.069 
  "/>
<polyline clip-path="url(#clip010)" style="stroke:#000000; stroke-width:4; stroke-opacity:1; fill:none" points="
  145.716,1482.13 145.716,149.392 
  "/>
<polyline clip-path="url(#clip010)" style="stroke:#000000; stroke-width:4; stroke-opacity:1; fill:none" points="
  145.716,1473.65 172.2,1473.65 
  "/>
<polyline clip-path="url(#clip010)" style="stroke:#000000; stroke-width:4; stroke-opacity:1; fill:none" points="
  145.716,1181.25 172.2,1181.25 
  "/>
<polyline clip-path="url(#clip010)" style="stroke:#000000; stroke-width:4; stroke-opacity:1; fill:none" points="
  145.716,888.859 172.2,888.859 
  "/>
<polyline clip-path="url(#clip010)" style="stroke:#000000; stroke-width:4; stroke-opacity:1; fill:none" points="
  145.716,596.464 172.2,596.464 
  "/>
<polyline clip-path="url(#clip010)" style="stroke:#000000; stroke-width:4; stroke-opacity:1; fill:none" points="
  145.716,304.069 172.2,304.069 
  "/>
<path clip-path="url(#clip010)" d="M 0 0 M96.2783 1457.67 Q92.2159 1457.67 90.1586 1461.68 Q88.1273 1465.67 88.1273 1473.69 Q88.1273 1481.68 90.1586 1485.69 Q92.2159 1489.68 96.2783 1489.68 Q100.367 1489.68 102.398 1485.69 Q104.455 1481.68 104.455 1473.69 Q104.455 1465.67 102.398 1461.68 Q100.367 1457.67 96.2783 1457.67 M96.2783 1453.51 Q102.815 1453.51 106.252 1458.69 Q109.716 1463.84 109.716 1473.69 Q109.716 1483.51 106.252 1488.69 Q102.815 1493.84 96.2783 1493.84 Q89.7419 1493.84 86.2784 1488.69 Q82.8409 1483.51 82.8409 1473.69 Q82.8409 1463.84 86.2784 1458.69 Q89.7419 1453.51 96.2783 1453.51 Z" fill="#bebebe" fill-rule="evenodd" fill-opacity="1" /><path clip-path="url(#clip010)" d="M 0 0 M60.966 1196.27 L79.3253 1196.27 L79.3253 1200.69 L54.6379 1200.69 L54.6379 1196.27 Q57.6327 1193.17 62.7889 1187.96 Q67.9712 1182.72 69.2993 1181.21 Q71.8253 1178.38 72.8149 1176.42 Q73.8305 1174.44 73.8305 1172.54 Q73.8305 1169.44 71.6431 1167.49 Q69.4816 1165.54 65.992 1165.54 Q63.5181 1165.54 60.7577 1166.4 Q58.0233 1167.26 54.8984 1169 L54.8984 1163.69 Q58.0754 1162.41 60.8358 1161.76 Q63.5962 1161.11 65.8879 1161.11 Q71.9295 1161.11 75.5232 1164.13 Q79.117 1167.15 79.117 1172.2 Q79.117 1174.6 78.2055 1176.76 Q77.3201 1178.9 74.9503 1181.81 Q74.2993 1182.57 70.8097 1186.19 Q67.3202 1189.78 60.966 1196.27 Z" fill="#bebebe" fill-rule="evenodd" fill-opacity="1" /><path clip-path="url(#clip010)" d="M 0 0 M96.2783 1165.28 Q92.2159 1165.28 90.1586 1169.29 Q88.1273 1173.27 88.1273 1181.29 Q88.1273 1189.29 90.1586 1193.3 Q92.2159 1197.28 96.2783 1197.28 Q100.367 1197.28 102.398 1193.3 Q104.455 1189.29 104.455 1181.29 Q104.455 1173.27 102.398 1169.29 Q100.367 1165.28 96.2783 1165.28 M96.2783 1161.11 Q102.815 1161.11 106.252 1166.29 Q109.716 1171.45 109.716 1181.29 Q109.716 1191.11 106.252 1196.29 Q102.815 1201.45 96.2783 1201.45 Q89.7419 1201.45 86.2784 1196.29 Q82.8409 1191.11 82.8409 1181.29 Q82.8409 1171.45 86.2784 1166.29 Q89.7419 1161.11 96.2783 1161.11 Z" fill="#bebebe" fill-rule="evenodd" fill-opacity="1" /><path clip-path="url(#clip010)" d="M 0 0 M68.5441 874.002 L55.2629 894.757 L68.5441 894.757 L68.5441 874.002 M67.1639 869.419 L73.7785 869.419 L73.7785 894.757 L79.3253 894.757 L79.3253 899.132 L73.7785 899.132 L73.7785 908.299 L68.5441 908.299 L68.5441 899.132 L50.9921 899.132 L50.9921 894.054 L67.1639 869.419 Z" fill="#bebebe" fill-rule="evenodd" fill-opacity="1" /><path clip-path="url(#clip010)" d="M 0 0 M96.2783 872.882 Q92.2159 872.882 90.1586 876.893 Q88.1273 880.877 88.1273 888.898 Q88.1273 896.893 90.1586 900.903 Q92.2159 904.887 96.2783 904.887 Q100.367 904.887 102.398 900.903 Q104.455 896.893 104.455 888.898 Q104.455 880.877 102.398 876.893 Q100.367 872.882 96.2783 872.882 M96.2783 868.716 Q102.815 868.716 106.252 873.898 Q109.716 879.054 109.716 888.898 Q109.716 898.715 106.252 903.898 Q102.815 909.054 96.2783 909.054 Q89.7419 909.054 86.2784 903.898 Q82.8409 898.715 82.8409 888.898 Q82.8409 879.054 86.2784 873.898 Q89.7419 868.716 96.2783 868.716 Z" fill="#bebebe" fill-rule="evenodd" fill-opacity="1" /><path clip-path="url(#clip010)" d="M 0 0 M66.3566 594.368 Q62.815 594.368 60.7317 596.789 Q58.6744 599.211 58.6744 603.43 Q58.6744 607.623 60.7317 610.071 Q62.815 612.492 66.3566 612.492 Q69.8983 612.492 71.9556 610.071 Q74.0389 607.623 74.0389 603.43 Q74.0389 599.211 71.9556 596.789 Q69.8983 594.368 66.3566 594.368 M76.7993 577.883 L76.7993 582.675 Q74.8201 581.737 72.7889 581.243 Q70.7837 580.748 68.8045 580.748 Q63.5962 580.748 60.8358 584.263 Q58.1015 587.779 57.7108 594.888 Q59.2473 592.623 61.565 591.425 Q63.8827 590.201 66.6691 590.201 Q72.5285 590.201 75.9139 593.769 Q79.3253 597.31 79.3253 603.43 Q79.3253 609.42 75.7837 613.039 Q72.242 616.659 66.3566 616.659 Q59.6119 616.659 56.0442 611.503 Q52.4765 606.321 52.4765 596.503 Q52.4765 587.284 56.8515 581.815 Q61.2264 576.321 68.5962 576.321 Q70.5754 576.321 72.5806 576.711 Q74.6118 577.102 76.7993 577.883 Z" fill="#bebebe" fill-rule="evenodd" fill-opacity="1" /><path clip-path="url(#clip010)" d="M 0 0 M96.2783 580.487 Q92.2159 580.487 90.1586 584.498 Q88.1273 588.482 88.1273 596.503 Q88.1273 604.498 90.1586 608.508 Q92.2159 612.492 96.2783 612.492 Q100.367 612.492 102.398 608.508 Q104.455 604.498 104.455 596.503 Q104.455 588.482 102.398 584.498 Q100.367 580.487 96.2783 580.487 M96.2783 576.321 Q102.815 576.321 106.252 581.503 Q109.716 586.659 109.716 596.503 Q109.716 606.321 106.252 611.503 Q102.815 616.659 96.2783 616.659 Q89.7419 616.659 86.2784 611.503 Q82.8409 606.321 82.8409 596.503 Q82.8409 586.659 86.2784 581.503 Q89.7419 576.321 96.2783 576.321 Z" fill="#bebebe" fill-rule="evenodd" fill-opacity="1" /><path clip-path="url(#clip010)" d="M 0 0 M65.992 305.046 Q62.2421 305.046 60.0806 307.051 Q57.9452 309.056 57.9452 312.572 Q57.9452 316.087 60.0806 318.092 Q62.2421 320.098 65.992 320.098 Q69.742 320.098 71.9035 318.092 Q74.0649 316.061 74.0649 312.572 Q74.0649 309.056 71.9035 307.051 Q69.7681 305.046 65.992 305.046 M60.7317 302.806 Q57.3463 301.973 55.4452 299.655 Q53.5702 297.337 53.5702 294.004 Q53.5702 289.343 56.8775 286.634 Q60.2108 283.926 65.992 283.926 Q71.7993 283.926 75.1066 286.634 Q78.4139 289.343 78.4139 294.004 Q78.4139 297.337 76.5128 299.655 Q74.6378 301.973 71.2785 302.806 Q75.0805 303.691 77.1899 306.27 Q79.3253 308.848 79.3253 312.572 Q79.3253 318.223 75.8618 321.243 Q72.4243 324.264 65.992 324.264 Q59.5598 324.264 56.0963 321.243 Q52.6588 318.223 52.6588 312.572 Q52.6588 308.848 54.7942 306.27 Q56.9296 303.691 60.7317 302.806 M58.8046 294.499 Q58.8046 297.52 60.6796 299.212 Q62.5806 300.905 65.992 300.905 Q69.3774 300.905 71.2785 299.212 Q73.2055 297.52 73.2055 294.499 Q73.2055 291.478 71.2785 289.785 Q69.3774 288.093 65.992 288.093 Q62.5806 288.093 60.6796 289.785 Q58.8046 291.478 58.8046 294.499 Z" fill="#bebebe" fill-rule="evenodd" fill-opacity="1" /><path clip-path="url(#clip010)" d="M 0 0 M96.2783 288.093 Q92.2159 288.093 90.1586 292.103 Q88.1273 296.087 88.1273 304.108 Q88.1273 312.103 90.1586 316.113 Q92.2159 320.098 96.2783 320.098 Q100.367 320.098 102.398 316.113 Q104.455 312.103 104.455 304.108 Q104.455 296.087 102.398 292.103 Q100.367 288.093 96.2783 288.093 M96.2783 283.926 Q102.815 283.926 106.252 289.108 Q109.716 294.264 109.716 304.108 Q109.716 313.926 106.252 319.108 Q102.815 324.264 96.2783 324.264 Q89.7419 324.264 86.2784 319.108 Q82.8409 313.926 82.8409 304.108 Q82.8409 294.264 86.2784 289.108 Q89.7419 283.926 96.2783 283.926 Z" fill="#bebebe" fill-rule="evenodd" fill-opacity="1" /><path clip-path="url(#clip010)" d="M 0 0 M1028.52 20.1156 L1028.52 31.516 Q1021.86 28.3332 1015.96 26.7707 Q1010.06 25.2082 1004.56 25.2082 Q995.013 25.2082 989.804 28.9119 Q984.654 32.6156 984.654 39.4442 Q984.654 45.1734 988.068 48.1247 Q991.54 51.0182 1001.15 52.8122 L1008.21 54.259 Q1021.29 56.7474 1027.48 63.0552 Q1033.73 69.3052 1033.73 79.8375 Q1033.73 92.3953 1025.28 98.8768 Q1016.89 105.358 1000.63 105.358 Q994.492 105.358 987.547 103.969 Q980.661 102.58 973.254 99.8606 L973.254 87.8236 Q980.372 91.8166 987.2 93.8421 Q994.029 95.8675 1000.63 95.8675 Q1010.64 95.8675 1016.08 91.9324 Q1021.52 87.9972 1021.52 80.7056 Q1021.52 74.3399 1017.58 70.7519 Q1013.7 67.164 1004.79 65.37 L997.675 63.9811 Q984.596 61.377 978.751 55.8215 Q972.906 50.2659 972.906 40.3702 Q972.906 28.9119 980.95 22.3147 Q989.052 15.7175 1003.23 15.7175 Q1009.31 15.7175 1015.61 16.817 Q1021.92 17.9166 1028.52 20.1156 Z" fill="#bebebe" fill-rule="evenodd" fill-opacity="1" /><path clip-path="url(#clip010)" d="M 0 0 M1100.34 68.6107 L1100.34 73.819 L1051.38 73.819 Q1052.07 84.8144 1057.98 90.6014 Q1063.94 96.3305 1074.53 96.3305 Q1080.66 96.3305 1086.39 94.8259 Q1092.18 93.3213 1097.85 90.312 L1097.85 100.381 Q1092.12 102.812 1086.1 104.085 Q1080.08 105.358 1073.89 105.358 Q1058.38 105.358 1049.29 96.3305 Q1040.27 87.3028 1040.27 71.9093 Q1040.27 55.9951 1048.83 46.678 Q1057.45 37.303 1072.04 37.303 Q1085.12 37.303 1092.7 45.7521 Q1100.34 54.1432 1100.34 68.6107 M1089.69 65.4858 Q1089.57 56.7474 1084.77 51.5391 Q1080.02 46.3308 1072.15 46.3308 Q1063.24 46.3308 1057.86 51.3655 Q1052.54 56.4002 1051.73 65.5436 L1089.69 65.4858 Z" fill="#bebebe" fill-rule="evenodd" fill-opacity="1" /><path clip-path="url(#clip010)" d="M 0 0 M1149.06 48.8192 Q1147.27 47.7775 1145.13 47.3146 Q1143.04 46.7937 1140.5 46.7937 Q1131.47 46.7937 1126.61 52.6965 Q1121.81 58.5414 1121.81 69.5367 L1121.81 103.68 L1111.1 103.68 L1111.1 38.8655 L1121.81 38.8655 L1121.81 48.9349 Q1125.16 43.0322 1130.54 40.1965 Q1135.93 37.303 1143.62 37.303 Q1144.72 37.303 1146.05 37.4767 Q1147.38 37.5924 1149 37.8817 L1149.06 48.8192 Z" fill="#bebebe" fill-rule="evenodd" fill-opacity="1" /><path clip-path="url(#clip010)" d="M 0 0 M1160.23 38.8655 L1170.88 38.8655 L1170.88 103.68 L1160.23 103.68 L1160.23 38.8655 M1160.23 13.6342 L1170.88 13.6342 L1170.88 27.1179 L1160.23 27.1179 L1160.23 13.6342 Z" fill="#bebebe" fill-rule="evenodd" fill-opacity="1" /><path clip-path="url(#clip010)" d="M 0 0 M1237.49 68.6107 L1237.49 73.819 L1188.53 73.819 Q1189.22 84.8144 1195.13 90.6014 Q1201.09 96.3305 1211.68 96.3305 Q1217.81 96.3305 1223.54 94.8259 Q1229.33 93.3213 1235 90.312 L1235 100.381 Q1229.27 102.812 1223.25 104.085 Q1217.23 105.358 1211.04 105.358 Q1195.53 105.358 1186.45 96.3305 Q1177.42 87.3028 1177.42 71.9093 Q1177.42 55.9951 1185.98 46.678 Q1194.61 37.303 1209.19 37.303 Q1222.27 37.303 1229.85 45.7521 Q1237.49 54.1432 1237.49 68.6107 M1226.84 65.4858 Q1226.72 56.7474 1221.92 51.5391 Q1217.18 46.3308 1209.31 46.3308 Q1200.39 46.3308 1195.01 51.3655 Q1189.69 56.4002 1188.88 65.5436 L1226.84 65.4858 Z" fill="#bebebe" fill-rule="evenodd" fill-opacity="1" /><path clip-path="url(#clip010)" d="M 0 0 M1296.4 8.88884 L1312.72 30.5322 L1303.87 30.5322 L1285 8.88884 L1296.4 8.88884 Z" fill="#bebebe" fill-rule="evenodd" fill-opacity="1" /><path clip-path="url(#clip010)" d="M 0 0 M1323.89 13.6342 L1334.54 13.6342 L1334.54 103.68 L1323.89 103.68 L1323.89 13.6342 Z" fill="#bebebe" fill-rule="evenodd" fill-opacity="1" /><path clip-path="url(#clip010)" d="M 0 0 M1345.71 38.8655 L1356.35 38.8655 L1356.35 103.68 L1345.71 103.68 L1345.71 38.8655 M1345.71 13.6342 L1356.35 13.6342 L1356.35 27.1179 L1345.71 27.1179 L1345.71 13.6342 Z" fill="#bebebe" fill-rule="evenodd" fill-opacity="1" /><path clip-path="url(#clip010)" d="M 0 0 M1421.4 64.5598 L1421.4 103.68 L1410.75 103.68 L1410.75 64.9071 Q1410.75 55.7057 1407.16 51.134 Q1403.58 46.5623 1396.4 46.5623 Q1387.78 46.5623 1382.8 52.0599 Q1377.82 57.5576 1377.82 67.0483 L1377.82 103.68 L1367.12 103.68 L1367.12 38.8655 L1377.82 38.8655 L1377.82 48.9349 Q1381.64 43.09 1386.79 40.1965 Q1392 37.303 1398.77 37.303 Q1409.94 37.303 1415.67 44.2474 Q1421.4 51.134 1421.4 64.5598 Z" fill="#bebebe" fill-rule="evenodd" fill-opacity="1" /><path clip-path="url(#clip010)" d="M 0 0 M1488.01 68.6107 L1488.01 73.819 L1439.05 73.819 Q1439.74 84.8144 1445.65 90.6014 Q1451.61 96.3305 1462.2 96.3305 Q1468.33 96.3305 1474.06 94.8259 Q1479.85 93.3213 1485.52 90.312 L1485.52 100.381 Q1479.79 102.812 1473.77 104.085 Q1467.75 105.358 1461.56 105.358 Q1446.05 105.358 1436.97 96.3305 Q1427.94 87.3028 1427.94 71.9093 Q1427.94 55.9951 1436.5 46.678 Q1445.13 37.303 1459.71 37.303 Q1472.79 37.303 1480.37 45.7521 Q1488.01 54.1432 1488.01 68.6107 M1477.36 65.4858 Q1477.24 56.7474 1472.44 51.5391 Q1467.7 46.3308 1459.82 46.3308 Q1450.91 46.3308 1445.53 51.3655 Q1440.21 56.4002 1439.4 65.5436 L1477.36 65.4858 Z" fill="#bebebe" fill-rule="evenodd" fill-opacity="1" /><path clip-path="url(#clip010)" d="M 0 0 M1509.25 8.88884 L1525.57 30.5322 L1516.71 30.5322 L1497.85 8.88884 L1509.25 8.88884 Z" fill="#bebebe" fill-rule="evenodd" fill-opacity="1" /><polyline clip-path="url(#clip012)" style="stroke:#e69f00; stroke-width:4; stroke-opacity:1; fill:none" points="
  208.179,1049.68 279.976,830.38 351.773,508.745 423.57,1195.87 495.367,888.859 567.164,187.111 638.961,1181.25 710.758,201.731 782.555,1239.73 854.352,888.859 
  926.149,830.38 997.946,669.563 1069.74,479.506 1141.54,1444.41 1213.34,391.787 1285.13,596.464 1356.93,1005.82 1428.73,450.266 1500.53,1137.39 1572.32,1122.77 
  1644.12,260.21 1715.92,1122.77 1787.71,801.14 1859.51,728.042 1931.31,757.281 2003.1,1181.25 2074.9,1166.63 2146.7,216.351 2218.5,961.957 2290.29,1005.82 
  
  "/>
<path clip-path="url(#clip010)" d="
M1982.94 314.777 L2279.19 314.777 L2279.19 193.817 L1982.94 193.817  Z
  " fill="#ffffff" fill-rule="evenodd" fill-opacity="1"/>
<polyline clip-path="url(#clip010)" style="stroke:#000000; stroke-width:4; stroke-opacity:1; fill:none" points="
  1982.94,314.777 2279.19,314.777 2279.19,193.817 1982.94,193.817 1982.94,314.777 
  "/>
<polyline clip-path="url(#clip010)" style="stroke:#e69f00; stroke-width:4; stroke-opacity:1; fill:none" points="
  2007.47,254.297 2154.6,254.297 
  "/>
<path clip-path="url(#clip010)" d="M 0 0 M2192.97 273.984 Q2191.16 278.614 2189.45 280.026 Q2187.74 281.438 2184.87 281.438 L2181.46 281.438 L2181.46 277.873 L2183.96 277.873 Q2185.72 277.873 2186.69 277.04 Q2187.67 276.206 2188.85 273.104 L2189.61 271.16 L2179.12 245.651 L2183.64 245.651 L2191.74 265.929 L2199.84 245.651 L2204.36 245.651 L2192.97 273.984 Z" fill="#bebebe" fill-rule="evenodd" fill-opacity="1" /><path clip-path="url(#clip010)" d="M 0 0 M2210.24 267.641 L2217.87 267.641 L2217.87 241.276 L2209.56 242.943 L2209.56 238.683 L2217.83 237.017 L2222.5 237.017 L2222.5 267.641 L2230.14 267.641 L2230.14 271.577 L2210.24 271.577 L2210.24 267.641 Z" fill="#bebebe" fill-rule="evenodd" fill-opacity="1" /></svg>
