<?xml version="1.0" encoding="utf-8"?>
<svg xmlns="http://www.w3.org/2000/svg" xmlns:xlink="http://www.w3.org/1999/xlink" width="600" height="400" viewBox="0 0 2400 1600">
<defs>
  <clipPath id="clip090">
    <rect x="0" y="0" width="2400" height="1600"/>
  </clipPath>
</defs>
<path clip-path="url(#clip090)" d="
M0 1600 L2400 1600 L2400 0 L0 0  Z
  " fill="#ffffff" fill-rule="evenodd" fill-opacity="1"/>
<defs>
  <clipPath id="clip091">
    <rect x="480" y="0" width="1681" height="1600"/>
  </clipPath>
</defs>
<path clip-path="url(#clip090)" d="
M156.002 1482.13 L2352.76 1482.13 L2352.76 149.392 L156.002 149.392  Z
  " fill="#ffffff" fill-rule="evenodd" fill-opacity="1"/>
<defs>
  <clipPath id="clip092">
    <rect x="156" y="149" width="2198" height="1334"/>
  </clipPath>
</defs>
<polyline clip-path="url(#clip092)" style="stroke:#000000; stroke-width:2; stroke-opacity:0.1; fill:none" points="
  654.471,1482.13 654.471,149.392 
  "/>
<polyline clip-path="url(#clip092)" style="stroke:#000000; stroke-width:2; stroke-opacity:0.1; fill:none" points="
  1199.84,1482.13 1199.84,149.392 
  "/>
<polyline clip-path="url(#clip092)" style="stroke:#000000; stroke-width:2; stroke-opacity:0.1; fill:none" points="
  1745.21,1482.13 1745.21,149.392 
  "/>
<polyline clip-path="url(#clip092)" style="stroke:#000000; stroke-width:2; stroke-opacity:0.1; fill:none" points="
  2290.58,1482.13 2290.58,149.392 
  "/>
<polyline clip-path="url(#clip090)" style="stroke:#000000; stroke-width:4; stroke-opacity:1; fill:none" points="
  156.002,1482.13 2352.76,1482.13 
  "/>
<polyline clip-path="url(#clip090)" style="stroke:#000000; stroke-width:4; stroke-opacity:1; fill:none" points="
  654.471,1482.13 654.471,1466.14 
  "/>
<polyline clip-path="url(#clip090)" style="stroke:#000000; stroke-width:4; stroke-opacity:1; fill:none" points="
  1199.84,1482.13 1199.84,1466.14 
  "/>
<polyline clip-path="url(#clip090)" style="stroke:#000000; stroke-width:4; stroke-opacity:1; fill:none" points="
  1745.21,1482.13 1745.21,1466.14 
  "/>
<polyline clip-path="url(#clip090)" style="stroke:#000000; stroke-width:4; stroke-opacity:1; fill:none" points="
  2290.58,1482.13 2290.58,1466.14 
  "/>
<path clip-path="url(#clip090)" d="M 0 0 M643.534 1509.1 L664.185 1509.1 L664.185 1513.53 L648.351 1513.53 L648.351 1523.06 Q649.497 1522.67 650.643 1522.49 Q651.789 1522.28 652.935 1522.28 Q659.445 1522.28 663.247 1525.85 Q667.049 1529.42 667.049 1535.51 Q667.049 1541.79 663.143 1545.28 Q659.237 1548.74 652.127 1548.74 Q649.679 1548.74 647.127 1548.32 Q644.601 1547.91 641.893 1547.07 L641.893 1541.79 Q644.237 1543.06 646.737 1543.69 Q649.237 1544.31 652.023 1544.31 Q656.528 1544.31 659.159 1541.94 Q661.789 1539.57 661.789 1535.51 Q661.789 1531.45 659.159 1529.08 Q656.528 1526.71 652.023 1526.71 Q649.914 1526.71 647.804 1527.18 Q645.721 1527.65 643.534 1528.64 L643.534 1509.1 Z" fill="#bebebe" fill-rule="evenodd" fill-opacity="1" /><path clip-path="url(#clip090)" d="M 0 0 M1173.83 1543.56 L1182.42 1543.56 L1182.42 1513.9 L1173.07 1515.77 L1173.07 1510.98 L1182.37 1509.1 L1187.63 1509.1 L1187.63 1543.56 L1196.22 1543.56 L1196.22 1547.98 L1173.83 1547.98 L1173.83 1543.56 Z" fill="#bebebe" fill-rule="evenodd" fill-opacity="1" /><path clip-path="url(#clip090)" d="M 0 0 M1213.18 1512.57 Q1209.11 1512.57 1207.06 1516.58 Q1205.02 1520.56 1205.02 1528.58 Q1205.02 1536.58 1207.06 1540.59 Q1209.11 1544.57 1213.18 1544.57 Q1217.26 1544.57 1219.29 1540.59 Q1221.35 1536.58 1221.35 1528.58 Q1221.35 1520.56 1219.29 1516.58 Q1217.26 1512.57 1213.18 1512.57 M1213.18 1508.4 Q1219.71 1508.4 1223.15 1513.58 Q1226.61 1518.74 1226.61 1528.58 Q1226.61 1538.4 1223.15 1543.58 Q1219.71 1548.74 1213.18 1548.74 Q1206.64 1548.74 1203.18 1543.58 Q1199.74 1538.4 1199.74 1528.58 Q1199.74 1518.74 1203.18 1513.58 Q1206.64 1508.4 1213.18 1508.4 Z" fill="#bebebe" fill-rule="evenodd" fill-opacity="1" /><path clip-path="url(#clip090)" d="M 0 0 M1719.76 1543.56 L1728.35 1543.56 L1728.35 1513.9 L1719 1515.77 L1719 1510.98 L1728.3 1509.1 L1733.56 1509.1 L1733.56 1543.56 L1742.15 1543.56 L1742.15 1547.98 L1719.76 1547.98 L1719.76 1543.56 Z" fill="#bebebe" fill-rule="evenodd" fill-opacity="1" /><path clip-path="url(#clip090)" d="M 0 0 M1747.91 1509.1 L1768.56 1509.1 L1768.56 1513.53 L1752.73 1513.53 L1752.73 1523.06 Q1753.87 1522.67 1755.02 1522.49 Q1756.16 1522.28 1757.31 1522.28 Q1763.82 1522.28 1767.62 1525.85 Q1771.42 1529.42 1771.42 1535.51 Q1771.42 1541.79 1767.52 1545.28 Q1763.61 1548.74 1756.5 1548.74 Q1754.05 1548.74 1751.5 1548.32 Q1748.98 1547.91 1746.27 1547.07 L1746.27 1541.79 Q1748.61 1543.06 1751.11 1543.69 Q1753.61 1544.31 1756.4 1544.31 Q1760.9 1544.31 1763.53 1541.94 Q1766.16 1539.57 1766.16 1535.51 Q1766.16 1531.45 1763.53 1529.08 Q1760.9 1526.71 1756.4 1526.71 Q1754.29 1526.71 1752.18 1527.18 Q1750.1 1527.65 1747.91 1528.64 L1747.91 1509.1 Z" fill="#bebebe" fill-rule="evenodd" fill-opacity="1" /><path clip-path="url(#clip090)" d="M 0 0 M2269.37 1543.56 L2287.73 1543.56 L2287.73 1547.98 L2263.04 1547.98 L2263.04 1543.56 Q2266.04 1540.46 2271.2 1535.25 Q2276.38 1530.02 2277.71 1528.5 Q2280.23 1525.67 2281.22 1523.71 Q2282.24 1521.73 2282.24 1519.83 Q2282.24 1516.73 2280.05 1514.78 Q2277.89 1512.83 2274.4 1512.83 Q2271.92 1512.83 2269.16 1513.69 Q2266.43 1514.55 2263.31 1516.29 L2263.31 1510.98 Q2266.48 1509.7 2269.24 1509.05 Q2272 1508.4 2274.29 1508.4 Q2280.34 1508.4 2283.93 1511.42 Q2287.52 1514.44 2287.52 1519.49 Q2287.52 1521.89 2286.61 1524.05 Q2285.73 1526.19 2283.36 1529.1 Q2282.71 1529.86 2279.22 1533.48 Q2275.73 1537.07 2269.37 1543.56 Z" fill="#bebebe" fill-rule="evenodd" fill-opacity="1" /><path clip-path="url(#clip090)" d="M 0 0 M2304.69 1512.57 Q2300.62 1512.57 2298.57 1516.58 Q2296.53 1520.56 2296.53 1528.58 Q2296.53 1536.58 2298.57 1540.59 Q2300.62 1544.57 2304.69 1544.57 Q2308.77 1544.57 2310.8 1540.59 Q2312.86 1536.58 2312.86 1528.58 Q2312.86 1520.56 2310.8 1516.58 Q2308.77 1512.57 2304.69 1512.57 M2304.69 1508.4 Q2311.22 1508.4 2314.66 1513.58 Q2318.12 1518.74 2318.12 1528.58 Q2318.12 1538.4 2314.66 1543.58 Q2311.22 1548.74 2304.69 1548.74 Q2298.15 1548.74 2294.69 1543.58 Q2291.25 1538.4 2291.25 1528.58 Q2291.25 1518.74 2294.69 1513.58 Q2298.15 1508.4 2304.69 1508.4 Z" fill="#bebebe" fill-rule="evenodd" fill-opacity="1" /><polyline clip-path="url(#clip092)" style="stroke:#000000; stroke-width:2; stroke-opacity:0.1; fill:none" points="
  156.002,1280.47 2352.76,1280.47 
  "/>
<polyline clip-path="url(#clip092)" style="stroke:#000000; stroke-width:2; stroke-opacity:0.1; fill:none" points="
  156.002,1004.47 2352.76,1004.47 
  "/>
<polyline clip-path="url(#clip092)" style="stroke:#000000; stroke-width:2; stroke-opacity:0.1; fill:none" points="
  156.002,728.471 2352.76,728.471 
  "/>
<polyline clip-path="url(#clip092)" style="stroke:#000000; stroke-width:2; stroke-opacity:0.1; fill:none" points="
  156.002,452.473 2352.76,452.473 
  "/>
<polyline clip-path="url(#clip092)" style="stroke:#000000; stroke-width:2; stroke-opacity:0.1; fill:none" points="
  156.002,176.475 2352.76,176.475 
  "/>
<polyline clip-path="url(#clip090)" style="stroke:#000000; stroke-width:4; stroke-opacity:1; fill:none" points="
  156.002,1482.13 156.002,149.392 
  "/>
<polyline clip-path="url(#clip090)" style="stroke:#000000; stroke-width:4; stroke-opacity:1; fill:none" points="
  156.002,1280.47 182.363,1280.47 
  "/>
<polyline clip-path="url(#clip090)" style="stroke:#000000; stroke-width:4; stroke-opacity:1; fill:none" points="
  156.002,1004.47 182.363,1004.47 
  "/>
<polyline clip-path="url(#clip090)" style="stroke:#000000; stroke-width:4; stroke-opacity:1; fill:none" points="
  156.002,728.471 182.363,728.471 
  "/>
<polyline clip-path="url(#clip090)" style="stroke:#000000; stroke-width:4; stroke-opacity:1; fill:none" points="
  156.002,452.473 182.363,452.473 
  "/>
<polyline clip-path="url(#clip090)" style="stroke:#000000; stroke-width:4; stroke-opacity:1; fill:none" points="
  156.002,176.475 182.363,176.475 
  "/>
<path clip-path="url(#clip090)" d="M 0 0 M66.7733 1264.49 Q62.7108 1264.49 60.6535 1268.5 Q58.6223 1272.48 58.6223 1280.51 Q58.6223 1288.5 60.6535 1292.51 Q62.7108 1296.49 66.7733 1296.49 Q70.8618 1296.49 72.8931 1292.51 Q74.9503 1288.5 74.9503 1280.51 Q74.9503 1272.48 72.8931 1268.5 Q70.8618 1264.49 66.7733 1264.49 M66.7733 1260.32 Q73.3097 1260.32 76.7472 1265.51 Q80.2107 1270.66 80.2107 1280.51 Q80.2107 1290.32 76.7472 1295.51 Q73.3097 1300.66 66.7733 1300.66 Q60.2369 1300.66 56.7733 1295.51 Q53.3359 1290.32 53.3359 1280.51 Q53.3359 1270.66 56.7733 1265.51 Q60.2369 1260.32 66.7733 1260.32 Z" fill="#bebebe" fill-rule="evenodd" fill-opacity="1" /><path clip-path="url(#clip090)" d="M 0 0 M85.9138 1293.29 L91.4086 1293.29 L91.4086 1299.91 L85.9138 1299.91 L85.9138 1293.29 Z" fill="#bebebe" fill-rule="evenodd" fill-opacity="1" /><path clip-path="url(#clip090)" d="M 0 0 M101.643 1295.48 L120.002 1295.48 L120.002 1299.91 L95.3148 1299.91 L95.3148 1295.48 Q98.3096 1292.38 103.466 1287.17 Q108.648 1281.94 109.976 1280.43 Q112.502 1277.59 113.492 1275.64 Q114.507 1273.66 114.507 1271.76 Q114.507 1268.66 112.32 1266.7 Q110.158 1264.75 106.669 1264.75 Q104.195 1264.75 101.435 1265.61 Q98.7002 1266.47 95.5752 1268.21 L95.5752 1262.9 Q98.7523 1261.63 101.513 1260.97 Q104.273 1260.32 106.565 1260.32 Q112.606 1260.32 116.2 1263.34 Q119.794 1266.36 119.794 1271.42 Q119.794 1273.81 118.882 1275.97 Q117.997 1278.11 115.627 1281.03 Q114.976 1281.78 111.487 1285.4 Q107.997 1288.99 101.643 1295.48 Z" fill="#bebebe" fill-rule="evenodd" fill-opacity="1" /><path clip-path="url(#clip090)" d="M 0 0 M64.4296 988.492 Q60.3671 988.492 58.3098 992.502 Q56.2786 996.487 56.2786 1004.51 Q56.2786 1012.5 58.3098 1016.51 Q60.3671 1020.5 64.4296 1020.5 Q68.5181 1020.5 70.5493 1016.51 Q72.6066 1012.5 72.6066 1004.51 Q72.6066 996.487 70.5493 992.502 Q68.5181 988.492 64.4296 988.492 M64.4296 984.325 Q70.966 984.325 74.4035 989.508 Q77.867 994.664 77.867 1004.51 Q77.867 1014.33 74.4035 1019.51 Q70.966 1024.66 64.4296 1024.66 Q57.8931 1024.66 54.4296 1019.51 Q50.9921 1014.33 50.9921 1004.51 Q50.9921 994.664 54.4296 989.508 Q57.8931 984.325 64.4296 984.325 Z" fill="#bebebe" fill-rule="evenodd" fill-opacity="1" /><path clip-path="url(#clip090)" d="M 0 0 M83.5701 1017.29 L89.0648 1017.29 L89.0648 1023.91 L83.5701 1023.91 L83.5701 1017.29 Z" fill="#bebebe" fill-rule="evenodd" fill-opacity="1" /><path clip-path="url(#clip090)" d="M 0 0 M109.221 989.612 L95.9398 1010.37 L109.221 1010.37 L109.221 989.612 M107.841 985.028 L114.455 985.028 L114.455 1010.37 L120.002 1010.37 L120.002 1014.74 L114.455 1014.74 L114.455 1023.91 L109.221 1023.91 L109.221 1014.74 L91.669 1014.74 L91.669 1009.66 L107.841 985.028 Z" fill="#bebebe" fill-rule="evenodd" fill-opacity="1" /><path clip-path="url(#clip090)" d="M 0 0 M64.7941 712.494 Q60.7317 712.494 58.6744 716.505 Q56.6431 720.489 56.6431 728.51 Q56.6431 736.504 58.6744 740.515 Q60.7317 744.499 64.7941 744.499 Q68.8827 744.499 70.9139 740.515 Q72.9712 736.504 72.9712 728.51 Q72.9712 720.489 70.9139 716.505 Q68.8827 712.494 64.7941 712.494 M64.7941 708.327 Q71.3306 708.327 74.768 713.51 Q78.2316 718.666 78.2316 728.51 Q78.2316 738.327 74.768 743.51 Q71.3306 748.666 64.7941 748.666 Q58.2577 748.666 54.7942 743.51 Q51.3567 738.327 51.3567 728.51 Q51.3567 718.666 54.7942 713.51 Q58.2577 708.327 64.7941 708.327 Z" fill="#bebebe" fill-rule="evenodd" fill-opacity="1" /><path clip-path="url(#clip090)" d="M 0 0 M83.9347 741.296 L89.4294 741.296 L89.4294 747.911 L83.9347 747.911 L83.9347 741.296 Z" fill="#bebebe" fill-rule="evenodd" fill-opacity="1" /><path clip-path="url(#clip090)" d="M 0 0 M107.033 726.374 Q103.492 726.374 101.409 728.796 Q99.3512 731.218 99.3512 735.437 Q99.3512 739.629 101.409 742.077 Q103.492 744.499 107.033 744.499 Q110.575 744.499 112.632 742.077 Q114.716 739.629 114.716 735.437 Q114.716 731.218 112.632 728.796 Q110.575 726.374 107.033 726.374 M117.476 709.89 L117.476 714.682 Q115.497 713.744 113.466 713.249 Q111.461 712.755 109.481 712.755 Q104.273 712.755 101.513 716.27 Q98.7783 719.786 98.3877 726.895 Q99.9242 724.629 102.242 723.432 Q104.56 722.208 107.346 722.208 Q113.205 722.208 116.591 725.775 Q120.002 729.317 120.002 735.437 Q120.002 741.426 116.461 745.046 Q112.919 748.666 107.033 748.666 Q100.289 748.666 96.721 743.51 Q93.1534 738.327 93.1534 728.51 Q93.1534 719.291 97.5283 713.822 Q101.903 708.327 109.273 708.327 Q111.252 708.327 113.257 708.718 Q115.289 709.109 117.476 709.89 Z" fill="#bebebe" fill-rule="evenodd" fill-opacity="1" /><path clip-path="url(#clip090)" d="M 0 0 M65.0806 436.496 Q61.0181 436.496 58.9608 440.507 Q56.9296 444.491 56.9296 452.512 Q56.9296 460.507 58.9608 464.517 Q61.0181 468.501 65.0806 468.501 Q69.1691 468.501 71.2004 464.517 Q73.2576 460.507 73.2576 452.512 Q73.2576 444.491 71.2004 440.507 Q69.1691 436.496 65.0806 436.496 M65.0806 432.33 Q71.617 432.33 75.0545 437.512 Q78.518 442.668 78.518 452.512 Q78.518 462.33 75.0545 467.512 Q71.617 472.668 65.0806 472.668 Q58.5442 472.668 55.0806 467.512 Q51.6432 462.33 51.6432 452.512 Q51.6432 442.668 55.0806 437.512 Q58.5442 432.33 65.0806 432.33 Z" fill="#bebebe" fill-rule="evenodd" fill-opacity="1" /><path clip-path="url(#clip090)" d="M 0 0 M84.2211 465.298 L89.7159 465.298 L89.7159 471.913 L84.2211 471.913 L84.2211 465.298 Z" fill="#bebebe" fill-rule="evenodd" fill-opacity="1" /><path clip-path="url(#clip090)" d="M 0 0 M106.669 453.449 Q102.919 453.449 100.757 455.455 Q98.6221 457.46 98.6221 460.975 Q98.6221 464.491 100.757 466.496 Q102.919 468.501 106.669 468.501 Q110.419 468.501 112.58 466.496 Q114.742 464.465 114.742 460.975 Q114.742 457.46 112.58 455.455 Q110.445 453.449 106.669 453.449 M101.409 451.21 Q98.0231 450.376 96.1221 448.059 Q94.2471 445.741 94.2471 442.408 Q94.2471 437.746 97.5544 435.038 Q100.888 432.33 106.669 432.33 Q112.476 432.33 115.783 435.038 Q119.091 437.746 119.091 442.408 Q119.091 445.741 117.19 448.059 Q115.315 450.376 111.955 451.21 Q115.757 452.095 117.867 454.673 Q120.002 457.251 120.002 460.975 Q120.002 466.626 116.539 469.647 Q113.101 472.668 106.669 472.668 Q100.237 472.668 96.7731 469.647 Q93.3356 466.626 93.3356 460.975 Q93.3356 457.251 95.4711 454.673 Q97.6065 452.095 101.409 451.21 M99.4814 442.903 Q99.4814 445.923 101.356 447.616 Q103.257 449.309 106.669 449.309 Q110.054 449.309 111.955 447.616 Q113.882 445.923 113.882 442.903 Q113.882 439.882 111.955 438.189 Q110.054 436.496 106.669 436.496 Q103.257 436.496 101.356 438.189 Q99.4814 439.882 99.4814 442.903 Z" fill="#bebebe" fill-rule="evenodd" fill-opacity="1" /><path clip-path="url(#clip090)" d="M 0 0 M56.0181 191.488 L64.6118 191.488 L64.6118 161.827 L55.2629 163.702 L55.2629 158.91 L64.5598 157.035 L69.8202 157.035 L69.8202 191.488 L78.4139 191.488 L78.4139 195.915 L56.0181 195.915 L56.0181 191.488 Z" fill="#bebebe" fill-rule="evenodd" fill-opacity="1" /><path clip-path="url(#clip090)" d="M 0 0 M84.1169 189.3 L89.6117 189.3 L89.6117 195.915 L84.1169 195.915 L84.1169 189.3 Z" fill="#bebebe" fill-rule="evenodd" fill-opacity="1" /><path clip-path="url(#clip090)" d="M 0 0 M106.565 160.499 Q102.502 160.499 100.445 164.509 Q98.4137 168.493 98.4137 176.514 Q98.4137 184.509 100.445 188.519 Q102.502 192.504 106.565 192.504 Q110.653 192.504 112.685 188.519 Q114.742 184.509 114.742 176.514 Q114.742 168.493 112.685 164.509 Q110.653 160.499 106.565 160.499 M106.565 156.332 Q113.101 156.332 116.539 161.514 Q120.002 166.67 120.002 176.514 Q120.002 186.332 116.539 191.514 Q113.101 196.67 106.565 196.67 Q100.028 196.67 96.5648 191.514 Q93.1273 186.332 93.1273 176.514 Q93.1273 166.67 96.5648 161.514 Q100.028 156.332 106.565 156.332 Z" fill="#bebebe" fill-rule="evenodd" fill-opacity="1" /><path clip-path="url(#clip090)" d="M 0 0 M948.507 20.1156 L948.507 31.516 Q941.852 28.3332 935.949 26.7707 Q930.046 25.2082 924.549 25.2082 Q915 25.2082 909.792 28.9119 Q904.641 32.6156 904.641 39.4442 Q904.641 45.1734 908.056 48.1247 Q911.528 51.0182 921.134 52.8122 L928.194 54.259 Q941.273 56.7474 947.465 63.0552 Q953.715 69.3052 953.715 79.8375 Q953.715 92.3953 945.266 98.8768 Q936.875 105.358 920.613 105.358 Q914.479 105.358 907.535 103.969 Q900.648 102.58 893.241 99.8606 L893.241 87.8236 Q900.359 91.8166 907.188 93.8421 Q914.016 95.8675 920.613 95.8675 Q930.625 95.8675 936.065 91.9324 Q941.505 87.9972 941.505 80.7056 Q941.505 74.3399 937.569 70.7519 Q933.692 67.164 924.78 65.37 L917.662 63.9811 Q904.583 61.377 898.739 55.8215 Q892.894 50.2659 892.894 40.3702 Q892.894 28.9119 900.938 22.3147 Q909.039 15.7175 923.218 15.7175 Q929.294 15.7175 935.602 16.817 Q941.91 17.9166 948.507 20.1156 Z" fill="#bebebe" fill-rule="evenodd" fill-opacity="1" /><path clip-path="url(#clip090)" d="M 0 0 M1020.32 68.6107 L1020.32 73.819 L971.366 73.819 Q972.06 84.8144 977.963 90.6014 Q983.923 96.3305 994.514 96.3305 Q1000.65 96.3305 1006.38 94.8259 Q1012.16 93.3213 1017.84 90.312 L1017.84 100.381 Q1012.11 102.812 1006.09 104.085 Q1000.07 105.358 993.877 105.358 Q978.368 105.358 969.282 96.3305 Q960.254 87.3028 960.254 71.9093 Q960.254 55.9951 968.819 46.678 Q977.442 37.303 992.025 37.303 Q1005.1 37.303 1012.68 45.7521 Q1020.32 54.1432 1020.32 68.6107 M1009.68 65.4858 Q1009.56 56.7474 1004.76 51.5391 Q1000.01 46.3308 992.141 46.3308 Q983.229 46.3308 977.847 51.3655 Q972.523 56.4002 971.713 65.5436 L1009.68 65.4858 Z" fill="#bebebe" fill-rule="evenodd" fill-opacity="1" /><path clip-path="url(#clip090)" d="M 0 0 M1069.05 48.8192 Q1067.26 47.7775 1065.12 47.3146 Q1063.03 46.7937 1060.49 46.7937 Q1051.46 46.7937 1046.6 52.6965 Q1041.79 58.5414 1041.79 69.5367 L1041.79 103.68 L1031.09 103.68 L1031.09 38.8655 L1041.79 38.8655 L1041.79 48.9349 Q1045.15 43.0322 1050.53 40.1965 Q1055.91 37.303 1063.61 37.303 Q1064.71 37.303 1066.04 37.4767 Q1067.37 37.5924 1068.99 37.8817 L1069.05 48.8192 Z" fill="#bebebe" fill-rule="evenodd" fill-opacity="1" /><path clip-path="url(#clip090)" d="M 0 0 M1080.22 38.8655 L1090.87 38.8655 L1090.87 103.68 L1080.22 103.68 L1080.22 38.8655 M1080.22 13.6342 L1090.87 13.6342 L1090.87 27.1179 L1080.22 27.1179 L1080.22 13.6342 Z" fill="#bebebe" fill-rule="evenodd" fill-opacity="1" /><path clip-path="url(#clip090)" d="M 0 0 M1157.48 68.6107 L1157.48 73.819 L1108.52 73.819 Q1109.21 84.8144 1115.11 90.6014 Q1121.08 96.3305 1131.67 96.3305 Q1137.8 96.3305 1143.53 94.8259 Q1149.32 93.3213 1154.99 90.312 L1154.99 100.381 Q1149.26 102.812 1143.24 104.085 Q1137.22 105.358 1131.03 105.358 Q1115.52 105.358 1106.43 96.3305 Q1097.41 87.3028 1097.41 71.9093 Q1097.41 55.9951 1105.97 46.678 Q1114.59 37.303 1129.18 37.303 Q1142.26 37.303 1149.84 45.7521 Q1157.48 54.1432 1157.48 68.6107 M1146.83 65.4858 Q1146.71 56.7474 1141.91 51.5391 Q1137.16 46.3308 1129.29 46.3308 Q1120.38 46.3308 1115 51.3655 Q1109.67 56.4002 1108.86 65.5436 L1146.83 65.4858 Z" fill="#bebebe" fill-rule="evenodd" fill-opacity="1" /><path clip-path="url(#clip090)" d="M 0 0 M1216.39 17.28 L1216.39 49.3979 L1206.55 49.3979 L1206.55 17.28 L1216.39 17.28 Z" fill="#bebebe" fill-rule="evenodd" fill-opacity="1" /><path clip-path="url(#clip090)" d="M 0 0 M1268.88 40.7752 L1268.88 50.8446 Q1264.36 48.5298 1259.5 47.3724 Q1254.64 46.215 1249.43 46.215 Q1241.5 46.215 1237.51 48.6456 Q1233.57 51.0761 1233.57 55.9372 Q1233.57 59.6409 1236.41 61.7821 Q1239.25 63.8654 1247.81 65.7751 L1251.46 66.5853 Q1262.8 69.0158 1267.54 73.4718 Q1272.35 77.87 1272.35 85.7982 Q1272.35 94.8259 1265.17 100.092 Q1258.05 105.358 1245.55 105.358 Q1240.35 105.358 1234.67 104.317 Q1229.06 103.333 1222.81 101.307 L1222.81 90.312 Q1228.71 93.3791 1234.44 94.9416 Q1240.17 96.4462 1245.79 96.4462 Q1253.31 96.4462 1257.36 93.9 Q1261.41 91.2958 1261.41 86.6083 Q1261.41 82.2681 1258.46 79.9533 Q1255.57 77.6385 1245.67 75.4973 L1241.97 74.6292 Q1232.07 72.5459 1227.67 68.2635 Q1223.27 63.9233 1223.27 56.4002 Q1223.27 47.2567 1229.76 42.2799 Q1236.24 37.303 1248.16 37.303 Q1254.06 37.303 1259.27 38.1711 Q1264.48 39.0391 1268.88 40.7752 Z" fill="#bebebe" fill-rule="evenodd" fill-opacity="1" /><path clip-path="url(#clip090)" d="M 0 0 M1330.16 41.3539 L1330.16 51.3076 Q1325.65 48.8192 1321.07 47.6039 Q1316.56 46.3308 1311.93 46.3308 Q1301.57 46.3308 1295.84 52.928 Q1290.11 59.4673 1290.11 71.3306 Q1290.11 83.194 1295.84 89.7912 Q1301.57 96.3305 1311.93 96.3305 Q1316.56 96.3305 1321.07 95.1152 Q1325.65 93.8421 1330.16 91.3537 L1330.16 101.192 Q1325.7 103.275 1320.9 104.317 Q1316.16 105.358 1310.77 105.358 Q1296.13 105.358 1287.51 96.1569 Q1278.89 86.9556 1278.89 71.3306 Q1278.89 55.4742 1287.57 46.3886 Q1296.31 37.303 1311.47 37.303 Q1316.39 37.303 1321.07 38.3447 Q1325.76 39.3285 1330.16 41.3539 Z" fill="#bebebe" fill-rule="evenodd" fill-opacity="1" /><path clip-path="url(#clip090)" d="M 0 0 M1370.78 71.0992 Q1357.88 71.0992 1352.9 74.0505 Q1347.93 77.0019 1347.93 84.1199 Q1347.93 89.7912 1351.63 93.1476 Q1355.39 96.4462 1361.81 96.4462 Q1370.67 96.4462 1375.99 90.1963 Q1381.37 83.8884 1381.37 73.4718 L1381.37 71.0992 L1370.78 71.0992 M1392.02 66.701 L1392.02 103.68 L1381.37 103.68 L1381.37 93.8421 Q1377.73 99.7448 1372.29 102.58 Q1366.85 105.358 1358.98 105.358 Q1349.03 105.358 1343.12 99.8027 Q1337.28 94.1893 1337.28 84.8144 Q1337.28 73.8769 1344.57 68.3214 Q1351.92 62.7659 1366.44 62.7659 L1381.37 62.7659 L1381.37 61.7242 Q1381.37 54.3747 1376.51 50.3817 Q1371.71 46.3308 1362.97 46.3308 Q1357.42 46.3308 1352.15 47.6618 Q1346.88 48.9928 1342.02 51.6548 L1342.02 41.8169 Q1347.87 39.56 1353.37 38.4604 Q1358.86 37.303 1364.07 37.303 Q1378.13 37.303 1385.08 44.5947 Q1392.02 51.8863 1392.02 66.701 Z" fill="#bebebe" fill-rule="evenodd" fill-opacity="1" /><path clip-path="url(#clip090)" d="M 0 0 M1413.72 20.4629 L1413.72 38.8655 L1435.66 38.8655 L1435.66 47.141 L1413.72 47.141 L1413.72 82.3259 Q1413.72 90.2541 1415.87 92.5111 Q1418.06 94.768 1424.72 94.768 L1435.66 94.768 L1435.66 103.68 L1424.72 103.68 Q1412.39 103.68 1407.71 99.1083 Q1403.02 94.4787 1403.02 82.3259 L1403.02 47.141 L1395.21 47.141 L1395.21 38.8655 L1403.02 38.8655 L1403.02 20.4629 L1413.72 20.4629 Z" fill="#bebebe" fill-rule="evenodd" fill-opacity="1" /><path clip-path="url(#clip090)" d="M 0 0 M1457.36 20.4629 L1457.36 38.8655 L1479.29 38.8655 L1479.29 47.141 L1457.36 47.141 L1457.36 82.3259 Q1457.36 90.2541 1459.5 92.5111 Q1461.7 94.768 1468.35 94.768 L1479.29 94.768 L1479.29 103.68 L1468.35 103.68 Q1456.03 103.68 1451.34 99.1083 Q1446.65 94.4787 1446.65 82.3259 L1446.65 47.141 L1438.84 47.141 L1438.84 38.8655 L1446.65 38.8655 L1446.65 20.4629 L1457.36 20.4629 Z" fill="#bebebe" fill-rule="evenodd" fill-opacity="1" /><path clip-path="url(#clip090)" d="M 0 0 M1545.9 68.6107 L1545.9 73.819 L1496.94 73.819 Q1497.64 84.8144 1503.54 90.6014 Q1509.5 96.3305 1520.09 96.3305 Q1526.22 96.3305 1531.95 94.8259 Q1537.74 93.3213 1543.41 90.312 L1543.41 100.381 Q1537.68 102.812 1531.66 104.085 Q1525.64 105.358 1519.45 105.358 Q1503.94 105.358 1494.86 96.3305 Q1485.83 87.3028 1485.83 71.9093 Q1485.83 55.9951 1494.4 46.678 Q1503.02 37.303 1517.6 37.303 Q1530.68 37.303 1538.26 45.7521 Q1545.9 54.1432 1545.9 68.6107 M1535.25 65.4858 Q1535.14 56.7474 1530.33 51.5391 Q1525.59 46.3308 1517.72 46.3308 Q1508.8 46.3308 1503.42 51.3655 Q1498.1 56.4002 1497.29 65.5436 L1535.25 65.4858 Z" fill="#bebebe" fill-rule="evenodd" fill-opacity="1" /><path clip-path="url(#clip090)" d="M 0 0 M1594.63 48.8192 Q1592.83 47.7775 1590.69 47.3146 Q1588.61 46.7937 1586.06 46.7937 Q1577.03 46.7937 1572.17 52.6965 Q1567.37 58.5414 1567.37 69.5367 L1567.37 103.68 L1556.66 103.68 L1556.66 38.8655 L1567.37 38.8655 L1567.37 48.9349 Q1570.73 43.0322 1576.11 40.1965 Q1581.49 37.303 1589.19 37.303 Q1590.29 37.303 1591.62 37.4767 Q1592.95 37.5924 1594.57 37.8817 L1594.63 48.8192 Z" fill="#bebebe" fill-rule="evenodd" fill-opacity="1" /><path clip-path="url(#clip090)" d="M 0 0 M1615.86 17.28 L1615.86 49.3979 L1606.03 49.3979 L1606.03 17.28 L1615.86 17.28 Z" fill="#bebebe" fill-rule="evenodd" fill-opacity="1" /><path clip-path="url(#clip092)" d="M202.174 1403.99 L202.174 1435.99 L234.174 1435.99 L234.174 1403.99 L202.174 1403.99 Z" fill="#e69f00" fill-rule="evenodd" fill-opacity="1" stroke="#000000" stroke-opacity="1" stroke-width="3.2"/>
<path clip-path="url(#clip092)" d="M311.249 568.926 L311.249 600.926 L343.249 600.926 L343.249 568.926 L311.249 568.926 Z" fill="#e69f00" fill-rule="evenodd" fill-opacity="1" stroke="#000000" stroke-opacity="1" stroke-width="3.2"/>
<path clip-path="url(#clip092)" d="M420.323 1180.63 L420.323 1212.63 L452.323 1212.63 L452.323 1180.63 L420.323 1180.63 Z" fill="#e69f00" fill-rule="evenodd" fill-opacity="1" stroke="#000000" stroke-opacity="1" stroke-width="3.2"/>
<path clip-path="url(#clip092)" d="M529.397 1035.06 L529.397 1067.06 L561.397 1067.06 L561.397 1035.06 L529.397 1035.06 Z" fill="#e69f00" fill-rule="evenodd" fill-opacity="1" stroke="#000000" stroke-opacity="1" stroke-width="3.2"/>
<path clip-path="url(#clip092)" d="M638.471 1424.58 L638.471 1456.58 L670.471 1456.58 L670.471 1424.58 L638.471 1424.58 Z" fill="#e69f00" fill-rule="evenodd" fill-opacity="1" stroke="#000000" stroke-opacity="1" stroke-width="3.2"/>
<path clip-path="url(#clip092)" d="M747.545 1345.14 L747.545 1377.14 L779.545 1377.14 L779.545 1345.14 L747.545 1345.14 Z" fill="#e69f00" fill-rule="evenodd" fill-opacity="1" stroke="#000000" stroke-opacity="1" stroke-width="3.2"/>
<path clip-path="url(#clip092)" d="M856.619 515.31 L856.619 547.31 L888.619 547.31 L888.619 515.31 L856.619 515.31 Z" fill="#e69f00" fill-rule="evenodd" fill-opacity="1" stroke="#000000" stroke-opacity="1" stroke-width="3.2"/>
<path clip-path="url(#clip092)" d="M965.694 926.913 L965.694 958.913 L997.694 958.913 L997.694 926.913 L965.694 926.913 Z" fill="#e69f00" fill-rule="evenodd" fill-opacity="1" stroke="#000000" stroke-opacity="1" stroke-width="3.2"/>
<path clip-path="url(#clip092)" d="M1074.77 904.601 L1074.77 936.601 L1106.77 936.601 L1106.77 904.601 L1074.77 904.601 Z" fill="#e69f00" fill-rule="evenodd" fill-opacity="1" stroke="#000000" stroke-opacity="1" stroke-width="3.2"/>
<path clip-path="url(#clip092)" d="M1183.84 1119.78 L1183.84 1151.78 L1215.84 1151.78 L1215.84 1119.78 L1183.84 1119.78 Z" fill="#e69f00" fill-rule="evenodd" fill-opacity="1" stroke="#000000" stroke-opacity="1" stroke-width="3.2"/>
<path clip-path="url(#clip092)" d="M1292.92 524.352 L1292.92 556.352 L1324.92 556.352 L1324.92 524.352 L1292.92 524.352 Z" fill="#e69f00" fill-rule="evenodd" fill-opacity="1" stroke="#000000" stroke-opacity="1" stroke-width="3.2"/>
<path clip-path="url(#clip092)" d="M1401.99 289.598 L1401.99 321.598 L1433.99 321.598 L1433.99 289.598 L1401.99 289.598 Z" fill="#e69f00" fill-rule="evenodd" fill-opacity="1" stroke="#000000" stroke-opacity="1" stroke-width="3.2"/>
<path clip-path="url(#clip092)" d="M1511.06 1407.32 L1511.06 1439.32 L1543.06 1439.32 L1543.06 1407.32 L1511.06 1407.32 Z" fill="#e69f00" fill-rule="evenodd" fill-opacity="1" stroke="#000000" stroke-opacity="1" stroke-width="3.2"/>
<path clip-path="url(#clip092)" d="M1620.14 877.159 L1620.14 909.159 L1652.14 909.159 L1652.14 877.159 L1620.14 877.159 Z" fill="#e69f00" fill-rule="evenodd" fill-opacity="1" stroke="#000000" stroke-opacity="1" stroke-width="3.2"/>
<path clip-path="url(#clip092)" d="M1729.21 1024.34 L1729.21 1056.34 L1761.21 1056.34 L1761.21 1024.34 L1729.21 1024.34 Z" fill="#e69f00" fill-rule="evenodd" fill-opacity="1" stroke="#000000" stroke-opacity="1" stroke-width="3.2"/>
<path clip-path="url(#clip092)" d="M1838.29 1262.15 L1838.29 1294.15 L1870.29 1294.15 L1870.29 1262.15 L1838.29 1262.15 Z" fill="#e69f00" fill-rule="evenodd" fill-opacity="1" stroke="#000000" stroke-opacity="1" stroke-width="3.2"/>
<path clip-path="url(#clip092)" d="M1947.36 1172.76 L1947.36 1204.76 L1979.36 1204.76 L1979.36 1172.76 L1947.36 1172.76 Z" fill="#e69f00" fill-rule="evenodd" fill-opacity="1" stroke="#000000" stroke-opacity="1" stroke-width="3.2"/>
<path clip-path="url(#clip092)" d="M2056.44 362.976 L2056.44 394.976 L2088.44 394.976 L2088.44 362.976 L2056.44 362.976 Z" fill="#e69f00" fill-rule="evenodd" fill-opacity="1" stroke="#000000" stroke-opacity="1" stroke-width="3.2"/>
<path clip-path="url(#clip092)" d="M2165.51 1206.52 L2165.51 1238.52 L2197.51 1238.52 L2197.51 1206.52 L2165.51 1206.52 Z" fill="#e69f00" fill-rule="evenodd" fill-opacity="1" stroke="#000000" stroke-opacity="1" stroke-width="3.2"/>
<path clip-path="url(#clip092)" d="M2274.58 1300.91 L2274.58 1332.91 L2306.58 1332.91 L2306.58 1300.91 L2274.58 1300.91 Z" fill="#e69f00" fill-rule="evenodd" fill-opacity="1" stroke="#000000" stroke-opacity="1" stroke-width="3.2"/>
<circle clip-path="url(#clip092)" cx="218.174" cy="378.893" r="14" fill="#56b4e9" fill-rule="evenodd" fill-opacity="1" stroke="#000000" stroke-opacity="1" stroke-width="3.2"/>
<circle clip-path="url(#clip092)" cx="327.249" cy="584.195" r="14" fill="#56b4e9" fill-rule="evenodd" fill-opacity="1" stroke="#000000" stroke-opacity="1" stroke-width="3.2"/>
<circle clip-path="url(#clip092)" cx="436.323" cy="698.187" r="14" fill="#56b4e9" fill-rule="evenodd" fill-opacity="1" stroke="#000000" stroke-opacity="1" stroke-width="3.2"/>
<circle clip-path="url(#clip092)" cx="545.397" cy="187.111" r="14" fill="#56b4e9" fill-rule="evenodd" fill-opacity="1" stroke="#000000" stroke-opacity="1" stroke-width="3.2"/>
<circle clip-path="url(#clip092)" cx="654.471" cy="1142.13" r="14" fill="#56b4e9" fill-rule="evenodd" fill-opacity="1" stroke="#000000" stroke-opacity="1" stroke-width="3.2"/>
<circle clip-path="url(#clip092)" cx="763.545" cy="1368.8" r="14" fill="#56b4e9" fill-rule="evenodd" fill-opacity="1" stroke="#000000" stroke-opacity="1" stroke-width="3.2"/>
<circle clip-path="url(#clip092)" cx="872.619" cy="1222.78" r="14" fill="#56b4e9" fill-rule="evenodd" fill-opacity="1" stroke="#000000" stroke-opacity="1" stroke-width="3.2"/>
<circle clip-path="url(#clip092)" cx="981.694" cy="1408.51" r="14" fill="#56b4e9" fill-rule="evenodd" fill-opacity="1" stroke="#000000" stroke-opacity="1" stroke-width="3.2"/>
<circle clip-path="url(#clip092)" cx="1090.77" cy="810.864" r="14" fill="#56b4e9" fill-rule="evenodd" fill-opacity="1" stroke="#000000" stroke-opacity="1" stroke-width="3.2"/>
<circle clip-path="url(#clip092)" cx="1199.84" cy="1355.92" r="14" fill="#56b4e9" fill-rule="evenodd" fill-opacity="1" stroke="#000000" stroke-opacity="1" stroke-width="3.2"/>
<circle clip-path="url(#clip092)" cx="1308.92" cy="515.038" r="14" fill="#56b4e9" fill-rule="evenodd" fill-opacity="1" stroke="#000000" stroke-opacity="1" stroke-width="3.2"/>
<circle clip-path="url(#clip092)" cx="1417.99" cy="368.496" r="14" fill="#56b4e9" fill-rule="evenodd" fill-opacity="1" stroke="#000000" stroke-opacity="1" stroke-width="3.2"/>
<circle clip-path="url(#clip092)" cx="1527.06" cy="953.095" r="14" fill="#56b4e9" fill-rule="evenodd" fill-opacity="1" stroke="#000000" stroke-opacity="1" stroke-width="3.2"/>
<circle clip-path="url(#clip092)" cx="1636.14" cy="290.472" r="14" fill="#56b4e9" fill-rule="evenodd" fill-opacity="1" stroke="#000000" stroke-opacity="1" stroke-width="3.2"/>
<circle clip-path="url(#clip092)" cx="1745.21" cy="581.322" r="14" fill="#56b4e9" fill-rule="evenodd" fill-opacity="1" stroke="#000000" stroke-opacity="1" stroke-width="3.2"/>
<circle clip-path="url(#clip092)" cx="1854.29" cy="1145.51" r="14" fill="#56b4e9" fill-rule="evenodd" fill-opacity="1" stroke="#000000" stroke-opacity="1" stroke-width="3.2"/>
<circle clip-path="url(#clip092)" cx="1963.36" cy="1019.7" r="14" fill="#56b4e9" fill-rule="evenodd" fill-opacity="1" stroke="#000000" stroke-opacity="1" stroke-width="3.2"/>
<circle clip-path="url(#clip092)" cx="2072.44" cy="1441.87" r="14" fill="#56b4e9" fill-rule="evenodd" fill-opacity="1" stroke="#000000" stroke-opacity="1" stroke-width="3.2"/>
<circle clip-path="url(#clip092)" cx="2181.51" cy="667.326" r="14" fill="#56b4e9" fill-rule="evenodd" fill-opacity="1" stroke="#000000" stroke-opacity="1" stroke-width="3.2"/>
<circle clip-path="url(#clip092)" cx="2290.58" cy="966.396" r="14" fill="#56b4e9" fill-rule="evenodd" fill-opacity="1" stroke="#000000" stroke-opacity="1" stroke-width="3.2"/>
<path clip-path="url(#clip092)" d="M218.174 513.989 L204.318 505.989 L204.318 489.989 L218.174 481.989 L232.03 489.989 L232.03 505.989 Z" fill="#009e73" fill-rule="evenodd" fill-opacity="1" stroke="#000000" stroke-opacity="1" stroke-width="3.2"/>
<path clip-path="url(#clip092)" d="M327.249 1408.56 L313.393 1400.56 L313.393 1384.56 L327.249 1376.56 L341.105 1384.56 L341.105 1400.56 Z" fill="#009e73" fill-rule="evenodd" fill-opacity="1" stroke="#000000" stroke-opacity="1" stroke-width="3.2"/>
<path clip-path="url(#clip092)" d="M436.323 1059.76 L422.467 1051.76 L422.467 1035.76 L436.323 1027.76 L450.179 1035.76 L450.179 1051.76 Z" fill="#009e73" fill-rule="evenodd" fill-opacity="1" stroke="#000000" stroke-opacity="1" stroke-width="3.2"/>
<path clip-path="url(#clip092)" d="M545.397 1385.97 L531.541 1377.97 L531.541 1361.97 L545.397 1353.97 L559.253 1361.97 L559.253 1377.97 Z" fill="#009e73" fill-rule="evenodd" fill-opacity="1" stroke="#000000" stroke-opacity="1" stroke-width="3.2"/>
<path clip-path="url(#clip092)" d="M654.471 1041.55 L640.615 1033.55 L640.615 1017.55 L654.471 1009.55 L668.327 1017.55 L668.327 1033.55 Z" fill="#009e73" fill-rule="evenodd" fill-opacity="1" stroke="#000000" stroke-opacity="1" stroke-width="3.2"/>
<path clip-path="url(#clip092)" d="M763.545 526.067 L749.689 518.067 L749.689 502.067 L763.545 494.067 L777.401 502.067 L777.401 518.067 Z" fill="#009e73" fill-rule="evenodd" fill-opacity="1" stroke="#000000" stroke-opacity="1" stroke-width="3.2"/>
<path clip-path="url(#clip092)" d="M872.619 885.997 L858.763 877.997 L858.763 861.997 L872.619 853.997 L886.475 861.997 L886.475 877.997 Z" fill="#009e73" fill-rule="evenodd" fill-opacity="1" stroke="#000000" stroke-opacity="1" stroke-width="3.2"/>
<path clip-path="url(#clip092)" d="M981.694 1114.07 L967.838 1106.07 L967.838 1090.07 L981.694 1082.07 L995.55 1090.07 L995.55 1106.07 Z" fill="#009e73" fill-rule="evenodd" fill-opacity="1" stroke="#000000" stroke-opacity="1" stroke-width="3.2"/>
<path clip-path="url(#clip092)" d="M1090.77 1016.16 L1076.91 1008.16 L1076.91 992.157 L1090.77 984.157 L1104.62 992.157 L1104.62 1008.16 Z" fill="#009e73" fill-rule="evenodd" fill-opacity="1" stroke="#000000" stroke-opacity="1" stroke-width="3.2"/>
<path clip-path="url(#clip092)" d="M1199.84 831.635 L1185.99 823.635 L1185.99 807.635 L1199.84 799.635 L1213.7 807.635 L1213.7 823.635 Z" fill="#009e73" fill-rule="evenodd" fill-opacity="1" stroke="#000000" stroke-opacity="1" stroke-width="3.2"/>
<path clip-path="url(#clip092)" d="M1308.92 764.45 L1295.06 756.45 L1295.06 740.45 L1308.92 732.45 L1322.77 740.45 L1322.77 756.45 Z" fill="#009e73" fill-rule="evenodd" fill-opacity="1" stroke="#000000" stroke-opacity="1" stroke-width="3.2"/>
<path clip-path="url(#clip092)" d="M1417.99 1048.92 L1404.13 1040.92 L1404.13 1024.92 L1417.99 1016.92 L1431.85 1024.92 L1431.85 1040.92 Z" fill="#009e73" fill-rule="evenodd" fill-opacity="1" stroke="#000000" stroke-opacity="1" stroke-width="3.2"/>
<path clip-path="url(#clip092)" d="M1527.06 963.39 L1513.21 955.39 L1513.21 939.39 L1527.06 931.39 L1540.92 939.39 L1540.92 955.39 Z" fill="#009e73" fill-rule="evenodd" fill-opacity="1" stroke="#000000" stroke-opacity="1" stroke-width="3.2"/>
<path clip-path="url(#clip092)" d="M1636.14 1242.04 L1622.28 1234.04 L1622.28 1218.04 L1636.14 1210.04 L1649.99 1218.04 L1649.99 1234.04 Z" fill="#009e73" fill-rule="evenodd" fill-opacity="1" stroke="#000000" stroke-opacity="1" stroke-width="3.2"/>
<path clip-path="url(#clip092)" d="M1745.21 319.24 L1731.36 311.24 L1731.36 295.24 L1745.21 287.24 L1759.07 295.24 L1759.07 311.24 Z" fill="#009e73" fill-rule="evenodd" fill-opacity="1" stroke="#000000" stroke-opacity="1" stroke-width="3.2"/>
<path clip-path="url(#clip092)" d="M1854.29 1368.52 L1840.43 1360.52 L1840.43 1344.52 L1854.29 1336.52 L1868.14 1344.52 L1868.14 1360.52 Z" fill="#009e73" fill-rule="evenodd" fill-opacity="1" stroke="#000000" stroke-opacity="1" stroke-width="3.2"/>
<path clip-path="url(#clip092)" d="M1963.36 1460.41 L1949.51 1452.41 L1949.51 1436.41 L1963.36 1428.41 L1977.22 1436.41 L1977.22 1452.41 Z" fill="#009e73" fill-rule="evenodd" fill-opacity="1" stroke="#000000" stroke-opacity="1" stroke-width="3.2"/>
<path clip-path="url(#clip092)" d="M2072.44 1084.61 L2058.58 1076.61 L2058.58 1060.61 L2072.44 1052.61 L2086.29 1060.61 L2086.29 1076.61 Z" fill="#009e73" fill-rule="evenodd" fill-opacity="1" stroke="#000000" stroke-opacity="1" stroke-width="3.2"/>
<path clip-path="url(#clip092)" d="M2181.51 422.343 L2167.65 414.343 L2167.65 398.343 L2181.51 390.343 L2195.37 398.343 L2195.37 414.343 Z" fill="#009e73" fill-rule="evenodd" fill-opacity="1" stroke="#000000" stroke-opacity="1" stroke-width="3.2"/>
<path clip-path="url(#clip092)" d="M2290.58 440.321 L2276.73 432.321 L2276.73 416.321 L2290.58 408.321 L2304.44 416.321 L2304.44 432.321 Z" fill="#009e73" fill-rule="evenodd" fill-opacity="1" stroke="#000000" stroke-opacity="1" stroke-width="3.2"/>
<path clip-path="url(#clip090)" d="
M1983.85 435.737 L2279.53 435.737 L2279.53 193.817 L1983.85 193.817  Z
  " fill="#ffffff" fill-rule="evenodd" fill-opacity="1"/>
<polyline clip-path="url(#clip090)" style="stroke:#000000; stroke-width:4; stroke-opacity:1; fill:none" points="
  1983.85,435.737 2279.53,435.737 2279.53,193.817 1983.85,193.817 1983.85,435.737 
  "/>
<path clip-path="url(#clip090)" d="M2055.88 228.697 L2055.88 279.897 L2107.08 279.897 L2107.08 228.697 L2055.88 228.697 Z" fill="#e69f00" fill-rule="evenodd" fill-opacity="1" stroke="#000000" stroke-opacity="1" stroke-width="5.12"/>
<path clip-path="url(#clip090)" d="M 0 0 M2192.96 273.984 Q2191.15 278.614 2189.44 280.026 Q2187.73 281.438 2184.86 281.438 L2181.46 281.438 L2181.46 277.873 L2183.96 277.873 Q2185.71 277.873 2186.69 277.04 Q2187.66 276.206 2188.84 273.104 L2189.6 271.16 L2179.12 245.651 L2183.63 245.651 L2191.73 265.929 L2199.83 245.651 L2204.35 245.651 L2192.96 273.984 Z" fill="#bebebe" fill-rule="evenodd" fill-opacity="1" /><path clip-path="url(#clip090)" d="M 0 0 M2210.23 267.641 L2217.87 267.641 L2217.87 241.276 L2209.56 242.943 L2209.56 238.683 L2217.82 237.017 L2222.5 237.017 L2222.5 267.641 L2230.14 267.641 L2230.14 271.577 L2210.23 271.577 L2210.23 267.641 Z" fill="#bebebe" fill-rule="evenodd" fill-opacity="1" /><circle clip-path="url(#clip090)" cx="2081.48" cy="314.777" r="23" fill="#56b4e9" fill-rule="evenodd" fill-opacity="1" stroke="#000000" stroke-opacity="1" stroke-width="5.12"/>
<path clip-path="url(#clip090)" d="M 0 0 M2192.96 334.464 Q2191.15 339.094 2189.44 340.506 Q2187.73 341.918 2184.86 341.918 L2181.46 341.918 L2181.46 338.353 L2183.96 338.353 Q2185.71 338.353 2186.69 337.52 Q2187.66 336.686 2188.84 333.584 L2189.6 331.64 L2179.12 306.131 L2183.63 306.131 L2191.73 326.409 L2199.83 306.131 L2204.35 306.131 L2192.96 334.464 Z" fill="#bebebe" fill-rule="evenodd" fill-opacity="1" /><path clip-path="url(#clip090)" d="M 0 0 M2213.45 328.121 L2229.76 328.121 L2229.76 332.057 L2207.82 332.057 L2207.82 328.121 Q2210.48 325.367 2215.07 320.737 Q2219.67 316.085 2220.85 314.742 Q2223.1 312.219 2223.98 310.483 Q2224.88 308.723 2224.88 307.034 Q2224.88 304.279 2222.94 302.543 Q2221.02 300.807 2217.91 300.807 Q2215.71 300.807 2213.26 301.571 Q2210.83 302.335 2208.05 303.886 L2208.05 299.163 Q2210.88 298.029 2213.33 297.45 Q2215.78 296.872 2217.82 296.872 Q2223.19 296.872 2226.39 299.557 Q2229.58 302.242 2229.58 306.733 Q2229.58 308.862 2228.77 310.784 Q2227.98 312.682 2225.88 315.274 Q2225.3 315.946 2222.2 319.163 Q2219.09 322.358 2213.45 328.121 Z" fill="#bebebe" fill-rule="evenodd" fill-opacity="1" /><path clip-path="url(#clip090)" d="M2081.48 400.857 L2059.31 388.057 L2059.31 362.457 L2081.48 349.657 L2103.65 362.457 L2103.65 388.057 Z" fill="#009e73" fill-rule="evenodd" fill-opacity="1" stroke="#000000" stroke-opacity="1" stroke-width="5.12"/>
<path clip-path="url(#clip090)" d="M 0 0 M2192.96 394.944 Q2191.15 399.574 2189.44 400.986 Q2187.73 402.398 2184.86 402.398 L2181.46 402.398 L2181.46 398.833 L2183.96 398.833 Q2185.71 398.833 2186.69 398 Q2187.66 397.166 2188.84 394.064 L2189.6 392.12 L2179.12 366.611 L2183.63 366.611 L2191.73 386.889 L2199.83 366.611 L2204.35 366.611 L2192.96 394.944 Z" fill="#bebebe" fill-rule="evenodd" fill-opacity="1" /><path clip-path="url(#clip090)" d="M 0 0 M2223.58 373.902 Q2226.94 374.62 2228.82 376.889 Q2230.71 379.157 2230.71 382.49 Q2230.71 387.606 2227.2 390.407 Q2223.68 393.208 2217.2 393.208 Q2215.02 393.208 2212.7 392.768 Q2210.41 392.351 2207.96 391.495 L2207.96 386.981 Q2209.9 388.115 2212.22 388.694 Q2214.53 389.273 2217.06 389.273 Q2221.45 389.273 2223.75 387.537 Q2226.06 385.801 2226.06 382.49 Q2226.06 379.435 2223.91 377.722 Q2221.78 375.986 2217.96 375.986 L2213.93 375.986 L2213.93 372.143 L2218.14 372.143 Q2221.59 372.143 2223.42 370.778 Q2225.25 369.389 2225.25 366.796 Q2225.25 364.134 2223.35 362.722 Q2221.48 361.287 2217.96 361.287 Q2216.04 361.287 2213.84 361.703 Q2211.64 362.12 2209 363 L2209 358.833 Q2211.66 358.092 2213.98 357.722 Q2216.32 357.352 2218.38 357.352 Q2223.7 357.352 2226.8 359.782 Q2229.9 362.19 2229.9 366.31 Q2229.9 369.18 2228.26 371.171 Q2226.62 373.139 2223.58 373.902 Z" fill="#bebebe" fill-rule="evenodd" fill-opacity="1" /></svg>
