<?xml version="1.0" encoding="utf-8"?>
<svg xmlns="http://www.w3.org/2000/svg" xmlns:xlink="http://www.w3.org/1999/xlink" width="600" height="400" viewBox="0 0 2400 1600">
<defs>
  <clipPath id="clip750">
    <rect x="0" y="0" width="2400" height="1600"/>
  </clipPath>
</defs>
<path clip-path="url(#clip750)" d="
M0 1600 L2400 1600 L2400 0 L0 0  Z
  " fill="#ffffff" fill-rule="evenodd" fill-opacity="1"/>
<defs>
  <clipPath id="clip751">
    <rect x="480" y="0" width="1681" height="1600"/>
  </clipPath>
</defs>
<path clip-path="url(#clip750)" d="
M185.846 1482.13 L2352.76 1482.13 L2352.76 149.392 L185.846 149.392  Z
  " fill="#ffffff" fill-rule="evenodd" fill-opacity="1"/>
<defs>
  <clipPath id="clip752">
    <rect x="185" y="149" width="2168" height="1334"/>
  </clipPath>
</defs>
<polyline clip-path="url(#clip752)" style="stroke:#000000; stroke-width:2; stroke-opacity:0.1; fill:none" points="
  677.543,1482.13 677.543,149.392 
  "/>
<polyline clip-path="url(#clip752)" style="stroke:#000000; stroke-width:2; stroke-opacity:0.1; fill:none" points="
  1215.5,1482.13 1215.5,149.392 
  "/>
<polyline clip-path="url(#clip752)" style="stroke:#000000; stroke-width:2; stroke-opacity:0.1; fill:none" points="
  1753.47,1482.13 1753.47,149.392 
  "/>
<polyline clip-path="url(#clip752)" style="stroke:#000000; stroke-width:2; stroke-opacity:0.1; fill:none" points="
  2291.43,1482.13 2291.43,149.392 
  "/>
<polyline clip-path="url(#clip750)" style="stroke:#000000; stroke-width:4; stroke-opacity:1; fill:none" points="
  185.846,1482.13 2352.76,1482.13 
  "/>
<polyline clip-path="url(#clip750)" style="stroke:#000000; stroke-width:4; stroke-opacity:1; fill:none" points="
  677.543,1482.13 677.543,1466.14 
  "/>
<polyline clip-path="url(#clip750)" style="stroke:#000000; stroke-width:4; stroke-opacity:1; fill:none" points="
  1215.5,1482.13 1215.5,1466.14 
  "/>
<polyline clip-path="url(#clip750)" style="stroke:#000000; stroke-width:4; stroke-opacity:1; fill:none" points="
  1753.47,1482.13 1753.47,1466.14 
  "/>
<polyline clip-path="url(#clip750)" style="stroke:#000000; stroke-width:4; stroke-opacity:1; fill:none" points="
  2291.43,1482.13 2291.43,1466.14 
  "/>
<path clip-path="url(#clip750)" d="M 0 0 M666.605 1509.1 L687.256 1509.1 L687.256 1513.53 L671.423 1513.53 L671.423 1523.06 Q672.569 1522.67 673.715 1522.49 Q674.861 1522.28 676.006 1522.28 Q682.517 1522.28 686.319 1525.85 Q690.121 1529.42 690.121 1535.51 Q690.121 1541.79 686.215 1545.28 Q682.308 1548.74 675.199 1548.74 Q672.751 1548.74 670.199 1548.32 Q667.673 1547.91 664.965 1547.07 L664.965 1541.79 Q667.309 1543.06 669.809 1543.69 Q672.309 1544.31 675.095 1544.31 Q679.6 1544.31 682.23 1541.94 Q684.861 1539.57 684.861 1535.51 Q684.861 1531.45 682.23 1529.08 Q679.6 1526.71 675.095 1526.71 Q672.986 1526.71 670.876 1527.18 Q668.793 1527.65 666.605 1528.64 L666.605 1509.1 Z" fill="#bebebe" fill-rule="evenodd" fill-opacity="1" /><path clip-path="url(#clip750)" d="M 0 0 M1189.49 1543.56 L1198.08 1543.56 L1198.08 1513.9 L1188.73 1515.77 L1188.73 1510.98 L1198.03 1509.1 L1203.29 1509.1 L1203.29 1543.56 L1211.88 1543.56 L1211.88 1547.98 L1189.49 1547.98 L1189.49 1543.56 Z" fill="#bebebe" fill-rule="evenodd" fill-opacity="1" /><path clip-path="url(#clip750)" d="M 0 0 M1228.84 1512.57 Q1224.78 1512.57 1222.72 1516.58 Q1220.69 1520.56 1220.69 1528.58 Q1220.69 1536.58 1222.72 1540.59 Q1224.78 1544.57 1228.84 1544.57 Q1232.93 1544.57 1234.96 1540.59 Q1237.01 1536.58 1237.01 1528.58 Q1237.01 1520.56 1234.96 1516.58 Q1232.93 1512.57 1228.84 1512.57 M1228.84 1508.4 Q1235.37 1508.4 1238.81 1513.58 Q1242.28 1518.74 1242.28 1528.58 Q1242.28 1538.4 1238.81 1543.58 Q1235.37 1548.74 1228.84 1548.74 Q1222.3 1548.74 1218.84 1543.58 Q1215.4 1538.4 1215.4 1528.58 Q1215.4 1518.74 1218.84 1513.58 Q1222.3 1508.4 1228.84 1508.4 Z" fill="#bebebe" fill-rule="evenodd" fill-opacity="1" /><path clip-path="url(#clip750)" d="M 0 0 M1728.01 1543.56 L1736.6 1543.56 L1736.6 1513.9 L1727.26 1515.77 L1727.26 1510.98 L1736.55 1509.1 L1741.81 1509.1 L1741.81 1543.56 L1750.41 1543.56 L1750.41 1547.98 L1728.01 1547.98 L1728.01 1543.56 Z" fill="#bebebe" fill-rule="evenodd" fill-opacity="1" /><path clip-path="url(#clip750)" d="M 0 0 M1756.16 1509.1 L1776.81 1509.1 L1776.81 1513.53 L1760.98 1513.53 L1760.98 1523.06 Q1762.13 1522.67 1763.27 1522.49 Q1764.42 1522.28 1765.56 1522.28 Q1772.07 1522.28 1775.88 1525.85 Q1779.68 1529.42 1779.68 1535.51 Q1779.68 1541.79 1775.77 1545.28 Q1771.86 1548.74 1764.76 1548.74 Q1762.31 1548.74 1759.76 1548.32 Q1757.23 1547.91 1754.52 1547.07 L1754.52 1541.79 Q1756.86 1543.06 1759.36 1543.69 Q1761.86 1544.31 1764.65 1544.31 Q1769.16 1544.31 1771.79 1541.94 Q1774.42 1539.57 1774.42 1535.51 Q1774.42 1531.45 1771.79 1529.08 Q1769.16 1526.71 1764.65 1526.71 Q1762.54 1526.71 1760.43 1527.18 Q1758.35 1527.65 1756.16 1528.64 L1756.16 1509.1 Z" fill="#bebebe" fill-rule="evenodd" fill-opacity="1" /><path clip-path="url(#clip750)" d="M 0 0 M2270.22 1543.56 L2288.58 1543.56 L2288.58 1547.98 L2263.89 1547.98 L2263.89 1543.56 Q2266.88 1540.46 2272.04 1535.25 Q2277.22 1530.02 2278.55 1528.5 Q2281.08 1525.67 2282.07 1523.71 Q2283.08 1521.73 2283.08 1519.83 Q2283.08 1516.73 2280.89 1514.78 Q2278.73 1512.83 2275.24 1512.83 Q2272.77 1512.83 2270.01 1513.69 Q2267.27 1514.55 2264.15 1516.29 L2264.15 1510.98 Q2267.33 1509.7 2270.09 1509.05 Q2272.85 1508.4 2275.14 1508.4 Q2281.18 1508.4 2284.77 1511.42 Q2288.37 1514.44 2288.37 1519.49 Q2288.37 1521.89 2287.46 1524.05 Q2286.57 1526.19 2284.2 1529.1 Q2283.55 1529.86 2280.06 1533.48 Q2276.57 1537.07 2270.22 1543.56 Z" fill="#bebebe" fill-rule="evenodd" fill-opacity="1" /><path clip-path="url(#clip750)" d="M 0 0 M2305.53 1512.57 Q2301.47 1512.57 2299.41 1516.58 Q2297.38 1520.56 2297.38 1528.58 Q2297.38 1536.58 2299.41 1540.59 Q2301.47 1544.57 2305.53 1544.57 Q2309.62 1544.57 2311.65 1540.59 Q2313.71 1536.58 2313.71 1528.58 Q2313.71 1520.56 2311.65 1516.58 Q2309.62 1512.57 2305.53 1512.57 M2305.53 1508.4 Q2312.07 1508.4 2315.5 1513.58 Q2318.97 1518.74 2318.97 1528.58 Q2318.97 1538.4 2315.5 1543.58 Q2312.07 1548.74 2305.53 1548.74 Q2298.99 1548.74 2295.53 1543.58 Q2292.09 1538.4 2292.09 1528.58 Q2292.09 1518.74 2295.53 1513.58 Q2298.99 1508.4 2305.53 1508.4 Z" fill="#bebebe" fill-rule="evenodd" fill-opacity="1" /><polyline clip-path="url(#clip752)" style="stroke:#000000; stroke-width:2; stroke-opacity:0.1; fill:none" points="
  185.846,1454.9 2352.76,1454.9 
  "/>
<polyline clip-path="url(#clip752)" style="stroke:#000000; stroke-width:2; stroke-opacity:0.1; fill:none" points="
  185.846,1135.99 2352.76,1135.99 
  "/>
<polyline clip-path="url(#clip752)" style="stroke:#000000; stroke-width:2; stroke-opacity:0.1; fill:none" points="
  185.846,817.091 2352.76,817.091 
  "/>
<polyline clip-path="url(#clip752)" style="stroke:#000000; stroke-width:2; stroke-opacity:0.1; fill:none" points="
  185.846,498.187 2352.76,498.187 
  "/>
<polyline clip-path="url(#clip752)" style="stroke:#000000; stroke-width:2; stroke-opacity:0.1; fill:none" points="
  185.846,179.283 2352.76,179.283 
  "/>
<polyline clip-path="url(#clip750)" style="stroke:#000000; stroke-width:4; stroke-opacity:1; fill:none" points="
  185.846,1482.13 185.846,149.392 
  "/>
<polyline clip-path="url(#clip750)" style="stroke:#000000; stroke-width:4; stroke-opacity:1; fill:none" points="
  185.846,1454.9 211.849,1454.9 
  "/>
<polyline clip-path="url(#clip750)" style="stroke:#000000; stroke-width:4; stroke-opacity:1; fill:none" points="
  185.846,1135.99 211.849,1135.99 
  "/>
<polyline clip-path="url(#clip750)" style="stroke:#000000; stroke-width:4; stroke-opacity:1; fill:none" points="
  185.846,817.091 211.849,817.091 
  "/>
<polyline clip-path="url(#clip750)" style="stroke:#000000; stroke-width:4; stroke-opacity:1; fill:none" points="
  185.846,498.187 211.849,498.187 
  "/>
<polyline clip-path="url(#clip750)" style="stroke:#000000; stroke-width:4; stroke-opacity:1; fill:none" points="
  185.846,179.283 211.849,179.283 
  "/>
<path clip-path="url(#clip750)" d="M 0 0 M64.4296 1438.92 Q60.3671 1438.92 58.3098 1442.93 Q56.2786 1446.92 56.2786 1454.94 Q56.2786 1462.93 58.3098 1466.94 Q60.3671 1470.93 64.4296 1470.93 Q68.5181 1470.93 70.5493 1466.94 Q72.6066 1462.93 72.6066 1454.94 Q72.6066 1446.92 70.5493 1442.93 Q68.5181 1438.92 64.4296 1438.92 M64.4296 1434.76 Q70.966 1434.76 74.4035 1439.94 Q77.867 1445.09 77.867 1454.94 Q77.867 1464.75 74.4035 1469.94 Q70.966 1475.09 64.4296 1475.09 Q57.8931 1475.09 54.4296 1469.94 Q50.9921 1464.75 50.9921 1454.94 Q50.9921 1445.09 54.4296 1439.94 Q57.8931 1434.76 64.4296 1434.76 Z" fill="#bebebe" fill-rule="evenodd" fill-opacity="1" /><path clip-path="url(#clip750)" d="M 0 0 M83.5701 1467.72 L89.0648 1467.72 L89.0648 1474.34 L83.5701 1474.34 L83.5701 1467.72 Z" fill="#bebebe" fill-rule="evenodd" fill-opacity="1" /><path clip-path="url(#clip750)" d="M 0 0 M106.018 1438.92 Q101.955 1438.92 99.8981 1442.93 Q97.8669 1446.92 97.8669 1454.94 Q97.8669 1462.93 99.8981 1466.94 Q101.955 1470.93 106.018 1470.93 Q110.106 1470.93 112.138 1466.94 Q114.195 1462.93 114.195 1454.94 Q114.195 1446.92 112.138 1442.93 Q110.106 1438.92 106.018 1438.92 M106.018 1434.76 Q112.554 1434.76 115.992 1439.94 Q119.455 1445.09 119.455 1454.94 Q119.455 1464.75 115.992 1469.94 Q112.554 1475.09 106.018 1475.09 Q99.4814 1475.09 96.0179 1469.94 Q92.5804 1464.75 92.5804 1454.94 Q92.5804 1445.09 96.0179 1439.94 Q99.4814 1434.76 106.018 1434.76 Z" fill="#bebebe" fill-rule="evenodd" fill-opacity="1" /><path clip-path="url(#clip750)" d="M 0 0 M136.408 1438.92 Q132.346 1438.92 130.289 1442.93 Q128.257 1446.92 128.257 1454.94 Q128.257 1462.93 130.289 1466.94 Q132.346 1470.93 136.408 1470.93 Q140.497 1470.93 142.528 1466.94 Q144.585 1462.93 144.585 1454.94 Q144.585 1446.92 142.528 1442.93 Q140.497 1438.92 136.408 1438.92 M136.408 1434.76 Q142.945 1434.76 146.382 1439.94 Q149.846 1445.09 149.846 1454.94 Q149.846 1464.75 146.382 1469.94 Q142.945 1475.09 136.408 1475.09 Q129.872 1475.09 126.408 1469.94 Q122.971 1464.75 122.971 1454.94 Q122.971 1445.09 126.408 1439.94 Q129.872 1434.76 136.408 1434.76 Z" fill="#bebebe" fill-rule="evenodd" fill-opacity="1" /><path clip-path="url(#clip750)" d="M 0 0 M67.3462 1120.02 Q63.2837 1120.02 61.2264 1124.03 Q59.1952 1128.01 59.1952 1136.03 Q59.1952 1144.03 61.2264 1148.04 Q63.2837 1152.02 67.3462 1152.02 Q71.4347 1152.02 73.466 1148.04 Q75.5232 1144.03 75.5232 1136.03 Q75.5232 1128.01 73.466 1124.03 Q71.4347 1120.02 67.3462 1120.02 M67.3462 1115.85 Q73.8826 1115.85 77.3201 1121.03 Q80.7836 1126.19 80.7836 1136.03 Q80.7836 1145.85 77.3201 1151.03 Q73.8826 1156.19 67.3462 1156.19 Q60.8098 1156.19 57.3463 1151.03 Q53.9088 1145.85 53.9088 1136.03 Q53.9088 1126.19 57.3463 1121.03 Q60.8098 1115.85 67.3462 1115.85 Z" fill="#bebebe" fill-rule="evenodd" fill-opacity="1" /><path clip-path="url(#clip750)" d="M 0 0 M86.4867 1148.82 L91.9815 1148.82 L91.9815 1155.43 L86.4867 1155.43 L86.4867 1148.82 Z" fill="#bebebe" fill-rule="evenodd" fill-opacity="1" /><path clip-path="url(#clip750)" d="M 0 0 M102.216 1151.01 L120.575 1151.01 L120.575 1155.43 L95.8877 1155.43 L95.8877 1151.01 Q98.8825 1147.91 104.039 1142.7 Q109.221 1137.47 110.549 1135.96 Q113.075 1133.12 114.065 1131.16 Q115.08 1129.18 115.08 1127.28 Q115.08 1124.18 112.893 1122.23 Q110.731 1120.28 107.242 1120.28 Q104.768 1120.28 102.007 1121.14 Q99.2731 1122 96.1481 1123.74 L96.1481 1118.43 Q99.3252 1117.15 102.086 1116.5 Q104.846 1115.85 107.138 1115.85 Q113.179 1115.85 116.773 1118.87 Q120.367 1121.89 120.367 1126.94 Q120.367 1129.34 119.455 1131.5 Q118.57 1133.64 116.2 1136.55 Q115.549 1137.31 112.06 1140.93 Q108.57 1144.52 102.216 1151.01 Z" fill="#bebebe" fill-rule="evenodd" fill-opacity="1" /><path clip-path="url(#clip750)" d="M 0 0 M126.33 1116.55 L146.981 1116.55 L146.981 1120.98 L131.148 1120.98 L131.148 1130.51 Q132.294 1130.12 133.44 1129.94 Q134.585 1129.73 135.731 1129.73 Q142.242 1129.73 146.044 1133.3 Q149.846 1136.87 149.846 1142.96 Q149.846 1149.24 145.94 1152.73 Q142.033 1156.19 134.924 1156.19 Q132.476 1156.19 129.924 1155.77 Q127.398 1155.36 124.69 1154.52 L124.69 1149.24 Q127.033 1150.51 129.533 1151.14 Q132.033 1151.76 134.82 1151.76 Q139.325 1151.76 141.955 1149.39 Q144.585 1147.02 144.585 1142.96 Q144.585 1138.9 141.955 1136.53 Q139.325 1134.16 134.82 1134.16 Q132.71 1134.16 130.601 1134.63 Q128.518 1135.1 126.33 1136.09 L126.33 1116.55 Z" fill="#bebebe" fill-rule="evenodd" fill-opacity="1" /><path clip-path="url(#clip750)" d="M 0 0 M65.5493 801.114 Q61.4869 801.114 59.4296 805.124 Q57.3983 809.109 57.3983 817.13 Q57.3983 825.124 59.4296 829.135 Q61.4869 833.119 65.5493 833.119 Q69.6379 833.119 71.6691 829.135 Q73.7264 825.124 73.7264 817.13 Q73.7264 809.109 71.6691 805.124 Q69.6379 801.114 65.5493 801.114 M65.5493 796.947 Q72.0858 796.947 75.5232 802.13 Q78.9868 807.286 78.9868 817.13 Q78.9868 826.947 75.5232 832.13 Q72.0858 837.286 65.5493 837.286 Q59.0129 837.286 55.5494 832.13 Q52.1119 826.947 52.1119 817.13 Q52.1119 807.286 55.5494 802.13 Q59.0129 796.947 65.5493 796.947 Z" fill="#bebebe" fill-rule="evenodd" fill-opacity="1" /><path clip-path="url(#clip750)" d="M 0 0 M84.6899 829.916 L90.1846 829.916 L90.1846 836.531 L84.6899 836.531 L84.6899 829.916 Z" fill="#bebebe" fill-rule="evenodd" fill-opacity="1" /><path clip-path="url(#clip750)" d="M 0 0 M95.9398 797.651 L116.591 797.651 L116.591 802.078 L100.757 802.078 L100.757 811.609 Q101.903 811.218 103.049 811.036 Q104.195 810.828 105.341 810.828 Q111.851 810.828 115.653 814.395 Q119.455 817.963 119.455 824.057 Q119.455 830.333 115.549 833.822 Q111.643 837.286 104.534 837.286 Q102.086 837.286 99.5335 836.869 Q97.0075 836.452 94.2992 835.619 L94.2992 830.333 Q96.6429 831.609 99.1429 832.234 Q101.643 832.859 104.429 832.859 Q108.935 832.859 111.565 830.489 Q114.195 828.119 114.195 824.057 Q114.195 819.994 111.565 817.624 Q108.935 815.255 104.429 815.255 Q102.32 815.255 100.211 815.723 Q98.1273 816.192 95.9398 817.182 L95.9398 797.651 Z" fill="#bebebe" fill-rule="evenodd" fill-opacity="1" /><path clip-path="url(#clip750)" d="M 0 0 M136.408 801.114 Q132.346 801.114 130.289 805.124 Q128.257 809.109 128.257 817.13 Q128.257 825.124 130.289 829.135 Q132.346 833.119 136.408 833.119 Q140.497 833.119 142.528 829.135 Q144.585 825.124 144.585 817.13 Q144.585 809.109 142.528 805.124 Q140.497 801.114 136.408 801.114 M136.408 796.947 Q142.945 796.947 146.382 802.13 Q149.846 807.286 149.846 817.13 Q149.846 826.947 146.382 832.13 Q142.945 837.286 136.408 837.286 Q129.872 837.286 126.408 832.13 Q122.971 826.947 122.971 817.13 Q122.971 807.286 126.408 802.13 Q129.872 796.947 136.408 796.947 Z" fill="#bebebe" fill-rule="evenodd" fill-opacity="1" /><path clip-path="url(#clip750)" d="M 0 0 M66.565 482.21 Q62.5025 482.21 60.4452 486.221 Q58.414 490.205 58.414 498.226 Q58.414 506.221 60.4452 510.231 Q62.5025 514.215 66.565 514.215 Q70.6535 514.215 72.6847 510.231 Q74.742 506.221 74.742 498.226 Q74.742 490.205 72.6847 486.221 Q70.6535 482.21 66.565 482.21 M66.565 478.044 Q73.1014 478.044 76.5389 483.226 Q80.0024 488.382 80.0024 498.226 Q80.0024 508.043 76.5389 513.226 Q73.1014 518.382 66.565 518.382 Q60.0285 518.382 56.565 513.226 Q53.1275 508.043 53.1275 498.226 Q53.1275 488.382 56.565 483.226 Q60.0285 478.044 66.565 478.044 Z" fill="#bebebe" fill-rule="evenodd" fill-opacity="1" /><path clip-path="url(#clip750)" d="M 0 0 M85.7055 511.012 L91.2002 511.012 L91.2002 517.627 L85.7055 517.627 L85.7055 511.012 Z" fill="#bebebe" fill-rule="evenodd" fill-opacity="1" /><path clip-path="url(#clip750)" d="M 0 0 M95.5752 478.747 L120.575 478.747 L120.575 480.986 L106.461 517.627 L100.966 517.627 L114.247 483.174 L95.5752 483.174 L95.5752 478.747 Z" fill="#bebebe" fill-rule="evenodd" fill-opacity="1" /><path clip-path="url(#clip750)" d="M 0 0 M126.33 478.747 L146.981 478.747 L146.981 483.174 L131.148 483.174 L131.148 492.705 Q132.294 492.314 133.44 492.132 Q134.585 491.924 135.731 491.924 Q142.242 491.924 146.044 495.491 Q149.846 499.059 149.846 505.153 Q149.846 511.429 145.94 514.918 Q142.033 518.382 134.924 518.382 Q132.476 518.382 129.924 517.965 Q127.398 517.549 124.69 516.715 L124.69 511.429 Q127.033 512.705 129.533 513.33 Q132.033 513.955 134.82 513.955 Q139.325 513.955 141.955 511.585 Q144.585 509.215 144.585 505.153 Q144.585 501.09 141.955 498.721 Q139.325 496.351 134.82 496.351 Q132.71 496.351 130.601 496.82 Q128.518 497.288 126.33 498.278 L126.33 478.747 Z" fill="#bebebe" fill-rule="evenodd" fill-opacity="1" /><path clip-path="url(#clip750)" d="M 0 0 M55.4713 194.296 L64.065 194.296 L64.065 164.635 L54.7161 166.51 L54.7161 161.718 L64.0129 159.843 L69.2733 159.843 L69.2733 194.296 L77.867 194.296 L77.867 198.723 L55.4713 198.723 L55.4713 194.296 Z" fill="#bebebe" fill-rule="evenodd" fill-opacity="1" /><path clip-path="url(#clip750)" d="M 0 0 M83.5701 192.108 L89.0648 192.108 L89.0648 198.723 L83.5701 198.723 L83.5701 192.108 Z" fill="#bebebe" fill-rule="evenodd" fill-opacity="1" /><path clip-path="url(#clip750)" d="M 0 0 M106.018 163.306 Q101.955 163.306 99.8981 167.317 Q97.8669 171.301 97.8669 179.322 Q97.8669 187.317 99.8981 191.327 Q101.955 195.311 106.018 195.311 Q110.106 195.311 112.138 191.327 Q114.195 187.317 114.195 179.322 Q114.195 171.301 112.138 167.317 Q110.106 163.306 106.018 163.306 M106.018 159.14 Q112.554 159.14 115.992 164.322 Q119.455 169.478 119.455 179.322 Q119.455 189.14 115.992 194.322 Q112.554 199.478 106.018 199.478 Q99.4814 199.478 96.0179 194.322 Q92.5804 189.14 92.5804 179.322 Q92.5804 169.478 96.0179 164.322 Q99.4814 159.14 106.018 159.14 Z" fill="#bebebe" fill-rule="evenodd" fill-opacity="1" /><path clip-path="url(#clip750)" d="M 0 0 M136.408 163.306 Q132.346 163.306 130.289 167.317 Q128.257 171.301 128.257 179.322 Q128.257 187.317 130.289 191.327 Q132.346 195.311 136.408 195.311 Q140.497 195.311 142.528 191.327 Q144.585 187.317 144.585 179.322 Q144.585 171.301 142.528 167.317 Q140.497 163.306 136.408 163.306 M136.408 159.14 Q142.945 159.14 146.382 164.322 Q149.846 169.478 149.846 179.322 Q149.846 189.14 146.382 194.322 Q142.945 199.478 136.408 199.478 Q129.872 199.478 126.408 194.322 Q122.971 189.14 122.971 179.322 Q122.971 169.478 126.408 164.322 Q129.872 159.14 136.408 159.14 Z" fill="#bebebe" fill-rule="evenodd" fill-opacity="1" /><path clip-path="url(#clip750)" d="M 0 0 M963.429 20.1156 L963.429 31.516 Q956.774 28.3332 950.871 26.7707 Q944.968 25.2082 939.47 25.2082 Q929.922 25.2082 924.714 28.9119 Q919.563 32.6156 919.563 39.4442 Q919.563 45.1734 922.977 48.1247 Q926.45 51.0182 936.056 52.8122 L943.116 54.259 Q956.195 56.7474 962.387 63.0552 Q968.637 69.3052 968.637 79.8375 Q968.637 92.3953 960.188 98.8768 Q951.797 105.358 935.535 105.358 Q929.401 105.358 922.457 103.969 Q915.57 102.58 908.163 99.8606 L908.163 87.8236 Q915.281 91.8166 922.109 93.8421 Q928.938 95.8675 935.535 95.8675 Q945.547 95.8675 950.987 91.9324 Q956.426 87.9972 956.426 80.7056 Q956.426 74.3399 952.491 70.7519 Q948.614 67.164 939.702 65.37 L932.584 63.9811 Q919.505 61.377 913.66 55.8215 Q907.816 50.2659 907.816 40.3702 Q907.816 28.9119 915.859 22.3147 Q923.961 15.7175 938.139 15.7175 Q944.216 15.7175 950.524 16.817 Q956.831 17.9166 963.429 20.1156 Z" fill="#bebebe" fill-rule="evenodd" fill-opacity="1" /><path clip-path="url(#clip750)" d="M 0 0 M1035.25 68.6107 L1035.25 73.819 L986.287 73.819 Q986.982 84.8144 992.884 90.6014 Q998.845 96.3305 1009.44 96.3305 Q1015.57 96.3305 1021.3 94.8259 Q1027.09 93.3213 1032.76 90.312 L1032.76 100.381 Q1027.03 102.812 1021.01 104.085 Q1014.99 105.358 1008.8 105.358 Q993.29 105.358 984.204 96.3305 Q975.176 87.3028 975.176 71.9093 Q975.176 55.9951 983.741 46.678 Q992.364 37.303 1006.95 37.303 Q1020.03 37.303 1027.61 45.7521 Q1035.25 54.1432 1035.25 68.6107 M1024.6 65.4858 Q1024.48 56.7474 1019.68 51.5391 Q1014.93 46.3308 1007.06 46.3308 Q998.151 46.3308 992.769 51.3655 Q987.445 56.4002 986.635 65.5436 L1024.6 65.4858 Z" fill="#bebebe" fill-rule="evenodd" fill-opacity="1" /><path clip-path="url(#clip750)" d="M 0 0 M1083.97 48.8192 Q1082.18 47.7775 1080.04 47.3146 Q1077.95 46.7937 1075.41 46.7937 Q1066.38 46.7937 1061.52 52.6965 Q1056.72 58.5414 1056.72 69.5367 L1056.72 103.68 L1046.01 103.68 L1046.01 38.8655 L1056.72 38.8655 L1056.72 48.9349 Q1060.07 43.0322 1065.45 40.1965 Q1070.84 37.303 1078.53 37.303 Q1079.63 37.303 1080.96 37.4767 Q1082.29 37.5924 1083.91 37.8817 L1083.97 48.8192 Z" fill="#bebebe" fill-rule="evenodd" fill-opacity="1" /><path clip-path="url(#clip750)" d="M 0 0 M1095.14 38.8655 L1105.79 38.8655 L1105.79 103.68 L1095.14 103.68 L1095.14 38.8655 M1095.14 13.6342 L1105.79 13.6342 L1105.79 27.1179 L1095.14 27.1179 L1095.14 13.6342 Z" fill="#bebebe" fill-rule="evenodd" fill-opacity="1" /><path clip-path="url(#clip750)" d="M 0 0 M1172.4 68.6107 L1172.4 73.819 L1123.44 73.819 Q1124.13 84.8144 1130.04 90.6014 Q1136 96.3305 1146.59 96.3305 Q1152.72 96.3305 1158.45 94.8259 Q1164.24 93.3213 1169.91 90.312 L1169.91 100.381 Q1164.18 102.812 1158.16 104.085 Q1152.14 105.358 1145.95 105.358 Q1130.44 105.358 1121.36 96.3305 Q1112.33 87.3028 1112.33 71.9093 Q1112.33 55.9951 1120.89 46.678 Q1129.52 37.303 1144.1 37.303 Q1157.18 37.303 1164.76 45.7521 Q1172.4 54.1432 1172.4 68.6107 M1161.75 65.4858 Q1161.63 56.7474 1156.83 51.5391 Q1152.09 46.3308 1144.21 46.3308 Q1135.3 46.3308 1129.92 51.3655 Q1124.6 56.4002 1123.79 65.5436 L1161.75 65.4858 Z" fill="#bebebe" fill-rule="evenodd" fill-opacity="1" /><path clip-path="url(#clip750)" d="M 0 0 M1231.31 17.28 L1231.31 49.3979 L1221.47 49.3979 L1221.47 17.28 L1231.31 17.28 Z" fill="#bebebe" fill-rule="evenodd" fill-opacity="1" /><path clip-path="url(#clip750)" d="M 0 0 M1283.8 40.7752 L1283.8 50.8446 Q1279.28 48.5298 1274.42 47.3724 Q1269.56 46.215 1264.35 46.215 Q1256.42 46.215 1252.43 48.6456 Q1248.5 51.0761 1248.5 55.9372 Q1248.5 59.6409 1251.33 61.7821 Q1254.17 63.8654 1262.73 65.7751 L1266.38 66.5853 Q1277.72 69.0158 1282.47 73.4718 Q1287.27 77.87 1287.27 85.7982 Q1287.27 94.8259 1280.09 100.092 Q1272.98 105.358 1260.48 105.358 Q1255.27 105.358 1249.6 104.317 Q1243.98 103.333 1237.73 101.307 L1237.73 90.312 Q1243.64 93.3791 1249.36 94.9416 Q1255.09 96.4462 1260.71 96.4462 Q1268.23 96.4462 1272.28 93.9 Q1276.33 91.2958 1276.33 86.6083 Q1276.33 82.2681 1273.38 79.9533 Q1270.49 77.6385 1260.59 75.4973 L1256.89 74.6292 Q1246.99 72.5459 1242.59 68.2635 Q1238.2 63.9233 1238.2 56.4002 Q1238.2 47.2567 1244.68 42.2799 Q1251.16 37.303 1263.08 37.303 Q1268.98 37.303 1274.19 38.1711 Q1279.4 39.0391 1283.8 40.7752 Z" fill="#bebebe" fill-rule="evenodd" fill-opacity="1" /><path clip-path="url(#clip750)" d="M 0 0 M1345.08 41.3539 L1345.08 51.3076 Q1340.57 48.8192 1336 47.6039 Q1331.48 46.3308 1326.85 46.3308 Q1316.49 46.3308 1310.76 52.928 Q1305.04 59.4673 1305.04 71.3306 Q1305.04 83.194 1310.76 89.7912 Q1316.49 96.3305 1326.85 96.3305 Q1331.48 96.3305 1336 95.1152 Q1340.57 93.8421 1345.08 91.3537 L1345.08 101.192 Q1340.63 103.275 1335.82 104.317 Q1331.08 105.358 1325.7 105.358 Q1311.05 105.358 1302.43 96.1569 Q1293.81 86.9556 1293.81 71.3306 Q1293.81 55.4742 1302.49 46.3886 Q1311.23 37.303 1326.39 37.303 Q1331.31 37.303 1336 38.3447 Q1340.68 39.3285 1345.08 41.3539 Z" fill="#bebebe" fill-rule="evenodd" fill-opacity="1" /><path clip-path="url(#clip750)" d="M 0 0 M1385.71 71.0992 Q1372.8 71.0992 1367.82 74.0505 Q1362.85 77.0019 1362.85 84.1199 Q1362.85 89.7912 1366.55 93.1476 Q1370.31 96.4462 1376.74 96.4462 Q1385.59 96.4462 1390.91 90.1963 Q1396.3 83.8884 1396.3 73.4718 L1396.3 71.0992 L1385.71 71.0992 M1406.94 66.701 L1406.94 103.68 L1396.3 103.68 L1396.3 93.8421 Q1392.65 99.7448 1387.21 102.58 Q1381.77 105.358 1373.9 105.358 Q1363.95 105.358 1358.04 99.8027 Q1352.2 94.1893 1352.2 84.8144 Q1352.2 73.8769 1359.49 68.3214 Q1366.84 62.7659 1381.37 62.7659 L1396.3 62.7659 L1396.3 61.7242 Q1396.3 54.3747 1391.44 50.3817 Q1386.63 46.3308 1377.89 46.3308 Q1372.34 46.3308 1367.07 47.6618 Q1361.81 48.9928 1356.95 51.6548 L1356.95 41.8169 Q1362.79 39.56 1368.29 38.4604 Q1373.79 37.303 1378.99 37.303 Q1393.06 37.303 1400 44.5947 Q1406.94 51.8863 1406.94 66.701 Z" fill="#bebebe" fill-rule="evenodd" fill-opacity="1" /><path clip-path="url(#clip750)" d="M 0 0 M1428.65 20.4629 L1428.65 38.8655 L1450.58 38.8655 L1450.58 47.141 L1428.65 47.141 L1428.65 82.3259 Q1428.65 90.2541 1430.79 92.5111 Q1432.99 94.768 1439.64 94.768 L1450.58 94.768 L1450.58 103.68 L1439.64 103.68 Q1427.32 103.68 1422.63 99.1083 Q1417.94 94.4787 1417.94 82.3259 L1417.94 47.141 L1410.13 47.141 L1410.13 38.8655 L1417.94 38.8655 L1417.94 20.4629 L1428.65 20.4629 Z" fill="#bebebe" fill-rule="evenodd" fill-opacity="1" /><path clip-path="url(#clip750)" d="M 0 0 M1472.28 20.4629 L1472.28 38.8655 L1494.21 38.8655 L1494.21 47.141 L1472.28 47.141 L1472.28 82.3259 Q1472.28 90.2541 1474.42 92.5111 Q1476.62 94.768 1483.28 94.768 L1494.21 94.768 L1494.21 103.68 L1483.28 103.68 Q1470.95 103.68 1466.26 99.1083 Q1461.57 94.4787 1461.57 82.3259 L1461.57 47.141 L1453.76 47.141 L1453.76 38.8655 L1461.57 38.8655 L1461.57 20.4629 L1472.28 20.4629 Z" fill="#bebebe" fill-rule="evenodd" fill-opacity="1" /><path clip-path="url(#clip750)" d="M 0 0 M1560.82 68.6107 L1560.82 73.819 L1511.86 73.819 Q1512.56 84.8144 1518.46 90.6014 Q1524.42 96.3305 1535.01 96.3305 Q1541.15 96.3305 1546.87 94.8259 Q1552.66 93.3213 1558.33 90.312 L1558.33 100.381 Q1552.6 102.812 1546.59 104.085 Q1540.57 105.358 1534.37 105.358 Q1518.87 105.358 1509.78 96.3305 Q1500.75 87.3028 1500.75 71.9093 Q1500.75 55.9951 1509.32 46.678 Q1517.94 37.303 1532.52 37.303 Q1545.6 37.303 1553.18 45.7521 Q1560.82 54.1432 1560.82 68.6107 M1550.17 65.4858 Q1550.06 56.7474 1545.25 51.5391 Q1540.51 46.3308 1532.64 46.3308 Q1523.73 46.3308 1518.34 51.3655 Q1513.02 56.4002 1512.21 65.5436 L1550.17 65.4858 Z" fill="#bebebe" fill-rule="evenodd" fill-opacity="1" /><path clip-path="url(#clip750)" d="M 0 0 M1609.55 48.8192 Q1607.75 47.7775 1605.61 47.3146 Q1603.53 46.7937 1600.98 46.7937 Q1591.96 46.7937 1587.09 52.6965 Q1582.29 58.5414 1582.29 69.5367 L1582.29 103.68 L1571.59 103.68 L1571.59 38.8655 L1582.29 38.8655 L1582.29 48.9349 Q1585.65 43.0322 1591.03 40.1965 Q1596.41 37.303 1604.11 37.303 Q1605.21 37.303 1606.54 37.4767 Q1607.87 37.5924 1609.49 37.8817 L1609.55 48.8192 Z" fill="#bebebe" fill-rule="evenodd" fill-opacity="1" /><path clip-path="url(#clip750)" d="M 0 0 M1630.79 17.28 L1630.79 49.3979 L1620.95 49.3979 L1620.95 17.28 L1630.79 17.28 Z" fill="#bebebe" fill-rule="evenodd" fill-opacity="1" /><path clip-path="url(#clip752)" d="M247.173 468.097 L244.353 476.209 L235.761 476.389 L242.613 481.585 L240.117 489.805 L247.173 484.897 L254.229 489.805 L251.733 481.585 L258.585 476.389 L249.993 476.209 L247.173 468.097 Z" fill="#ffa500" fill-rule="evenodd" fill-opacity="0.5" stroke="#ff0000" stroke-opacity="0.5" stroke-width="3.2"/>
<path clip-path="url(#clip752)" d="M354.766 972.207 L351.946 980.319 L343.354 980.499 L350.206 985.695 L347.71 993.915 L354.766 989.007 L361.822 993.915 L359.326 985.695 L366.178 980.499 L357.586 980.319 L354.766 972.207 Z" fill="#ffa500" fill-rule="evenodd" fill-opacity="0.5" stroke="#ff0000" stroke-opacity="0.5" stroke-width="3.2"/>
<path clip-path="url(#clip752)" d="M462.358 819.531 L459.538 827.643 L450.946 827.823 L457.798 833.019 L455.302 841.239 L462.358 836.331 L469.414 841.239 L466.918 833.019 L473.77 827.823 L465.178 827.643 L462.358 819.531 Z" fill="#ffa500" fill-rule="evenodd" fill-opacity="0.5" stroke="#ff0000" stroke-opacity="0.5" stroke-width="3.2"/>
<path clip-path="url(#clip752)" d="M569.95 1424.3 L567.13 1432.41 L558.538 1432.59 L565.39 1437.78 L562.894 1446 L569.95 1441.1 L577.006 1446 L574.51 1437.78 L581.362 1432.59 L572.77 1432.41 L569.95 1424.3 Z" fill="#ffa500" fill-rule="evenodd" fill-opacity="0.5" stroke="#ff0000" stroke-opacity="0.5" stroke-width="3.2"/>
<path clip-path="url(#clip752)" d="M677.543 677.264 L674.723 685.376 L666.131 685.556 L672.983 690.752 L670.487 698.972 L677.543 694.064 L684.599 698.972 L682.103 690.752 L688.955 685.556 L680.363 685.376 L677.543 677.264 Z" fill="#ffa500" fill-rule="evenodd" fill-opacity="0.5" stroke="#ff0000" stroke-opacity="0.5" stroke-width="3.2"/>
<path clip-path="url(#clip752)" d="M785.135 671.125 L782.315 679.237 L773.723 679.417 L780.575 684.613 L778.079 692.833 L785.135 687.925 L792.191 692.833 L789.695 684.613 L796.547 679.417 L787.955 679.237 L785.135 671.125 Z" fill="#ffa500" fill-rule="evenodd" fill-opacity="0.5" stroke="#ff0000" stroke-opacity="0.5" stroke-width="3.2"/>
<path clip-path="url(#clip752)" d="M892.728 921.28 L889.908 929.392 L881.316 929.572 L888.168 934.768 L885.672 942.988 L892.728 938.08 L899.784 942.988 L897.288 934.768 L904.14 929.572 L895.548 929.392 L892.728 921.28 Z" fill="#ffa500" fill-rule="evenodd" fill-opacity="0.5" stroke="#ff0000" stroke-opacity="0.5" stroke-width="3.2"/>
<path clip-path="url(#clip752)" d="M1000.32 1364.52 L997.5 1372.63 L988.908 1372.81 L995.76 1378.01 L993.264 1386.23 L1000.32 1381.32 L1007.38 1386.23 L1004.88 1378.01 L1011.73 1372.81 L1003.14 1372.63 L1000.32 1364.52 Z" fill="#ffa500" fill-rule="evenodd" fill-opacity="0.5" stroke="#ff0000" stroke-opacity="0.5" stroke-width="3.2"/>
<path clip-path="url(#clip752)" d="M1107.91 1305.95 L1105.09 1314.07 L1096.5 1314.25 L1103.35 1319.44 L1100.86 1327.66 L1107.91 1322.75 L1114.97 1327.66 L1112.47 1319.44 L1119.32 1314.25 L1110.73 1314.07 L1107.91 1305.95 Z" fill="#ffa500" fill-rule="evenodd" fill-opacity="0.5" stroke="#ff0000" stroke-opacity="0.5" stroke-width="3.2"/>
<path clip-path="url(#clip752)" d="M1215.5 1048.97 L1212.68 1057.09 L1204.09 1057.27 L1210.94 1062.46 L1208.45 1070.68 L1215.5 1065.77 L1222.56 1070.68 L1220.06 1062.46 L1226.92 1057.27 L1218.32 1057.09 L1215.5 1048.97 Z" fill="#ffa500" fill-rule="evenodd" fill-opacity="0.5" stroke="#ff0000" stroke-opacity="0.5" stroke-width="3.2"/>
<path clip-path="url(#clip752)" d="M1323.1 1022.39 L1320.28 1030.5 L1311.69 1030.68 L1318.54 1035.88 L1316.04 1044.1 L1323.1 1039.19 L1330.15 1044.1 L1327.66 1035.88 L1334.51 1030.68 L1325.92 1030.5 L1323.1 1022.39 Z" fill="#ffa500" fill-rule="evenodd" fill-opacity="0.5" stroke="#ff0000" stroke-opacity="0.5" stroke-width="3.2"/>
<path clip-path="url(#clip752)" d="M1430.69 424.448 L1427.87 432.56 L1419.28 432.74 L1426.13 437.936 L1423.63 446.156 L1430.69 441.248 L1437.75 446.156 L1435.25 437.936 L1442.1 432.74 L1433.51 432.56 L1430.69 424.448 Z" fill="#ffa500" fill-rule="evenodd" fill-opacity="0.5" stroke="#ff0000" stroke-opacity="0.5" stroke-width="3.2"/>
<path clip-path="url(#clip752)" d="M1538.28 256.171 L1535.46 264.283 L1526.87 264.463 L1533.72 269.659 L1531.23 277.879 L1538.28 272.971 L1545.34 277.879 L1542.84 269.659 L1549.69 264.463 L1541.1 264.283 L1538.28 256.171 Z" fill="#ffa500" fill-rule="evenodd" fill-opacity="0.5" stroke="#ff0000" stroke-opacity="0.5" stroke-width="3.2"/>
<path clip-path="url(#clip752)" d="M1645.87 1004.9 L1643.05 1013.01 L1634.46 1013.19 L1641.31 1018.39 L1638.82 1026.61 L1645.87 1021.7 L1652.93 1026.61 L1650.43 1018.39 L1657.29 1013.19 L1648.69 1013.01 L1645.87 1004.9 Z" fill="#ffa500" fill-rule="evenodd" fill-opacity="0.5" stroke="#ff0000" stroke-opacity="0.5" stroke-width="3.2"/>
<path clip-path="url(#clip752)" d="M1753.47 758.62 L1750.65 766.732 L1742.05 766.912 L1748.91 772.108 L1746.41 780.328 L1753.47 775.42 L1760.52 780.328 L1758.03 772.108 L1764.88 766.912 L1756.29 766.732 L1753.47 758.62 Z" fill="#ffa500" fill-rule="evenodd" fill-opacity="0.5" stroke="#ff0000" stroke-opacity="0.5" stroke-width="3.2"/>
<path clip-path="url(#clip752)" d="M1861.06 1188.45 L1858.24 1196.56 L1849.65 1196.74 L1856.5 1201.94 L1854 1210.16 L1861.06 1205.25 L1868.11 1210.16 L1865.62 1201.94 L1872.47 1196.74 L1863.88 1196.56 L1861.06 1188.45 Z" fill="#ffa500" fill-rule="evenodd" fill-opacity="0.5" stroke="#ff0000" stroke-opacity="0.5" stroke-width="3.2"/>
<path clip-path="url(#clip752)" d="M1968.65 448.276 L1965.83 456.388 L1957.24 456.568 L1964.09 461.764 L1961.6 469.984 L1968.65 465.076 L1975.71 469.984 L1973.21 461.764 L1980.06 456.568 L1971.47 456.388 L1968.65 448.276 Z" fill="#ffa500" fill-rule="evenodd" fill-opacity="0.5" stroke="#ff0000" stroke-opacity="0.5" stroke-width="3.2"/>
<path clip-path="url(#clip752)" d="M2076.24 1166.99 L2073.42 1175.1 L2064.83 1175.28 L2071.68 1180.48 L2069.19 1188.7 L2076.24 1183.79 L2083.3 1188.7 L2080.8 1180.48 L2087.66 1175.28 L2079.06 1175.1 L2076.24 1166.99 Z" fill="#ffa500" fill-rule="evenodd" fill-opacity="0.5" stroke="#ff0000" stroke-opacity="0.5" stroke-width="3.2"/>
<path clip-path="url(#clip752)" d="M2183.84 338.776 L2181.02 346.888 L2172.42 347.068 L2179.28 352.264 L2176.78 360.484 L2183.84 355.576 L2190.89 360.484 L2188.4 352.264 L2195.25 347.068 L2186.66 346.888 L2183.84 338.776 Z" fill="#ffa500" fill-rule="evenodd" fill-opacity="0.5" stroke="#ff0000" stroke-opacity="0.5" stroke-width="3.2"/>
<path clip-path="url(#clip752)" d="M2291.43 533.554 L2288.61 541.666 L2280.02 541.846 L2286.87 547.042 L2284.37 555.262 L2291.43 550.354 L2298.48 555.262 L2295.99 547.042 L2302.84 541.846 L2294.25 541.666 L2291.43 533.554 Z" fill="#ffa500" fill-rule="evenodd" fill-opacity="0.5" stroke="#ff0000" stroke-opacity="0.5" stroke-width="3.2"/>
<path clip-path="url(#clip752)" d="M247.173 579.537 L219.173 607.537 L247.173 635.537 L275.173 607.537 L247.173 579.537 Z" fill="#008000" fill-rule="evenodd" fill-opacity="1" stroke="#ff0000" stroke-opacity="1" stroke-width="3.2"/>
<path clip-path="url(#clip752)" d="M354.766 700.847 L326.766 728.847 L354.766 756.847 L382.766 728.847 L354.766 700.847 Z" fill="#008000" fill-rule="evenodd" fill-opacity="1" stroke="#ff0000" stroke-opacity="1" stroke-width="3.2"/>
<path clip-path="url(#clip752)" d="M462.358 579.917 L434.358 607.917 L462.358 635.917 L490.358 607.917 L462.358 579.917 Z" fill="#008000" fill-rule="evenodd" fill-opacity="1" stroke="#ff0000" stroke-opacity="1" stroke-width="3.2"/>
<path clip-path="url(#clip752)" d="M569.95 1214.59 L541.95 1242.59 L569.95 1270.59 L597.95 1242.59 L569.95 1214.59 Z" fill="#008000" fill-rule="evenodd" fill-opacity="1" stroke="#ff0000" stroke-opacity="1" stroke-width="3.2"/>
<path clip-path="url(#clip752)" d="M677.543 1030.89 L649.543 1058.89 L677.543 1086.89 L705.543 1058.89 L677.543 1030.89 Z" fill="#008000" fill-rule="evenodd" fill-opacity="1" stroke="#ff0000" stroke-opacity="1" stroke-width="3.2"/>
<path clip-path="url(#clip752)" d="M785.135 358.597 L757.135 386.597 L785.135 414.597 L813.135 386.597 L785.135 358.597 Z" fill="#008000" fill-rule="evenodd" fill-opacity="1" stroke="#ff0000" stroke-opacity="1" stroke-width="3.2"/>
<path clip-path="url(#clip752)" d="M892.728 1377.29 L864.728 1405.29 L892.728 1433.29 L920.728 1405.29 L892.728 1377.29 Z" fill="#008000" fill-rule="evenodd" fill-opacity="1" stroke="#ff0000" stroke-opacity="1" stroke-width="3.2"/>
<path clip-path="url(#clip752)" d="M1000.32 1400.91 L972.32 1428.91 L1000.32 1456.91 L1028.32 1428.91 L1000.32 1400.91 Z" fill="#008000" fill-rule="evenodd" fill-opacity="1" stroke="#ff0000" stroke-opacity="1" stroke-width="3.2"/>
<path clip-path="url(#clip752)" d="M1107.91 688.359 L1079.91 716.359 L1107.91 744.359 L1135.91 716.359 L1107.91 688.359 Z" fill="#008000" fill-rule="evenodd" fill-opacity="1" stroke="#ff0000" stroke-opacity="1" stroke-width="3.2"/>
<path clip-path="url(#clip752)" d="M1215.5 1156.8 L1187.5 1184.8 L1215.5 1212.8 L1243.5 1184.8 L1215.5 1156.8 Z" fill="#008000" fill-rule="evenodd" fill-opacity="1" stroke="#ff0000" stroke-opacity="1" stroke-width="3.2"/>
<path clip-path="url(#clip752)" d="M1323.1 379.186 L1295.1 407.186 L1323.1 435.186 L1351.1 407.186 L1323.1 379.186 Z" fill="#008000" fill-rule="evenodd" fill-opacity="1" stroke="#ff0000" stroke-opacity="1" stroke-width="3.2"/>
<path clip-path="url(#clip752)" d="M1430.69 1158.28 L1402.69 1186.28 L1430.69 1214.28 L1458.69 1186.28 L1430.69 1158.28 Z" fill="#008000" fill-rule="evenodd" fill-opacity="1" stroke="#ff0000" stroke-opacity="1" stroke-width="3.2"/>
<path clip-path="url(#clip752)" d="M1538.28 1005.42 L1510.28 1033.42 L1538.28 1061.42 L1566.28 1033.42 L1538.28 1005.42 Z" fill="#008000" fill-rule="evenodd" fill-opacity="1" stroke="#ff0000" stroke-opacity="1" stroke-width="3.2"/>
<path clip-path="url(#clip752)" d="M1645.87 1232.11 L1617.87 1260.11 L1645.87 1288.11 L1673.87 1260.11 L1645.87 1232.11 Z" fill="#008000" fill-rule="evenodd" fill-opacity="1" stroke="#ff0000" stroke-opacity="1" stroke-width="3.2"/>
<path clip-path="url(#clip752)" d="M1753.47 412.132 L1725.47 440.132 L1753.47 468.132 L1781.47 440.132 L1753.47 412.132 Z" fill="#008000" fill-rule="evenodd" fill-opacity="1" stroke="#ff0000" stroke-opacity="1" stroke-width="3.2"/>
<path clip-path="url(#clip752)" d="M1861.06 867.837 L1833.06 895.837 L1861.06 923.837 L1889.06 895.837 L1861.06 867.837 Z" fill="#008000" fill-rule="evenodd" fill-opacity="1" stroke="#ff0000" stroke-opacity="1" stroke-width="3.2"/>
<path clip-path="url(#clip752)" d="M1968.65 838.426 L1940.65 866.426 L1968.65 894.426 L1996.65 866.426 L1968.65 838.426 Z" fill="#008000" fill-rule="evenodd" fill-opacity="1" stroke="#ff0000" stroke-opacity="1" stroke-width="3.2"/>
<path clip-path="url(#clip752)" d="M2076.24 1416.41 L2048.24 1444.41 L2076.24 1472.41 L2104.24 1444.41 L2076.24 1416.41 Z" fill="#008000" fill-rule="evenodd" fill-opacity="1" stroke="#ff0000" stroke-opacity="1" stroke-width="3.2"/>
<path clip-path="url(#clip752)" d="M2183.84 599.926 L2155.84 627.926 L2183.84 655.926 L2211.84 627.926 L2183.84 599.926 Z" fill="#008000" fill-rule="evenodd" fill-opacity="1" stroke="#ff0000" stroke-opacity="1" stroke-width="3.2"/>
<path clip-path="url(#clip752)" d="M2291.43 1288.81 L2263.43 1316.81 L2291.43 1344.81 L2319.43 1316.81 L2291.43 1288.81 Z" fill="#008000" fill-rule="evenodd" fill-opacity="1" stroke="#ff0000" stroke-opacity="1" stroke-width="3.2"/>
<path clip-path="url(#clip752)" d="M208.773 267.493 L266.373 301.093 L266.373 233.893 L208.773 267.493 Z" fill="#00008b" fill-rule="evenodd" fill-opacity="0.2" stroke="#ff0000" stroke-opacity="0.2" stroke-width="3.2"/>
<path clip-path="url(#clip752)" d="M316.366 282.461 L373.966 316.061 L373.966 248.861 L316.366 282.461 Z" fill="#00008b" fill-rule="evenodd" fill-opacity="0.2" stroke="#ff0000" stroke-opacity="0.2" stroke-width="3.2"/>
<path clip-path="url(#clip752)" d="M423.958 195.599 L481.558 229.199 L481.558 161.999 L423.958 195.599 Z" fill="#00008b" fill-rule="evenodd" fill-opacity="0.2" stroke="#ff0000" stroke-opacity="0.2" stroke-width="3.2"/>
<path clip-path="url(#clip752)" d="M531.55 1372.18 L589.15 1405.78 L589.15 1338.58 L531.55 1372.18 Z" fill="#00008b" fill-rule="evenodd" fill-opacity="0.2" stroke="#ff0000" stroke-opacity="0.2" stroke-width="3.2"/>
<path clip-path="url(#clip752)" d="M639.143 187.111 L696.743 220.711 L696.743 153.511 L639.143 187.111 Z" fill="#00008b" fill-rule="evenodd" fill-opacity="0.2" stroke="#ff0000" stroke-opacity="0.2" stroke-width="3.2"/>
<path clip-path="url(#clip752)" d="M746.735 935.054 L804.335 968.654 L804.335 901.454 L746.735 935.054 Z" fill="#00008b" fill-rule="evenodd" fill-opacity="0.2" stroke="#ff0000" stroke-opacity="0.2" stroke-width="3.2"/>
<path clip-path="url(#clip752)" d="M854.328 628.57 L911.928 662.17 L911.928 594.97 L854.328 628.57 Z" fill="#00008b" fill-rule="evenodd" fill-opacity="0.2" stroke="#ff0000" stroke-opacity="0.2" stroke-width="3.2"/>
<path clip-path="url(#clip752)" d="M961.92 683.146 L1019.52 716.746 L1019.52 649.546 L961.92 683.146 Z" fill="#00008b" fill-rule="evenodd" fill-opacity="0.2" stroke="#ff0000" stroke-opacity="0.2" stroke-width="3.2"/>
<path clip-path="url(#clip752)" d="M1069.51 1414.54 L1127.11 1448.14 L1127.11 1380.94 L1069.51 1414.54 Z" fill="#00008b" fill-rule="evenodd" fill-opacity="0.2" stroke="#ff0000" stroke-opacity="0.2" stroke-width="3.2"/>
<path clip-path="url(#clip752)" d="M1177.1 614.741 L1234.7 648.341 L1234.7 581.141 L1177.1 614.741 Z" fill="#00008b" fill-rule="evenodd" fill-opacity="0.2" stroke="#ff0000" stroke-opacity="0.2" stroke-width="3.2"/>
<path clip-path="url(#clip752)" d="M1284.7 1164.43 L1342.3 1198.03 L1342.3 1130.83 L1284.7 1164.43 Z" fill="#00008b" fill-rule="evenodd" fill-opacity="0.2" stroke="#ff0000" stroke-opacity="0.2" stroke-width="3.2"/>
<path clip-path="url(#clip752)" d="M1392.29 850.35 L1449.89 883.95 L1449.89 816.75 L1392.29 850.35 Z" fill="#00008b" fill-rule="evenodd" fill-opacity="0.2" stroke="#ff0000" stroke-opacity="0.2" stroke-width="3.2"/>
<path clip-path="url(#clip752)" d="M1499.88 690.487 L1557.48 724.087 L1557.48 656.887 L1499.88 690.487 Z" fill="#00008b" fill-rule="evenodd" fill-opacity="0.2" stroke="#ff0000" stroke-opacity="0.2" stroke-width="3.2"/>
<path clip-path="url(#clip752)" d="M1607.47 1272.21 L1665.07 1305.81 L1665.07 1238.61 L1607.47 1272.21 Z" fill="#00008b" fill-rule="evenodd" fill-opacity="0.2" stroke="#ff0000" stroke-opacity="0.2" stroke-width="3.2"/>
<path clip-path="url(#clip752)" d="M1715.07 508.71 L1772.67 542.31 L1772.67 475.11 L1715.07 508.71 Z" fill="#00008b" fill-rule="evenodd" fill-opacity="0.2" stroke="#ff0000" stroke-opacity="0.2" stroke-width="3.2"/>
<path clip-path="url(#clip752)" d="M1822.66 777.139 L1880.26 810.739 L1880.26 743.539 L1822.66 777.139 Z" fill="#00008b" fill-rule="evenodd" fill-opacity="0.2" stroke="#ff0000" stroke-opacity="0.2" stroke-width="3.2"/>
<path clip-path="url(#clip752)" d="M1930.25 187.637 L1987.85 221.237 L1987.85 154.037 L1930.25 187.637 Z" fill="#00008b" fill-rule="evenodd" fill-opacity="0.2" stroke="#ff0000" stroke-opacity="0.2" stroke-width="3.2"/>
<path clip-path="url(#clip752)" d="M2037.84 362.715 L2095.44 396.315 L2095.44 329.115 L2037.84 362.715 Z" fill="#00008b" fill-rule="evenodd" fill-opacity="0.2" stroke="#ff0000" stroke-opacity="0.2" stroke-width="3.2"/>
<path clip-path="url(#clip752)" d="M2145.44 985.807 L2203.04 1019.41 L2203.04 952.207 L2145.44 985.807 Z" fill="#00008b" fill-rule="evenodd" fill-opacity="0.2" stroke="#ff0000" stroke-opacity="0.2" stroke-width="3.2"/>
<path clip-path="url(#clip752)" d="M2253.03 1316.15 L2310.63 1349.75 L2310.63 1282.55 L2253.03 1316.15 Z" fill="#00008b" fill-rule="evenodd" fill-opacity="0.2" stroke="#ff0000" stroke-opacity="0.2" stroke-width="3.2"/>
<path clip-path="url(#clip750)" d="
M1988.16 435.737 L2280.53 435.737 L2280.53 193.817 L1988.16 193.817  Z
  " fill="#ffffff" fill-rule="evenodd" fill-opacity="1"/>
<polyline clip-path="url(#clip750)" style="stroke:#000000; stroke-width:4; stroke-opacity:1; fill:none" points="
  1988.16,435.737 2280.53,435.737 2280.53,193.817 1988.16,193.817 1988.16,435.737 
  "/>
<path clip-path="url(#clip750)" d="M2084.47 228.697 L2078.45 246.002 L2060.12 246.386 L2074.74 257.471 L2069.42 275.007 L2084.47 264.537 L2099.52 275.007 L2094.2 257.471 L2108.81 246.386 L2090.48 246.002 L2084.47 228.697 Z" fill="#ffa500" fill-rule="evenodd" fill-opacity="0.5" stroke="#ff0000" stroke-opacity="0.5" stroke-width="6.82667"/>
<path clip-path="url(#clip750)" d="M 0 0 M2194.62 273.984 Q2192.81 278.614 2191.1 280.026 Q2189.39 281.438 2186.52 281.438 L2183.11 281.438 L2183.11 277.873 L2185.61 277.873 Q2187.37 277.873 2188.34 277.04 Q2189.32 276.206 2190.5 273.104 L2191.26 271.16 L2180.78 245.651 L2185.29 245.651 L2193.39 265.929 L2201.49 245.651 L2206.01 245.651 L2194.62 273.984 Z" fill="#bebebe" fill-rule="evenodd" fill-opacity="1" /><path clip-path="url(#clip750)" d="M 0 0 M2211.89 267.641 L2219.52 267.641 L2219.52 241.276 L2211.21 242.943 L2211.21 238.683 L2219.48 237.017 L2224.15 237.017 L2224.15 267.641 L2231.79 267.641 L2231.79 271.577 L2211.89 271.577 L2211.89 267.641 Z" fill="#bebebe" fill-rule="evenodd" fill-opacity="1" /><path clip-path="url(#clip750)" d="M2084.47 289.177 L2058.87 314.777 L2084.47 340.377 L2110.07 314.777 L2084.47 289.177 Z" fill="#008000" fill-rule="evenodd" fill-opacity="1" stroke="#ff0000" stroke-opacity="1" stroke-width="2.92571"/>
<path clip-path="url(#clip750)" d="M 0 0 M2194.62 334.464 Q2192.81 339.094 2191.1 340.506 Q2189.39 341.918 2186.52 341.918 L2183.11 341.918 L2183.11 338.353 L2185.61 338.353 Q2187.37 338.353 2188.34 337.52 Q2189.32 336.686 2190.5 333.584 L2191.26 331.64 L2180.78 306.131 L2185.29 306.131 L2193.39 326.409 L2201.49 306.131 L2206.01 306.131 L2194.62 334.464 Z" fill="#bebebe" fill-rule="evenodd" fill-opacity="1" /><path clip-path="url(#clip750)" d="M 0 0 M2215.1 328.121 L2231.42 328.121 L2231.42 332.057 L2209.48 332.057 L2209.48 328.121 Q2212.14 325.367 2216.72 320.737 Q2221.33 316.085 2222.51 314.742 Q2224.76 312.219 2225.64 310.483 Q2226.54 308.723 2226.54 307.034 Q2226.54 304.279 2224.59 302.543 Q2222.67 300.807 2219.57 300.807 Q2217.37 300.807 2214.92 301.571 Q2212.49 302.335 2209.71 303.886 L2209.71 299.163 Q2212.53 298.029 2214.99 297.45 Q2217.44 296.872 2219.48 296.872 Q2224.85 296.872 2228.04 299.557 Q2231.24 302.242 2231.24 306.733 Q2231.24 308.862 2230.43 310.784 Q2229.64 312.682 2227.53 315.274 Q2226.96 315.946 2223.85 319.163 Q2220.75 322.358 2215.1 328.121 Z" fill="#bebebe" fill-rule="evenodd" fill-opacity="1" /><path clip-path="url(#clip750)" d="M2063.99 375.257 L2094.71 393.177 L2094.71 357.337 L2063.99 375.257 Z" fill="#00008b" fill-rule="evenodd" fill-opacity="0.2" stroke="#ff0000" stroke-opacity="0.2" stroke-width="1.70667"/>
<path clip-path="url(#clip750)" d="M 0 0 M2194.62 394.944 Q2192.81 399.574 2191.1 400.986 Q2189.39 402.398 2186.52 402.398 L2183.11 402.398 L2183.11 398.833 L2185.61 398.833 Q2187.37 398.833 2188.34 398 Q2189.32 397.166 2190.5 394.064 L2191.26 392.12 L2180.78 366.611 L2185.29 366.611 L2193.39 386.889 L2201.49 366.611 L2206.01 366.611 L2194.62 394.944 Z" fill="#bebebe" fill-rule="evenodd" fill-opacity="1" /><path clip-path="url(#clip750)" d="M 0 0 M2225.24 373.902 Q2228.6 374.62 2230.47 376.889 Q2232.37 379.157 2232.37 382.49 Q2232.37 387.606 2228.85 390.407 Q2225.34 393.208 2218.85 393.208 Q2216.68 393.208 2214.36 392.768 Q2212.07 392.351 2209.62 391.495 L2209.62 386.981 Q2211.56 388.115 2213.88 388.694 Q2216.19 389.273 2218.71 389.273 Q2223.11 389.273 2225.4 387.537 Q2227.72 385.801 2227.72 382.49 Q2227.72 379.435 2225.57 377.722 Q2223.44 375.986 2219.62 375.986 L2215.59 375.986 L2215.59 372.143 L2219.8 372.143 Q2223.25 372.143 2225.08 370.778 Q2226.91 369.389 2226.91 366.796 Q2226.91 364.134 2225.01 362.722 Q2223.14 361.287 2219.62 361.287 Q2217.7 361.287 2215.5 361.703 Q2213.3 362.12 2210.66 363 L2210.66 358.833 Q2213.32 358.092 2215.64 357.722 Q2217.97 357.352 2220.03 357.352 Q2225.36 357.352 2228.46 359.782 Q2231.56 362.19 2231.56 366.31 Q2231.56 369.18 2229.92 371.171 Q2228.27 373.139 2225.24 373.902 Z" fill="#bebebe" fill-rule="evenodd" fill-opacity="1" /></svg>
