<?xml version="1.0" encoding="utf-8"?>
<svg xmlns="http://www.w3.org/2000/svg" xmlns:xlink="http://www.w3.org/1999/xlink" width="600" height="400" viewBox="0 0 2400 1600">
<defs>
  <clipPath id="clip820">
    <rect x="0" y="0" width="2400" height="1600"/>
  </clipPath>
</defs>
<path clip-path="url(#clip820)" d="
M0 1600 L2400 1600 L2400 0 L0 0  Z
  " fill="#ffffff" fill-rule="evenodd" fill-opacity="1"/>
<defs>
  <clipPath id="clip821">
    <rect x="480" y="0" width="1681" height="1600"/>
  </clipPath>
</defs>
<path clip-path="url(#clip820)" d="
M134.584 1486.45 L2352.76 1486.45 L2352.76 47.2441 L134.584 47.2441  Z
  " fill="#ffffff" fill-rule="evenodd" fill-opacity="1"/>
<defs>
  <clipPath id="clip822">
    <rect x="134" y="47" width="2219" height="1440"/>
  </clipPath>
</defs>
<polyline clip-path="url(#clip822)" style="stroke:#000000; stroke-width:2; stroke-opacity:0.1; fill:none" points="
  429.876,1486.45 429.876,47.2441 
  "/>
<polyline clip-path="url(#clip822)" style="stroke:#000000; stroke-width:2; stroke-opacity:0.1; fill:none" points="
  894.901,1486.45 894.901,47.2441 
  "/>
<polyline clip-path="url(#clip822)" style="stroke:#000000; stroke-width:2; stroke-opacity:0.1; fill:none" points="
  1359.93,1486.45 1359.93,47.2441 
  "/>
<polyline clip-path="url(#clip822)" style="stroke:#000000; stroke-width:2; stroke-opacity:0.1; fill:none" points="
  1824.95,1486.45 1824.95,47.2441 
  "/>
<polyline clip-path="url(#clip822)" style="stroke:#000000; stroke-width:2; stroke-opacity:0.1; fill:none" points="
  2289.98,1486.45 2289.98,47.2441 
  "/>
<polyline clip-path="url(#clip820)" style="stroke:#000000; stroke-width:4; stroke-opacity:1; fill:none" points="
  134.584,1486.45 2352.76,1486.45 
  "/>
<polyline clip-path="url(#clip820)" style="stroke:#000000; stroke-width:4; stroke-opacity:1; fill:none" points="
  429.876,1486.45 429.876,1469.18 
  "/>
<polyline clip-path="url(#clip820)" style="stroke:#000000; stroke-width:4; stroke-opacity:1; fill:none" points="
  894.901,1486.45 894.901,1469.18 
  "/>
<polyline clip-path="url(#clip820)" style="stroke:#000000; stroke-width:4; stroke-opacity:1; fill:none" points="
  1359.93,1486.45 1359.93,1469.18 
  "/>
<polyline clip-path="url(#clip820)" style="stroke:#000000; stroke-width:4; stroke-opacity:1; fill:none" points="
  1824.95,1486.45 1824.95,1469.18 
  "/>
<polyline clip-path="url(#clip820)" style="stroke:#000000; stroke-width:4; stroke-opacity:1; fill:none" points="
  2289.98,1486.45 2289.98,1469.18 
  "/>
<path clip-path="url(#clip820)" d="M 0 0 M424.528 1543.18 L440.848 1543.18 L440.848 1547.12 L418.903 1547.12 L418.903 1543.18 Q421.565 1540.43 426.149 1535.8 Q430.755 1531.15 431.936 1529.81 Q434.181 1527.28 435.061 1525.55 Q435.964 1523.79 435.964 1522.1 Q435.964 1519.34 434.019 1517.61 Q432.098 1515.87 428.996 1515.87 Q426.797 1515.87 424.343 1516.63 Q421.913 1517.4 419.135 1518.95 L419.135 1514.23 Q421.959 1513.09 424.413 1512.51 Q426.866 1511.93 428.903 1511.93 Q434.274 1511.93 437.468 1514.62 Q440.663 1517.31 440.663 1521.8 Q440.663 1523.93 439.852 1525.85 Q439.065 1527.74 436.959 1530.34 Q436.38 1531.01 433.278 1534.23 Q430.177 1537.42 424.528 1543.18 Z" fill="#000000" fill-rule="evenodd" fill-opacity="1" /><path clip-path="url(#clip820)" d="M 0 0 M897.91 1516.63 L886.105 1535.08 L897.91 1535.08 L897.91 1516.63 M896.683 1512.56 L902.563 1512.56 L902.563 1535.08 L907.494 1535.08 L907.494 1538.97 L902.563 1538.97 L902.563 1547.12 L897.91 1547.12 L897.91 1538.97 L882.309 1538.97 L882.309 1534.46 L896.683 1512.56 Z" fill="#000000" fill-rule="evenodd" fill-opacity="1" /><path clip-path="url(#clip820)" d="M 0 0 M1360.33 1527.98 Q1357.18 1527.98 1355.33 1530.13 Q1353.5 1532.28 1353.5 1536.03 Q1353.5 1539.76 1355.33 1541.93 Q1357.18 1544.09 1360.33 1544.09 Q1363.48 1544.09 1365.31 1541.93 Q1367.16 1539.76 1367.16 1536.03 Q1367.16 1532.28 1365.31 1530.13 Q1363.48 1527.98 1360.33 1527.98 M1369.61 1513.32 L1369.61 1517.58 Q1367.85 1516.75 1366.05 1516.31 Q1364.27 1515.87 1362.51 1515.87 Q1357.88 1515.87 1355.42 1519 Q1352.99 1522.12 1352.65 1528.44 Q1354.01 1526.43 1356.07 1525.36 Q1358.13 1524.27 1360.61 1524.27 Q1365.82 1524.27 1368.83 1527.44 Q1371.86 1530.59 1371.86 1536.03 Q1371.86 1541.36 1368.71 1544.57 Q1365.56 1547.79 1360.33 1547.79 Q1354.34 1547.79 1351.17 1543.21 Q1347.99 1538.6 1347.99 1529.87 Q1347.99 1521.68 1351.88 1516.82 Q1355.77 1511.93 1362.32 1511.93 Q1364.08 1511.93 1365.86 1512.28 Q1367.67 1512.63 1369.61 1513.32 Z" fill="#000000" fill-rule="evenodd" fill-opacity="1" /><path clip-path="url(#clip820)" d="M 0 0 M1824.95 1530.71 Q1821.62 1530.71 1819.7 1532.49 Q1817.8 1534.27 1817.8 1537.4 Q1817.8 1540.52 1819.7 1542.31 Q1821.62 1544.09 1824.95 1544.09 Q1828.29 1544.09 1830.21 1542.31 Q1832.13 1540.5 1832.13 1537.4 Q1832.13 1534.27 1830.21 1532.49 Q1828.31 1530.71 1824.95 1530.71 M1820.28 1528.72 Q1817.27 1527.98 1815.58 1525.92 Q1813.91 1523.86 1813.91 1520.89 Q1813.91 1516.75 1816.85 1514.34 Q1819.81 1511.93 1824.95 1511.93 Q1830.11 1511.93 1833.05 1514.34 Q1835.99 1516.75 1835.99 1520.89 Q1835.99 1523.86 1834.3 1525.92 Q1832.64 1527.98 1829.65 1528.72 Q1833.03 1529.5 1834.91 1531.8 Q1836.8 1534.09 1836.8 1537.4 Q1836.8 1542.42 1833.73 1545.11 Q1830.67 1547.79 1824.95 1547.79 Q1819.23 1547.79 1816.16 1545.11 Q1813.1 1542.42 1813.1 1537.4 Q1813.1 1534.09 1815 1531.8 Q1816.9 1529.5 1820.28 1528.72 M1818.56 1521.33 Q1818.56 1524.02 1820.23 1525.52 Q1821.92 1527.03 1824.95 1527.03 Q1827.96 1527.03 1829.65 1525.52 Q1831.36 1524.02 1831.36 1521.33 Q1831.36 1518.65 1829.65 1517.14 Q1827.96 1515.64 1824.95 1515.64 Q1821.92 1515.64 1820.23 1517.14 Q1818.56 1518.65 1818.56 1521.33 Z" fill="#000000" fill-rule="evenodd" fill-opacity="1" /><path clip-path="url(#clip820)" d="M 0 0 M2266.85 1543.18 L2274.49 1543.18 L2274.49 1516.82 L2266.18 1518.49 L2266.18 1514.23 L2274.45 1512.56 L2279.12 1512.56 L2279.12 1543.18 L2286.76 1543.18 L2286.76 1547.12 L2266.85 1547.12 L2266.85 1543.18 Z" fill="#000000" fill-rule="evenodd" fill-opacity="1" /><path clip-path="url(#clip820)" d="M 0 0 M2301.83 1515.64 Q2298.22 1515.64 2296.39 1519.2 Q2294.58 1522.75 2294.58 1529.87 Q2294.58 1536.98 2296.39 1540.55 Q2298.22 1544.09 2301.83 1544.09 Q2305.46 1544.09 2307.27 1540.55 Q2309.1 1536.98 2309.1 1529.87 Q2309.1 1522.75 2307.27 1519.2 Q2305.46 1515.64 2301.83 1515.64 M2301.83 1511.93 Q2307.64 1511.93 2310.69 1516.54 Q2313.77 1521.12 2313.77 1529.87 Q2313.77 1538.6 2310.69 1543.21 Q2307.64 1547.79 2301.83 1547.79 Q2296.02 1547.79 2292.94 1543.21 Q2289.88 1538.6 2289.88 1529.87 Q2289.88 1521.12 2292.94 1516.54 Q2296.02 1511.93 2301.83 1511.93 Z" fill="#000000" fill-rule="evenodd" fill-opacity="1" /><polyline clip-path="url(#clip822)" style="stroke:#000000; stroke-width:2; stroke-opacity:0.1; fill:none" points="
  134.584,1237.02 2352.76,1237.02 
  "/>
<polyline clip-path="url(#clip822)" style="stroke:#000000; stroke-width:2; stroke-opacity:0.1; fill:none" points="
  134.584,949.336 2352.76,949.336 
  "/>
<polyline clip-path="url(#clip822)" style="stroke:#000000; stroke-width:2; stroke-opacity:0.1; fill:none" points="
  134.584,661.657 2352.76,661.657 
  "/>
<polyline clip-path="url(#clip822)" style="stroke:#000000; stroke-width:2; stroke-opacity:0.1; fill:none" points="
  134.584,373.978 2352.76,373.978 
  "/>
<polyline clip-path="url(#clip822)" style="stroke:#000000; stroke-width:2; stroke-opacity:0.1; fill:none" points="
  134.584,86.299 2352.76,86.299 
  "/>
<polyline clip-path="url(#clip820)" style="stroke:#000000; stroke-width:4; stroke-opacity:1; fill:none" points="
  134.584,1486.45 134.584,47.2441 
  "/>
<polyline clip-path="url(#clip820)" style="stroke:#000000; stroke-width:4; stroke-opacity:1; fill:none" points="
  134.584,1237.02 161.203,1237.02 
  "/>
<polyline clip-path="url(#clip820)" style="stroke:#000000; stroke-width:4; stroke-opacity:1; fill:none" points="
  134.584,949.336 161.203,949.336 
  "/>
<polyline clip-path="url(#clip820)" style="stroke:#000000; stroke-width:4; stroke-opacity:1; fill:none" points="
  134.584,661.657 161.203,661.657 
  "/>
<polyline clip-path="url(#clip820)" style="stroke:#000000; stroke-width:4; stroke-opacity:1; fill:none" points="
  134.584,373.978 161.203,373.978 
  "/>
<polyline clip-path="url(#clip820)" style="stroke:#000000; stroke-width:4; stroke-opacity:1; fill:none" points="
  134.584,86.299 161.203,86.299 
  "/>
<path clip-path="url(#clip820)" d="M 0 0 M82.2651 1250.36 L98.5845 1250.36 L98.5845 1254.3 L76.6401 1254.3 L76.6401 1250.36 Q79.3022 1247.61 83.8855 1242.98 Q88.4919 1238.32 89.6725 1236.98 Q91.9178 1234.46 92.7975 1232.72 Q93.7002 1230.96 93.7002 1229.27 Q93.7002 1226.52 91.7558 1224.78 Q89.8345 1223.05 86.7327 1223.05 Q84.5336 1223.05 82.0799 1223.81 Q79.6494 1224.57 76.8716 1226.12 L76.8716 1221.4 Q79.6957 1220.27 82.1494 1219.69 Q84.6031 1219.11 86.6401 1219.11 Q92.0104 1219.11 95.2049 1221.8 Q98.3993 1224.48 98.3993 1228.97 Q98.3993 1231.1 97.5891 1233.02 Q96.8021 1234.92 94.6956 1237.51 Q94.1169 1238.18 91.0151 1241.4 Q87.9132 1244.6 82.2651 1250.36 Z" fill="#000000" fill-rule="evenodd" fill-opacity="1" /><path clip-path="url(#clip820)" d="M 0 0 M89.0012 936.13 L77.1957 954.579 L89.0012 954.579 L89.0012 936.13 M87.7743 932.056 L93.6539 932.056 L93.6539 954.579 L98.5845 954.579 L98.5845 958.468 L93.6539 958.468 L93.6539 966.616 L89.0012 966.616 L89.0012 958.468 L73.3994 958.468 L73.3994 953.954 L87.7743 932.056 Z" fill="#000000" fill-rule="evenodd" fill-opacity="1" /><path clip-path="url(#clip820)" d="M 0 0 M87.0567 659.794 Q83.9086 659.794 82.0568 661.947 Q80.2281 664.099 80.2281 667.849 Q80.2281 671.576 82.0568 673.752 Q83.9086 675.905 87.0567 675.905 Q90.2049 675.905 92.0336 673.752 Q93.8854 671.576 93.8854 667.849 Q93.8854 664.099 92.0336 661.947 Q90.2049 659.794 87.0567 659.794 M96.3391 645.141 L96.3391 649.4 Q94.5799 648.567 92.7743 648.127 Q90.9919 647.687 89.2327 647.687 Q84.6031 647.687 82.1494 650.812 Q79.7188 653.937 79.3716 660.257 Q80.7373 658.243 82.7975 657.178 Q84.8577 656.09 87.3345 656.09 Q92.5428 656.09 95.5521 659.261 Q98.5845 662.41 98.5845 667.849 Q98.5845 673.173 95.4363 676.391 Q92.2882 679.609 87.0567 679.609 Q81.0614 679.609 77.8901 675.025 Q74.7189 670.419 74.7189 661.692 Q74.7189 653.498 78.6077 648.636 Q82.4966 643.752 89.0475 643.752 Q90.8067 643.752 92.5891 644.099 Q94.3947 644.447 96.3391 645.141 Z" fill="#000000" fill-rule="evenodd" fill-opacity="1" /><path clip-path="url(#clip820)" d="M 0 0 M86.7327 374.846 Q83.3994 374.846 81.4781 376.629 Q79.5799 378.411 79.5799 381.536 Q79.5799 384.661 81.4781 386.443 Q83.3994 388.226 86.7327 388.226 Q90.066 388.226 91.9873 386.443 Q93.9086 384.638 93.9086 381.536 Q93.9086 378.411 91.9873 376.629 Q90.0891 374.846 86.7327 374.846 M82.0568 372.855 Q79.0475 372.115 77.3577 370.055 Q75.6911 367.994 75.6911 365.031 Q75.6911 360.888 78.6309 358.481 Q81.5938 356.073 86.7327 356.073 Q91.8947 356.073 94.8345 358.481 Q97.7743 360.888 97.7743 365.031 Q97.7743 367.994 96.0845 370.055 Q94.4178 372.115 91.4317 372.855 Q94.8113 373.642 96.6863 375.934 Q98.5845 378.226 98.5845 381.536 Q98.5845 386.559 95.5058 389.244 Q92.4502 391.929 86.7327 391.929 Q81.0151 391.929 77.9364 389.244 Q74.8809 386.559 74.8809 381.536 Q74.8809 378.226 76.779 375.934 Q78.6772 373.642 82.0568 372.855 M80.3438 365.471 Q80.3438 368.156 82.0105 369.661 Q83.7003 371.166 86.7327 371.166 Q89.7419 371.166 91.4317 369.661 Q93.1447 368.156 93.1447 365.471 Q93.1447 362.786 91.4317 361.281 Q89.7419 359.777 86.7327 359.777 Q83.7003 359.777 82.0105 361.281 Q80.3438 362.786 80.3438 365.471 Z" fill="#000000" fill-rule="evenodd" fill-opacity="1" /><path clip-path="url(#clip820)" d="M 0 0 M51.6634 99.6439 L59.3023 99.6439 L59.3023 73.2783 L50.9921 74.9449 L50.9921 70.6857 L59.256 69.019 L63.9319 69.019 L63.9319 99.6439 L71.5707 99.6439 L71.5707 103.579 L51.6634 103.579 L51.6634 99.6439 Z" fill="#000000" fill-rule="evenodd" fill-opacity="1" /><path clip-path="url(#clip820)" d="M 0 0 M86.6401 72.0977 Q83.029 72.0977 81.2003 75.6625 Q79.3948 79.2042 79.3948 86.3337 Q79.3948 93.4402 81.2003 97.005 Q83.029 100.547 86.6401 100.547 Q90.2743 100.547 92.0799 97.005 Q93.9086 93.4402 93.9086 86.3337 Q93.9086 79.2042 92.0799 75.6625 Q90.2743 72.0977 86.6401 72.0977 M86.6401 68.394 Q92.4502 68.394 95.5058 73.0005 Q98.5845 77.5838 98.5845 86.3337 Q98.5845 95.0606 95.5058 99.667 Q92.4502 104.25 86.6401 104.25 Q80.8299 104.25 77.7512 99.667 Q74.6957 95.0606 74.6957 86.3337 Q74.6957 77.5838 77.7512 73.0005 Q80.8299 68.394 86.6401 68.394 Z" fill="#000000" fill-rule="evenodd" fill-opacity="1" /><polyline clip-path="url(#clip822)" style="stroke:#009af9; stroke-width:4; stroke-opacity:1; fill:none" points="
  197.363,1445.72 429.876,407.486 662.388,365.408 894.901,87.9763 1127.41,1199.42 1359.93,648.621 1592.44,599.015 1824.95,781.043 2057.46,1147.29 2289.98,771.512 
  
  "/>
<polyline clip-path="url(#clip822)" style="stroke:#e26f46; stroke-width:4; stroke-opacity:1; fill:none" points="
  197.363,235.136 429.876,1423.03 662.388,510.126 894.901,1429.02 1127.41,581.946 1359.93,426.904 1592.44,1236.47 1824.95,1187.5 2057.46,582.338 2289.98,1339.78 
  
  "/>
<path clip-path="url(#clip820)" d="
M2009.16 276.658 L2278.82 276.658 L2278.82 95.2176 L2009.16 95.2176  Z
  " fill="#ffffff" fill-rule="evenodd" fill-opacity="1"/>
<polyline clip-path="url(#clip820)" style="stroke:#000000; stroke-width:4; stroke-opacity:1; fill:none" points="
  2009.16,276.658 2278.82,276.658 2278.82,95.2176 2009.16,95.2176 2009.16,276.658 
  "/>
<polyline clip-path="url(#clip820)" style="stroke:#009af9; stroke-width:4; stroke-opacity:1; fill:none" points="
  2033.81,155.698 2181.68,155.698 
  "/>
<path clip-path="url(#clip820)" d="M 0 0 M2225.1 160.038 Q2225.1 155.339 2223.16 152.677 Q2221.24 149.992 2217.86 149.992 Q2214.48 149.992 2212.53 152.677 Q2210.61 155.339 2210.61 160.038 Q2210.61 164.737 2212.53 167.422 Q2214.48 170.084 2217.86 170.084 Q2221.24 170.084 2223.16 167.422 Q2225.1 164.737 2225.1 160.038 M2210.61 150.987 Q2211.95 148.672 2213.99 147.561 Q2216.05 146.427 2218.9 146.427 Q2223.62 146.427 2226.56 150.177 Q2229.52 153.927 2229.52 160.038 Q2229.52 166.149 2226.56 169.899 Q2223.62 173.649 2218.9 173.649 Q2216.05 173.649 2213.99 172.538 Q2211.95 171.403 2210.61 169.089 L2210.61 172.978 L2206.33 172.978 L2206.33 136.959 L2210.61 136.959 L2210.61 150.987 Z" fill="#000000" fill-rule="evenodd" fill-opacity="1" /><polyline clip-path="url(#clip820)" style="stroke:#e26f46; stroke-width:4; stroke-opacity:1; fill:none" points="
  2033.81,216.178 2181.68,216.178 
  "/>
<path clip-path="url(#clip820)" d="M 0 0 M2226.84 208.527 L2226.84 212.509 Q2225.03 211.513 2223.2 211.027 Q2221.4 210.518 2219.55 210.518 Q2215.4 210.518 2213.11 213.157 Q2210.82 215.772 2210.82 220.518 Q2210.82 225.263 2213.11 227.902 Q2215.4 230.518 2219.55 230.518 Q2221.4 230.518 2223.2 230.032 Q2225.03 229.522 2226.84 228.527 L2226.84 232.462 Q2225.06 233.296 2223.14 233.712 Q2221.24 234.129 2219.08 234.129 Q2213.23 234.129 2209.78 230.448 Q2206.33 226.768 2206.33 220.518 Q2206.33 214.175 2209.8 210.541 Q2213.3 206.907 2219.36 206.907 Q2221.33 206.907 2223.2 207.323 Q2225.08 207.717 2226.84 208.527 Z" fill="#000000" fill-rule="evenodd" fill-opacity="1" /></svg>
