<?xml version="1.0" encoding="utf-8"?>
<svg xmlns="http://www.w3.org/2000/svg" xmlns:xlink="http://www.w3.org/1999/xlink" width="600" height="400" viewBox="0 0 2400 1600">
<defs>
  <clipPath id="clip840">
    <rect x="0" y="0" width="2400" height="1600"/>
  </clipPath>
</defs>
<path clip-path="url(#clip840)" d="
M0 1600 L2400 1600 L2400 0 L0 0  Z
  " fill="#ffffff" fill-rule="evenodd" fill-opacity="1"/>
<defs>
  <clipPath id="clip841">
    <rect x="480" y="0" width="1681" height="1600"/>
  </clipPath>
</defs>
<path clip-path="url(#clip840)" d="
M185.846 1482.13 L2352.76 1482.13 L2352.76 149.392 L185.846 149.392  Z
  " fill="#ffffff" fill-rule="evenodd" fill-opacity="1"/>
<defs>
  <clipPath id="clip842">
    <rect x="185" y="149" width="2168" height="1334"/>
  </clipPath>
</defs>
<polyline clip-path="url(#clip842)" style="stroke:#000000; stroke-width:2; stroke-opacity:0.1; fill:none" points="
  677.543,1482.13 677.543,149.392 
  "/>
<polyline clip-path="url(#clip842)" style="stroke:#000000; stroke-width:2; stroke-opacity:0.1; fill:none" points="
  1215.5,1482.13 1215.5,149.392 
  "/>
<polyline clip-path="url(#clip842)" style="stroke:#000000; stroke-width:2; stroke-opacity:0.1; fill:none" points="
  1753.47,1482.13 1753.47,149.392 
  "/>
<polyline clip-path="url(#clip842)" style="stroke:#000000; stroke-width:2; stroke-opacity:0.1; fill:none" points="
  2291.43,1482.13 2291.43,149.392 
  "/>
<polyline clip-path="url(#clip840)" style="stroke:#000000; stroke-width:4; stroke-opacity:1; fill:none" points="
  185.846,1482.13 2352.76,1482.13 
  "/>
<polyline clip-path="url(#clip840)" style="stroke:#000000; stroke-width:4; stroke-opacity:1; fill:none" points="
  677.543,1482.13 677.543,1466.14 
  "/>
<polyline clip-path="url(#clip840)" style="stroke:#000000; stroke-width:4; stroke-opacity:1; fill:none" points="
  1215.5,1482.13 1215.5,1466.14 
  "/>
<polyline clip-path="url(#clip840)" style="stroke:#000000; stroke-width:4; stroke-opacity:1; fill:none" points="
  1753.47,1482.13 1753.47,1466.14 
  "/>
<polyline clip-path="url(#clip840)" style="stroke:#000000; stroke-width:4; stroke-opacity:1; fill:none" points="
  2291.43,1482.13 2291.43,1466.14 
  "/>
<path clip-path="url(#clip840)" d="M 0 0 M666.605 1509.1 L687.256 1509.1 L687.256 1513.53 L671.423 1513.53 L671.423 1523.06 Q672.569 1522.67 673.715 1522.49 Q674.861 1522.28 676.006 1522.28 Q682.517 1522.28 686.319 1525.85 Q690.121 1529.42 690.121 1535.51 Q690.121 1541.79 686.215 1545.28 Q682.308 1548.74 675.199 1548.74 Q672.751 1548.74 670.199 1548.32 Q667.673 1547.91 664.965 1547.07 L664.965 1541.79 Q667.309 1543.06 669.809 1543.69 Q672.309 1544.31 675.095 1544.31 Q679.6 1544.31 682.23 1541.94 Q684.861 1539.57 684.861 1535.51 Q684.861 1531.45 682.23 1529.08 Q679.6 1526.71 675.095 1526.71 Q672.986 1526.71 670.876 1527.18 Q668.793 1527.65 666.605 1528.64 L666.605 1509.1 Z" fill="#bebebe" fill-rule="evenodd" fill-opacity="1" /><path clip-path="url(#clip840)" d="M 0 0 M1189.49 1543.56 L1198.08 1543.56 L1198.08 1513.9 L1188.73 1515.77 L1188.73 1510.98 L1198.03 1509.1 L1203.29 1509.1 L1203.29 1543.56 L1211.88 1543.56 L1211.88 1547.98 L1189.49 1547.98 L1189.49 1543.56 Z" fill="#bebebe" fill-rule="evenodd" fill-opacity="1" /><path clip-path="url(#clip840)" d="M 0 0 M1228.84 1512.57 Q1224.78 1512.57 1222.72 1516.58 Q1220.69 1520.56 1220.69 1528.58 Q1220.69 1536.58 1222.72 1540.59 Q1224.78 1544.57 1228.84 1544.57 Q1232.93 1544.57 1234.96 1540.59 Q1237.01 1536.58 1237.01 1528.58 Q1237.01 1520.56 1234.96 1516.58 Q1232.93 1512.57 1228.84 1512.57 M1228.84 1508.4 Q1235.37 1508.4 1238.81 1513.58 Q1242.28 1518.74 1242.28 1528.58 Q1242.28 1538.4 1238.81 1543.58 Q1235.37 1548.74 1228.84 1548.74 Q1222.3 1548.74 1218.84 1543.58 Q1215.4 1538.4 1215.4 1528.58 Q1215.4 1518.74 1218.84 1513.58 Q1222.3 1508.4 1228.84 1508.4 Z" fill="#bebebe" fill-rule="evenodd" fill-opacity="1" /><path clip-path="url(#clip840)" d="M 0 0 M1728.01 1543.56 L1736.6 1543.56 L1736.6 1513.9 L1727.26 1515.77 L1727.26 1510.98 L1736.55 1509.1 L1741.81 1509.1 L1741.81 1543.56 L1750.41 1543.56 L1750.41 1547.98 L1728.01 1547.98 L1728.01 1543.56 Z" fill="#bebebe" fill-rule="evenodd" fill-opacity="1" /><path clip-path="url(#clip840)" d="M 0 0 M1756.16 1509.1 L1776.81 1509.1 L1776.81 1513.53 L1760.98 1513.53 L1760.98 1523.06 Q1762.13 1522.67 1763.27 1522.49 Q1764.42 1522.28 1765.56 1522.28 Q1772.07 1522.28 1775.88 1525.85 Q1779.68 1529.42 1779.68 1535.51 Q1779.68 1541.79 1775.77 1545.28 Q1771.86 1548.74 1764.76 1548.74 Q1762.31 1548.74 1759.76 1548.32 Q1757.23 1547.91 1754.52 1547.07 L1754.52 1541.79 Q1756.86 1543.06 1759.36 1543.69 Q1761.86 1544.31 1764.65 1544.31 Q1769.16 1544.31 1771.79 1541.94 Q1774.42 1539.57 1774.42 1535.51 Q1774.42 1531.45 1771.79 1529.08 Q1769.16 1526.71 1764.65 1526.71 Q1762.54 1526.71 1760.43 1527.18 Q1758.35 1527.65 1756.16 1528.64 L1756.16 1509.1 Z" fill="#bebebe" fill-rule="evenodd" fill-opacity="1" /><path clip-path="url(#clip840)" d="M 0 0 M2270.22 1543.56 L2288.58 1543.56 L2288.58 1547.98 L2263.89 1547.98 L2263.89 1543.56 Q2266.88 1540.46 2272.04 1535.25 Q2277.22 1530.02 2278.55 1528.5 Q2281.08 1525.67 2282.07 1523.71 Q2283.08 1521.73 2283.08 1519.83 Q2283.08 1516.73 2280.89 1514.78 Q2278.73 1512.83 2275.24 1512.83 Q2272.77 1512.83 2270.01 1513.69 Q2267.27 1514.55 2264.15 1516.29 L2264.15 1510.98 Q2267.33 1509.7 2270.09 1509.05 Q2272.85 1508.4 2275.14 1508.4 Q2281.18 1508.4 2284.77 1511.42 Q2288.37 1514.44 2288.37 1519.49 Q2288.37 1521.89 2287.46 1524.05 Q2286.57 1526.19 2284.2 1529.1 Q2283.55 1529.86 2280.06 1533.48 Q2276.57 1537.07 2270.22 1543.56 Z" fill="#bebebe" fill-rule="evenodd" fill-opacity="1" /><path clip-path="url(#clip840)" d="M 0 0 M2305.53 1512.57 Q2301.47 1512.57 2299.41 1516.58 Q2297.38 1520.56 2297.38 1528.58 Q2297.38 1536.58 2299.41 1540.59 Q2301.47 1544.57 2305.53 1544.57 Q2309.62 1544.57 2311.65 1540.59 Q2313.71 1536.58 2313.71 1528.58 Q2313.71 1520.56 2311.65 1516.58 Q2309.62 1512.57 2305.53 1512.57 M2305.53 1508.4 Q2312.07 1508.4 2315.5 1513.58 Q2318.97 1518.74 2318.97 1528.58 Q2318.97 1538.4 2315.5 1543.58 Q2312.07 1548.74 2305.53 1548.74 Q2298.99 1548.74 2295.53 1543.58 Q2292.09 1538.4 2292.09 1528.58 Q2292.09 1518.74 2295.53 1513.58 Q2298.99 1508.4 2305.53 1508.4 Z" fill="#bebebe" fill-rule="evenodd" fill-opacity="1" /><polyline clip-path="url(#clip842)" style="stroke:#000000; stroke-width:2; stroke-opacity:0.1; fill:none" points="
  185.846,1447.25 2352.76,1447.25 
  "/>
<polyline clip-path="url(#clip842)" style="stroke:#000000; stroke-width:2; stroke-opacity:0.1; fill:none" points="
  185.846,1128.24 2352.76,1128.24 
  "/>
<polyline clip-path="url(#clip842)" style="stroke:#000000; stroke-width:2; stroke-opacity:0.1; fill:none" points="
  185.846,809.228 2352.76,809.228 
  "/>
<polyline clip-path="url(#clip842)" style="stroke:#000000; stroke-width:2; stroke-opacity:0.1; fill:none" points="
  185.846,490.216 2352.76,490.216 
  "/>
<polyline clip-path="url(#clip842)" style="stroke:#000000; stroke-width:2; stroke-opacity:0.1; fill:none" points="
  185.846,171.203 2352.76,171.203 
  "/>
<polyline clip-path="url(#clip840)" style="stroke:#000000; stroke-width:4; stroke-opacity:1; fill:none" points="
  185.846,1482.13 185.846,149.392 
  "/>
<polyline clip-path="url(#clip840)" style="stroke:#000000; stroke-width:4; stroke-opacity:1; fill:none" points="
  185.846,1447.25 211.849,1447.25 
  "/>
<polyline clip-path="url(#clip840)" style="stroke:#000000; stroke-width:4; stroke-opacity:1; fill:none" points="
  185.846,1128.24 211.849,1128.24 
  "/>
<polyline clip-path="url(#clip840)" style="stroke:#000000; stroke-width:4; stroke-opacity:1; fill:none" points="
  185.846,809.228 211.849,809.228 
  "/>
<polyline clip-path="url(#clip840)" style="stroke:#000000; stroke-width:4; stroke-opacity:1; fill:none" points="
  185.846,490.216 211.849,490.216 
  "/>
<polyline clip-path="url(#clip840)" style="stroke:#000000; stroke-width:4; stroke-opacity:1; fill:none" points="
  185.846,171.203 211.849,171.203 
  "/>
<path clip-path="url(#clip840)" d="M 0 0 M64.4296 1431.28 Q60.3671 1431.28 58.3098 1435.29 Q56.2786 1439.27 56.2786 1447.29 Q56.2786 1455.29 58.3098 1459.3 Q60.3671 1463.28 64.4296 1463.28 Q68.5181 1463.28 70.5493 1459.3 Q72.6066 1455.29 72.6066 1447.29 Q72.6066 1439.27 70.5493 1435.29 Q68.5181 1431.28 64.4296 1431.28 M64.4296 1427.11 Q70.966 1427.11 74.4035 1432.29 Q77.867 1437.45 77.867 1447.29 Q77.867 1457.11 74.4035 1462.29 Q70.966 1467.45 64.4296 1467.45 Q57.8931 1467.45 54.4296 1462.29 Q50.9921 1457.11 50.9921 1447.29 Q50.9921 1437.45 54.4296 1432.29 Q57.8931 1427.11 64.4296 1427.11 Z" fill="#bebebe" fill-rule="evenodd" fill-opacity="1" /><path clip-path="url(#clip840)" d="M 0 0 M83.5701 1460.08 L89.0648 1460.08 L89.0648 1466.69 L83.5701 1466.69 L83.5701 1460.08 Z" fill="#bebebe" fill-rule="evenodd" fill-opacity="1" /><path clip-path="url(#clip840)" d="M 0 0 M106.018 1431.28 Q101.955 1431.28 99.8981 1435.29 Q97.8669 1439.27 97.8669 1447.29 Q97.8669 1455.29 99.8981 1459.3 Q101.955 1463.28 106.018 1463.28 Q110.106 1463.28 112.138 1459.3 Q114.195 1455.29 114.195 1447.29 Q114.195 1439.27 112.138 1435.29 Q110.106 1431.28 106.018 1431.28 M106.018 1427.11 Q112.554 1427.11 115.992 1432.29 Q119.455 1437.45 119.455 1447.29 Q119.455 1457.11 115.992 1462.29 Q112.554 1467.45 106.018 1467.45 Q99.4814 1467.45 96.0179 1462.29 Q92.5804 1457.11 92.5804 1447.29 Q92.5804 1437.45 96.0179 1432.29 Q99.4814 1427.11 106.018 1427.11 Z" fill="#bebebe" fill-rule="evenodd" fill-opacity="1" /><path clip-path="url(#clip840)" d="M 0 0 M136.408 1431.28 Q132.346 1431.28 130.289 1435.29 Q128.257 1439.27 128.257 1447.29 Q128.257 1455.29 130.289 1459.3 Q132.346 1463.28 136.408 1463.28 Q140.497 1463.28 142.528 1459.3 Q144.585 1455.29 144.585 1447.29 Q144.585 1439.27 142.528 1435.29 Q140.497 1431.28 136.408 1431.28 M136.408 1427.11 Q142.945 1427.11 146.382 1432.29 Q149.846 1437.45 149.846 1447.29 Q149.846 1457.11 146.382 1462.29 Q142.945 1467.45 136.408 1467.45 Q129.872 1467.45 126.408 1462.29 Q122.971 1457.11 122.971 1447.29 Q122.971 1437.45 126.408 1432.29 Q129.872 1427.11 136.408 1427.11 Z" fill="#bebebe" fill-rule="evenodd" fill-opacity="1" /><path clip-path="url(#clip840)" d="M 0 0 M67.3462 1112.26 Q63.2837 1112.26 61.2264 1116.27 Q59.1952 1120.26 59.1952 1128.28 Q59.1952 1136.27 61.2264 1140.28 Q63.2837 1144.27 67.3462 1144.27 Q71.4347 1144.27 73.466 1140.28 Q75.5232 1136.27 75.5232 1128.28 Q75.5232 1120.26 73.466 1116.27 Q71.4347 1112.26 67.3462 1112.26 M67.3462 1108.1 Q73.8826 1108.1 77.3201 1113.28 Q80.7836 1118.44 80.7836 1128.28 Q80.7836 1138.1 77.3201 1143.28 Q73.8826 1148.44 67.3462 1148.44 Q60.8098 1148.44 57.3463 1143.28 Q53.9088 1138.1 53.9088 1128.28 Q53.9088 1118.44 57.3463 1113.28 Q60.8098 1108.1 67.3462 1108.1 Z" fill="#bebebe" fill-rule="evenodd" fill-opacity="1" /><path clip-path="url(#clip840)" d="M 0 0 M86.4867 1141.07 L91.9815 1141.07 L91.9815 1147.68 L86.4867 1147.68 L86.4867 1141.07 Z" fill="#bebebe" fill-rule="evenodd" fill-opacity="1" /><path clip-path="url(#clip840)" d="M 0 0 M102.216 1143.25 L120.575 1143.25 L120.575 1147.68 L95.8877 1147.68 L95.8877 1143.25 Q98.8825 1140.15 104.039 1134.95 Q109.221 1129.71 110.549 1128.2 Q113.075 1125.36 114.065 1123.41 Q115.08 1121.43 115.08 1119.53 Q115.08 1116.43 112.893 1114.48 Q110.731 1112.52 107.242 1112.52 Q104.768 1112.52 102.007 1113.38 Q99.2731 1114.24 96.1481 1115.99 L96.1481 1110.68 Q99.3252 1109.4 102.086 1108.75 Q104.846 1108.1 107.138 1108.1 Q113.179 1108.1 116.773 1111.12 Q120.367 1114.14 120.367 1119.19 Q120.367 1121.59 119.455 1123.75 Q118.57 1125.88 116.2 1128.8 Q115.549 1129.56 112.06 1133.18 Q108.57 1136.77 102.216 1143.25 Z" fill="#bebebe" fill-rule="evenodd" fill-opacity="1" /><path clip-path="url(#clip840)" d="M 0 0 M126.33 1108.8 L146.981 1108.8 L146.981 1113.23 L131.148 1113.23 L131.148 1122.76 Q132.294 1122.37 133.44 1122.19 Q134.585 1121.98 135.731 1121.98 Q142.242 1121.98 146.044 1125.55 Q149.846 1129.11 149.846 1135.21 Q149.846 1141.48 145.94 1144.97 Q142.033 1148.44 134.924 1148.44 Q132.476 1148.44 129.924 1148.02 Q127.398 1147.6 124.69 1146.77 L124.69 1141.48 Q127.033 1142.76 129.533 1143.38 Q132.033 1144.01 134.82 1144.01 Q139.325 1144.01 141.955 1141.64 Q144.585 1139.27 144.585 1135.21 Q144.585 1131.14 141.955 1128.77 Q139.325 1126.4 134.82 1126.4 Q132.71 1126.4 130.601 1126.87 Q128.518 1127.34 126.33 1128.33 L126.33 1108.8 Z" fill="#bebebe" fill-rule="evenodd" fill-opacity="1" /><path clip-path="url(#clip840)" d="M 0 0 M65.5493 793.252 Q61.4869 793.252 59.4296 797.262 Q57.3983 801.246 57.3983 809.267 Q57.3983 817.262 59.4296 821.272 Q61.4869 825.257 65.5493 825.257 Q69.6379 825.257 71.6691 821.272 Q73.7264 817.262 73.7264 809.267 Q73.7264 801.246 71.6691 797.262 Q69.6379 793.252 65.5493 793.252 M65.5493 789.085 Q72.0858 789.085 75.5232 794.267 Q78.9868 799.424 78.9868 809.267 Q78.9868 819.085 75.5232 824.267 Q72.0858 829.423 65.5493 829.423 Q59.0129 829.423 55.5494 824.267 Q52.1119 819.085 52.1119 809.267 Q52.1119 799.424 55.5494 794.267 Q59.0129 789.085 65.5493 789.085 Z" fill="#bebebe" fill-rule="evenodd" fill-opacity="1" /><path clip-path="url(#clip840)" d="M 0 0 M84.6899 822.054 L90.1846 822.054 L90.1846 828.668 L84.6899 828.668 L84.6899 822.054 Z" fill="#bebebe" fill-rule="evenodd" fill-opacity="1" /><path clip-path="url(#clip840)" d="M 0 0 M95.9398 789.788 L116.591 789.788 L116.591 794.215 L100.757 794.215 L100.757 803.746 Q101.903 803.356 103.049 803.174 Q104.195 802.965 105.341 802.965 Q111.851 802.965 115.653 806.533 Q119.455 810.101 119.455 816.194 Q119.455 822.47 115.549 825.96 Q111.643 829.423 104.534 829.423 Q102.086 829.423 99.5335 829.007 Q97.0075 828.59 94.2992 827.757 L94.2992 822.47 Q96.6429 823.746 99.1429 824.371 Q101.643 824.996 104.429 824.996 Q108.935 824.996 111.565 822.627 Q114.195 820.257 114.195 816.194 Q114.195 812.132 111.565 809.762 Q108.935 807.392 104.429 807.392 Q102.32 807.392 100.211 807.861 Q98.1273 808.33 95.9398 809.319 L95.9398 789.788 Z" fill="#bebebe" fill-rule="evenodd" fill-opacity="1" /><path clip-path="url(#clip840)" d="M 0 0 M136.408 793.252 Q132.346 793.252 130.289 797.262 Q128.257 801.246 128.257 809.267 Q128.257 817.262 130.289 821.272 Q132.346 825.257 136.408 825.257 Q140.497 825.257 142.528 821.272 Q144.585 817.262 144.585 809.267 Q144.585 801.246 142.528 797.262 Q140.497 793.252 136.408 793.252 M136.408 789.085 Q142.945 789.085 146.382 794.267 Q149.846 799.424 149.846 809.267 Q149.846 819.085 146.382 824.267 Q142.945 829.423 136.408 829.423 Q129.872 829.423 126.408 824.267 Q122.971 819.085 122.971 809.267 Q122.971 799.424 126.408 794.267 Q129.872 789.085 136.408 789.085 Z" fill="#bebebe" fill-rule="evenodd" fill-opacity="1" /><path clip-path="url(#clip840)" d="M 0 0 M66.565 474.239 Q62.5025 474.239 60.4452 478.25 Q58.414 482.234 58.414 490.255 Q58.414 498.249 60.4452 502.26 Q62.5025 506.244 66.565 506.244 Q70.6535 506.244 72.6847 502.26 Q74.742 498.249 74.742 490.255 Q74.742 482.234 72.6847 478.25 Q70.6535 474.239 66.565 474.239 M66.565 470.073 Q73.1014 470.073 76.5389 475.255 Q80.0024 480.411 80.0024 490.255 Q80.0024 500.072 76.5389 505.255 Q73.1014 510.411 66.565 510.411 Q60.0285 510.411 56.565 505.255 Q53.1275 500.072 53.1275 490.255 Q53.1275 480.411 56.565 475.255 Q60.0285 470.073 66.565 470.073 Z" fill="#bebebe" fill-rule="evenodd" fill-opacity="1" /><path clip-path="url(#clip840)" d="M 0 0 M85.7055 503.041 L91.2002 503.041 L91.2002 509.656 L85.7055 509.656 L85.7055 503.041 Z" fill="#bebebe" fill-rule="evenodd" fill-opacity="1" /><path clip-path="url(#clip840)" d="M 0 0 M95.5752 470.776 L120.575 470.776 L120.575 473.015 L106.461 509.656 L100.966 509.656 L114.247 475.203 L95.5752 475.203 L95.5752 470.776 Z" fill="#bebebe" fill-rule="evenodd" fill-opacity="1" /><path clip-path="url(#clip840)" d="M 0 0 M126.33 470.776 L146.981 470.776 L146.981 475.203 L131.148 475.203 L131.148 484.734 Q132.294 484.343 133.44 484.161 Q134.585 483.953 135.731 483.953 Q142.242 483.953 146.044 487.52 Q149.846 491.088 149.846 497.182 Q149.846 503.458 145.94 506.947 Q142.033 510.411 134.924 510.411 Q132.476 510.411 129.924 509.994 Q127.398 509.578 124.69 508.744 L124.69 503.458 Q127.033 504.734 129.533 505.359 Q132.033 505.984 134.82 505.984 Q139.325 505.984 141.955 503.614 Q144.585 501.244 144.585 497.182 Q144.585 493.119 141.955 490.75 Q139.325 488.38 134.82 488.38 Q132.71 488.38 130.601 488.848 Q128.518 489.317 126.33 490.307 L126.33 470.776 Z" fill="#bebebe" fill-rule="evenodd" fill-opacity="1" /><path clip-path="url(#clip840)" d="M 0 0 M55.4713 186.216 L64.065 186.216 L64.065 156.555 L54.7161 158.43 L54.7161 153.638 L64.0129 151.763 L69.2733 151.763 L69.2733 186.216 L77.867 186.216 L77.867 190.643 L55.4713 190.643 L55.4713 186.216 Z" fill="#bebebe" fill-rule="evenodd" fill-opacity="1" /><path clip-path="url(#clip840)" d="M 0 0 M83.5701 184.029 L89.0648 184.029 L89.0648 190.643 L83.5701 190.643 L83.5701 184.029 Z" fill="#bebebe" fill-rule="evenodd" fill-opacity="1" /><path clip-path="url(#clip840)" d="M 0 0 M106.018 155.227 Q101.955 155.227 99.8981 159.237 Q97.8669 163.221 97.8669 171.242 Q97.8669 179.237 99.8981 183.247 Q101.955 187.232 106.018 187.232 Q110.106 187.232 112.138 183.247 Q114.195 179.237 114.195 171.242 Q114.195 163.221 112.138 159.237 Q110.106 155.227 106.018 155.227 M106.018 151.06 Q112.554 151.06 115.992 156.242 Q119.455 161.398 119.455 171.242 Q119.455 181.06 115.992 186.242 Q112.554 191.398 106.018 191.398 Q99.4814 191.398 96.0179 186.242 Q92.5804 181.06 92.5804 171.242 Q92.5804 161.398 96.0179 156.242 Q99.4814 151.06 106.018 151.06 Z" fill="#bebebe" fill-rule="evenodd" fill-opacity="1" /><path clip-path="url(#clip840)" d="M 0 0 M136.408 155.227 Q132.346 155.227 130.289 159.237 Q128.257 163.221 128.257 171.242 Q128.257 179.237 130.289 183.247 Q132.346 187.232 136.408 187.232 Q140.497 187.232 142.528 183.247 Q144.585 179.237 144.585 171.242 Q144.585 163.221 142.528 159.237 Q140.497 155.227 136.408 155.227 M136.408 151.06 Q142.945 151.06 146.382 156.242 Q149.846 161.398 149.846 171.242 Q149.846 181.06 146.382 186.242 Q142.945 191.398 136.408 191.398 Q129.872 191.398 126.408 186.242 Q122.971 181.06 122.971 171.242 Q122.971 161.398 126.408 156.242 Q129.872 151.06 136.408 151.06 Z" fill="#bebebe" fill-rule="evenodd" fill-opacity="1" /><path clip-path="url(#clip840)" d="M 0 0 M963.429 20.1156 L963.429 31.516 Q956.774 28.3332 950.871 26.7707 Q944.968 25.2082 939.47 25.2082 Q929.922 25.2082 924.714 28.9119 Q919.563 32.6156 919.563 39.4442 Q919.563 45.1734 922.977 48.1247 Q926.45 51.0182 936.056 52.8122 L943.116 54.259 Q956.195 56.7474 962.387 63.0552 Q968.637 69.3052 968.637 79.8375 Q968.637 92.3953 960.188 98.8768 Q951.797 105.358 935.535 105.358 Q929.401 105.358 922.457 103.969 Q915.57 102.58 908.163 99.8606 L908.163 87.8236 Q915.281 91.8166 922.109 93.8421 Q928.938 95.8675 935.535 95.8675 Q945.547 95.8675 950.987 91.9324 Q956.426 87.9972 956.426 80.7056 Q956.426 74.3399 952.491 70.7519 Q948.614 67.164 939.702 65.37 L932.584 63.9811 Q919.505 61.377 913.66 55.8215 Q907.816 50.2659 907.816 40.3702 Q907.816 28.9119 915.859 22.3147 Q923.961 15.7175 938.139 15.7175 Q944.216 15.7175 950.524 16.817 Q956.831 17.9166 963.429 20.1156 Z" fill="#bebebe" fill-rule="evenodd" fill-opacity="1" /><path clip-path="url(#clip840)" d="M 0 0 M1035.25 68.6107 L1035.25 73.819 L986.287 73.819 Q986.982 84.8144 992.884 90.6014 Q998.845 96.3305 1009.44 96.3305 Q1015.57 96.3305 1021.3 94.8259 Q1027.09 93.3213 1032.76 90.312 L1032.76 100.381 Q1027.03 102.812 1021.01 104.085 Q1014.99 105.358 1008.8 105.358 Q993.29 105.358 984.204 96.3305 Q975.176 87.3028 975.176 71.9093 Q975.176 55.9951 983.741 46.678 Q992.364 37.303 1006.95 37.303 Q1020.03 37.303 1027.61 45.7521 Q1035.25 54.1432 1035.25 68.6107 M1024.6 65.4858 Q1024.48 56.7474 1019.68 51.5391 Q1014.93 46.3308 1007.06 46.3308 Q998.151 46.3308 992.769 51.3655 Q987.445 56.4002 986.635 65.5436 L1024.6 65.4858 Z" fill="#bebebe" fill-rule="evenodd" fill-opacity="1" /><path clip-path="url(#clip840)" d="M 0 0 M1083.97 48.8192 Q1082.18 47.7775 1080.04 47.3146 Q1077.95 46.7937 1075.41 46.7937 Q1066.38 46.7937 1061.52 52.6965 Q1056.72 58.5414 1056.72 69.5367 L1056.72 103.68 L1046.01 103.68 L1046.01 38.8655 L1056.72 38.8655 L1056.72 48.9349 Q1060.07 43.0322 1065.45 40.1965 Q1070.84 37.303 1078.53 37.303 Q1079.63 37.303 1080.96 37.4767 Q1082.29 37.5924 1083.91 37.8817 L1083.97 48.8192 Z" fill="#bebebe" fill-rule="evenodd" fill-opacity="1" /><path clip-path="url(#clip840)" d="M 0 0 M1095.14 38.8655 L1105.79 38.8655 L1105.79 103.68 L1095.14 103.68 L1095.14 38.8655 M1095.14 13.6342 L1105.79 13.6342 L1105.79 27.1179 L1095.14 27.1179 L1095.14 13.6342 Z" fill="#bebebe" fill-rule="evenodd" fill-opacity="1" /><path clip-path="url(#clip840)" d="M 0 0 M1172.4 68.6107 L1172.4 73.819 L1123.44 73.819 Q1124.13 84.8144 1130.04 90.6014 Q1136 96.3305 1146.59 96.3305 Q1152.72 96.3305 1158.45 94.8259 Q1164.24 93.3213 1169.91 90.312 L1169.91 100.381 Q1164.18 102.812 1158.16 104.085 Q1152.14 105.358 1145.95 105.358 Q1130.44 105.358 1121.36 96.3305 Q1112.33 87.3028 1112.33 71.9093 Q1112.33 55.9951 1120.89 46.678 Q1129.52 37.303 1144.1 37.303 Q1157.18 37.303 1164.76 45.7521 Q1172.4 54.1432 1172.4 68.6107 M1161.75 65.4858 Q1161.63 56.7474 1156.83 51.5391 Q1152.09 46.3308 1144.21 46.3308 Q1135.3 46.3308 1129.92 51.3655 Q1124.6 56.4002 1123.79 65.5436 L1161.75 65.4858 Z" fill="#bebebe" fill-rule="evenodd" fill-opacity="1" /><path clip-path="url(#clip840)" d="M 0 0 M1231.31 17.28 L1231.31 49.3979 L1221.47 49.3979 L1221.47 17.28 L1231.31 17.28 Z" fill="#bebebe" fill-rule="evenodd" fill-opacity="1" /><path clip-path="url(#clip840)" d="M 0 0 M1283.8 40.7752 L1283.8 50.8446 Q1279.28 48.5298 1274.42 47.3724 Q1269.56 46.215 1264.35 46.215 Q1256.42 46.215 1252.43 48.6456 Q1248.5 51.0761 1248.5 55.9372 Q1248.5 59.6409 1251.33 61.7821 Q1254.17 63.8654 1262.73 65.7751 L1266.38 66.5853 Q1277.72 69.0158 1282.47 73.4718 Q1287.27 77.87 1287.27 85.7982 Q1287.27 94.8259 1280.09 100.092 Q1272.98 105.358 1260.48 105.358 Q1255.27 105.358 1249.6 104.317 Q1243.98 103.333 1237.73 101.307 L1237.73 90.312 Q1243.64 93.3791 1249.36 94.9416 Q1255.09 96.4462 1260.71 96.4462 Q1268.23 96.4462 1272.28 93.9 Q1276.33 91.2958 1276.33 86.6083 Q1276.33 82.2681 1273.38 79.9533 Q1270.49 77.6385 1260.59 75.4973 L1256.89 74.6292 Q1246.99 72.5459 1242.59 68.2635 Q1238.2 63.9233 1238.2 56.4002 Q1238.2 47.2567 1244.68 42.2799 Q1251.16 37.303 1263.08 37.303 Q1268.98 37.303 1274.19 38.1711 Q1279.4 39.0391 1283.8 40.7752 Z" fill="#bebebe" fill-rule="evenodd" fill-opacity="1" /><path clip-path="url(#clip840)" d="M 0 0 M1345.08 41.3539 L1345.08 51.3076 Q1340.57 48.8192 1336 47.6039 Q1331.48 46.3308 1326.85 46.3308 Q1316.49 46.3308 1310.76 52.928 Q1305.04 59.4673 1305.04 71.3306 Q1305.04 83.194 1310.76 89.7912 Q1316.49 96.3305 1326.85 96.3305 Q1331.48 96.3305 1336 95.1152 Q1340.57 93.8421 1345.08 91.3537 L1345.08 101.192 Q1340.63 103.275 1335.82 104.317 Q1331.08 105.358 1325.7 105.358 Q1311.05 105.358 1302.43 96.1569 Q1293.81 86.9556 1293.81 71.3306 Q1293.81 55.4742 1302.49 46.3886 Q1311.23 37.303 1326.39 37.303 Q1331.31 37.303 1336 38.3447 Q1340.68 39.3285 1345.08 41.3539 Z" fill="#bebebe" fill-rule="evenodd" fill-opacity="1" /><path clip-path="url(#clip840)" d="M 0 0 M1385.71 71.0992 Q1372.8 71.0992 1367.82 74.0505 Q1362.85 77.0019 1362.85 84.1199 Q1362.85 89.7912 1366.55 93.1476 Q1370.31 96.4462 1376.74 96.4462 Q1385.59 96.4462 1390.91 90.1963 Q1396.3 83.8884 1396.3 73.4718 L1396.3 71.0992 L1385.71 71.0992 M1406.94 66.701 L1406.94 103.68 L1396.3 103.68 L1396.3 93.8421 Q1392.65 99.7448 1387.21 102.58 Q1381.77 105.358 1373.9 105.358 Q1363.95 105.358 1358.04 99.8027 Q1352.2 94.1893 1352.2 84.8144 Q1352.2 73.8769 1359.49 68.3214 Q1366.84 62.7659 1381.37 62.7659 L1396.3 62.7659 L1396.3 61.7242 Q1396.3 54.3747 1391.44 50.3817 Q1386.63 46.3308 1377.89 46.3308 Q1372.34 46.3308 1367.07 47.6618 Q1361.81 48.9928 1356.95 51.6548 L1356.95 41.8169 Q1362.79 39.56 1368.29 38.4604 Q1373.79 37.303 1378.99 37.303 Q1393.06 37.303 1400 44.5947 Q1406.94 51.8863 1406.94 66.701 Z" fill="#bebebe" fill-rule="evenodd" fill-opacity="1" /><path clip-path="url(#clip840)" d="M 0 0 M1428.65 20.4629 L1428.65 38.8655 L1450.58 38.8655 L1450.58 47.141 L1428.65 47.141 L1428.65 82.3259 Q1428.65 90.2541 1430.79 92.5111 Q1432.99 94.768 1439.64 94.768 L1450.58 94.768 L1450.58 103.68 L1439.64 103.68 Q1427.32 103.68 1422.63 99.1083 Q1417.94 94.4787 1417.94 82.3259 L1417.94 47.141 L1410.13 47.141 L1410.13 38.8655 L1417.94 38.8655 L1417.94 20.4629 L1428.65 20.4629 Z" fill="#bebebe" fill-rule="evenodd" fill-opacity="1" /><path clip-path="url(#clip840)" d="M 0 0 M1472.28 20.4629 L1472.28 38.8655 L1494.21 38.8655 L1494.21 47.141 L1472.28 47.141 L1472.28 82.3259 Q1472.28 90.2541 1474.42 92.5111 Q1476.62 94.768 1483.28 94.768 L1494.21 94.768 L1494.21 103.68 L1483.28 103.68 Q1470.95 103.68 1466.26 99.1083 Q1461.57 94.4787 1461.57 82.3259 L1461.57 47.141 L1453.76 47.141 L1453.76 38.8655 L1461.57 38.8655 L1461.57 20.4629 L1472.28 20.4629 Z" fill="#bebebe" fill-rule="evenodd" fill-opacity="1" /><path clip-path="url(#clip840)" d="M 0 0 M1560.82 68.6107 L1560.82 73.819 L1511.86 73.819 Q1512.56 84.8144 1518.46 90.6014 Q1524.42 96.3305 1535.01 96.3305 Q1541.15 96.3305 1546.87 94.8259 Q1552.66 93.3213 1558.33 90.312 L1558.33 100.381 Q1552.6 102.812 1546.59 104.085 Q1540.57 105.358 1534.37 105.358 Q1518.87 105.358 1509.78 96.3305 Q1500.75 87.3028 1500.75 71.9093 Q1500.75 55.9951 1509.32 46.678 Q1517.94 37.303 1532.52 37.303 Q1545.6 37.303 1553.18 45.7521 Q1560.82 54.1432 1560.82 68.6107 M1550.17 65.4858 Q1550.06 56.7474 1545.25 51.5391 Q1540.51 46.3308 1532.64 46.3308 Q1523.73 46.3308 1518.34 51.3655 Q1513.02 56.4002 1512.21 65.5436 L1550.17 65.4858 Z" fill="#bebebe" fill-rule="evenodd" fill-opacity="1" /><path clip-path="url(#clip840)" d="M 0 0 M1609.55 48.8192 Q1607.75 47.7775 1605.61 47.3146 Q1603.53 46.7937 1600.98 46.7937 Q1591.96 46.7937 1587.09 52.6965 Q1582.29 58.5414 1582.29 69.5367 L1582.29 103.68 L1571.59 103.68 L1571.59 38.8655 L1582.29 38.8655 L1582.29 48.9349 Q1585.65 43.0322 1591.03 40.1965 Q1596.41 37.303 1604.11 37.303 Q1605.21 37.303 1606.54 37.4767 Q1607.87 37.5924 1609.49 37.8817 L1609.55 48.8192 Z" fill="#bebebe" fill-rule="evenodd" fill-opacity="1" /><path clip-path="url(#clip840)" d="M 0 0 M1630.79 17.28 L1630.79 49.3979 L1620.95 49.3979 L1620.95 17.28 L1630.79 17.28 Z" fill="#bebebe" fill-rule="evenodd" fill-opacity="1" /><path clip-path="url(#clip842)" d="M247.173 469.151 L244.353 477.263 L235.761 477.443 L242.613 482.639 L240.117 490.859 L247.173 485.951 L254.229 490.859 L251.733 482.639 L258.585 477.443 L249.993 477.263 L247.173 469.151 Z" fill="#ffa500" fill-rule="evenodd" fill-opacity="0.5" stroke="#ff0000" stroke-opacity="0.5" stroke-width="3.2"/>
<path clip-path="url(#clip842)" d="M354.766 780.37 L351.946 788.482 L343.354 788.662 L350.206 793.858 L347.71 802.078 L354.766 797.17 L361.822 802.078 L359.326 793.858 L366.178 788.662 L357.586 788.482 L354.766 780.37 Z" fill="#ffa500" fill-rule="evenodd" fill-opacity="0.5" stroke="#ff0000" stroke-opacity="0.5" stroke-width="3.2"/>
<path clip-path="url(#clip842)" d="M462.358 916.278 L459.538 924.39 L450.946 924.57 L457.798 929.766 L455.302 937.986 L462.358 933.078 L469.414 937.986 L466.918 929.766 L473.77 924.57 L465.178 924.39 L462.358 916.278 Z" fill="#ffa500" fill-rule="evenodd" fill-opacity="0.5" stroke="#ff0000" stroke-opacity="0.5" stroke-width="3.2"/>
<path clip-path="url(#clip842)" d="M569.95 1148.02 L567.13 1156.13 L558.538 1156.31 L565.39 1161.51 L562.894 1169.73 L569.95 1164.82 L577.006 1169.73 L574.51 1161.51 L581.362 1156.31 L572.77 1156.13 L569.95 1148.02 Z" fill="#ffa500" fill-rule="evenodd" fill-opacity="0.5" stroke="#ff0000" stroke-opacity="0.5" stroke-width="3.2"/>
<path clip-path="url(#clip842)" d="M677.543 531.288 L674.723 539.4 L666.131 539.58 L672.983 544.776 L670.487 552.996 L677.543 548.088 L684.599 552.996 L682.103 544.776 L688.955 539.58 L680.363 539.4 L677.543 531.288 Z" fill="#ffa500" fill-rule="evenodd" fill-opacity="0.5" stroke="#ff0000" stroke-opacity="0.5" stroke-width="3.2"/>
<path clip-path="url(#clip842)" d="M785.135 954.133 L782.315 962.245 L773.723 962.425 L780.575 967.621 L778.079 975.841 L785.135 970.933 L792.191 975.841 L789.695 967.621 L796.547 962.425 L787.955 962.245 L785.135 954.133 Z" fill="#ffa500" fill-rule="evenodd" fill-opacity="0.5" stroke="#ff0000" stroke-opacity="0.5" stroke-width="3.2"/>
<path clip-path="url(#clip842)" d="M892.728 1419.98 L889.908 1428.09 L881.316 1428.27 L888.168 1433.46 L885.672 1441.68 L892.728 1436.78 L899.784 1441.68 L897.288 1433.46 L904.14 1428.27 L895.548 1428.09 L892.728 1419.98 Z" fill="#ffa500" fill-rule="evenodd" fill-opacity="0.5" stroke="#ff0000" stroke-opacity="0.5" stroke-width="3.2"/>
<path clip-path="url(#clip842)" d="M1000.32 336.215 L997.5 344.327 L988.908 344.507 L995.76 349.703 L993.264 357.923 L1000.32 353.015 L1007.38 357.923 L1004.88 349.703 L1011.73 344.507 L1003.14 344.327 L1000.32 336.215 Z" fill="#ffa500" fill-rule="evenodd" fill-opacity="0.5" stroke="#ff0000" stroke-opacity="0.5" stroke-width="3.2"/>
<path clip-path="url(#clip842)" d="M1107.91 1081.77 L1105.09 1089.88 L1096.5 1090.06 L1103.35 1095.26 L1100.86 1103.48 L1107.91 1098.57 L1114.97 1103.48 L1112.47 1095.26 L1119.32 1090.06 L1110.73 1089.88 L1107.91 1081.77 Z" fill="#ffa500" fill-rule="evenodd" fill-opacity="0.5" stroke="#ff0000" stroke-opacity="0.5" stroke-width="3.2"/>
<path clip-path="url(#clip842)" d="M1215.5 561.847 L1212.68 569.959 L1204.09 570.139 L1210.94 575.335 L1208.45 583.555 L1215.5 578.647 L1222.56 583.555 L1220.06 575.335 L1226.92 570.139 L1218.32 569.959 L1215.5 561.847 Z" fill="#ffa500" fill-rule="evenodd" fill-opacity="0.5" stroke="#ff0000" stroke-opacity="0.5" stroke-width="3.2"/>
<path clip-path="url(#clip842)" d="M1323.1 547.906 L1320.28 556.018 L1311.69 556.198 L1318.54 561.394 L1316.04 569.614 L1323.1 564.706 L1330.15 569.614 L1327.66 561.394 L1334.51 556.198 L1325.92 556.018 L1323.1 547.906 Z" fill="#ffa500" fill-rule="evenodd" fill-opacity="0.5" stroke="#ff0000" stroke-opacity="0.5" stroke-width="3.2"/>
<path clip-path="url(#clip842)" d="M1430.69 353.585 L1427.87 361.697 L1419.28 361.877 L1426.13 367.073 L1423.63 375.293 L1430.69 370.385 L1437.75 375.293 L1435.25 367.073 L1442.1 361.877 L1433.51 361.697 L1430.69 353.585 Z" fill="#ffa500" fill-rule="evenodd" fill-opacity="0.5" stroke="#ff0000" stroke-opacity="0.5" stroke-width="3.2"/>
<path clip-path="url(#clip842)" d="M1538.28 240.216 L1535.46 248.328 L1526.87 248.508 L1533.72 253.704 L1531.23 261.924 L1538.28 257.016 L1545.34 261.924 L1542.84 253.704 L1549.69 248.508 L1541.1 248.328 L1538.28 240.216 Z" fill="#ffa500" fill-rule="evenodd" fill-opacity="0.5" stroke="#ff0000" stroke-opacity="0.5" stroke-width="3.2"/>
<path clip-path="url(#clip842)" d="M1645.87 1389.2 L1643.05 1397.32 L1634.46 1397.5 L1641.31 1402.69 L1638.82 1410.91 L1645.87 1406 L1652.93 1410.91 L1650.43 1402.69 L1657.29 1397.5 L1648.69 1397.32 L1645.87 1389.2 Z" fill="#ffa500" fill-rule="evenodd" fill-opacity="0.5" stroke="#ff0000" stroke-opacity="0.5" stroke-width="3.2"/>
<path clip-path="url(#clip842)" d="M1753.47 175.111 L1750.65 183.223 L1742.05 183.403 L1748.91 188.599 L1746.41 196.819 L1753.47 191.911 L1760.52 196.819 L1758.03 188.599 L1764.88 183.403 L1756.29 183.223 L1753.47 175.111 Z" fill="#ffa500" fill-rule="evenodd" fill-opacity="0.5" stroke="#ff0000" stroke-opacity="0.5" stroke-width="3.2"/>
<path clip-path="url(#clip842)" d="M1861.06 880.01 L1858.24 888.122 L1849.65 888.302 L1856.5 893.498 L1854 901.718 L1861.06 896.81 L1868.11 901.718 L1865.62 893.498 L1872.47 888.302 L1863.88 888.122 L1861.06 880.01 Z" fill="#ffa500" fill-rule="evenodd" fill-opacity="0.5" stroke="#ff0000" stroke-opacity="0.5" stroke-width="3.2"/>
<path clip-path="url(#clip842)" d="M1968.65 1034.05 L1965.83 1042.16 L1957.24 1042.34 L1964.09 1047.53 L1961.6 1055.75 L1968.65 1050.85 L1975.71 1055.75 L1973.21 1047.53 L1980.06 1042.34 L1971.47 1042.16 L1968.65 1034.05 Z" fill="#ffa500" fill-rule="evenodd" fill-opacity="0.5" stroke="#ff0000" stroke-opacity="0.5" stroke-width="3.2"/>
<path clip-path="url(#clip842)" d="M2076.24 530.65 L2073.42 538.762 L2064.83 538.942 L2071.68 544.138 L2069.19 552.358 L2076.24 547.45 L2083.3 552.358 L2080.8 544.138 L2087.66 538.942 L2079.06 538.762 L2076.24 530.65 Z" fill="#ffa500" fill-rule="evenodd" fill-opacity="0.5" stroke="#ff0000" stroke-opacity="0.5" stroke-width="3.2"/>
<path clip-path="url(#clip842)" d="M2183.84 1078.49 L2181.02 1086.6 L2172.42 1086.78 L2179.28 1091.98 L2176.78 1100.2 L2183.84 1095.29 L2190.89 1100.2 L2188.4 1091.98 L2195.25 1086.78 L2186.66 1086.6 L2183.84 1078.49 Z" fill="#ffa500" fill-rule="evenodd" fill-opacity="0.5" stroke="#ff0000" stroke-opacity="0.5" stroke-width="3.2"/>
<path clip-path="url(#clip842)" d="M2291.43 993.551 L2288.61 1001.66 L2280.02 1001.84 L2286.87 1007.04 L2284.37 1015.26 L2291.43 1010.35 L2298.48 1015.26 L2295.99 1007.04 L2302.84 1001.84 L2294.25 1001.66 L2291.43 993.551 Z" fill="#ffa500" fill-rule="evenodd" fill-opacity="0.5" stroke="#ff0000" stroke-opacity="0.5" stroke-width="3.2"/>
<path clip-path="url(#clip842)" d="M247.173 581.238 L219.173 609.238 L247.173 637.238 L275.173 609.238 L247.173 581.238 Z" fill="#008000" fill-rule="evenodd" fill-opacity="1" stroke="#ff0000" stroke-opacity="1" stroke-width="3.2"/>
<path clip-path="url(#clip842)" d="M354.766 949.989 L326.766 977.989 L354.766 1005.99 L382.766 977.989 L354.766 949.989 Z" fill="#008000" fill-rule="evenodd" fill-opacity="1" stroke="#ff0000" stroke-opacity="1" stroke-width="3.2"/>
<path clip-path="url(#clip842)" d="M462.358 847.061 L434.358 875.061 L462.358 903.061 L490.358 875.061 L462.358 847.061 Z" fill="#008000" fill-rule="evenodd" fill-opacity="1" stroke="#ff0000" stroke-opacity="1" stroke-width="3.2"/>
<path clip-path="url(#clip842)" d="M569.95 919.535 L541.95 947.535 L569.95 975.535 L597.95 947.535 L569.95 919.535 Z" fill="#008000" fill-rule="evenodd" fill-opacity="1" stroke="#ff0000" stroke-opacity="1" stroke-width="3.2"/>
<path clip-path="url(#clip842)" d="M677.543 1176.09 L649.543 1204.09 L677.543 1232.09 L705.543 1204.09 L677.543 1176.09 Z" fill="#008000" fill-rule="evenodd" fill-opacity="1" stroke="#ff0000" stroke-opacity="1" stroke-width="3.2"/>
<path clip-path="url(#clip842)" d="M785.135 1070.39 L757.135 1098.39 L785.135 1126.39 L813.135 1098.39 L785.135 1070.39 Z" fill="#008000" fill-rule="evenodd" fill-opacity="1" stroke="#ff0000" stroke-opacity="1" stroke-width="3.2"/>
<path clip-path="url(#clip842)" d="M892.728 919.195 L864.728 947.195 L892.728 975.195 L920.728 947.195 L892.728 919.195 Z" fill="#008000" fill-rule="evenodd" fill-opacity="1" stroke="#ff0000" stroke-opacity="1" stroke-width="3.2"/>
<path clip-path="url(#clip842)" d="M1000.32 192.552 L972.32 220.552 L1000.32 248.552 L1028.32 220.552 L1000.32 192.552 Z" fill="#008000" fill-rule="evenodd" fill-opacity="1" stroke="#ff0000" stroke-opacity="1" stroke-width="3.2"/>
<path clip-path="url(#clip842)" d="M1107.91 507.819 L1079.91 535.819 L1107.91 563.819 L1135.91 535.819 L1107.91 507.819 Z" fill="#008000" fill-rule="evenodd" fill-opacity="1" stroke="#ff0000" stroke-opacity="1" stroke-width="3.2"/>
<path clip-path="url(#clip842)" d="M1215.5 549.455 L1187.5 577.455 L1215.5 605.455 L1243.5 577.455 L1215.5 549.455 Z" fill="#008000" fill-rule="evenodd" fill-opacity="1" stroke="#ff0000" stroke-opacity="1" stroke-width="3.2"/>
<path clip-path="url(#clip842)" d="M1323.1 704.449 L1295.1 732.449 L1323.1 760.449 L1351.1 732.449 L1323.1 704.449 Z" fill="#008000" fill-rule="evenodd" fill-opacity="1" stroke="#ff0000" stroke-opacity="1" stroke-width="3.2"/>
<path clip-path="url(#clip842)" d="M1430.69 163.652 L1402.69 191.652 L1430.69 219.652 L1458.69 191.652 L1430.69 163.652 Z" fill="#008000" fill-rule="evenodd" fill-opacity="1" stroke="#ff0000" stroke-opacity="1" stroke-width="3.2"/>
<path clip-path="url(#clip842)" d="M1538.28 755.959 L1510.28 783.959 L1538.28 811.959 L1566.28 783.959 L1538.28 755.959 Z" fill="#008000" fill-rule="evenodd" fill-opacity="1" stroke="#ff0000" stroke-opacity="1" stroke-width="3.2"/>
<path clip-path="url(#clip842)" d="M1645.87 966.314 L1617.87 994.314 L1645.87 1022.31 L1673.87 994.314 L1645.87 966.314 Z" fill="#008000" fill-rule="evenodd" fill-opacity="1" stroke="#ff0000" stroke-opacity="1" stroke-width="3.2"/>
<path clip-path="url(#clip842)" d="M1753.47 1183.16 L1725.47 1211.16 L1753.47 1239.16 L1781.47 1211.16 L1753.47 1183.16 Z" fill="#008000" fill-rule="evenodd" fill-opacity="1" stroke="#ff0000" stroke-opacity="1" stroke-width="3.2"/>
<path clip-path="url(#clip842)" d="M1861.06 1403.16 L1833.06 1431.16 L1861.06 1459.16 L1889.06 1431.16 L1861.06 1403.16 Z" fill="#008000" fill-rule="evenodd" fill-opacity="1" stroke="#ff0000" stroke-opacity="1" stroke-width="3.2"/>
<path clip-path="url(#clip842)" d="M1968.65 1098.79 L1940.65 1126.79 L1968.65 1154.79 L1996.65 1126.79 L1968.65 1098.79 Z" fill="#008000" fill-rule="evenodd" fill-opacity="1" stroke="#ff0000" stroke-opacity="1" stroke-width="3.2"/>
<path clip-path="url(#clip842)" d="M2076.24 997.48 L2048.24 1025.48 L2076.24 1053.48 L2104.24 1025.48 L2076.24 997.48 Z" fill="#008000" fill-rule="evenodd" fill-opacity="1" stroke="#ff0000" stroke-opacity="1" stroke-width="3.2"/>
<path clip-path="url(#clip842)" d="M2183.84 1066.75 L2155.84 1094.75 L2183.84 1122.75 L2211.84 1094.75 L2183.84 1066.75 Z" fill="#008000" fill-rule="evenodd" fill-opacity="1" stroke="#ff0000" stroke-opacity="1" stroke-width="3.2"/>
<path clip-path="url(#clip842)" d="M2291.43 1107.36 L2263.43 1135.36 L2291.43 1163.36 L2319.43 1135.36 L2291.43 1107.36 Z" fill="#008000" fill-rule="evenodd" fill-opacity="1" stroke="#ff0000" stroke-opacity="1" stroke-width="3.2"/>
<path clip-path="url(#clip842)" d="M208.773 968.829 L266.373 1002.43 L266.373 935.229 L208.773 968.829 Z" fill="#00008b" fill-rule="evenodd" fill-opacity="0.2" stroke="#ff0000" stroke-opacity="0.2" stroke-width="3.2"/>
<path clip-path="url(#clip842)" d="M316.366 1416.34 L373.966 1449.94 L373.966 1382.74 L316.366 1416.34 Z" fill="#00008b" fill-rule="evenodd" fill-opacity="0.2" stroke="#ff0000" stroke-opacity="0.2" stroke-width="3.2"/>
<path clip-path="url(#clip842)" d="M423.958 1421.92 L481.558 1455.52 L481.558 1388.32 L423.958 1421.92 Z" fill="#00008b" fill-rule="evenodd" fill-opacity="0.2" stroke="#ff0000" stroke-opacity="0.2" stroke-width="3.2"/>
<path clip-path="url(#clip842)" d="M531.55 683.705 L589.15 717.305 L589.15 650.105 L531.55 683.705 Z" fill="#00008b" fill-rule="evenodd" fill-opacity="0.2" stroke="#ff0000" stroke-opacity="0.2" stroke-width="3.2"/>
<path clip-path="url(#clip842)" d="M639.143 692.753 L696.743 726.353 L696.743 659.153 L639.143 692.753 Z" fill="#00008b" fill-rule="evenodd" fill-opacity="0.2" stroke="#ff0000" stroke-opacity="0.2" stroke-width="3.2"/>
<path clip-path="url(#clip842)" d="M746.735 901.528 L804.335 935.128 L804.335 867.928 L746.735 901.528 Z" fill="#00008b" fill-rule="evenodd" fill-opacity="0.2" stroke="#ff0000" stroke-opacity="0.2" stroke-width="3.2"/>
<path clip-path="url(#clip842)" d="M854.328 661.415 L911.928 695.015 L911.928 627.815 L854.328 661.415 Z" fill="#00008b" fill-rule="evenodd" fill-opacity="0.2" stroke="#ff0000" stroke-opacity="0.2" stroke-width="3.2"/>
<path clip-path="url(#clip842)" d="M961.92 560.354 L1019.52 593.954 L1019.52 526.754 L961.92 560.354 Z" fill="#00008b" fill-rule="evenodd" fill-opacity="0.2" stroke="#ff0000" stroke-opacity="0.2" stroke-width="3.2"/>
<path clip-path="url(#clip842)" d="M1069.51 1444.41 L1127.11 1478.01 L1127.11 1410.81 L1069.51 1444.41 Z" fill="#00008b" fill-rule="evenodd" fill-opacity="0.2" stroke="#ff0000" stroke-opacity="0.2" stroke-width="3.2"/>
<path clip-path="url(#clip842)" d="M1177.1 354.555 L1234.7 388.155 L1234.7 320.955 L1177.1 354.555 Z" fill="#00008b" fill-rule="evenodd" fill-opacity="0.2" stroke="#ff0000" stroke-opacity="0.2" stroke-width="3.2"/>
<path clip-path="url(#clip842)" d="M1284.7 805.42 L1342.3 839.02 L1342.3 771.82 L1284.7 805.42 Z" fill="#00008b" fill-rule="evenodd" fill-opacity="0.2" stroke="#ff0000" stroke-opacity="0.2" stroke-width="3.2"/>
<path clip-path="url(#clip842)" d="M1392.29 1289.31 L1449.89 1322.91 L1449.89 1255.71 L1392.29 1289.31 Z" fill="#00008b" fill-rule="evenodd" fill-opacity="0.2" stroke="#ff0000" stroke-opacity="0.2" stroke-width="3.2"/>
<path clip-path="url(#clip842)" d="M1499.88 724.852 L1557.48 758.452 L1557.48 691.252 L1499.88 724.852 Z" fill="#00008b" fill-rule="evenodd" fill-opacity="0.2" stroke="#ff0000" stroke-opacity="0.2" stroke-width="3.2"/>
<path clip-path="url(#clip842)" d="M1607.47 1067.34 L1665.07 1100.94 L1665.07 1033.74 L1607.47 1067.34 Z" fill="#00008b" fill-rule="evenodd" fill-opacity="0.2" stroke="#ff0000" stroke-opacity="0.2" stroke-width="3.2"/>
<path clip-path="url(#clip842)" d="M1715.07 838.969 L1772.67 872.569 L1772.67 805.369 L1715.07 838.969 Z" fill="#00008b" fill-rule="evenodd" fill-opacity="0.2" stroke="#ff0000" stroke-opacity="0.2" stroke-width="3.2"/>
<path clip-path="url(#clip842)" d="M1822.66 1119.26 L1880.26 1152.86 L1880.26 1085.66 L1822.66 1119.26 Z" fill="#00008b" fill-rule="evenodd" fill-opacity="0.2" stroke="#ff0000" stroke-opacity="0.2" stroke-width="3.2"/>
<path clip-path="url(#clip842)" d="M1930.25 797.717 L1987.85 831.317 L1987.85 764.117 L1930.25 797.717 Z" fill="#00008b" fill-rule="evenodd" fill-opacity="0.2" stroke="#ff0000" stroke-opacity="0.2" stroke-width="3.2"/>
<path clip-path="url(#clip842)" d="M2037.84 1074.61 L2095.44 1108.21 L2095.44 1041.01 L2037.84 1074.61 Z" fill="#00008b" fill-rule="evenodd" fill-opacity="0.2" stroke="#ff0000" stroke-opacity="0.2" stroke-width="3.2"/>
<path clip-path="url(#clip842)" d="M2145.44 876.843 L2203.04 910.443 L2203.04 843.243 L2145.44 876.843 Z" fill="#00008b" fill-rule="evenodd" fill-opacity="0.2" stroke="#ff0000" stroke-opacity="0.2" stroke-width="3.2"/>
<path clip-path="url(#clip842)" d="M2253.03 1253.51 L2310.63 1287.11 L2310.63 1219.91 L2253.03 1253.51 Z" fill="#00008b" fill-rule="evenodd" fill-opacity="0.2" stroke="#ff0000" stroke-opacity="0.2" stroke-width="3.2"/>
<path clip-path="url(#clip840)" d="
M1988.16 435.737 L2280.53 435.737 L2280.53 193.817 L1988.16 193.817  Z
  " fill="#ffffff" fill-rule="evenodd" fill-opacity="1"/>
<polyline clip-path="url(#clip840)" style="stroke:#000000; stroke-width:4; stroke-opacity:1; fill:none" points="
  1988.16,435.737 2280.53,435.737 2280.53,193.817 1988.16,193.817 1988.16,435.737 
  "/>
<path clip-path="url(#clip840)" d="M2084.47 228.697 L2078.45 246.002 L2060.12 246.386 L2074.74 257.471 L2069.42 275.007 L2084.47 264.537 L2099.52 275.007 L2094.2 257.471 L2108.81 246.386 L2090.48 246.002 L2084.47 228.697 Z" fill="#ffa500" fill-rule="evenodd" fill-opacity="0.5" stroke="#ff0000" stroke-opacity="0.5" stroke-width="6.82667"/>
<path clip-path="url(#clip840)" d="M 0 0 M2194.62 273.984 Q2192.81 278.614 2191.1 280.026 Q2189.39 281.438 2186.52 281.438 L2183.11 281.438 L2183.11 277.873 L2185.61 277.873 Q2187.37 277.873 2188.34 277.04 Q2189.32 276.206 2190.5 273.104 L2191.26 271.16 L2180.78 245.651 L2185.29 245.651 L2193.39 265.929 L2201.49 245.651 L2206.01 245.651 L2194.62 273.984 Z" fill="#bebebe" fill-rule="evenodd" fill-opacity="1" /><path clip-path="url(#clip840)" d="M 0 0 M2211.89 267.641 L2219.52 267.641 L2219.52 241.276 L2211.21 242.943 L2211.21 238.683 L2219.48 237.017 L2224.15 237.017 L2224.15 267.641 L2231.79 267.641 L2231.79 271.577 L2211.89 271.577 L2211.89 267.641 Z" fill="#bebebe" fill-rule="evenodd" fill-opacity="1" /><path clip-path="url(#clip840)" d="M2084.47 289.177 L2058.87 314.777 L2084.47 340.377 L2110.07 314.777 L2084.47 289.177 Z" fill="#008000" fill-rule="evenodd" fill-opacity="1" stroke="#ff0000" stroke-opacity="1" stroke-width="2.92571"/>
<path clip-path="url(#clip840)" d="M 0 0 M2194.62 334.464 Q2192.81 339.094 2191.1 340.506 Q2189.39 341.918 2186.52 341.918 L2183.11 341.918 L2183.11 338.353 L2185.61 338.353 Q2187.37 338.353 2188.34 337.52 Q2189.32 336.686 2190.5 333.584 L2191.26 331.64 L2180.78 306.131 L2185.29 306.131 L2193.39 326.409 L2201.49 306.131 L2206.01 306.131 L2194.62 334.464 Z" fill="#bebebe" fill-rule="evenodd" fill-opacity="1" /><path clip-path="url(#clip840)" d="M 0 0 M2215.1 328.121 L2231.42 328.121 L2231.42 332.057 L2209.48 332.057 L2209.48 328.121 Q2212.14 325.367 2216.72 320.737 Q2221.33 316.085 2222.51 314.742 Q2224.76 312.219 2225.64 310.483 Q2226.54 308.723 2226.54 307.034 Q2226.54 304.279 2224.59 302.543 Q2222.67 300.807 2219.57 300.807 Q2217.37 300.807 2214.92 301.571 Q2212.49 302.335 2209.71 303.886 L2209.71 299.163 Q2212.53 298.029 2214.99 297.45 Q2217.44 296.872 2219.48 296.872 Q2224.85 296.872 2228.04 299.557 Q2231.24 302.242 2231.24 306.733 Q2231.24 308.862 2230.43 310.784 Q2229.64 312.682 2227.53 315.274 Q2226.96 315.946 2223.85 319.163 Q2220.75 322.358 2215.1 328.121 Z" fill="#bebebe" fill-rule="evenodd" fill-opacity="1" /><path clip-path="url(#clip840)" d="M2063.99 375.257 L2094.71 393.177 L2094.71 357.337 L2063.99 375.257 Z" fill="#00008b" fill-rule="evenodd" fill-opacity="0.2" stroke="#ff0000" stroke-opacity="0.2" stroke-width="1.70667"/>
<path clip-path="url(#clip840)" d="M 0 0 M2194.62 394.944 Q2192.81 399.574 2191.1 400.986 Q2189.39 402.398 2186.52 402.398 L2183.11 402.398 L2183.11 398.833 L2185.61 398.833 Q2187.37 398.833 2188.34 398 Q2189.32 397.166 2190.5 394.064 L2191.26 392.12 L2180.78 366.611 L2185.29 366.611 L2193.39 386.889 L2201.49 366.611 L2206.01 366.611 L2194.62 394.944 Z" fill="#bebebe" fill-rule="evenodd" fill-opacity="1" /><path clip-path="url(#clip840)" d="M 0 0 M2225.24 373.902 Q2228.6 374.62 2230.47 376.889 Q2232.37 379.157 2232.37 382.49 Q2232.37 387.606 2228.85 390.407 Q2225.34 393.208 2218.85 393.208 Q2216.68 393.208 2214.36 392.768 Q2212.07 392.351 2209.62 391.495 L2209.62 386.981 Q2211.56 388.115 2213.88 388.694 Q2216.19 389.273 2218.71 389.273 Q2223.11 389.273 2225.4 387.537 Q2227.72 385.801 2227.72 382.49 Q2227.72 379.435 2225.57 377.722 Q2223.44 375.986 2219.62 375.986 L2215.59 375.986 L2215.59 372.143 L2219.8 372.143 Q2223.25 372.143 2225.08 370.778 Q2226.91 369.389 2226.91 366.796 Q2226.91 364.134 2225.01 362.722 Q2223.14 361.287 2219.62 361.287 Q2217.7 361.287 2215.5 361.703 Q2213.3 362.12 2210.66 363 L2210.66 358.833 Q2213.32 358.092 2215.64 357.722 Q2217.97 357.352 2220.03 357.352 Q2225.36 357.352 2228.46 359.782 Q2231.56 362.19 2231.56 366.31 Q2231.56 369.18 2229.92 371.171 Q2228.27 373.139 2225.24 373.902 Z" fill="#bebebe" fill-rule="evenodd" fill-opacity="1" /></svg>
