<?xml version="1.0" encoding="utf-8"?>
<svg xmlns="http://www.w3.org/2000/svg" xmlns:xlink="http://www.w3.org/1999/xlink" width="600" height="400" viewBox="0 0 2400 1600">
<defs>
  <clipPath id="clip430">
    <rect x="0" y="0" width="2400" height="1600"/>
  </clipPath>
</defs>
<path clip-path="url(#clip430)" d="
M0 1600 L2400 1600 L2400 0 L0 0  Z
  " fill="#ffffff" fill-rule="evenodd" fill-opacity="1"/>
<defs>
  <clipPath id="clip431">
    <rect x="480" y="0" width="1681" height="1600"/>
  </clipPath>
</defs>
<path clip-path="url(#clip430)" d="
M156.002 1482.13 L2352.76 1482.13 L2352.76 149.392 L156.002 149.392  Z
  " fill="#ffffff" fill-rule="evenodd" fill-opacity="1"/>
<defs>
  <clipPath id="clip432">
    <rect x="156" y="149" width="2198" height="1334"/>
  </clipPath>
</defs>
<polyline clip-path="url(#clip432)" style="stroke:#000000; stroke-width:2; stroke-opacity:0.1; fill:none" points="
  654.471,1482.13 654.471,149.392 
  "/>
<polyline clip-path="url(#clip432)" style="stroke:#000000; stroke-width:2; stroke-opacity:0.1; fill:none" points="
  1199.84,1482.13 1199.84,149.392 
  "/>
<polyline clip-path="url(#clip432)" style="stroke:#000000; stroke-width:2; stroke-opacity:0.1; fill:none" points="
  1745.21,1482.13 1745.21,149.392 
  "/>
<polyline clip-path="url(#clip432)" style="stroke:#000000; stroke-width:2; stroke-opacity:0.1; fill:none" points="
  2290.58,1482.13 2290.58,149.392 
  "/>
<polyline clip-path="url(#clip430)" style="stroke:#000000; stroke-width:4; stroke-opacity:1; fill:none" points="
  156.002,1482.13 2352.76,1482.13 
  "/>
<polyline clip-path="url(#clip430)" style="stroke:#000000; stroke-width:4; stroke-opacity:1; fill:none" points="
  654.471,1482.13 654.471,1466.14 
  "/>
<polyline clip-path="url(#clip430)" style="stroke:#000000; stroke-width:4; stroke-opacity:1; fill:none" points="
  1199.84,1482.13 1199.84,1466.14 
  "/>
<polyline clip-path="url(#clip430)" style="stroke:#000000; stroke-width:4; stroke-opacity:1; fill:none" points="
  1745.21,1482.13 1745.21,1466.14 
  "/>
<polyline clip-path="url(#clip430)" style="stroke:#000000; stroke-width:4; stroke-opacity:1; fill:none" points="
  2290.58,1482.13 2290.58,1466.14 
  "/>
<path clip-path="url(#clip430)" d="M 0 0 M643.534 1509.1 L664.185 1509.1 L664.185 1513.53 L648.351 1513.53 L648.351 1523.06 Q649.497 1522.67 650.643 1522.49 Q651.789 1522.28 652.935 1522.28 Q659.445 1522.28 663.247 1525.85 Q667.049 1529.42 667.049 1535.51 Q667.049 1541.79 663.143 1545.28 Q659.237 1548.74 652.127 1548.74 Q649.679 1548.74 647.127 1548.32 Q644.601 1547.91 641.893 1547.07 L641.893 1541.79 Q644.237 1543.06 646.737 1543.69 Q649.237 1544.31 652.023 1544.31 Q656.528 1544.31 659.159 1541.94 Q661.789 1539.57 661.789 1535.51 Q661.789 1531.45 659.159 1529.08 Q656.528 1526.71 652.023 1526.71 Q649.914 1526.71 647.804 1527.18 Q645.721 1527.65 643.534 1528.64 L643.534 1509.1 Z" fill="#bebebe" fill-rule="evenodd" fill-opacity="1" /><path clip-path="url(#clip430)" d="M 0 0 M1173.83 1543.56 L1182.42 1543.56 L1182.42 1513.9 L1173.07 1515.77 L1173.07 1510.98 L1182.37 1509.1 L1187.63 1509.1 L1187.63 1543.56 L1196.22 1543.56 L1196.22 1547.98 L1173.83 1547.98 L1173.83 1543.56 Z" fill="#bebebe" fill-rule="evenodd" fill-opacity="1" /><path clip-path="url(#clip430)" d="M 0 0 M1213.18 1512.57 Q1209.11 1512.57 1207.06 1516.58 Q1205.02 1520.56 1205.02 1528.58 Q1205.02 1536.58 1207.06 1540.59 Q1209.11 1544.57 1213.18 1544.57 Q1217.26 1544.57 1219.29 1540.59 Q1221.35 1536.58 1221.35 1528.58 Q1221.35 1520.56 1219.29 1516.58 Q1217.26 1512.57 1213.18 1512.57 M1213.18 1508.4 Q1219.71 1508.4 1223.15 1513.58 Q1226.61 1518.74 1226.61 1528.58 Q1226.61 1538.4 1223.15 1543.58 Q1219.71 1548.74 1213.18 1548.74 Q1206.64 1548.74 1203.18 1543.58 Q1199.74 1538.4 1199.74 1528.58 Q1199.74 1518.74 1203.18 1513.58 Q1206.64 1508.4 1213.18 1508.4 Z" fill="#bebebe" fill-rule="evenodd" fill-opacity="1" /><path clip-path="url(#clip430)" d="M 0 0 M1719.76 1543.56 L1728.35 1543.56 L1728.35 1513.9 L1719 1515.77 L1719 1510.98 L1728.3 1509.1 L1733.56 1509.1 L1733.56 1543.56 L1742.15 1543.56 L1742.15 1547.98 L1719.76 1547.98 L1719.76 1543.56 Z" fill="#bebebe" fill-rule="evenodd" fill-opacity="1" /><path clip-path="url(#clip430)" d="M 0 0 M1747.91 1509.1 L1768.56 1509.1 L1768.56 1513.53 L1752.73 1513.53 L1752.73 1523.06 Q1753.87 1522.67 1755.02 1522.49 Q1756.16 1522.28 1757.31 1522.28 Q1763.82 1522.28 1767.62 1525.85 Q1771.42 1529.42 1771.42 1535.51 Q1771.42 1541.79 1767.52 1545.28 Q1763.61 1548.74 1756.5 1548.74 Q1754.05 1548.74 1751.5 1548.32 Q1748.98 1547.91 1746.27 1547.07 L1746.27 1541.79 Q1748.61 1543.06 1751.11 1543.69 Q1753.61 1544.31 1756.4 1544.31 Q1760.9 1544.31 1763.53 1541.94 Q1766.16 1539.57 1766.16 1535.51 Q1766.16 1531.45 1763.53 1529.08 Q1760.9 1526.71 1756.4 1526.71 Q1754.29 1526.71 1752.18 1527.18 Q1750.1 1527.65 1747.91 1528.64 L1747.91 1509.1 Z" fill="#bebebe" fill-rule="evenodd" fill-opacity="1" /><path clip-path="url(#clip430)" d="M 0 0 M2269.37 1543.56 L2287.73 1543.56 L2287.73 1547.98 L2263.04 1547.98 L2263.04 1543.56 Q2266.04 1540.46 2271.2 1535.25 Q2276.38 1530.02 2277.71 1528.5 Q2280.23 1525.67 2281.22 1523.71 Q2282.24 1521.73 2282.24 1519.83 Q2282.24 1516.73 2280.05 1514.78 Q2277.89 1512.83 2274.4 1512.83 Q2271.92 1512.83 2269.16 1513.69 Q2266.43 1514.55 2263.31 1516.29 L2263.31 1510.98 Q2266.48 1509.7 2269.24 1509.05 Q2272 1508.4 2274.29 1508.4 Q2280.34 1508.4 2283.93 1511.42 Q2287.52 1514.44 2287.52 1519.49 Q2287.52 1521.89 2286.61 1524.05 Q2285.73 1526.19 2283.36 1529.1 Q2282.71 1529.86 2279.22 1533.48 Q2275.73 1537.07 2269.37 1543.56 Z" fill="#bebebe" fill-rule="evenodd" fill-opacity="1" /><path clip-path="url(#clip430)" d="M 0 0 M2304.69 1512.57 Q2300.62 1512.57 2298.57 1516.58 Q2296.53 1520.56 2296.53 1528.58 Q2296.53 1536.58 2298.57 1540.59 Q2300.62 1544.57 2304.69 1544.57 Q2308.77 1544.57 2310.8 1540.59 Q2312.86 1536.58 2312.86 1528.58 Q2312.86 1520.56 2310.8 1516.58 Q2308.77 1512.57 2304.69 1512.57 M2304.69 1508.4 Q2311.22 1508.4 2314.66 1513.58 Q2318.12 1518.74 2318.12 1528.58 Q2318.12 1538.4 2314.66 1543.58 Q2311.22 1548.74 2304.69 1548.74 Q2298.15 1548.74 2294.69 1543.58 Q2291.25 1538.4 2291.25 1528.58 Q2291.25 1518.74 2294.69 1513.58 Q2298.15 1508.4 2304.69 1508.4 Z" fill="#bebebe" fill-rule="evenodd" fill-opacity="1" /><polyline clip-path="url(#clip432)" style="stroke:#000000; stroke-width:2; stroke-opacity:0.1; fill:none" points="
  156.002,1221.27 2352.76,1221.27 
  "/>
<polyline clip-path="url(#clip432)" style="stroke:#000000; stroke-width:2; stroke-opacity:0.1; fill:none" points="
  156.002,956.48 2352.76,956.48 
  "/>
<polyline clip-path="url(#clip432)" style="stroke:#000000; stroke-width:2; stroke-opacity:0.1; fill:none" points="
  156.002,691.689 2352.76,691.689 
  "/>
<polyline clip-path="url(#clip432)" style="stroke:#000000; stroke-width:2; stroke-opacity:0.1; fill:none" points="
  156.002,426.899 2352.76,426.899 
  "/>
<polyline clip-path="url(#clip432)" style="stroke:#000000; stroke-width:2; stroke-opacity:0.1; fill:none" points="
  156.002,162.108 2352.76,162.108 
  "/>
<polyline clip-path="url(#clip430)" style="stroke:#000000; stroke-width:4; stroke-opacity:1; fill:none" points="
  156.002,1482.13 156.002,149.392 
  "/>
<polyline clip-path="url(#clip430)" style="stroke:#000000; stroke-width:4; stroke-opacity:1; fill:none" points="
  156.002,1221.27 182.363,1221.27 
  "/>
<polyline clip-path="url(#clip430)" style="stroke:#000000; stroke-width:4; stroke-opacity:1; fill:none" points="
  156.002,956.48 182.363,956.48 
  "/>
<polyline clip-path="url(#clip430)" style="stroke:#000000; stroke-width:4; stroke-opacity:1; fill:none" points="
  156.002,691.689 182.363,691.689 
  "/>
<polyline clip-path="url(#clip430)" style="stroke:#000000; stroke-width:4; stroke-opacity:1; fill:none" points="
  156.002,426.899 182.363,426.899 
  "/>
<polyline clip-path="url(#clip430)" style="stroke:#000000; stroke-width:4; stroke-opacity:1; fill:none" points="
  156.002,162.108 182.363,162.108 
  "/>
<path clip-path="url(#clip430)" d="M 0 0 M66.7733 1205.29 Q62.7108 1205.29 60.6535 1209.3 Q58.6223 1213.29 58.6223 1221.31 Q58.6223 1229.3 60.6535 1233.31 Q62.7108 1237.3 66.7733 1237.3 Q70.8618 1237.3 72.8931 1233.31 Q74.9503 1229.3 74.9503 1221.31 Q74.9503 1213.29 72.8931 1209.3 Q70.8618 1205.29 66.7733 1205.29 M66.7733 1201.13 Q73.3097 1201.13 76.7472 1206.31 Q80.2107 1211.47 80.2107 1221.31 Q80.2107 1231.13 76.7472 1236.31 Q73.3097 1241.47 66.7733 1241.47 Q60.2369 1241.47 56.7733 1236.31 Q53.3359 1231.13 53.3359 1221.31 Q53.3359 1211.47 56.7733 1206.31 Q60.2369 1201.13 66.7733 1201.13 Z" fill="#bebebe" fill-rule="evenodd" fill-opacity="1" /><path clip-path="url(#clip430)" d="M 0 0 M85.9138 1234.1 L91.4086 1234.1 L91.4086 1240.71 L85.9138 1240.71 L85.9138 1234.1 Z" fill="#bebebe" fill-rule="evenodd" fill-opacity="1" /><path clip-path="url(#clip430)" d="M 0 0 M101.643 1236.28 L120.002 1236.28 L120.002 1240.71 L95.3148 1240.71 L95.3148 1236.28 Q98.3096 1233.18 103.466 1227.98 Q108.648 1222.74 109.976 1221.23 Q112.502 1218.39 113.492 1216.44 Q114.507 1214.46 114.507 1212.56 Q114.507 1209.46 112.32 1207.51 Q110.158 1205.55 106.669 1205.55 Q104.195 1205.55 101.435 1206.41 Q98.7002 1207.27 95.5752 1209.02 L95.5752 1203.71 Q98.7523 1202.43 101.513 1201.78 Q104.273 1201.13 106.565 1201.13 Q112.606 1201.13 116.2 1204.15 Q119.794 1207.17 119.794 1212.22 Q119.794 1214.62 118.882 1216.78 Q117.997 1218.91 115.627 1221.83 Q114.976 1222.59 111.487 1226.21 Q107.997 1229.8 101.643 1236.28 Z" fill="#bebebe" fill-rule="evenodd" fill-opacity="1" /><path clip-path="url(#clip430)" d="M 0 0 M64.4296 940.503 Q60.3671 940.503 58.3098 944.514 Q56.2786 948.498 56.2786 956.519 Q56.2786 964.514 58.3098 968.524 Q60.3671 972.508 64.4296 972.508 Q68.5181 972.508 70.5493 968.524 Q72.6066 964.514 72.6066 956.519 Q72.6066 948.498 70.5493 944.514 Q68.5181 940.503 64.4296 940.503 M64.4296 936.337 Q70.966 936.337 74.4035 941.519 Q77.867 946.675 77.867 956.519 Q77.867 966.336 74.4035 971.519 Q70.966 976.675 64.4296 976.675 Q57.8931 976.675 54.4296 971.519 Q50.9921 966.336 50.9921 956.519 Q50.9921 946.675 54.4296 941.519 Q57.8931 936.337 64.4296 936.337 Z" fill="#bebebe" fill-rule="evenodd" fill-opacity="1" /><path clip-path="url(#clip430)" d="M 0 0 M83.5701 969.305 L89.0648 969.305 L89.0648 975.92 L83.5701 975.92 L83.5701 969.305 Z" fill="#bebebe" fill-rule="evenodd" fill-opacity="1" /><path clip-path="url(#clip430)" d="M 0 0 M109.221 941.623 L95.9398 962.378 L109.221 962.378 L109.221 941.623 M107.841 937.04 L114.455 937.04 L114.455 962.378 L120.002 962.378 L120.002 966.753 L114.455 966.753 L114.455 975.92 L109.221 975.92 L109.221 966.753 L91.669 966.753 L91.669 961.675 L107.841 937.04 Z" fill="#bebebe" fill-rule="evenodd" fill-opacity="1" /><path clip-path="url(#clip430)" d="M 0 0 M64.7941 675.713 Q60.7317 675.713 58.6744 679.723 Q56.6431 683.707 56.6431 691.728 Q56.6431 699.723 58.6744 703.733 Q60.7317 707.718 64.7941 707.718 Q68.8827 707.718 70.9139 703.733 Q72.9712 699.723 72.9712 691.728 Q72.9712 683.707 70.9139 679.723 Q68.8827 675.713 64.7941 675.713 M64.7941 671.546 Q71.3306 671.546 74.768 676.728 Q78.2316 681.885 78.2316 691.728 Q78.2316 701.546 74.768 706.728 Q71.3306 711.884 64.7941 711.884 Q58.2577 711.884 54.7942 706.728 Q51.3567 701.546 51.3567 691.728 Q51.3567 681.885 54.7942 676.728 Q58.2577 671.546 64.7941 671.546 Z" fill="#bebebe" fill-rule="evenodd" fill-opacity="1" /><path clip-path="url(#clip430)" d="M 0 0 M83.9347 704.515 L89.4294 704.515 L89.4294 711.129 L83.9347 711.129 L83.9347 704.515 Z" fill="#bebebe" fill-rule="evenodd" fill-opacity="1" /><path clip-path="url(#clip430)" d="M 0 0 M107.033 689.593 Q103.492 689.593 101.409 692.015 Q99.3512 694.437 99.3512 698.655 Q99.3512 702.848 101.409 705.296 Q103.492 707.718 107.033 707.718 Q110.575 707.718 112.632 705.296 Q114.716 702.848 114.716 698.655 Q114.716 694.437 112.632 692.015 Q110.575 689.593 107.033 689.593 M117.476 673.109 L117.476 677.9 Q115.497 676.963 113.466 676.468 Q111.461 675.973 109.481 675.973 Q104.273 675.973 101.513 679.489 Q98.7783 683.004 98.3877 690.114 Q99.9242 687.848 102.242 686.65 Q104.56 685.426 107.346 685.426 Q113.205 685.426 116.591 688.994 Q120.002 692.536 120.002 698.655 Q120.002 704.645 116.461 708.265 Q112.919 711.884 107.033 711.884 Q100.289 711.884 96.721 706.728 Q93.1534 701.546 93.1534 691.728 Q93.1534 682.51 97.5283 677.041 Q101.903 671.546 109.273 671.546 Q111.252 671.546 113.257 671.937 Q115.289 672.327 117.476 673.109 Z" fill="#bebebe" fill-rule="evenodd" fill-opacity="1" /><path clip-path="url(#clip430)" d="M 0 0 M65.0806 410.922 Q61.0181 410.922 58.9608 414.933 Q56.9296 418.917 56.9296 426.938 Q56.9296 434.932 58.9608 438.943 Q61.0181 442.927 65.0806 442.927 Q69.1691 442.927 71.2004 438.943 Q73.2576 434.932 73.2576 426.938 Q73.2576 418.917 71.2004 414.933 Q69.1691 410.922 65.0806 410.922 M65.0806 406.756 Q71.617 406.756 75.0545 411.938 Q78.518 417.094 78.518 426.938 Q78.518 436.755 75.0545 441.938 Q71.617 447.094 65.0806 447.094 Q58.5442 447.094 55.0806 441.938 Q51.6432 436.755 51.6432 426.938 Q51.6432 417.094 55.0806 411.938 Q58.5442 406.756 65.0806 406.756 Z" fill="#bebebe" fill-rule="evenodd" fill-opacity="1" /><path clip-path="url(#clip430)" d="M 0 0 M84.2211 439.724 L89.7159 439.724 L89.7159 446.339 L84.2211 446.339 L84.2211 439.724 Z" fill="#bebebe" fill-rule="evenodd" fill-opacity="1" /><path clip-path="url(#clip430)" d="M 0 0 M106.669 427.875 Q102.919 427.875 100.757 429.88 Q98.6221 431.886 98.6221 435.401 Q98.6221 438.917 100.757 440.922 Q102.919 442.927 106.669 442.927 Q110.419 442.927 112.58 440.922 Q114.742 438.891 114.742 435.401 Q114.742 431.886 112.58 429.88 Q110.445 427.875 106.669 427.875 M101.409 425.636 Q98.0231 424.802 96.1221 422.485 Q94.2471 420.167 94.2471 416.834 Q94.2471 412.172 97.5544 409.464 Q100.888 406.756 106.669 406.756 Q112.476 406.756 115.783 409.464 Q119.091 412.172 119.091 416.834 Q119.091 420.167 117.19 422.485 Q115.315 424.802 111.955 425.636 Q115.757 426.521 117.867 429.099 Q120.002 431.677 120.002 435.401 Q120.002 441.052 116.539 444.073 Q113.101 447.094 106.669 447.094 Q100.237 447.094 96.7731 444.073 Q93.3356 441.052 93.3356 435.401 Q93.3356 431.677 95.4711 429.099 Q97.6065 426.521 101.409 425.636 M99.4814 417.328 Q99.4814 420.349 101.356 422.042 Q103.257 423.735 106.669 423.735 Q110.054 423.735 111.955 422.042 Q113.882 420.349 113.882 417.328 Q113.882 414.308 111.955 412.615 Q110.054 410.922 106.669 410.922 Q103.257 410.922 101.356 412.615 Q99.4814 414.308 99.4814 417.328 Z" fill="#bebebe" fill-rule="evenodd" fill-opacity="1" /><path clip-path="url(#clip430)" d="M 0 0 M56.0181 177.121 L64.6118 177.121 L64.6118 147.46 L55.2629 149.335 L55.2629 144.543 L64.5598 142.668 L69.8202 142.668 L69.8202 177.121 L78.4139 177.121 L78.4139 181.548 L56.0181 181.548 L56.0181 177.121 Z" fill="#bebebe" fill-rule="evenodd" fill-opacity="1" /><path clip-path="url(#clip430)" d="M 0 0 M84.1169 174.934 L89.6117 174.934 L89.6117 181.548 L84.1169 181.548 L84.1169 174.934 Z" fill="#bebebe" fill-rule="evenodd" fill-opacity="1" /><path clip-path="url(#clip430)" d="M 0 0 M106.565 146.132 Q102.502 146.132 100.445 150.142 Q98.4137 154.126 98.4137 162.147 Q98.4137 170.142 100.445 174.152 Q102.502 178.137 106.565 178.137 Q110.653 178.137 112.685 174.152 Q114.742 170.142 114.742 162.147 Q114.742 154.126 112.685 150.142 Q110.653 146.132 106.565 146.132 M106.565 141.965 Q113.101 141.965 116.539 147.147 Q120.002 152.303 120.002 162.147 Q120.002 171.965 116.539 177.147 Q113.101 182.303 106.565 182.303 Q100.028 182.303 96.5648 177.147 Q93.1273 171.965 93.1273 162.147 Q93.1273 152.303 96.5648 147.147 Q100.028 141.965 106.565 141.965 Z" fill="#bebebe" fill-rule="evenodd" fill-opacity="1" /><path clip-path="url(#clip430)" d="M 0 0 M948.507 20.1156 L948.507 31.516 Q941.852 28.3332 935.949 26.7707 Q930.046 25.2082 924.549 25.2082 Q915 25.2082 909.792 28.9119 Q904.641 32.6156 904.641 39.4442 Q904.641 45.1734 908.056 48.1247 Q911.528 51.0182 921.134 52.8122 L928.194 54.259 Q941.273 56.7474 947.465 63.0552 Q953.715 69.3052 953.715 79.8375 Q953.715 92.3953 945.266 98.8768 Q936.875 105.358 920.613 105.358 Q914.479 105.358 907.535 103.969 Q900.648 102.58 893.241 99.8606 L893.241 87.8236 Q900.359 91.8166 907.188 93.8421 Q914.016 95.8675 920.613 95.8675 Q930.625 95.8675 936.065 91.9324 Q941.505 87.9972 941.505 80.7056 Q941.505 74.3399 937.569 70.7519 Q933.692 67.164 924.78 65.37 L917.662 63.9811 Q904.583 61.377 898.739 55.8215 Q892.894 50.2659 892.894 40.3702 Q892.894 28.9119 900.938 22.3147 Q909.039 15.7175 923.218 15.7175 Q929.294 15.7175 935.602 16.817 Q941.91 17.9166 948.507 20.1156 Z" fill="#bebebe" fill-rule="evenodd" fill-opacity="1" /><path clip-path="url(#clip430)" d="M 0 0 M1020.32 68.6107 L1020.32 73.819 L971.366 73.819 Q972.06 84.8144 977.963 90.6014 Q983.923 96.3305 994.514 96.3305 Q1000.65 96.3305 1006.38 94.8259 Q1012.16 93.3213 1017.84 90.312 L1017.84 100.381 Q1012.11 102.812 1006.09 104.085 Q1000.07 105.358 993.877 105.358 Q978.368 105.358 969.282 96.3305 Q960.254 87.3028 960.254 71.9093 Q960.254 55.9951 968.819 46.678 Q977.442 37.303 992.025 37.303 Q1005.1 37.303 1012.68 45.7521 Q1020.32 54.1432 1020.32 68.6107 M1009.68 65.4858 Q1009.56 56.7474 1004.76 51.5391 Q1000.01 46.3308 992.141 46.3308 Q983.229 46.3308 977.847 51.3655 Q972.523 56.4002 971.713 65.5436 L1009.68 65.4858 Z" fill="#bebebe" fill-rule="evenodd" fill-opacity="1" /><path clip-path="url(#clip430)" d="M 0 0 M1069.05 48.8192 Q1067.26 47.7775 1065.12 47.3146 Q1063.03 46.7937 1060.49 46.7937 Q1051.46 46.7937 1046.6 52.6965 Q1041.79 58.5414 1041.79 69.5367 L1041.79 103.68 L1031.09 103.68 L1031.09 38.8655 L1041.79 38.8655 L1041.79 48.9349 Q1045.15 43.0322 1050.53 40.1965 Q1055.91 37.303 1063.61 37.303 Q1064.71 37.303 1066.04 37.4767 Q1067.37 37.5924 1068.99 37.8817 L1069.05 48.8192 Z" fill="#bebebe" fill-rule="evenodd" fill-opacity="1" /><path clip-path="url(#clip430)" d="M 0 0 M1080.22 38.8655 L1090.87 38.8655 L1090.87 103.68 L1080.22 103.68 L1080.22 38.8655 M1080.22 13.6342 L1090.87 13.6342 L1090.87 27.1179 L1080.22 27.1179 L1080.22 13.6342 Z" fill="#bebebe" fill-rule="evenodd" fill-opacity="1" /><path clip-path="url(#clip430)" d="M 0 0 M1157.48 68.6107 L1157.48 73.819 L1108.52 73.819 Q1109.21 84.8144 1115.11 90.6014 Q1121.08 96.3305 1131.67 96.3305 Q1137.8 96.3305 1143.53 94.8259 Q1149.32 93.3213 1154.99 90.312 L1154.99 100.381 Q1149.26 102.812 1143.24 104.085 Q1137.22 105.358 1131.03 105.358 Q1115.52 105.358 1106.43 96.3305 Q1097.41 87.3028 1097.41 71.9093 Q1097.41 55.9951 1105.97 46.678 Q1114.59 37.303 1129.18 37.303 Q1142.26 37.303 1149.84 45.7521 Q1157.48 54.1432 1157.48 68.6107 M1146.83 65.4858 Q1146.71 56.7474 1141.91 51.5391 Q1137.16 46.3308 1129.29 46.3308 Q1120.38 46.3308 1115 51.3655 Q1109.67 56.4002 1108.86 65.5436 L1146.83 65.4858 Z" fill="#bebebe" fill-rule="evenodd" fill-opacity="1" /><path clip-path="url(#clip430)" d="M 0 0 M1216.39 17.28 L1216.39 49.3979 L1206.55 49.3979 L1206.55 17.28 L1216.39 17.28 Z" fill="#bebebe" fill-rule="evenodd" fill-opacity="1" /><path clip-path="url(#clip430)" d="M 0 0 M1268.88 40.7752 L1268.88 50.8446 Q1264.36 48.5298 1259.5 47.3724 Q1254.64 46.215 1249.43 46.215 Q1241.5 46.215 1237.51 48.6456 Q1233.57 51.0761 1233.57 55.9372 Q1233.57 59.6409 1236.41 61.7821 Q1239.25 63.8654 1247.81 65.7751 L1251.46 66.5853 Q1262.8 69.0158 1267.54 73.4718 Q1272.35 77.87 1272.35 85.7982 Q1272.35 94.8259 1265.17 100.092 Q1258.05 105.358 1245.55 105.358 Q1240.35 105.358 1234.67 104.317 Q1229.06 103.333 1222.81 101.307 L1222.81 90.312 Q1228.71 93.3791 1234.44 94.9416 Q1240.17 96.4462 1245.79 96.4462 Q1253.31 96.4462 1257.36 93.9 Q1261.41 91.2958 1261.41 86.6083 Q1261.41 82.2681 1258.46 79.9533 Q1255.57 77.6385 1245.67 75.4973 L1241.97 74.6292 Q1232.07 72.5459 1227.67 68.2635 Q1223.27 63.9233 1223.27 56.4002 Q1223.27 47.2567 1229.76 42.2799 Q1236.24 37.303 1248.16 37.303 Q1254.06 37.303 1259.27 38.1711 Q1264.48 39.0391 1268.88 40.7752 Z" fill="#bebebe" fill-rule="evenodd" fill-opacity="1" /><path clip-path="url(#clip430)" d="M 0 0 M1330.16 41.3539 L1330.16 51.3076 Q1325.65 48.8192 1321.07 47.6039 Q1316.56 46.3308 1311.93 46.3308 Q1301.57 46.3308 1295.84 52.928 Q1290.11 59.4673 1290.11 71.3306 Q1290.11 83.194 1295.84 89.7912 Q1301.57 96.3305 1311.93 96.3305 Q1316.56 96.3305 1321.07 95.1152 Q1325.65 93.8421 1330.16 91.3537 L1330.16 101.192 Q1325.7 103.275 1320.9 104.317 Q1316.16 105.358 1310.77 105.358 Q1296.13 105.358 1287.51 96.1569 Q1278.89 86.9556 1278.89 71.3306 Q1278.89 55.4742 1287.57 46.3886 Q1296.31 37.303 1311.47 37.303 Q1316.39 37.303 1321.07 38.3447 Q1325.76 39.3285 1330.16 41.3539 Z" fill="#bebebe" fill-rule="evenodd" fill-opacity="1" /><path clip-path="url(#clip430)" d="M 0 0 M1370.78 71.0992 Q1357.88 71.0992 1352.9 74.0505 Q1347.93 77.0019 1347.93 84.1199 Q1347.93 89.7912 1351.63 93.1476 Q1355.39 96.4462 1361.81 96.4462 Q1370.67 96.4462 1375.99 90.1963 Q1381.37 83.8884 1381.37 73.4718 L1381.37 71.0992 L1370.78 71.0992 M1392.02 66.701 L1392.02 103.68 L1381.37 103.68 L1381.37 93.8421 Q1377.73 99.7448 1372.29 102.58 Q1366.85 105.358 1358.98 105.358 Q1349.03 105.358 1343.12 99.8027 Q1337.28 94.1893 1337.28 84.8144 Q1337.28 73.8769 1344.57 68.3214 Q1351.92 62.7659 1366.44 62.7659 L1381.37 62.7659 L1381.37 61.7242 Q1381.37 54.3747 1376.51 50.3817 Q1371.71 46.3308 1362.97 46.3308 Q1357.42 46.3308 1352.15 47.6618 Q1346.88 48.9928 1342.02 51.6548 L1342.02 41.8169 Q1347.87 39.56 1353.37 38.4604 Q1358.86 37.303 1364.07 37.303 Q1378.13 37.303 1385.08 44.5947 Q1392.02 51.8863 1392.02 66.701 Z" fill="#bebebe" fill-rule="evenodd" fill-opacity="1" /><path clip-path="url(#clip430)" d="M 0 0 M1413.72 20.4629 L1413.72 38.8655 L1435.66 38.8655 L1435.66 47.141 L1413.72 47.141 L1413.72 82.3259 Q1413.72 90.2541 1415.87 92.5111 Q1418.06 94.768 1424.72 94.768 L1435.66 94.768 L1435.66 103.68 L1424.72 103.68 Q1412.39 103.68 1407.71 99.1083 Q1403.02 94.4787 1403.02 82.3259 L1403.02 47.141 L1395.21 47.141 L1395.21 38.8655 L1403.02 38.8655 L1403.02 20.4629 L1413.72 20.4629 Z" fill="#bebebe" fill-rule="evenodd" fill-opacity="1" /><path clip-path="url(#clip430)" d="M 0 0 M1457.36 20.4629 L1457.36 38.8655 L1479.29 38.8655 L1479.29 47.141 L1457.36 47.141 L1457.36 82.3259 Q1457.36 90.2541 1459.5 92.5111 Q1461.7 94.768 1468.35 94.768 L1479.29 94.768 L1479.29 103.68 L1468.35 103.68 Q1456.03 103.68 1451.34 99.1083 Q1446.65 94.4787 1446.65 82.3259 L1446.65 47.141 L1438.84 47.141 L1438.84 38.8655 L1446.65 38.8655 L1446.65 20.4629 L1457.36 20.4629 Z" fill="#bebebe" fill-rule="evenodd" fill-opacity="1" /><path clip-path="url(#clip430)" d="M 0 0 M1545.9 68.6107 L1545.9 73.819 L1496.94 73.819 Q1497.64 84.8144 1503.54 90.6014 Q1509.5 96.3305 1520.09 96.3305 Q1526.22 96.3305 1531.95 94.8259 Q1537.74 93.3213 1543.41 90.312 L1543.41 100.381 Q1537.68 102.812 1531.66 104.085 Q1525.64 105.358 1519.45 105.358 Q1503.94 105.358 1494.86 96.3305 Q1485.83 87.3028 1485.83 71.9093 Q1485.83 55.9951 1494.4 46.678 Q1503.02 37.303 1517.6 37.303 Q1530.68 37.303 1538.26 45.7521 Q1545.9 54.1432 1545.9 68.6107 M1535.25 65.4858 Q1535.14 56.7474 1530.33 51.5391 Q1525.59 46.3308 1517.72 46.3308 Q1508.8 46.3308 1503.42 51.3655 Q1498.1 56.4002 1497.29 65.5436 L1535.25 65.4858 Z" fill="#bebebe" fill-rule="evenodd" fill-opacity="1" /><path clip-path="url(#clip430)" d="M 0 0 M1594.63 48.8192 Q1592.83 47.7775 1590.69 47.3146 Q1588.61 46.7937 1586.06 46.7937 Q1577.03 46.7937 1572.17 52.6965 Q1567.37 58.5414 1567.37 69.5367 L1567.37 103.68 L1556.66 103.68 L1556.66 38.8655 L1567.37 38.8655 L1567.37 48.9349 Q1570.73 43.0322 1576.11 40.1965 Q1581.49 37.303 1589.19 37.303 Q1590.29 37.303 1591.62 37.4767 Q1592.95 37.5924 1594.57 37.8817 L1594.63 48.8192 Z" fill="#bebebe" fill-rule="evenodd" fill-opacity="1" /><path clip-path="url(#clip430)" d="M 0 0 M1615.86 17.28 L1615.86 49.3979 L1606.03 49.3979 L1606.03 17.28 L1615.86 17.28 Z" fill="#bebebe" fill-rule="evenodd" fill-opacity="1" /><path clip-path="url(#clip432)" d="M218.174 579.059 L215.354 587.171 L206.762 587.351 L213.614 592.547 L211.118 600.767 L218.174 595.859 L225.23 600.767 L222.734 592.547 L229.586 587.351 L220.994 587.171 L218.174 579.059 Z" fill="#ffa500" fill-rule="evenodd" fill-opacity="0.5" stroke="#ff0000" stroke-opacity="0.5" stroke-width="3.2"/>
<path clip-path="url(#clip432)" d="M327.249 1125.38 L324.429 1133.49 L315.837 1133.67 L322.689 1138.87 L320.193 1147.09 L327.249 1142.18 L334.305 1147.09 L331.809 1138.87 L338.661 1133.67 L330.069 1133.49 L327.249 1125.38 Z" fill="#ffa500" fill-rule="evenodd" fill-opacity="0.5" stroke="#ff0000" stroke-opacity="0.5" stroke-width="3.2"/>
<path clip-path="url(#clip432)" d="M436.323 175.111 L433.503 183.223 L424.911 183.403 L431.763 188.599 L429.267 196.819 L436.323 191.911 L443.379 196.819 L440.883 188.599 L447.735 183.403 L439.143 183.223 L436.323 175.111 Z" fill="#ffa500" fill-rule="evenodd" fill-opacity="0.5" stroke="#ff0000" stroke-opacity="0.5" stroke-width="3.2"/>
<path clip-path="url(#clip432)" d="M545.397 741.782 L542.577 749.894 L533.985 750.074 L540.837 755.27 L538.341 763.49 L545.397 758.582 L552.453 763.49 L549.957 755.27 L556.809 750.074 L548.217 749.894 L545.397 741.782 Z" fill="#ffa500" fill-rule="evenodd" fill-opacity="0.5" stroke="#ff0000" stroke-opacity="0.5" stroke-width="3.2"/>
<path clip-path="url(#clip432)" d="M654.471 440.887 L651.651 448.999 L643.059 449.179 L649.911 454.375 L647.415 462.595 L654.471 457.687 L661.527 462.595 L659.031 454.375 L665.883 449.179 L657.291 448.999 L654.471 440.887 Z" fill="#ffa500" fill-rule="evenodd" fill-opacity="0.5" stroke="#ff0000" stroke-opacity="0.5" stroke-width="3.2"/>
<path clip-path="url(#clip432)" d="M763.545 1282.05 L760.725 1290.17 L752.133 1290.35 L758.985 1295.54 L756.489 1303.76 L763.545 1298.85 L770.601 1303.76 L768.105 1295.54 L774.957 1290.35 L766.365 1290.17 L763.545 1282.05 Z" fill="#ffa500" fill-rule="evenodd" fill-opacity="0.5" stroke="#ff0000" stroke-opacity="0.5" stroke-width="3.2"/>
<path clip-path="url(#clip432)" d="M872.619 302.742 L869.799 310.854 L861.207 311.034 L868.059 316.23 L865.563 324.45 L872.619 319.542 L879.675 324.45 L877.179 316.23 L884.031 311.034 L875.439 310.854 L872.619 302.742 Z" fill="#ffa500" fill-rule="evenodd" fill-opacity="0.5" stroke="#ff0000" stroke-opacity="0.5" stroke-width="3.2"/>
<path clip-path="url(#clip432)" d="M981.694 1404.1 L978.874 1412.21 L970.282 1412.39 L977.134 1417.58 L974.638 1425.8 L981.694 1420.9 L988.75 1425.8 L986.254 1417.58 L993.106 1412.39 L984.514 1412.21 L981.694 1404.1 Z" fill="#ffa500" fill-rule="evenodd" fill-opacity="0.5" stroke="#ff0000" stroke-opacity="0.5" stroke-width="3.2"/>
<path clip-path="url(#clip432)" d="M1090.77 666.713 L1087.95 674.825 L1079.36 675.005 L1086.21 680.201 L1083.71 688.421 L1090.77 683.513 L1097.82 688.421 L1095.33 680.201 L1102.18 675.005 L1093.59 674.825 L1090.77 666.713 Z" fill="#ffa500" fill-rule="evenodd" fill-opacity="0.5" stroke="#ff0000" stroke-opacity="0.5" stroke-width="3.2"/>
<path clip-path="url(#clip432)" d="M1199.84 1305.83 L1197.02 1313.94 L1188.43 1314.12 L1195.28 1319.32 L1192.79 1327.54 L1199.84 1322.63 L1206.9 1327.54 L1204.4 1319.32 L1211.25 1314.12 L1202.66 1313.94 L1199.84 1305.83 Z" fill="#ffa500" fill-rule="evenodd" fill-opacity="0.5" stroke="#ff0000" stroke-opacity="0.5" stroke-width="3.2"/>
<path clip-path="url(#clip432)" d="M1308.92 1207.52 L1306.1 1215.63 L1297.5 1215.81 L1304.36 1221 L1301.86 1229.22 L1308.92 1224.32 L1315.97 1229.22 L1313.48 1221 L1320.33 1215.81 L1311.74 1215.63 L1308.92 1207.52 Z" fill="#ffa500" fill-rule="evenodd" fill-opacity="0.5" stroke="#ff0000" stroke-opacity="0.5" stroke-width="3.2"/>
<path clip-path="url(#clip432)" d="M1417.99 1235.78 L1415.17 1243.89 L1406.58 1244.07 L1413.43 1249.27 L1410.93 1257.49 L1417.99 1252.58 L1425.05 1257.49 L1422.55 1249.27 L1429.4 1244.07 L1420.81 1243.89 L1417.99 1235.78 Z" fill="#ffa500" fill-rule="evenodd" fill-opacity="0.5" stroke="#ff0000" stroke-opacity="0.5" stroke-width="3.2"/>
<path clip-path="url(#clip432)" d="M1527.06 382.998 L1524.24 391.11 L1515.65 391.29 L1522.5 396.486 L1520.01 404.706 L1527.06 399.798 L1534.12 404.706 L1531.62 396.486 L1538.48 391.29 L1529.88 391.11 L1527.06 382.998 Z" fill="#ffa500" fill-rule="evenodd" fill-opacity="0.5" stroke="#ff0000" stroke-opacity="0.5" stroke-width="3.2"/>
<path clip-path="url(#clip432)" d="M1636.14 564.215 L1633.32 572.327 L1624.73 572.507 L1631.58 577.703 L1629.08 585.923 L1636.14 581.015 L1643.19 585.923 L1640.7 577.703 L1647.55 572.507 L1638.96 572.327 L1636.14 564.215 Z" fill="#ffa500" fill-rule="evenodd" fill-opacity="0.5" stroke="#ff0000" stroke-opacity="0.5" stroke-width="3.2"/>
<path clip-path="url(#clip432)" d="M1745.21 552.884 L1742.39 560.996 L1733.8 561.176 L1740.65 566.372 L1738.16 574.592 L1745.21 569.684 L1752.27 574.592 L1749.77 566.372 L1756.62 561.176 L1748.03 560.996 L1745.21 552.884 Z" fill="#ffa500" fill-rule="evenodd" fill-opacity="0.5" stroke="#ff0000" stroke-opacity="0.5" stroke-width="3.2"/>
<path clip-path="url(#clip432)" d="M1854.29 1043.49 L1851.47 1051.6 L1842.87 1051.78 L1849.73 1056.98 L1847.23 1065.2 L1854.29 1060.29 L1861.34 1065.2 L1858.85 1056.98 L1865.7 1051.78 L1857.11 1051.6 L1854.29 1043.49 Z" fill="#ffa500" fill-rule="evenodd" fill-opacity="0.5" stroke="#ff0000" stroke-opacity="0.5" stroke-width="3.2"/>
<path clip-path="url(#clip432)" d="M1963.36 1298.66 L1960.54 1306.78 L1951.95 1306.96 L1958.8 1312.15 L1956.31 1320.37 L1963.36 1315.46 L1970.42 1320.37 L1967.92 1312.15 L1974.77 1306.96 L1966.18 1306.78 L1963.36 1298.66 Z" fill="#ffa500" fill-rule="evenodd" fill-opacity="0.5" stroke="#ff0000" stroke-opacity="0.5" stroke-width="3.2"/>
<path clip-path="url(#clip432)" d="M2072.44 522.701 L2069.62 530.813 L2061.02 530.993 L2067.88 536.189 L2065.38 544.409 L2072.44 539.501 L2079.49 544.409 L2077 536.189 L2083.85 530.993 L2075.26 530.813 L2072.44 522.701 Z" fill="#ffa500" fill-rule="evenodd" fill-opacity="0.5" stroke="#ff0000" stroke-opacity="0.5" stroke-width="3.2"/>
<path clip-path="url(#clip432)" d="M2181.51 946.694 L2178.69 954.806 L2170.1 954.986 L2176.95 960.182 L2174.45 968.402 L2181.51 963.494 L2188.57 968.402 L2186.07 960.182 L2192.92 954.986 L2184.33 954.806 L2181.51 946.694 Z" fill="#ffa500" fill-rule="evenodd" fill-opacity="0.5" stroke="#ff0000" stroke-opacity="0.5" stroke-width="3.2"/>
<path clip-path="url(#clip432)" d="M2290.58 834.97 L2287.76 843.082 L2279.17 843.262 L2286.02 848.458 L2283.53 856.678 L2290.58 851.77 L2297.64 856.678 L2295.14 848.458 L2302 843.262 L2293.4 843.082 L2290.58 834.97 Z" fill="#ffa500" fill-rule="evenodd" fill-opacity="0.5" stroke="#ff0000" stroke-opacity="0.5" stroke-width="3.2"/>
<path clip-path="url(#clip432)" d="M218.174 515.106 L190.174 543.106 L218.174 571.106 L246.174 543.106 L218.174 515.106 Z" fill="#008000" fill-rule="evenodd" fill-opacity="1" stroke="#ff0000" stroke-opacity="1" stroke-width="3.2"/>
<path clip-path="url(#clip432)" d="M327.249 452.782 L299.249 480.782 L327.249 508.782 L355.249 480.782 L327.249 452.782 Z" fill="#008000" fill-rule="evenodd" fill-opacity="1" stroke="#ff0000" stroke-opacity="1" stroke-width="3.2"/>
<path clip-path="url(#clip432)" d="M436.323 814.02 L408.323 842.02 L436.323 870.02 L464.323 842.02 L436.323 814.02 Z" fill="#008000" fill-rule="evenodd" fill-opacity="1" stroke="#ff0000" stroke-opacity="1" stroke-width="3.2"/>
<path clip-path="url(#clip432)" d="M545.397 405.872 L517.397 433.872 L545.397 461.872 L573.397 433.872 L545.397 405.872 Z" fill="#008000" fill-rule="evenodd" fill-opacity="1" stroke="#ff0000" stroke-opacity="1" stroke-width="3.2"/>
<path clip-path="url(#clip432)" d="M654.471 221.593 L626.471 249.593 L654.471 277.593 L682.471 249.593 L654.471 221.593 Z" fill="#008000" fill-rule="evenodd" fill-opacity="1" stroke="#ff0000" stroke-opacity="1" stroke-width="3.2"/>
<path clip-path="url(#clip432)" d="M763.545 1060.73 L735.545 1088.73 L763.545 1116.73 L791.545 1088.73 L763.545 1060.73 Z" fill="#008000" fill-rule="evenodd" fill-opacity="1" stroke="#ff0000" stroke-opacity="1" stroke-width="3.2"/>
<path clip-path="url(#clip432)" d="M872.619 1416.41 L844.619 1444.41 L872.619 1472.41 L900.619 1444.41 L872.619 1416.41 Z" fill="#008000" fill-rule="evenodd" fill-opacity="1" stroke="#ff0000" stroke-opacity="1" stroke-width="3.2"/>
<path clip-path="url(#clip432)" d="M981.694 744.508 L953.694 772.508 L981.694 800.508 L1009.69 772.508 L981.694 744.508 Z" fill="#008000" fill-rule="evenodd" fill-opacity="1" stroke="#ff0000" stroke-opacity="1" stroke-width="3.2"/>
<path clip-path="url(#clip432)" d="M1090.77 491.989 L1062.77 519.989 L1090.77 547.989 L1118.77 519.989 L1090.77 491.989 Z" fill="#008000" fill-rule="evenodd" fill-opacity="1" stroke="#ff0000" stroke-opacity="1" stroke-width="3.2"/>
<path clip-path="url(#clip432)" d="M1199.84 310.802 L1171.84 338.802 L1199.84 366.802 L1227.84 338.802 L1199.84 310.802 Z" fill="#008000" fill-rule="evenodd" fill-opacity="1" stroke="#ff0000" stroke-opacity="1" stroke-width="3.2"/>
<path clip-path="url(#clip432)" d="M1308.92 765.832 L1280.92 793.832 L1308.92 821.832 L1336.92 793.832 L1308.92 765.832 Z" fill="#008000" fill-rule="evenodd" fill-opacity="1" stroke="#ff0000" stroke-opacity="1" stroke-width="3.2"/>
<path clip-path="url(#clip432)" d="M1417.99 854.368 L1389.99 882.368 L1417.99 910.368 L1445.99 882.368 L1417.99 854.368 Z" fill="#008000" fill-rule="evenodd" fill-opacity="1" stroke="#ff0000" stroke-opacity="1" stroke-width="3.2"/>
<path clip-path="url(#clip432)" d="M1527.06 1074.55 L1499.06 1102.55 L1527.06 1130.55 L1555.06 1102.55 L1527.06 1074.55 Z" fill="#008000" fill-rule="evenodd" fill-opacity="1" stroke="#ff0000" stroke-opacity="1" stroke-width="3.2"/>
<path clip-path="url(#clip432)" d="M1636.14 566.088 L1608.14 594.088 L1636.14 622.088 L1664.14 594.088 L1636.14 566.088 Z" fill="#008000" fill-rule="evenodd" fill-opacity="1" stroke="#ff0000" stroke-opacity="1" stroke-width="3.2"/>
<path clip-path="url(#clip432)" d="M1745.21 364.724 L1717.21 392.724 L1745.21 420.724 L1773.21 392.724 L1745.21 364.724 Z" fill="#008000" fill-rule="evenodd" fill-opacity="1" stroke="#ff0000" stroke-opacity="1" stroke-width="3.2"/>
<path clip-path="url(#clip432)" d="M1854.29 204.131 L1826.29 232.131 L1854.29 260.131 L1882.29 232.131 L1854.29 204.131 Z" fill="#008000" fill-rule="evenodd" fill-opacity="1" stroke="#ff0000" stroke-opacity="1" stroke-width="3.2"/>
<path clip-path="url(#clip432)" d="M1963.36 1009.43 L1935.36 1037.43 L1963.36 1065.43 L1991.36 1037.43 L1963.36 1009.43 Z" fill="#008000" fill-rule="evenodd" fill-opacity="1" stroke="#ff0000" stroke-opacity="1" stroke-width="3.2"/>
<path clip-path="url(#clip432)" d="M2072.44 1231.33 L2044.44 1259.33 L2072.44 1287.33 L2100.44 1259.33 L2072.44 1231.33 Z" fill="#008000" fill-rule="evenodd" fill-opacity="1" stroke="#ff0000" stroke-opacity="1" stroke-width="3.2"/>
<path clip-path="url(#clip432)" d="M2181.51 391.014 L2153.51 419.014 L2181.51 447.014 L2209.51 419.014 L2181.51 391.014 Z" fill="#008000" fill-rule="evenodd" fill-opacity="1" stroke="#ff0000" stroke-opacity="1" stroke-width="3.2"/>
<path clip-path="url(#clip432)" d="M2290.58 601.363 L2262.58 629.363 L2290.58 657.363 L2318.58 629.363 L2290.58 601.363 Z" fill="#008000" fill-rule="evenodd" fill-opacity="1" stroke="#ff0000" stroke-opacity="1" stroke-width="3.2"/>
<path clip-path="url(#clip432)" d="M179.774 438.638 L237.374 472.238 L237.374 405.038 L179.774 438.638 Z" fill="#00008b" fill-rule="evenodd" fill-opacity="0.2" stroke="#ff0000" stroke-opacity="0.2" stroke-width="3.2"/>
<path clip-path="url(#clip432)" d="M288.849 1181.95 L346.449 1215.55 L346.449 1148.35 L288.849 1181.95 Z" fill="#00008b" fill-rule="evenodd" fill-opacity="0.2" stroke="#ff0000" stroke-opacity="0.2" stroke-width="3.2"/>
<path clip-path="url(#clip432)" d="M397.923 1394.55 L455.523 1428.15 L455.523 1360.95 L397.923 1394.55 Z" fill="#00008b" fill-rule="evenodd" fill-opacity="0.2" stroke="#ff0000" stroke-opacity="0.2" stroke-width="3.2"/>
<path clip-path="url(#clip432)" d="M506.997 1063.08 L564.597 1096.68 L564.597 1029.48 L506.997 1063.08 Z" fill="#00008b" fill-rule="evenodd" fill-opacity="0.2" stroke="#ff0000" stroke-opacity="0.2" stroke-width="3.2"/>
<path clip-path="url(#clip432)" d="M616.071 280.86 L673.671 314.46 L673.671 247.26 L616.071 280.86 Z" fill="#00008b" fill-rule="evenodd" fill-opacity="0.2" stroke="#ff0000" stroke-opacity="0.2" stroke-width="3.2"/>
<path clip-path="url(#clip432)" d="M725.145 818.751 L782.745 852.351 L782.745 785.151 L725.145 818.751 Z" fill="#00008b" fill-rule="evenodd" fill-opacity="0.2" stroke="#ff0000" stroke-opacity="0.2" stroke-width="3.2"/>
<path clip-path="url(#clip432)" d="M834.219 486.733 L891.819 520.333 L891.819 453.133 L834.219 486.733 Z" fill="#00008b" fill-rule="evenodd" fill-opacity="0.2" stroke="#ff0000" stroke-opacity="0.2" stroke-width="3.2"/>
<path clip-path="url(#clip432)" d="M943.294 1395.46 L1000.89 1429.06 L1000.89 1361.86 L943.294 1395.46 Z" fill="#00008b" fill-rule="evenodd" fill-opacity="0.2" stroke="#ff0000" stroke-opacity="0.2" stroke-width="3.2"/>
<path clip-path="url(#clip432)" d="M1052.37 657.103 L1109.97 690.703 L1109.97 623.503 L1052.37 657.103 Z" fill="#00008b" fill-rule="evenodd" fill-opacity="0.2" stroke="#ff0000" stroke-opacity="0.2" stroke-width="3.2"/>
<path clip-path="url(#clip432)" d="M1161.44 1158.4 L1219.04 1192 L1219.04 1124.8 L1161.44 1158.4 Z" fill="#00008b" fill-rule="evenodd" fill-opacity="0.2" stroke="#ff0000" stroke-opacity="0.2" stroke-width="3.2"/>
<path clip-path="url(#clip432)" d="M1270.52 1438.01 L1328.12 1471.61 L1328.12 1404.41 L1270.52 1438.01 Z" fill="#00008b" fill-rule="evenodd" fill-opacity="0.2" stroke="#ff0000" stroke-opacity="0.2" stroke-width="3.2"/>
<path clip-path="url(#clip432)" d="M1379.59 268.02 L1437.19 301.62 L1437.19 234.42 L1379.59 268.02 Z" fill="#00008b" fill-rule="evenodd" fill-opacity="0.2" stroke="#ff0000" stroke-opacity="0.2" stroke-width="3.2"/>
<path clip-path="url(#clip432)" d="M1488.66 984.72 L1546.26 1018.32 L1546.26 951.12 L1488.66 984.72 Z" fill="#00008b" fill-rule="evenodd" fill-opacity="0.2" stroke="#ff0000" stroke-opacity="0.2" stroke-width="3.2"/>
<path clip-path="url(#clip432)" d="M1597.74 462.067 L1655.34 495.667 L1655.34 428.467 L1597.74 462.067 Z" fill="#00008b" fill-rule="evenodd" fill-opacity="0.2" stroke="#ff0000" stroke-opacity="0.2" stroke-width="3.2"/>
<path clip-path="url(#clip432)" d="M1706.81 1438.89 L1764.41 1472.49 L1764.41 1405.29 L1706.81 1438.89 Z" fill="#00008b" fill-rule="evenodd" fill-opacity="0.2" stroke="#ff0000" stroke-opacity="0.2" stroke-width="3.2"/>
<path clip-path="url(#clip432)" d="M1815.89 1389.35 L1873.49 1422.95 L1873.49 1355.75 L1815.89 1389.35 Z" fill="#00008b" fill-rule="evenodd" fill-opacity="0.2" stroke="#ff0000" stroke-opacity="0.2" stroke-width="3.2"/>
<path clip-path="url(#clip432)" d="M1924.96 1120.11 L1982.56 1153.71 L1982.56 1086.51 L1924.96 1120.11 Z" fill="#00008b" fill-rule="evenodd" fill-opacity="0.2" stroke="#ff0000" stroke-opacity="0.2" stroke-width="3.2"/>
<path clip-path="url(#clip432)" d="M2034.04 467.52 L2091.64 501.12 L2091.64 433.92 L2034.04 467.52 Z" fill="#00008b" fill-rule="evenodd" fill-opacity="0.2" stroke="#ff0000" stroke-opacity="0.2" stroke-width="3.2"/>
<path clip-path="url(#clip432)" d="M2143.11 592.068 L2200.71 625.668 L2200.71 558.468 L2143.11 592.068 Z" fill="#00008b" fill-rule="evenodd" fill-opacity="0.2" stroke="#ff0000" stroke-opacity="0.2" stroke-width="3.2"/>
<path clip-path="url(#clip432)" d="M2252.18 198.366 L2309.78 231.966 L2309.78 164.766 L2252.18 198.366 Z" fill="#00008b" fill-rule="evenodd" fill-opacity="0.2" stroke="#ff0000" stroke-opacity="0.2" stroke-width="3.2"/>
<path clip-path="url(#clip430)" d="
M1983.85 435.737 L2279.53 435.737 L2279.53 193.817 L1983.85 193.817  Z
  " fill="#ffffff" fill-rule="evenodd" fill-opacity="1"/>
<polyline clip-path="url(#clip430)" style="stroke:#000000; stroke-width:4; stroke-opacity:1; fill:none" points="
  1983.85,435.737 2279.53,435.737 2279.53,193.817 1983.85,193.817 1983.85,435.737 
  "/>
<path clip-path="url(#clip430)" d="M2081.48 228.697 L2075.47 246.002 L2057.14 246.386 L2071.76 257.471 L2066.43 275.007 L2081.48 264.537 L2096.54 275.007 L2091.21 257.471 L2105.83 246.386 L2087.5 246.002 L2081.48 228.697 Z" fill="#ffa500" fill-rule="evenodd" fill-opacity="0.5" stroke="#ff0000" stroke-opacity="0.5" stroke-width="6.82667"/>
<path clip-path="url(#clip430)" d="M 0 0 M2192.96 273.984 Q2191.15 278.614 2189.44 280.026 Q2187.73 281.438 2184.86 281.438 L2181.46 281.438 L2181.46 277.873 L2183.96 277.873 Q2185.71 277.873 2186.69 277.04 Q2187.66 276.206 2188.84 273.104 L2189.6 271.16 L2179.12 245.651 L2183.63 245.651 L2191.73 265.929 L2199.83 245.651 L2204.35 245.651 L2192.96 273.984 Z" fill="#bebebe" fill-rule="evenodd" fill-opacity="1" /><path clip-path="url(#clip430)" d="M 0 0 M2210.23 267.641 L2217.87 267.641 L2217.87 241.276 L2209.56 242.943 L2209.56 238.683 L2217.82 237.017 L2222.5 237.017 L2222.5 267.641 L2230.14 267.641 L2230.14 271.577 L2210.23 271.577 L2210.23 267.641 Z" fill="#bebebe" fill-rule="evenodd" fill-opacity="1" /><path clip-path="url(#clip430)" d="M2081.48 289.177 L2055.88 314.777 L2081.48 340.377 L2107.08 314.777 L2081.48 289.177 Z" fill="#008000" fill-rule="evenodd" fill-opacity="1" stroke="#ff0000" stroke-opacity="1" stroke-width="2.92571"/>
<path clip-path="url(#clip430)" d="M 0 0 M2192.96 334.464 Q2191.15 339.094 2189.44 340.506 Q2187.73 341.918 2184.86 341.918 L2181.46 341.918 L2181.46 338.353 L2183.96 338.353 Q2185.71 338.353 2186.69 337.52 Q2187.66 336.686 2188.84 333.584 L2189.6 331.64 L2179.12 306.131 L2183.63 306.131 L2191.73 326.409 L2199.83 306.131 L2204.35 306.131 L2192.96 334.464 Z" fill="#bebebe" fill-rule="evenodd" fill-opacity="1" /><path clip-path="url(#clip430)" d="M 0 0 M2213.45 328.121 L2229.76 328.121 L2229.76 332.057 L2207.82 332.057 L2207.82 328.121 Q2210.48 325.367 2215.07 320.737 Q2219.67 316.085 2220.85 314.742 Q2223.1 312.219 2223.98 310.483 Q2224.88 308.723 2224.88 307.034 Q2224.88 304.279 2222.94 302.543 Q2221.02 300.807 2217.91 300.807 Q2215.71 300.807 2213.26 301.571 Q2210.83 302.335 2208.05 303.886 L2208.05 299.163 Q2210.88 298.029 2213.33 297.45 Q2215.78 296.872 2217.82 296.872 Q2223.19 296.872 2226.39 299.557 Q2229.58 302.242 2229.58 306.733 Q2229.58 308.862 2228.77 310.784 Q2227.98 312.682 2225.88 315.274 Q2225.3 315.946 2222.2 319.163 Q2219.09 322.358 2213.45 328.121 Z" fill="#bebebe" fill-rule="evenodd" fill-opacity="1" /><path clip-path="url(#clip430)" d="M2061 375.257 L2091.72 393.177 L2091.72 357.337 L2061 375.257 Z" fill="#00008b" fill-rule="evenodd" fill-opacity="0.2" stroke="#ff0000" stroke-opacity="0.2" stroke-width="1.70667"/>
<path clip-path="url(#clip430)" d="M 0 0 M2192.96 394.944 Q2191.15 399.574 2189.44 400.986 Q2187.73 402.398 2184.86 402.398 L2181.46 402.398 L2181.46 398.833 L2183.96 398.833 Q2185.71 398.833 2186.69 398 Q2187.66 397.166 2188.84 394.064 L2189.6 392.12 L2179.12 366.611 L2183.63 366.611 L2191.73 386.889 L2199.83 366.611 L2204.35 366.611 L2192.96 394.944 Z" fill="#bebebe" fill-rule="evenodd" fill-opacity="1" /><path clip-path="url(#clip430)" d="M 0 0 M2223.58 373.902 Q2226.94 374.62 2228.82 376.889 Q2230.71 379.157 2230.71 382.49 Q2230.71 387.606 2227.2 390.407 Q2223.68 393.208 2217.2 393.208 Q2215.02 393.208 2212.7 392.768 Q2210.41 392.351 2207.96 391.495 L2207.96 386.981 Q2209.9 388.115 2212.22 388.694 Q2214.53 389.273 2217.06 389.273 Q2221.45 389.273 2223.75 387.537 Q2226.06 385.801 2226.06 382.49 Q2226.06 379.435 2223.91 377.722 Q2221.78 375.986 2217.96 375.986 L2213.93 375.986 L2213.93 372.143 L2218.14 372.143 Q2221.59 372.143 2223.42 370.778 Q2225.25 369.389 2225.25 366.796 Q2225.25 364.134 2223.35 362.722 Q2221.48 361.287 2217.96 361.287 Q2216.04 361.287 2213.84 361.703 Q2211.64 362.12 2209 363 L2209 358.833 Q2211.66 358.092 2213.98 357.722 Q2216.32 357.352 2218.38 357.352 Q2223.7 357.352 2226.8 359.782 Q2229.9 362.19 2229.9 366.31 Q2229.9 369.18 2228.26 371.171 Q2226.62 373.139 2223.58 373.902 Z" fill="#bebebe" fill-rule="evenodd" fill-opacity="1" /></svg>
