<?xml version="1.0" encoding="utf-8"?>
<svg xmlns="http://www.w3.org/2000/svg" xmlns:xlink="http://www.w3.org/1999/xlink" width="600" height="400" viewBox="0 0 2400 1600">
<defs>
  <clipPath id="clip860">
    <rect x="0" y="0" width="2400" height="1600"/>
  </clipPath>
</defs>
<path clip-path="url(#clip860)" d="
M0 1600 L2400 1600 L2400 0 L0 0  Z
  " fill="#ffffff" fill-rule="evenodd" fill-opacity="1"/>
<defs>
  <clipPath id="clip861">
    <rect x="480" y="0" width="1681" height="1600"/>
  </clipPath>
</defs>
<path clip-path="url(#clip860)" d="
M185.846 1482.13 L2352.76 1482.13 L2352.76 149.392 L185.846 149.392  Z
  " fill="#ffffff" fill-rule="evenodd" fill-opacity="1"/>
<defs>
  <clipPath id="clip862">
    <rect x="185" y="149" width="2168" height="1334"/>
  </clipPath>
</defs>
<polyline clip-path="url(#clip862)" style="stroke:#000000; stroke-width:2; stroke-opacity:0.1; fill:none" points="
  677.543,1482.13 677.543,149.392 
  "/>
<polyline clip-path="url(#clip862)" style="stroke:#000000; stroke-width:2; stroke-opacity:0.1; fill:none" points="
  1215.5,1482.13 1215.5,149.392 
  "/>
<polyline clip-path="url(#clip862)" style="stroke:#000000; stroke-width:2; stroke-opacity:0.1; fill:none" points="
  1753.47,1482.13 1753.47,149.392 
  "/>
<polyline clip-path="url(#clip862)" style="stroke:#000000; stroke-width:2; stroke-opacity:0.1; fill:none" points="
  2291.43,1482.13 2291.43,149.392 
  "/>
<polyline clip-path="url(#clip860)" style="stroke:#000000; stroke-width:4; stroke-opacity:1; fill:none" points="
  185.846,1482.13 2352.76,1482.13 
  "/>
<polyline clip-path="url(#clip860)" style="stroke:#000000; stroke-width:4; stroke-opacity:1; fill:none" points="
  677.543,1482.13 677.543,1466.14 
  "/>
<polyline clip-path="url(#clip860)" style="stroke:#000000; stroke-width:4; stroke-opacity:1; fill:none" points="
  1215.5,1482.13 1215.5,1466.14 
  "/>
<polyline clip-path="url(#clip860)" style="stroke:#000000; stroke-width:4; stroke-opacity:1; fill:none" points="
  1753.47,1482.13 1753.47,1466.14 
  "/>
<polyline clip-path="url(#clip860)" style="stroke:#000000; stroke-width:4; stroke-opacity:1; fill:none" points="
  2291.43,1482.13 2291.43,1466.14 
  "/>
<path clip-path="url(#clip860)" d="M 0 0 M666.605 1509.1 L687.256 1509.1 L687.256 1513.53 L671.423 1513.53 L671.423 1523.06 Q672.569 1522.67 673.715 1522.49 Q674.861 1522.28 676.006 1522.28 Q682.517 1522.28 686.319 1525.85 Q690.121 1529.42 690.121 1535.51 Q690.121 1541.79 686.215 1545.28 Q682.308 1548.74 675.199 1548.74 Q672.751 1548.74 670.199 1548.32 Q667.673 1547.91 664.965 1547.07 L664.965 1541.79 Q667.309 1543.06 669.809 1543.69 Q672.309 1544.31 675.095 1544.31 Q679.6 1544.31 682.23 1541.94 Q684.861 1539.57 684.861 1535.51 Q684.861 1531.45 682.23 1529.08 Q679.6 1526.71 675.095 1526.71 Q672.986 1526.71 670.876 1527.18 Q668.793 1527.65 666.605 1528.64 L666.605 1509.1 Z" fill="#bebebe" fill-rule="evenodd" fill-opacity="1" /><path clip-path="url(#clip860)" d="M 0 0 M1189.49 1543.56 L1198.08 1543.56 L1198.08 1513.9 L1188.73 1515.77 L1188.73 1510.98 L1198.03 1509.1 L1203.29 1509.1 L1203.29 1543.56 L1211.88 1543.56 L1211.88 1547.98 L1189.49 1547.98 L1189.49 1543.56 Z" fill="#bebebe" fill-rule="evenodd" fill-opacity="1" /><path clip-path="url(#clip860)" d="M 0 0 M1228.84 1512.57 Q1224.78 1512.57 1222.72 1516.58 Q1220.69 1520.56 1220.69 1528.58 Q1220.69 1536.58 1222.72 1540.59 Q1224.78 1544.57 1228.84 1544.57 Q1232.93 1544.57 1234.96 1540.59 Q1237.01 1536.58 1237.01 1528.58 Q1237.01 1520.56 1234.96 1516.58 Q1232.93 1512.57 1228.84 1512.57 M1228.84 1508.4 Q1235.37 1508.4 1238.81 1513.58 Q1242.28 1518.74 1242.28 1528.58 Q1242.28 1538.4 1238.81 1543.58 Q1235.37 1548.74 1228.84 1548.74 Q1222.3 1548.74 1218.84 1543.58 Q1215.4 1538.4 1215.4 1528.58 Q1215.4 1518.74 1218.84 1513.58 Q1222.3 1508.4 1228.84 1508.4 Z" fill="#bebebe" fill-rule="evenodd" fill-opacity="1" /><path clip-path="url(#clip860)" d="M 0 0 M1728.01 1543.56 L1736.6 1543.56 L1736.6 1513.9 L1727.26 1515.77 L1727.26 1510.98 L1736.55 1509.1 L1741.81 1509.1 L1741.81 1543.56 L1750.41 1543.56 L1750.41 1547.98 L1728.01 1547.98 L1728.01 1543.56 Z" fill="#bebebe" fill-rule="evenodd" fill-opacity="1" /><path clip-path="url(#clip860)" d="M 0 0 M1756.16 1509.1 L1776.81 1509.1 L1776.81 1513.53 L1760.98 1513.53 L1760.98 1523.06 Q1762.13 1522.67 1763.27 1522.49 Q1764.42 1522.28 1765.56 1522.28 Q1772.07 1522.28 1775.88 1525.85 Q1779.68 1529.42 1779.68 1535.51 Q1779.68 1541.79 1775.77 1545.28 Q1771.86 1548.74 1764.76 1548.74 Q1762.31 1548.74 1759.76 1548.32 Q1757.23 1547.91 1754.52 1547.07 L1754.52 1541.79 Q1756.86 1543.06 1759.36 1543.69 Q1761.86 1544.31 1764.65 1544.31 Q1769.16 1544.31 1771.79 1541.94 Q1774.42 1539.57 1774.42 1535.51 Q1774.42 1531.45 1771.79 1529.08 Q1769.16 1526.71 1764.65 1526.71 Q1762.54 1526.71 1760.43 1527.18 Q1758.35 1527.65 1756.16 1528.64 L1756.16 1509.1 Z" fill="#bebebe" fill-rule="evenodd" fill-opacity="1" /><path clip-path="url(#clip860)" d="M 0 0 M2270.22 1543.56 L2288.58 1543.56 L2288.58 1547.98 L2263.89 1547.98 L2263.89 1543.56 Q2266.88 1540.46 2272.04 1535.25 Q2277.22 1530.02 2278.55 1528.5 Q2281.08 1525.67 2282.07 1523.71 Q2283.08 1521.73 2283.08 1519.83 Q2283.08 1516.73 2280.89 1514.78 Q2278.73 1512.83 2275.24 1512.83 Q2272.77 1512.83 2270.01 1513.69 Q2267.27 1514.55 2264.15 1516.29 L2264.15 1510.98 Q2267.33 1509.7 2270.09 1509.05 Q2272.85 1508.4 2275.14 1508.4 Q2281.18 1508.4 2284.77 1511.42 Q2288.37 1514.44 2288.37 1519.49 Q2288.37 1521.89 2287.46 1524.05 Q2286.57 1526.19 2284.2 1529.1 Q2283.55 1529.86 2280.06 1533.48 Q2276.57 1537.07 2270.22 1543.56 Z" fill="#bebebe" fill-rule="evenodd" fill-opacity="1" /><path clip-path="url(#clip860)" d="M 0 0 M2305.53 1512.57 Q2301.47 1512.57 2299.41 1516.58 Q2297.38 1520.56 2297.38 1528.58 Q2297.38 1536.58 2299.41 1540.59 Q2301.47 1544.57 2305.53 1544.57 Q2309.62 1544.57 2311.65 1540.59 Q2313.71 1536.58 2313.71 1528.58 Q2313.71 1520.56 2311.65 1516.58 Q2309.62 1512.57 2305.53 1512.57 M2305.53 1508.4 Q2312.07 1508.4 2315.5 1513.58 Q2318.97 1518.74 2318.97 1528.58 Q2318.97 1538.4 2315.5 1543.58 Q2312.07 1548.74 2305.53 1548.74 Q2298.99 1548.74 2295.53 1543.58 Q2292.09 1538.4 2292.09 1528.58 Q2292.09 1518.74 2295.53 1513.58 Q2298.99 1508.4 2305.53 1508.4 Z" fill="#bebebe" fill-rule="evenodd" fill-opacity="1" /><polyline clip-path="url(#clip862)" style="stroke:#000000; stroke-width:2; stroke-opacity:0.1; fill:none" points="
  185.846,1468.58 2352.76,1468.58 
  "/>
<polyline clip-path="url(#clip862)" style="stroke:#000000; stroke-width:2; stroke-opacity:0.1; fill:none" points="
  185.846,1147.32 2352.76,1147.32 
  "/>
<polyline clip-path="url(#clip862)" style="stroke:#000000; stroke-width:2; stroke-opacity:0.1; fill:none" points="
  185.846,826.064 2352.76,826.064 
  "/>
<polyline clip-path="url(#clip862)" style="stroke:#000000; stroke-width:2; stroke-opacity:0.1; fill:none" points="
  185.846,504.807 2352.76,504.807 
  "/>
<polyline clip-path="url(#clip862)" style="stroke:#000000; stroke-width:2; stroke-opacity:0.1; fill:none" points="
  185.846,183.55 2352.76,183.55 
  "/>
<polyline clip-path="url(#clip860)" style="stroke:#000000; stroke-width:4; stroke-opacity:1; fill:none" points="
  185.846,1482.13 185.846,149.392 
  "/>
<polyline clip-path="url(#clip860)" style="stroke:#000000; stroke-width:4; stroke-opacity:1; fill:none" points="
  185.846,1468.58 211.849,1468.58 
  "/>
<polyline clip-path="url(#clip860)" style="stroke:#000000; stroke-width:4; stroke-opacity:1; fill:none" points="
  185.846,1147.32 211.849,1147.32 
  "/>
<polyline clip-path="url(#clip860)" style="stroke:#000000; stroke-width:4; stroke-opacity:1; fill:none" points="
  185.846,826.064 211.849,826.064 
  "/>
<polyline clip-path="url(#clip860)" style="stroke:#000000; stroke-width:4; stroke-opacity:1; fill:none" points="
  185.846,504.807 211.849,504.807 
  "/>
<polyline clip-path="url(#clip860)" style="stroke:#000000; stroke-width:4; stroke-opacity:1; fill:none" points="
  185.846,183.55 211.849,183.55 
  "/>
<path clip-path="url(#clip860)" d="M 0 0 M64.4296 1452.6 Q60.3671 1452.6 58.3098 1456.61 Q56.2786 1460.6 56.2786 1468.62 Q56.2786 1476.61 58.3098 1480.62 Q60.3671 1484.61 64.4296 1484.61 Q68.5181 1484.61 70.5493 1480.62 Q72.6066 1476.61 72.6066 1468.62 Q72.6066 1460.6 70.5493 1456.61 Q68.5181 1452.6 64.4296 1452.6 M64.4296 1448.44 Q70.966 1448.44 74.4035 1453.62 Q77.867 1458.77 77.867 1468.62 Q77.867 1478.44 74.4035 1483.62 Q70.966 1488.77 64.4296 1488.77 Q57.8931 1488.77 54.4296 1483.62 Q50.9921 1478.44 50.9921 1468.62 Q50.9921 1458.77 54.4296 1453.62 Q57.8931 1448.44 64.4296 1448.44 Z" fill="#bebebe" fill-rule="evenodd" fill-opacity="1" /><path clip-path="url(#clip860)" d="M 0 0 M83.5701 1481.4 L89.0648 1481.4 L89.0648 1488.02 L83.5701 1488.02 L83.5701 1481.4 Z" fill="#bebebe" fill-rule="evenodd" fill-opacity="1" /><path clip-path="url(#clip860)" d="M 0 0 M106.018 1452.6 Q101.955 1452.6 99.8981 1456.61 Q97.8669 1460.6 97.8669 1468.62 Q97.8669 1476.61 99.8981 1480.62 Q101.955 1484.61 106.018 1484.61 Q110.106 1484.61 112.138 1480.62 Q114.195 1476.61 114.195 1468.62 Q114.195 1460.6 112.138 1456.61 Q110.106 1452.6 106.018 1452.6 M106.018 1448.44 Q112.554 1448.44 115.992 1453.62 Q119.455 1458.77 119.455 1468.62 Q119.455 1478.44 115.992 1483.62 Q112.554 1488.77 106.018 1488.77 Q99.4814 1488.77 96.0179 1483.62 Q92.5804 1478.44 92.5804 1468.62 Q92.5804 1458.77 96.0179 1453.62 Q99.4814 1448.44 106.018 1448.44 Z" fill="#bebebe" fill-rule="evenodd" fill-opacity="1" /><path clip-path="url(#clip860)" d="M 0 0 M136.408 1452.6 Q132.346 1452.6 130.289 1456.61 Q128.257 1460.6 128.257 1468.62 Q128.257 1476.61 130.289 1480.62 Q132.346 1484.61 136.408 1484.61 Q140.497 1484.61 142.528 1480.62 Q144.585 1476.61 144.585 1468.62 Q144.585 1460.6 142.528 1456.61 Q140.497 1452.6 136.408 1452.6 M136.408 1448.44 Q142.945 1448.44 146.382 1453.62 Q149.846 1458.77 149.846 1468.62 Q149.846 1478.44 146.382 1483.62 Q142.945 1488.77 136.408 1488.77 Q129.872 1488.77 126.408 1483.62 Q122.971 1478.44 122.971 1468.62 Q122.971 1458.77 126.408 1453.62 Q129.872 1448.44 136.408 1448.44 Z" fill="#bebebe" fill-rule="evenodd" fill-opacity="1" /><path clip-path="url(#clip860)" d="M 0 0 M67.3462 1131.35 Q63.2837 1131.35 61.2264 1135.36 Q59.1952 1139.34 59.1952 1147.36 Q59.1952 1155.36 61.2264 1159.37 Q63.2837 1163.35 67.3462 1163.35 Q71.4347 1163.35 73.466 1159.37 Q75.5232 1155.36 75.5232 1147.36 Q75.5232 1139.34 73.466 1135.36 Q71.4347 1131.35 67.3462 1131.35 M67.3462 1127.18 Q73.8826 1127.18 77.3201 1132.36 Q80.7836 1137.52 80.7836 1147.36 Q80.7836 1157.18 77.3201 1162.36 Q73.8826 1167.52 67.3462 1167.52 Q60.8098 1167.52 57.3463 1162.36 Q53.9088 1157.18 53.9088 1147.36 Q53.9088 1137.52 57.3463 1132.36 Q60.8098 1127.18 67.3462 1127.18 Z" fill="#bebebe" fill-rule="evenodd" fill-opacity="1" /><path clip-path="url(#clip860)" d="M 0 0 M86.4867 1160.15 L91.9815 1160.15 L91.9815 1166.76 L86.4867 1166.76 L86.4867 1160.15 Z" fill="#bebebe" fill-rule="evenodd" fill-opacity="1" /><path clip-path="url(#clip860)" d="M 0 0 M102.216 1162.33 L120.575 1162.33 L120.575 1166.76 L95.8877 1166.76 L95.8877 1162.33 Q98.8825 1159.24 104.039 1154.03 Q109.221 1148.79 110.549 1147.28 Q113.075 1144.44 114.065 1142.49 Q115.08 1140.51 115.08 1138.61 Q115.08 1135.51 112.893 1133.56 Q110.731 1131.61 107.242 1131.61 Q104.768 1131.61 102.007 1132.46 Q99.2731 1133.32 96.1481 1135.07 L96.1481 1129.76 Q99.3252 1128.48 102.086 1127.83 Q104.846 1127.18 107.138 1127.18 Q113.179 1127.18 116.773 1130.2 Q120.367 1133.22 120.367 1138.27 Q120.367 1140.67 119.455 1142.83 Q118.57 1144.96 116.2 1147.88 Q115.549 1148.64 112.06 1152.26 Q108.57 1155.85 102.216 1162.33 Z" fill="#bebebe" fill-rule="evenodd" fill-opacity="1" /><path clip-path="url(#clip860)" d="M 0 0 M126.33 1127.88 L146.981 1127.88 L146.981 1132.31 L131.148 1132.31 L131.148 1141.84 Q132.294 1141.45 133.44 1141.27 Q134.585 1141.06 135.731 1141.06 Q142.242 1141.06 146.044 1144.63 Q149.846 1148.19 149.846 1154.29 Q149.846 1160.56 145.94 1164.05 Q142.033 1167.52 134.924 1167.52 Q132.476 1167.52 129.924 1167.1 Q127.398 1166.68 124.69 1165.85 L124.69 1160.56 Q127.033 1161.84 129.533 1162.46 Q132.033 1163.09 134.82 1163.09 Q139.325 1163.09 141.955 1160.72 Q144.585 1158.35 144.585 1154.29 Q144.585 1150.23 141.955 1147.86 Q139.325 1145.49 134.82 1145.49 Q132.71 1145.49 130.601 1145.95 Q128.518 1146.42 126.33 1147.41 L126.33 1127.88 Z" fill="#bebebe" fill-rule="evenodd" fill-opacity="1" /><path clip-path="url(#clip860)" d="M 0 0 M65.5493 810.088 Q61.4869 810.088 59.4296 814.098 Q57.3983 818.083 57.3983 826.103 Q57.3983 834.098 59.4296 838.109 Q61.4869 842.093 65.5493 842.093 Q69.6379 842.093 71.6691 838.109 Q73.7264 834.098 73.7264 826.103 Q73.7264 818.083 71.6691 814.098 Q69.6379 810.088 65.5493 810.088 M65.5493 805.921 Q72.0858 805.921 75.5232 811.103 Q78.9868 816.26 78.9868 826.103 Q78.9868 835.921 75.5232 841.103 Q72.0858 846.26 65.5493 846.26 Q59.0129 846.26 55.5494 841.103 Q52.1119 835.921 52.1119 826.103 Q52.1119 816.26 55.5494 811.103 Q59.0129 805.921 65.5493 805.921 Z" fill="#bebebe" fill-rule="evenodd" fill-opacity="1" /><path clip-path="url(#clip860)" d="M 0 0 M84.6899 838.89 L90.1846 838.89 L90.1846 845.504 L84.6899 845.504 L84.6899 838.89 Z" fill="#bebebe" fill-rule="evenodd" fill-opacity="1" /><path clip-path="url(#clip860)" d="M 0 0 M95.9398 806.624 L116.591 806.624 L116.591 811.051 L100.757 811.051 L100.757 820.583 Q101.903 820.192 103.049 820.01 Q104.195 819.801 105.341 819.801 Q111.851 819.801 115.653 823.369 Q119.455 826.937 119.455 833.03 Q119.455 839.306 115.549 842.796 Q111.643 846.26 104.534 846.26 Q102.086 846.26 99.5335 845.843 Q97.0075 845.426 94.2992 844.593 L94.2992 839.306 Q96.6429 840.582 99.1429 841.207 Q101.643 841.832 104.429 841.832 Q108.935 841.832 111.565 839.463 Q114.195 837.093 114.195 833.03 Q114.195 828.968 111.565 826.598 Q108.935 824.228 104.429 824.228 Q102.32 824.228 100.211 824.697 Q98.1273 825.166 95.9398 826.155 L95.9398 806.624 Z" fill="#bebebe" fill-rule="evenodd" fill-opacity="1" /><path clip-path="url(#clip860)" d="M 0 0 M136.408 810.088 Q132.346 810.088 130.289 814.098 Q128.257 818.083 128.257 826.103 Q128.257 834.098 130.289 838.109 Q132.346 842.093 136.408 842.093 Q140.497 842.093 142.528 838.109 Q144.585 834.098 144.585 826.103 Q144.585 818.083 142.528 814.098 Q140.497 810.088 136.408 810.088 M136.408 805.921 Q142.945 805.921 146.382 811.103 Q149.846 816.26 149.846 826.103 Q149.846 835.921 146.382 841.103 Q142.945 846.26 136.408 846.26 Q129.872 846.26 126.408 841.103 Q122.971 835.921 122.971 826.103 Q122.971 816.26 126.408 811.103 Q129.872 805.921 136.408 805.921 Z" fill="#bebebe" fill-rule="evenodd" fill-opacity="1" /><path clip-path="url(#clip860)" d="M 0 0 M66.565 488.83 Q62.5025 488.83 60.4452 492.841 Q58.414 496.825 58.414 504.846 Q58.414 512.841 60.4452 516.851 Q62.5025 520.836 66.565 520.836 Q70.6535 520.836 72.6847 516.851 Q74.742 512.841 74.742 504.846 Q74.742 496.825 72.6847 492.841 Q70.6535 488.83 66.565 488.83 M66.565 484.664 Q73.1014 484.664 76.5389 489.846 Q80.0024 495.002 80.0024 504.846 Q80.0024 514.664 76.5389 519.846 Q73.1014 525.002 66.565 525.002 Q60.0285 525.002 56.565 519.846 Q53.1275 514.664 53.1275 504.846 Q53.1275 495.002 56.565 489.846 Q60.0285 484.664 66.565 484.664 Z" fill="#bebebe" fill-rule="evenodd" fill-opacity="1" /><path clip-path="url(#clip860)" d="M 0 0 M85.7055 517.632 L91.2002 517.632 L91.2002 524.247 L85.7055 524.247 L85.7055 517.632 Z" fill="#bebebe" fill-rule="evenodd" fill-opacity="1" /><path clip-path="url(#clip860)" d="M 0 0 M95.5752 485.367 L120.575 485.367 L120.575 487.607 L106.461 524.247 L100.966 524.247 L114.247 489.794 L95.5752 489.794 L95.5752 485.367 Z" fill="#bebebe" fill-rule="evenodd" fill-opacity="1" /><path clip-path="url(#clip860)" d="M 0 0 M126.33 485.367 L146.981 485.367 L146.981 489.794 L131.148 489.794 L131.148 499.325 Q132.294 498.935 133.44 498.752 Q134.585 498.544 135.731 498.544 Q142.242 498.544 146.044 502.112 Q149.846 505.679 149.846 511.773 Q149.846 518.049 145.94 521.539 Q142.033 525.002 134.924 525.002 Q132.476 525.002 129.924 524.586 Q127.398 524.169 124.69 523.336 L124.69 518.049 Q127.033 519.325 129.533 519.95 Q132.033 520.575 134.82 520.575 Q139.325 520.575 141.955 518.205 Q144.585 515.836 144.585 511.773 Q144.585 507.711 141.955 505.341 Q139.325 502.971 134.82 502.971 Q132.71 502.971 130.601 503.44 Q128.518 503.909 126.33 504.898 L126.33 485.367 Z" fill="#bebebe" fill-rule="evenodd" fill-opacity="1" /><path clip-path="url(#clip860)" d="M 0 0 M55.4713 198.563 L64.065 198.563 L64.065 168.901 L54.7161 170.776 L54.7161 165.985 L64.0129 164.11 L69.2733 164.11 L69.2733 198.563 L77.867 198.563 L77.867 202.99 L55.4713 202.99 L55.4713 198.563 Z" fill="#bebebe" fill-rule="evenodd" fill-opacity="1" /><path clip-path="url(#clip860)" d="M 0 0 M83.5701 196.375 L89.0648 196.375 L89.0648 202.99 L83.5701 202.99 L83.5701 196.375 Z" fill="#bebebe" fill-rule="evenodd" fill-opacity="1" /><path clip-path="url(#clip860)" d="M 0 0 M106.018 167.573 Q101.955 167.573 99.8981 171.584 Q97.8669 175.568 97.8669 183.589 Q97.8669 191.583 99.8981 195.594 Q101.955 199.578 106.018 199.578 Q110.106 199.578 112.138 195.594 Q114.195 191.583 114.195 183.589 Q114.195 175.568 112.138 171.584 Q110.106 167.573 106.018 167.573 M106.018 163.407 Q112.554 163.407 115.992 168.589 Q119.455 173.745 119.455 183.589 Q119.455 193.406 115.992 198.589 Q112.554 203.745 106.018 203.745 Q99.4814 203.745 96.0179 198.589 Q92.5804 193.406 92.5804 183.589 Q92.5804 173.745 96.0179 168.589 Q99.4814 163.407 106.018 163.407 Z" fill="#bebebe" fill-rule="evenodd" fill-opacity="1" /><path clip-path="url(#clip860)" d="M 0 0 M136.408 167.573 Q132.346 167.573 130.289 171.584 Q128.257 175.568 128.257 183.589 Q128.257 191.583 130.289 195.594 Q132.346 199.578 136.408 199.578 Q140.497 199.578 142.528 195.594 Q144.585 191.583 144.585 183.589 Q144.585 175.568 142.528 171.584 Q140.497 167.573 136.408 167.573 M136.408 163.407 Q142.945 163.407 146.382 168.589 Q149.846 173.745 149.846 183.589 Q149.846 193.406 146.382 198.589 Q142.945 203.745 136.408 203.745 Q129.872 203.745 126.408 198.589 Q122.971 193.406 122.971 183.589 Q122.971 173.745 126.408 168.589 Q129.872 163.407 136.408 163.407 Z" fill="#bebebe" fill-rule="evenodd" fill-opacity="1" /><path clip-path="url(#clip860)" d="M 0 0 M963.429 20.1156 L963.429 31.516 Q956.774 28.3332 950.871 26.7707 Q944.968 25.2082 939.47 25.2082 Q929.922 25.2082 924.714 28.9119 Q919.563 32.6156 919.563 39.4442 Q919.563 45.1734 922.977 48.1247 Q926.45 51.0182 936.056 52.8122 L943.116 54.259 Q956.195 56.7474 962.387 63.0552 Q968.637 69.3052 968.637 79.8375 Q968.637 92.3953 960.188 98.8768 Q951.797 105.358 935.535 105.358 Q929.401 105.358 922.457 103.969 Q915.57 102.58 908.163 99.8606 L908.163 87.8236 Q915.281 91.8166 922.109 93.8421 Q928.938 95.8675 935.535 95.8675 Q945.547 95.8675 950.987 91.9324 Q956.426 87.9972 956.426 80.7056 Q956.426 74.3399 952.491 70.7519 Q948.614 67.164 939.702 65.37 L932.584 63.9811 Q919.505 61.377 913.66 55.8215 Q907.816 50.2659 907.816 40.3702 Q907.816 28.9119 915.859 22.3147 Q923.961 15.7175 938.139 15.7175 Q944.216 15.7175 950.524 16.817 Q956.831 17.9166 963.429 20.1156 Z" fill="#bebebe" fill-rule="evenodd" fill-opacity="1" /><path clip-path="url(#clip860)" d="M 0 0 M1035.25 68.6107 L1035.25 73.819 L986.287 73.819 Q986.982 84.8144 992.884 90.6014 Q998.845 96.3305 1009.44 96.3305 Q1015.57 96.3305 1021.3 94.8259 Q1027.09 93.3213 1032.76 90.312 L1032.76 100.381 Q1027.03 102.812 1021.01 104.085 Q1014.99 105.358 1008.8 105.358 Q993.29 105.358 984.204 96.3305 Q975.176 87.3028 975.176 71.9093 Q975.176 55.9951 983.741 46.678 Q992.364 37.303 1006.95 37.303 Q1020.03 37.303 1027.61 45.7521 Q1035.25 54.1432 1035.25 68.6107 M1024.6 65.4858 Q1024.48 56.7474 1019.68 51.5391 Q1014.93 46.3308 1007.06 46.3308 Q998.151 46.3308 992.769 51.3655 Q987.445 56.4002 986.635 65.5436 L1024.6 65.4858 Z" fill="#bebebe" fill-rule="evenodd" fill-opacity="1" /><path clip-path="url(#clip860)" d="M 0 0 M1083.97 48.8192 Q1082.18 47.7775 1080.04 47.3146 Q1077.95 46.7937 1075.41 46.7937 Q1066.38 46.7937 1061.52 52.6965 Q1056.72 58.5414 1056.72 69.5367 L1056.72 103.68 L1046.01 103.68 L1046.01 38.8655 L1056.72 38.8655 L1056.72 48.9349 Q1060.07 43.0322 1065.45 40.1965 Q1070.84 37.303 1078.53 37.303 Q1079.63 37.303 1080.96 37.4767 Q1082.29 37.5924 1083.91 37.8817 L1083.97 48.8192 Z" fill="#bebebe" fill-rule="evenodd" fill-opacity="1" /><path clip-path="url(#clip860)" d="M 0 0 M1095.14 38.8655 L1105.79 38.8655 L1105.79 103.68 L1095.14 103.68 L1095.14 38.8655 M1095.14 13.6342 L1105.79 13.6342 L1105.79 27.1179 L1095.14 27.1179 L1095.14 13.6342 Z" fill="#bebebe" fill-rule="evenodd" fill-opacity="1" /><path clip-path="url(#clip860)" d="M 0 0 M1172.4 68.6107 L1172.4 73.819 L1123.44 73.819 Q1124.13 84.8144 1130.04 90.6014 Q1136 96.3305 1146.59 96.3305 Q1152.72 96.3305 1158.45 94.8259 Q1164.24 93.3213 1169.91 90.312 L1169.91 100.381 Q1164.18 102.812 1158.16 104.085 Q1152.14 105.358 1145.95 105.358 Q1130.44 105.358 1121.36 96.3305 Q1112.33 87.3028 1112.33 71.9093 Q1112.33 55.9951 1120.89 46.678 Q1129.52 37.303 1144.1 37.303 Q1157.18 37.303 1164.76 45.7521 Q1172.4 54.1432 1172.4 68.6107 M1161.75 65.4858 Q1161.63 56.7474 1156.83 51.5391 Q1152.09 46.3308 1144.21 46.3308 Q1135.3 46.3308 1129.92 51.3655 Q1124.6 56.4002 1123.79 65.5436 L1161.75 65.4858 Z" fill="#bebebe" fill-rule="evenodd" fill-opacity="1" /><path clip-path="url(#clip860)" d="M 0 0 M1231.31 17.28 L1231.31 49.3979 L1221.47 49.3979 L1221.47 17.28 L1231.31 17.28 Z" fill="#bebebe" fill-rule="evenodd" fill-opacity="1" /><path clip-path="url(#clip860)" d="M 0 0 M1283.8 40.7752 L1283.8 50.8446 Q1279.28 48.5298 1274.42 47.3724 Q1269.56 46.215 1264.35 46.215 Q1256.42 46.215 1252.43 48.6456 Q1248.5 51.0761 1248.5 55.9372 Q1248.5 59.6409 1251.33 61.7821 Q1254.17 63.8654 1262.73 65.7751 L1266.38 66.5853 Q1277.72 69.0158 1282.47 73.4718 Q1287.27 77.87 1287.27 85.7982 Q1287.27 94.8259 1280.09 100.092 Q1272.98 105.358 1260.48 105.358 Q1255.27 105.358 1249.6 104.317 Q1243.98 103.333 1237.73 101.307 L1237.73 90.312 Q1243.64 93.3791 1249.36 94.9416 Q1255.09 96.4462 1260.71 96.4462 Q1268.23 96.4462 1272.28 93.9 Q1276.33 91.2958 1276.33 86.6083 Q1276.33 82.2681 1273.38 79.9533 Q1270.49 77.6385 1260.59 75.4973 L1256.89 74.6292 Q1246.99 72.5459 1242.59 68.2635 Q1238.2 63.9233 1238.2 56.4002 Q1238.2 47.2567 1244.68 42.2799 Q1251.16 37.303 1263.08 37.303 Q1268.98 37.303 1274.19 38.1711 Q1279.4 39.0391 1283.8 40.7752 Z" fill="#bebebe" fill-rule="evenodd" fill-opacity="1" /><path clip-path="url(#clip860)" d="M 0 0 M1345.08 41.3539 L1345.08 51.3076 Q1340.57 48.8192 1336 47.6039 Q1331.48 46.3308 1326.85 46.3308 Q1316.49 46.3308 1310.76 52.928 Q1305.04 59.4673 1305.04 71.3306 Q1305.04 83.194 1310.76 89.7912 Q1316.49 96.3305 1326.85 96.3305 Q1331.48 96.3305 1336 95.1152 Q1340.57 93.8421 1345.08 91.3537 L1345.08 101.192 Q1340.63 103.275 1335.82 104.317 Q1331.08 105.358 1325.7 105.358 Q1311.05 105.358 1302.43 96.1569 Q1293.81 86.9556 1293.81 71.3306 Q1293.81 55.4742 1302.49 46.3886 Q1311.23 37.303 1326.39 37.303 Q1331.31 37.303 1336 38.3447 Q1340.68 39.3285 1345.08 41.3539 Z" fill="#bebebe" fill-rule="evenodd" fill-opacity="1" /><path clip-path="url(#clip860)" d="M 0 0 M1385.71 71.0992 Q1372.8 71.0992 1367.82 74.0505 Q1362.85 77.0019 1362.85 84.1199 Q1362.85 89.7912 1366.55 93.1476 Q1370.31 96.4462 1376.74 96.4462 Q1385.59 96.4462 1390.91 90.1963 Q1396.3 83.8884 1396.3 73.4718 L1396.3 71.0992 L1385.71 71.0992 M1406.94 66.701 L1406.94 103.68 L1396.3 103.68 L1396.3 93.8421 Q1392.65 99.7448 1387.21 102.58 Q1381.77 105.358 1373.9 105.358 Q1363.95 105.358 1358.04 99.8027 Q1352.2 94.1893 1352.2 84.8144 Q1352.2 73.8769 1359.49 68.3214 Q1366.84 62.7659 1381.37 62.7659 L1396.3 62.7659 L1396.3 61.7242 Q1396.3 54.3747 1391.44 50.3817 Q1386.63 46.3308 1377.89 46.3308 Q1372.34 46.3308 1367.07 47.6618 Q1361.81 48.9928 1356.95 51.6548 L1356.95 41.8169 Q1362.79 39.56 1368.29 38.4604 Q1373.79 37.303 1378.99 37.303 Q1393.06 37.303 1400 44.5947 Q1406.94 51.8863 1406.94 66.701 Z" fill="#bebebe" fill-rule="evenodd" fill-opacity="1" /><path clip-path="url(#clip860)" d="M 0 0 M1428.65 20.4629 L1428.65 38.8655 L1450.58 38.8655 L1450.58 47.141 L1428.65 47.141 L1428.65 82.3259 Q1428.65 90.2541 1430.79 92.5111 Q1432.99 94.768 1439.64 94.768 L1450.58 94.768 L1450.58 103.68 L1439.64 103.68 Q1427.32 103.68 1422.63 99.1083 Q1417.94 94.4787 1417.94 82.3259 L1417.94 47.141 L1410.13 47.141 L1410.13 38.8655 L1417.94 38.8655 L1417.94 20.4629 L1428.65 20.4629 Z" fill="#bebebe" fill-rule="evenodd" fill-opacity="1" /><path clip-path="url(#clip860)" d="M 0 0 M1472.28 20.4629 L1472.28 38.8655 L1494.21 38.8655 L1494.21 47.141 L1472.28 47.141 L1472.28 82.3259 Q1472.28 90.2541 1474.42 92.5111 Q1476.62 94.768 1483.28 94.768 L1494.21 94.768 L1494.21 103.68 L1483.28 103.68 Q1470.95 103.68 1466.26 99.1083 Q1461.57 94.4787 1461.57 82.3259 L1461.57 47.141 L1453.76 47.141 L1453.76 38.8655 L1461.57 38.8655 L1461.57 20.4629 L1472.28 20.4629 Z" fill="#bebebe" fill-rule="evenodd" fill-opacity="1" /><path clip-path="url(#clip860)" d="M 0 0 M1560.82 68.6107 L1560.82 73.819 L1511.86 73.819 Q1512.56 84.8144 1518.46 90.6014 Q1524.42 96.3305 1535.01 96.3305 Q1541.15 96.3305 1546.87 94.8259 Q1552.66 93.3213 1558.33 90.312 L1558.33 100.381 Q1552.6 102.812 1546.59 104.085 Q1540.57 105.358 1534.37 105.358 Q1518.87 105.358 1509.78 96.3305 Q1500.75 87.3028 1500.75 71.9093 Q1500.75 55.9951 1509.32 46.678 Q1517.94 37.303 1532.52 37.303 Q1545.6 37.303 1553.18 45.7521 Q1560.82 54.1432 1560.82 68.6107 M1550.17 65.4858 Q1550.06 56.7474 1545.25 51.5391 Q1540.51 46.3308 1532.64 46.3308 Q1523.73 46.3308 1518.34 51.3655 Q1513.02 56.4002 1512.21 65.5436 L1550.17 65.4858 Z" fill="#bebebe" fill-rule="evenodd" fill-opacity="1" /><path clip-path="url(#clip860)" d="M 0 0 M1609.55 48.8192 Q1607.75 47.7775 1605.61 47.3146 Q1603.53 46.7937 1600.98 46.7937 Q1591.96 46.7937 1587.09 52.6965 Q1582.29 58.5414 1582.29 69.5367 L1582.29 103.68 L1571.59 103.68 L1571.59 38.8655 L1582.29 38.8655 L1582.29 48.9349 Q1585.65 43.0322 1591.03 40.1965 Q1596.41 37.303 1604.11 37.303 Q1605.21 37.303 1606.54 37.4767 Q1607.87 37.5924 1609.49 37.8817 L1609.55 48.8192 Z" fill="#bebebe" fill-rule="evenodd" fill-opacity="1" /><path clip-path="url(#clip860)" d="M 0 0 M1630.79 17.28 L1630.79 49.3979 L1620.95 49.3979 L1620.95 17.28 L1630.79 17.28 Z" fill="#bebebe" fill-rule="evenodd" fill-opacity="1" /><path clip-path="url(#clip862)" d="M231.173 173.772 L231.173 205.772 L263.173 205.772 L263.173 173.772 L231.173 173.772 Z" fill="#e69f00" fill-rule="evenodd" fill-opacity="1" stroke="#000000" stroke-opacity="1" stroke-width="3.2"/>
<path clip-path="url(#clip862)" d="M338.766 743.359 L338.766 775.359 L370.766 775.359 L370.766 743.359 L338.766 743.359 Z" fill="#e69f00" fill-rule="evenodd" fill-opacity="1" stroke="#000000" stroke-opacity="1" stroke-width="3.2"/>
<path clip-path="url(#clip862)" d="M446.358 433.217 L446.358 465.217 L478.358 465.217 L478.358 433.217 L446.358 433.217 Z" fill="#e69f00" fill-rule="evenodd" fill-opacity="1" stroke="#000000" stroke-opacity="1" stroke-width="3.2"/>
<path clip-path="url(#clip862)" d="M553.95 1057.22 L553.95 1089.22 L585.95 1089.22 L585.95 1057.22 L553.95 1057.22 Z" fill="#e69f00" fill-rule="evenodd" fill-opacity="1" stroke="#000000" stroke-opacity="1" stroke-width="3.2"/>
<path clip-path="url(#clip862)" d="M661.543 1194.46 L661.543 1226.46 L693.543 1226.46 L693.543 1194.46 L661.543 1194.46 Z" fill="#e69f00" fill-rule="evenodd" fill-opacity="1" stroke="#000000" stroke-opacity="1" stroke-width="3.2"/>
<path clip-path="url(#clip862)" d="M769.135 1110.52 L769.135 1142.52 L801.135 1142.52 L801.135 1110.52 L769.135 1110.52 Z" fill="#e69f00" fill-rule="evenodd" fill-opacity="1" stroke="#000000" stroke-opacity="1" stroke-width="3.2"/>
<path clip-path="url(#clip862)" d="M876.728 1167.78 L876.728 1199.78 L908.728 1199.78 L908.728 1167.78 L876.728 1167.78 Z" fill="#e69f00" fill-rule="evenodd" fill-opacity="1" stroke="#000000" stroke-opacity="1" stroke-width="3.2"/>
<path clip-path="url(#clip862)" d="M984.32 263.302 L984.32 295.302 L1016.32 295.302 L1016.32 263.302 L984.32 263.302 Z" fill="#e69f00" fill-rule="evenodd" fill-opacity="1" stroke="#000000" stroke-opacity="1" stroke-width="3.2"/>
<path clip-path="url(#clip862)" d="M1091.91 696.758 L1091.91 728.758 L1123.91 728.758 L1123.91 696.758 L1091.91 696.758 Z" fill="#e69f00" fill-rule="evenodd" fill-opacity="1" stroke="#000000" stroke-opacity="1" stroke-width="3.2"/>
<path clip-path="url(#clip862)" d="M1199.5 1231.83 L1199.5 1263.83 L1231.5 1263.83 L1231.5 1231.83 L1199.5 1231.83 Z" fill="#e69f00" fill-rule="evenodd" fill-opacity="1" stroke="#000000" stroke-opacity="1" stroke-width="3.2"/>
<path clip-path="url(#clip862)" d="M1307.1 970.698 L1307.1 1002.7 L1339.1 1002.7 L1339.1 970.698 L1307.1 970.698 Z" fill="#e69f00" fill-rule="evenodd" fill-opacity="1" stroke="#000000" stroke-opacity="1" stroke-width="3.2"/>
<path clip-path="url(#clip862)" d="M1414.69 994.294 L1414.69 1026.29 L1446.69 1026.29 L1446.69 994.294 L1414.69 994.294 Z" fill="#e69f00" fill-rule="evenodd" fill-opacity="1" stroke="#000000" stroke-opacity="1" stroke-width="3.2"/>
<path clip-path="url(#clip862)" d="M1522.28 1064.26 L1522.28 1096.26 L1554.28 1096.26 L1554.28 1064.26 L1522.28 1064.26 Z" fill="#e69f00" fill-rule="evenodd" fill-opacity="1" stroke="#000000" stroke-opacity="1" stroke-width="3.2"/>
<path clip-path="url(#clip862)" d="M1629.87 795.714 L1629.87 827.714 L1661.87 827.714 L1661.87 795.714 L1629.87 795.714 Z" fill="#e69f00" fill-rule="evenodd" fill-opacity="1" stroke="#000000" stroke-opacity="1" stroke-width="3.2"/>
<path clip-path="url(#clip862)" d="M1737.47 710.687 L1737.47 742.687 L1769.47 742.687 L1769.47 710.687 L1737.47 710.687 Z" fill="#e69f00" fill-rule="evenodd" fill-opacity="1" stroke="#000000" stroke-opacity="1" stroke-width="3.2"/>
<path clip-path="url(#clip862)" d="M1845.06 289.158 L1845.06 321.158 L1877.06 321.158 L1877.06 289.158 L1845.06 289.158 Z" fill="#e69f00" fill-rule="evenodd" fill-opacity="1" stroke="#000000" stroke-opacity="1" stroke-width="3.2"/>
<path clip-path="url(#clip862)" d="M1952.65 1182.63 L1952.65 1214.63 L1984.65 1214.63 L1984.65 1182.63 L1952.65 1182.63 Z" fill="#e69f00" fill-rule="evenodd" fill-opacity="1" stroke="#000000" stroke-opacity="1" stroke-width="3.2"/>
<path clip-path="url(#clip862)" d="M2060.24 716.095 L2060.24 748.095 L2092.24 748.095 L2092.24 716.095 L2060.24 716.095 Z" fill="#e69f00" fill-rule="evenodd" fill-opacity="1" stroke="#000000" stroke-opacity="1" stroke-width="3.2"/>
<path clip-path="url(#clip862)" d="M2167.84 1073.96 L2167.84 1105.96 L2199.84 1105.96 L2199.84 1073.96 L2167.84 1073.96 Z" fill="#e69f00" fill-rule="evenodd" fill-opacity="1" stroke="#000000" stroke-opacity="1" stroke-width="3.2"/>
<path clip-path="url(#clip862)" d="M2275.43 621.126 L2275.43 653.126 L2307.43 653.126 L2307.43 621.126 L2275.43 621.126 Z" fill="#e69f00" fill-rule="evenodd" fill-opacity="1" stroke="#000000" stroke-opacity="1" stroke-width="3.2"/>
<circle clip-path="url(#clip862)" cx="247.173" cy="486.44" r="14" fill="#56b4e9" fill-rule="evenodd" fill-opacity="1" stroke="#000000" stroke-opacity="1" stroke-width="3.2"/>
<circle clip-path="url(#clip862)" cx="354.766" cy="1270.73" r="14" fill="#56b4e9" fill-rule="evenodd" fill-opacity="1" stroke="#000000" stroke-opacity="1" stroke-width="3.2"/>
<circle clip-path="url(#clip862)" cx="462.358" cy="187.111" r="14" fill="#56b4e9" fill-rule="evenodd" fill-opacity="1" stroke="#000000" stroke-opacity="1" stroke-width="3.2"/>
<circle clip-path="url(#clip862)" cx="569.95" cy="1444.41" r="14" fill="#56b4e9" fill-rule="evenodd" fill-opacity="1" stroke="#000000" stroke-opacity="1" stroke-width="3.2"/>
<circle clip-path="url(#clip862)" cx="677.543" cy="1434.56" r="14" fill="#56b4e9" fill-rule="evenodd" fill-opacity="1" stroke="#000000" stroke-opacity="1" stroke-width="3.2"/>
<circle clip-path="url(#clip862)" cx="785.135" cy="503.642" r="14" fill="#56b4e9" fill-rule="evenodd" fill-opacity="1" stroke="#000000" stroke-opacity="1" stroke-width="3.2"/>
<circle clip-path="url(#clip862)" cx="892.728" cy="379.204" r="14" fill="#56b4e9" fill-rule="evenodd" fill-opacity="1" stroke="#000000" stroke-opacity="1" stroke-width="3.2"/>
<circle clip-path="url(#clip862)" cx="1000.32" cy="1171.24" r="14" fill="#56b4e9" fill-rule="evenodd" fill-opacity="1" stroke="#000000" stroke-opacity="1" stroke-width="3.2"/>
<circle clip-path="url(#clip862)" cx="1107.91" cy="421.381" r="14" fill="#56b4e9" fill-rule="evenodd" fill-opacity="1" stroke="#000000" stroke-opacity="1" stroke-width="3.2"/>
<circle clip-path="url(#clip862)" cx="1215.5" cy="756.087" r="14" fill="#56b4e9" fill-rule="evenodd" fill-opacity="1" stroke="#000000" stroke-opacity="1" stroke-width="3.2"/>
<circle clip-path="url(#clip862)" cx="1323.1" cy="1005.71" r="14" fill="#56b4e9" fill-rule="evenodd" fill-opacity="1" stroke="#000000" stroke-opacity="1" stroke-width="3.2"/>
<circle clip-path="url(#clip862)" cx="1430.69" cy="955.998" r="14" fill="#56b4e9" fill-rule="evenodd" fill-opacity="1" stroke="#000000" stroke-opacity="1" stroke-width="3.2"/>
<circle clip-path="url(#clip862)" cx="1538.28" cy="371.883" r="14" fill="#56b4e9" fill-rule="evenodd" fill-opacity="1" stroke="#000000" stroke-opacity="1" stroke-width="3.2"/>
<circle clip-path="url(#clip862)" cx="1645.87" cy="1186.63" r="14" fill="#56b4e9" fill-rule="evenodd" fill-opacity="1" stroke="#000000" stroke-opacity="1" stroke-width="3.2"/>
<circle clip-path="url(#clip862)" cx="1753.47" cy="1267.93" r="14" fill="#56b4e9" fill-rule="evenodd" fill-opacity="1" stroke="#000000" stroke-opacity="1" stroke-width="3.2"/>
<circle clip-path="url(#clip862)" cx="1861.06" cy="653.852" r="14" fill="#56b4e9" fill-rule="evenodd" fill-opacity="1" stroke="#000000" stroke-opacity="1" stroke-width="3.2"/>
<circle clip-path="url(#clip862)" cx="1968.65" cy="886.153" r="14" fill="#56b4e9" fill-rule="evenodd" fill-opacity="1" stroke="#000000" stroke-opacity="1" stroke-width="3.2"/>
<circle clip-path="url(#clip862)" cx="2076.24" cy="1391.58" r="14" fill="#56b4e9" fill-rule="evenodd" fill-opacity="1" stroke="#000000" stroke-opacity="1" stroke-width="3.2"/>
<circle clip-path="url(#clip862)" cx="2183.84" cy="1256.41" r="14" fill="#56b4e9" fill-rule="evenodd" fill-opacity="1" stroke="#000000" stroke-opacity="1" stroke-width="3.2"/>
<circle clip-path="url(#clip862)" cx="2291.43" cy="754.579" r="14" fill="#56b4e9" fill-rule="evenodd" fill-opacity="1" stroke="#000000" stroke-opacity="1" stroke-width="3.2"/>
<path clip-path="url(#clip862)" d="M247.173 769.058 L233.317 761.058 L233.317 745.058 L247.173 737.058 L261.029 745.058 L261.029 761.058 Z" fill="#009e73" fill-rule="evenodd" fill-opacity="1" stroke="#000000" stroke-opacity="1" stroke-width="3.2"/>
<path clip-path="url(#clip862)" d="M354.766 560.066 L340.91 552.066 L340.91 536.066 L354.766 528.066 L368.622 536.066 L368.622 552.066 Z" fill="#009e73" fill-rule="evenodd" fill-opacity="1" stroke="#000000" stroke-opacity="1" stroke-width="3.2"/>
<path clip-path="url(#clip862)" d="M462.358 347.938 L448.502 339.938 L448.502 323.938 L462.358 315.938 L476.214 323.938 L476.214 339.938 Z" fill="#009e73" fill-rule="evenodd" fill-opacity="1" stroke="#000000" stroke-opacity="1" stroke-width="3.2"/>
<path clip-path="url(#clip862)" d="M569.95 618.548 L556.094 610.548 L556.094 594.548 L569.95 586.548 L583.806 594.548 L583.806 610.548 Z" fill="#009e73" fill-rule="evenodd" fill-opacity="1" stroke="#000000" stroke-opacity="1" stroke-width="3.2"/>
<path clip-path="url(#clip862)" d="M677.543 1064.37 L663.687 1056.37 L663.687 1040.37 L677.543 1032.37 L691.399 1040.37 L691.399 1056.37 Z" fill="#009e73" fill-rule="evenodd" fill-opacity="1" stroke="#000000" stroke-opacity="1" stroke-width="3.2"/>
<path clip-path="url(#clip862)" d="M785.135 1025.09 L771.279 1017.09 L771.279 1001.09 L785.135 993.092 L798.991 1001.09 L798.991 1017.09 Z" fill="#009e73" fill-rule="evenodd" fill-opacity="1" stroke="#000000" stroke-opacity="1" stroke-width="3.2"/>
<path clip-path="url(#clip862)" d="M892.728 929.409 L878.872 921.409 L878.872 905.409 L892.728 897.409 L906.584 905.409 L906.584 921.409 Z" fill="#009e73" fill-rule="evenodd" fill-opacity="1" stroke="#000000" stroke-opacity="1" stroke-width="3.2"/>
<path clip-path="url(#clip862)" d="M1000.32 604.765 L986.464 596.765 L986.464 580.765 L1000.32 572.765 L1014.18 580.765 L1014.18 596.765 Z" fill="#009e73" fill-rule="evenodd" fill-opacity="1" stroke="#000000" stroke-opacity="1" stroke-width="3.2"/>
<path clip-path="url(#clip862)" d="M1107.91 219.864 L1094.06 211.864 L1094.06 195.864 L1107.91 187.864 L1121.77 195.864 L1121.77 211.864 Z" fill="#009e73" fill-rule="evenodd" fill-opacity="1" stroke="#000000" stroke-opacity="1" stroke-width="3.2"/>
<path clip-path="url(#clip862)" d="M1215.5 324.326 L1201.65 316.326 L1201.65 300.326 L1215.5 292.326 L1229.36 300.326 L1229.36 316.326 Z" fill="#009e73" fill-rule="evenodd" fill-opacity="1" stroke="#000000" stroke-opacity="1" stroke-width="3.2"/>
<path clip-path="url(#clip862)" d="M1323.1 530.83 L1309.24 522.83 L1309.24 506.83 L1323.1 498.83 L1336.95 506.83 L1336.95 522.83 Z" fill="#009e73" fill-rule="evenodd" fill-opacity="1" stroke="#000000" stroke-opacity="1" stroke-width="3.2"/>
<path clip-path="url(#clip862)" d="M1430.69 1291.52 L1416.83 1283.52 L1416.83 1267.52 L1430.69 1259.52 L1444.55 1267.52 L1444.55 1283.52 Z" fill="#009e73" fill-rule="evenodd" fill-opacity="1" stroke="#000000" stroke-opacity="1" stroke-width="3.2"/>
<path clip-path="url(#clip862)" d="M1538.28 1163.31 L1524.43 1155.31 L1524.43 1139.31 L1538.28 1131.31 L1552.14 1139.31 L1552.14 1155.31 Z" fill="#009e73" fill-rule="evenodd" fill-opacity="1" stroke="#000000" stroke-opacity="1" stroke-width="3.2"/>
<path clip-path="url(#clip862)" d="M1645.87 928.986 L1632.02 920.986 L1632.02 904.986 L1645.87 896.986 L1659.73 904.986 L1659.73 920.986 Z" fill="#009e73" fill-rule="evenodd" fill-opacity="1" stroke="#000000" stroke-opacity="1" stroke-width="3.2"/>
<path clip-path="url(#clip862)" d="M1753.47 551.379 L1739.61 543.379 L1739.61 527.379 L1753.47 519.379 L1767.32 527.379 L1767.32 543.379 Z" fill="#009e73" fill-rule="evenodd" fill-opacity="1" stroke="#000000" stroke-opacity="1" stroke-width="3.2"/>
<path clip-path="url(#clip862)" d="M1861.06 1152.45 L1847.2 1144.45 L1847.2 1128.45 L1861.06 1120.45 L1874.91 1128.45 L1874.91 1144.45 Z" fill="#009e73" fill-rule="evenodd" fill-opacity="1" stroke="#000000" stroke-opacity="1" stroke-width="3.2"/>
<path clip-path="url(#clip862)" d="M1968.65 1073.36 L1954.8 1065.36 L1954.8 1049.36 L1968.65 1041.36 L1982.51 1049.36 L1982.51 1065.36 Z" fill="#009e73" fill-rule="evenodd" fill-opacity="1" stroke="#000000" stroke-opacity="1" stroke-width="3.2"/>
<path clip-path="url(#clip862)" d="M2076.24 239.161 L2062.39 231.161 L2062.39 215.161 L2076.24 207.161 L2090.1 215.161 L2090.1 231.161 Z" fill="#009e73" fill-rule="evenodd" fill-opacity="1" stroke="#000000" stroke-opacity="1" stroke-width="3.2"/>
<path clip-path="url(#clip862)" d="M2183.84 969.458 L2169.98 961.458 L2169.98 945.458 L2183.84 937.458 L2197.69 945.458 L2197.69 961.458 Z" fill="#009e73" fill-rule="evenodd" fill-opacity="1" stroke="#000000" stroke-opacity="1" stroke-width="3.2"/>
<path clip-path="url(#clip862)" d="M2291.43 999.646 L2277.57 991.646 L2277.57 975.646 L2291.43 967.646 L2305.28 975.646 L2305.28 991.646 Z" fill="#009e73" fill-rule="evenodd" fill-opacity="1" stroke="#000000" stroke-opacity="1" stroke-width="3.2"/>
<path clip-path="url(#clip860)" d="
M1988.16 435.737 L2280.53 435.737 L2280.53 193.817 L1988.16 193.817  Z
  " fill="#ffffff" fill-rule="evenodd" fill-opacity="1"/>
<polyline clip-path="url(#clip860)" style="stroke:#000000; stroke-width:4; stroke-opacity:1; fill:none" points="
  1988.16,435.737 2280.53,435.737 2280.53,193.817 1988.16,193.817 1988.16,435.737 
  "/>
<path clip-path="url(#clip860)" d="M2058.87 228.697 L2058.87 279.897 L2110.07 279.897 L2110.07 228.697 L2058.87 228.697 Z" fill="#e69f00" fill-rule="evenodd" fill-opacity="1" stroke="#000000" stroke-opacity="1" stroke-width="5.12"/>
<path clip-path="url(#clip860)" d="M 0 0 M2194.62 273.984 Q2192.81 278.614 2191.1 280.026 Q2189.39 281.438 2186.52 281.438 L2183.11 281.438 L2183.11 277.873 L2185.61 277.873 Q2187.37 277.873 2188.34 277.04 Q2189.32 276.206 2190.5 273.104 L2191.26 271.16 L2180.78 245.651 L2185.29 245.651 L2193.39 265.929 L2201.49 245.651 L2206.01 245.651 L2194.62 273.984 Z" fill="#bebebe" fill-rule="evenodd" fill-opacity="1" /><path clip-path="url(#clip860)" d="M 0 0 M2211.89 267.641 L2219.52 267.641 L2219.52 241.276 L2211.21 242.943 L2211.21 238.683 L2219.48 237.017 L2224.15 237.017 L2224.15 267.641 L2231.79 267.641 L2231.79 271.577 L2211.89 271.577 L2211.89 267.641 Z" fill="#bebebe" fill-rule="evenodd" fill-opacity="1" /><circle clip-path="url(#clip860)" cx="2084.47" cy="314.777" r="23" fill="#56b4e9" fill-rule="evenodd" fill-opacity="1" stroke="#000000" stroke-opacity="1" stroke-width="5.12"/>
<path clip-path="url(#clip860)" d="M 0 0 M2194.62 334.464 Q2192.81 339.094 2191.1 340.506 Q2189.39 341.918 2186.52 341.918 L2183.11 341.918 L2183.11 338.353 L2185.61 338.353 Q2187.37 338.353 2188.34 337.52 Q2189.32 336.686 2190.5 333.584 L2191.26 331.64 L2180.78 306.131 L2185.29 306.131 L2193.39 326.409 L2201.49 306.131 L2206.01 306.131 L2194.62 334.464 Z" fill="#bebebe" fill-rule="evenodd" fill-opacity="1" /><path clip-path="url(#clip860)" d="M 0 0 M2215.1 328.121 L2231.42 328.121 L2231.42 332.057 L2209.48 332.057 L2209.48 328.121 Q2212.14 325.367 2216.72 320.737 Q2221.33 316.085 2222.51 314.742 Q2224.76 312.219 2225.64 310.483 Q2226.54 308.723 2226.54 307.034 Q2226.54 304.279 2224.59 302.543 Q2222.67 300.807 2219.57 300.807 Q2217.37 300.807 2214.92 301.571 Q2212.49 302.335 2209.71 303.886 L2209.71 299.163 Q2212.53 298.029 2214.99 297.45 Q2217.44 296.872 2219.48 296.872 Q2224.85 296.872 2228.04 299.557 Q2231.24 302.242 2231.24 306.733 Q2231.24 308.862 2230.43 310.784 Q2229.64 312.682 2227.53 315.274 Q2226.96 315.946 2223.85 319.163 Q2220.75 322.358 2215.1 328.121 Z" fill="#bebebe" fill-rule="evenodd" fill-opacity="1" /><path clip-path="url(#clip860)" d="M2084.47 400.857 L2062.3 388.057 L2062.3 362.457 L2084.47 349.657 L2106.64 362.457 L2106.64 388.057 Z" fill="#009e73" fill-rule="evenodd" fill-opacity="1" stroke="#000000" stroke-opacity="1" stroke-width="5.12"/>
<path clip-path="url(#clip860)" d="M 0 0 M2194.62 394.944 Q2192.81 399.574 2191.1 400.986 Q2189.39 402.398 2186.52 402.398 L2183.11 402.398 L2183.11 398.833 L2185.61 398.833 Q2187.37 398.833 2188.34 398 Q2189.32 397.166 2190.5 394.064 L2191.26 392.12 L2180.78 366.611 L2185.29 366.611 L2193.39 386.889 L2201.49 366.611 L2206.01 366.611 L2194.62 394.944 Z" fill="#bebebe" fill-rule="evenodd" fill-opacity="1" /><path clip-path="url(#clip860)" d="M 0 0 M2225.24 373.902 Q2228.6 374.62 2230.47 376.889 Q2232.37 379.157 2232.37 382.49 Q2232.37 387.606 2228.85 390.407 Q2225.34 393.208 2218.85 393.208 Q2216.68 393.208 2214.36 392.768 Q2212.07 392.351 2209.62 391.495 L2209.62 386.981 Q2211.56 388.115 2213.88 388.694 Q2216.19 389.273 2218.71 389.273 Q2223.11 389.273 2225.4 387.537 Q2227.72 385.801 2227.72 382.49 Q2227.72 379.435 2225.57 377.722 Q2223.44 375.986 2219.62 375.986 L2215.59 375.986 L2215.59 372.143 L2219.8 372.143 Q2223.25 372.143 2225.08 370.778 Q2226.91 369.389 2226.91 366.796 Q2226.91 364.134 2225.01 362.722 Q2223.14 361.287 2219.62 361.287 Q2217.7 361.287 2215.5 361.703 Q2213.3 362.12 2210.66 363 L2210.66 358.833 Q2213.32 358.092 2215.64 357.722 Q2217.97 357.352 2220.03 357.352 Q2225.36 357.352 2228.46 359.782 Q2231.56 362.19 2231.56 366.31 Q2231.56 369.18 2229.92 371.171 Q2228.27 373.139 2225.24 373.902 Z" fill="#bebebe" fill-rule="evenodd" fill-opacity="1" /></svg>
