<?xml version="1.0" encoding="utf-8"?>
<svg xmlns="http://www.w3.org/2000/svg" xmlns:xlink="http://www.w3.org/1999/xlink" width="600" height="400" viewBox="0 0 2400 1600">
<defs>
  <clipPath id="clip790">
    <rect x="0" y="0" width="2400" height="1600"/>
  </clipPath>
</defs>
<path clip-path="url(#clip790)" d="
M0 1600 L2400 1600 L2400 0 L0 0  Z
  " fill="#ffffff" fill-rule="evenodd" fill-opacity="1"/>
<defs>
  <clipPath id="clip791">
    <rect x="480" y="0" width="1681" height="1600"/>
  </clipPath>
</defs>
<path clip-path="url(#clip790)" d="
M163.774 1486.45 L2352.76 1486.45 L2352.76 123.472 L163.774 123.472  Z
  " fill="#ffffff" fill-rule="evenodd" fill-opacity="1"/>
<defs>
  <clipPath id="clip792">
    <rect x="163" y="123" width="2190" height="1364"/>
  </clipPath>
</defs>
<polyline clip-path="url(#clip792)" style="stroke:#000000; stroke-width:2; stroke-opacity:0.1; fill:none" points="
  643.048,1486.45 643.048,123.472 
  "/>
<polyline clip-path="url(#clip792)" style="stroke:#000000; stroke-width:2; stroke-opacity:0.1; fill:none" points="
  1668.41,1486.45 1668.41,123.472 
  "/>
<polyline clip-path="url(#clip790)" style="stroke:#000000; stroke-width:4; stroke-opacity:1; fill:none" points="
  163.774,1486.45 2352.76,1486.45 
  "/>
<polyline clip-path="url(#clip790)" style="stroke:#000000; stroke-width:4; stroke-opacity:1; fill:none" points="
  643.048,1486.45 643.048,1470.09 
  "/>
<polyline clip-path="url(#clip790)" style="stroke:#000000; stroke-width:4; stroke-opacity:1; fill:none" points="
  1668.41,1486.45 1668.41,1470.09 
  "/>
<path clip-path="url(#clip790)" d="M 0 0 M594.438 1547.12 L581.243 1512.56 L586.127 1512.56 L597.076 1541.66 L608.049 1512.56 L612.91 1512.56 L599.738 1547.12 L594.438 1547.12 Z" fill="#000000" fill-rule="evenodd" fill-opacity="1" /><path clip-path="url(#clip790)" d="M 0 0 M625.479 1534.09 Q620.317 1534.09 618.326 1535.27 Q616.336 1536.45 616.336 1539.3 Q616.336 1541.56 617.817 1542.91 Q619.322 1544.23 621.891 1544.23 Q625.433 1544.23 627.562 1541.73 Q629.715 1539.2 629.715 1535.04 L629.715 1534.09 L625.479 1534.09 M633.974 1532.33 L633.974 1547.12 L629.715 1547.12 L629.715 1543.18 Q628.257 1545.55 626.081 1546.68 Q623.905 1547.79 620.757 1547.79 Q616.775 1547.79 614.414 1545.57 Q612.076 1543.32 612.076 1539.57 Q612.076 1535.2 614.993 1532.98 Q617.933 1530.75 623.743 1530.75 L629.715 1530.75 L629.715 1530.34 Q629.715 1527.4 627.771 1525.8 Q625.849 1524.18 622.354 1524.18 Q620.132 1524.18 618.025 1524.71 Q615.919 1525.24 613.974 1526.31 L613.974 1522.37 Q616.312 1521.47 618.511 1521.03 Q620.711 1520.57 622.794 1520.57 Q628.419 1520.57 631.197 1523.49 Q633.974 1526.4 633.974 1532.33 Z" fill="#000000" fill-rule="evenodd" fill-opacity="1" /><path clip-path="url(#clip790)" d="M 0 0 M653.465 1525.18 Q652.747 1524.76 651.891 1524.57 Q651.058 1524.37 650.039 1524.37 Q646.428 1524.37 644.484 1526.73 Q642.562 1529.06 642.562 1533.46 L642.562 1547.12 L638.28 1547.12 L638.28 1521.19 L642.562 1521.19 L642.562 1525.22 Q643.905 1522.86 646.058 1521.73 Q648.21 1520.57 651.289 1520.57 Q651.729 1520.57 652.261 1520.64 Q652.794 1520.68 653.442 1520.8 L653.465 1525.18 Z" fill="#000000" fill-rule="evenodd" fill-opacity="1" /><path clip-path="url(#clip790)" d="M 0 0 M666.937 1524.18 Q663.511 1524.18 661.521 1526.87 Q659.53 1529.53 659.53 1534.18 Q659.53 1538.83 661.497 1541.52 Q663.488 1544.18 666.937 1544.18 Q670.34 1544.18 672.331 1541.49 Q674.321 1538.81 674.321 1534.18 Q674.321 1529.57 672.331 1526.89 Q670.34 1524.18 666.937 1524.18 M666.937 1520.57 Q672.493 1520.57 675.664 1524.18 Q678.835 1527.79 678.835 1534.18 Q678.835 1540.55 675.664 1544.18 Q672.493 1547.79 666.937 1547.79 Q661.358 1547.79 658.187 1544.18 Q655.039 1540.55 655.039 1534.18 Q655.039 1527.79 658.187 1524.18 Q661.358 1520.57 666.937 1520.57 M670.155 1509.2 L674.761 1509.2 L667.215 1517.91 L663.673 1517.91 L670.155 1509.2 Z" fill="#000000" fill-rule="evenodd" fill-opacity="1" /><path clip-path="url(#clip790)" d="M 0 0 M704.854 1531.47 L704.854 1547.12 L700.594 1547.12 L700.594 1531.61 Q700.594 1527.93 699.159 1526.1 Q697.724 1524.27 694.854 1524.27 Q691.405 1524.27 689.414 1526.47 Q687.423 1528.67 687.423 1532.47 L687.423 1547.12 L683.141 1547.12 L683.141 1521.19 L687.423 1521.19 L687.423 1525.22 Q688.951 1522.88 691.011 1521.73 Q693.094 1520.57 695.803 1520.57 Q700.27 1520.57 702.562 1523.35 Q704.854 1526.1 704.854 1531.47 Z" fill="#000000" fill-rule="evenodd" fill-opacity="1" /><path clip-path="url(#clip790)" d="M 0 0 M1612.3 1512.56 L1619.27 1512.56 L1628.09 1536.08 L1636.95 1512.56 L1643.92 1512.56 L1643.92 1547.12 L1639.36 1547.12 L1639.36 1516.77 L1630.45 1540.48 L1625.75 1540.48 L1616.84 1516.77 L1616.84 1547.12 L1612.3 1547.12 L1612.3 1512.56 Z" fill="#000000" fill-rule="evenodd" fill-opacity="1" /><path clip-path="url(#clip790)" d="M 0 0 M1647.95 1536.89 L1647.95 1521.19 L1652.21 1521.19 L1652.21 1536.73 Q1652.21 1540.41 1653.64 1542.26 Q1655.08 1544.09 1657.95 1544.09 Q1661.4 1544.09 1663.39 1541.89 Q1665.4 1539.69 1665.4 1535.89 L1665.4 1521.19 L1669.66 1521.19 L1669.66 1547.12 L1665.4 1547.12 L1665.4 1543.14 Q1663.85 1545.5 1661.79 1546.66 Q1659.75 1547.79 1657.04 1547.79 Q1652.58 1547.79 1650.26 1545.01 Q1647.95 1542.24 1647.95 1536.89 M1658.66 1520.57 L1658.66 1520.57 Z" fill="#000000" fill-rule="evenodd" fill-opacity="1" /><path clip-path="url(#clip790)" d="M 0 0 M1674.13 1521.19 L1678.39 1521.19 L1678.39 1547.58 Q1678.39 1552.54 1676.49 1554.76 Q1674.61 1556.98 1670.42 1556.98 L1668.8 1556.98 L1668.8 1553.37 L1669.94 1553.37 Q1672.37 1553.37 1673.25 1552.24 Q1674.13 1551.12 1674.13 1547.58 L1674.13 1521.19 M1674.13 1511.1 L1678.39 1511.1 L1678.39 1516.5 L1674.13 1516.5 L1674.13 1511.1 Z" fill="#000000" fill-rule="evenodd" fill-opacity="1" /><path clip-path="url(#clip790)" d="M 0 0 M1705.03 1533.09 L1705.03 1535.18 L1685.45 1535.18 Q1685.72 1539.57 1688.09 1541.89 Q1690.47 1544.18 1694.71 1544.18 Q1697.16 1544.18 1699.45 1543.58 Q1701.77 1542.98 1704.03 1541.77 L1704.03 1545.8 Q1701.74 1546.77 1699.34 1547.28 Q1696.93 1547.79 1694.45 1547.79 Q1688.25 1547.79 1684.61 1544.18 Q1681 1540.57 1681 1534.41 Q1681 1528.05 1684.43 1524.32 Q1687.88 1520.57 1693.71 1520.57 Q1698.94 1520.57 1701.97 1523.95 Q1705.03 1527.31 1705.03 1533.09 M1700.77 1531.84 Q1700.72 1528.35 1698.8 1526.26 Q1696.9 1524.18 1693.76 1524.18 Q1690.19 1524.18 1688.04 1526.19 Q1685.91 1528.21 1685.59 1531.87 L1700.77 1531.84 Z" fill="#000000" fill-rule="evenodd" fill-opacity="1" /><path clip-path="url(#clip790)" d="M 0 0 M1724.52 1525.18 Q1723.8 1524.76 1722.95 1524.57 Q1722.11 1524.37 1721.09 1524.37 Q1717.48 1524.37 1715.54 1526.73 Q1713.62 1529.06 1713.62 1533.46 L1713.62 1547.12 L1709.34 1547.12 L1709.34 1521.19 L1713.62 1521.19 L1713.62 1525.22 Q1714.96 1522.86 1717.11 1521.73 Q1719.27 1520.57 1722.34 1520.57 Q1722.78 1520.57 1723.32 1520.64 Q1723.85 1520.68 1724.5 1520.8 L1724.52 1525.18 Z" fill="#000000" fill-rule="evenodd" fill-opacity="1" /><polyline clip-path="url(#clip792)" style="stroke:#000000; stroke-width:2; stroke-opacity:0.1; fill:none" points="
  163.774,1447.87 2352.76,1447.87 
  "/>
<polyline clip-path="url(#clip792)" style="stroke:#000000; stroke-width:2; stroke-opacity:0.1; fill:none" points="
  163.774,1113.89 2352.76,1113.89 
  "/>
<polyline clip-path="url(#clip792)" style="stroke:#000000; stroke-width:2; stroke-opacity:0.1; fill:none" points="
  163.774,779.911 2352.76,779.911 
  "/>
<polyline clip-path="url(#clip792)" style="stroke:#000000; stroke-width:2; stroke-opacity:0.1; fill:none" points="
  163.774,445.931 2352.76,445.931 
  "/>
<polyline clip-path="url(#clip790)" style="stroke:#000000; stroke-width:4; stroke-opacity:1; fill:none" points="
  163.774,1486.45 163.774,123.472 
  "/>
<polyline clip-path="url(#clip790)" style="stroke:#000000; stroke-width:4; stroke-opacity:1; fill:none" points="
  163.774,1447.87 190.042,1447.87 
  "/>
<polyline clip-path="url(#clip790)" style="stroke:#000000; stroke-width:4; stroke-opacity:1; fill:none" points="
  163.774,1113.89 190.042,1113.89 
  "/>
<polyline clip-path="url(#clip790)" style="stroke:#000000; stroke-width:4; stroke-opacity:1; fill:none" points="
  163.774,779.911 190.042,779.911 
  "/>
<polyline clip-path="url(#clip790)" style="stroke:#000000; stroke-width:4; stroke-opacity:1; fill:none" points="
  163.774,445.931 190.042,445.931 
  "/>
<path clip-path="url(#clip790)" d="M 0 0 M115.83 1433.67 Q112.219 1433.67 110.39 1437.24 Q108.584 1440.78 108.584 1447.91 Q108.584 1455.01 110.39 1458.58 Q112.219 1462.12 115.83 1462.12 Q119.464 1462.12 121.27 1458.58 Q123.098 1455.01 123.098 1447.91 Q123.098 1440.78 121.27 1437.24 Q119.464 1433.67 115.83 1433.67 M115.83 1429.97 Q121.64 1429.97 124.695 1434.57 Q127.774 1439.16 127.774 1447.91 Q127.774 1456.63 124.695 1461.24 Q121.64 1465.82 115.83 1465.82 Q110.02 1465.82 106.941 1461.24 Q103.885 1456.63 103.885 1447.91 Q103.885 1439.16 106.941 1434.57 Q110.02 1429.97 115.83 1429.97 Z" fill="#000000" fill-rule="evenodd" fill-opacity="1" /><path clip-path="url(#clip790)" d="M 0 0 M53.8393 1127.24 L61.4782 1127.24 L61.4782 1100.87 L53.168 1102.54 L53.168 1098.28 L61.4319 1096.61 L66.1078 1096.61 L66.1078 1127.24 L73.7466 1127.24 L73.7466 1131.17 L53.8393 1131.17 L53.8393 1127.24 Z" fill="#000000" fill-rule="evenodd" fill-opacity="1" /><path clip-path="url(#clip790)" d="M 0 0 M88.816 1099.69 Q85.2049 1099.69 83.3762 1103.26 Q81.5707 1106.8 81.5707 1113.93 Q81.5707 1121.03 83.3762 1124.6 Q85.2049 1128.14 88.816 1128.14 Q92.4502 1128.14 94.2558 1124.6 Q96.0845 1121.03 96.0845 1113.93 Q96.0845 1106.8 94.2558 1103.26 Q92.4502 1099.69 88.816 1099.69 M88.816 1095.99 Q94.6262 1095.99 97.6817 1100.59 Q100.76 1105.18 100.76 1113.93 Q100.76 1122.65 97.6817 1127.26 Q94.6262 1131.84 88.816 1131.84 Q83.0058 1131.84 79.9272 1127.26 Q76.8716 1122.65 76.8716 1113.93 Q76.8716 1105.18 79.9272 1100.59 Q83.0058 1095.99 88.816 1095.99 Z" fill="#000000" fill-rule="evenodd" fill-opacity="1" /><path clip-path="url(#clip790)" d="M 0 0 M115.83 1099.69 Q112.219 1099.69 110.39 1103.26 Q108.584 1106.8 108.584 1113.93 Q108.584 1121.03 110.39 1124.6 Q112.219 1128.14 115.83 1128.14 Q119.464 1128.14 121.27 1124.6 Q123.098 1121.03 123.098 1113.93 Q123.098 1106.8 121.27 1103.26 Q119.464 1099.69 115.83 1099.69 M115.83 1095.99 Q121.64 1095.99 124.695 1100.59 Q127.774 1105.18 127.774 1113.93 Q127.774 1122.65 124.695 1127.26 Q121.64 1131.84 115.83 1131.84 Q110.02 1131.84 106.941 1127.26 Q103.885 1122.65 103.885 1113.93 Q103.885 1105.18 106.941 1100.59 Q110.02 1095.99 115.83 1095.99 Z" fill="#000000" fill-rule="evenodd" fill-opacity="1" /><path clip-path="url(#clip790)" d="M 0 0 M57.4273 793.256 L73.7466 793.256 L73.7466 797.191 L51.8023 797.191 L51.8023 793.256 Q54.4643 790.502 59.0476 785.872 Q63.6541 781.219 64.8346 779.877 Q67.08 777.354 67.9596 775.617 Q68.8624 773.858 68.8624 772.168 Q68.8624 769.414 66.918 767.678 Q64.9967 765.942 61.8948 765.942 Q59.6958 765.942 57.2421 766.705 Q54.8115 767.469 52.0338 769.02 L52.0338 764.298 Q54.8578 763.164 57.3115 762.585 Q59.7652 762.006 61.8023 762.006 Q67.1726 762.006 70.367 764.692 Q73.5614 767.377 73.5614 771.867 Q73.5614 773.997 72.7513 775.918 Q71.9642 777.817 69.8578 780.409 Q69.2791 781.08 66.1772 784.298 Q63.0754 787.492 57.4273 793.256 Z" fill="#000000" fill-rule="evenodd" fill-opacity="1" /><path clip-path="url(#clip790)" d="M 0 0 M88.816 765.71 Q85.2049 765.71 83.3762 769.275 Q81.5707 772.817 81.5707 779.946 Q81.5707 787.053 83.3762 790.617 Q85.2049 794.159 88.816 794.159 Q92.4502 794.159 94.2558 790.617 Q96.0845 787.053 96.0845 779.946 Q96.0845 772.817 94.2558 769.275 Q92.4502 765.71 88.816 765.71 M88.816 762.006 Q94.6262 762.006 97.6817 766.613 Q100.76 771.196 100.76 779.946 Q100.76 788.673 97.6817 793.279 Q94.6262 797.863 88.816 797.863 Q83.0058 797.863 79.9272 793.279 Q76.8716 788.673 76.8716 779.946 Q76.8716 771.196 79.9272 766.613 Q83.0058 762.006 88.816 762.006 Z" fill="#000000" fill-rule="evenodd" fill-opacity="1" /><path clip-path="url(#clip790)" d="M 0 0 M115.83 765.71 Q112.219 765.71 110.39 769.275 Q108.584 772.817 108.584 779.946 Q108.584 787.053 110.39 790.617 Q112.219 794.159 115.83 794.159 Q119.464 794.159 121.27 790.617 Q123.098 787.053 123.098 779.946 Q123.098 772.817 121.27 769.275 Q119.464 765.71 115.83 765.71 M115.83 762.006 Q121.64 762.006 124.695 766.613 Q127.774 771.196 127.774 779.946 Q127.774 788.673 124.695 793.279 Q121.64 797.863 115.83 797.863 Q110.02 797.863 106.941 793.279 Q103.885 788.673 103.885 779.946 Q103.885 771.196 106.941 766.613 Q110.02 762.006 115.83 762.006 Z" fill="#000000" fill-rule="evenodd" fill-opacity="1" /><path clip-path="url(#clip790)" d="M 0 0 M66.617 444.576 Q69.9735 445.294 71.8485 447.563 Q73.7466 449.831 73.7466 453.164 Q73.7466 458.28 70.2281 461.081 Q66.7096 463.882 60.2282 463.882 Q58.0523 463.882 55.7375 463.442 Q53.4458 463.025 50.9921 462.169 L50.9921 457.655 Q52.9366 458.789 55.2514 459.368 Q57.5662 459.947 60.0893 459.947 Q64.4874 459.947 66.7791 458.211 Q69.0939 456.475 69.0939 453.164 Q69.0939 450.109 66.9411 448.396 Q64.8115 446.66 60.9921 446.66 L56.9643 446.66 L56.9643 442.817 L61.1773 442.817 Q64.6263 442.817 66.455 441.451 Q68.2837 440.063 68.2837 437.47 Q68.2837 434.808 66.3856 433.396 Q64.5106 431.961 60.9921 431.961 Q59.0708 431.961 56.8717 432.377 Q54.6727 432.794 52.0338 433.674 L52.0338 429.507 Q54.6958 428.766 57.0106 428.396 Q59.3486 428.026 61.4087 428.026 Q66.7328 428.026 69.8346 430.456 Q72.9365 432.864 72.9365 436.984 Q72.9365 439.854 71.2929 441.845 Q69.6494 443.813 66.617 444.576 Z" fill="#000000" fill-rule="evenodd" fill-opacity="1" /><path clip-path="url(#clip790)" d="M 0 0 M88.816 431.729 Q85.2049 431.729 83.3762 435.294 Q81.5707 438.836 81.5707 445.965 Q81.5707 453.072 83.3762 456.637 Q85.2049 460.178 88.816 460.178 Q92.4502 460.178 94.2558 456.637 Q96.0845 453.072 96.0845 445.965 Q96.0845 438.836 94.2558 435.294 Q92.4502 431.729 88.816 431.729 M88.816 428.026 Q94.6262 428.026 97.6817 432.632 Q100.76 437.215 100.76 445.965 Q100.76 454.692 97.6817 459.299 Q94.6262 463.882 88.816 463.882 Q83.0058 463.882 79.9272 459.299 Q76.8716 454.692 76.8716 445.965 Q76.8716 437.215 79.9272 432.632 Q83.0058 428.026 88.816 428.026 Z" fill="#000000" fill-rule="evenodd" fill-opacity="1" /><path clip-path="url(#clip790)" d="M 0 0 M115.83 431.729 Q112.219 431.729 110.39 435.294 Q108.584 438.836 108.584 445.965 Q108.584 453.072 110.39 456.637 Q112.219 460.178 115.83 460.178 Q119.464 460.178 121.27 456.637 Q123.098 453.072 123.098 445.965 Q123.098 438.836 121.27 435.294 Q119.464 431.729 115.83 431.729 M115.83 428.026 Q121.64 428.026 124.695 432.632 Q127.774 437.215 127.774 445.965 Q127.774 454.692 124.695 459.299 Q121.64 463.882 115.83 463.882 Q110.02 463.882 106.941 459.299 Q103.885 454.692 103.885 445.965 Q103.885 437.215 106.941 432.632 Q110.02 428.026 115.83 428.026 Z" fill="#000000" fill-rule="evenodd" fill-opacity="1" /><path clip-path="url(#clip790)" d="M 0 0 M1023.13 14.0809 L1023.13 22.0612 Q1018.47 19.8332 1014.34 18.7395 Q1010.21 17.6457 1006.36 17.6457 Q999.676 17.6457 996.03 20.2383 Q992.424 22.8309 992.424 27.611 Q992.424 31.6214 994.814 33.6873 Q997.245 35.7128 1003.97 36.9686 L1008.91 37.9813 Q1018.07 39.7232 1022.4 44.1387 Q1026.78 48.5136 1026.78 55.8863 Q1026.78 64.6767 1020.86 69.2137 Q1014.99 73.7508 1003.6 73.7508 Q999.311 73.7508 994.45 72.7785 Q989.629 71.8063 984.444 69.9024 L984.444 61.4765 Q989.427 64.2716 994.207 65.6895 Q998.987 67.1073 1003.6 67.1073 Q1010.61 67.1073 1014.42 64.3527 Q1018.23 61.598 1018.23 56.4939 Q1018.23 52.0379 1015.47 49.5264 Q1012.76 47.0148 1006.52 45.759 L1001.54 44.7868 Q992.384 42.9639 988.293 39.075 Q984.201 35.1862 984.201 28.2591 Q984.201 20.2383 989.832 15.6203 Q995.503 11.0023 1005.43 11.0023 Q1009.68 11.0023 1014.1 11.7719 Q1018.51 12.5416 1023.13 14.0809 Z" fill="#000000" fill-rule="evenodd" fill-opacity="1" /><path clip-path="url(#clip790)" d="M 0 0 M1052.18 32.4315 Q1046.18 32.4315 1042.7 37.1306 Q1039.21 41.7891 1039.21 49.9314 Q1039.21 58.0738 1042.66 62.7728 Q1046.14 67.4314 1052.18 67.4314 Q1058.13 67.4314 1061.61 62.7323 Q1065.1 58.0333 1065.1 49.9314 Q1065.1 41.8701 1061.61 37.1711 Q1058.13 32.4315 1052.18 32.4315 M1052.18 26.1121 Q1061.9 26.1121 1067.45 32.4315 Q1073 38.7509 1073 49.9314 Q1073 61.0714 1067.45 67.4314 Q1061.9 73.7508 1052.18 73.7508 Q1042.41 73.7508 1036.86 67.4314 Q1031.35 61.0714 1031.35 49.9314 Q1031.35 38.7509 1036.86 32.4315 Q1042.41 26.1121 1052.18 26.1121 Z" fill="#000000" fill-rule="evenodd" fill-opacity="1" /><path clip-path="url(#clip790)" d="M 0 0 M1113.38 49.9314 Q1113.38 41.7081 1109.98 37.0496 Q1106.62 32.3505 1100.71 32.3505 Q1094.79 32.3505 1091.39 37.0496 Q1088.03 41.7081 1088.03 49.9314 Q1088.03 58.1548 1091.39 62.8538 Q1094.79 67.5124 1100.71 67.5124 Q1106.62 67.5124 1109.98 62.8538 Q1113.38 58.1548 1113.38 49.9314 M1088.03 34.0924 Q1090.38 30.0415 1093.94 28.0971 Q1097.55 26.1121 1102.53 26.1121 Q1110.79 26.1121 1115.94 32.6746 Q1121.12 39.2371 1121.12 49.9314 Q1121.12 60.6258 1115.94 67.1883 Q1110.79 73.7508 1102.53 73.7508 Q1097.55 73.7508 1093.94 71.8063 Q1090.38 69.8214 1088.03 65.7705 L1088.03 72.576 L1080.53 72.576 L1080.53 9.54393 L1088.03 9.54393 L1088.03 34.0924 Z" fill="#000000" fill-rule="evenodd" fill-opacity="1" /><path clip-path="url(#clip790)" d="M 0 0 M1155.23 34.1734 Q1153.97 33.4443 1152.48 33.1202 Q1151.02 32.7556 1149.23 32.7556 Q1142.92 32.7556 1139.51 36.8875 Q1136.15 40.9789 1136.15 48.6757 L1136.15 72.576 L1128.66 72.576 L1128.66 27.2059 L1136.15 27.2059 L1136.15 34.2544 Q1138.5 30.1225 1142.27 28.1376 Q1146.03 26.1121 1151.42 26.1121 Q1152.19 26.1121 1153.12 26.2337 Q1154.06 26.3147 1155.19 26.5172 L1155.23 34.1734 Z" fill="#000000" fill-rule="evenodd" fill-opacity="1" /><path clip-path="url(#clip790)" d="M 0 0 M1200.03 48.0275 L1200.03 51.6733 L1165.76 51.6733 Q1166.25 59.3701 1170.38 63.421 Q1174.55 67.4314 1181.97 67.4314 Q1186.26 67.4314 1190.27 66.3781 Q1194.32 65.3249 1198.29 63.2184 L1198.29 70.267 Q1194.28 71.9684 1190.07 72.8596 Q1185.86 73.7508 1181.52 73.7508 Q1170.66 73.7508 1164.3 67.4314 Q1157.98 61.1119 1157.98 50.3365 Q1157.98 39.1965 1163.98 32.6746 Q1170.02 26.1121 1180.22 26.1121 Q1189.38 26.1121 1194.69 32.0264 Q1200.03 37.9003 1200.03 48.0275 M1192.58 45.84 Q1192.5 39.7232 1189.14 36.0774 Q1185.81 32.4315 1180.31 32.4315 Q1174.07 32.4315 1170.3 35.9558 Q1166.57 39.4801 1166.01 45.8805 L1192.58 45.84 Z" fill="#000000" fill-rule="evenodd" fill-opacity="1" /><path clip-path="url(#clip790)" d="M 0 0 M1202.5 27.2059 L1210.4 27.2059 L1224.58 65.2844 L1238.76 27.2059 L1246.66 27.2059 L1229.65 72.576 L1219.52 72.576 L1202.5 27.2059 Z" fill="#000000" fill-rule="evenodd" fill-opacity="1" /><path clip-path="url(#clip790)" d="M 0 0 M1254.48 27.2059 L1261.93 27.2059 L1261.93 72.576 L1254.48 72.576 L1254.48 27.2059 M1254.48 9.54393 L1261.93 9.54393 L1261.93 18.9825 L1254.48 18.9825 L1254.48 9.54393 Z" fill="#000000" fill-rule="evenodd" fill-opacity="1" /><path clip-path="url(#clip790)" d="M 0 0 M1264.4 27.2059 L1272.3 27.2059 L1286.48 65.2844 L1300.66 27.2059 L1308.56 27.2059 L1291.54 72.576 L1281.42 72.576 L1264.4 27.2059 Z" fill="#000000" fill-rule="evenodd" fill-opacity="1" /><path clip-path="url(#clip790)" d="M 0 0 M1316.38 27.2059 L1323.83 27.2059 L1323.83 72.576 L1316.38 72.576 L1316.38 27.2059 M1316.38 9.54393 L1323.83 9.54393 L1323.83 18.9825 L1316.38 18.9825 L1316.38 9.54393 Z" fill="#000000" fill-rule="evenodd" fill-opacity="1" /><path clip-path="url(#clip790)" d="M 0 0 M1370.45 48.0275 L1370.45 51.6733 L1336.18 51.6733 Q1336.67 59.3701 1340.8 63.421 Q1344.97 67.4314 1352.39 67.4314 Q1356.68 67.4314 1360.69 66.3781 Q1364.74 65.3249 1368.71 63.2184 L1368.71 70.267 Q1364.7 71.9684 1360.49 72.8596 Q1356.28 73.7508 1351.94 73.7508 Q1341.09 73.7508 1334.73 67.4314 Q1328.41 61.1119 1328.41 50.3365 Q1328.41 39.1965 1334.4 32.6746 Q1340.44 26.1121 1350.65 26.1121 Q1359.8 26.1121 1365.11 32.0264 Q1370.45 37.9003 1370.45 48.0275 M1363 45.84 Q1362.92 39.7232 1359.56 36.0774 Q1356.24 32.4315 1350.73 32.4315 Q1344.49 32.4315 1340.72 35.9558 Q1336.99 39.4801 1336.43 45.8805 L1363 45.84 Z" fill="#000000" fill-rule="evenodd" fill-opacity="1" /><path clip-path="url(#clip790)" d="M 0 0 M1415.99 45.1919 L1415.99 72.576 L1408.53 72.576 L1408.53 45.4349 Q1408.53 38.994 1406.02 35.7938 Q1403.51 32.5936 1398.49 32.5936 Q1392.45 32.5936 1388.97 36.4419 Q1385.48 40.2903 1385.48 46.9338 L1385.48 72.576 L1377.99 72.576 L1377.99 27.2059 L1385.48 27.2059 L1385.48 34.2544 Q1388.16 30.163 1391.76 28.1376 Q1395.41 26.1121 1400.15 26.1121 Q1407.97 26.1121 1411.98 30.9732 Q1415.99 35.7938 1415.99 45.1919 Z" fill="#000000" fill-rule="evenodd" fill-opacity="1" /><path clip-path="url(#clip790)" d="M 0 0 M1431.18 14.324 L1431.18 27.2059 L1446.53 27.2059 L1446.53 32.9987 L1431.18 32.9987 L1431.18 57.6282 Q1431.18 63.1779 1432.68 64.7578 Q1434.22 66.3376 1438.87 66.3376 L1446.53 66.3376 L1446.53 72.576 L1438.87 72.576 Q1430.25 72.576 1426.96 69.3758 Q1423.68 66.1351 1423.68 57.6282 L1423.68 32.9987 L1418.21 32.9987 L1418.21 27.2059 L1423.68 27.2059 L1423.68 14.324 L1431.18 14.324 Z" fill="#000000" fill-rule="evenodd" fill-opacity="1" /><path clip-path="url(#clip790)" d="M 0 0 M1493.16 48.0275 L1493.16 51.6733 L1458.89 51.6733 Q1459.37 59.3701 1463.5 63.421 Q1467.68 67.4314 1475.09 67.4314 Q1479.38 67.4314 1483.39 66.3781 Q1487.44 65.3249 1491.41 63.2184 L1491.41 70.267 Q1487.4 71.9684 1483.19 72.8596 Q1478.98 73.7508 1474.64 73.7508 Q1463.79 73.7508 1457.43 67.4314 Q1451.11 61.1119 1451.11 50.3365 Q1451.11 39.1965 1457.1 32.6746 Q1463.14 26.1121 1473.35 26.1121 Q1482.5 26.1121 1487.81 32.0264 Q1493.16 37.9003 1493.16 48.0275 M1485.7 45.84 Q1485.62 39.7232 1482.26 36.0774 Q1478.94 32.4315 1473.43 32.4315 Q1467.19 32.4315 1463.42 35.9558 Q1459.7 39.4801 1459.13 45.8805 L1485.7 45.84 Z" fill="#000000" fill-rule="evenodd" fill-opacity="1" /><path clip-path="url(#clip790)" d="M 0 0 M1529.9 28.5427 L1529.9 35.5912 Q1526.74 33.9709 1523.34 33.1607 Q1519.93 32.3505 1516.29 32.3505 Q1510.74 32.3505 1507.94 34.0519 Q1505.19 35.7533 1505.19 39.156 Q1505.19 41.7486 1507.17 43.2475 Q1509.16 44.7058 1515.15 46.0426 L1517.71 46.6097 Q1525.64 48.3111 1528.97 51.4303 Q1532.33 54.509 1532.33 60.0587 Q1532.33 66.3781 1527.31 70.0644 Q1522.32 73.7508 1513.57 73.7508 Q1509.93 73.7508 1505.96 73.0216 Q1502.03 72.3329 1497.65 70.9151 L1497.65 63.2184 Q1501.79 65.3654 1505.8 66.4591 Q1509.81 67.5124 1513.74 67.5124 Q1519 67.5124 1521.84 65.73 Q1524.67 63.9071 1524.67 60.6258 Q1524.67 57.5877 1522.61 55.9673 Q1520.58 54.3469 1513.65 52.8481 L1511.06 52.2405 Q1504.13 50.7821 1501.06 47.7845 Q1497.98 44.7463 1497.98 39.4801 Q1497.98 33.0797 1502.51 29.5959 Q1507.05 26.1121 1515.4 26.1121 Q1519.53 26.1121 1523.17 26.7198 Q1526.82 27.3274 1529.9 28.5427 Z" fill="#000000" fill-rule="evenodd" fill-opacity="1" /><path clip-path="url(#clip792)" d="
M284.172 1083.83 L284.172 1447.87 L1207 1447.87 L1207 1083.83 L284.172 1083.83 L284.172 1083.83  Z
  " fill="#009af9" fill-rule="evenodd" fill-opacity="1"/>
<polyline clip-path="url(#clip792)" style="stroke:#000000; stroke-width:4; stroke-opacity:1; fill:none" points="
  284.172,1083.83 284.172,1447.87 1207,1447.87 1207,1083.83 284.172,1083.83 
  "/>
<path clip-path="url(#clip792)" d="
M796.853 1447.87 L796.853 1447.87 L1719.68 1447.87 L1719.68 1447.87 L796.853 1447.87 L796.853 1447.87  Z
  " fill="#009af9" fill-rule="evenodd" fill-opacity="1"/>
<polyline clip-path="url(#clip792)" style="stroke:#000000; stroke-width:4; stroke-opacity:1; fill:none" points="
  796.853,1447.87 796.853,1447.87 1719.68,1447.87 796.853,1447.87 
  "/>
<path clip-path="url(#clip792)" d="
M1309.53 162.047 L1309.53 1447.87 L2232.36 1447.87 L2232.36 162.047 L1309.53 162.047 L1309.53 162.047  Z
  " fill="#009af9" fill-rule="evenodd" fill-opacity="1"/>
<polyline clip-path="url(#clip792)" style="stroke:#000000; stroke-width:4; stroke-opacity:1; fill:none" points="
  1309.53,162.047 1309.53,1447.87 2232.36,1447.87 2232.36,162.047 1309.53,162.047 
  "/>
</svg>
