<?xml version="1.0" encoding="utf-8"?>
<svg xmlns="http://www.w3.org/2000/svg" xmlns:xlink="http://www.w3.org/1999/xlink" width="600" height="400" viewBox="0 0 2400 1600">
<defs>
  <clipPath id="clip320">
    <rect x="0" y="0" width="2400" height="1600"/>
  </clipPath>
</defs>
<path clip-path="url(#clip320)" d="
M0 1600 L2400 1600 L2400 0 L0 0  Z
  " fill="#ffffff" fill-rule="evenodd" fill-opacity="1"/>
<defs>
  <clipPath id="clip321">
    <rect x="480" y="0" width="1681" height="1600"/>
  </clipPath>
</defs>
<path clip-path="url(#clip320)" d="
M185.846 1482.13 L2352.76 1482.13 L2352.76 149.392 L185.846 149.392  Z
  " fill="#ffffff" fill-rule="evenodd" fill-opacity="1"/>
<defs>
  <clipPath id="clip322">
    <rect x="185" y="149" width="2168" height="1334"/>
  </clipPath>
</defs>
<polyline clip-path="url(#clip322)" style="stroke:#000000; stroke-width:2; stroke-opacity:0.1; fill:none" points="
  677.543,1482.13 677.543,149.392 
  "/>
<polyline clip-path="url(#clip322)" style="stroke:#000000; stroke-width:2; stroke-opacity:0.1; fill:none" points="
  1215.5,1482.13 1215.5,149.392 
  "/>
<polyline clip-path="url(#clip322)" style="stroke:#000000; stroke-width:2; stroke-opacity:0.1; fill:none" points="
  1753.47,1482.13 1753.47,149.392 
  "/>
<polyline clip-path="url(#clip322)" style="stroke:#000000; stroke-width:2; stroke-opacity:0.1; fill:none" points="
  2291.43,1482.13 2291.43,149.392 
  "/>
<polyline clip-path="url(#clip320)" style="stroke:#000000; stroke-width:4; stroke-opacity:1; fill:none" points="
  185.846,1482.13 2352.76,1482.13 
  "/>
<polyline clip-path="url(#clip320)" style="stroke:#000000; stroke-width:4; stroke-opacity:1; fill:none" points="
  677.543,1482.13 677.543,1466.14 
  "/>
<polyline clip-path="url(#clip320)" style="stroke:#000000; stroke-width:4; stroke-opacity:1; fill:none" points="
  1215.5,1482.13 1215.5,1466.14 
  "/>
<polyline clip-path="url(#clip320)" style="stroke:#000000; stroke-width:4; stroke-opacity:1; fill:none" points="
  1753.47,1482.13 1753.47,1466.14 
  "/>
<polyline clip-path="url(#clip320)" style="stroke:#000000; stroke-width:4; stroke-opacity:1; fill:none" points="
  2291.43,1482.13 2291.43,1466.14 
  "/>
<path clip-path="url(#clip320)" d="M 0 0 M666.605 1509.1 L687.256 1509.1 L687.256 1513.53 L671.423 1513.53 L671.423 1523.06 Q672.569 1522.67 673.715 1522.49 Q674.861 1522.28 676.006 1522.28 Q682.517 1522.28 686.319 1525.85 Q690.121 1529.42 690.121 1535.51 Q690.121 1541.79 686.215 1545.28 Q682.308 1548.74 675.199 1548.74 Q672.751 1548.74 670.199 1548.32 Q667.673 1547.91 664.965 1547.07 L664.965 1541.79 Q667.309 1543.06 669.809 1543.69 Q672.309 1544.31 675.095 1544.31 Q679.6 1544.31 682.23 1541.94 Q684.861 1539.57 684.861 1535.51 Q684.861 1531.45 682.23 1529.08 Q679.6 1526.71 675.095 1526.71 Q672.986 1526.71 670.876 1527.18 Q668.793 1527.65 666.605 1528.64 L666.605 1509.1 Z" fill="#bebebe" fill-rule="evenodd" fill-opacity="1" /><path clip-path="url(#clip320)" d="M 0 0 M1189.49 1543.56 L1198.08 1543.56 L1198.08 1513.9 L1188.73 1515.77 L1188.73 1510.98 L1198.03 1509.1 L1203.29 1509.1 L1203.29 1543.56 L1211.88 1543.56 L1211.88 1547.98 L1189.49 1547.98 L1189.49 1543.56 Z" fill="#bebebe" fill-rule="evenodd" fill-opacity="1" /><path clip-path="url(#clip320)" d="M 0 0 M1228.84 1512.57 Q1224.78 1512.57 1222.72 1516.58 Q1220.69 1520.56 1220.69 1528.58 Q1220.69 1536.58 1222.72 1540.59 Q1224.78 1544.57 1228.84 1544.57 Q1232.93 1544.57 1234.96 1540.59 Q1237.01 1536.58 1237.01 1528.58 Q1237.01 1520.56 1234.96 1516.58 Q1232.93 1512.57 1228.84 1512.57 M1228.84 1508.4 Q1235.37 1508.4 1238.81 1513.58 Q1242.28 1518.74 1242.28 1528.58 Q1242.28 1538.4 1238.81 1543.58 Q1235.37 1548.74 1228.84 1548.74 Q1222.3 1548.74 1218.84 1543.58 Q1215.4 1538.4 1215.4 1528.58 Q1215.4 1518.74 1218.84 1513.58 Q1222.3 1508.4 1228.84 1508.4 Z" fill="#bebebe" fill-rule="evenodd" fill-opacity="1" /><path clip-path="url(#clip320)" d="M 0 0 M1728.01 1543.56 L1736.6 1543.56 L1736.6 1513.9 L1727.26 1515.77 L1727.26 1510.98 L1736.55 1509.1 L1741.81 1509.1 L1741.81 1543.56 L1750.41 1543.56 L1750.41 1547.98 L1728.01 1547.98 L1728.01 1543.56 Z" fill="#bebebe" fill-rule="evenodd" fill-opacity="1" /><path clip-path="url(#clip320)" d="M 0 0 M1756.16 1509.1 L1776.81 1509.1 L1776.81 1513.53 L1760.98 1513.53 L1760.98 1523.06 Q1762.13 1522.67 1763.27 1522.49 Q1764.42 1522.28 1765.56 1522.28 Q1772.07 1522.28 1775.88 1525.85 Q1779.68 1529.42 1779.68 1535.51 Q1779.68 1541.79 1775.77 1545.28 Q1771.86 1548.74 1764.76 1548.74 Q1762.31 1548.74 1759.76 1548.32 Q1757.23 1547.91 1754.52 1547.07 L1754.52 1541.79 Q1756.86 1543.06 1759.36 1543.69 Q1761.86 1544.31 1764.65 1544.31 Q1769.16 1544.31 1771.79 1541.94 Q1774.42 1539.57 1774.42 1535.51 Q1774.42 1531.45 1771.79 1529.08 Q1769.16 1526.71 1764.65 1526.71 Q1762.54 1526.71 1760.43 1527.18 Q1758.35 1527.65 1756.16 1528.64 L1756.16 1509.1 Z" fill="#bebebe" fill-rule="evenodd" fill-opacity="1" /><path clip-path="url(#clip320)" d="M 0 0 M2270.22 1543.56 L2288.58 1543.56 L2288.58 1547.98 L2263.89 1547.98 L2263.89 1543.56 Q2266.88 1540.46 2272.04 1535.25 Q2277.22 1530.02 2278.55 1528.5 Q2281.08 1525.67 2282.07 1523.71 Q2283.08 1521.73 2283.08 1519.83 Q2283.08 1516.73 2280.89 1514.78 Q2278.73 1512.83 2275.24 1512.83 Q2272.77 1512.83 2270.01 1513.69 Q2267.27 1514.55 2264.15 1516.29 L2264.15 1510.98 Q2267.33 1509.7 2270.09 1509.05 Q2272.85 1508.4 2275.14 1508.4 Q2281.18 1508.4 2284.77 1511.42 Q2288.37 1514.44 2288.37 1519.49 Q2288.37 1521.89 2287.46 1524.05 Q2286.57 1526.19 2284.2 1529.1 Q2283.55 1529.86 2280.06 1533.48 Q2276.57 1537.07 2270.22 1543.56 Z" fill="#bebebe" fill-rule="evenodd" fill-opacity="1" /><path clip-path="url(#clip320)" d="M 0 0 M2305.53 1512.57 Q2301.47 1512.57 2299.41 1516.58 Q2297.38 1520.56 2297.38 1528.58 Q2297.38 1536.58 2299.41 1540.59 Q2301.47 1544.57 2305.53 1544.57 Q2309.62 1544.57 2311.65 1540.59 Q2313.71 1536.58 2313.71 1528.58 Q2313.71 1520.56 2311.65 1516.58 Q2309.62 1512.57 2305.53 1512.57 M2305.53 1508.4 Q2312.07 1508.4 2315.5 1513.58 Q2318.97 1518.74 2318.97 1528.58 Q2318.97 1538.4 2315.5 1543.58 Q2312.07 1548.74 2305.53 1548.74 Q2298.99 1548.74 2295.53 1543.58 Q2292.09 1538.4 2292.09 1528.58 Q2292.09 1518.74 2295.53 1513.58 Q2298.99 1508.4 2305.53 1508.4 Z" fill="#bebebe" fill-rule="evenodd" fill-opacity="1" /><polyline clip-path="url(#clip322)" style="stroke:#000000; stroke-width:2; stroke-opacity:0.1; fill:none" points="
  185.846,1451.2 2352.76,1451.2 
  "/>
<polyline clip-path="url(#clip322)" style="stroke:#000000; stroke-width:2; stroke-opacity:0.1; fill:none" points="
  185.846,1125.76 2352.76,1125.76 
  "/>
<polyline clip-path="url(#clip322)" style="stroke:#000000; stroke-width:2; stroke-opacity:0.1; fill:none" points="
  185.846,800.31 2352.76,800.31 
  "/>
<polyline clip-path="url(#clip322)" style="stroke:#000000; stroke-width:2; stroke-opacity:0.1; fill:none" points="
  185.846,474.863 2352.76,474.863 
  "/>
<polyline clip-path="url(#clip322)" style="stroke:#000000; stroke-width:2; stroke-opacity:0.1; fill:none" points="
  185.846,149.416 2352.76,149.416 
  "/>
<polyline clip-path="url(#clip320)" style="stroke:#000000; stroke-width:4; stroke-opacity:1; fill:none" points="
  185.846,1482.13 185.846,149.392 
  "/>
<polyline clip-path="url(#clip320)" style="stroke:#000000; stroke-width:4; stroke-opacity:1; fill:none" points="
  185.846,1451.2 211.849,1451.2 
  "/>
<polyline clip-path="url(#clip320)" style="stroke:#000000; stroke-width:4; stroke-opacity:1; fill:none" points="
  185.846,1125.76 211.849,1125.76 
  "/>
<polyline clip-path="url(#clip320)" style="stroke:#000000; stroke-width:4; stroke-opacity:1; fill:none" points="
  185.846,800.31 211.849,800.31 
  "/>
<polyline clip-path="url(#clip320)" style="stroke:#000000; stroke-width:4; stroke-opacity:1; fill:none" points="
  185.846,474.863 211.849,474.863 
  "/>
<polyline clip-path="url(#clip320)" style="stroke:#000000; stroke-width:4; stroke-opacity:1; fill:none" points="
  185.846,149.416 211.849,149.416 
  "/>
<path clip-path="url(#clip320)" d="M 0 0 M64.4296 1435.23 Q60.3671 1435.23 58.3098 1439.24 Q56.2786 1443.22 56.2786 1451.24 Q56.2786 1459.24 58.3098 1463.25 Q60.3671 1467.23 64.4296 1467.23 Q68.5181 1467.23 70.5493 1463.25 Q72.6066 1459.24 72.6066 1451.24 Q72.6066 1443.22 70.5493 1439.24 Q68.5181 1435.23 64.4296 1435.23 M64.4296 1431.06 Q70.966 1431.06 74.4035 1436.24 Q77.867 1441.4 77.867 1451.24 Q77.867 1461.06 74.4035 1466.24 Q70.966 1471.4 64.4296 1471.4 Q57.8931 1471.4 54.4296 1466.24 Q50.9921 1461.06 50.9921 1451.24 Q50.9921 1441.4 54.4296 1436.24 Q57.8931 1431.06 64.4296 1431.06 Z" fill="#bebebe" fill-rule="evenodd" fill-opacity="1" /><path clip-path="url(#clip320)" d="M 0 0 M83.5701 1464.03 L89.0648 1464.03 L89.0648 1470.64 L83.5701 1470.64 L83.5701 1464.03 Z" fill="#bebebe" fill-rule="evenodd" fill-opacity="1" /><path clip-path="url(#clip320)" d="M 0 0 M106.018 1435.23 Q101.955 1435.23 99.8981 1439.24 Q97.8669 1443.22 97.8669 1451.24 Q97.8669 1459.24 99.8981 1463.25 Q101.955 1467.23 106.018 1467.23 Q110.106 1467.23 112.138 1463.25 Q114.195 1459.24 114.195 1451.24 Q114.195 1443.22 112.138 1439.24 Q110.106 1435.23 106.018 1435.23 M106.018 1431.06 Q112.554 1431.06 115.992 1436.24 Q119.455 1441.4 119.455 1451.24 Q119.455 1461.06 115.992 1466.24 Q112.554 1471.4 106.018 1471.4 Q99.4814 1471.4 96.0179 1466.24 Q92.5804 1461.06 92.5804 1451.24 Q92.5804 1441.4 96.0179 1436.24 Q99.4814 1431.06 106.018 1431.06 Z" fill="#bebebe" fill-rule="evenodd" fill-opacity="1" /><path clip-path="url(#clip320)" d="M 0 0 M136.408 1435.23 Q132.346 1435.23 130.289 1439.24 Q128.257 1443.22 128.257 1451.24 Q128.257 1459.24 130.289 1463.25 Q132.346 1467.23 136.408 1467.23 Q140.497 1467.23 142.528 1463.25 Q144.585 1459.24 144.585 1451.24 Q144.585 1443.22 142.528 1439.24 Q140.497 1435.23 136.408 1435.23 M136.408 1431.06 Q142.945 1431.06 146.382 1436.24 Q149.846 1441.4 149.846 1451.24 Q149.846 1461.06 146.382 1466.24 Q142.945 1471.4 136.408 1471.4 Q129.872 1471.4 126.408 1466.24 Q122.971 1461.06 122.971 1451.24 Q122.971 1441.4 126.408 1436.24 Q129.872 1431.06 136.408 1431.06 Z" fill="#bebebe" fill-rule="evenodd" fill-opacity="1" /><path clip-path="url(#clip320)" d="M 0 0 M67.3462 1109.78 Q63.2837 1109.78 61.2264 1113.79 Q59.1952 1117.77 59.1952 1125.8 Q59.1952 1133.79 61.2264 1137.8 Q63.2837 1141.79 67.3462 1141.79 Q71.4347 1141.79 73.466 1137.8 Q75.5232 1133.79 75.5232 1125.8 Q75.5232 1117.77 73.466 1113.79 Q71.4347 1109.78 67.3462 1109.78 M67.3462 1105.61 Q73.8826 1105.61 77.3201 1110.8 Q80.7836 1115.95 80.7836 1125.8 Q80.7836 1135.61 77.3201 1140.8 Q73.8826 1145.95 67.3462 1145.95 Q60.8098 1145.95 57.3463 1140.8 Q53.9088 1135.61 53.9088 1125.8 Q53.9088 1115.95 57.3463 1110.8 Q60.8098 1105.61 67.3462 1105.61 Z" fill="#bebebe" fill-rule="evenodd" fill-opacity="1" /><path clip-path="url(#clip320)" d="M 0 0 M86.4867 1138.58 L91.9815 1138.58 L91.9815 1145.2 L86.4867 1145.2 L86.4867 1138.58 Z" fill="#bebebe" fill-rule="evenodd" fill-opacity="1" /><path clip-path="url(#clip320)" d="M 0 0 M102.216 1140.77 L120.575 1140.77 L120.575 1145.2 L95.8877 1145.2 L95.8877 1140.77 Q98.8825 1137.67 104.039 1132.46 Q109.221 1127.23 110.549 1125.72 Q113.075 1122.88 114.065 1120.93 Q115.08 1118.95 115.08 1117.05 Q115.08 1113.95 112.893 1111.99 Q110.731 1110.04 107.242 1110.04 Q104.768 1110.04 102.007 1110.9 Q99.2731 1111.76 96.1481 1113.5 L96.1481 1108.19 Q99.3252 1106.92 102.086 1106.26 Q104.846 1105.61 107.138 1105.61 Q113.179 1105.61 116.773 1108.63 Q120.367 1111.66 120.367 1116.71 Q120.367 1119.1 119.455 1121.26 Q118.57 1123.4 116.2 1126.32 Q115.549 1127.07 112.06 1130.69 Q108.57 1134.29 102.216 1140.77 Z" fill="#bebebe" fill-rule="evenodd" fill-opacity="1" /><path clip-path="url(#clip320)" d="M 0 0 M126.33 1106.32 L146.981 1106.32 L146.981 1110.74 L131.148 1110.74 L131.148 1120.27 Q132.294 1119.88 133.44 1119.7 Q134.585 1119.49 135.731 1119.49 Q142.242 1119.49 146.044 1123.06 Q149.846 1126.63 149.846 1132.72 Q149.846 1139 145.94 1142.49 Q142.033 1145.95 134.924 1145.95 Q132.476 1145.95 129.924 1145.54 Q127.398 1145.12 124.69 1144.29 L124.69 1139 Q127.033 1140.27 129.533 1140.9 Q132.033 1141.52 134.82 1141.52 Q139.325 1141.52 141.955 1139.15 Q144.585 1136.79 144.585 1132.72 Q144.585 1128.66 141.955 1126.29 Q139.325 1123.92 134.82 1123.92 Q132.71 1123.92 130.601 1124.39 Q128.518 1124.86 126.33 1125.85 L126.33 1106.32 Z" fill="#bebebe" fill-rule="evenodd" fill-opacity="1" /><path clip-path="url(#clip320)" d="M 0 0 M65.5493 784.333 Q61.4869 784.333 59.4296 788.344 Q57.3983 792.328 57.3983 800.349 Q57.3983 808.344 59.4296 812.354 Q61.4869 816.338 65.5493 816.338 Q69.6379 816.338 71.6691 812.354 Q73.7264 808.344 73.7264 800.349 Q73.7264 792.328 71.6691 788.344 Q69.6379 784.333 65.5493 784.333 M65.5493 780.167 Q72.0858 780.167 75.5232 785.349 Q78.9868 790.505 78.9868 800.349 Q78.9868 810.167 75.5232 815.349 Q72.0858 820.505 65.5493 820.505 Q59.0129 820.505 55.5494 815.349 Q52.1119 810.167 52.1119 800.349 Q52.1119 790.505 55.5494 785.349 Q59.0129 780.167 65.5493 780.167 Z" fill="#bebebe" fill-rule="evenodd" fill-opacity="1" /><path clip-path="url(#clip320)" d="M 0 0 M84.6899 813.135 L90.1846 813.135 L90.1846 819.75 L84.6899 819.75 L84.6899 813.135 Z" fill="#bebebe" fill-rule="evenodd" fill-opacity="1" /><path clip-path="url(#clip320)" d="M 0 0 M95.9398 780.87 L116.591 780.87 L116.591 785.297 L100.757 785.297 L100.757 794.828 Q101.903 794.437 103.049 794.255 Q104.195 794.047 105.341 794.047 Q111.851 794.047 115.653 797.615 Q119.455 801.182 119.455 807.276 Q119.455 813.552 115.549 817.042 Q111.643 820.505 104.534 820.505 Q102.086 820.505 99.5335 820.088 Q97.0075 819.672 94.2992 818.838 L94.2992 813.552 Q96.6429 814.828 99.1429 815.453 Q101.643 816.078 104.429 816.078 Q108.935 816.078 111.565 813.708 Q114.195 811.338 114.195 807.276 Q114.195 803.213 111.565 800.844 Q108.935 798.474 104.429 798.474 Q102.32 798.474 100.211 798.943 Q98.1273 799.411 95.9398 800.401 L95.9398 780.87 Z" fill="#bebebe" fill-rule="evenodd" fill-opacity="1" /><path clip-path="url(#clip320)" d="M 0 0 M136.408 784.333 Q132.346 784.333 130.289 788.344 Q128.257 792.328 128.257 800.349 Q128.257 808.344 130.289 812.354 Q132.346 816.338 136.408 816.338 Q140.497 816.338 142.528 812.354 Q144.585 808.344 144.585 800.349 Q144.585 792.328 142.528 788.344 Q140.497 784.333 136.408 784.333 M136.408 780.167 Q142.945 780.167 146.382 785.349 Q149.846 790.505 149.846 800.349 Q149.846 810.167 146.382 815.349 Q142.945 820.505 136.408 820.505 Q129.872 820.505 126.408 815.349 Q122.971 810.167 122.971 800.349 Q122.971 790.505 126.408 785.349 Q129.872 780.167 136.408 780.167 Z" fill="#bebebe" fill-rule="evenodd" fill-opacity="1" /><path clip-path="url(#clip320)" d="M 0 0 M66.565 458.887 Q62.5025 458.887 60.4452 462.897 Q58.414 466.881 58.414 474.902 Q58.414 482.897 60.4452 486.907 Q62.5025 490.892 66.565 490.892 Q70.6535 490.892 72.6847 486.907 Q74.742 482.897 74.742 474.902 Q74.742 466.881 72.6847 462.897 Q70.6535 458.887 66.565 458.887 M66.565 454.72 Q73.1014 454.72 76.5389 459.902 Q80.0024 465.059 80.0024 474.902 Q80.0024 484.72 76.5389 489.902 Q73.1014 495.058 66.565 495.058 Q60.0285 495.058 56.565 489.902 Q53.1275 484.72 53.1275 474.902 Q53.1275 465.059 56.565 459.902 Q60.0285 454.72 66.565 454.72 Z" fill="#bebebe" fill-rule="evenodd" fill-opacity="1" /><path clip-path="url(#clip320)" d="M 0 0 M85.7055 487.689 L91.2002 487.689 L91.2002 494.303 L85.7055 494.303 L85.7055 487.689 Z" fill="#bebebe" fill-rule="evenodd" fill-opacity="1" /><path clip-path="url(#clip320)" d="M 0 0 M95.5752 455.423 L120.575 455.423 L120.575 457.663 L106.461 494.303 L100.966 494.303 L114.247 459.85 L95.5752 459.85 L95.5752 455.423 Z" fill="#bebebe" fill-rule="evenodd" fill-opacity="1" /><path clip-path="url(#clip320)" d="M 0 0 M126.33 455.423 L146.981 455.423 L146.981 459.85 L131.148 459.85 L131.148 469.381 Q132.294 468.991 133.44 468.809 Q134.585 468.6 135.731 468.6 Q142.242 468.6 146.044 472.168 Q149.846 475.736 149.846 481.829 Q149.846 488.105 145.94 491.595 Q142.033 495.058 134.924 495.058 Q132.476 495.058 129.924 494.642 Q127.398 494.225 124.69 493.392 L124.69 488.105 Q127.033 489.381 129.533 490.006 Q132.033 490.631 134.82 490.631 Q139.325 490.631 141.955 488.262 Q144.585 485.892 144.585 481.829 Q144.585 477.767 141.955 475.397 Q139.325 473.027 134.82 473.027 Q132.71 473.027 130.601 473.496 Q128.518 473.965 126.33 474.954 L126.33 455.423 Z" fill="#bebebe" fill-rule="evenodd" fill-opacity="1" /><path clip-path="url(#clip320)" d="M 0 0 M55.4713 164.429 L64.065 164.429 L64.065 134.768 L54.7161 136.643 L54.7161 131.851 L64.0129 129.976 L69.2733 129.976 L69.2733 164.429 L77.867 164.429 L77.867 168.856 L55.4713 168.856 L55.4713 164.429 Z" fill="#bebebe" fill-rule="evenodd" fill-opacity="1" /><path clip-path="url(#clip320)" d="M 0 0 M83.5701 162.242 L89.0648 162.242 L89.0648 168.856 L83.5701 168.856 L83.5701 162.242 Z" fill="#bebebe" fill-rule="evenodd" fill-opacity="1" /><path clip-path="url(#clip320)" d="M 0 0 M106.018 133.44 Q101.955 133.44 99.8981 137.45 Q97.8669 141.435 97.8669 149.456 Q97.8669 157.45 99.8981 161.461 Q101.955 165.445 106.018 165.445 Q110.106 165.445 112.138 161.461 Q114.195 157.45 114.195 149.456 Q114.195 141.435 112.138 137.45 Q110.106 133.44 106.018 133.44 M106.018 129.273 Q112.554 129.273 115.992 134.456 Q119.455 139.612 119.455 149.456 Q119.455 159.273 115.992 164.455 Q112.554 169.612 106.018 169.612 Q99.4814 169.612 96.0179 164.455 Q92.5804 159.273 92.5804 149.456 Q92.5804 139.612 96.0179 134.456 Q99.4814 129.273 106.018 129.273 Z" fill="#bebebe" fill-rule="evenodd" fill-opacity="1" /><path clip-path="url(#clip320)" d="M 0 0 M136.408 133.44 Q132.346 133.44 130.289 137.45 Q128.257 141.435 128.257 149.456 Q128.257 157.45 130.289 161.461 Q132.346 165.445 136.408 165.445 Q140.497 165.445 142.528 161.461 Q144.585 157.45 144.585 149.456 Q144.585 141.435 142.528 137.45 Q140.497 133.44 136.408 133.44 M136.408 129.273 Q142.945 129.273 146.382 134.456 Q149.846 139.612 149.846 149.456 Q149.846 159.273 146.382 164.455 Q142.945 169.612 136.408 169.612 Q129.872 169.612 126.408 164.455 Q122.971 159.273 122.971 149.456 Q122.971 139.612 126.408 134.456 Q129.872 129.273 136.408 129.273 Z" fill="#bebebe" fill-rule="evenodd" fill-opacity="1" /><path clip-path="url(#clip320)" d="M 0 0 M963.429 20.1156 L963.429 31.516 Q956.774 28.3332 950.871 26.7707 Q944.968 25.2082 939.47 25.2082 Q929.922 25.2082 924.714 28.9119 Q919.563 32.6156 919.563 39.4442 Q919.563 45.1734 922.977 48.1247 Q926.45 51.0182 936.056 52.8122 L943.116 54.259 Q956.195 56.7474 962.387 63.0552 Q968.637 69.3052 968.637 79.8375 Q968.637 92.3953 960.188 98.8768 Q951.797 105.358 935.535 105.358 Q929.401 105.358 922.457 103.969 Q915.57 102.58 908.163 99.8606 L908.163 87.8236 Q915.281 91.8166 922.109 93.8421 Q928.938 95.8675 935.535 95.8675 Q945.547 95.8675 950.987 91.9324 Q956.426 87.9972 956.426 80.7056 Q956.426 74.3399 952.491 70.7519 Q948.614 67.164 939.702 65.37 L932.584 63.9811 Q919.505 61.377 913.66 55.8215 Q907.816 50.2659 907.816 40.3702 Q907.816 28.9119 915.859 22.3147 Q923.961 15.7175 938.139 15.7175 Q944.216 15.7175 950.524 16.817 Q956.831 17.9166 963.429 20.1156 Z" fill="#bebebe" fill-rule="evenodd" fill-opacity="1" /><path clip-path="url(#clip320)" d="M 0 0 M1035.25 68.6107 L1035.25 73.819 L986.287 73.819 Q986.982 84.8144 992.884 90.6014 Q998.845 96.3305 1009.44 96.3305 Q1015.57 96.3305 1021.3 94.8259 Q1027.09 93.3213 1032.76 90.312 L1032.76 100.381 Q1027.03 102.812 1021.01 104.085 Q1014.99 105.358 1008.8 105.358 Q993.29 105.358 984.204 96.3305 Q975.176 87.3028 975.176 71.9093 Q975.176 55.9951 983.741 46.678 Q992.364 37.303 1006.95 37.303 Q1020.03 37.303 1027.61 45.7521 Q1035.25 54.1432 1035.25 68.6107 M1024.6 65.4858 Q1024.48 56.7474 1019.68 51.5391 Q1014.93 46.3308 1007.06 46.3308 Q998.151 46.3308 992.769 51.3655 Q987.445 56.4002 986.635 65.5436 L1024.6 65.4858 Z" fill="#bebebe" fill-rule="evenodd" fill-opacity="1" /><path clip-path="url(#clip320)" d="M 0 0 M1083.97 48.8192 Q1082.18 47.7775 1080.04 47.3146 Q1077.95 46.7937 1075.41 46.7937 Q1066.38 46.7937 1061.52 52.6965 Q1056.72 58.5414 1056.72 69.5367 L1056.72 103.68 L1046.01 103.68 L1046.01 38.8655 L1056.72 38.8655 L1056.72 48.9349 Q1060.07 43.0322 1065.45 40.1965 Q1070.84 37.303 1078.53 37.303 Q1079.63 37.303 1080.96 37.4767 Q1082.29 37.5924 1083.91 37.8817 L1083.97 48.8192 Z" fill="#bebebe" fill-rule="evenodd" fill-opacity="1" /><path clip-path="url(#clip320)" d="M 0 0 M1095.14 38.8655 L1105.79 38.8655 L1105.79 103.68 L1095.14 103.68 L1095.14 38.8655 M1095.14 13.6342 L1105.79 13.6342 L1105.79 27.1179 L1095.14 27.1179 L1095.14 13.6342 Z" fill="#bebebe" fill-rule="evenodd" fill-opacity="1" /><path clip-path="url(#clip320)" d="M 0 0 M1172.4 68.6107 L1172.4 73.819 L1123.44 73.819 Q1124.13 84.8144 1130.04 90.6014 Q1136 96.3305 1146.59 96.3305 Q1152.72 96.3305 1158.45 94.8259 Q1164.24 93.3213 1169.91 90.312 L1169.91 100.381 Q1164.18 102.812 1158.16 104.085 Q1152.14 105.358 1145.95 105.358 Q1130.44 105.358 1121.36 96.3305 Q1112.33 87.3028 1112.33 71.9093 Q1112.33 55.9951 1120.89 46.678 Q1129.52 37.303 1144.1 37.303 Q1157.18 37.303 1164.76 45.7521 Q1172.4 54.1432 1172.4 68.6107 M1161.75 65.4858 Q1161.63 56.7474 1156.83 51.5391 Q1152.09 46.3308 1144.21 46.3308 Q1135.3 46.3308 1129.92 51.3655 Q1124.6 56.4002 1123.79 65.5436 L1161.75 65.4858 Z" fill="#bebebe" fill-rule="evenodd" fill-opacity="1" /><path clip-path="url(#clip320)" d="M 0 0 M1231.31 17.28 L1231.31 49.3979 L1221.47 49.3979 L1221.47 17.28 L1231.31 17.28 Z" fill="#bebebe" fill-rule="evenodd" fill-opacity="1" /><path clip-path="url(#clip320)" d="M 0 0 M1283.8 40.7752 L1283.8 50.8446 Q1279.28 48.5298 1274.42 47.3724 Q1269.56 46.215 1264.35 46.215 Q1256.42 46.215 1252.43 48.6456 Q1248.5 51.0761 1248.5 55.9372 Q1248.5 59.6409 1251.33 61.7821 Q1254.17 63.8654 1262.73 65.7751 L1266.38 66.5853 Q1277.72 69.0158 1282.47 73.4718 Q1287.27 77.87 1287.27 85.7982 Q1287.27 94.8259 1280.09 100.092 Q1272.98 105.358 1260.48 105.358 Q1255.27 105.358 1249.6 104.317 Q1243.98 103.333 1237.73 101.307 L1237.73 90.312 Q1243.64 93.3791 1249.36 94.9416 Q1255.09 96.4462 1260.71 96.4462 Q1268.23 96.4462 1272.28 93.9 Q1276.33 91.2958 1276.33 86.6083 Q1276.33 82.2681 1273.38 79.9533 Q1270.49 77.6385 1260.59 75.4973 L1256.89 74.6292 Q1246.99 72.5459 1242.59 68.2635 Q1238.2 63.9233 1238.2 56.4002 Q1238.2 47.2567 1244.68 42.2799 Q1251.16 37.303 1263.08 37.303 Q1268.98 37.303 1274.19 38.1711 Q1279.4 39.0391 1283.8 40.7752 Z" fill="#bebebe" fill-rule="evenodd" fill-opacity="1" /><path clip-path="url(#clip320)" d="M 0 0 M1345.08 41.3539 L1345.08 51.3076 Q1340.57 48.8192 1336 47.6039 Q1331.48 46.3308 1326.85 46.3308 Q1316.49 46.3308 1310.76 52.928 Q1305.04 59.4673 1305.04 71.3306 Q1305.04 83.194 1310.76 89.7912 Q1316.49 96.3305 1326.85 96.3305 Q1331.48 96.3305 1336 95.1152 Q1340.57 93.8421 1345.08 91.3537 L1345.08 101.192 Q1340.63 103.275 1335.82 104.317 Q1331.08 105.358 1325.7 105.358 Q1311.05 105.358 1302.43 96.1569 Q1293.81 86.9556 1293.81 71.3306 Q1293.81 55.4742 1302.49 46.3886 Q1311.23 37.303 1326.39 37.303 Q1331.31 37.303 1336 38.3447 Q1340.68 39.3285 1345.08 41.3539 Z" fill="#bebebe" fill-rule="evenodd" fill-opacity="1" /><path clip-path="url(#clip320)" d="M 0 0 M1385.71 71.0992 Q1372.8 71.0992 1367.82 74.0505 Q1362.85 77.0019 1362.85 84.1199 Q1362.85 89.7912 1366.55 93.1476 Q1370.31 96.4462 1376.74 96.4462 Q1385.59 96.4462 1390.91 90.1963 Q1396.3 83.8884 1396.3 73.4718 L1396.3 71.0992 L1385.71 71.0992 M1406.94 66.701 L1406.94 103.68 L1396.3 103.68 L1396.3 93.8421 Q1392.65 99.7448 1387.21 102.58 Q1381.77 105.358 1373.9 105.358 Q1363.95 105.358 1358.04 99.8027 Q1352.2 94.1893 1352.2 84.8144 Q1352.2 73.8769 1359.49 68.3214 Q1366.84 62.7659 1381.37 62.7659 L1396.3 62.7659 L1396.3 61.7242 Q1396.3 54.3747 1391.44 50.3817 Q1386.63 46.3308 1377.89 46.3308 Q1372.34 46.3308 1367.07 47.6618 Q1361.81 48.9928 1356.95 51.6548 L1356.95 41.8169 Q1362.79 39.56 1368.29 38.4604 Q1373.79 37.303 1378.99 37.303 Q1393.06 37.303 1400 44.5947 Q1406.94 51.8863 1406.94 66.701 Z" fill="#bebebe" fill-rule="evenodd" fill-opacity="1" /><path clip-path="url(#clip320)" d="M 0 0 M1428.65 20.4629 L1428.65 38.8655 L1450.58 38.8655 L1450.58 47.141 L1428.65 47.141 L1428.65 82.3259 Q1428.65 90.2541 1430.79 92.5111 Q1432.99 94.768 1439.64 94.768 L1450.58 94.768 L1450.58 103.68 L1439.64 103.68 Q1427.32 103.68 1422.63 99.1083 Q1417.94 94.4787 1417.94 82.3259 L1417.94 47.141 L1410.13 47.141 L1410.13 38.8655 L1417.94 38.8655 L1417.94 20.4629 L1428.65 20.4629 Z" fill="#bebebe" fill-rule="evenodd" fill-opacity="1" /><path clip-path="url(#clip320)" d="M 0 0 M1472.28 20.4629 L1472.28 38.8655 L1494.21 38.8655 L1494.21 47.141 L1472.28 47.141 L1472.28 82.3259 Q1472.28 90.2541 1474.42 92.5111 Q1476.62 94.768 1483.28 94.768 L1494.21 94.768 L1494.21 103.68 L1483.28 103.68 Q1470.95 103.68 1466.26 99.1083 Q1461.57 94.4787 1461.57 82.3259 L1461.57 47.141 L1453.76 47.141 L1453.76 38.8655 L1461.57 38.8655 L1461.57 20.4629 L1472.28 20.4629 Z" fill="#bebebe" fill-rule="evenodd" fill-opacity="1" /><path clip-path="url(#clip320)" d="M 0 0 M1560.82 68.6107 L1560.82 73.819 L1511.86 73.819 Q1512.56 84.8144 1518.46 90.6014 Q1524.42 96.3305 1535.01 96.3305 Q1541.15 96.3305 1546.87 94.8259 Q1552.66 93.3213 1558.33 90.312 L1558.33 100.381 Q1552.6 102.812 1546.59 104.085 Q1540.57 105.358 1534.37 105.358 Q1518.87 105.358 1509.78 96.3305 Q1500.75 87.3028 1500.75 71.9093 Q1500.75 55.9951 1509.32 46.678 Q1517.94 37.303 1532.52 37.303 Q1545.6 37.303 1553.18 45.7521 Q1560.82 54.1432 1560.82 68.6107 M1550.17 65.4858 Q1550.06 56.7474 1545.25 51.5391 Q1540.51 46.3308 1532.64 46.3308 Q1523.73 46.3308 1518.34 51.3655 Q1513.02 56.4002 1512.21 65.5436 L1550.17 65.4858 Z" fill="#bebebe" fill-rule="evenodd" fill-opacity="1" /><path clip-path="url(#clip320)" d="M 0 0 M1609.55 48.8192 Q1607.75 47.7775 1605.61 47.3146 Q1603.53 46.7937 1600.98 46.7937 Q1591.96 46.7937 1587.09 52.6965 Q1582.29 58.5414 1582.29 69.5367 L1582.29 103.68 L1571.59 103.68 L1571.59 38.8655 L1582.29 38.8655 L1582.29 48.9349 Q1585.65 43.0322 1591.03 40.1965 Q1596.41 37.303 1604.11 37.303 Q1605.21 37.303 1606.54 37.4767 Q1607.87 37.5924 1609.49 37.8817 L1609.55 48.8192 Z" fill="#bebebe" fill-rule="evenodd" fill-opacity="1" /><path clip-path="url(#clip320)" d="M 0 0 M1630.79 17.28 L1630.79 49.3979 L1620.95 49.3979 L1620.95 17.28 L1630.79 17.28 Z" fill="#bebebe" fill-rule="evenodd" fill-opacity="1" /><path clip-path="url(#clip322)" d="M247.173 1308.23 L244.353 1316.34 L235.761 1316.52 L242.613 1321.72 L240.117 1329.94 L247.173 1325.03 L254.229 1329.94 L251.733 1321.72 L258.585 1316.52 L249.993 1316.34 L247.173 1308.23 Z" fill="#ffa500" fill-rule="evenodd" fill-opacity="0.5" stroke="#ff0000" stroke-opacity="0.5" stroke-width="3.2"/>
<path clip-path="url(#clip322)" d="M354.766 415.095 L351.946 423.207 L343.354 423.387 L350.206 428.583 L347.71 436.803 L354.766 431.895 L361.822 436.803 L359.326 428.583 L366.178 423.387 L357.586 423.207 L354.766 415.095 Z" fill="#ffa500" fill-rule="evenodd" fill-opacity="0.5" stroke="#ff0000" stroke-opacity="0.5" stroke-width="3.2"/>
<path clip-path="url(#clip322)" d="M462.358 1163.61 L459.538 1171.72 L450.946 1171.9 L457.798 1177.09 L455.302 1185.31 L462.358 1180.41 L469.414 1185.31 L466.918 1177.09 L473.77 1171.9 L465.178 1171.72 L462.358 1163.61 Z" fill="#ffa500" fill-rule="evenodd" fill-opacity="0.5" stroke="#ff0000" stroke-opacity="0.5" stroke-width="3.2"/>
<path clip-path="url(#clip322)" d="M569.95 987.415 L567.13 995.527 L558.538 995.707 L565.39 1000.9 L562.894 1009.12 L569.95 1004.21 L577.006 1009.12 L574.51 1000.9 L581.362 995.707 L572.77 995.527 L569.95 987.415 Z" fill="#ffa500" fill-rule="evenodd" fill-opacity="0.5" stroke="#ff0000" stroke-opacity="0.5" stroke-width="3.2"/>
<path clip-path="url(#clip322)" d="M677.543 202.972 L674.723 211.084 L666.131 211.264 L672.983 216.46 L670.487 224.68 L677.543 219.772 L684.599 224.68 L682.103 216.46 L688.955 211.264 L680.363 211.084 L677.543 202.972 Z" fill="#ffa500" fill-rule="evenodd" fill-opacity="0.5" stroke="#ff0000" stroke-opacity="0.5" stroke-width="3.2"/>
<path clip-path="url(#clip322)" d="M785.135 1066.86 L782.315 1074.97 L773.723 1075.15 L780.575 1080.35 L778.079 1088.57 L785.135 1083.66 L792.191 1088.57 L789.695 1080.35 L796.547 1075.15 L787.955 1074.97 L785.135 1066.86 Z" fill="#ffa500" fill-rule="evenodd" fill-opacity="0.5" stroke="#ff0000" stroke-opacity="0.5" stroke-width="3.2"/>
<path clip-path="url(#clip322)" d="M892.728 1432.41 L889.908 1440.52 L881.316 1440.7 L888.168 1445.9 L885.672 1454.12 L892.728 1449.21 L899.784 1454.12 L897.288 1445.9 L904.14 1440.7 L895.548 1440.52 L892.728 1432.41 Z" fill="#ffa500" fill-rule="evenodd" fill-opacity="0.5" stroke="#ff0000" stroke-opacity="0.5" stroke-width="3.2"/>
<path clip-path="url(#clip322)" d="M1000.32 1286.68 L997.5 1294.79 L988.908 1294.97 L995.76 1300.17 L993.264 1308.39 L1000.32 1303.48 L1007.38 1308.39 L1004.88 1300.17 L1011.73 1294.97 L1003.14 1294.79 L1000.32 1286.68 Z" fill="#ffa500" fill-rule="evenodd" fill-opacity="0.5" stroke="#ff0000" stroke-opacity="0.5" stroke-width="3.2"/>
<path clip-path="url(#clip322)" d="M1107.91 287.214 L1105.09 295.326 L1096.5 295.506 L1103.35 300.702 L1100.86 308.922 L1107.91 304.014 L1114.97 308.922 L1112.47 300.702 L1119.32 295.506 L1110.73 295.326 L1107.91 287.214 Z" fill="#ffa500" fill-rule="evenodd" fill-opacity="0.5" stroke="#ff0000" stroke-opacity="0.5" stroke-width="3.2"/>
<path clip-path="url(#clip322)" d="M1215.5 1045.66 L1212.68 1053.77 L1204.09 1053.95 L1210.94 1059.15 L1208.45 1067.37 L1215.5 1062.46 L1222.56 1067.37 L1220.06 1059.15 L1226.92 1053.95 L1218.32 1053.77 L1215.5 1045.66 Z" fill="#ffa500" fill-rule="evenodd" fill-opacity="0.5" stroke="#ff0000" stroke-opacity="0.5" stroke-width="3.2"/>
<path clip-path="url(#clip322)" d="M1323.1 1204.37 L1320.28 1212.48 L1311.69 1212.66 L1318.54 1217.86 L1316.04 1226.08 L1323.1 1221.17 L1330.15 1226.08 L1327.66 1217.86 L1334.51 1212.66 L1325.92 1212.48 L1323.1 1204.37 Z" fill="#ffa500" fill-rule="evenodd" fill-opacity="0.5" stroke="#ff0000" stroke-opacity="0.5" stroke-width="3.2"/>
<path clip-path="url(#clip322)" d="M1430.69 629.107 L1427.87 637.219 L1419.28 637.399 L1426.13 642.595 L1423.63 650.815 L1430.69 645.907 L1437.75 650.815 L1435.25 642.595 L1442.1 637.399 L1433.51 637.219 L1430.69 629.107 Z" fill="#ffa500" fill-rule="evenodd" fill-opacity="0.5" stroke="#ff0000" stroke-opacity="0.5" stroke-width="3.2"/>
<path clip-path="url(#clip322)" d="M1538.28 1404.35 L1535.46 1412.46 L1526.87 1412.64 L1533.72 1417.84 L1531.23 1426.06 L1538.28 1421.15 L1545.34 1426.06 L1542.84 1417.84 L1549.69 1412.64 L1541.1 1412.46 L1538.28 1404.35 Z" fill="#ffa500" fill-rule="evenodd" fill-opacity="0.5" stroke="#ff0000" stroke-opacity="0.5" stroke-width="3.2"/>
<path clip-path="url(#clip322)" d="M1645.87 1276.62 L1643.05 1284.73 L1634.46 1284.91 L1641.31 1290.11 L1638.82 1298.33 L1645.87 1293.42 L1652.93 1298.33 L1650.43 1290.11 L1657.29 1284.91 L1648.69 1284.73 L1645.87 1276.62 Z" fill="#ffa500" fill-rule="evenodd" fill-opacity="0.5" stroke="#ff0000" stroke-opacity="0.5" stroke-width="3.2"/>
<path clip-path="url(#clip322)" d="M1753.47 695.64 L1750.65 703.752 L1742.05 703.932 L1748.91 709.128 L1746.41 717.348 L1753.47 712.44 L1760.52 717.348 L1758.03 709.128 L1764.88 703.932 L1756.29 703.752 L1753.47 695.64 Z" fill="#ffa500" fill-rule="evenodd" fill-opacity="0.5" stroke="#ff0000" stroke-opacity="0.5" stroke-width="3.2"/>
<path clip-path="url(#clip322)" d="M1861.06 1295.55 L1858.24 1303.66 L1849.65 1303.84 L1856.5 1309.04 L1854 1317.26 L1861.06 1312.35 L1868.11 1317.26 L1865.62 1309.04 L1872.47 1303.84 L1863.88 1303.66 L1861.06 1295.55 Z" fill="#ffa500" fill-rule="evenodd" fill-opacity="0.5" stroke="#ff0000" stroke-opacity="0.5" stroke-width="3.2"/>
<path clip-path="url(#clip322)" d="M1968.65 199.482 L1965.83 207.594 L1957.24 207.774 L1964.09 212.97 L1961.6 221.19 L1968.65 216.282 L1975.71 221.19 L1973.21 212.97 L1980.06 207.774 L1971.47 207.594 L1968.65 199.482 Z" fill="#ffa500" fill-rule="evenodd" fill-opacity="0.5" stroke="#ff0000" stroke-opacity="0.5" stroke-width="3.2"/>
<path clip-path="url(#clip322)" d="M2076.24 504.11 L2073.42 512.222 L2064.83 512.402 L2071.68 517.598 L2069.19 525.818 L2076.24 520.91 L2083.3 525.818 L2080.8 517.598 L2087.66 512.402 L2079.06 512.222 L2076.24 504.11 Z" fill="#ffa500" fill-rule="evenodd" fill-opacity="0.5" stroke="#ff0000" stroke-opacity="0.5" stroke-width="3.2"/>
<path clip-path="url(#clip322)" d="M2183.84 701.548 L2181.02 709.66 L2172.42 709.84 L2179.28 715.036 L2176.78 723.256 L2183.84 718.348 L2190.89 723.256 L2188.4 715.036 L2195.25 709.84 L2186.66 709.66 L2183.84 701.548 Z" fill="#ffa500" fill-rule="evenodd" fill-opacity="0.5" stroke="#ff0000" stroke-opacity="0.5" stroke-width="3.2"/>
<path clip-path="url(#clip322)" d="M2291.43 1139.74 L2288.61 1147.85 L2280.02 1148.03 L2286.87 1153.23 L2284.37 1161.45 L2291.43 1156.54 L2298.48 1161.45 L2295.99 1153.23 L2302.84 1148.03 L2294.25 1147.85 L2291.43 1139.74 Z" fill="#ffa500" fill-rule="evenodd" fill-opacity="0.5" stroke="#ff0000" stroke-opacity="0.5" stroke-width="3.2"/>
<path clip-path="url(#clip322)" d="M247.173 1013.89 L219.173 1041.89 L247.173 1069.89 L275.173 1041.89 L247.173 1013.89 Z" fill="#008000" fill-rule="evenodd" fill-opacity="1" stroke="#ff0000" stroke-opacity="1" stroke-width="3.2"/>
<path clip-path="url(#clip322)" d="M354.766 411.904 L326.766 439.904 L354.766 467.904 L382.766 439.904 L354.766 411.904 Z" fill="#008000" fill-rule="evenodd" fill-opacity="1" stroke="#ff0000" stroke-opacity="1" stroke-width="3.2"/>
<path clip-path="url(#clip322)" d="M462.358 1175.25 L434.358 1203.25 L462.358 1231.25 L490.358 1203.25 L462.358 1175.25 Z" fill="#008000" fill-rule="evenodd" fill-opacity="1" stroke="#ff0000" stroke-opacity="1" stroke-width="3.2"/>
<path clip-path="url(#clip322)" d="M569.95 770.302 L541.95 798.302 L569.95 826.302 L597.95 798.302 L569.95 770.302 Z" fill="#008000" fill-rule="evenodd" fill-opacity="1" stroke="#ff0000" stroke-opacity="1" stroke-width="3.2"/>
<path clip-path="url(#clip322)" d="M677.543 1391.58 L649.543 1419.58 L677.543 1447.58 L705.543 1419.58 L677.543 1391.58 Z" fill="#008000" fill-rule="evenodd" fill-opacity="1" stroke="#ff0000" stroke-opacity="1" stroke-width="3.2"/>
<path clip-path="url(#clip322)" d="M785.135 752.921 L757.135 780.921 L785.135 808.921 L813.135 780.921 L785.135 752.921 Z" fill="#008000" fill-rule="evenodd" fill-opacity="1" stroke="#ff0000" stroke-opacity="1" stroke-width="3.2"/>
<path clip-path="url(#clip322)" d="M892.728 1245.8 L864.728 1273.8 L892.728 1301.8 L920.728 1273.8 L892.728 1245.8 Z" fill="#008000" fill-rule="evenodd" fill-opacity="1" stroke="#ff0000" stroke-opacity="1" stroke-width="3.2"/>
<path clip-path="url(#clip322)" d="M1000.32 1199.97 L972.32 1227.97 L1000.32 1255.97 L1028.32 1227.97 L1000.32 1199.97 Z" fill="#008000" fill-rule="evenodd" fill-opacity="1" stroke="#ff0000" stroke-opacity="1" stroke-width="3.2"/>
<path clip-path="url(#clip322)" d="M1107.91 1010.43 L1079.91 1038.43 L1107.91 1066.43 L1135.91 1038.43 L1107.91 1010.43 Z" fill="#008000" fill-rule="evenodd" fill-opacity="1" stroke="#ff0000" stroke-opacity="1" stroke-width="3.2"/>
<path clip-path="url(#clip322)" d="M1215.5 1275.57 L1187.5 1303.57 L1215.5 1331.57 L1243.5 1303.57 L1215.5 1275.57 Z" fill="#008000" fill-rule="evenodd" fill-opacity="1" stroke="#ff0000" stroke-opacity="1" stroke-width="3.2"/>
<path clip-path="url(#clip322)" d="M1323.1 913 L1295.1 941 L1323.1 969 L1351.1 941 L1323.1 913 Z" fill="#008000" fill-rule="evenodd" fill-opacity="1" stroke="#ff0000" stroke-opacity="1" stroke-width="3.2"/>
<path clip-path="url(#clip322)" d="M1430.69 159.111 L1402.69 187.111 L1430.69 215.111 L1458.69 187.111 L1430.69 159.111 Z" fill="#008000" fill-rule="evenodd" fill-opacity="1" stroke="#ff0000" stroke-opacity="1" stroke-width="3.2"/>
<path clip-path="url(#clip322)" d="M1538.28 950.955 L1510.28 978.955 L1538.28 1006.96 L1566.28 978.955 L1538.28 950.955 Z" fill="#008000" fill-rule="evenodd" fill-opacity="1" stroke="#ff0000" stroke-opacity="1" stroke-width="3.2"/>
<path clip-path="url(#clip322)" d="M1645.87 334.576 L1617.87 362.576 L1645.87 390.576 L1673.87 362.576 L1645.87 334.576 Z" fill="#008000" fill-rule="evenodd" fill-opacity="1" stroke="#ff0000" stroke-opacity="1" stroke-width="3.2"/>
<path clip-path="url(#clip322)" d="M1753.47 1138.82 L1725.47 1166.82 L1753.47 1194.82 L1781.47 1166.82 L1753.47 1138.82 Z" fill="#008000" fill-rule="evenodd" fill-opacity="1" stroke="#ff0000" stroke-opacity="1" stroke-width="3.2"/>
<path clip-path="url(#clip322)" d="M1861.06 756.231 L1833.06 784.231 L1861.06 812.231 L1889.06 784.231 L1861.06 756.231 Z" fill="#008000" fill-rule="evenodd" fill-opacity="1" stroke="#ff0000" stroke-opacity="1" stroke-width="3.2"/>
<path clip-path="url(#clip322)" d="M1968.65 1204.43 L1940.65 1232.43 L1968.65 1260.43 L1996.65 1232.43 L1968.65 1204.43 Z" fill="#008000" fill-rule="evenodd" fill-opacity="1" stroke="#ff0000" stroke-opacity="1" stroke-width="3.2"/>
<path clip-path="url(#clip322)" d="M2076.24 1310.33 L2048.24 1338.33 L2076.24 1366.33 L2104.24 1338.33 L2076.24 1310.33 Z" fill="#008000" fill-rule="evenodd" fill-opacity="1" stroke="#ff0000" stroke-opacity="1" stroke-width="3.2"/>
<path clip-path="url(#clip322)" d="M2183.84 755.209 L2155.84 783.209 L2183.84 811.209 L2211.84 783.209 L2183.84 755.209 Z" fill="#008000" fill-rule="evenodd" fill-opacity="1" stroke="#ff0000" stroke-opacity="1" stroke-width="3.2"/>
<path clip-path="url(#clip322)" d="M2291.43 336.566 L2263.43 364.566 L2291.43 392.566 L2319.43 364.566 L2291.43 336.566 Z" fill="#008000" fill-rule="evenodd" fill-opacity="1" stroke="#ff0000" stroke-opacity="1" stroke-width="3.2"/>
<path clip-path="url(#clip322)" d="M208.773 849.173 L266.373 882.773 L266.373 815.573 L208.773 849.173 Z" fill="#00008b" fill-rule="evenodd" fill-opacity="0.2" stroke="#ff0000" stroke-opacity="0.2" stroke-width="3.2"/>
<path clip-path="url(#clip322)" d="M316.366 322.215 L373.966 355.815 L373.966 288.615 L316.366 322.215 Z" fill="#00008b" fill-rule="evenodd" fill-opacity="0.2" stroke="#ff0000" stroke-opacity="0.2" stroke-width="3.2"/>
<path clip-path="url(#clip322)" d="M423.958 544.439 L481.558 578.039 L481.558 510.839 L423.958 544.439 Z" fill="#00008b" fill-rule="evenodd" fill-opacity="0.2" stroke="#ff0000" stroke-opacity="0.2" stroke-width="3.2"/>
<path clip-path="url(#clip322)" d="M531.55 1000.42 L589.15 1034.02 L589.15 966.825 L531.55 1000.42 Z" fill="#00008b" fill-rule="evenodd" fill-opacity="0.2" stroke="#ff0000" stroke-opacity="0.2" stroke-width="3.2"/>
<path clip-path="url(#clip322)" d="M639.143 444.561 L696.743 478.161 L696.743 410.961 L639.143 444.561 Z" fill="#00008b" fill-rule="evenodd" fill-opacity="0.2" stroke="#ff0000" stroke-opacity="0.2" stroke-width="3.2"/>
<path clip-path="url(#clip322)" d="M746.735 728.91 L804.335 762.51 L804.335 695.31 L746.735 728.91 Z" fill="#00008b" fill-rule="evenodd" fill-opacity="0.2" stroke="#ff0000" stroke-opacity="0.2" stroke-width="3.2"/>
<path clip-path="url(#clip322)" d="M854.328 604.803 L911.928 638.403 L911.928 571.203 L854.328 604.803 Z" fill="#00008b" fill-rule="evenodd" fill-opacity="0.2" stroke="#ff0000" stroke-opacity="0.2" stroke-width="3.2"/>
<path clip-path="url(#clip322)" d="M961.92 518.888 L1019.52 552.488 L1019.52 485.288 L961.92 518.888 Z" fill="#00008b" fill-rule="evenodd" fill-opacity="0.2" stroke="#ff0000" stroke-opacity="0.2" stroke-width="3.2"/>
<path clip-path="url(#clip322)" d="M1069.51 263.89 L1127.11 297.49 L1127.11 230.29 L1069.51 263.89 Z" fill="#00008b" fill-rule="evenodd" fill-opacity="0.2" stroke="#ff0000" stroke-opacity="0.2" stroke-width="3.2"/>
<path clip-path="url(#clip322)" d="M1177.1 1259.92 L1234.7 1293.52 L1234.7 1226.32 L1177.1 1259.92 Z" fill="#00008b" fill-rule="evenodd" fill-opacity="0.2" stroke="#ff0000" stroke-opacity="0.2" stroke-width="3.2"/>
<path clip-path="url(#clip322)" d="M1284.7 198.655 L1342.3 232.255 L1342.3 165.055 L1284.7 198.655 Z" fill="#00008b" fill-rule="evenodd" fill-opacity="0.2" stroke="#ff0000" stroke-opacity="0.2" stroke-width="3.2"/>
<path clip-path="url(#clip322)" d="M1392.29 338.393 L1449.89 371.993 L1449.89 304.793 L1392.29 338.393 Z" fill="#00008b" fill-rule="evenodd" fill-opacity="0.2" stroke="#ff0000" stroke-opacity="0.2" stroke-width="3.2"/>
<path clip-path="url(#clip322)" d="M1499.88 690.055 L1557.48 723.655 L1557.48 656.455 L1499.88 690.055 Z" fill="#00008b" fill-rule="evenodd" fill-opacity="0.2" stroke="#ff0000" stroke-opacity="0.2" stroke-width="3.2"/>
<path clip-path="url(#clip322)" d="M1607.47 1066.05 L1665.07 1099.65 L1665.07 1032.45 L1607.47 1066.05 Z" fill="#00008b" fill-rule="evenodd" fill-opacity="0.2" stroke="#ff0000" stroke-opacity="0.2" stroke-width="3.2"/>
<path clip-path="url(#clip322)" d="M1715.07 1439.34 L1772.67 1472.94 L1772.67 1405.74 L1715.07 1439.34 Z" fill="#00008b" fill-rule="evenodd" fill-opacity="0.2" stroke="#ff0000" stroke-opacity="0.2" stroke-width="3.2"/>
<path clip-path="url(#clip322)" d="M1822.66 747.049 L1880.26 780.649 L1880.26 713.449 L1822.66 747.049 Z" fill="#00008b" fill-rule="evenodd" fill-opacity="0.2" stroke="#ff0000" stroke-opacity="0.2" stroke-width="3.2"/>
<path clip-path="url(#clip322)" d="M1930.25 741.001 L1987.85 774.601 L1987.85 707.401 L1930.25 741.001 Z" fill="#00008b" fill-rule="evenodd" fill-opacity="0.2" stroke="#ff0000" stroke-opacity="0.2" stroke-width="3.2"/>
<path clip-path="url(#clip322)" d="M2037.84 343.175 L2095.44 376.775 L2095.44 309.575 L2037.84 343.175 Z" fill="#00008b" fill-rule="evenodd" fill-opacity="0.2" stroke="#ff0000" stroke-opacity="0.2" stroke-width="3.2"/>
<path clip-path="url(#clip322)" d="M2145.44 1086.34 L2203.04 1119.94 L2203.04 1052.74 L2145.44 1086.34 Z" fill="#00008b" fill-rule="evenodd" fill-opacity="0.2" stroke="#ff0000" stroke-opacity="0.2" stroke-width="3.2"/>
<path clip-path="url(#clip322)" d="M2253.03 1065.1 L2310.63 1098.7 L2310.63 1031.5 L2253.03 1065.1 Z" fill="#00008b" fill-rule="evenodd" fill-opacity="0.2" stroke="#ff0000" stroke-opacity="0.2" stroke-width="3.2"/>
<path clip-path="url(#clip320)" d="
M1988.16 435.737 L2280.53 435.737 L2280.53 193.817 L1988.16 193.817  Z
  " fill="#ffffff" fill-rule="evenodd" fill-opacity="1"/>
<polyline clip-path="url(#clip320)" style="stroke:#000000; stroke-width:4; stroke-opacity:1; fill:none" points="
  1988.16,435.737 2280.53,435.737 2280.53,193.817 1988.16,193.817 1988.16,435.737 
  "/>
<path clip-path="url(#clip320)" d="M2084.47 228.697 L2078.45 246.002 L2060.12 246.386 L2074.74 257.471 L2069.42 275.007 L2084.47 264.537 L2099.52 275.007 L2094.2 257.471 L2108.81 246.386 L2090.48 246.002 L2084.47 228.697 Z" fill="#ffa500" fill-rule="evenodd" fill-opacity="0.5" stroke="#ff0000" stroke-opacity="0.5" stroke-width="6.82667"/>
<path clip-path="url(#clip320)" d="M 0 0 M2194.62 273.984 Q2192.81 278.614 2191.1 280.026 Q2189.39 281.438 2186.52 281.438 L2183.11 281.438 L2183.11 277.873 L2185.61 277.873 Q2187.37 277.873 2188.34 277.04 Q2189.32 276.206 2190.5 273.104 L2191.26 271.16 L2180.78 245.651 L2185.29 245.651 L2193.39 265.929 L2201.49 245.651 L2206.01 245.651 L2194.62 273.984 Z" fill="#bebebe" fill-rule="evenodd" fill-opacity="1" /><path clip-path="url(#clip320)" d="M 0 0 M2211.89 267.641 L2219.52 267.641 L2219.52 241.276 L2211.21 242.943 L2211.21 238.683 L2219.48 237.017 L2224.15 237.017 L2224.15 267.641 L2231.79 267.641 L2231.79 271.577 L2211.89 271.577 L2211.89 267.641 Z" fill="#bebebe" fill-rule="evenodd" fill-opacity="1" /><path clip-path="url(#clip320)" d="M2084.47 289.177 L2058.87 314.777 L2084.47 340.377 L2110.07 314.777 L2084.47 289.177 Z" fill="#008000" fill-rule="evenodd" fill-opacity="1" stroke="#ff0000" stroke-opacity="1" stroke-width="2.92571"/>
<path clip-path="url(#clip320)" d="M 0 0 M2194.62 334.464 Q2192.81 339.094 2191.1 340.506 Q2189.39 341.918 2186.52 341.918 L2183.11 341.918 L2183.11 338.353 L2185.61 338.353 Q2187.37 338.353 2188.34 337.52 Q2189.32 336.686 2190.5 333.584 L2191.26 331.64 L2180.78 306.131 L2185.29 306.131 L2193.39 326.409 L2201.49 306.131 L2206.01 306.131 L2194.62 334.464 Z" fill="#bebebe" fill-rule="evenodd" fill-opacity="1" /><path clip-path="url(#clip320)" d="M 0 0 M2215.1 328.121 L2231.42 328.121 L2231.42 332.057 L2209.48 332.057 L2209.48 328.121 Q2212.14 325.367 2216.72 320.737 Q2221.33 316.085 2222.51 314.742 Q2224.76 312.219 2225.64 310.483 Q2226.54 308.723 2226.54 307.034 Q2226.54 304.279 2224.59 302.543 Q2222.67 300.807 2219.57 300.807 Q2217.37 300.807 2214.92 301.571 Q2212.49 302.335 2209.71 303.886 L2209.71 299.163 Q2212.53 298.029 2214.99 297.45 Q2217.44 296.872 2219.48 296.872 Q2224.85 296.872 2228.04 299.557 Q2231.24 302.242 2231.24 306.733 Q2231.24 308.862 2230.43 310.784 Q2229.64 312.682 2227.53 315.274 Q2226.96 315.946 2223.85 319.163 Q2220.75 322.358 2215.1 328.121 Z" fill="#bebebe" fill-rule="evenodd" fill-opacity="1" /><path clip-path="url(#clip320)" d="M2063.99 375.257 L2094.71 393.177 L2094.71 357.337 L2063.99 375.257 Z" fill="#00008b" fill-rule="evenodd" fill-opacity="0.2" stroke="#ff0000" stroke-opacity="0.2" stroke-width="1.70667"/>
<path clip-path="url(#clip320)" d="M 0 0 M2194.62 394.944 Q2192.81 399.574 2191.1 400.986 Q2189.39 402.398 2186.52 402.398 L2183.11 402.398 L2183.11 398.833 L2185.61 398.833 Q2187.37 398.833 2188.34 398 Q2189.32 397.166 2190.5 394.064 L2191.26 392.12 L2180.78 366.611 L2185.29 366.611 L2193.39 386.889 L2201.49 366.611 L2206.01 366.611 L2194.62 394.944 Z" fill="#bebebe" fill-rule="evenodd" fill-opacity="1" /><path clip-path="url(#clip320)" d="M 0 0 M2225.24 373.902 Q2228.6 374.62 2230.47 376.889 Q2232.37 379.157 2232.37 382.49 Q2232.37 387.606 2228.85 390.407 Q2225.34 393.208 2218.85 393.208 Q2216.68 393.208 2214.36 392.768 Q2212.07 392.351 2209.62 391.495 L2209.62 386.981 Q2211.56 388.115 2213.88 388.694 Q2216.19 389.273 2218.71 389.273 Q2223.11 389.273 2225.4 387.537 Q2227.72 385.801 2227.72 382.49 Q2227.72 379.435 2225.57 377.722 Q2223.44 375.986 2219.62 375.986 L2215.59 375.986 L2215.59 372.143 L2219.8 372.143 Q2223.25 372.143 2225.08 370.778 Q2226.91 369.389 2226.91 366.796 Q2226.91 364.134 2225.01 362.722 Q2223.14 361.287 2219.62 361.287 Q2217.7 361.287 2215.5 361.703 Q2213.3 362.12 2210.66 363 L2210.66 358.833 Q2213.32 358.092 2215.64 357.722 Q2217.97 357.352 2220.03 357.352 Q2225.36 357.352 2228.46 359.782 Q2231.56 362.19 2231.56 366.31 Q2231.56 369.18 2229.92 371.171 Q2228.27 373.139 2225.24 373.902 Z" fill="#bebebe" fill-rule="evenodd" fill-opacity="1" /></svg>
