<?xml version="1.0" encoding="utf-8"?>
<svg xmlns="http://www.w3.org/2000/svg" xmlns:xlink="http://www.w3.org/1999/xlink" width="600" height="400" viewBox="0 0 2400 1600">
<defs>
  <clipPath id="clip130">
    <rect x="0" y="0" width="2400" height="1600"/>
  </clipPath>
</defs>
<path clip-path="url(#clip130)" d="
M0 1600 L2400 1600 L2400 0 L0 0  Z
  " fill="#ffffff" fill-rule="evenodd" fill-opacity="1"/>
<defs>
  <clipPath id="clip131">
    <rect x="480" y="0" width="1681" height="1600"/>
  </clipPath>
</defs>
<path clip-path="url(#clip130)" d="
M185.846 1482.13 L2352.76 1482.13 L2352.76 149.392 L185.846 149.392  Z
  " fill="#ffffff" fill-rule="evenodd" fill-opacity="1"/>
<defs>
  <clipPath id="clip132">
    <rect x="185" y="149" width="2168" height="1334"/>
  </clipPath>
</defs>
<polyline clip-path="url(#clip132)" style="stroke:#000000; stroke-width:2; stroke-opacity:0.1; fill:none" points="
  677.543,1482.13 677.543,149.392 
  "/>
<polyline clip-path="url(#clip132)" style="stroke:#000000; stroke-width:2; stroke-opacity:0.1; fill:none" points="
  1215.5,1482.13 1215.5,149.392 
  "/>
<polyline clip-path="url(#clip132)" style="stroke:#000000; stroke-width:2; stroke-opacity:0.1; fill:none" points="
  1753.47,1482.13 1753.47,149.392 
  "/>
<polyline clip-path="url(#clip132)" style="stroke:#000000; stroke-width:2; stroke-opacity:0.1; fill:none" points="
  2291.43,1482.13 2291.43,149.392 
  "/>
<polyline clip-path="url(#clip130)" style="stroke:#000000; stroke-width:4; stroke-opacity:1; fill:none" points="
  185.846,1482.13 2352.76,1482.13 
  "/>
<polyline clip-path="url(#clip130)" style="stroke:#000000; stroke-width:4; stroke-opacity:1; fill:none" points="
  677.543,1482.13 677.543,1466.14 
  "/>
<polyline clip-path="url(#clip130)" style="stroke:#000000; stroke-width:4; stroke-opacity:1; fill:none" points="
  1215.5,1482.13 1215.5,1466.14 
  "/>
<polyline clip-path="url(#clip130)" style="stroke:#000000; stroke-width:4; stroke-opacity:1; fill:none" points="
  1753.47,1482.13 1753.47,1466.14 
  "/>
<polyline clip-path="url(#clip130)" style="stroke:#000000; stroke-width:4; stroke-opacity:1; fill:none" points="
  2291.43,1482.13 2291.43,1466.14 
  "/>
<path clip-path="url(#clip130)" d="M 0 0 M666.605 1509.1 L687.256 1509.1 L687.256 1513.53 L671.423 1513.53 L671.423 1523.06 Q672.569 1522.67 673.715 1522.49 Q674.861 1522.28 676.006 1522.28 Q682.517 1522.28 686.319 1525.85 Q690.121 1529.42 690.121 1535.51 Q690.121 1541.79 686.215 1545.28 Q682.308 1548.74 675.199 1548.74 Q672.751 1548.74 670.199 1548.32 Q667.673 1547.91 664.965 1547.07 L664.965 1541.79 Q667.309 1543.06 669.809 1543.69 Q672.309 1544.31 675.095 1544.31 Q679.6 1544.31 682.23 1541.94 Q684.861 1539.57 684.861 1535.51 Q684.861 1531.45 682.23 1529.08 Q679.6 1526.71 675.095 1526.71 Q672.986 1526.71 670.876 1527.18 Q668.793 1527.65 666.605 1528.64 L666.605 1509.1 Z" fill="#bebebe" fill-rule="evenodd" fill-opacity="1" /><path clip-path="url(#clip130)" d="M 0 0 M1189.49 1543.56 L1198.08 1543.56 L1198.08 1513.9 L1188.73 1515.77 L1188.73 1510.98 L1198.03 1509.1 L1203.29 1509.1 L1203.29 1543.56 L1211.88 1543.56 L1211.88 1547.98 L1189.49 1547.98 L1189.49 1543.56 Z" fill="#bebebe" fill-rule="evenodd" fill-opacity="1" /><path clip-path="url(#clip130)" d="M 0 0 M1228.84 1512.57 Q1224.78 1512.57 1222.72 1516.58 Q1220.69 1520.56 1220.69 1528.58 Q1220.69 1536.58 1222.72 1540.59 Q1224.78 1544.57 1228.84 1544.57 Q1232.93 1544.57 1234.96 1540.59 Q1237.01 1536.58 1237.01 1528.58 Q1237.01 1520.56 1234.96 1516.58 Q1232.93 1512.57 1228.84 1512.57 M1228.84 1508.4 Q1235.37 1508.4 1238.81 1513.58 Q1242.28 1518.74 1242.28 1528.58 Q1242.28 1538.4 1238.81 1543.58 Q1235.37 1548.74 1228.84 1548.74 Q1222.3 1548.74 1218.84 1543.58 Q1215.4 1538.4 1215.4 1528.58 Q1215.4 1518.74 1218.84 1513.58 Q1222.3 1508.4 1228.84 1508.4 Z" fill="#bebebe" fill-rule="evenodd" fill-opacity="1" /><path clip-path="url(#clip130)" d="M 0 0 M1728.01 1543.56 L1736.6 1543.56 L1736.6 1513.9 L1727.26 1515.77 L1727.26 1510.98 L1736.55 1509.1 L1741.81 1509.1 L1741.81 1543.56 L1750.41 1543.56 L1750.41 1547.98 L1728.01 1547.98 L1728.01 1543.56 Z" fill="#bebebe" fill-rule="evenodd" fill-opacity="1" /><path clip-path="url(#clip130)" d="M 0 0 M1756.16 1509.1 L1776.81 1509.1 L1776.81 1513.53 L1760.98 1513.53 L1760.98 1523.06 Q1762.13 1522.67 1763.27 1522.49 Q1764.42 1522.28 1765.56 1522.28 Q1772.07 1522.28 1775.88 1525.85 Q1779.68 1529.42 1779.68 1535.51 Q1779.68 1541.79 1775.77 1545.28 Q1771.86 1548.74 1764.76 1548.74 Q1762.31 1548.74 1759.76 1548.32 Q1757.23 1547.91 1754.52 1547.07 L1754.52 1541.79 Q1756.86 1543.06 1759.36 1543.69 Q1761.86 1544.31 1764.65 1544.31 Q1769.16 1544.31 1771.79 1541.94 Q1774.42 1539.57 1774.42 1535.51 Q1774.42 1531.45 1771.79 1529.08 Q1769.16 1526.71 1764.65 1526.71 Q1762.54 1526.71 1760.43 1527.18 Q1758.35 1527.65 1756.16 1528.64 L1756.16 1509.1 Z" fill="#bebebe" fill-rule="evenodd" fill-opacity="1" /><path clip-path="url(#clip130)" d="M 0 0 M2270.22 1543.56 L2288.58 1543.56 L2288.58 1547.98 L2263.89 1547.98 L2263.89 1543.56 Q2266.88 1540.46 2272.04 1535.25 Q2277.22 1530.02 2278.55 1528.5 Q2281.08 1525.67 2282.07 1523.71 Q2283.08 1521.73 2283.08 1519.83 Q2283.08 1516.73 2280.89 1514.78 Q2278.73 1512.83 2275.24 1512.83 Q2272.77 1512.83 2270.01 1513.69 Q2267.27 1514.55 2264.15 1516.29 L2264.15 1510.98 Q2267.33 1509.7 2270.09 1509.05 Q2272.85 1508.4 2275.14 1508.4 Q2281.18 1508.4 2284.77 1511.42 Q2288.37 1514.44 2288.37 1519.49 Q2288.37 1521.89 2287.46 1524.05 Q2286.57 1526.19 2284.2 1529.1 Q2283.55 1529.86 2280.06 1533.48 Q2276.57 1537.07 2270.22 1543.56 Z" fill="#bebebe" fill-rule="evenodd" fill-opacity="1" /><path clip-path="url(#clip130)" d="M 0 0 M2305.53 1512.57 Q2301.47 1512.57 2299.41 1516.58 Q2297.38 1520.56 2297.38 1528.58 Q2297.38 1536.58 2299.41 1540.59 Q2301.47 1544.57 2305.53 1544.57 Q2309.62 1544.57 2311.65 1540.59 Q2313.71 1536.58 2313.71 1528.58 Q2313.71 1520.56 2311.65 1516.58 Q2309.62 1512.57 2305.53 1512.57 M2305.53 1508.4 Q2312.07 1508.4 2315.5 1513.58 Q2318.97 1518.74 2318.97 1528.58 Q2318.97 1538.4 2315.5 1543.58 Q2312.07 1548.74 2305.53 1548.74 Q2298.99 1548.74 2295.53 1543.58 Q2292.09 1538.4 2292.09 1528.58 Q2292.09 1518.74 2295.53 1513.58 Q2298.99 1508.4 2305.53 1508.4 Z" fill="#bebebe" fill-rule="evenodd" fill-opacity="1" /><polyline clip-path="url(#clip132)" style="stroke:#000000; stroke-width:2; stroke-opacity:0.1; fill:none" points="
  185.846,1461.67 2352.76,1461.67 
  "/>
<polyline clip-path="url(#clip132)" style="stroke:#000000; stroke-width:2; stroke-opacity:0.1; fill:none" points="
  185.846,1142.92 2352.76,1142.92 
  "/>
<polyline clip-path="url(#clip132)" style="stroke:#000000; stroke-width:2; stroke-opacity:0.1; fill:none" points="
  185.846,824.167 2352.76,824.167 
  "/>
<polyline clip-path="url(#clip132)" style="stroke:#000000; stroke-width:2; stroke-opacity:0.1; fill:none" points="
  185.846,505.417 2352.76,505.417 
  "/>
<polyline clip-path="url(#clip132)" style="stroke:#000000; stroke-width:2; stroke-opacity:0.1; fill:none" points="
  185.846,186.667 2352.76,186.667 
  "/>
<polyline clip-path="url(#clip130)" style="stroke:#000000; stroke-width:4; stroke-opacity:1; fill:none" points="
  185.846,1482.13 185.846,149.392 
  "/>
<polyline clip-path="url(#clip130)" style="stroke:#000000; stroke-width:4; stroke-opacity:1; fill:none" points="
  185.846,1461.67 211.849,1461.67 
  "/>
<polyline clip-path="url(#clip130)" style="stroke:#000000; stroke-width:4; stroke-opacity:1; fill:none" points="
  185.846,1142.92 211.849,1142.92 
  "/>
<polyline clip-path="url(#clip130)" style="stroke:#000000; stroke-width:4; stroke-opacity:1; fill:none" points="
  185.846,824.167 211.849,824.167 
  "/>
<polyline clip-path="url(#clip130)" style="stroke:#000000; stroke-width:4; stroke-opacity:1; fill:none" points="
  185.846,505.417 211.849,505.417 
  "/>
<polyline clip-path="url(#clip130)" style="stroke:#000000; stroke-width:4; stroke-opacity:1; fill:none" points="
  185.846,186.667 211.849,186.667 
  "/>
<path clip-path="url(#clip130)" d="M 0 0 M64.4296 1445.69 Q60.3671 1445.69 58.3098 1449.7 Q56.2786 1453.69 56.2786 1461.71 Q56.2786 1469.7 58.3098 1473.71 Q60.3671 1477.7 64.4296 1477.7 Q68.5181 1477.7 70.5493 1473.71 Q72.6066 1469.7 72.6066 1461.71 Q72.6066 1453.69 70.5493 1449.7 Q68.5181 1445.69 64.4296 1445.69 M64.4296 1441.52 Q70.966 1441.52 74.4035 1446.71 Q77.867 1451.86 77.867 1461.71 Q77.867 1471.52 74.4035 1476.71 Q70.966 1481.86 64.4296 1481.86 Q57.8931 1481.86 54.4296 1476.71 Q50.9921 1471.52 50.9921 1461.71 Q50.9921 1451.86 54.4296 1446.71 Q57.8931 1441.52 64.4296 1441.52 Z" fill="#bebebe" fill-rule="evenodd" fill-opacity="1" /><path clip-path="url(#clip130)" d="M 0 0 M83.5701 1474.49 L89.0648 1474.49 L89.0648 1481.11 L83.5701 1481.11 L83.5701 1474.49 Z" fill="#bebebe" fill-rule="evenodd" fill-opacity="1" /><path clip-path="url(#clip130)" d="M 0 0 M106.018 1445.69 Q101.955 1445.69 99.8981 1449.7 Q97.8669 1453.69 97.8669 1461.71 Q97.8669 1469.7 99.8981 1473.71 Q101.955 1477.7 106.018 1477.7 Q110.106 1477.7 112.138 1473.71 Q114.195 1469.7 114.195 1461.71 Q114.195 1453.69 112.138 1449.7 Q110.106 1445.69 106.018 1445.69 M106.018 1441.52 Q112.554 1441.52 115.992 1446.71 Q119.455 1451.86 119.455 1461.71 Q119.455 1471.52 115.992 1476.71 Q112.554 1481.86 106.018 1481.86 Q99.4814 1481.86 96.0179 1476.71 Q92.5804 1471.52 92.5804 1461.71 Q92.5804 1451.86 96.0179 1446.71 Q99.4814 1441.52 106.018 1441.52 Z" fill="#bebebe" fill-rule="evenodd" fill-opacity="1" /><path clip-path="url(#clip130)" d="M 0 0 M136.408 1445.69 Q132.346 1445.69 130.289 1449.7 Q128.257 1453.69 128.257 1461.71 Q128.257 1469.7 130.289 1473.71 Q132.346 1477.7 136.408 1477.7 Q140.497 1477.7 142.528 1473.71 Q144.585 1469.7 144.585 1461.71 Q144.585 1453.69 142.528 1449.7 Q140.497 1445.69 136.408 1445.69 M136.408 1441.52 Q142.945 1441.52 146.382 1446.71 Q149.846 1451.86 149.846 1461.71 Q149.846 1471.52 146.382 1476.71 Q142.945 1481.86 136.408 1481.86 Q129.872 1481.86 126.408 1476.71 Q122.971 1471.52 122.971 1461.71 Q122.971 1451.86 126.408 1446.71 Q129.872 1441.52 136.408 1441.52 Z" fill="#bebebe" fill-rule="evenodd" fill-opacity="1" /><path clip-path="url(#clip130)" d="M 0 0 M67.3462 1126.94 Q63.2837 1126.94 61.2264 1130.95 Q59.1952 1134.94 59.1952 1142.96 Q59.1952 1150.95 61.2264 1154.96 Q63.2837 1158.95 67.3462 1158.95 Q71.4347 1158.95 73.466 1154.96 Q75.5232 1150.95 75.5232 1142.96 Q75.5232 1134.94 73.466 1130.95 Q71.4347 1126.94 67.3462 1126.94 M67.3462 1122.77 Q73.8826 1122.77 77.3201 1127.96 Q80.7836 1133.11 80.7836 1142.96 Q80.7836 1152.77 77.3201 1157.96 Q73.8826 1163.11 67.3462 1163.11 Q60.8098 1163.11 57.3463 1157.96 Q53.9088 1152.77 53.9088 1142.96 Q53.9088 1133.11 57.3463 1127.96 Q60.8098 1122.77 67.3462 1122.77 Z" fill="#bebebe" fill-rule="evenodd" fill-opacity="1" /><path clip-path="url(#clip130)" d="M 0 0 M86.4867 1155.74 L91.9815 1155.74 L91.9815 1162.36 L86.4867 1162.36 L86.4867 1155.74 Z" fill="#bebebe" fill-rule="evenodd" fill-opacity="1" /><path clip-path="url(#clip130)" d="M 0 0 M102.216 1157.93 L120.575 1157.93 L120.575 1162.36 L95.8877 1162.36 L95.8877 1157.93 Q98.8825 1154.83 104.039 1149.62 Q109.221 1144.39 110.549 1142.88 Q113.075 1140.04 114.065 1138.09 Q115.08 1136.11 115.08 1134.21 Q115.08 1131.11 112.893 1129.15 Q110.731 1127.2 107.242 1127.2 Q104.768 1127.2 102.007 1128.06 Q99.2731 1128.92 96.1481 1130.66 L96.1481 1125.35 Q99.3252 1124.08 102.086 1123.43 Q104.846 1122.77 107.138 1122.77 Q113.179 1122.77 116.773 1125.79 Q120.367 1128.82 120.367 1133.87 Q120.367 1136.26 119.455 1138.43 Q118.57 1140.56 116.2 1143.48 Q115.549 1144.23 112.06 1147.85 Q108.57 1151.45 102.216 1157.93 Z" fill="#bebebe" fill-rule="evenodd" fill-opacity="1" /><path clip-path="url(#clip130)" d="M 0 0 M126.33 1123.48 L146.981 1123.48 L146.981 1127.9 L131.148 1127.9 L131.148 1137.44 Q132.294 1137.04 133.44 1136.86 Q134.585 1136.65 135.731 1136.65 Q142.242 1136.65 146.044 1140.22 Q149.846 1143.79 149.846 1149.88 Q149.846 1156.16 145.94 1159.65 Q142.033 1163.11 134.924 1163.11 Q132.476 1163.11 129.924 1162.7 Q127.398 1162.28 124.69 1161.45 L124.69 1156.16 Q127.033 1157.44 129.533 1158.06 Q132.033 1158.69 134.82 1158.69 Q139.325 1158.69 141.955 1156.32 Q144.585 1153.95 144.585 1149.88 Q144.585 1145.82 141.955 1143.45 Q139.325 1141.08 134.82 1141.08 Q132.71 1141.08 130.601 1141.55 Q128.518 1142.02 126.33 1143.01 L126.33 1123.48 Z" fill="#bebebe" fill-rule="evenodd" fill-opacity="1" /><path clip-path="url(#clip130)" d="M 0 0 M65.5493 808.191 Q61.4869 808.191 59.4296 812.201 Q57.3983 816.185 57.3983 824.206 Q57.3983 832.201 59.4296 836.211 Q61.4869 840.196 65.5493 840.196 Q69.6379 840.196 71.6691 836.211 Q73.7264 832.201 73.7264 824.206 Q73.7264 816.185 71.6691 812.201 Q69.6379 808.191 65.5493 808.191 M65.5493 804.024 Q72.0858 804.024 75.5232 809.206 Q78.9868 814.362 78.9868 824.206 Q78.9868 834.024 75.5232 839.206 Q72.0858 844.362 65.5493 844.362 Q59.0129 844.362 55.5494 839.206 Q52.1119 834.024 52.1119 824.206 Q52.1119 814.362 55.5494 809.206 Q59.0129 804.024 65.5493 804.024 Z" fill="#bebebe" fill-rule="evenodd" fill-opacity="1" /><path clip-path="url(#clip130)" d="M 0 0 M84.6899 836.992 L90.1846 836.992 L90.1846 843.607 L84.6899 843.607 L84.6899 836.992 Z" fill="#bebebe" fill-rule="evenodd" fill-opacity="1" /><path clip-path="url(#clip130)" d="M 0 0 M95.9398 804.727 L116.591 804.727 L116.591 809.154 L100.757 809.154 L100.757 818.685 Q101.903 818.295 103.049 818.112 Q104.195 817.904 105.341 817.904 Q111.851 817.904 115.653 821.472 Q119.455 825.039 119.455 831.133 Q119.455 837.409 115.549 840.899 Q111.643 844.362 104.534 844.362 Q102.086 844.362 99.5335 843.946 Q97.0075 843.529 94.2992 842.696 L94.2992 837.409 Q96.6429 838.685 99.1429 839.31 Q101.643 839.935 104.429 839.935 Q108.935 839.935 111.565 837.565 Q114.195 835.196 114.195 831.133 Q114.195 827.071 111.565 824.701 Q108.935 822.331 104.429 822.331 Q102.32 822.331 100.211 822.8 Q98.1273 823.269 95.9398 824.258 L95.9398 804.727 Z" fill="#bebebe" fill-rule="evenodd" fill-opacity="1" /><path clip-path="url(#clip130)" d="M 0 0 M136.408 808.191 Q132.346 808.191 130.289 812.201 Q128.257 816.185 128.257 824.206 Q128.257 832.201 130.289 836.211 Q132.346 840.196 136.408 840.196 Q140.497 840.196 142.528 836.211 Q144.585 832.201 144.585 824.206 Q144.585 816.185 142.528 812.201 Q140.497 808.191 136.408 808.191 M136.408 804.024 Q142.945 804.024 146.382 809.206 Q149.846 814.362 149.846 824.206 Q149.846 834.024 146.382 839.206 Q142.945 844.362 136.408 844.362 Q129.872 844.362 126.408 839.206 Q122.971 834.024 122.971 824.206 Q122.971 814.362 126.408 809.206 Q129.872 804.024 136.408 804.024 Z" fill="#bebebe" fill-rule="evenodd" fill-opacity="1" /><path clip-path="url(#clip130)" d="M 0 0 M66.565 489.44 Q62.5025 489.44 60.4452 493.451 Q58.414 497.435 58.414 505.456 Q58.414 513.451 60.4452 517.461 Q62.5025 521.445 66.565 521.445 Q70.6535 521.445 72.6847 517.461 Q74.742 513.451 74.742 505.456 Q74.742 497.435 72.6847 493.451 Q70.6535 489.44 66.565 489.44 M66.565 485.274 Q73.1014 485.274 76.5389 490.456 Q80.0024 495.612 80.0024 505.456 Q80.0024 515.274 76.5389 520.456 Q73.1014 525.612 66.565 525.612 Q60.0285 525.612 56.565 520.456 Q53.1275 515.274 53.1275 505.456 Q53.1275 495.612 56.565 490.456 Q60.0285 485.274 66.565 485.274 Z" fill="#bebebe" fill-rule="evenodd" fill-opacity="1" /><path clip-path="url(#clip130)" d="M 0 0 M85.7055 518.242 L91.2002 518.242 L91.2002 524.857 L85.7055 524.857 L85.7055 518.242 Z" fill="#bebebe" fill-rule="evenodd" fill-opacity="1" /><path clip-path="url(#clip130)" d="M 0 0 M95.5752 485.977 L120.575 485.977 L120.575 488.216 L106.461 524.857 L100.966 524.857 L114.247 490.404 L95.5752 490.404 L95.5752 485.977 Z" fill="#bebebe" fill-rule="evenodd" fill-opacity="1" /><path clip-path="url(#clip130)" d="M 0 0 M126.33 485.977 L146.981 485.977 L146.981 490.404 L131.148 490.404 L131.148 499.935 Q132.294 499.545 133.44 499.362 Q134.585 499.154 135.731 499.154 Q142.242 499.154 146.044 502.722 Q149.846 506.289 149.846 512.383 Q149.846 518.659 145.94 522.149 Q142.033 525.612 134.924 525.612 Q132.476 525.612 129.924 525.195 Q127.398 524.779 124.69 523.945 L124.69 518.659 Q127.033 519.935 129.533 520.56 Q132.033 521.185 134.82 521.185 Q139.325 521.185 141.955 518.815 Q144.585 516.445 144.585 512.383 Q144.585 508.321 141.955 505.951 Q139.325 503.581 134.82 503.581 Q132.71 503.581 130.601 504.05 Q128.518 504.518 126.33 505.508 L126.33 485.977 Z" fill="#bebebe" fill-rule="evenodd" fill-opacity="1" /><path clip-path="url(#clip130)" d="M 0 0 M55.4713 201.68 L64.065 201.68 L64.065 172.018 L54.7161 173.893 L54.7161 169.102 L64.0129 167.227 L69.2733 167.227 L69.2733 201.68 L77.867 201.68 L77.867 206.107 L55.4713 206.107 L55.4713 201.68 Z" fill="#bebebe" fill-rule="evenodd" fill-opacity="1" /><path clip-path="url(#clip130)" d="M 0 0 M83.5701 199.492 L89.0648 199.492 L89.0648 206.107 L83.5701 206.107 L83.5701 199.492 Z" fill="#bebebe" fill-rule="evenodd" fill-opacity="1" /><path clip-path="url(#clip130)" d="M 0 0 M106.018 170.69 Q101.955 170.69 99.8981 174.701 Q97.8669 178.685 97.8669 186.706 Q97.8669 194.701 99.8981 198.711 Q101.955 202.695 106.018 202.695 Q110.106 202.695 112.138 198.711 Q114.195 194.701 114.195 186.706 Q114.195 178.685 112.138 174.701 Q110.106 170.69 106.018 170.69 M106.018 166.524 Q112.554 166.524 115.992 171.706 Q119.455 176.862 119.455 186.706 Q119.455 196.523 115.992 201.706 Q112.554 206.862 106.018 206.862 Q99.4814 206.862 96.0179 201.706 Q92.5804 196.523 92.5804 186.706 Q92.5804 176.862 96.0179 171.706 Q99.4814 166.524 106.018 166.524 Z" fill="#bebebe" fill-rule="evenodd" fill-opacity="1" /><path clip-path="url(#clip130)" d="M 0 0 M136.408 170.69 Q132.346 170.69 130.289 174.701 Q128.257 178.685 128.257 186.706 Q128.257 194.701 130.289 198.711 Q132.346 202.695 136.408 202.695 Q140.497 202.695 142.528 198.711 Q144.585 194.701 144.585 186.706 Q144.585 178.685 142.528 174.701 Q140.497 170.69 136.408 170.69 M136.408 166.524 Q142.945 166.524 146.382 171.706 Q149.846 176.862 149.846 186.706 Q149.846 196.523 146.382 201.706 Q142.945 206.862 136.408 206.862 Q129.872 206.862 126.408 201.706 Q122.971 196.523 122.971 186.706 Q122.971 176.862 126.408 171.706 Q129.872 166.524 136.408 166.524 Z" fill="#bebebe" fill-rule="evenodd" fill-opacity="1" /><path clip-path="url(#clip130)" d="M 0 0 M963.429 20.1156 L963.429 31.516 Q956.774 28.3332 950.871 26.7707 Q944.968 25.2082 939.47 25.2082 Q929.922 25.2082 924.714 28.9119 Q919.563 32.6156 919.563 39.4442 Q919.563 45.1734 922.977 48.1247 Q926.45 51.0182 936.056 52.8122 L943.116 54.259 Q956.195 56.7474 962.387 63.0552 Q968.637 69.3052 968.637 79.8375 Q968.637 92.3953 960.188 98.8768 Q951.797 105.358 935.535 105.358 Q929.401 105.358 922.457 103.969 Q915.57 102.58 908.163 99.8606 L908.163 87.8236 Q915.281 91.8166 922.109 93.8421 Q928.938 95.8675 935.535 95.8675 Q945.547 95.8675 950.987 91.9324 Q956.426 87.9972 956.426 80.7056 Q956.426 74.3399 952.491 70.7519 Q948.614 67.164 939.702 65.37 L932.584 63.9811 Q919.505 61.377 913.66 55.8215 Q907.816 50.2659 907.816 40.3702 Q907.816 28.9119 915.859 22.3147 Q923.961 15.7175 938.139 15.7175 Q944.216 15.7175 950.524 16.817 Q956.831 17.9166 963.429 20.1156 Z" fill="#bebebe" fill-rule="evenodd" fill-opacity="1" /><path clip-path="url(#clip130)" d="M 0 0 M1035.25 68.6107 L1035.25 73.819 L986.287 73.819 Q986.982 84.8144 992.884 90.6014 Q998.845 96.3305 1009.44 96.3305 Q1015.57 96.3305 1021.3 94.8259 Q1027.09 93.3213 1032.76 90.312 L1032.76 100.381 Q1027.03 102.812 1021.01 104.085 Q1014.99 105.358 1008.8 105.358 Q993.29 105.358 984.204 96.3305 Q975.176 87.3028 975.176 71.9093 Q975.176 55.9951 983.741 46.678 Q992.364 37.303 1006.95 37.303 Q1020.03 37.303 1027.61 45.7521 Q1035.25 54.1432 1035.25 68.6107 M1024.6 65.4858 Q1024.48 56.7474 1019.68 51.5391 Q1014.93 46.3308 1007.06 46.3308 Q998.151 46.3308 992.769 51.3655 Q987.445 56.4002 986.635 65.5436 L1024.6 65.4858 Z" fill="#bebebe" fill-rule="evenodd" fill-opacity="1" /><path clip-path="url(#clip130)" d="M 0 0 M1083.97 48.8192 Q1082.18 47.7775 1080.04 47.3146 Q1077.95 46.7937 1075.41 46.7937 Q1066.38 46.7937 1061.52 52.6965 Q1056.72 58.5414 1056.72 69.5367 L1056.72 103.68 L1046.01 103.68 L1046.01 38.8655 L1056.72 38.8655 L1056.72 48.9349 Q1060.07 43.0322 1065.45 40.1965 Q1070.84 37.303 1078.53 37.303 Q1079.63 37.303 1080.96 37.4767 Q1082.29 37.5924 1083.91 37.8817 L1083.97 48.8192 Z" fill="#bebebe" fill-rule="evenodd" fill-opacity="1" /><path clip-path="url(#clip130)" d="M 0 0 M1095.14 38.8655 L1105.79 38.8655 L1105.79 103.68 L1095.14 103.68 L1095.14 38.8655 M1095.14 13.6342 L1105.79 13.6342 L1105.79 27.1179 L1095.14 27.1179 L1095.14 13.6342 Z" fill="#bebebe" fill-rule="evenodd" fill-opacity="1" /><path clip-path="url(#clip130)" d="M 0 0 M1172.4 68.6107 L1172.4 73.819 L1123.44 73.819 Q1124.13 84.8144 1130.04 90.6014 Q1136 96.3305 1146.59 96.3305 Q1152.72 96.3305 1158.45 94.8259 Q1164.24 93.3213 1169.91 90.312 L1169.91 100.381 Q1164.18 102.812 1158.16 104.085 Q1152.14 105.358 1145.95 105.358 Q1130.44 105.358 1121.36 96.3305 Q1112.33 87.3028 1112.33 71.9093 Q1112.33 55.9951 1120.89 46.678 Q1129.52 37.303 1144.1 37.303 Q1157.18 37.303 1164.76 45.7521 Q1172.4 54.1432 1172.4 68.6107 M1161.75 65.4858 Q1161.63 56.7474 1156.83 51.5391 Q1152.09 46.3308 1144.21 46.3308 Q1135.3 46.3308 1129.92 51.3655 Q1124.6 56.4002 1123.79 65.5436 L1161.75 65.4858 Z" fill="#bebebe" fill-rule="evenodd" fill-opacity="1" /><path clip-path="url(#clip130)" d="M 0 0 M1231.31 17.28 L1231.31 49.3979 L1221.47 49.3979 L1221.47 17.28 L1231.31 17.28 Z" fill="#bebebe" fill-rule="evenodd" fill-opacity="1" /><path clip-path="url(#clip130)" d="M 0 0 M1283.8 40.7752 L1283.8 50.8446 Q1279.28 48.5298 1274.42 47.3724 Q1269.56 46.215 1264.35 46.215 Q1256.42 46.215 1252.43 48.6456 Q1248.5 51.0761 1248.5 55.9372 Q1248.5 59.6409 1251.33 61.7821 Q1254.17 63.8654 1262.73 65.7751 L1266.38 66.5853 Q1277.72 69.0158 1282.47 73.4718 Q1287.27 77.87 1287.27 85.7982 Q1287.27 94.8259 1280.09 100.092 Q1272.98 105.358 1260.48 105.358 Q1255.27 105.358 1249.6 104.317 Q1243.98 103.333 1237.73 101.307 L1237.73 90.312 Q1243.64 93.3791 1249.36 94.9416 Q1255.09 96.4462 1260.71 96.4462 Q1268.23 96.4462 1272.28 93.9 Q1276.33 91.2958 1276.33 86.6083 Q1276.33 82.2681 1273.38 79.9533 Q1270.49 77.6385 1260.59 75.4973 L1256.89 74.6292 Q1246.99 72.5459 1242.59 68.2635 Q1238.2 63.9233 1238.2 56.4002 Q1238.2 47.2567 1244.68 42.2799 Q1251.16 37.303 1263.08 37.303 Q1268.98 37.303 1274.19 38.1711 Q1279.4 39.0391 1283.8 40.7752 Z" fill="#bebebe" fill-rule="evenodd" fill-opacity="1" /><path clip-path="url(#clip130)" d="M 0 0 M1345.08 41.3539 L1345.08 51.3076 Q1340.57 48.8192 1336 47.6039 Q1331.48 46.3308 1326.85 46.3308 Q1316.49 46.3308 1310.76 52.928 Q1305.04 59.4673 1305.04 71.3306 Q1305.04 83.194 1310.76 89.7912 Q1316.49 96.3305 1326.85 96.3305 Q1331.48 96.3305 1336 95.1152 Q1340.57 93.8421 1345.08 91.3537 L1345.08 101.192 Q1340.63 103.275 1335.82 104.317 Q1331.08 105.358 1325.7 105.358 Q1311.05 105.358 1302.43 96.1569 Q1293.81 86.9556 1293.81 71.3306 Q1293.81 55.4742 1302.49 46.3886 Q1311.23 37.303 1326.39 37.303 Q1331.31 37.303 1336 38.3447 Q1340.68 39.3285 1345.08 41.3539 Z" fill="#bebebe" fill-rule="evenodd" fill-opacity="1" /><path clip-path="url(#clip130)" d="M 0 0 M1385.71 71.0992 Q1372.8 71.0992 1367.82 74.0505 Q1362.85 77.0019 1362.85 84.1199 Q1362.85 89.7912 1366.55 93.1476 Q1370.31 96.4462 1376.74 96.4462 Q1385.59 96.4462 1390.91 90.1963 Q1396.3 83.8884 1396.3 73.4718 L1396.3 71.0992 L1385.71 71.0992 M1406.94 66.701 L1406.94 103.68 L1396.3 103.68 L1396.3 93.8421 Q1392.65 99.7448 1387.21 102.58 Q1381.77 105.358 1373.9 105.358 Q1363.95 105.358 1358.04 99.8027 Q1352.2 94.1893 1352.2 84.8144 Q1352.2 73.8769 1359.49 68.3214 Q1366.84 62.7659 1381.37 62.7659 L1396.3 62.7659 L1396.3 61.7242 Q1396.3 54.3747 1391.44 50.3817 Q1386.63 46.3308 1377.89 46.3308 Q1372.34 46.3308 1367.07 47.6618 Q1361.81 48.9928 1356.95 51.6548 L1356.95 41.8169 Q1362.79 39.56 1368.29 38.4604 Q1373.79 37.303 1378.99 37.303 Q1393.06 37.303 1400 44.5947 Q1406.94 51.8863 1406.94 66.701 Z" fill="#bebebe" fill-rule="evenodd" fill-opacity="1" /><path clip-path="url(#clip130)" d="M 0 0 M1428.65 20.4629 L1428.65 38.8655 L1450.58 38.8655 L1450.58 47.141 L1428.65 47.141 L1428.65 82.3259 Q1428.65 90.2541 1430.79 92.5111 Q1432.99 94.768 1439.64 94.768 L1450.58 94.768 L1450.58 103.68 L1439.64 103.68 Q1427.32 103.68 1422.63 99.1083 Q1417.94 94.4787 1417.94 82.3259 L1417.94 47.141 L1410.13 47.141 L1410.13 38.8655 L1417.94 38.8655 L1417.94 20.4629 L1428.65 20.4629 Z" fill="#bebebe" fill-rule="evenodd" fill-opacity="1" /><path clip-path="url(#clip130)" d="M 0 0 M1472.28 20.4629 L1472.28 38.8655 L1494.21 38.8655 L1494.21 47.141 L1472.28 47.141 L1472.28 82.3259 Q1472.28 90.2541 1474.42 92.5111 Q1476.62 94.768 1483.28 94.768 L1494.21 94.768 L1494.21 103.68 L1483.28 103.68 Q1470.95 103.68 1466.26 99.1083 Q1461.57 94.4787 1461.57 82.3259 L1461.57 47.141 L1453.76 47.141 L1453.76 38.8655 L1461.57 38.8655 L1461.57 20.4629 L1472.28 20.4629 Z" fill="#bebebe" fill-rule="evenodd" fill-opacity="1" /><path clip-path="url(#clip130)" d="M 0 0 M1560.82 68.6107 L1560.82 73.819 L1511.86 73.819 Q1512.56 84.8144 1518.46 90.6014 Q1524.42 96.3305 1535.01 96.3305 Q1541.15 96.3305 1546.87 94.8259 Q1552.66 93.3213 1558.33 90.312 L1558.33 100.381 Q1552.6 102.812 1546.59 104.085 Q1540.57 105.358 1534.37 105.358 Q1518.87 105.358 1509.78 96.3305 Q1500.75 87.3028 1500.75 71.9093 Q1500.75 55.9951 1509.32 46.678 Q1517.94 37.303 1532.52 37.303 Q1545.6 37.303 1553.18 45.7521 Q1560.82 54.1432 1560.82 68.6107 M1550.17 65.4858 Q1550.06 56.7474 1545.25 51.5391 Q1540.51 46.3308 1532.64 46.3308 Q1523.73 46.3308 1518.34 51.3655 Q1513.02 56.4002 1512.21 65.5436 L1550.17 65.4858 Z" fill="#bebebe" fill-rule="evenodd" fill-opacity="1" /><path clip-path="url(#clip130)" d="M 0 0 M1609.55 48.8192 Q1607.75 47.7775 1605.61 47.3146 Q1603.53 46.7937 1600.98 46.7937 Q1591.96 46.7937 1587.09 52.6965 Q1582.29 58.5414 1582.29 69.5367 L1582.29 103.68 L1571.59 103.68 L1571.59 38.8655 L1582.29 38.8655 L1582.29 48.9349 Q1585.65 43.0322 1591.03 40.1965 Q1596.41 37.303 1604.11 37.303 Q1605.21 37.303 1606.54 37.4767 Q1607.87 37.5924 1609.49 37.8817 L1609.55 48.8192 Z" fill="#bebebe" fill-rule="evenodd" fill-opacity="1" /><path clip-path="url(#clip130)" d="M 0 0 M1630.79 17.28 L1630.79 49.3979 L1620.95 49.3979 L1620.95 17.28 L1630.79 17.28 Z" fill="#bebebe" fill-rule="evenodd" fill-opacity="1" /><path clip-path="url(#clip132)" d="M247.173 398.998 L244.353 407.11 L235.761 407.29 L242.613 412.486 L240.117 420.706 L247.173 415.798 L254.229 420.706 L251.733 412.486 L258.585 407.29 L249.993 407.11 L247.173 398.998 Z" fill="#ffa500" fill-rule="evenodd" fill-opacity="0.5" stroke="#ff0000" stroke-opacity="0.5" stroke-width="3.2"/>
<path clip-path="url(#clip132)" d="M354.766 272.671 L351.946 280.783 L343.354 280.963 L350.206 286.159 L347.71 294.379 L354.766 289.471 L361.822 294.379 L359.326 286.159 L366.178 280.963 L357.586 280.783 L354.766 272.671 Z" fill="#ffa500" fill-rule="evenodd" fill-opacity="0.5" stroke="#ff0000" stroke-opacity="0.5" stroke-width="3.2"/>
<path clip-path="url(#clip132)" d="M462.358 1348.62 L459.538 1356.73 L450.946 1356.91 L457.798 1362.1 L455.302 1370.32 L462.358 1365.42 L469.414 1370.32 L466.918 1362.1 L473.77 1356.91 L465.178 1356.73 L462.358 1348.62 Z" fill="#ffa500" fill-rule="evenodd" fill-opacity="0.5" stroke="#ff0000" stroke-opacity="0.5" stroke-width="3.2"/>
<path clip-path="url(#clip132)" d="M569.95 175.996 L567.13 184.108 L558.538 184.288 L565.39 189.484 L562.894 197.704 L569.95 192.796 L577.006 197.704 L574.51 189.484 L581.362 184.288 L572.77 184.108 L569.95 175.996 Z" fill="#ffa500" fill-rule="evenodd" fill-opacity="0.5" stroke="#ff0000" stroke-opacity="0.5" stroke-width="3.2"/>
<path clip-path="url(#clip132)" d="M677.543 759.784 L674.723 767.896 L666.131 768.076 L672.983 773.272 L670.487 781.492 L677.543 776.584 L684.599 781.492 L682.103 773.272 L688.955 768.076 L680.363 767.896 L677.543 759.784 Z" fill="#ffa500" fill-rule="evenodd" fill-opacity="0.5" stroke="#ff0000" stroke-opacity="0.5" stroke-width="3.2"/>
<path clip-path="url(#clip132)" d="M785.135 1080.58 L782.315 1088.69 L773.723 1088.87 L780.575 1094.07 L778.079 1102.29 L785.135 1097.38 L792.191 1102.29 L789.695 1094.07 L796.547 1088.87 L787.955 1088.69 L785.135 1080.58 Z" fill="#ffa500" fill-rule="evenodd" fill-opacity="0.5" stroke="#ff0000" stroke-opacity="0.5" stroke-width="3.2"/>
<path clip-path="url(#clip132)" d="M892.728 1192.81 L889.908 1200.92 L881.316 1201.1 L888.168 1206.3 L885.672 1214.52 L892.728 1209.61 L899.784 1214.52 L897.288 1206.3 L904.14 1201.1 L895.548 1200.92 L892.728 1192.81 Z" fill="#ffa500" fill-rule="evenodd" fill-opacity="0.5" stroke="#ff0000" stroke-opacity="0.5" stroke-width="3.2"/>
<path clip-path="url(#clip132)" d="M1000.32 244.876 L997.5 252.988 L988.908 253.168 L995.76 258.364 L993.264 266.584 L1000.32 261.676 L1007.38 266.584 L1004.88 258.364 L1011.73 253.168 L1003.14 252.988 L1000.32 244.876 Z" fill="#ffa500" fill-rule="evenodd" fill-opacity="0.5" stroke="#ff0000" stroke-opacity="0.5" stroke-width="3.2"/>
<path clip-path="url(#clip132)" d="M1107.91 1390.29 L1105.09 1398.4 L1096.5 1398.58 L1103.35 1403.78 L1100.86 1412 L1107.91 1407.09 L1114.97 1412 L1112.47 1403.78 L1119.32 1398.58 L1110.73 1398.4 L1107.91 1390.29 Z" fill="#ffa500" fill-rule="evenodd" fill-opacity="0.5" stroke="#ff0000" stroke-opacity="0.5" stroke-width="3.2"/>
<path clip-path="url(#clip132)" d="M1215.5 472.539 L1212.68 480.651 L1204.09 480.831 L1210.94 486.027 L1208.45 494.247 L1215.5 489.339 L1222.56 494.247 L1220.06 486.027 L1226.92 480.831 L1218.32 480.651 L1215.5 472.539 Z" fill="#ffa500" fill-rule="evenodd" fill-opacity="0.5" stroke="#ff0000" stroke-opacity="0.5" stroke-width="3.2"/>
<path clip-path="url(#clip132)" d="M1323.1 1312.82 L1320.28 1320.93 L1311.69 1321.11 L1318.54 1326.31 L1316.04 1334.53 L1323.1 1329.62 L1330.15 1334.53 L1327.66 1326.31 L1334.51 1321.11 L1325.92 1320.93 L1323.1 1312.82 Z" fill="#ffa500" fill-rule="evenodd" fill-opacity="0.5" stroke="#ff0000" stroke-opacity="0.5" stroke-width="3.2"/>
<path clip-path="url(#clip132)" d="M1430.69 1068.51 L1427.87 1076.63 L1419.28 1076.81 L1426.13 1082 L1423.63 1090.22 L1430.69 1085.31 L1437.75 1090.22 L1435.25 1082 L1442.1 1076.81 L1433.51 1076.63 L1430.69 1068.51 Z" fill="#ffa500" fill-rule="evenodd" fill-opacity="0.5" stroke="#ff0000" stroke-opacity="0.5" stroke-width="3.2"/>
<path clip-path="url(#clip132)" d="M1538.28 944.013 L1535.46 952.125 L1526.87 952.305 L1533.72 957.501 L1531.23 965.721 L1538.28 960.813 L1545.34 965.721 L1542.84 957.501 L1549.69 952.305 L1541.1 952.125 L1538.28 944.013 Z" fill="#ffa500" fill-rule="evenodd" fill-opacity="0.5" stroke="#ff0000" stroke-opacity="0.5" stroke-width="3.2"/>
<path clip-path="url(#clip132)" d="M1645.87 387.831 L1643.05 395.943 L1634.46 396.123 L1641.31 401.319 L1638.82 409.539 L1645.87 404.631 L1652.93 409.539 L1650.43 401.319 L1657.29 396.123 L1648.69 395.943 L1645.87 387.831 Z" fill="#ffa500" fill-rule="evenodd" fill-opacity="0.5" stroke="#ff0000" stroke-opacity="0.5" stroke-width="3.2"/>
<path clip-path="url(#clip132)" d="M1753.47 1274.26 L1750.65 1282.38 L1742.05 1282.56 L1748.91 1287.75 L1746.41 1295.97 L1753.47 1291.06 L1760.52 1295.97 L1758.03 1287.75 L1764.88 1282.56 L1756.29 1282.38 L1753.47 1274.26 Z" fill="#ffa500" fill-rule="evenodd" fill-opacity="0.5" stroke="#ff0000" stroke-opacity="0.5" stroke-width="3.2"/>
<path clip-path="url(#clip132)" d="M1861.06 1003.2 L1858.24 1011.31 L1849.65 1011.49 L1856.5 1016.69 L1854 1024.91 L1861.06 1020 L1868.11 1024.91 L1865.62 1016.69 L1872.47 1011.49 L1863.88 1011.31 L1861.06 1003.2 Z" fill="#ffa500" fill-rule="evenodd" fill-opacity="0.5" stroke="#ff0000" stroke-opacity="0.5" stroke-width="3.2"/>
<path clip-path="url(#clip132)" d="M1968.65 175.301 L1965.83 183.413 L1957.24 183.593 L1964.09 188.789 L1961.6 197.009 L1968.65 192.101 L1975.71 197.009 L1973.21 188.789 L1980.06 183.593 L1971.47 183.413 L1968.65 175.301 Z" fill="#ffa500" fill-rule="evenodd" fill-opacity="0.5" stroke="#ff0000" stroke-opacity="0.5" stroke-width="3.2"/>
<path clip-path="url(#clip132)" d="M2076.24 512.232 L2073.42 520.344 L2064.83 520.524 L2071.68 525.72 L2069.19 533.94 L2076.24 529.032 L2083.3 533.94 L2080.8 525.72 L2087.66 520.524 L2079.06 520.344 L2076.24 512.232 Z" fill="#ffa500" fill-rule="evenodd" fill-opacity="0.5" stroke="#ff0000" stroke-opacity="0.5" stroke-width="3.2"/>
<path clip-path="url(#clip132)" d="M2183.84 1184.01 L2181.02 1192.12 L2172.42 1192.3 L2179.28 1197.5 L2176.78 1205.72 L2183.84 1200.81 L2190.89 1205.72 L2188.4 1197.5 L2195.25 1192.3 L2186.66 1192.12 L2183.84 1184.01 Z" fill="#ffa500" fill-rule="evenodd" fill-opacity="0.5" stroke="#ff0000" stroke-opacity="0.5" stroke-width="3.2"/>
<path clip-path="url(#clip132)" d="M2291.43 1139.03 L2288.61 1147.15 L2280.02 1147.33 L2286.87 1152.52 L2284.37 1160.74 L2291.43 1155.83 L2298.48 1160.74 L2295.99 1152.52 L2302.84 1147.33 L2294.25 1147.15 L2291.43 1139.03 Z" fill="#ffa500" fill-rule="evenodd" fill-opacity="0.5" stroke="#ff0000" stroke-opacity="0.5" stroke-width="3.2"/>
<path clip-path="url(#clip132)" d="M247.173 395.915 L219.173 423.915 L247.173 451.915 L275.173 423.915 L247.173 395.915 Z" fill="#008000" fill-rule="evenodd" fill-opacity="1" stroke="#ff0000" stroke-opacity="1" stroke-width="3.2"/>
<path clip-path="url(#clip132)" d="M354.766 769.133 L326.766 797.133 L354.766 825.133 L382.766 797.133 L354.766 769.133 Z" fill="#008000" fill-rule="evenodd" fill-opacity="1" stroke="#ff0000" stroke-opacity="1" stroke-width="3.2"/>
<path clip-path="url(#clip132)" d="M462.358 1035.83 L434.358 1063.83 L462.358 1091.83 L490.358 1063.83 L462.358 1035.83 Z" fill="#008000" fill-rule="evenodd" fill-opacity="1" stroke="#ff0000" stroke-opacity="1" stroke-width="3.2"/>
<path clip-path="url(#clip132)" d="M569.95 574.08 L541.95 602.08 L569.95 630.08 L597.95 602.08 L569.95 574.08 Z" fill="#008000" fill-rule="evenodd" fill-opacity="1" stroke="#ff0000" stroke-opacity="1" stroke-width="3.2"/>
<path clip-path="url(#clip132)" d="M677.543 1249.49 L649.543 1277.49 L677.543 1305.49 L705.543 1277.49 L677.543 1249.49 Z" fill="#008000" fill-rule="evenodd" fill-opacity="1" stroke="#ff0000" stroke-opacity="1" stroke-width="3.2"/>
<path clip-path="url(#clip132)" d="M785.135 1295.62 L757.135 1323.62 L785.135 1351.62 L813.135 1323.62 L785.135 1295.62 Z" fill="#008000" fill-rule="evenodd" fill-opacity="1" stroke="#ff0000" stroke-opacity="1" stroke-width="3.2"/>
<path clip-path="url(#clip132)" d="M892.728 367.695 L864.728 395.695 L892.728 423.695 L920.728 395.695 L892.728 367.695 Z" fill="#008000" fill-rule="evenodd" fill-opacity="1" stroke="#ff0000" stroke-opacity="1" stroke-width="3.2"/>
<path clip-path="url(#clip132)" d="M1000.32 533.591 L972.32 561.591 L1000.32 589.591 L1028.32 561.591 L1000.32 533.591 Z" fill="#008000" fill-rule="evenodd" fill-opacity="1" stroke="#ff0000" stroke-opacity="1" stroke-width="3.2"/>
<path clip-path="url(#clip132)" d="M1107.91 1306.3 L1079.91 1334.3 L1107.91 1362.3 L1135.91 1334.3 L1107.91 1306.3 Z" fill="#008000" fill-rule="evenodd" fill-opacity="1" stroke="#ff0000" stroke-opacity="1" stroke-width="3.2"/>
<path clip-path="url(#clip132)" d="M1215.5 358.696 L1187.5 386.696 L1215.5 414.696 L1243.5 386.696 L1215.5 358.696 Z" fill="#008000" fill-rule="evenodd" fill-opacity="1" stroke="#ff0000" stroke-opacity="1" stroke-width="3.2"/>
<path clip-path="url(#clip132)" d="M1323.1 590.127 L1295.1 618.127 L1323.1 646.127 L1351.1 618.127 L1323.1 590.127 Z" fill="#008000" fill-rule="evenodd" fill-opacity="1" stroke="#ff0000" stroke-opacity="1" stroke-width="3.2"/>
<path clip-path="url(#clip132)" d="M1430.69 1416.41 L1402.69 1444.41 L1430.69 1472.41 L1458.69 1444.41 L1430.69 1416.41 Z" fill="#008000" fill-rule="evenodd" fill-opacity="1" stroke="#ff0000" stroke-opacity="1" stroke-width="3.2"/>
<path clip-path="url(#clip132)" d="M1538.28 712.934 L1510.28 740.934 L1538.28 768.934 L1566.28 740.934 L1538.28 712.934 Z" fill="#008000" fill-rule="evenodd" fill-opacity="1" stroke="#ff0000" stroke-opacity="1" stroke-width="3.2"/>
<path clip-path="url(#clip132)" d="M1645.87 255.528 L1617.87 283.528 L1645.87 311.528 L1673.87 283.528 L1645.87 255.528 Z" fill="#008000" fill-rule="evenodd" fill-opacity="1" stroke="#ff0000" stroke-opacity="1" stroke-width="3.2"/>
<path clip-path="url(#clip132)" d="M1753.47 274.307 L1725.47 302.307 L1753.47 330.307 L1781.47 302.307 L1753.47 274.307 Z" fill="#008000" fill-rule="evenodd" fill-opacity="1" stroke="#ff0000" stroke-opacity="1" stroke-width="3.2"/>
<path clip-path="url(#clip132)" d="M1861.06 985.563 L1833.06 1013.56 L1861.06 1041.56 L1889.06 1013.56 L1861.06 985.563 Z" fill="#008000" fill-rule="evenodd" fill-opacity="1" stroke="#ff0000" stroke-opacity="1" stroke-width="3.2"/>
<path clip-path="url(#clip132)" d="M1968.65 518.658 L1940.65 546.658 L1968.65 574.658 L1996.65 546.658 L1968.65 518.658 Z" fill="#008000" fill-rule="evenodd" fill-opacity="1" stroke="#ff0000" stroke-opacity="1" stroke-width="3.2"/>
<path clip-path="url(#clip132)" d="M2076.24 1200.3 L2048.24 1228.3 L2076.24 1256.3 L2104.24 1228.3 L2076.24 1200.3 Z" fill="#008000" fill-rule="evenodd" fill-opacity="1" stroke="#ff0000" stroke-opacity="1" stroke-width="3.2"/>
<path clip-path="url(#clip132)" d="M2183.84 956.344 L2155.84 984.344 L2183.84 1012.34 L2211.84 984.344 L2183.84 956.344 Z" fill="#008000" fill-rule="evenodd" fill-opacity="1" stroke="#ff0000" stroke-opacity="1" stroke-width="3.2"/>
<path clip-path="url(#clip132)" d="M2291.43 318.053 L2263.43 346.053 L2291.43 374.053 L2319.43 346.053 L2291.43 318.053 Z" fill="#008000" fill-rule="evenodd" fill-opacity="1" stroke="#ff0000" stroke-opacity="1" stroke-width="3.2"/>
<path clip-path="url(#clip132)" d="M208.773 187.111 L266.373 220.711 L266.373 153.511 L208.773 187.111 Z" fill="#00008b" fill-rule="evenodd" fill-opacity="0.2" stroke="#ff0000" stroke-opacity="0.2" stroke-width="3.2"/>
<path clip-path="url(#clip132)" d="M316.366 1344.09 L373.966 1377.69 L373.966 1310.49 L316.366 1344.09 Z" fill="#00008b" fill-rule="evenodd" fill-opacity="0.2" stroke="#ff0000" stroke-opacity="0.2" stroke-width="3.2"/>
<path clip-path="url(#clip132)" d="M423.958 1328.63 L481.558 1362.23 L481.558 1295.03 L423.958 1328.63 Z" fill="#00008b" fill-rule="evenodd" fill-opacity="0.2" stroke="#ff0000" stroke-opacity="0.2" stroke-width="3.2"/>
<path clip-path="url(#clip132)" d="M531.55 1429.79 L589.15 1463.39 L589.15 1396.19 L531.55 1429.79 Z" fill="#00008b" fill-rule="evenodd" fill-opacity="0.2" stroke="#ff0000" stroke-opacity="0.2" stroke-width="3.2"/>
<path clip-path="url(#clip132)" d="M639.143 1079.97 L696.743 1113.57 L696.743 1046.37 L639.143 1079.97 Z" fill="#00008b" fill-rule="evenodd" fill-opacity="0.2" stroke="#ff0000" stroke-opacity="0.2" stroke-width="3.2"/>
<path clip-path="url(#clip132)" d="M746.735 1378.18 L804.335 1411.78 L804.335 1344.58 L746.735 1378.18 Z" fill="#00008b" fill-rule="evenodd" fill-opacity="0.2" stroke="#ff0000" stroke-opacity="0.2" stroke-width="3.2"/>
<path clip-path="url(#clip132)" d="M854.328 832.451 L911.928 866.051 L911.928 798.851 L854.328 832.451 Z" fill="#00008b" fill-rule="evenodd" fill-opacity="0.2" stroke="#ff0000" stroke-opacity="0.2" stroke-width="3.2"/>
<path clip-path="url(#clip132)" d="M961.92 1070.62 L1019.52 1104.22 L1019.52 1037.02 L961.92 1070.62 Z" fill="#00008b" fill-rule="evenodd" fill-opacity="0.2" stroke="#ff0000" stroke-opacity="0.2" stroke-width="3.2"/>
<path clip-path="url(#clip132)" d="M1069.51 461.635 L1127.11 495.235 L1127.11 428.035 L1069.51 461.635 Z" fill="#00008b" fill-rule="evenodd" fill-opacity="0.2" stroke="#ff0000" stroke-opacity="0.2" stroke-width="3.2"/>
<path clip-path="url(#clip132)" d="M1177.1 899.596 L1234.7 933.196 L1234.7 865.996 L1177.1 899.596 Z" fill="#00008b" fill-rule="evenodd" fill-opacity="0.2" stroke="#ff0000" stroke-opacity="0.2" stroke-width="3.2"/>
<path clip-path="url(#clip132)" d="M1284.7 307.301 L1342.3 340.901 L1342.3 273.701 L1284.7 307.301 Z" fill="#00008b" fill-rule="evenodd" fill-opacity="0.2" stroke="#ff0000" stroke-opacity="0.2" stroke-width="3.2"/>
<path clip-path="url(#clip132)" d="M1392.29 1124.02 L1449.89 1157.62 L1449.89 1090.42 L1392.29 1124.02 Z" fill="#00008b" fill-rule="evenodd" fill-opacity="0.2" stroke="#ff0000" stroke-opacity="0.2" stroke-width="3.2"/>
<path clip-path="url(#clip132)" d="M1499.88 953.721 L1557.48 987.321 L1557.48 920.121 L1499.88 953.721 Z" fill="#00008b" fill-rule="evenodd" fill-opacity="0.2" stroke="#ff0000" stroke-opacity="0.2" stroke-width="3.2"/>
<path clip-path="url(#clip132)" d="M1607.47 321.972 L1665.07 355.572 L1665.07 288.372 L1607.47 321.972 Z" fill="#00008b" fill-rule="evenodd" fill-opacity="0.2" stroke="#ff0000" stroke-opacity="0.2" stroke-width="3.2"/>
<path clip-path="url(#clip132)" d="M1715.07 1139.42 L1772.67 1173.02 L1772.67 1105.82 L1715.07 1139.42 Z" fill="#00008b" fill-rule="evenodd" fill-opacity="0.2" stroke="#ff0000" stroke-opacity="0.2" stroke-width="3.2"/>
<path clip-path="url(#clip132)" d="M1822.66 743.776 L1880.26 777.376 L1880.26 710.176 L1822.66 743.776 Z" fill="#00008b" fill-rule="evenodd" fill-opacity="0.2" stroke="#ff0000" stroke-opacity="0.2" stroke-width="3.2"/>
<path clip-path="url(#clip132)" d="M1930.25 201.591 L1987.85 235.191 L1987.85 167.991 L1930.25 201.591 Z" fill="#00008b" fill-rule="evenodd" fill-opacity="0.2" stroke="#ff0000" stroke-opacity="0.2" stroke-width="3.2"/>
<path clip-path="url(#clip132)" d="M2037.84 1052.4 L2095.44 1086 L2095.44 1018.8 L2037.84 1052.4 Z" fill="#00008b" fill-rule="evenodd" fill-opacity="0.2" stroke="#ff0000" stroke-opacity="0.2" stroke-width="3.2"/>
<path clip-path="url(#clip132)" d="M2145.44 457.345 L2203.04 490.945 L2203.04 423.745 L2145.44 457.345 Z" fill="#00008b" fill-rule="evenodd" fill-opacity="0.2" stroke="#ff0000" stroke-opacity="0.2" stroke-width="3.2"/>
<path clip-path="url(#clip132)" d="M2253.03 1064.61 L2310.63 1098.21 L2310.63 1031.01 L2253.03 1064.61 Z" fill="#00008b" fill-rule="evenodd" fill-opacity="0.2" stroke="#ff0000" stroke-opacity="0.2" stroke-width="3.2"/>
<path clip-path="url(#clip130)" d="
M1988.16 435.737 L2280.53 435.737 L2280.53 193.817 L1988.16 193.817  Z
  " fill="#ffffff" fill-rule="evenodd" fill-opacity="1"/>
<polyline clip-path="url(#clip130)" style="stroke:#000000; stroke-width:4; stroke-opacity:1; fill:none" points="
  1988.16,435.737 2280.53,435.737 2280.53,193.817 1988.16,193.817 1988.16,435.737 
  "/>
<path clip-path="url(#clip130)" d="M2084.47 228.697 L2078.45 246.002 L2060.12 246.386 L2074.74 257.471 L2069.42 275.007 L2084.47 264.537 L2099.52 275.007 L2094.2 257.471 L2108.81 246.386 L2090.48 246.002 L2084.47 228.697 Z" fill="#ffa500" fill-rule="evenodd" fill-opacity="0.5" stroke="#ff0000" stroke-opacity="0.5" stroke-width="6.82667"/>
<path clip-path="url(#clip130)" d="M 0 0 M2194.62 273.984 Q2192.81 278.614 2191.1 280.026 Q2189.39 281.438 2186.52 281.438 L2183.11 281.438 L2183.11 277.873 L2185.61 277.873 Q2187.37 277.873 2188.34 277.04 Q2189.32 276.206 2190.5 273.104 L2191.26 271.16 L2180.78 245.651 L2185.29 245.651 L2193.39 265.929 L2201.49 245.651 L2206.01 245.651 L2194.62 273.984 Z" fill="#bebebe" fill-rule="evenodd" fill-opacity="1" /><path clip-path="url(#clip130)" d="M 0 0 M2211.89 267.641 L2219.52 267.641 L2219.52 241.276 L2211.21 242.943 L2211.21 238.683 L2219.48 237.017 L2224.15 237.017 L2224.15 267.641 L2231.79 267.641 L2231.79 271.577 L2211.89 271.577 L2211.89 267.641 Z" fill="#bebebe" fill-rule="evenodd" fill-opacity="1" /><path clip-path="url(#clip130)" d="M2084.47 289.177 L2058.87 314.777 L2084.47 340.377 L2110.07 314.777 L2084.47 289.177 Z" fill="#008000" fill-rule="evenodd" fill-opacity="1" stroke="#ff0000" stroke-opacity="1" stroke-width="2.92571"/>
<path clip-path="url(#clip130)" d="M 0 0 M2194.62 334.464 Q2192.81 339.094 2191.1 340.506 Q2189.39 341.918 2186.52 341.918 L2183.11 341.918 L2183.11 338.353 L2185.61 338.353 Q2187.37 338.353 2188.34 337.52 Q2189.32 336.686 2190.5 333.584 L2191.26 331.64 L2180.78 306.131 L2185.29 306.131 L2193.39 326.409 L2201.49 306.131 L2206.01 306.131 L2194.62 334.464 Z" fill="#bebebe" fill-rule="evenodd" fill-opacity="1" /><path clip-path="url(#clip130)" d="M 0 0 M2215.1 328.121 L2231.42 328.121 L2231.42 332.057 L2209.48 332.057 L2209.48 328.121 Q2212.14 325.367 2216.72 320.737 Q2221.33 316.085 2222.51 314.742 Q2224.76 312.219 2225.64 310.483 Q2226.54 308.723 2226.54 307.034 Q2226.54 304.279 2224.59 302.543 Q2222.67 300.807 2219.57 300.807 Q2217.37 300.807 2214.92 301.571 Q2212.49 302.335 2209.71 303.886 L2209.71 299.163 Q2212.53 298.029 2214.99 297.45 Q2217.44 296.872 2219.48 296.872 Q2224.85 296.872 2228.04 299.557 Q2231.24 302.242 2231.24 306.733 Q2231.24 308.862 2230.43 310.784 Q2229.64 312.682 2227.53 315.274 Q2226.96 315.946 2223.85 319.163 Q2220.75 322.358 2215.1 328.121 Z" fill="#bebebe" fill-rule="evenodd" fill-opacity="1" /><path clip-path="url(#clip130)" d="M2063.99 375.257 L2094.71 393.177 L2094.71 357.337 L2063.99 375.257 Z" fill="#00008b" fill-rule="evenodd" fill-opacity="0.2" stroke="#ff0000" stroke-opacity="0.2" stroke-width="1.70667"/>
<path clip-path="url(#clip130)" d="M 0 0 M2194.62 394.944 Q2192.81 399.574 2191.1 400.986 Q2189.39 402.398 2186.52 402.398 L2183.11 402.398 L2183.11 398.833 L2185.61 398.833 Q2187.37 398.833 2188.34 398 Q2189.32 397.166 2190.5 394.064 L2191.26 392.12 L2180.78 366.611 L2185.29 366.611 L2193.39 386.889 L2201.49 366.611 L2206.01 366.611 L2194.62 394.944 Z" fill="#bebebe" fill-rule="evenodd" fill-opacity="1" /><path clip-path="url(#clip130)" d="M 0 0 M2225.24 373.902 Q2228.6 374.62 2230.47 376.889 Q2232.37 379.157 2232.37 382.49 Q2232.37 387.606 2228.85 390.407 Q2225.34 393.208 2218.85 393.208 Q2216.68 393.208 2214.36 392.768 Q2212.07 392.351 2209.62 391.495 L2209.62 386.981 Q2211.56 388.115 2213.88 388.694 Q2216.19 389.273 2218.71 389.273 Q2223.11 389.273 2225.4 387.537 Q2227.72 385.801 2227.72 382.49 Q2227.72 379.435 2225.57 377.722 Q2223.44 375.986 2219.62 375.986 L2215.59 375.986 L2215.59 372.143 L2219.8 372.143 Q2223.25 372.143 2225.08 370.778 Q2226.91 369.389 2226.91 366.796 Q2226.91 364.134 2225.01 362.722 Q2223.14 361.287 2219.62 361.287 Q2217.7 361.287 2215.5 361.703 Q2213.3 362.12 2210.66 363 L2210.66 358.833 Q2213.32 358.092 2215.64 357.722 Q2217.97 357.352 2220.03 357.352 Q2225.36 357.352 2228.46 359.782 Q2231.56 362.19 2231.56 366.31 Q2231.56 369.18 2229.92 371.171 Q2228.27 373.139 2225.24 373.902 Z" fill="#bebebe" fill-rule="evenodd" fill-opacity="1" /></svg>
