<?xml version="1.0" encoding="utf-8"?>
<svg xmlns="http://www.w3.org/2000/svg" xmlns:xlink="http://www.w3.org/1999/xlink" width="600" height="400" viewBox="0 0 2400 1600">
<defs>
  <clipPath id="clip190">
    <rect x="0" y="0" width="2400" height="1600"/>
  </clipPath>
</defs>
<path clip-path="url(#clip190)" d="
M0 1600 L2400 1600 L2400 0 L0 0  Z
  " fill="#ffffff" fill-rule="evenodd" fill-opacity="1"/>
<defs>
  <clipPath id="clip191">
    <rect x="480" y="0" width="1681" height="1600"/>
  </clipPath>
</defs>
<path clip-path="url(#clip190)" d="
M185.846 1482.13 L2352.76 1482.13 L2352.76 149.392 L185.846 149.392  Z
  " fill="#ffffff" fill-rule="evenodd" fill-opacity="1"/>
<defs>
  <clipPath id="clip192">
    <rect x="185" y="149" width="2168" height="1334"/>
  </clipPath>
</defs>
<polyline clip-path="url(#clip192)" style="stroke:#000000; stroke-width:2; stroke-opacity:0.1; fill:none" points="
  677.543,1482.13 677.543,149.392 
  "/>
<polyline clip-path="url(#clip192)" style="stroke:#000000; stroke-width:2; stroke-opacity:0.1; fill:none" points="
  1215.5,1482.13 1215.5,149.392 
  "/>
<polyline clip-path="url(#clip192)" style="stroke:#000000; stroke-width:2; stroke-opacity:0.1; fill:none" points="
  1753.47,1482.13 1753.47,149.392 
  "/>
<polyline clip-path="url(#clip192)" style="stroke:#000000; stroke-width:2; stroke-opacity:0.1; fill:none" points="
  2291.43,1482.13 2291.43,149.392 
  "/>
<polyline clip-path="url(#clip190)" style="stroke:#000000; stroke-width:4; stroke-opacity:1; fill:none" points="
  185.846,1482.13 2352.76,1482.13 
  "/>
<polyline clip-path="url(#clip190)" style="stroke:#000000; stroke-width:4; stroke-opacity:1; fill:none" points="
  677.543,1482.13 677.543,1466.14 
  "/>
<polyline clip-path="url(#clip190)" style="stroke:#000000; stroke-width:4; stroke-opacity:1; fill:none" points="
  1215.5,1482.13 1215.5,1466.14 
  "/>
<polyline clip-path="url(#clip190)" style="stroke:#000000; stroke-width:4; stroke-opacity:1; fill:none" points="
  1753.47,1482.13 1753.47,1466.14 
  "/>
<polyline clip-path="url(#clip190)" style="stroke:#000000; stroke-width:4; stroke-opacity:1; fill:none" points="
  2291.43,1482.13 2291.43,1466.14 
  "/>
<path clip-path="url(#clip190)" d="M 0 0 M666.605 1509.1 L687.256 1509.1 L687.256 1513.53 L671.423 1513.53 L671.423 1523.06 Q672.569 1522.67 673.715 1522.49 Q674.861 1522.28 676.006 1522.28 Q682.517 1522.28 686.319 1525.85 Q690.121 1529.42 690.121 1535.51 Q690.121 1541.79 686.215 1545.28 Q682.308 1548.74 675.199 1548.74 Q672.751 1548.74 670.199 1548.32 Q667.673 1547.91 664.965 1547.07 L664.965 1541.79 Q667.309 1543.06 669.809 1543.69 Q672.309 1544.31 675.095 1544.31 Q679.6 1544.31 682.23 1541.94 Q684.861 1539.57 684.861 1535.51 Q684.861 1531.45 682.23 1529.08 Q679.6 1526.71 675.095 1526.71 Q672.986 1526.71 670.876 1527.18 Q668.793 1527.65 666.605 1528.64 L666.605 1509.1 Z" fill="#bebebe" fill-rule="evenodd" fill-opacity="1" /><path clip-path="url(#clip190)" d="M 0 0 M1189.49 1543.56 L1198.08 1543.56 L1198.08 1513.9 L1188.73 1515.77 L1188.73 1510.98 L1198.03 1509.1 L1203.29 1509.1 L1203.29 1543.56 L1211.88 1543.56 L1211.88 1547.98 L1189.49 1547.98 L1189.49 1543.56 Z" fill="#bebebe" fill-rule="evenodd" fill-opacity="1" /><path clip-path="url(#clip190)" d="M 0 0 M1228.84 1512.57 Q1224.78 1512.57 1222.72 1516.58 Q1220.69 1520.56 1220.69 1528.58 Q1220.69 1536.58 1222.72 1540.59 Q1224.78 1544.57 1228.84 1544.57 Q1232.93 1544.57 1234.96 1540.59 Q1237.01 1536.58 1237.01 1528.58 Q1237.01 1520.56 1234.96 1516.58 Q1232.93 1512.57 1228.84 1512.57 M1228.84 1508.4 Q1235.37 1508.4 1238.81 1513.58 Q1242.28 1518.74 1242.28 1528.58 Q1242.28 1538.4 1238.81 1543.58 Q1235.37 1548.74 1228.84 1548.74 Q1222.3 1548.74 1218.84 1543.58 Q1215.4 1538.4 1215.4 1528.58 Q1215.4 1518.74 1218.84 1513.58 Q1222.3 1508.4 1228.84 1508.4 Z" fill="#bebebe" fill-rule="evenodd" fill-opacity="1" /><path clip-path="url(#clip190)" d="M 0 0 M1728.01 1543.56 L1736.6 1543.56 L1736.6 1513.9 L1727.26 1515.77 L1727.26 1510.98 L1736.55 1509.1 L1741.81 1509.1 L1741.81 1543.56 L1750.41 1543.56 L1750.41 1547.98 L1728.01 1547.98 L1728.01 1543.56 Z" fill="#bebebe" fill-rule="evenodd" fill-opacity="1" /><path clip-path="url(#clip190)" d="M 0 0 M1756.16 1509.1 L1776.81 1509.1 L1776.81 1513.53 L1760.98 1513.53 L1760.98 1523.06 Q1762.13 1522.67 1763.27 1522.49 Q1764.42 1522.28 1765.56 1522.28 Q1772.07 1522.28 1775.88 1525.85 Q1779.68 1529.42 1779.68 1535.51 Q1779.68 1541.79 1775.77 1545.28 Q1771.86 1548.74 1764.76 1548.74 Q1762.31 1548.74 1759.76 1548.32 Q1757.23 1547.91 1754.52 1547.07 L1754.52 1541.79 Q1756.86 1543.06 1759.36 1543.69 Q1761.86 1544.31 1764.65 1544.31 Q1769.16 1544.31 1771.79 1541.94 Q1774.42 1539.57 1774.42 1535.51 Q1774.42 1531.45 1771.79 1529.08 Q1769.16 1526.71 1764.65 1526.71 Q1762.54 1526.71 1760.43 1527.18 Q1758.35 1527.65 1756.16 1528.64 L1756.16 1509.1 Z" fill="#bebebe" fill-rule="evenodd" fill-opacity="1" /><path clip-path="url(#clip190)" d="M 0 0 M2270.22 1543.56 L2288.58 1543.56 L2288.58 1547.98 L2263.89 1547.98 L2263.89 1543.56 Q2266.88 1540.46 2272.04 1535.25 Q2277.22 1530.02 2278.55 1528.5 Q2281.08 1525.67 2282.07 1523.71 Q2283.08 1521.73 2283.08 1519.83 Q2283.08 1516.73 2280.89 1514.78 Q2278.73 1512.83 2275.24 1512.83 Q2272.77 1512.83 2270.01 1513.69 Q2267.27 1514.55 2264.15 1516.29 L2264.15 1510.98 Q2267.33 1509.7 2270.09 1509.05 Q2272.85 1508.4 2275.14 1508.4 Q2281.18 1508.4 2284.77 1511.42 Q2288.37 1514.44 2288.37 1519.49 Q2288.37 1521.89 2287.46 1524.05 Q2286.57 1526.19 2284.2 1529.1 Q2283.55 1529.86 2280.06 1533.48 Q2276.57 1537.07 2270.22 1543.56 Z" fill="#bebebe" fill-rule="evenodd" fill-opacity="1" /><path clip-path="url(#clip190)" d="M 0 0 M2305.53 1512.57 Q2301.47 1512.57 2299.41 1516.58 Q2297.38 1520.56 2297.38 1528.58 Q2297.38 1536.58 2299.41 1540.59 Q2301.47 1544.57 2305.53 1544.57 Q2309.62 1544.57 2311.65 1540.59 Q2313.71 1536.58 2313.71 1528.58 Q2313.71 1520.56 2311.65 1516.58 Q2309.62 1512.57 2305.53 1512.57 M2305.53 1508.4 Q2312.07 1508.4 2315.5 1513.58 Q2318.97 1518.74 2318.97 1528.58 Q2318.97 1538.4 2315.5 1543.58 Q2312.07 1548.74 2305.53 1548.74 Q2298.99 1548.74 2295.53 1543.58 Q2292.09 1538.4 2292.09 1528.58 Q2292.09 1518.74 2295.53 1513.58 Q2298.99 1508.4 2305.53 1508.4 Z" fill="#bebebe" fill-rule="evenodd" fill-opacity="1" /><polyline clip-path="url(#clip192)" style="stroke:#000000; stroke-width:2; stroke-opacity:0.1; fill:none" points="
  185.846,1478.08 2352.76,1478.08 
  "/>
<polyline clip-path="url(#clip192)" style="stroke:#000000; stroke-width:2; stroke-opacity:0.1; fill:none" points="
  185.846,1147.78 2352.76,1147.78 
  "/>
<polyline clip-path="url(#clip192)" style="stroke:#000000; stroke-width:2; stroke-opacity:0.1; fill:none" points="
  185.846,817.484 2352.76,817.484 
  "/>
<polyline clip-path="url(#clip192)" style="stroke:#000000; stroke-width:2; stroke-opacity:0.1; fill:none" points="
  185.846,487.186 2352.76,487.186 
  "/>
<polyline clip-path="url(#clip192)" style="stroke:#000000; stroke-width:2; stroke-opacity:0.1; fill:none" points="
  185.846,156.889 2352.76,156.889 
  "/>
<polyline clip-path="url(#clip190)" style="stroke:#000000; stroke-width:4; stroke-opacity:1; fill:none" points="
  185.846,1482.13 185.846,149.392 
  "/>
<polyline clip-path="url(#clip190)" style="stroke:#000000; stroke-width:4; stroke-opacity:1; fill:none" points="
  185.846,1478.08 211.849,1478.08 
  "/>
<polyline clip-path="url(#clip190)" style="stroke:#000000; stroke-width:4; stroke-opacity:1; fill:none" points="
  185.846,1147.78 211.849,1147.78 
  "/>
<polyline clip-path="url(#clip190)" style="stroke:#000000; stroke-width:4; stroke-opacity:1; fill:none" points="
  185.846,817.484 211.849,817.484 
  "/>
<polyline clip-path="url(#clip190)" style="stroke:#000000; stroke-width:4; stroke-opacity:1; fill:none" points="
  185.846,487.186 211.849,487.186 
  "/>
<polyline clip-path="url(#clip190)" style="stroke:#000000; stroke-width:4; stroke-opacity:1; fill:none" points="
  185.846,156.889 211.849,156.889 
  "/>
<path clip-path="url(#clip190)" d="M 0 0 M64.4296 1462.1 Q60.3671 1462.1 58.3098 1466.11 Q56.2786 1470.1 56.2786 1478.12 Q56.2786 1486.11 58.3098 1490.12 Q60.3671 1494.11 64.4296 1494.11 Q68.5181 1494.11 70.5493 1490.12 Q72.6066 1486.11 72.6066 1478.12 Q72.6066 1470.1 70.5493 1466.11 Q68.5181 1462.1 64.4296 1462.1 M64.4296 1457.94 Q70.966 1457.94 74.4035 1463.12 Q77.867 1468.27 77.867 1478.12 Q77.867 1487.94 74.4035 1493.12 Q70.966 1498.27 64.4296 1498.27 Q57.8931 1498.27 54.4296 1493.12 Q50.9921 1487.94 50.9921 1478.12 Q50.9921 1468.27 54.4296 1463.12 Q57.8931 1457.94 64.4296 1457.94 Z" fill="#bebebe" fill-rule="evenodd" fill-opacity="1" /><path clip-path="url(#clip190)" d="M 0 0 M83.5701 1490.91 L89.0648 1490.91 L89.0648 1497.52 L83.5701 1497.52 L83.5701 1490.91 Z" fill="#bebebe" fill-rule="evenodd" fill-opacity="1" /><path clip-path="url(#clip190)" d="M 0 0 M106.018 1462.1 Q101.955 1462.1 99.8981 1466.11 Q97.8669 1470.1 97.8669 1478.12 Q97.8669 1486.11 99.8981 1490.12 Q101.955 1494.11 106.018 1494.11 Q110.106 1494.11 112.138 1490.12 Q114.195 1486.11 114.195 1478.12 Q114.195 1470.1 112.138 1466.11 Q110.106 1462.1 106.018 1462.1 M106.018 1457.94 Q112.554 1457.94 115.992 1463.12 Q119.455 1468.27 119.455 1478.12 Q119.455 1487.94 115.992 1493.12 Q112.554 1498.27 106.018 1498.27 Q99.4814 1498.27 96.0179 1493.12 Q92.5804 1487.94 92.5804 1478.12 Q92.5804 1468.27 96.0179 1463.12 Q99.4814 1457.94 106.018 1457.94 Z" fill="#bebebe" fill-rule="evenodd" fill-opacity="1" /><path clip-path="url(#clip190)" d="M 0 0 M136.408 1462.1 Q132.346 1462.1 130.289 1466.11 Q128.257 1470.1 128.257 1478.12 Q128.257 1486.11 130.289 1490.12 Q132.346 1494.11 136.408 1494.11 Q140.497 1494.11 142.528 1490.12 Q144.585 1486.11 144.585 1478.12 Q144.585 1470.1 142.528 1466.11 Q140.497 1462.1 136.408 1462.1 M136.408 1457.94 Q142.945 1457.94 146.382 1463.12 Q149.846 1468.27 149.846 1478.12 Q149.846 1487.94 146.382 1493.12 Q142.945 1498.27 136.408 1498.27 Q129.872 1498.27 126.408 1493.12 Q122.971 1487.94 122.971 1478.12 Q122.971 1468.27 126.408 1463.12 Q129.872 1457.94 136.408 1457.94 Z" fill="#bebebe" fill-rule="evenodd" fill-opacity="1" /><path clip-path="url(#clip190)" d="M 0 0 M67.3462 1131.81 Q63.2837 1131.81 61.2264 1135.82 Q59.1952 1139.8 59.1952 1147.82 Q59.1952 1155.82 61.2264 1159.83 Q63.2837 1163.81 67.3462 1163.81 Q71.4347 1163.81 73.466 1159.83 Q75.5232 1155.82 75.5232 1147.82 Q75.5232 1139.8 73.466 1135.82 Q71.4347 1131.81 67.3462 1131.81 M67.3462 1127.64 Q73.8826 1127.64 77.3201 1132.82 Q80.7836 1137.98 80.7836 1147.82 Q80.7836 1157.64 77.3201 1162.82 Q73.8826 1167.98 67.3462 1167.98 Q60.8098 1167.98 57.3463 1162.82 Q53.9088 1157.64 53.9088 1147.82 Q53.9088 1137.98 57.3463 1132.82 Q60.8098 1127.64 67.3462 1127.64 Z" fill="#bebebe" fill-rule="evenodd" fill-opacity="1" /><path clip-path="url(#clip190)" d="M 0 0 M86.4867 1160.61 L91.9815 1160.61 L91.9815 1167.22 L86.4867 1167.22 L86.4867 1160.61 Z" fill="#bebebe" fill-rule="evenodd" fill-opacity="1" /><path clip-path="url(#clip190)" d="M 0 0 M102.216 1162.79 L120.575 1162.79 L120.575 1167.22 L95.8877 1167.22 L95.8877 1162.79 Q98.8825 1159.7 104.039 1154.49 Q109.221 1149.25 110.549 1147.74 Q113.075 1144.9 114.065 1142.95 Q115.08 1140.97 115.08 1139.07 Q115.08 1135.97 112.893 1134.02 Q110.731 1132.07 107.242 1132.07 Q104.768 1132.07 102.007 1132.93 Q99.2731 1133.78 96.1481 1135.53 L96.1481 1130.22 Q99.3252 1128.94 102.086 1128.29 Q104.846 1127.64 107.138 1127.64 Q113.179 1127.64 116.773 1130.66 Q120.367 1133.68 120.367 1138.73 Q120.367 1141.13 119.455 1143.29 Q118.57 1145.43 116.2 1148.34 Q115.549 1149.1 112.06 1152.72 Q108.57 1156.31 102.216 1162.79 Z" fill="#bebebe" fill-rule="evenodd" fill-opacity="1" /><path clip-path="url(#clip190)" d="M 0 0 M126.33 1128.34 L146.981 1128.34 L146.981 1132.77 L131.148 1132.77 L131.148 1142.3 Q132.294 1141.91 133.44 1141.73 Q134.585 1141.52 135.731 1141.52 Q142.242 1141.52 146.044 1145.09 Q149.846 1148.65 149.846 1154.75 Q149.846 1161.02 145.94 1164.51 Q142.033 1167.98 134.924 1167.98 Q132.476 1167.98 129.924 1167.56 Q127.398 1167.14 124.69 1166.31 L124.69 1161.02 Q127.033 1162.3 129.533 1162.93 Q132.033 1163.55 134.82 1163.55 Q139.325 1163.55 141.955 1161.18 Q144.585 1158.81 144.585 1154.75 Q144.585 1150.69 141.955 1148.32 Q139.325 1145.95 134.82 1145.95 Q132.71 1145.95 130.601 1146.41 Q128.518 1146.88 126.33 1147.87 L126.33 1128.34 Z" fill="#bebebe" fill-rule="evenodd" fill-opacity="1" /><path clip-path="url(#clip190)" d="M 0 0 M65.5493 801.508 Q61.4869 801.508 59.4296 805.518 Q57.3983 809.502 57.3983 817.523 Q57.3983 825.518 59.4296 829.528 Q61.4869 833.513 65.5493 833.513 Q69.6379 833.513 71.6691 829.528 Q73.7264 825.518 73.7264 817.523 Q73.7264 809.502 71.6691 805.518 Q69.6379 801.508 65.5493 801.508 M65.5493 797.341 Q72.0858 797.341 75.5232 802.523 Q78.9868 807.68 78.9868 817.523 Q78.9868 827.341 75.5232 832.523 Q72.0858 837.679 65.5493 837.679 Q59.0129 837.679 55.5494 832.523 Q52.1119 827.341 52.1119 817.523 Q52.1119 807.68 55.5494 802.523 Q59.0129 797.341 65.5493 797.341 Z" fill="#bebebe" fill-rule="evenodd" fill-opacity="1" /><path clip-path="url(#clip190)" d="M 0 0 M84.6899 830.31 L90.1846 830.31 L90.1846 836.924 L84.6899 836.924 L84.6899 830.31 Z" fill="#bebebe" fill-rule="evenodd" fill-opacity="1" /><path clip-path="url(#clip190)" d="M 0 0 M95.9398 798.044 L116.591 798.044 L116.591 802.471 L100.757 802.471 L100.757 812.002 Q101.903 811.612 103.049 811.43 Q104.195 811.221 105.341 811.221 Q111.851 811.221 115.653 814.789 Q119.455 818.357 119.455 824.45 Q119.455 830.726 115.549 834.216 Q111.643 837.679 104.534 837.679 Q102.086 837.679 99.5335 837.263 Q97.0075 836.846 94.2992 836.013 L94.2992 830.726 Q96.6429 832.002 99.1429 832.627 Q101.643 833.252 104.429 833.252 Q108.935 833.252 111.565 830.883 Q114.195 828.513 114.195 824.45 Q114.195 820.388 111.565 818.018 Q108.935 815.648 104.429 815.648 Q102.32 815.648 100.211 816.117 Q98.1273 816.586 95.9398 817.575 L95.9398 798.044 Z" fill="#bebebe" fill-rule="evenodd" fill-opacity="1" /><path clip-path="url(#clip190)" d="M 0 0 M136.408 801.508 Q132.346 801.508 130.289 805.518 Q128.257 809.502 128.257 817.523 Q128.257 825.518 130.289 829.528 Q132.346 833.513 136.408 833.513 Q140.497 833.513 142.528 829.528 Q144.585 825.518 144.585 817.523 Q144.585 809.502 142.528 805.518 Q140.497 801.508 136.408 801.508 M136.408 797.341 Q142.945 797.341 146.382 802.523 Q149.846 807.68 149.846 817.523 Q149.846 827.341 146.382 832.523 Q142.945 837.679 136.408 837.679 Q129.872 837.679 126.408 832.523 Q122.971 827.341 122.971 817.523 Q122.971 807.68 126.408 802.523 Q129.872 797.341 136.408 797.341 Z" fill="#bebebe" fill-rule="evenodd" fill-opacity="1" /><path clip-path="url(#clip190)" d="M 0 0 M66.565 471.21 Q62.5025 471.21 60.4452 475.22 Q58.414 479.205 58.414 487.226 Q58.414 495.22 60.4452 499.231 Q62.5025 503.215 66.565 503.215 Q70.6535 503.215 72.6847 499.231 Q74.742 495.22 74.742 487.226 Q74.742 479.205 72.6847 475.22 Q70.6535 471.21 66.565 471.21 M66.565 467.043 Q73.1014 467.043 76.5389 472.226 Q80.0024 477.382 80.0024 487.226 Q80.0024 497.043 76.5389 502.225 Q73.1014 507.382 66.565 507.382 Q60.0285 507.382 56.565 502.225 Q53.1275 497.043 53.1275 487.226 Q53.1275 477.382 56.565 472.226 Q60.0285 467.043 66.565 467.043 Z" fill="#bebebe" fill-rule="evenodd" fill-opacity="1" /><path clip-path="url(#clip190)" d="M 0 0 M85.7055 500.012 L91.2002 500.012 L91.2002 506.626 L85.7055 506.626 L85.7055 500.012 Z" fill="#bebebe" fill-rule="evenodd" fill-opacity="1" /><path clip-path="url(#clip190)" d="M 0 0 M95.5752 467.746 L120.575 467.746 L120.575 469.986 L106.461 506.626 L100.966 506.626 L114.247 472.174 L95.5752 472.174 L95.5752 467.746 Z" fill="#bebebe" fill-rule="evenodd" fill-opacity="1" /><path clip-path="url(#clip190)" d="M 0 0 M126.33 467.746 L146.981 467.746 L146.981 472.174 L131.148 472.174 L131.148 481.705 Q132.294 481.314 133.44 481.132 Q134.585 480.923 135.731 480.923 Q142.242 480.923 146.044 484.491 Q149.846 488.059 149.846 494.153 Q149.846 500.429 145.94 503.918 Q142.033 507.382 134.924 507.382 Q132.476 507.382 129.924 506.965 Q127.398 506.548 124.69 505.715 L124.69 500.429 Q127.033 501.705 129.533 502.33 Q132.033 502.955 134.82 502.955 Q139.325 502.955 141.955 500.585 Q144.585 498.215 144.585 494.153 Q144.585 490.09 141.955 487.72 Q139.325 485.351 134.82 485.351 Q132.71 485.351 130.601 485.819 Q128.518 486.288 126.33 487.278 L126.33 467.746 Z" fill="#bebebe" fill-rule="evenodd" fill-opacity="1" /><path clip-path="url(#clip190)" d="M 0 0 M55.4713 171.902 L64.065 171.902 L64.065 142.24 L54.7161 144.115 L54.7161 139.324 L64.0129 137.449 L69.2733 137.449 L69.2733 171.902 L77.867 171.902 L77.867 176.329 L55.4713 176.329 L55.4713 171.902 Z" fill="#bebebe" fill-rule="evenodd" fill-opacity="1" /><path clip-path="url(#clip190)" d="M 0 0 M83.5701 169.714 L89.0648 169.714 L89.0648 176.329 L83.5701 176.329 L83.5701 169.714 Z" fill="#bebebe" fill-rule="evenodd" fill-opacity="1" /><path clip-path="url(#clip190)" d="M 0 0 M106.018 140.912 Q101.955 140.912 99.8981 144.923 Q97.8669 148.907 97.8669 156.928 Q97.8669 164.923 99.8981 168.933 Q101.955 172.917 106.018 172.917 Q110.106 172.917 112.138 168.933 Q114.195 164.923 114.195 156.928 Q114.195 148.907 112.138 144.923 Q110.106 140.912 106.018 140.912 M106.018 136.746 Q112.554 136.746 115.992 141.928 Q119.455 147.084 119.455 156.928 Q119.455 166.745 115.992 171.928 Q112.554 177.084 106.018 177.084 Q99.4814 177.084 96.0179 171.928 Q92.5804 166.745 92.5804 156.928 Q92.5804 147.084 96.0179 141.928 Q99.4814 136.746 106.018 136.746 Z" fill="#bebebe" fill-rule="evenodd" fill-opacity="1" /><path clip-path="url(#clip190)" d="M 0 0 M136.408 140.912 Q132.346 140.912 130.289 144.923 Q128.257 148.907 128.257 156.928 Q128.257 164.923 130.289 168.933 Q132.346 172.917 136.408 172.917 Q140.497 172.917 142.528 168.933 Q144.585 164.923 144.585 156.928 Q144.585 148.907 142.528 144.923 Q140.497 140.912 136.408 140.912 M136.408 136.746 Q142.945 136.746 146.382 141.928 Q149.846 147.084 149.846 156.928 Q149.846 166.745 146.382 171.928 Q142.945 177.084 136.408 177.084 Q129.872 177.084 126.408 171.928 Q122.971 166.745 122.971 156.928 Q122.971 147.084 126.408 141.928 Q129.872 136.746 136.408 136.746 Z" fill="#bebebe" fill-rule="evenodd" fill-opacity="1" /><path clip-path="url(#clip190)" d="M 0 0 M963.429 20.1156 L963.429 31.516 Q956.774 28.3332 950.871 26.7707 Q944.968 25.2082 939.47 25.2082 Q929.922 25.2082 924.714 28.9119 Q919.563 32.6156 919.563 39.4442 Q919.563 45.1734 922.977 48.1247 Q926.45 51.0182 936.056 52.8122 L943.116 54.259 Q956.195 56.7474 962.387 63.0552 Q968.637 69.3052 968.637 79.8375 Q968.637 92.3953 960.188 98.8768 Q951.797 105.358 935.535 105.358 Q929.401 105.358 922.457 103.969 Q915.57 102.58 908.163 99.8606 L908.163 87.8236 Q915.281 91.8166 922.109 93.8421 Q928.938 95.8675 935.535 95.8675 Q945.547 95.8675 950.987 91.9324 Q956.426 87.9972 956.426 80.7056 Q956.426 74.3399 952.491 70.7519 Q948.614 67.164 939.702 65.37 L932.584 63.9811 Q919.505 61.377 913.66 55.8215 Q907.816 50.2659 907.816 40.3702 Q907.816 28.9119 915.859 22.3147 Q923.961 15.7175 938.139 15.7175 Q944.216 15.7175 950.524 16.817 Q956.831 17.9166 963.429 20.1156 Z" fill="#bebebe" fill-rule="evenodd" fill-opacity="1" /><path clip-path="url(#clip190)" d="M 0 0 M1035.25 68.6107 L1035.25 73.819 L986.287 73.819 Q986.982 84.8144 992.884 90.6014 Q998.845 96.3305 1009.44 96.3305 Q1015.57 96.3305 1021.3 94.8259 Q1027.09 93.3213 1032.76 90.312 L1032.76 100.381 Q1027.03 102.812 1021.01 104.085 Q1014.99 105.358 1008.8 105.358 Q993.29 105.358 984.204 96.3305 Q975.176 87.3028 975.176 71.9093 Q975.176 55.9951 983.741 46.678 Q992.364 37.303 1006.95 37.303 Q1020.03 37.303 1027.61 45.7521 Q1035.25 54.1432 1035.25 68.6107 M1024.6 65.4858 Q1024.48 56.7474 1019.68 51.5391 Q1014.93 46.3308 1007.06 46.3308 Q998.151 46.3308 992.769 51.3655 Q987.445 56.4002 986.635 65.5436 L1024.6 65.4858 Z" fill="#bebebe" fill-rule="evenodd" fill-opacity="1" /><path clip-path="url(#clip190)" d="M 0 0 M1083.97 48.8192 Q1082.18 47.7775 1080.04 47.3146 Q1077.95 46.7937 1075.41 46.7937 Q1066.38 46.7937 1061.52 52.6965 Q1056.72 58.5414 1056.72 69.5367 L1056.72 103.68 L1046.01 103.68 L1046.01 38.8655 L1056.72 38.8655 L1056.72 48.9349 Q1060.07 43.0322 1065.45 40.1965 Q1070.84 37.303 1078.53 37.303 Q1079.63 37.303 1080.96 37.4767 Q1082.29 37.5924 1083.91 37.8817 L1083.97 48.8192 Z" fill="#bebebe" fill-rule="evenodd" fill-opacity="1" /><path clip-path="url(#clip190)" d="M 0 0 M1095.14 38.8655 L1105.79 38.8655 L1105.79 103.68 L1095.14 103.68 L1095.14 38.8655 M1095.14 13.6342 L1105.79 13.6342 L1105.79 27.1179 L1095.14 27.1179 L1095.14 13.6342 Z" fill="#bebebe" fill-rule="evenodd" fill-opacity="1" /><path clip-path="url(#clip190)" d="M 0 0 M1172.4 68.6107 L1172.4 73.819 L1123.44 73.819 Q1124.13 84.8144 1130.04 90.6014 Q1136 96.3305 1146.59 96.3305 Q1152.72 96.3305 1158.45 94.8259 Q1164.24 93.3213 1169.91 90.312 L1169.91 100.381 Q1164.18 102.812 1158.16 104.085 Q1152.14 105.358 1145.95 105.358 Q1130.44 105.358 1121.36 96.3305 Q1112.33 87.3028 1112.33 71.9093 Q1112.33 55.9951 1120.89 46.678 Q1129.52 37.303 1144.1 37.303 Q1157.18 37.303 1164.76 45.7521 Q1172.4 54.1432 1172.4 68.6107 M1161.75 65.4858 Q1161.63 56.7474 1156.83 51.5391 Q1152.09 46.3308 1144.21 46.3308 Q1135.3 46.3308 1129.92 51.3655 Q1124.6 56.4002 1123.79 65.5436 L1161.75 65.4858 Z" fill="#bebebe" fill-rule="evenodd" fill-opacity="1" /><path clip-path="url(#clip190)" d="M 0 0 M1231.31 17.28 L1231.31 49.3979 L1221.47 49.3979 L1221.47 17.28 L1231.31 17.28 Z" fill="#bebebe" fill-rule="evenodd" fill-opacity="1" /><path clip-path="url(#clip190)" d="M 0 0 M1283.8 40.7752 L1283.8 50.8446 Q1279.28 48.5298 1274.42 47.3724 Q1269.56 46.215 1264.35 46.215 Q1256.42 46.215 1252.43 48.6456 Q1248.5 51.0761 1248.5 55.9372 Q1248.5 59.6409 1251.33 61.7821 Q1254.17 63.8654 1262.73 65.7751 L1266.38 66.5853 Q1277.72 69.0158 1282.47 73.4718 Q1287.27 77.87 1287.27 85.7982 Q1287.27 94.8259 1280.09 100.092 Q1272.98 105.358 1260.48 105.358 Q1255.27 105.358 1249.6 104.317 Q1243.98 103.333 1237.73 101.307 L1237.73 90.312 Q1243.64 93.3791 1249.36 94.9416 Q1255.09 96.4462 1260.71 96.4462 Q1268.23 96.4462 1272.28 93.9 Q1276.33 91.2958 1276.33 86.6083 Q1276.33 82.2681 1273.38 79.9533 Q1270.49 77.6385 1260.59 75.4973 L1256.89 74.6292 Q1246.99 72.5459 1242.59 68.2635 Q1238.2 63.9233 1238.2 56.4002 Q1238.2 47.2567 1244.68 42.2799 Q1251.16 37.303 1263.08 37.303 Q1268.98 37.303 1274.19 38.1711 Q1279.4 39.0391 1283.8 40.7752 Z" fill="#bebebe" fill-rule="evenodd" fill-opacity="1" /><path clip-path="url(#clip190)" d="M 0 0 M1345.08 41.3539 L1345.08 51.3076 Q1340.57 48.8192 1336 47.6039 Q1331.48 46.3308 1326.85 46.3308 Q1316.49 46.3308 1310.76 52.928 Q1305.04 59.4673 1305.04 71.3306 Q1305.04 83.194 1310.76 89.7912 Q1316.49 96.3305 1326.85 96.3305 Q1331.48 96.3305 1336 95.1152 Q1340.57 93.8421 1345.08 91.3537 L1345.08 101.192 Q1340.63 103.275 1335.82 104.317 Q1331.08 105.358 1325.7 105.358 Q1311.05 105.358 1302.43 96.1569 Q1293.81 86.9556 1293.81 71.3306 Q1293.81 55.4742 1302.49 46.3886 Q1311.23 37.303 1326.39 37.303 Q1331.31 37.303 1336 38.3447 Q1340.68 39.3285 1345.08 41.3539 Z" fill="#bebebe" fill-rule="evenodd" fill-opacity="1" /><path clip-path="url(#clip190)" d="M 0 0 M1385.71 71.0992 Q1372.8 71.0992 1367.82 74.0505 Q1362.85 77.0019 1362.85 84.1199 Q1362.85 89.7912 1366.55 93.1476 Q1370.31 96.4462 1376.74 96.4462 Q1385.59 96.4462 1390.91 90.1963 Q1396.3 83.8884 1396.3 73.4718 L1396.3 71.0992 L1385.71 71.0992 M1406.94 66.701 L1406.94 103.68 L1396.3 103.68 L1396.3 93.8421 Q1392.65 99.7448 1387.21 102.58 Q1381.77 105.358 1373.9 105.358 Q1363.95 105.358 1358.04 99.8027 Q1352.2 94.1893 1352.2 84.8144 Q1352.2 73.8769 1359.49 68.3214 Q1366.84 62.7659 1381.37 62.7659 L1396.3 62.7659 L1396.3 61.7242 Q1396.3 54.3747 1391.44 50.3817 Q1386.63 46.3308 1377.89 46.3308 Q1372.34 46.3308 1367.07 47.6618 Q1361.81 48.9928 1356.95 51.6548 L1356.95 41.8169 Q1362.79 39.56 1368.29 38.4604 Q1373.79 37.303 1378.99 37.303 Q1393.06 37.303 1400 44.5947 Q1406.94 51.8863 1406.94 66.701 Z" fill="#bebebe" fill-rule="evenodd" fill-opacity="1" /><path clip-path="url(#clip190)" d="M 0 0 M1428.65 20.4629 L1428.65 38.8655 L1450.58 38.8655 L1450.58 47.141 L1428.65 47.141 L1428.65 82.3259 Q1428.65 90.2541 1430.79 92.5111 Q1432.99 94.768 1439.64 94.768 L1450.58 94.768 L1450.58 103.68 L1439.64 103.68 Q1427.32 103.68 1422.63 99.1083 Q1417.94 94.4787 1417.94 82.3259 L1417.94 47.141 L1410.13 47.141 L1410.13 38.8655 L1417.94 38.8655 L1417.94 20.4629 L1428.65 20.4629 Z" fill="#bebebe" fill-rule="evenodd" fill-opacity="1" /><path clip-path="url(#clip190)" d="M 0 0 M1472.28 20.4629 L1472.28 38.8655 L1494.21 38.8655 L1494.21 47.141 L1472.28 47.141 L1472.28 82.3259 Q1472.28 90.2541 1474.42 92.5111 Q1476.62 94.768 1483.28 94.768 L1494.21 94.768 L1494.21 103.68 L1483.28 103.68 Q1470.95 103.68 1466.26 99.1083 Q1461.57 94.4787 1461.57 82.3259 L1461.57 47.141 L1453.76 47.141 L1453.76 38.8655 L1461.57 38.8655 L1461.57 20.4629 L1472.28 20.4629 Z" fill="#bebebe" fill-rule="evenodd" fill-opacity="1" /><path clip-path="url(#clip190)" d="M 0 0 M1560.82 68.6107 L1560.82 73.819 L1511.86 73.819 Q1512.56 84.8144 1518.46 90.6014 Q1524.42 96.3305 1535.01 96.3305 Q1541.15 96.3305 1546.87 94.8259 Q1552.66 93.3213 1558.33 90.312 L1558.33 100.381 Q1552.6 102.812 1546.59 104.085 Q1540.57 105.358 1534.37 105.358 Q1518.87 105.358 1509.78 96.3305 Q1500.75 87.3028 1500.75 71.9093 Q1500.75 55.9951 1509.32 46.678 Q1517.94 37.303 1532.52 37.303 Q1545.6 37.303 1553.18 45.7521 Q1560.82 54.1432 1560.82 68.6107 M1550.17 65.4858 Q1550.06 56.7474 1545.25 51.5391 Q1540.51 46.3308 1532.64 46.3308 Q1523.73 46.3308 1518.34 51.3655 Q1513.02 56.4002 1512.21 65.5436 L1550.17 65.4858 Z" fill="#bebebe" fill-rule="evenodd" fill-opacity="1" /><path clip-path="url(#clip190)" d="M 0 0 M1609.55 48.8192 Q1607.75 47.7775 1605.61 47.3146 Q1603.53 46.7937 1600.98 46.7937 Q1591.96 46.7937 1587.09 52.6965 Q1582.29 58.5414 1582.29 69.5367 L1582.29 103.68 L1571.59 103.68 L1571.59 38.8655 L1582.29 38.8655 L1582.29 48.9349 Q1585.65 43.0322 1591.03 40.1965 Q1596.41 37.303 1604.11 37.303 Q1605.21 37.303 1606.54 37.4767 Q1607.87 37.5924 1609.49 37.8817 L1609.55 48.8192 Z" fill="#bebebe" fill-rule="evenodd" fill-opacity="1" /><path clip-path="url(#clip190)" d="M 0 0 M1630.79 17.28 L1630.79 49.3979 L1620.95 49.3979 L1620.95 17.28 L1630.79 17.28 Z" fill="#bebebe" fill-rule="evenodd" fill-opacity="1" /><path clip-path="url(#clip192)" d="M247.173 306.718 L244.353 314.83 L235.761 315.01 L242.613 320.206 L240.117 328.426 L247.173 323.518 L254.229 328.426 L251.733 320.206 L258.585 315.01 L249.993 314.83 L247.173 306.718 Z" fill="#ffa500" fill-rule="evenodd" fill-opacity="0.5" stroke="#ff0000" stroke-opacity="0.5" stroke-width="3.2"/>
<path clip-path="url(#clip192)" d="M354.766 372.484 L351.946 380.596 L343.354 380.776 L350.206 385.972 L347.71 394.192 L354.766 389.284 L361.822 394.192 L359.326 385.972 L366.178 380.776 L357.586 380.596 L354.766 372.484 Z" fill="#ffa500" fill-rule="evenodd" fill-opacity="0.5" stroke="#ff0000" stroke-opacity="0.5" stroke-width="3.2"/>
<path clip-path="url(#clip192)" d="M462.358 319.289 L459.538 327.401 L450.946 327.581 L457.798 332.777 L455.302 340.997 L462.358 336.089 L469.414 340.997 L466.918 332.777 L473.77 327.581 L465.178 327.401 L462.358 319.289 Z" fill="#ffa500" fill-rule="evenodd" fill-opacity="0.5" stroke="#ff0000" stroke-opacity="0.5" stroke-width="3.2"/>
<path clip-path="url(#clip192)" d="M569.95 527.913 L567.13 536.025 L558.538 536.205 L565.39 541.401 L562.894 549.621 L569.95 544.713 L577.006 549.621 L574.51 541.401 L581.362 536.205 L572.77 536.025 L569.95 527.913 Z" fill="#ffa500" fill-rule="evenodd" fill-opacity="0.5" stroke="#ff0000" stroke-opacity="0.5" stroke-width="3.2"/>
<path clip-path="url(#clip192)" d="M677.543 456.671 L674.723 464.783 L666.131 464.963 L672.983 470.159 L670.487 478.379 L677.543 473.471 L684.599 478.379 L682.103 470.159 L688.955 464.963 L680.363 464.783 L677.543 456.671 Z" fill="#ffa500" fill-rule="evenodd" fill-opacity="0.5" stroke="#ff0000" stroke-opacity="0.5" stroke-width="3.2"/>
<path clip-path="url(#clip192)" d="M785.135 458.592 L782.315 466.704 L773.723 466.884 L780.575 472.08 L778.079 480.3 L785.135 475.392 L792.191 480.3 L789.695 472.08 L796.547 466.884 L787.955 466.704 L785.135 458.592 Z" fill="#ffa500" fill-rule="evenodd" fill-opacity="0.5" stroke="#ff0000" stroke-opacity="0.5" stroke-width="3.2"/>
<path clip-path="url(#clip192)" d="M892.728 428.456 L889.908 436.568 L881.316 436.748 L888.168 441.944 L885.672 450.164 L892.728 445.256 L899.784 450.164 L897.288 441.944 L904.14 436.748 L895.548 436.568 L892.728 428.456 Z" fill="#ffa500" fill-rule="evenodd" fill-opacity="0.5" stroke="#ff0000" stroke-opacity="0.5" stroke-width="3.2"/>
<path clip-path="url(#clip192)" d="M1000.32 581.798 L997.5 589.91 L988.908 590.09 L995.76 595.286 L993.264 603.506 L1000.32 598.598 L1007.38 603.506 L1004.88 595.286 L1011.73 590.09 L1003.14 589.91 L1000.32 581.798 Z" fill="#ffa500" fill-rule="evenodd" fill-opacity="0.5" stroke="#ff0000" stroke-opacity="0.5" stroke-width="3.2"/>
<path clip-path="url(#clip192)" d="M1107.91 261.365 L1105.09 269.477 L1096.5 269.657 L1103.35 274.853 L1100.86 283.073 L1107.91 278.165 L1114.97 283.073 L1112.47 274.853 L1119.32 269.657 L1110.73 269.477 L1107.91 261.365 Z" fill="#ffa500" fill-rule="evenodd" fill-opacity="0.5" stroke="#ff0000" stroke-opacity="0.5" stroke-width="3.2"/>
<path clip-path="url(#clip192)" d="M1215.5 1360.43 L1212.68 1368.54 L1204.09 1368.72 L1210.94 1373.92 L1208.45 1382.14 L1215.5 1377.23 L1222.56 1382.14 L1220.06 1373.92 L1226.92 1368.72 L1218.32 1368.54 L1215.5 1360.43 Z" fill="#ffa500" fill-rule="evenodd" fill-opacity="0.5" stroke="#ff0000" stroke-opacity="0.5" stroke-width="3.2"/>
<path clip-path="url(#clip192)" d="M1323.1 562.273 L1320.28 570.385 L1311.69 570.565 L1318.54 575.761 L1316.04 583.981 L1323.1 579.073 L1330.15 583.981 L1327.66 575.761 L1334.51 570.565 L1325.92 570.385 L1323.1 562.273 Z" fill="#ffa500" fill-rule="evenodd" fill-opacity="0.5" stroke="#ff0000" stroke-opacity="0.5" stroke-width="3.2"/>
<path clip-path="url(#clip192)" d="M1430.69 617.919 L1427.87 626.031 L1419.28 626.211 L1426.13 631.407 L1423.63 639.627 L1430.69 634.719 L1437.75 639.627 L1435.25 631.407 L1442.1 626.211 L1433.51 626.031 L1430.69 617.919 Z" fill="#ffa500" fill-rule="evenodd" fill-opacity="0.5" stroke="#ff0000" stroke-opacity="0.5" stroke-width="3.2"/>
<path clip-path="url(#clip192)" d="M1538.28 510.146 L1535.46 518.258 L1526.87 518.438 L1533.72 523.634 L1531.23 531.854 L1538.28 526.946 L1545.34 531.854 L1542.84 523.634 L1549.69 518.438 L1541.1 518.258 L1538.28 510.146 Z" fill="#ffa500" fill-rule="evenodd" fill-opacity="0.5" stroke="#ff0000" stroke-opacity="0.5" stroke-width="3.2"/>
<path clip-path="url(#clip192)" d="M1645.87 1066.51 L1643.05 1074.62 L1634.46 1074.8 L1641.31 1079.99 L1638.82 1088.21 L1645.87 1083.31 L1652.93 1088.21 L1650.43 1079.99 L1657.29 1074.8 L1648.69 1074.62 L1645.87 1066.51 Z" fill="#ffa500" fill-rule="evenodd" fill-opacity="0.5" stroke="#ff0000" stroke-opacity="0.5" stroke-width="3.2"/>
<path clip-path="url(#clip192)" d="M1753.47 175.111 L1750.65 183.223 L1742.05 183.403 L1748.91 188.599 L1746.41 196.819 L1753.47 191.911 L1760.52 196.819 L1758.03 188.599 L1764.88 183.403 L1756.29 183.223 L1753.47 175.111 Z" fill="#ffa500" fill-rule="evenodd" fill-opacity="0.5" stroke="#ff0000" stroke-opacity="0.5" stroke-width="3.2"/>
<path clip-path="url(#clip192)" d="M1861.06 360.713 L1858.24 368.825 L1849.65 369.005 L1856.5 374.201 L1854 382.421 L1861.06 377.513 L1868.11 382.421 L1865.62 374.201 L1872.47 369.005 L1863.88 368.825 L1861.06 360.713 Z" fill="#ffa500" fill-rule="evenodd" fill-opacity="0.5" stroke="#ff0000" stroke-opacity="0.5" stroke-width="3.2"/>
<path clip-path="url(#clip192)" d="M1968.65 405.318 L1965.83 413.43 L1957.24 413.61 L1964.09 418.806 L1961.6 427.026 L1968.65 422.118 L1975.71 427.026 L1973.21 418.806 L1980.06 413.61 L1971.47 413.43 L1968.65 405.318 Z" fill="#ffa500" fill-rule="evenodd" fill-opacity="0.5" stroke="#ff0000" stroke-opacity="0.5" stroke-width="3.2"/>
<path clip-path="url(#clip192)" d="M2076.24 1341.53 L2073.42 1349.64 L2064.83 1349.82 L2071.68 1355.02 L2069.19 1363.24 L2076.24 1358.33 L2083.3 1363.24 L2080.8 1355.02 L2087.66 1349.82 L2079.06 1349.64 L2076.24 1341.53 Z" fill="#ffa500" fill-rule="evenodd" fill-opacity="0.5" stroke="#ff0000" stroke-opacity="0.5" stroke-width="3.2"/>
<path clip-path="url(#clip192)" d="M2183.84 785.271 L2181.02 793.383 L2172.42 793.563 L2179.28 798.759 L2176.78 806.979 L2183.84 802.071 L2190.89 806.979 L2188.4 798.759 L2195.25 793.563 L2186.66 793.383 L2183.84 785.271 Z" fill="#ffa500" fill-rule="evenodd" fill-opacity="0.5" stroke="#ff0000" stroke-opacity="0.5" stroke-width="3.2"/>
<path clip-path="url(#clip192)" d="M2291.43 256.592 L2288.61 264.704 L2280.02 264.884 L2286.87 270.08 L2284.37 278.3 L2291.43 273.392 L2298.48 278.3 L2295.99 270.08 L2302.84 264.884 L2294.25 264.704 L2291.43 256.592 Z" fill="#ffa500" fill-rule="evenodd" fill-opacity="0.5" stroke="#ff0000" stroke-opacity="0.5" stroke-width="3.2"/>
<path clip-path="url(#clip192)" d="M247.173 573.9 L219.173 601.9 L247.173 629.9 L275.173 601.9 L247.173 573.9 Z" fill="#008000" fill-rule="evenodd" fill-opacity="1" stroke="#ff0000" stroke-opacity="1" stroke-width="3.2"/>
<path clip-path="url(#clip192)" d="M354.766 583.885 L326.766 611.885 L354.766 639.885 L382.766 611.885 L354.766 583.885 Z" fill="#008000" fill-rule="evenodd" fill-opacity="1" stroke="#ff0000" stroke-opacity="1" stroke-width="3.2"/>
<path clip-path="url(#clip192)" d="M462.358 935.166 L434.358 963.166 L462.358 991.166 L490.358 963.166 L462.358 935.166 Z" fill="#008000" fill-rule="evenodd" fill-opacity="1" stroke="#ff0000" stroke-opacity="1" stroke-width="3.2"/>
<path clip-path="url(#clip192)" d="M569.95 920.109 L541.95 948.109 L569.95 976.109 L597.95 948.109 L569.95 920.109 Z" fill="#008000" fill-rule="evenodd" fill-opacity="1" stroke="#ff0000" stroke-opacity="1" stroke-width="3.2"/>
<path clip-path="url(#clip192)" d="M677.543 1025.78 L649.543 1053.78 L677.543 1081.78 L705.543 1053.78 L677.543 1025.78 Z" fill="#008000" fill-rule="evenodd" fill-opacity="1" stroke="#ff0000" stroke-opacity="1" stroke-width="3.2"/>
<path clip-path="url(#clip192)" d="M785.135 913.783 L757.135 941.783 L785.135 969.783 L813.135 941.783 L785.135 913.783 Z" fill="#008000" fill-rule="evenodd" fill-opacity="1" stroke="#ff0000" stroke-opacity="1" stroke-width="3.2"/>
<path clip-path="url(#clip192)" d="M892.728 184.858 L864.728 212.858 L892.728 240.858 L920.728 212.858 L892.728 184.858 Z" fill="#008000" fill-rule="evenodd" fill-opacity="1" stroke="#ff0000" stroke-opacity="1" stroke-width="3.2"/>
<path clip-path="url(#clip192)" d="M1000.32 1355.35 L972.32 1383.35 L1000.32 1411.35 L1028.32 1383.35 L1000.32 1355.35 Z" fill="#008000" fill-rule="evenodd" fill-opacity="1" stroke="#ff0000" stroke-opacity="1" stroke-width="3.2"/>
<path clip-path="url(#clip192)" d="M1107.91 407.238 L1079.91 435.238 L1107.91 463.238 L1135.91 435.238 L1107.91 407.238 Z" fill="#008000" fill-rule="evenodd" fill-opacity="1" stroke="#ff0000" stroke-opacity="1" stroke-width="3.2"/>
<path clip-path="url(#clip192)" d="M1215.5 285.558 L1187.5 313.558 L1215.5 341.558 L1243.5 313.558 L1215.5 285.558 Z" fill="#008000" fill-rule="evenodd" fill-opacity="1" stroke="#ff0000" stroke-opacity="1" stroke-width="3.2"/>
<path clip-path="url(#clip192)" d="M1323.1 764.397 L1295.1 792.397 L1323.1 820.397 L1351.1 792.397 L1323.1 764.397 Z" fill="#008000" fill-rule="evenodd" fill-opacity="1" stroke="#ff0000" stroke-opacity="1" stroke-width="3.2"/>
<path clip-path="url(#clip192)" d="M1430.69 762.279 L1402.69 790.279 L1430.69 818.279 L1458.69 790.279 L1430.69 762.279 Z" fill="#008000" fill-rule="evenodd" fill-opacity="1" stroke="#ff0000" stroke-opacity="1" stroke-width="3.2"/>
<path clip-path="url(#clip192)" d="M1538.28 1416.41 L1510.28 1444.41 L1538.28 1472.41 L1566.28 1444.41 L1538.28 1416.41 Z" fill="#008000" fill-rule="evenodd" fill-opacity="1" stroke="#ff0000" stroke-opacity="1" stroke-width="3.2"/>
<path clip-path="url(#clip192)" d="M1645.87 1314.26 L1617.87 1342.26 L1645.87 1370.26 L1673.87 1342.26 L1645.87 1314.26 Z" fill="#008000" fill-rule="evenodd" fill-opacity="1" stroke="#ff0000" stroke-opacity="1" stroke-width="3.2"/>
<path clip-path="url(#clip192)" d="M1753.47 721.013 L1725.47 749.013 L1753.47 777.013 L1781.47 749.013 L1753.47 721.013 Z" fill="#008000" fill-rule="evenodd" fill-opacity="1" stroke="#ff0000" stroke-opacity="1" stroke-width="3.2"/>
<path clip-path="url(#clip192)" d="M1861.06 1363.6 L1833.06 1391.6 L1861.06 1419.6 L1889.06 1391.6 L1861.06 1363.6 Z" fill="#008000" fill-rule="evenodd" fill-opacity="1" stroke="#ff0000" stroke-opacity="1" stroke-width="3.2"/>
<path clip-path="url(#clip192)" d="M1968.65 933.731 L1940.65 961.731 L1968.65 989.731 L1996.65 961.731 L1968.65 933.731 Z" fill="#008000" fill-rule="evenodd" fill-opacity="1" stroke="#ff0000" stroke-opacity="1" stroke-width="3.2"/>
<path clip-path="url(#clip192)" d="M2076.24 195.733 L2048.24 223.733 L2076.24 251.733 L2104.24 223.733 L2076.24 195.733 Z" fill="#008000" fill-rule="evenodd" fill-opacity="1" stroke="#ff0000" stroke-opacity="1" stroke-width="3.2"/>
<path clip-path="url(#clip192)" d="M2183.84 442.339 L2155.84 470.339 L2183.84 498.339 L2211.84 470.339 L2183.84 442.339 Z" fill="#008000" fill-rule="evenodd" fill-opacity="1" stroke="#ff0000" stroke-opacity="1" stroke-width="3.2"/>
<path clip-path="url(#clip192)" d="M2291.43 1328.5 L2263.43 1356.5 L2291.43 1384.5 L2319.43 1356.5 L2291.43 1328.5 Z" fill="#008000" fill-rule="evenodd" fill-opacity="1" stroke="#ff0000" stroke-opacity="1" stroke-width="3.2"/>
<path clip-path="url(#clip192)" d="M208.773 231.319 L266.373 264.919 L266.373 197.719 L208.773 231.319 Z" fill="#00008b" fill-rule="evenodd" fill-opacity="0.2" stroke="#ff0000" stroke-opacity="0.2" stroke-width="3.2"/>
<path clip-path="url(#clip192)" d="M316.366 448.512 L373.966 482.112 L373.966 414.912 L316.366 448.512 Z" fill="#00008b" fill-rule="evenodd" fill-opacity="0.2" stroke="#ff0000" stroke-opacity="0.2" stroke-width="3.2"/>
<path clip-path="url(#clip192)" d="M423.958 522.296 L481.558 555.896 L481.558 488.696 L423.958 522.296 Z" fill="#00008b" fill-rule="evenodd" fill-opacity="0.2" stroke="#ff0000" stroke-opacity="0.2" stroke-width="3.2"/>
<path clip-path="url(#clip192)" d="M531.55 800.544 L589.15 834.144 L589.15 766.944 L531.55 800.544 Z" fill="#00008b" fill-rule="evenodd" fill-opacity="0.2" stroke="#ff0000" stroke-opacity="0.2" stroke-width="3.2"/>
<path clip-path="url(#clip192)" d="M639.143 972.151 L696.743 1005.75 L696.743 938.551 L639.143 972.151 Z" fill="#00008b" fill-rule="evenodd" fill-opacity="0.2" stroke="#ff0000" stroke-opacity="0.2" stroke-width="3.2"/>
<path clip-path="url(#clip192)" d="M746.735 568.805 L804.335 602.405 L804.335 535.205 L746.735 568.805 Z" fill="#00008b" fill-rule="evenodd" fill-opacity="0.2" stroke="#ff0000" stroke-opacity="0.2" stroke-width="3.2"/>
<path clip-path="url(#clip192)" d="M854.328 238.277 L911.928 271.877 L911.928 204.677 L854.328 238.277 Z" fill="#00008b" fill-rule="evenodd" fill-opacity="0.2" stroke="#ff0000" stroke-opacity="0.2" stroke-width="3.2"/>
<path clip-path="url(#clip192)" d="M961.92 683.996 L1019.52 717.596 L1019.52 650.396 L961.92 683.996 Z" fill="#00008b" fill-rule="evenodd" fill-opacity="0.2" stroke="#ff0000" stroke-opacity="0.2" stroke-width="3.2"/>
<path clip-path="url(#clip192)" d="M1069.51 408.735 L1127.11 442.335 L1127.11 375.135 L1069.51 408.735 Z" fill="#00008b" fill-rule="evenodd" fill-opacity="0.2" stroke="#ff0000" stroke-opacity="0.2" stroke-width="3.2"/>
<path clip-path="url(#clip192)" d="M1177.1 1070.23 L1234.7 1103.83 L1234.7 1036.63 L1177.1 1070.23 Z" fill="#00008b" fill-rule="evenodd" fill-opacity="0.2" stroke="#ff0000" stroke-opacity="0.2" stroke-width="3.2"/>
<path clip-path="url(#clip192)" d="M1284.7 1297.37 L1342.3 1330.97 L1342.3 1263.77 L1284.7 1297.37 Z" fill="#00008b" fill-rule="evenodd" fill-opacity="0.2" stroke="#ff0000" stroke-opacity="0.2" stroke-width="3.2"/>
<path clip-path="url(#clip192)" d="M1392.29 1274.87 L1449.89 1308.47 L1449.89 1241.27 L1392.29 1274.87 Z" fill="#00008b" fill-rule="evenodd" fill-opacity="0.2" stroke="#ff0000" stroke-opacity="0.2" stroke-width="3.2"/>
<path clip-path="url(#clip192)" d="M1499.88 1220.96 L1557.48 1254.56 L1557.48 1187.36 L1499.88 1220.96 Z" fill="#00008b" fill-rule="evenodd" fill-opacity="0.2" stroke="#ff0000" stroke-opacity="0.2" stroke-width="3.2"/>
<path clip-path="url(#clip192)" d="M1607.47 425.434 L1665.07 459.034 L1665.07 391.834 L1607.47 425.434 Z" fill="#00008b" fill-rule="evenodd" fill-opacity="0.2" stroke="#ff0000" stroke-opacity="0.2" stroke-width="3.2"/>
<path clip-path="url(#clip192)" d="M1715.07 1350.66 L1772.67 1384.26 L1772.67 1317.06 L1715.07 1350.66 Z" fill="#00008b" fill-rule="evenodd" fill-opacity="0.2" stroke="#ff0000" stroke-opacity="0.2" stroke-width="3.2"/>
<path clip-path="url(#clip192)" d="M1822.66 1173.01 L1880.26 1206.61 L1880.26 1139.41 L1822.66 1173.01 Z" fill="#00008b" fill-rule="evenodd" fill-opacity="0.2" stroke="#ff0000" stroke-opacity="0.2" stroke-width="3.2"/>
<path clip-path="url(#clip192)" d="M1930.25 764.498 L1987.85 798.098 L1987.85 730.898 L1930.25 764.498 Z" fill="#00008b" fill-rule="evenodd" fill-opacity="0.2" stroke="#ff0000" stroke-opacity="0.2" stroke-width="3.2"/>
<path clip-path="url(#clip192)" d="M2037.84 515.286 L2095.44 548.886 L2095.44 481.686 L2037.84 515.286 Z" fill="#00008b" fill-rule="evenodd" fill-opacity="0.2" stroke="#ff0000" stroke-opacity="0.2" stroke-width="3.2"/>
<path clip-path="url(#clip192)" d="M2145.44 384.986 L2203.04 418.586 L2203.04 351.386 L2145.44 384.986 Z" fill="#00008b" fill-rule="evenodd" fill-opacity="0.2" stroke="#ff0000" stroke-opacity="0.2" stroke-width="3.2"/>
<path clip-path="url(#clip192)" d="M2253.03 718.567 L2310.63 752.167 L2310.63 684.967 L2253.03 718.567 Z" fill="#00008b" fill-rule="evenodd" fill-opacity="0.2" stroke="#ff0000" stroke-opacity="0.2" stroke-width="3.2"/>
<path clip-path="url(#clip190)" d="
M1988.16 435.737 L2280.53 435.737 L2280.53 193.817 L1988.16 193.817  Z
  " fill="#ffffff" fill-rule="evenodd" fill-opacity="1"/>
<polyline clip-path="url(#clip190)" style="stroke:#000000; stroke-width:4; stroke-opacity:1; fill:none" points="
  1988.16,435.737 2280.53,435.737 2280.53,193.817 1988.16,193.817 1988.16,435.737 
  "/>
<path clip-path="url(#clip190)" d="M2084.47 228.697 L2078.45 246.002 L2060.12 246.386 L2074.74 257.471 L2069.42 275.007 L2084.47 264.537 L2099.52 275.007 L2094.2 257.471 L2108.81 246.386 L2090.48 246.002 L2084.47 228.697 Z" fill="#ffa500" fill-rule="evenodd" fill-opacity="0.5" stroke="#ff0000" stroke-opacity="0.5" stroke-width="6.82667"/>
<path clip-path="url(#clip190)" d="M 0 0 M2194.62 273.984 Q2192.81 278.614 2191.1 280.026 Q2189.39 281.438 2186.52 281.438 L2183.11 281.438 L2183.11 277.873 L2185.61 277.873 Q2187.37 277.873 2188.34 277.04 Q2189.32 276.206 2190.5 273.104 L2191.26 271.16 L2180.78 245.651 L2185.29 245.651 L2193.39 265.929 L2201.49 245.651 L2206.01 245.651 L2194.62 273.984 Z" fill="#bebebe" fill-rule="evenodd" fill-opacity="1" /><path clip-path="url(#clip190)" d="M 0 0 M2211.89 267.641 L2219.52 267.641 L2219.52 241.276 L2211.21 242.943 L2211.21 238.683 L2219.48 237.017 L2224.15 237.017 L2224.15 267.641 L2231.79 267.641 L2231.79 271.577 L2211.89 271.577 L2211.89 267.641 Z" fill="#bebebe" fill-rule="evenodd" fill-opacity="1" /><path clip-path="url(#clip190)" d="M2084.47 289.177 L2058.87 314.777 L2084.47 340.377 L2110.07 314.777 L2084.47 289.177 Z" fill="#008000" fill-rule="evenodd" fill-opacity="1" stroke="#ff0000" stroke-opacity="1" stroke-width="2.92571"/>
<path clip-path="url(#clip190)" d="M 0 0 M2194.62 334.464 Q2192.81 339.094 2191.1 340.506 Q2189.39 341.918 2186.52 341.918 L2183.11 341.918 L2183.11 338.353 L2185.61 338.353 Q2187.37 338.353 2188.34 337.52 Q2189.32 336.686 2190.5 333.584 L2191.26 331.64 L2180.78 306.131 L2185.29 306.131 L2193.39 326.409 L2201.49 306.131 L2206.01 306.131 L2194.62 334.464 Z" fill="#bebebe" fill-rule="evenodd" fill-opacity="1" /><path clip-path="url(#clip190)" d="M 0 0 M2215.1 328.121 L2231.42 328.121 L2231.42 332.057 L2209.48 332.057 L2209.48 328.121 Q2212.14 325.367 2216.72 320.737 Q2221.33 316.085 2222.51 314.742 Q2224.76 312.219 2225.64 310.483 Q2226.54 308.723 2226.54 307.034 Q2226.54 304.279 2224.59 302.543 Q2222.67 300.807 2219.57 300.807 Q2217.37 300.807 2214.92 301.571 Q2212.49 302.335 2209.71 303.886 L2209.71 299.163 Q2212.53 298.029 2214.99 297.45 Q2217.44 296.872 2219.48 296.872 Q2224.85 296.872 2228.04 299.557 Q2231.24 302.242 2231.24 306.733 Q2231.24 308.862 2230.43 310.784 Q2229.64 312.682 2227.53 315.274 Q2226.96 315.946 2223.85 319.163 Q2220.75 322.358 2215.1 328.121 Z" fill="#bebebe" fill-rule="evenodd" fill-opacity="1" /><path clip-path="url(#clip190)" d="M2063.99 375.257 L2094.71 393.177 L2094.71 357.337 L2063.99 375.257 Z" fill="#00008b" fill-rule="evenodd" fill-opacity="0.2" stroke="#ff0000" stroke-opacity="0.2" stroke-width="1.70667"/>
<path clip-path="url(#clip190)" d="M 0 0 M2194.62 394.944 Q2192.81 399.574 2191.1 400.986 Q2189.39 402.398 2186.52 402.398 L2183.11 402.398 L2183.11 398.833 L2185.61 398.833 Q2187.37 398.833 2188.34 398 Q2189.32 397.166 2190.5 394.064 L2191.26 392.12 L2180.78 366.611 L2185.29 366.611 L2193.39 386.889 L2201.49 366.611 L2206.01 366.611 L2194.62 394.944 Z" fill="#bebebe" fill-rule="evenodd" fill-opacity="1" /><path clip-path="url(#clip190)" d="M 0 0 M2225.24 373.902 Q2228.6 374.62 2230.47 376.889 Q2232.37 379.157 2232.37 382.49 Q2232.37 387.606 2228.85 390.407 Q2225.34 393.208 2218.85 393.208 Q2216.68 393.208 2214.36 392.768 Q2212.07 392.351 2209.62 391.495 L2209.62 386.981 Q2211.56 388.115 2213.88 388.694 Q2216.19 389.273 2218.71 389.273 Q2223.11 389.273 2225.4 387.537 Q2227.72 385.801 2227.72 382.49 Q2227.72 379.435 2225.57 377.722 Q2223.44 375.986 2219.62 375.986 L2215.59 375.986 L2215.59 372.143 L2219.8 372.143 Q2223.25 372.143 2225.08 370.778 Q2226.91 369.389 2226.91 366.796 Q2226.91 364.134 2225.01 362.722 Q2223.14 361.287 2219.62 361.287 Q2217.7 361.287 2215.5 361.703 Q2213.3 362.12 2210.66 363 L2210.66 358.833 Q2213.32 358.092 2215.64 357.722 Q2217.97 357.352 2220.03 357.352 Q2225.36 357.352 2228.46 359.782 Q2231.56 362.19 2231.56 366.31 Q2231.56 369.18 2229.92 371.171 Q2228.27 373.139 2225.24 373.902 Z" fill="#bebebe" fill-rule="evenodd" fill-opacity="1" /></svg>
