<?xml version="1.0" encoding="utf-8"?>
<svg xmlns="http://www.w3.org/2000/svg" xmlns:xlink="http://www.w3.org/1999/xlink" width="600" height="400" viewBox="0 0 2400 1600">
<defs>
  <clipPath id="clip650">
    <rect x="0" y="0" width="2400" height="1600"/>
  </clipPath>
</defs>
<path clip-path="url(#clip650)" d="
M0 1600 L2400 1600 L2400 0 L0 0  Z
  " fill="#ffffff" fill-rule="evenodd" fill-opacity="1"/>
<defs>
  <clipPath id="clip651">
    <rect x="480" y="0" width="1681" height="1600"/>
  </clipPath>
</defs>
<path clip-path="url(#clip650)" d="
M112.177 1486.45 L2352.76 1486.45 L2352.76 47.2441 L112.177 47.2441  Z
  " fill="#ffffff" fill-rule="evenodd" fill-opacity="1"/>
<defs>
  <clipPath id="clip652">
    <rect x="112" y="47" width="2242" height="1440"/>
  </clipPath>
</defs>
<polyline clip-path="url(#clip652)" style="stroke:#000000; stroke-width:2; stroke-opacity:0.1; fill:none" points="
  410.451,1486.45 410.451,47.2441 
  "/>
<polyline clip-path="url(#clip652)" style="stroke:#000000; stroke-width:2; stroke-opacity:0.1; fill:none" points="
  880.174,1486.45 880.174,47.2441 
  "/>
<polyline clip-path="url(#clip652)" style="stroke:#000000; stroke-width:2; stroke-opacity:0.1; fill:none" points="
  1349.9,1486.45 1349.9,47.2441 
  "/>
<polyline clip-path="url(#clip652)" style="stroke:#000000; stroke-width:2; stroke-opacity:0.1; fill:none" points="
  1819.62,1486.45 1819.62,47.2441 
  "/>
<polyline clip-path="url(#clip652)" style="stroke:#000000; stroke-width:2; stroke-opacity:0.1; fill:none" points="
  2289.34,1486.45 2289.34,47.2441 
  "/>
<polyline clip-path="url(#clip650)" style="stroke:#000000; stroke-width:4; stroke-opacity:1; fill:none" points="
  112.177,1486.45 2352.76,1486.45 
  "/>
<polyline clip-path="url(#clip650)" style="stroke:#000000; stroke-width:4; stroke-opacity:1; fill:none" points="
  410.451,1486.45 410.451,1469.18 
  "/>
<polyline clip-path="url(#clip650)" style="stroke:#000000; stroke-width:4; stroke-opacity:1; fill:none" points="
  880.174,1486.45 880.174,1469.18 
  "/>
<polyline clip-path="url(#clip650)" style="stroke:#000000; stroke-width:4; stroke-opacity:1; fill:none" points="
  1349.9,1486.45 1349.9,1469.18 
  "/>
<polyline clip-path="url(#clip650)" style="stroke:#000000; stroke-width:4; stroke-opacity:1; fill:none" points="
  1819.62,1486.45 1819.62,1469.18 
  "/>
<polyline clip-path="url(#clip650)" style="stroke:#000000; stroke-width:4; stroke-opacity:1; fill:none" points="
  2289.34,1486.45 2289.34,1469.18 
  "/>
<path clip-path="url(#clip650)" d="M 0 0 M405.104 1543.18 L421.423 1543.18 L421.423 1547.12 L399.479 1547.12 L399.479 1543.18 Q402.141 1540.43 406.724 1535.8 Q411.331 1531.15 412.511 1529.81 Q414.757 1527.28 415.636 1525.55 Q416.539 1523.79 416.539 1522.1 Q416.539 1519.34 414.595 1517.61 Q412.673 1515.87 409.572 1515.87 Q407.373 1515.87 404.919 1516.63 Q402.488 1517.4 399.711 1518.95 L399.711 1514.23 Q402.535 1513.09 404.988 1512.51 Q407.442 1511.93 409.479 1511.93 Q414.849 1511.93 418.044 1514.62 Q421.238 1517.31 421.238 1521.8 Q421.238 1523.93 420.428 1525.85 Q419.641 1527.74 417.535 1530.34 Q416.956 1531.01 413.854 1534.23 Q410.752 1537.42 405.104 1543.18 Z" fill="#000000" fill-rule="evenodd" fill-opacity="1" /><path clip-path="url(#clip650)" d="M 0 0 M883.184 1516.63 L871.378 1535.08 L883.184 1535.08 L883.184 1516.63 M881.957 1512.56 L887.836 1512.56 L887.836 1535.08 L892.767 1535.08 L892.767 1538.97 L887.836 1538.97 L887.836 1547.12 L883.184 1547.12 L883.184 1538.97 L867.582 1538.97 L867.582 1534.46 L881.957 1512.56 Z" fill="#000000" fill-rule="evenodd" fill-opacity="1" /><path clip-path="url(#clip650)" d="M 0 0 M1350.3 1527.98 Q1347.15 1527.98 1345.3 1530.13 Q1343.47 1532.28 1343.47 1536.03 Q1343.47 1539.76 1345.3 1541.93 Q1347.15 1544.09 1350.3 1544.09 Q1353.45 1544.09 1355.28 1541.93 Q1357.13 1539.76 1357.13 1536.03 Q1357.13 1532.28 1355.28 1530.13 Q1353.45 1527.98 1350.3 1527.98 M1359.58 1513.32 L1359.58 1517.58 Q1357.83 1516.75 1356.02 1516.31 Q1354.24 1515.87 1352.48 1515.87 Q1347.85 1515.87 1345.4 1519 Q1342.96 1522.12 1342.62 1528.44 Q1343.98 1526.43 1346.04 1525.36 Q1348.1 1524.27 1350.58 1524.27 Q1355.79 1524.27 1358.8 1527.44 Q1361.83 1530.59 1361.83 1536.03 Q1361.83 1541.36 1358.68 1544.57 Q1355.53 1547.79 1350.3 1547.79 Q1344.31 1547.79 1341.14 1543.21 Q1337.96 1538.6 1337.96 1529.87 Q1337.96 1521.68 1341.85 1516.82 Q1345.74 1511.93 1352.29 1511.93 Q1354.05 1511.93 1355.83 1512.28 Q1357.64 1512.63 1359.58 1513.32 Z" fill="#000000" fill-rule="evenodd" fill-opacity="1" /><path clip-path="url(#clip650)" d="M 0 0 M1819.62 1530.71 Q1816.29 1530.71 1814.37 1532.49 Q1812.47 1534.27 1812.47 1537.4 Q1812.47 1540.52 1814.37 1542.31 Q1816.29 1544.09 1819.62 1544.09 Q1822.95 1544.09 1824.87 1542.31 Q1826.8 1540.5 1826.8 1537.4 Q1826.8 1534.27 1824.87 1532.49 Q1822.98 1530.71 1819.62 1530.71 M1814.94 1528.72 Q1811.94 1527.98 1810.25 1525.92 Q1808.58 1523.86 1808.58 1520.89 Q1808.58 1516.75 1811.52 1514.34 Q1814.48 1511.93 1819.62 1511.93 Q1824.78 1511.93 1827.72 1514.34 Q1830.66 1516.75 1830.66 1520.89 Q1830.66 1523.86 1828.97 1525.92 Q1827.31 1527.98 1824.32 1528.72 Q1827.7 1529.5 1829.57 1531.8 Q1831.47 1534.09 1831.47 1537.4 Q1831.47 1542.42 1828.39 1545.11 Q1825.34 1547.79 1819.62 1547.79 Q1813.9 1547.79 1810.82 1545.11 Q1807.77 1542.42 1807.77 1537.4 Q1807.77 1534.09 1809.67 1531.8 Q1811.56 1529.5 1814.94 1528.72 M1813.23 1521.33 Q1813.23 1524.02 1814.9 1525.52 Q1816.59 1527.03 1819.62 1527.03 Q1822.63 1527.03 1824.32 1525.52 Q1826.03 1524.02 1826.03 1521.33 Q1826.03 1518.65 1824.32 1517.14 Q1822.63 1515.64 1819.62 1515.64 Q1816.59 1515.64 1814.9 1517.14 Q1813.23 1518.65 1813.23 1521.33 Z" fill="#000000" fill-rule="evenodd" fill-opacity="1" /><path clip-path="url(#clip650)" d="M 0 0 M2266.22 1543.18 L2273.86 1543.18 L2273.86 1516.82 L2265.55 1518.49 L2265.55 1514.23 L2273.81 1512.56 L2278.49 1512.56 L2278.49 1543.18 L2286.13 1543.18 L2286.13 1547.12 L2266.22 1547.12 L2266.22 1543.18 Z" fill="#000000" fill-rule="evenodd" fill-opacity="1" /><path clip-path="url(#clip650)" d="M 0 0 M2301.2 1515.64 Q2297.58 1515.64 2295.76 1519.2 Q2293.95 1522.75 2293.95 1529.87 Q2293.95 1536.98 2295.76 1540.55 Q2297.58 1544.09 2301.2 1544.09 Q2304.83 1544.09 2306.63 1540.55 Q2308.46 1536.98 2308.46 1529.87 Q2308.46 1522.75 2306.63 1519.2 Q2304.83 1515.64 2301.2 1515.64 M2301.2 1511.93 Q2307.01 1511.93 2310.06 1516.54 Q2313.14 1521.12 2313.14 1529.87 Q2313.14 1538.6 2310.06 1543.21 Q2307.01 1547.79 2301.2 1547.79 Q2295.38 1547.79 2292.31 1543.21 Q2289.25 1538.6 2289.25 1529.87 Q2289.25 1521.12 2292.31 1516.54 Q2295.38 1511.93 2301.2 1511.93 Z" fill="#000000" fill-rule="evenodd" fill-opacity="1" /><polyline clip-path="url(#clip652)" style="stroke:#000000; stroke-width:2; stroke-opacity:0.1; fill:none" points="
  112.177,1447.47 2352.76,1447.47 
  "/>
<polyline clip-path="url(#clip652)" style="stroke:#000000; stroke-width:2; stroke-opacity:0.1; fill:none" points="
  112.177,1154.02 2352.76,1154.02 
  "/>
<polyline clip-path="url(#clip652)" style="stroke:#000000; stroke-width:2; stroke-opacity:0.1; fill:none" points="
  112.177,860.561 2352.76,860.561 
  "/>
<polyline clip-path="url(#clip652)" style="stroke:#000000; stroke-width:2; stroke-opacity:0.1; fill:none" points="
  112.177,567.105 2352.76,567.105 
  "/>
<polyline clip-path="url(#clip652)" style="stroke:#000000; stroke-width:2; stroke-opacity:0.1; fill:none" points="
  112.177,273.649 2352.76,273.649 
  "/>
<polyline clip-path="url(#clip650)" style="stroke:#000000; stroke-width:4; stroke-opacity:1; fill:none" points="
  112.177,1486.45 112.177,47.2441 
  "/>
<polyline clip-path="url(#clip650)" style="stroke:#000000; stroke-width:4; stroke-opacity:1; fill:none" points="
  112.177,1447.47 139.064,1447.47 
  "/>
<polyline clip-path="url(#clip650)" style="stroke:#000000; stroke-width:4; stroke-opacity:1; fill:none" points="
  112.177,1154.02 139.064,1154.02 
  "/>
<polyline clip-path="url(#clip650)" style="stroke:#000000; stroke-width:4; stroke-opacity:1; fill:none" points="
  112.177,860.561 139.064,860.561 
  "/>
<polyline clip-path="url(#clip650)" style="stroke:#000000; stroke-width:4; stroke-opacity:1; fill:none" points="
  112.177,567.105 139.064,567.105 
  "/>
<polyline clip-path="url(#clip650)" style="stroke:#000000; stroke-width:4; stroke-opacity:1; fill:none" points="
  112.177,273.649 139.064,273.649 
  "/>
<path clip-path="url(#clip650)" d="M 0 0 M64.2328 1433.27 Q60.6217 1433.27 58.793 1436.84 Q56.9875 1440.38 56.9875 1447.51 Q56.9875 1454.61 58.793 1458.18 Q60.6217 1461.72 64.2328 1461.72 Q67.867 1461.72 69.6726 1458.18 Q71.5013 1454.61 71.5013 1447.51 Q71.5013 1440.38 69.6726 1436.84 Q67.867 1433.27 64.2328 1433.27 M64.2328 1429.57 Q70.0429 1429.57 73.0985 1434.17 Q76.1772 1438.76 76.1772 1447.51 Q76.1772 1456.23 73.0985 1460.84 Q70.0429 1465.42 64.2328 1465.42 Q58.4226 1465.42 55.344 1460.84 Q52.2884 1456.23 52.2884 1447.51 Q52.2884 1438.76 55.344 1434.17 Q58.4226 1429.57 64.2328 1429.57 Z" fill="#000000" fill-rule="evenodd" fill-opacity="1" /><path clip-path="url(#clip650)" d="M 0 0 M59.8578 1167.36 L76.1772 1167.36 L76.1772 1171.3 L54.2328 1171.3 L54.2328 1167.36 Q56.8949 1164.61 61.4782 1159.98 Q66.0846 1155.32 67.2652 1153.98 Q69.5105 1151.46 70.3902 1149.72 Q71.2929 1147.96 71.2929 1146.27 Q71.2929 1143.52 69.3485 1141.78 Q67.4272 1140.05 64.3254 1140.05 Q62.1263 1140.05 59.6726 1140.81 Q57.2421 1141.57 54.4643 1143.13 L54.4643 1138.4 Q57.2884 1137.27 59.7421 1136.69 Q62.1958 1136.11 64.2328 1136.11 Q69.6031 1136.11 72.7976 1138.8 Q75.992 1141.48 75.992 1145.97 Q75.992 1148.1 75.1818 1150.02 Q74.3948 1151.92 72.2883 1154.51 Q71.7096 1155.19 68.6078 1158.4 Q65.5059 1161.6 59.8578 1167.36 Z" fill="#000000" fill-rule="evenodd" fill-opacity="1" /><path clip-path="url(#clip650)" d="M 0 0 M66.5939 847.355 L54.7884 865.804 L66.5939 865.804 L66.5939 847.355 M65.367 843.281 L71.2466 843.281 L71.2466 865.804 L76.1772 865.804 L76.1772 869.693 L71.2466 869.693 L71.2466 877.841 L66.5939 877.841 L66.5939 869.693 L50.9921 869.693 L50.9921 865.179 L65.367 843.281 Z" fill="#000000" fill-rule="evenodd" fill-opacity="1" /><path clip-path="url(#clip650)" d="M 0 0 M64.6495 565.242 Q61.5013 565.242 59.6495 567.394 Q57.8208 569.547 57.8208 573.297 Q57.8208 577.024 59.6495 579.2 Q61.5013 581.353 64.6495 581.353 Q67.7976 581.353 69.6263 579.2 Q71.4781 577.024 71.4781 573.297 Q71.4781 569.547 69.6263 567.394 Q67.7976 565.242 64.6495 565.242 M73.9318 550.589 L73.9318 554.848 Q72.1726 554.015 70.367 553.575 Q68.5846 553.135 66.8254 553.135 Q62.1958 553.135 59.7421 556.26 Q57.3115 559.385 56.9643 565.705 Q58.33 563.691 60.3902 562.626 Q62.4504 561.538 64.9272 561.538 Q70.1355 561.538 73.1448 564.709 Q76.1772 567.857 76.1772 573.297 Q76.1772 578.621 73.029 581.839 Q69.8809 585.056 64.6495 585.056 Q58.6541 585.056 55.4828 580.473 Q52.3116 575.867 52.3116 567.14 Q52.3116 558.945 56.2004 554.084 Q60.0893 549.2 66.6402 549.2 Q68.3994 549.2 70.1818 549.547 Q71.9874 549.895 73.9318 550.589 Z" fill="#000000" fill-rule="evenodd" fill-opacity="1" /><path clip-path="url(#clip650)" d="M 0 0 M64.3254 274.517 Q60.9921 274.517 59.0708 276.3 Q57.1726 278.082 57.1726 281.207 Q57.1726 284.332 59.0708 286.115 Q60.9921 287.897 64.3254 287.897 Q67.6587 287.897 69.58 286.115 Q71.5013 284.309 71.5013 281.207 Q71.5013 278.082 69.58 276.3 Q67.6819 274.517 64.3254 274.517 M59.6495 272.527 Q56.6402 271.786 54.9504 269.726 Q53.2838 267.666 53.2838 264.703 Q53.2838 260.559 56.2236 258.152 Q59.1865 255.744 64.3254 255.744 Q69.4874 255.744 72.4272 258.152 Q75.367 260.559 75.367 264.703 Q75.367 267.666 73.6772 269.726 Q72.0105 271.786 69.0244 272.527 Q72.404 273.314 74.279 275.605 Q76.1772 277.897 76.1772 281.207 Q76.1772 286.23 73.0985 288.916 Q70.0429 291.601 64.3254 291.601 Q58.6078 291.601 55.5291 288.916 Q52.4736 286.23 52.4736 281.207 Q52.4736 277.897 54.3717 275.605 Q56.2699 273.314 59.6495 272.527 M57.9365 265.143 Q57.9365 267.828 59.6032 269.332 Q61.293 270.837 64.3254 270.837 Q67.3346 270.837 69.0244 269.332 Q70.7374 267.828 70.7374 265.143 Q70.7374 262.457 69.0244 260.953 Q67.3346 259.448 64.3254 259.448 Q61.293 259.448 59.6032 260.953 Q57.9365 262.457 57.9365 265.143 Z" fill="#000000" fill-rule="evenodd" fill-opacity="1" /><polyline clip-path="url(#clip652)" style="stroke:#009af9; stroke-width:4; stroke-opacity:1; fill:none" points="
  175.59,1078.29 410.451,1196.04 645.313,695.752 880.174,491.19 1115.04,334.228 1349.9,767.421 1584.76,1445.72 1819.62,686.174 2054.48,729.746 2289.34,1232.08 
  
  "/>
<polyline clip-path="url(#clip652)" style="stroke:#e26f46; stroke-width:4; stroke-opacity:1; fill:none" points="
  175.59,1135.59 410.451,1098.87 645.313,128.652 880.174,164.126 1115.04,229.851 1349.9,87.9763 1584.76,272.112 1819.62,586.722 2054.48,210.555 2289.34,337.004 
  
  "/>
<path clip-path="url(#clip650)" d="
M2005.92 276.658 L2278.07 276.658 L2278.07 95.2176 L2005.92 95.2176  Z
  " fill="#ffffff" fill-rule="evenodd" fill-opacity="1"/>
<polyline clip-path="url(#clip650)" style="stroke:#000000; stroke-width:4; stroke-opacity:1; fill:none" points="
  2005.92,276.658 2278.07,276.658 2278.07,95.2176 2005.92,95.2176 2005.92,276.658 
  "/>
<polyline clip-path="url(#clip650)" style="stroke:#009af9; stroke-width:4; stroke-opacity:1; fill:none" points="
  2030.82,155.698 2180.19,155.698 
  "/>
<path clip-path="url(#clip650)" d="M 0 0 M2223.86 160.038 Q2223.86 155.339 2221.91 152.677 Q2219.99 149.992 2216.61 149.992 Q2213.23 149.992 2211.29 152.677 Q2209.37 155.339 2209.37 160.038 Q2209.37 164.737 2211.29 167.422 Q2213.23 170.084 2216.61 170.084 Q2219.99 170.084 2221.91 167.422 Q2223.86 164.737 2223.86 160.038 M2209.37 150.987 Q2210.71 148.672 2212.75 147.561 Q2214.81 146.427 2217.65 146.427 Q2222.38 146.427 2225.32 150.177 Q2228.28 153.927 2228.28 160.038 Q2228.28 166.149 2225.32 169.899 Q2222.38 173.649 2217.65 173.649 Q2214.81 173.649 2212.75 172.538 Q2210.71 171.403 2209.37 169.089 L2209.37 172.978 L2205.08 172.978 L2205.08 136.959 L2209.37 136.959 L2209.37 150.987 Z" fill="#000000" fill-rule="evenodd" fill-opacity="1" /><polyline clip-path="url(#clip650)" style="stroke:#e26f46; stroke-width:4; stroke-opacity:1; fill:none" points="
  2030.82,216.178 2180.19,216.178 
  "/>
<path clip-path="url(#clip650)" d="M 0 0 M2225.59 208.527 L2225.59 212.509 Q2223.79 211.513 2221.96 211.027 Q2220.15 210.518 2218.3 210.518 Q2214.16 210.518 2211.87 213.157 Q2209.58 215.772 2209.58 220.518 Q2209.58 225.263 2211.87 227.902 Q2214.16 230.518 2218.3 230.518 Q2220.15 230.518 2221.96 230.032 Q2223.79 229.522 2225.59 228.527 L2225.59 232.462 Q2223.81 233.296 2221.89 233.712 Q2219.99 234.129 2217.84 234.129 Q2211.98 234.129 2208.53 230.448 Q2205.08 226.768 2205.08 220.518 Q2205.08 214.175 2208.56 210.541 Q2212.05 206.907 2218.12 206.907 Q2220.08 206.907 2221.96 207.323 Q2223.83 207.717 2225.59 208.527 Z" fill="#000000" fill-rule="evenodd" fill-opacity="1" /></svg>
