<?xml version="1.0" encoding="utf-8"?>
<svg xmlns="http://www.w3.org/2000/svg" xmlns:xlink="http://www.w3.org/1999/xlink" width="600" height="400" viewBox="0 0 2400 1600">
<defs>
  <clipPath id="clip060">
    <rect x="0" y="0" width="2400" height="1600"/>
  </clipPath>
</defs>
<path clip-path="url(#clip060)" d="
M0 1600 L2400 1600 L2400 0 L0 0  Z
  " fill="#ffffff" fill-rule="evenodd" fill-opacity="1"/>
<defs>
  <clipPath id="clip061">
    <rect x="480" y="0" width="1681" height="1600"/>
  </clipPath>
</defs>
<defs>
  <clipPath id="clip062">
    <rect x="179" y="142" width="2174" height="1345"/>
  </clipPath>
</defs>
<path clip-path="url(#clip060)" d="
M223.308 1451.47 L2352.76 1451.47 L2352.76 142.325 L223.308 142.325  Z
  " fill="#ffffff" fill-rule="evenodd" fill-opacity="1"/>
<defs>
  <clipPath id="clip063">
    <rect x="223" y="142" width="2130" height="1310"/>
  </clipPath>
</defs>
<polyline clip-path="url(#clip063)" style="stroke:#000000; stroke-width:2; stroke-opacity:0.1; fill:none" points="
  489.8,1451.47 489.8,142.325 
  "/>
<polyline clip-path="url(#clip063)" style="stroke:#000000; stroke-width:2; stroke-opacity:0.1; fill:none" points="
  891.583,1451.47 891.583,142.325 
  "/>
<polyline clip-path="url(#clip063)" style="stroke:#000000; stroke-width:2; stroke-opacity:0.1; fill:none" points="
  1293.37,1451.47 1293.37,142.325 
  "/>
<polyline clip-path="url(#clip063)" style="stroke:#000000; stroke-width:2; stroke-opacity:0.1; fill:none" points="
  1695.15,1451.47 1695.15,142.325 
  "/>
<polyline clip-path="url(#clip063)" style="stroke:#000000; stroke-width:2; stroke-opacity:0.1; fill:none" points="
  2096.93,1451.47 2096.93,142.325 
  "/>
<polyline clip-path="url(#clip060)" style="stroke:#000000; stroke-width:4; stroke-opacity:1; fill:none" points="
  223.308,1451.47 2352.76,1451.47 
  "/>
<polyline clip-path="url(#clip060)" style="stroke:#000000; stroke-width:4; stroke-opacity:1; fill:none" points="
  489.8,1451.47 489.8,1435.76 
  "/>
<polyline clip-path="url(#clip060)" style="stroke:#000000; stroke-width:4; stroke-opacity:1; fill:none" points="
  891.583,1451.47 891.583,1435.76 
  "/>
<polyline clip-path="url(#clip060)" style="stroke:#000000; stroke-width:4; stroke-opacity:1; fill:none" points="
  1293.37,1451.47 1293.37,1435.76 
  "/>
<polyline clip-path="url(#clip060)" style="stroke:#000000; stroke-width:4; stroke-opacity:1; fill:none" points="
  1695.15,1451.47 1695.15,1435.76 
  "/>
<polyline clip-path="url(#clip060)" style="stroke:#000000; stroke-width:4; stroke-opacity:1; fill:none" points="
  2096.93,1451.47 2096.93,1435.76 
  "/>
<path clip-path="url(#clip060)" d="M 0 0 M443.469 1495.31 L473.145 1495.31 L473.145 1499.25 L443.469 1499.25 L443.469 1495.31 Z" fill="#000000" fill-rule="evenodd" fill-opacity="1" /><path clip-path="url(#clip060)" d="M 0 0 M478.261 1477.58 L496.617 1477.58 L496.617 1481.52 L482.543 1481.52 L482.543 1489.99 Q483.562 1489.64 484.58 1489.48 Q485.599 1489.3 486.617 1489.3 Q492.404 1489.3 495.784 1492.47 Q499.163 1495.64 499.163 1501.05 Q499.163 1506.63 495.691 1509.74 Q492.219 1512.81 485.9 1512.81 Q483.724 1512.81 481.455 1512.44 Q479.21 1512.07 476.802 1511.33 L476.802 1506.63 Q478.886 1507.77 481.108 1508.32 Q483.33 1508.88 485.807 1508.88 Q489.812 1508.88 492.149 1506.77 Q494.487 1504.67 494.487 1501.05 Q494.487 1497.44 492.149 1495.34 Q489.812 1493.23 485.807 1493.23 Q483.932 1493.23 482.057 1493.65 Q480.205 1494.06 478.261 1494.94 L478.261 1477.58 Z" fill="#000000" fill-rule="evenodd" fill-opacity="1" /><path clip-path="url(#clip060)" d="M 0 0 M504.233 1506.26 L509.117 1506.26 L509.117 1512.14 L504.233 1512.14 L504.233 1506.26 Z" fill="#000000" fill-rule="evenodd" fill-opacity="1" /><path clip-path="url(#clip060)" d="M 0 0 M524.186 1480.66 Q520.575 1480.66 518.747 1484.23 Q516.941 1487.77 516.941 1494.9 Q516.941 1502 518.747 1505.57 Q520.575 1509.11 524.186 1509.11 Q527.821 1509.11 529.626 1505.57 Q531.455 1502 531.455 1494.9 Q531.455 1487.77 529.626 1484.23 Q527.821 1480.66 524.186 1480.66 M524.186 1476.96 Q529.997 1476.96 533.052 1481.56 Q536.131 1486.15 536.131 1494.9 Q536.131 1503.62 533.052 1508.23 Q529.997 1512.81 524.186 1512.81 Q518.376 1512.81 515.298 1508.23 Q512.242 1503.62 512.242 1494.9 Q512.242 1486.15 515.298 1481.56 Q518.376 1476.96 524.186 1476.96 Z" fill="#000000" fill-rule="evenodd" fill-opacity="1" /><path clip-path="url(#clip060)" d="M 0 0 M846.05 1495.31 L875.726 1495.31 L875.726 1499.25 L846.05 1499.25 L846.05 1495.31 Z" fill="#000000" fill-rule="evenodd" fill-opacity="1" /><path clip-path="url(#clip060)" d="M 0 0 M884.823 1508.21 L901.143 1508.21 L901.143 1512.14 L879.198 1512.14 L879.198 1508.21 Q881.86 1505.45 886.444 1500.82 Q891.05 1496.17 892.231 1494.83 Q894.476 1492.3 895.356 1490.57 Q896.259 1488.81 896.259 1487.12 Q896.259 1484.37 894.314 1482.63 Q892.393 1480.89 889.291 1480.89 Q887.092 1480.89 884.638 1481.66 Q882.208 1482.42 879.43 1483.97 L879.43 1479.25 Q882.254 1478.12 884.708 1477.54 Q887.161 1476.96 889.198 1476.96 Q894.569 1476.96 897.763 1479.64 Q900.958 1482.33 900.958 1486.82 Q900.958 1488.95 900.147 1490.87 Q899.36 1492.77 897.254 1495.36 Q896.675 1496.03 893.573 1499.25 Q890.472 1502.44 884.823 1508.21 Z" fill="#000000" fill-rule="evenodd" fill-opacity="1" /><path clip-path="url(#clip060)" d="M 0 0 M906.212 1506.26 L911.096 1506.26 L911.096 1512.14 L906.212 1512.14 L906.212 1506.26 Z" fill="#000000" fill-rule="evenodd" fill-opacity="1" /><path clip-path="url(#clip060)" d="M 0 0 M916.212 1477.58 L934.568 1477.58 L934.568 1481.52 L920.494 1481.52 L920.494 1489.99 Q921.513 1489.64 922.532 1489.48 Q923.55 1489.3 924.569 1489.3 Q930.356 1489.3 933.735 1492.47 Q937.115 1495.64 937.115 1501.05 Q937.115 1506.63 933.643 1509.74 Q930.17 1512.81 923.851 1512.81 Q921.675 1512.81 919.407 1512.44 Q917.161 1512.07 914.754 1511.33 L914.754 1506.63 Q916.837 1507.77 919.059 1508.32 Q921.282 1508.88 923.758 1508.88 Q927.763 1508.88 930.101 1506.77 Q932.439 1504.67 932.439 1501.05 Q932.439 1497.44 930.101 1495.34 Q927.763 1493.23 923.758 1493.23 Q921.883 1493.23 920.008 1493.65 Q918.157 1494.06 916.212 1494.94 L916.212 1477.58 Z" fill="#000000" fill-rule="evenodd" fill-opacity="1" /><path clip-path="url(#clip060)" d="M 0 0 M1274.88 1480.66 Q1271.27 1480.66 1269.44 1484.23 Q1267.64 1487.77 1267.64 1494.9 Q1267.64 1502 1269.44 1505.57 Q1271.27 1509.11 1274.88 1509.11 Q1278.52 1509.11 1280.32 1505.57 Q1282.15 1502 1282.15 1494.9 Q1282.15 1487.77 1280.32 1484.23 Q1278.52 1480.66 1274.88 1480.66 M1274.88 1476.96 Q1280.69 1476.96 1283.75 1481.56 Q1286.83 1486.15 1286.83 1494.9 Q1286.83 1503.62 1283.75 1508.23 Q1280.69 1512.81 1274.88 1512.81 Q1269.07 1512.81 1265.99 1508.23 Q1262.94 1503.62 1262.94 1494.9 Q1262.94 1486.15 1265.99 1481.56 Q1269.07 1476.96 1274.88 1476.96 Z" fill="#000000" fill-rule="evenodd" fill-opacity="1" /><path clip-path="url(#clip060)" d="M 0 0 M1291.9 1506.26 L1296.78 1506.26 L1296.78 1512.14 L1291.9 1512.14 L1291.9 1506.26 Z" fill="#000000" fill-rule="evenodd" fill-opacity="1" /><path clip-path="url(#clip060)" d="M 0 0 M1311.85 1480.66 Q1308.24 1480.66 1306.41 1484.23 Q1304.6 1487.77 1304.6 1494.9 Q1304.6 1502 1306.41 1505.57 Q1308.24 1509.11 1311.85 1509.11 Q1315.48 1509.11 1317.29 1505.57 Q1319.12 1502 1319.12 1494.9 Q1319.12 1487.77 1317.29 1484.23 Q1315.48 1480.66 1311.85 1480.66 M1311.85 1476.96 Q1317.66 1476.96 1320.71 1481.56 Q1323.79 1486.15 1323.79 1494.9 Q1323.79 1503.62 1320.71 1508.23 Q1317.66 1512.81 1311.85 1512.81 Q1306.04 1512.81 1302.96 1508.23 Q1299.9 1503.62 1299.9 1494.9 Q1299.9 1486.15 1302.96 1481.56 Q1306.04 1476.96 1311.85 1476.96 Z" fill="#000000" fill-rule="evenodd" fill-opacity="1" /><path clip-path="url(#clip060)" d="M 0 0 M1671.81 1508.21 L1688.13 1508.21 L1688.13 1512.14 L1666.19 1512.14 L1666.19 1508.21 Q1668.85 1505.45 1673.44 1500.82 Q1678.04 1496.17 1679.22 1494.83 Q1681.47 1492.3 1682.35 1490.57 Q1683.25 1488.81 1683.25 1487.12 Q1683.25 1484.37 1681.31 1482.63 Q1679.38 1480.89 1676.28 1480.89 Q1674.08 1480.89 1671.63 1481.66 Q1669.2 1482.42 1666.42 1483.97 L1666.42 1479.25 Q1669.25 1478.12 1671.7 1477.54 Q1674.15 1476.96 1676.19 1476.96 Q1681.56 1476.96 1684.75 1479.64 Q1687.95 1482.33 1687.95 1486.82 Q1687.95 1488.95 1687.14 1490.87 Q1686.35 1492.77 1684.25 1495.36 Q1683.67 1496.03 1680.56 1499.25 Q1677.46 1502.44 1671.81 1508.21 Z" fill="#000000" fill-rule="evenodd" fill-opacity="1" /><path clip-path="url(#clip060)" d="M 0 0 M1693.2 1506.26 L1698.09 1506.26 L1698.09 1512.14 L1693.2 1512.14 L1693.2 1506.26 Z" fill="#000000" fill-rule="evenodd" fill-opacity="1" /><path clip-path="url(#clip060)" d="M 0 0 M1703.2 1477.58 L1721.56 1477.58 L1721.56 1481.52 L1707.49 1481.52 L1707.49 1489.99 Q1708.5 1489.64 1709.52 1489.48 Q1710.54 1489.3 1711.56 1489.3 Q1717.35 1489.3 1720.73 1492.47 Q1724.11 1495.64 1724.11 1501.05 Q1724.11 1506.63 1720.63 1509.74 Q1717.16 1512.81 1710.84 1512.81 Q1708.67 1512.81 1706.4 1512.44 Q1704.15 1512.07 1701.75 1511.33 L1701.75 1506.63 Q1703.83 1507.77 1706.05 1508.32 Q1708.27 1508.88 1710.75 1508.88 Q1714.75 1508.88 1717.09 1506.77 Q1719.43 1504.67 1719.43 1501.05 Q1719.43 1497.44 1717.09 1495.34 Q1714.75 1493.23 1710.75 1493.23 Q1708.87 1493.23 1707 1493.65 Q1705.15 1494.06 1703.2 1494.94 L1703.2 1477.58 Z" fill="#000000" fill-rule="evenodd" fill-opacity="1" /><path clip-path="url(#clip060)" d="M 0 0 M2068.72 1477.58 L2087.08 1477.58 L2087.08 1481.52 L2073.01 1481.52 L2073.01 1489.99 Q2074.03 1489.64 2075.04 1489.48 Q2076.06 1489.3 2077.08 1489.3 Q2082.87 1489.3 2086.25 1492.47 Q2089.63 1495.64 2089.63 1501.05 Q2089.63 1506.63 2086.16 1509.74 Q2082.68 1512.81 2076.36 1512.81 Q2074.19 1512.81 2071.92 1512.44 Q2069.67 1512.07 2067.27 1511.33 L2067.27 1506.63 Q2069.35 1507.77 2071.57 1508.32 Q2073.79 1508.88 2076.27 1508.88 Q2080.28 1508.88 2082.61 1506.77 Q2084.95 1504.67 2084.95 1501.05 Q2084.95 1497.44 2082.61 1495.34 Q2080.28 1493.23 2076.27 1493.23 Q2074.4 1493.23 2072.52 1493.65 Q2070.67 1494.06 2068.72 1494.94 L2068.72 1477.58 Z" fill="#000000" fill-rule="evenodd" fill-opacity="1" /><path clip-path="url(#clip060)" d="M 0 0 M2094.7 1506.26 L2099.58 1506.26 L2099.58 1512.14 L2094.7 1512.14 L2094.7 1506.26 Z" fill="#000000" fill-rule="evenodd" fill-opacity="1" /><path clip-path="url(#clip060)" d="M 0 0 M2114.65 1480.66 Q2111.04 1480.66 2109.21 1484.23 Q2107.4 1487.77 2107.4 1494.9 Q2107.4 1502 2109.21 1505.57 Q2111.04 1509.11 2114.65 1509.11 Q2118.28 1509.11 2120.09 1505.57 Q2121.92 1502 2121.92 1494.9 Q2121.92 1487.77 2120.09 1484.23 Q2118.28 1480.66 2114.65 1480.66 M2114.65 1476.96 Q2120.46 1476.96 2123.52 1481.56 Q2126.59 1486.15 2126.59 1494.9 Q2126.59 1503.62 2123.52 1508.23 Q2120.46 1512.81 2114.65 1512.81 Q2108.84 1512.81 2105.76 1508.23 Q2102.71 1503.62 2102.71 1494.9 Q2102.71 1486.15 2105.76 1481.56 Q2108.84 1476.96 2114.65 1476.96 Z" fill="#000000" fill-rule="evenodd" fill-opacity="1" /><path clip-path="url(#clip060)" d="M 0 0 M1305.33 1553.27 L1298.08 1553.08 L1290.16 1553.27 L1290.16 1550.18 L1292.73 1550.18 L1285.49 1541.61 L1279.08 1548.79 L1278.63 1549.44 Q1278.63 1549.73 1279.37 1549.95 Q1280.14 1550.18 1281.04 1550.18 L1281.04 1553.27 L1274.25 1553.08 L1268.19 1553.27 L1268.19 1550.18 Q1270.22 1550.18 1271.16 1550.15 Q1272.12 1550.08 1273.22 1549.79 Q1274.31 1549.5 1274.86 1548.92 L1283.49 1539.23 L1273.22 1527.09 L1268.51 1527.09 L1268.51 1523.99 L1275.79 1524.19 L1283.75 1523.99 L1283.75 1527.09 L1281.11 1527.09 L1287.58 1534.66 L1293.12 1528.47 Q1293.15 1528.44 1293.67 1527.67 Q1292.64 1527.09 1291.16 1527.09 L1291.16 1523.99 L1297.95 1524.19 L1304.01 1523.99 L1304.01 1527.09 Q1301.36 1527.09 1299.98 1527.28 Q1298.63 1527.44 1298.21 1527.67 Q1297.82 1527.89 1297.27 1528.47 L1289.58 1537.04 L1300.66 1550.18 L1305.33 1550.18 L1305.33 1553.27 Z" fill="#000000" fill-rule="evenodd" fill-opacity="1" /><polyline clip-path="url(#clip063)" style="stroke:#000000; stroke-width:2; stroke-opacity:0.1; fill:none" points="
  223.308,1414.43 2352.76,1414.43 
  "/>
<polyline clip-path="url(#clip063)" style="stroke:#000000; stroke-width:2; stroke-opacity:0.1; fill:none" points="
  223.308,1105.66 2352.76,1105.66 
  "/>
<polyline clip-path="url(#clip063)" style="stroke:#000000; stroke-width:2; stroke-opacity:0.1; fill:none" points="
  223.308,796.901 2352.76,796.901 
  "/>
<polyline clip-path="url(#clip063)" style="stroke:#000000; stroke-width:2; stroke-opacity:0.1; fill:none" points="
  223.308,488.139 2352.76,488.139 
  "/>
<polyline clip-path="url(#clip063)" style="stroke:#000000; stroke-width:2; stroke-opacity:0.1; fill:none" points="
  223.308,179.377 2352.76,179.377 
  "/>
<polyline clip-path="url(#clip060)" style="stroke:#000000; stroke-width:4; stroke-opacity:1; fill:none" points="
  223.308,1451.47 223.308,142.325 
  "/>
<polyline clip-path="url(#clip060)" style="stroke:#000000; stroke-width:4; stroke-opacity:1; fill:none" points="
  223.308,1414.43 248.861,1414.43 
  "/>
<polyline clip-path="url(#clip060)" style="stroke:#000000; stroke-width:4; stroke-opacity:1; fill:none" points="
  223.308,1105.66 248.861,1105.66 
  "/>
<polyline clip-path="url(#clip060)" style="stroke:#000000; stroke-width:4; stroke-opacity:1; fill:none" points="
  223.308,796.901 248.861,796.901 
  "/>
<polyline clip-path="url(#clip060)" style="stroke:#000000; stroke-width:4; stroke-opacity:1; fill:none" points="
  223.308,488.139 248.861,488.139 
  "/>
<polyline clip-path="url(#clip060)" style="stroke:#000000; stroke-width:4; stroke-opacity:1; fill:none" points="
  223.308,179.377 248.861,179.377 
  "/>
<path clip-path="url(#clip060)" d="M 0 0 M94.8779 1414.88 L124.554 1414.88 L124.554 1418.81 L94.8779 1418.81 L94.8779 1414.88 Z" fill="#000000" fill-rule="evenodd" fill-opacity="1" /><path clip-path="url(#clip060)" d="M 0 0 M130.433 1427.77 L138.072 1427.77 L138.072 1401.4 L129.762 1403.07 L129.762 1398.81 L138.026 1397.15 L142.702 1397.15 L142.702 1427.77 L150.341 1427.77 L150.341 1431.71 L130.433 1431.71 L130.433 1427.77 Z" fill="#000000" fill-rule="evenodd" fill-opacity="1" /><path clip-path="url(#clip060)" d="M 0 0 M155.41 1425.83 L160.294 1425.83 L160.294 1431.71 L155.41 1431.71 L155.41 1425.83 Z" fill="#000000" fill-rule="evenodd" fill-opacity="1" /><path clip-path="url(#clip060)" d="M 0 0 M175.364 1400.22 Q171.752 1400.22 169.924 1403.79 Q168.118 1407.33 168.118 1414.46 Q168.118 1421.57 169.924 1425.13 Q171.752 1428.67 175.364 1428.67 Q178.998 1428.67 180.803 1425.13 Q182.632 1421.57 182.632 1414.46 Q182.632 1407.33 180.803 1403.79 Q178.998 1400.22 175.364 1400.22 M175.364 1396.52 Q181.174 1396.52 184.229 1401.13 Q187.308 1405.71 187.308 1414.46 Q187.308 1423.19 184.229 1427.79 Q181.174 1432.38 175.364 1432.38 Q169.553 1432.38 166.475 1427.79 Q163.419 1423.19 163.419 1414.46 Q163.419 1405.71 166.475 1401.13 Q169.553 1396.52 175.364 1396.52 Z" fill="#000000" fill-rule="evenodd" fill-opacity="1" /><path clip-path="url(#clip060)" d="M 0 0 M94.6464 1106.11 L124.322 1106.11 L124.322 1110.05 L94.6464 1110.05 L94.6464 1106.11 Z" fill="#000000" fill-rule="evenodd" fill-opacity="1" /><path clip-path="url(#clip060)" d="M 0 0 M139.392 1091.46 Q135.78 1091.46 133.952 1095.03 Q132.146 1098.57 132.146 1105.7 Q132.146 1112.8 133.952 1116.37 Q135.78 1119.91 139.392 1119.91 Q143.026 1119.91 144.831 1116.37 Q146.66 1112.8 146.66 1105.7 Q146.66 1098.57 144.831 1095.03 Q143.026 1091.46 139.392 1091.46 M139.392 1087.76 Q145.202 1087.76 148.257 1092.36 Q151.336 1096.95 151.336 1105.7 Q151.336 1114.42 148.257 1119.03 Q145.202 1123.61 139.392 1123.61 Q133.581 1123.61 130.503 1119.03 Q127.447 1114.42 127.447 1105.7 Q127.447 1096.95 130.503 1092.36 Q133.581 1087.76 139.392 1087.76 Z" fill="#000000" fill-rule="evenodd" fill-opacity="1" /><path clip-path="url(#clip060)" d="M 0 0 M156.405 1117.06 L161.29 1117.06 L161.29 1122.94 L156.405 1122.94 L156.405 1117.06 Z" fill="#000000" fill-rule="evenodd" fill-opacity="1" /><path clip-path="url(#clip060)" d="M 0 0 M166.405 1088.38 L184.762 1088.38 L184.762 1092.32 L170.688 1092.32 L170.688 1100.79 Q171.706 1100.44 172.725 1100.28 Q173.743 1100.1 174.762 1100.1 Q180.549 1100.1 183.928 1103.27 Q187.308 1106.44 187.308 1111.86 Q187.308 1117.43 183.836 1120.54 Q180.364 1123.61 174.044 1123.61 Q171.868 1123.61 169.6 1123.24 Q167.354 1122.87 164.947 1122.13 L164.947 1117.43 Q167.03 1118.57 169.252 1119.12 Q171.475 1119.68 173.952 1119.68 Q177.956 1119.68 180.294 1117.57 Q182.632 1115.47 182.632 1111.86 Q182.632 1108.24 180.294 1106.14 Q177.956 1104.03 173.952 1104.03 Q172.077 1104.03 170.202 1104.45 Q168.35 1104.86 166.405 1105.74 L166.405 1088.38 Z" fill="#000000" fill-rule="evenodd" fill-opacity="1" /><path clip-path="url(#clip060)" d="M 0 0 M138.396 782.7 Q134.785 782.7 132.956 786.265 Q131.151 789.806 131.151 796.936 Q131.151 804.042 132.956 807.607 Q134.785 811.149 138.396 811.149 Q142.03 811.149 143.836 807.607 Q145.665 804.042 145.665 796.936 Q145.665 789.806 143.836 786.265 Q142.03 782.7 138.396 782.7 M138.396 778.996 Q144.206 778.996 147.262 783.603 Q150.341 788.186 150.341 796.936 Q150.341 805.663 147.262 810.269 Q144.206 814.852 138.396 814.852 Q132.586 814.852 129.507 810.269 Q126.452 805.663 126.452 796.936 Q126.452 788.186 129.507 783.603 Q132.586 778.996 138.396 778.996 Z" fill="#000000" fill-rule="evenodd" fill-opacity="1" /><path clip-path="url(#clip060)" d="M 0 0 M155.41 808.301 L160.294 808.301 L160.294 814.181 L155.41 814.181 L155.41 808.301 Z" fill="#000000" fill-rule="evenodd" fill-opacity="1" /><path clip-path="url(#clip060)" d="M 0 0 M175.364 782.7 Q171.752 782.7 169.924 786.265 Q168.118 789.806 168.118 796.936 Q168.118 804.042 169.924 807.607 Q171.752 811.149 175.364 811.149 Q178.998 811.149 180.803 807.607 Q182.632 804.042 182.632 796.936 Q182.632 789.806 180.803 786.265 Q178.998 782.7 175.364 782.7 M175.364 778.996 Q181.174 778.996 184.229 783.603 Q187.308 788.186 187.308 796.936 Q187.308 805.663 184.229 810.269 Q181.174 814.852 175.364 814.852 Q169.553 814.852 166.475 810.269 Q163.419 805.663 163.419 796.936 Q163.419 788.186 166.475 783.603 Q169.553 778.996 175.364 778.996 Z" fill="#000000" fill-rule="evenodd" fill-opacity="1" /><path clip-path="url(#clip060)" d="M 0 0 M139.392 473.938 Q135.78 473.938 133.952 477.502 Q132.146 481.044 132.146 488.174 Q132.146 495.28 133.952 498.845 Q135.78 502.387 139.392 502.387 Q143.026 502.387 144.831 498.845 Q146.66 495.28 146.66 488.174 Q146.66 481.044 144.831 477.502 Q143.026 473.938 139.392 473.938 M139.392 470.234 Q145.202 470.234 148.257 474.84 Q151.336 479.424 151.336 488.174 Q151.336 496.9 148.257 501.507 Q145.202 506.09 139.392 506.09 Q133.581 506.09 130.503 501.507 Q127.447 496.9 127.447 488.174 Q127.447 479.424 130.503 474.84 Q133.581 470.234 139.392 470.234 Z" fill="#000000" fill-rule="evenodd" fill-opacity="1" /><path clip-path="url(#clip060)" d="M 0 0 M156.405 499.539 L161.29 499.539 L161.29 505.419 L156.405 505.419 L156.405 499.539 Z" fill="#000000" fill-rule="evenodd" fill-opacity="1" /><path clip-path="url(#clip060)" d="M 0 0 M166.405 470.859 L184.762 470.859 L184.762 474.794 L170.688 474.794 L170.688 483.266 Q171.706 482.919 172.725 482.757 Q173.743 482.572 174.762 482.572 Q180.549 482.572 183.928 485.743 Q187.308 488.914 187.308 494.331 Q187.308 499.91 183.836 503.012 Q180.364 506.09 174.044 506.09 Q171.868 506.09 169.6 505.72 Q167.354 505.349 164.947 504.609 L164.947 499.91 Q167.03 501.044 169.252 501.599 Q171.475 502.155 173.952 502.155 Q177.956 502.155 180.294 500.049 Q182.632 497.942 182.632 494.331 Q182.632 490.72 180.294 488.613 Q177.956 486.507 173.952 486.507 Q172.077 486.507 170.202 486.924 Q168.35 487.34 166.405 488.22 L166.405 470.859 Z" fill="#000000" fill-rule="evenodd" fill-opacity="1" /><path clip-path="url(#clip060)" d="M 0 0 M130.433 192.722 L138.072 192.722 L138.072 166.356 L129.762 168.023 L129.762 163.763 L138.026 162.097 L142.702 162.097 L142.702 192.722 L150.341 192.722 L150.341 196.657 L130.433 196.657 L130.433 192.722 Z" fill="#000000" fill-rule="evenodd" fill-opacity="1" /><path clip-path="url(#clip060)" d="M 0 0 M155.41 190.777 L160.294 190.777 L160.294 196.657 L155.41 196.657 L155.41 190.777 Z" fill="#000000" fill-rule="evenodd" fill-opacity="1" /><path clip-path="url(#clip060)" d="M 0 0 M175.364 165.175 Q171.752 165.175 169.924 168.74 Q168.118 172.282 168.118 179.411 Q168.118 186.518 169.924 190.083 Q171.752 193.624 175.364 193.624 Q178.998 193.624 180.803 190.083 Q182.632 186.518 182.632 179.411 Q182.632 172.282 180.803 168.74 Q178.998 165.175 175.364 165.175 M175.364 161.472 Q181.174 161.472 184.229 166.078 Q187.308 170.662 187.308 179.411 Q187.308 188.138 184.229 192.745 Q181.174 197.328 175.364 197.328 Q169.553 197.328 166.475 192.745 Q163.419 188.138 163.419 179.411 Q163.419 170.662 166.475 166.078 Q169.553 161.472 175.364 161.472 Z" fill="#000000" fill-rule="evenodd" fill-opacity="1" /><path clip-path="url(#clip060)" d="M 0 0 M47.6334 779.926 Q47.6334 781.955 47.8266 782.985 Q47.9876 784.016 48.2131 784.274 Q48.4385 784.531 49.0182 784.821 L79.1629 798.992 Q82.3835 800.505 84.7023 803.34 Q87.0211 806.141 87.0211 809.684 Q87.0211 812.647 85.2176 814.708 Q83.4463 816.737 80.9342 816.737 Q79.1307 816.737 78.1001 815.61 Q77.1017 814.483 77.1017 812.969 Q77.1017 811.294 78.1645 810.232 Q79.2273 809.137 80.8698 809.137 Q81.9326 809.137 82.7377 809.588 Q83.5751 810.038 83.8649 810.457 Q84.187 810.844 84.3802 811.262 Q84.6379 810.586 84.6379 809.684 Q84.6379 808.331 84.0904 807.172 Q83.5751 805.98 82.8666 805.208 Q82.1902 804.402 80.9664 803.597 Q79.7748 802.792 79.0019 802.406 Q78.2611 802.019 76.9729 801.439 L73.8167 799.926 L47.6334 812.261 L47.6334 816.48 L44.5416 816.48 L44.7348 808.943 L44.5416 800.763 L47.6334 800.763 L47.6334 804.338 L65.4432 795.964 L49.2114 788.364 L48.4385 788.042 Q48.0842 788.042 47.891 788.815 Q47.6656 789.588 47.6656 790.361 L47.6334 791.134 L44.5416 791.134 L44.7348 785.143 Q44.7348 782.309 44.5416 779.926 L47.6334 779.926 Z" fill="#000000" fill-rule="evenodd" fill-opacity="1" /><path clip-path="url(#clip060)" d="M 0 0 M653.447 73.6872 L643.844 73.6872 L643.844 97.8123 Q643.844 98.9834 643.785 99.569 Q643.727 100.096 643.317 100.623 Q642.965 101.15 642.146 101.15 Q641.267 101.15 637.051 99.042 Q632.835 96.8754 630.376 94.7674 Q624.169 102.497 608.066 102.497 Q596.706 102.497 587.513 99.2176 Q578.319 95.9385 572.288 90.2 Q566.257 84.4615 562.978 76.7907 Q559.757 69.0613 559.757 60.0436 Q559.757 50.7917 563.153 42.9452 Q566.55 35.0987 572.698 29.5359 Q578.846 23.9145 587.864 20.7525 Q596.94 17.5904 607.832 17.5904 Q621.241 17.5904 631.488 25.7297 L639.393 18.6444 Q640.623 17.5904 641.677 17.5904 Q643.2 17.5904 643.492 18.2931 Q643.844 18.9372 643.844 20.9281 L643.844 46.6928 Q643.844 49.0351 643.317 49.5621 Q642.848 50.0891 640.565 50.0891 Q638.515 50.0891 638.047 49.7377 Q637.637 49.3278 637.344 47.5712 Q635.412 36.3869 627.858 29.8287 Q620.304 23.2118 610.467 23.2118 Q602.093 23.2118 595.359 26.0811 Q588.684 28.9503 584.936 33.6348 Q581.423 38.2607 579.725 44.2335 Q578.085 50.2062 578.085 59.8679 Q578.085 68.5342 579.608 74.8583 Q581.13 81.1824 584.819 85.9254 Q589.035 91.3126 596.12 94.0647 Q603.264 96.8168 611.345 96.8168 Q617.786 96.8168 622.119 94.2989 Q623.759 93.3035 624.813 92.1909 Q625.867 91.0783 626.218 89.8487 Q626.628 88.5604 626.687 87.7992 Q626.804 87.038 626.804 85.8083 L626.804 73.6872 L609.53 73.6872 L609.53 68.0658 Q616.03 68.4171 634.123 68.4171 Q649.231 68.4171 653.447 68.0658 L653.447 73.6872 Z" fill="#808080" fill-rule="evenodd" fill-opacity="1" /><path clip-path="url(#clip060)" d="M 0 0 M715.627 56.9987 Q715.627 60.3949 713.402 62.3859 Q711.177 64.3182 708.308 64.3182 Q705.439 64.3182 703.213 62.3859 Q700.988 60.4535 700.988 56.9987 Q700.988 55.4762 701.515 54.1294 Q702.101 52.7241 702.686 52.08 L703.272 51.4944 Q699.817 51.4944 697.124 53.134 Q694.43 54.715 692.79 57.1744 Q691.151 59.6337 690.097 62.8543 Q689.043 66.0163 688.633 68.8856 Q688.282 71.7548 688.282 74.507 L688.282 95.5286 L698.705 95.5286 L698.705 101.15 Q694.372 100.799 682.192 100.799 L667.084 101.15 L667.084 95.5286 L675.341 95.5286 L675.341 58.4626 Q675.341 55.0663 674.111 54.4222 Q672.881 53.7781 667.084 53.7781 L667.084 48.1567 L686.993 47.1613 L686.993 60.7463 Q691.971 47.1613 702.921 47.1613 Q707.957 47.1613 711.763 49.8548 Q715.627 52.4899 715.627 56.9987 Z" fill="#808080" fill-rule="evenodd" fill-opacity="1" /><path clip-path="url(#clip060)" d="M 0 0 M721.703 89.7316 Q721.703 79.5428 733.707 74.1556 Q740.91 70.7008 755.783 69.8225 L755.783 65.4308 Q755.783 57.9941 751.86 54.0709 Q747.995 50.0891 743.076 50.0891 Q734.293 50.0891 730.077 55.5933 Q733.649 55.7105 734.937 57.5257 Q736.225 59.2824 736.225 61.0976 Q736.225 63.4984 734.703 65.0794 Q733.239 66.6019 730.721 66.6019 Q728.32 66.6019 726.739 65.138 Q725.158 63.6155 725.158 60.9805 Q725.158 55.1249 730.428 51.2602 Q735.757 47.3955 743.31 47.3955 Q753.148 47.3955 759.706 54.0123 Q761.756 56.0618 762.751 58.6968 Q763.805 61.3318 763.922 63.0885 Q764.039 64.7867 764.039 68.1829 L764.039 92.1324 Q764.039 92.835 764.274 94.0062 Q764.508 95.1773 765.562 96.6997 Q766.674 98.1636 768.49 98.1636 Q772.823 98.1636 772.764 90.4928 L772.764 83.7588 L775.809 83.7588 L775.809 90.4928 Q775.809 96.8754 772.413 99.3933 Q769.075 101.853 765.972 101.853 Q761.99 101.853 759.472 98.9249 Q756.954 95.9971 756.603 92.0152 Q754.787 96.5826 750.63 99.569 Q746.531 102.497 740.91 102.497 Q736.577 102.497 732.478 101.384 Q728.437 100.33 725.041 97.3439 Q721.703 94.2989 721.703 89.7316 M730.955 89.6144 Q730.955 94.0647 734.117 96.934 Q737.279 99.8032 741.729 99.8032 Q746.765 99.8032 751.274 95.9385 Q755.783 92.0152 755.783 84.3444 L755.783 72.3404 Q742.491 72.8088 736.694 78.1374 Q730.955 83.4075 730.955 89.6144 M735.581 40.0174 Q738.802 36.9139 743.486 32.288 Q749.225 26.5495 750.747 25.3784 Q752.27 24.1487 753.558 24.1487 Q755.373 24.1487 756.544 25.6126 Q757.774 27.018 757.774 28.599 Q757.774 29.3017 757.54 29.8872 Q757.305 30.4142 757.013 30.8241 Q756.72 31.234 756.134 31.6439 Q755.607 32.0538 755.314 32.2295 Q755.022 32.4051 754.378 32.815 Q753.733 33.1664 753.558 33.2835 Q737.865 42.184 737.396 42.3597 L735.581 40.0174 Z" fill="#808080" fill-rule="evenodd" fill-opacity="1" /><path clip-path="url(#clip060)" d="M 0 0 M828.45 27.6621 Q828.45 31.1169 826.166 33.1078 Q823.941 35.0987 821.014 35.0987 Q818.32 35.0987 815.978 33.1664 Q813.694 31.234 813.694 27.6621 Q813.694 23.7974 816.446 21.7479 Q815.626 21.5137 814.397 21.5137 Q813.226 21.5137 811.937 21.7479 Q810.708 21.9236 808.892 22.8019 Q807.077 23.6217 805.672 25.0856 Q804.325 26.491 803.33 29.3017 Q802.334 32.0538 802.334 35.8014 L802.334 47.9225 L816.797 47.9225 L816.797 53.5439 L803.037 53.5439 L803.037 95.5286 L813.46 95.5286 L813.46 101.15 Q809.127 100.799 796.888 100.799 L781.781 101.15 L781.781 95.5286 L790.096 95.5286 L790.096 53.5439 L781.078 53.5439 L781.078 47.9225 L790.096 47.9225 L790.096 35.8014 Q790.096 30.9412 792.262 27.2522 Q794.429 23.5046 798.06 21.3966 Q801.69 19.2886 805.906 18.2345 Q810.181 17.1805 814.807 17.1805 Q821.365 17.1805 824.878 20.3426 Q828.45 23.446 828.45 27.6621 Z" fill="#808080" fill-rule="evenodd" fill-opacity="1" /><path clip-path="url(#clip060)" d="M 0 0 M852.778 101.15 L838.724 100.799 L824.085 101.15 L824.085 95.5286 L832.4 95.5286 L832.4 58.4626 Q832.4 55.0663 831.171 54.4222 Q829.941 53.7781 824.437 53.7781 L824.437 48.1567 L845.341 47.1613 L845.341 95.5286 L852.778 95.5286 L852.778 101.15 M844.229 21.7479 Q846.981 24.5001 846.981 28.3648 Q846.981 32.2295 844.229 34.9816 Q841.535 37.7337 837.67 37.7337 Q833.806 37.7337 831.054 34.9816 Q828.301 32.2295 828.301 28.3648 Q828.301 24.5001 831.054 21.7479 Q833.806 18.9958 837.67 18.9958 Q841.535 18.9958 844.229 21.7479 Z" fill="#808080" fill-rule="evenodd" fill-opacity="1" /><path clip-path="url(#clip060)" d="M 0 0 M914.708 87.0965 Q914.708 87.565 914.181 88.9703 Q913.712 90.3171 912.131 92.6008 Q910.609 94.8845 908.208 96.934 Q905.866 98.9249 901.474 100.389 Q897.141 101.853 891.695 101.853 Q878.051 101.853 869.971 94.2404 Q861.949 86.6281 861.949 74.507 Q861.949 69.1198 863.705 64.3182 Q865.462 59.458 868.975 55.4762 Q872.547 51.4944 878.52 49.1522 Q884.551 46.8099 892.281 46.8099 Q913.127 46.8099 913.127 57.877 Q913.127 61.449 910.843 63.4399 Q908.618 65.4308 905.573 65.4308 Q902.762 65.4308 900.42 63.4984 Q898.136 61.5075 898.136 57.877 Q898.136 54.4808 900.537 52.3142 Q897.375 51.6115 892.749 51.6115 Q889.587 51.6115 887.011 52.5484 Q884.493 53.4853 882.912 54.8321 Q881.331 56.1204 880.159 58.3455 Q879.047 60.5121 878.461 62.2687 Q877.934 64.0254 877.642 66.6605 Q877.349 69.2369 877.29 70.5252 Q877.29 71.8134 877.29 73.9214 Q877.29 97.0511 893.979 97.0511 Q904.929 97.0511 908.969 87.2136 Q909.438 85.984 909.847 85.7497 Q910.257 85.457 911.838 85.457 Q912.717 85.457 913.127 85.5155 Q913.595 85.5155 914.122 85.9254 Q914.708 86.3353 914.708 87.0965 Z" fill="#808080" fill-rule="evenodd" fill-opacity="1" /><path clip-path="url(#clip060)" d="M 0 0 M985.723 98.2808 Q985.723 99.3348 985.488 99.9789 Q985.254 100.564 984.61 100.799 Q984.024 101.033 983.497 101.091 Q982.97 101.15 981.858 101.15 L976.119 101.15 Q972.547 101.15 970.03 100.506 Q967.57 99.8032 966.341 98.9834 Q965.111 98.1636 964.467 96.6997 Q963.823 95.2358 963.706 94.3575 Q963.647 93.4206 963.647 91.8981 Q961.422 96.1727 956.913 99.042 Q952.463 101.853 945.787 101.853 Q942.977 101.853 940.166 101.56 Q937.355 101.267 934.076 100.389 Q930.797 99.4519 928.338 98.0465 Q925.878 96.5826 924.239 94.0647 Q922.599 91.4882 922.599 88.2091 Q922.599 70.9936 961.598 69.354 L961.598 65.3137 Q961.598 51.1431 948.422 51.1431 Q943.621 51.1431 939.756 51.9629 Q940.107 52.1971 940.634 52.7827 Q941.161 53.3682 941.747 54.8321 Q942.391 56.296 942.391 57.877 Q942.391 61.449 940.107 63.4399 Q937.882 65.4308 934.837 65.4308 Q932.027 65.4308 929.684 63.4984 Q927.401 61.5075 927.401 57.877 Q927.401 46.8099 948.891 46.8099 Q961.832 46.8099 968.507 51.9043 Q975.241 56.9401 975.241 65.3137 L975.241 91.0783 Q975.241 92.3666 975.358 92.9521 Q975.475 93.5377 976.119 94.2404 Q976.764 94.9431 978.286 95.2358 Q979.867 95.4701 982.561 95.5286 Q983.615 95.5286 984.142 95.6457 Q984.669 95.7043 985.196 96.3484 Q985.723 96.9925 985.723 98.2808 M961.598 84.4615 L961.598 73.1016 Q959.548 73.2187 957.616 73.453 Q955.683 73.6872 952.521 74.2727 Q949.359 74.7997 946.783 75.9123 Q944.265 76.9663 941.806 78.5473 Q939.405 80.0698 937.999 82.5292 Q936.653 84.9885 936.653 88.092 Q936.653 92.0738 939.815 94.8259 Q942.977 97.5781 947.544 97.5781 Q948.715 97.5781 950.179 97.3439 Q951.643 97.1096 953.751 96.2898 Q955.859 95.4115 957.499 94.0647 Q959.197 92.7179 960.368 90.2586 Q961.598 87.7407 961.598 84.4615 Z" fill="#808080" fill-rule="evenodd" fill-opacity="1" /><path clip-path="url(#clip060)" d="M 0 0 M1034.14 84.3444 Q1034.14 87.9163 1033.02 90.8441 Q1031.97 93.7134 1030.39 95.5286 Q1028.87 97.2853 1026.53 98.5735 Q1024.18 99.8618 1022.25 100.506 Q1020.38 101.091 1017.92 101.443 Q1015.46 101.794 1014.35 101.794 Q1013.29 101.853 1011.94 101.853 Q1003.22 101.853 997.774 98.0465 L994.671 100.096 Q992.914 101.326 992.328 101.56 Q991.801 101.853 991.099 101.853 Q989.576 101.853 989.225 101.15 Q988.932 100.506 988.932 98.515 L988.932 85.457 Q988.932 83.2318 989.342 82.5877 Q989.752 81.9436 991.801 81.9436 Q992.797 81.9436 993.207 82.0022 Q993.617 82.0607 993.968 82.4706 Q994.378 82.8219 994.671 83.6417 Q995.256 85.6326 995.783 87.1551 Q996.369 88.619 997.716 90.727 Q999.062 92.835 1000.76 94.2404 Q1002.52 95.5872 1005.39 96.5826 Q1008.31 97.5781 1011.94 97.5781 Q1013.06 97.5781 1013.88 97.5195 Q1014.76 97.461 1016.57 97.2853 Q1018.44 97.0511 1019.79 96.4655 Q1021.2 95.8214 1022.6 94.9431 Q1024.07 94.0062 1024.83 92.3666 Q1025.65 90.727 1025.65 88.5604 Q1025.65 86.5695 1024.59 84.9885 Q1023.6 83.3489 1022.25 82.412 Q1020.9 81.4751 1018.8 80.7725 Q1016.69 80.0112 1015.4 79.777 Q1014.11 79.4842 1012.3 79.1915 Q1002.93 77.4933 1000.17 76.4393 Q996.603 75.1511 993.734 72.6332 Q988.932 68.5342 988.932 62.5615 Q988.932 59.3409 989.986 56.7645 Q991.099 54.188 992.621 52.607 Q994.202 50.9674 996.544 49.7963 Q998.887 48.6252 1000.76 48.0982 Q1002.69 47.5126 1005.09 47.2198 Q1007.55 46.8685 1008.61 46.8685 Q1009.72 46.8099 1011.01 46.8099 Q1018.62 46.8099 1023.13 49.0936 Q1027.81 46.8099 1028.52 46.8099 Q1029.57 46.8099 1030.04 47.2784 Q1030.51 47.6883 1030.57 48.2738 Q1030.68 48.8008 1030.68 50.2062 L1030.68 59.7508 Q1030.68 61.976 1030.21 62.5615 Q1029.8 63.1471 1027.75 63.1471 Q1026 63.1471 1025.53 62.6786 Q1025.12 62.2102 1025 60.7463 Q1024.12 50.6746 1010.89 50.6746 Q1010.07 50.6746 1009.37 50.7332 Q1008.72 50.7332 1007.2 50.9089 Q1005.74 51.026 1004.57 51.2602 Q1003.45 51.4944 1001.99 52.08 Q1000.58 52.607 999.648 53.3682 Q998.711 54.1294 998.067 55.3591 Q997.423 56.5888 997.423 58.1113 Q997.423 59.2824 997.891 60.2778 Q998.418 61.2733 999.004 61.976 Q999.648 62.6786 1000.88 63.3228 Q1002.11 63.9083 1002.93 64.2596 Q1003.81 64.611 1005.33 65.0209 Q1006.85 65.3722 1007.49 65.4893 Q1008.2 65.6064 1009.66 65.8992 Q1017.51 67.246 1020.85 68.2415 Q1024.24 69.2369 1027.52 71.6377 Q1034.14 76.8492 1034.14 84.3444 Z" fill="#808080" fill-rule="evenodd" fill-opacity="1" /><path clip-path="url(#clip060)" d="M 0 0 M1149.8 101.15 L1127.84 101.853 L1127.84 95.9971 Q1120.58 101.853 1111.04 101.853 Q1097.92 101.853 1090.07 94.2989 Q1082.29 86.6866 1082.29 74.6241 Q1082.29 62.0931 1090.66 54.6564 Q1099.09 47.1613 1112.38 47.1613 Q1121.58 47.1613 1128.54 52.607 L1128.54 29.1845 Q1128.54 25.7883 1127.32 25.1442 Q1126.09 24.5001 1120.29 24.5001 L1120.29 18.8787 L1141.54 17.9418 L1141.54 90.8441 Q1141.54 94.2404 1142.77 94.8845 Q1144 95.5286 1149.8 95.5286 L1149.8 101.15 M1127.84 88.7947 L1127.84 58.8139 Q1125.5 55.769 1121.87 53.661 Q1118.24 51.4944 1113.55 51.4944 Q1110.1 51.4944 1106.59 52.9583 Q1103.07 54.3637 1100.73 57.7599 Q1099.27 59.9265 1098.51 63.1471 Q1097.8 66.3677 1097.69 68.5342 Q1097.63 70.7008 1097.63 74.6241 Q1097.63 76.5564 1097.63 77.669 Q1097.69 78.723 1097.8 80.8896 Q1097.92 82.9976 1098.15 84.3444 Q1098.39 85.6912 1098.92 87.6235 Q1099.44 89.5559 1100.15 90.7856 Q1100.85 92.0152 1101.96 93.4791 Q1103.07 94.8845 1104.48 95.7043 Q1105.94 96.4655 1107.87 97.0511 Q1109.87 97.5781 1112.27 97.5781 Q1121.46 97.5781 1127.84 88.7947 Z" fill="#808080" fill-rule="evenodd" fill-opacity="1" /><path clip-path="url(#clip060)" d="M 0 0 M1213.52 87.0965 Q1213.52 87.8578 1212.88 89.4388 Q1212.23 90.9612 1210.42 93.1864 Q1208.66 95.3529 1206.09 97.2853 Q1203.57 99.1591 1199.12 100.506 Q1194.73 101.853 1189.4 101.853 Q1175.11 101.853 1166.62 94.1233 Q1158.13 86.3939 1158.13 74.1556 Q1158.13 68.4757 1160.06 63.557 Q1162.05 58.6383 1165.68 54.8907 Q1169.31 51.1431 1174.99 48.9765 Q1180.67 46.8099 1187.7 46.8099 Q1200.11 46.8099 1206.79 53.3097 Q1209.54 56.0618 1211.12 60.0436 Q1212.76 63.9669 1213.11 66.6019 Q1213.52 69.2369 1213.52 71.7548 Q1213.52 73.98 1212.7 74.507 Q1211.94 75.034 1209.66 75.034 L1173.47 75.034 Q1173.47 76.9663 1173.47 78.2546 Q1173.53 79.4842 1173.88 82.0022 Q1174.23 84.5201 1174.82 86.3353 Q1175.4 88.092 1176.63 90.2586 Q1177.92 92.4251 1179.68 93.8305 Q1181.43 95.1773 1184.19 96.1142 Q1186.94 97.0511 1190.45 97.0511 Q1196.31 97.0511 1200.99 94.416 Q1205.73 91.781 1207.61 87.5064 Q1208.19 85.9254 1208.66 85.457 Q1209.19 84.9885 1210.65 84.9885 Q1213.52 84.9885 1213.52 87.0965 M1202.1 71.0522 Q1201.58 51.1431 1187.7 51.1431 Q1184.65 51.1431 1181.55 52.607 Q1178.45 54.0709 1176.34 57.35 Q1175.17 59.2238 1174.52 61.9174 Q1173.88 64.5524 1173.76 66.0749 Q1173.65 67.5388 1173.47 71.0522 L1202.1 71.0522 Z" fill="#808080" fill-rule="evenodd" fill-opacity="1" /><path clip-path="url(#clip060)" d="M 0 0 M1304.33 58.4626 Q1304.33 61.7417 1302.69 63.4984 Q1301.05 65.1965 1298.83 65.1965 Q1297.01 65.1965 1296.01 64.1425 Q1295.08 63.0885 1295.08 61.6832 Q1295.08 59.6337 1296.72 57.9941 Q1298.42 56.3546 1300.87 56.296 Q1300.06 54.1294 1297.89 52.8412 Q1295.72 51.4944 1293.79 51.1431 Q1291.92 50.7917 1290.04 50.7917 Q1286.35 50.7917 1283.54 51.9629 Q1280.73 53.134 1279.33 54.9492 Q1277.92 56.7059 1277.28 58.404 Q1276.63 60.1022 1276.63 61.5661 Q1276.63 62.8543 1276.93 63.9083 Q1277.28 64.9038 1278.1 65.665 Q1278.92 66.3677 1279.5 66.8361 Q1280.15 67.3046 1281.55 67.7145 Q1282.96 68.1244 1283.54 68.3 Q1284.13 68.4171 1285.77 68.7685 Q1289.16 69.4711 1290.69 69.881 Q1292.21 70.2324 1294.2 71.2278 Q1296.25 72.2233 1297.77 73.8043 Q1301.46 77.4933 1301.46 82.5877 Q1301.46 84.4615 1300.82 86.7452 Q1300.23 89.0289 1298.53 91.8981 Q1296.83 94.7674 1294.26 97.0511 Q1291.68 99.3348 1287.23 100.916 Q1282.84 102.497 1277.34 102.497 Q1269.66 102.497 1264.92 99.2762 Q1260.18 95.9971 1260.18 90.8441 Q1260.18 87.0965 1262.23 85.0471 Q1264.28 82.939 1266.91 82.939 Q1268.9 82.939 1270.13 84.0516 Q1271.36 85.1056 1271.36 87.0965 Q1271.36 89.7901 1269.2 91.8396 Q1267.03 93.889 1263.81 93.4791 Q1266.56 99.8032 1277.45 99.8032 Q1281.55 99.8032 1284.71 98.7492 Q1287.93 97.6366 1289.69 96.1142 Q1291.51 94.5332 1292.68 92.6008 Q1293.85 90.6685 1294.2 89.2046 Q1294.61 87.7407 1294.61 86.6281 Q1294.61 84.6957 1293.85 83.2318 Q1293.09 81.7679 1292.03 80.9481 Q1291.04 80.0698 1289.11 79.3671 Q1287.23 78.6059 1285.88 78.3131 Q1284.54 78.0203 1282.14 77.5519 Q1281.02 77.3177 1280.32 77.2006 Q1279.62 77.0249 1278.16 76.5564 Q1276.75 76.0294 1275.75 75.5024 Q1274.82 74.9754 1273.59 74.0385 Q1272.36 73.1016 1271.6 71.9891 Q1270.84 70.8765 1270.31 69.2369 Q1269.78 67.5973 1269.78 65.665 Q1269.78 63.9083 1270.31 61.8003 Q1270.89 59.6923 1272.36 57.2329 Q1273.88 54.7736 1276.05 52.7827 Q1278.21 50.7917 1281.84 49.5035 Q1285.53 48.1567 1290.04 48.1567 Q1296.6 48.1567 1300.47 51.2016 Q1304.33 54.188 1304.33 58.4626 Z" fill="#808080" fill-rule="evenodd" fill-opacity="1" /><path clip-path="url(#clip060)" d="M 0 0 M1346.47 26.1982 Q1346.47 28.7746 1344.36 30.707 Q1342.31 32.5808 1340.08 32.5808 Q1338.04 32.5808 1336.75 31.3511 Q1335.52 30.0629 1335.52 28.2476 Q1335.52 25.8468 1337.57 23.8559 Q1339.62 21.865 1342.02 21.865 Q1344.01 21.865 1345.24 23.0947 Q1346.47 24.3244 1346.47 26.1982 M1347.52 83.9931 Q1347.52 84.4615 1346.99 86.3353 Q1346.47 88.1505 1345.18 90.9612 Q1343.95 93.7134 1342.25 96.2898 Q1340.55 98.8663 1337.74 100.682 Q1334.99 102.497 1331.83 102.497 Q1327.55 102.497 1324.74 99.6861 Q1321.99 96.8754 1321.99 92.6594 Q1321.99 90.3757 1324.74 83.0562 Q1332.71 61.7417 1333 60.8634 Q1334.35 57.5257 1334.35 54.5979 Q1334.35 53.2511 1334.05 52.4313 Q1333.76 51.553 1333.18 51.2602 Q1332.59 50.9089 1332.24 50.8503 Q1331.95 50.7917 1331.36 50.7917 Q1327.91 50.7917 1324.68 54.3051 Q1321.46 57.8185 1319.24 65.665 Q1318.77 67.1289 1318.48 67.4802 Q1318.18 67.8316 1317.31 67.8316 Q1315.84 67.773 1315.84 66.6019 Q1315.84 66.2506 1316.25 64.9038 Q1316.66 63.4984 1317.42 61.3904 Q1318.18 59.2238 1319.53 56.9987 Q1320.88 54.715 1322.52 52.7241 Q1324.22 50.7332 1326.62 49.445 Q1329.02 48.1567 1331.71 48.1567 Q1336.1 48.1567 1338.8 51.026 Q1341.55 53.8367 1341.55 57.9941 Q1341.55 60.2778 1339.97 64.3182 Q1338.04 69.5883 1337.33 71.2864 L1332.65 83.8759 Q1330.95 88.4433 1330.42 89.8487 Q1329.95 91.1955 1329.54 92.835 Q1329.19 94.416 1329.19 95.8799 Q1329.19 97.9294 1329.84 98.8663 Q1330.54 99.8032 1332.06 99.8032 Q1336.28 99.8032 1339.38 95.6457 Q1342.49 91.4297 1344.3 84.9885 Q1344.36 84.8128 1344.42 84.5201 Q1344.89 83.0562 1345.35 82.8805 Q1345.59 82.8219 1346.06 82.8219 Q1347.52 82.8219 1347.52 83.9931 Z" fill="#808080" fill-rule="evenodd" fill-opacity="1" /><path clip-path="url(#clip060)" d="M 0 0 M1421.78 83.9931 Q1421.78 84.4615 1421.25 86.2767 Q1420.72 88.092 1419.43 90.9027 Q1418.2 93.7134 1416.51 96.2898 Q1414.81 98.8078 1412 100.682 Q1409.25 102.497 1406.08 102.497 Q1401.87 102.497 1399.06 99.6861 Q1396.25 96.8754 1396.25 92.6594 Q1396.25 90.3171 1397.48 87.0965 Q1405.26 66.3091 1405.26 59.1653 Q1405.26 50.7917 1398.76 50.7917 Q1395.54 50.7917 1392.5 52.0214 Q1389.51 53.1925 1387.46 54.8321 Q1385.41 56.4717 1383.54 58.7554 Q1381.72 60.9805 1380.79 62.503 Q1379.91 63.9669 1379.21 65.4308 L1377.68 71.4035 Q1377.33 73.0431 1375.63 79.4257 L1373 90.2586 Q1371.13 98.3393 1370.72 99.1005 Q1370.13 100.74 1368.84 101.618 Q1367.55 102.497 1366.26 102.497 Q1364.8 102.497 1363.81 101.618 Q1362.81 100.74 1362.81 99.2176 Q1362.81 98.9834 1362.99 98.1051 Q1363.16 97.2267 1363.45 95.9971 Q1363.75 94.7674 1363.86 94.0647 L1370.83 66.3677 Q1372.12 61.3318 1372.41 59.7508 Q1372.76 58.1113 1372.76 56.296 Q1372.76 50.7917 1369.02 50.7917 Q1365.97 50.7917 1363.98 54.4222 Q1361.99 58.0527 1360.29 65.0794 Q1359.77 67.0118 1359.41 67.4217 Q1359.12 67.8316 1358.24 67.8316 Q1356.78 67.773 1356.78 66.6019 Q1356.78 66.3091 1357.25 64.3768 Q1357.72 62.4444 1358.59 59.6923 Q1359.53 56.8816 1360.41 55.0078 Q1361.17 53.6024 1361.58 52.9583 Q1362.05 52.2556 1363.16 50.9089 Q1364.33 49.5035 1365.86 48.8594 Q1367.44 48.1567 1369.37 48.1567 Q1373.7 48.1567 1376.86 50.9674 Q1380.03 53.7195 1380.44 58.5797 Q1388.22 48.1567 1399.11 48.1567 Q1405.56 48.1567 1409.25 51.553 Q1412.93 54.9492 1412.93 60.9805 Q1412.93 62.3859 1412.64 64.2011 Q1412.41 65.9578 1411.82 68.1829 Q1411.29 70.408 1410.83 72.1062 Q1410.36 73.8043 1409.42 76.5564 Q1408.48 79.25 1408.07 80.4211 Q1407.66 81.5923 1406.67 84.3444 Q1405.73 87.038 1405.61 87.3308 Q1403.45 92.7765 1403.45 95.8799 Q1403.45 97.9294 1404.09 98.8663 Q1404.79 99.8032 1406.32 99.8032 Q1410.42 99.8032 1413.46 95.7628 Q1416.56 91.6639 1418.56 84.9885 Q1419.02 83.5246 1419.26 83.1733 Q1419.55 82.8219 1420.37 82.8219 Q1421.78 82.8219 1421.78 83.9931 Z" fill="#808080" fill-rule="evenodd" fill-opacity="1" /><path clip-path="url(#clip060)" d="M 0 0 M1427.98 71.1693 Q1427.98 50.9089 1435.54 34.5717 Q1438.76 27.7206 1443.27 21.9821 Q1447.77 16.2436 1450.76 13.7257 Q1453.75 11.2078 1454.57 11.2078 Q1455.74 11.2078 1455.8 12.3789 Q1455.8 12.9645 1454.22 14.4284 Q1434.89 34.1033 1434.95 71.1693 Q1434.95 108.352 1453.75 127.266 Q1455.8 129.315 1455.8 129.96 Q1455.8 131.131 1454.57 131.131 Q1453.75 131.131 1450.88 128.73 Q1448.01 126.329 1443.56 120.825 Q1439.11 115.321 1435.89 108.587 Q1427.98 92.2495 1427.98 71.1693 Z" fill="#808080" fill-rule="evenodd" fill-opacity="1" /><path clip-path="url(#clip060)" d="M 0 0 M1533.75 56.0618 Q1533.75 59.3409 1531.7 61.2147 Q1529.65 63.03 1527.31 63.03 Q1525.08 63.03 1523.91 61.7417 Q1522.74 60.4535 1522.74 58.8139 Q1522.74 56.5888 1524.38 54.6564 Q1526.02 52.7241 1528.48 52.3142 Q1526.08 50.7917 1522.51 50.7917 Q1520.16 50.7917 1518.11 52.0214 Q1516.12 53.2511 1514.89 54.8321 Q1513.72 56.4131 1512.67 58.6968 Q1511.67 60.922 1511.26 62.2687 Q1510.91 63.557 1510.62 64.9623 L1506.52 81.358 Q1504.53 89.146 1504.53 91.8981 Q1504.53 95.2944 1506.17 97.5781 Q1507.81 99.8032 1511.09 99.8032 Q1512.38 99.8032 1513.84 99.4519 Q1515.3 99.042 1517.18 97.988 Q1519.11 96.8754 1520.81 95.2358 Q1522.56 93.5377 1524.26 90.6685 Q1525.96 87.7992 1527.07 84.1102 Q1527.42 82.8219 1528.6 82.8219 Q1530.06 82.8219 1530.06 83.9931 Q1530.06 84.9885 1529.24 87.0965 Q1528.48 89.146 1526.78 91.8396 Q1525.14 94.4746 1522.97 96.8754 Q1520.81 99.2176 1517.59 100.857 Q1514.37 102.497 1510.85 102.497 Q1505.82 102.497 1502.48 99.8032 Q1499.14 97.1096 1497.91 93.362 Q1497.62 93.889 1497.21 94.5917 Q1496.8 95.2944 1495.57 96.8754 Q1494.4 98.3979 1493.05 99.569 Q1491.71 100.682 1489.6 101.56 Q1487.55 102.497 1485.32 102.497 Q1482.51 102.497 1479.99 101.677 Q1477.53 100.857 1475.78 98.9834 Q1474.02 97.1096 1474.02 94.5332 Q1474.02 91.6639 1475.95 89.673 Q1477.94 87.6235 1480.64 87.6235 Q1482.34 87.6235 1483.68 88.619 Q1485.09 89.6144 1485.09 91.781 Q1485.09 94.1818 1483.45 95.9971 Q1481.81 97.8123 1479.47 98.2808 Q1481.87 99.8032 1485.44 99.8032 Q1489.3 99.8032 1492.35 96.407 Q1495.39 93.0107 1496.86 87.3308 Q1500.49 73.6872 1501.89 67.5973 Q1503.3 61.449 1503.3 58.8139 Q1503.3 56.3546 1502.66 54.6564 Q1502.01 52.9583 1500.9 52.1971 Q1499.84 51.3773 1498.85 51.0845 Q1497.91 50.7917 1496.86 50.7917 Q1495.1 50.7917 1493.11 51.4944 Q1491.18 52.1971 1488.84 53.8367 Q1486.55 55.4177 1484.39 58.6968 Q1482.22 61.976 1480.76 66.4848 Q1480.46 67.8316 1479.17 67.8316 Q1477.77 67.773 1477.77 66.6019 Q1477.77 65.6064 1478.53 63.557 Q1479.35 61.449 1480.99 58.8139 Q1482.69 56.1789 1484.85 53.8367 Q1487.08 51.4359 1490.3 49.7963 Q1493.58 48.1567 1497.09 48.1567 Q1498.67 48.1567 1500.2 48.5081 Q1501.78 48.8008 1503.65 49.6792 Q1505.58 50.5575 1507.28 52.4899 Q1508.98 54.4222 1510.03 57.2329 Q1510.74 55.8861 1511.67 54.5979 Q1512.67 53.3097 1514.19 51.7286 Q1515.77 50.0891 1517.94 49.1522 Q1520.16 48.1567 1522.62 48.1567 Q1525.02 48.1567 1527.37 48.8008 Q1529.71 49.3864 1531.7 51.3187 Q1533.75 53.1925 1533.75 56.0618 Z" fill="#808080" fill-rule="evenodd" fill-opacity="1" /><path clip-path="url(#clip060)" d="M 0 0 M1541.92 129.96 Q1541.92 129.374 1543.44 127.91 Q1562.77 108.235 1562.77 71.1693 Q1562.77 33.9861 1544.2 15.1896 Q1541.92 13.0231 1541.92 12.3789 Q1541.92 11.2078 1543.09 11.2078 Q1543.91 11.2078 1546.78 13.6086 Q1549.71 16.0094 1554.1 21.5137 Q1558.55 27.018 1561.83 33.7519 Q1569.73 50.0891 1569.73 71.1693 Q1569.73 91.4297 1562.18 107.767 Q1558.96 114.618 1554.45 120.356 Q1549.94 126.095 1546.96 128.613 Q1543.97 131.131 1543.09 131.131 Q1541.92 131.131 1541.92 129.96 Z" fill="#808080" fill-rule="evenodd" fill-opacity="1" /><path clip-path="url(#clip060)" d="M 0 0 M1670.73 53.5439 Q1667.04 53.5439 1665.17 53.8952 Q1663.29 54.188 1662.83 54.5979 Q1662.36 55.0078 1661.83 56.0618 L1636.06 110.87 Q1633.31 116.726 1628.16 120.942 Q1623.07 125.158 1616.62 125.158 Q1611.24 125.158 1607.49 121.879 Q1603.8 118.658 1603.8 114.091 Q1603.8 110.812 1605.85 108.938 Q1607.9 107.123 1610.65 107.123 Q1613.7 107.123 1615.63 109.055 Q1617.62 110.987 1617.62 113.974 Q1617.62 115.906 1616.8 117.37 Q1615.98 118.893 1615.22 119.42 Q1614.52 120.005 1613.76 120.356 Q1614.98 120.825 1616.62 120.825 Q1619.08 120.825 1621.19 119.829 Q1623.36 118.893 1624.76 117.604 Q1626.23 116.375 1627.69 114.149 Q1629.16 111.983 1629.86 110.578 Q1630.56 109.231 1631.61 106.888 L1634.37 101.15 L1611.94 53.5439 L1604.27 53.5439 L1604.27 47.9225 L1617.97 48.2738 L1632.84 47.9225 L1632.84 53.5439 L1626.34 53.5439 L1641.57 85.9254 L1655.39 56.4131 L1655.97 55.0078 Q1655.97 54.3637 1654.57 54.0123 Q1653.16 53.6024 1651.76 53.6024 L1650.35 53.5439 L1650.35 47.9225 L1661.24 48.2738 Q1666.4 48.2738 1670.73 47.9225 L1670.73 53.5439 Z" fill="#808080" fill-rule="evenodd" fill-opacity="1" /><path clip-path="url(#clip060)" d="M 0 0 M1737.92 87.2722 Q1738.38 87.7992 1738.38 88.3262 Q1738.38 88.8532 1737.21 90.3757 Q1736.1 91.8981 1733.7 93.9476 Q1731.3 95.9971 1728.2 97.9294 Q1725.09 99.8618 1720.53 101.15 Q1715.96 102.497 1711.16 102.497 Q1702.2 102.497 1696.93 96.5826 Q1691.72 90.6685 1691.72 82.1778 Q1691.72 73.9214 1696.34 66.0163 Q1700.97 58.0527 1708.46 53.134 Q1715.96 48.1567 1723.86 48.1567 Q1730.13 48.1567 1734.05 51.0845 Q1737.98 54.0123 1737.98 58.4626 Q1737.98 61.9174 1735.98 64.0254 Q1733.99 66.1334 1731.3 66.1334 Q1729.43 66.1334 1728.14 65.0794 Q1726.85 63.9669 1726.85 61.9174 Q1726.85 59.2824 1729.02 57.2329 Q1729.84 56.4131 1730.77 56.0618 Q1731.77 55.6519 1732.35 55.6519 Q1732.94 55.5933 1734.29 55.5933 Q1733.06 53.3097 1730.13 52.08 Q1727.26 50.7917 1723.98 50.7917 Q1719.12 50.7917 1714.49 54.188 Q1709.87 57.5257 1707.06 62.7957 Q1704.25 67.9487 1702.43 75.2682 Q1700.62 82.5292 1700.62 86.7452 Q1700.62 92.5423 1703.31 96.1727 Q1706 99.8032 1711.39 99.8032 Q1712.44 99.8032 1713.56 99.7447 Q1714.73 99.6861 1717.66 99.042 Q1720.64 98.3979 1723.28 97.2853 Q1725.91 96.1727 1729.25 93.7719 Q1732.65 91.3126 1735.34 87.9749 Q1736.28 86.7452 1736.92 86.7452 Q1737.45 86.7452 1737.92 87.2722 Z" fill="#808080" fill-rule="evenodd" fill-opacity="1" /><path clip-path="url(#clip060)" d="M 0 0 M1794.44 68.4171 Q1794.44 74.7997 1791.63 81.1238 Q1788.82 87.3893 1784.31 92.0738 Q1779.86 96.6997 1774.01 99.6275 Q1768.15 102.497 1762.3 102.497 Q1753.92 102.497 1748.48 96.8168 Q1743.09 91.0783 1743.09 82.1778 Q1743.09 73.8629 1747.71 65.9578 Q1752.4 57.9941 1759.89 53.0754 Q1767.39 48.1567 1775.24 48.1567 Q1783.49 48.1567 1788.94 53.7195 Q1794.44 59.2824 1794.44 68.4171 M1785.66 63.7326 Q1785.66 58.0527 1782.91 54.4222 Q1780.16 50.7917 1775.12 50.7917 Q1773.66 50.7917 1771.96 51.2602 Q1770.26 51.6701 1768.03 52.7827 Q1765.87 53.8952 1763.41 56.2375 Q1761.01 58.5212 1758.9 61.8003 Q1756.15 66.1334 1754.04 74.0971 Q1751.99 82.0022 1751.99 86.7452 Q1751.99 93.3035 1755.03 96.5826 Q1758.08 99.8032 1762.41 99.8032 Q1766.63 99.8032 1771.08 96.8754 Q1775.59 93.889 1778.69 88.7947 Q1781.79 83.5246 1783.73 75.7952 Q1785.66 68.0072 1785.66 63.7326 Z" fill="#808080" fill-rule="evenodd" fill-opacity="1" /><path clip-path="url(#clip060)" d="M 0 0 M1844.82 58.4626 Q1844.82 61.7417 1843.18 63.4984 Q1841.54 65.1965 1839.31 65.1965 Q1837.5 65.1965 1836.5 64.1425 Q1835.57 63.0885 1835.57 61.6832 Q1835.57 59.6337 1837.21 57.9941 Q1838.9 56.3546 1841.36 56.296 Q1840.54 54.1294 1838.38 52.8412 Q1836.21 51.4944 1834.28 51.1431 Q1832.4 50.7917 1830.53 50.7917 Q1826.84 50.7917 1824.03 51.9629 Q1821.22 53.134 1819.81 54.9492 Q1818.41 56.7059 1817.76 58.404 Q1817.12 60.1022 1817.12 61.5661 Q1817.12 62.8543 1817.41 63.9083 Q1817.76 64.9038 1818.58 65.665 Q1819.4 66.3677 1819.99 66.8361 Q1820.63 67.3046 1822.04 67.7145 Q1823.44 68.1244 1824.03 68.3 Q1824.62 68.4171 1826.26 68.7685 Q1829.65 69.4711 1831.17 69.881 Q1832.7 70.2324 1834.69 71.2278 Q1836.74 72.2233 1838.26 73.8043 Q1841.95 77.4933 1841.95 82.5877 Q1841.95 84.4615 1841.3 86.7452 Q1840.72 89.0289 1839.02 91.8981 Q1837.32 94.7674 1834.75 97.0511 Q1832.17 99.3348 1827.72 100.916 Q1823.33 102.497 1817.82 102.497 Q1810.15 102.497 1805.41 99.2762 Q1800.67 95.9971 1800.67 90.8441 Q1800.67 87.0965 1802.72 85.0471 Q1804.77 82.939 1807.4 82.939 Q1809.39 82.939 1810.62 84.0516 Q1811.85 85.1056 1811.85 87.0965 Q1811.85 89.7901 1809.68 91.8396 Q1807.52 93.889 1804.3 93.4791 Q1807.05 99.8032 1817.94 99.8032 Q1822.04 99.8032 1825.2 98.7492 Q1828.42 97.6366 1830.18 96.1142 Q1831.99 94.5332 1833.17 92.6008 Q1834.34 90.6685 1834.69 89.2046 Q1835.1 87.7407 1835.1 86.6281 Q1835.1 84.6957 1834.34 83.2318 Q1833.58 81.7679 1832.52 80.9481 Q1831.53 80.0698 1829.59 79.3671 Q1827.72 78.6059 1826.37 78.3131 Q1825.03 78.0203 1822.63 77.5519 Q1821.51 77.3177 1820.81 77.2006 Q1820.11 77.0249 1818.64 76.5564 Q1817.24 76.0294 1816.24 75.5024 Q1815.31 74.9754 1814.08 74.0385 Q1812.85 73.1016 1812.08 71.9891 Q1811.32 70.8765 1810.8 69.2369 Q1810.27 67.5973 1810.27 65.665 Q1810.27 63.9083 1810.8 61.8003 Q1811.38 59.6923 1812.85 57.2329 Q1814.37 54.7736 1816.54 52.7827 Q1818.7 50.7917 1822.33 49.5035 Q1826.02 48.1567 1830.53 48.1567 Q1837.09 48.1567 1840.95 51.2016 Q1844.82 54.188 1844.82 58.4626 Z" fill="#808080" fill-rule="evenodd" fill-opacity="1" /><path clip-path="url(#clip060)" d="M 0 0 M1856.33 71.1693 Q1856.33 50.9089 1863.88 34.5717 Q1867.1 27.7206 1871.61 21.9821 Q1876.12 16.2436 1879.11 13.7257 Q1882.1 11.2078 1882.92 11.2078 Q1884.09 11.2078 1884.14 12.3789 Q1884.14 12.9645 1882.56 14.4284 Q1863.24 34.1033 1863.3 71.1693 Q1863.3 108.352 1882.1 127.266 Q1884.14 129.315 1884.14 129.96 Q1884.14 131.131 1882.92 131.131 Q1882.1 131.131 1879.23 128.73 Q1876.36 126.329 1871.91 120.825 Q1867.46 115.321 1864.24 108.587 Q1856.33 92.2495 1856.33 71.1693 Z" fill="#808080" fill-rule="evenodd" fill-opacity="1" /><path clip-path="url(#clip060)" d="M 0 0 M1962.1 56.0618 Q1962.1 59.3409 1960.05 61.2147 Q1958 63.03 1955.66 63.03 Q1953.43 63.03 1952.26 61.7417 Q1951.09 60.4535 1951.09 58.8139 Q1951.09 56.5888 1952.73 54.6564 Q1954.37 52.7241 1956.83 52.3142 Q1954.43 50.7917 1950.85 50.7917 Q1948.51 50.7917 1946.46 52.0214 Q1944.47 53.2511 1943.24 54.8321 Q1942.07 56.4131 1941.02 58.6968 Q1940.02 60.922 1939.61 62.2687 Q1939.26 63.557 1938.97 64.9623 L1934.87 81.358 Q1932.88 89.146 1932.88 91.8981 Q1932.88 95.2944 1934.52 97.5781 Q1936.16 99.8032 1939.44 99.8032 Q1940.72 99.8032 1942.19 99.4519 Q1943.65 99.042 1945.53 97.988 Q1947.46 96.8754 1949.16 95.2358 Q1950.91 93.5377 1952.61 90.6685 Q1954.31 87.7992 1955.42 84.1102 Q1955.77 82.8219 1956.94 82.8219 Q1958.41 82.8219 1958.41 83.9931 Q1958.41 84.9885 1957.59 87.0965 Q1956.83 89.146 1955.13 91.8396 Q1953.49 94.4746 1951.32 96.8754 Q1949.16 99.2176 1945.94 100.857 Q1942.71 102.497 1939.2 102.497 Q1934.17 102.497 1930.83 99.8032 Q1927.49 97.1096 1926.26 93.362 Q1925.97 93.889 1925.56 94.5917 Q1925.15 95.2944 1923.92 96.8754 Q1922.75 98.3979 1921.4 99.569 Q1920.05 100.682 1917.95 101.56 Q1915.9 102.497 1913.67 102.497 Q1910.86 102.497 1908.34 101.677 Q1905.88 100.857 1904.13 98.9834 Q1902.37 97.1096 1902.37 94.5332 Q1902.37 91.6639 1904.3 89.673 Q1906.29 87.6235 1908.99 87.6235 Q1910.68 87.6235 1912.03 88.619 Q1913.44 89.6144 1913.44 91.781 Q1913.44 94.1818 1911.8 95.9971 Q1910.16 97.8123 1907.82 98.2808 Q1910.22 99.8032 1913.79 99.8032 Q1917.65 99.8032 1920.7 96.407 Q1923.74 93.0107 1925.21 87.3308 Q1928.84 73.6872 1930.24 67.5973 Q1931.65 61.449 1931.65 58.8139 Q1931.65 56.3546 1931 54.6564 Q1930.36 52.9583 1929.25 52.1971 Q1928.19 51.3773 1927.2 51.0845 Q1926.26 50.7917 1925.21 50.7917 Q1923.45 50.7917 1921.46 51.4944 Q1919.53 52.1971 1917.18 53.8367 Q1914.9 55.4177 1912.73 58.6968 Q1910.57 61.976 1909.1 66.4848 Q1908.81 67.8316 1907.52 67.8316 Q1906.12 67.773 1906.12 66.6019 Q1906.12 65.6064 1906.88 63.557 Q1907.7 61.449 1909.34 58.8139 Q1911.04 56.1789 1913.2 53.8367 Q1915.43 51.4359 1918.65 49.7963 Q1921.93 48.1567 1925.44 48.1567 Q1927.02 48.1567 1928.54 48.5081 Q1930.12 48.8008 1932 49.6792 Q1933.93 50.5575 1935.63 52.4899 Q1937.33 54.4222 1938.38 57.2329 Q1939.08 55.8861 1940.02 54.5979 Q1941.02 53.3097 1942.54 51.7286 Q1944.12 50.0891 1946.29 49.1522 Q1948.51 48.1567 1950.97 48.1567 Q1953.37 48.1567 1955.71 48.8008 Q1958.06 49.3864 1960.05 51.3187 Q1962.1 53.1925 1962.1 56.0618 Z" fill="#808080" fill-rule="evenodd" fill-opacity="1" /><path clip-path="url(#clip060)" d="M 0 0 M1970.27 129.96 Q1970.27 129.374 1971.79 127.91 Q1991.11 108.235 1991.11 71.1693 Q1991.11 33.9861 1972.55 15.1896 Q1970.27 13.0231 1970.27 12.3789 Q1970.27 11.2078 1971.44 11.2078 Q1972.26 11.2078 1975.13 13.6086 Q1978.06 16.0094 1982.45 21.5137 Q1986.9 27.018 1990.18 33.7519 Q1998.08 50.0891 1998.08 71.1693 Q1998.08 91.4297 1990.53 107.767 Q1987.31 114.618 1982.8 120.356 Q1978.29 126.095 1975.3 128.613 Q1972.32 131.131 1971.44 131.131 Q1970.27 131.131 1970.27 129.96 Z" fill="#808080" fill-rule="evenodd" fill-opacity="1" /><polyline clip-path="url(#clip063)" style="stroke:#e69f00; stroke-width:4; stroke-opacity:1; fill:none" points="
  283.575,796.901 299.647,735.252 315.718,674.218 331.789,614.41 347.861,556.426 363.932,500.844 380.003,448.221 396.074,399.081 412.146,353.916 428.217,313.178 
  444.288,277.272 460.36,246.559 476.431,221.344 492.502,201.88 508.574,188.362 524.645,180.924 540.716,179.64 556.788,184.524 572.859,195.526 588.93,212.538 
  605.001,235.388 621.073,263.848 637.144,297.635 653.215,336.41 669.287,379.786 685.358,427.33 701.429,478.566 717.501,532.984 733.572,590.038 749.643,649.159 
  765.715,709.756 781.786,771.224 797.857,832.949 813.928,894.313 830,954.704 846.071,1013.52 862.142,1070.17 878.214,1124.09 894.285,1174.74 910.356,1221.61 
  926.428,1264.25 942.499,1302.21 958.57,1335.12 974.641,1362.66 990.713,1384.54 1006.78,1400.55 1022.86,1410.53 1038.93,1414.38 1055,1412.06 1071.07,1403.59 
  1087.14,1389.06 1103.21,1368.61 1119.28,1342.46 1135.35,1310.85 1151.43,1274.1 1167.5,1232.59 1183.57,1186.72 1199.64,1136.96 1215.71,1083.8 1231.78,1027.78 
  1247.85,969.447 1263.92,909.391 1280,848.211 1296.07,786.518 1312.14,724.929 1328.21,664.059 1344.28,604.517 1360.35,546.896 1376.42,491.774 1392.5,439.7 
  1408.57,391.196 1424.64,346.745 1440.71,306.792 1456.78,271.736 1472.85,241.927 1488.92,217.663 1504.99,199.187 1521.07,186.683 1537.14,180.276 1553.21,180.03 
  1569.28,185.948 1585.35,197.971 1601.42,215.977 1617.49,239.788 1633.56,269.165 1649.64,303.816 1665.71,343.393 1681.78,387.501 1697.85,435.7 1713.92,487.509 
  1729.99,542.408 1746.06,599.85 1762.14,659.261 1778.21,720.047 1794.28,781.602 1810.35,843.309 1826.42,904.552 1842.49,964.72 1858.56,1023.21 1874.63,1079.44 
  1890.71,1132.85 1906.78,1182.9 1922.85,1229.09 1938.92,1270.97 1954.99,1308.1 1971.06,1340.13 1987.13,1366.74 2003.21,1387.65 2019.28,1402.65 2035.35,1411.61 
  2051.42,1414.42 2067.49,1411.06 2083.56,1401.57 2099.63,1386.03 2115.7,1364.61 2131.78,1337.51 2147.85,1305.02 2163.92,1267.44 2179.99,1225.17 2196.06,1178.62 
  2212.13,1128.25 2228.2,1074.57 2244.27,1018.12 2260.35,959.453 2276.42,899.166 2292.49,837.856 
  "/>
<polyline clip-path="url(#clip063)" style="stroke:#56b4e9; stroke-width:4; stroke-opacity:1; fill:none" points="
  283.575,179.377 299.647,182.462 315.718,191.686 331.789,206.958 347.861,228.123 363.932,254.972 380.003,287.236 396.074,324.592 412.146,366.668 428.217,413.042 
  444.288,463.251 460.36,516.794 476.431,573.136 492.502,631.714 508.574,691.942 524.645,753.219 540.716,814.933 556.788,876.466 572.859,937.204 588.93,996.54 
  605.001,1053.88 621.073,1108.66 637.144,1160.31 653.215,1208.34 669.287,1252.26 685.358,1291.63 701.429,1326.05 717.501,1355.19 733.572,1378.75 749.643,1396.49 
  765.715,1408.25 781.786,1413.89 797.857,1413.37 813.928,1406.69 830,1393.92 846.071,1375.19 862.142,1350.67 878.214,1320.62 894.285,1285.34 910.356,1245.18 
  926.428,1200.54 942.499,1151.87 958.57,1099.65 974.641,1044.4 990.713,986.687 1006.78,927.073 1022.86,866.158 1038.93,804.551 1055,742.868 1071.07,681.725 
  1087.14,621.733 1103.21,563.491 1119.28,507.581 1135.35,454.561 1151.43,404.963 1167.5,359.28 1183.57,317.97 1199.64,281.446 1215.71,250.071 1231.78,224.161 
  1247.85,203.973 1263.92,189.709 1280,181.512 1296.07,179.464 1312.14,183.585 1328.21,193.834 1344.28,210.109 1360.35,232.247 1376.42,260.027 1392.5,293.171 
  1408.57,331.348 1424.64,374.177 1440.71,421.229 1456.78,472.035 1472.85,526.087 1488.92,582.845 1504.99,641.742 1521.07,702.189 1537.14,763.582 1553.21,825.309 
  1569.28,886.751 1585.35,947.296 1601.42,1006.34 1617.49,1063.29 1633.56,1117.57 1649.64,1168.66 1665.71,1216.03 1681.78,1259.21 1697.85,1297.77 1713.92,1331.33 
  1729.99,1359.55 1746.06,1382.14 1762.14,1398.89 1778.21,1409.62 1794.28,1414.24 1810.35,1412.68 1826.42,1404.97 1842.49,1391.18 1858.56,1371.46 1874.63,1346 
  1890.71,1315.05 1906.78,1278.92 1922.85,1237.98 1938.92,1192.63 1954.99,1143.32 1971.06,1090.56 1987.13,1034.86 2003.21,976.779 2019.28,916.905 2035.35,855.831 
  2051.42,794.168 2067.49,732.533 2083.56,671.541 2099.63,611.801 2115.7,553.911 2131.78,498.449 2147.85,445.968 2163.92,396.995 2179.99,352.016 2196.06,311.484 
  2212.13,275.801 2228.2,245.325 2244.27,220.36 2260.35,201.155 2276.42,187.903 2292.49,180.736 
  "/>
<path clip-path="url(#clip060)" d="
M1664.45 412.764 L2281.77 412.764 L2281.77 185.964 L1664.45 185.964  Z
  " fill="#ffffff" fill-rule="evenodd" fill-opacity="1"/>
<polyline clip-path="url(#clip060)" style="stroke:#000000; stroke-width:4; stroke-opacity:1; fill:none" points="
  1664.45,412.764 2281.77,412.764 2281.77,185.964 1664.45,185.964 1664.45,412.764 
  "/>
<polyline clip-path="url(#clip060)" style="stroke:#e69f00; stroke-width:5; stroke-opacity:1; fill:none" points="
  1688.11,261.564 1830.07,261.564 
  "/>
<path clip-path="url(#clip060)" d="M 0 0 M1883.63 231.24 Q1883.63 232.85 1882.6 233.846 Q1881.61 234.841 1880.35 234.841 Q1879.44 234.841 1878.77 234.285 Q1878.12 233.729 1878.12 232.763 Q1878.12 231.767 1878.88 230.713 Q1879.64 229.659 1881.37 229.513 Q1880.23 228.429 1878.41 228.429 Q1877.51 228.429 1876.75 229.015 Q1876.01 229.571 1875.6 230.479 Q1875.16 231.416 1874.17 236.715 Q1873.85 238.443 1873.55 240.111 Q1873.26 241.78 1872.91 243.537 L1877.89 243.537 Q1878.53 243.537 1878.79 243.566 Q1879.06 243.595 1879.26 243.742 Q1879.5 243.888 1879.5 244.21 Q1879.5 245.03 1879.12 245.235 Q1878.77 245.411 1877.71 245.411 L1872.56 245.411 L1868.96 264.412 Q1868.87 264.968 1868.49 266.725 Q1868.14 268.453 1867.29 271.292 Q1866.44 274.162 1865.59 275.86 Q1865.12 276.826 1864.51 277.734 Q1863.92 278.671 1863.07 279.607 Q1862.22 280.544 1861.11 281.101 Q1860 281.686 1858.83 281.686 Q1856.84 281.686 1855.28 280.574 Q1853.73 279.461 1853.73 277.558 Q1853.73 275.948 1854.73 274.952 Q1855.75 273.957 1857.01 273.957 Q1857.92 273.957 1858.56 274.513 Q1859.24 275.069 1859.24 276.036 Q1859.24 276.445 1859.09 276.914 Q1858.94 277.382 1858.62 277.909 Q1858.3 278.466 1857.6 278.846 Q1856.89 279.227 1855.93 279.285 Q1857.07 280.369 1858.83 280.369 Q1859.38 280.369 1859.88 280.134 Q1860.38 279.93 1860.79 279.403 Q1861.23 278.876 1861.55 278.348 Q1861.87 277.851 1862.19 276.885 Q1862.52 275.948 1862.72 275.245 Q1862.93 274.542 1863.19 273.283 Q1863.48 272.024 1863.63 271.263 Q1863.78 270.531 1864.04 269.097 L1868.52 245.411 L1864.57 245.411 Q1863.86 245.411 1863.57 245.381 Q1863.31 245.352 1863.1 245.206 Q1862.9 245.03 1862.9 244.679 Q1862.9 244.122 1863.13 243.888 Q1863.39 243.625 1863.69 243.595 Q1863.98 243.537 1864.68 243.537 L1868.84 243.537 Q1870.25 236.13 1870.8 234.139 Q1871.45 232.031 1872.44 230.567 Q1873.44 229.074 1874.55 228.371 Q1875.66 227.668 1876.57 227.405 Q1877.51 227.112 1878.41 227.112 Q1880.46 227.112 1882.04 228.224 Q1883.63 229.308 1883.63 231.24 Z" fill="#808080" fill-rule="evenodd" fill-opacity="1" /><path clip-path="url(#clip060)" d="M 0 0 M1889.73 274.03 L1889.73 272.718 Q1894.77 272.718 1897.37 270.033 Q1898.09 270.033 1898.21 270.197 Q1898.33 270.361 1898.33 271.119 L1898.33 294.668 Q1898.33 295.918 1898.95 296.307 Q1899.56 296.697 1902.25 296.697 L1903.58 296.697 L1903.58 297.988 Q1902.11 297.865 1896.78 297.865 Q1891.45 297.865 1889.99 297.988 L1889.99 296.697 L1891.33 296.697 Q1893.97 296.697 1894.6 296.328 Q1895.24 295.938 1895.24 294.668 L1895.24 272.923 Q1893.05 274.03 1889.73 274.03 Z" fill="#808080" fill-rule="evenodd" fill-opacity="1" /><path clip-path="url(#clip060)" d="M 0 0 M1909.84 254.399 Q1909.84 244.269 1913.62 236.1 Q1915.23 232.675 1917.48 229.805 Q1919.74 226.936 1921.23 225.677 Q1922.72 224.418 1923.13 224.418 Q1923.72 224.418 1923.75 225.004 Q1923.75 225.297 1922.96 226.029 Q1913.3 235.866 1913.33 254.399 Q1913.33 272.991 1922.72 282.447 Q1923.75 283.472 1923.75 283.794 Q1923.75 284.38 1923.13 284.38 Q1922.72 284.38 1921.29 283.179 Q1919.86 281.979 1917.63 279.227 Q1915.4 276.475 1913.79 273.108 Q1909.84 264.939 1909.84 254.399 Z" fill="#808080" fill-rule="evenodd" fill-opacity="1" /><path clip-path="url(#clip060)" d="M 0 0 M1962.73 246.845 Q1962.73 248.485 1961.7 249.422 Q1960.68 250.329 1959.5 250.329 Q1958.39 250.329 1957.81 249.685 Q1957.22 249.041 1957.22 248.221 Q1957.22 247.109 1958.04 246.143 Q1958.86 245.176 1960.09 244.972 Q1958.89 244.21 1957.1 244.21 Q1955.93 244.21 1954.91 244.825 Q1953.91 245.44 1953.3 246.23 Q1952.71 247.021 1952.18 248.163 Q1951.69 249.275 1951.48 249.949 Q1951.31 250.593 1951.16 251.296 L1949.11 259.493 Q1948.12 263.387 1948.12 264.763 Q1948.12 266.462 1948.94 267.603 Q1949.75 268.716 1951.39 268.716 Q1952.04 268.716 1952.77 268.54 Q1953.5 268.335 1954.44 267.808 Q1955.41 267.252 1956.25 266.432 Q1957.13 265.583 1957.98 264.149 Q1958.83 262.714 1959.39 260.87 Q1959.56 260.225 1960.15 260.225 Q1960.88 260.225 1960.88 260.811 Q1960.88 261.309 1960.47 262.363 Q1960.09 263.387 1959.24 264.734 Q1958.42 266.052 1957.34 267.252 Q1956.25 268.423 1954.64 269.243 Q1953.03 270.063 1951.28 270.063 Q1948.76 270.063 1947.09 268.716 Q1945.42 267.369 1944.81 265.495 Q1944.66 265.759 1944.46 266.11 Q1944.25 266.462 1943.64 267.252 Q1943.05 268.013 1942.38 268.599 Q1941.7 269.155 1940.65 269.594 Q1939.62 270.063 1938.51 270.063 Q1937.11 270.063 1935.85 269.653 Q1934.62 269.243 1933.74 268.306 Q1932.86 267.369 1932.86 266.081 Q1932.86 264.646 1933.83 263.651 Q1934.82 262.626 1936.17 262.626 Q1937.02 262.626 1937.69 263.124 Q1938.4 263.622 1938.4 264.705 Q1938.4 265.905 1937.58 266.813 Q1936.76 267.721 1935.58 267.955 Q1936.78 268.716 1938.57 268.716 Q1940.5 268.716 1942.03 267.018 Q1943.55 265.32 1944.28 262.48 Q1946.1 255.658 1946.8 252.613 Q1947.5 249.539 1947.5 248.221 Q1947.5 246.992 1947.18 246.143 Q1946.86 245.294 1946.3 244.913 Q1945.77 244.503 1945.28 244.357 Q1944.81 244.21 1944.28 244.21 Q1943.4 244.21 1942.41 244.562 Q1941.44 244.913 1940.27 245.733 Q1939.13 246.523 1938.04 248.163 Q1936.96 249.802 1936.23 252.057 Q1936.08 252.73 1935.44 252.73 Q1934.74 252.701 1934.74 252.115 Q1934.74 251.618 1935.12 250.593 Q1935.53 249.539 1936.35 248.221 Q1937.19 246.904 1938.28 245.733 Q1939.39 244.532 1941 243.713 Q1942.64 242.893 1944.4 242.893 Q1945.19 242.893 1945.95 243.068 Q1946.74 243.215 1947.68 243.654 Q1948.64 244.093 1949.49 245.059 Q1950.34 246.026 1950.87 247.431 Q1951.22 246.757 1951.69 246.113 Q1952.18 245.469 1952.95 244.679 Q1953.74 243.859 1954.82 243.391 Q1955.93 242.893 1957.16 242.893 Q1958.36 242.893 1959.53 243.215 Q1960.7 243.508 1961.7 244.474 Q1962.73 245.411 1962.73 246.845 Z" fill="#808080" fill-rule="evenodd" fill-opacity="1" /><path clip-path="url(#clip060)" d="M 0 0 M1966.81 283.794 Q1966.81 283.501 1967.57 282.769 Q1977.23 272.932 1977.23 254.399 Q1977.23 235.807 1967.95 226.409 Q1966.81 225.326 1966.81 225.004 Q1966.81 224.418 1967.4 224.418 Q1967.81 224.418 1969.24 225.619 Q1970.7 226.819 1972.9 229.571 Q1975.13 232.323 1976.77 235.69 Q1980.72 243.859 1980.72 254.399 Q1980.72 264.529 1976.94 272.698 Q1975.33 276.123 1973.08 278.993 Q1970.82 281.862 1969.33 283.121 Q1967.84 284.38 1967.4 284.38 Q1966.81 284.38 1966.81 283.794 Z" fill="#808080" fill-rule="evenodd" fill-opacity="1" /><path clip-path="url(#clip060)" d="M 0 0 M2006.46 260.284 Q2006.52 259.552 2007.66 259.552 L2044.41 259.552 Q2046.14 259.552 2046.16 260.225 Q2046.16 260.957 2044.53 260.928 L2008.07 260.928 Q2006.46 260.957 2006.46 260.284 M2006.46 248.573 Q2006.46 247.841 2007.72 247.87 L2044.35 247.87 Q2046.14 247.87 2046.16 248.573 Q2046.16 249.246 2044.64 249.246 L2007.66 249.246 Q2006.46 249.246 2006.46 248.573 Z" fill="#808080" fill-rule="evenodd" fill-opacity="1" /><path clip-path="url(#clip060)" d="M 0 0 M2091.36 248.046 Q2091.36 249.685 2090.54 250.564 Q2089.72 251.413 2088.6 251.413 Q2087.7 251.413 2087.2 250.886 Q2086.73 250.359 2086.73 249.656 Q2086.73 248.631 2087.55 247.811 Q2088.4 246.992 2089.63 246.962 Q2089.22 245.879 2088.14 245.235 Q2087.05 244.562 2086.09 244.386 Q2085.15 244.21 2084.21 244.21 Q2082.37 244.21 2080.96 244.796 Q2079.56 245.381 2078.86 246.289 Q2078.15 247.167 2077.83 248.016 Q2077.51 248.865 2077.51 249.597 Q2077.51 250.242 2077.65 250.769 Q2077.83 251.266 2078.24 251.647 Q2078.65 251.998 2078.94 252.232 Q2079.26 252.467 2079.97 252.672 Q2080.67 252.877 2080.96 252.964 Q2081.26 253.023 2082.08 253.199 Q2083.77 253.55 2084.54 253.755 Q2085.3 253.931 2086.29 254.428 Q2087.32 254.926 2088.08 255.717 Q2089.92 257.561 2089.92 260.108 Q2089.92 261.045 2089.6 262.187 Q2089.31 263.329 2088.46 264.763 Q2087.61 266.198 2086.32 267.34 Q2085.03 268.482 2082.81 269.272 Q2080.61 270.063 2077.86 270.063 Q2074.02 270.063 2071.65 268.453 Q2069.28 266.813 2069.28 264.236 Q2069.28 262.363 2070.31 261.338 Q2071.33 260.284 2072.65 260.284 Q2073.64 260.284 2074.26 260.84 Q2074.87 261.367 2074.87 262.363 Q2074.87 263.709 2073.79 264.734 Q2072.71 265.759 2071.1 265.554 Q2072.47 268.716 2077.92 268.716 Q2079.97 268.716 2081.55 268.189 Q2083.16 267.633 2084.04 266.872 Q2084.94 266.081 2085.53 265.115 Q2086.12 264.149 2086.29 263.417 Q2086.5 262.685 2086.5 262.128 Q2086.5 261.162 2086.12 260.43 Q2085.74 259.698 2085.21 259.288 Q2084.71 258.849 2083.74 258.498 Q2082.81 258.117 2082.13 257.971 Q2081.46 257.825 2080.26 257.59 Q2079.7 257.473 2079.35 257.415 Q2079 257.327 2078.27 257.093 Q2077.57 256.829 2077.07 256.566 Q2076.6 256.302 2075.99 255.834 Q2075.37 255.365 2074.99 254.809 Q2074.61 254.253 2074.35 253.433 Q2074.08 252.613 2074.08 251.647 Q2074.08 250.769 2074.35 249.715 Q2074.64 248.661 2075.37 247.431 Q2076.13 246.201 2077.22 245.206 Q2078.3 244.21 2080.11 243.566 Q2081.96 242.893 2084.21 242.893 Q2087.49 242.893 2089.42 244.415 Q2091.36 245.908 2091.36 248.046 Z" fill="#808080" fill-rule="evenodd" fill-opacity="1" /><path clip-path="url(#clip060)" d="M 0 0 M2112.43 231.914 Q2112.43 233.202 2111.37 234.168 Q2110.35 235.105 2109.23 235.105 Q2108.21 235.105 2107.57 234.49 Q2106.95 233.846 2106.95 232.938 Q2106.95 231.738 2107.98 230.742 Q2109 229.747 2110.2 229.747 Q2111.2 229.747 2111.81 230.362 Q2112.43 230.977 2112.43 231.914 M2112.95 260.811 Q2112.95 261.045 2112.69 261.982 Q2112.43 262.89 2111.78 264.295 Q2111.17 265.671 2110.32 266.959 Q2109.47 268.248 2108.06 269.155 Q2106.69 270.063 2105.11 270.063 Q2102.97 270.063 2101.56 268.657 Q2100.19 267.252 2100.19 265.144 Q2100.19 264.002 2101.56 260.342 Q2105.55 249.685 2105.69 249.246 Q2106.37 247.577 2106.37 246.113 Q2106.37 245.44 2106.22 245.03 Q2106.07 244.591 2105.78 244.445 Q2105.49 244.269 2105.31 244.24 Q2105.16 244.21 2104.87 244.21 Q2103.14 244.21 2101.53 245.967 Q2099.92 247.724 2098.81 251.647 Q2098.58 252.379 2098.43 252.555 Q2098.28 252.73 2097.85 252.73 Q2097.11 252.701 2097.11 252.115 Q2097.11 251.94 2097.32 251.266 Q2097.52 250.564 2097.9 249.51 Q2098.28 248.426 2098.96 247.314 Q2099.63 246.172 2100.45 245.176 Q2101.3 244.181 2102.5 243.537 Q2103.7 242.893 2105.05 242.893 Q2107.24 242.893 2108.59 244.327 Q2109.97 245.733 2109.97 247.811 Q2109.97 248.953 2109.18 250.974 Q2108.21 253.609 2107.86 254.458 L2105.52 260.752 Q2104.67 263.036 2104.4 263.739 Q2104.17 264.412 2103.96 265.232 Q2103.79 266.022 2103.79 266.754 Q2103.79 267.779 2104.11 268.248 Q2104.46 268.716 2105.22 268.716 Q2107.33 268.716 2108.88 266.637 Q2110.43 264.529 2111.34 261.309 Q2111.37 261.221 2111.4 261.074 Q2111.64 260.342 2111.87 260.255 Q2111.99 260.225 2112.22 260.225 Q2112.95 260.225 2112.95 260.811 Z" fill="#808080" fill-rule="evenodd" fill-opacity="1" /><path clip-path="url(#clip060)" d="M 0 0 M2150.08 260.811 Q2150.08 261.045 2149.82 261.953 Q2149.55 262.86 2148.91 264.266 Q2148.29 265.671 2147.44 266.959 Q2146.6 268.218 2145.19 269.155 Q2143.81 270.063 2142.23 270.063 Q2140.13 270.063 2138.72 268.657 Q2137.31 267.252 2137.31 265.144 Q2137.31 263.973 2137.93 262.363 Q2141.82 251.969 2141.82 248.397 Q2141.82 244.21 2138.57 244.21 Q2136.96 244.21 2135.44 244.825 Q2133.95 245.411 2132.92 246.23 Q2131.9 247.05 2130.96 248.192 Q2130.05 249.305 2129.59 250.066 Q2129.15 250.798 2128.79 251.53 L2128.03 254.516 Q2127.86 255.336 2127.01 258.527 L2125.69 263.944 Q2124.75 267.984 2124.55 268.365 Q2124.26 269.184 2123.61 269.624 Q2122.97 270.063 2122.32 270.063 Q2121.59 270.063 2121.09 269.624 Q2120.6 269.184 2120.6 268.423 Q2120.6 268.306 2120.68 267.867 Q2120.77 267.428 2120.92 266.813 Q2121.07 266.198 2121.12 265.847 L2124.61 251.998 Q2125.25 249.48 2125.4 248.69 Q2125.57 247.87 2125.57 246.962 Q2125.57 244.21 2123.7 244.21 Q2122.18 244.21 2121.18 246.026 Q2120.19 247.841 2119.34 251.354 Q2119.07 252.32 2118.9 252.525 Q2118.75 252.73 2118.31 252.73 Q2117.58 252.701 2117.58 252.115 Q2117.58 251.969 2117.82 251.003 Q2118.05 250.037 2118.49 248.661 Q2118.96 247.255 2119.4 246.318 Q2119.78 245.616 2119.98 245.294 Q2120.22 244.942 2120.77 244.269 Q2121.36 243.566 2122.12 243.244 Q2122.91 242.893 2123.88 242.893 Q2126.04 242.893 2127.62 244.298 Q2129.2 245.674 2129.41 248.104 Q2133.3 242.893 2138.75 242.893 Q2141.97 242.893 2143.81 244.591 Q2145.66 246.289 2145.66 249.305 Q2145.66 250.007 2145.51 250.915 Q2145.4 251.793 2145.1 252.906 Q2144.84 254.018 2144.6 254.867 Q2144.37 255.717 2143.9 257.093 Q2143.43 258.439 2143.23 259.025 Q2143.02 259.611 2142.53 260.987 Q2142.06 262.333 2142 262.48 Q2140.92 265.203 2140.92 266.754 Q2140.92 267.779 2141.24 268.248 Q2141.59 268.716 2142.35 268.716 Q2144.4 268.716 2145.92 266.696 Q2147.47 264.646 2148.47 261.309 Q2148.7 260.577 2148.82 260.401 Q2148.97 260.225 2149.38 260.225 Q2150.08 260.225 2150.08 260.811 Z" fill="#808080" fill-rule="evenodd" fill-opacity="1" /><path clip-path="url(#clip060)" d="M 0 0 M2153.18 254.399 Q2153.18 244.269 2156.96 236.1 Q2158.57 232.675 2160.82 229.805 Q2163.08 226.936 2164.57 225.677 Q2166.07 224.418 2166.48 224.418 Q2167.06 224.418 2167.09 225.004 Q2167.09 225.297 2166.3 226.029 Q2156.64 235.866 2156.67 254.399 Q2156.67 272.991 2166.07 282.447 Q2167.09 283.472 2167.09 283.794 Q2167.09 284.38 2166.48 284.38 Q2166.07 284.38 2164.63 283.179 Q2163.2 281.979 2160.97 279.227 Q2158.75 276.475 2157.14 273.108 Q2153.18 264.939 2153.18 254.399 Z" fill="#808080" fill-rule="evenodd" fill-opacity="1" /><path clip-path="url(#clip060)" d="M 0 0 M2206.07 246.845 Q2206.07 248.485 2205.04 249.422 Q2204.02 250.329 2202.85 250.329 Q2201.73 250.329 2201.15 249.685 Q2200.56 249.041 2200.56 248.221 Q2200.56 247.109 2201.38 246.143 Q2202.2 245.176 2203.43 244.972 Q2202.23 244.21 2200.44 244.21 Q2199.27 244.21 2198.25 244.825 Q2197.25 245.44 2196.64 246.23 Q2196.05 247.021 2195.53 248.163 Q2195.03 249.275 2194.82 249.949 Q2194.65 250.593 2194.5 251.296 L2192.45 259.493 Q2191.46 263.387 2191.46 264.763 Q2191.46 266.462 2192.28 267.603 Q2193.1 268.716 2194.74 268.716 Q2195.38 268.716 2196.11 268.54 Q2196.84 268.335 2197.78 267.808 Q2198.75 267.252 2199.6 266.432 Q2200.47 265.583 2201.32 264.149 Q2202.17 262.714 2202.73 260.87 Q2202.9 260.225 2203.49 260.225 Q2204.22 260.225 2204.22 260.811 Q2204.22 261.309 2203.81 262.363 Q2203.43 263.387 2202.58 264.734 Q2201.76 266.052 2200.68 267.252 Q2199.6 268.423 2197.99 269.243 Q2196.38 270.063 2194.62 270.063 Q2192.1 270.063 2190.43 268.716 Q2188.76 267.369 2188.15 265.495 Q2188 265.759 2187.8 266.11 Q2187.59 266.462 2186.98 267.252 Q2186.39 268.013 2185.72 268.599 Q2185.04 269.155 2183.99 269.594 Q2182.97 270.063 2181.85 270.063 Q2180.45 270.063 2179.19 269.653 Q2177.96 269.243 2177.08 268.306 Q2176.2 267.369 2176.2 266.081 Q2176.2 264.646 2177.17 263.651 Q2178.16 262.626 2179.51 262.626 Q2180.36 262.626 2181.03 263.124 Q2181.74 263.622 2181.74 264.705 Q2181.74 265.905 2180.92 266.813 Q2180.1 267.721 2178.93 267.955 Q2180.13 268.716 2181.91 268.716 Q2183.84 268.716 2185.37 267.018 Q2186.89 265.32 2187.62 262.48 Q2189.44 255.658 2190.14 252.613 Q2190.84 249.539 2190.84 248.221 Q2190.84 246.992 2190.52 246.143 Q2190.2 245.294 2189.64 244.913 Q2189.11 244.503 2188.62 244.357 Q2188.15 244.21 2187.62 244.21 Q2186.74 244.21 2185.75 244.562 Q2184.78 244.913 2183.61 245.733 Q2182.47 246.523 2181.38 248.163 Q2180.3 249.802 2179.57 252.057 Q2179.42 252.73 2178.78 252.73 Q2178.08 252.701 2178.08 252.115 Q2178.08 251.618 2178.46 250.593 Q2178.87 249.539 2179.69 248.221 Q2180.54 246.904 2181.62 245.733 Q2182.73 244.532 2184.34 243.713 Q2185.98 242.893 2187.74 242.893 Q2188.53 242.893 2189.29 243.068 Q2190.08 243.215 2191.02 243.654 Q2191.98 244.093 2192.83 245.059 Q2193.68 246.026 2194.21 247.431 Q2194.56 246.757 2195.03 246.113 Q2195.53 245.469 2196.29 244.679 Q2197.08 243.859 2198.16 243.391 Q2199.27 242.893 2200.5 242.893 Q2201.7 242.893 2202.87 243.215 Q2204.05 243.508 2205.04 244.474 Q2206.07 245.411 2206.07 246.845 Z" fill="#808080" fill-rule="evenodd" fill-opacity="1" /><path clip-path="url(#clip060)" d="M 0 0 M2210.15 283.794 Q2210.15 283.501 2210.91 282.769 Q2220.57 272.932 2220.57 254.399 Q2220.57 235.807 2211.29 226.409 Q2210.15 225.326 2210.15 225.004 Q2210.15 224.418 2210.74 224.418 Q2211.15 224.418 2212.58 225.619 Q2214.05 226.819 2216.24 229.571 Q2218.47 232.323 2220.11 235.69 Q2224.06 243.859 2224.06 254.399 Q2224.06 264.529 2220.28 272.698 Q2218.67 276.123 2216.42 278.993 Q2214.16 281.862 2212.67 283.121 Q2211.18 284.38 2210.74 284.38 Q2210.15 284.38 2210.15 283.794 Z" fill="#808080" fill-rule="evenodd" fill-opacity="1" /><polyline clip-path="url(#clip060)" style="stroke:#56b4e9; stroke-width:5; stroke-opacity:1; fill:none" points="
  1688.11,337.164 1830.07,337.164 
  "/>
<path clip-path="url(#clip060)" d="M 0 0 M1883.63 306.84 Q1883.63 308.45 1882.6 309.446 Q1881.61 310.441 1880.35 310.441 Q1879.44 310.441 1878.77 309.885 Q1878.12 309.329 1878.12 308.363 Q1878.12 307.367 1878.88 306.313 Q1879.64 305.259 1881.37 305.113 Q1880.23 304.029 1878.41 304.029 Q1877.51 304.029 1876.75 304.615 Q1876.01 305.171 1875.6 306.079 Q1875.16 307.016 1874.17 312.315 Q1873.85 314.043 1873.55 315.711 Q1873.26 317.38 1872.91 319.137 L1877.89 319.137 Q1878.53 319.137 1878.79 319.166 Q1879.06 319.195 1879.26 319.342 Q1879.5 319.488 1879.5 319.81 Q1879.5 320.63 1879.12 320.835 Q1878.77 321.011 1877.71 321.011 L1872.56 321.011 L1868.96 340.012 Q1868.87 340.568 1868.49 342.325 Q1868.14 344.053 1867.29 346.892 Q1866.44 349.762 1865.59 351.46 Q1865.12 352.426 1864.51 353.334 Q1863.92 354.271 1863.07 355.207 Q1862.22 356.144 1861.11 356.701 Q1860 357.286 1858.83 357.286 Q1856.84 357.286 1855.28 356.174 Q1853.73 355.061 1853.73 353.158 Q1853.73 351.548 1854.73 350.552 Q1855.75 349.557 1857.01 349.557 Q1857.92 349.557 1858.56 350.113 Q1859.24 350.669 1859.24 351.636 Q1859.24 352.045 1859.09 352.514 Q1858.94 352.982 1858.62 353.509 Q1858.3 354.066 1857.6 354.446 Q1856.89 354.827 1855.93 354.885 Q1857.07 355.969 1858.83 355.969 Q1859.38 355.969 1859.88 355.734 Q1860.38 355.53 1860.79 355.003 Q1861.23 354.476 1861.55 353.948 Q1861.87 353.451 1862.19 352.485 Q1862.52 351.548 1862.72 350.845 Q1862.93 350.142 1863.19 348.883 Q1863.48 347.624 1863.63 346.863 Q1863.78 346.131 1864.04 344.697 L1868.52 321.011 L1864.57 321.011 Q1863.86 321.011 1863.57 320.981 Q1863.31 320.952 1863.1 320.806 Q1862.9 320.63 1862.9 320.279 Q1862.9 319.722 1863.13 319.488 Q1863.39 319.225 1863.69 319.195 Q1863.98 319.137 1864.68 319.137 L1868.84 319.137 Q1870.25 311.73 1870.8 309.739 Q1871.45 307.631 1872.44 306.167 Q1873.44 304.674 1874.55 303.971 Q1875.66 303.268 1876.57 303.005 Q1877.51 302.712 1878.41 302.712 Q1880.46 302.712 1882.04 303.824 Q1883.63 304.908 1883.63 306.84 Z" fill="#808080" fill-rule="evenodd" fill-opacity="1" /><path clip-path="url(#clip060)" d="M 0 0 M1889.73 373.588 Q1889.73 372.83 1889.79 372.604 Q1889.87 372.379 1890.2 372.03 L1898.25 363.054 Q1902.66 358.094 1902.66 353.77 Q1902.66 350.962 1901.18 348.953 Q1899.73 346.945 1897.04 346.945 Q1895.2 346.945 1893.64 348.072 Q1892.08 349.199 1891.37 351.208 Q1891.49 351.167 1891.92 351.167 Q1892.96 351.167 1893.54 351.823 Q1894.13 352.478 1894.13 353.36 Q1894.13 354.487 1893.39 355.04 Q1892.68 355.573 1891.96 355.573 Q1891.67 355.573 1891.28 355.512 Q1890.92 355.45 1890.32 354.876 Q1889.73 354.282 1889.73 353.237 Q1889.73 350.306 1891.94 347.97 Q1894.17 345.633 1897.58 345.633 Q1901.43 345.633 1903.95 347.929 Q1906.49 350.203 1906.49 353.77 Q1906.49 355.02 1906.1 356.167 Q1905.73 357.295 1905.22 358.176 Q1904.73 359.057 1903.38 360.471 Q1902.02 361.885 1900.94 362.89 Q1899.85 363.894 1897.41 366.025 L1892.96 370.35 L1900.53 370.35 Q1904.22 370.35 1904.5 370.022 Q1904.91 369.427 1905.43 366.292 L1906.49 366.292 L1905.3 373.588 L1889.73 373.588 Z" fill="#808080" fill-rule="evenodd" fill-opacity="1" /><path clip-path="url(#clip060)" d="M 0 0 M1912.72 329.999 Q1912.72 319.869 1916.5 311.7 Q1918.11 308.275 1920.36 305.405 Q1922.61 302.536 1924.11 301.277 Q1925.6 300.018 1926.01 300.018 Q1926.6 300.018 1926.63 300.604 Q1926.63 300.897 1925.84 301.629 Q1916.17 311.466 1916.2 329.999 Q1916.2 348.591 1925.6 358.047 Q1926.63 359.072 1926.63 359.394 Q1926.63 359.98 1926.01 359.98 Q1925.6 359.98 1924.17 358.779 Q1922.73 357.579 1920.51 354.827 Q1918.28 352.075 1916.67 348.708 Q1912.72 340.539 1912.72 329.999 Z" fill="#808080" fill-rule="evenodd" fill-opacity="1" /><path clip-path="url(#clip060)" d="M 0 0 M1965.6 322.445 Q1965.6 324.085 1964.58 325.022 Q1963.55 325.929 1962.38 325.929 Q1961.27 325.929 1960.68 325.285 Q1960.1 324.641 1960.1 323.821 Q1960.1 322.709 1960.92 321.743 Q1961.74 320.776 1962.97 320.572 Q1961.77 319.81 1959.98 319.81 Q1958.81 319.81 1957.78 320.425 Q1956.79 321.04 1956.17 321.83 Q1955.59 322.621 1955.06 323.763 Q1954.56 324.875 1954.36 325.549 Q1954.18 326.193 1954.04 326.896 L1951.99 335.093 Q1950.99 338.987 1950.99 340.363 Q1950.99 342.062 1951.81 343.203 Q1952.63 344.316 1954.27 344.316 Q1954.92 344.316 1955.65 344.14 Q1956.38 343.935 1957.32 343.408 Q1958.28 342.852 1959.13 342.032 Q1960.01 341.183 1960.86 339.749 Q1961.71 338.314 1962.26 336.47 Q1962.44 335.825 1963.03 335.825 Q1963.76 335.825 1963.76 336.411 Q1963.76 336.909 1963.35 337.963 Q1962.97 338.987 1962.12 340.334 Q1961.3 341.652 1960.21 342.852 Q1959.13 344.023 1957.52 344.843 Q1955.91 345.663 1954.15 345.663 Q1951.64 345.663 1949.97 344.316 Q1948.3 342.969 1947.68 341.095 Q1947.54 341.359 1947.33 341.71 Q1947.13 342.062 1946.51 342.852 Q1945.93 343.613 1945.25 344.199 Q1944.58 344.755 1943.53 345.194 Q1942.5 345.663 1941.39 345.663 Q1939.98 345.663 1938.72 345.253 Q1937.49 344.843 1936.62 343.906 Q1935.74 342.969 1935.74 341.681 Q1935.74 340.246 1936.7 339.251 Q1937.7 338.226 1939.05 338.226 Q1939.9 338.226 1940.57 338.724 Q1941.27 339.222 1941.27 340.305 Q1941.27 341.505 1940.45 342.413 Q1939.63 343.321 1938.46 343.555 Q1939.66 344.316 1941.45 344.316 Q1943.38 344.316 1944.9 342.618 Q1946.42 340.92 1947.16 338.08 Q1948.97 331.258 1949.67 328.213 Q1950.38 325.139 1950.38 323.821 Q1950.38 322.592 1950.05 321.743 Q1949.73 320.894 1949.18 320.513 Q1948.65 320.103 1948.15 319.957 Q1947.68 319.81 1947.16 319.81 Q1946.28 319.81 1945.28 320.162 Q1944.32 320.513 1943.15 321.333 Q1942 322.123 1940.92 323.763 Q1939.84 325.402 1939.11 327.657 Q1938.96 328.33 1938.31 328.33 Q1937.61 328.301 1937.61 327.715 Q1937.61 327.218 1937.99 326.193 Q1938.4 325.139 1939.22 323.821 Q1940.07 322.504 1941.15 321.333 Q1942.27 320.132 1943.88 319.313 Q1945.52 318.493 1947.27 318.493 Q1948.06 318.493 1948.83 318.668 Q1949.62 318.815 1950.55 319.254 Q1951.52 319.693 1952.37 320.659 Q1953.22 321.626 1953.74 323.031 Q1954.1 322.357 1954.56 321.713 Q1955.06 321.069 1955.82 320.279 Q1956.61 319.459 1957.7 318.991 Q1958.81 318.493 1960.04 318.493 Q1961.24 318.493 1962.41 318.815 Q1963.58 319.108 1964.58 320.074 Q1965.6 321.011 1965.6 322.445 Z" fill="#808080" fill-rule="evenodd" fill-opacity="1" /><path clip-path="url(#clip060)" d="M 0 0 M1969.69 359.394 Q1969.69 359.101 1970.45 358.369 Q1980.11 348.532 1980.11 329.999 Q1980.11 311.407 1970.83 302.009 Q1969.69 300.926 1969.69 300.604 Q1969.69 300.018 1970.27 300.018 Q1970.68 300.018 1972.12 301.219 Q1973.58 302.419 1975.78 305.171 Q1978 307.923 1979.64 311.29 Q1983.59 319.459 1983.59 329.999 Q1983.59 340.129 1979.82 348.298 Q1978.21 351.723 1975.95 354.593 Q1973.7 357.462 1972.21 358.721 Q1970.71 359.98 1970.27 359.98 Q1969.69 359.98 1969.69 359.394 Z" fill="#808080" fill-rule="evenodd" fill-opacity="1" /><path clip-path="url(#clip060)" d="M 0 0 M2009.34 335.884 Q2009.4 335.152 2010.54 335.152 L2047.28 335.152 Q2049.01 335.152 2049.04 335.825 Q2049.04 336.557 2047.4 336.528 L2010.95 336.528 Q2009.34 336.557 2009.34 335.884 M2009.34 324.173 Q2009.34 323.441 2010.6 323.47 L2047.23 323.47 Q2049.01 323.47 2049.04 324.173 Q2049.04 324.846 2047.52 324.846 L2010.54 324.846 Q2009.34 324.846 2009.34 324.173 Z" fill="#808080" fill-rule="evenodd" fill-opacity="1" /><path clip-path="url(#clip060)" d="M 0 0 M2095.26 338.051 Q2095.49 338.314 2095.49 338.578 Q2095.49 338.841 2094.91 339.602 Q2094.35 340.363 2093.15 341.388 Q2091.95 342.413 2090.4 343.379 Q2088.85 344.345 2086.56 344.989 Q2084.28 345.663 2081.88 345.663 Q2077.4 345.663 2074.76 342.706 Q2072.16 339.749 2072.16 335.503 Q2072.16 331.375 2074.47 327.423 Q2076.78 323.441 2080.53 320.981 Q2084.28 318.493 2088.23 318.493 Q2091.36 318.493 2093.33 319.957 Q2095.29 321.421 2095.29 323.646 Q2095.29 325.373 2094.29 326.427 Q2093.3 327.481 2091.95 327.481 Q2091.01 327.481 2090.37 326.954 Q2089.72 326.398 2089.72 325.373 Q2089.72 324.056 2090.81 323.031 Q2091.22 322.621 2091.69 322.445 Q2092.18 322.24 2092.48 322.24 Q2092.77 322.211 2093.44 322.211 Q2092.83 321.069 2091.36 320.454 Q2089.93 319.81 2088.29 319.81 Q2085.86 319.81 2083.55 321.508 Q2081.23 323.177 2079.83 325.812 Q2078.42 328.389 2077.52 332.049 Q2076.61 335.679 2076.61 337.787 Q2076.61 340.686 2077.95 342.501 Q2079.3 344.316 2082 344.316 Q2082.52 344.316 2083.08 344.287 Q2083.66 344.257 2085.13 343.935 Q2086.62 343.613 2087.94 343.057 Q2089.26 342.501 2090.92 341.3 Q2092.62 340.071 2093.97 338.402 Q2094.44 337.787 2094.76 337.787 Q2095.02 337.787 2095.26 338.051 Z" fill="#808080" fill-rule="evenodd" fill-opacity="1" /><path clip-path="url(#clip060)" d="M 0 0 M2123.52 328.623 Q2123.52 331.814 2122.12 334.976 Q2120.71 338.109 2118.46 340.451 Q2116.23 342.764 2113.3 344.228 Q2110.38 345.663 2107.45 345.663 Q2103.26 345.663 2100.54 342.823 Q2097.84 339.954 2097.84 335.503 Q2097.84 331.346 2100.16 327.393 Q2102.5 323.411 2106.25 320.952 Q2109.99 318.493 2113.92 318.493 Q2118.05 318.493 2120.77 321.274 Q2123.52 324.056 2123.52 328.623 M2119.13 326.281 Q2119.13 323.441 2117.75 321.626 Q2116.38 319.81 2113.86 319.81 Q2113.13 319.81 2112.28 320.045 Q2111.43 320.249 2110.32 320.806 Q2109.23 321.362 2108 322.533 Q2106.8 323.675 2105.75 325.315 Q2104.37 327.481 2103.32 331.463 Q2102.29 335.415 2102.29 337.787 Q2102.29 341.066 2103.82 342.706 Q2105.34 344.316 2107.51 344.316 Q2109.61 344.316 2111.84 342.852 Q2114.09 341.359 2115.65 338.812 Q2117.2 336.177 2118.16 332.312 Q2119.13 328.418 2119.13 326.281 Z" fill="#808080" fill-rule="evenodd" fill-opacity="1" /><path clip-path="url(#clip060)" d="M 0 0 M2148.71 323.646 Q2148.71 325.285 2147.89 326.164 Q2147.07 327.013 2145.96 327.013 Q2145.05 327.013 2144.55 326.486 Q2144.08 325.959 2144.08 325.256 Q2144.08 324.231 2144.9 323.411 Q2145.75 322.592 2146.98 322.562 Q2146.57 321.479 2145.49 320.835 Q2144.4 320.162 2143.44 319.986 Q2142.5 319.81 2141.56 319.81 Q2139.72 319.81 2138.32 320.396 Q2136.91 320.981 2136.21 321.889 Q2135.5 322.767 2135.18 323.616 Q2134.86 324.465 2134.86 325.197 Q2134.86 325.842 2135.01 326.369 Q2135.18 326.866 2135.59 327.247 Q2136 327.598 2136.29 327.832 Q2136.62 328.067 2137.32 328.272 Q2138.02 328.477 2138.32 328.564 Q2138.61 328.623 2139.43 328.799 Q2141.13 329.15 2141.89 329.355 Q2142.65 329.531 2143.64 330.028 Q2144.67 330.526 2145.43 331.317 Q2147.27 333.161 2147.27 335.708 Q2147.27 336.645 2146.95 337.787 Q2146.66 338.929 2145.81 340.363 Q2144.96 341.798 2143.67 342.94 Q2142.38 344.082 2140.16 344.872 Q2137.96 345.663 2135.21 345.663 Q2131.38 345.663 2129 344.053 Q2126.63 342.413 2126.63 339.836 Q2126.63 337.963 2127.66 336.938 Q2128.68 335.884 2130 335.884 Q2131 335.884 2131.61 336.44 Q2132.23 336.967 2132.23 337.963 Q2132.23 339.309 2131.14 340.334 Q2130.06 341.359 2128.45 341.154 Q2129.82 344.316 2135.27 344.316 Q2137.32 344.316 2138.9 343.789 Q2140.51 343.233 2141.39 342.472 Q2142.3 341.681 2142.88 340.715 Q2143.47 339.749 2143.64 339.017 Q2143.85 338.285 2143.85 337.728 Q2143.85 336.762 2143.47 336.03 Q2143.09 335.298 2142.56 334.888 Q2142.06 334.449 2141.1 334.098 Q2140.16 333.717 2139.49 333.571 Q2138.81 333.425 2137.61 333.19 Q2137.06 333.073 2136.7 333.015 Q2136.35 332.927 2135.62 332.693 Q2134.92 332.429 2134.42 332.166 Q2133.95 331.902 2133.34 331.434 Q2132.72 330.965 2132.34 330.409 Q2131.96 329.853 2131.7 329.033 Q2131.43 328.213 2131.43 327.247 Q2131.43 326.369 2131.7 325.315 Q2131.99 324.261 2132.72 323.031 Q2133.48 321.801 2134.57 320.806 Q2135.65 319.81 2137.47 319.166 Q2139.31 318.493 2141.56 318.493 Q2144.84 318.493 2146.78 320.015 Q2148.71 321.508 2148.71 323.646 Z" fill="#808080" fill-rule="evenodd" fill-opacity="1" /><path clip-path="url(#clip060)" d="M 0 0 M2154.47 329.999 Q2154.47 319.869 2158.24 311.7 Q2159.85 308.275 2162.11 305.405 Q2164.36 302.536 2165.85 301.277 Q2167.35 300.018 2167.76 300.018 Q2168.34 300.018 2168.37 300.604 Q2168.37 300.897 2167.58 301.629 Q2157.92 311.466 2157.95 329.999 Q2157.95 348.591 2167.35 358.047 Q2168.37 359.072 2168.37 359.394 Q2168.37 359.98 2167.76 359.98 Q2167.35 359.98 2165.91 358.779 Q2164.48 357.579 2162.25 354.827 Q2160.03 352.075 2158.42 348.708 Q2154.47 340.539 2154.47 329.999 Z" fill="#808080" fill-rule="evenodd" fill-opacity="1" /><path clip-path="url(#clip060)" d="M 0 0 M2207.35 322.445 Q2207.35 324.085 2206.32 325.022 Q2205.3 325.929 2204.13 325.929 Q2203.02 325.929 2202.43 325.285 Q2201.84 324.641 2201.84 323.821 Q2201.84 322.709 2202.66 321.743 Q2203.48 320.776 2204.71 320.572 Q2203.51 319.81 2201.73 319.81 Q2200.56 319.81 2199.53 320.425 Q2198.54 321.04 2197.92 321.83 Q2197.34 322.621 2196.81 323.763 Q2196.31 324.875 2196.11 325.549 Q2195.93 326.193 2195.78 326.896 L2193.73 335.093 Q2192.74 338.987 2192.74 340.363 Q2192.74 342.062 2193.56 343.203 Q2194.38 344.316 2196.02 344.316 Q2196.66 344.316 2197.39 344.14 Q2198.13 343.935 2199.06 343.408 Q2200.03 342.852 2200.88 342.032 Q2201.76 341.183 2202.61 339.749 Q2203.45 338.314 2204.01 336.47 Q2204.19 335.825 2204.77 335.825 Q2205.5 335.825 2205.5 336.411 Q2205.5 336.909 2205.09 337.963 Q2204.71 338.987 2203.86 340.334 Q2203.04 341.652 2201.96 342.852 Q2200.88 344.023 2199.27 344.843 Q2197.66 345.663 2195.9 345.663 Q2193.38 345.663 2191.71 344.316 Q2190.04 342.969 2189.43 341.095 Q2189.28 341.359 2189.08 341.71 Q2188.87 342.062 2188.26 342.852 Q2187.67 343.613 2187 344.199 Q2186.33 344.755 2185.27 345.194 Q2184.25 345.663 2183.14 345.663 Q2181.73 345.663 2180.47 345.253 Q2179.24 344.843 2178.36 343.906 Q2177.48 342.969 2177.48 341.681 Q2177.48 340.246 2178.45 339.251 Q2179.45 338.226 2180.79 338.226 Q2181.64 338.226 2182.32 338.724 Q2183.02 339.222 2183.02 340.305 Q2183.02 341.505 2182.2 342.413 Q2181.38 343.321 2180.21 343.555 Q2181.41 344.316 2183.19 344.316 Q2185.13 344.316 2186.65 342.618 Q2188.17 340.92 2188.9 338.08 Q2190.72 331.258 2191.42 328.213 Q2192.12 325.139 2192.12 323.821 Q2192.12 322.592 2191.8 321.743 Q2191.48 320.894 2190.92 320.513 Q2190.4 320.103 2189.9 319.957 Q2189.43 319.81 2188.9 319.81 Q2188.02 319.81 2187.03 320.162 Q2186.06 320.513 2184.89 321.333 Q2183.75 322.123 2182.67 323.763 Q2181.58 325.402 2180.85 327.657 Q2180.71 328.33 2180.06 328.33 Q2179.36 328.301 2179.36 327.715 Q2179.36 327.218 2179.74 326.193 Q2180.15 325.139 2180.97 323.821 Q2181.82 322.504 2182.9 321.333 Q2184.01 320.132 2185.62 319.313 Q2187.26 318.493 2189.02 318.493 Q2189.81 318.493 2190.57 318.668 Q2191.36 318.815 2192.3 319.254 Q2193.27 319.693 2194.11 320.659 Q2194.96 321.626 2195.49 323.031 Q2195.84 322.357 2196.31 321.713 Q2196.81 321.069 2197.57 320.279 Q2198.36 319.459 2199.44 318.991 Q2200.56 318.493 2201.79 318.493 Q2202.99 318.493 2204.16 318.815 Q2205.33 319.108 2206.32 320.074 Q2207.35 321.011 2207.35 322.445 Z" fill="#808080" fill-rule="evenodd" fill-opacity="1" /><path clip-path="url(#clip060)" d="M 0 0 M2211.43 359.394 Q2211.43 359.101 2212.2 358.369 Q2221.86 348.532 2221.86 329.999 Q2221.86 311.407 2212.58 302.009 Q2211.43 300.926 2211.43 300.604 Q2211.43 300.018 2212.02 300.018 Q2212.43 300.018 2213.86 301.219 Q2215.33 302.419 2217.52 305.171 Q2219.75 307.923 2221.39 311.29 Q2225.34 319.459 2225.34 329.999 Q2225.34 340.129 2221.56 348.298 Q2219.95 351.723 2217.7 354.593 Q2215.44 357.462 2213.95 358.721 Q2212.46 359.98 2212.02 359.98 Q2211.43 359.98 2211.43 359.394 Z" fill="#808080" fill-rule="evenodd" fill-opacity="1" /></svg>
