<?xml version="1.0" encoding="utf-8"?>
<svg xmlns="http://www.w3.org/2000/svg" xmlns:xlink="http://www.w3.org/1999/xlink" width="600" height="400" viewBox="0 0 2400 1600">
<defs>
  <clipPath id="clip820">
    <rect x="0" y="0" width="2400" height="1600"/>
  </clipPath>
</defs>
<path clip-path="url(#clip820)" d="
M0 1600 L2400 1600 L2400 0 L0 0  Z
  " fill="#ffffff" fill-rule="evenodd" fill-opacity="1"/>
<defs>
  <clipPath id="clip821">
    <rect x="480" y="0" width="1681" height="1600"/>
  </clipPath>
</defs>
<path clip-path="url(#clip820)" d="
M170.924 1482.13 L2352.76 1482.13 L2352.76 149.392 L170.924 149.392  Z
  " fill="#ffffff" fill-rule="evenodd" fill-opacity="1"/>
<defs>
  <clipPath id="clip822">
    <rect x="170" y="149" width="2183" height="1334"/>
  </clipPath>
</defs>
<polyline clip-path="url(#clip822)" style="stroke:#000000; stroke-width:2; stroke-opacity:0.1; fill:none" points="
  516.582,1482.13 516.582,149.392 
  "/>
<polyline clip-path="url(#clip822)" style="stroke:#000000; stroke-width:2; stroke-opacity:0.1; fill:none" points="
  871.467,1482.13 871.467,149.392 
  "/>
<polyline clip-path="url(#clip822)" style="stroke:#000000; stroke-width:2; stroke-opacity:0.1; fill:none" points="
  1226.35,1482.13 1226.35,149.392 
  "/>
<polyline clip-path="url(#clip822)" style="stroke:#000000; stroke-width:2; stroke-opacity:0.1; fill:none" points="
  1581.24,1482.13 1581.24,149.392 
  "/>
<polyline clip-path="url(#clip822)" style="stroke:#000000; stroke-width:2; stroke-opacity:0.1; fill:none" points="
  1936.12,1482.13 1936.12,149.392 
  "/>
<polyline clip-path="url(#clip822)" style="stroke:#000000; stroke-width:2; stroke-opacity:0.1; fill:none" points="
  2291.01,1482.13 2291.01,149.392 
  "/>
<polyline clip-path="url(#clip820)" style="stroke:#000000; stroke-width:4; stroke-opacity:1; fill:none" points="
  170.924,1482.13 2352.76,1482.13 
  "/>
<polyline clip-path="url(#clip820)" style="stroke:#000000; stroke-width:4; stroke-opacity:1; fill:none" points="
  516.582,1482.13 516.582,1466.14 
  "/>
<polyline clip-path="url(#clip820)" style="stroke:#000000; stroke-width:4; stroke-opacity:1; fill:none" points="
  871.467,1482.13 871.467,1466.14 
  "/>
<polyline clip-path="url(#clip820)" style="stroke:#000000; stroke-width:4; stroke-opacity:1; fill:none" points="
  1226.35,1482.13 1226.35,1466.14 
  "/>
<polyline clip-path="url(#clip820)" style="stroke:#000000; stroke-width:4; stroke-opacity:1; fill:none" points="
  1581.24,1482.13 1581.24,1466.14 
  "/>
<polyline clip-path="url(#clip820)" style="stroke:#000000; stroke-width:4; stroke-opacity:1; fill:none" points="
  1936.12,1482.13 1936.12,1466.14 
  "/>
<polyline clip-path="url(#clip820)" style="stroke:#000000; stroke-width:4; stroke-opacity:1; fill:none" points="
  2291.01,1482.13 2291.01,1466.14 
  "/>
<path clip-path="url(#clip820)" d="M 0 0 M505.644 1509.1 L526.295 1509.1 L526.295 1513.53 L510.462 1513.53 L510.462 1523.06 Q511.608 1522.67 512.754 1522.49 Q513.9 1522.28 515.045 1522.28 Q521.556 1522.28 525.358 1525.85 Q529.16 1529.42 529.16 1535.51 Q529.16 1541.79 525.254 1545.28 Q521.347 1548.74 514.238 1548.74 Q511.79 1548.74 509.238 1548.32 Q506.712 1547.91 504.004 1547.07 L504.004 1541.79 Q506.347 1543.06 508.847 1543.69 Q511.347 1544.31 514.134 1544.31 Q518.639 1544.31 521.269 1541.94 Q523.899 1539.57 523.899 1535.51 Q523.899 1531.45 521.269 1529.08 Q518.639 1526.71 514.134 1526.71 Q512.025 1526.71 509.915 1527.18 Q507.832 1527.65 505.644 1528.64 L505.644 1509.1 Z" fill="#bebebe" fill-rule="evenodd" fill-opacity="1" /><path clip-path="url(#clip820)" d="M 0 0 M845.451 1543.56 L854.045 1543.56 L854.045 1513.9 L844.696 1515.77 L844.696 1510.98 L853.993 1509.1 L859.253 1509.1 L859.253 1543.56 L867.847 1543.56 L867.847 1547.98 L845.451 1547.98 L845.451 1543.56 Z" fill="#bebebe" fill-rule="evenodd" fill-opacity="1" /><path clip-path="url(#clip820)" d="M 0 0 M884.8 1512.57 Q880.737 1512.57 878.68 1516.58 Q876.649 1520.56 876.649 1528.58 Q876.649 1536.58 878.68 1540.59 Q880.737 1544.57 884.8 1544.57 Q888.888 1544.57 890.92 1540.59 Q892.977 1536.58 892.977 1528.58 Q892.977 1520.56 890.92 1516.58 Q888.888 1512.57 884.8 1512.57 M884.8 1508.4 Q891.336 1508.4 894.774 1513.58 Q898.237 1518.74 898.237 1528.58 Q898.237 1538.4 894.774 1543.58 Q891.336 1548.74 884.8 1548.74 Q878.263 1548.74 874.8 1543.58 Q871.362 1538.4 871.362 1528.58 Q871.362 1518.74 874.8 1513.58 Q878.263 1508.4 884.8 1508.4 Z" fill="#bebebe" fill-rule="evenodd" fill-opacity="1" /><path clip-path="url(#clip820)" d="M 0 0 M1200.9 1543.56 L1209.49 1543.56 L1209.49 1513.9 L1200.14 1515.77 L1200.14 1510.98 L1209.44 1509.1 L1214.7 1509.1 L1214.7 1543.56 L1223.29 1543.56 L1223.29 1547.98 L1200.9 1547.98 L1200.9 1543.56 Z" fill="#bebebe" fill-rule="evenodd" fill-opacity="1" /><path clip-path="url(#clip820)" d="M 0 0 M1229.05 1509.1 L1249.7 1509.1 L1249.7 1513.53 L1233.86 1513.53 L1233.86 1523.06 Q1235.01 1522.67 1236.16 1522.49 Q1237.3 1522.28 1238.45 1522.28 Q1244.96 1522.28 1248.76 1525.85 Q1252.56 1529.42 1252.56 1535.51 Q1252.56 1541.79 1248.66 1545.28 Q1244.75 1548.74 1237.64 1548.74 Q1235.19 1548.74 1232.64 1548.32 Q1230.11 1547.91 1227.41 1547.07 L1227.41 1541.79 Q1229.75 1543.06 1232.25 1543.69 Q1234.75 1544.31 1237.54 1544.31 Q1242.04 1544.31 1244.67 1541.94 Q1247.3 1539.57 1247.3 1535.51 Q1247.3 1531.45 1244.67 1529.08 Q1242.04 1526.71 1237.54 1526.71 Q1235.43 1526.71 1233.32 1527.18 Q1231.23 1527.65 1229.05 1528.64 L1229.05 1509.1 Z" fill="#bebebe" fill-rule="evenodd" fill-opacity="1" /><path clip-path="url(#clip820)" d="M 0 0 M1560.03 1543.56 L1578.38 1543.56 L1578.38 1547.98 L1553.7 1547.98 L1553.7 1543.56 Q1556.69 1540.46 1561.85 1535.25 Q1567.03 1530.02 1568.36 1528.5 Q1570.88 1525.67 1571.87 1523.71 Q1572.89 1521.73 1572.89 1519.83 Q1572.89 1516.73 1570.7 1514.78 Q1568.54 1512.83 1565.05 1512.83 Q1562.58 1512.83 1559.82 1513.69 Q1557.08 1514.55 1553.96 1516.29 L1553.96 1510.98 Q1557.13 1509.7 1559.9 1509.05 Q1562.66 1508.4 1564.95 1508.4 Q1570.99 1508.4 1574.58 1511.42 Q1578.18 1514.44 1578.18 1519.49 Q1578.18 1521.89 1577.26 1524.05 Q1576.38 1526.19 1574.01 1529.1 Q1573.36 1529.86 1569.87 1533.48 Q1566.38 1537.07 1560.03 1543.56 Z" fill="#bebebe" fill-rule="evenodd" fill-opacity="1" /><path clip-path="url(#clip820)" d="M 0 0 M1595.34 1512.57 Q1591.28 1512.57 1589.22 1516.58 Q1587.19 1520.56 1587.19 1528.58 Q1587.19 1536.58 1589.22 1540.59 Q1591.28 1544.57 1595.34 1544.57 Q1599.43 1544.57 1601.46 1540.59 Q1603.51 1536.58 1603.51 1528.58 Q1603.51 1520.56 1601.46 1516.58 Q1599.43 1512.57 1595.34 1512.57 M1595.34 1508.4 Q1601.87 1508.4 1605.31 1513.58 Q1608.78 1518.74 1608.78 1528.58 Q1608.78 1538.4 1605.31 1543.58 Q1601.87 1548.74 1595.34 1548.74 Q1588.8 1548.74 1585.34 1543.58 Q1581.9 1538.4 1581.9 1528.58 Q1581.9 1518.74 1585.34 1513.58 Q1588.8 1508.4 1595.34 1508.4 Z" fill="#bebebe" fill-rule="evenodd" fill-opacity="1" /><path clip-path="url(#clip820)" d="M 0 0 M1915.47 1543.56 L1933.83 1543.56 L1933.83 1547.98 L1909.14 1547.98 L1909.14 1543.56 Q1912.14 1540.46 1917.29 1535.25 Q1922.48 1530.02 1923.8 1528.5 Q1926.33 1525.67 1927.32 1523.71 Q1928.33 1521.73 1928.33 1519.83 Q1928.33 1516.73 1926.15 1514.78 Q1923.99 1512.83 1920.5 1512.83 Q1918.02 1512.83 1915.26 1513.69 Q1912.53 1514.55 1909.4 1516.29 L1909.4 1510.98 Q1912.58 1509.7 1915.34 1509.05 Q1918.1 1508.4 1920.39 1508.4 Q1926.43 1508.4 1930.03 1511.42 Q1933.62 1514.44 1933.62 1519.49 Q1933.62 1521.89 1932.71 1524.05 Q1931.82 1526.19 1929.45 1529.1 Q1928.8 1529.86 1925.31 1533.48 Q1921.82 1537.07 1915.47 1543.56 Z" fill="#bebebe" fill-rule="evenodd" fill-opacity="1" /><path clip-path="url(#clip820)" d="M 0 0 M1939.58 1509.1 L1960.24 1509.1 L1960.24 1513.53 L1944.4 1513.53 L1944.4 1523.06 Q1945.55 1522.67 1946.69 1522.49 Q1947.84 1522.28 1948.99 1522.28 Q1955.5 1522.28 1959.3 1525.85 Q1963.1 1529.42 1963.1 1535.51 Q1963.1 1541.79 1959.19 1545.28 Q1955.29 1548.74 1948.18 1548.74 Q1945.73 1548.74 1943.18 1548.32 Q1940.65 1547.91 1937.94 1547.07 L1937.94 1541.79 Q1940.29 1543.06 1942.79 1543.69 Q1945.29 1544.31 1948.07 1544.31 Q1952.58 1544.31 1955.21 1541.94 Q1957.84 1539.57 1957.84 1535.51 Q1957.84 1531.45 1955.21 1529.08 Q1952.58 1526.71 1948.07 1526.71 Q1945.96 1526.71 1943.86 1527.18 Q1941.77 1527.65 1939.58 1528.64 L1939.58 1509.1 Z" fill="#bebebe" fill-rule="evenodd" fill-opacity="1" /><path clip-path="url(#clip820)" d="M 0 0 M2280.59 1527.02 Q2284.37 1527.83 2286.47 1530.38 Q2288.61 1532.93 2288.61 1536.68 Q2288.61 1542.44 2284.65 1545.59 Q2280.69 1548.74 2273.4 1548.74 Q2270.95 1548.74 2268.35 1548.24 Q2265.77 1547.78 2263.01 1546.81 L2263.01 1541.73 Q2265.2 1543.01 2267.8 1543.66 Q2270.41 1544.31 2273.25 1544.31 Q2278.19 1544.31 2280.77 1542.36 Q2283.38 1540.41 2283.38 1536.68 Q2283.38 1533.24 2280.95 1531.32 Q2278.56 1529.36 2274.26 1529.36 L2269.73 1529.36 L2269.73 1525.04 L2274.47 1525.04 Q2278.35 1525.04 2280.41 1523.5 Q2282.46 1521.94 2282.46 1519.03 Q2282.46 1516.03 2280.33 1514.44 Q2278.22 1512.83 2274.26 1512.83 Q2272.1 1512.83 2269.63 1513.3 Q2267.15 1513.77 2264.18 1514.75 L2264.18 1510.07 Q2267.18 1509.23 2269.78 1508.82 Q2272.41 1508.4 2274.73 1508.4 Q2280.72 1508.4 2284.21 1511.14 Q2287.7 1513.84 2287.7 1518.48 Q2287.7 1521.71 2285.85 1523.95 Q2284 1526.16 2280.59 1527.02 Z" fill="#bebebe" fill-rule="evenodd" fill-opacity="1" /><path clip-path="url(#clip820)" d="M 0 0 M2305.56 1512.57 Q2301.5 1512.57 2299.44 1516.58 Q2297.41 1520.56 2297.41 1528.58 Q2297.41 1536.58 2299.44 1540.59 Q2301.5 1544.57 2305.56 1544.57 Q2309.65 1544.57 2311.68 1540.59 Q2313.74 1536.58 2313.74 1528.58 Q2313.74 1520.56 2311.68 1516.58 Q2309.65 1512.57 2305.56 1512.57 M2305.56 1508.4 Q2312.1 1508.4 2315.54 1513.58 Q2319 1518.74 2319 1528.58 Q2319 1538.4 2315.54 1543.58 Q2312.1 1548.74 2305.56 1548.74 Q2299.03 1548.74 2295.56 1543.58 Q2292.13 1538.4 2292.13 1528.58 Q2292.13 1518.74 2295.56 1513.58 Q2299.03 1508.4 2305.56 1508.4 Z" fill="#bebebe" fill-rule="evenodd" fill-opacity="1" /><polyline clip-path="url(#clip822)" style="stroke:#000000; stroke-width:2; stroke-opacity:0.1; fill:none" points="
  170.924,1241.62 2352.76,1241.62 
  "/>
<polyline clip-path="url(#clip822)" style="stroke:#000000; stroke-width:2; stroke-opacity:0.1; fill:none" points="
  170.924,971.232 2352.76,971.232 
  "/>
<polyline clip-path="url(#clip822)" style="stroke:#000000; stroke-width:2; stroke-opacity:0.1; fill:none" points="
  170.924,700.846 2352.76,700.846 
  "/>
<polyline clip-path="url(#clip822)" style="stroke:#000000; stroke-width:2; stroke-opacity:0.1; fill:none" points="
  170.924,430.459 2352.76,430.459 
  "/>
<polyline clip-path="url(#clip822)" style="stroke:#000000; stroke-width:2; stroke-opacity:0.1; fill:none" points="
  170.924,160.072 2352.76,160.072 
  "/>
<polyline clip-path="url(#clip820)" style="stroke:#000000; stroke-width:4; stroke-opacity:1; fill:none" points="
  170.924,1482.13 170.924,149.392 
  "/>
<polyline clip-path="url(#clip820)" style="stroke:#000000; stroke-width:4; stroke-opacity:1; fill:none" points="
  170.924,1241.62 197.106,1241.62 
  "/>
<polyline clip-path="url(#clip820)" style="stroke:#000000; stroke-width:4; stroke-opacity:1; fill:none" points="
  170.924,971.232 197.106,971.232 
  "/>
<polyline clip-path="url(#clip820)" style="stroke:#000000; stroke-width:4; stroke-opacity:1; fill:none" points="
  170.924,700.846 197.106,700.846 
  "/>
<polyline clip-path="url(#clip820)" style="stroke:#000000; stroke-width:4; stroke-opacity:1; fill:none" points="
  170.924,430.459 197.106,430.459 
  "/>
<polyline clip-path="url(#clip820)" style="stroke:#000000; stroke-width:4; stroke-opacity:1; fill:none" points="
  170.924,160.072 197.106,160.072 
  "/>
<path clip-path="url(#clip820)" d="M 0 0 M86.1742 1256.63 L104.534 1256.63 L104.534 1261.06 L79.8461 1261.06 L79.8461 1256.63 Q82.8409 1253.53 87.9971 1248.32 Q93.1794 1243.09 94.5075 1241.58 Q97.0335 1238.74 98.0231 1236.79 Q99.0387 1234.81 99.0387 1232.91 Q99.0387 1229.81 96.8513 1227.86 Q94.6898 1225.9 91.2002 1225.9 Q88.7263 1225.9 85.9659 1226.76 Q83.2315 1227.62 80.1066 1229.37 L80.1066 1224.05 Q83.2836 1222.78 86.044 1222.13 Q88.8044 1221.48 91.0961 1221.48 Q97.1377 1221.48 100.731 1224.5 Q104.325 1227.52 104.325 1232.57 Q104.325 1234.97 103.414 1237.13 Q102.528 1239.26 100.159 1242.18 Q99.5075 1242.93 96.0179 1246.55 Q92.5284 1250.15 86.1742 1256.63 Z" fill="#bebebe" fill-rule="evenodd" fill-opacity="1" /><path clip-path="url(#clip820)" d="M 0 0 M121.487 1225.64 Q117.424 1225.64 115.367 1229.65 Q113.336 1233.64 113.336 1241.66 Q113.336 1249.65 115.367 1253.66 Q117.424 1257.65 121.487 1257.65 Q125.575 1257.65 127.606 1253.66 Q129.664 1249.65 129.664 1241.66 Q129.664 1233.64 127.606 1229.65 Q125.575 1225.64 121.487 1225.64 M121.487 1221.48 Q128.023 1221.48 131.46 1226.66 Q134.924 1231.81 134.924 1241.66 Q134.924 1251.48 131.46 1256.66 Q128.023 1261.81 121.487 1261.81 Q114.95 1261.81 111.487 1256.66 Q108.049 1251.48 108.049 1241.66 Q108.049 1231.81 111.487 1226.66 Q114.95 1221.48 121.487 1221.48 Z" fill="#bebebe" fill-rule="evenodd" fill-opacity="1" /><path clip-path="url(#clip820)" d="M 0 0 M93.7523 956.376 L80.4711 977.131 L93.7523 977.131 L93.7523 956.376 M92.3721 951.792 L98.9867 951.792 L98.9867 977.131 L104.534 977.131 L104.534 981.506 L98.9867 981.506 L98.9867 990.672 L93.7523 990.672 L93.7523 981.506 L76.2003 981.506 L76.2003 976.428 L92.3721 951.792 Z" fill="#bebebe" fill-rule="evenodd" fill-opacity="1" /><path clip-path="url(#clip820)" d="M 0 0 M121.487 955.256 Q117.424 955.256 115.367 959.266 Q113.336 963.251 113.336 971.271 Q113.336 979.266 115.367 983.277 Q117.424 987.261 121.487 987.261 Q125.575 987.261 127.606 983.277 Q129.664 979.266 129.664 971.271 Q129.664 963.251 127.606 959.266 Q125.575 955.256 121.487 955.256 M121.487 951.089 Q128.023 951.089 131.46 956.271 Q134.924 961.428 134.924 971.271 Q134.924 981.089 131.46 986.271 Q128.023 991.428 121.487 991.428 Q114.95 991.428 111.487 986.271 Q108.049 981.089 108.049 971.271 Q108.049 961.428 111.487 956.271 Q114.95 951.089 121.487 951.089 Z" fill="#bebebe" fill-rule="evenodd" fill-opacity="1" /><path clip-path="url(#clip820)" d="M 0 0 M91.5648 698.749 Q88.0232 698.749 85.9399 701.171 Q83.8826 703.593 83.8826 707.812 Q83.8826 712.004 85.9399 714.452 Q88.0232 716.874 91.5648 716.874 Q95.1065 716.874 97.1638 714.452 Q99.2471 712.004 99.2471 707.812 Q99.2471 703.593 97.1638 701.171 Q95.1065 698.749 91.5648 698.749 M102.007 682.265 L102.007 687.057 Q100.028 686.119 97.9971 685.624 Q95.9919 685.13 94.0127 685.13 Q88.8044 685.13 86.044 688.645 Q83.3097 692.161 82.919 699.27 Q84.4555 697.005 86.7732 695.807 Q89.0909 694.583 91.8773 694.583 Q97.7367 694.583 101.122 698.15 Q104.534 701.692 104.534 707.812 Q104.534 713.801 100.992 717.421 Q97.4502 721.041 91.5648 721.041 Q84.8201 721.041 81.2524 715.885 Q77.6847 710.702 77.6847 700.885 Q77.6847 691.666 82.0597 686.197 Q86.4346 680.703 93.8044 680.703 Q95.7836 680.703 97.7888 681.093 Q99.82 681.484 102.007 682.265 Z" fill="#bebebe" fill-rule="evenodd" fill-opacity="1" /><path clip-path="url(#clip820)" d="M 0 0 M121.487 684.869 Q117.424 684.869 115.367 688.88 Q113.336 692.864 113.336 700.885 Q113.336 708.879 115.367 712.89 Q117.424 716.874 121.487 716.874 Q125.575 716.874 127.606 712.89 Q129.664 708.879 129.664 700.885 Q129.664 692.864 127.606 688.88 Q125.575 684.869 121.487 684.869 M121.487 680.703 Q128.023 680.703 131.46 685.885 Q134.924 691.041 134.924 700.885 Q134.924 710.702 131.46 715.885 Q128.023 721.041 121.487 721.041 Q114.95 721.041 111.487 715.885 Q108.049 710.702 108.049 700.885 Q108.049 691.041 111.487 685.885 Q114.95 680.703 121.487 680.703 Z" fill="#bebebe" fill-rule="evenodd" fill-opacity="1" /><path clip-path="url(#clip820)" d="M 0 0 M91.2002 431.436 Q87.4503 431.436 85.2888 433.441 Q83.1534 435.446 83.1534 438.962 Q83.1534 442.477 85.2888 444.482 Q87.4503 446.488 91.2002 446.488 Q94.9502 446.488 97.1117 444.482 Q99.2731 442.451 99.2731 438.962 Q99.2731 435.446 97.1117 433.441 Q94.9763 431.436 91.2002 431.436 M85.9399 429.196 Q82.5545 428.363 80.6534 426.045 Q78.7784 423.727 78.7784 420.394 Q78.7784 415.733 82.0857 413.024 Q85.419 410.316 91.2002 410.316 Q97.0075 410.316 100.315 413.024 Q103.622 415.733 103.622 420.394 Q103.622 423.727 101.721 426.045 Q99.846 428.363 96.4867 429.196 Q100.289 430.081 102.398 432.66 Q104.534 435.238 104.534 438.962 Q104.534 444.613 101.07 447.633 Q97.6325 450.654 91.2002 450.654 Q84.768 450.654 81.3045 447.633 Q77.867 444.613 77.867 438.962 Q77.867 435.238 80.0024 432.66 Q82.1378 430.081 85.9399 429.196 M84.0128 420.889 Q84.0128 423.91 85.8878 425.602 Q87.7888 427.295 91.2002 427.295 Q94.5856 427.295 96.4867 425.602 Q98.4137 423.91 98.4137 420.889 Q98.4137 417.868 96.4867 416.175 Q94.5856 414.483 91.2002 414.483 Q87.7888 414.483 85.8878 416.175 Q84.0128 417.868 84.0128 420.889 Z" fill="#bebebe" fill-rule="evenodd" fill-opacity="1" /><path clip-path="url(#clip820)" d="M 0 0 M121.487 414.483 Q117.424 414.483 115.367 418.493 Q113.336 422.477 113.336 430.498 Q113.336 438.493 115.367 442.503 Q117.424 446.488 121.487 446.488 Q125.575 446.488 127.606 442.503 Q129.664 438.493 129.664 430.498 Q129.664 422.477 127.606 418.493 Q125.575 414.483 121.487 414.483 M121.487 410.316 Q128.023 410.316 131.46 415.498 Q134.924 420.654 134.924 430.498 Q134.924 440.316 131.46 445.498 Q128.023 450.654 121.487 450.654 Q114.95 450.654 111.487 445.498 Q108.049 440.316 108.049 430.498 Q108.049 420.654 111.487 415.498 Q114.95 410.316 121.487 410.316 Z" fill="#bebebe" fill-rule="evenodd" fill-opacity="1" /><path clip-path="url(#clip820)" d="M 0 0 M51.7473 175.085 L60.341 175.085 L60.341 145.424 L50.9921 147.299 L50.9921 142.507 L60.289 140.632 L65.5493 140.632 L65.5493 175.085 L74.143 175.085 L74.143 179.512 L51.7473 179.512 L51.7473 175.085 Z" fill="#bebebe" fill-rule="evenodd" fill-opacity="1" /><path clip-path="url(#clip820)" d="M 0 0 M91.0961 144.096 Q87.0336 144.096 84.9763 148.106 Q82.9451 152.091 82.9451 160.111 Q82.9451 168.106 84.9763 172.117 Q87.0336 176.101 91.0961 176.101 Q95.1846 176.101 97.2158 172.117 Q99.2731 168.106 99.2731 160.111 Q99.2731 152.091 97.2158 148.106 Q95.1846 144.096 91.0961 144.096 M91.0961 139.929 Q97.6325 139.929 101.07 145.112 Q104.534 150.268 104.534 160.111 Q104.534 169.929 101.07 175.111 Q97.6325 180.268 91.0961 180.268 Q84.5597 180.268 81.0961 175.111 Q77.6586 169.929 77.6586 160.111 Q77.6586 150.268 81.0961 145.112 Q84.5597 139.929 91.0961 139.929 Z" fill="#bebebe" fill-rule="evenodd" fill-opacity="1" /><path clip-path="url(#clip820)" d="M 0 0 M121.487 144.096 Q117.424 144.096 115.367 148.106 Q113.336 152.091 113.336 160.111 Q113.336 168.106 115.367 172.117 Q117.424 176.101 121.487 176.101 Q125.575 176.101 127.606 172.117 Q129.664 168.106 129.664 160.111 Q129.664 152.091 127.606 148.106 Q125.575 144.096 121.487 144.096 M121.487 139.929 Q128.023 139.929 131.46 145.112 Q134.924 150.268 134.924 160.111 Q134.924 169.929 131.46 175.111 Q128.023 180.268 121.487 180.268 Q114.95 180.268 111.487 175.111 Q108.049 169.929 108.049 160.111 Q108.049 150.268 111.487 145.112 Q114.95 139.929 121.487 139.929 Z" fill="#bebebe" fill-rule="evenodd" fill-opacity="1" /><path clip-path="url(#clip820)" d="M 0 0 M1041.12 20.1156 L1041.12 31.516 Q1034.47 28.3332 1028.57 26.7707 Q1022.66 25.2082 1017.17 25.2082 Q1007.62 25.2082 1002.41 28.9119 Q997.258 32.6156 997.258 39.4442 Q997.258 45.1734 1000.67 48.1247 Q1004.14 51.0182 1013.75 52.8122 L1020.81 54.259 Q1033.89 56.7474 1040.08 63.0552 Q1046.33 69.3052 1046.33 79.8375 Q1046.33 92.3953 1037.88 98.8768 Q1029.49 105.358 1013.23 105.358 Q1007.1 105.358 1000.15 103.969 Q993.265 102.58 985.858 99.8606 L985.858 87.8236 Q992.976 91.8166 999.804 93.8421 Q1006.63 95.8675 1013.23 95.8675 Q1023.24 95.8675 1028.68 91.9324 Q1034.12 87.9972 1034.12 80.7056 Q1034.12 74.3399 1030.19 70.7519 Q1026.31 67.164 1017.4 65.37 L1010.28 63.9811 Q997.2 61.377 991.355 55.8215 Q985.51 50.2659 985.51 40.3702 Q985.51 28.9119 993.554 22.3147 Q1001.66 15.7175 1015.83 15.7175 Q1021.91 15.7175 1028.22 16.817 Q1034.53 17.9166 1041.12 20.1156 Z" fill="#bebebe" fill-rule="evenodd" fill-opacity="1" /><path clip-path="url(#clip820)" d="M 0 0 M1112.94 68.6107 L1112.94 73.819 L1063.98 73.819 Q1064.68 84.8144 1070.58 90.6014 Q1076.54 96.3305 1087.13 96.3305 Q1093.26 96.3305 1098.99 94.8259 Q1104.78 93.3213 1110.45 90.312 L1110.45 100.381 Q1104.72 102.812 1098.7 104.085 Q1092.69 105.358 1086.49 105.358 Q1070.98 105.358 1061.9 96.3305 Q1052.87 87.3028 1052.87 71.9093 Q1052.87 55.9951 1061.44 46.678 Q1070.06 37.303 1084.64 37.303 Q1097.72 37.303 1105.3 45.7521 Q1112.94 54.1432 1112.94 68.6107 M1102.29 65.4858 Q1102.18 56.7474 1097.37 51.5391 Q1092.63 46.3308 1084.76 46.3308 Q1075.85 46.3308 1070.46 51.3655 Q1065.14 56.4002 1064.33 65.5436 L1102.29 65.4858 Z" fill="#bebebe" fill-rule="evenodd" fill-opacity="1" /><path clip-path="url(#clip820)" d="M 0 0 M1161.67 48.8192 Q1159.87 47.7775 1157.73 47.3146 Q1155.65 46.7937 1153.1 46.7937 Q1144.07 46.7937 1139.21 52.6965 Q1134.41 58.5414 1134.41 69.5367 L1134.41 103.68 L1123.7 103.68 L1123.7 38.8655 L1134.41 38.8655 L1134.41 48.9349 Q1137.77 43.0322 1143.15 40.1965 Q1148.53 37.303 1156.23 37.303 Q1157.33 37.303 1158.66 37.4767 Q1159.99 37.5924 1161.61 37.8817 L1161.67 48.8192 Z" fill="#bebebe" fill-rule="evenodd" fill-opacity="1" /><path clip-path="url(#clip820)" d="M 0 0 M1172.84 38.8655 L1183.48 38.8655 L1183.48 103.68 L1172.84 103.68 L1172.84 38.8655 M1172.84 13.6342 L1183.48 13.6342 L1183.48 27.1179 L1172.84 27.1179 L1172.84 13.6342 Z" fill="#bebebe" fill-rule="evenodd" fill-opacity="1" /><path clip-path="url(#clip820)" d="M 0 0 M1250.09 68.6107 L1250.09 73.819 L1201.13 73.819 Q1201.83 84.8144 1207.73 90.6014 Q1213.69 96.3305 1224.28 96.3305 Q1230.42 96.3305 1236.15 94.8259 Q1241.93 93.3213 1247.6 90.312 L1247.6 100.381 Q1241.87 102.812 1235.86 104.085 Q1229.84 105.358 1223.65 105.358 Q1208.14 105.358 1199.05 96.3305 Q1190.02 87.3028 1190.02 71.9093 Q1190.02 55.9951 1198.59 46.678 Q1207.21 37.303 1221.79 37.303 Q1234.87 37.303 1242.45 45.7521 Q1250.09 54.1432 1250.09 68.6107 M1239.44 65.4858 Q1239.33 56.7474 1234.53 51.5391 Q1229.78 46.3308 1221.91 46.3308 Q1213 46.3308 1207.62 51.3655 Q1202.29 56.4002 1201.48 65.5436 L1239.44 65.4858 Z" fill="#bebebe" fill-rule="evenodd" fill-opacity="1" /><path clip-path="url(#clip820)" d="M 0 0 M1309 8.88884 L1325.32 30.5322 L1316.47 30.5322 L1297.6 8.88884 L1309 8.88884 Z" fill="#bebebe" fill-rule="evenodd" fill-opacity="1" /><path clip-path="url(#clip820)" d="M 0 0 M1336.49 13.6342 L1347.14 13.6342 L1347.14 103.68 L1336.49 103.68 L1336.49 13.6342 Z" fill="#bebebe" fill-rule="evenodd" fill-opacity="1" /><path clip-path="url(#clip820)" d="M 0 0 M1358.31 38.8655 L1368.96 38.8655 L1368.96 103.68 L1358.31 103.68 L1358.31 38.8655 M1358.31 13.6342 L1368.96 13.6342 L1368.96 27.1179 L1358.31 27.1179 L1358.31 13.6342 Z" fill="#bebebe" fill-rule="evenodd" fill-opacity="1" /><path clip-path="url(#clip820)" d="M 0 0 M1434 64.5598 L1434 103.68 L1423.36 103.68 L1423.36 64.9071 Q1423.36 55.7057 1419.77 51.134 Q1416.18 46.5623 1409 46.5623 Q1400.38 46.5623 1395.4 52.0599 Q1390.43 57.5576 1390.43 67.0483 L1390.43 103.68 L1379.72 103.68 L1379.72 38.8655 L1390.43 38.8655 L1390.43 48.9349 Q1394.25 43.09 1399.4 40.1965 Q1404.61 37.303 1411.38 37.303 Q1422.55 37.303 1428.27 44.2474 Q1434 51.134 1434 64.5598 Z" fill="#bebebe" fill-rule="evenodd" fill-opacity="1" /><path clip-path="url(#clip820)" d="M 0 0 M1500.61 68.6107 L1500.61 73.819 L1451.65 73.819 Q1452.35 84.8144 1458.25 90.6014 Q1464.21 96.3305 1474.8 96.3305 Q1480.94 96.3305 1486.67 94.8259 Q1492.45 93.3213 1498.12 90.312 L1498.12 100.381 Q1492.39 102.812 1486.38 104.085 Q1480.36 105.358 1474.17 105.358 Q1458.66 105.358 1449.57 96.3305 Q1440.54 87.3028 1440.54 71.9093 Q1440.54 55.9951 1449.11 46.678 Q1457.73 37.303 1472.31 37.303 Q1485.39 37.303 1492.97 45.7521 Q1500.61 54.1432 1500.61 68.6107 M1489.96 65.4858 Q1489.85 56.7474 1485.04 51.5391 Q1480.3 46.3308 1472.43 46.3308 Q1463.52 46.3308 1458.14 51.3655 Q1452.81 56.4002 1452 65.5436 L1489.96 65.4858 Z" fill="#bebebe" fill-rule="evenodd" fill-opacity="1" /><path clip-path="url(#clip820)" d="M 0 0 M1521.85 8.88884 L1538.17 30.5322 L1529.32 30.5322 L1510.45 8.88884 L1521.85 8.88884 Z" fill="#bebebe" fill-rule="evenodd" fill-opacity="1" /><polyline clip-path="url(#clip822)" style="stroke:#0000ff; stroke-width:12; stroke-opacity:0.5; fill:none" stroke-dasharray="48, 24, 6, 24" points="
  232.674,1092.91 303.651,863.078 374.628,1255.14 445.605,1119.94 516.582,795.481 587.559,876.597 658.536,1052.35 729.513,1079.39 800.49,227.669 871.467,930.674 
  942.444,322.304 1013.42,308.785 1084.4,971.232 1155.37,998.271 1226.35,984.752 1297.33,187.111 1368.31,268.227 1439.28,1295.7 1510.26,1417.37 1581.24,1322.73 
  1652.21,971.232 1723.19,998.271 1794.17,1444.41 1865.14,552.133 1936.12,1417.37 2007.1,890.116 2078.08,957.713 2149.05,660.288 2220.03,349.343 2291.01,1390.33 
  
  "/>
<circle clip-path="url(#clip822)" cx="232.674" cy="1092.91" r="14" fill="#e69f00" fill-rule="evenodd" fill-opacity="1" stroke="#000000" stroke-opacity="1" stroke-width="3.2"/>
<circle clip-path="url(#clip822)" cx="303.651" cy="863.078" r="14" fill="#e69f00" fill-rule="evenodd" fill-opacity="1" stroke="#000000" stroke-opacity="1" stroke-width="3.2"/>
<circle clip-path="url(#clip822)" cx="374.628" cy="1255.14" r="14" fill="#e69f00" fill-rule="evenodd" fill-opacity="1" stroke="#000000" stroke-opacity="1" stroke-width="3.2"/>
<circle clip-path="url(#clip822)" cx="445.605" cy="1119.94" r="14" fill="#e69f00" fill-rule="evenodd" fill-opacity="1" stroke="#000000" stroke-opacity="1" stroke-width="3.2"/>
<circle clip-path="url(#clip822)" cx="516.582" cy="795.481" r="14" fill="#e69f00" fill-rule="evenodd" fill-opacity="1" stroke="#000000" stroke-opacity="1" stroke-width="3.2"/>
<circle clip-path="url(#clip822)" cx="587.559" cy="876.597" r="14" fill="#e69f00" fill-rule="evenodd" fill-opacity="1" stroke="#000000" stroke-opacity="1" stroke-width="3.2"/>
<circle clip-path="url(#clip822)" cx="658.536" cy="1052.35" r="14" fill="#e69f00" fill-rule="evenodd" fill-opacity="1" stroke="#000000" stroke-opacity="1" stroke-width="3.2"/>
<circle clip-path="url(#clip822)" cx="729.513" cy="1079.39" r="14" fill="#e69f00" fill-rule="evenodd" fill-opacity="1" stroke="#000000" stroke-opacity="1" stroke-width="3.2"/>
<circle clip-path="url(#clip822)" cx="800.49" cy="227.669" r="14" fill="#e69f00" fill-rule="evenodd" fill-opacity="1" stroke="#000000" stroke-opacity="1" stroke-width="3.2"/>
<circle clip-path="url(#clip822)" cx="871.467" cy="930.674" r="14" fill="#e69f00" fill-rule="evenodd" fill-opacity="1" stroke="#000000" stroke-opacity="1" stroke-width="3.2"/>
<circle clip-path="url(#clip822)" cx="942.444" cy="322.304" r="14" fill="#e69f00" fill-rule="evenodd" fill-opacity="1" stroke="#000000" stroke-opacity="1" stroke-width="3.2"/>
<circle clip-path="url(#clip822)" cx="1013.42" cy="308.785" r="14" fill="#e69f00" fill-rule="evenodd" fill-opacity="1" stroke="#000000" stroke-opacity="1" stroke-width="3.2"/>
<circle clip-path="url(#clip822)" cx="1084.4" cy="971.232" r="14" fill="#e69f00" fill-rule="evenodd" fill-opacity="1" stroke="#000000" stroke-opacity="1" stroke-width="3.2"/>
<circle clip-path="url(#clip822)" cx="1155.37" cy="998.271" r="14" fill="#e69f00" fill-rule="evenodd" fill-opacity="1" stroke="#000000" stroke-opacity="1" stroke-width="3.2"/>
<circle clip-path="url(#clip822)" cx="1226.35" cy="984.752" r="14" fill="#e69f00" fill-rule="evenodd" fill-opacity="1" stroke="#000000" stroke-opacity="1" stroke-width="3.2"/>
<circle clip-path="url(#clip822)" cx="1297.33" cy="187.111" r="14" fill="#e69f00" fill-rule="evenodd" fill-opacity="1" stroke="#000000" stroke-opacity="1" stroke-width="3.2"/>
<circle clip-path="url(#clip822)" cx="1368.31" cy="268.227" r="14" fill="#e69f00" fill-rule="evenodd" fill-opacity="1" stroke="#000000" stroke-opacity="1" stroke-width="3.2"/>
<circle clip-path="url(#clip822)" cx="1439.28" cy="1295.7" r="14" fill="#e69f00" fill-rule="evenodd" fill-opacity="1" stroke="#000000" stroke-opacity="1" stroke-width="3.2"/>
<circle clip-path="url(#clip822)" cx="1510.26" cy="1417.37" r="14" fill="#e69f00" fill-rule="evenodd" fill-opacity="1" stroke="#000000" stroke-opacity="1" stroke-width="3.2"/>
<circle clip-path="url(#clip822)" cx="1581.24" cy="1322.73" r="14" fill="#e69f00" fill-rule="evenodd" fill-opacity="1" stroke="#000000" stroke-opacity="1" stroke-width="3.2"/>
<circle clip-path="url(#clip822)" cx="1652.21" cy="971.232" r="14" fill="#e69f00" fill-rule="evenodd" fill-opacity="1" stroke="#000000" stroke-opacity="1" stroke-width="3.2"/>
<circle clip-path="url(#clip822)" cx="1723.19" cy="998.271" r="14" fill="#e69f00" fill-rule="evenodd" fill-opacity="1" stroke="#000000" stroke-opacity="1" stroke-width="3.2"/>
<circle clip-path="url(#clip822)" cx="1794.17" cy="1444.41" r="14" fill="#e69f00" fill-rule="evenodd" fill-opacity="1" stroke="#000000" stroke-opacity="1" stroke-width="3.2"/>
<circle clip-path="url(#clip822)" cx="1865.14" cy="552.133" r="14" fill="#e69f00" fill-rule="evenodd" fill-opacity="1" stroke="#000000" stroke-opacity="1" stroke-width="3.2"/>
<circle clip-path="url(#clip822)" cx="1936.12" cy="1417.37" r="14" fill="#e69f00" fill-rule="evenodd" fill-opacity="1" stroke="#000000" stroke-opacity="1" stroke-width="3.2"/>
<circle clip-path="url(#clip822)" cx="2007.1" cy="890.116" r="14" fill="#e69f00" fill-rule="evenodd" fill-opacity="1" stroke="#000000" stroke-opacity="1" stroke-width="3.2"/>
<circle clip-path="url(#clip822)" cx="2078.08" cy="957.713" r="14" fill="#e69f00" fill-rule="evenodd" fill-opacity="1" stroke="#000000" stroke-opacity="1" stroke-width="3.2"/>
<circle clip-path="url(#clip822)" cx="2149.05" cy="660.288" r="14" fill="#e69f00" fill-rule="evenodd" fill-opacity="1" stroke="#000000" stroke-opacity="1" stroke-width="3.2"/>
<circle clip-path="url(#clip822)" cx="2220.03" cy="349.343" r="14" fill="#e69f00" fill-rule="evenodd" fill-opacity="1" stroke="#000000" stroke-opacity="1" stroke-width="3.2"/>
<circle clip-path="url(#clip822)" cx="2291.01" cy="1390.33" r="14" fill="#e69f00" fill-rule="evenodd" fill-opacity="1" stroke="#000000" stroke-opacity="1" stroke-width="3.2"/>
<path clip-path="url(#clip820)" d="
M1986.58 314.777 L2280.03 314.777 L2280.03 193.817 L1986.58 193.817  Z
  " fill="#ffffff" fill-rule="evenodd" fill-opacity="1"/>
<polyline clip-path="url(#clip820)" style="stroke:#000000; stroke-width:4; stroke-opacity:1; fill:none" points="
  1986.58,314.777 2280.03,314.777 2280.03,193.817 1986.58,193.817 1986.58,314.777 
  "/>
<polyline clip-path="url(#clip820)" style="stroke:#0000ff; stroke-width:4; stroke-opacity:0.5; fill:none" stroke-dasharray="16, 8, 2, 8" points="
  2010.83,254.297 2156.28,254.297 
  "/>
<circle clip-path="url(#clip820)" cx="2083.55" cy="254.297" r="23" fill="#e69f00" fill-rule="evenodd" fill-opacity="1" stroke="#000000" stroke-opacity="1" stroke-width="5.12"/>
<path clip-path="url(#clip820)" d="M 0 0 M2194.37 273.984 Q2192.56 278.614 2190.85 280.026 Q2189.14 281.438 2186.27 281.438 L2182.86 281.438 L2182.86 277.873 L2185.36 277.873 Q2187.12 277.873 2188.09 277.04 Q2189.07 276.206 2190.25 273.104 L2191.01 271.16 L2180.52 245.651 L2185.04 245.651 L2193.14 265.929 L2201.24 245.651 L2205.76 245.651 L2194.37 273.984 Z" fill="#bebebe" fill-rule="evenodd" fill-opacity="1" /><path clip-path="url(#clip820)" d="M 0 0 M2211.64 267.641 L2219.27 267.641 L2219.27 241.276 L2210.96 242.943 L2210.96 238.683 L2219.23 237.017 L2223.9 237.017 L2223.9 267.641 L2231.54 267.641 L2231.54 271.577 L2211.64 271.577 L2211.64 267.641 Z" fill="#bebebe" fill-rule="evenodd" fill-opacity="1" /></svg>
