<?xml version="1.0" encoding="utf-8"?>
<svg xmlns="http://www.w3.org/2000/svg" xmlns:xlink="http://www.w3.org/1999/xlink" width="600" height="400" viewBox="0 0 2400 1600">
<defs>
  <clipPath id="clip830">
    <rect x="0" y="0" width="2400" height="1600"/>
  </clipPath>
</defs>
<path clip-path="url(#clip830)" d="
M0 1600 L2400 1600 L2400 0 L0 0  Z
  " fill="#ffffff" fill-rule="evenodd" fill-opacity="1"/>
<defs>
  <clipPath id="clip831">
    <rect x="480" y="0" width="1681" height="1600"/>
  </clipPath>
</defs>
<path clip-path="url(#clip830)" d="
M166.205 1486.45 L2352.76 1486.45 L2352.76 123.472 L166.205 123.472  Z
  " fill="#ffffff" fill-rule="evenodd" fill-opacity="1"/>
<defs>
  <clipPath id="clip832">
    <rect x="166" y="123" width="2188" height="1364"/>
  </clipPath>
</defs>
<polyline clip-path="url(#clip832)" style="stroke:#000000; stroke-width:2; stroke-opacity:0.1; fill:none" points="
  798.58,1486.45 798.58,123.472 
  "/>
<polyline clip-path="url(#clip832)" style="stroke:#000000; stroke-width:2; stroke-opacity:0.1; fill:none" points="
  1822.8,1486.45 1822.8,123.472 
  "/>
<polyline clip-path="url(#clip830)" style="stroke:#000000; stroke-width:4; stroke-opacity:1; fill:none" points="
  166.205,1486.45 2352.76,1486.45 
  "/>
<polyline clip-path="url(#clip830)" style="stroke:#000000; stroke-width:4; stroke-opacity:1; fill:none" points="
  798.58,1486.45 798.58,1470.09 
  "/>
<polyline clip-path="url(#clip830)" style="stroke:#000000; stroke-width:4; stroke-opacity:1; fill:none" points="
  1822.8,1486.45 1822.8,1470.09 
  "/>
<path clip-path="url(#clip830)" d="M 0 0 M749.969 1547.12 L736.775 1512.56 L741.659 1512.56 L752.608 1541.66 L763.58 1512.56 L768.441 1512.56 L755.27 1547.12 L749.969 1547.12 Z" fill="#000000" fill-rule="evenodd" fill-opacity="1" /><path clip-path="url(#clip830)" d="M 0 0 M781.011 1534.09 Q775.849 1534.09 773.858 1535.27 Q771.867 1536.45 771.867 1539.3 Q771.867 1541.56 773.349 1542.91 Q774.853 1544.23 777.423 1544.23 Q780.964 1544.23 783.094 1541.73 Q785.247 1539.2 785.247 1535.04 L785.247 1534.09 L781.011 1534.09 M789.506 1532.33 L789.506 1547.12 L785.247 1547.12 L785.247 1543.18 Q783.789 1545.55 781.613 1546.68 Q779.437 1547.79 776.289 1547.79 Q772.307 1547.79 769.946 1545.57 Q767.608 1543.32 767.608 1539.57 Q767.608 1535.2 770.525 1532.98 Q773.465 1530.75 779.275 1530.75 L785.247 1530.75 L785.247 1530.34 Q785.247 1527.4 783.302 1525.8 Q781.381 1524.18 777.886 1524.18 Q775.664 1524.18 773.557 1524.71 Q771.451 1525.24 769.506 1526.31 L769.506 1522.37 Q771.844 1521.47 774.043 1521.03 Q776.242 1520.57 778.326 1520.57 Q783.951 1520.57 786.728 1523.49 Q789.506 1526.4 789.506 1532.33 Z" fill="#000000" fill-rule="evenodd" fill-opacity="1" /><path clip-path="url(#clip830)" d="M 0 0 M808.997 1525.18 Q808.279 1524.76 807.423 1524.57 Q806.589 1524.37 805.571 1524.37 Q801.96 1524.37 800.015 1526.73 Q798.094 1529.06 798.094 1533.46 L798.094 1547.12 L793.812 1547.12 L793.812 1521.19 L798.094 1521.19 L798.094 1525.22 Q799.437 1522.86 801.589 1521.73 Q803.742 1520.57 806.821 1520.57 Q807.261 1520.57 807.793 1520.64 Q808.325 1520.68 808.974 1520.8 L808.997 1525.18 Z" fill="#000000" fill-rule="evenodd" fill-opacity="1" /><path clip-path="url(#clip830)" d="M 0 0 M822.469 1524.18 Q819.043 1524.18 817.052 1526.87 Q815.062 1529.53 815.062 1534.18 Q815.062 1538.83 817.029 1541.52 Q819.02 1544.18 822.469 1544.18 Q825.872 1544.18 827.862 1541.49 Q829.853 1538.81 829.853 1534.18 Q829.853 1529.57 827.862 1526.89 Q825.872 1524.18 822.469 1524.18 M822.469 1520.57 Q828.024 1520.57 831.196 1524.18 Q834.367 1527.79 834.367 1534.18 Q834.367 1540.55 831.196 1544.18 Q828.024 1547.79 822.469 1547.79 Q816.89 1547.79 813.719 1544.18 Q810.571 1540.55 810.571 1534.18 Q810.571 1527.79 813.719 1524.18 Q816.89 1520.57 822.469 1520.57 M825.686 1509.2 L830.293 1509.2 L822.747 1517.91 L819.205 1517.91 L825.686 1509.2 Z" fill="#000000" fill-rule="evenodd" fill-opacity="1" /><path clip-path="url(#clip830)" d="M 0 0 M860.385 1531.47 L860.385 1547.12 L856.126 1547.12 L856.126 1531.61 Q856.126 1527.93 854.691 1526.1 Q853.256 1524.27 850.385 1524.27 Q846.936 1524.27 844.946 1526.47 Q842.955 1528.67 842.955 1532.47 L842.955 1547.12 L838.673 1547.12 L838.673 1521.19 L842.955 1521.19 L842.955 1525.22 Q844.483 1522.88 846.543 1521.73 Q848.626 1520.57 851.334 1520.57 Q855.802 1520.57 858.094 1523.35 Q860.385 1526.1 860.385 1531.47 Z" fill="#000000" fill-rule="evenodd" fill-opacity="1" /><path clip-path="url(#clip830)" d="M 0 0 M1766.69 1512.56 L1773.66 1512.56 L1782.48 1536.08 L1791.34 1512.56 L1798.31 1512.56 L1798.31 1547.12 L1793.75 1547.12 L1793.75 1516.77 L1784.84 1540.48 L1780.14 1540.48 L1771.23 1516.77 L1771.23 1547.12 L1766.69 1547.12 L1766.69 1512.56 Z" fill="#000000" fill-rule="evenodd" fill-opacity="1" /><path clip-path="url(#clip830)" d="M 0 0 M1802.34 1536.89 L1802.34 1521.19 L1806.6 1521.19 L1806.6 1536.73 Q1806.6 1540.41 1808.03 1542.26 Q1809.47 1544.09 1812.34 1544.09 Q1815.79 1544.09 1817.78 1541.89 Q1819.79 1539.69 1819.79 1535.89 L1819.79 1521.19 L1824.05 1521.19 L1824.05 1547.12 L1819.79 1547.12 L1819.79 1543.14 Q1818.24 1545.5 1816.18 1546.66 Q1814.15 1547.79 1811.44 1547.79 Q1806.97 1547.79 1804.65 1545.01 Q1802.34 1542.24 1802.34 1536.89 M1813.06 1520.57 L1813.06 1520.57 Z" fill="#000000" fill-rule="evenodd" fill-opacity="1" /><path clip-path="url(#clip830)" d="M 0 0 M1828.52 1521.19 L1832.78 1521.19 L1832.78 1547.58 Q1832.78 1552.54 1830.88 1554.76 Q1829.01 1556.98 1824.82 1556.98 L1823.2 1556.98 L1823.2 1553.37 L1824.33 1553.37 Q1826.76 1553.37 1827.64 1552.24 Q1828.52 1551.12 1828.52 1547.58 L1828.52 1521.19 M1828.52 1511.1 L1832.78 1511.1 L1832.78 1516.5 L1828.52 1516.5 L1828.52 1511.1 Z" fill="#000000" fill-rule="evenodd" fill-opacity="1" /><path clip-path="url(#clip830)" d="M 0 0 M1859.42 1533.09 L1859.42 1535.18 L1839.84 1535.18 Q1840.12 1539.57 1842.48 1541.89 Q1844.86 1544.18 1849.1 1544.18 Q1851.55 1544.18 1853.84 1543.58 Q1856.16 1542.98 1858.43 1541.77 L1858.43 1545.8 Q1856.14 1546.77 1853.73 1547.28 Q1851.32 1547.79 1848.84 1547.79 Q1842.64 1547.79 1839.01 1544.18 Q1835.4 1540.57 1835.4 1534.41 Q1835.4 1528.05 1838.82 1524.32 Q1842.27 1520.57 1848.1 1520.57 Q1853.33 1520.57 1856.37 1523.95 Q1859.42 1527.31 1859.42 1533.09 M1855.16 1531.84 Q1855.12 1528.35 1853.2 1526.26 Q1851.3 1524.18 1848.15 1524.18 Q1844.58 1524.18 1842.43 1526.19 Q1840.3 1528.21 1839.98 1531.87 L1855.16 1531.84 Z" fill="#000000" fill-rule="evenodd" fill-opacity="1" /><path clip-path="url(#clip830)" d="M 0 0 M1878.91 1525.18 Q1878.2 1524.76 1877.34 1524.57 Q1876.51 1524.37 1875.49 1524.37 Q1871.88 1524.37 1869.93 1526.73 Q1868.01 1529.06 1868.01 1533.46 L1868.01 1547.12 L1863.73 1547.12 L1863.73 1521.19 L1868.01 1521.19 L1868.01 1525.22 Q1869.35 1522.86 1871.51 1521.73 Q1873.66 1520.57 1876.74 1520.57 Q1877.18 1520.57 1877.71 1520.64 Q1878.24 1520.68 1878.89 1520.8 L1878.91 1525.18 Z" fill="#000000" fill-rule="evenodd" fill-opacity="1" /><polyline clip-path="url(#clip832)" style="stroke:#000000; stroke-width:2; stroke-opacity:0.1; fill:none" points="
  166.205,1447.87 2352.76,1447.87 
  "/>
<polyline clip-path="url(#clip832)" style="stroke:#000000; stroke-width:2; stroke-opacity:0.1; fill:none" points="
  166.205,1097.51 2352.76,1097.51 
  "/>
<polyline clip-path="url(#clip832)" style="stroke:#000000; stroke-width:2; stroke-opacity:0.1; fill:none" points="
  166.205,747.15 2352.76,747.15 
  "/>
<polyline clip-path="url(#clip832)" style="stroke:#000000; stroke-width:2; stroke-opacity:0.1; fill:none" points="
  166.205,396.789 2352.76,396.789 
  "/>
<polyline clip-path="url(#clip830)" style="stroke:#000000; stroke-width:4; stroke-opacity:1; fill:none" points="
  166.205,1486.45 166.205,123.472 
  "/>
<polyline clip-path="url(#clip830)" style="stroke:#000000; stroke-width:4; stroke-opacity:1; fill:none" points="
  166.205,1447.87 192.443,1447.87 
  "/>
<polyline clip-path="url(#clip830)" style="stroke:#000000; stroke-width:4; stroke-opacity:1; fill:none" points="
  166.205,1097.51 192.443,1097.51 
  "/>
<polyline clip-path="url(#clip830)" style="stroke:#000000; stroke-width:4; stroke-opacity:1; fill:none" points="
  166.205,747.15 192.443,747.15 
  "/>
<polyline clip-path="url(#clip830)" style="stroke:#000000; stroke-width:4; stroke-opacity:1; fill:none" points="
  166.205,396.789 192.443,396.789 
  "/>
<path clip-path="url(#clip830)" d="M 0 0 M118.26 1433.67 Q114.649 1433.67 112.82 1437.24 Q111.015 1440.78 111.015 1447.91 Q111.015 1455.01 112.82 1458.58 Q114.649 1462.12 118.26 1462.12 Q121.895 1462.12 123.7 1458.58 Q125.529 1455.01 125.529 1447.91 Q125.529 1440.78 123.7 1437.24 Q121.895 1433.67 118.26 1433.67 M118.26 1429.97 Q124.07 1429.97 127.126 1434.57 Q130.205 1439.16 130.205 1447.91 Q130.205 1456.63 127.126 1461.24 Q124.07 1465.82 118.26 1465.82 Q112.45 1465.82 109.371 1461.24 Q106.316 1456.63 106.316 1447.91 Q106.316 1439.16 109.371 1434.57 Q112.45 1429.97 118.26 1429.97 Z" fill="#000000" fill-rule="evenodd" fill-opacity="1" /><path clip-path="url(#clip830)" d="M 0 0 M59.8578 1110.86 L76.1772 1110.86 L76.1772 1114.79 L54.2328 1114.79 L54.2328 1110.86 Q56.8949 1108.1 61.4782 1103.47 Q66.0846 1098.82 67.2652 1097.48 Q69.5105 1094.95 70.3902 1093.22 Q71.2929 1091.46 71.2929 1089.77 Q71.2929 1087.01 69.3485 1085.28 Q67.4272 1083.54 64.3254 1083.54 Q62.1263 1083.54 59.6726 1084.31 Q57.2421 1085.07 54.4643 1086.62 L54.4643 1081.9 Q57.2884 1080.76 59.7421 1080.19 Q62.1958 1079.61 64.2328 1079.61 Q69.6031 1079.61 72.7976 1082.29 Q75.992 1084.98 75.992 1089.47 Q75.992 1091.6 75.1818 1093.52 Q74.3948 1095.42 72.2883 1098.01 Q71.7096 1098.68 68.6078 1101.9 Q65.5059 1105.09 59.8578 1110.86 Z" fill="#000000" fill-rule="evenodd" fill-opacity="1" /><path clip-path="url(#clip830)" d="M 0 0 M91.2465 1083.31 Q87.6354 1083.31 85.8068 1086.88 Q84.0012 1090.42 84.0012 1097.55 Q84.0012 1104.65 85.8068 1108.22 Q87.6354 1111.76 91.2465 1111.76 Q94.8808 1111.76 96.6863 1108.22 Q98.515 1104.65 98.515 1097.55 Q98.515 1090.42 96.6863 1086.88 Q94.8808 1083.31 91.2465 1083.31 M91.2465 1079.61 Q97.0567 1079.61 100.112 1084.21 Q103.191 1088.8 103.191 1097.55 Q103.191 1106.27 100.112 1110.88 Q97.0567 1115.46 91.2465 1115.46 Q85.4364 1115.46 82.3577 1110.88 Q79.3022 1106.27 79.3022 1097.55 Q79.3022 1088.8 82.3577 1084.21 Q85.4364 1079.61 91.2465 1079.61 Z" fill="#000000" fill-rule="evenodd" fill-opacity="1" /><path clip-path="url(#clip830)" d="M 0 0 M118.26 1083.31 Q114.649 1083.31 112.82 1086.88 Q111.015 1090.42 111.015 1097.55 Q111.015 1104.65 112.82 1108.22 Q114.649 1111.76 118.26 1111.76 Q121.895 1111.76 123.7 1108.22 Q125.529 1104.65 125.529 1097.55 Q125.529 1090.42 123.7 1086.88 Q121.895 1083.31 118.26 1083.31 M118.26 1079.61 Q124.07 1079.61 127.126 1084.21 Q130.205 1088.8 130.205 1097.55 Q130.205 1106.27 127.126 1110.88 Q124.07 1115.46 118.26 1115.46 Q112.45 1115.46 109.371 1110.88 Q106.316 1106.27 106.316 1097.55 Q106.316 1088.8 109.371 1084.21 Q112.45 1079.61 118.26 1079.61 Z" fill="#000000" fill-rule="evenodd" fill-opacity="1" /><path clip-path="url(#clip830)" d="M 0 0 M66.5939 733.944 L54.7884 752.393 L66.5939 752.393 L66.5939 733.944 M65.367 729.87 L71.2466 729.87 L71.2466 752.393 L76.1772 752.393 L76.1772 756.282 L71.2466 756.282 L71.2466 764.43 L66.5939 764.43 L66.5939 756.282 L50.9921 756.282 L50.9921 751.768 L65.367 729.87 Z" fill="#000000" fill-rule="evenodd" fill-opacity="1" /><path clip-path="url(#clip830)" d="M 0 0 M91.2465 732.949 Q87.6354 732.949 85.8068 736.514 Q84.0012 740.056 84.0012 747.185 Q84.0012 754.292 85.8068 757.856 Q87.6354 761.398 91.2465 761.398 Q94.8808 761.398 96.6863 757.856 Q98.515 754.292 98.515 747.185 Q98.515 740.056 96.6863 736.514 Q94.8808 732.949 91.2465 732.949 M91.2465 729.245 Q97.0567 729.245 100.112 733.852 Q103.191 738.435 103.191 747.185 Q103.191 755.912 100.112 760.518 Q97.0567 765.102 91.2465 765.102 Q85.4364 765.102 82.3577 760.518 Q79.3022 755.912 79.3022 747.185 Q79.3022 738.435 82.3577 733.852 Q85.4364 729.245 91.2465 729.245 Z" fill="#000000" fill-rule="evenodd" fill-opacity="1" /><path clip-path="url(#clip830)" d="M 0 0 M118.26 732.949 Q114.649 732.949 112.82 736.514 Q111.015 740.056 111.015 747.185 Q111.015 754.292 112.82 757.856 Q114.649 761.398 118.26 761.398 Q121.895 761.398 123.7 757.856 Q125.529 754.292 125.529 747.185 Q125.529 740.056 123.7 736.514 Q121.895 732.949 118.26 732.949 M118.26 729.245 Q124.07 729.245 127.126 733.852 Q130.205 738.435 130.205 747.185 Q130.205 755.912 127.126 760.518 Q124.07 765.102 118.26 765.102 Q112.45 765.102 109.371 760.518 Q106.316 755.912 106.316 747.185 Q106.316 738.435 109.371 733.852 Q112.45 729.245 118.26 729.245 Z" fill="#000000" fill-rule="evenodd" fill-opacity="1" /><path clip-path="url(#clip830)" d="M 0 0 M64.6495 394.926 Q61.5013 394.926 59.6495 397.078 Q57.8208 399.231 57.8208 402.981 Q57.8208 406.708 59.6495 408.884 Q61.5013 411.037 64.6495 411.037 Q67.7976 411.037 69.6263 408.884 Q71.4781 406.708 71.4781 402.981 Q71.4781 399.231 69.6263 397.078 Q67.7976 394.926 64.6495 394.926 M73.9318 380.273 L73.9318 384.532 Q72.1726 383.699 70.367 383.259 Q68.5846 382.819 66.8254 382.819 Q62.1958 382.819 59.7421 385.944 Q57.3115 389.069 56.9643 395.389 Q58.33 393.375 60.3902 392.31 Q62.4504 391.222 64.9272 391.222 Q70.1355 391.222 73.1448 394.393 Q76.1772 397.541 76.1772 402.981 Q76.1772 408.305 73.029 411.523 Q69.8809 414.74 64.6495 414.74 Q58.6541 414.74 55.4828 410.157 Q52.3116 405.551 52.3116 396.824 Q52.3116 388.629 56.2004 383.768 Q60.0893 378.884 66.6402 378.884 Q68.3994 378.884 70.1818 379.231 Q71.9874 379.578 73.9318 380.273 Z" fill="#000000" fill-rule="evenodd" fill-opacity="1" /><path clip-path="url(#clip830)" d="M 0 0 M91.2465 382.588 Q87.6354 382.588 85.8068 386.153 Q84.0012 389.694 84.0012 396.824 Q84.0012 403.93 85.8068 407.495 Q87.6354 411.037 91.2465 411.037 Q94.8808 411.037 96.6863 407.495 Q98.515 403.93 98.515 396.824 Q98.515 389.694 96.6863 386.153 Q94.8808 382.588 91.2465 382.588 M91.2465 378.884 Q97.0567 378.884 100.112 383.49 Q103.191 388.074 103.191 396.824 Q103.191 405.551 100.112 410.157 Q97.0567 414.74 91.2465 414.74 Q85.4364 414.74 82.3577 410.157 Q79.3022 405.551 79.3022 396.824 Q79.3022 388.074 82.3577 383.49 Q85.4364 378.884 91.2465 378.884 Z" fill="#000000" fill-rule="evenodd" fill-opacity="1" /><path clip-path="url(#clip830)" d="M 0 0 M118.26 382.588 Q114.649 382.588 112.82 386.153 Q111.015 389.694 111.015 396.824 Q111.015 403.93 112.82 407.495 Q114.649 411.037 118.26 411.037 Q121.895 411.037 123.7 407.495 Q125.529 403.93 125.529 396.824 Q125.529 389.694 123.7 386.153 Q121.895 382.588 118.26 382.588 M118.26 378.884 Q124.07 378.884 127.126 383.49 Q130.205 388.074 130.205 396.824 Q130.205 405.551 127.126 410.157 Q124.07 414.74 118.26 414.74 Q112.45 414.74 109.371 410.157 Q106.316 405.551 106.316 396.824 Q106.316 388.074 109.371 383.49 Q112.45 378.884 118.26 378.884 Z" fill="#000000" fill-rule="evenodd" fill-opacity="1" /><path clip-path="url(#clip830)" d="M 0 0 M923.498 12.096 L934.517 12.096 L961.334 62.6918 L961.334 12.096 L969.274 12.096 L969.274 72.576 L958.255 72.576 L931.438 21.9802 L931.438 72.576 L923.498 72.576 L923.498 12.096 Z" fill="#000000" fill-rule="evenodd" fill-opacity="1" /><path clip-path="url(#clip830)" d="M 0 0 M994.673 32.4315 Q988.677 32.4315 985.194 37.1306 Q981.71 41.7891 981.71 49.9314 Q981.71 58.0738 985.153 62.7728 Q988.637 67.4314 994.673 67.4314 Q1000.63 67.4314 1004.11 62.7323 Q1007.6 58.0333 1007.6 49.9314 Q1007.6 41.8701 1004.11 37.1711 Q1000.63 32.4315 994.673 32.4315 M994.673 26.1121 Q1004.39 26.1121 1009.94 32.4315 Q1015.49 38.7509 1015.49 49.9314 Q1015.49 61.0714 1009.94 67.4314 Q1004.39 73.7508 994.673 73.7508 Q984.91 73.7508 979.36 67.4314 Q973.851 61.0714 973.851 49.9314 Q973.851 38.7509 979.36 32.4315 Q984.91 26.1121 994.673 26.1121 Z" fill="#000000" fill-rule="evenodd" fill-opacity="1" /><path clip-path="url(#clip830)" d="M 0 0 M1086.26 14.0809 L1086.26 22.0612 Q1081.61 19.8332 1077.47 18.7395 Q1073.34 17.6457 1069.49 17.6457 Q1062.81 17.6457 1059.16 20.2383 Q1055.56 22.8309 1055.56 27.611 Q1055.56 31.6214 1057.95 33.6873 Q1060.38 35.7128 1067.1 36.9686 L1072.04 37.9813 Q1081.2 39.7232 1085.53 44.1387 Q1089.91 48.5136 1089.91 55.8863 Q1089.91 64.6767 1084 69.2137 Q1078.12 73.7508 1066.74 73.7508 Q1062.44 73.7508 1057.58 72.7785 Q1052.76 71.8063 1047.58 69.9024 L1047.58 61.4765 Q1052.56 64.2716 1057.34 65.6895 Q1062.12 67.1073 1066.74 67.1073 Q1073.75 67.1073 1077.55 64.3527 Q1081.36 61.598 1081.36 56.4939 Q1081.36 52.0379 1078.61 49.5264 Q1075.89 47.0148 1069.65 45.759 L1064.67 44.7868 Q1055.52 42.9639 1051.43 39.075 Q1047.33 35.1862 1047.33 28.2591 Q1047.33 20.2383 1052.97 15.6203 Q1058.64 11.0023 1068.56 11.0023 Q1072.81 11.0023 1077.23 11.7719 Q1081.65 12.5416 1086.26 14.0809 Z" fill="#000000" fill-rule="evenodd" fill-opacity="1" /><path clip-path="url(#clip830)" d="M 0 0 M1115.31 32.4315 Q1109.31 32.4315 1105.83 37.1306 Q1102.35 41.7891 1102.35 49.9314 Q1102.35 58.0738 1105.79 62.7728 Q1109.27 67.4314 1115.31 67.4314 Q1121.26 67.4314 1124.75 62.7323 Q1128.23 58.0333 1128.23 49.9314 Q1128.23 41.8701 1124.75 37.1711 Q1121.26 32.4315 1115.31 32.4315 M1115.31 26.1121 Q1125.03 26.1121 1130.58 32.4315 Q1136.13 38.7509 1136.13 49.9314 Q1136.13 61.0714 1130.58 67.4314 Q1125.03 73.7508 1115.31 73.7508 Q1105.55 73.7508 1100 67.4314 Q1094.49 61.0714 1094.49 49.9314 Q1094.49 38.7509 1100 32.4315 Q1105.55 26.1121 1115.31 26.1121 Z" fill="#000000" fill-rule="evenodd" fill-opacity="1" /><path clip-path="url(#clip830)" d="M 0 0 M1176.52 49.9314 Q1176.52 41.7081 1173.12 37.0496 Q1169.75 32.3505 1163.84 32.3505 Q1157.92 32.3505 1154.52 37.0496 Q1151.16 41.7081 1151.16 49.9314 Q1151.16 58.1548 1154.52 62.8538 Q1157.92 67.5124 1163.84 67.5124 Q1169.75 67.5124 1173.12 62.8538 Q1176.52 58.1548 1176.52 49.9314 M1151.16 34.0924 Q1153.51 30.0415 1157.07 28.0971 Q1160.68 26.1121 1165.66 26.1121 Q1173.93 26.1121 1179.07 32.6746 Q1184.25 39.2371 1184.25 49.9314 Q1184.25 60.6258 1179.07 67.1883 Q1173.93 73.7508 1165.66 73.7508 Q1160.68 73.7508 1157.07 71.8063 Q1153.51 69.8214 1151.16 65.7705 L1151.16 72.576 L1143.66 72.576 L1143.66 9.54393 L1151.16 9.54393 L1151.16 34.0924 Z" fill="#000000" fill-rule="evenodd" fill-opacity="1" /><path clip-path="url(#clip830)" d="M 0 0 M1218.36 34.1734 Q1217.11 33.4443 1215.61 33.1202 Q1214.15 32.7556 1212.37 32.7556 Q1206.05 32.7556 1202.65 36.8875 Q1199.28 40.9789 1199.28 48.6757 L1199.28 72.576 L1191.79 72.576 L1191.79 27.2059 L1199.28 27.2059 L1199.28 34.2544 Q1201.63 30.1225 1205.4 28.1376 Q1209.17 26.1121 1214.56 26.1121 Q1215.33 26.1121 1216.26 26.2337 Q1217.19 26.3147 1218.32 26.5172 L1218.36 34.1734 Z" fill="#000000" fill-rule="evenodd" fill-opacity="1" /><path clip-path="url(#clip830)" d="M 0 0 M1263.17 48.0275 L1263.17 51.6733 L1228.9 51.6733 Q1229.38 59.3701 1233.51 63.421 Q1237.69 67.4314 1245.1 67.4314 Q1249.39 67.4314 1253.4 66.3781 Q1257.45 65.3249 1261.42 63.2184 L1261.42 70.267 Q1257.41 71.9684 1253.2 72.8596 Q1248.99 73.7508 1244.65 73.7508 Q1233.8 73.7508 1227.44 67.4314 Q1221.12 61.1119 1221.12 50.3365 Q1221.12 39.1965 1227.11 32.6746 Q1233.15 26.1121 1243.36 26.1121 Q1252.51 26.1121 1257.82 32.0264 Q1263.17 37.9003 1263.17 48.0275 M1255.71 45.84 Q1255.63 39.7232 1252.27 36.0774 Q1248.95 32.4315 1243.44 32.4315 Q1237.2 32.4315 1233.43 35.9558 Q1229.71 39.4801 1229.14 45.8805 L1255.71 45.84 Z" fill="#000000" fill-rule="evenodd" fill-opacity="1" /><path clip-path="url(#clip830)" d="M 0 0 M1265.64 27.2059 L1273.54 27.2059 L1287.72 65.2844 L1301.89 27.2059 L1309.79 27.2059 L1292.78 72.576 L1282.65 72.576 L1265.64 27.2059 Z" fill="#000000" fill-rule="evenodd" fill-opacity="1" /><path clip-path="url(#clip830)" d="M 0 0 M1317.61 27.2059 L1325.06 27.2059 L1325.06 72.576 L1317.61 72.576 L1317.61 27.2059 M1317.61 9.54393 L1325.06 9.54393 L1325.06 18.9825 L1317.61 18.9825 L1317.61 9.54393 Z" fill="#000000" fill-rule="evenodd" fill-opacity="1" /><path clip-path="url(#clip830)" d="M 0 0 M1327.54 27.2059 L1335.43 27.2059 L1349.61 65.2844 L1363.79 27.2059 L1371.69 27.2059 L1354.68 72.576 L1344.55 72.576 L1327.54 27.2059 Z" fill="#000000" fill-rule="evenodd" fill-opacity="1" /><path clip-path="url(#clip830)" d="M 0 0 M1379.51 27.2059 L1386.96 27.2059 L1386.96 72.576 L1379.51 72.576 L1379.51 27.2059 M1379.51 9.54393 L1386.96 9.54393 L1386.96 18.9825 L1379.51 18.9825 L1379.51 9.54393 Z" fill="#000000" fill-rule="evenodd" fill-opacity="1" /><path clip-path="url(#clip830)" d="M 0 0 M1433.59 48.0275 L1433.59 51.6733 L1399.32 51.6733 Q1399.8 59.3701 1403.94 63.421 Q1408.11 67.4314 1415.52 67.4314 Q1419.82 67.4314 1423.83 66.3781 Q1427.88 65.3249 1431.85 63.2184 L1431.85 70.267 Q1427.84 71.9684 1423.62 72.8596 Q1419.41 73.7508 1415.08 73.7508 Q1404.22 73.7508 1397.86 67.4314 Q1391.54 61.1119 1391.54 50.3365 Q1391.54 39.1965 1397.54 32.6746 Q1403.57 26.1121 1413.78 26.1121 Q1422.93 26.1121 1428.24 32.0264 Q1433.59 37.9003 1433.59 48.0275 M1426.13 45.84 Q1426.05 39.7232 1422.69 36.0774 Q1419.37 32.4315 1413.86 32.4315 Q1407.62 32.4315 1403.85 35.9558 Q1400.13 39.4801 1399.56 45.8805 L1426.13 45.84 Z" fill="#000000" fill-rule="evenodd" fill-opacity="1" /><path clip-path="url(#clip830)" d="M 0 0 M1479.12 45.1919 L1479.12 72.576 L1471.67 72.576 L1471.67 45.4349 Q1471.67 38.994 1469.16 35.7938 Q1466.64 32.5936 1461.62 32.5936 Q1455.58 32.5936 1452.1 36.4419 Q1448.62 40.2903 1448.62 46.9338 L1448.62 72.576 L1441.12 72.576 L1441.12 27.2059 L1448.62 27.2059 L1448.62 34.2544 Q1451.29 30.163 1454.9 28.1376 Q1458.54 26.1121 1463.28 26.1121 Q1471.1 26.1121 1475.11 30.9732 Q1479.12 35.7938 1479.12 45.1919 Z" fill="#000000" fill-rule="evenodd" fill-opacity="1" /><path clip-path="url(#clip830)" d="M 0 0 M1494.31 14.324 L1494.31 27.2059 L1509.66 27.2059 L1509.66 32.9987 L1494.31 32.9987 L1494.31 57.6282 Q1494.31 63.1779 1495.81 64.7578 Q1497.35 66.3376 1502.01 66.3376 L1509.66 66.3376 L1509.66 72.576 L1502.01 72.576 Q1493.38 72.576 1490.1 69.3758 Q1486.82 66.1351 1486.82 57.6282 L1486.82 32.9987 L1481.35 32.9987 L1481.35 27.2059 L1486.82 27.2059 L1486.82 14.324 L1494.31 14.324 Z" fill="#000000" fill-rule="evenodd" fill-opacity="1" /><path clip-path="url(#clip830)" d="M 0 0 M1556.29 48.0275 L1556.29 51.6733 L1522.02 51.6733 Q1522.51 59.3701 1526.64 63.421 Q1530.81 67.4314 1538.22 67.4314 Q1542.52 67.4314 1546.53 66.3781 Q1550.58 65.3249 1554.55 63.2184 L1554.55 70.267 Q1550.54 71.9684 1546.32 72.8596 Q1542.11 73.7508 1537.78 73.7508 Q1526.92 73.7508 1520.56 67.4314 Q1514.24 61.1119 1514.24 50.3365 Q1514.24 39.1965 1520.24 32.6746 Q1526.27 26.1121 1536.48 26.1121 Q1545.64 26.1121 1550.94 32.0264 Q1556.29 37.9003 1556.29 48.0275 M1548.84 45.84 Q1548.76 39.7232 1545.39 36.0774 Q1542.07 32.4315 1536.56 32.4315 Q1530.32 32.4315 1526.56 35.9558 Q1522.83 39.4801 1522.26 45.8805 L1548.84 45.84 Z" fill="#000000" fill-rule="evenodd" fill-opacity="1" /><path clip-path="url(#clip830)" d="M 0 0 M1593.03 28.5427 L1593.03 35.5912 Q1589.87 33.9709 1586.47 33.1607 Q1583.07 32.3505 1579.42 32.3505 Q1573.87 32.3505 1571.08 34.0519 Q1568.32 35.7533 1568.32 39.156 Q1568.32 41.7486 1570.31 43.2475 Q1572.29 44.7058 1578.29 46.0426 L1580.84 46.6097 Q1588.78 48.3111 1592.1 51.4303 Q1595.46 54.509 1595.46 60.0587 Q1595.46 66.3781 1590.44 70.0644 Q1585.46 73.7508 1576.71 73.7508 Q1573.06 73.7508 1569.09 73.0216 Q1565.16 72.3329 1560.79 70.9151 L1560.79 63.2184 Q1564.92 65.3654 1568.93 66.4591 Q1572.94 67.5124 1576.87 67.5124 Q1582.13 67.5124 1584.97 65.73 Q1587.81 63.9071 1587.81 60.6258 Q1587.81 57.5877 1585.74 55.9673 Q1583.71 54.3469 1576.79 52.8481 L1574.2 52.2405 Q1567.27 50.7821 1564.19 47.7845 Q1561.11 44.7463 1561.11 39.4801 Q1561.11 33.0797 1565.65 29.5959 Q1570.18 26.1121 1578.53 26.1121 Q1582.66 26.1121 1586.31 26.7198 Q1589.95 27.3274 1593.03 28.5427 Z" fill="#000000" fill-rule="evenodd" fill-opacity="1" /><path clip-path="url(#clip832)" d="
M286.469 162.047 L286.469 1447.87 L1208.27 1447.87 L1208.27 162.047 L286.469 162.047 L286.469 162.047  Z
  " fill="#009af9" fill-rule="evenodd" fill-opacity="1"/>
<polyline clip-path="url(#clip832)" style="stroke:#000000; stroke-width:4; stroke-opacity:1; fill:none" points="
  286.469,162.047 286.469,1447.87 1208.27,1447.87 1208.27,162.047 286.469,162.047 
  "/>
<path clip-path="url(#clip832)" d="
M491.313 1447.87 L491.313 1447.87 L1413.11 1447.87 L1413.11 1447.87 L491.313 1447.87 L491.313 1447.87  Z
  " fill="#009af9" fill-rule="evenodd" fill-opacity="1"/>
<polyline clip-path="url(#clip832)" style="stroke:#000000; stroke-width:4; stroke-opacity:1; fill:none" points="
  491.313,1447.87 491.313,1447.87 1413.11,1447.87 491.313,1447.87 
  "/>
<path clip-path="url(#clip832)" d="
M696.158 1447.87 L696.158 1447.87 L1617.96 1447.87 L1617.96 1447.87 L696.158 1447.87 L696.158 1447.87  Z
  " fill="#009af9" fill-rule="evenodd" fill-opacity="1"/>
<polyline clip-path="url(#clip832)" style="stroke:#000000; stroke-width:4; stroke-opacity:1; fill:none" points="
  696.158,1447.87 696.158,1447.87 1617.96,1447.87 696.158,1447.87 
  "/>
<path clip-path="url(#clip832)" d="
M901.002 1447.87 L901.002 1447.87 L1822.8 1447.87 L1822.8 1447.87 L901.002 1447.87 L901.002 1447.87  Z
  " fill="#009af9" fill-rule="evenodd" fill-opacity="1"/>
<polyline clip-path="url(#clip832)" style="stroke:#000000; stroke-width:4; stroke-opacity:1; fill:none" points="
  901.002,1447.87 901.002,1447.87 1822.8,1447.87 901.002,1447.87 
  "/>
<path clip-path="url(#clip832)" d="
M1105.85 1447.87 L1105.85 1447.87 L2027.65 1447.87 L2027.65 1447.87 L1105.85 1447.87 L1105.85 1447.87  Z
  " fill="#009af9" fill-rule="evenodd" fill-opacity="1"/>
<polyline clip-path="url(#clip832)" style="stroke:#000000; stroke-width:4; stroke-opacity:1; fill:none" points="
  1105.85,1447.87 1105.85,1447.87 2027.65,1447.87 1105.85,1447.87 
  "/>
<path clip-path="url(#clip832)" d="
M1310.69 1305.98 L1310.69 1447.87 L2232.49 1447.87 L2232.49 1305.98 L1310.69 1305.98 L1310.69 1305.98  Z
  " fill="#009af9" fill-rule="evenodd" fill-opacity="1"/>
<polyline clip-path="url(#clip832)" style="stroke:#000000; stroke-width:4; stroke-opacity:1; fill:none" points="
  1310.69,1305.98 1310.69,1447.87 2232.49,1447.87 2232.49,1305.98 1310.69,1305.98 
  "/>
</svg>
