<?xml version="1.0" encoding="utf-8"?>
<svg xmlns="http://www.w3.org/2000/svg" xmlns:xlink="http://www.w3.org/1999/xlink" width="600" height="400" viewBox="0 0 2400 1600">
<defs>
  <clipPath id="clip340">
    <rect x="0" y="0" width="2400" height="1600"/>
  </clipPath>
</defs>
<path clip-path="url(#clip340)" d="
M0 1600 L2400 1600 L2400 0 L0 0  Z
  " fill="#ffffff" fill-rule="evenodd" fill-opacity="1"/>
<defs>
  <clipPath id="clip341">
    <rect x="480" y="0" width="1681" height="1600"/>
  </clipPath>
</defs>
<path clip-path="url(#clip340)" d="
M185.846 1482.13 L2352.76 1482.13 L2352.76 149.392 L185.846 149.392  Z
  " fill="#ffffff" fill-rule="evenodd" fill-opacity="1"/>
<defs>
  <clipPath id="clip342">
    <rect x="185" y="149" width="2168" height="1334"/>
  </clipPath>
</defs>
<polyline clip-path="url(#clip342)" style="stroke:#000000; stroke-width:2; stroke-opacity:0.1; fill:none" points="
  677.543,1482.13 677.543,149.392 
  "/>
<polyline clip-path="url(#clip342)" style="stroke:#000000; stroke-width:2; stroke-opacity:0.1; fill:none" points="
  1215.5,1482.13 1215.5,149.392 
  "/>
<polyline clip-path="url(#clip342)" style="stroke:#000000; stroke-width:2; stroke-opacity:0.1; fill:none" points="
  1753.47,1482.13 1753.47,149.392 
  "/>
<polyline clip-path="url(#clip342)" style="stroke:#000000; stroke-width:2; stroke-opacity:0.1; fill:none" points="
  2291.43,1482.13 2291.43,149.392 
  "/>
<polyline clip-path="url(#clip340)" style="stroke:#000000; stroke-width:4; stroke-opacity:1; fill:none" points="
  185.846,1482.13 2352.76,1482.13 
  "/>
<polyline clip-path="url(#clip340)" style="stroke:#000000; stroke-width:4; stroke-opacity:1; fill:none" points="
  677.543,1482.13 677.543,1466.14 
  "/>
<polyline clip-path="url(#clip340)" style="stroke:#000000; stroke-width:4; stroke-opacity:1; fill:none" points="
  1215.5,1482.13 1215.5,1466.14 
  "/>
<polyline clip-path="url(#clip340)" style="stroke:#000000; stroke-width:4; stroke-opacity:1; fill:none" points="
  1753.47,1482.13 1753.47,1466.14 
  "/>
<polyline clip-path="url(#clip340)" style="stroke:#000000; stroke-width:4; stroke-opacity:1; fill:none" points="
  2291.43,1482.13 2291.43,1466.14 
  "/>
<path clip-path="url(#clip340)" d="M 0 0 M666.605 1509.1 L687.256 1509.1 L687.256 1513.53 L671.423 1513.53 L671.423 1523.06 Q672.569 1522.67 673.715 1522.49 Q674.861 1522.28 676.006 1522.28 Q682.517 1522.28 686.319 1525.85 Q690.121 1529.42 690.121 1535.51 Q690.121 1541.79 686.215 1545.28 Q682.308 1548.74 675.199 1548.74 Q672.751 1548.74 670.199 1548.32 Q667.673 1547.91 664.965 1547.07 L664.965 1541.79 Q667.309 1543.06 669.809 1543.69 Q672.309 1544.31 675.095 1544.31 Q679.6 1544.31 682.23 1541.94 Q684.861 1539.57 684.861 1535.51 Q684.861 1531.45 682.23 1529.08 Q679.6 1526.71 675.095 1526.71 Q672.986 1526.71 670.876 1527.18 Q668.793 1527.65 666.605 1528.64 L666.605 1509.1 Z" fill="#bebebe" fill-rule="evenodd" fill-opacity="1" /><path clip-path="url(#clip340)" d="M 0 0 M1189.49 1543.56 L1198.08 1543.56 L1198.08 1513.9 L1188.73 1515.77 L1188.73 1510.98 L1198.03 1509.1 L1203.29 1509.1 L1203.29 1543.56 L1211.88 1543.56 L1211.88 1547.98 L1189.49 1547.98 L1189.49 1543.56 Z" fill="#bebebe" fill-rule="evenodd" fill-opacity="1" /><path clip-path="url(#clip340)" d="M 0 0 M1228.84 1512.57 Q1224.78 1512.57 1222.72 1516.58 Q1220.69 1520.56 1220.69 1528.58 Q1220.69 1536.58 1222.72 1540.59 Q1224.78 1544.57 1228.84 1544.57 Q1232.93 1544.57 1234.96 1540.59 Q1237.01 1536.58 1237.01 1528.58 Q1237.01 1520.56 1234.96 1516.58 Q1232.93 1512.57 1228.84 1512.57 M1228.84 1508.4 Q1235.37 1508.4 1238.81 1513.58 Q1242.28 1518.74 1242.28 1528.58 Q1242.28 1538.4 1238.81 1543.58 Q1235.37 1548.74 1228.84 1548.74 Q1222.3 1548.74 1218.84 1543.58 Q1215.4 1538.4 1215.4 1528.58 Q1215.4 1518.74 1218.84 1513.58 Q1222.3 1508.4 1228.84 1508.4 Z" fill="#bebebe" fill-rule="evenodd" fill-opacity="1" /><path clip-path="url(#clip340)" d="M 0 0 M1728.01 1543.56 L1736.6 1543.56 L1736.6 1513.9 L1727.26 1515.77 L1727.26 1510.98 L1736.55 1509.1 L1741.81 1509.1 L1741.81 1543.56 L1750.41 1543.56 L1750.41 1547.98 L1728.01 1547.98 L1728.01 1543.56 Z" fill="#bebebe" fill-rule="evenodd" fill-opacity="1" /><path clip-path="url(#clip340)" d="M 0 0 M1756.16 1509.1 L1776.81 1509.1 L1776.81 1513.53 L1760.98 1513.53 L1760.98 1523.06 Q1762.13 1522.67 1763.27 1522.49 Q1764.42 1522.28 1765.56 1522.28 Q1772.07 1522.28 1775.88 1525.85 Q1779.68 1529.42 1779.68 1535.51 Q1779.68 1541.79 1775.77 1545.28 Q1771.86 1548.74 1764.76 1548.74 Q1762.31 1548.74 1759.76 1548.32 Q1757.23 1547.91 1754.52 1547.07 L1754.52 1541.79 Q1756.86 1543.06 1759.36 1543.69 Q1761.86 1544.31 1764.65 1544.31 Q1769.16 1544.31 1771.79 1541.94 Q1774.42 1539.57 1774.42 1535.51 Q1774.42 1531.45 1771.79 1529.08 Q1769.16 1526.71 1764.65 1526.71 Q1762.54 1526.71 1760.43 1527.18 Q1758.35 1527.65 1756.16 1528.64 L1756.16 1509.1 Z" fill="#bebebe" fill-rule="evenodd" fill-opacity="1" /><path clip-path="url(#clip340)" d="M 0 0 M2270.22 1543.56 L2288.58 1543.56 L2288.58 1547.98 L2263.89 1547.98 L2263.89 1543.56 Q2266.88 1540.46 2272.04 1535.25 Q2277.22 1530.02 2278.55 1528.5 Q2281.08 1525.67 2282.07 1523.71 Q2283.08 1521.73 2283.08 1519.83 Q2283.08 1516.73 2280.89 1514.78 Q2278.73 1512.83 2275.24 1512.83 Q2272.77 1512.83 2270.01 1513.69 Q2267.27 1514.55 2264.15 1516.29 L2264.15 1510.98 Q2267.33 1509.7 2270.09 1509.05 Q2272.85 1508.4 2275.14 1508.4 Q2281.18 1508.4 2284.77 1511.42 Q2288.37 1514.44 2288.37 1519.49 Q2288.37 1521.89 2287.46 1524.05 Q2286.57 1526.19 2284.2 1529.1 Q2283.55 1529.86 2280.06 1533.48 Q2276.57 1537.07 2270.22 1543.56 Z" fill="#bebebe" fill-rule="evenodd" fill-opacity="1" /><path clip-path="url(#clip340)" d="M 0 0 M2305.53 1512.57 Q2301.47 1512.57 2299.41 1516.58 Q2297.38 1520.56 2297.38 1528.58 Q2297.38 1536.58 2299.41 1540.59 Q2301.47 1544.57 2305.53 1544.57 Q2309.62 1544.57 2311.65 1540.59 Q2313.71 1536.58 2313.71 1528.58 Q2313.71 1520.56 2311.65 1516.58 Q2309.62 1512.57 2305.53 1512.57 M2305.53 1508.4 Q2312.07 1508.4 2315.5 1513.58 Q2318.97 1518.74 2318.97 1528.58 Q2318.97 1538.4 2315.5 1543.58 Q2312.07 1548.74 2305.53 1548.74 Q2298.99 1548.74 2295.53 1543.58 Q2292.09 1538.4 2292.09 1528.58 Q2292.09 1518.74 2295.53 1513.58 Q2298.99 1508.4 2305.53 1508.4 Z" fill="#bebebe" fill-rule="evenodd" fill-opacity="1" /><polyline clip-path="url(#clip342)" style="stroke:#000000; stroke-width:2; stroke-opacity:0.1; fill:none" points="
  185.846,1478.24 2352.76,1478.24 
  "/>
<polyline clip-path="url(#clip342)" style="stroke:#000000; stroke-width:2; stroke-opacity:0.1; fill:none" points="
  185.846,1149.95 2352.76,1149.95 
  "/>
<polyline clip-path="url(#clip342)" style="stroke:#000000; stroke-width:2; stroke-opacity:0.1; fill:none" points="
  185.846,821.669 2352.76,821.669 
  "/>
<polyline clip-path="url(#clip342)" style="stroke:#000000; stroke-width:2; stroke-opacity:0.1; fill:none" points="
  185.846,493.385 2352.76,493.385 
  "/>
<polyline clip-path="url(#clip342)" style="stroke:#000000; stroke-width:2; stroke-opacity:0.1; fill:none" points="
  185.846,165.102 2352.76,165.102 
  "/>
<polyline clip-path="url(#clip340)" style="stroke:#000000; stroke-width:4; stroke-opacity:1; fill:none" points="
  185.846,1482.13 185.846,149.392 
  "/>
<polyline clip-path="url(#clip340)" style="stroke:#000000; stroke-width:4; stroke-opacity:1; fill:none" points="
  185.846,1478.24 211.849,1478.24 
  "/>
<polyline clip-path="url(#clip340)" style="stroke:#000000; stroke-width:4; stroke-opacity:1; fill:none" points="
  185.846,1149.95 211.849,1149.95 
  "/>
<polyline clip-path="url(#clip340)" style="stroke:#000000; stroke-width:4; stroke-opacity:1; fill:none" points="
  185.846,821.669 211.849,821.669 
  "/>
<polyline clip-path="url(#clip340)" style="stroke:#000000; stroke-width:4; stroke-opacity:1; fill:none" points="
  185.846,493.385 211.849,493.385 
  "/>
<polyline clip-path="url(#clip340)" style="stroke:#000000; stroke-width:4; stroke-opacity:1; fill:none" points="
  185.846,165.102 211.849,165.102 
  "/>
<path clip-path="url(#clip340)" d="M 0 0 M64.4296 1462.26 Q60.3671 1462.26 58.3098 1466.27 Q56.2786 1470.25 56.2786 1478.28 Q56.2786 1486.27 58.3098 1490.28 Q60.3671 1494.27 64.4296 1494.27 Q68.5181 1494.27 70.5493 1490.28 Q72.6066 1486.27 72.6066 1478.28 Q72.6066 1470.25 70.5493 1466.27 Q68.5181 1462.26 64.4296 1462.26 M64.4296 1458.09 Q70.966 1458.09 74.4035 1463.28 Q77.867 1468.43 77.867 1478.28 Q77.867 1488.09 74.4035 1493.28 Q70.966 1498.43 64.4296 1498.43 Q57.8931 1498.43 54.4296 1493.28 Q50.9921 1488.09 50.9921 1478.28 Q50.9921 1468.43 54.4296 1463.28 Q57.8931 1458.09 64.4296 1458.09 Z" fill="#bebebe" fill-rule="evenodd" fill-opacity="1" /><path clip-path="url(#clip340)" d="M 0 0 M83.5701 1491.06 L89.0648 1491.06 L89.0648 1497.68 L83.5701 1497.68 L83.5701 1491.06 Z" fill="#bebebe" fill-rule="evenodd" fill-opacity="1" /><path clip-path="url(#clip340)" d="M 0 0 M106.018 1462.26 Q101.955 1462.26 99.8981 1466.27 Q97.8669 1470.25 97.8669 1478.28 Q97.8669 1486.27 99.8981 1490.28 Q101.955 1494.27 106.018 1494.27 Q110.106 1494.27 112.138 1490.28 Q114.195 1486.27 114.195 1478.28 Q114.195 1470.25 112.138 1466.27 Q110.106 1462.26 106.018 1462.26 M106.018 1458.09 Q112.554 1458.09 115.992 1463.28 Q119.455 1468.43 119.455 1478.28 Q119.455 1488.09 115.992 1493.28 Q112.554 1498.43 106.018 1498.43 Q99.4814 1498.43 96.0179 1493.28 Q92.5804 1488.09 92.5804 1478.28 Q92.5804 1468.43 96.0179 1463.28 Q99.4814 1458.09 106.018 1458.09 Z" fill="#bebebe" fill-rule="evenodd" fill-opacity="1" /><path clip-path="url(#clip340)" d="M 0 0 M136.408 1462.26 Q132.346 1462.26 130.289 1466.27 Q128.257 1470.25 128.257 1478.28 Q128.257 1486.27 130.289 1490.28 Q132.346 1494.27 136.408 1494.27 Q140.497 1494.27 142.528 1490.28 Q144.585 1486.27 144.585 1478.28 Q144.585 1470.25 142.528 1466.27 Q140.497 1462.26 136.408 1462.26 M136.408 1458.09 Q142.945 1458.09 146.382 1463.28 Q149.846 1468.43 149.846 1478.28 Q149.846 1488.09 146.382 1493.28 Q142.945 1498.43 136.408 1498.43 Q129.872 1498.43 126.408 1493.28 Q122.971 1488.09 122.971 1478.28 Q122.971 1468.43 126.408 1463.28 Q129.872 1458.09 136.408 1458.09 Z" fill="#bebebe" fill-rule="evenodd" fill-opacity="1" /><path clip-path="url(#clip340)" d="M 0 0 M67.3462 1133.98 Q63.2837 1133.98 61.2264 1137.99 Q59.1952 1141.97 59.1952 1149.99 Q59.1952 1157.99 61.2264 1162 Q63.2837 1165.98 67.3462 1165.98 Q71.4347 1165.98 73.466 1162 Q75.5232 1157.99 75.5232 1149.99 Q75.5232 1141.97 73.466 1137.99 Q71.4347 1133.98 67.3462 1133.98 M67.3462 1129.81 Q73.8826 1129.81 77.3201 1134.99 Q80.7836 1140.15 80.7836 1149.99 Q80.7836 1159.81 77.3201 1164.99 Q73.8826 1170.15 67.3462 1170.15 Q60.8098 1170.15 57.3463 1164.99 Q53.9088 1159.81 53.9088 1149.99 Q53.9088 1140.15 57.3463 1134.99 Q60.8098 1129.81 67.3462 1129.81 Z" fill="#bebebe" fill-rule="evenodd" fill-opacity="1" /><path clip-path="url(#clip340)" d="M 0 0 M86.4867 1162.78 L91.9815 1162.78 L91.9815 1169.39 L86.4867 1169.39 L86.4867 1162.78 Z" fill="#bebebe" fill-rule="evenodd" fill-opacity="1" /><path clip-path="url(#clip340)" d="M 0 0 M102.216 1164.97 L120.575 1164.97 L120.575 1169.39 L95.8877 1169.39 L95.8877 1164.97 Q98.8825 1161.87 104.039 1156.66 Q109.221 1151.42 110.549 1149.91 Q113.075 1147.08 114.065 1145.12 Q115.08 1143.14 115.08 1141.24 Q115.08 1138.14 112.893 1136.19 Q110.731 1134.24 107.242 1134.24 Q104.768 1134.24 102.007 1135.1 Q99.2731 1135.96 96.1481 1137.7 L96.1481 1132.39 Q99.3252 1131.11 102.086 1130.46 Q104.846 1129.81 107.138 1129.81 Q113.179 1129.81 116.773 1132.83 Q120.367 1135.85 120.367 1140.9 Q120.367 1143.3 119.455 1145.46 Q118.57 1147.6 116.2 1150.51 Q115.549 1151.27 112.06 1154.89 Q108.57 1158.48 102.216 1164.97 Z" fill="#bebebe" fill-rule="evenodd" fill-opacity="1" /><path clip-path="url(#clip340)" d="M 0 0 M126.33 1130.51 L146.981 1130.51 L146.981 1134.94 L131.148 1134.94 L131.148 1144.47 Q132.294 1144.08 133.44 1143.9 Q134.585 1143.69 135.731 1143.69 Q142.242 1143.69 146.044 1147.26 Q149.846 1150.83 149.846 1156.92 Q149.846 1163.2 145.94 1166.68 Q142.033 1170.15 134.924 1170.15 Q132.476 1170.15 129.924 1169.73 Q127.398 1169.31 124.69 1168.48 L124.69 1163.2 Q127.033 1164.47 129.533 1165.1 Q132.033 1165.72 134.82 1165.72 Q139.325 1165.72 141.955 1163.35 Q144.585 1160.98 144.585 1156.92 Q144.585 1152.86 141.955 1150.49 Q139.325 1148.12 134.82 1148.12 Q132.71 1148.12 130.601 1148.59 Q128.518 1149.05 126.33 1150.04 L126.33 1130.51 Z" fill="#bebebe" fill-rule="evenodd" fill-opacity="1" /><path clip-path="url(#clip340)" d="M 0 0 M65.5493 805.693 Q61.4869 805.693 59.4296 809.703 Q57.3983 813.687 57.3983 821.708 Q57.3983 829.703 59.4296 833.713 Q61.4869 837.698 65.5493 837.698 Q69.6379 837.698 71.6691 833.713 Q73.7264 829.703 73.7264 821.708 Q73.7264 813.687 71.6691 809.703 Q69.6379 805.693 65.5493 805.693 M65.5493 801.526 Q72.0858 801.526 75.5232 806.708 Q78.9868 811.864 78.9868 821.708 Q78.9868 831.526 75.5232 836.708 Q72.0858 841.864 65.5493 841.864 Q59.0129 841.864 55.5494 836.708 Q52.1119 831.526 52.1119 821.708 Q52.1119 811.864 55.5494 806.708 Q59.0129 801.526 65.5493 801.526 Z" fill="#bebebe" fill-rule="evenodd" fill-opacity="1" /><path clip-path="url(#clip340)" d="M 0 0 M84.6899 834.495 L90.1846 834.495 L90.1846 841.109 L84.6899 841.109 L84.6899 834.495 Z" fill="#bebebe" fill-rule="evenodd" fill-opacity="1" /><path clip-path="url(#clip340)" d="M 0 0 M95.9398 802.229 L116.591 802.229 L116.591 806.656 L100.757 806.656 L100.757 816.187 Q101.903 815.797 103.049 815.614 Q104.195 815.406 105.341 815.406 Q111.851 815.406 115.653 818.974 Q119.455 822.542 119.455 828.635 Q119.455 834.911 115.549 838.401 Q111.643 841.864 104.534 841.864 Q102.086 841.864 99.5335 841.448 Q97.0075 841.031 94.2992 840.198 L94.2992 834.911 Q96.6429 836.187 99.1429 836.812 Q101.643 837.437 104.429 837.437 Q108.935 837.437 111.565 835.067 Q114.195 832.698 114.195 828.635 Q114.195 824.573 111.565 822.203 Q108.935 819.833 104.429 819.833 Q102.32 819.833 100.211 820.302 Q98.1273 820.771 95.9398 821.76 L95.9398 802.229 Z" fill="#bebebe" fill-rule="evenodd" fill-opacity="1" /><path clip-path="url(#clip340)" d="M 0 0 M136.408 805.693 Q132.346 805.693 130.289 809.703 Q128.257 813.687 128.257 821.708 Q128.257 829.703 130.289 833.713 Q132.346 837.698 136.408 837.698 Q140.497 837.698 142.528 833.713 Q144.585 829.703 144.585 821.708 Q144.585 813.687 142.528 809.703 Q140.497 805.693 136.408 805.693 M136.408 801.526 Q142.945 801.526 146.382 806.708 Q149.846 811.864 149.846 821.708 Q149.846 831.526 146.382 836.708 Q142.945 841.864 136.408 841.864 Q129.872 841.864 126.408 836.708 Q122.971 831.526 122.971 821.708 Q122.971 811.864 126.408 806.708 Q129.872 801.526 136.408 801.526 Z" fill="#bebebe" fill-rule="evenodd" fill-opacity="1" /><path clip-path="url(#clip340)" d="M 0 0 M66.565 477.409 Q62.5025 477.409 60.4452 481.419 Q58.414 485.404 58.414 493.424 Q58.414 501.419 60.4452 505.43 Q62.5025 509.414 66.565 509.414 Q70.6535 509.414 72.6847 505.43 Q74.742 501.419 74.742 493.424 Q74.742 485.404 72.6847 481.419 Q70.6535 477.409 66.565 477.409 M66.565 473.242 Q73.1014 473.242 76.5389 478.424 Q80.0024 483.581 80.0024 493.424 Q80.0024 503.242 76.5389 508.424 Q73.1014 513.581 66.565 513.581 Q60.0285 513.581 56.565 508.424 Q53.1275 503.242 53.1275 493.424 Q53.1275 483.581 56.565 478.424 Q60.0285 473.242 66.565 473.242 Z" fill="#bebebe" fill-rule="evenodd" fill-opacity="1" /><path clip-path="url(#clip340)" d="M 0 0 M85.7055 506.211 L91.2002 506.211 L91.2002 512.825 L85.7055 512.825 L85.7055 506.211 Z" fill="#bebebe" fill-rule="evenodd" fill-opacity="1" /><path clip-path="url(#clip340)" d="M 0 0 M95.5752 473.945 L120.575 473.945 L120.575 476.185 L106.461 512.825 L100.966 512.825 L114.247 478.372 L95.5752 478.372 L95.5752 473.945 Z" fill="#bebebe" fill-rule="evenodd" fill-opacity="1" /><path clip-path="url(#clip340)" d="M 0 0 M126.33 473.945 L146.981 473.945 L146.981 478.372 L131.148 478.372 L131.148 487.904 Q132.294 487.513 133.44 487.331 Q134.585 487.122 135.731 487.122 Q142.242 487.122 146.044 490.69 Q149.846 494.258 149.846 500.351 Q149.846 506.627 145.94 510.117 Q142.033 513.581 134.924 513.581 Q132.476 513.581 129.924 513.164 Q127.398 512.747 124.69 511.914 L124.69 506.627 Q127.033 507.903 129.533 508.528 Q132.033 509.153 134.82 509.153 Q139.325 509.153 141.955 506.784 Q144.585 504.414 144.585 500.351 Q144.585 496.289 141.955 493.919 Q139.325 491.549 134.82 491.549 Q132.71 491.549 130.601 492.018 Q128.518 492.487 126.33 493.476 L126.33 473.945 Z" fill="#bebebe" fill-rule="evenodd" fill-opacity="1" /><path clip-path="url(#clip340)" d="M 0 0 M55.4713 180.115 L64.065 180.115 L64.065 150.453 L54.7161 152.328 L54.7161 147.537 L64.0129 145.662 L69.2733 145.662 L69.2733 180.115 L77.867 180.115 L77.867 184.542 L55.4713 184.542 L55.4713 180.115 Z" fill="#bebebe" fill-rule="evenodd" fill-opacity="1" /><path clip-path="url(#clip340)" d="M 0 0 M83.5701 177.927 L89.0648 177.927 L89.0648 184.542 L83.5701 184.542 L83.5701 177.927 Z" fill="#bebebe" fill-rule="evenodd" fill-opacity="1" /><path clip-path="url(#clip340)" d="M 0 0 M106.018 149.125 Q101.955 149.125 99.8981 153.135 Q97.8669 157.12 97.8669 165.141 Q97.8669 173.135 99.8981 177.146 Q101.955 181.13 106.018 181.13 Q110.106 181.13 112.138 177.146 Q114.195 173.135 114.195 165.141 Q114.195 157.12 112.138 153.135 Q110.106 149.125 106.018 149.125 M106.018 144.958 Q112.554 144.958 115.992 150.141 Q119.455 155.297 119.455 165.141 Q119.455 174.958 115.992 180.141 Q112.554 185.297 106.018 185.297 Q99.4814 185.297 96.0179 180.141 Q92.5804 174.958 92.5804 165.141 Q92.5804 155.297 96.0179 150.141 Q99.4814 144.958 106.018 144.958 Z" fill="#bebebe" fill-rule="evenodd" fill-opacity="1" /><path clip-path="url(#clip340)" d="M 0 0 M136.408 149.125 Q132.346 149.125 130.289 153.135 Q128.257 157.12 128.257 165.141 Q128.257 173.135 130.289 177.146 Q132.346 181.13 136.408 181.13 Q140.497 181.13 142.528 177.146 Q144.585 173.135 144.585 165.141 Q144.585 157.12 142.528 153.135 Q140.497 149.125 136.408 149.125 M136.408 144.958 Q142.945 144.958 146.382 150.141 Q149.846 155.297 149.846 165.141 Q149.846 174.958 146.382 180.141 Q142.945 185.297 136.408 185.297 Q129.872 185.297 126.408 180.141 Q122.971 174.958 122.971 165.141 Q122.971 155.297 126.408 150.141 Q129.872 144.958 136.408 144.958 Z" fill="#bebebe" fill-rule="evenodd" fill-opacity="1" /><path clip-path="url(#clip340)" d="M 0 0 M963.429 20.1156 L963.429 31.516 Q956.774 28.3332 950.871 26.7707 Q944.968 25.2082 939.47 25.2082 Q929.922 25.2082 924.714 28.9119 Q919.563 32.6156 919.563 39.4442 Q919.563 45.1734 922.977 48.1247 Q926.45 51.0182 936.056 52.8122 L943.116 54.259 Q956.195 56.7474 962.387 63.0552 Q968.637 69.3052 968.637 79.8375 Q968.637 92.3953 960.188 98.8768 Q951.797 105.358 935.535 105.358 Q929.401 105.358 922.457 103.969 Q915.57 102.58 908.163 99.8606 L908.163 87.8236 Q915.281 91.8166 922.109 93.8421 Q928.938 95.8675 935.535 95.8675 Q945.547 95.8675 950.987 91.9324 Q956.426 87.9972 956.426 80.7056 Q956.426 74.3399 952.491 70.7519 Q948.614 67.164 939.702 65.37 L932.584 63.9811 Q919.505 61.377 913.66 55.8215 Q907.816 50.2659 907.816 40.3702 Q907.816 28.9119 915.859 22.3147 Q923.961 15.7175 938.139 15.7175 Q944.216 15.7175 950.524 16.817 Q956.831 17.9166 963.429 20.1156 Z" fill="#bebebe" fill-rule="evenodd" fill-opacity="1" /><path clip-path="url(#clip340)" d="M 0 0 M1035.25 68.6107 L1035.25 73.819 L986.287 73.819 Q986.982 84.8144 992.884 90.6014 Q998.845 96.3305 1009.44 96.3305 Q1015.57 96.3305 1021.3 94.8259 Q1027.09 93.3213 1032.76 90.312 L1032.76 100.381 Q1027.03 102.812 1021.01 104.085 Q1014.99 105.358 1008.8 105.358 Q993.29 105.358 984.204 96.3305 Q975.176 87.3028 975.176 71.9093 Q975.176 55.9951 983.741 46.678 Q992.364 37.303 1006.95 37.303 Q1020.03 37.303 1027.61 45.7521 Q1035.25 54.1432 1035.25 68.6107 M1024.6 65.4858 Q1024.48 56.7474 1019.68 51.5391 Q1014.93 46.3308 1007.06 46.3308 Q998.151 46.3308 992.769 51.3655 Q987.445 56.4002 986.635 65.5436 L1024.6 65.4858 Z" fill="#bebebe" fill-rule="evenodd" fill-opacity="1" /><path clip-path="url(#clip340)" d="M 0 0 M1083.97 48.8192 Q1082.18 47.7775 1080.04 47.3146 Q1077.95 46.7937 1075.41 46.7937 Q1066.38 46.7937 1061.52 52.6965 Q1056.72 58.5414 1056.72 69.5367 L1056.72 103.68 L1046.01 103.68 L1046.01 38.8655 L1056.72 38.8655 L1056.72 48.9349 Q1060.07 43.0322 1065.45 40.1965 Q1070.84 37.303 1078.53 37.303 Q1079.63 37.303 1080.96 37.4767 Q1082.29 37.5924 1083.91 37.8817 L1083.97 48.8192 Z" fill="#bebebe" fill-rule="evenodd" fill-opacity="1" /><path clip-path="url(#clip340)" d="M 0 0 M1095.14 38.8655 L1105.79 38.8655 L1105.79 103.68 L1095.14 103.68 L1095.14 38.8655 M1095.14 13.6342 L1105.79 13.6342 L1105.79 27.1179 L1095.14 27.1179 L1095.14 13.6342 Z" fill="#bebebe" fill-rule="evenodd" fill-opacity="1" /><path clip-path="url(#clip340)" d="M 0 0 M1172.4 68.6107 L1172.4 73.819 L1123.44 73.819 Q1124.13 84.8144 1130.04 90.6014 Q1136 96.3305 1146.59 96.3305 Q1152.72 96.3305 1158.45 94.8259 Q1164.24 93.3213 1169.91 90.312 L1169.91 100.381 Q1164.18 102.812 1158.16 104.085 Q1152.14 105.358 1145.95 105.358 Q1130.44 105.358 1121.36 96.3305 Q1112.33 87.3028 1112.33 71.9093 Q1112.33 55.9951 1120.89 46.678 Q1129.52 37.303 1144.1 37.303 Q1157.18 37.303 1164.76 45.7521 Q1172.4 54.1432 1172.4 68.6107 M1161.75 65.4858 Q1161.63 56.7474 1156.83 51.5391 Q1152.09 46.3308 1144.21 46.3308 Q1135.3 46.3308 1129.92 51.3655 Q1124.6 56.4002 1123.79 65.5436 L1161.75 65.4858 Z" fill="#bebebe" fill-rule="evenodd" fill-opacity="1" /><path clip-path="url(#clip340)" d="M 0 0 M1231.31 17.28 L1231.31 49.3979 L1221.47 49.3979 L1221.47 17.28 L1231.31 17.28 Z" fill="#bebebe" fill-rule="evenodd" fill-opacity="1" /><path clip-path="url(#clip340)" d="M 0 0 M1283.8 40.7752 L1283.8 50.8446 Q1279.28 48.5298 1274.42 47.3724 Q1269.56 46.215 1264.35 46.215 Q1256.42 46.215 1252.43 48.6456 Q1248.5 51.0761 1248.5 55.9372 Q1248.5 59.6409 1251.33 61.7821 Q1254.17 63.8654 1262.73 65.7751 L1266.38 66.5853 Q1277.72 69.0158 1282.47 73.4718 Q1287.27 77.87 1287.27 85.7982 Q1287.27 94.8259 1280.09 100.092 Q1272.98 105.358 1260.48 105.358 Q1255.27 105.358 1249.6 104.317 Q1243.98 103.333 1237.73 101.307 L1237.73 90.312 Q1243.64 93.3791 1249.36 94.9416 Q1255.09 96.4462 1260.71 96.4462 Q1268.23 96.4462 1272.28 93.9 Q1276.33 91.2958 1276.33 86.6083 Q1276.33 82.2681 1273.38 79.9533 Q1270.49 77.6385 1260.59 75.4973 L1256.89 74.6292 Q1246.99 72.5459 1242.59 68.2635 Q1238.2 63.9233 1238.2 56.4002 Q1238.2 47.2567 1244.68 42.2799 Q1251.16 37.303 1263.08 37.303 Q1268.98 37.303 1274.19 38.1711 Q1279.4 39.0391 1283.8 40.7752 Z" fill="#bebebe" fill-rule="evenodd" fill-opacity="1" /><path clip-path="url(#clip340)" d="M 0 0 M1345.08 41.3539 L1345.08 51.3076 Q1340.57 48.8192 1336 47.6039 Q1331.48 46.3308 1326.85 46.3308 Q1316.49 46.3308 1310.76 52.928 Q1305.04 59.4673 1305.04 71.3306 Q1305.04 83.194 1310.76 89.7912 Q1316.49 96.3305 1326.85 96.3305 Q1331.48 96.3305 1336 95.1152 Q1340.57 93.8421 1345.08 91.3537 L1345.08 101.192 Q1340.63 103.275 1335.82 104.317 Q1331.08 105.358 1325.7 105.358 Q1311.05 105.358 1302.43 96.1569 Q1293.81 86.9556 1293.81 71.3306 Q1293.81 55.4742 1302.49 46.3886 Q1311.23 37.303 1326.39 37.303 Q1331.31 37.303 1336 38.3447 Q1340.68 39.3285 1345.08 41.3539 Z" fill="#bebebe" fill-rule="evenodd" fill-opacity="1" /><path clip-path="url(#clip340)" d="M 0 0 M1385.71 71.0992 Q1372.8 71.0992 1367.82 74.0505 Q1362.85 77.0019 1362.85 84.1199 Q1362.85 89.7912 1366.55 93.1476 Q1370.31 96.4462 1376.74 96.4462 Q1385.59 96.4462 1390.91 90.1963 Q1396.3 83.8884 1396.3 73.4718 L1396.3 71.0992 L1385.71 71.0992 M1406.94 66.701 L1406.94 103.68 L1396.3 103.68 L1396.3 93.8421 Q1392.65 99.7448 1387.21 102.58 Q1381.77 105.358 1373.9 105.358 Q1363.95 105.358 1358.04 99.8027 Q1352.2 94.1893 1352.2 84.8144 Q1352.2 73.8769 1359.49 68.3214 Q1366.84 62.7659 1381.37 62.7659 L1396.3 62.7659 L1396.3 61.7242 Q1396.3 54.3747 1391.44 50.3817 Q1386.63 46.3308 1377.89 46.3308 Q1372.34 46.3308 1367.07 47.6618 Q1361.81 48.9928 1356.95 51.6548 L1356.95 41.8169 Q1362.79 39.56 1368.29 38.4604 Q1373.79 37.303 1378.99 37.303 Q1393.06 37.303 1400 44.5947 Q1406.94 51.8863 1406.94 66.701 Z" fill="#bebebe" fill-rule="evenodd" fill-opacity="1" /><path clip-path="url(#clip340)" d="M 0 0 M1428.65 20.4629 L1428.65 38.8655 L1450.58 38.8655 L1450.58 47.141 L1428.65 47.141 L1428.65 82.3259 Q1428.65 90.2541 1430.79 92.5111 Q1432.99 94.768 1439.64 94.768 L1450.58 94.768 L1450.58 103.68 L1439.64 103.68 Q1427.32 103.68 1422.63 99.1083 Q1417.94 94.4787 1417.94 82.3259 L1417.94 47.141 L1410.13 47.141 L1410.13 38.8655 L1417.94 38.8655 L1417.94 20.4629 L1428.65 20.4629 Z" fill="#bebebe" fill-rule="evenodd" fill-opacity="1" /><path clip-path="url(#clip340)" d="M 0 0 M1472.28 20.4629 L1472.28 38.8655 L1494.21 38.8655 L1494.21 47.141 L1472.28 47.141 L1472.28 82.3259 Q1472.28 90.2541 1474.42 92.5111 Q1476.62 94.768 1483.28 94.768 L1494.21 94.768 L1494.21 103.68 L1483.28 103.68 Q1470.95 103.68 1466.26 99.1083 Q1461.57 94.4787 1461.57 82.3259 L1461.57 47.141 L1453.76 47.141 L1453.76 38.8655 L1461.57 38.8655 L1461.57 20.4629 L1472.28 20.4629 Z" fill="#bebebe" fill-rule="evenodd" fill-opacity="1" /><path clip-path="url(#clip340)" d="M 0 0 M1560.82 68.6107 L1560.82 73.819 L1511.86 73.819 Q1512.56 84.8144 1518.46 90.6014 Q1524.42 96.3305 1535.01 96.3305 Q1541.15 96.3305 1546.87 94.8259 Q1552.66 93.3213 1558.33 90.312 L1558.33 100.381 Q1552.6 102.812 1546.59 104.085 Q1540.57 105.358 1534.37 105.358 Q1518.87 105.358 1509.78 96.3305 Q1500.75 87.3028 1500.75 71.9093 Q1500.75 55.9951 1509.32 46.678 Q1517.94 37.303 1532.52 37.303 Q1545.6 37.303 1553.18 45.7521 Q1560.82 54.1432 1560.82 68.6107 M1550.17 65.4858 Q1550.06 56.7474 1545.25 51.5391 Q1540.51 46.3308 1532.64 46.3308 Q1523.73 46.3308 1518.34 51.3655 Q1513.02 56.4002 1512.21 65.5436 L1550.17 65.4858 Z" fill="#bebebe" fill-rule="evenodd" fill-opacity="1" /><path clip-path="url(#clip340)" d="M 0 0 M1609.55 48.8192 Q1607.75 47.7775 1605.61 47.3146 Q1603.53 46.7937 1600.98 46.7937 Q1591.96 46.7937 1587.09 52.6965 Q1582.29 58.5414 1582.29 69.5367 L1582.29 103.68 L1571.59 103.68 L1571.59 38.8655 L1582.29 38.8655 L1582.29 48.9349 Q1585.65 43.0322 1591.03 40.1965 Q1596.41 37.303 1604.11 37.303 Q1605.21 37.303 1606.54 37.4767 Q1607.87 37.5924 1609.49 37.8817 L1609.55 48.8192 Z" fill="#bebebe" fill-rule="evenodd" fill-opacity="1" /><path clip-path="url(#clip340)" d="M 0 0 M1630.79 17.28 L1630.79 49.3979 L1620.95 49.3979 L1620.95 17.28 L1630.79 17.28 Z" fill="#bebebe" fill-rule="evenodd" fill-opacity="1" /><path clip-path="url(#clip342)" d="M247.173 1186.39 L244.353 1194.5 L235.761 1194.68 L242.613 1199.88 L240.117 1208.1 L247.173 1203.19 L254.229 1208.1 L251.733 1199.88 L258.585 1194.68 L249.993 1194.5 L247.173 1186.39 Z" fill="#ffa500" fill-rule="evenodd" fill-opacity="0.5" stroke="#ff0000" stroke-opacity="0.5" stroke-width="3.2"/>
<path clip-path="url(#clip342)" d="M354.766 1036.62 L351.946 1044.73 L343.354 1044.91 L350.206 1050.11 L347.71 1058.33 L354.766 1053.42 L361.822 1058.33 L359.326 1050.11 L366.178 1044.91 L357.586 1044.73 L354.766 1036.62 Z" fill="#ffa500" fill-rule="evenodd" fill-opacity="0.5" stroke="#ff0000" stroke-opacity="0.5" stroke-width="3.2"/>
<path clip-path="url(#clip342)" d="M462.358 924.933 L459.538 933.045 L450.946 933.225 L457.798 938.421 L455.302 946.641 L462.358 941.733 L469.414 946.641 L466.918 938.421 L473.77 933.225 L465.178 933.045 L462.358 924.933 Z" fill="#ffa500" fill-rule="evenodd" fill-opacity="0.5" stroke="#ff0000" stroke-opacity="0.5" stroke-width="3.2"/>
<path clip-path="url(#clip342)" d="M569.95 719.212 L567.13 727.324 L558.538 727.504 L565.39 732.7 L562.894 740.92 L569.95 736.012 L577.006 740.92 L574.51 732.7 L581.362 727.504 L572.77 727.324 L569.95 719.212 Z" fill="#ffa500" fill-rule="evenodd" fill-opacity="0.5" stroke="#ff0000" stroke-opacity="0.5" stroke-width="3.2"/>
<path clip-path="url(#clip342)" d="M677.543 545.972 L674.723 554.084 L666.131 554.264 L672.983 559.46 L670.487 567.68 L677.543 562.772 L684.599 567.68 L682.103 559.46 L688.955 554.264 L680.363 554.084 L677.543 545.972 Z" fill="#ffa500" fill-rule="evenodd" fill-opacity="0.5" stroke="#ff0000" stroke-opacity="0.5" stroke-width="3.2"/>
<path clip-path="url(#clip342)" d="M785.135 296.312 L782.315 304.424 L773.723 304.604 L780.575 309.8 L778.079 318.02 L785.135 313.112 L792.191 318.02 L789.695 309.8 L796.547 304.604 L787.955 304.424 L785.135 296.312 Z" fill="#ffa500" fill-rule="evenodd" fill-opacity="0.5" stroke="#ff0000" stroke-opacity="0.5" stroke-width="3.2"/>
<path clip-path="url(#clip342)" d="M892.728 1205.44 L889.908 1213.56 L881.316 1213.74 L888.168 1218.93 L885.672 1227.15 L892.728 1222.24 L899.784 1227.15 L897.288 1218.93 L904.14 1213.74 L895.548 1213.56 L892.728 1205.44 Z" fill="#ffa500" fill-rule="evenodd" fill-opacity="0.5" stroke="#ff0000" stroke-opacity="0.5" stroke-width="3.2"/>
<path clip-path="url(#clip342)" d="M1000.32 965.059 L997.5 973.171 L988.908 973.351 L995.76 978.547 L993.264 986.767 L1000.32 981.859 L1007.38 986.767 L1004.88 978.547 L1011.73 973.351 L1003.14 973.171 L1000.32 965.059 Z" fill="#ffa500" fill-rule="evenodd" fill-opacity="0.5" stroke="#ff0000" stroke-opacity="0.5" stroke-width="3.2"/>
<path clip-path="url(#clip342)" d="M1107.91 1135.56 L1105.09 1143.67 L1096.5 1143.85 L1103.35 1149.05 L1100.86 1157.27 L1107.91 1152.36 L1114.97 1157.27 L1112.47 1149.05 L1119.32 1143.85 L1110.73 1143.67 L1107.91 1135.56 Z" fill="#ffa500" fill-rule="evenodd" fill-opacity="0.5" stroke="#ff0000" stroke-opacity="0.5" stroke-width="3.2"/>
<path clip-path="url(#clip342)" d="M1215.5 512.589 L1212.68 520.701 L1204.09 520.881 L1210.94 526.077 L1208.45 534.297 L1215.5 529.389 L1222.56 534.297 L1220.06 526.077 L1226.92 520.881 L1218.32 520.701 L1215.5 512.589 Z" fill="#ffa500" fill-rule="evenodd" fill-opacity="0.5" stroke="#ff0000" stroke-opacity="0.5" stroke-width="3.2"/>
<path clip-path="url(#clip342)" d="M1323.1 1148.29 L1320.28 1156.4 L1311.69 1156.58 L1318.54 1161.78 L1316.04 1170 L1323.1 1165.09 L1330.15 1170 L1327.66 1161.78 L1334.51 1156.58 L1325.92 1156.4 L1323.1 1148.29 Z" fill="#ffa500" fill-rule="evenodd" fill-opacity="0.5" stroke="#ff0000" stroke-opacity="0.5" stroke-width="3.2"/>
<path clip-path="url(#clip342)" d="M1430.69 774.428 L1427.87 782.54 L1419.28 782.72 L1426.13 787.916 L1423.63 796.136 L1430.69 791.228 L1437.75 796.136 L1435.25 787.916 L1442.1 782.72 L1433.51 782.54 L1430.69 774.428 Z" fill="#ffa500" fill-rule="evenodd" fill-opacity="0.5" stroke="#ff0000" stroke-opacity="0.5" stroke-width="3.2"/>
<path clip-path="url(#clip342)" d="M1538.28 1432.41 L1535.46 1440.52 L1526.87 1440.7 L1533.72 1445.9 L1531.23 1454.12 L1538.28 1449.21 L1545.34 1454.12 L1542.84 1445.9 L1549.69 1440.7 L1541.1 1440.52 L1538.28 1432.41 Z" fill="#ffa500" fill-rule="evenodd" fill-opacity="0.5" stroke="#ff0000" stroke-opacity="0.5" stroke-width="3.2"/>
<path clip-path="url(#clip342)" d="M1645.87 1212 L1643.05 1220.12 L1634.46 1220.3 L1641.31 1225.49 L1638.82 1233.71 L1645.87 1228.8 L1652.93 1233.71 L1650.43 1225.49 L1657.29 1220.3 L1648.69 1220.12 L1645.87 1212 Z" fill="#ffa500" fill-rule="evenodd" fill-opacity="0.5" stroke="#ff0000" stroke-opacity="0.5" stroke-width="3.2"/>
<path clip-path="url(#clip342)" d="M1753.47 1379.65 L1750.65 1387.77 L1742.05 1387.95 L1748.91 1393.14 L1746.41 1401.36 L1753.47 1396.45 L1760.52 1401.36 L1758.03 1393.14 L1764.88 1387.95 L1756.29 1387.77 L1753.47 1379.65 Z" fill="#ffa500" fill-rule="evenodd" fill-opacity="0.5" stroke="#ff0000" stroke-opacity="0.5" stroke-width="3.2"/>
<path clip-path="url(#clip342)" d="M1861.06 1095.42 L1858.24 1103.53 L1849.65 1103.71 L1856.5 1108.91 L1854 1117.13 L1861.06 1112.22 L1868.11 1117.13 L1865.62 1108.91 L1872.47 1103.71 L1863.88 1103.53 L1861.06 1095.42 Z" fill="#ffa500" fill-rule="evenodd" fill-opacity="0.5" stroke="#ff0000" stroke-opacity="0.5" stroke-width="3.2"/>
<path clip-path="url(#clip342)" d="M1968.65 618.963 L1965.83 627.075 L1957.24 627.255 L1964.09 632.451 L1961.6 640.671 L1968.65 635.763 L1975.71 640.671 L1973.21 632.451 L1980.06 627.255 L1971.47 627.075 L1968.65 618.963 Z" fill="#ffa500" fill-rule="evenodd" fill-opacity="0.5" stroke="#ff0000" stroke-opacity="0.5" stroke-width="3.2"/>
<path clip-path="url(#clip342)" d="M2076.24 195.182 L2073.42 203.294 L2064.83 203.474 L2071.68 208.67 L2069.19 216.89 L2076.24 211.982 L2083.3 216.89 L2080.8 208.67 L2087.66 203.474 L2079.06 203.294 L2076.24 195.182 Z" fill="#ffa500" fill-rule="evenodd" fill-opacity="0.5" stroke="#ff0000" stroke-opacity="0.5" stroke-width="3.2"/>
<path clip-path="url(#clip342)" d="M2183.84 759.702 L2181.02 767.814 L2172.42 767.994 L2179.28 773.19 L2176.78 781.41 L2183.84 776.502 L2190.89 781.41 L2188.4 773.19 L2195.25 767.994 L2186.66 767.814 L2183.84 759.702 Z" fill="#ffa500" fill-rule="evenodd" fill-opacity="0.5" stroke="#ff0000" stroke-opacity="0.5" stroke-width="3.2"/>
<path clip-path="url(#clip342)" d="M2291.43 545.771 L2288.61 553.883 L2280.02 554.063 L2286.87 559.259 L2284.37 567.479 L2291.43 562.571 L2298.48 567.479 L2295.99 559.259 L2302.84 554.063 L2294.25 553.883 L2291.43 545.771 Z" fill="#ffa500" fill-rule="evenodd" fill-opacity="0.5" stroke="#ff0000" stroke-opacity="0.5" stroke-width="3.2"/>
<path clip-path="url(#clip342)" d="M247.173 992.483 L219.173 1020.48 L247.173 1048.48 L275.173 1020.48 L247.173 992.483 Z" fill="#008000" fill-rule="evenodd" fill-opacity="1" stroke="#ff0000" stroke-opacity="1" stroke-width="3.2"/>
<path clip-path="url(#clip342)" d="M354.766 416.098 L326.766 444.098 L354.766 472.098 L382.766 444.098 L354.766 416.098 Z" fill="#008000" fill-rule="evenodd" fill-opacity="1" stroke="#ff0000" stroke-opacity="1" stroke-width="3.2"/>
<path clip-path="url(#clip342)" d="M462.358 159.111 L434.358 187.111 L462.358 215.111 L490.358 187.111 L462.358 159.111 Z" fill="#008000" fill-rule="evenodd" fill-opacity="1" stroke="#ff0000" stroke-opacity="1" stroke-width="3.2"/>
<path clip-path="url(#clip342)" d="M569.95 580.374 L541.95 608.374 L569.95 636.374 L597.95 608.374 L569.95 580.374 Z" fill="#008000" fill-rule="evenodd" fill-opacity="1" stroke="#ff0000" stroke-opacity="1" stroke-width="3.2"/>
<path clip-path="url(#clip342)" d="M677.543 1390.03 L649.543 1418.03 L677.543 1446.03 L705.543 1418.03 L677.543 1390.03 Z" fill="#008000" fill-rule="evenodd" fill-opacity="1" stroke="#ff0000" stroke-opacity="1" stroke-width="3.2"/>
<path clip-path="url(#clip342)" d="M785.135 1367.49 L757.135 1395.49 L785.135 1423.49 L813.135 1395.49 L785.135 1367.49 Z" fill="#008000" fill-rule="evenodd" fill-opacity="1" stroke="#ff0000" stroke-opacity="1" stroke-width="3.2"/>
<path clip-path="url(#clip342)" d="M892.728 1340.16 L864.728 1368.16 L892.728 1396.16 L920.728 1368.16 L892.728 1340.16 Z" fill="#008000" fill-rule="evenodd" fill-opacity="1" stroke="#ff0000" stroke-opacity="1" stroke-width="3.2"/>
<path clip-path="url(#clip342)" d="M1000.32 1040.84 L972.32 1068.84 L1000.32 1096.84 L1028.32 1068.84 L1000.32 1040.84 Z" fill="#008000" fill-rule="evenodd" fill-opacity="1" stroke="#ff0000" stroke-opacity="1" stroke-width="3.2"/>
<path clip-path="url(#clip342)" d="M1107.91 817.484 L1079.91 845.484 L1107.91 873.484 L1135.91 845.484 L1107.91 817.484 Z" fill="#008000" fill-rule="evenodd" fill-opacity="1" stroke="#ff0000" stroke-opacity="1" stroke-width="3.2"/>
<path clip-path="url(#clip342)" d="M1215.5 306.958 L1187.5 334.958 L1215.5 362.958 L1243.5 334.958 L1215.5 306.958 Z" fill="#008000" fill-rule="evenodd" fill-opacity="1" stroke="#ff0000" stroke-opacity="1" stroke-width="3.2"/>
<path clip-path="url(#clip342)" d="M1323.1 691.272 L1295.1 719.272 L1323.1 747.272 L1351.1 719.272 L1323.1 691.272 Z" fill="#008000" fill-rule="evenodd" fill-opacity="1" stroke="#ff0000" stroke-opacity="1" stroke-width="3.2"/>
<path clip-path="url(#clip342)" d="M1430.69 805.873 L1402.69 833.873 L1430.69 861.873 L1458.69 833.873 L1430.69 805.873 Z" fill="#008000" fill-rule="evenodd" fill-opacity="1" stroke="#ff0000" stroke-opacity="1" stroke-width="3.2"/>
<path clip-path="url(#clip342)" d="M1538.28 1133.63 L1510.28 1161.63 L1538.28 1189.63 L1566.28 1161.63 L1538.28 1133.63 Z" fill="#008000" fill-rule="evenodd" fill-opacity="1" stroke="#ff0000" stroke-opacity="1" stroke-width="3.2"/>
<path clip-path="url(#clip342)" d="M1645.87 500.574 L1617.87 528.574 L1645.87 556.574 L1673.87 528.574 L1645.87 500.574 Z" fill="#008000" fill-rule="evenodd" fill-opacity="1" stroke="#ff0000" stroke-opacity="1" stroke-width="3.2"/>
<path clip-path="url(#clip342)" d="M1753.47 509.497 L1725.47 537.497 L1753.47 565.497 L1781.47 537.497 L1753.47 509.497 Z" fill="#008000" fill-rule="evenodd" fill-opacity="1" stroke="#ff0000" stroke-opacity="1" stroke-width="3.2"/>
<path clip-path="url(#clip342)" d="M1861.06 1107.97 L1833.06 1135.97 L1861.06 1163.97 L1889.06 1135.97 L1861.06 1107.97 Z" fill="#008000" fill-rule="evenodd" fill-opacity="1" stroke="#ff0000" stroke-opacity="1" stroke-width="3.2"/>
<path clip-path="url(#clip342)" d="M1968.65 617.172 L1940.65 645.172 L1968.65 673.172 L1996.65 645.172 L1968.65 617.172 Z" fill="#008000" fill-rule="evenodd" fill-opacity="1" stroke="#ff0000" stroke-opacity="1" stroke-width="3.2"/>
<path clip-path="url(#clip342)" d="M2076.24 169.427 L2048.24 197.427 L2076.24 225.427 L2104.24 197.427 L2076.24 169.427 Z" fill="#008000" fill-rule="evenodd" fill-opacity="1" stroke="#ff0000" stroke-opacity="1" stroke-width="3.2"/>
<path clip-path="url(#clip342)" d="M2183.84 531.524 L2155.84 559.524 L2183.84 587.524 L2211.84 559.524 L2183.84 531.524 Z" fill="#008000" fill-rule="evenodd" fill-opacity="1" stroke="#ff0000" stroke-opacity="1" stroke-width="3.2"/>
<path clip-path="url(#clip342)" d="M2291.43 1204.11 L2263.43 1232.11 L2291.43 1260.11 L2319.43 1232.11 L2291.43 1204.11 Z" fill="#008000" fill-rule="evenodd" fill-opacity="1" stroke="#ff0000" stroke-opacity="1" stroke-width="3.2"/>
<path clip-path="url(#clip342)" d="M208.773 671.096 L266.373 704.696 L266.373 637.496 L208.773 671.096 Z" fill="#00008b" fill-rule="evenodd" fill-opacity="0.2" stroke="#ff0000" stroke-opacity="0.2" stroke-width="3.2"/>
<path clip-path="url(#clip342)" d="M316.366 974.321 L373.966 1007.92 L373.966 940.721 L316.366 974.321 Z" fill="#00008b" fill-rule="evenodd" fill-opacity="0.2" stroke="#ff0000" stroke-opacity="0.2" stroke-width="3.2"/>
<path clip-path="url(#clip342)" d="M423.958 489.746 L481.558 523.346 L481.558 456.146 L423.958 489.746 Z" fill="#00008b" fill-rule="evenodd" fill-opacity="0.2" stroke="#ff0000" stroke-opacity="0.2" stroke-width="3.2"/>
<path clip-path="url(#clip342)" d="M531.55 1224.12 L589.15 1257.72 L589.15 1190.52 L531.55 1224.12 Z" fill="#00008b" fill-rule="evenodd" fill-opacity="0.2" stroke="#ff0000" stroke-opacity="0.2" stroke-width="3.2"/>
<path clip-path="url(#clip342)" d="M639.143 814.865 L696.743 848.465 L696.743 781.265 L639.143 814.865 Z" fill="#00008b" fill-rule="evenodd" fill-opacity="0.2" stroke="#ff0000" stroke-opacity="0.2" stroke-width="3.2"/>
<path clip-path="url(#clip342)" d="M746.735 1004.35 L804.335 1037.95 L804.335 970.755 L746.735 1004.35 Z" fill="#00008b" fill-rule="evenodd" fill-opacity="0.2" stroke="#ff0000" stroke-opacity="0.2" stroke-width="3.2"/>
<path clip-path="url(#clip342)" d="M854.328 321.831 L911.928 355.431 L911.928 288.231 L854.328 321.831 Z" fill="#00008b" fill-rule="evenodd" fill-opacity="0.2" stroke="#ff0000" stroke-opacity="0.2" stroke-width="3.2"/>
<path clip-path="url(#clip342)" d="M961.92 493.901 L1019.52 527.501 L1019.52 460.301 L961.92 493.901 Z" fill="#00008b" fill-rule="evenodd" fill-opacity="0.2" stroke="#ff0000" stroke-opacity="0.2" stroke-width="3.2"/>
<path clip-path="url(#clip342)" d="M1069.51 402.984 L1127.11 436.584 L1127.11 369.384 L1069.51 402.984 Z" fill="#00008b" fill-rule="evenodd" fill-opacity="0.2" stroke="#ff0000" stroke-opacity="0.2" stroke-width="3.2"/>
<path clip-path="url(#clip342)" d="M1177.1 230.632 L1234.7 264.232 L1234.7 197.032 L1177.1 230.632 Z" fill="#00008b" fill-rule="evenodd" fill-opacity="0.2" stroke="#ff0000" stroke-opacity="0.2" stroke-width="3.2"/>
<path clip-path="url(#clip342)" d="M1284.7 1151.95 L1342.3 1185.55 L1342.3 1118.35 L1284.7 1151.95 Z" fill="#00008b" fill-rule="evenodd" fill-opacity="0.2" stroke="#ff0000" stroke-opacity="0.2" stroke-width="3.2"/>
<path clip-path="url(#clip342)" d="M1392.29 1230.5 L1449.89 1264.1 L1449.89 1196.9 L1392.29 1230.5 Z" fill="#00008b" fill-rule="evenodd" fill-opacity="0.2" stroke="#ff0000" stroke-opacity="0.2" stroke-width="3.2"/>
<path clip-path="url(#clip342)" d="M1499.88 903.925 L1557.48 937.525 L1557.48 870.325 L1499.88 903.925 Z" fill="#00008b" fill-rule="evenodd" fill-opacity="0.2" stroke="#ff0000" stroke-opacity="0.2" stroke-width="3.2"/>
<path clip-path="url(#clip342)" d="M1607.47 203.767 L1665.07 237.367 L1665.07 170.167 L1607.47 203.767 Z" fill="#00008b" fill-rule="evenodd" fill-opacity="0.2" stroke="#ff0000" stroke-opacity="0.2" stroke-width="3.2"/>
<path clip-path="url(#clip342)" d="M1715.07 445.125 L1772.67 478.725 L1772.67 411.525 L1715.07 445.125 Z" fill="#00008b" fill-rule="evenodd" fill-opacity="0.2" stroke="#ff0000" stroke-opacity="0.2" stroke-width="3.2"/>
<path clip-path="url(#clip342)" d="M1822.66 897.224 L1880.26 930.824 L1880.26 863.624 L1822.66 897.224 Z" fill="#00008b" fill-rule="evenodd" fill-opacity="0.2" stroke="#ff0000" stroke-opacity="0.2" stroke-width="3.2"/>
<path clip-path="url(#clip342)" d="M1930.25 1315.6 L1987.85 1349.2 L1987.85 1282 L1930.25 1315.6 Z" fill="#00008b" fill-rule="evenodd" fill-opacity="0.2" stroke="#ff0000" stroke-opacity="0.2" stroke-width="3.2"/>
<path clip-path="url(#clip342)" d="M2037.84 242.686 L2095.44 276.286 L2095.44 209.086 L2037.84 242.686 Z" fill="#00008b" fill-rule="evenodd" fill-opacity="0.2" stroke="#ff0000" stroke-opacity="0.2" stroke-width="3.2"/>
<path clip-path="url(#clip342)" d="M2145.44 409.591 L2203.04 443.191 L2203.04 375.991 L2145.44 409.591 Z" fill="#00008b" fill-rule="evenodd" fill-opacity="0.2" stroke="#ff0000" stroke-opacity="0.2" stroke-width="3.2"/>
<path clip-path="url(#clip342)" d="M2253.03 526.845 L2310.63 560.445 L2310.63 493.245 L2253.03 526.845 Z" fill="#00008b" fill-rule="evenodd" fill-opacity="0.2" stroke="#ff0000" stroke-opacity="0.2" stroke-width="3.2"/>
<path clip-path="url(#clip340)" d="
M1988.16 435.737 L2280.53 435.737 L2280.53 193.817 L1988.16 193.817  Z
  " fill="#ffffff" fill-rule="evenodd" fill-opacity="1"/>
<polyline clip-path="url(#clip340)" style="stroke:#000000; stroke-width:4; stroke-opacity:1; fill:none" points="
  1988.16,435.737 2280.53,435.737 2280.53,193.817 1988.16,193.817 1988.16,435.737 
  "/>
<path clip-path="url(#clip340)" d="M2084.47 228.697 L2078.45 246.002 L2060.12 246.386 L2074.74 257.471 L2069.42 275.007 L2084.47 264.537 L2099.52 275.007 L2094.2 257.471 L2108.81 246.386 L2090.48 246.002 L2084.47 228.697 Z" fill="#ffa500" fill-rule="evenodd" fill-opacity="0.5" stroke="#ff0000" stroke-opacity="0.5" stroke-width="6.82667"/>
<path clip-path="url(#clip340)" d="M 0 0 M2194.62 273.984 Q2192.81 278.614 2191.1 280.026 Q2189.39 281.438 2186.52 281.438 L2183.11 281.438 L2183.11 277.873 L2185.61 277.873 Q2187.37 277.873 2188.34 277.04 Q2189.32 276.206 2190.5 273.104 L2191.26 271.16 L2180.78 245.651 L2185.29 245.651 L2193.39 265.929 L2201.49 245.651 L2206.01 245.651 L2194.62 273.984 Z" fill="#bebebe" fill-rule="evenodd" fill-opacity="1" /><path clip-path="url(#clip340)" d="M 0 0 M2211.89 267.641 L2219.52 267.641 L2219.52 241.276 L2211.21 242.943 L2211.21 238.683 L2219.48 237.017 L2224.15 237.017 L2224.15 267.641 L2231.79 267.641 L2231.79 271.577 L2211.89 271.577 L2211.89 267.641 Z" fill="#bebebe" fill-rule="evenodd" fill-opacity="1" /><path clip-path="url(#clip340)" d="M2084.47 289.177 L2058.87 314.777 L2084.47 340.377 L2110.07 314.777 L2084.47 289.177 Z" fill="#008000" fill-rule="evenodd" fill-opacity="1" stroke="#ff0000" stroke-opacity="1" stroke-width="2.92571"/>
<path clip-path="url(#clip340)" d="M 0 0 M2194.62 334.464 Q2192.81 339.094 2191.1 340.506 Q2189.39 341.918 2186.52 341.918 L2183.11 341.918 L2183.11 338.353 L2185.61 338.353 Q2187.37 338.353 2188.34 337.52 Q2189.32 336.686 2190.5 333.584 L2191.26 331.64 L2180.78 306.131 L2185.29 306.131 L2193.39 326.409 L2201.49 306.131 L2206.01 306.131 L2194.62 334.464 Z" fill="#bebebe" fill-rule="evenodd" fill-opacity="1" /><path clip-path="url(#clip340)" d="M 0 0 M2215.1 328.121 L2231.42 328.121 L2231.42 332.057 L2209.48 332.057 L2209.48 328.121 Q2212.14 325.367 2216.72 320.737 Q2221.33 316.085 2222.51 314.742 Q2224.76 312.219 2225.64 310.483 Q2226.54 308.723 2226.54 307.034 Q2226.54 304.279 2224.59 302.543 Q2222.67 300.807 2219.57 300.807 Q2217.37 300.807 2214.92 301.571 Q2212.49 302.335 2209.71 303.886 L2209.71 299.163 Q2212.53 298.029 2214.99 297.45 Q2217.44 296.872 2219.48 296.872 Q2224.85 296.872 2228.04 299.557 Q2231.24 302.242 2231.24 306.733 Q2231.24 308.862 2230.43 310.784 Q2229.64 312.682 2227.53 315.274 Q2226.96 315.946 2223.85 319.163 Q2220.75 322.358 2215.1 328.121 Z" fill="#bebebe" fill-rule="evenodd" fill-opacity="1" /><path clip-path="url(#clip340)" d="M2063.99 375.257 L2094.71 393.177 L2094.71 357.337 L2063.99 375.257 Z" fill="#00008b" fill-rule="evenodd" fill-opacity="0.2" stroke="#ff0000" stroke-opacity="0.2" stroke-width="1.70667"/>
<path clip-path="url(#clip340)" d="M 0 0 M2194.62 394.944 Q2192.81 399.574 2191.1 400.986 Q2189.39 402.398 2186.52 402.398 L2183.11 402.398 L2183.11 398.833 L2185.61 398.833 Q2187.37 398.833 2188.34 398 Q2189.32 397.166 2190.5 394.064 L2191.26 392.12 L2180.78 366.611 L2185.29 366.611 L2193.39 386.889 L2201.49 366.611 L2206.01 366.611 L2194.62 394.944 Z" fill="#bebebe" fill-rule="evenodd" fill-opacity="1" /><path clip-path="url(#clip340)" d="M 0 0 M2225.24 373.902 Q2228.6 374.62 2230.47 376.889 Q2232.37 379.157 2232.37 382.49 Q2232.37 387.606 2228.85 390.407 Q2225.34 393.208 2218.85 393.208 Q2216.68 393.208 2214.36 392.768 Q2212.07 392.351 2209.62 391.495 L2209.62 386.981 Q2211.56 388.115 2213.88 388.694 Q2216.19 389.273 2218.71 389.273 Q2223.11 389.273 2225.4 387.537 Q2227.72 385.801 2227.72 382.49 Q2227.72 379.435 2225.57 377.722 Q2223.44 375.986 2219.62 375.986 L2215.59 375.986 L2215.59 372.143 L2219.8 372.143 Q2223.25 372.143 2225.08 370.778 Q2226.91 369.389 2226.91 366.796 Q2226.91 364.134 2225.01 362.722 Q2223.14 361.287 2219.62 361.287 Q2217.7 361.287 2215.5 361.703 Q2213.3 362.12 2210.66 363 L2210.66 358.833 Q2213.32 358.092 2215.64 357.722 Q2217.97 357.352 2220.03 357.352 Q2225.36 357.352 2228.46 359.782 Q2231.56 362.19 2231.56 366.31 Q2231.56 369.18 2229.92 371.171 Q2228.27 373.139 2225.24 373.902 Z" fill="#bebebe" fill-rule="evenodd" fill-opacity="1" /></svg>
