<?xml version="1.0" encoding="utf-8"?>
<svg xmlns="http://www.w3.org/2000/svg" xmlns:xlink="http://www.w3.org/1999/xlink" width="600" height="400" viewBox="0 0 2400 1600">
<defs>
  <clipPath id="clip360">
    <rect x="0" y="0" width="2400" height="1600"/>
  </clipPath>
</defs>
<path clip-path="url(#clip360)" d="
M0 1600 L2400 1600 L2400 0 L0 0  Z
  " fill="#ffffff" fill-rule="evenodd" fill-opacity="1"/>
<defs>
  <clipPath id="clip361">
    <rect x="480" y="0" width="1681" height="1600"/>
  </clipPath>
</defs>
<defs>
  <clipPath id="clip362">
    <rect x="161" y="47" width="2192" height="1440"/>
  </clipPath>
</defs>
<path clip-path="url(#clip362)" d="
M161.598 1401.43 L161.598 302.298 L963.618 47.2441 L2352.76 132.262 L2352.76 1231.39 L1550.74 1486.45 L161.598 1401.43  Z
  " fill="#ffffff" fill-rule="evenodd" fill-opacity="1"/>
<polyline clip-path="url(#clip362)" style="stroke:#000000; stroke-width:2; stroke-opacity:0.1; fill:none" points="
  346.525,1412.75 1148.54,1157.69 
  "/>
<polyline clip-path="url(#clip362)" style="stroke:#000000; stroke-width:2; stroke-opacity:0.1; fill:none" points="
  1148.54,1157.69 1148.54,58.562 
  "/>
<polyline clip-path="url(#clip362)" style="stroke:#000000; stroke-width:2; stroke-opacity:0.1; fill:none" points="
  637.749,1430.57 1439.77,1175.52 
  "/>
<polyline clip-path="url(#clip362)" style="stroke:#000000; stroke-width:2; stroke-opacity:0.1; fill:none" points="
  1439.77,1175.52 1439.77,76.3855 
  "/>
<polyline clip-path="url(#clip362)" style="stroke:#000000; stroke-width:2; stroke-opacity:0.1; fill:none" points="
  928.973,1448.39 1730.99,1193.34 
  "/>
<polyline clip-path="url(#clip362)" style="stroke:#000000; stroke-width:2; stroke-opacity:0.1; fill:none" points="
  1730.99,1193.34 1730.99,94.209 
  "/>
<polyline clip-path="url(#clip362)" style="stroke:#000000; stroke-width:2; stroke-opacity:0.1; fill:none" points="
  1220.2,1466.22 2022.22,1211.16 
  "/>
<polyline clip-path="url(#clip362)" style="stroke:#000000; stroke-width:2; stroke-opacity:0.1; fill:none" points="
  2022.22,1211.16 2022.22,112.033 
  "/>
<polyline clip-path="url(#clip362)" style="stroke:#000000; stroke-width:2; stroke-opacity:0.1; fill:none" points="
  1511.42,1484.04 2313.44,1228.99 
  "/>
<polyline clip-path="url(#clip362)" style="stroke:#000000; stroke-width:2; stroke-opacity:0.1; fill:none" points="
  2313.44,1228.99 2313.44,129.856 
  "/>
<polyline clip-path="url(#clip360)" style="stroke:#000000; stroke-width:4; stroke-opacity:1; fill:none" points="
  161.598,1401.43 1550.74,1486.45 
  "/>
<polyline clip-path="url(#clip360)" style="stroke:#000000; stroke-width:4; stroke-opacity:1; fill:none" points="
  346.525,1412.75 356.15,1409.69 
  "/>
<polyline clip-path="url(#clip360)" style="stroke:#000000; stroke-width:4; stroke-opacity:1; fill:none" points="
  637.749,1430.57 647.374,1427.51 
  "/>
<polyline clip-path="url(#clip360)" style="stroke:#000000; stroke-width:4; stroke-opacity:1; fill:none" points="
  928.973,1448.39 938.598,1445.33 
  "/>
<polyline clip-path="url(#clip360)" style="stroke:#000000; stroke-width:4; stroke-opacity:1; fill:none" points="
  1220.2,1466.22 1229.82,1463.16 
  "/>
<polyline clip-path="url(#clip360)" style="stroke:#000000; stroke-width:4; stroke-opacity:1; fill:none" points="
  1511.42,1484.04 1521.05,1480.98 
  "/>
<path clip-path="url(#clip360)" d="M 0 0 M317.178 1474.28 L333.498 1474.28 L333.498 1478.22 L311.553 1478.22 L311.553 1474.28 Q314.215 1471.53 318.799 1466.9 Q323.405 1462.25 324.586 1460.9 Q326.831 1458.38 327.711 1456.65 Q328.613 1454.89 328.613 1453.2 Q328.613 1450.44 326.669 1448.71 Q324.748 1446.97 321.646 1446.97 Q319.447 1446.97 316.993 1447.73 Q314.563 1448.5 311.785 1450.05 L311.785 1445.33 Q314.609 1444.19 317.062 1443.61 Q319.516 1443.03 321.553 1443.03 Q326.924 1443.03 330.118 1445.72 Q333.312 1448.41 333.312 1452.9 Q333.312 1455.03 332.502 1456.95 Q331.715 1458.84 329.609 1461.44 Q329.03 1462.11 325.928 1465.33 Q322.826 1468.52 317.178 1474.28 Z" fill="#000000" fill-rule="evenodd" fill-opacity="1" /><path clip-path="url(#clip360)" d="M 0 0 M616.759 1465.56 L604.953 1484.01 L616.759 1484.01 L616.759 1465.56 M615.532 1461.48 L621.411 1461.48 L621.411 1484.01 L626.342 1484.01 L626.342 1487.9 L621.411 1487.9 L621.411 1496.04 L616.759 1496.04 L616.759 1487.9 L601.157 1487.9 L601.157 1483.38 L615.532 1461.48 Z" fill="#000000" fill-rule="evenodd" fill-opacity="1" /><path clip-path="url(#clip360)" d="M 0 0 M905.378 1494.72 Q902.23 1494.72 900.378 1496.88 Q898.55 1499.03 898.55 1502.78 Q898.55 1506.51 900.378 1508.68 Q902.23 1510.83 905.378 1510.83 Q908.527 1510.83 910.355 1508.68 Q912.207 1506.51 912.207 1502.78 Q912.207 1499.03 910.355 1496.88 Q908.527 1494.72 905.378 1494.72 M914.661 1480.07 L914.661 1484.33 Q912.902 1483.5 911.096 1483.06 Q909.314 1482.62 907.554 1482.62 Q902.925 1482.62 900.471 1485.74 Q898.041 1488.87 897.693 1495.19 Q899.059 1493.17 901.119 1492.11 Q903.179 1491.02 905.656 1491.02 Q910.865 1491.02 913.874 1494.19 Q916.906 1497.34 916.906 1502.78 Q916.906 1508.1 913.758 1511.32 Q910.61 1514.54 905.378 1514.54 Q899.383 1514.54 896.212 1509.95 Q893.041 1505.35 893.041 1496.62 Q893.041 1488.43 896.929 1483.57 Q900.818 1478.68 907.369 1478.68 Q909.128 1478.68 910.911 1479.03 Q912.716 1479.38 914.661 1480.07 Z" fill="#000000" fill-rule="evenodd" fill-opacity="1" /><path clip-path="url(#clip360)" d="M 0 0 M1196.2 1515.28 Q1192.86 1515.28 1190.94 1517.06 Q1189.04 1518.84 1189.04 1521.97 Q1189.04 1525.09 1190.94 1526.88 Q1192.86 1528.66 1196.2 1528.66 Q1199.53 1528.66 1201.45 1526.88 Q1203.37 1525.07 1203.37 1521.97 Q1203.37 1518.84 1201.45 1517.06 Q1199.55 1515.28 1196.2 1515.28 M1191.52 1513.29 Q1188.51 1512.55 1186.82 1510.49 Q1185.16 1508.43 1185.16 1505.46 Q1185.16 1501.32 1188.1 1498.91 Q1191.06 1496.51 1196.2 1496.51 Q1201.36 1496.51 1204.3 1498.91 Q1207.24 1501.32 1207.24 1505.46 Q1207.24 1508.43 1205.55 1510.49 Q1203.88 1512.55 1200.9 1513.29 Q1204.28 1514.07 1206.15 1516.37 Q1208.05 1518.66 1208.05 1521.97 Q1208.05 1526.99 1204.97 1529.68 Q1201.91 1532.36 1196.2 1532.36 Q1190.48 1532.36 1187.4 1529.68 Q1184.35 1526.99 1184.35 1521.97 Q1184.35 1518.66 1186.24 1516.37 Q1188.14 1514.07 1191.52 1513.29 M1189.81 1505.9 Q1189.81 1508.59 1191.48 1510.09 Q1193.16 1511.6 1196.2 1511.6 Q1199.21 1511.6 1200.9 1510.09 Q1202.61 1508.59 1202.61 1505.9 Q1202.61 1503.22 1200.9 1501.71 Q1199.21 1500.21 1196.2 1500.21 Q1193.16 1500.21 1191.48 1501.71 Q1189.81 1503.22 1189.81 1505.9 Z" fill="#000000" fill-rule="evenodd" fill-opacity="1" /><path clip-path="url(#clip360)" d="M 0 0 M1464.3 1545.58 L1471.94 1545.58 L1471.94 1519.21 L1463.63 1520.88 L1463.63 1516.62 L1471.89 1514.95 L1476.56 1514.95 L1476.56 1545.58 L1484.2 1545.58 L1484.2 1549.51 L1464.3 1549.51 L1464.3 1545.58 Z" fill="#000000" fill-rule="evenodd" fill-opacity="1" /><path clip-path="url(#clip360)" d="M 0 0 M1499.27 1518.03 Q1495.66 1518.03 1493.83 1521.6 Q1492.03 1525.14 1492.03 1532.27 Q1492.03 1539.37 1493.83 1542.94 Q1495.66 1546.48 1499.27 1546.48 Q1502.91 1546.48 1504.71 1542.94 Q1506.54 1539.37 1506.54 1532.27 Q1506.54 1525.14 1504.71 1521.6 Q1502.91 1518.03 1499.27 1518.03 M1499.27 1514.33 Q1505.08 1514.33 1508.14 1518.94 Q1511.22 1523.52 1511.22 1532.27 Q1511.22 1541 1508.14 1545.6 Q1505.08 1550.18 1499.27 1550.18 Q1493.46 1550.18 1490.38 1545.6 Q1487.33 1541 1487.33 1532.27 Q1487.33 1523.52 1490.38 1518.94 Q1493.46 1514.33 1499.27 1514.33 Z" fill="#000000" fill-rule="evenodd" fill-opacity="1" /><polyline clip-path="url(#clip362)" style="stroke:#000000; stroke-width:2; stroke-opacity:0.1; fill:none" points="
  1657.5,1452.49 268.366,1367.48 
  "/>
<polyline clip-path="url(#clip362)" style="stroke:#000000; stroke-width:2; stroke-opacity:0.1; fill:none" points="
  268.366,1367.48 268.366,268.345 
  "/>
<polyline clip-path="url(#clip362)" style="stroke:#000000; stroke-width:2; stroke-opacity:0.1; fill:none" points="
  1825.64,1399.02 436.504,1314.01 
  "/>
<polyline clip-path="url(#clip362)" style="stroke:#000000; stroke-width:2; stroke-opacity:0.1; fill:none" points="
  436.504,1314.01 436.504,214.874 
  "/>
<polyline clip-path="url(#clip362)" style="stroke:#000000; stroke-width:2; stroke-opacity:0.1; fill:none" points="
  1993.78,1345.55 604.642,1260.53 
  "/>
<polyline clip-path="url(#clip362)" style="stroke:#000000; stroke-width:2; stroke-opacity:0.1; fill:none" points="
  604.642,1260.53 604.642,161.404 
  "/>
<polyline clip-path="url(#clip362)" style="stroke:#000000; stroke-width:2; stroke-opacity:0.1; fill:none" points="
  2161.92,1292.08 772.781,1207.06 
  "/>
<polyline clip-path="url(#clip362)" style="stroke:#000000; stroke-width:2; stroke-opacity:0.1; fill:none" points="
  772.781,1207.06 772.781,107.933 
  "/>
<polyline clip-path="url(#clip362)" style="stroke:#000000; stroke-width:2; stroke-opacity:0.1; fill:none" points="
  2330.06,1238.61 940.919,1153.59 
  "/>
<polyline clip-path="url(#clip362)" style="stroke:#000000; stroke-width:2; stroke-opacity:0.1; fill:none" points="
  940.919,1153.59 940.919,54.4626 
  "/>
<polyline clip-path="url(#clip360)" style="stroke:#000000; stroke-width:4; stroke-opacity:1; fill:none" points="
  1550.74,1486.45 2352.76,1231.39 
  "/>
<polyline clip-path="url(#clip360)" style="stroke:#000000; stroke-width:4; stroke-opacity:1; fill:none" points="
  1657.5,1452.49 1640.83,1451.47 
  "/>
<polyline clip-path="url(#clip360)" style="stroke:#000000; stroke-width:4; stroke-opacity:1; fill:none" points="
  1825.64,1399.02 1808.97,1398 
  "/>
<polyline clip-path="url(#clip360)" style="stroke:#000000; stroke-width:4; stroke-opacity:1; fill:none" points="
  1993.78,1345.55 1977.11,1344.53 
  "/>
<polyline clip-path="url(#clip360)" style="stroke:#000000; stroke-width:4; stroke-opacity:1; fill:none" points="
  2161.92,1292.08 2145.25,1291.06 
  "/>
<polyline clip-path="url(#clip360)" style="stroke:#000000; stroke-width:4; stroke-opacity:1; fill:none" points="
  2330.06,1238.61 2313.39,1237.59 
  "/>
<path clip-path="url(#clip360)" d="M 0 0 M1676.16 1514.03 L1692.48 1514.03 L1692.48 1517.97 L1670.53 1517.97 L1670.53 1514.03 Q1673.19 1511.28 1677.78 1506.65 Q1682.38 1501.99 1683.56 1500.65 Q1685.81 1498.13 1686.69 1496.39 Q1687.59 1494.63 1687.59 1492.94 Q1687.59 1490.19 1685.65 1488.45 Q1683.73 1486.72 1680.62 1486.72 Q1678.43 1486.72 1675.97 1487.48 Q1673.54 1488.24 1670.76 1489.79 L1670.76 1485.07 Q1673.59 1483.94 1676.04 1483.36 Q1678.5 1482.78 1680.53 1482.78 Q1685.9 1482.78 1689.1 1485.47 Q1692.29 1488.15 1692.29 1492.64 Q1692.29 1494.77 1691.48 1496.69 Q1690.69 1498.59 1688.59 1501.18 Q1688.01 1501.86 1684.91 1505.07 Q1681.81 1508.27 1676.16 1514.03 Z" fill="#000000" fill-rule="evenodd" fill-opacity="1" /><path clip-path="url(#clip360)" d="M 0 0 M1852.65 1434.01 L1840.85 1452.46 L1852.65 1452.46 L1852.65 1434.01 M1851.42 1429.94 L1857.3 1429.94 L1857.3 1452.46 L1862.24 1452.46 L1862.24 1456.35 L1857.3 1456.35 L1857.3 1464.5 L1852.65 1464.5 L1852.65 1456.35 L1837.05 1456.35 L1837.05 1451.83 L1851.42 1429.94 Z" fill="#000000" fill-rule="evenodd" fill-opacity="1" /><path clip-path="url(#clip360)" d="M 0 0 M2018.19 1391.88 Q2015.04 1391.88 2013.19 1394.03 Q2011.36 1396.19 2011.36 1399.94 Q2011.36 1403.66 2013.19 1405.84 Q2015.04 1407.99 2018.19 1407.99 Q2021.33 1407.99 2023.16 1405.84 Q2025.01 1403.66 2025.01 1399.94 Q2025.01 1396.19 2023.16 1394.03 Q2021.33 1391.88 2018.19 1391.88 M2027.47 1377.23 L2027.47 1381.49 Q2025.71 1380.65 2023.9 1380.22 Q2022.12 1379.78 2020.36 1379.78 Q2015.73 1379.78 2013.28 1382.9 Q2010.85 1386.03 2010.5 1392.34 Q2011.87 1390.33 2013.93 1389.27 Q2015.99 1388.18 2018.46 1388.18 Q2023.67 1388.18 2026.68 1391.35 Q2029.71 1394.5 2029.71 1399.94 Q2029.71 1405.26 2026.57 1408.48 Q2023.42 1411.7 2018.19 1411.7 Q2012.19 1411.7 2009.02 1407.11 Q2005.85 1402.51 2005.85 1393.78 Q2005.85 1385.59 2009.74 1380.72 Q2013.63 1375.84 2020.18 1375.84 Q2021.94 1375.84 2023.72 1376.19 Q2025.52 1376.53 2027.47 1377.23 Z" fill="#000000" fill-rule="evenodd" fill-opacity="1" /><path clip-path="url(#clip360)" d="M 0 0 M2185.92 1341.14 Q2182.59 1341.14 2180.66 1342.93 Q2178.77 1344.71 2178.77 1347.83 Q2178.77 1350.96 2180.66 1352.74 Q2182.59 1354.52 2185.92 1354.52 Q2189.25 1354.52 2191.17 1352.74 Q2193.09 1350.93 2193.09 1347.83 Q2193.09 1344.71 2191.17 1342.93 Q2189.28 1341.14 2185.92 1341.14 M2181.24 1339.15 Q2178.23 1338.41 2176.54 1336.35 Q2174.88 1334.29 2174.88 1331.33 Q2174.88 1327.18 2177.82 1324.78 Q2180.78 1322.37 2185.92 1322.37 Q2191.08 1322.37 2194.02 1324.78 Q2196.96 1327.18 2196.96 1331.33 Q2196.96 1334.29 2195.27 1336.35 Q2193.6 1338.41 2190.62 1339.15 Q2194 1339.94 2195.87 1342.23 Q2197.77 1344.52 2197.77 1347.83 Q2197.77 1352.86 2194.69 1355.54 Q2191.64 1358.23 2185.92 1358.23 Q2180.2 1358.23 2177.12 1355.54 Q2174.07 1352.86 2174.07 1347.83 Q2174.07 1344.52 2175.97 1342.23 Q2177.86 1339.94 2181.24 1339.15 M2179.53 1331.77 Q2179.53 1334.45 2181.2 1335.96 Q2182.89 1337.46 2185.92 1337.46 Q2188.93 1337.46 2190.62 1335.96 Q2192.33 1334.45 2192.33 1331.77 Q2192.33 1329.08 2190.62 1327.58 Q2188.93 1326.07 2185.92 1326.07 Q2182.89 1326.07 2181.2 1327.58 Q2179.53 1329.08 2179.53 1331.77 Z" fill="#000000" fill-rule="evenodd" fill-opacity="1" /><path clip-path="url(#clip360)" d="M 0 0 M2330.93 1300.15 L2338.57 1300.15 L2338.57 1273.78 L2330.26 1275.45 L2330.26 1271.19 L2338.52 1269.52 L2343.2 1269.52 L2343.2 1300.15 L2350.84 1300.15 L2350.84 1304.08 L2330.93 1304.08 L2330.93 1300.15 Z" fill="#000000" fill-rule="evenodd" fill-opacity="1" /><path clip-path="url(#clip360)" d="M 0 0 M2365.91 1272.6 Q2362.3 1272.6 2360.47 1276.17 Q2358.66 1279.71 2358.66 1286.84 Q2358.66 1293.95 2360.47 1297.51 Q2362.3 1301.05 2365.91 1301.05 Q2369.54 1301.05 2371.35 1297.51 Q2373.18 1293.95 2373.18 1286.84 Q2373.18 1279.71 2371.35 1276.17 Q2369.54 1272.6 2365.91 1272.6 M2365.91 1268.9 Q2371.72 1268.9 2374.77 1273.51 Q2377.85 1278.09 2377.85 1286.84 Q2377.85 1295.57 2374.77 1300.17 Q2371.72 1304.76 2365.91 1304.76 Q2360.1 1304.76 2357.02 1300.17 Q2353.96 1295.57 2353.96 1286.84 Q2353.96 1278.09 2357.02 1273.51 Q2360.1 1268.9 2365.91 1268.9 Z" fill="#000000" fill-rule="evenodd" fill-opacity="1" /><polyline clip-path="url(#clip362)" style="stroke:#000000; stroke-width:2; stroke-opacity:0.1; fill:none" points="
  161.598,1380.8 963.618,1125.74 
  "/>
<polyline clip-path="url(#clip362)" style="stroke:#000000; stroke-width:2; stroke-opacity:0.1; fill:none" points="
  963.618,1125.74 2352.76,1210.76 
  "/>
<polyline clip-path="url(#clip362)" style="stroke:#000000; stroke-width:2; stroke-opacity:0.1; fill:none" points="
  161.598,1118.95 963.618,863.894 
  "/>
<polyline clip-path="url(#clip362)" style="stroke:#000000; stroke-width:2; stroke-opacity:0.1; fill:none" points="
  963.618,863.894 2352.76,948.912 
  "/>
<polyline clip-path="url(#clip362)" style="stroke:#000000; stroke-width:2; stroke-opacity:0.1; fill:none" points="
  161.598,857.101 963.618,602.047 
  "/>
<polyline clip-path="url(#clip362)" style="stroke:#000000; stroke-width:2; stroke-opacity:0.1; fill:none" points="
  963.618,602.047 2352.76,687.065 
  "/>
<polyline clip-path="url(#clip362)" style="stroke:#000000; stroke-width:2; stroke-opacity:0.1; fill:none" points="
  161.598,595.253 963.618,340.199 
  "/>
<polyline clip-path="url(#clip362)" style="stroke:#000000; stroke-width:2; stroke-opacity:0.1; fill:none" points="
  963.618,340.199 2352.76,425.217 
  "/>
<polyline clip-path="url(#clip362)" style="stroke:#000000; stroke-width:2; stroke-opacity:0.1; fill:none" points="
  161.598,333.406 963.618,78.3516 
  "/>
<polyline clip-path="url(#clip362)" style="stroke:#000000; stroke-width:2; stroke-opacity:0.1; fill:none" points="
  963.618,78.3516 2352.76,163.37 
  "/>
<polyline clip-path="url(#clip360)" style="stroke:#000000; stroke-width:4; stroke-opacity:1; fill:none" points="
  161.598,1401.43 161.598,302.298 
  "/>
<polyline clip-path="url(#clip360)" style="stroke:#000000; stroke-width:4; stroke-opacity:1; fill:none" points="
  161.598,1380.8 171.222,1377.74 
  "/>
<polyline clip-path="url(#clip360)" style="stroke:#000000; stroke-width:4; stroke-opacity:1; fill:none" points="
  161.598,1118.95 171.222,1115.89 
  "/>
<polyline clip-path="url(#clip360)" style="stroke:#000000; stroke-width:4; stroke-opacity:1; fill:none" points="
  161.598,857.101 171.222,854.04 
  "/>
<polyline clip-path="url(#clip360)" style="stroke:#000000; stroke-width:4; stroke-opacity:1; fill:none" points="
  161.598,595.253 171.222,592.193 
  "/>
<polyline clip-path="url(#clip360)" style="stroke:#000000; stroke-width:4; stroke-opacity:1; fill:none" points="
  161.598,333.406 171.222,330.345 
  "/>
<path clip-path="url(#clip360)" d="M 0 0 M125.654 1366.59 Q122.043 1366.59 120.214 1370.16 Q118.408 1373.7 118.408 1380.83 Q118.408 1387.94 120.214 1391.5 Q122.043 1395.04 125.654 1395.04 Q129.288 1395.04 131.094 1391.5 Q132.922 1387.94 132.922 1380.83 Q132.922 1373.7 131.094 1370.16 Q129.288 1366.59 125.654 1366.59 M125.654 1362.89 Q131.464 1362.89 134.52 1367.5 Q137.598 1372.08 137.598 1380.83 Q137.598 1389.56 134.52 1394.16 Q131.464 1398.75 125.654 1398.75 Q119.844 1398.75 116.765 1394.16 Q113.709 1389.56 113.709 1380.83 Q113.709 1372.08 116.765 1367.5 Q119.844 1362.89 125.654 1362.89 Z" fill="#000000" fill-rule="evenodd" fill-opacity="1" /><path clip-path="url(#clip360)" d="M 0 0 M95.2605 1132.29 L111.58 1132.29 L111.58 1136.23 L89.6355 1136.23 L89.6355 1132.29 Q92.2975 1129.54 96.8808 1124.91 Q101.487 1120.26 102.668 1118.91 Q104.913 1116.39 105.793 1114.65 Q106.696 1112.9 106.696 1111.21 Q106.696 1108.45 104.751 1106.71 Q102.83 1104.98 99.728 1104.98 Q97.529 1104.98 95.0753 1105.74 Q92.6447 1106.51 89.867 1108.06 L89.867 1103.34 Q92.691 1102.2 95.1447 1101.62 Q97.5984 1101.04 99.6354 1101.04 Q105.006 1101.04 108.2 1103.73 Q111.395 1106.41 111.395 1110.9 Q111.395 1113.03 110.584 1114.96 Q109.797 1116.85 107.691 1119.45 Q107.112 1120.12 104.01 1123.34 Q100.909 1126.53 95.2605 1132.29 Z" fill="#000000" fill-rule="evenodd" fill-opacity="1" /><path clip-path="url(#clip360)" d="M 0 0 M116.696 1101.67 L135.052 1101.67 L135.052 1105.6 L120.978 1105.6 L120.978 1114.08 Q121.996 1113.73 123.015 1113.57 Q124.033 1113.38 125.052 1113.38 Q130.839 1113.38 134.219 1116.55 Q137.598 1119.72 137.598 1125.14 Q137.598 1130.72 134.126 1133.82 Q130.654 1136.9 124.334 1136.9 Q122.158 1136.9 119.89 1136.53 Q117.645 1136.16 115.237 1135.42 L115.237 1130.72 Q117.321 1131.85 119.543 1132.41 Q121.765 1132.96 124.242 1132.96 Q128.246 1132.96 130.584 1130.86 Q132.922 1128.75 132.922 1125.14 Q132.922 1121.53 130.584 1119.42 Q128.246 1117.32 124.242 1117.32 Q122.367 1117.32 120.492 1117.73 Q118.64 1118.15 116.696 1119.03 L116.696 1101.67 Z" fill="#000000" fill-rule="evenodd" fill-opacity="1" /><path clip-path="url(#clip360)" d="M 0 0 M89.6818 839.821 L108.038 839.821 L108.038 843.756 L93.9642 843.756 L93.9642 852.228 Q94.9827 851.881 96.0012 851.719 Q97.0197 851.534 98.0382 851.534 Q103.825 851.534 107.205 854.705 Q110.584 857.877 110.584 863.293 Q110.584 868.872 107.112 871.974 Q103.64 875.052 97.3206 875.052 Q95.1447 875.052 92.8762 874.682 Q90.6309 874.312 88.2235 873.571 L88.2235 868.872 Q90.3068 870.006 92.529 870.562 Q94.7512 871.117 97.2281 871.117 Q101.233 871.117 103.571 869.011 Q105.909 866.904 105.909 863.293 Q105.909 859.682 103.571 857.576 Q101.233 855.469 97.2281 855.469 Q95.3531 855.469 93.4781 855.886 Q91.6262 856.302 89.6818 857.182 L89.6818 839.821 Z" fill="#000000" fill-rule="evenodd" fill-opacity="1" /><path clip-path="url(#clip360)" d="M 0 0 M125.654 842.9 Q122.043 842.9 120.214 846.465 Q118.408 850.006 118.408 857.136 Q118.408 864.242 120.214 867.807 Q122.043 871.349 125.654 871.349 Q129.288 871.349 131.094 867.807 Q132.922 864.242 132.922 857.136 Q132.922 850.006 131.094 846.465 Q129.288 842.9 125.654 842.9 M125.654 839.196 Q131.464 839.196 134.52 843.803 Q137.598 848.386 137.598 857.136 Q137.598 865.863 134.52 870.469 Q131.464 875.052 125.654 875.052 Q119.844 875.052 116.765 870.469 Q113.709 865.863 113.709 857.136 Q113.709 848.386 116.765 843.803 Q119.844 839.196 125.654 839.196 Z" fill="#000000" fill-rule="evenodd" fill-opacity="1" /><path clip-path="url(#clip360)" d="M 0 0 M89.3577 577.973 L111.58 577.973 L111.58 579.964 L99.0336 612.533 L94.1494 612.533 L105.955 581.909 L89.3577 581.909 L89.3577 577.973 Z" fill="#000000" fill-rule="evenodd" fill-opacity="1" /><path clip-path="url(#clip360)" d="M 0 0 M116.696 577.973 L135.052 577.973 L135.052 581.909 L120.978 581.909 L120.978 590.381 Q121.996 590.034 123.015 589.872 Q124.033 589.686 125.052 589.686 Q130.839 589.686 134.219 592.858 Q137.598 596.029 137.598 601.446 Q137.598 607.024 134.126 610.126 Q130.654 613.205 124.334 613.205 Q122.158 613.205 119.89 612.834 Q117.645 612.464 115.237 611.723 L115.237 607.024 Q117.321 608.158 119.543 608.714 Q121.765 609.27 124.242 609.27 Q128.246 609.27 130.584 607.163 Q132.922 605.057 132.922 601.446 Q132.922 597.834 130.584 595.728 Q128.246 593.622 124.242 593.622 Q122.367 593.622 120.492 594.038 Q118.64 594.455 116.696 595.334 L116.696 577.973 Z" fill="#000000" fill-rule="evenodd" fill-opacity="1" /><path clip-path="url(#clip360)" d="M 0 0 M63.6634 346.751 L71.3023 346.751 L71.3023 320.385 L62.9921 322.052 L62.9921 317.793 L71.256 316.126 L75.9319 316.126 L75.9319 346.751 L83.5707 346.751 L83.5707 350.686 L63.6634 350.686 L63.6634 346.751 Z" fill="#000000" fill-rule="evenodd" fill-opacity="1" /><path clip-path="url(#clip360)" d="M 0 0 M98.6401 319.205 Q95.029 319.205 93.2003 322.769 Q91.3948 326.311 91.3948 333.441 Q91.3948 340.547 93.2003 344.112 Q95.029 347.654 98.6401 347.654 Q102.274 347.654 104.08 344.112 Q105.909 340.547 105.909 333.441 Q105.909 326.311 104.08 322.769 Q102.274 319.205 98.6401 319.205 M98.6401 315.501 Q104.45 315.501 107.506 320.107 Q110.584 324.691 110.584 333.441 Q110.584 342.167 107.506 346.774 Q104.45 351.357 98.6401 351.357 Q92.8299 351.357 89.7512 346.774 Q86.6957 342.167 86.6957 333.441 Q86.6957 324.691 89.7512 320.107 Q92.8299 315.501 98.6401 315.501 Z" fill="#000000" fill-rule="evenodd" fill-opacity="1" /><path clip-path="url(#clip360)" d="M 0 0 M125.654 319.205 Q122.043 319.205 120.214 322.769 Q118.408 326.311 118.408 333.441 Q118.408 340.547 120.214 344.112 Q122.043 347.654 125.654 347.654 Q129.288 347.654 131.094 344.112 Q132.922 340.547 132.922 333.441 Q132.922 326.311 131.094 322.769 Q129.288 319.205 125.654 319.205 M125.654 315.501 Q131.464 315.501 134.52 320.107 Q137.598 324.691 137.598 333.441 Q137.598 342.167 134.52 346.774 Q131.464 351.357 125.654 351.357 Q119.844 351.357 116.765 346.774 Q113.709 342.167 113.709 333.441 Q113.709 324.691 116.765 320.107 Q119.844 315.501 125.654 315.501 Z" fill="#000000" fill-rule="evenodd" fill-opacity="1" /><polyline clip-path="url(#clip362)" style="stroke:#e69f00; stroke-width:4; stroke-opacity:1; fill:none" points="
  223.612,1365.51 453.293,1316.26 682.974,1246.07 912.655,1154.93 1142.34,1042.84 1372.02,909.806 1601.7,755.822 1831.38,580.89 2061.06,385.01 2290.74,168.182 
  
  "/>
<path clip-path="url(#clip360)" d="
M1985.24 216.178 L2279.72 216.178 L2279.72 95.2176 L1985.24 95.2176  Z
  " fill="#ffffff" fill-rule="evenodd" fill-opacity="1"/>
<polyline clip-path="url(#clip360)" style="stroke:#000000; stroke-width:4; stroke-opacity:1; fill:none" points="
  1985.24,216.178 2279.72,216.178 2279.72,95.2176 1985.24,95.2176 1985.24,216.178 
  "/>
<polyline clip-path="url(#clip360)" style="stroke:#e69f00; stroke-width:4; stroke-opacity:1; fill:none" points="
  2009.58,155.698 2155.66,155.698 
  "/>
<path clip-path="url(#clip360)" d="M 0 0 M2193.85 175.385 Q2192.04 180.015 2190.33 181.427 Q2188.62 182.839 2185.75 182.839 L2182.34 182.839 L2182.34 179.274 L2184.84 179.274 Q2186.6 179.274 2187.58 178.44 Q2188.55 177.607 2189.73 174.505 L2190.49 172.561 L2180.01 147.052 L2184.52 147.052 L2192.62 167.329 L2200.72 147.052 L2205.24 147.052 L2193.85 175.385 Z" fill="#000000" fill-rule="evenodd" fill-opacity="1" /><path clip-path="url(#clip360)" d="M 0 0 M2211.12 169.042 L2218.76 169.042 L2218.76 142.677 L2210.45 144.343 L2210.45 140.084 L2218.71 138.418 L2223.39 138.418 L2223.39 169.042 L2231.02 169.042 L2231.02 172.978 L2211.12 172.978 L2211.12 169.042 Z" fill="#000000" fill-rule="evenodd" fill-opacity="1" /></svg>
