<?xml version="1.0" encoding="utf-8"?>
<svg xmlns="http://www.w3.org/2000/svg" xmlns:xlink="http://www.w3.org/1999/xlink" width="600" height="400" viewBox="0 0 2400 1600">
<defs>
  <clipPath id="clip400">
    <rect x="0" y="0" width="2400" height="1600"/>
  </clipPath>
</defs>
<path clip-path="url(#clip400)" d="
M0 1600 L2400 1600 L2400 0 L0 0  Z
  " fill="#ffffff" fill-rule="evenodd" fill-opacity="1"/>
<defs>
  <clipPath id="clip401">
    <rect x="480" y="0" width="1681" height="1600"/>
  </clipPath>
</defs>
<path clip-path="url(#clip400)" d="
M171.552 1486.45 L2352.76 1486.45 L2352.76 47.2441 L171.552 47.2441  Z
  " fill="#ffffff" fill-rule="evenodd" fill-opacity="1"/>
<defs>
  <clipPath id="clip402">
    <rect x="171" y="47" width="2182" height="1440"/>
  </clipPath>
</defs>
<polyline clip-path="url(#clip402)" style="stroke:#000000; stroke-width:2; stroke-opacity:0.1; fill:none" points="
  461.922,1486.45 461.922,47.2441 
  "/>
<polyline clip-path="url(#clip402)" style="stroke:#000000; stroke-width:2; stroke-opacity:0.1; fill:none" points="
  919.197,1486.45 919.197,47.2441 
  "/>
<polyline clip-path="url(#clip402)" style="stroke:#000000; stroke-width:2; stroke-opacity:0.1; fill:none" points="
  1376.47,1486.45 1376.47,47.2441 
  "/>
<polyline clip-path="url(#clip402)" style="stroke:#000000; stroke-width:2; stroke-opacity:0.1; fill:none" points="
  1833.75,1486.45 1833.75,47.2441 
  "/>
<polyline clip-path="url(#clip402)" style="stroke:#000000; stroke-width:2; stroke-opacity:0.1; fill:none" points="
  2291.02,1486.45 2291.02,47.2441 
  "/>
<polyline clip-path="url(#clip400)" style="stroke:#000000; stroke-width:4; stroke-opacity:1; fill:none" points="
  171.552,1486.45 2352.76,1486.45 
  "/>
<polyline clip-path="url(#clip400)" style="stroke:#000000; stroke-width:4; stroke-opacity:1; fill:none" points="
  461.922,1486.45 461.922,1469.18 
  "/>
<polyline clip-path="url(#clip400)" style="stroke:#000000; stroke-width:4; stroke-opacity:1; fill:none" points="
  919.197,1486.45 919.197,1469.18 
  "/>
<polyline clip-path="url(#clip400)" style="stroke:#000000; stroke-width:4; stroke-opacity:1; fill:none" points="
  1376.47,1486.45 1376.47,1469.18 
  "/>
<polyline clip-path="url(#clip400)" style="stroke:#000000; stroke-width:4; stroke-opacity:1; fill:none" points="
  1833.75,1486.45 1833.75,1469.18 
  "/>
<polyline clip-path="url(#clip400)" style="stroke:#000000; stroke-width:4; stroke-opacity:1; fill:none" points="
  2291.02,1486.45 2291.02,1469.18 
  "/>
<path clip-path="url(#clip400)" d="M 0 0 M456.575 1543.18 L472.894 1543.18 L472.894 1547.12 L450.95 1547.12 L450.95 1543.18 Q453.612 1540.43 458.195 1535.8 Q462.801 1531.15 463.982 1529.81 Q466.227 1527.28 467.107 1525.55 Q468.01 1523.79 468.01 1522.1 Q468.01 1519.34 466.065 1517.61 Q464.144 1515.87 461.042 1515.87 Q458.843 1515.87 456.389 1516.63 Q453.959 1517.4 451.181 1518.95 L451.181 1514.23 Q454.005 1513.09 456.459 1512.51 Q458.913 1511.93 460.95 1511.93 Q466.32 1511.93 469.514 1514.62 Q472.709 1517.31 472.709 1521.8 Q472.709 1523.93 471.899 1525.85 Q471.112 1527.74 469.005 1530.34 Q468.426 1531.01 465.325 1534.23 Q462.223 1537.42 456.575 1543.18 Z" fill="#000000" fill-rule="evenodd" fill-opacity="1" /><path clip-path="url(#clip400)" d="M 0 0 M922.207 1516.63 L910.401 1535.08 L922.207 1535.08 L922.207 1516.63 M920.98 1512.56 L926.859 1512.56 L926.859 1535.08 L931.79 1535.08 L931.79 1538.97 L926.859 1538.97 L926.859 1547.12 L922.207 1547.12 L922.207 1538.97 L906.605 1538.97 L906.605 1534.46 L920.98 1512.56 Z" fill="#000000" fill-rule="evenodd" fill-opacity="1" /><path clip-path="url(#clip400)" d="M 0 0 M1376.88 1527.98 Q1373.73 1527.98 1371.88 1530.13 Q1370.05 1532.28 1370.05 1536.03 Q1370.05 1539.76 1371.88 1541.93 Q1373.73 1544.09 1376.88 1544.09 Q1380.03 1544.09 1381.85 1541.93 Q1383.71 1539.76 1383.71 1536.03 Q1383.71 1532.28 1381.85 1530.13 Q1380.03 1527.98 1376.88 1527.98 M1386.16 1513.32 L1386.16 1517.58 Q1384.4 1516.75 1382.6 1516.31 Q1380.81 1515.87 1379.05 1515.87 Q1374.42 1515.87 1371.97 1519 Q1369.54 1522.12 1369.19 1528.44 Q1370.56 1526.43 1372.62 1525.36 Q1374.68 1524.27 1377.16 1524.27 Q1382.36 1524.27 1385.37 1527.44 Q1388.41 1530.59 1388.41 1536.03 Q1388.41 1541.36 1385.26 1544.57 Q1382.11 1547.79 1376.88 1547.79 Q1370.88 1547.79 1367.71 1543.21 Q1364.54 1538.6 1364.54 1529.87 Q1364.54 1521.68 1368.43 1516.82 Q1372.32 1511.93 1378.87 1511.93 Q1380.63 1511.93 1382.41 1512.28 Q1384.22 1512.63 1386.16 1513.32 Z" fill="#000000" fill-rule="evenodd" fill-opacity="1" /><path clip-path="url(#clip400)" d="M 0 0 M1833.75 1530.71 Q1830.41 1530.71 1828.49 1532.49 Q1826.6 1534.27 1826.6 1537.4 Q1826.6 1540.52 1828.49 1542.31 Q1830.41 1544.09 1833.75 1544.09 Q1837.08 1544.09 1839 1542.31 Q1840.92 1540.5 1840.92 1537.4 Q1840.92 1534.27 1839 1532.49 Q1837.1 1530.71 1833.75 1530.71 M1829.07 1528.72 Q1826.06 1527.98 1824.37 1525.92 Q1822.71 1523.86 1822.71 1520.89 Q1822.71 1516.75 1825.65 1514.34 Q1828.61 1511.93 1833.75 1511.93 Q1838.91 1511.93 1841.85 1514.34 Q1844.79 1516.75 1844.79 1520.89 Q1844.79 1523.86 1843.1 1525.92 Q1841.43 1527.98 1838.45 1528.72 Q1841.83 1529.5 1843.7 1531.8 Q1845.6 1534.09 1845.6 1537.4 Q1845.6 1542.42 1842.52 1545.11 Q1839.47 1547.79 1833.75 1547.79 Q1828.03 1547.79 1824.95 1545.11 Q1821.9 1542.42 1821.9 1537.4 Q1821.9 1534.09 1823.79 1531.8 Q1825.69 1529.5 1829.07 1528.72 M1827.36 1521.33 Q1827.36 1524.02 1829.03 1525.52 Q1830.72 1527.03 1833.75 1527.03 Q1836.76 1527.03 1838.45 1525.52 Q1840.16 1524.02 1840.16 1521.33 Q1840.16 1518.65 1838.45 1517.14 Q1836.76 1515.64 1833.75 1515.64 Q1830.72 1515.64 1829.03 1517.14 Q1827.36 1518.65 1827.36 1521.33 Z" fill="#000000" fill-rule="evenodd" fill-opacity="1" /><path clip-path="url(#clip400)" d="M 0 0 M2267.9 1543.18 L2275.54 1543.18 L2275.54 1516.82 L2267.23 1518.49 L2267.23 1514.23 L2275.49 1512.56 L2280.17 1512.56 L2280.17 1543.18 L2287.81 1543.18 L2287.81 1547.12 L2267.9 1547.12 L2267.9 1543.18 Z" fill="#000000" fill-rule="evenodd" fill-opacity="1" /><path clip-path="url(#clip400)" d="M 0 0 M2302.88 1515.64 Q2299.26 1515.64 2297.44 1519.2 Q2295.63 1522.75 2295.63 1529.87 Q2295.63 1536.98 2297.44 1540.55 Q2299.26 1544.09 2302.88 1544.09 Q2306.51 1544.09 2308.32 1540.55 Q2310.14 1536.98 2310.14 1529.87 Q2310.14 1522.75 2308.32 1519.2 Q2306.51 1515.64 2302.88 1515.64 M2302.88 1511.93 Q2308.69 1511.93 2311.74 1516.54 Q2314.82 1521.12 2314.82 1529.87 Q2314.82 1538.6 2311.74 1543.21 Q2308.69 1547.79 2302.88 1547.79 Q2297.07 1547.79 2293.99 1543.21 Q2290.93 1538.6 2290.93 1529.87 Q2290.93 1521.12 2293.99 1516.54 Q2297.07 1511.93 2302.88 1511.93 Z" fill="#000000" fill-rule="evenodd" fill-opacity="1" /><polyline clip-path="url(#clip402)" style="stroke:#000000; stroke-width:2; stroke-opacity:0.1; fill:none" points="
  171.552,1484.85 2352.76,1484.85 
  "/>
<polyline clip-path="url(#clip402)" style="stroke:#000000; stroke-width:2; stroke-opacity:0.1; fill:none" points="
  171.552,1129.95 2352.76,1129.95 
  "/>
<polyline clip-path="url(#clip402)" style="stroke:#000000; stroke-width:2; stroke-opacity:0.1; fill:none" points="
  171.552,775.043 2352.76,775.043 
  "/>
<polyline clip-path="url(#clip402)" style="stroke:#000000; stroke-width:2; stroke-opacity:0.1; fill:none" points="
  171.552,420.137 2352.76,420.137 
  "/>
<polyline clip-path="url(#clip402)" style="stroke:#000000; stroke-width:2; stroke-opacity:0.1; fill:none" points="
  171.552,65.231 2352.76,65.231 
  "/>
<polyline clip-path="url(#clip400)" style="stroke:#000000; stroke-width:4; stroke-opacity:1; fill:none" points="
  171.552,1486.45 171.552,47.2441 
  "/>
<polyline clip-path="url(#clip400)" style="stroke:#000000; stroke-width:4; stroke-opacity:1; fill:none" points="
  171.552,1484.85 197.726,1484.85 
  "/>
<polyline clip-path="url(#clip400)" style="stroke:#000000; stroke-width:4; stroke-opacity:1; fill:none" points="
  171.552,1129.95 197.726,1129.95 
  "/>
<polyline clip-path="url(#clip400)" style="stroke:#000000; stroke-width:4; stroke-opacity:1; fill:none" points="
  171.552,775.043 197.726,775.043 
  "/>
<polyline clip-path="url(#clip400)" style="stroke:#000000; stroke-width:4; stroke-opacity:1; fill:none" points="
  171.552,420.137 197.726,420.137 
  "/>
<polyline clip-path="url(#clip400)" style="stroke:#000000; stroke-width:4; stroke-opacity:1; fill:none" points="
  171.552,65.231 197.726,65.231 
  "/>
<path clip-path="url(#clip400)" d="M 0 0 M86.6401 1470.65 Q83.029 1470.65 81.2003 1474.22 Q79.3948 1477.76 79.3948 1484.89 Q79.3948 1492 81.2003 1495.56 Q83.029 1499.1 86.6401 1499.1 Q90.2743 1499.1 92.0799 1495.56 Q93.9086 1492 93.9086 1484.89 Q93.9086 1477.76 92.0799 1474.22 Q90.2743 1470.65 86.6401 1470.65 M86.6401 1466.95 Q92.4502 1466.95 95.5058 1471.56 Q98.5845 1476.14 98.5845 1484.89 Q98.5845 1493.62 95.5058 1498.22 Q92.4502 1502.81 86.6401 1502.81 Q80.8299 1502.81 77.7512 1498.22 Q74.6957 1493.62 74.6957 1484.89 Q74.6957 1476.14 77.7512 1471.56 Q80.8299 1466.95 86.6401 1466.95 Z" fill="#000000" fill-rule="evenodd" fill-opacity="1" /><path clip-path="url(#clip400)" d="M 0 0 M103.654 1496.25 L108.538 1496.25 L108.538 1502.13 L103.654 1502.13 L103.654 1496.25 Z" fill="#000000" fill-rule="evenodd" fill-opacity="1" /><path clip-path="url(#clip400)" d="M 0 0 M123.607 1470.65 Q119.996 1470.65 118.168 1474.22 Q116.362 1477.76 116.362 1484.89 Q116.362 1492 118.168 1495.56 Q119.996 1499.1 123.607 1499.1 Q127.242 1499.1 129.047 1495.56 Q130.876 1492 130.876 1484.89 Q130.876 1477.76 129.047 1474.22 Q127.242 1470.65 123.607 1470.65 M123.607 1466.95 Q129.418 1466.95 132.473 1471.56 Q135.552 1476.14 135.552 1484.89 Q135.552 1493.62 132.473 1498.22 Q129.418 1502.81 123.607 1502.81 Q117.797 1502.81 114.719 1498.22 Q111.663 1493.62 111.663 1484.89 Q111.663 1476.14 114.719 1471.56 Q117.797 1466.95 123.607 1466.95 Z" fill="#000000" fill-rule="evenodd" fill-opacity="1" /><path clip-path="url(#clip400)" d="M 0 0 M83.2605 1143.29 L99.5798 1143.29 L99.5798 1147.23 L77.6355 1147.23 L77.6355 1143.29 Q80.2975 1140.54 84.8808 1135.91 Q89.4873 1131.26 90.6678 1129.91 Q92.9132 1127.39 93.7928 1125.65 Q94.6956 1123.9 94.6956 1122.21 Q94.6956 1119.45 92.7512 1117.71 Q90.8299 1115.98 87.728 1115.98 Q85.529 1115.98 83.0753 1116.74 Q80.6447 1117.51 77.867 1119.06 L77.867 1114.34 Q80.691 1113.2 83.1447 1112.62 Q85.5984 1112.04 87.6354 1112.04 Q93.0058 1112.04 96.2002 1114.73 Q99.3946 1117.41 99.3946 1121.9 Q99.3946 1124.03 98.5845 1125.96 Q97.7974 1127.85 95.691 1130.45 Q95.1123 1131.12 92.0104 1134.34 Q88.9086 1137.53 83.2605 1143.29 Z" fill="#000000" fill-rule="evenodd" fill-opacity="1" /><path clip-path="url(#clip400)" d="M 0 0 M104.649 1141.35 L109.533 1141.35 L109.533 1147.23 L104.649 1147.23 L104.649 1141.35 Z" fill="#000000" fill-rule="evenodd" fill-opacity="1" /><path clip-path="url(#clip400)" d="M 0 0 M114.649 1112.67 L133.006 1112.67 L133.006 1116.6 L118.932 1116.6 L118.932 1125.08 Q119.95 1124.73 120.969 1124.57 Q121.987 1124.38 123.006 1124.38 Q128.793 1124.38 132.172 1127.55 Q135.552 1130.72 135.552 1136.14 Q135.552 1141.72 132.08 1144.82 Q128.607 1147.9 122.288 1147.9 Q120.112 1147.9 117.844 1147.53 Q115.598 1147.16 113.191 1146.42 L113.191 1141.72 Q115.274 1142.85 117.496 1143.41 Q119.719 1143.96 122.195 1143.96 Q126.2 1143.96 128.538 1141.86 Q130.876 1139.75 130.876 1136.14 Q130.876 1132.53 128.538 1130.42 Q126.2 1128.32 122.195 1128.32 Q120.32 1128.32 118.445 1128.73 Q116.594 1129.15 114.649 1130.03 L114.649 1112.67 Z" fill="#000000" fill-rule="evenodd" fill-opacity="1" /><path clip-path="url(#clip400)" d="M 0 0 M77.6818 757.763 L96.0382 757.763 L96.0382 761.698 L81.9642 761.698 L81.9642 770.17 Q82.9827 769.823 84.0012 769.661 Q85.0197 769.476 86.0382 769.476 Q91.8252 769.476 95.2049 772.647 Q98.5845 775.818 98.5845 781.235 Q98.5845 786.814 95.1123 789.915 Q91.6401 792.994 85.3206 792.994 Q83.1447 792.994 80.8762 792.624 Q78.6309 792.253 76.2235 791.513 L76.2235 786.814 Q78.3068 787.948 80.529 788.503 Q82.7512 789.059 85.2281 789.059 Q89.2327 789.059 91.5706 786.952 Q93.9086 784.846 93.9086 781.235 Q93.9086 777.624 91.5706 775.517 Q89.2327 773.411 85.2281 773.411 Q83.3531 773.411 81.4781 773.827 Q79.6262 774.244 77.6818 775.124 L77.6818 757.763 Z" fill="#000000" fill-rule="evenodd" fill-opacity="1" /><path clip-path="url(#clip400)" d="M 0 0 M103.654 786.443 L108.538 786.443 L108.538 792.323 L103.654 792.323 L103.654 786.443 Z" fill="#000000" fill-rule="evenodd" fill-opacity="1" /><path clip-path="url(#clip400)" d="M 0 0 M123.607 760.841 Q119.996 760.841 118.168 764.406 Q116.362 767.948 116.362 775.077 Q116.362 782.184 118.168 785.749 Q119.996 789.29 123.607 789.29 Q127.242 789.29 129.047 785.749 Q130.876 782.184 130.876 775.077 Q130.876 767.948 129.047 764.406 Q127.242 760.841 123.607 760.841 M123.607 757.138 Q129.418 757.138 132.473 761.744 Q135.552 766.328 135.552 775.077 Q135.552 783.804 132.473 788.411 Q129.418 792.994 123.607 792.994 Q117.797 792.994 114.719 788.411 Q111.663 783.804 111.663 775.077 Q111.663 766.328 114.719 761.744 Q117.797 757.138 123.607 757.138 Z" fill="#000000" fill-rule="evenodd" fill-opacity="1" /><path clip-path="url(#clip400)" d="M 0 0 M77.3577 402.857 L99.5798 402.857 L99.5798 404.848 L87.0336 437.417 L82.1494 437.417 L93.9549 406.792 L77.3577 406.792 L77.3577 402.857 Z" fill="#000000" fill-rule="evenodd" fill-opacity="1" /><path clip-path="url(#clip400)" d="M 0 0 M104.649 431.537 L109.533 431.537 L109.533 437.417 L104.649 437.417 L104.649 431.537 Z" fill="#000000" fill-rule="evenodd" fill-opacity="1" /><path clip-path="url(#clip400)" d="M 0 0 M114.649 402.857 L133.006 402.857 L133.006 406.792 L118.932 406.792 L118.932 415.264 Q119.95 414.917 120.969 414.755 Q121.987 414.57 123.006 414.57 Q128.793 414.57 132.172 417.741 Q135.552 420.912 135.552 426.329 Q135.552 431.908 132.08 435.009 Q128.607 438.088 122.288 438.088 Q120.112 438.088 117.844 437.718 Q115.598 437.347 113.191 436.607 L113.191 431.908 Q115.274 433.042 117.496 433.597 Q119.719 434.153 122.195 434.153 Q126.2 434.153 128.538 432.047 Q130.876 429.94 130.876 426.329 Q130.876 422.718 128.538 420.611 Q126.2 418.505 122.195 418.505 Q120.32 418.505 118.445 418.922 Q116.594 419.338 114.649 420.218 L114.649 402.857 Z" fill="#000000" fill-rule="evenodd" fill-opacity="1" /><path clip-path="url(#clip400)" d="M 0 0 M51.6634 78.5758 L59.3023 78.5758 L59.3023 52.2102 L50.9921 53.8769 L50.9921 49.6176 L59.256 47.951 L63.9319 47.951 L63.9319 78.5758 L71.5707 78.5758 L71.5707 82.511 L51.6634 82.511 L51.6634 78.5758 Z" fill="#000000" fill-rule="evenodd" fill-opacity="1" /><path clip-path="url(#clip400)" d="M 0 0 M86.6401 51.0297 Q83.029 51.0297 81.2003 54.5945 Q79.3948 58.1361 79.3948 65.2657 Q79.3948 72.3721 81.2003 75.9369 Q83.029 79.4786 86.6401 79.4786 Q90.2743 79.4786 92.0799 75.9369 Q93.9086 72.3721 93.9086 65.2657 Q93.9086 58.1361 92.0799 54.5945 Q90.2743 51.0297 86.6401 51.0297 M86.6401 47.326 Q92.4502 47.326 95.5058 51.9324 Q98.5845 56.5157 98.5845 65.2657 Q98.5845 73.9925 95.5058 78.599 Q92.4502 83.1823 86.6401 83.1823 Q80.8299 83.1823 77.7512 78.599 Q74.6957 73.9925 74.6957 65.2657 Q74.6957 56.5157 77.7512 51.9324 Q80.8299 47.326 86.6401 47.326 Z" fill="#000000" fill-rule="evenodd" fill-opacity="1" /><path clip-path="url(#clip400)" d="M 0 0 M103.654 76.6314 L108.538 76.6314 L108.538 82.511 L103.654 82.511 L103.654 76.6314 Z" fill="#000000" fill-rule="evenodd" fill-opacity="1" /><path clip-path="url(#clip400)" d="M 0 0 M123.607 51.0297 Q119.996 51.0297 118.168 54.5945 Q116.362 58.1361 116.362 65.2657 Q116.362 72.3721 118.168 75.9369 Q119.996 79.4786 123.607 79.4786 Q127.242 79.4786 129.047 75.9369 Q130.876 72.3721 130.876 65.2657 Q130.876 58.1361 129.047 54.5945 Q127.242 51.0297 123.607 51.0297 M123.607 47.326 Q129.418 47.326 132.473 51.9324 Q135.552 56.5157 135.552 65.2657 Q135.552 73.9925 132.473 78.599 Q129.418 83.1823 123.607 83.1823 Q117.797 83.1823 114.719 78.599 Q111.663 73.9925 111.663 65.2657 Q111.663 56.5157 114.719 51.9324 Q117.797 47.326 123.607 47.326 Z" fill="#000000" fill-rule="evenodd" fill-opacity="1" /><polyline clip-path="url(#clip402)" style="stroke:#009af9; stroke-width:4; stroke-opacity:1; fill:none" points="
  233.284,1275.97 461.922,911.894 690.56,1053.24 919.197,891.196 1147.84,561.782 1376.47,1445.72 1605.11,1060.01 1833.75,774.615 2062.39,812.019 2291.02,952.528 
  
  "/>
<polyline clip-path="url(#clip402)" style="stroke:#e26f46; stroke-width:4; stroke-opacity:1; fill:none" points="
  233.284,106.019 461.922,98.4001 690.56,764.256 919.197,685.272 1147.84,241.614 1376.47,748.329 1605.11,510.601 1833.75,1034.32 2062.39,781.668 2291.02,87.9763 
  
  "/>
<path clip-path="url(#clip400)" d="
M2014.5 276.658 L2280.05 276.658 L2280.05 95.2176 L2014.5 95.2176  Z
  " fill="#ffffff" fill-rule="evenodd" fill-opacity="1"/>
<polyline clip-path="url(#clip400)" style="stroke:#000000; stroke-width:4; stroke-opacity:1; fill:none" points="
  2014.5,276.658 2280.05,276.658 2280.05,95.2176 2014.5,95.2176 2014.5,276.658 
  "/>
<polyline clip-path="url(#clip400)" style="stroke:#009af9; stroke-width:4; stroke-opacity:1; fill:none" points="
  2038.73,155.698 2184.15,155.698 
  "/>
<path clip-path="url(#clip400)" d="M 0 0 M2227.16 160.038 Q2227.16 155.339 2225.21 152.677 Q2223.29 149.992 2219.91 149.992 Q2216.53 149.992 2214.59 152.677 Q2212.67 155.339 2212.67 160.038 Q2212.67 164.737 2214.59 167.422 Q2216.53 170.084 2219.91 170.084 Q2223.29 170.084 2225.21 167.422 Q2227.16 164.737 2227.16 160.038 M2212.67 150.987 Q2214.01 148.672 2216.05 147.561 Q2218.11 146.427 2220.95 146.427 Q2225.68 146.427 2228.61 150.177 Q2231.58 153.927 2231.58 160.038 Q2231.58 166.149 2228.61 169.899 Q2225.68 173.649 2220.95 173.649 Q2218.11 173.649 2216.05 172.538 Q2214.01 171.403 2212.67 169.089 L2212.67 172.978 L2208.38 172.978 L2208.38 136.959 L2212.67 136.959 L2212.67 150.987 Z" fill="#000000" fill-rule="evenodd" fill-opacity="1" /><polyline clip-path="url(#clip400)" style="stroke:#e26f46; stroke-width:4; stroke-opacity:1; fill:none" points="
  2038.73,216.178 2184.15,216.178 
  "/>
<path clip-path="url(#clip400)" d="M 0 0 M2228.89 208.527 L2228.89 212.509 Q2227.09 211.513 2225.26 211.027 Q2223.45 210.518 2221.6 210.518 Q2217.46 210.518 2215.17 213.157 Q2212.87 215.772 2212.87 220.518 Q2212.87 225.263 2215.17 227.902 Q2217.46 230.518 2221.6 230.518 Q2223.45 230.518 2225.26 230.032 Q2227.09 229.522 2228.89 228.527 L2228.89 232.462 Q2227.11 233.296 2225.19 233.712 Q2223.29 234.129 2221.14 234.129 Q2215.28 234.129 2211.83 230.448 Q2208.38 226.768 2208.38 220.518 Q2208.38 214.175 2211.86 210.541 Q2215.35 206.907 2221.42 206.907 Q2223.38 206.907 2225.26 207.323 Q2227.13 207.717 2228.89 208.527 Z" fill="#000000" fill-rule="evenodd" fill-opacity="1" /></svg>
