<?xml version="1.0" encoding="utf-8"?>
<svg xmlns="http://www.w3.org/2000/svg" xmlns:xlink="http://www.w3.org/1999/xlink" width="600" height="400" viewBox="0 0 2400 1600">
<defs>
  <clipPath id="clip700">
    <rect x="0" y="0" width="2400" height="1600"/>
  </clipPath>
</defs>
<path clip-path="url(#clip700)" d="
M0 1600 L2400 1600 L2400 0 L0 0  Z
  " fill="#ffffff" fill-rule="evenodd" fill-opacity="1"/>
<defs>
  <clipPath id="clip701">
    <rect x="480" y="0" width="1681" height="1600"/>
  </clipPath>
</defs>
<path clip-path="url(#clip700)" d="
M179.654 1486.45 L2352.76 1486.45 L2352.76 47.2441 L179.654 47.2441  Z
  " fill="#ffffff" fill-rule="evenodd" fill-opacity="1"/>
<defs>
  <clipPath id="clip702">
    <rect x="179" y="47" width="2174" height="1440"/>
  </clipPath>
</defs>
<polyline clip-path="url(#clip702)" style="stroke:#000000; stroke-width:2; stroke-opacity:0.1; fill:none" points="
  451.609,1486.45 451.609,47.2441 
  "/>
<polyline clip-path="url(#clip702)" style="stroke:#000000; stroke-width:2; stroke-opacity:0.1; fill:none" points="
  861.628,1486.45 861.628,47.2441 
  "/>
<polyline clip-path="url(#clip702)" style="stroke:#000000; stroke-width:2; stroke-opacity:0.1; fill:none" points="
  1271.65,1486.45 1271.65,47.2441 
  "/>
<polyline clip-path="url(#clip702)" style="stroke:#000000; stroke-width:2; stroke-opacity:0.1; fill:none" points="
  1681.67,1486.45 1681.67,47.2441 
  "/>
<polyline clip-path="url(#clip702)" style="stroke:#000000; stroke-width:2; stroke-opacity:0.1; fill:none" points="
  2091.69,1486.45 2091.69,47.2441 
  "/>
<polyline clip-path="url(#clip700)" style="stroke:#000000; stroke-width:4; stroke-opacity:1; fill:none" points="
  179.654,1486.45 2352.76,1486.45 
  "/>
<polyline clip-path="url(#clip700)" style="stroke:#000000; stroke-width:4; stroke-opacity:1; fill:none" points="
  451.609,1486.45 451.609,1469.18 
  "/>
<polyline clip-path="url(#clip700)" style="stroke:#000000; stroke-width:4; stroke-opacity:1; fill:none" points="
  861.628,1486.45 861.628,1469.18 
  "/>
<polyline clip-path="url(#clip700)" style="stroke:#000000; stroke-width:4; stroke-opacity:1; fill:none" points="
  1271.65,1486.45 1271.65,1469.18 
  "/>
<polyline clip-path="url(#clip700)" style="stroke:#000000; stroke-width:4; stroke-opacity:1; fill:none" points="
  1681.67,1486.45 1681.67,1469.18 
  "/>
<polyline clip-path="url(#clip700)" style="stroke:#000000; stroke-width:4; stroke-opacity:1; fill:none" points="
  2091.69,1486.45 2091.69,1469.18 
  "/>
<path clip-path="url(#clip700)" d="M 0 0 M405.278 1530.29 L434.954 1530.29 L434.954 1534.23 L405.278 1534.23 L405.278 1530.29 Z" fill="#000000" fill-rule="evenodd" fill-opacity="1" /><path clip-path="url(#clip700)" d="M 0 0 M440.07 1512.56 L458.426 1512.56 L458.426 1516.5 L444.352 1516.5 L444.352 1524.97 Q445.37 1524.62 446.389 1524.46 Q447.407 1524.27 448.426 1524.27 Q454.213 1524.27 457.593 1527.44 Q460.972 1530.62 460.972 1536.03 Q460.972 1541.61 457.5 1544.71 Q454.028 1547.79 447.708 1547.79 Q445.532 1547.79 443.264 1547.42 Q441.019 1547.05 438.611 1546.31 L438.611 1541.61 Q440.695 1542.74 442.917 1543.3 Q445.139 1543.86 447.616 1543.86 Q451.62 1543.86 453.958 1541.75 Q456.296 1539.64 456.296 1536.03 Q456.296 1532.42 453.958 1530.31 Q451.62 1528.21 447.616 1528.21 Q445.741 1528.21 443.866 1528.62 Q442.014 1529.04 440.07 1529.92 L440.07 1512.56 Z" fill="#000000" fill-rule="evenodd" fill-opacity="1" /><path clip-path="url(#clip700)" d="M 0 0 M466.042 1541.24 L470.926 1541.24 L470.926 1547.12 L466.042 1547.12 L466.042 1541.24 Z" fill="#000000" fill-rule="evenodd" fill-opacity="1" /><path clip-path="url(#clip700)" d="M 0 0 M485.995 1515.64 Q482.384 1515.64 480.555 1519.2 Q478.75 1522.75 478.75 1529.87 Q478.75 1536.98 480.555 1540.55 Q482.384 1544.09 485.995 1544.09 Q489.629 1544.09 491.435 1540.55 Q493.264 1536.98 493.264 1529.87 Q493.264 1522.75 491.435 1519.2 Q489.629 1515.64 485.995 1515.64 M485.995 1511.93 Q491.805 1511.93 494.861 1516.54 Q497.94 1521.12 497.94 1529.87 Q497.94 1538.6 494.861 1543.21 Q491.805 1547.79 485.995 1547.79 Q480.185 1547.79 477.106 1543.21 Q474.051 1538.6 474.051 1529.87 Q474.051 1521.12 477.106 1516.54 Q480.185 1511.93 485.995 1511.93 Z" fill="#000000" fill-rule="evenodd" fill-opacity="1" /><path clip-path="url(#clip700)" d="M 0 0 M816.096 1530.29 L845.772 1530.29 L845.772 1534.23 L816.096 1534.23 L816.096 1530.29 Z" fill="#000000" fill-rule="evenodd" fill-opacity="1" /><path clip-path="url(#clip700)" d="M 0 0 M854.869 1543.18 L871.188 1543.18 L871.188 1547.12 L849.244 1547.12 L849.244 1543.18 Q851.906 1540.43 856.489 1535.8 Q861.096 1531.15 862.276 1529.81 Q864.522 1527.28 865.401 1525.55 Q866.304 1523.79 866.304 1522.1 Q866.304 1519.34 864.36 1517.61 Q862.438 1515.87 859.336 1515.87 Q857.137 1515.87 854.684 1516.63 Q852.253 1517.4 849.475 1518.95 L849.475 1514.23 Q852.299 1513.09 854.753 1512.51 Q857.207 1511.93 859.244 1511.93 Q864.614 1511.93 867.809 1514.62 Q871.003 1517.31 871.003 1521.8 Q871.003 1523.93 870.193 1525.85 Q869.406 1527.74 867.299 1530.34 Q866.721 1531.01 863.619 1534.23 Q860.517 1537.42 854.869 1543.18 Z" fill="#000000" fill-rule="evenodd" fill-opacity="1" /><path clip-path="url(#clip700)" d="M 0 0 M876.258 1541.24 L881.142 1541.24 L881.142 1547.12 L876.258 1547.12 L876.258 1541.24 Z" fill="#000000" fill-rule="evenodd" fill-opacity="1" /><path clip-path="url(#clip700)" d="M 0 0 M886.258 1512.56 L904.614 1512.56 L904.614 1516.5 L890.54 1516.5 L890.54 1524.97 Q891.559 1524.62 892.577 1524.46 Q893.596 1524.27 894.614 1524.27 Q900.401 1524.27 903.781 1527.44 Q907.16 1530.62 907.16 1536.03 Q907.16 1541.61 903.688 1544.71 Q900.216 1547.79 893.896 1547.79 Q891.721 1547.79 889.452 1547.42 Q887.207 1547.05 884.799 1546.31 L884.799 1541.61 Q886.883 1542.74 889.105 1543.3 Q891.327 1543.86 893.804 1543.86 Q897.809 1543.86 900.146 1541.75 Q902.484 1539.64 902.484 1536.03 Q902.484 1532.42 900.146 1530.31 Q897.809 1528.21 893.804 1528.21 Q891.929 1528.21 890.054 1528.62 Q888.202 1529.04 886.258 1529.92 L886.258 1512.56 Z" fill="#000000" fill-rule="evenodd" fill-opacity="1" /><path clip-path="url(#clip700)" d="M 0 0 M1253.16 1515.64 Q1249.55 1515.64 1247.72 1519.2 Q1245.92 1522.75 1245.92 1529.87 Q1245.92 1536.98 1247.72 1540.55 Q1249.55 1544.09 1253.16 1544.09 Q1256.8 1544.09 1258.6 1540.55 Q1260.43 1536.98 1260.43 1529.87 Q1260.43 1522.75 1258.6 1519.2 Q1256.8 1515.64 1253.16 1515.64 M1253.16 1511.93 Q1258.97 1511.93 1262.03 1516.54 Q1265.11 1521.12 1265.11 1529.87 Q1265.11 1538.6 1262.03 1543.21 Q1258.97 1547.79 1253.16 1547.79 Q1247.35 1547.79 1244.27 1543.21 Q1241.22 1538.6 1241.22 1529.87 Q1241.22 1521.12 1244.27 1516.54 Q1247.35 1511.93 1253.16 1511.93 Z" fill="#000000" fill-rule="evenodd" fill-opacity="1" /><path clip-path="url(#clip700)" d="M 0 0 M1270.18 1541.24 L1275.06 1541.24 L1275.06 1547.12 L1270.18 1547.12 L1270.18 1541.24 Z" fill="#000000" fill-rule="evenodd" fill-opacity="1" /><path clip-path="url(#clip700)" d="M 0 0 M1290.13 1515.64 Q1286.52 1515.64 1284.69 1519.2 Q1282.89 1522.75 1282.89 1529.87 Q1282.89 1536.98 1284.69 1540.55 Q1286.52 1544.09 1290.13 1544.09 Q1293.77 1544.09 1295.57 1540.55 Q1297.4 1536.98 1297.4 1529.87 Q1297.4 1522.75 1295.57 1519.2 Q1293.77 1515.64 1290.13 1515.64 M1290.13 1511.93 Q1295.94 1511.93 1299 1516.54 Q1302.08 1521.12 1302.08 1529.87 Q1302.08 1538.6 1299 1543.21 Q1295.94 1547.79 1290.13 1547.79 Q1284.32 1547.79 1281.24 1543.21 Q1278.19 1538.6 1278.19 1529.87 Q1278.19 1521.12 1281.24 1516.54 Q1284.32 1511.93 1290.13 1511.93 Z" fill="#000000" fill-rule="evenodd" fill-opacity="1" /><path clip-path="url(#clip700)" d="M 0 0 M1658.33 1543.18 L1674.65 1543.18 L1674.65 1547.12 L1652.71 1547.12 L1652.71 1543.18 Q1655.37 1540.43 1659.95 1535.8 Q1664.56 1531.15 1665.74 1529.81 Q1667.99 1527.28 1668.87 1525.55 Q1669.77 1523.79 1669.77 1522.1 Q1669.77 1519.34 1667.82 1517.61 Q1665.9 1515.87 1662.8 1515.87 Q1660.6 1515.87 1658.15 1516.63 Q1655.72 1517.4 1652.94 1518.95 L1652.94 1514.23 Q1655.76 1513.09 1658.22 1512.51 Q1660.67 1511.93 1662.71 1511.93 Q1668.08 1511.93 1671.27 1514.62 Q1674.47 1517.31 1674.47 1521.8 Q1674.47 1523.93 1673.66 1525.85 Q1672.87 1527.74 1670.76 1530.34 Q1670.19 1531.01 1667.08 1534.23 Q1663.98 1537.42 1658.33 1543.18 Z" fill="#000000" fill-rule="evenodd" fill-opacity="1" /><path clip-path="url(#clip700)" d="M 0 0 M1679.72 1541.24 L1684.61 1541.24 L1684.61 1547.12 L1679.72 1547.12 L1679.72 1541.24 Z" fill="#000000" fill-rule="evenodd" fill-opacity="1" /><path clip-path="url(#clip700)" d="M 0 0 M1689.72 1512.56 L1708.08 1512.56 L1708.08 1516.5 L1694 1516.5 L1694 1524.97 Q1695.02 1524.62 1696.04 1524.46 Q1697.06 1524.27 1698.08 1524.27 Q1703.87 1524.27 1707.25 1527.44 Q1710.62 1530.62 1710.62 1536.03 Q1710.62 1541.61 1707.15 1544.71 Q1703.68 1547.79 1697.36 1547.79 Q1695.19 1547.79 1692.92 1547.42 Q1690.67 1547.05 1688.26 1546.31 L1688.26 1541.61 Q1690.35 1542.74 1692.57 1543.3 Q1694.79 1543.86 1697.27 1543.86 Q1701.27 1543.86 1703.61 1541.75 Q1705.95 1539.64 1705.95 1536.03 Q1705.95 1532.42 1703.61 1530.31 Q1701.27 1528.21 1697.27 1528.21 Q1695.39 1528.21 1693.52 1528.62 Q1691.67 1529.04 1689.72 1529.92 L1689.72 1512.56 Z" fill="#000000" fill-rule="evenodd" fill-opacity="1" /><path clip-path="url(#clip700)" d="M 0 0 M2063.48 1512.56 L2081.84 1512.56 L2081.84 1516.5 L2067.76 1516.5 L2067.76 1524.97 Q2068.78 1524.62 2069.8 1524.46 Q2070.82 1524.27 2071.84 1524.27 Q2077.62 1524.27 2081 1527.44 Q2084.38 1530.62 2084.38 1536.03 Q2084.38 1541.61 2080.91 1544.71 Q2077.44 1547.79 2071.12 1547.79 Q2068.94 1547.79 2066.67 1547.42 Q2064.43 1547.05 2062.02 1546.31 L2062.02 1541.61 Q2064.11 1542.74 2066.33 1543.3 Q2068.55 1543.86 2071.03 1543.86 Q2075.03 1543.86 2077.37 1541.75 Q2079.71 1539.64 2079.71 1536.03 Q2079.71 1532.42 2077.37 1530.31 Q2075.03 1528.21 2071.03 1528.21 Q2069.15 1528.21 2067.28 1528.62 Q2065.42 1529.04 2063.48 1529.92 L2063.48 1512.56 Z" fill="#000000" fill-rule="evenodd" fill-opacity="1" /><path clip-path="url(#clip700)" d="M 0 0 M2089.45 1541.24 L2094.34 1541.24 L2094.34 1547.12 L2089.45 1547.12 L2089.45 1541.24 Z" fill="#000000" fill-rule="evenodd" fill-opacity="1" /><path clip-path="url(#clip700)" d="M 0 0 M2109.41 1515.64 Q2105.79 1515.64 2103.97 1519.2 Q2102.16 1522.75 2102.16 1529.87 Q2102.16 1536.98 2103.97 1540.55 Q2105.79 1544.09 2109.41 1544.09 Q2113.04 1544.09 2114.85 1540.55 Q2116.67 1536.98 2116.67 1529.87 Q2116.67 1522.75 2114.85 1519.2 Q2113.04 1515.64 2109.41 1515.64 M2109.41 1511.93 Q2115.22 1511.93 2118.27 1516.54 Q2121.35 1521.12 2121.35 1529.87 Q2121.35 1538.6 2118.27 1543.21 Q2115.22 1547.79 2109.41 1547.79 Q2103.6 1547.79 2100.52 1543.21 Q2097.46 1538.6 2097.46 1529.87 Q2097.46 1521.12 2100.52 1516.54 Q2103.6 1511.93 2109.41 1511.93 Z" fill="#000000" fill-rule="evenodd" fill-opacity="1" /><polyline clip-path="url(#clip702)" style="stroke:#000000; stroke-width:2; stroke-opacity:0.1; fill:none" points="
  179.654,1445.72 2352.76,1445.72 
  "/>
<polyline clip-path="url(#clip702)" style="stroke:#000000; stroke-width:2; stroke-opacity:0.1; fill:none" points="
  179.654,1106.29 2352.76,1106.29 
  "/>
<polyline clip-path="url(#clip702)" style="stroke:#000000; stroke-width:2; stroke-opacity:0.1; fill:none" points="
  179.654,766.849 2352.76,766.849 
  "/>
<polyline clip-path="url(#clip702)" style="stroke:#000000; stroke-width:2; stroke-opacity:0.1; fill:none" points="
  179.654,427.413 2352.76,427.413 
  "/>
<polyline clip-path="url(#clip702)" style="stroke:#000000; stroke-width:2; stroke-opacity:0.1; fill:none" points="
  179.654,87.9763 2352.76,87.9763 
  "/>
<polyline clip-path="url(#clip700)" style="stroke:#000000; stroke-width:4; stroke-opacity:1; fill:none" points="
  179.654,1486.45 179.654,47.2441 
  "/>
<polyline clip-path="url(#clip700)" style="stroke:#000000; stroke-width:4; stroke-opacity:1; fill:none" points="
  179.654,1445.72 205.731,1445.72 
  "/>
<polyline clip-path="url(#clip700)" style="stroke:#000000; stroke-width:4; stroke-opacity:1; fill:none" points="
  179.654,1106.29 205.731,1106.29 
  "/>
<polyline clip-path="url(#clip700)" style="stroke:#000000; stroke-width:4; stroke-opacity:1; fill:none" points="
  179.654,766.849 205.731,766.849 
  "/>
<polyline clip-path="url(#clip700)" style="stroke:#000000; stroke-width:4; stroke-opacity:1; fill:none" points="
  179.654,427.413 205.731,427.413 
  "/>
<polyline clip-path="url(#clip700)" style="stroke:#000000; stroke-width:4; stroke-opacity:1; fill:none" points="
  179.654,87.9763 205.731,87.9763 
  "/>
<path clip-path="url(#clip700)" d="M 0 0 M51.2236 1446.17 L80.8994 1446.17 L80.8994 1450.11 L51.2236 1450.11 L51.2236 1446.17 Z" fill="#000000" fill-rule="evenodd" fill-opacity="1" /><path clip-path="url(#clip700)" d="M 0 0 M86.779 1459.07 L94.4178 1459.07 L94.4178 1432.7 L86.1077 1434.37 L86.1077 1430.11 L94.3715 1428.44 L99.0474 1428.44 L99.0474 1459.07 L106.686 1459.07 L106.686 1463 L86.779 1463 L86.779 1459.07 Z" fill="#000000" fill-rule="evenodd" fill-opacity="1" /><path clip-path="url(#clip700)" d="M 0 0 M111.756 1457.12 L116.64 1457.12 L116.64 1463 L111.756 1463 L111.756 1457.12 Z" fill="#000000" fill-rule="evenodd" fill-opacity="1" /><path clip-path="url(#clip700)" d="M 0 0 M131.709 1431.52 Q128.098 1431.52 126.27 1435.09 Q124.464 1438.63 124.464 1445.76 Q124.464 1452.86 126.27 1456.43 Q128.098 1459.97 131.709 1459.97 Q135.344 1459.97 137.149 1456.43 Q138.978 1452.86 138.978 1445.76 Q138.978 1438.63 137.149 1435.09 Q135.344 1431.52 131.709 1431.52 M131.709 1427.82 Q137.519 1427.82 140.575 1432.42 Q143.654 1437.01 143.654 1445.76 Q143.654 1454.48 140.575 1459.09 Q137.519 1463.67 131.709 1463.67 Q125.899 1463.67 122.82 1459.09 Q119.765 1454.48 119.765 1445.76 Q119.765 1437.01 122.82 1432.42 Q125.899 1427.82 131.709 1427.82 Z" fill="#000000" fill-rule="evenodd" fill-opacity="1" /><path clip-path="url(#clip700)" d="M 0 0 M50.9921 1106.74 L80.6679 1106.74 L80.6679 1110.67 L50.9921 1110.67 L50.9921 1106.74 Z" fill="#000000" fill-rule="evenodd" fill-opacity="1" /><path clip-path="url(#clip700)" d="M 0 0 M95.7373 1092.08 Q92.1262 1092.08 90.2975 1095.65 Q88.4919 1099.19 88.4919 1106.32 Q88.4919 1113.43 90.2975 1116.99 Q92.1262 1120.53 95.7373 1120.53 Q99.3715 1120.53 101.177 1116.99 Q103.006 1113.43 103.006 1106.32 Q103.006 1099.19 101.177 1095.65 Q99.3715 1092.08 95.7373 1092.08 M95.7373 1088.38 Q101.547 1088.38 104.603 1092.99 Q107.682 1097.57 107.682 1106.32 Q107.682 1115.05 104.603 1119.65 Q101.547 1124.24 95.7373 1124.24 Q89.9271 1124.24 86.8484 1119.65 Q83.7929 1115.05 83.7929 1106.32 Q83.7929 1097.57 86.8484 1092.99 Q89.9271 1088.38 95.7373 1088.38 Z" fill="#000000" fill-rule="evenodd" fill-opacity="1" /><path clip-path="url(#clip700)" d="M 0 0 M112.751 1117.69 L117.635 1117.69 L117.635 1123.57 L112.751 1123.57 L112.751 1117.69 Z" fill="#000000" fill-rule="evenodd" fill-opacity="1" /><path clip-path="url(#clip700)" d="M 0 0 M122.751 1089.01 L141.107 1089.01 L141.107 1092.94 L127.033 1092.94 L127.033 1101.41 Q128.052 1101.07 129.07 1100.9 Q130.089 1100.72 131.107 1100.72 Q136.894 1100.72 140.274 1103.89 Q143.654 1107.06 143.654 1112.48 Q143.654 1118.06 140.181 1121.16 Q136.709 1124.24 130.39 1124.24 Q128.214 1124.24 125.945 1123.87 Q123.7 1123.5 121.293 1122.76 L121.293 1118.06 Q123.376 1119.19 125.598 1119.75 Q127.82 1120.3 130.297 1120.3 Q134.302 1120.3 136.64 1118.2 Q138.978 1116.09 138.978 1112.48 Q138.978 1108.87 136.64 1106.76 Q134.302 1104.65 130.297 1104.65 Q128.422 1104.65 126.547 1105.07 Q124.695 1105.49 122.751 1106.37 L122.751 1089.01 Z" fill="#000000" fill-rule="evenodd" fill-opacity="1" /><path clip-path="url(#clip700)" d="M 0 0 M94.7419 752.648 Q91.1308 752.648 89.3021 756.213 Q87.4966 759.754 87.4966 766.884 Q87.4966 773.99 89.3021 777.555 Q91.1308 781.097 94.7419 781.097 Q98.3761 781.097 100.182 777.555 Q102.01 773.99 102.01 766.884 Q102.01 759.754 100.182 756.213 Q98.3761 752.648 94.7419 752.648 M94.7419 748.944 Q100.552 748.944 103.608 753.551 Q106.686 758.134 106.686 766.884 Q106.686 775.611 103.608 780.217 Q100.552 784.801 94.7419 784.801 Q88.9317 784.801 85.8531 780.217 Q82.7975 775.611 82.7975 766.884 Q82.7975 758.134 85.8531 753.551 Q88.9317 748.944 94.7419 748.944 Z" fill="#000000" fill-rule="evenodd" fill-opacity="1" /><path clip-path="url(#clip700)" d="M 0 0 M111.756 778.25 L116.64 778.25 L116.64 784.129 L111.756 784.129 L111.756 778.25 Z" fill="#000000" fill-rule="evenodd" fill-opacity="1" /><path clip-path="url(#clip700)" d="M 0 0 M131.709 752.648 Q128.098 752.648 126.27 756.213 Q124.464 759.754 124.464 766.884 Q124.464 773.99 126.27 777.555 Q128.098 781.097 131.709 781.097 Q135.344 781.097 137.149 777.555 Q138.978 773.99 138.978 766.884 Q138.978 759.754 137.149 756.213 Q135.344 752.648 131.709 752.648 M131.709 748.944 Q137.519 748.944 140.575 753.551 Q143.654 758.134 143.654 766.884 Q143.654 775.611 140.575 780.217 Q137.519 784.801 131.709 784.801 Q125.899 784.801 122.82 780.217 Q119.765 775.611 119.765 766.884 Q119.765 758.134 122.82 753.551 Q125.899 748.944 131.709 748.944 Z" fill="#000000" fill-rule="evenodd" fill-opacity="1" /><path clip-path="url(#clip700)" d="M 0 0 M95.7373 413.211 Q92.1262 413.211 90.2975 416.776 Q88.4919 420.318 88.4919 427.448 Q88.4919 434.554 90.2975 438.119 Q92.1262 441.66 95.7373 441.66 Q99.3715 441.66 101.177 438.119 Q103.006 434.554 103.006 427.448 Q103.006 420.318 101.177 416.776 Q99.3715 413.211 95.7373 413.211 M95.7373 409.508 Q101.547 409.508 104.603 414.114 Q107.682 418.698 107.682 427.448 Q107.682 436.174 104.603 440.781 Q101.547 445.364 95.7373 445.364 Q89.9271 445.364 86.8484 440.781 Q83.7929 436.174 83.7929 427.448 Q83.7929 418.698 86.8484 414.114 Q89.9271 409.508 95.7373 409.508 Z" fill="#000000" fill-rule="evenodd" fill-opacity="1" /><path clip-path="url(#clip700)" d="M 0 0 M112.751 438.813 L117.635 438.813 L117.635 444.693 L112.751 444.693 L112.751 438.813 Z" fill="#000000" fill-rule="evenodd" fill-opacity="1" /><path clip-path="url(#clip700)" d="M 0 0 M122.751 410.133 L141.107 410.133 L141.107 414.068 L127.033 414.068 L127.033 422.54 Q128.052 422.193 129.07 422.031 Q130.089 421.846 131.107 421.846 Q136.894 421.846 140.274 425.017 Q143.654 428.188 143.654 433.605 Q143.654 439.184 140.181 442.285 Q136.709 445.364 130.39 445.364 Q128.214 445.364 125.945 444.994 Q123.7 444.623 121.293 443.883 L121.293 439.184 Q123.376 440.318 125.598 440.873 Q127.82 441.429 130.297 441.429 Q134.302 441.429 136.64 439.322 Q138.978 437.216 138.978 433.605 Q138.978 429.994 136.64 427.887 Q134.302 425.781 130.297 425.781 Q128.422 425.781 126.547 426.198 Q124.695 426.614 122.751 427.494 L122.751 410.133 Z" fill="#000000" fill-rule="evenodd" fill-opacity="1" /><path clip-path="url(#clip700)" d="M 0 0 M86.779 101.321 L94.4178 101.321 L94.4178 74.9555 L86.1077 76.6222 L86.1077 72.3629 L94.3715 70.6963 L99.0474 70.6963 L99.0474 101.321 L106.686 101.321 L106.686 105.256 L86.779 105.256 L86.779 101.321 Z" fill="#000000" fill-rule="evenodd" fill-opacity="1" /><path clip-path="url(#clip700)" d="M 0 0 M111.756 99.3767 L116.64 99.3767 L116.64 105.256 L111.756 105.256 L111.756 99.3767 Z" fill="#000000" fill-rule="evenodd" fill-opacity="1" /><path clip-path="url(#clip700)" d="M 0 0 M131.709 73.775 Q128.098 73.775 126.27 77.3398 Q124.464 80.8814 124.464 88.011 Q124.464 95.1174 126.27 98.6822 Q128.098 102.224 131.709 102.224 Q135.344 102.224 137.149 98.6822 Q138.978 95.1174 138.978 88.011 Q138.978 80.8814 137.149 77.3398 Q135.344 73.775 131.709 73.775 M131.709 70.0713 Q137.519 70.0713 140.575 74.6777 Q143.654 79.261 143.654 88.011 Q143.654 96.7378 140.575 101.344 Q137.519 105.928 131.709 105.928 Q125.899 105.928 122.82 101.344 Q119.765 96.7378 119.765 88.011 Q119.765 79.261 122.82 74.6777 Q125.899 70.0713 131.709 70.0713 Z" fill="#000000" fill-rule="evenodd" fill-opacity="1" /><polyline clip-path="url(#clip702)" style="stroke:#e69f00; stroke-width:4; stroke-opacity:1; fill:none" points="
  241.157,766.849 257.557,699.075 273.958,631.978 290.359,566.229 306.76,502.484 323.16,441.38 339.561,383.529 355.962,329.507 372.363,279.856 388.764,235.07 
  405.164,195.597 421.565,161.833 437.966,134.113 454.367,112.716 470.767,97.8541 487.168,89.6769 503.569,88.2657 519.97,93.6348 536.37,105.73 552.771,124.432 
  569.172,149.552 585.573,180.84 601.974,217.983 618.374,260.61 634.775,308.296 651.176,360.563 667.577,416.889 683.977,476.713 700.378,539.435 716.779,604.429 
  733.18,671.047 749.58,738.621 765.981,806.478 782.382,873.939 798.783,940.329 815.184,1004.99 831.584,1067.26 847.985,1126.54 864.386,1182.22 880.787,1233.76 
  897.187,1280.62 913.588,1322.36 929.989,1358.54 946.39,1388.81 962.791,1412.87 979.191,1430.47 995.592,1441.44 1011.99,1445.67 1028.39,1443.12 1044.79,1433.81 
  1061.2,1417.84 1077.6,1395.36 1094,1366.6 1110.4,1331.85 1126.8,1291.46 1143.2,1245.82 1159.6,1195.4 1176,1140.69 1192.4,1082.26 1208.8,1020.66 
  1225.2,956.537 1241.6,890.515 1258,823.256 1274.41,755.435 1290.81,687.727 1307.21,620.81 1323.61,555.352 1340.01,492.008 1356.41,431.409 1372.81,374.162 
  1389.21,320.839 1405.61,271.972 1422.01,228.05 1438.41,189.511 1454.81,156.741 1471.21,130.066 1487.62,109.755 1504.02,96.0085 1520.42,88.9652 1536.82,88.695 
  1553.22,95.2007 1569.62,108.417 1586.02,128.213 1602.42,154.389 1618.82,186.685 1635.22,224.778 1651.62,268.287 1668.02,316.777 1684.42,369.765 1700.83,426.72 
  1717.23,487.073 1733.63,550.222 1750.03,615.535 1766.43,682.361 1782.83,750.03 1799.23,817.867 1815.63,885.195 1832.03,951.34 1848.43,1015.64 1864.83,1077.46 
  1881.23,1136.17 1897.63,1191.19 1914.04,1241.98 1930.44,1288.01 1946.84,1328.84 1963.24,1364.05 1979.64,1393.3 1996.04,1416.28 2012.44,1432.78 2028.84,1442.62 
  2045.24,1445.72 2061.64,1442.02 2078.04,1431.59 2094.44,1414.51 2110.84,1390.96 2127.25,1361.17 2143.65,1325.45 2160.05,1284.14 2176.45,1237.66 2192.85,1186.49 
  2209.25,1131.11 2225.65,1072.1 2242.05,1010.04 2258.45,945.55 2274.85,879.274 2291.25,811.873 
  "/>
<polyline clip-path="url(#clip702)" style="stroke:#56b4e9; stroke-width:4; stroke-opacity:1; fill:none" points="
  241.157,87.9763 257.557,91.3678 273.958,101.509 290.359,118.297 306.76,141.566 323.16,171.082 339.561,206.551 355.962,247.619 372.363,293.874 388.764,344.855 
  405.164,400.053 421.565,458.915 437.966,520.854 454.367,585.252 470.767,651.463 487.168,718.828 503.569,786.672 519.97,854.318 536.37,921.091 552.771,986.322 
  569.172,1049.36 585.573,1109.58 601.974,1166.37 618.374,1219.17 634.775,1267.45 651.176,1310.72 667.577,1348.57 683.977,1380.6 700.378,1406.5 716.779,1426.01 
  733.18,1438.93 749.58,1445.14 765.981,1444.56 782.382,1437.22 798.783,1423.18 815.184,1402.58 831.584,1375.63 847.985,1342.6 864.386,1303.82 880.787,1259.67 
  897.187,1210.59 913.588,1157.08 929.989,1099.67 946.39,1038.94 962.791,975.489 979.191,909.953 995.592,842.987 1011.99,775.26 1028.39,707.449 1044.79,640.231 
  1061.2,574.279 1077.6,510.25 1094,448.786 1110.4,390.5 1126.8,335.973 1143.2,285.753 1159.6,240.339 1176,200.185 1192.4,165.694 1208.8,137.209 
  1225.2,115.016 1241.6,99.3349 1258,90.3238 1274.41,88.0722 1290.81,92.6029 1307.21,103.87 1323.61,121.762 1340.01,146.099 1356.41,176.639 1372.81,213.076 
  1389.21,255.045 1405.61,302.129 1422.01,353.856 1438.41,409.709 1454.81,469.131 1471.21,531.528 1487.62,596.276 1504.02,662.728 1520.42,730.22 1536.82,798.079 
  1553.22,865.625 1569.62,932.185 1586.02,997.092 1602.42,1059.7 1618.82,1119.38 1635.22,1175.54 1651.62,1227.61 1668.02,1275.09 1684.42,1317.48 1700.83,1354.37 
  1717.23,1385.39 1733.63,1410.23 1750.03,1428.64 1766.43,1440.44 1782.83,1445.51 1799.23,1443.8 1815.63,1435.33 1832.03,1420.17 1848.43,1398.49 1864.83,1370.5 
  1881.23,1336.47 1897.63,1296.76 1914.04,1251.74 1930.44,1201.89 1946.84,1147.69 1963.24,1089.68 1979.64,1028.45 1996.04,964.598 2012.44,898.775 2028.84,831.633 
  2045.24,763.845 2061.64,696.086 2078.04,629.035 2094.44,563.36 2110.84,499.719 2127.25,438.747 2143.65,381.053 2160.05,327.214 2176.45,277.767 2192.85,233.207 
  2209.25,193.98 2225.65,160.476 2242.05,133.031 2258.45,111.918 2274.85,97.35 2291.25,89.471 
  "/>
<path clip-path="url(#clip700)" d="
M1802.87 276.658 L2280.32 276.658 L2280.32 95.2176 L1802.87 95.2176  Z
  " fill="#ffffff" fill-rule="evenodd" fill-opacity="1"/>
<polyline clip-path="url(#clip700)" style="stroke:#000000; stroke-width:4; stroke-opacity:1; fill:none" points="
  1802.87,276.658 2280.32,276.658 2280.32,95.2176 1802.87,95.2176 1802.87,276.658 
  "/>
<polyline clip-path="url(#clip700)" style="stroke:#e69f00; stroke-width:4; stroke-opacity:1; fill:none" points="
  1827.01,155.698 1971.89,155.698 
  "/>
<path clip-path="url(#clip700)" d="M 0 0 M2012.54 136.959 L2012.54 140.501 L2008.46 140.501 Q2006.17 140.501 2005.27 141.427 Q2004.39 142.353 2004.39 144.76 L2004.39 147.052 L2011.4 147.052 L2011.4 150.362 L2004.39 150.362 L2004.39 172.978 L2000.11 172.978 L2000.11 150.362 L1996.03 150.362 L1996.03 147.052 L2000.11 147.052 L2000.11 145.246 Q2000.11 140.918 2002.12 138.95 Q2004.14 136.959 2008.51 136.959 L2012.54 136.959 Z" fill="#000000" fill-rule="evenodd" fill-opacity="1" /><path clip-path="url(#clip700)" d="M 0 0 M2016.15 170.431 L2020.87 170.431 L2020.87 156.288 L2015.71 157.237 L2015.71 154.552 L2021.03 153.649 L2024.21 153.649 L2024.21 170.431 L2028.95 170.431 L2028.95 172.978 L2016.15 172.978 L2016.15 170.431 Z" fill="#000000" fill-rule="evenodd" fill-opacity="1" /><path clip-path="url(#clip700)" d="M 0 0 M2043.65 137.006 Q2040.55 142.33 2039.04 147.538 Q2037.54 152.746 2037.54 158.093 Q2037.54 163.441 2039.04 168.695 Q2040.57 173.927 2043.65 179.228 L2039.95 179.228 Q2036.47 173.788 2034.74 168.533 Q2033.02 163.279 2033.02 158.093 Q2033.02 152.931 2034.74 147.7 Q2036.45 142.468 2039.95 137.006 L2043.65 137.006 Z" fill="#000000" fill-rule="evenodd" fill-opacity="1" /><path clip-path="url(#clip700)" d="M 0 0 M2069.67 147.052 L2060.29 159.667 L2070.15 172.978 L2065.13 172.978 L2057.58 162.792 L2050.04 172.978 L2045.02 172.978 L2055.08 159.413 L2045.87 147.052 L2050.89 147.052 L2057.77 156.288 L2064.64 147.052 L2069.67 147.052 Z" fill="#000000" fill-rule="evenodd" fill-opacity="1" /><path clip-path="url(#clip700)" d="M 0 0 M2073.95 137.006 L2077.65 137.006 Q2081.13 142.468 2082.84 147.7 Q2084.58 152.931 2084.58 158.093 Q2084.58 163.279 2082.84 168.533 Q2081.13 173.788 2077.65 179.228 L2073.95 179.228 Q2077.03 173.927 2078.53 168.695 Q2080.06 163.441 2080.06 158.093 Q2080.06 152.746 2078.53 147.538 Q2077.03 142.33 2073.95 137.006 Z" fill="#000000" fill-rule="evenodd" fill-opacity="1" /><path clip-path="url(#clip700)" d="M 0 0 M2089.6 151.45 L2119.27 151.45 L2119.27 155.339 L2089.6 155.339 L2089.6 151.45 M2089.6 160.894 L2119.27 160.894 L2119.27 164.829 L2089.6 164.829 L2089.6 160.894 Z" fill="#000000" fill-rule="evenodd" fill-opacity="1" /><path clip-path="url(#clip700)" d="M 0 0 M2140.27 147.816 L2140.27 151.843 Q2138.46 150.917 2136.52 150.455 Q2134.57 149.992 2132.49 149.992 Q2129.32 149.992 2127.72 150.964 Q2126.15 151.936 2126.15 153.88 Q2126.15 155.362 2127.28 156.218 Q2128.42 157.052 2131.84 157.816 L2133.3 158.14 Q2137.84 159.112 2139.74 160.894 Q2141.66 162.654 2141.66 165.825 Q2141.66 169.436 2138.79 171.542 Q2135.94 173.649 2130.94 173.649 Q2128.86 173.649 2126.59 173.232 Q2124.34 172.839 2121.84 172.028 L2121.84 167.63 Q2124.2 168.857 2126.5 169.482 Q2128.79 170.084 2131.03 170.084 Q2134.04 170.084 2135.66 169.066 Q2137.28 168.024 2137.28 166.149 Q2137.28 164.413 2136.1 163.487 Q2134.95 162.561 2130.99 161.704 L2129.51 161.357 Q2125.55 160.524 2123.79 158.811 Q2122.03 157.075 2122.03 154.066 Q2122.03 150.408 2124.62 148.418 Q2127.21 146.427 2131.98 146.427 Q2134.34 146.427 2136.43 146.774 Q2138.51 147.121 2140.27 147.816 Z" fill="#000000" fill-rule="evenodd" fill-opacity="1" /><path clip-path="url(#clip700)" d="M 0 0 M2146.13 147.052 L2150.38 147.052 L2150.38 172.978 L2146.13 172.978 L2146.13 147.052 M2146.13 136.959 L2150.38 136.959 L2150.38 142.353 L2146.13 142.353 L2146.13 136.959 Z" fill="#000000" fill-rule="evenodd" fill-opacity="1" /><path clip-path="url(#clip700)" d="M 0 0 M2176.4 157.329 L2176.4 172.978 L2172.14 172.978 L2172.14 157.468 Q2172.14 153.788 2170.71 151.959 Q2169.27 150.13 2166.4 150.13 Q2162.95 150.13 2160.96 152.33 Q2158.97 154.529 2158.97 158.325 L2158.97 172.978 L2154.69 172.978 L2154.69 147.052 L2158.97 147.052 L2158.97 151.08 Q2160.5 148.742 2162.56 147.584 Q2164.64 146.427 2167.35 146.427 Q2171.82 146.427 2174.11 149.205 Q2176.4 151.959 2176.4 157.329 Z" fill="#000000" fill-rule="evenodd" fill-opacity="1" /><path clip-path="url(#clip700)" d="M 0 0 M2191.1 137.006 Q2188 142.33 2186.5 147.538 Q2184.99 152.746 2184.99 158.093 Q2184.99 163.441 2186.5 168.695 Q2188.02 173.927 2191.1 179.228 L2187.4 179.228 Q2183.93 173.788 2182.19 168.533 Q2180.48 163.279 2180.48 158.093 Q2180.48 152.931 2182.19 147.7 Q2183.9 142.468 2187.4 137.006 L2191.1 137.006 Z" fill="#000000" fill-rule="evenodd" fill-opacity="1" /><path clip-path="url(#clip700)" d="M 0 0 M2217.12 147.052 L2207.75 159.667 L2217.61 172.978 L2212.58 172.978 L2205.04 162.792 L2197.49 172.978 L2192.47 172.978 L2202.54 159.413 L2193.32 147.052 L2198.35 147.052 L2205.22 156.288 L2212.1 147.052 L2217.12 147.052 Z" fill="#000000" fill-rule="evenodd" fill-opacity="1" /><path clip-path="url(#clip700)" d="M 0 0 M2221.4 137.006 L2225.11 137.006 Q2228.58 142.468 2230.29 147.7 Q2232.03 152.931 2232.03 158.093 Q2232.03 163.279 2230.29 168.533 Q2228.58 173.788 2225.11 179.228 L2221.4 179.228 Q2224.48 173.927 2225.99 168.695 Q2227.51 163.441 2227.51 158.093 Q2227.51 152.746 2225.99 147.538 Q2224.48 142.33 2221.4 137.006 Z" fill="#000000" fill-rule="evenodd" fill-opacity="1" /><polyline clip-path="url(#clip700)" style="stroke:#56b4e9; stroke-width:4; stroke-opacity:1; fill:none" points="
  1827.01,216.178 1971.89,216.178 
  "/>
<path clip-path="url(#clip700)" d="M 0 0 M2012.54 197.439 L2012.54 200.981 L2008.46 200.981 Q2006.17 200.981 2005.27 201.907 Q2004.39 202.833 2004.39 205.24 L2004.39 207.532 L2011.4 207.532 L2011.4 210.842 L2004.39 210.842 L2004.39 233.458 L2000.11 233.458 L2000.11 210.842 L1996.03 210.842 L1996.03 207.532 L2000.11 207.532 L2000.11 205.726 Q2000.11 201.398 2002.12 199.43 Q2004.14 197.439 2008.51 197.439 L2012.54 197.439 Z" fill="#000000" fill-rule="evenodd" fill-opacity="1" /><path clip-path="url(#clip700)" d="M 0 0 M2018.74 230.819 L2028.56 230.819 L2028.56 233.458 L2014.71 233.458 L2014.71 230.911 Q2015.5 230.194 2016.96 228.897 Q2024.92 221.837 2024.92 219.661 Q2024.92 218.134 2023.72 217.208 Q2022.52 216.259 2020.55 216.259 Q2019.34 216.259 2017.93 216.675 Q2016.52 217.069 2014.85 217.879 L2014.85 215.032 Q2016.64 214.384 2018.16 214.06 Q2019.71 213.735 2021.03 213.735 Q2024.39 213.735 2026.4 215.263 Q2028.42 216.791 2028.42 219.291 Q2028.42 222.509 2020.76 229.083 Q2019.46 230.194 2018.74 230.819 Z" fill="#000000" fill-rule="evenodd" fill-opacity="1" /><path clip-path="url(#clip700)" d="M 0 0 M2043.26 197.486 Q2040.15 202.81 2038.65 208.018 Q2037.14 213.226 2037.14 218.573 Q2037.14 223.921 2038.65 229.175 Q2040.18 234.407 2043.26 239.708 L2039.55 239.708 Q2036.08 234.268 2034.34 229.013 Q2032.63 223.759 2032.63 218.573 Q2032.63 213.411 2034.34 208.18 Q2036.06 202.948 2039.55 197.486 L2043.26 197.486 Z" fill="#000000" fill-rule="evenodd" fill-opacity="1" /><path clip-path="url(#clip700)" d="M 0 0 M2069.27 207.532 L2059.9 220.147 L2069.76 233.458 L2064.74 233.458 L2057.19 223.272 L2049.64 233.458 L2044.62 233.458 L2054.69 219.893 L2045.48 207.532 L2050.5 207.532 L2057.38 216.768 L2064.25 207.532 L2069.27 207.532 Z" fill="#000000" fill-rule="evenodd" fill-opacity="1" /><path clip-path="url(#clip700)" d="M 0 0 M2073.56 197.486 L2077.26 197.486 Q2080.73 202.948 2082.45 208.18 Q2084.18 213.411 2084.18 218.573 Q2084.18 223.759 2082.45 229.013 Q2080.73 234.268 2077.26 239.708 L2073.56 239.708 Q2076.64 234.407 2078.14 229.175 Q2079.67 223.921 2079.67 218.573 Q2079.67 213.226 2078.14 208.018 Q2076.64 202.81 2073.56 197.486 Z" fill="#000000" fill-rule="evenodd" fill-opacity="1" /><path clip-path="url(#clip700)" d="M 0 0 M2089.2 211.93 L2118.88 211.93 L2118.88 215.819 L2089.2 215.819 L2089.2 211.93 M2089.2 221.374 L2118.88 221.374 L2118.88 225.309 L2089.2 225.309 L2089.2 221.374 Z" fill="#000000" fill-rule="evenodd" fill-opacity="1" /><path clip-path="url(#clip700)" d="M 0 0 M2142.01 208.527 L2142.01 212.509 Q2140.2 211.513 2138.37 211.027 Q2136.57 210.518 2134.71 210.518 Q2130.57 210.518 2128.28 213.157 Q2125.99 215.772 2125.99 220.518 Q2125.99 225.263 2128.28 227.902 Q2130.57 230.518 2134.71 230.518 Q2136.57 230.518 2138.37 230.032 Q2140.2 229.522 2142.01 228.527 L2142.01 232.462 Q2140.22 233.296 2138.3 233.712 Q2136.4 234.129 2134.25 234.129 Q2128.39 234.129 2124.95 230.448 Q2121.5 226.768 2121.5 220.518 Q2121.5 214.175 2124.97 210.541 Q2128.46 206.907 2134.53 206.907 Q2136.5 206.907 2138.37 207.323 Q2140.25 207.717 2142.01 208.527 Z" fill="#000000" fill-rule="evenodd" fill-opacity="1" /><path clip-path="url(#clip700)" d="M 0 0 M2156.52 210.518 Q2153.09 210.518 2151.1 213.203 Q2149.11 215.865 2149.11 220.518 Q2149.11 225.171 2151.08 227.856 Q2153.07 230.518 2156.52 230.518 Q2159.92 230.518 2161.91 227.833 Q2163.9 225.147 2163.9 220.518 Q2163.9 215.911 2161.91 213.226 Q2159.92 210.518 2156.52 210.518 M2156.52 206.907 Q2162.07 206.907 2165.25 210.518 Q2168.42 214.129 2168.42 220.518 Q2168.42 226.884 2165.25 230.518 Q2162.07 234.129 2156.52 234.129 Q2150.94 234.129 2147.77 230.518 Q2144.62 226.884 2144.62 220.518 Q2144.62 214.129 2147.77 210.518 Q2150.94 206.907 2156.52 206.907 Z" fill="#000000" fill-rule="evenodd" fill-opacity="1" /><path clip-path="url(#clip700)" d="M 0 0 M2189.41 208.296 L2189.41 212.323 Q2187.61 211.397 2185.66 210.935 Q2183.72 210.472 2181.63 210.472 Q2178.46 210.472 2176.87 211.444 Q2175.29 212.416 2175.29 214.36 Q2175.29 215.842 2176.43 216.698 Q2177.56 217.532 2180.99 218.296 L2182.44 218.62 Q2186.98 219.592 2188.88 221.374 Q2190.8 223.134 2190.8 226.305 Q2190.8 229.916 2187.93 232.022 Q2185.08 234.129 2180.08 234.129 Q2178 234.129 2175.73 233.712 Q2173.49 233.319 2170.99 232.508 L2170.99 228.11 Q2173.35 229.337 2175.64 229.962 Q2177.93 230.564 2180.18 230.564 Q2183.19 230.564 2184.81 229.546 Q2186.43 228.504 2186.43 226.629 Q2186.43 224.893 2185.25 223.967 Q2184.09 223.041 2180.13 222.184 L2178.65 221.837 Q2174.69 221.004 2172.93 219.291 Q2171.17 217.555 2171.17 214.546 Q2171.17 210.888 2173.76 208.898 Q2176.36 206.907 2181.13 206.907 Q2183.49 206.907 2185.57 207.254 Q2187.65 207.601 2189.41 208.296 Z" fill="#000000" fill-rule="evenodd" fill-opacity="1" /><path clip-path="url(#clip700)" d="M 0 0 M2205.5 197.486 Q2202.4 202.81 2200.89 208.018 Q2199.39 213.226 2199.39 218.573 Q2199.39 223.921 2200.89 229.175 Q2202.42 234.407 2205.5 239.708 L2201.8 239.708 Q2198.32 234.268 2196.59 229.013 Q2194.88 223.759 2194.88 218.573 Q2194.88 213.411 2196.59 208.18 Q2198.3 202.948 2201.8 197.486 L2205.5 197.486 Z" fill="#000000" fill-rule="evenodd" fill-opacity="1" /><path clip-path="url(#clip700)" d="M 0 0 M2209.3 197.486 L2213 197.486 Q2216.47 202.948 2218.19 208.18 Q2219.92 213.411 2219.92 218.573 Q2219.92 223.759 2218.19 229.013 Q2216.47 234.268 2213 239.708 L2209.3 239.708 Q2212.38 234.407 2213.88 229.175 Q2215.41 223.921 2215.41 218.573 Q2215.41 213.226 2213.88 208.018 Q2212.38 202.81 2209.3 197.486 Z" fill="#000000" fill-rule="evenodd" fill-opacity="1" /></svg>
