<?xml version="1.0" encoding="utf-8"?>
<svg xmlns="http://www.w3.org/2000/svg" xmlns:xlink="http://www.w3.org/1999/xlink" width="2200" height="2200" viewBox="0 0 8800 8800">
<defs>
  <clipPath id="clip140">
    <rect x="0" y="0" width="8800" height="8800"/>
  </clipPath>
</defs>
<path clip-path="url(#clip140)" d="
M0 8800 L8800 8800 L8800 0 L0 0  Z
  " fill="#ffffff" fill-rule="evenodd" fill-opacity="1"/>
<defs>
  <clipPath id="clip141">
    <rect x="1760" y="880" width="6161" height="6161"/>
  </clipPath>
</defs>
<path clip-path="url(#clip140)" d="
M837.382 7985.26 L8752.76 7985.26 L8752.76 386.992 L837.382 386.992  Z
  " fill="#ffffff" fill-rule="evenodd" fill-opacity="1"/>
<defs>
  <clipPath id="clip142">
    <rect x="837" y="386" width="7916" height="7599"/>
  </clipPath>
</defs>
<polyline clip-path="url(#clip142)" style="stroke:#000000; stroke-width:2; stroke-opacity:0.1; fill:none" points="
  1181.59,7985.26 1181.59,386.992 
  "/>
<polyline clip-path="url(#clip142)" style="stroke:#000000; stroke-width:2; stroke-opacity:0.1; fill:none" points="
  2979.33,7985.26 2979.33,386.992 
  "/>
<polyline clip-path="url(#clip142)" style="stroke:#000000; stroke-width:2; stroke-opacity:0.1; fill:none" points="
  4777.08,7985.26 4777.08,386.992 
  "/>
<polyline clip-path="url(#clip142)" style="stroke:#000000; stroke-width:2; stroke-opacity:0.1; fill:none" points="
  6574.82,7985.26 6574.82,386.992 
  "/>
<polyline clip-path="url(#clip142)" style="stroke:#000000; stroke-width:2; stroke-opacity:0.1; fill:none" points="
  8372.56,7985.26 8372.56,386.992 
  "/>
<polyline clip-path="url(#clip140)" style="stroke:#000000; stroke-width:4; stroke-opacity:1; fill:none" points="
  837.382,7985.26 8752.76,7985.26 
  "/>
<polyline clip-path="url(#clip140)" style="stroke:#000000; stroke-width:4; stroke-opacity:1; fill:none" points="
  1181.59,7985.26 1181.59,7894.08 
  "/>
<polyline clip-path="url(#clip140)" style="stroke:#000000; stroke-width:4; stroke-opacity:1; fill:none" points="
  2979.33,7985.26 2979.33,7894.08 
  "/>
<polyline clip-path="url(#clip140)" style="stroke:#000000; stroke-width:4; stroke-opacity:1; fill:none" points="
  4777.08,7985.26 4777.08,7894.08 
  "/>
<polyline clip-path="url(#clip140)" style="stroke:#000000; stroke-width:4; stroke-opacity:1; fill:none" points="
  6574.82,7985.26 6574.82,7894.08 
  "/>
<polyline clip-path="url(#clip140)" style="stroke:#000000; stroke-width:4; stroke-opacity:1; fill:none" points="
  8372.56,7985.26 8372.56,7894.08 
  "/>
<path clip-path="url(#clip140)" d="M 0 0 M1009.43 8209.68 L1194.9 8209.68 L1194.9 8234.28 L1009.43 8234.28 L1009.43 8209.68 Z" fill="#000000" fill-rule="evenodd" fill-opacity="1" /><path clip-path="url(#clip140)" d="M 0 0 M1251.76 8290.27 L1353.75 8290.27 L1353.75 8314.86 L1216.6 8314.86 L1216.6 8290.27 Q1233.24 8273.05 1261.89 8244.11 Q1290.68 8215.03 1298.05 8206.64 Q1312.09 8190.87 1317.59 8180.02 Q1323.23 8169.03 1323.23 8158.47 Q1323.23 8141.25 1311.08 8130.4 Q1299.07 8119.55 1279.68 8119.55 Q1265.94 8119.55 1250.6 8124.32 Q1235.41 8129.1 1218.05 8138.79 L1218.05 8109.28 Q1235.7 8102.19 1251.04 8098.57 Q1266.37 8094.95 1279.1 8094.95 Q1312.67 8094.95 1332.63 8111.74 Q1352.6 8128.52 1352.6 8156.59 Q1352.6 8169.9 1347.53 8181.9 Q1342.61 8193.77 1329.45 8209.97 Q1325.83 8214.17 1306.45 8234.28 Q1287.06 8254.24 1251.76 8290.27 Z" fill="#000000" fill-rule="evenodd" fill-opacity="1" /><path clip-path="url(#clip140)" d="M 0 0 M2806.01 8209.68 L2991.49 8209.68 L2991.49 8234.28 L2806.01 8234.28 L2806.01 8209.68 Z" fill="#000000" fill-rule="evenodd" fill-opacity="1" /><path clip-path="url(#clip140)" d="M 0 0 M3028.23 8290.27 L3075.98 8290.27 L3075.98 8125.48 L3024.04 8135.9 L3024.04 8109.28 L3075.69 8098.86 L3104.91 8098.86 L3104.91 8290.27 L3152.66 8290.27 L3152.66 8314.86 L3028.23 8314.86 L3028.23 8290.27 Z" fill="#000000" fill-rule="evenodd" fill-opacity="1" /><path clip-path="url(#clip140)" d="M 0 0 M4777.08 8118.1 Q4754.51 8118.1 4743.08 8140.38 Q4731.79 8162.52 4731.79 8207.08 Q4731.79 8251.49 4743.08 8273.77 Q4754.51 8295.91 4777.08 8295.91 Q4799.79 8295.91 4811.08 8273.77 Q4822.51 8251.49 4822.51 8207.08 Q4822.51 8162.52 4811.08 8140.38 Q4799.79 8118.1 4777.08 8118.1 M4777.08 8094.95 Q4813.39 8094.95 4832.49 8123.74 Q4851.73 8152.39 4851.73 8207.08 Q4851.73 8261.62 4832.49 8290.41 Q4813.39 8319.06 4777.08 8319.06 Q4740.76 8319.06 4721.52 8290.41 Q4702.43 8261.62 4702.43 8207.08 Q4702.43 8152.39 4721.52 8123.74 Q4740.76 8094.95 4777.08 8094.95 Z" fill="#000000" fill-rule="evenodd" fill-opacity="1" /><path clip-path="url(#clip140)" d="M 0 0 M6514.71 8290.27 L6562.45 8290.27 L6562.45 8125.48 L6510.51 8135.9 L6510.51 8109.28 L6562.16 8098.86 L6591.39 8098.86 L6591.39 8290.27 L6639.13 8290.27 L6639.13 8314.86 L6514.71 8314.86 L6514.71 8290.27 Z" fill="#000000" fill-rule="evenodd" fill-opacity="1" /><path clip-path="url(#clip140)" d="M 0 0 M8339.14 8290.27 L8441.14 8290.27 L8441.14 8314.86 L8303.99 8314.86 L8303.99 8290.27 Q8320.63 8273.05 8349.27 8244.11 Q8378.06 8215.03 8385.44 8206.64 Q8399.47 8190.87 8404.97 8180.02 Q8410.61 8169.03 8410.61 8158.47 Q8410.61 8141.25 8398.46 8130.4 Q8386.45 8119.55 8367.07 8119.55 Q8353.32 8119.55 8337.99 8124.32 Q8322.8 8129.1 8305.44 8138.79 L8305.44 8109.28 Q8323.09 8102.19 8338.42 8098.57 Q8353.76 8094.95 8366.49 8094.95 Q8400.05 8094.95 8420.02 8111.74 Q8439.98 8128.52 8439.98 8156.59 Q8439.98 8169.9 8434.92 8181.9 Q8430 8193.77 8416.84 8209.97 Q8413.22 8214.17 8393.83 8234.28 Q8374.45 8254.24 8339.14 8290.27 Z" fill="#000000" fill-rule="evenodd" fill-opacity="1" /><path clip-path="url(#clip140)" d="M 0 0 M4562.94 8555.19 Q4572.34 8558.37 4581.17 8568.79 Q4590.14 8579.2 4599.11 8597.43 L4628.76 8656.46 L4597.37 8656.46 L4569.74 8601.05 Q4559.03 8579.35 4548.9 8572.26 Q4538.92 8565.17 4521.56 8565.17 L4489.73 8565.17 L4489.73 8656.46 L4460.51 8656.46 L4460.51 8440.46 L4526.48 8440.46 Q4563.52 8440.46 4581.75 8455.94 Q4599.97 8471.42 4599.97 8502.67 Q4599.97 8523.07 4590.43 8536.52 Q4581.02 8549.98 4562.94 8555.19 M4489.73 8464.48 L4489.73 8541.15 L4526.48 8541.15 Q4547.6 8541.15 4558.31 8531.46 Q4569.16 8521.62 4569.16 8502.67 Q4569.16 8483.72 4558.31 8474.17 Q4547.6 8464.48 4526.48 8464.48 L4489.73 8464.48 Z" fill="#000000" fill-rule="evenodd" fill-opacity="1" /><path clip-path="url(#clip140)" d="M 0 0 M4781.98 8568.79 L4781.98 8581.81 L4659.58 8581.81 Q4661.32 8609.3 4676.07 8623.76 Q4690.98 8638.09 4717.45 8638.09 Q4732.79 8638.09 4747.11 8634.32 Q4761.58 8630.56 4775.75 8623.04 L4775.75 8648.21 Q4761.43 8654.29 4746.39 8657.47 Q4731.34 8660.66 4715.86 8660.66 Q4677.09 8660.66 4654.37 8638.09 Q4631.8 8615.52 4631.8 8577.03 Q4631.8 8537.25 4653.21 8513.95 Q4674.77 8490.52 4711.23 8490.52 Q4743.93 8490.52 4762.88 8511.64 Q4781.98 8532.62 4781.98 8568.79 M4755.36 8560.97 Q4755.07 8539.13 4743.06 8526.11 Q4731.19 8513.09 4711.52 8513.09 Q4689.24 8513.09 4675.78 8525.67 Q4662.47 8538.26 4660.45 8561.12 L4755.36 8560.97 Z" fill="#000000" fill-rule="evenodd" fill-opacity="1" /><path clip-path="url(#clip140)" d="M 0 0 M4873.84 8431.63 Q4854.46 8464.91 4845.05 8497.46 Q4835.65 8530.01 4835.65 8563.43 Q4835.65 8596.85 4845.05 8629.69 Q4854.6 8662.39 4873.84 8695.52 L4850.7 8695.52 Q4829 8661.52 4818.14 8628.68 Q4807.44 8595.84 4807.44 8563.43 Q4807.44 8531.17 4818.14 8498.47 Q4828.85 8465.78 4850.7 8431.63 L4873.84 8431.63 Z" fill="#000000" fill-rule="evenodd" fill-opacity="1" /><path clip-path="url(#clip140)" d="M 0 0 M5036.46 8494.42 L4977.87 8573.27 L5039.5 8656.46 L5008.1 8656.46 L4960.94 8592.8 L4913.77 8656.46 L4882.38 8656.46 L4945.31 8571.68 L4887.73 8494.42 L4919.13 8494.42 L4962.1 8552.15 L5005.06 8494.42 L5036.46 8494.42 Z" fill="#000000" fill-rule="evenodd" fill-opacity="1" /><path clip-path="url(#clip140)" d="M 0 0 M5063.22 8431.63 L5086.37 8431.63 Q5108.07 8465.78 5118.78 8498.47 Q5129.63 8531.17 5129.63 8563.43 Q5129.63 8595.84 5118.78 8628.68 Q5108.07 8661.52 5086.37 8695.52 L5063.22 8695.52 Q5082.47 8662.39 5091.87 8629.69 Q5101.42 8596.85 5101.42 8563.43 Q5101.42 8530.01 5091.87 8497.46 Q5082.47 8464.91 5063.22 8431.63 Z" fill="#000000" fill-rule="evenodd" fill-opacity="1" /><polyline clip-path="url(#clip142)" style="stroke:#000000; stroke-width:2; stroke-opacity:0.1; fill:none" points="
  837.382,7784 8752.76,7784 
  "/>
<polyline clip-path="url(#clip142)" style="stroke:#000000; stroke-width:2; stroke-opacity:0.1; fill:none" points="
  837.382,5986.26 8752.76,5986.26 
  "/>
<polyline clip-path="url(#clip142)" style="stroke:#000000; stroke-width:2; stroke-opacity:0.1; fill:none" points="
  837.382,4188.52 8752.76,4188.52 
  "/>
<polyline clip-path="url(#clip142)" style="stroke:#000000; stroke-width:2; stroke-opacity:0.1; fill:none" points="
  837.382,2390.77 8752.76,2390.77 
  "/>
<polyline clip-path="url(#clip142)" style="stroke:#000000; stroke-width:2; stroke-opacity:0.1; fill:none" points="
  837.382,593.031 8752.76,593.031 
  "/>
<polyline clip-path="url(#clip140)" style="stroke:#000000; stroke-width:4; stroke-opacity:1; fill:none" points="
  837.382,7985.26 837.382,386.992 
  "/>
<polyline clip-path="url(#clip140)" style="stroke:#000000; stroke-width:4; stroke-opacity:1; fill:none" points="
  837.382,7784 932.366,7784 
  "/>
<polyline clip-path="url(#clip140)" style="stroke:#000000; stroke-width:4; stroke-opacity:1; fill:none" points="
  837.382,5986.26 932.366,5986.26 
  "/>
<polyline clip-path="url(#clip140)" style="stroke:#000000; stroke-width:4; stroke-opacity:1; fill:none" points="
  837.382,4188.52 932.366,4188.52 
  "/>
<polyline clip-path="url(#clip140)" style="stroke:#000000; stroke-width:4; stroke-opacity:1; fill:none" points="
  837.382,2390.77 932.366,2390.77 
  "/>
<polyline clip-path="url(#clip140)" style="stroke:#000000; stroke-width:4; stroke-opacity:1; fill:none" points="
  837.382,593.031 932.366,593.031 
  "/>
<path clip-path="url(#clip140)" d="M 0 0 M361.055 7786.83 L546.529 7786.83 L546.529 7811.42 L361.055 7811.42 L361.055 7786.83 Z" fill="#000000" fill-rule="evenodd" fill-opacity="1" /><path clip-path="url(#clip140)" d="M 0 0 M603.386 7867.41 L705.382 7867.41 L705.382 7892 L568.23 7892 L568.23 7867.41 Q584.867 7850.19 613.513 7821.26 Q642.303 7792.18 649.682 7783.79 Q663.715 7768.02 669.213 7757.17 Q674.855 7746.17 674.855 7735.61 Q674.855 7718.39 662.703 7707.54 Q650.695 7696.69 631.308 7696.69 Q617.564 7696.69 602.228 7701.47 Q587.038 7706.24 569.677 7715.93 L569.677 7686.42 Q587.327 7679.33 602.662 7675.72 Q617.998 7672.1 630.729 7672.1 Q664.294 7672.1 684.259 7688.88 Q704.224 7705.66 704.224 7733.73 Q704.224 7747.04 699.161 7759.05 Q694.242 7770.91 681.076 7787.12 Q677.46 7791.31 658.073 7811.42 Q638.687 7831.39 603.386 7867.41 Z" fill="#000000" fill-rule="evenodd" fill-opacity="1" /><path clip-path="url(#clip140)" d="M 0 0 M358.74 5989.08 L544.214 5989.08 L544.214 6013.68 L358.74 6013.68 L358.74 5989.08 Z" fill="#000000" fill-rule="evenodd" fill-opacity="1" /><path clip-path="url(#clip140)" d="M 0 0 M580.961 6069.67 L628.704 6069.67 L628.704 5904.88 L576.766 5915.3 L576.766 5888.68 L628.415 5878.26 L657.639 5878.26 L657.639 6069.67 L705.382 6069.67 L705.382 6094.26 L580.961 6094.26 L580.961 6069.67 Z" fill="#000000" fill-rule="evenodd" fill-opacity="1" /><path clip-path="url(#clip140)" d="M 0 0 M630.729 4099.76 Q608.16 4099.76 596.731 4122.04 Q585.446 4144.17 585.446 4188.73 Q585.446 4233.15 596.731 4255.43 Q608.16 4277.57 630.729 4277.57 Q653.443 4277.57 664.728 4255.43 Q676.157 4233.15 676.157 4188.73 Q676.157 4144.17 664.728 4122.04 Q653.443 4099.76 630.729 4099.76 M630.729 4076.61 Q667.043 4076.61 686.14 4105.4 Q705.382 4134.05 705.382 4188.73 Q705.382 4243.28 686.14 4272.07 Q667.043 4300.71 630.729 4300.71 Q594.416 4300.71 575.174 4272.07 Q556.077 4243.28 556.077 4188.73 Q556.077 4134.05 575.174 4105.4 Q594.416 4076.61 630.729 4076.61 Z" fill="#000000" fill-rule="evenodd" fill-opacity="1" /><path clip-path="url(#clip140)" d="M 0 0 M580.961 2474.18 L628.704 2474.18 L628.704 2309.39 L576.766 2319.81 L576.766 2293.19 L628.415 2282.77 L657.639 2282.77 L657.639 2474.18 L705.382 2474.18 L705.382 2498.77 L580.961 2498.77 L580.961 2474.18 Z" fill="#000000" fill-rule="evenodd" fill-opacity="1" /><path clip-path="url(#clip140)" d="M 0 0 M603.386 676.436 L705.382 676.436 L705.382 701.031 L568.23 701.031 L568.23 676.436 Q584.867 659.22 613.513 630.285 Q642.303 601.205 649.682 592.814 Q663.715 577.044 669.213 566.193 Q674.855 555.198 674.855 544.637 Q674.855 527.421 662.703 516.57 Q650.695 505.719 631.308 505.719 Q617.564 505.719 602.228 510.494 Q587.038 515.268 569.677 524.961 L569.677 495.447 Q587.327 488.358 602.662 484.741 Q617.998 481.124 630.729 481.124 Q664.294 481.124 684.259 497.907 Q704.224 514.689 704.224 542.756 Q704.224 556.066 699.161 568.074 Q694.242 579.938 681.076 596.141 Q677.46 600.337 658.073 620.447 Q638.687 640.412 603.386 676.436 Z" fill="#000000" fill-rule="evenodd" fill-opacity="1" /><path clip-path="url(#clip140)" d="M 0 0 M33.9402 4506.29 L33.9402 4477.07 L249.94 4477.07 L249.94 4506.29 L33.9402 4506.29 Z" fill="#000000" fill-rule="evenodd" fill-opacity="1" /><path clip-path="url(#clip140)" d="M 0 0 M119.009 4322.99 Q101.069 4313.01 92.5336 4299.12 Q83.9978 4285.23 83.9978 4266.42 Q83.9978 4241.1 101.793 4227.36 Q119.443 4213.61 152.14 4213.61 L249.94 4213.61 L249.94 4240.38 L153.008 4240.38 Q129.715 4240.38 118.43 4248.63 Q107.146 4256.87 107.146 4273.8 Q107.146 4294.49 120.89 4306.5 Q134.634 4318.5 158.361 4318.5 L249.94 4318.5 L249.94 4345.27 L153.008 4345.27 Q129.57 4345.27 118.43 4353.52 Q107.146 4361.76 107.146 4378.98 Q107.146 4399.38 121.035 4411.39 Q134.779 4423.39 158.361 4423.39 L249.94 4423.39 L249.94 4450.16 L87.904 4450.16 L87.904 4423.39 L113.077 4423.39 Q98.1759 4414.28 91.0868 4401.55 Q83.9978 4388.82 83.9978 4371.31 Q83.9978 4353.66 92.9676 4341.36 Q101.937 4328.92 119.009 4322.99 Z" fill="#000000" fill-rule="evenodd" fill-opacity="1" /><path clip-path="url(#clip140)" d="M 0 0 M25.115 4121.75 Q58.3903 4141.13 90.9422 4150.54 Q123.494 4159.94 156.914 4159.94 Q190.334 4159.94 223.175 4150.54 Q255.872 4140.99 289.002 4121.75 L289.002 4144.89 Q255.004 4166.59 222.163 4177.45 Q189.321 4188.15 156.914 4188.15 Q124.651 4188.15 91.9549 4177.45 Q59.2583 4166.74 25.115 4144.89 L25.115 4121.75 Z" fill="#000000" fill-rule="evenodd" fill-opacity="1" /><path clip-path="url(#clip140)" d="M 0 0 M87.904 3959.13 L166.752 4017.72 L249.94 3956.09 L249.94 3987.49 L186.283 4034.65 L249.94 4081.82 L249.94 4113.21 L165.161 4050.28 L87.904 4107.86 L87.904 4076.46 L145.629 4033.49 L87.904 3990.53 L87.904 3959.13 Z" fill="#000000" fill-rule="evenodd" fill-opacity="1" /><path clip-path="url(#clip140)" d="M 0 0 M25.115 3932.37 L25.115 3909.22 Q59.2583 3887.52 91.9549 3876.81 Q124.651 3865.96 156.914 3865.96 Q189.321 3865.96 222.163 3876.81 Q255.004 3887.52 289.002 3909.22 L289.002 3932.37 Q255.872 3913.12 223.175 3903.72 Q190.334 3894.17 156.914 3894.17 Q123.494 3894.17 90.9422 3903.72 Q58.3903 3913.12 25.115 3932.37 Z" fill="#000000" fill-rule="evenodd" fill-opacity="1" /><path clip-path="url(#clip140)" d="M 0 0 M3711.09 228.384 L3711.09 170.369 L3663.35 170.369 L3663.35 146.353 L3740.03 146.353 L3740.03 239.09 Q3723.1 251.098 3702.7 257.319 Q3682.3 263.396 3659.15 263.396 Q3608.52 263.396 3579.87 233.882 Q3551.37 204.223 3551.37 151.417 Q3551.37 98.4659 3579.87 68.9522 Q3608.52 39.2938 3659.15 39.2938 Q3680.27 39.2938 3699.23 44.5021 Q3718.32 49.7104 3734.38 59.8376 L3734.38 90.9428 Q3718.18 77.1987 3699.95 70.2543 Q3681.72 63.3098 3661.61 63.3098 Q3621.97 63.3098 3602.01 85.4451 Q3582.18 107.58 3582.18 151.417 Q3582.18 195.109 3602.01 217.244 Q3621.97 239.38 3661.61 239.38 Q3677.09 239.38 3689.24 236.775 Q3701.4 234.027 3711.09 228.384 Z" fill="#000000" fill-rule="evenodd" fill-opacity="1" /><path clip-path="url(#clip140)" d="M 0 0 M3861.84 122.048 Q3857.36 119.444 3852 118.286 Q3846.8 116.984 3840.43 116.984 Q3817.86 116.984 3805.71 131.741 Q3793.7 146.353 3793.7 173.842 L3793.7 259.2 L3766.93 259.2 L3766.93 97.1638 L3793.7 97.1638 L3793.7 122.337 Q3802.09 107.58 3815.55 100.491 Q3829 93.2576 3848.24 93.2576 Q3850.99 93.2576 3854.32 93.6916 Q3857.65 93.981 3861.7 94.7044 L3861.84 122.048 Z" fill="#000000" fill-rule="evenodd" fill-opacity="1" /><path clip-path="url(#clip140)" d="M 0 0 M3963.4 177.748 Q3931.14 177.748 3918.7 185.126 Q3906.26 192.505 3906.26 210.3 Q3906.26 224.478 3915.52 232.869 Q3924.92 241.116 3940.98 241.116 Q3963.11 241.116 3976.42 225.491 Q3989.88 209.721 3989.88 183.68 L3989.88 177.748 L3963.4 177.748 M4016.5 166.753 L4016.5 259.2 L3989.88 259.2 L3989.88 234.605 Q3980.76 249.362 3967.17 256.451 Q3953.57 263.396 3933.89 263.396 Q3909.01 263.396 3894.25 249.507 Q3879.64 235.473 3879.64 212.036 Q3879.64 184.692 3897.87 170.803 Q3916.24 156.915 3952.55 156.915 L3989.88 156.915 L3989.88 154.311 Q3989.88 135.937 3977.73 125.954 Q3965.72 115.827 3943.87 115.827 Q3929.98 115.827 3916.82 119.154 Q3903.65 122.482 3891.5 129.137 L3891.5 104.542 Q3906.11 98.8999 3919.86 96.1511 Q3933.6 93.2576 3946.62 93.2576 Q3981.78 93.2576 3999.14 111.487 Q4016.5 129.716 4016.5 166.753 M3967.89 22.2221 L3996.68 22.2221 L3949.51 76.62 L3927.38 76.62 L3967.89 22.2221 Z" fill="#000000" fill-rule="evenodd" fill-opacity="1" /><path clip-path="url(#clip140)" d="M 0 0 M4126.45 34.0855 L4126.45 56.2208 L4100.99 56.2208 Q4086.67 56.2208 4081.02 62.0078 Q4075.53 67.7948 4075.53 82.841 L4075.53 97.1638 L4119.36 97.1638 L4119.36 117.852 L4075.53 117.852 L4075.53 259.2 L4048.76 259.2 L4048.76 117.852 L4023.3 117.852 L4023.3 97.1638 L4048.76 97.1638 L4048.76 85.8792 Q4048.76 58.8249 4061.35 46.5275 Q4073.94 34.0855 4101.28 34.0855 L4126.45 34.0855 Z" fill="#000000" fill-rule="evenodd" fill-opacity="1" /><path clip-path="url(#clip140)" d="M 0 0 M4154.37 97.1638 L4181 97.1638 L4181 259.2 L4154.37 259.2 L4154.37 97.1638 M4154.37 34.0855 L4181 34.0855 L4181 67.7948 L4154.37 67.7948 L4154.37 34.0855 Z" fill="#000000" fill-rule="evenodd" fill-opacity="1" /><path clip-path="url(#clip140)" d="M 0 0 M4325.53 103.385 L4325.53 128.269 Q4314.24 122.048 4302.81 119.01 Q4291.53 115.827 4279.95 115.827 Q4254.06 115.827 4239.73 132.32 Q4225.41 148.668 4225.41 178.327 Q4225.41 207.985 4239.73 224.478 Q4254.06 240.826 4279.95 240.826 Q4291.53 240.826 4302.81 237.788 Q4314.24 234.605 4325.53 228.384 L4325.53 252.979 Q4314.39 258.187 4302.38 260.791 Q4290.51 263.396 4277.06 263.396 Q4240.46 263.396 4218.9 240.392 Q4197.34 217.389 4197.34 178.327 Q4197.34 138.686 4219.04 115.972 Q4240.89 93.2576 4278.8 93.2576 Q4291.09 93.2576 4302.81 95.8618 Q4314.53 98.3212 4325.53 103.385 Z" fill="#000000" fill-rule="evenodd" fill-opacity="1" /><path clip-path="url(#clip140)" d="M 0 0 M4427.09 177.748 Q4394.83 177.748 4382.38 185.126 Q4369.94 192.505 4369.94 210.3 Q4369.94 224.478 4379.2 232.869 Q4388.6 241.116 4404.66 241.116 Q4426.8 241.116 4440.11 225.491 Q4453.56 209.721 4453.56 183.68 L4453.56 177.748 L4427.09 177.748 M4480.18 166.753 L4480.18 259.2 L4453.56 259.2 L4453.56 234.605 Q4444.45 249.362 4430.85 256.451 Q4417.25 263.396 4397.57 263.396 Q4372.69 263.396 4357.93 249.507 Q4343.32 235.473 4343.32 212.036 Q4343.32 184.692 4361.55 170.803 Q4379.92 156.915 4416.24 156.915 L4453.56 156.915 L4453.56 154.311 Q4453.56 135.937 4441.41 125.954 Q4429.4 115.827 4407.56 115.827 Q4393.67 115.827 4380.5 119.154 Q4367.34 122.482 4355.18 129.137 L4355.18 104.542 Q4369.8 98.8999 4383.54 96.1511 Q4397.28 93.2576 4410.31 93.2576 Q4445.46 93.2576 4462.82 111.487 Q4480.18 129.716 4480.18 166.753 Z" fill="#000000" fill-rule="evenodd" fill-opacity="1" /><path clip-path="url(#clip140)" d="M 0 0 M4708.91 121.759 L4708.91 34.0855 L4735.54 34.0855 L4735.54 259.2 L4708.91 259.2 L4708.91 234.895 Q4700.52 249.362 4687.65 256.451 Q4674.92 263.396 4656.98 263.396 Q4627.61 263.396 4609.09 239.958 Q4590.72 216.521 4590.72 178.327 Q4590.72 140.132 4609.09 116.695 Q4627.61 93.2576 4656.98 93.2576 Q4674.92 93.2576 4687.65 100.347 Q4700.52 107.291 4708.91 121.759 M4618.2 178.327 Q4618.2 207.696 4630.21 224.478 Q4642.36 241.116 4663.49 241.116 Q4684.61 241.116 4696.76 224.478 Q4708.91 207.696 4708.91 178.327 Q4708.91 148.958 4696.76 132.32 Q4684.61 115.538 4663.49 115.538 Q4642.36 115.538 4630.21 132.32 Q4618.2 148.958 4618.2 178.327 Z" fill="#000000" fill-rule="evenodd" fill-opacity="1" /><path clip-path="url(#clip140)" d="M 0 0 M4902.06 171.527 L4902.06 184.548 L4779.66 184.548 Q4781.4 212.036 4796.15 226.503 Q4811.06 240.826 4837.53 240.826 Q4852.87 240.826 4867.19 237.065 Q4881.66 233.303 4895.84 225.78 L4895.84 250.954 Q4881.51 257.03 4866.47 260.213 Q4851.42 263.396 4835.94 263.396 Q4797.17 263.396 4774.45 240.826 Q4751.88 218.257 4751.88 179.773 Q4751.88 139.988 4773.3 116.695 Q4794.85 93.2576 4831.31 93.2576 Q4864.01 93.2576 4882.96 114.38 Q4902.06 135.358 4902.06 171.527 M4875.44 163.714 Q4875.15 141.868 4863.14 128.848 Q4851.28 115.827 4831.6 115.827 Q4809.32 115.827 4795.86 128.414 Q4782.55 141 4780.53 163.859 L4875.44 163.714 Z" fill="#000000" fill-rule="evenodd" fill-opacity="1" /><path clip-path="url(#clip140)" d="M 0 0 M5162.76 171.527 L5162.76 184.548 L5040.37 184.548 Q5042.1 212.036 5056.86 226.503 Q5071.76 240.826 5098.24 240.826 Q5113.57 240.826 5127.89 237.065 Q5142.36 233.303 5156.54 225.78 L5156.54 250.954 Q5142.22 257.03 5127.17 260.213 Q5112.12 263.396 5096.64 263.396 Q5057.87 263.396 5035.16 240.826 Q5012.59 218.257 5012.59 179.773 Q5012.59 139.988 5034 116.695 Q5055.56 93.2576 5092.01 93.2576 Q5124.71 93.2576 5143.66 114.38 Q5162.76 135.358 5162.76 171.527 M5136.14 163.714 Q5135.85 141.868 5123.84 128.848 Q5111.98 115.827 5092.3 115.827 Q5070.02 115.827 5056.57 128.414 Q5043.26 141 5041.23 163.859 L5136.14 163.714 Z" fill="#000000" fill-rule="evenodd" fill-opacity="1" /><path clip-path="url(#clip140)" d="M 0 0 M5190.68 97.1638 L5217.3 97.1638 L5217.3 262.094 Q5217.3 293.054 5205.44 306.943 Q5193.72 320.832 5167.54 320.832 L5157.41 320.832 L5157.41 298.262 L5164.5 298.262 Q5179.69 298.262 5185.19 291.173 Q5190.68 284.229 5190.68 262.094 L5190.68 97.1638 M5190.68 34.0855 L5217.3 34.0855 L5217.3 67.7948 L5190.68 67.7948 L5190.68 34.0855 Z" fill="#000000" fill-rule="evenodd" fill-opacity="1" /><path clip-path="url(#clip140)" d="M 0 0 M5383.82 171.527 L5383.82 184.548 L5261.43 184.548 Q5263.17 212.036 5277.92 226.503 Q5292.82 240.826 5319.3 240.826 Q5334.63 240.826 5348.96 237.065 Q5363.43 233.303 5377.6 225.78 L5377.6 250.954 Q5363.28 257.03 5348.23 260.213 Q5333.19 263.396 5317.71 263.396 Q5278.93 263.396 5256.22 240.826 Q5233.65 218.257 5233.65 179.773 Q5233.65 139.988 5255.06 116.695 Q5276.62 93.2576 5313.08 93.2576 Q5345.77 93.2576 5364.73 114.38 Q5383.82 135.358 5383.82 171.527 M5357.2 163.714 Q5356.91 141.868 5344.91 128.848 Q5333.04 115.827 5313.37 115.827 Q5291.09 115.827 5277.63 128.414 Q5264.32 141 5262.3 163.859 L5357.2 163.714 Z" fill="#000000" fill-rule="evenodd" fill-opacity="1" /><path clip-path="url(#clip140)" d="M 0 0 M5537.9 128.269 Q5547.89 110.329 5561.77 101.793 Q5575.66 93.2576 5594.47 93.2576 Q5619.79 93.2576 5633.53 111.053 Q5647.28 128.703 5647.28 161.4 L5647.28 259.2 L5620.51 259.2 L5620.51 162.268 Q5620.51 138.975 5612.27 127.69 Q5604.02 116.406 5587.09 116.406 Q5566.4 116.406 5554.4 130.15 Q5542.39 143.894 5542.39 167.621 L5542.39 259.2 L5515.62 259.2 L5515.62 162.268 Q5515.62 138.83 5507.38 127.69 Q5499.13 116.406 5481.91 116.406 Q5461.51 116.406 5449.51 130.294 Q5437.5 144.039 5437.5 167.621 L5437.5 259.2 L5410.73 259.2 L5410.73 97.1638 L5437.5 97.1638 L5437.5 122.337 Q5446.61 107.436 5459.34 100.347 Q5472.08 93.2576 5489.58 93.2576 Q5507.23 93.2576 5519.53 102.227 Q5531.97 111.197 5537.9 128.269 Z" fill="#000000" fill-rule="evenodd" fill-opacity="1" /><path clip-path="url(#clip140)" d="M 0 0 M5700.95 234.895 L5700.95 320.832 L5674.19 320.832 L5674.19 97.1638 L5700.95 97.1638 L5700.95 121.759 Q5709.34 107.291 5722.07 100.347 Q5734.95 93.2576 5752.75 93.2576 Q5782.26 93.2576 5800.63 116.695 Q5819.15 140.132 5819.15 178.327 Q5819.15 216.521 5800.63 239.958 Q5782.26 263.396 5752.75 263.396 Q5734.95 263.396 5722.07 256.451 Q5709.34 249.362 5700.95 234.895 M5791.52 178.327 Q5791.52 148.958 5779.37 132.32 Q5767.36 115.538 5746.24 115.538 Q5725.11 115.538 5712.96 132.32 Q5700.95 148.958 5700.95 178.327 Q5700.95 207.696 5712.96 224.478 Q5725.11 241.116 5746.24 241.116 Q5767.36 241.116 5779.37 224.478 Q5791.52 207.696 5791.52 178.327 Z" fill="#000000" fill-rule="evenodd" fill-opacity="1" /><path clip-path="url(#clip140)" d="M 0 0 M5847.07 34.0855 L5873.69 34.0855 L5873.69 259.2 L5847.07 259.2 L5847.07 34.0855 Z" fill="#000000" fill-rule="evenodd" fill-opacity="1" /><path clip-path="url(#clip140)" d="M 0 0 M5964.41 115.827 Q5942.99 115.827 5930.55 132.609 Q5918.11 149.247 5918.11 178.327 Q5918.11 207.406 5930.41 224.189 Q5942.85 240.826 5964.41 240.826 Q5985.67 240.826 5998.12 224.044 Q6010.56 207.262 6010.56 178.327 Q6010.56 149.536 5998.12 132.754 Q5985.67 115.827 5964.41 115.827 M5964.41 93.2576 Q5999.13 93.2576 6018.95 115.827 Q6038.77 138.396 6038.77 178.327 Q6038.77 218.112 6018.95 240.826 Q5999.13 263.396 5964.41 263.396 Q5929.54 263.396 5909.72 240.826 Q5890.04 218.112 5890.04 178.327 Q5890.04 138.396 5909.72 115.827 Q5929.54 93.2576 5964.41 93.2576 Z" fill="#000000" fill-rule="evenodd" fill-opacity="1" /><circle clip-path="url(#clip142)" cx="8372.56" cy="4188.52" r="144" fill="#ffffff" fill-rule="evenodd" fill-opacity="1" stroke="#0000ff" stroke-opacity="1" stroke-width="17.6"/>
<circle clip-path="url(#clip142)" cx="8211.98" cy="3125.98" r="144" fill="#ffffff" fill-rule="evenodd" fill-opacity="1" stroke="#0000ff" stroke-opacity="1" stroke-width="17.6"/>
<circle clip-path="url(#clip142)" cx="7744.56" cy="2158.35" r="144" fill="#ffffff" fill-rule="evenodd" fill-opacity="1" stroke="#0000ff" stroke-opacity="1" stroke-width="17.6"/>
<circle clip-path="url(#clip142)" cx="7012.07" cy="1372.08" r="144" fill="#ffffff" fill-rule="evenodd" fill-opacity="1" stroke="#0000ff" stroke-opacity="1" stroke-width="17.6"/>
<circle clip-path="url(#clip142)" cx="6079.93" cy="837.383" r="144" fill="#ffffff" fill-rule="evenodd" fill-opacity="1" stroke="#0000ff" stroke-opacity="1" stroke-width="17.6"/>
<circle clip-path="url(#clip142)" cx="5031.41" cy="602.037" r="144" fill="#ffffff" fill-rule="evenodd" fill-opacity="1" stroke="#0000ff" stroke-opacity="1" stroke-width="17.6"/>
<circle clip-path="url(#clip142)" cx="3960.18" cy="687.061" r="144" fill="#ffffff" fill-rule="evenodd" fill-opacity="1" stroke="#0000ff" stroke-opacity="1" stroke-width="17.6"/>
<circle clip-path="url(#clip142)" cx="2961.91" cy="1084.86" r="144" fill="#ffffff" fill-rule="evenodd" fill-opacity="1" stroke="#0000ff" stroke-opacity="1" stroke-width="17.6"/>
<circle clip-path="url(#clip142)" cx="2125.79" cy="1759.9" r="144" fill="#ffffff" fill-rule="evenodd" fill-opacity="1" stroke="#0000ff" stroke-opacity="1" stroke-width="17.6"/>
<circle clip-path="url(#clip142)" cx="1526.5" cy="2651.88" r="144" fill="#ffffff" fill-rule="evenodd" fill-opacity="1" stroke="#0000ff" stroke-opacity="1" stroke-width="17.6"/>
<circle clip-path="url(#clip142)" cx="1217.57" cy="3681.12" r="144" fill="#ffffff" fill-rule="evenodd" fill-opacity="1" stroke="#0000ff" stroke-opacity="1" stroke-width="17.6"/>
<circle clip-path="url(#clip142)" cx="1226.61" cy="4755.69" r="144" fill="#ffffff" fill-rule="evenodd" fill-opacity="1" stroke="#0000ff" stroke-opacity="1" stroke-width="17.6"/>
<circle clip-path="url(#clip142)" cx="1552.79" cy="5779.59" r="144" fill="#ffffff" fill-rule="evenodd" fill-opacity="1" stroke="#0000ff" stroke-opacity="1" stroke-width="17.6"/>
<circle clip-path="url(#clip142)" cx="2167" cy="6661.37" r="144" fill="#ffffff" fill-rule="evenodd" fill-opacity="1" stroke="#0000ff" stroke-opacity="1" stroke-width="17.6"/>
<circle clip-path="url(#clip142)" cx="3014.35" cy="7322.26" r="144" fill="#ffffff" fill-rule="evenodd" fill-opacity="1" stroke="#0000ff" stroke-opacity="1" stroke-width="17.6"/>
<circle clip-path="url(#clip142)" cx="4019.16" cy="7703.21" r="144" fill="#ffffff" fill-rule="evenodd" fill-opacity="1" stroke="#0000ff" stroke-opacity="1" stroke-width="17.6"/>
<circle clip-path="url(#clip142)" cx="5091.68" cy="7770.21" r="144" fill="#ffffff" fill-rule="evenodd" fill-opacity="1" stroke="#0000ff" stroke-opacity="1" stroke-width="17.6"/>
<circle clip-path="url(#clip142)" cx="6136.09" cy="7517.27" r="144" fill="#ffffff" fill-rule="evenodd" fill-opacity="1" stroke="#0000ff" stroke-opacity="1" stroke-width="17.6"/>
<circle clip-path="url(#clip142)" cx="7059.11" cy="6966.98" r="144" fill="#ffffff" fill-rule="evenodd" fill-opacity="1" stroke="#0000ff" stroke-opacity="1" stroke-width="17.6"/>
<circle clip-path="url(#clip142)" cx="7778.28" cy="6168.5" r="144" fill="#ffffff" fill-rule="evenodd" fill-opacity="1" stroke="#0000ff" stroke-opacity="1" stroke-width="17.6"/>
<circle clip-path="url(#clip142)" cx="8229.36" cy="5193.15" r="144" fill="#ffffff" fill-rule="evenodd" fill-opacity="1" stroke="#0000ff" stroke-opacity="1" stroke-width="17.6"/>
</svg>
