<?xml version="1.0" encoding="utf-8"?>
<svg xmlns="http://www.w3.org/2000/svg" xmlns:xlink="http://www.w3.org/1999/xlink" width="175" height="137.5" viewBox="0 0 700 550">
<defs>
  <clipPath id="clip240">
    <rect x="0" y="0" width="700" height="550"/>
  </clipPath>
</defs>
<path clip-path="url(#clip240)" d="
M0 550 L700 550 L700 0 L0 0  Z
  " fill="#ffffff" fill-rule="evenodd" fill-opacity="1"/>
<defs>
  <clipPath id="clip241">
    <rect x="140" y="0" width="491" height="491"/>
  </clipPath>
</defs>
<path clip-path="url(#clip240)" d="
M54.5521 500.631 L688.189 500.631 L688.189 33.568 L54.5521 33.568  Z
  " fill="#ffffff" fill-rule="evenodd" fill-opacity="1"/>
<defs>
  <clipPath id="clip242">
    <rect x="54" y="33" width="635" height="468"/>
  </clipPath>
</defs>
<polyline clip-path="url(#clip242)" style="stroke:#000000; stroke-width:0.5; stroke-opacity:0.1; fill:none" points="
  149.251,500.631 149.251,33.568 
  "/>
<polyline clip-path="url(#clip242)" style="stroke:#000000; stroke-width:0.5; stroke-opacity:0.1; fill:none" points="
  259.758,500.631 259.758,33.568 
  "/>
<polyline clip-path="url(#clip242)" style="stroke:#000000; stroke-width:0.5; stroke-opacity:0.1; fill:none" points="
  370.265,500.631 370.265,33.568 
  "/>
<polyline clip-path="url(#clip242)" style="stroke:#000000; stroke-width:0.5; stroke-opacity:0.1; fill:none" points="
  480.771,500.631 480.771,33.568 
  "/>
<polyline clip-path="url(#clip242)" style="stroke:#000000; stroke-width:0.5; stroke-opacity:0.1; fill:none" points="
  591.278,500.631 591.278,33.568 
  "/>
<polyline clip-path="url(#clip240)" style="stroke:#000000; stroke-width:1; stroke-opacity:1; fill:none" points="
  54.5521,500.631 688.189,500.631 
  "/>
<polyline clip-path="url(#clip240)" style="stroke:#000000; stroke-width:1; stroke-opacity:1; fill:none" points="
  149.251,500.631 149.251,495.026 
  "/>
<polyline clip-path="url(#clip240)" style="stroke:#000000; stroke-width:1; stroke-opacity:1; fill:none" points="
  259.758,500.631 259.758,495.026 
  "/>
<polyline clip-path="url(#clip240)" style="stroke:#000000; stroke-width:1; stroke-opacity:1; fill:none" points="
  370.265,500.631 370.265,495.026 
  "/>
<polyline clip-path="url(#clip240)" style="stroke:#000000; stroke-width:1; stroke-opacity:1; fill:none" points="
  480.771,500.631 480.771,495.026 
  "/>
<polyline clip-path="url(#clip240)" style="stroke:#000000; stroke-width:1; stroke-opacity:1; fill:none" points="
  591.278,500.631 591.278,495.026 
  "/>
<path clip-path="url(#clip240)" d="M 0 0 M142.365 512.392 L149.784 512.392 L149.784 513.375 L142.365 513.375 L142.365 512.392 Z" fill="#000000" fill-rule="evenodd" fill-opacity="1" /><path clip-path="url(#clip240)" d="M 0 0 M152.058 515.615 L156.138 515.615 L156.138 516.599 L150.652 516.599 L150.652 515.615 Q151.317 514.926 152.463 513.769 Q153.615 512.606 153.91 512.27 Q154.471 511.639 154.691 511.205 Q154.917 510.765 154.917 510.343 Q154.917 509.654 154.431 509.22 Q153.95 508.786 153.175 508.786 Q152.625 508.786 152.012 508.977 Q151.404 509.168 150.71 509.556 L150.71 508.375 Q151.416 508.092 152.029 507.947 Q152.643 507.802 153.152 507.802 Q154.494 507.802 155.293 508.474 Q156.092 509.145 156.092 510.268 Q156.092 510.8 155.889 511.28 Q155.692 511.755 155.166 512.403 Q155.021 512.571 154.246 513.375 Q153.47 514.174 152.058 515.615 Z" fill="#000000" fill-rule="evenodd" fill-opacity="1" /><path clip-path="url(#clip240)" d="M 0 0 M252.825 512.392 L260.244 512.392 L260.244 513.375 L252.825 513.375 L252.825 512.392 Z" fill="#000000" fill-rule="evenodd" fill-opacity="1" /><path clip-path="url(#clip240)" d="M 0 0 M261.714 515.615 L263.624 515.615 L263.624 509.023 L261.546 509.44 L261.546 508.375 L263.612 507.959 L264.781 507.959 L264.781 515.615 L266.691 515.615 L266.691 516.599 L261.714 516.599 L261.714 515.615 Z" fill="#000000" fill-rule="evenodd" fill-opacity="1" /><path clip-path="url(#clip240)" d="M 0 0 M370.265 508.728 Q369.362 508.728 368.905 509.62 Q368.453 510.505 368.453 512.287 Q368.453 514.064 368.905 514.955 Q369.362 515.841 370.265 515.841 Q371.173 515.841 371.625 514.955 Q372.082 514.064 372.082 512.287 Q372.082 510.505 371.625 509.62 Q371.173 508.728 370.265 508.728 M370.265 507.802 Q371.717 507.802 372.481 508.954 Q373.251 510.1 373.251 512.287 Q373.251 514.469 372.481 515.621 Q371.717 516.766 370.265 516.766 Q368.812 516.766 368.042 515.621 Q367.279 514.469 367.279 512.287 Q367.279 510.1 368.042 508.954 Q368.812 507.802 370.265 507.802 Z" fill="#000000" fill-rule="evenodd" fill-opacity="1" /><path clip-path="url(#clip240)" d="M 0 0 M478.367 515.615 L480.276 515.615 L480.276 509.023 L478.199 509.44 L478.199 508.375 L480.265 507.959 L481.434 507.959 L481.434 515.615 L483.344 515.615 L483.344 516.599 L478.367 516.599 L478.367 515.615 Z" fill="#000000" fill-rule="evenodd" fill-opacity="1" /><path clip-path="url(#clip240)" d="M 0 0 M589.941 515.615 L594.021 515.615 L594.021 516.599 L588.535 516.599 L588.535 515.615 Q589.2 514.926 590.346 513.769 Q591.498 512.606 591.793 512.27 Q592.354 511.639 592.574 511.205 Q592.8 510.765 592.8 510.343 Q592.8 509.654 592.314 509.22 Q591.833 508.786 591.058 508.786 Q590.508 508.786 589.895 508.977 Q589.287 509.168 588.593 509.556 L588.593 508.375 Q589.299 508.092 589.912 507.947 Q590.526 507.802 591.035 507.802 Q592.377 507.802 593.176 508.474 Q593.975 509.145 593.975 510.268 Q593.975 510.8 593.772 511.28 Q593.575 511.755 593.049 512.403 Q592.904 512.571 592.129 513.375 Q591.353 514.174 589.941 515.615 Z" fill="#000000" fill-rule="evenodd" fill-opacity="1" /><path clip-path="url(#clip240)" d="M 0 0 M358.603 529.277 Q359.121 529.452 359.606 530.025 Q360.099 530.598 360.593 531.6 L362.224 534.847 L360.497 534.847 L358.977 531.799 Q358.388 530.606 357.831 530.216 Q357.282 529.826 356.328 529.826 L354.577 529.826 L354.577 534.847 L352.97 534.847 L352.97 522.967 L356.598 522.967 Q358.635 522.967 359.638 523.818 Q360.64 524.67 360.64 526.388 Q360.64 527.51 360.115 528.25 Q359.598 528.99 358.603 529.277 M354.577 524.288 L354.577 528.505 L356.598 528.505 Q357.76 528.505 358.349 527.972 Q358.945 527.431 358.945 526.388 Q358.945 525.346 358.349 524.821 Q357.76 524.288 356.598 524.288 L354.577 524.288 Z" fill="#000000" fill-rule="evenodd" fill-opacity="1" /><path clip-path="url(#clip240)" d="M 0 0 M370.65 530.025 L370.65 530.741 L363.919 530.741 Q364.014 532.253 364.826 533.048 Q365.645 533.836 367.102 533.836 Q367.945 533.836 368.733 533.629 Q369.528 533.422 370.308 533.009 L370.308 534.393 Q369.521 534.727 368.693 534.902 Q367.865 535.077 367.014 535.077 Q364.882 535.077 363.632 533.836 Q362.391 532.595 362.391 530.478 Q362.391 528.29 363.569 527.009 Q364.754 525.72 366.759 525.72 Q368.558 525.72 369.6 526.882 Q370.65 528.035 370.65 530.025 M369.186 529.595 Q369.17 528.393 368.51 527.677 Q367.857 526.961 366.775 526.961 Q365.55 526.961 364.81 527.653 Q364.078 528.346 363.966 529.603 L369.186 529.595 Z" fill="#000000" fill-rule="evenodd" fill-opacity="1" /><path clip-path="url(#clip240)" d="M 0 0 M375.703 522.481 Q374.637 524.311 374.12 526.102 Q373.603 527.892 373.603 529.73 Q373.603 531.568 374.12 533.375 Q374.645 535.173 375.703 536.995 L374.43 536.995 Q373.237 535.125 372.64 533.319 Q372.051 531.513 372.051 529.73 Q372.051 527.956 372.64 526.157 Q373.229 524.359 374.43 522.481 L375.703 522.481 Z" fill="#000000" fill-rule="evenodd" fill-opacity="1" /><path clip-path="url(#clip240)" d="M 0 0 M384.647 525.935 L381.424 530.271 L384.814 534.847 L383.087 534.847 L380.493 531.346 L377.899 534.847 L376.173 534.847 L379.634 530.184 L376.467 525.935 L378.194 525.935 L380.557 529.11 L382.92 525.935 L384.647 525.935 Z" fill="#000000" fill-rule="evenodd" fill-opacity="1" /><path clip-path="url(#clip240)" d="M 0 0 M386.119 522.481 L387.392 522.481 Q388.586 524.359 389.175 526.157 Q389.771 527.956 389.771 529.73 Q389.771 531.513 389.175 533.319 Q388.586 535.125 387.392 536.995 L386.119 536.995 Q387.177 535.173 387.695 533.375 Q388.22 531.568 388.22 529.73 Q388.22 527.892 387.695 526.102 Q387.177 524.311 386.119 522.481 Z" fill="#000000" fill-rule="evenodd" fill-opacity="1" /><polyline clip-path="url(#clip242)" style="stroke:#000000; stroke-width:0.5; stroke-opacity:0.1; fill:none" points="
  54.5521,488.26 688.189,488.26 
  "/>
<polyline clip-path="url(#clip242)" style="stroke:#000000; stroke-width:0.5; stroke-opacity:0.1; fill:none" points="
  54.5521,377.753 688.189,377.753 
  "/>
<polyline clip-path="url(#clip242)" style="stroke:#000000; stroke-width:0.5; stroke-opacity:0.1; fill:none" points="
  54.5521,267.246 688.189,267.246 
  "/>
<polyline clip-path="url(#clip242)" style="stroke:#000000; stroke-width:0.5; stroke-opacity:0.1; fill:none" points="
  54.5521,156.74 688.189,156.74 
  "/>
<polyline clip-path="url(#clip242)" style="stroke:#000000; stroke-width:0.5; stroke-opacity:0.1; fill:none" points="
  54.5521,46.2331 688.189,46.2331 
  "/>
<polyline clip-path="url(#clip240)" style="stroke:#000000; stroke-width:1; stroke-opacity:1; fill:none" points="
  54.5521,500.631 54.5521,33.568 
  "/>
<polyline clip-path="url(#clip240)" style="stroke:#000000; stroke-width:1; stroke-opacity:1; fill:none" points="
  54.5521,488.26 62.1558,488.26 
  "/>
<polyline clip-path="url(#clip240)" style="stroke:#000000; stroke-width:1; stroke-opacity:1; fill:none" points="
  54.5521,377.753 62.1558,377.753 
  "/>
<polyline clip-path="url(#clip240)" style="stroke:#000000; stroke-width:1; stroke-opacity:1; fill:none" points="
  54.5521,267.246 62.1558,267.246 
  "/>
<polyline clip-path="url(#clip240)" style="stroke:#000000; stroke-width:1; stroke-opacity:1; fill:none" points="
  54.5521,156.74 62.1558,156.74 
  "/>
<polyline clip-path="url(#clip240)" style="stroke:#000000; stroke-width:1; stroke-opacity:1; fill:none" points="
  54.5521,46.2331 62.1558,46.2331 
  "/>
<path clip-path="url(#clip240)" d="M 0 0 M30.2791 488.372 L37.698 488.372 L37.698 489.356 L30.2791 489.356 L30.2791 488.372 Z" fill="#000000" fill-rule="evenodd" fill-opacity="1" /><path clip-path="url(#clip240)" d="M 0 0 M39.9723 491.596 L44.0521 491.596 L44.0521 492.58 L38.5661 492.58 L38.5661 491.596 Q39.2316 490.907 40.3774 489.75 Q41.529 488.587 41.8241 488.251 Q42.3855 487.62 42.6054 487.186 Q42.8311 486.746 42.8311 486.324 Q42.8311 485.635 42.345 485.201 Q41.8646 484.767 41.0892 484.767 Q40.5394 484.767 39.926 484.958 Q39.3184 485.149 38.6239 485.537 L38.6239 484.356 Q39.3299 484.073 39.9434 483.928 Q40.5568 483.783 41.066 483.783 Q42.4086 483.783 43.2072 484.455 Q44.0058 485.126 44.0058 486.249 Q44.0058 486.781 43.8033 487.261 Q43.6065 487.736 43.0799 488.384 Q42.9352 488.552 42.1598 489.356 Q41.3843 490.155 39.9723 491.596 Z" fill="#000000" fill-rule="evenodd" fill-opacity="1" /><path clip-path="url(#clip240)" d="M 0 0 M30.1865 377.866 L37.6054 377.866 L37.6054 378.85 L30.1865 378.85 L30.1865 377.866 Z" fill="#000000" fill-rule="evenodd" fill-opacity="1" /><path clip-path="url(#clip240)" d="M 0 0 M39.0753 381.089 L40.985 381.089 L40.985 374.498 L38.9075 374.914 L38.9075 373.85 L40.9734 373.433 L42.1424 373.433 L42.1424 381.089 L44.0521 381.089 L44.0521 382.073 L39.0753 382.073 L39.0753 381.089 Z" fill="#000000" fill-rule="evenodd" fill-opacity="1" /><path clip-path="url(#clip240)" d="M 0 0 M41.066 263.696 Q40.1633 263.696 39.7061 264.587 Q39.2547 265.473 39.2547 267.255 Q39.2547 269.032 39.7061 269.923 Q40.1633 270.808 41.066 270.808 Q41.9746 270.808 42.426 269.923 Q42.8832 269.032 42.8832 267.255 Q42.8832 265.473 42.426 264.587 Q41.9746 263.696 41.066 263.696 M41.066 262.77 Q42.5186 262.77 43.2825 263.922 Q44.0521 265.068 44.0521 267.255 Q44.0521 269.437 43.2825 270.588 Q42.5186 271.734 41.066 271.734 Q39.6135 271.734 38.8438 270.588 Q38.0799 269.437 38.0799 267.255 Q38.0799 265.068 38.8438 263.922 Q39.6135 262.77 41.066 262.77 Z" fill="#000000" fill-rule="evenodd" fill-opacity="1" /><path clip-path="url(#clip240)" d="M 0 0 M39.0753 160.076 L40.985 160.076 L40.985 153.485 L38.9075 153.901 L38.9075 152.836 L40.9734 152.42 L42.1424 152.42 L42.1424 160.076 L44.0521 160.076 L44.0521 161.06 L39.0753 161.06 L39.0753 160.076 Z" fill="#000000" fill-rule="evenodd" fill-opacity="1" /><path clip-path="url(#clip240)" d="M 0 0 M39.9723 49.5694 L44.0521 49.5694 L44.0521 50.5531 L38.5661 50.5531 L38.5661 49.5694 Q39.2316 48.8807 40.3774 47.7233 Q41.529 46.5601 41.8241 46.2245 Q42.3855 45.5937 42.6054 45.1597 Q42.8311 44.7198 42.8311 44.2974 Q42.8311 43.6087 42.345 43.1747 Q41.8646 42.7407 41.0892 42.7407 Q40.5394 42.7407 39.926 42.9317 Q39.3184 43.1226 38.6239 43.5104 L38.6239 42.3298 Q39.3299 42.0462 39.9434 41.9016 Q40.5568 41.7569 41.066 41.7569 Q42.4086 41.7569 43.2072 42.4282 Q44.0058 43.0995 44.0058 44.2222 Q44.0058 44.7546 43.8033 45.2349 Q43.6065 45.7094 43.0799 46.3576 Q42.9352 46.5254 42.1598 47.3298 Q41.3843 48.1284 39.9723 49.5694 Z" fill="#000000" fill-rule="evenodd" fill-opacity="1" /><path clip-path="url(#clip240)" d="M 0 0 M11.2425 284.708 L11.2425 283.101 L23.1225 283.101 L23.1225 284.708 L11.2425 284.708 Z" fill="#000000" fill-rule="evenodd" fill-opacity="1" /><path clip-path="url(#clip240)" d="M 0 0 M15.9213 274.627 Q14.9346 274.078 14.4651 273.314 Q13.9956 272.55 13.9956 271.516 Q13.9956 270.123 14.9744 269.367 Q15.9451 268.611 17.7434 268.611 L23.1225 268.611 L23.1225 270.083 L17.7912 270.083 Q16.5101 270.083 15.8894 270.537 Q15.2688 270.99 15.2688 271.921 Q15.2688 273.059 16.0247 273.72 Q16.7806 274.38 18.0856 274.38 L23.1225 274.38 L23.1225 275.852 L17.7912 275.852 Q16.5021 275.852 15.8894 276.306 Q15.2688 276.759 15.2688 277.706 Q15.2688 278.828 16.0327 279.489 Q16.7886 280.149 18.0856 280.149 L23.1225 280.149 L23.1225 281.621 L14.2105 281.621 L14.2105 280.149 L15.595 280.149 Q14.7754 279.648 14.3855 278.948 Q13.9956 278.247 13.9956 277.284 Q13.9956 276.314 14.489 275.637 Q14.9823 274.953 15.9213 274.627 Z" fill="#000000" fill-rule="evenodd" fill-opacity="1" /><path clip-path="url(#clip240)" d="M 0 0 M10.7571 263.558 Q12.5872 264.625 14.3776 265.142 Q16.1679 265.659 18.006 265.659 Q19.8441 265.659 21.6504 265.142 Q23.4487 264.617 25.2709 263.558 L25.2709 264.832 Q23.401 266.025 21.5947 266.622 Q19.7884 267.211 18.006 267.211 Q16.2316 267.211 14.4333 266.622 Q12.635 266.033 10.7571 264.832 L10.7571 263.558 Z" fill="#000000" fill-rule="evenodd" fill-opacity="1" /><path clip-path="url(#clip240)" d="M 0 0 M14.2105 254.615 L18.5471 257.837 L23.1225 254.448 L23.1225 256.174 L19.6213 258.768 L23.1225 261.362 L23.1225 263.089 L18.4596 259.628 L14.2105 262.795 L14.2105 261.068 L17.3854 258.705 L14.2105 256.341 L14.2105 254.615 Z" fill="#000000" fill-rule="evenodd" fill-opacity="1" /><path clip-path="url(#clip240)" d="M 0 0 M10.7571 253.143 L10.7571 251.869 Q12.635 250.676 14.4333 250.087 Q16.2316 249.49 18.006 249.49 Q19.7884 249.49 21.5947 250.087 Q23.401 250.676 25.2709 251.869 L25.2709 253.143 Q23.4487 252.084 21.6504 251.567 Q19.8441 251.042 18.006 251.042 Q16.1679 251.042 14.3776 251.567 Q12.5872 252.084 10.7571 253.143 Z" fill="#000000" fill-rule="evenodd" fill-opacity="1" /><path clip-path="url(#clip240)" d="M 0 0 M295.492 15.9869 L295.492 11.9259 L292.15 11.9259 L292.15 10.2447 L297.518 10.2447 L297.518 16.7363 Q296.333 17.5769 294.905 18.0123 Q293.477 18.4377 291.856 18.4377 Q288.312 18.4377 286.307 16.3717 Q284.312 14.2956 284.312 10.5992 Q284.312 6.89261 286.307 4.82665 Q288.312 2.75056 291.856 2.75056 Q293.335 2.75056 294.662 3.11515 Q295.998 3.47973 297.123 4.18863 L297.123 6.366 Q295.988 5.40391 294.712 4.9178 Q293.436 4.43169 292.029 4.43169 Q289.254 4.43169 287.856 5.98116 Q286.469 7.53063 286.469 10.5992 Q286.469 13.6576 287.856 15.2071 Q289.254 16.7566 292.029 16.7566 Q293.112 16.7566 293.963 16.5743 Q294.814 16.3819 295.492 15.9869 Z" fill="#000000" fill-rule="evenodd" fill-opacity="1" /><path clip-path="url(#clip240)" d="M 0 0 M306.045 8.54336 Q305.731 8.36107 305.356 8.28005 Q304.991 8.1889 304.546 8.1889 Q302.966 8.1889 302.115 9.22188 Q301.275 10.2447 301.275 12.1689 L301.275 18.144 L299.401 18.144 L299.401 6.80147 L301.275 6.80147 L301.275 8.56361 Q301.862 7.53063 302.804 7.0344 Q303.746 6.52803 305.093 6.52803 Q305.285 6.52803 305.518 6.55841 Q305.751 6.57867 306.035 6.6293 L306.045 8.54336 Z" fill="#000000" fill-rule="evenodd" fill-opacity="1" /><path clip-path="url(#clip240)" d="M 0 0 M313.154 12.4424 Q310.896 12.4424 310.025 12.9588 Q309.154 13.4753 309.154 14.721 Q309.154 15.7135 309.802 16.3008 Q310.46 16.8781 311.584 16.8781 Q313.134 16.8781 314.065 15.7843 Q315.007 14.6805 315.007 12.8576 L315.007 12.4424 L313.154 12.4424 M316.871 11.6727 L316.871 18.144 L315.007 18.144 L315.007 16.4224 Q314.369 17.4553 313.417 17.9516 Q312.465 18.4377 311.088 18.4377 Q309.346 18.4377 308.313 17.4655 Q307.29 16.4831 307.29 14.8425 Q307.29 12.9285 308.566 11.9562 Q309.853 10.984 312.394 10.984 L315.007 10.984 L315.007 10.8017 Q315.007 9.51557 314.157 8.81679 Q313.316 8.10788 311.787 8.10788 Q310.815 8.10788 309.893 8.34081 Q308.971 8.57374 308.121 9.03959 L308.121 7.31796 Q309.144 6.923 310.106 6.73058 Q311.068 6.52803 311.979 6.52803 Q314.44 6.52803 315.655 7.80407 Q316.871 9.0801 316.871 11.6727 M313.468 1.55555 L315.483 1.55555 L312.182 5.3634 L310.632 5.3634 L313.468 1.55555 Z" fill="#000000" fill-rule="evenodd" fill-opacity="1" /><path clip-path="url(#clip240)" d="M 0 0 M324.567 2.38598 L324.567 3.93545 L322.785 3.93545 Q321.782 3.93545 321.387 4.34054 Q321.003 4.74563 321.003 5.79887 L321.003 6.80147 L324.071 6.80147 L324.071 8.24967 L321.003 8.24967 L321.003 18.144 L319.129 18.144 L319.129 8.24967 L317.347 8.24967 L317.347 6.80147 L319.129 6.80147 L319.129 6.01154 Q319.129 4.11774 320.01 3.25693 Q320.891 2.38598 322.805 2.38598 L324.567 2.38598 Z" fill="#000000" fill-rule="evenodd" fill-opacity="1" /><path clip-path="url(#clip240)" d="M 0 0 M326.522 6.80147 L328.385 6.80147 L328.385 18.144 L326.522 18.144 L326.522 6.80147 M326.522 2.38598 L328.385 2.38598 L328.385 4.74563 L326.522 4.74563 L326.522 2.38598 Z" fill="#000000" fill-rule="evenodd" fill-opacity="1" /><path clip-path="url(#clip240)" d="M 0 0 M338.503 7.23694 L338.503 8.97883 Q337.713 8.54336 336.913 8.33068 Q336.123 8.10788 335.312 8.10788 Q333.5 8.10788 332.497 9.26239 Q331.494 10.4068 331.494 12.4829 Q331.494 14.5589 332.497 15.7135 Q333.5 16.8578 335.312 16.8578 Q336.123 16.8578 336.913 16.6452 Q337.713 16.4224 338.503 15.9869 L338.503 17.7085 Q337.723 18.0731 336.882 18.2554 Q336.052 18.4377 335.11 18.4377 Q332.548 18.4377 331.039 16.8275 Q329.53 15.2172 329.53 12.4829 Q329.53 9.70799 331.049 8.11801 Q332.578 6.52803 335.231 6.52803 Q336.092 6.52803 336.913 6.71032 Q337.733 6.88249 338.503 7.23694 Z" fill="#000000" fill-rule="evenodd" fill-opacity="1" /><path clip-path="url(#clip240)" d="M 0 0 M345.612 12.4424 Q343.353 12.4424 342.483 12.9588 Q341.612 13.4753 341.612 14.721 Q341.612 15.7135 342.26 16.3008 Q342.918 16.8781 344.042 16.8781 Q345.592 16.8781 346.523 15.7843 Q347.465 14.6805 347.465 12.8576 L347.465 12.4424 L345.612 12.4424 M349.329 11.6727 L349.329 18.144 L347.465 18.144 L347.465 16.4224 Q346.827 17.4553 345.875 17.9516 Q344.923 18.4377 343.546 18.4377 Q341.804 18.4377 340.771 17.4655 Q339.748 16.4831 339.748 14.8425 Q339.748 12.9285 341.024 11.9562 Q342.31 10.984 344.852 10.984 L347.465 10.984 L347.465 10.8017 Q347.465 9.51557 346.614 8.81679 Q345.774 8.10788 344.245 8.10788 Q343.272 8.10788 342.351 8.34081 Q341.429 8.57374 340.579 9.03959 L340.579 7.31796 Q341.601 6.923 342.564 6.73058 Q343.526 6.52803 344.437 6.52803 Q346.898 6.52803 348.113 7.80407 Q349.329 9.0801 349.329 11.6727 Z" fill="#000000" fill-rule="evenodd" fill-opacity="1" /><path clip-path="url(#clip240)" d="M 0 0 M365.34 8.5231 L365.34 2.38598 L367.203 2.38598 L367.203 18.144 L365.34 18.144 L365.34 16.4426 Q364.752 17.4553 363.851 17.9516 Q362.96 18.4377 361.704 18.4377 Q359.648 18.4377 358.352 16.7971 Q357.066 15.1565 357.066 12.4829 Q357.066 9.80926 358.352 8.16865 Q359.648 6.52803 361.704 6.52803 Q362.96 6.52803 363.851 7.02427 Q364.752 7.51038 365.34 8.5231 M358.99 12.4829 Q358.99 14.5387 359.831 15.7135 Q360.681 16.8781 362.16 16.8781 Q363.638 16.8781 364.489 15.7135 Q365.34 14.5387 365.34 12.4829 Q365.34 10.427 364.489 9.26239 Q363.638 8.08763 362.16 8.08763 Q360.681 8.08763 359.831 9.26239 Q358.99 10.427 358.99 12.4829 Z" fill="#000000" fill-rule="evenodd" fill-opacity="1" /><path clip-path="url(#clip240)" d="M 0 0 M378.86 12.0069 L378.86 12.9183 L370.292 12.9183 Q370.414 14.8425 371.447 15.8552 Q372.49 16.8578 374.343 16.8578 Q375.416 16.8578 376.419 16.5945 Q377.432 16.3312 378.424 15.8046 L378.424 17.5667 Q377.422 17.9921 376.368 18.2149 Q375.315 18.4377 374.232 18.4377 Q371.517 18.4377 369.927 16.8578 Q368.348 15.278 368.348 12.5841 Q368.348 9.79914 369.846 8.16865 Q371.355 6.52803 373.907 6.52803 Q376.196 6.52803 377.523 8.00661 Q378.86 9.47506 378.86 12.0069 M376.996 11.46 Q376.976 9.93079 376.135 9.01934 Q375.305 8.10788 373.928 8.10788 Q372.368 8.10788 371.426 8.98896 Q370.495 9.87003 370.353 11.4701 L376.996 11.46 Z" fill="#000000" fill-rule="evenodd" fill-opacity="1" /><path clip-path="url(#clip240)" d="M 0 0 M397.109 12.0069 L397.109 12.9183 L388.541 12.9183 Q388.663 14.8425 389.696 15.8552 Q390.739 16.8578 392.592 16.8578 Q393.666 16.8578 394.668 16.5945 Q395.681 16.3312 396.674 15.8046 L396.674 17.5667 Q395.671 17.9921 394.618 18.2149 Q393.564 18.4377 392.481 18.4377 Q389.767 18.4377 388.177 16.8578 Q386.597 15.278 386.597 12.5841 Q386.597 9.79914 388.096 8.16865 Q389.605 6.52803 392.157 6.52803 Q394.446 6.52803 395.772 8.00661 Q397.109 9.47506 397.109 12.0069 M395.246 11.46 Q395.225 9.93079 394.385 9.01934 Q393.554 8.10788 392.177 8.10788 Q390.617 8.10788 389.676 8.98896 Q388.744 9.87003 388.602 11.4701 L395.246 11.46 Z" fill="#000000" fill-rule="evenodd" fill-opacity="1" /><path clip-path="url(#clip240)" d="M 0 0 M399.064 6.80147 L400.927 6.80147 L400.927 18.3465 Q400.927 20.5138 400.097 21.486 Q399.276 22.4582 397.443 22.4582 L396.734 22.4582 L396.734 20.8784 L397.231 20.8784 Q398.294 20.8784 398.679 20.3821 Q399.064 19.896 399.064 18.3465 L399.064 6.80147 M399.064 2.38598 L400.927 2.38598 L400.927 4.74563 L399.064 4.74563 L399.064 2.38598 Z" fill="#000000" fill-rule="evenodd" fill-opacity="1" /><path clip-path="url(#clip240)" d="M 0 0 M412.583 12.0069 L412.583 12.9183 L404.016 12.9183 Q404.137 14.8425 405.17 15.8552 Q406.213 16.8578 408.067 16.8578 Q409.14 16.8578 410.143 16.5945 Q411.155 16.3312 412.148 15.8046 L412.148 17.5667 Q411.145 17.9921 410.092 18.2149 Q409.039 18.4377 407.955 18.4377 Q405.241 18.4377 403.651 16.8578 Q402.071 15.278 402.071 12.5841 Q402.071 9.79914 403.57 8.16865 Q405.079 6.52803 407.631 6.52803 Q409.92 6.52803 411.247 8.00661 Q412.583 9.47506 412.583 12.0069 M410.72 11.46 Q410.7 9.93079 409.859 9.01934 Q409.029 8.10788 407.651 8.10788 Q406.092 8.10788 405.15 8.98896 Q404.218 9.87003 404.077 11.4701 L410.72 11.46 Z" fill="#000000" fill-rule="evenodd" fill-opacity="1" /><path clip-path="url(#clip240)" d="M 0 0 M423.369 8.97883 Q424.068 7.72305 425.04 7.12554 Q426.012 6.52803 427.329 6.52803 Q429.101 6.52803 430.063 7.77369 Q431.025 9.00921 431.025 11.298 L431.025 18.144 L429.152 18.144 L429.152 11.3587 Q429.152 9.72825 428.574 8.93832 Q427.997 8.14839 426.812 8.14839 Q425.364 8.14839 424.523 9.11048 Q423.683 10.0726 423.683 11.7334 L423.683 18.144 L421.809 18.144 L421.809 11.3587 Q421.809 9.71812 421.232 8.93832 Q420.655 8.14839 419.45 8.14839 Q418.022 8.14839 417.181 9.12061 Q416.341 10.0827 416.341 11.7334 L416.341 18.144 L414.467 18.144 L414.467 6.80147 L416.341 6.80147 L416.341 8.56361 Q416.979 7.5205 417.87 7.02427 Q418.761 6.52803 419.986 6.52803 Q421.222 6.52803 422.083 7.15592 Q422.954 7.78381 423.369 8.97883 Z" fill="#000000" fill-rule="evenodd" fill-opacity="1" /><path clip-path="url(#clip240)" d="M 0 0 M434.782 16.4426 L434.782 22.4582 L432.909 22.4582 L432.909 6.80147 L434.782 6.80147 L434.782 8.5231 Q435.37 7.51038 436.261 7.02427 Q437.162 6.52803 438.408 6.52803 Q440.474 6.52803 441.76 8.16865 Q443.056 9.80926 443.056 12.4829 Q443.056 15.1565 441.76 16.7971 Q440.474 18.4377 438.408 18.4377 Q437.162 18.4377 436.261 17.9516 Q435.37 17.4553 434.782 16.4426 M441.122 12.4829 Q441.122 10.427 440.271 9.26239 Q439.431 8.08763 437.952 8.08763 Q436.474 8.08763 435.623 9.26239 Q434.782 10.427 434.782 12.4829 Q434.782 14.5387 435.623 15.7135 Q436.474 16.8781 437.952 16.8781 Q439.431 16.8781 440.271 15.7135 Q441.122 14.5387 441.122 12.4829 Z" fill="#000000" fill-rule="evenodd" fill-opacity="1" /><path clip-path="url(#clip240)" d="M 0 0 M445.011 2.38598 L446.874 2.38598 L446.874 18.144 L445.011 18.144 L445.011 2.38598 Z" fill="#000000" fill-rule="evenodd" fill-opacity="1" /><path clip-path="url(#clip240)" d="M 0 0 M453.224 8.10788 Q451.725 8.10788 450.854 9.28265 Q449.983 10.4473 449.983 12.4829 Q449.983 14.5184 450.844 15.6932 Q451.715 16.8578 453.224 16.8578 Q454.713 16.8578 455.584 15.6831 Q456.455 14.5083 456.455 12.4829 Q456.455 10.4675 455.584 9.29277 Q454.713 8.10788 453.224 8.10788 M453.224 6.52803 Q455.655 6.52803 457.042 8.10788 Q458.43 9.68774 458.43 12.4829 Q458.43 15.2679 457.042 16.8578 Q455.655 18.4377 453.224 18.4377 Q450.783 18.4377 449.396 16.8578 Q448.019 15.2679 448.019 12.4829 Q448.019 9.68774 449.396 8.10788 Q450.783 6.52803 453.224 6.52803 Z" fill="#000000" fill-rule="evenodd" fill-opacity="1" /><circle clip-path="url(#clip242)" cx="591.278" cy="267.246" r="3" fill="#ffffff" fill-rule="evenodd" fill-opacity="1" stroke="#0000ff" stroke-opacity="1" stroke-width="1.1"/>
<circle clip-path="url(#clip242)" cx="581.407" cy="201.932" r="3" fill="#ffffff" fill-rule="evenodd" fill-opacity="1" stroke="#0000ff" stroke-opacity="1" stroke-width="1.1"/>
<circle clip-path="url(#clip242)" cx="552.675" cy="142.453" r="3" fill="#ffffff" fill-rule="evenodd" fill-opacity="1" stroke="#0000ff" stroke-opacity="1" stroke-width="1.1"/>
<circle clip-path="url(#clip242)" cx="507.649" cy="94.1208" r="3" fill="#ffffff" fill-rule="evenodd" fill-opacity="1" stroke="#0000ff" stroke-opacity="1" stroke-width="1.1"/>
<circle clip-path="url(#clip242)" cx="450.351" cy="61.2534" r="3" fill="#ffffff" fill-rule="evenodd" fill-opacity="1" stroke="#0000ff" stroke-opacity="1" stroke-width="1.1"/>
<circle clip-path="url(#clip242)" cx="385.899" cy="46.7868" r="3" fill="#ffffff" fill-rule="evenodd" fill-opacity="1" stroke="#0000ff" stroke-opacity="1" stroke-width="1.1"/>
<circle clip-path="url(#clip242)" cx="320.05" cy="52.0132" r="3" fill="#ffffff" fill-rule="evenodd" fill-opacity="1" stroke="#0000ff" stroke-opacity="1" stroke-width="1.1"/>
<circle clip-path="url(#clip242)" cx="258.687" cy="76.4657" r="3" fill="#ffffff" fill-rule="evenodd" fill-opacity="1" stroke="#0000ff" stroke-opacity="1" stroke-width="1.1"/>
<circle clip-path="url(#clip242)" cx="207.291" cy="117.96" r="3" fill="#ffffff" fill-rule="evenodd" fill-opacity="1" stroke="#0000ff" stroke-opacity="1" stroke-width="1.1"/>
<circle clip-path="url(#clip242)" cx="170.453" cy="172.79" r="3" fill="#ffffff" fill-rule="evenodd" fill-opacity="1" stroke="#0000ff" stroke-opacity="1" stroke-width="1.1"/>
<circle clip-path="url(#clip242)" cx="151.463" cy="236.057" r="3" fill="#ffffff" fill-rule="evenodd" fill-opacity="1" stroke="#0000ff" stroke-opacity="1" stroke-width="1.1"/>
<circle clip-path="url(#clip242)" cx="152.019" cy="302.11" r="3" fill="#ffffff" fill-rule="evenodd" fill-opacity="1" stroke="#0000ff" stroke-opacity="1" stroke-width="1.1"/>
<circle clip-path="url(#clip242)" cx="172.069" cy="365.049" r="3" fill="#ffffff" fill-rule="evenodd" fill-opacity="1" stroke="#0000ff" stroke-opacity="1" stroke-width="1.1"/>
<circle clip-path="url(#clip242)" cx="209.824" cy="419.252" r="3" fill="#ffffff" fill-rule="evenodd" fill-opacity="1" stroke="#0000ff" stroke-opacity="1" stroke-width="1.1"/>
<circle clip-path="url(#clip242)" cx="261.911" cy="459.876" r="3" fill="#ffffff" fill-rule="evenodd" fill-opacity="1" stroke="#0000ff" stroke-opacity="1" stroke-width="1.1"/>
<circle clip-path="url(#clip242)" cx="323.676" cy="483.293" r="3" fill="#ffffff" fill-rule="evenodd" fill-opacity="1" stroke="#0000ff" stroke-opacity="1" stroke-width="1.1"/>
<circle clip-path="url(#clip242)" cx="389.603" cy="487.412" r="3" fill="#ffffff" fill-rule="evenodd" fill-opacity="1" stroke="#0000ff" stroke-opacity="1" stroke-width="1.1"/>
<circle clip-path="url(#clip242)" cx="453.803" cy="471.864" r="3" fill="#ffffff" fill-rule="evenodd" fill-opacity="1" stroke="#0000ff" stroke-opacity="1" stroke-width="1.1"/>
<circle clip-path="url(#clip242)" cx="510.54" cy="438.038" r="3" fill="#ffffff" fill-rule="evenodd" fill-opacity="1" stroke="#0000ff" stroke-opacity="1" stroke-width="1.1"/>
<circle clip-path="url(#clip242)" cx="554.747" cy="388.955" r="3" fill="#ffffff" fill-rule="evenodd" fill-opacity="1" stroke="#0000ff" stroke-opacity="1" stroke-width="1.1"/>
<circle clip-path="url(#clip242)" cx="582.475" cy="329.001" r="3" fill="#ffffff" fill-rule="evenodd" fill-opacity="1" stroke="#0000ff" stroke-opacity="1" stroke-width="1.1"/>
<path clip-path="url(#clip240)" d="
M583.909 79.3768 L667.068 79.3768 L667.068 49.1368 L583.909 49.1368  Z
  " fill="#ffffff" fill-rule="evenodd" fill-opacity="1"/>
<polyline clip-path="url(#clip240)" style="stroke:#000000; stroke-width:1; stroke-opacity:1; fill:none" points="
  583.909,79.3768 667.068,79.3768 667.068,49.1368 583.909,49.1368 583.909,79.3768 
  "/>
<circle clip-path="url(#clip240)" cx="612.071" cy="64.2568" r="5" fill="#ffffff" fill-rule="evenodd" fill-opacity="1" stroke="#0000ff" stroke-opacity="1" stroke-width="1.76"/>
<path clip-path="url(#clip240)" d="M 0 0 M643.693 69.1786 Q643.242 70.336 642.813 70.689 Q642.385 71.0421 641.668 71.0421 L640.817 71.0421 L640.817 70.1509 L641.442 70.1509 Q641.882 70.1509 642.125 69.9425 Q642.368 69.7342 642.663 68.9587 L642.854 68.4726 L640.232 62.0953 L641.361 62.0953 L643.386 67.1648 L645.412 62.0953 L646.54 62.0953 L643.693 69.1786 Z" fill="#000000" fill-rule="evenodd" fill-opacity="1" /><path clip-path="url(#clip240)" d="M 0 0 M648.01 67.593 L649.92 67.593 L649.92 61.0016 L647.842 61.4183 L647.842 60.3535 L649.908 59.9368 L651.077 59.9368 L651.077 67.593 L652.987 67.593 L652.987 68.5768 L648.01 68.5768 L648.01 67.593 Z" fill="#000000" fill-rule="evenodd" fill-opacity="1" /></svg>
