<?xml version="1.0" encoding="utf-8"?>
<svg xmlns="http://www.w3.org/2000/svg" xmlns:xlink="http://www.w3.org/1999/xlink" width="550" height="550" viewBox="0 0 2200 2200">
<defs>
  <clipPath id="clip430">
    <rect x="0" y="0" width="2200" height="2200"/>
  </clipPath>
</defs>
<path clip-path="url(#clip430)" d="
M0 2200 L2200 2200 L2200 0 L0 0  Z
  " fill="#ffffff" fill-rule="evenodd" fill-opacity="1"/>
<defs>
  <clipPath id="clip431">
    <rect x="440" y="220" width="1541" height="1541"/>
  </clipPath>
</defs>
<path clip-path="url(#clip430)" d="
M73.3707 2127.53 L2188.19 2127.53 L2188.19 38.428 L73.3707 38.428  Z
  " fill="#ffffff" fill-rule="evenodd" fill-opacity="1"/>
<defs>
  <clipPath id="clip432">
    <rect x="73" y="38" width="2116" height="2090"/>
  </clipPath>
</defs>
<polyline clip-path="url(#clip432)" style="stroke:#000000; stroke-width:0.5; stroke-opacity:0.1; fill:none" points="
  137.272,2127.53 137.272,38.428 
  "/>
<polyline clip-path="url(#clip432)" style="stroke:#000000; stroke-width:0.5; stroke-opacity:0.1; fill:none" points="
  631.552,2127.53 631.552,38.428 
  "/>
<polyline clip-path="url(#clip432)" style="stroke:#000000; stroke-width:0.5; stroke-opacity:0.1; fill:none" points="
  1125.83,2127.53 1125.83,38.428 
  "/>
<polyline clip-path="url(#clip432)" style="stroke:#000000; stroke-width:0.5; stroke-opacity:0.1; fill:none" points="
  1620.11,2127.53 1620.11,38.428 
  "/>
<polyline clip-path="url(#clip432)" style="stroke:#000000; stroke-width:0.5; stroke-opacity:0.1; fill:none" points="
  2114.4,2127.53 2114.4,38.428 
  "/>
<polyline clip-path="url(#clip430)" style="stroke:#000000; stroke-width:1; stroke-opacity:1; fill:none" points="
  73.3707,2127.53 2188.19,2127.53 
  "/>
<polyline clip-path="url(#clip430)" style="stroke:#000000; stroke-width:1; stroke-opacity:1; fill:none" points="
  137.272,2127.53 137.272,2102.47 
  "/>
<polyline clip-path="url(#clip430)" style="stroke:#000000; stroke-width:1; stroke-opacity:1; fill:none" points="
  631.552,2127.53 631.552,2102.47 
  "/>
<polyline clip-path="url(#clip430)" style="stroke:#000000; stroke-width:1; stroke-opacity:1; fill:none" points="
  1125.83,2127.53 1125.83,2102.47 
  "/>
<polyline clip-path="url(#clip430)" style="stroke:#000000; stroke-width:1; stroke-opacity:1; fill:none" points="
  1620.11,2127.53 1620.11,2102.47 
  "/>
<polyline clip-path="url(#clip430)" style="stroke:#000000; stroke-width:1; stroke-opacity:1; fill:none" points="
  2114.4,2127.53 2114.4,2102.47 
  "/>
<path clip-path="url(#clip430)" d="M 0 0 M130.385 2151.3 L137.804 2151.3 L137.804 2152.28 L130.385 2152.28 L130.385 2151.3 Z" fill="#000000" fill-rule="evenodd" fill-opacity="1" /><path clip-path="url(#clip430)" d="M 0 0 M140.078 2154.52 L144.158 2154.52 L144.158 2155.5 L138.672 2155.5 L138.672 2154.52 Q139.338 2153.83 140.483 2152.67 Q141.635 2151.51 141.93 2151.17 Q142.491 2150.54 142.711 2150.11 Q142.937 2149.67 142.937 2149.25 Q142.937 2148.56 142.451 2148.12 Q141.971 2147.69 141.195 2147.69 Q140.645 2147.69 140.032 2147.88 Q139.424 2148.07 138.73 2148.46 L138.73 2147.28 Q139.436 2147 140.049 2146.85 Q140.663 2146.71 141.172 2146.71 Q142.515 2146.71 143.313 2147.38 Q144.112 2148.05 144.112 2149.17 Q144.112 2149.7 143.909 2150.18 Q143.713 2150.66 143.186 2151.31 Q143.041 2151.48 142.266 2152.28 Q141.49 2153.08 140.078 2154.52 Z" fill="#000000" fill-rule="evenodd" fill-opacity="1" /><path clip-path="url(#clip430)" d="M 0 0 M624.62 2151.3 L632.039 2151.3 L632.039 2152.28 L624.62 2152.28 L624.62 2151.3 Z" fill="#000000" fill-rule="evenodd" fill-opacity="1" /><path clip-path="url(#clip430)" d="M 0 0 M633.508 2154.52 L635.418 2154.52 L635.418 2147.93 L633.341 2148.34 L633.341 2147.28 L635.407 2146.86 L636.576 2146.86 L636.576 2154.52 L638.485 2154.52 L638.485 2155.5 L633.508 2155.5 L633.508 2154.52 Z" fill="#000000" fill-rule="evenodd" fill-opacity="1" /><path clip-path="url(#clip430)" d="M 0 0 M1125.83 2147.63 Q1124.93 2147.63 1124.47 2148.52 Q1124.02 2149.41 1124.02 2151.19 Q1124.02 2152.97 1124.47 2153.86 Q1124.93 2154.74 1125.83 2154.74 Q1126.74 2154.74 1127.19 2153.86 Q1127.65 2152.97 1127.65 2151.19 Q1127.65 2149.41 1127.19 2148.52 Q1126.74 2147.63 1125.83 2147.63 M1125.83 2146.71 Q1127.29 2146.71 1128.05 2147.86 Q1128.82 2149 1128.82 2151.19 Q1128.82 2153.37 1128.05 2154.52 Q1127.29 2155.67 1125.83 2155.67 Q1124.38 2155.67 1123.61 2154.52 Q1122.85 2153.37 1122.85 2151.19 Q1122.85 2149 1123.61 2147.86 Q1124.38 2146.71 1125.83 2146.71 Z" fill="#000000" fill-rule="evenodd" fill-opacity="1" /><path clip-path="url(#clip430)" d="M 0 0 M1617.71 2154.52 L1619.62 2154.52 L1619.62 2147.93 L1617.54 2148.34 L1617.54 2147.28 L1619.61 2146.86 L1620.78 2146.86 L1620.78 2154.52 L1622.69 2154.52 L1622.69 2155.5 L1617.71 2155.5 L1617.71 2154.52 Z" fill="#000000" fill-rule="evenodd" fill-opacity="1" /><path clip-path="url(#clip430)" d="M 0 0 M2113.06 2154.52 L2117.14 2154.52 L2117.14 2155.5 L2111.65 2155.5 L2111.65 2154.52 Q2112.32 2153.83 2113.46 2152.67 Q2114.61 2151.51 2114.91 2151.17 Q2115.47 2150.54 2115.69 2150.11 Q2115.92 2149.67 2115.92 2149.25 Q2115.92 2148.56 2115.43 2148.12 Q2114.95 2147.69 2114.18 2147.69 Q2113.63 2147.69 2113.01 2147.88 Q2112.4 2148.07 2111.71 2148.46 L2111.71 2147.28 Q2112.42 2147 2113.03 2146.85 Q2113.64 2146.71 2114.15 2146.71 Q2115.49 2146.71 2116.29 2147.38 Q2117.09 2148.05 2117.09 2149.17 Q2117.09 2149.7 2116.89 2150.18 Q2116.69 2150.66 2116.17 2151.31 Q2116.02 2151.48 2115.25 2152.28 Q2114.47 2153.08 2113.06 2154.52 Z" fill="#000000" fill-rule="evenodd" fill-opacity="1" /><path clip-path="url(#clip430)" d="M 0 0 M1118.01 2171.18 Q1118.53 2171.36 1119.02 2171.93 Q1119.51 2172.5 1120 2173.5 L1121.63 2176.75 L1119.91 2176.75 L1118.39 2173.7 Q1117.8 2172.51 1117.24 2172.12 Q1116.69 2171.73 1115.74 2171.73 L1113.99 2171.73 L1113.99 2176.75 L1112.38 2176.75 L1112.38 2164.87 L1116.01 2164.87 Q1118.04 2164.87 1119.05 2165.72 Q1120.05 2166.57 1120.05 2168.29 Q1120.05 2169.41 1119.52 2170.15 Q1119.01 2170.89 1118.01 2171.18 M1113.99 2166.19 L1113.99 2170.41 L1116.01 2170.41 Q1117.17 2170.41 1117.76 2169.88 Q1118.35 2169.33 1118.35 2168.29 Q1118.35 2167.25 1117.76 2166.72 Q1117.17 2166.19 1116.01 2166.19 L1113.99 2166.19 Z" fill="#000000" fill-rule="evenodd" fill-opacity="1" /><path clip-path="url(#clip430)" d="M 0 0 M1130.06 2171.93 L1130.06 2172.65 L1123.33 2172.65 Q1123.42 2174.16 1124.24 2174.95 Q1125.05 2175.74 1126.51 2175.74 Q1127.35 2175.74 1128.14 2175.53 Q1128.94 2175.33 1129.72 2174.91 L1129.72 2176.3 Q1128.93 2176.63 1128.1 2176.81 Q1127.27 2176.98 1126.42 2176.98 Q1124.29 2176.98 1123.04 2175.74 Q1121.8 2174.5 1121.8 2172.38 Q1121.8 2170.19 1122.98 2168.91 Q1124.16 2167.62 1126.17 2167.62 Q1127.97 2167.62 1129.01 2168.79 Q1130.06 2169.94 1130.06 2171.93 M1128.6 2171.5 Q1128.58 2170.3 1127.92 2169.58 Q1127.27 2168.87 1126.18 2168.87 Q1124.96 2168.87 1124.22 2169.56 Q1123.49 2170.25 1123.38 2171.51 L1128.6 2171.5 Z" fill="#000000" fill-rule="evenodd" fill-opacity="1" /><path clip-path="url(#clip430)" d="M 0 0 M1135.11 2164.39 Q1134.05 2166.22 1133.53 2168.01 Q1133.01 2169.8 1133.01 2171.63 Q1133.01 2173.47 1133.53 2175.28 Q1134.05 2177.08 1135.11 2178.9 L1133.84 2178.9 Q1132.65 2177.03 1132.05 2175.22 Q1131.46 2173.42 1131.46 2171.63 Q1131.46 2169.86 1132.05 2168.06 Q1132.64 2166.26 1133.84 2164.39 L1135.11 2164.39 Z" fill="#000000" fill-rule="evenodd" fill-opacity="1" /><path clip-path="url(#clip430)" d="M 0 0 M1144.06 2167.84 L1140.83 2172.18 L1144.22 2176.75 L1142.5 2176.75 L1139.9 2173.25 L1137.31 2176.75 L1135.58 2176.75 L1139.04 2172.09 L1135.88 2167.84 L1137.6 2167.84 L1139.97 2171.01 L1142.33 2167.84 L1144.06 2167.84 Z" fill="#000000" fill-rule="evenodd" fill-opacity="1" /><path clip-path="url(#clip430)" d="M 0 0 M1145.53 2164.39 L1146.8 2164.39 Q1148 2166.26 1148.58 2168.06 Q1149.18 2169.86 1149.18 2171.63 Q1149.18 2173.42 1148.58 2175.22 Q1148 2177.03 1146.8 2178.9 L1145.53 2178.9 Q1146.59 2177.08 1147.1 2175.28 Q1147.63 2173.47 1147.63 2171.63 Q1147.63 2169.8 1147.1 2168.01 Q1146.59 2166.22 1145.53 2164.39 Z" fill="#000000" fill-rule="evenodd" fill-opacity="1" /><polyline clip-path="url(#clip432)" style="stroke:#000000; stroke-width:0.5; stroke-opacity:0.1; fill:none" points="
  73.3707,2072.2 2188.19,2072.2 
  "/>
<polyline clip-path="url(#clip432)" style="stroke:#000000; stroke-width:0.5; stroke-opacity:0.1; fill:none" points="
  73.3707,1577.92 2188.19,1577.92 
  "/>
<polyline clip-path="url(#clip432)" style="stroke:#000000; stroke-width:0.5; stroke-opacity:0.1; fill:none" points="
  73.3707,1083.64 2188.19,1083.64 
  "/>
<polyline clip-path="url(#clip432)" style="stroke:#000000; stroke-width:0.5; stroke-opacity:0.1; fill:none" points="
  73.3707,589.358 2188.19,589.358 
  "/>
<polyline clip-path="url(#clip432)" style="stroke:#000000; stroke-width:0.5; stroke-opacity:0.1; fill:none" points="
  73.3707,95.0773 2188.19,95.0773 
  "/>
<polyline clip-path="url(#clip430)" style="stroke:#000000; stroke-width:1; stroke-opacity:1; fill:none" points="
  73.3707,2127.53 73.3707,38.428 
  "/>
<polyline clip-path="url(#clip430)" style="stroke:#000000; stroke-width:1; stroke-opacity:1; fill:none" points="
  73.3707,2072.2 98.7485,2072.2 
  "/>
<polyline clip-path="url(#clip430)" style="stroke:#000000; stroke-width:1; stroke-opacity:1; fill:none" points="
  73.3707,1577.92 98.7485,1577.92 
  "/>
<polyline clip-path="url(#clip430)" style="stroke:#000000; stroke-width:1; stroke-opacity:1; fill:none" points="
  73.3707,1083.64 98.7485,1083.64 
  "/>
<polyline clip-path="url(#clip430)" style="stroke:#000000; stroke-width:1; stroke-opacity:1; fill:none" points="
  73.3707,589.358 98.7485,589.358 
  "/>
<polyline clip-path="url(#clip430)" style="stroke:#000000; stroke-width:1; stroke-opacity:1; fill:none" points="
  73.3707,95.0773 98.7485,95.0773 
  "/>
<path clip-path="url(#clip430)" d="M 0 0 M26.5976 2072.31 L34.0166 2072.31 L34.0166 2073.3 L26.5976 2073.3 L26.5976 2072.31 Z" fill="#000000" fill-rule="evenodd" fill-opacity="1" /><path clip-path="url(#clip430)" d="M 0 0 M36.2909 2075.54 L40.3707 2075.54 L40.3707 2076.52 L34.8846 2076.52 L34.8846 2075.54 Q35.5501 2074.85 36.696 2073.69 Q37.8476 2072.53 38.1427 2072.19 Q38.704 2071.56 38.924 2071.13 Q39.1496 2070.69 39.1496 2070.27 Q39.1496 2069.58 38.6635 2069.14 Q38.1832 2068.71 37.4078 2068.71 Q36.858 2068.71 36.2446 2068.9 Q35.6369 2069.09 34.9425 2069.48 L34.9425 2068.3 Q35.6485 2068.01 36.2619 2067.87 Q36.8754 2067.72 37.3846 2067.72 Q38.7272 2067.72 39.5258 2068.4 Q40.3244 2069.07 40.3244 2070.19 Q40.3244 2070.72 40.1219 2071.2 Q39.9251 2071.68 39.3985 2072.33 Q39.2538 2072.49 38.4784 2073.3 Q37.7029 2074.1 36.2909 2075.54 Z" fill="#000000" fill-rule="evenodd" fill-opacity="1" /><path clip-path="url(#clip430)" d="M 0 0 M26.505 1578.03 L33.924 1578.03 L33.924 1579.02 L26.505 1579.02 L26.505 1578.03 Z" fill="#000000" fill-rule="evenodd" fill-opacity="1" /><path clip-path="url(#clip430)" d="M 0 0 M35.3939 1581.26 L37.3036 1581.26 L37.3036 1574.66 L35.2261 1575.08 L35.2261 1574.02 L37.292 1573.6 L38.461 1573.6 L38.461 1581.26 L40.3707 1581.26 L40.3707 1582.24 L35.3939 1582.24 L35.3939 1581.26 Z" fill="#000000" fill-rule="evenodd" fill-opacity="1" /><path clip-path="url(#clip430)" d="M 0 0 M37.3846 1080.09 Q36.4818 1080.09 36.0247 1080.98 Q35.5733 1081.87 35.5733 1083.65 Q35.5733 1085.42 36.0247 1086.32 Q36.4818 1087.2 37.3846 1087.2 Q38.2932 1087.2 38.7446 1086.32 Q39.2017 1085.42 39.2017 1083.65 Q39.2017 1081.87 38.7446 1080.98 Q38.2932 1080.09 37.3846 1080.09 M37.3846 1079.16 Q38.8371 1079.16 39.601 1080.31 Q40.3707 1081.46 40.3707 1083.65 Q40.3707 1085.83 39.601 1086.98 Q38.8371 1088.13 37.3846 1088.13 Q35.9321 1088.13 35.1624 1086.98 Q34.3985 1085.83 34.3985 1083.65 Q34.3985 1081.46 35.1624 1080.31 Q35.9321 1079.16 37.3846 1079.16 Z" fill="#000000" fill-rule="evenodd" fill-opacity="1" /><path clip-path="url(#clip430)" d="M 0 0 M35.3939 592.694 L37.3036 592.694 L37.3036 586.103 L35.2261 586.52 L35.2261 585.455 L37.292 585.038 L38.461 585.038 L38.461 592.694 L40.3707 592.694 L40.3707 593.678 L35.3939 593.678 L35.3939 592.694 Z" fill="#000000" fill-rule="evenodd" fill-opacity="1" /><path clip-path="url(#clip430)" d="M 0 0 M36.2909 98.4135 L40.3707 98.4135 L40.3707 99.3973 L34.8846 99.3973 L34.8846 98.4135 Q35.5501 97.7249 36.696 96.5675 Q37.8476 95.4043 38.1427 95.0687 Q38.704 94.4379 38.924 94.0038 Q39.1496 93.564 39.1496 93.1416 Q39.1496 92.4529 38.6635 92.0189 Q38.1832 91.5849 37.4078 91.5849 Q36.858 91.5849 36.2446 91.7759 Q35.6369 91.9668 34.9425 92.3546 L34.9425 91.174 Q35.6485 90.8904 36.2619 90.7458 Q36.8754 90.6011 37.3846 90.6011 Q38.7272 90.6011 39.5258 91.2724 Q40.3244 91.9437 40.3244 93.0664 Q40.3244 93.5988 40.1219 94.0791 Q39.9251 94.5536 39.3985 95.2018 Q39.2538 95.3696 38.4784 96.174 Q37.7029 96.9726 36.2909 98.4135 Z" fill="#000000" fill-rule="evenodd" fill-opacity="1" /><path clip-path="url(#clip430)" d="M 0 0 M0.0610394 1100.59 L0.0610394 1098.98 L11.941 1098.98 L11.941 1100.59 L0.0610394 1100.59 Z" fill="#000000" fill-rule="evenodd" fill-opacity="1" /><path clip-path="url(#clip430)" d="M 0 0 M4.73983 1090.51 Q3.75315 1089.96 3.28368 1089.2 Q2.81421 1088.43 2.81421 1087.4 Q2.81421 1086.01 3.79293 1085.25 Q4.76371 1084.49 6.56202 1084.49 L11.941 1084.49 L11.941 1085.97 L6.60976 1085.97 Q5.32866 1085.97 4.70801 1086.42 Q4.08735 1086.87 4.08735 1087.8 Q4.08735 1088.94 4.84328 1089.6 Q5.5992 1090.26 6.90417 1090.26 L11.941 1090.26 L11.941 1091.73 L6.60976 1091.73 Q5.3207 1091.73 4.70801 1092.19 Q4.08735 1092.64 4.08735 1093.59 Q4.08735 1094.71 4.85123 1095.37 Q5.60716 1096.03 6.90417 1096.03 L11.941 1096.03 L11.941 1097.5 L3.02905 1097.5 L3.02905 1096.03 L4.41359 1096.03 Q3.59401 1095.53 3.20411 1094.83 Q2.81421 1094.13 2.81421 1093.17 Q2.81421 1092.2 3.30755 1091.52 Q3.80089 1090.84 4.73983 1090.51 Z" fill="#000000" fill-rule="evenodd" fill-opacity="1" /><path clip-path="url(#clip430)" d="M 0 0 M-0.424346 1079.44 Q1.40579 1080.51 3.19615 1081.02 Q4.9865 1081.54 6.8246 1081.54 Q8.6627 1081.54 10.469 1081.02 Q12.2673 1080.5 14.0895 1079.44 L14.0895 1080.71 Q12.2195 1081.91 10.4133 1082.5 Q8.607 1083.09 6.8246 1083.09 Q5.05016 1083.09 3.25185 1082.5 Q1.45354 1081.92 -0.424346 1080.71 L-0.424346 1079.44 Z" fill="#000000" fill-rule="evenodd" fill-opacity="1" /><path clip-path="url(#clip430)" d="M 0 0 M3.02905 1070.5 L7.36569 1073.72 L11.941 1070.33 L11.941 1072.06 L8.4399 1074.65 L11.941 1077.24 L11.941 1078.97 L7.27816 1075.51 L3.02905 1078.68 L3.02905 1076.95 L6.20395 1074.59 L3.02905 1072.22 L3.02905 1070.5 Z" fill="#000000" fill-rule="evenodd" fill-opacity="1" /><path clip-path="url(#clip430)" d="M 0 0 M-0.424346 1069.02 L-0.424346 1067.75 Q1.45354 1066.56 3.25185 1065.97 Q5.05016 1065.37 6.8246 1065.37 Q8.607 1065.37 10.4133 1065.97 Q12.2195 1066.56 14.0895 1067.75 L14.0895 1069.02 Q12.2673 1067.97 10.469 1067.45 Q8.6627 1066.92 6.8246 1066.92 Q4.9865 1066.92 3.19615 1067.45 Q1.40579 1067.97 -0.424346 1069.02 Z" fill="#000000" fill-rule="evenodd" fill-opacity="1" /><path clip-path="url(#clip430)" d="M 0 0 M1054.9 15.9869 L1054.9 11.9259 L1051.56 11.9259 L1051.56 10.2447 L1056.93 10.2447 L1056.93 16.7363 Q1055.74 17.5769 1054.31 18.0123 Q1052.89 18.4377 1051.27 18.4377 Q1047.72 18.4377 1045.72 16.3717 Q1043.72 14.2956 1043.72 10.5992 Q1043.72 6.89261 1045.72 4.82665 Q1047.72 2.75056 1051.27 2.75056 Q1052.74 2.75056 1054.07 3.11515 Q1055.41 3.47973 1056.53 4.18863 L1056.53 6.366 Q1055.4 5.40391 1054.12 4.9178 Q1052.85 4.43169 1051.44 4.43169 Q1048.66 4.43169 1047.27 5.98116 Q1045.88 7.53063 1045.88 10.5992 Q1045.88 13.6576 1047.27 15.2071 Q1048.66 16.7566 1051.44 16.7566 Q1052.52 16.7566 1053.37 16.5743 Q1054.22 16.3819 1054.9 15.9869 Z" fill="#000000" fill-rule="evenodd" fill-opacity="1" /><path clip-path="url(#clip430)" d="M 0 0 M1065.45 8.54336 Q1065.14 8.36107 1064.77 8.28005 Q1064.4 8.1889 1063.96 8.1889 Q1062.38 8.1889 1061.52 9.22188 Q1060.68 10.2447 1060.68 12.1689 L1060.68 18.144 L1058.81 18.144 L1058.81 6.80147 L1060.68 6.80147 L1060.68 8.56361 Q1061.27 7.53063 1062.21 7.0344 Q1063.16 6.52803 1064.5 6.52803 Q1064.69 6.52803 1064.93 6.55841 Q1065.16 6.57867 1065.44 6.6293 L1065.45 8.54336 Z" fill="#000000" fill-rule="evenodd" fill-opacity="1" /><path clip-path="url(#clip430)" d="M 0 0 M1072.56 12.4424 Q1070.3 12.4424 1069.43 12.9588 Q1068.56 13.4753 1068.56 14.721 Q1068.56 15.7135 1069.21 16.3008 Q1069.87 16.8781 1070.99 16.8781 Q1072.54 16.8781 1073.47 15.7843 Q1074.42 14.6805 1074.42 12.8576 L1074.42 12.4424 L1072.56 12.4424 M1076.28 11.6727 L1076.28 18.144 L1074.42 18.144 L1074.42 16.4224 Q1073.78 17.4553 1072.83 17.9516 Q1071.87 18.4377 1070.5 18.4377 Q1068.76 18.4377 1067.72 17.4655 Q1066.7 16.4831 1066.7 14.8425 Q1066.7 12.9285 1067.98 11.9562 Q1069.26 10.984 1071.8 10.984 L1074.42 10.984 L1074.42 10.8017 Q1074.42 9.51557 1073.57 8.81679 Q1072.73 8.10788 1071.2 8.10788 Q1070.22 8.10788 1069.3 8.34081 Q1068.38 8.57374 1067.53 9.03959 L1067.53 7.31796 Q1068.55 6.923 1069.51 6.73058 Q1070.48 6.52803 1071.39 6.52803 Q1073.85 6.52803 1075.06 7.80407 Q1076.28 9.0801 1076.28 11.6727 M1072.88 1.55555 L1074.89 1.55555 L1071.59 5.3634 L1070.04 5.3634 L1072.88 1.55555 Z" fill="#000000" fill-rule="evenodd" fill-opacity="1" /><path clip-path="url(#clip430)" d="M 0 0 M1083.98 2.38598 L1083.98 3.93545 L1082.19 3.93545 Q1081.19 3.93545 1080.8 4.34054 Q1080.41 4.74563 1080.41 5.79887 L1080.41 6.80147 L1083.48 6.80147 L1083.48 8.24967 L1080.41 8.24967 L1080.41 18.144 L1078.54 18.144 L1078.54 8.24967 L1076.76 8.24967 L1076.76 6.80147 L1078.54 6.80147 L1078.54 6.01154 Q1078.54 4.11774 1079.42 3.25693 Q1080.3 2.38598 1082.21 2.38598 L1083.98 2.38598 Z" fill="#000000" fill-rule="evenodd" fill-opacity="1" /><path clip-path="url(#clip430)" d="M 0 0 M1085.93 6.80147 L1087.79 6.80147 L1087.79 18.144 L1085.93 18.144 L1085.93 6.80147 M1085.93 2.38598 L1087.79 2.38598 L1087.79 4.74563 L1085.93 4.74563 L1085.93 2.38598 Z" fill="#000000" fill-rule="evenodd" fill-opacity="1" /><path clip-path="url(#clip430)" d="M 0 0 M1097.91 7.23694 L1097.91 8.97883 Q1097.12 8.54336 1096.32 8.33068 Q1095.53 8.10788 1094.72 8.10788 Q1092.91 8.10788 1091.91 9.26239 Q1090.9 10.4068 1090.9 12.4829 Q1090.9 14.5589 1091.91 15.7135 Q1092.91 16.8578 1094.72 16.8578 Q1095.53 16.8578 1096.32 16.6452 Q1097.12 16.4224 1097.91 15.9869 L1097.91 17.7085 Q1097.13 18.0731 1096.29 18.2554 Q1095.46 18.4377 1094.52 18.4377 Q1091.96 18.4377 1090.45 16.8275 Q1088.94 15.2172 1088.94 12.4829 Q1088.94 9.70799 1090.46 8.11801 Q1091.99 6.52803 1094.64 6.52803 Q1095.5 6.52803 1096.32 6.71032 Q1097.14 6.88249 1097.91 7.23694 Z" fill="#000000" fill-rule="evenodd" fill-opacity="1" /><path clip-path="url(#clip430)" d="M 0 0 M1105.02 12.4424 Q1102.76 12.4424 1101.89 12.9588 Q1101.02 13.4753 1101.02 14.721 Q1101.02 15.7135 1101.67 16.3008 Q1102.33 16.8781 1103.45 16.8781 Q1105 16.8781 1105.93 15.7843 Q1106.87 14.6805 1106.87 12.8576 L1106.87 12.4424 L1105.02 12.4424 M1108.74 11.6727 L1108.74 18.144 L1106.87 18.144 L1106.87 16.4224 Q1106.24 17.4553 1105.28 17.9516 Q1104.33 18.4377 1102.96 18.4377 Q1101.21 18.4377 1100.18 17.4655 Q1099.16 16.4831 1099.16 14.8425 Q1099.16 12.9285 1100.43 11.9562 Q1101.72 10.984 1104.26 10.984 L1106.87 10.984 L1106.87 10.8017 Q1106.87 9.51557 1106.02 8.81679 Q1105.18 8.10788 1103.65 8.10788 Q1102.68 8.10788 1101.76 8.34081 Q1100.84 8.57374 1099.99 9.03959 L1099.99 7.31796 Q1101.01 6.923 1101.97 6.73058 Q1102.93 6.52803 1103.85 6.52803 Q1106.31 6.52803 1107.52 7.80407 Q1108.74 9.0801 1108.74 11.6727 Z" fill="#000000" fill-rule="evenodd" fill-opacity="1" /><path clip-path="url(#clip430)" d="M 0 0 M1124.75 8.5231 L1124.75 2.38598 L1126.61 2.38598 L1126.61 18.144 L1124.75 18.144 L1124.75 16.4426 Q1124.16 17.4553 1123.26 17.9516 Q1122.37 18.4377 1121.11 18.4377 Q1119.06 18.4377 1117.76 16.7971 Q1116.48 15.1565 1116.48 12.4829 Q1116.48 9.80926 1117.76 8.16865 Q1119.06 6.52803 1121.11 6.52803 Q1122.37 6.52803 1123.26 7.02427 Q1124.16 7.51038 1124.75 8.5231 M1118.4 12.4829 Q1118.4 14.5387 1119.24 15.7135 Q1120.09 16.8781 1121.57 16.8781 Q1123.05 16.8781 1123.9 15.7135 Q1124.75 14.5387 1124.75 12.4829 Q1124.75 10.427 1123.9 9.26239 Q1123.05 8.08763 1121.57 8.08763 Q1120.09 8.08763 1119.24 9.26239 Q1118.4 10.427 1118.4 12.4829 Z" fill="#000000" fill-rule="evenodd" fill-opacity="1" /><path clip-path="url(#clip430)" d="M 0 0 M1138.27 12.0069 L1138.27 12.9183 L1129.7 12.9183 Q1129.82 14.8425 1130.86 15.8552 Q1131.9 16.8578 1133.75 16.8578 Q1134.83 16.8578 1135.83 16.5945 Q1136.84 16.3312 1137.83 15.8046 L1137.83 17.5667 Q1136.83 17.9921 1135.78 18.2149 Q1134.72 18.4377 1133.64 18.4377 Q1130.93 18.4377 1129.34 16.8578 Q1127.76 15.278 1127.76 12.5841 Q1127.76 9.79914 1129.26 8.16865 Q1130.76 6.52803 1133.32 6.52803 Q1135.61 6.52803 1136.93 8.00661 Q1138.27 9.47506 1138.27 12.0069 M1136.41 11.46 Q1136.39 9.93079 1135.54 9.01934 Q1134.71 8.10788 1133.34 8.10788 Q1131.78 8.10788 1130.84 8.98896 Q1129.9 9.87003 1129.76 11.4701 L1136.41 11.46 Z" fill="#000000" fill-rule="evenodd" fill-opacity="1" /><path clip-path="url(#clip430)" d="M 0 0 M1156.52 12.0069 L1156.52 12.9183 L1147.95 12.9183 Q1148.07 14.8425 1149.11 15.8552 Q1150.15 16.8578 1152 16.8578 Q1153.08 16.8578 1154.08 16.5945 Q1155.09 16.3312 1156.08 15.8046 L1156.08 17.5667 Q1155.08 17.9921 1154.03 18.2149 Q1152.97 18.4377 1151.89 18.4377 Q1149.18 18.4377 1147.59 16.8578 Q1146.01 15.278 1146.01 12.5841 Q1146.01 9.79914 1147.51 8.16865 Q1149.01 6.52803 1151.57 6.52803 Q1153.85 6.52803 1155.18 8.00661 Q1156.52 9.47506 1156.52 12.0069 M1154.65 11.46 Q1154.63 9.93079 1153.79 9.01934 Q1152.96 8.10788 1151.59 8.10788 Q1150.03 8.10788 1149.08 8.98896 Q1148.15 9.87003 1148.01 11.4701 L1154.65 11.46 Z" fill="#000000" fill-rule="evenodd" fill-opacity="1" /><path clip-path="url(#clip430)" d="M 0 0 M1158.47 6.80147 L1160.34 6.80147 L1160.34 18.3465 Q1160.34 20.5138 1159.51 21.486 Q1158.69 22.4582 1156.85 22.4582 L1156.14 22.4582 L1156.14 20.8784 L1156.64 20.8784 Q1157.7 20.8784 1158.09 20.3821 Q1158.47 19.896 1158.47 18.3465 L1158.47 6.80147 M1158.47 2.38598 L1160.34 2.38598 L1160.34 4.74563 L1158.47 4.74563 L1158.47 2.38598 Z" fill="#000000" fill-rule="evenodd" fill-opacity="1" /><path clip-path="url(#clip430)" d="M 0 0 M1171.99 12.0069 L1171.99 12.9183 L1163.43 12.9183 Q1163.55 14.8425 1164.58 15.8552 Q1165.62 16.8578 1167.48 16.8578 Q1168.55 16.8578 1169.55 16.5945 Q1170.56 16.3312 1171.56 15.8046 L1171.56 17.5667 Q1170.55 17.9921 1169.5 18.2149 Q1168.45 18.4377 1167.36 18.4377 Q1164.65 18.4377 1163.06 16.8578 Q1161.48 15.278 1161.48 12.5841 Q1161.48 9.79914 1162.98 8.16865 Q1164.49 6.52803 1167.04 6.52803 Q1169.33 6.52803 1170.66 8.00661 Q1171.99 9.47506 1171.99 12.0069 M1170.13 11.46 Q1170.11 9.93079 1169.27 9.01934 Q1168.44 8.10788 1167.06 8.10788 Q1165.5 8.10788 1164.56 8.98896 Q1163.63 9.87003 1163.49 11.4701 L1170.13 11.46 Z" fill="#000000" fill-rule="evenodd" fill-opacity="1" /><path clip-path="url(#clip430)" d="M 0 0 M1182.78 8.97883 Q1183.48 7.72305 1184.45 7.12554 Q1185.42 6.52803 1186.74 6.52803 Q1188.51 6.52803 1189.47 7.77369 Q1190.43 9.00921 1190.43 11.298 L1190.43 18.144 L1188.56 18.144 L1188.56 11.3587 Q1188.56 9.72825 1187.98 8.93832 Q1187.41 8.14839 1186.22 8.14839 Q1184.77 8.14839 1183.93 9.11048 Q1183.09 10.0726 1183.09 11.7334 L1183.09 18.144 L1181.22 18.144 L1181.22 11.3587 Q1181.22 9.71812 1180.64 8.93832 Q1180.06 8.14839 1178.86 8.14839 Q1177.43 8.14839 1176.59 9.12061 Q1175.75 10.0827 1175.75 11.7334 L1175.75 18.144 L1173.88 18.144 L1173.88 6.80147 L1175.75 6.80147 L1175.75 8.56361 Q1176.39 7.5205 1177.28 7.02427 Q1178.17 6.52803 1179.4 6.52803 Q1180.63 6.52803 1181.49 7.15592 Q1182.36 7.78381 1182.78 8.97883 Z" fill="#000000" fill-rule="evenodd" fill-opacity="1" /><path clip-path="url(#clip430)" d="M 0 0 M1194.19 16.4426 L1194.19 22.4582 L1192.32 22.4582 L1192.32 6.80147 L1194.19 6.80147 L1194.19 8.5231 Q1194.78 7.51038 1195.67 7.02427 Q1196.57 6.52803 1197.82 6.52803 Q1199.88 6.52803 1201.17 8.16865 Q1202.47 9.80926 1202.47 12.4829 Q1202.47 15.1565 1201.17 16.7971 Q1199.88 18.4377 1197.82 18.4377 Q1196.57 18.4377 1195.67 17.9516 Q1194.78 17.4553 1194.19 16.4426 M1200.53 12.4829 Q1200.53 10.427 1199.68 9.26239 Q1198.84 8.08763 1197.36 8.08763 Q1195.88 8.08763 1195.03 9.26239 Q1194.19 10.427 1194.19 12.4829 Q1194.19 14.5387 1195.03 15.7135 Q1195.88 16.8781 1197.36 16.8781 Q1198.84 16.8781 1199.68 15.7135 Q1200.53 14.5387 1200.53 12.4829 Z" fill="#000000" fill-rule="evenodd" fill-opacity="1" /><path clip-path="url(#clip430)" d="M 0 0 M1204.42 2.38598 L1206.28 2.38598 L1206.28 18.144 L1204.42 18.144 L1204.42 2.38598 Z" fill="#000000" fill-rule="evenodd" fill-opacity="1" /><path clip-path="url(#clip430)" d="M 0 0 M1212.63 8.10788 Q1211.13 8.10788 1210.26 9.28265 Q1209.39 10.4473 1209.39 12.4829 Q1209.39 14.5184 1210.25 15.6932 Q1211.12 16.8578 1212.63 16.8578 Q1214.12 16.8578 1214.99 15.6831 Q1215.86 14.5083 1215.86 12.4829 Q1215.86 10.4675 1214.99 9.29277 Q1214.12 8.10788 1212.63 8.10788 M1212.63 6.52803 Q1215.06 6.52803 1216.45 8.10788 Q1217.84 9.68774 1217.84 12.4829 Q1217.84 15.2679 1216.45 16.8578 Q1215.06 18.4377 1212.63 18.4377 Q1210.19 18.4377 1208.81 16.8578 Q1207.43 15.2679 1207.43 12.4829 Q1207.43 9.68774 1208.81 8.10788 Q1210.19 6.52803 1212.63 6.52803 Z" fill="#000000" fill-rule="evenodd" fill-opacity="1" /><circle clip-path="url(#clip432)" cx="2114.4" cy="1083.64" r="3" fill="#ffffff" fill-rule="evenodd" fill-opacity="1" stroke="#0000ff" stroke-opacity="1" stroke-width="4.4"/>
<circle clip-path="url(#clip432)" cx="2070.24" cy="791.499" r="3" fill="#ffffff" fill-rule="evenodd" fill-opacity="1" stroke="#0000ff" stroke-opacity="1" stroke-width="4.4"/>
<circle clip-path="url(#clip432)" cx="1941.73" cy="525.455" r="3" fill="#ffffff" fill-rule="evenodd" fill-opacity="1" stroke="#0000ff" stroke-opacity="1" stroke-width="4.4"/>
<circle clip-path="url(#clip432)" cx="1740.33" cy="309.272" r="3" fill="#ffffff" fill-rule="evenodd" fill-opacity="1" stroke="#0000ff" stroke-opacity="1" stroke-width="4.4"/>
<circle clip-path="url(#clip432)" cx="1484.05" cy="162.261" r="3" fill="#ffffff" fill-rule="evenodd" fill-opacity="1" stroke="#0000ff" stroke-opacity="1" stroke-width="4.4"/>
<circle clip-path="url(#clip432)" cx="1195.76" cy="97.5537" r="3" fill="#ffffff" fill-rule="evenodd" fill-opacity="1" stroke="#0000ff" stroke-opacity="1" stroke-width="4.4"/>
<circle clip-path="url(#clip432)" cx="901.23" cy="120.931" r="3" fill="#ffffff" fill-rule="evenodd" fill-opacity="1" stroke="#0000ff" stroke-opacity="1" stroke-width="4.4"/>
<circle clip-path="url(#clip432)" cx="626.762" cy="230.303" r="3" fill="#ffffff" fill-rule="evenodd" fill-opacity="1" stroke="#0000ff" stroke-opacity="1" stroke-width="4.4"/>
<circle clip-path="url(#clip432)" cx="396.874" cy="415.902" r="3" fill="#ffffff" fill-rule="evenodd" fill-opacity="1" stroke="#0000ff" stroke-opacity="1" stroke-width="4.4"/>
<circle clip-path="url(#clip432)" cx="232.102" cy="661.148" r="3" fill="#ffffff" fill-rule="evenodd" fill-opacity="1" stroke="#0000ff" stroke-opacity="1" stroke-width="4.4"/>
<circle clip-path="url(#clip432)" cx="147.165" cy="944.133" r="3" fill="#ffffff" fill-rule="evenodd" fill-opacity="1" stroke="#0000ff" stroke-opacity="1" stroke-width="4.4"/>
<circle clip-path="url(#clip432)" cx="149.649" cy="1239.58" r="3" fill="#ffffff" fill-rule="evenodd" fill-opacity="1" stroke="#0000ff" stroke-opacity="1" stroke-width="4.4"/>
<circle clip-path="url(#clip432)" cx="239.332" cy="1521.1" r="3" fill="#ffffff" fill-rule="evenodd" fill-opacity="1" stroke="#0000ff" stroke-opacity="1" stroke-width="4.4"/>
<circle clip-path="url(#clip432)" cx="408.204" cy="1763.54" r="3" fill="#ffffff" fill-rule="evenodd" fill-opacity="1" stroke="#0000ff" stroke-opacity="1" stroke-width="4.4"/>
<circle clip-path="url(#clip432)" cx="641.18" cy="1945.25" r="3" fill="#ffffff" fill-rule="evenodd" fill-opacity="1" stroke="#0000ff" stroke-opacity="1" stroke-width="4.4"/>
<circle clip-path="url(#clip432)" cx="917.449" cy="2049.99" r="3" fill="#ffffff" fill-rule="evenodd" fill-opacity="1" stroke="#0000ff" stroke-opacity="1" stroke-width="4.4"/>
<circle clip-path="url(#clip432)" cx="1212.33" cy="2068.41" r="3" fill="#ffffff" fill-rule="evenodd" fill-opacity="1" stroke="#0000ff" stroke-opacity="1" stroke-width="4.4"/>
<circle clip-path="url(#clip432)" cx="1499.49" cy="1998.86" r="3" fill="#ffffff" fill-rule="evenodd" fill-opacity="1" stroke="#0000ff" stroke-opacity="1" stroke-width="4.4"/>
<circle clip-path="url(#clip432)" cx="1753.27" cy="1847.56" r="3" fill="#ffffff" fill-rule="evenodd" fill-opacity="1" stroke="#0000ff" stroke-opacity="1" stroke-width="4.4"/>
<circle clip-path="url(#clip432)" cx="1951" cy="1628.03" r="3" fill="#ffffff" fill-rule="evenodd" fill-opacity="1" stroke="#0000ff" stroke-opacity="1" stroke-width="4.4"/>
<circle clip-path="url(#clip432)" cx="2075.02" cy="1359.86" r="3" fill="#ffffff" fill-rule="evenodd" fill-opacity="1" stroke="#0000ff" stroke-opacity="1" stroke-width="4.4"/>
<path clip-path="url(#clip430)" d="
M1869.96 138.305 L2117.7 138.305 L2117.7 108.065 L1869.96 108.065  Z
  " fill="#ffffff" fill-rule="evenodd" fill-opacity="1"/>
<polyline clip-path="url(#clip430)" style="stroke:#000000; stroke-width:1; stroke-opacity:1; fill:none" points="
  1869.96,138.305 2117.7,138.305 2117.7,108.065 1869.96,108.065 1869.96,138.305 
  "/>
<circle clip-path="url(#clip430)" cx="1963.95" cy="123.185" r="5" fill="#ffffff" fill-rule="evenodd" fill-opacity="1" stroke="#0000ff" stroke-opacity="1" stroke-width="7.04"/>
<path clip-path="url(#clip430)" d="M 0 0 M2061.41 128.107 Q2060.95 129.264 2060.53 129.617 Q2060.1 129.97 2059.38 129.97 L2058.53 129.97 L2058.53 129.079 L2059.15 129.079 Q2059.59 129.079 2059.84 128.871 Q2060.08 128.662 2060.38 127.887 L2060.57 127.401 L2057.94 121.023 L2059.07 121.023 L2061.1 126.093 L2063.12 121.023 L2064.25 121.023 L2061.41 128.107 Z" fill="#000000" fill-rule="evenodd" fill-opacity="1" /><path clip-path="url(#clip430)" d="M 0 0 M2065.72 126.521 L2067.63 126.521 L2067.63 119.93 L2065.55 120.346 L2065.55 119.282 L2067.62 118.865 L2068.79 118.865 L2068.79 126.521 L2070.7 126.521 L2070.7 127.505 L2065.72 127.505 L2065.72 126.521 Z" fill="#000000" fill-rule="evenodd" fill-opacity="1" /></svg>
